<?xml version="1.0"?>
<Project_Data Version="8.00">
<Project_Settings>
<ProfileName>MP4 only (up to 1080p)</ProfileName>
<ProjectWidth>1920</ProjectWidth>
<ProjectHeight>1080</ProjectHeight>
<IsCustomProject>1</IsCustomProject>
<SavedProjectSettings>1</SavedProjectSettings>
<LastFlashTemplate>-1</LastFlashTemplate>
</Project_Settings>


<AutoSaveFile>C:\Users\Administrator\AppData\Local\TechSmith\Camtasia Studio\8.0\Auto-Saves\14.flex-basis1e9bcf2.autosave.camproj</AutoSaveFile>

<ProjectID>53A43393-FD8C-43EE-85EE-CE8533A28FBC</ProjectID>

<PowerPointProject>0</PowerPointProject>

<PowerPointFilename></PowerPointFilename>


<Project_Notes>
</Project_Notes>

<Project_MetaData>
<Project_MetaData_Object>
<FieldArrayKey>8</FieldArrayKey>
<Value>14.flex-basis</Value>
</Project_MetaData_Object>
<Project_MetaData_Object>
<FieldArrayKey>13</FieldArrayKey>
<Value>2017-02-25 03:58:17 PM</Value>
</Project_MetaData_Object>
<Project_MetaData_Object>
<FieldArrayKey>16</FieldArrayKey>
<Value>ENU</Value>
</Project_MetaData_Object>
</Project_MetaData>

<CSMLData>
<GoProject id="1" version="3.0" >
 <Project id="2" editRate="30/1" version="3.0" >
  <Author></Author>
  <Comment></Comment>
  <System></System>
  <SourceBin id="3"  >
    <Source id="4" src="D:\Peter Sommerhoff\Source Files\14.flex-basis.trec" lastMod="20170224T083500" rect="(0,0,1920,1080)" >
      <SourceTrack range="(0,46482)" type="0" editRate="60/1" trackRect="(0,0,1920,1080)" sampleRate="0/1" bitDepth="0" numChannels="0" filename="14.flex-basis.trec!Strack0.tsc2" metaData="14.flex-basis.trec;" />
      <SourceTrack range="(0,34179072)" type="2" editRate="44100/1" trackRect="(0,0,0,0)" sampleRate="44100/1" bitDepth="16" numChannels="2" filename="14.flex-basis.trec!Maudio1.mp4" metaData="" />
    </Source>
  </SourceBin>
  <Timeline id="5"  >
   <Attributes>
    <Attribute id="6" value="1920" name="width"/>
    <Attribute id="7" value="1080" name="height"/>
    <Attribute id="8" value="(0,0,0,255)" name="backgroundColor"/>
   </Attributes>
    <GenericMixer id="9"  name="Unified Mixer">
     <MetaData>
      <entry key="MixerType" val="TimelineMixer"/>
     </MetaData>
     <Tracks>
      <GenericTrack id="10"  >
       <Attributes>
        <Attribute id="11" value="" name="ident"/>
        <Attribute id="12" value="0" name="audioMuted"/>
        <Attribute id="13" value="0" name="videoHidden"/>
       </Attributes>
       <MetaData>
        <entry key="IsLocked" val="False"/>
        <entry key="WinTrackHeight" val="40"/>
       </MetaData>
       <Medias>
       </Medias>
      </GenericTrack>
      <GenericTrack id="14"  >
       <Attributes>
        <Attribute id="15" value="" name="ident"/>
        <Attribute id="16" value="0" name="audioMuted"/>
        <Attribute id="17" value="0" name="videoHidden"/>
       </Attributes>
       <MetaData>
        <entry key="IsLocked" val="False"/>
        <entry key="WinTrackHeight" val="148"/>
       </MetaData>
       <Medias>
        <UnifiedMedia id="18"  >
         <AudioTransition id="19" start="2" duration="44" >
          <Parameters>
           <InterpolatingParam id="20" interp="linr"  time="0/1" value="1" leadInLength="0/1"  name="volume"/>
           <Parameter id="21"  name="captions"/>
          </Parameters>
          <Effects>
           <GenericEffect id="22" name = "AudioTransition" >
            <Parameters>
            <Parameter id="23"   name="audioEdgeModType">
             <Keyframes>
             <Keyframe id="24"  time="0/1" value="0" leadInLength="0/1"  />
             </Keyframes>
            </Parameter>
            <Parameter id="25"   name="audioTransitionType">
             <Keyframes>
             <Keyframe id="26"  time="0/1" value="" leadInLength="0/1"  />
             </Keyframes>
            </Parameter>
            </Parameters>
            <MetaData>
            </MetaData>
           </GenericEffect>
          </Effects>
          <Attributes>
           <Attribute id="27" value="" name="ident"/>
           <Attribute id="28" value="0" name="sampleRate"/>
           <Attribute id="29" value="0" name="bitDepth"/>
           <Attribute id="30" value="1" name="gain"/>
           <Attribute id="31" value="0" name="mixToMono"/>
          </Attributes>
         </AudioTransition>
         <ImageTransition id="32" start="2" duration="44" >
          <Transformer>
           <VectorParam id="33"  name="translation">
            <InterpolatingParam id="34" interp="linr"  time="0/1" value="0" leadInLength="0/1"  />
            <InterpolatingParam id="35" interp="linr"  time="0/1" value="0" leadInLength="0/1"  />
            <InterpolatingParam id="36" interp="linr"  time="0/1" value="0" leadInLength="0/1"  />
           </VectorParam>
           <VectorParam id="37"  name="rotation">
            <InterpolatingParam id="38" interp="linr"  time="0/1" value="0" leadInLength="0/1"  />
            <InterpolatingParam id="39" interp="linr"  time="0/1" value="0" leadInLength="0/1"  />
            <InterpolatingParam id="40" interp="linr"  time="0/1" value="0" leadInLength="0/1"  />
           </VectorParam>
           <VectorParam id="41"  name="shear">
            <InterpolatingParam id="42" interp="linr"  time="0/1" value="0" leadInLength="0/1"  />
            <InterpolatingParam id="43" interp="linr"  time="0/1" value="0" leadInLength="0/1"  />
            <InterpolatingParam id="44" interp="linr"  time="0/1" value="0" leadInLength="0/1"  />
           </VectorParam>
           <VectorParam id="45"  name="scale">
            <InterpolatingParam id="46" interp="linr"  time="0/1" value="1" leadInLength="0/1"  />
            <InterpolatingParam id="47" interp="linr"  time="0/1" value="1" leadInLength="0/1"  />
            <InterpolatingParam id="48" interp="linr"  time="0/1" value="1" leadInLength="0/1"  />
           </VectorParam>
           <VectorParam id="49"  name="anchor">
            <InterpolatingParam id="50" interp="linr"  time="0/1" value="0" leadInLength="0/1"  />
            <InterpolatingParam id="51" interp="linr"  time="0/1" value="0" leadInLength="0/1"  />
            <InterpolatingParam id="52" interp="linr"  time="0/1" value="0" leadInLength="0/1"  />
           </VectorParam>
          </Transformer>
          <Parameters>
           <VectorParam id="53"  name="sourceCrop">
            <InterpolatingParam id="54" interp="linr"  time="0/1" value="0" leadInLength="0/1"  />
            <InterpolatingParam id="55" interp="linr"  time="0/1" value="0" leadInLength="0/1"  />
            <InterpolatingParam id="56" interp="linr"  time="0/1" value="0" leadInLength="0/1"  />
            <InterpolatingParam id="57" interp="linr"  time="0/1" value="0" leadInLength="0/1"  />
           </VectorParam>
           <VectorParam id="58"  name="geometryCrop">
            <InterpolatingParam id="59" interp="linr"  time="0/1" value="0" leadInLength="0/1"  />
            <InterpolatingParam id="60" interp="linr"  time="0/1" value="0" leadInLength="0/1"  />
            <InterpolatingParam id="61" interp="linr"  time="0/1" value="0" leadInLength="0/1"  />
            <InterpolatingParam id="62" interp="linr"  time="0/1" value="0" leadInLength="0/1"  />
           </VectorParam>
           <InterpolatingParam id="63" interp="linr"  time="0/1" value="1" leadInLength="0/1"  name="opacity"/>
          </Parameters>
          <Effects>
           <GenericEffect id="64" name = "VisualTransition" >
            <Parameters>
            <InterpolatingParam id="65" interp="linr"  time="0/1" value="0.5" leadInLength="0/1"   name="leftFramePercentage"/>
            <InterpolatingParam id="66" interp="linr"  time="0/1" value="0.5" leadInLength="0/1"   name="rightFramePercentage"/>
            <Parameter id="67"   name="visualEdgeModType">
             <Keyframes>
             <Keyframe id="68"  time="0/1" value="1" leadInLength="0/1"  />
             </Keyframes>
            </Parameter>
            <Parameter id="69"   name="visualTransitionType">
             <Keyframes>
             <Keyframe id="70"  time="0/1" value="Glow" leadInLength="0/1"  />
             </Keyframes>
            </Parameter>
            </Parameters>
            <MetaData>
            </MetaData>
           </GenericEffect>
          </Effects>
          <Attributes>
           <Attribute id="71" value="" name="ident"/>
          </Attributes>
          <ExtraData>
           <Entry key="ZoomPanBin">
            <ZoomPanBin id="72"  >
             <ZoomPanKeyframes>
             </ZoomPanKeyframes>
            </ZoomPanBin>
           </Entry>
          </ExtraData>
         </ImageTransition>
         <MetaData>
          <entry key="WinSubProjectDisplayName" val=""/>
         </MetaData>
        </UnifiedMedia>
        <StitchedMedia id="73" start="46" duration="15190" scalar="1/1" mediaStart="148/1" mediaDuration="15190/1" minMediaStart="0/1" >
         <Transformer>
          <VectorParam id="74"  name="translation">
           <InterpolatingParam id="75" interp="linr"  time="-9999999/1" value="0" leadInLength="0/1"  interpolater="leadin-linr"  />
           <InterpolatingParam id="76" interp="linr"  time="-9999999/1" value="0" leadInLength="0/1"  interpolater="leadin-linr"  />
           <InterpolatingParam id="77" interp="linr"  time="-9999999/1" value="0" leadInLength="0/1"  interpolater="leadin-linr"  />
          </VectorParam>
          <VectorParam id="78"  name="rotation">
           <InterpolatingParam id="79" interp="linr"  time="-9999999/1" value="0" leadInLength="0/1"  interpolater="leadin-linr"  />
           <InterpolatingParam id="80" interp="linr"  time="-9999999/1" value="0" leadInLength="0/1"  interpolater="leadin-linr"  />
           <InterpolatingParam id="81" interp="linr"  time="-9999999/1" value="0" leadInLength="0/1"  interpolater="leadin-linr"  />
          </VectorParam>
          <VectorParam id="82"  name="shear">
           <InterpolatingParam id="83" interp="linr"  time="-9999999/1" value="0" leadInLength="0/1"  interpolater="leadin-linr"  />
           <InterpolatingParam id="84" interp="linr"  time="-9999999/1" value="0" leadInLength="0/1"  interpolater="leadin-linr"  />
           <InterpolatingParam id="85" interp="linr"  time="-9999999/1" value="0" leadInLength="0/1"  interpolater="leadin-linr"  />
          </VectorParam>
          <VectorParam id="86"  name="scale">
           <InterpolatingParam id="87" interp="linr"  time="-9999999/1" value="1" leadInLength="0/1"  interpolater="leadin-linr"  />
           <InterpolatingParam id="88" interp="linr"  time="-9999999/1" value="1" leadInLength="0/1"  interpolater="leadin-linr"  />
           <InterpolatingParam id="89" interp="linr"  time="-9999999/1" value="1" leadInLength="0/1"  interpolater="leadin-linr"  />
          </VectorParam>
          <VectorParam id="90"  name="anchor">
           <InterpolatingParam id="91" interp="linr"  time="0/1" value="0" leadInLength="0/1"  />
           <InterpolatingParam id="92" interp="linr"  time="0/1" value="0" leadInLength="0/1"  />
           <InterpolatingParam id="93" interp="linr"  time="0/1" value="0" leadInLength="0/1"  />
          </VectorParam>
         </Transformer>
         <Parameters>
          <VectorParam id="94"  name="sourceCrop">
           <InterpolatingParam id="95" interp="linr"  time="0/1" value="0" leadInLength="0/1"  />
           <InterpolatingParam id="96" interp="linr"  time="0/1" value="0" leadInLength="0/1"  />
           <InterpolatingParam id="97" interp="linr"  time="0/1" value="0" leadInLength="0/1"  />
           <InterpolatingParam id="98" interp="linr"  time="0/1" value="0" leadInLength="0/1"  />
          </VectorParam>
          <VectorParam id="99"  name="geometryCrop">
           <InterpolatingParam id="100" interp="linr"  time="-9999999/1" value="0" leadInLength="0/1"  interpolater="leadin-linr"  />
           <InterpolatingParam id="101" interp="linr"  time="-9999999/1" value="0" leadInLength="0/1"  interpolater="leadin-linr"  />
           <InterpolatingParam id="102" interp="linr"  time="-9999999/1" value="0" leadInLength="0/1"  interpolater="leadin-linr"  />
           <InterpolatingParam id="103" interp="linr"  time="-9999999/1" value="0" leadInLength="0/1"  interpolater="leadin-linr"  />
          </VectorParam>
          <InterpolatingParam id="104" interp="linr"  time="-9999999/1" value="1" leadInLength="0/1"  interpolater="leadin-linr"  name="opacity"/>
          <InterpolatingParam id="105" interp="linr"  time="0/1" value="1" leadInLength="0/1"  name="cursorOpacity"/>
          <InterpolatingParam id="106" interp="linr"  time="0/1" value="1" leadInLength="0/1"  name="cursorScale"/>
          <InterpolatingParam id="107" interp="linr"  name="volume">
           <Keyframes>
           <Keyframe id="108"  time="0/1" value="1.5625" leadInLength="0/1"  />
           <Keyframe id="109"  time="796/1" value="1.5625" leadInLength="0/1"  />
           <Keyframe id="110"  time="802/1" value="0" leadInLength="0/1"  />
           <Keyframe id="111"  time="813/1" value="0" leadInLength="0/1"  />
           <Keyframe id="112"  time="815/1" value="1.5625" leadInLength="0/1"  />
           <Keyframe id="113"  time="2383/1" value="1.5625" leadInLength="0/1"  />
           <Keyframe id="114"  time="2385/1" value="0.33767541580041577" leadInLength="0/1"  />
           <Keyframe id="115"  time="2396/1" value="0.3326403326403326" leadInLength="0/1"  />
           <Keyframe id="116"  time="2398/1" value="1.5625" leadInLength="0/1"  />
           </Keyframes>
          </InterpolatingParam>
          <Parameter id="117"  name="captions"/>
         </Parameters>
         <Effects>
          <GenericEffect id="118" name = "CursorBaseEffectName" >
           <Parameters>
           <InterpolatingParam id="119" interp="linr"  time="-9999999/1" value="1" leadInLength="0/1"   name="cursorSize"/>
           <InterpolatingParam id="120" interp="linr"  time="-9999999/1" value="0" leadInLength="0/1"   name="highlightBlurRadius"/>
           <InterpolatingParam id="121" interp="linr"  time="-9999999/1" value="0" leadInLength="0/1"   name="highlightColorBlue"/>
           <InterpolatingParam id="122" interp="linr"  time="-9999999/1" value="255" leadInLength="0/1"   name="highlightColorGreen"/>
           <InterpolatingParam id="123" interp="linr"  time="-9999999/1" value="255" leadInLength="0/1"   name="highlightColorRed"/>
           <InterpolatingParam id="124" interp="linr"  time="-9999999/1" value="5" leadInLength="0/1"   name="highlightFeatherSize"/>
           <InterpolatingParam id="125" interp="linr"  time="-9999999/1" value="2" leadInLength="0/1"   name="highlightMagnification"/>
           <InterpolatingParam id="126" interp="linr"  time="-9999999/1" value="1" leadInLength="0/1"   name="highlightOpacity"/>
           <InterpolatingParam id="127" interp="linr"  time="-9999999/1" value="45" leadInLength="0/1"   name="highlightSize"/>
           <Parameter id="128"   name="highlightType">
            <Keyframes>
            <Keyframe id="129"  time="-9999999/1" value="0" leadInLength="0/1"  />
            </Keyframes>
           </Parameter>
           <InterpolatingParam id="130" interp="linr"  time="-9999999/1" value="0" leadInLength="0/1"   name="leftClickColorBlue"/>
           <InterpolatingParam id="131" interp="linr"  time="-9999999/1" value="0" leadInLength="0/1"   name="leftClickColorGreen"/>
           <InterpolatingParam id="132" interp="linr"  time="-9999999/1" value="255" leadInLength="0/1"   name="leftClickColorRed"/>
           <InterpolatingParam id="133" interp="linr"  time="-9999999/1" value="0.80000000000000004" leadInLength="0/1"   name="leftClickDuration"/>
           <InterpolatingParam id="134" interp="linr"  time="-9999999/1" value="20" leadInLength="0/1"   name="leftClickSize"/>
           <Parameter id="135"   name="leftClickSoundFilename">
            <Keyframes>
            <Keyframe id="136"  time="-9999999/1" value="" leadInLength="0/1"  />
            </Keyframes>
           </Parameter>
           <InterpolatingParam id="137" interp="linr"  time="-9999999/1" value="1" leadInLength="0/1"   name="leftClickSoundVolume"/>
           <Parameter id="138"   name="leftClickType">
            <Keyframes>
            <Keyframe id="139"  time="-9999999/1" value="0" leadInLength="0/1"  />
            </Keyframes>
           </Parameter>
           <InterpolatingParam id="140" interp="linr"  time="-9999999/1" value="1" leadInLength="0/1"   name="opacity"/>
           <InterpolatingParam id="141" interp="linr"  time="-9999999/1" value="255" leadInLength="0/1"   name="rightClickColorBlue"/>
           <InterpolatingParam id="142" interp="linr"  time="-9999999/1" value="0" leadInLength="0/1"   name="rightClickColorGreen"/>
           <InterpolatingParam id="143" interp="linr"  time="-9999999/1" value="0" leadInLength="0/1"   name="rightClickColorRed"/>
           <InterpolatingParam id="144" interp="linr"  time="-9999999/1" value="0.80000000000000004" leadInLength="0/1"   name="rightClickDuration"/>
           <InterpolatingParam id="145" interp="linr"  time="-9999999/1" value="20" leadInLength="0/1"   name="rightClickSize"/>
           <Parameter id="146"   name="rightClickSoundFilename">
            <Keyframes>
            <Keyframe id="147"  time="-9999999/1" value="" leadInLength="0/1"  />
            </Keyframes>
           </Parameter>
           <InterpolatingParam id="148" interp="linr"  time="-9999999/1" value="1" leadInLength="0/1"   name="rightClickSoundVolume"/>
           <Parameter id="149"   name="rightClickType">
            <Keyframes>
            <Keyframe id="150"  time="-9999999/1" value="0" leadInLength="0/1"  />
            </Keyframes>
           </Parameter>
           </Parameters>
           <MetaData>
            <entry key="effectIndex" val="0"/>
           </MetaData>
          </GenericEffect>
          <GenericEffect id="151" name = "WinCompression" >
           <Parameters>
           <InterpolatingParam id="152" interp="linr"  time="0/1" value="0" leadInLength="0/1"   name="attack"/>
           <InterpolatingParam id="153" interp="linr"  time="0/1" value="9" leadInLength="0/1"   name="gain"/>
           <Parameter id="154"   name="preset">
            <Keyframes>
            <Keyframe id="155"  time="0/1" value="1" leadInLength="0/1"  />
            </Keyframes>
           </Parameter>
           <InterpolatingParam id="156" interp="linr"  time="0/1" value="10" leadInLength="0/1"   name="ratio"/>
           <InterpolatingParam id="157" interp="linr"  time="0/1" value="3500" leadInLength="0/1"   name="release"/>
           <InterpolatingParam id="158" interp="linr"  time="0/1" value="-20" leadInLength="0/1"   name="threshold"/>
           </Parameters>
           <MetaData>
            <entry key="effectIndex" val="1"/>
           </MetaData>
          </GenericEffect>
          <GenericEffect id="159" name = "NoiseReduction" >
           <Parameters>
           <InterpolatingParam id="160" interp="linr"  time="0/1" value="20" leadInLength="0/1"   name="denoiserAmount"/>
           <InterpolatingParam id="161" interp="linr"  time="0/1" value="0" leadInLength="0/1"   name="denoiserThreshold"/>
           <Parameter id="162"   name="noiseProfile">
            <Keyframes>
            <Keyframe id="163"  time="0/1" value="FBAAAAIAAABErAAAAQIAACAgoMJGYZPC3QyfwtDCp8LGDabC1K+pwh/brsKwD7fCpjC6wisHvsIq&#xD;&#xa;pcHCCpDFwgrMx8KGqsHCFFW8wjxywMIq9sXCRPjGwljcxsKWMMnCvNfJwgjGy8IQ28zC9prIwhxZ&#xD;&#xa;y8IK887CY6zQwqrE0cKFds/C9PXPwo3o0MIqDtLCwEjTwnT108JkhdLC5nTSwryF08K8SdXClg7V&#xD;&#xa;wvhN18KKp9fCIO7TwqaK08ICYdfCHFzXwnFL08LgesrCnDfLwsKu1MLqxNjClX/ZwijQ2MJw09XC&#xD;&#xa;4G3VwmQW18Ls+dbCDArYwpo+2cJ4CtXCssXWwmc92sIO+NnC7KTcws7k3MJ+aNvCQDHbwnjQ2sKA&#xD;&#xa;N9vC1OzXwtIk0cIeUM/CjqPVwhBy2cLQadrCqJXZwnc628IildvCrLvawqAj28LNW9nCGrnYwnN8&#xD;&#xa;2MJSO9fC5LbYwojX2cLi8NrC7pbZwrzP28JZi9rCavPbwurc28LuxNnCkSXTwjxfzsJCVdXCQJjX&#xD;&#xa;wk512MLHUNnCgD3ZwlHP2sLxntnCmCTbwkRV3sJS2dvCZNTcwmZG3cLCw+DCHuTdwoCF28KOv9rC&#xD;&#xa;i7vZwoJa3MKE/drC0qzbwuCe28JK1NjCCIHSwm0m1cJ1g9nCXmzawpJE3MLDk9vCI9fbwu3f18JM&#xD;&#xa;tdbCu0fawjtF3sK41dzCZuTZwpj02cIkB9jCO/vYwt7Z3MLDyd3CcOvcwvIg28I5rdnC0Knawmjj&#xD;&#xa;28LOSdXCjADVwqqs3MJk29zCQk7cwvxz3MIQ3NzCyt7dwpjg3sIzn93C5/LZwkAm2sKR8NvCTGLd&#xD;&#xa;wv943sLDFN7C2h7dwrMi3MIoP9vCdqXawpuq3cIWId3C1h7ewgp83cL+D93CXG7cwg543MIQZt3C&#xD;&#xa;ok3dwhII28Lu9djCNuTbwj8g3cKyHN3C/GLdwjy53sJO197C5V3cwv6s3MJLy97CSGPdwti02sIA&#xD;&#xa;L9zCfPfcwqZS3cJYStzCMznbwoxj3sIEdODCuoXgwpQG4sIHgeDCujzfwiSP4MJkIeLCNJXgwlRy&#xD;&#xa;38LAAt7CHuvewo4J4MK8o+DCmunewiDu3MIT9t3CwavewoA238IPLeHC9GPiwsSI3cLCEdrCABXZ&#xD;&#xa;wjxa3cLUit/CZTTiwjCD4cJHQeLCE/Xgwnad38I6yODCBl/fwi7l38K13N7Cs/HewtAx38KVCuDC&#xD;&#xa;VIzgwo7x38Ld6N7Cut3dwlDb3cIvCt/CnGDgwlwV4MKmLtrC2Czdwlqa38Kks93CrIHfwhxN4MLm&#xD;&#xa;pt/CE2ngwsq54sJC6efCctvowqLc5cL8AeTCUYflwnxo5cL4pubCwDPpwtJ26sIdRuvCUrLnwtmV&#xD;&#xa;6cKs6enCQyflwprK3sLkEN7Cehzjwv5h4sLqIOPC2BfjwsYx48JB6uPCKT3iwgK94cIy+uXC3ajm&#xD;&#xa;wtqS48IEo+LCxC7iwgvK4cLSbuPCNBXkwjRq48IuV+PCj1bnwgY258KyiOHCBlzXwigE1sKe5t3C&#xD;&#xa;h9ThwkCe4sKQH+LCeIHiwixN4MJdo97Cmm7gwquj5sIFUfHCGvT5wvh0+MLg8PjCgqL6wpBf+sJ6&#xD;&#xa;uPfCKk/3wu5A+cKaafrCqAr3wu769cJoBvTCLdb0wt3V9cKD9/XCHAz4wuoB+8ITZvjCGD/5whKx&#xD;&#xa;+sJ4Uf7CsPv6wlwO+cKO5PnCpFL4wqEs98Ioi/bCegr1wqa698KsIPfCJLP2wjll98LcRffCsA/3&#xD;&#xa;whQ39MI4EPbCbxn4wrK++cI+O/fCxJz0wjhK9sLfgPbCbKD0wgCw9cLk7vfCvo/2wgIc+MKuSPrC&#xD;&#xa;pL35wuRz98LU/vfCPtb6wsjy+MJFivbClJj4wlYk+cIA6PjCzrL4woRJ+MIaefnCpuz3wmSb98LA&#xD;&#xa;1fXCWyn3wjDF+MJehPbCWOv4wt4B+cKyLvnCDq/5whgu/MIuyPvC+q76wrRT9sKaY/XCesX5wogg&#xD;&#xa;+cInoPfCC4j3wlvQ9cK4wPfCEHr6wo7r+MIYofjCmhz4wlp7+MI65/rCvqv8wroX+cIgXvfCG6T1&#xD;&#xa;whbq+ML2e/jC0Nz6wrCw98LRwfbCHQX2wsA39cJ0bvjCGgn8wtz9+cIVxvbCZ1b1wuoN98IgOvjC&#xD;&#xa;gkz2wr6s9MJstffC3zT4whAz98IkpffCyrL3wg4u+ML31PfCuBT1wiAi9sLi7vfCSDn3wtzo98Lg&#xD;&#xa;evfCB7r1wrRy+ML0PvnChiP6wtJ0+sLGEPnC9oL3wmiI9cItB/jCj8r3wiRR9cIa7PTCaO/1woce&#xD;&#xa;9cL0b/nCqvP7wtTk+MJqPPnCupD8wm7k+sJYyfjCKMb4wq47+sLG2/bCkG32wshX+sLAmfrCkE73&#xD;&#xa;wrYN+MLwQPXC5OPzwsrS9cKOS/bCTvn0wrAn9sKdGffCohH2wuq29sL0afXCrAv2wmMc+MLU/fbC&#xD;&#xa;Man1wvg298Ioa/jCLBX6wrrG9sLC+PXCSr/6whyl/MLIvPjC2Pv3wtjp+sK8oPjCXKT2wsra+MJY&#xD;&#xa;LfrC0Ev3wiQT9cLCu/bCuFf5wnpj+sJ0b/fChK35wiZ++cL42PfCSo74wryl+MI+FvjCNOL4wnsC&#xD;&#xa;98LSl/bC2Lf1wqV89cIoF/fCKGL6wlBq+sLs4frC+mn6wjgF+cJY4/XCJfLzwgtp9cIEMvTCziLz&#xD;&#xa;wjqx9cLcGvrCTkv7whgi+8IYtfvC0kr5wjbi+MLAwPvC2DT7wnoQ+cJysffCyan2woxk98IknfbC&#xD;&#xa;XM31wsnW98I6Z/rCjvUEw1xOoMJrhZPCaByfwprHp8LcIKbCnuCpwnNBr8JlEbfCw4q5whR5vcKP&#xD;&#xa;K8LC18LFwqqLxsI2mcHCcjG8wvcawMKsM8XCwATHwiyOx8IIucnCYu3IwparysIE9s3CkAjJwqbC&#xD;&#xa;y8LR3tDCIEvRwuqF0cI43dDCKsHSwnV21MJnTdLCfIXUwhhX08I/09DCRoDSwlYm1cKQWtTChi/Y&#xD;&#xa;ws5+2MI3sNbCG/zVwsBl1cLdtNfCIiXXwijJ1cKiFszCVr7Mwl9P1cL7vdbCEujZwiWe2ML4ctfC&#xD;&#xa;hJnYwkae2sJoCtnCDA3XwrzA2MJA/NfCirDWwjri1sIMTdrCNrzawkPx2cLQhNrC4ifcwv5N3cLI&#xD;&#xa;ed3CKoLbwq8l08LW6dDCILXVwjK92MLt5tjC3DLZwly13MIxstzCwknbwgRf28IARtzCGmrewgXA&#xD;&#xa;4MJiEd/C/K7ewqYG3MIjstrCpdjcwsoi3cKiPdrCcs7bwpp24MKxY93ClI7Uwro2z8JGVdbCMfLZ&#xD;&#xa;wlpP3MKqVNvC/uPbwsbK3MIkT9zCtUjdwoCx3MLKINvCoXTewqwg3MLvxtvC3gbewm9Q28JCl9rC&#xD;&#xa;JFXcwpkj3cI1/9zChcfewtii3sIiW9nCY0LTwnzE1cIOaNzCXqPgwt+u4cIruODCdrPdwrRr3sL5&#xD;&#xa;SN3C5rrdwqlN3cLhkt7C3ybfwuzJ3sLmutrCY6DbwuC/3cJcIt3Cg+3cwsQd3cIgOt7CGurewlcd&#xD;&#xa;3cK2AdrCGlLZwnTc2sLv8NvC5KHewmYB4cJ8sODC0EDgwh4M4MI8PN/C3kndwsAX3sI2st3CoJve&#xD;&#xa;wg0F4cJcc9/CDxnhwjHs4MI4Ld/CCKPiwuia4sLKU97CGgHewsZA2cLwtdjCKNHcwtTl3cL649/C&#xD;&#xa;uBPfwswW3MLzwNnCpFjawg8O3MJz2t3C66Tdws5l3sKUUt/CZVvcwhoC3MIuiN/CEpPdwkBH3cKa&#xD;&#xa;f+DCw2vgwuky38JUFuDCIi/gwoLU38JHod/CCcXcwuA83MKScN/CYCPgwl4Q4cJiy+HC6I/hwqyP&#xD;&#xa;38KCQt3CfnjbwvQE28JoBt3CsTncwgIt28LU9NvCiuDbwrBj3MJO7N3CQPPhwrQP4MIkbN3C2vve&#xD;&#xa;wlrp38K0t+DCVZzfwtBJ4MLA0N/CMiPfwhoQ3cLYBdzCRvDdwtQy4cIBmt7C9tDdwrKC38Imm+DC&#xD;&#xa;QYPkwiC94sLEQd/CIS7ewhRh3MLzptnCJL3bwrhS3cLs+tfCBvrZwvwF3sJYAd3CDZffwpUz4MJO&#xD;&#xa;KN/COx3fwqxH48Lyy+jC1iHqwshb5sKMbOPCta7kwqJ85sKp6ufC5bbowsjW6cKWaenCZT7mwkRT&#xD;&#xa;6MLgHurCUA/lwrCc3sIfCN7Chpzhwoyp4MI4cePCnizkwmK84MKsSt/CsFbfwmwn38JfxOPCvBTl&#xD;&#xa;wrp74sJtv+HCCkLhwg3L4MISkeDCMEnhwoaM4MKy8eDC0LfkwuQy5cJMS+HCjm7Wwklp1MKuBNvC&#xD;&#xa;CuzewrBs38KE/N/CUQHiwkI54cJ2uN/CyUbjwstJ6MK1NfHCeLf2wtfG9sJ65fbCG0f4wuAO9sI5&#xD;&#xa;JPXCfyj1wr0P9cJ7pfbCOY72woYp+sJEVvbCmXH1wsS99sL2X/fC6NT3wm+39cK8L/TCHBr3wpOs&#xD;&#xa;98IURPXCxqL0wmiu9cKvo/XCPkb1wi9q9sJKaPfChoD5wooH+cIqVPrCbpb3wnJu9cKi6vjCKKz4&#xD;&#xa;wjm99cJoyPTC1XL2wvRS+MKiEPfCbNn2wiQE9cLAj/XCAsb2wsIs98LeU/fCTH33wkra9sI+HvXC&#xD;&#xa;ehP3woqC+cK6G/nCVLf2wv509sJuOPfCeND4wqZv+sJwGPvCmFH5wmLe+MJ8ivjCyhz3wvyz98JA&#xD;&#xa;9/TC5hr4wjyo+cLw8PzC+Iz8wjKw+cJK4/nCZhj3wmx+9cLRxPfCDKv5wg6R+cIMefjCIuX2wvkb&#xD;&#xa;9sJQKfXChvL3wpoc+cKEi/rCQKj6wt6Y+ML8b/nCyFP6wnKO+MKEP/nCQLD4wsBf9sIorvXChIz1&#xD;&#xa;wqB39cKALvbCeUD1wmSq9cLcWvnCHPf7wvKZ+MKumvfClg76wloo+ML2PvjCpKD3wu4k9sK48vjC&#xD;&#xa;JlX5wnbJ+cKId/rCUnb6wgl498L6cPXCeMH2wvYy+MKtPffCIEH2woaN+cKSq/rCQlP5wlBc+cJy&#xD;&#xa;bPfCfAj1wtjW9sK8LffCXhj5wi5P98LCvfbCM5T3wlYi98IgYfbCUCP2wrgs9sLdwPfCbKL8wiZq&#xD;&#xa;/MJGFfrCwFL4wgiO+MIY0vjCIOj5wm5M+cL8HPrCMLn7whbq+MJyfvjC0jP4wkUB9sKGP/fCPu76&#xD;&#xa;wscO98K+R/TCF330wq4e9sISg/jC8uj2wnoZ+cK6kPnC4tn4wrYz98Jvp/bCUtr1wkgw98IcFvrC&#xD;&#xa;KCf4wutu9sLcH/bCLhn3wqow98L2MPbCeCz3wrLQ+MKQX/rCpnz4wujQ9sJWwfXCPhr3wp4198KZ&#xD;&#xa;QPjC9Xn2wrT09sLS9fXCaPr2wswM+cKuXPnCDl74wv5s+MIcwPXCAJf2wvJD+cKuLffCQLX1wi6T&#xD;&#xa;9sL/MvjCeqr3wq5t+cJKYfjC0DP3wnIR+cI06/bC0A32whS+9sLX8vfCQlH6wphu+MLGdPfC0Ef2&#xD;&#xa;wsjf9MKkpvbCRIz5wjzL98I+PPjCd+b3wtxW9MKklvbCxmT5whTo+cIqA/nCqlb4wuw3+8KmRvvC&#xD;&#xa;+pT4wuHL98LoyfTC1qYA" leadInLength="0/1"  />
            </Keyframes>
           </Parameter>
           </Parameters>
           <MetaData>
            <entry key="effectIndex" val="2"/>
           </MetaData>
          </GenericEffect>
         </Effects>
         <Attributes>
          <Attribute id="164" value="" name="ident"/>
          <Attribute id="165" value="0" name="mixToMono"/>
         </Attributes>
         <MetaData>
          <entry key="AutoAppliedSmartFocus" val="False"/>
          <entry key="WinSubProjectDisplayName" val=""/>
         </MetaData>
         <ExtraData>
          <Entry key="ZoomPanBin">
           <ZoomPanBin id="166"  >
            <ZoomPanKeyframes>
             <ZoomPanKeyframe id="167" timeRangeEnd="-9999999/1" timeRangeDuration="0/1" interpolaterName="linr"  />
            </ZoomPanKeyframes>
           </ZoomPanBin>
          </Entry>
          <Entry key="CursorEffectBin">
           <CursorEffectBin id="168"  >
            <CursorEffectKeyframes>
             <CursorEffectKeyframe id="169" timeRangeEnd="-9999999/1" timeRangeDuration="0/1" interpolaterName=""  />
            </CursorEffectKeyframes>
           </CursorEffectBin>
          </Entry>
         </ExtraData>
         <GenericTrack id="170"  >
          <Attributes>
           <Attribute id="171" value="" name="ident"/>
           <Attribute id="172" value="0" name="audioMuted"/>
           <Attribute id="173" value="0" name="videoHidden"/>
          </Attributes>
          <MetaData>
           <entry key="IsLocked" val="False"/>
           <entry key="WinTrackHeight" val="0"/>
          </MetaData>
          <Medias>
           <UnifiedMedia id="174"  >
            <AMFile id="175" start="0" duration="260" scalar="1/1" mediaStart="0/1" mediaDuration="260/1" trackNumber="1" src="4" channelNumber="0,1" >
             <Parameters>
              <InterpolatingParam id="176" interp="linr"  time="0/1" value="1" leadInLength="0/1"  name="volume"/>
              <Parameter id="177"  name="captions"/>
             </Parameters>
             <Attributes>
              <Attribute id="178" value="" name="ident"/>
              <Attribute id="179" value="44100" name="sampleRate"/>
              <Attribute id="180" value="16" name="bitDepth"/>
              <Attribute id="181" value="1" name="gain"/>
              <Attribute id="182" value="0" name="mixToMono"/>
             </Attributes>
            </AMFile>
            <ScreenVMFile id="183" start="0" duration="260" scalar="1/1" mediaStart="0/1" mediaDuration="260/1" trackNumber="0" src="4" >
             <Transformer>
              <VectorParam id="184"  name="translation">
               <InterpolatingParam id="185" interp="linr"  time="-9999999/1" value="0" leadInLength="0/1"  />
               <InterpolatingParam id="186" interp="linr"  time="-9999999/1" value="0" leadInLength="0/1"  />
               <InterpolatingParam id="187" interp="linr"  time="-9999999/1" value="0" leadInLength="0/1"  />
              </VectorParam>
              <VectorParam id="188"  name="rotation">
               <InterpolatingParam id="189" interp="linr"  time="-9999999/1" value="0" leadInLength="0/1"  />
               <InterpolatingParam id="190" interp="linr"  time="-9999999/1" value="0" leadInLength="0/1"  />
               <InterpolatingParam id="191" interp="linr"  time="-9999999/1" value="0" leadInLength="0/1"  />
              </VectorParam>
              <VectorParam id="192"  name="shear">
               <InterpolatingParam id="193" interp="linr"  time="-9999999/1" value="0" leadInLength="0/1"  />
               <InterpolatingParam id="194" interp="linr"  time="-9999999/1" value="0" leadInLength="0/1"  />
               <InterpolatingParam id="195" interp="linr"  time="-9999999/1" value="0" leadInLength="0/1"  />
              </VectorParam>
              <VectorParam id="196"  name="scale">
               <InterpolatingParam id="197" interp="linr"  time="-9999999/1" value="1" leadInLength="0/1"  />
               <InterpolatingParam id="198" interp="linr"  time="-9999999/1" value="1" leadInLength="0/1"  />
               <InterpolatingParam id="199" interp="linr"  time="-9999999/1" value="1" leadInLength="0/1"  />
              </VectorParam>
              <VectorParam id="200"  name="anchor">
               <InterpolatingParam id="201" interp="linr"  time="0/1" value="0" leadInLength="0/1"  />
               <InterpolatingParam id="202" interp="linr"  time="0/1" value="0" leadInLength="0/1"  />
               <InterpolatingParam id="203" interp="linr"  time="0/1" value="0" leadInLength="0/1"  />
              </VectorParam>
             </Transformer>
             <Parameters>
              <VectorParam id="204"  name="sourceCrop">
               <InterpolatingParam id="205" interp="linr"  time="0/1" value="0" leadInLength="0/1"  />
               <InterpolatingParam id="206" interp="linr"  time="0/1" value="0" leadInLength="0/1"  />
               <InterpolatingParam id="207" interp="linr"  time="0/1" value="0" leadInLength="0/1"  />
               <InterpolatingParam id="208" interp="linr"  time="0/1" value="0" leadInLength="0/1"  />
              </VectorParam>
              <VectorParam id="209"  name="geometryCrop">
               <InterpolatingParam id="210" interp="linr"  time="-9999999/1" value="0" leadInLength="0/1"  />
               <InterpolatingParam id="211" interp="linr"  time="-9999999/1" value="0" leadInLength="0/1"  />
               <InterpolatingParam id="212" interp="linr"  time="-9999999/1" value="0" leadInLength="0/1"  />
               <InterpolatingParam id="213" interp="linr"  time="-9999999/1" value="0" leadInLength="0/1"  />
              </VectorParam>
              <InterpolatingParam id="214" interp="linr"  time="-9999999/1" value="1" leadInLength="0/1"  name="opacity"/>
              <InterpolatingParam id="215" interp="linr"  time="0/1" value="0" leadInLength="0/1"  name="cursorOpacity"/>
              <InterpolatingParam id="216" interp="linr"  time="0/1" value="0" leadInLength="0/1"  name="cursorScale"/>
             </Parameters>
             <Attributes>
              <Attribute id="217" value="" name="ident"/>
             </Attributes>
             <ExtraData>
              <Entry key="ZoomPanBin">
               <ZoomPanBin id="218"  >
                <ZoomPanKeyframes>
                 <ZoomPanKeyframe id="219" timeRangeEnd="-9999999/1" timeRangeDuration="0/1" interpolaterName=""  />
                </ZoomPanKeyframes>
               </ZoomPanBin>
              </Entry>
              <Entry key="CursorEffectBin">
               <CursorEffectBin id="220"  >
                <CursorEffectKeyframes>
                </CursorEffectKeyframes>
               </CursorEffectBin>
              </Entry>
             </ExtraData>
            </ScreenVMFile>
            <MetaData>
             <entry key="AutoAppliedSmartFocus" val="False"/>
             <entry key="WinSubProjectDisplayName" val=""/>
            </MetaData>
           </UnifiedMedia>
           <UnifiedMedia id="221"  >
            <AMFile id="222" start="260" duration="250" scalar="1/1" mediaStart="276/1" mediaDuration="250/1" trackNumber="1" src="4" channelNumber="0,1" >
             <Parameters>
              <InterpolatingParam id="223" interp="linr"  time="0/1" value="1" leadInLength="0/1"  name="volume"/>
              <Parameter id="224"  name="captions"/>
             </Parameters>
             <Attributes>
              <Attribute id="225" value="" name="ident"/>
              <Attribute id="226" value="44100" name="sampleRate"/>
              <Attribute id="227" value="16" name="bitDepth"/>
              <Attribute id="228" value="1" name="gain"/>
              <Attribute id="229" value="0" name="mixToMono"/>
             </Attributes>
            </AMFile>
            <ScreenVMFile id="230" start="260" duration="250" scalar="1/1" mediaStart="276/1" mediaDuration="250/1" trackNumber="0" src="4" >
             <Transformer>
              <VectorParam id="231"  name="translation">
               <InterpolatingParam id="232" interp="linr"  time="-9999999/1" value="0" leadInLength="0/1"  />
               <InterpolatingParam id="233" interp="linr"  time="-9999999/1" value="0" leadInLength="0/1"  />
               <InterpolatingParam id="234" interp="linr"  time="-9999999/1" value="0" leadInLength="0/1"  />
              </VectorParam>
              <VectorParam id="235"  name="rotation">
               <InterpolatingParam id="236" interp="linr"  time="-9999999/1" value="0" leadInLength="0/1"  />
               <InterpolatingParam id="237" interp="linr"  time="-9999999/1" value="0" leadInLength="0/1"  />
               <InterpolatingParam id="238" interp="linr"  time="-9999999/1" value="0" leadInLength="0/1"  />
              </VectorParam>
              <VectorParam id="239"  name="shear">
               <InterpolatingParam id="240" interp="linr"  time="-9999999/1" value="0" leadInLength="0/1"  />
               <InterpolatingParam id="241" interp="linr"  time="-9999999/1" value="0" leadInLength="0/1"  />
               <InterpolatingParam id="242" interp="linr"  time="-9999999/1" value="0" leadInLength="0/1"  />
              </VectorParam>
              <VectorParam id="243"  name="scale">
               <InterpolatingParam id="244" interp="linr"  time="-9999999/1" value="1" leadInLength="0/1"  />
               <InterpolatingParam id="245" interp="linr"  time="-9999999/1" value="1" leadInLength="0/1"  />
               <InterpolatingParam id="246" interp="linr"  time="-9999999/1" value="1" leadInLength="0/1"  />
              </VectorParam>
              <VectorParam id="247"  name="anchor">
               <InterpolatingParam id="248" interp="linr"  time="0/1" value="0" leadInLength="0/1"  />
               <InterpolatingParam id="249" interp="linr"  time="0/1" value="0" leadInLength="0/1"  />
               <InterpolatingParam id="250" interp="linr"  time="0/1" value="0" leadInLength="0/1"  />
              </VectorParam>
             </Transformer>
             <Parameters>
              <VectorParam id="251"  name="sourceCrop">
               <InterpolatingParam id="252" interp="linr"  time="0/1" value="0" leadInLength="0/1"  />
               <InterpolatingParam id="253" interp="linr"  time="0/1" value="0" leadInLength="0/1"  />
               <InterpolatingParam id="254" interp="linr"  time="0/1" value="0" leadInLength="0/1"  />
               <InterpolatingParam id="255" interp="linr"  time="0/1" value="0" leadInLength="0/1"  />
              </VectorParam>
              <VectorParam id="256"  name="geometryCrop">
               <InterpolatingParam id="257" interp="linr"  time="-9999999/1" value="0" leadInLength="0/1"  />
               <InterpolatingParam id="258" interp="linr"  time="-9999999/1" value="0" leadInLength="0/1"  />
               <InterpolatingParam id="259" interp="linr"  time="-9999999/1" value="0" leadInLength="0/1"  />
               <InterpolatingParam id="260" interp="linr"  time="-9999999/1" value="0" leadInLength="0/1"  />
              </VectorParam>
              <InterpolatingParam id="261" interp="linr"  time="-9999999/1" value="1" leadInLength="0/1"  name="opacity"/>
              <InterpolatingParam id="262" interp="linr"  time="0/1" value="0" leadInLength="0/1"  name="cursorOpacity"/>
              <InterpolatingParam id="263" interp="linr"  time="0/1" value="0" leadInLength="0/1"  name="cursorScale"/>
             </Parameters>
             <Attributes>
              <Attribute id="264" value="" name="ident"/>
             </Attributes>
             <ExtraData>
              <Entry key="ZoomPanBin">
               <ZoomPanBin id="265"  >
                <ZoomPanKeyframes>
                 <ZoomPanKeyframe id="266" timeRangeEnd="-9999999/1" timeRangeDuration="0/1" interpolaterName=""  />
                </ZoomPanKeyframes>
               </ZoomPanBin>
              </Entry>
              <Entry key="CursorEffectBin">
               <CursorEffectBin id="267"  >
                <CursorEffectKeyframes>
                </CursorEffectKeyframes>
               </CursorEffectBin>
              </Entry>
             </ExtraData>
            </ScreenVMFile>
            <MetaData>
             <entry key="AutoAppliedSmartFocus" val="False"/>
             <entry key="WinSubProjectDisplayName" val=""/>
            </MetaData>
           </UnifiedMedia>
           <UnifiedMedia id="268"  >
            <AMFile id="269" start="510" duration="79" scalar="1/1" mediaStart="532/1" mediaDuration="79/1" trackNumber="1" src="4" channelNumber="0,1" >
             <Parameters>
              <InterpolatingParam id="270" interp="linr"  time="0/1" value="1" leadInLength="0/1"  name="volume"/>
              <Parameter id="271"  name="captions"/>
             </Parameters>
             <Attributes>
              <Attribute id="272" value="" name="ident"/>
              <Attribute id="273" value="44100" name="sampleRate"/>
              <Attribute id="274" value="16" name="bitDepth"/>
              <Attribute id="275" value="1" name="gain"/>
              <Attribute id="276" value="0" name="mixToMono"/>
             </Attributes>
            </AMFile>
            <ScreenVMFile id="277" start="510" duration="79" scalar="1/1" mediaStart="532/1" mediaDuration="79/1" trackNumber="0" src="4" >
             <Transformer>
              <VectorParam id="278"  name="translation">
               <InterpolatingParam id="279" interp="linr"  time="-9999999/1" value="0" leadInLength="0/1"  />
               <InterpolatingParam id="280" interp="linr"  time="-9999999/1" value="0" leadInLength="0/1"  />
               <InterpolatingParam id="281" interp="linr"  time="-9999999/1" value="0" leadInLength="0/1"  />
              </VectorParam>
              <VectorParam id="282"  name="rotation">
               <InterpolatingParam id="283" interp="linr"  time="-9999999/1" value="0" leadInLength="0/1"  />
               <InterpolatingParam id="284" interp="linr"  time="-9999999/1" value="0" leadInLength="0/1"  />
               <InterpolatingParam id="285" interp="linr"  time="-9999999/1" value="0" leadInLength="0/1"  />
              </VectorParam>
              <VectorParam id="286"  name="shear">
               <InterpolatingParam id="287" interp="linr"  time="-9999999/1" value="0" leadInLength="0/1"  />
               <InterpolatingParam id="288" interp="linr"  time="-9999999/1" value="0" leadInLength="0/1"  />
               <InterpolatingParam id="289" interp="linr"  time="-9999999/1" value="0" leadInLength="0/1"  />
              </VectorParam>
              <VectorParam id="290"  name="scale">
               <InterpolatingParam id="291" interp="linr"  time="-9999999/1" value="1" leadInLength="0/1"  />
               <InterpolatingParam id="292" interp="linr"  time="-9999999/1" value="1" leadInLength="0/1"  />
               <InterpolatingParam id="293" interp="linr"  time="-9999999/1" value="1" leadInLength="0/1"  />
              </VectorParam>
              <VectorParam id="294"  name="anchor">
               <InterpolatingParam id="295" interp="linr"  time="0/1" value="0" leadInLength="0/1"  />
               <InterpolatingParam id="296" interp="linr"  time="0/1" value="0" leadInLength="0/1"  />
               <InterpolatingParam id="297" interp="linr"  time="0/1" value="0" leadInLength="0/1"  />
              </VectorParam>
             </Transformer>
             <Parameters>
              <VectorParam id="298"  name="sourceCrop">
               <InterpolatingParam id="299" interp="linr"  time="0/1" value="0" leadInLength="0/1"  />
               <InterpolatingParam id="300" interp="linr"  time="0/1" value="0" leadInLength="0/1"  />
               <InterpolatingParam id="301" interp="linr"  time="0/1" value="0" leadInLength="0/1"  />
               <InterpolatingParam id="302" interp="linr"  time="0/1" value="0" leadInLength="0/1"  />
              </VectorParam>
              <VectorParam id="303"  name="geometryCrop">
               <InterpolatingParam id="304" interp="linr"  time="-9999999/1" value="0" leadInLength="0/1"  />
               <InterpolatingParam id="305" interp="linr"  time="-9999999/1" value="0" leadInLength="0/1"  />
               <InterpolatingParam id="306" interp="linr"  time="-9999999/1" value="0" leadInLength="0/1"  />
               <InterpolatingParam id="307" interp="linr"  time="-9999999/1" value="0" leadInLength="0/1"  />
              </VectorParam>
              <InterpolatingParam id="308" interp="linr"  time="-9999999/1" value="1" leadInLength="0/1"  name="opacity"/>
              <InterpolatingParam id="309" interp="linr"  time="0/1" value="0" leadInLength="0/1"  name="cursorOpacity"/>
              <InterpolatingParam id="310" interp="linr"  time="0/1" value="0" leadInLength="0/1"  name="cursorScale"/>
             </Parameters>
             <Attributes>
              <Attribute id="311" value="" name="ident"/>
             </Attributes>
             <ExtraData>
              <Entry key="ZoomPanBin">
               <ZoomPanBin id="312"  >
                <ZoomPanKeyframes>
                 <ZoomPanKeyframe id="313" timeRangeEnd="-9999999/1" timeRangeDuration="0/1" interpolaterName=""  />
                </ZoomPanKeyframes>
               </ZoomPanBin>
              </Entry>
              <Entry key="CursorEffectBin">
               <CursorEffectBin id="314"  >
                <CursorEffectKeyframes>
                </CursorEffectKeyframes>
               </CursorEffectBin>
              </Entry>
             </ExtraData>
            </ScreenVMFile>
            <MetaData>
             <entry key="AutoAppliedSmartFocus" val="False"/>
             <entry key="WinSubProjectDisplayName" val=""/>
            </MetaData>
           </UnifiedMedia>
           <UnifiedMedia id="315"  >
            <AMFile id="316" start="589" duration="148" scalar="1/1" mediaStart="619/1" mediaDuration="148/1" trackNumber="1" src="4" channelNumber="0,1" >
             <Parameters>
              <InterpolatingParam id="317" interp="linr"  time="0/1" value="1" leadInLength="0/1"  name="volume"/>
              <Parameter id="318"  name="captions"/>
             </Parameters>
             <Attributes>
              <Attribute id="319" value="" name="ident"/>
              <Attribute id="320" value="44100" name="sampleRate"/>
              <Attribute id="321" value="16" name="bitDepth"/>
              <Attribute id="322" value="1" name="gain"/>
              <Attribute id="323" value="0" name="mixToMono"/>
             </Attributes>
            </AMFile>
            <ScreenVMFile id="324" start="589" duration="148" scalar="1/1" mediaStart="619/1" mediaDuration="148/1" trackNumber="0" src="4" >
             <Transformer>
              <VectorParam id="325"  name="translation">
               <InterpolatingParam id="326" interp="linr"  time="-9999999/1" value="0" leadInLength="0/1"  />
               <InterpolatingParam id="327" interp="linr"  time="-9999999/1" value="0" leadInLength="0/1"  />
               <InterpolatingParam id="328" interp="linr"  time="-9999999/1" value="0" leadInLength="0/1"  />
              </VectorParam>
              <VectorParam id="329"  name="rotation">
               <InterpolatingParam id="330" interp="linr"  time="-9999999/1" value="0" leadInLength="0/1"  />
               <InterpolatingParam id="331" interp="linr"  time="-9999999/1" value="0" leadInLength="0/1"  />
               <InterpolatingParam id="332" interp="linr"  time="-9999999/1" value="0" leadInLength="0/1"  />
              </VectorParam>
              <VectorParam id="333"  name="shear">
               <InterpolatingParam id="334" interp="linr"  time="-9999999/1" value="0" leadInLength="0/1"  />
               <InterpolatingParam id="335" interp="linr"  time="-9999999/1" value="0" leadInLength="0/1"  />
               <InterpolatingParam id="336" interp="linr"  time="-9999999/1" value="0" leadInLength="0/1"  />
              </VectorParam>
              <VectorParam id="337"  name="scale">
               <InterpolatingParam id="338" interp="linr"  time="-9999999/1" value="1" leadInLength="0/1"  />
               <InterpolatingParam id="339" interp="linr"  time="-9999999/1" value="1" leadInLength="0/1"  />
               <InterpolatingParam id="340" interp="linr"  time="-9999999/1" value="1" leadInLength="0/1"  />
              </VectorParam>
              <VectorParam id="341"  name="anchor">
               <InterpolatingParam id="342" interp="linr"  time="0/1" value="0" leadInLength="0/1"  />
               <InterpolatingParam id="343" interp="linr"  time="0/1" value="0" leadInLength="0/1"  />
               <InterpolatingParam id="344" interp="linr"  time="0/1" value="0" leadInLength="0/1"  />
              </VectorParam>
             </Transformer>
             <Parameters>
              <VectorParam id="345"  name="sourceCrop">
               <InterpolatingParam id="346" interp="linr"  time="0/1" value="0" leadInLength="0/1"  />
               <InterpolatingParam id="347" interp="linr"  time="0/1" value="0" leadInLength="0/1"  />
               <InterpolatingParam id="348" interp="linr"  time="0/1" value="0" leadInLength="0/1"  />
               <InterpolatingParam id="349" interp="linr"  time="0/1" value="0" leadInLength="0/1"  />
              </VectorParam>
              <VectorParam id="350"  name="geometryCrop">
               <InterpolatingParam id="351" interp="linr"  time="-9999999/1" value="0" leadInLength="0/1"  />
               <InterpolatingParam id="352" interp="linr"  time="-9999999/1" value="0" leadInLength="0/1"  />
               <InterpolatingParam id="353" interp="linr"  time="-9999999/1" value="0" leadInLength="0/1"  />
               <InterpolatingParam id="354" interp="linr"  time="-9999999/1" value="0" leadInLength="0/1"  />
              </VectorParam>
              <InterpolatingParam id="355" interp="linr"  time="-9999999/1" value="1" leadInLength="0/1"  name="opacity"/>
              <InterpolatingParam id="356" interp="linr"  time="0/1" value="0" leadInLength="0/1"  name="cursorOpacity"/>
              <InterpolatingParam id="357" interp="linr"  time="0/1" value="0" leadInLength="0/1"  name="cursorScale"/>
             </Parameters>
             <Attributes>
              <Attribute id="358" value="" name="ident"/>
             </Attributes>
             <ExtraData>
              <Entry key="ZoomPanBin">
               <ZoomPanBin id="359"  >
                <ZoomPanKeyframes>
                 <ZoomPanKeyframe id="360" timeRangeEnd="-9999999/1" timeRangeDuration="0/1" interpolaterName=""  />
                </ZoomPanKeyframes>
               </ZoomPanBin>
              </Entry>
              <Entry key="CursorEffectBin">
               <CursorEffectBin id="361"  >
                <CursorEffectKeyframes>
                </CursorEffectKeyframes>
               </CursorEffectBin>
              </Entry>
             </ExtraData>
            </ScreenVMFile>
            <MetaData>
             <entry key="AutoAppliedSmartFocus" val="False"/>
             <entry key="WinSubProjectDisplayName" val=""/>
            </MetaData>
           </UnifiedMedia>
           <UnifiedMedia id="362"  >
            <AMFile id="363" start="737" duration="125" scalar="1/1" mediaStart="777/1" mediaDuration="125/1" trackNumber="1" src="4" channelNumber="0,1" >
             <Parameters>
              <InterpolatingParam id="364" interp="linr"  time="0/1" value="1" leadInLength="0/1"  name="volume"/>
              <Parameter id="365"  name="captions"/>
             </Parameters>
             <Attributes>
              <Attribute id="366" value="" name="ident"/>
              <Attribute id="367" value="44100" name="sampleRate"/>
              <Attribute id="368" value="16" name="bitDepth"/>
              <Attribute id="369" value="1" name="gain"/>
              <Attribute id="370" value="0" name="mixToMono"/>
             </Attributes>
            </AMFile>
            <ScreenVMFile id="371" start="737" duration="125" scalar="1/1" mediaStart="777/1" mediaDuration="125/1" trackNumber="0" src="4" >
             <Transformer>
              <VectorParam id="372"  name="translation">
               <InterpolatingParam id="373" interp="linr"  time="-9999999/1" value="0" leadInLength="0/1"  />
               <InterpolatingParam id="374" interp="linr"  time="-9999999/1" value="0" leadInLength="0/1"  />
               <InterpolatingParam id="375" interp="linr"  time="-9999999/1" value="0" leadInLength="0/1"  />
              </VectorParam>
              <VectorParam id="376"  name="rotation">
               <InterpolatingParam id="377" interp="linr"  time="-9999999/1" value="0" leadInLength="0/1"  />
               <InterpolatingParam id="378" interp="linr"  time="-9999999/1" value="0" leadInLength="0/1"  />
               <InterpolatingParam id="379" interp="linr"  time="-9999999/1" value="0" leadInLength="0/1"  />
              </VectorParam>
              <VectorParam id="380"  name="shear">
               <InterpolatingParam id="381" interp="linr"  time="-9999999/1" value="0" leadInLength="0/1"  />
               <InterpolatingParam id="382" interp="linr"  time="-9999999/1" value="0" leadInLength="0/1"  />
               <InterpolatingParam id="383" interp="linr"  time="-9999999/1" value="0" leadInLength="0/1"  />
              </VectorParam>
              <VectorParam id="384"  name="scale">
               <InterpolatingParam id="385" interp="linr"  time="-9999999/1" value="1" leadInLength="0/1"  />
               <InterpolatingParam id="386" interp="linr"  time="-9999999/1" value="1" leadInLength="0/1"  />
               <InterpolatingParam id="387" interp="linr"  time="-9999999/1" value="1" leadInLength="0/1"  />
              </VectorParam>
              <VectorParam id="388"  name="anchor">
               <InterpolatingParam id="389" interp="linr"  time="0/1" value="0" leadInLength="0/1"  />
               <InterpolatingParam id="390" interp="linr"  time="0/1" value="0" leadInLength="0/1"  />
               <InterpolatingParam id="391" interp="linr"  time="0/1" value="0" leadInLength="0/1"  />
              </VectorParam>
             </Transformer>
             <Parameters>
              <VectorParam id="392"  name="sourceCrop">
               <InterpolatingParam id="393" interp="linr"  time="0/1" value="0" leadInLength="0/1"  />
               <InterpolatingParam id="394" interp="linr"  time="0/1" value="0" leadInLength="0/1"  />
               <InterpolatingParam id="395" interp="linr"  time="0/1" value="0" leadInLength="0/1"  />
               <InterpolatingParam id="396" interp="linr"  time="0/1" value="0" leadInLength="0/1"  />
              </VectorParam>
              <VectorParam id="397"  name="geometryCrop">
               <InterpolatingParam id="398" interp="linr"  time="-9999999/1" value="0" leadInLength="0/1"  />
               <InterpolatingParam id="399" interp="linr"  time="-9999999/1" value="0" leadInLength="0/1"  />
               <InterpolatingParam id="400" interp="linr"  time="-9999999/1" value="0" leadInLength="0/1"  />
               <InterpolatingParam id="401" interp="linr"  time="-9999999/1" value="0" leadInLength="0/1"  />
              </VectorParam>
              <InterpolatingParam id="402" interp="linr"  time="-9999999/1" value="1" leadInLength="0/1"  name="opacity"/>
              <InterpolatingParam id="403" interp="linr"  time="0/1" value="0" leadInLength="0/1"  name="cursorOpacity"/>
              <InterpolatingParam id="404" interp="linr"  time="0/1" value="0" leadInLength="0/1"  name="cursorScale"/>
             </Parameters>
             <Attributes>
              <Attribute id="405" value="" name="ident"/>
             </Attributes>
             <ExtraData>
              <Entry key="ZoomPanBin">
               <ZoomPanBin id="406"  >
                <ZoomPanKeyframes>
                 <ZoomPanKeyframe id="407" timeRangeEnd="-9999999/1" timeRangeDuration="0/1" interpolaterName=""  />
                </ZoomPanKeyframes>
               </ZoomPanBin>
              </Entry>
              <Entry key="CursorEffectBin">
               <CursorEffectBin id="408"  >
                <CursorEffectKeyframes>
                </CursorEffectKeyframes>
               </CursorEffectBin>
              </Entry>
             </ExtraData>
            </ScreenVMFile>
            <MetaData>
             <entry key="AutoAppliedSmartFocus" val="False"/>
             <entry key="WinSubProjectDisplayName" val=""/>
            </MetaData>
           </UnifiedMedia>
           <UnifiedMedia id="409"  >
            <AMFile id="410" start="862" duration="143" scalar="1/1" mediaStart="911/1" mediaDuration="143/1" trackNumber="1" src="4" channelNumber="0,1" >
             <Parameters>
              <InterpolatingParam id="411" interp="linr"  time="0/1" value="1" leadInLength="0/1"  name="volume"/>
              <Parameter id="412"  name="captions"/>
             </Parameters>
             <Attributes>
              <Attribute id="413" value="" name="ident"/>
              <Attribute id="414" value="44100" name="sampleRate"/>
              <Attribute id="415" value="16" name="bitDepth"/>
              <Attribute id="416" value="1" name="gain"/>
              <Attribute id="417" value="0" name="mixToMono"/>
             </Attributes>
            </AMFile>
            <ScreenVMFile id="418" start="862" duration="143" scalar="1/1" mediaStart="911/1" mediaDuration="143/1" trackNumber="0" src="4" >
             <Transformer>
              <VectorParam id="419"  name="translation">
               <InterpolatingParam id="420" interp="linr"  time="-9999999/1" value="0" leadInLength="0/1"  />
               <InterpolatingParam id="421" interp="linr"  time="-9999999/1" value="0" leadInLength="0/1"  />
               <InterpolatingParam id="422" interp="linr"  time="-9999999/1" value="0" leadInLength="0/1"  />
              </VectorParam>
              <VectorParam id="423"  name="rotation">
               <InterpolatingParam id="424" interp="linr"  time="-9999999/1" value="0" leadInLength="0/1"  />
               <InterpolatingParam id="425" interp="linr"  time="-9999999/1" value="0" leadInLength="0/1"  />
               <InterpolatingParam id="426" interp="linr"  time="-9999999/1" value="0" leadInLength="0/1"  />
              </VectorParam>
              <VectorParam id="427"  name="shear">
               <InterpolatingParam id="428" interp="linr"  time="-9999999/1" value="0" leadInLength="0/1"  />
               <InterpolatingParam id="429" interp="linr"  time="-9999999/1" value="0" leadInLength="0/1"  />
               <InterpolatingParam id="430" interp="linr"  time="-9999999/1" value="0" leadInLength="0/1"  />
              </VectorParam>
              <VectorParam id="431"  name="scale">
               <InterpolatingParam id="432" interp="linr"  time="-9999999/1" value="1" leadInLength="0/1"  />
               <InterpolatingParam id="433" interp="linr"  time="-9999999/1" value="1" leadInLength="0/1"  />
               <InterpolatingParam id="434" interp="linr"  time="-9999999/1" value="1" leadInLength="0/1"  />
              </VectorParam>
              <VectorParam id="435"  name="anchor">
               <InterpolatingParam id="436" interp="linr"  time="0/1" value="0" leadInLength="0/1"  />
               <InterpolatingParam id="437" interp="linr"  time="0/1" value="0" leadInLength="0/1"  />
               <InterpolatingParam id="438" interp="linr"  time="0/1" value="0" leadInLength="0/1"  />
              </VectorParam>
             </Transformer>
             <Parameters>
              <VectorParam id="439"  name="sourceCrop">
               <InterpolatingParam id="440" interp="linr"  time="0/1" value="0" leadInLength="0/1"  />
               <InterpolatingParam id="441" interp="linr"  time="0/1" value="0" leadInLength="0/1"  />
               <InterpolatingParam id="442" interp="linr"  time="0/1" value="0" leadInLength="0/1"  />
               <InterpolatingParam id="443" interp="linr"  time="0/1" value="0" leadInLength="0/1"  />
              </VectorParam>
              <VectorParam id="444"  name="geometryCrop">
               <InterpolatingParam id="445" interp="linr"  time="-9999999/1" value="0" leadInLength="0/1"  />
               <InterpolatingParam id="446" interp="linr"  time="-9999999/1" value="0" leadInLength="0/1"  />
               <InterpolatingParam id="447" interp="linr"  time="-9999999/1" value="0" leadInLength="0/1"  />
               <InterpolatingParam id="448" interp="linr"  time="-9999999/1" value="0" leadInLength="0/1"  />
              </VectorParam>
              <InterpolatingParam id="449" interp="linr"  time="-9999999/1" value="1" leadInLength="0/1"  name="opacity"/>
              <InterpolatingParam id="450" interp="linr"  time="0/1" value="0" leadInLength="0/1"  name="cursorOpacity"/>
              <InterpolatingParam id="451" interp="linr"  time="0/1" value="0" leadInLength="0/1"  name="cursorScale"/>
             </Parameters>
             <Attributes>
              <Attribute id="452" value="" name="ident"/>
             </Attributes>
             <ExtraData>
              <Entry key="ZoomPanBin">
               <ZoomPanBin id="453"  >
                <ZoomPanKeyframes>
                 <ZoomPanKeyframe id="454" timeRangeEnd="-9999999/1" timeRangeDuration="0/1" interpolaterName=""  />
                </ZoomPanKeyframes>
               </ZoomPanBin>
              </Entry>
              <Entry key="CursorEffectBin">
               <CursorEffectBin id="455"  >
                <CursorEffectKeyframes>
                </CursorEffectKeyframes>
               </CursorEffectBin>
              </Entry>
             </ExtraData>
            </ScreenVMFile>
            <MetaData>
             <entry key="AutoAppliedSmartFocus" val="False"/>
             <entry key="WinSubProjectDisplayName" val=""/>
            </MetaData>
           </UnifiedMedia>
           <UnifiedMedia id="456"  >
            <AMFile id="457" start="1005" duration="39" scalar="1/1" mediaStart="1062/1" mediaDuration="39/1" trackNumber="1" src="4" channelNumber="0,1" >
             <Parameters>
              <InterpolatingParam id="458" interp="linr"  time="0/1" value="1" leadInLength="0/1"  name="volume"/>
              <Parameter id="459"  name="captions"/>
             </Parameters>
             <Attributes>
              <Attribute id="460" value="" name="ident"/>
              <Attribute id="461" value="44100" name="sampleRate"/>
              <Attribute id="462" value="16" name="bitDepth"/>
              <Attribute id="463" value="1" name="gain"/>
              <Attribute id="464" value="0" name="mixToMono"/>
             </Attributes>
            </AMFile>
            <ScreenVMFile id="465" start="1005" duration="39" scalar="1/1" mediaStart="1062/1" mediaDuration="39/1" trackNumber="0" src="4" >
             <Transformer>
              <VectorParam id="466"  name="translation">
               <InterpolatingParam id="467" interp="linr"  time="-9999999/1" value="0" leadInLength="0/1"  />
               <InterpolatingParam id="468" interp="linr"  time="-9999999/1" value="0" leadInLength="0/1"  />
               <InterpolatingParam id="469" interp="linr"  time="-9999999/1" value="0" leadInLength="0/1"  />
              </VectorParam>
              <VectorParam id="470"  name="rotation">
               <InterpolatingParam id="471" interp="linr"  time="-9999999/1" value="0" leadInLength="0/1"  />
               <InterpolatingParam id="472" interp="linr"  time="-9999999/1" value="0" leadInLength="0/1"  />
               <InterpolatingParam id="473" interp="linr"  time="-9999999/1" value="0" leadInLength="0/1"  />
              </VectorParam>
              <VectorParam id="474"  name="shear">
               <InterpolatingParam id="475" interp="linr"  time="-9999999/1" value="0" leadInLength="0/1"  />
               <InterpolatingParam id="476" interp="linr"  time="-9999999/1" value="0" leadInLength="0/1"  />
               <InterpolatingParam id="477" interp="linr"  time="-9999999/1" value="0" leadInLength="0/1"  />
              </VectorParam>
              <VectorParam id="478"  name="scale">
               <InterpolatingParam id="479" interp="linr"  time="-9999999/1" value="1" leadInLength="0/1"  />
               <InterpolatingParam id="480" interp="linr"  time="-9999999/1" value="1" leadInLength="0/1"  />
               <InterpolatingParam id="481" interp="linr"  time="-9999999/1" value="1" leadInLength="0/1"  />
              </VectorParam>
              <VectorParam id="482"  name="anchor">
               <InterpolatingParam id="483" interp="linr"  time="0/1" value="0" leadInLength="0/1"  />
               <InterpolatingParam id="484" interp="linr"  time="0/1" value="0" leadInLength="0/1"  />
               <InterpolatingParam id="485" interp="linr"  time="0/1" value="0" leadInLength="0/1"  />
              </VectorParam>
             </Transformer>
             <Parameters>
              <VectorParam id="486"  name="sourceCrop">
               <InterpolatingParam id="487" interp="linr"  time="0/1" value="0" leadInLength="0/1"  />
               <InterpolatingParam id="488" interp="linr"  time="0/1" value="0" leadInLength="0/1"  />
               <InterpolatingParam id="489" interp="linr"  time="0/1" value="0" leadInLength="0/1"  />
               <InterpolatingParam id="490" interp="linr"  time="0/1" value="0" leadInLength="0/1"  />
              </VectorParam>
              <VectorParam id="491"  name="geometryCrop">
               <InterpolatingParam id="492" interp="linr"  time="-9999999/1" value="0" leadInLength="0/1"  />
               <InterpolatingParam id="493" interp="linr"  time="-9999999/1" value="0" leadInLength="0/1"  />
               <InterpolatingParam id="494" interp="linr"  time="-9999999/1" value="0" leadInLength="0/1"  />
               <InterpolatingParam id="495" interp="linr"  time="-9999999/1" value="0" leadInLength="0/1"  />
              </VectorParam>
              <InterpolatingParam id="496" interp="linr"  time="-9999999/1" value="1" leadInLength="0/1"  name="opacity"/>
              <InterpolatingParam id="497" interp="linr"  time="0/1" value="0" leadInLength="0/1"  name="cursorOpacity"/>
              <InterpolatingParam id="498" interp="linr"  time="0/1" value="0" leadInLength="0/1"  name="cursorScale"/>
             </Parameters>
             <Attributes>
              <Attribute id="499" value="" name="ident"/>
             </Attributes>
             <ExtraData>
              <Entry key="ZoomPanBin">
               <ZoomPanBin id="500"  >
                <ZoomPanKeyframes>
                 <ZoomPanKeyframe id="501" timeRangeEnd="-9999999/1" timeRangeDuration="0/1" interpolaterName=""  />
                </ZoomPanKeyframes>
               </ZoomPanBin>
              </Entry>
              <Entry key="CursorEffectBin">
               <CursorEffectBin id="502"  >
                <CursorEffectKeyframes>
                </CursorEffectKeyframes>
               </CursorEffectBin>
              </Entry>
             </ExtraData>
            </ScreenVMFile>
            <MetaData>
             <entry key="AutoAppliedSmartFocus" val="False"/>
             <entry key="WinSubProjectDisplayName" val=""/>
            </MetaData>
           </UnifiedMedia>
           <UnifiedMedia id="503"  >
            <AMFile id="504" start="1044" duration="87" scalar="1/1" mediaStart="1115/1" mediaDuration="87/1" trackNumber="1" src="4" channelNumber="0,1" >
             <Parameters>
              <InterpolatingParam id="505" interp="linr"  time="0/1" value="1" leadInLength="0/1"  name="volume"/>
              <Parameter id="506"  name="captions"/>
             </Parameters>
             <Attributes>
              <Attribute id="507" value="" name="ident"/>
              <Attribute id="508" value="44100" name="sampleRate"/>
              <Attribute id="509" value="16" name="bitDepth"/>
              <Attribute id="510" value="1" name="gain"/>
              <Attribute id="511" value="0" name="mixToMono"/>
             </Attributes>
            </AMFile>
            <ScreenVMFile id="512" start="1044" duration="87" scalar="1/1" mediaStart="1115/1" mediaDuration="87/1" trackNumber="0" src="4" >
             <Transformer>
              <VectorParam id="513"  name="translation">
               <InterpolatingParam id="514" interp="linr"  time="-9999999/1" value="0" leadInLength="0/1"  />
               <InterpolatingParam id="515" interp="linr"  time="-9999999/1" value="0" leadInLength="0/1"  />
               <InterpolatingParam id="516" interp="linr"  time="-9999999/1" value="0" leadInLength="0/1"  />
              </VectorParam>
              <VectorParam id="517"  name="rotation">
               <InterpolatingParam id="518" interp="linr"  time="-9999999/1" value="0" leadInLength="0/1"  />
               <InterpolatingParam id="519" interp="linr"  time="-9999999/1" value="0" leadInLength="0/1"  />
               <InterpolatingParam id="520" interp="linr"  time="-9999999/1" value="0" leadInLength="0/1"  />
              </VectorParam>
              <VectorParam id="521"  name="shear">
               <InterpolatingParam id="522" interp="linr"  time="-9999999/1" value="0" leadInLength="0/1"  />
               <InterpolatingParam id="523" interp="linr"  time="-9999999/1" value="0" leadInLength="0/1"  />
               <InterpolatingParam id="524" interp="linr"  time="-9999999/1" value="0" leadInLength="0/1"  />
              </VectorParam>
              <VectorParam id="525"  name="scale">
               <InterpolatingParam id="526" interp="linr"  time="-9999999/1" value="1" leadInLength="0/1"  />
               <InterpolatingParam id="527" interp="linr"  time="-9999999/1" value="1" leadInLength="0/1"  />
               <InterpolatingParam id="528" interp="linr"  time="-9999999/1" value="1" leadInLength="0/1"  />
              </VectorParam>
              <VectorParam id="529"  name="anchor">
               <InterpolatingParam id="530" interp="linr"  time="0/1" value="0" leadInLength="0/1"  />
               <InterpolatingParam id="531" interp="linr"  time="0/1" value="0" leadInLength="0/1"  />
               <InterpolatingParam id="532" interp="linr"  time="0/1" value="0" leadInLength="0/1"  />
              </VectorParam>
             </Transformer>
             <Parameters>
              <VectorParam id="533"  name="sourceCrop">
               <InterpolatingParam id="534" interp="linr"  time="0/1" value="0" leadInLength="0/1"  />
               <InterpolatingParam id="535" interp="linr"  time="0/1" value="0" leadInLength="0/1"  />
               <InterpolatingParam id="536" interp="linr"  time="0/1" value="0" leadInLength="0/1"  />
               <InterpolatingParam id="537" interp="linr"  time="0/1" value="0" leadInLength="0/1"  />
              </VectorParam>
              <VectorParam id="538"  name="geometryCrop">
               <InterpolatingParam id="539" interp="linr"  time="-9999999/1" value="0" leadInLength="0/1"  />
               <InterpolatingParam id="540" interp="linr"  time="-9999999/1" value="0" leadInLength="0/1"  />
               <InterpolatingParam id="541" interp="linr"  time="-9999999/1" value="0" leadInLength="0/1"  />
               <InterpolatingParam id="542" interp="linr"  time="-9999999/1" value="0" leadInLength="0/1"  />
              </VectorParam>
              <InterpolatingParam id="543" interp="linr"  time="-9999999/1" value="1" leadInLength="0/1"  name="opacity"/>
              <InterpolatingParam id="544" interp="linr"  time="0/1" value="0" leadInLength="0/1"  name="cursorOpacity"/>
              <InterpolatingParam id="545" interp="linr"  time="0/1" value="0" leadInLength="0/1"  name="cursorScale"/>
             </Parameters>
             <Attributes>
              <Attribute id="546" value="" name="ident"/>
             </Attributes>
             <ExtraData>
              <Entry key="ZoomPanBin">
               <ZoomPanBin id="547"  >
                <ZoomPanKeyframes>
                 <ZoomPanKeyframe id="548" timeRangeEnd="-9999999/1" timeRangeDuration="0/1" interpolaterName=""  />
                </ZoomPanKeyframes>
               </ZoomPanBin>
              </Entry>
              <Entry key="CursorEffectBin">
               <CursorEffectBin id="549"  >
                <CursorEffectKeyframes>
                </CursorEffectKeyframes>
               </CursorEffectBin>
              </Entry>
             </ExtraData>
            </ScreenVMFile>
            <MetaData>
             <entry key="AutoAppliedSmartFocus" val="False"/>
             <entry key="WinSubProjectDisplayName" val=""/>
            </MetaData>
           </UnifiedMedia>
           <UnifiedMedia id="550"  >
            <AMFile id="551" start="1131" duration="151" scalar="1/1" mediaStart="2639/1" mediaDuration="151/1" trackNumber="1" src="4" channelNumber="0,1" >
             <Parameters>
              <InterpolatingParam id="552" interp="linr"  time="0/1" value="1" leadInLength="0/1"  name="volume"/>
              <Parameter id="553"  name="captions"/>
             </Parameters>
             <Attributes>
              <Attribute id="554" value="" name="ident"/>
              <Attribute id="555" value="44100" name="sampleRate"/>
              <Attribute id="556" value="16" name="bitDepth"/>
              <Attribute id="557" value="1" name="gain"/>
              <Attribute id="558" value="0" name="mixToMono"/>
             </Attributes>
            </AMFile>
            <ScreenVMFile id="559" start="1131" duration="151" scalar="1/1" mediaStart="2639/1" mediaDuration="151/1" trackNumber="0" src="4" >
             <Transformer>
              <VectorParam id="560"  name="translation">
               <InterpolatingParam id="561" interp="linr"  time="-9999999/1" value="0" leadInLength="0/1"  />
               <InterpolatingParam id="562" interp="linr"  time="-9999999/1" value="0" leadInLength="0/1"  />
               <InterpolatingParam id="563" interp="linr"  time="-9999999/1" value="0" leadInLength="0/1"  />
              </VectorParam>
              <VectorParam id="564"  name="rotation">
               <InterpolatingParam id="565" interp="linr"  time="-9999999/1" value="0" leadInLength="0/1"  />
               <InterpolatingParam id="566" interp="linr"  time="-9999999/1" value="0" leadInLength="0/1"  />
               <InterpolatingParam id="567" interp="linr"  time="-9999999/1" value="0" leadInLength="0/1"  />
              </VectorParam>
              <VectorParam id="568"  name="shear">
               <InterpolatingParam id="569" interp="linr"  time="-9999999/1" value="0" leadInLength="0/1"  />
               <InterpolatingParam id="570" interp="linr"  time="-9999999/1" value="0" leadInLength="0/1"  />
               <InterpolatingParam id="571" interp="linr"  time="-9999999/1" value="0" leadInLength="0/1"  />
              </VectorParam>
              <VectorParam id="572"  name="scale">
               <InterpolatingParam id="573" interp="linr"  time="-9999999/1" value="1" leadInLength="0/1"  />
               <InterpolatingParam id="574" interp="linr"  time="-9999999/1" value="1" leadInLength="0/1"  />
               <InterpolatingParam id="575" interp="linr"  time="-9999999/1" value="1" leadInLength="0/1"  />
              </VectorParam>
              <VectorParam id="576"  name="anchor">
               <InterpolatingParam id="577" interp="linr"  time="0/1" value="0" leadInLength="0/1"  />
               <InterpolatingParam id="578" interp="linr"  time="0/1" value="0" leadInLength="0/1"  />
               <InterpolatingParam id="579" interp="linr"  time="0/1" value="0" leadInLength="0/1"  />
              </VectorParam>
             </Transformer>
             <Parameters>
              <VectorParam id="580"  name="sourceCrop">
               <InterpolatingParam id="581" interp="linr"  time="0/1" value="0" leadInLength="0/1"  />
               <InterpolatingParam id="582" interp="linr"  time="0/1" value="0" leadInLength="0/1"  />
               <InterpolatingParam id="583" interp="linr"  time="0/1" value="0" leadInLength="0/1"  />
               <InterpolatingParam id="584" interp="linr"  time="0/1" value="0" leadInLength="0/1"  />
              </VectorParam>
              <VectorParam id="585"  name="geometryCrop">
               <InterpolatingParam id="586" interp="linr"  time="-9999999/1" value="0" leadInLength="0/1"  />
               <InterpolatingParam id="587" interp="linr"  time="-9999999/1" value="0" leadInLength="0/1"  />
               <InterpolatingParam id="588" interp="linr"  time="-9999999/1" value="0" leadInLength="0/1"  />
               <InterpolatingParam id="589" interp="linr"  time="-9999999/1" value="0" leadInLength="0/1"  />
              </VectorParam>
              <InterpolatingParam id="590" interp="linr"  time="-9999999/1" value="1" leadInLength="0/1"  name="opacity"/>
              <InterpolatingParam id="591" interp="linr"  time="0/1" value="0" leadInLength="0/1"  name="cursorOpacity"/>
              <InterpolatingParam id="592" interp="linr"  time="0/1" value="0" leadInLength="0/1"  name="cursorScale"/>
             </Parameters>
             <Attributes>
              <Attribute id="593" value="" name="ident"/>
             </Attributes>
             <ExtraData>
              <Entry key="ZoomPanBin">
               <ZoomPanBin id="594"  >
                <ZoomPanKeyframes>
                 <ZoomPanKeyframe id="595" timeRangeEnd="-9999999/1" timeRangeDuration="0/1" interpolaterName=""  />
                </ZoomPanKeyframes>
               </ZoomPanBin>
              </Entry>
              <Entry key="CursorEffectBin">
               <CursorEffectBin id="596"  >
                <CursorEffectKeyframes>
                </CursorEffectKeyframes>
               </CursorEffectBin>
              </Entry>
             </ExtraData>
            </ScreenVMFile>
            <MetaData>
             <entry key="AutoAppliedSmartFocus" val="False"/>
             <entry key="WinSubProjectDisplayName" val=""/>
            </MetaData>
           </UnifiedMedia>
           <UnifiedMedia id="597"  >
            <AMFile id="598" start="1282" duration="107" scalar="1/1" mediaStart="2801/1" mediaDuration="107/1" trackNumber="1" src="4" channelNumber="0,1" >
             <Parameters>
              <InterpolatingParam id="599" interp="linr"  time="0/1" value="1" leadInLength="0/1"  name="volume"/>
              <Parameter id="600"  name="captions"/>
             </Parameters>
             <Attributes>
              <Attribute id="601" value="" name="ident"/>
              <Attribute id="602" value="44100" name="sampleRate"/>
              <Attribute id="603" value="16" name="bitDepth"/>
              <Attribute id="604" value="1" name="gain"/>
              <Attribute id="605" value="0" name="mixToMono"/>
             </Attributes>
            </AMFile>
            <ScreenVMFile id="606" start="1282" duration="107" scalar="1/1" mediaStart="2801/1" mediaDuration="107/1" trackNumber="0" src="4" >
             <Transformer>
              <VectorParam id="607"  name="translation">
               <InterpolatingParam id="608" interp="linr"  time="-9999999/1" value="0" leadInLength="0/1"  />
               <InterpolatingParam id="609" interp="linr"  time="-9999999/1" value="0" leadInLength="0/1"  />
               <InterpolatingParam id="610" interp="linr"  time="-9999999/1" value="0" leadInLength="0/1"  />
              </VectorParam>
              <VectorParam id="611"  name="rotation">
               <InterpolatingParam id="612" interp="linr"  time="-9999999/1" value="0" leadInLength="0/1"  />
               <InterpolatingParam id="613" interp="linr"  time="-9999999/1" value="0" leadInLength="0/1"  />
               <InterpolatingParam id="614" interp="linr"  time="-9999999/1" value="0" leadInLength="0/1"  />
              </VectorParam>
              <VectorParam id="615"  name="shear">
               <InterpolatingParam id="616" interp="linr"  time="-9999999/1" value="0" leadInLength="0/1"  />
               <InterpolatingParam id="617" interp="linr"  time="-9999999/1" value="0" leadInLength="0/1"  />
               <InterpolatingParam id="618" interp="linr"  time="-9999999/1" value="0" leadInLength="0/1"  />
              </VectorParam>
              <VectorParam id="619"  name="scale">
               <InterpolatingParam id="620" interp="linr"  time="-9999999/1" value="1" leadInLength="0/1"  />
               <InterpolatingParam id="621" interp="linr"  time="-9999999/1" value="1" leadInLength="0/1"  />
               <InterpolatingParam id="622" interp="linr"  time="-9999999/1" value="1" leadInLength="0/1"  />
              </VectorParam>
              <VectorParam id="623"  name="anchor">
               <InterpolatingParam id="624" interp="linr"  time="0/1" value="0" leadInLength="0/1"  />
               <InterpolatingParam id="625" interp="linr"  time="0/1" value="0" leadInLength="0/1"  />
               <InterpolatingParam id="626" interp="linr"  time="0/1" value="0" leadInLength="0/1"  />
              </VectorParam>
             </Transformer>
             <Parameters>
              <VectorParam id="627"  name="sourceCrop">
               <InterpolatingParam id="628" interp="linr"  time="0/1" value="0" leadInLength="0/1"  />
               <InterpolatingParam id="629" interp="linr"  time="0/1" value="0" leadInLength="0/1"  />
               <InterpolatingParam id="630" interp="linr"  time="0/1" value="0" leadInLength="0/1"  />
               <InterpolatingParam id="631" interp="linr"  time="0/1" value="0" leadInLength="0/1"  />
              </VectorParam>
              <VectorParam id="632"  name="geometryCrop">
               <InterpolatingParam id="633" interp="linr"  time="-9999999/1" value="0" leadInLength="0/1"  />
               <InterpolatingParam id="634" interp="linr"  time="-9999999/1" value="0" leadInLength="0/1"  />
               <InterpolatingParam id="635" interp="linr"  time="-9999999/1" value="0" leadInLength="0/1"  />
               <InterpolatingParam id="636" interp="linr"  time="-9999999/1" value="0" leadInLength="0/1"  />
              </VectorParam>
              <InterpolatingParam id="637" interp="linr"  time="-9999999/1" value="1" leadInLength="0/1"  name="opacity"/>
              <InterpolatingParam id="638" interp="linr"  time="0/1" value="0" leadInLength="0/1"  name="cursorOpacity"/>
              <InterpolatingParam id="639" interp="linr"  time="0/1" value="0" leadInLength="0/1"  name="cursorScale"/>
             </Parameters>
             <Attributes>
              <Attribute id="640" value="" name="ident"/>
             </Attributes>
             <ExtraData>
              <Entry key="ZoomPanBin">
               <ZoomPanBin id="641"  >
                <ZoomPanKeyframes>
                 <ZoomPanKeyframe id="642" timeRangeEnd="-9999999/1" timeRangeDuration="0/1" interpolaterName=""  />
                </ZoomPanKeyframes>
               </ZoomPanBin>
              </Entry>
              <Entry key="CursorEffectBin">
               <CursorEffectBin id="643"  >
                <CursorEffectKeyframes>
                </CursorEffectKeyframes>
               </CursorEffectBin>
              </Entry>
             </ExtraData>
            </ScreenVMFile>
            <MetaData>
             <entry key="AutoAppliedSmartFocus" val="False"/>
             <entry key="WinSubProjectDisplayName" val=""/>
            </MetaData>
           </UnifiedMedia>
           <UnifiedMedia id="644"  >
            <AMFile id="645" start="1389" duration="239" scalar="1/1" mediaStart="2923/1" mediaDuration="239/1" trackNumber="1" src="4" channelNumber="0,1" >
             <Parameters>
              <InterpolatingParam id="646" interp="linr"  time="0/1" value="1" leadInLength="0/1"  name="volume"/>
              <Parameter id="647"  name="captions"/>
             </Parameters>
             <Attributes>
              <Attribute id="648" value="" name="ident"/>
              <Attribute id="649" value="44100" name="sampleRate"/>
              <Attribute id="650" value="16" name="bitDepth"/>
              <Attribute id="651" value="1" name="gain"/>
              <Attribute id="652" value="0" name="mixToMono"/>
             </Attributes>
            </AMFile>
            <ScreenVMFile id="653" start="1389" duration="239" scalar="1/1" mediaStart="2923/1" mediaDuration="239/1" trackNumber="0" src="4" >
             <Transformer>
              <VectorParam id="654"  name="translation">
               <InterpolatingParam id="655" interp="linr"  time="-9999999/1" value="0" leadInLength="0/1"  />
               <InterpolatingParam id="656" interp="linr"  time="-9999999/1" value="0" leadInLength="0/1"  />
               <InterpolatingParam id="657" interp="linr"  time="-9999999/1" value="0" leadInLength="0/1"  />
              </VectorParam>
              <VectorParam id="658"  name="rotation">
               <InterpolatingParam id="659" interp="linr"  time="-9999999/1" value="0" leadInLength="0/1"  />
               <InterpolatingParam id="660" interp="linr"  time="-9999999/1" value="0" leadInLength="0/1"  />
               <InterpolatingParam id="661" interp="linr"  time="-9999999/1" value="0" leadInLength="0/1"  />
              </VectorParam>
              <VectorParam id="662"  name="shear">
               <InterpolatingParam id="663" interp="linr"  time="-9999999/1" value="0" leadInLength="0/1"  />
               <InterpolatingParam id="664" interp="linr"  time="-9999999/1" value="0" leadInLength="0/1"  />
               <InterpolatingParam id="665" interp="linr"  time="-9999999/1" value="0" leadInLength="0/1"  />
              </VectorParam>
              <VectorParam id="666"  name="scale">
               <InterpolatingParam id="667" interp="linr"  time="-9999999/1" value="1" leadInLength="0/1"  />
               <InterpolatingParam id="668" interp="linr"  time="-9999999/1" value="1" leadInLength="0/1"  />
               <InterpolatingParam id="669" interp="linr"  time="-9999999/1" value="1" leadInLength="0/1"  />
              </VectorParam>
              <VectorParam id="670"  name="anchor">
               <InterpolatingParam id="671" interp="linr"  time="0/1" value="0" leadInLength="0/1"  />
               <InterpolatingParam id="672" interp="linr"  time="0/1" value="0" leadInLength="0/1"  />
               <InterpolatingParam id="673" interp="linr"  time="0/1" value="0" leadInLength="0/1"  />
              </VectorParam>
             </Transformer>
             <Parameters>
              <VectorParam id="674"  name="sourceCrop">
               <InterpolatingParam id="675" interp="linr"  time="0/1" value="0" leadInLength="0/1"  />
               <InterpolatingParam id="676" interp="linr"  time="0/1" value="0" leadInLength="0/1"  />
               <InterpolatingParam id="677" interp="linr"  time="0/1" value="0" leadInLength="0/1"  />
               <InterpolatingParam id="678" interp="linr"  time="0/1" value="0" leadInLength="0/1"  />
              </VectorParam>
              <VectorParam id="679"  name="geometryCrop">
               <InterpolatingParam id="680" interp="linr"  time="-9999999/1" value="0" leadInLength="0/1"  />
               <InterpolatingParam id="681" interp="linr"  time="-9999999/1" value="0" leadInLength="0/1"  />
               <InterpolatingParam id="682" interp="linr"  time="-9999999/1" value="0" leadInLength="0/1"  />
               <InterpolatingParam id="683" interp="linr"  time="-9999999/1" value="0" leadInLength="0/1"  />
              </VectorParam>
              <InterpolatingParam id="684" interp="linr"  time="-9999999/1" value="1" leadInLength="0/1"  name="opacity"/>
              <InterpolatingParam id="685" interp="linr"  time="0/1" value="0" leadInLength="0/1"  name="cursorOpacity"/>
              <InterpolatingParam id="686" interp="linr"  time="0/1" value="0" leadInLength="0/1"  name="cursorScale"/>
             </Parameters>
             <Attributes>
              <Attribute id="687" value="" name="ident"/>
             </Attributes>
             <ExtraData>
              <Entry key="ZoomPanBin">
               <ZoomPanBin id="688"  >
                <ZoomPanKeyframes>
                 <ZoomPanKeyframe id="689" timeRangeEnd="-9999999/1" timeRangeDuration="0/1" interpolaterName=""  />
                </ZoomPanKeyframes>
               </ZoomPanBin>
              </Entry>
              <Entry key="CursorEffectBin">
               <CursorEffectBin id="690"  >
                <CursorEffectKeyframes>
                </CursorEffectKeyframes>
               </CursorEffectBin>
              </Entry>
             </ExtraData>
            </ScreenVMFile>
            <MetaData>
             <entry key="AutoAppliedSmartFocus" val="False"/>
             <entry key="WinSubProjectDisplayName" val=""/>
            </MetaData>
           </UnifiedMedia>
           <UnifiedMedia id="691"  >
            <AMFile id="692" start="1628" duration="155" scalar="1/1" mediaStart="3173/1" mediaDuration="155/1" trackNumber="1" src="4" channelNumber="0,1" >
             <Parameters>
              <InterpolatingParam id="693" interp="linr"  time="0/1" value="1" leadInLength="0/1"  name="volume"/>
              <Parameter id="694"  name="captions"/>
             </Parameters>
             <Attributes>
              <Attribute id="695" value="" name="ident"/>
              <Attribute id="696" value="44100" name="sampleRate"/>
              <Attribute id="697" value="16" name="bitDepth"/>
              <Attribute id="698" value="1" name="gain"/>
              <Attribute id="699" value="0" name="mixToMono"/>
             </Attributes>
            </AMFile>
            <ScreenVMFile id="700" start="1628" duration="155" scalar="1/1" mediaStart="3173/1" mediaDuration="155/1" trackNumber="0" src="4" >
             <Transformer>
              <VectorParam id="701"  name="translation">
               <InterpolatingParam id="702" interp="linr"  time="-9999999/1" value="0" leadInLength="0/1"  />
               <InterpolatingParam id="703" interp="linr"  time="-9999999/1" value="0" leadInLength="0/1"  />
               <InterpolatingParam id="704" interp="linr"  time="-9999999/1" value="0" leadInLength="0/1"  />
              </VectorParam>
              <VectorParam id="705"  name="rotation">
               <InterpolatingParam id="706" interp="linr"  time="-9999999/1" value="0" leadInLength="0/1"  />
               <InterpolatingParam id="707" interp="linr"  time="-9999999/1" value="0" leadInLength="0/1"  />
               <InterpolatingParam id="708" interp="linr"  time="-9999999/1" value="0" leadInLength="0/1"  />
              </VectorParam>
              <VectorParam id="709"  name="shear">
               <InterpolatingParam id="710" interp="linr"  time="-9999999/1" value="0" leadInLength="0/1"  />
               <InterpolatingParam id="711" interp="linr"  time="-9999999/1" value="0" leadInLength="0/1"  />
               <InterpolatingParam id="712" interp="linr"  time="-9999999/1" value="0" leadInLength="0/1"  />
              </VectorParam>
              <VectorParam id="713"  name="scale">
               <InterpolatingParam id="714" interp="linr"  time="-9999999/1" value="1" leadInLength="0/1"  />
               <InterpolatingParam id="715" interp="linr"  time="-9999999/1" value="1" leadInLength="0/1"  />
               <InterpolatingParam id="716" interp="linr"  time="-9999999/1" value="1" leadInLength="0/1"  />
              </VectorParam>
              <VectorParam id="717"  name="anchor">
               <InterpolatingParam id="718" interp="linr"  time="0/1" value="0" leadInLength="0/1"  />
               <InterpolatingParam id="719" interp="linr"  time="0/1" value="0" leadInLength="0/1"  />
               <InterpolatingParam id="720" interp="linr"  time="0/1" value="0" leadInLength="0/1"  />
              </VectorParam>
             </Transformer>
             <Parameters>
              <VectorParam id="721"  name="sourceCrop">
               <InterpolatingParam id="722" interp="linr"  time="0/1" value="0" leadInLength="0/1"  />
               <InterpolatingParam id="723" interp="linr"  time="0/1" value="0" leadInLength="0/1"  />
               <InterpolatingParam id="724" interp="linr"  time="0/1" value="0" leadInLength="0/1"  />
               <InterpolatingParam id="725" interp="linr"  time="0/1" value="0" leadInLength="0/1"  />
              </VectorParam>
              <VectorParam id="726"  name="geometryCrop">
               <InterpolatingParam id="727" interp="linr"  time="-9999999/1" value="0" leadInLength="0/1"  />
               <InterpolatingParam id="728" interp="linr"  time="-9999999/1" value="0" leadInLength="0/1"  />
               <InterpolatingParam id="729" interp="linr"  time="-9999999/1" value="0" leadInLength="0/1"  />
               <InterpolatingParam id="730" interp="linr"  time="-9999999/1" value="0" leadInLength="0/1"  />
              </VectorParam>
              <InterpolatingParam id="731" interp="linr"  time="-9999999/1" value="1" leadInLength="0/1"  name="opacity"/>
              <InterpolatingParam id="732" interp="linr"  time="0/1" value="0" leadInLength="0/1"  name="cursorOpacity"/>
              <InterpolatingParam id="733" interp="linr"  time="0/1" value="0" leadInLength="0/1"  name="cursorScale"/>
             </Parameters>
             <Attributes>
              <Attribute id="734" value="" name="ident"/>
             </Attributes>
             <ExtraData>
              <Entry key="ZoomPanBin">
               <ZoomPanBin id="735"  >
                <ZoomPanKeyframes>
                 <ZoomPanKeyframe id="736" timeRangeEnd="-9999999/1" timeRangeDuration="0/1" interpolaterName=""  />
                </ZoomPanKeyframes>
               </ZoomPanBin>
              </Entry>
              <Entry key="CursorEffectBin">
               <CursorEffectBin id="737"  >
                <CursorEffectKeyframes>
                </CursorEffectKeyframes>
               </CursorEffectBin>
              </Entry>
             </ExtraData>
            </ScreenVMFile>
            <MetaData>
             <entry key="AutoAppliedSmartFocus" val="False"/>
             <entry key="WinSubProjectDisplayName" val=""/>
            </MetaData>
           </UnifiedMedia>
           <UnifiedMedia id="738"  >
            <AMFile id="739" start="1783" duration="92" scalar="1/1" mediaStart="3464/1" mediaDuration="92/1" trackNumber="1" src="4" channelNumber="0,1" >
             <Parameters>
              <InterpolatingParam id="740" interp="linr"  time="0/1" value="1" leadInLength="0/1"  name="volume"/>
              <Parameter id="741"  name="captions"/>
             </Parameters>
             <Attributes>
              <Attribute id="742" value="" name="ident"/>
              <Attribute id="743" value="44100" name="sampleRate"/>
              <Attribute id="744" value="16" name="bitDepth"/>
              <Attribute id="745" value="1" name="gain"/>
              <Attribute id="746" value="0" name="mixToMono"/>
             </Attributes>
            </AMFile>
            <ScreenVMFile id="747" start="1783" duration="92" scalar="1/1" mediaStart="3464/1" mediaDuration="92/1" trackNumber="0" src="4" >
             <Transformer>
              <VectorParam id="748"  name="translation">
               <InterpolatingParam id="749" interp="linr"  time="-9999999/1" value="0" leadInLength="0/1"  />
               <InterpolatingParam id="750" interp="linr"  time="-9999999/1" value="0" leadInLength="0/1"  />
               <InterpolatingParam id="751" interp="linr"  time="-9999999/1" value="0" leadInLength="0/1"  />
              </VectorParam>
              <VectorParam id="752"  name="rotation">
               <InterpolatingParam id="753" interp="linr"  time="-9999999/1" value="0" leadInLength="0/1"  />
               <InterpolatingParam id="754" interp="linr"  time="-9999999/1" value="0" leadInLength="0/1"  />
               <InterpolatingParam id="755" interp="linr"  time="-9999999/1" value="0" leadInLength="0/1"  />
              </VectorParam>
              <VectorParam id="756"  name="shear">
               <InterpolatingParam id="757" interp="linr"  time="-9999999/1" value="0" leadInLength="0/1"  />
               <InterpolatingParam id="758" interp="linr"  time="-9999999/1" value="0" leadInLength="0/1"  />
               <InterpolatingParam id="759" interp="linr"  time="-9999999/1" value="0" leadInLength="0/1"  />
              </VectorParam>
              <VectorParam id="760"  name="scale">
               <InterpolatingParam id="761" interp="linr"  time="-9999999/1" value="1" leadInLength="0/1"  />
               <InterpolatingParam id="762" interp="linr"  time="-9999999/1" value="1" leadInLength="0/1"  />
               <InterpolatingParam id="763" interp="linr"  time="-9999999/1" value="1" leadInLength="0/1"  />
              </VectorParam>
              <VectorParam id="764"  name="anchor">
               <InterpolatingParam id="765" interp="linr"  time="0/1" value="0" leadInLength="0/1"  />
               <InterpolatingParam id="766" interp="linr"  time="0/1" value="0" leadInLength="0/1"  />
               <InterpolatingParam id="767" interp="linr"  time="0/1" value="0" leadInLength="0/1"  />
              </VectorParam>
             </Transformer>
             <Parameters>
              <VectorParam id="768"  name="sourceCrop">
               <InterpolatingParam id="769" interp="linr"  time="0/1" value="0" leadInLength="0/1"  />
               <InterpolatingParam id="770" interp="linr"  time="0/1" value="0" leadInLength="0/1"  />
               <InterpolatingParam id="771" interp="linr"  time="0/1" value="0" leadInLength="0/1"  />
               <InterpolatingParam id="772" interp="linr"  time="0/1" value="0" leadInLength="0/1"  />
              </VectorParam>
              <VectorParam id="773"  name="geometryCrop">
               <InterpolatingParam id="774" interp="linr"  time="-9999999/1" value="0" leadInLength="0/1"  />
               <InterpolatingParam id="775" interp="linr"  time="-9999999/1" value="0" leadInLength="0/1"  />
               <InterpolatingParam id="776" interp="linr"  time="-9999999/1" value="0" leadInLength="0/1"  />
               <InterpolatingParam id="777" interp="linr"  time="-9999999/1" value="0" leadInLength="0/1"  />
              </VectorParam>
              <InterpolatingParam id="778" interp="linr"  time="-9999999/1" value="1" leadInLength="0/1"  name="opacity"/>
              <InterpolatingParam id="779" interp="linr"  time="0/1" value="0" leadInLength="0/1"  name="cursorOpacity"/>
              <InterpolatingParam id="780" interp="linr"  time="0/1" value="0" leadInLength="0/1"  name="cursorScale"/>
             </Parameters>
             <Attributes>
              <Attribute id="781" value="" name="ident"/>
             </Attributes>
             <ExtraData>
              <Entry key="ZoomPanBin">
               <ZoomPanBin id="782"  >
                <ZoomPanKeyframes>
                 <ZoomPanKeyframe id="783" timeRangeEnd="-9999999/1" timeRangeDuration="0/1" interpolaterName=""  />
                </ZoomPanKeyframes>
               </ZoomPanBin>
              </Entry>
              <Entry key="CursorEffectBin">
               <CursorEffectBin id="784"  >
                <CursorEffectKeyframes>
                </CursorEffectKeyframes>
               </CursorEffectBin>
              </Entry>
             </ExtraData>
            </ScreenVMFile>
            <MetaData>
             <entry key="AutoAppliedSmartFocus" val="False"/>
             <entry key="WinSubProjectDisplayName" val=""/>
            </MetaData>
           </UnifiedMedia>
           <UnifiedMedia id="785"  >
            <AMFile id="786" start="1875" duration="49" scalar="1/1" mediaStart="3573/1" mediaDuration="49/1" trackNumber="1" src="4" channelNumber="0,1" >
             <Parameters>
              <InterpolatingParam id="787" interp="linr"  time="0/1" value="1" leadInLength="0/1"  name="volume"/>
              <Parameter id="788"  name="captions"/>
             </Parameters>
             <Attributes>
              <Attribute id="789" value="" name="ident"/>
              <Attribute id="790" value="44100" name="sampleRate"/>
              <Attribute id="791" value="16" name="bitDepth"/>
              <Attribute id="792" value="1" name="gain"/>
              <Attribute id="793" value="0" name="mixToMono"/>
             </Attributes>
            </AMFile>
            <ScreenVMFile id="794" start="1875" duration="49" scalar="1/1" mediaStart="3573/1" mediaDuration="49/1" trackNumber="0" src="4" >
             <Transformer>
              <VectorParam id="795"  name="translation">
               <InterpolatingParam id="796" interp="linr"  time="-9999999/1" value="0" leadInLength="0/1"  />
               <InterpolatingParam id="797" interp="linr"  time="-9999999/1" value="0" leadInLength="0/1"  />
               <InterpolatingParam id="798" interp="linr"  time="-9999999/1" value="0" leadInLength="0/1"  />
              </VectorParam>
              <VectorParam id="799"  name="rotation">
               <InterpolatingParam id="800" interp="linr"  time="-9999999/1" value="0" leadInLength="0/1"  />
               <InterpolatingParam id="801" interp="linr"  time="-9999999/1" value="0" leadInLength="0/1"  />
               <InterpolatingParam id="802" interp="linr"  time="-9999999/1" value="0" leadInLength="0/1"  />
              </VectorParam>
              <VectorParam id="803"  name="shear">
               <InterpolatingParam id="804" interp="linr"  time="-9999999/1" value="0" leadInLength="0/1"  />
               <InterpolatingParam id="805" interp="linr"  time="-9999999/1" value="0" leadInLength="0/1"  />
               <InterpolatingParam id="806" interp="linr"  time="-9999999/1" value="0" leadInLength="0/1"  />
              </VectorParam>
              <VectorParam id="807"  name="scale">
               <InterpolatingParam id="808" interp="linr"  time="-9999999/1" value="1" leadInLength="0/1"  />
               <InterpolatingParam id="809" interp="linr"  time="-9999999/1" value="1" leadInLength="0/1"  />
               <InterpolatingParam id="810" interp="linr"  time="-9999999/1" value="1" leadInLength="0/1"  />
              </VectorParam>
              <VectorParam id="811"  name="anchor">
               <InterpolatingParam id="812" interp="linr"  time="0/1" value="0" leadInLength="0/1"  />
               <InterpolatingParam id="813" interp="linr"  time="0/1" value="0" leadInLength="0/1"  />
               <InterpolatingParam id="814" interp="linr"  time="0/1" value="0" leadInLength="0/1"  />
              </VectorParam>
             </Transformer>
             <Parameters>
              <VectorParam id="815"  name="sourceCrop">
               <InterpolatingParam id="816" interp="linr"  time="0/1" value="0" leadInLength="0/1"  />
               <InterpolatingParam id="817" interp="linr"  time="0/1" value="0" leadInLength="0/1"  />
               <InterpolatingParam id="818" interp="linr"  time="0/1" value="0" leadInLength="0/1"  />
               <InterpolatingParam id="819" interp="linr"  time="0/1" value="0" leadInLength="0/1"  />
              </VectorParam>
              <VectorParam id="820"  name="geometryCrop">
               <InterpolatingParam id="821" interp="linr"  time="-9999999/1" value="0" leadInLength="0/1"  />
               <InterpolatingParam id="822" interp="linr"  time="-9999999/1" value="0" leadInLength="0/1"  />
               <InterpolatingParam id="823" interp="linr"  time="-9999999/1" value="0" leadInLength="0/1"  />
               <InterpolatingParam id="824" interp="linr"  time="-9999999/1" value="0" leadInLength="0/1"  />
              </VectorParam>
              <InterpolatingParam id="825" interp="linr"  time="-9999999/1" value="1" leadInLength="0/1"  name="opacity"/>
              <InterpolatingParam id="826" interp="linr"  time="0/1" value="0" leadInLength="0/1"  name="cursorOpacity"/>
              <InterpolatingParam id="827" interp="linr"  time="0/1" value="0" leadInLength="0/1"  name="cursorScale"/>
             </Parameters>
             <Attributes>
              <Attribute id="828" value="" name="ident"/>
             </Attributes>
             <ExtraData>
              <Entry key="ZoomPanBin">
               <ZoomPanBin id="829"  >
                <ZoomPanKeyframes>
                 <ZoomPanKeyframe id="830" timeRangeEnd="-9999999/1" timeRangeDuration="0/1" interpolaterName=""  />
                </ZoomPanKeyframes>
               </ZoomPanBin>
              </Entry>
              <Entry key="CursorEffectBin">
               <CursorEffectBin id="831"  >
                <CursorEffectKeyframes>
                </CursorEffectKeyframes>
               </CursorEffectBin>
              </Entry>
             </ExtraData>
            </ScreenVMFile>
            <MetaData>
             <entry key="AutoAppliedSmartFocus" val="False"/>
             <entry key="WinSubProjectDisplayName" val=""/>
            </MetaData>
           </UnifiedMedia>
           <UnifiedMedia id="832"  >
            <AMFile id="833" start="1924" duration="217" scalar="1/1" mediaStart="3633/1" mediaDuration="217/1" trackNumber="1" src="4" channelNumber="0,1" >
             <Parameters>
              <InterpolatingParam id="834" interp="linr"  time="0/1" value="1" leadInLength="0/1"  name="volume"/>
              <Parameter id="835"  name="captions"/>
             </Parameters>
             <Attributes>
              <Attribute id="836" value="" name="ident"/>
              <Attribute id="837" value="44100" name="sampleRate"/>
              <Attribute id="838" value="16" name="bitDepth"/>
              <Attribute id="839" value="1" name="gain"/>
              <Attribute id="840" value="0" name="mixToMono"/>
             </Attributes>
            </AMFile>
            <ScreenVMFile id="841" start="1924" duration="217" scalar="1/1" mediaStart="3633/1" mediaDuration="217/1" trackNumber="0" src="4" >
             <Transformer>
              <VectorParam id="842"  name="translation">
               <InterpolatingParam id="843" interp="linr"  time="-9999999/1" value="0" leadInLength="0/1"  />
               <InterpolatingParam id="844" interp="linr"  time="-9999999/1" value="0" leadInLength="0/1"  />
               <InterpolatingParam id="845" interp="linr"  time="-9999999/1" value="0" leadInLength="0/1"  />
              </VectorParam>
              <VectorParam id="846"  name="rotation">
               <InterpolatingParam id="847" interp="linr"  time="-9999999/1" value="0" leadInLength="0/1"  />
               <InterpolatingParam id="848" interp="linr"  time="-9999999/1" value="0" leadInLength="0/1"  />
               <InterpolatingParam id="849" interp="linr"  time="-9999999/1" value="0" leadInLength="0/1"  />
              </VectorParam>
              <VectorParam id="850"  name="shear">
               <InterpolatingParam id="851" interp="linr"  time="-9999999/1" value="0" leadInLength="0/1"  />
               <InterpolatingParam id="852" interp="linr"  time="-9999999/1" value="0" leadInLength="0/1"  />
               <InterpolatingParam id="853" interp="linr"  time="-9999999/1" value="0" leadInLength="0/1"  />
              </VectorParam>
              <VectorParam id="854"  name="scale">
               <InterpolatingParam id="855" interp="linr"  time="-9999999/1" value="1" leadInLength="0/1"  />
               <InterpolatingParam id="856" interp="linr"  time="-9999999/1" value="1" leadInLength="0/1"  />
               <InterpolatingParam id="857" interp="linr"  time="-9999999/1" value="1" leadInLength="0/1"  />
              </VectorParam>
              <VectorParam id="858"  name="anchor">
               <InterpolatingParam id="859" interp="linr"  time="0/1" value="0" leadInLength="0/1"  />
               <InterpolatingParam id="860" interp="linr"  time="0/1" value="0" leadInLength="0/1"  />
               <InterpolatingParam id="861" interp="linr"  time="0/1" value="0" leadInLength="0/1"  />
              </VectorParam>
             </Transformer>
             <Parameters>
              <VectorParam id="862"  name="sourceCrop">
               <InterpolatingParam id="863" interp="linr"  time="0/1" value="0" leadInLength="0/1"  />
               <InterpolatingParam id="864" interp="linr"  time="0/1" value="0" leadInLength="0/1"  />
               <InterpolatingParam id="865" interp="linr"  time="0/1" value="0" leadInLength="0/1"  />
               <InterpolatingParam id="866" interp="linr"  time="0/1" value="0" leadInLength="0/1"  />
              </VectorParam>
              <VectorParam id="867"  name="geometryCrop">
               <InterpolatingParam id="868" interp="linr"  time="-9999999/1" value="0" leadInLength="0/1"  />
               <InterpolatingParam id="869" interp="linr"  time="-9999999/1" value="0" leadInLength="0/1"  />
               <InterpolatingParam id="870" interp="linr"  time="-9999999/1" value="0" leadInLength="0/1"  />
               <InterpolatingParam id="871" interp="linr"  time="-9999999/1" value="0" leadInLength="0/1"  />
              </VectorParam>
              <InterpolatingParam id="872" interp="linr"  time="-9999999/1" value="1" leadInLength="0/1"  name="opacity"/>
              <InterpolatingParam id="873" interp="linr"  time="0/1" value="0" leadInLength="0/1"  name="cursorOpacity"/>
              <InterpolatingParam id="874" interp="linr"  time="0/1" value="0" leadInLength="0/1"  name="cursorScale"/>
             </Parameters>
             <Attributes>
              <Attribute id="875" value="" name="ident"/>
             </Attributes>
             <ExtraData>
              <Entry key="ZoomPanBin">
               <ZoomPanBin id="876"  >
                <ZoomPanKeyframes>
                 <ZoomPanKeyframe id="877" timeRangeEnd="-9999999/1" timeRangeDuration="0/1" interpolaterName=""  />
                </ZoomPanKeyframes>
               </ZoomPanBin>
              </Entry>
              <Entry key="CursorEffectBin">
               <CursorEffectBin id="878"  >
                <CursorEffectKeyframes>
                </CursorEffectKeyframes>
               </CursorEffectBin>
              </Entry>
             </ExtraData>
            </ScreenVMFile>
            <MetaData>
             <entry key="AutoAppliedSmartFocus" val="False"/>
             <entry key="WinSubProjectDisplayName" val=""/>
            </MetaData>
           </UnifiedMedia>
           <UnifiedMedia id="879"  >
            <AMFile id="880" start="2141" duration="68" scalar="1/1" mediaStart="3868/1" mediaDuration="68/1" trackNumber="1" src="4" channelNumber="0,1" >
             <Parameters>
              <InterpolatingParam id="881" interp="linr"  time="0/1" value="1" leadInLength="0/1"  name="volume"/>
              <Parameter id="882"  name="captions"/>
             </Parameters>
             <Attributes>
              <Attribute id="883" value="" name="ident"/>
              <Attribute id="884" value="44100" name="sampleRate"/>
              <Attribute id="885" value="16" name="bitDepth"/>
              <Attribute id="886" value="1" name="gain"/>
              <Attribute id="887" value="0" name="mixToMono"/>
             </Attributes>
            </AMFile>
            <ScreenVMFile id="888" start="2141" duration="68" scalar="1/1" mediaStart="3868/1" mediaDuration="68/1" trackNumber="0" src="4" >
             <Transformer>
              <VectorParam id="889"  name="translation">
               <InterpolatingParam id="890" interp="linr"  time="-9999999/1" value="0" leadInLength="0/1"  />
               <InterpolatingParam id="891" interp="linr"  time="-9999999/1" value="0" leadInLength="0/1"  />
               <InterpolatingParam id="892" interp="linr"  time="-9999999/1" value="0" leadInLength="0/1"  />
              </VectorParam>
              <VectorParam id="893"  name="rotation">
               <InterpolatingParam id="894" interp="linr"  time="-9999999/1" value="0" leadInLength="0/1"  />
               <InterpolatingParam id="895" interp="linr"  time="-9999999/1" value="0" leadInLength="0/1"  />
               <InterpolatingParam id="896" interp="linr"  time="-9999999/1" value="0" leadInLength="0/1"  />
              </VectorParam>
              <VectorParam id="897"  name="shear">
               <InterpolatingParam id="898" interp="linr"  time="-9999999/1" value="0" leadInLength="0/1"  />
               <InterpolatingParam id="899" interp="linr"  time="-9999999/1" value="0" leadInLength="0/1"  />
               <InterpolatingParam id="900" interp="linr"  time="-9999999/1" value="0" leadInLength="0/1"  />
              </VectorParam>
              <VectorParam id="901"  name="scale">
               <InterpolatingParam id="902" interp="linr"  time="-9999999/1" value="1" leadInLength="0/1"  />
               <InterpolatingParam id="903" interp="linr"  time="-9999999/1" value="1" leadInLength="0/1"  />
               <InterpolatingParam id="904" interp="linr"  time="-9999999/1" value="1" leadInLength="0/1"  />
              </VectorParam>
              <VectorParam id="905"  name="anchor">
               <InterpolatingParam id="906" interp="linr"  time="0/1" value="0" leadInLength="0/1"  />
               <InterpolatingParam id="907" interp="linr"  time="0/1" value="0" leadInLength="0/1"  />
               <InterpolatingParam id="908" interp="linr"  time="0/1" value="0" leadInLength="0/1"  />
              </VectorParam>
             </Transformer>
             <Parameters>
              <VectorParam id="909"  name="sourceCrop">
               <InterpolatingParam id="910" interp="linr"  time="0/1" value="0" leadInLength="0/1"  />
               <InterpolatingParam id="911" interp="linr"  time="0/1" value="0" leadInLength="0/1"  />
               <InterpolatingParam id="912" interp="linr"  time="0/1" value="0" leadInLength="0/1"  />
               <InterpolatingParam id="913" interp="linr"  time="0/1" value="0" leadInLength="0/1"  />
              </VectorParam>
              <VectorParam id="914"  name="geometryCrop">
               <InterpolatingParam id="915" interp="linr"  time="-9999999/1" value="0" leadInLength="0/1"  />
               <InterpolatingParam id="916" interp="linr"  time="-9999999/1" value="0" leadInLength="0/1"  />
               <InterpolatingParam id="917" interp="linr"  time="-9999999/1" value="0" leadInLength="0/1"  />
               <InterpolatingParam id="918" interp="linr"  time="-9999999/1" value="0" leadInLength="0/1"  />
              </VectorParam>
              <InterpolatingParam id="919" interp="linr"  time="-9999999/1" value="1" leadInLength="0/1"  name="opacity"/>
              <InterpolatingParam id="920" interp="linr"  time="0/1" value="0" leadInLength="0/1"  name="cursorOpacity"/>
              <InterpolatingParam id="921" interp="linr"  time="0/1" value="0" leadInLength="0/1"  name="cursorScale"/>
             </Parameters>
             <Attributes>
              <Attribute id="922" value="" name="ident"/>
             </Attributes>
             <ExtraData>
              <Entry key="ZoomPanBin">
               <ZoomPanBin id="923"  >
                <ZoomPanKeyframes>
                 <ZoomPanKeyframe id="924" timeRangeEnd="-9999999/1" timeRangeDuration="0/1" interpolaterName=""  />
                </ZoomPanKeyframes>
               </ZoomPanBin>
              </Entry>
              <Entry key="CursorEffectBin">
               <CursorEffectBin id="925"  >
                <CursorEffectKeyframes>
                </CursorEffectKeyframes>
               </CursorEffectBin>
              </Entry>
             </ExtraData>
            </ScreenVMFile>
            <MetaData>
             <entry key="AutoAppliedSmartFocus" val="False"/>
             <entry key="WinSubProjectDisplayName" val=""/>
            </MetaData>
           </UnifiedMedia>
           <UnifiedMedia id="926"  >
            <AMFile id="927" start="2209" duration="70" scalar="1/1" mediaStart="3943/1" mediaDuration="70/1" trackNumber="1" src="4" channelNumber="0,1" >
             <Parameters>
              <InterpolatingParam id="928" interp="linr"  time="0/1" value="1" leadInLength="0/1"  name="volume"/>
              <Parameter id="929"  name="captions"/>
             </Parameters>
             <Attributes>
              <Attribute id="930" value="" name="ident"/>
              <Attribute id="931" value="44100" name="sampleRate"/>
              <Attribute id="932" value="16" name="bitDepth"/>
              <Attribute id="933" value="1" name="gain"/>
              <Attribute id="934" value="0" name="mixToMono"/>
             </Attributes>
            </AMFile>
            <ScreenVMFile id="935" start="2209" duration="70" scalar="1/1" mediaStart="3943/1" mediaDuration="70/1" trackNumber="0" src="4" >
             <Transformer>
              <VectorParam id="936"  name="translation">
               <InterpolatingParam id="937" interp="linr"  time="-9999999/1" value="0" leadInLength="0/1"  />
               <InterpolatingParam id="938" interp="linr"  time="-9999999/1" value="0" leadInLength="0/1"  />
               <InterpolatingParam id="939" interp="linr"  time="-9999999/1" value="0" leadInLength="0/1"  />
              </VectorParam>
              <VectorParam id="940"  name="rotation">
               <InterpolatingParam id="941" interp="linr"  time="-9999999/1" value="0" leadInLength="0/1"  />
               <InterpolatingParam id="942" interp="linr"  time="-9999999/1" value="0" leadInLength="0/1"  />
               <InterpolatingParam id="943" interp="linr"  time="-9999999/1" value="0" leadInLength="0/1"  />
              </VectorParam>
              <VectorParam id="944"  name="shear">
               <InterpolatingParam id="945" interp="linr"  time="-9999999/1" value="0" leadInLength="0/1"  />
               <InterpolatingParam id="946" interp="linr"  time="-9999999/1" value="0" leadInLength="0/1"  />
               <InterpolatingParam id="947" interp="linr"  time="-9999999/1" value="0" leadInLength="0/1"  />
              </VectorParam>
              <VectorParam id="948"  name="scale">
               <InterpolatingParam id="949" interp="linr"  time="-9999999/1" value="1" leadInLength="0/1"  />
               <InterpolatingParam id="950" interp="linr"  time="-9999999/1" value="1" leadInLength="0/1"  />
               <InterpolatingParam id="951" interp="linr"  time="-9999999/1" value="1" leadInLength="0/1"  />
              </VectorParam>
              <VectorParam id="952"  name="anchor">
               <InterpolatingParam id="953" interp="linr"  time="0/1" value="0" leadInLength="0/1"  />
               <InterpolatingParam id="954" interp="linr"  time="0/1" value="0" leadInLength="0/1"  />
               <InterpolatingParam id="955" interp="linr"  time="0/1" value="0" leadInLength="0/1"  />
              </VectorParam>
             </Transformer>
             <Parameters>
              <VectorParam id="956"  name="sourceCrop">
               <InterpolatingParam id="957" interp="linr"  time="0/1" value="0" leadInLength="0/1"  />
               <InterpolatingParam id="958" interp="linr"  time="0/1" value="0" leadInLength="0/1"  />
               <InterpolatingParam id="959" interp="linr"  time="0/1" value="0" leadInLength="0/1"  />
               <InterpolatingParam id="960" interp="linr"  time="0/1" value="0" leadInLength="0/1"  />
              </VectorParam>
              <VectorParam id="961"  name="geometryCrop">
               <InterpolatingParam id="962" interp="linr"  time="-9999999/1" value="0" leadInLength="0/1"  />
               <InterpolatingParam id="963" interp="linr"  time="-9999999/1" value="0" leadInLength="0/1"  />
               <InterpolatingParam id="964" interp="linr"  time="-9999999/1" value="0" leadInLength="0/1"  />
               <InterpolatingParam id="965" interp="linr"  time="-9999999/1" value="0" leadInLength="0/1"  />
              </VectorParam>
              <InterpolatingParam id="966" interp="linr"  time="-9999999/1" value="1" leadInLength="0/1"  name="opacity"/>
              <InterpolatingParam id="967" interp="linr"  time="0/1" value="0" leadInLength="0/1"  name="cursorOpacity"/>
              <InterpolatingParam id="968" interp="linr"  time="0/1" value="0" leadInLength="0/1"  name="cursorScale"/>
             </Parameters>
             <Attributes>
              <Attribute id="969" value="" name="ident"/>
             </Attributes>
             <ExtraData>
              <Entry key="ZoomPanBin">
               <ZoomPanBin id="970"  >
                <ZoomPanKeyframes>
                 <ZoomPanKeyframe id="971" timeRangeEnd="-9999999/1" timeRangeDuration="0/1" interpolaterName=""  />
                </ZoomPanKeyframes>
               </ZoomPanBin>
              </Entry>
              <Entry key="CursorEffectBin">
               <CursorEffectBin id="972"  >
                <CursorEffectKeyframes>
                </CursorEffectKeyframes>
               </CursorEffectBin>
              </Entry>
             </ExtraData>
            </ScreenVMFile>
            <MetaData>
             <entry key="AutoAppliedSmartFocus" val="False"/>
             <entry key="WinSubProjectDisplayName" val=""/>
            </MetaData>
           </UnifiedMedia>
           <UnifiedMedia id="973"  >
            <AMFile id="974" start="2279" duration="250" scalar="1/1" mediaStart="4019/1" mediaDuration="250/1" trackNumber="1" src="4" channelNumber="0,1" >
             <Parameters>
              <InterpolatingParam id="975" interp="linr"  time="0/1" value="1" leadInLength="0/1"  name="volume"/>
              <Parameter id="976"  name="captions"/>
             </Parameters>
             <Attributes>
              <Attribute id="977" value="" name="ident"/>
              <Attribute id="978" value="44100" name="sampleRate"/>
              <Attribute id="979" value="16" name="bitDepth"/>
              <Attribute id="980" value="1" name="gain"/>
              <Attribute id="981" value="0" name="mixToMono"/>
             </Attributes>
            </AMFile>
            <ScreenVMFile id="982" start="2279" duration="250" scalar="1/1" mediaStart="4019/1" mediaDuration="250/1" trackNumber="0" src="4" >
             <Transformer>
              <VectorParam id="983"  name="translation">
               <InterpolatingParam id="984" interp="linr"  time="-9999999/1" value="0" leadInLength="0/1"  />
               <InterpolatingParam id="985" interp="linr"  time="-9999999/1" value="0" leadInLength="0/1"  />
               <InterpolatingParam id="986" interp="linr"  time="-9999999/1" value="0" leadInLength="0/1"  />
              </VectorParam>
              <VectorParam id="987"  name="rotation">
               <InterpolatingParam id="988" interp="linr"  time="-9999999/1" value="0" leadInLength="0/1"  />
               <InterpolatingParam id="989" interp="linr"  time="-9999999/1" value="0" leadInLength="0/1"  />
               <InterpolatingParam id="990" interp="linr"  time="-9999999/1" value="0" leadInLength="0/1"  />
              </VectorParam>
              <VectorParam id="991"  name="shear">
               <InterpolatingParam id="992" interp="linr"  time="-9999999/1" value="0" leadInLength="0/1"  />
               <InterpolatingParam id="993" interp="linr"  time="-9999999/1" value="0" leadInLength="0/1"  />
               <InterpolatingParam id="994" interp="linr"  time="-9999999/1" value="0" leadInLength="0/1"  />
              </VectorParam>
              <VectorParam id="995"  name="scale">
               <InterpolatingParam id="996" interp="linr"  time="-9999999/1" value="1" leadInLength="0/1"  />
               <InterpolatingParam id="997" interp="linr"  time="-9999999/1" value="1" leadInLength="0/1"  />
               <InterpolatingParam id="998" interp="linr"  time="-9999999/1" value="1" leadInLength="0/1"  />
              </VectorParam>
              <VectorParam id="999"  name="anchor">
               <InterpolatingParam id="1000" interp="linr"  time="0/1" value="0" leadInLength="0/1"  />
               <InterpolatingParam id="1001" interp="linr"  time="0/1" value="0" leadInLength="0/1"  />
               <InterpolatingParam id="1002" interp="linr"  time="0/1" value="0" leadInLength="0/1"  />
              </VectorParam>
             </Transformer>
             <Parameters>
              <VectorParam id="1003"  name="sourceCrop">
               <InterpolatingParam id="1004" interp="linr"  time="0/1" value="0" leadInLength="0/1"  />
               <InterpolatingParam id="1005" interp="linr"  time="0/1" value="0" leadInLength="0/1"  />
               <InterpolatingParam id="1006" interp="linr"  time="0/1" value="0" leadInLength="0/1"  />
               <InterpolatingParam id="1007" interp="linr"  time="0/1" value="0" leadInLength="0/1"  />
              </VectorParam>
              <VectorParam id="1008"  name="geometryCrop">
               <InterpolatingParam id="1009" interp="linr"  time="-9999999/1" value="0" leadInLength="0/1"  />
               <InterpolatingParam id="1010" interp="linr"  time="-9999999/1" value="0" leadInLength="0/1"  />
               <InterpolatingParam id="1011" interp="linr"  time="-9999999/1" value="0" leadInLength="0/1"  />
               <InterpolatingParam id="1012" interp="linr"  time="-9999999/1" value="0" leadInLength="0/1"  />
              </VectorParam>
              <InterpolatingParam id="1013" interp="linr"  time="-9999999/1" value="1" leadInLength="0/1"  name="opacity"/>
              <InterpolatingParam id="1014" interp="linr"  time="0/1" value="0" leadInLength="0/1"  name="cursorOpacity"/>
              <InterpolatingParam id="1015" interp="linr"  time="0/1" value="0" leadInLength="0/1"  name="cursorScale"/>
             </Parameters>
             <Attributes>
              <Attribute id="1016" value="" name="ident"/>
             </Attributes>
             <ExtraData>
              <Entry key="ZoomPanBin">
               <ZoomPanBin id="1017"  >
                <ZoomPanKeyframes>
                 <ZoomPanKeyframe id="1018" timeRangeEnd="-9999999/1" timeRangeDuration="0/1" interpolaterName=""  />
                </ZoomPanKeyframes>
               </ZoomPanBin>
              </Entry>
              <Entry key="CursorEffectBin">
               <CursorEffectBin id="1019"  >
                <CursorEffectKeyframes>
                </CursorEffectKeyframes>
               </CursorEffectBin>
              </Entry>
             </ExtraData>
            </ScreenVMFile>
            <MetaData>
             <entry key="AutoAppliedSmartFocus" val="False"/>
             <entry key="WinSubProjectDisplayName" val=""/>
            </MetaData>
           </UnifiedMedia>
           <UnifiedMedia id="1020"  >
            <AMFile id="1021" start="2529" duration="73" scalar="1/1" mediaStart="4283/1" mediaDuration="73/1" trackNumber="1" src="4" channelNumber="0,1" >
             <Parameters>
              <InterpolatingParam id="1022" interp="linr"  time="0/1" value="1" leadInLength="0/1"  name="volume"/>
              <Parameter id="1023"  name="captions"/>
             </Parameters>
             <Attributes>
              <Attribute id="1024" value="" name="ident"/>
              <Attribute id="1025" value="44100" name="sampleRate"/>
              <Attribute id="1026" value="16" name="bitDepth"/>
              <Attribute id="1027" value="1" name="gain"/>
              <Attribute id="1028" value="0" name="mixToMono"/>
             </Attributes>
            </AMFile>
            <ScreenVMFile id="1029" start="2529" duration="73" scalar="1/1" mediaStart="4283/1" mediaDuration="73/1" trackNumber="0" src="4" >
             <Transformer>
              <VectorParam id="1030"  name="translation">
               <InterpolatingParam id="1031" interp="linr"  time="-9999999/1" value="0" leadInLength="0/1"  />
               <InterpolatingParam id="1032" interp="linr"  time="-9999999/1" value="0" leadInLength="0/1"  />
               <InterpolatingParam id="1033" interp="linr"  time="-9999999/1" value="0" leadInLength="0/1"  />
              </VectorParam>
              <VectorParam id="1034"  name="rotation">
               <InterpolatingParam id="1035" interp="linr"  time="-9999999/1" value="0" leadInLength="0/1"  />
               <InterpolatingParam id="1036" interp="linr"  time="-9999999/1" value="0" leadInLength="0/1"  />
               <InterpolatingParam id="1037" interp="linr"  time="-9999999/1" value="0" leadInLength="0/1"  />
              </VectorParam>
              <VectorParam id="1038"  name="shear">
               <InterpolatingParam id="1039" interp="linr"  time="-9999999/1" value="0" leadInLength="0/1"  />
               <InterpolatingParam id="1040" interp="linr"  time="-9999999/1" value="0" leadInLength="0/1"  />
               <InterpolatingParam id="1041" interp="linr"  time="-9999999/1" value="0" leadInLength="0/1"  />
              </VectorParam>
              <VectorParam id="1042"  name="scale">
               <InterpolatingParam id="1043" interp="linr"  time="-9999999/1" value="1" leadInLength="0/1"  />
               <InterpolatingParam id="1044" interp="linr"  time="-9999999/1" value="1" leadInLength="0/1"  />
               <InterpolatingParam id="1045" interp="linr"  time="-9999999/1" value="1" leadInLength="0/1"  />
              </VectorParam>
              <VectorParam id="1046"  name="anchor">
               <InterpolatingParam id="1047" interp="linr"  time="0/1" value="0" leadInLength="0/1"  />
               <InterpolatingParam id="1048" interp="linr"  time="0/1" value="0" leadInLength="0/1"  />
               <InterpolatingParam id="1049" interp="linr"  time="0/1" value="0" leadInLength="0/1"  />
              </VectorParam>
             </Transformer>
             <Parameters>
              <VectorParam id="1050"  name="sourceCrop">
               <InterpolatingParam id="1051" interp="linr"  time="0/1" value="0" leadInLength="0/1"  />
               <InterpolatingParam id="1052" interp="linr"  time="0/1" value="0" leadInLength="0/1"  />
               <InterpolatingParam id="1053" interp="linr"  time="0/1" value="0" leadInLength="0/1"  />
               <InterpolatingParam id="1054" interp="linr"  time="0/1" value="0" leadInLength="0/1"  />
              </VectorParam>
              <VectorParam id="1055"  name="geometryCrop">
               <InterpolatingParam id="1056" interp="linr"  time="-9999999/1" value="0" leadInLength="0/1"  />
               <InterpolatingParam id="1057" interp="linr"  time="-9999999/1" value="0" leadInLength="0/1"  />
               <InterpolatingParam id="1058" interp="linr"  time="-9999999/1" value="0" leadInLength="0/1"  />
               <InterpolatingParam id="1059" interp="linr"  time="-9999999/1" value="0" leadInLength="0/1"  />
              </VectorParam>
              <InterpolatingParam id="1060" interp="linr"  time="-9999999/1" value="1" leadInLength="0/1"  name="opacity"/>
              <InterpolatingParam id="1061" interp="linr"  time="0/1" value="0" leadInLength="0/1"  name="cursorOpacity"/>
              <InterpolatingParam id="1062" interp="linr"  time="0/1" value="0" leadInLength="0/1"  name="cursorScale"/>
             </Parameters>
             <Attributes>
              <Attribute id="1063" value="" name="ident"/>
             </Attributes>
             <ExtraData>
              <Entry key="ZoomPanBin">
               <ZoomPanBin id="1064"  >
                <ZoomPanKeyframes>
                 <ZoomPanKeyframe id="1065" timeRangeEnd="-9999999/1" timeRangeDuration="0/1" interpolaterName=""  />
                </ZoomPanKeyframes>
               </ZoomPanBin>
              </Entry>
              <Entry key="CursorEffectBin">
               <CursorEffectBin id="1066"  >
                <CursorEffectKeyframes>
                </CursorEffectKeyframes>
               </CursorEffectBin>
              </Entry>
             </ExtraData>
            </ScreenVMFile>
            <MetaData>
             <entry key="AutoAppliedSmartFocus" val="False"/>
             <entry key="WinSubProjectDisplayName" val=""/>
            </MetaData>
           </UnifiedMedia>
           <UnifiedMedia id="1067"  >
            <AMFile id="1068" start="2602" duration="126" scalar="1/1" mediaStart="4587/1" mediaDuration="126/1" trackNumber="1" src="4" channelNumber="0,1" >
             <Parameters>
              <InterpolatingParam id="1069" interp="linr"  time="0/1" value="1" leadInLength="0/1"  name="volume"/>
              <Parameter id="1070"  name="captions"/>
             </Parameters>
             <Attributes>
              <Attribute id="1071" value="" name="ident"/>
              <Attribute id="1072" value="44100" name="sampleRate"/>
              <Attribute id="1073" value="16" name="bitDepth"/>
              <Attribute id="1074" value="1" name="gain"/>
              <Attribute id="1075" value="0" name="mixToMono"/>
             </Attributes>
            </AMFile>
            <ScreenVMFile id="1076" start="2602" duration="126" scalar="1/1" mediaStart="4587/1" mediaDuration="126/1" trackNumber="0" src="4" >
             <Transformer>
              <VectorParam id="1077"  name="translation">
               <InterpolatingParam id="1078" interp="linr"  time="-9999999/1" value="0" leadInLength="0/1"  />
               <InterpolatingParam id="1079" interp="linr"  time="-9999999/1" value="0" leadInLength="0/1"  />
               <InterpolatingParam id="1080" interp="linr"  time="-9999999/1" value="0" leadInLength="0/1"  />
              </VectorParam>
              <VectorParam id="1081"  name="rotation">
               <InterpolatingParam id="1082" interp="linr"  time="-9999999/1" value="0" leadInLength="0/1"  />
               <InterpolatingParam id="1083" interp="linr"  time="-9999999/1" value="0" leadInLength="0/1"  />
               <InterpolatingParam id="1084" interp="linr"  time="-9999999/1" value="0" leadInLength="0/1"  />
              </VectorParam>
              <VectorParam id="1085"  name="shear">
               <InterpolatingParam id="1086" interp="linr"  time="-9999999/1" value="0" leadInLength="0/1"  />
               <InterpolatingParam id="1087" interp="linr"  time="-9999999/1" value="0" leadInLength="0/1"  />
               <InterpolatingParam id="1088" interp="linr"  time="-9999999/1" value="0" leadInLength="0/1"  />
              </VectorParam>
              <VectorParam id="1089"  name="scale">
               <InterpolatingParam id="1090" interp="linr"  time="-9999999/1" value="1" leadInLength="0/1"  />
               <InterpolatingParam id="1091" interp="linr"  time="-9999999/1" value="1" leadInLength="0/1"  />
               <InterpolatingParam id="1092" interp="linr"  time="-9999999/1" value="1" leadInLength="0/1"  />
              </VectorParam>
              <VectorParam id="1093"  name="anchor">
               <InterpolatingParam id="1094" interp="linr"  time="0/1" value="0" leadInLength="0/1"  />
               <InterpolatingParam id="1095" interp="linr"  time="0/1" value="0" leadInLength="0/1"  />
               <InterpolatingParam id="1096" interp="linr"  time="0/1" value="0" leadInLength="0/1"  />
              </VectorParam>
             </Transformer>
             <Parameters>
              <VectorParam id="1097"  name="sourceCrop">
               <InterpolatingParam id="1098" interp="linr"  time="0/1" value="0" leadInLength="0/1"  />
               <InterpolatingParam id="1099" interp="linr"  time="0/1" value="0" leadInLength="0/1"  />
               <InterpolatingParam id="1100" interp="linr"  time="0/1" value="0" leadInLength="0/1"  />
               <InterpolatingParam id="1101" interp="linr"  time="0/1" value="0" leadInLength="0/1"  />
              </VectorParam>
              <VectorParam id="1102"  name="geometryCrop">
               <InterpolatingParam id="1103" interp="linr"  time="-9999999/1" value="0" leadInLength="0/1"  />
               <InterpolatingParam id="1104" interp="linr"  time="-9999999/1" value="0" leadInLength="0/1"  />
               <InterpolatingParam id="1105" interp="linr"  time="-9999999/1" value="0" leadInLength="0/1"  />
               <InterpolatingParam id="1106" interp="linr"  time="-9999999/1" value="0" leadInLength="0/1"  />
              </VectorParam>
              <InterpolatingParam id="1107" interp="linr"  time="-9999999/1" value="1" leadInLength="0/1"  name="opacity"/>
              <InterpolatingParam id="1108" interp="linr"  time="0/1" value="0" leadInLength="0/1"  name="cursorOpacity"/>
              <InterpolatingParam id="1109" interp="linr"  time="0/1" value="0" leadInLength="0/1"  name="cursorScale"/>
             </Parameters>
             <Attributes>
              <Attribute id="1110" value="" name="ident"/>
             </Attributes>
             <ExtraData>
              <Entry key="ZoomPanBin">
               <ZoomPanBin id="1111"  >
                <ZoomPanKeyframes>
                 <ZoomPanKeyframe id="1112" timeRangeEnd="-9999999/1" timeRangeDuration="0/1" interpolaterName=""  />
                </ZoomPanKeyframes>
               </ZoomPanBin>
              </Entry>
              <Entry key="CursorEffectBin">
               <CursorEffectBin id="1113"  >
                <CursorEffectKeyframes>
                </CursorEffectKeyframes>
               </CursorEffectBin>
              </Entry>
             </ExtraData>
            </ScreenVMFile>
            <MetaData>
             <entry key="AutoAppliedSmartFocus" val="False"/>
             <entry key="WinSubProjectDisplayName" val=""/>
            </MetaData>
           </UnifiedMedia>
           <UnifiedMedia id="1114"  >
            <AMFile id="1115" start="2728" duration="164" scalar="1/1" mediaStart="4724/1" mediaDuration="164/1" trackNumber="1" src="4" channelNumber="0,1" >
             <Parameters>
              <InterpolatingParam id="1116" interp="linr"  time="0/1" value="1" leadInLength="0/1"  name="volume"/>
              <Parameter id="1117"  name="captions"/>
             </Parameters>
             <Attributes>
              <Attribute id="1118" value="" name="ident"/>
              <Attribute id="1119" value="44100" name="sampleRate"/>
              <Attribute id="1120" value="16" name="bitDepth"/>
              <Attribute id="1121" value="1" name="gain"/>
              <Attribute id="1122" value="0" name="mixToMono"/>
             </Attributes>
            </AMFile>
            <ScreenVMFile id="1123" start="2728" duration="164" scalar="1/1" mediaStart="4724/1" mediaDuration="164/1" trackNumber="0" src="4" >
             <Transformer>
              <VectorParam id="1124"  name="translation">
               <InterpolatingParam id="1125" interp="linr"  time="-9999999/1" value="0" leadInLength="0/1"  />
               <InterpolatingParam id="1126" interp="linr"  time="-9999999/1" value="0" leadInLength="0/1"  />
               <InterpolatingParam id="1127" interp="linr"  time="-9999999/1" value="0" leadInLength="0/1"  />
              </VectorParam>
              <VectorParam id="1128"  name="rotation">
               <InterpolatingParam id="1129" interp="linr"  time="-9999999/1" value="0" leadInLength="0/1"  />
               <InterpolatingParam id="1130" interp="linr"  time="-9999999/1" value="0" leadInLength="0/1"  />
               <InterpolatingParam id="1131" interp="linr"  time="-9999999/1" value="0" leadInLength="0/1"  />
              </VectorParam>
              <VectorParam id="1132"  name="shear">
               <InterpolatingParam id="1133" interp="linr"  time="-9999999/1" value="0" leadInLength="0/1"  />
               <InterpolatingParam id="1134" interp="linr"  time="-9999999/1" value="0" leadInLength="0/1"  />
               <InterpolatingParam id="1135" interp="linr"  time="-9999999/1" value="0" leadInLength="0/1"  />
              </VectorParam>
              <VectorParam id="1136"  name="scale">
               <InterpolatingParam id="1137" interp="linr"  time="-9999999/1" value="1" leadInLength="0/1"  />
               <InterpolatingParam id="1138" interp="linr"  time="-9999999/1" value="1" leadInLength="0/1"  />
               <InterpolatingParam id="1139" interp="linr"  time="-9999999/1" value="1" leadInLength="0/1"  />
              </VectorParam>
              <VectorParam id="1140"  name="anchor">
               <InterpolatingParam id="1141" interp="linr"  time="0/1" value="0" leadInLength="0/1"  />
               <InterpolatingParam id="1142" interp="linr"  time="0/1" value="0" leadInLength="0/1"  />
               <InterpolatingParam id="1143" interp="linr"  time="0/1" value="0" leadInLength="0/1"  />
              </VectorParam>
             </Transformer>
             <Parameters>
              <VectorParam id="1144"  name="sourceCrop">
               <InterpolatingParam id="1145" interp="linr"  time="0/1" value="0" leadInLength="0/1"  />
               <InterpolatingParam id="1146" interp="linr"  time="0/1" value="0" leadInLength="0/1"  />
               <InterpolatingParam id="1147" interp="linr"  time="0/1" value="0" leadInLength="0/1"  />
               <InterpolatingParam id="1148" interp="linr"  time="0/1" value="0" leadInLength="0/1"  />
              </VectorParam>
              <VectorParam id="1149"  name="geometryCrop">
               <InterpolatingParam id="1150" interp="linr"  time="-9999999/1" value="0" leadInLength="0/1"  />
               <InterpolatingParam id="1151" interp="linr"  time="-9999999/1" value="0" leadInLength="0/1"  />
               <InterpolatingParam id="1152" interp="linr"  time="-9999999/1" value="0" leadInLength="0/1"  />
               <InterpolatingParam id="1153" interp="linr"  time="-9999999/1" value="0" leadInLength="0/1"  />
              </VectorParam>
              <InterpolatingParam id="1154" interp="linr"  time="-9999999/1" value="1" leadInLength="0/1"  name="opacity"/>
              <InterpolatingParam id="1155" interp="linr"  time="0/1" value="0" leadInLength="0/1"  name="cursorOpacity"/>
              <InterpolatingParam id="1156" interp="linr"  time="0/1" value="0" leadInLength="0/1"  name="cursorScale"/>
             </Parameters>
             <Attributes>
              <Attribute id="1157" value="" name="ident"/>
             </Attributes>
             <ExtraData>
              <Entry key="ZoomPanBin">
               <ZoomPanBin id="1158"  >
                <ZoomPanKeyframes>
                 <ZoomPanKeyframe id="1159" timeRangeEnd="-9999999/1" timeRangeDuration="0/1" interpolaterName=""  />
                </ZoomPanKeyframes>
               </ZoomPanBin>
              </Entry>
              <Entry key="CursorEffectBin">
               <CursorEffectBin id="1160"  >
                <CursorEffectKeyframes>
                </CursorEffectKeyframes>
               </CursorEffectBin>
              </Entry>
             </ExtraData>
            </ScreenVMFile>
            <MetaData>
             <entry key="AutoAppliedSmartFocus" val="False"/>
             <entry key="WinSubProjectDisplayName" val=""/>
            </MetaData>
           </UnifiedMedia>
           <UnifiedMedia id="1161"  >
            <AMFile id="1162" start="2892" duration="140" scalar="1/1" mediaStart="4905/1" mediaDuration="140/1" trackNumber="1" src="4" channelNumber="0,1" >
             <Parameters>
              <InterpolatingParam id="1163" interp="linr"  time="0/1" value="1" leadInLength="0/1"  name="volume"/>
              <Parameter id="1164"  name="captions"/>
             </Parameters>
             <Attributes>
              <Attribute id="1165" value="" name="ident"/>
              <Attribute id="1166" value="44100" name="sampleRate"/>
              <Attribute id="1167" value="16" name="bitDepth"/>
              <Attribute id="1168" value="1" name="gain"/>
              <Attribute id="1169" value="0" name="mixToMono"/>
             </Attributes>
            </AMFile>
            <ScreenVMFile id="1170" start="2892" duration="140" scalar="1/1" mediaStart="4905/1" mediaDuration="140/1" trackNumber="0" src="4" >
             <Transformer>
              <VectorParam id="1171"  name="translation">
               <InterpolatingParam id="1172" interp="linr"  time="-9999999/1" value="0" leadInLength="0/1"  />
               <InterpolatingParam id="1173" interp="linr"  time="-9999999/1" value="0" leadInLength="0/1"  />
               <InterpolatingParam id="1174" interp="linr"  time="-9999999/1" value="0" leadInLength="0/1"  />
              </VectorParam>
              <VectorParam id="1175"  name="rotation">
               <InterpolatingParam id="1176" interp="linr"  time="-9999999/1" value="0" leadInLength="0/1"  />
               <InterpolatingParam id="1177" interp="linr"  time="-9999999/1" value="0" leadInLength="0/1"  />
               <InterpolatingParam id="1178" interp="linr"  time="-9999999/1" value="0" leadInLength="0/1"  />
              </VectorParam>
              <VectorParam id="1179"  name="shear">
               <InterpolatingParam id="1180" interp="linr"  time="-9999999/1" value="0" leadInLength="0/1"  />
               <InterpolatingParam id="1181" interp="linr"  time="-9999999/1" value="0" leadInLength="0/1"  />
               <InterpolatingParam id="1182" interp="linr"  time="-9999999/1" value="0" leadInLength="0/1"  />
              </VectorParam>
              <VectorParam id="1183"  name="scale">
               <InterpolatingParam id="1184" interp="linr"  time="-9999999/1" value="1" leadInLength="0/1"  />
               <InterpolatingParam id="1185" interp="linr"  time="-9999999/1" value="1" leadInLength="0/1"  />
               <InterpolatingParam id="1186" interp="linr"  time="-9999999/1" value="1" leadInLength="0/1"  />
              </VectorParam>
              <VectorParam id="1187"  name="anchor">
               <InterpolatingParam id="1188" interp="linr"  time="0/1" value="0" leadInLength="0/1"  />
               <InterpolatingParam id="1189" interp="linr"  time="0/1" value="0" leadInLength="0/1"  />
               <InterpolatingParam id="1190" interp="linr"  time="0/1" value="0" leadInLength="0/1"  />
              </VectorParam>
             </Transformer>
             <Parameters>
              <VectorParam id="1191"  name="sourceCrop">
               <InterpolatingParam id="1192" interp="linr"  time="0/1" value="0" leadInLength="0/1"  />
               <InterpolatingParam id="1193" interp="linr"  time="0/1" value="0" leadInLength="0/1"  />
               <InterpolatingParam id="1194" interp="linr"  time="0/1" value="0" leadInLength="0/1"  />
               <InterpolatingParam id="1195" interp="linr"  time="0/1" value="0" leadInLength="0/1"  />
              </VectorParam>
              <VectorParam id="1196"  name="geometryCrop">
               <InterpolatingParam id="1197" interp="linr"  time="-9999999/1" value="0" leadInLength="0/1"  />
               <InterpolatingParam id="1198" interp="linr"  time="-9999999/1" value="0" leadInLength="0/1"  />
               <InterpolatingParam id="1199" interp="linr"  time="-9999999/1" value="0" leadInLength="0/1"  />
               <InterpolatingParam id="1200" interp="linr"  time="-9999999/1" value="0" leadInLength="0/1"  />
              </VectorParam>
              <InterpolatingParam id="1201" interp="linr"  time="-9999999/1" value="1" leadInLength="0/1"  name="opacity"/>
              <InterpolatingParam id="1202" interp="linr"  time="0/1" value="0" leadInLength="0/1"  name="cursorOpacity"/>
              <InterpolatingParam id="1203" interp="linr"  time="0/1" value="0" leadInLength="0/1"  name="cursorScale"/>
             </Parameters>
             <Attributes>
              <Attribute id="1204" value="" name="ident"/>
             </Attributes>
             <ExtraData>
              <Entry key="ZoomPanBin">
               <ZoomPanBin id="1205"  >
                <ZoomPanKeyframes>
                 <ZoomPanKeyframe id="1206" timeRangeEnd="-9999999/1" timeRangeDuration="0/1" interpolaterName=""  />
                </ZoomPanKeyframes>
               </ZoomPanBin>
              </Entry>
              <Entry key="CursorEffectBin">
               <CursorEffectBin id="1207"  >
                <CursorEffectKeyframes>
                </CursorEffectKeyframes>
               </CursorEffectBin>
              </Entry>
             </ExtraData>
            </ScreenVMFile>
            <MetaData>
             <entry key="AutoAppliedSmartFocus" val="False"/>
             <entry key="WinSubProjectDisplayName" val=""/>
            </MetaData>
           </UnifiedMedia>
           <UnifiedMedia id="1208"  >
            <AMFile id="1209" start="3032" duration="97" scalar="1/1" mediaStart="6354/1" mediaDuration="97/1" trackNumber="1" src="4" channelNumber="0,1" >
             <Parameters>
              <InterpolatingParam id="1210" interp="linr"  time="0/1" value="1" leadInLength="0/1"  name="volume"/>
              <Parameter id="1211"  name="captions"/>
             </Parameters>
             <Attributes>
              <Attribute id="1212" value="" name="ident"/>
              <Attribute id="1213" value="44100" name="sampleRate"/>
              <Attribute id="1214" value="16" name="bitDepth"/>
              <Attribute id="1215" value="1" name="gain"/>
              <Attribute id="1216" value="0" name="mixToMono"/>
             </Attributes>
            </AMFile>
            <ScreenVMFile id="1217" start="3032" duration="97" scalar="1/1" mediaStart="6354/1" mediaDuration="97/1" trackNumber="0" src="4" >
             <Transformer>
              <VectorParam id="1218"  name="translation">
               <InterpolatingParam id="1219" interp="linr"  time="-9999999/1" value="0" leadInLength="0/1"  />
               <InterpolatingParam id="1220" interp="linr"  time="-9999999/1" value="0" leadInLength="0/1"  />
               <InterpolatingParam id="1221" interp="linr"  time="-9999999/1" value="0" leadInLength="0/1"  />
              </VectorParam>
              <VectorParam id="1222"  name="rotation">
               <InterpolatingParam id="1223" interp="linr"  time="-9999999/1" value="0" leadInLength="0/1"  />
               <InterpolatingParam id="1224" interp="linr"  time="-9999999/1" value="0" leadInLength="0/1"  />
               <InterpolatingParam id="1225" interp="linr"  time="-9999999/1" value="0" leadInLength="0/1"  />
              </VectorParam>
              <VectorParam id="1226"  name="shear">
               <InterpolatingParam id="1227" interp="linr"  time="-9999999/1" value="0" leadInLength="0/1"  />
               <InterpolatingParam id="1228" interp="linr"  time="-9999999/1" value="0" leadInLength="0/1"  />
               <InterpolatingParam id="1229" interp="linr"  time="-9999999/1" value="0" leadInLength="0/1"  />
              </VectorParam>
              <VectorParam id="1230"  name="scale">
               <InterpolatingParam id="1231" interp="linr"  time="-9999999/1" value="1" leadInLength="0/1"  />
               <InterpolatingParam id="1232" interp="linr"  time="-9999999/1" value="1" leadInLength="0/1"  />
               <InterpolatingParam id="1233" interp="linr"  time="-9999999/1" value="1" leadInLength="0/1"  />
              </VectorParam>
              <VectorParam id="1234"  name="anchor">
               <InterpolatingParam id="1235" interp="linr"  time="0/1" value="0" leadInLength="0/1"  />
               <InterpolatingParam id="1236" interp="linr"  time="0/1" value="0" leadInLength="0/1"  />
               <InterpolatingParam id="1237" interp="linr"  time="0/1" value="0" leadInLength="0/1"  />
              </VectorParam>
             </Transformer>
             <Parameters>
              <VectorParam id="1238"  name="sourceCrop">
               <InterpolatingParam id="1239" interp="linr"  time="0/1" value="0" leadInLength="0/1"  />
               <InterpolatingParam id="1240" interp="linr"  time="0/1" value="0" leadInLength="0/1"  />
               <InterpolatingParam id="1241" interp="linr"  time="0/1" value="0" leadInLength="0/1"  />
               <InterpolatingParam id="1242" interp="linr"  time="0/1" value="0" leadInLength="0/1"  />
              </VectorParam>
              <VectorParam id="1243"  name="geometryCrop">
               <InterpolatingParam id="1244" interp="linr"  time="-9999999/1" value="0" leadInLength="0/1"  />
               <InterpolatingParam id="1245" interp="linr"  time="-9999999/1" value="0" leadInLength="0/1"  />
               <InterpolatingParam id="1246" interp="linr"  time="-9999999/1" value="0" leadInLength="0/1"  />
               <InterpolatingParam id="1247" interp="linr"  time="-9999999/1" value="0" leadInLength="0/1"  />
              </VectorParam>
              <InterpolatingParam id="1248" interp="linr"  time="-9999999/1" value="1" leadInLength="0/1"  name="opacity"/>
              <InterpolatingParam id="1249" interp="linr"  time="0/1" value="0" leadInLength="0/1"  name="cursorOpacity"/>
              <InterpolatingParam id="1250" interp="linr"  time="0/1" value="0" leadInLength="0/1"  name="cursorScale"/>
             </Parameters>
             <Attributes>
              <Attribute id="1251" value="" name="ident"/>
             </Attributes>
             <ExtraData>
              <Entry key="ZoomPanBin">
               <ZoomPanBin id="1252"  >
                <ZoomPanKeyframes>
                 <ZoomPanKeyframe id="1253" timeRangeEnd="-9999999/1" timeRangeDuration="0/1" interpolaterName=""  />
                </ZoomPanKeyframes>
               </ZoomPanBin>
              </Entry>
              <Entry key="CursorEffectBin">
               <CursorEffectBin id="1254"  >
                <CursorEffectKeyframes>
                </CursorEffectKeyframes>
               </CursorEffectBin>
              </Entry>
             </ExtraData>
            </ScreenVMFile>
            <MetaData>
             <entry key="AutoAppliedSmartFocus" val="False"/>
             <entry key="WinSubProjectDisplayName" val=""/>
            </MetaData>
           </UnifiedMedia>
           <UnifiedMedia id="1255"  >
            <AMFile id="1256" start="3129" duration="123" scalar="1/1" mediaStart="6461/1" mediaDuration="123/1" trackNumber="1" src="4" channelNumber="0,1" >
             <Parameters>
              <InterpolatingParam id="1257" interp="linr"  time="0/1" value="1" leadInLength="0/1"  name="volume"/>
              <Parameter id="1258"  name="captions"/>
             </Parameters>
             <Attributes>
              <Attribute id="1259" value="" name="ident"/>
              <Attribute id="1260" value="44100" name="sampleRate"/>
              <Attribute id="1261" value="16" name="bitDepth"/>
              <Attribute id="1262" value="1" name="gain"/>
              <Attribute id="1263" value="0" name="mixToMono"/>
             </Attributes>
            </AMFile>
            <ScreenVMFile id="1264" start="3129" duration="123" scalar="1/1" mediaStart="6461/1" mediaDuration="123/1" trackNumber="0" src="4" >
             <Transformer>
              <VectorParam id="1265"  name="translation">
               <InterpolatingParam id="1266" interp="linr"  time="-9999999/1" value="0" leadInLength="0/1"  />
               <InterpolatingParam id="1267" interp="linr"  time="-9999999/1" value="0" leadInLength="0/1"  />
               <InterpolatingParam id="1268" interp="linr"  time="-9999999/1" value="0" leadInLength="0/1"  />
              </VectorParam>
              <VectorParam id="1269"  name="rotation">
               <InterpolatingParam id="1270" interp="linr"  time="-9999999/1" value="0" leadInLength="0/1"  />
               <InterpolatingParam id="1271" interp="linr"  time="-9999999/1" value="0" leadInLength="0/1"  />
               <InterpolatingParam id="1272" interp="linr"  time="-9999999/1" value="0" leadInLength="0/1"  />
              </VectorParam>
              <VectorParam id="1273"  name="shear">
               <InterpolatingParam id="1274" interp="linr"  time="-9999999/1" value="0" leadInLength="0/1"  />
               <InterpolatingParam id="1275" interp="linr"  time="-9999999/1" value="0" leadInLength="0/1"  />
               <InterpolatingParam id="1276" interp="linr"  time="-9999999/1" value="0" leadInLength="0/1"  />
              </VectorParam>
              <VectorParam id="1277"  name="scale">
               <InterpolatingParam id="1278" interp="linr"  time="-9999999/1" value="1" leadInLength="0/1"  />
               <InterpolatingParam id="1279" interp="linr"  time="-9999999/1" value="1" leadInLength="0/1"  />
               <InterpolatingParam id="1280" interp="linr"  time="-9999999/1" value="1" leadInLength="0/1"  />
              </VectorParam>
              <VectorParam id="1281"  name="anchor">
               <InterpolatingParam id="1282" interp="linr"  time="0/1" value="0" leadInLength="0/1"  />
               <InterpolatingParam id="1283" interp="linr"  time="0/1" value="0" leadInLength="0/1"  />
               <InterpolatingParam id="1284" interp="linr"  time="0/1" value="0" leadInLength="0/1"  />
              </VectorParam>
             </Transformer>
             <Parameters>
              <VectorParam id="1285"  name="sourceCrop">
               <InterpolatingParam id="1286" interp="linr"  time="0/1" value="0" leadInLength="0/1"  />
               <InterpolatingParam id="1287" interp="linr"  time="0/1" value="0" leadInLength="0/1"  />
               <InterpolatingParam id="1288" interp="linr"  time="0/1" value="0" leadInLength="0/1"  />
               <InterpolatingParam id="1289" interp="linr"  time="0/1" value="0" leadInLength="0/1"  />
              </VectorParam>
              <VectorParam id="1290"  name="geometryCrop">
               <InterpolatingParam id="1291" interp="linr"  time="-9999999/1" value="0" leadInLength="0/1"  />
               <InterpolatingParam id="1292" interp="linr"  time="-9999999/1" value="0" leadInLength="0/1"  />
               <InterpolatingParam id="1293" interp="linr"  time="-9999999/1" value="0" leadInLength="0/1"  />
               <InterpolatingParam id="1294" interp="linr"  time="-9999999/1" value="0" leadInLength="0/1"  />
              </VectorParam>
              <InterpolatingParam id="1295" interp="linr"  time="-9999999/1" value="1" leadInLength="0/1"  name="opacity"/>
              <InterpolatingParam id="1296" interp="linr"  time="0/1" value="0" leadInLength="0/1"  name="cursorOpacity"/>
              <InterpolatingParam id="1297" interp="linr"  time="0/1" value="0" leadInLength="0/1"  name="cursorScale"/>
             </Parameters>
             <Attributes>
              <Attribute id="1298" value="" name="ident"/>
             </Attributes>
             <ExtraData>
              <Entry key="ZoomPanBin">
               <ZoomPanBin id="1299"  >
                <ZoomPanKeyframes>
                 <ZoomPanKeyframe id="1300" timeRangeEnd="-9999999/1" timeRangeDuration="0/1" interpolaterName=""  />
                </ZoomPanKeyframes>
               </ZoomPanBin>
              </Entry>
              <Entry key="CursorEffectBin">
               <CursorEffectBin id="1301"  >
                <CursorEffectKeyframes>
                </CursorEffectKeyframes>
               </CursorEffectBin>
              </Entry>
             </ExtraData>
            </ScreenVMFile>
            <MetaData>
             <entry key="AutoAppliedSmartFocus" val="False"/>
             <entry key="WinSubProjectDisplayName" val=""/>
            </MetaData>
           </UnifiedMedia>
           <UnifiedMedia id="1302"  >
            <AMFile id="1303" start="3252" duration="318" scalar="1/1" mediaStart="6601/1" mediaDuration="318/1" trackNumber="1" src="4" channelNumber="0,1" >
             <Parameters>
              <InterpolatingParam id="1304" interp="linr"  time="0/1" value="1" leadInLength="0/1"  name="volume"/>
              <Parameter id="1305"  name="captions"/>
             </Parameters>
             <Attributes>
              <Attribute id="1306" value="" name="ident"/>
              <Attribute id="1307" value="44100" name="sampleRate"/>
              <Attribute id="1308" value="16" name="bitDepth"/>
              <Attribute id="1309" value="1" name="gain"/>
              <Attribute id="1310" value="0" name="mixToMono"/>
             </Attributes>
            </AMFile>
            <ScreenVMFile id="1311" start="3252" duration="318" scalar="1/1" mediaStart="6601/1" mediaDuration="318/1" trackNumber="0" src="4" >
             <Transformer>
              <VectorParam id="1312"  name="translation">
               <InterpolatingParam id="1313" interp="linr"  time="-9999999/1" value="0" leadInLength="0/1"  />
               <InterpolatingParam id="1314" interp="linr"  time="-9999999/1" value="0" leadInLength="0/1"  />
               <InterpolatingParam id="1315" interp="linr"  time="-9999999/1" value="0" leadInLength="0/1"  />
              </VectorParam>
              <VectorParam id="1316"  name="rotation">
               <InterpolatingParam id="1317" interp="linr"  time="-9999999/1" value="0" leadInLength="0/1"  />
               <InterpolatingParam id="1318" interp="linr"  time="-9999999/1" value="0" leadInLength="0/1"  />
               <InterpolatingParam id="1319" interp="linr"  time="-9999999/1" value="0" leadInLength="0/1"  />
              </VectorParam>
              <VectorParam id="1320"  name="shear">
               <InterpolatingParam id="1321" interp="linr"  time="-9999999/1" value="0" leadInLength="0/1"  />
               <InterpolatingParam id="1322" interp="linr"  time="-9999999/1" value="0" leadInLength="0/1"  />
               <InterpolatingParam id="1323" interp="linr"  time="-9999999/1" value="0" leadInLength="0/1"  />
              </VectorParam>
              <VectorParam id="1324"  name="scale">
               <InterpolatingParam id="1325" interp="linr"  time="-9999999/1" value="1" leadInLength="0/1"  />
               <InterpolatingParam id="1326" interp="linr"  time="-9999999/1" value="1" leadInLength="0/1"  />
               <InterpolatingParam id="1327" interp="linr"  time="-9999999/1" value="1" leadInLength="0/1"  />
              </VectorParam>
              <VectorParam id="1328"  name="anchor">
               <InterpolatingParam id="1329" interp="linr"  time="0/1" value="0" leadInLength="0/1"  />
               <InterpolatingParam id="1330" interp="linr"  time="0/1" value="0" leadInLength="0/1"  />
               <InterpolatingParam id="1331" interp="linr"  time="0/1" value="0" leadInLength="0/1"  />
              </VectorParam>
             </Transformer>
             <Parameters>
              <VectorParam id="1332"  name="sourceCrop">
               <InterpolatingParam id="1333" interp="linr"  time="0/1" value="0" leadInLength="0/1"  />
               <InterpolatingParam id="1334" interp="linr"  time="0/1" value="0" leadInLength="0/1"  />
               <InterpolatingParam id="1335" interp="linr"  time="0/1" value="0" leadInLength="0/1"  />
               <InterpolatingParam id="1336" interp="linr"  time="0/1" value="0" leadInLength="0/1"  />
              </VectorParam>
              <VectorParam id="1337"  name="geometryCrop">
               <InterpolatingParam id="1338" interp="linr"  time="-9999999/1" value="0" leadInLength="0/1"  />
               <InterpolatingParam id="1339" interp="linr"  time="-9999999/1" value="0" leadInLength="0/1"  />
               <InterpolatingParam id="1340" interp="linr"  time="-9999999/1" value="0" leadInLength="0/1"  />
               <InterpolatingParam id="1341" interp="linr"  time="-9999999/1" value="0" leadInLength="0/1"  />
              </VectorParam>
              <InterpolatingParam id="1342" interp="linr"  time="-9999999/1" value="1" leadInLength="0/1"  name="opacity"/>
              <InterpolatingParam id="1343" interp="linr"  time="0/1" value="0" leadInLength="0/1"  name="cursorOpacity"/>
              <InterpolatingParam id="1344" interp="linr"  time="0/1" value="0" leadInLength="0/1"  name="cursorScale"/>
             </Parameters>
             <Attributes>
              <Attribute id="1345" value="" name="ident"/>
             </Attributes>
             <ExtraData>
              <Entry key="ZoomPanBin">
               <ZoomPanBin id="1346"  >
                <ZoomPanKeyframes>
                 <ZoomPanKeyframe id="1347" timeRangeEnd="-9999999/1" timeRangeDuration="0/1" interpolaterName=""  />
                </ZoomPanKeyframes>
               </ZoomPanBin>
              </Entry>
              <Entry key="CursorEffectBin">
               <CursorEffectBin id="1348"  >
                <CursorEffectKeyframes>
                </CursorEffectKeyframes>
               </CursorEffectBin>
              </Entry>
             </ExtraData>
            </ScreenVMFile>
            <MetaData>
             <entry key="AutoAppliedSmartFocus" val="False"/>
             <entry key="WinSubProjectDisplayName" val=""/>
            </MetaData>
           </UnifiedMedia>
           <UnifiedMedia id="1349"  >
            <AMFile id="1350" start="3570" duration="60" scalar="1/1" mediaStart="6944/1" mediaDuration="60/1" trackNumber="1" src="4" channelNumber="0,1" >
             <Parameters>
              <InterpolatingParam id="1351" interp="linr"  time="0/1" value="1" leadInLength="0/1"  name="volume"/>
              <Parameter id="1352"  name="captions"/>
             </Parameters>
             <Attributes>
              <Attribute id="1353" value="" name="ident"/>
              <Attribute id="1354" value="44100" name="sampleRate"/>
              <Attribute id="1355" value="16" name="bitDepth"/>
              <Attribute id="1356" value="1" name="gain"/>
              <Attribute id="1357" value="0" name="mixToMono"/>
             </Attributes>
            </AMFile>
            <ScreenVMFile id="1358" start="3570" duration="60" scalar="1/1" mediaStart="6944/1" mediaDuration="60/1" trackNumber="0" src="4" >
             <Transformer>
              <VectorParam id="1359"  name="translation">
               <InterpolatingParam id="1360" interp="linr"  time="-9999999/1" value="0" leadInLength="0/1"  />
               <InterpolatingParam id="1361" interp="linr"  time="-9999999/1" value="0" leadInLength="0/1"  />
               <InterpolatingParam id="1362" interp="linr"  time="-9999999/1" value="0" leadInLength="0/1"  />
              </VectorParam>
              <VectorParam id="1363"  name="rotation">
               <InterpolatingParam id="1364" interp="linr"  time="-9999999/1" value="0" leadInLength="0/1"  />
               <InterpolatingParam id="1365" interp="linr"  time="-9999999/1" value="0" leadInLength="0/1"  />
               <InterpolatingParam id="1366" interp="linr"  time="-9999999/1" value="0" leadInLength="0/1"  />
              </VectorParam>
              <VectorParam id="1367"  name="shear">
               <InterpolatingParam id="1368" interp="linr"  time="-9999999/1" value="0" leadInLength="0/1"  />
               <InterpolatingParam id="1369" interp="linr"  time="-9999999/1" value="0" leadInLength="0/1"  />
               <InterpolatingParam id="1370" interp="linr"  time="-9999999/1" value="0" leadInLength="0/1"  />
              </VectorParam>
              <VectorParam id="1371"  name="scale">
               <InterpolatingParam id="1372" interp="linr"  time="-9999999/1" value="1" leadInLength="0/1"  />
               <InterpolatingParam id="1373" interp="linr"  time="-9999999/1" value="1" leadInLength="0/1"  />
               <InterpolatingParam id="1374" interp="linr"  time="-9999999/1" value="1" leadInLength="0/1"  />
              </VectorParam>
              <VectorParam id="1375"  name="anchor">
               <InterpolatingParam id="1376" interp="linr"  time="0/1" value="0" leadInLength="0/1"  />
               <InterpolatingParam id="1377" interp="linr"  time="0/1" value="0" leadInLength="0/1"  />
               <InterpolatingParam id="1378" interp="linr"  time="0/1" value="0" leadInLength="0/1"  />
              </VectorParam>
             </Transformer>
             <Parameters>
              <VectorParam id="1379"  name="sourceCrop">
               <InterpolatingParam id="1380" interp="linr"  time="0/1" value="0" leadInLength="0/1"  />
               <InterpolatingParam id="1381" interp="linr"  time="0/1" value="0" leadInLength="0/1"  />
               <InterpolatingParam id="1382" interp="linr"  time="0/1" value="0" leadInLength="0/1"  />
               <InterpolatingParam id="1383" interp="linr"  time="0/1" value="0" leadInLength="0/1"  />
              </VectorParam>
              <VectorParam id="1384"  name="geometryCrop">
               <InterpolatingParam id="1385" interp="linr"  time="-9999999/1" value="0" leadInLength="0/1"  />
               <InterpolatingParam id="1386" interp="linr"  time="-9999999/1" value="0" leadInLength="0/1"  />
               <InterpolatingParam id="1387" interp="linr"  time="-9999999/1" value="0" leadInLength="0/1"  />
               <InterpolatingParam id="1388" interp="linr"  time="-9999999/1" value="0" leadInLength="0/1"  />
              </VectorParam>
              <InterpolatingParam id="1389" interp="linr"  time="-9999999/1" value="1" leadInLength="0/1"  name="opacity"/>
              <InterpolatingParam id="1390" interp="linr"  time="0/1" value="0" leadInLength="0/1"  name="cursorOpacity"/>
              <InterpolatingParam id="1391" interp="linr"  time="0/1" value="0" leadInLength="0/1"  name="cursorScale"/>
             </Parameters>
             <Attributes>
              <Attribute id="1392" value="" name="ident"/>
             </Attributes>
             <ExtraData>
              <Entry key="ZoomPanBin">
               <ZoomPanBin id="1393"  >
                <ZoomPanKeyframes>
                 <ZoomPanKeyframe id="1394" timeRangeEnd="-9999999/1" timeRangeDuration="0/1" interpolaterName=""  />
                </ZoomPanKeyframes>
               </ZoomPanBin>
              </Entry>
              <Entry key="CursorEffectBin">
               <CursorEffectBin id="1395"  >
                <CursorEffectKeyframes>
                </CursorEffectKeyframes>
               </CursorEffectBin>
              </Entry>
             </ExtraData>
            </ScreenVMFile>
            <MetaData>
             <entry key="AutoAppliedSmartFocus" val="False"/>
             <entry key="WinSubProjectDisplayName" val=""/>
            </MetaData>
           </UnifiedMedia>
           <UnifiedMedia id="1396"  >
            <AMFile id="1397" start="3630" duration="265" scalar="1/1" mediaStart="7037/1" mediaDuration="265/1" trackNumber="1" src="4" channelNumber="0,1" >
             <Parameters>
              <InterpolatingParam id="1398" interp="linr"  time="0/1" value="1" leadInLength="0/1"  name="volume"/>
              <Parameter id="1399"  name="captions"/>
             </Parameters>
             <Attributes>
              <Attribute id="1400" value="" name="ident"/>
              <Attribute id="1401" value="44100" name="sampleRate"/>
              <Attribute id="1402" value="16" name="bitDepth"/>
              <Attribute id="1403" value="1" name="gain"/>
              <Attribute id="1404" value="0" name="mixToMono"/>
             </Attributes>
            </AMFile>
            <ScreenVMFile id="1405" start="3630" duration="265" scalar="1/1" mediaStart="7037/1" mediaDuration="265/1" trackNumber="0" src="4" >
             <Transformer>
              <VectorParam id="1406"  name="translation">
               <InterpolatingParam id="1407" interp="linr"  time="-9999999/1" value="0" leadInLength="0/1"  />
               <InterpolatingParam id="1408" interp="linr"  time="-9999999/1" value="0" leadInLength="0/1"  />
               <InterpolatingParam id="1409" interp="linr"  time="-9999999/1" value="0" leadInLength="0/1"  />
              </VectorParam>
              <VectorParam id="1410"  name="rotation">
               <InterpolatingParam id="1411" interp="linr"  time="-9999999/1" value="0" leadInLength="0/1"  />
               <InterpolatingParam id="1412" interp="linr"  time="-9999999/1" value="0" leadInLength="0/1"  />
               <InterpolatingParam id="1413" interp="linr"  time="-9999999/1" value="0" leadInLength="0/1"  />
              </VectorParam>
              <VectorParam id="1414"  name="shear">
               <InterpolatingParam id="1415" interp="linr"  time="-9999999/1" value="0" leadInLength="0/1"  />
               <InterpolatingParam id="1416" interp="linr"  time="-9999999/1" value="0" leadInLength="0/1"  />
               <InterpolatingParam id="1417" interp="linr"  time="-9999999/1" value="0" leadInLength="0/1"  />
              </VectorParam>
              <VectorParam id="1418"  name="scale">
               <InterpolatingParam id="1419" interp="linr"  time="-9999999/1" value="1" leadInLength="0/1"  />
               <InterpolatingParam id="1420" interp="linr"  time="-9999999/1" value="1" leadInLength="0/1"  />
               <InterpolatingParam id="1421" interp="linr"  time="-9999999/1" value="1" leadInLength="0/1"  />
              </VectorParam>
              <VectorParam id="1422"  name="anchor">
               <InterpolatingParam id="1423" interp="linr"  time="0/1" value="0" leadInLength="0/1"  />
               <InterpolatingParam id="1424" interp="linr"  time="0/1" value="0" leadInLength="0/1"  />
               <InterpolatingParam id="1425" interp="linr"  time="0/1" value="0" leadInLength="0/1"  />
              </VectorParam>
             </Transformer>
             <Parameters>
              <VectorParam id="1426"  name="sourceCrop">
               <InterpolatingParam id="1427" interp="linr"  time="0/1" value="0" leadInLength="0/1"  />
               <InterpolatingParam id="1428" interp="linr"  time="0/1" value="0" leadInLength="0/1"  />
               <InterpolatingParam id="1429" interp="linr"  time="0/1" value="0" leadInLength="0/1"  />
               <InterpolatingParam id="1430" interp="linr"  time="0/1" value="0" leadInLength="0/1"  />
              </VectorParam>
              <VectorParam id="1431"  name="geometryCrop">
               <InterpolatingParam id="1432" interp="linr"  time="-9999999/1" value="0" leadInLength="0/1"  />
               <InterpolatingParam id="1433" interp="linr"  time="-9999999/1" value="0" leadInLength="0/1"  />
               <InterpolatingParam id="1434" interp="linr"  time="-9999999/1" value="0" leadInLength="0/1"  />
               <InterpolatingParam id="1435" interp="linr"  time="-9999999/1" value="0" leadInLength="0/1"  />
              </VectorParam>
              <InterpolatingParam id="1436" interp="linr"  time="-9999999/1" value="1" leadInLength="0/1"  name="opacity"/>
              <InterpolatingParam id="1437" interp="linr"  time="0/1" value="0" leadInLength="0/1"  name="cursorOpacity"/>
              <InterpolatingParam id="1438" interp="linr"  time="0/1" value="0" leadInLength="0/1"  name="cursorScale"/>
             </Parameters>
             <Attributes>
              <Attribute id="1439" value="" name="ident"/>
             </Attributes>
             <ExtraData>
              <Entry key="ZoomPanBin">
               <ZoomPanBin id="1440"  >
                <ZoomPanKeyframes>
                 <ZoomPanKeyframe id="1441" timeRangeEnd="-9999999/1" timeRangeDuration="0/1" interpolaterName=""  />
                </ZoomPanKeyframes>
               </ZoomPanBin>
              </Entry>
              <Entry key="CursorEffectBin">
               <CursorEffectBin id="1442"  >
                <CursorEffectKeyframes>
                </CursorEffectKeyframes>
               </CursorEffectBin>
              </Entry>
             </ExtraData>
            </ScreenVMFile>
            <MetaData>
             <entry key="AutoAppliedSmartFocus" val="False"/>
             <entry key="WinSubProjectDisplayName" val=""/>
            </MetaData>
           </UnifiedMedia>
           <UnifiedMedia id="1443"  >
            <AMFile id="1444" start="3895" duration="252" scalar="1/1" mediaStart="7317/1" mediaDuration="252/1" trackNumber="1" src="4" channelNumber="0,1" >
             <Parameters>
              <InterpolatingParam id="1445" interp="linr"  time="0/1" value="1" leadInLength="0/1"  name="volume"/>
              <Parameter id="1446"  name="captions"/>
             </Parameters>
             <Attributes>
              <Attribute id="1447" value="" name="ident"/>
              <Attribute id="1448" value="44100" name="sampleRate"/>
              <Attribute id="1449" value="16" name="bitDepth"/>
              <Attribute id="1450" value="1" name="gain"/>
              <Attribute id="1451" value="0" name="mixToMono"/>
             </Attributes>
            </AMFile>
            <ScreenVMFile id="1452" start="3895" duration="252" scalar="1/1" mediaStart="7317/1" mediaDuration="252/1" trackNumber="0" src="4" >
             <Transformer>
              <VectorParam id="1453"  name="translation">
               <InterpolatingParam id="1454" interp="linr"  time="-9999999/1" value="0" leadInLength="0/1"  />
               <InterpolatingParam id="1455" interp="linr"  time="-9999999/1" value="0" leadInLength="0/1"  />
               <InterpolatingParam id="1456" interp="linr"  time="-9999999/1" value="0" leadInLength="0/1"  />
              </VectorParam>
              <VectorParam id="1457"  name="rotation">
               <InterpolatingParam id="1458" interp="linr"  time="-9999999/1" value="0" leadInLength="0/1"  />
               <InterpolatingParam id="1459" interp="linr"  time="-9999999/1" value="0" leadInLength="0/1"  />
               <InterpolatingParam id="1460" interp="linr"  time="-9999999/1" value="0" leadInLength="0/1"  />
              </VectorParam>
              <VectorParam id="1461"  name="shear">
               <InterpolatingParam id="1462" interp="linr"  time="-9999999/1" value="0" leadInLength="0/1"  />
               <InterpolatingParam id="1463" interp="linr"  time="-9999999/1" value="0" leadInLength="0/1"  />
               <InterpolatingParam id="1464" interp="linr"  time="-9999999/1" value="0" leadInLength="0/1"  />
              </VectorParam>
              <VectorParam id="1465"  name="scale">
               <InterpolatingParam id="1466" interp="linr"  time="-9999999/1" value="1" leadInLength="0/1"  />
               <InterpolatingParam id="1467" interp="linr"  time="-9999999/1" value="1" leadInLength="0/1"  />
               <InterpolatingParam id="1468" interp="linr"  time="-9999999/1" value="1" leadInLength="0/1"  />
              </VectorParam>
              <VectorParam id="1469"  name="anchor">
               <InterpolatingParam id="1470" interp="linr"  time="0/1" value="0" leadInLength="0/1"  />
               <InterpolatingParam id="1471" interp="linr"  time="0/1" value="0" leadInLength="0/1"  />
               <InterpolatingParam id="1472" interp="linr"  time="0/1" value="0" leadInLength="0/1"  />
              </VectorParam>
             </Transformer>
             <Parameters>
              <VectorParam id="1473"  name="sourceCrop">
               <InterpolatingParam id="1474" interp="linr"  time="0/1" value="0" leadInLength="0/1"  />
               <InterpolatingParam id="1475" interp="linr"  time="0/1" value="0" leadInLength="0/1"  />
               <InterpolatingParam id="1476" interp="linr"  time="0/1" value="0" leadInLength="0/1"  />
               <InterpolatingParam id="1477" interp="linr"  time="0/1" value="0" leadInLength="0/1"  />
              </VectorParam>
              <VectorParam id="1478"  name="geometryCrop">
               <InterpolatingParam id="1479" interp="linr"  time="-9999999/1" value="0" leadInLength="0/1"  />
               <InterpolatingParam id="1480" interp="linr"  time="-9999999/1" value="0" leadInLength="0/1"  />
               <InterpolatingParam id="1481" interp="linr"  time="-9999999/1" value="0" leadInLength="0/1"  />
               <InterpolatingParam id="1482" interp="linr"  time="-9999999/1" value="0" leadInLength="0/1"  />
              </VectorParam>
              <InterpolatingParam id="1483" interp="linr"  time="-9999999/1" value="1" leadInLength="0/1"  name="opacity"/>
              <InterpolatingParam id="1484" interp="linr"  time="0/1" value="0" leadInLength="0/1"  name="cursorOpacity"/>
              <InterpolatingParam id="1485" interp="linr"  time="0/1" value="0" leadInLength="0/1"  name="cursorScale"/>
             </Parameters>
             <Attributes>
              <Attribute id="1486" value="" name="ident"/>
             </Attributes>
             <ExtraData>
              <Entry key="ZoomPanBin">
               <ZoomPanBin id="1487"  >
                <ZoomPanKeyframes>
                 <ZoomPanKeyframe id="1488" timeRangeEnd="-9999999/1" timeRangeDuration="0/1" interpolaterName=""  />
                </ZoomPanKeyframes>
               </ZoomPanBin>
              </Entry>
              <Entry key="CursorEffectBin">
               <CursorEffectBin id="1489"  >
                <CursorEffectKeyframes>
                </CursorEffectKeyframes>
               </CursorEffectBin>
              </Entry>
             </ExtraData>
            </ScreenVMFile>
            <MetaData>
             <entry key="AutoAppliedSmartFocus" val="False"/>
             <entry key="WinSubProjectDisplayName" val=""/>
            </MetaData>
           </UnifiedMedia>
           <UnifiedMedia id="1490"  >
            <AMFile id="1491" start="4147" duration="199" scalar="1/1" mediaStart="7847/1" mediaDuration="199/1" trackNumber="1" src="4" channelNumber="0,1" >
             <Parameters>
              <InterpolatingParam id="1492" interp="linr"  time="0/1" value="1" leadInLength="0/1"  name="volume"/>
              <Parameter id="1493"  name="captions"/>
             </Parameters>
             <Attributes>
              <Attribute id="1494" value="" name="ident"/>
              <Attribute id="1495" value="44100" name="sampleRate"/>
              <Attribute id="1496" value="16" name="bitDepth"/>
              <Attribute id="1497" value="1" name="gain"/>
              <Attribute id="1498" value="0" name="mixToMono"/>
             </Attributes>
            </AMFile>
            <ScreenVMFile id="1499" start="4147" duration="199" scalar="1/1" mediaStart="7847/1" mediaDuration="199/1" trackNumber="0" src="4" >
             <Transformer>
              <VectorParam id="1500"  name="translation">
               <InterpolatingParam id="1501" interp="linr"  time="-9999999/1" value="0" leadInLength="0/1"  />
               <InterpolatingParam id="1502" interp="linr"  time="-9999999/1" value="0" leadInLength="0/1"  />
               <InterpolatingParam id="1503" interp="linr"  time="-9999999/1" value="0" leadInLength="0/1"  />
              </VectorParam>
              <VectorParam id="1504"  name="rotation">
               <InterpolatingParam id="1505" interp="linr"  time="-9999999/1" value="0" leadInLength="0/1"  />
               <InterpolatingParam id="1506" interp="linr"  time="-9999999/1" value="0" leadInLength="0/1"  />
               <InterpolatingParam id="1507" interp="linr"  time="-9999999/1" value="0" leadInLength="0/1"  />
              </VectorParam>
              <VectorParam id="1508"  name="shear">
               <InterpolatingParam id="1509" interp="linr"  time="-9999999/1" value="0" leadInLength="0/1"  />
               <InterpolatingParam id="1510" interp="linr"  time="-9999999/1" value="0" leadInLength="0/1"  />
               <InterpolatingParam id="1511" interp="linr"  time="-9999999/1" value="0" leadInLength="0/1"  />
              </VectorParam>
              <VectorParam id="1512"  name="scale">
               <InterpolatingParam id="1513" interp="linr"  time="-9999999/1" value="1" leadInLength="0/1"  />
               <InterpolatingParam id="1514" interp="linr"  time="-9999999/1" value="1" leadInLength="0/1"  />
               <InterpolatingParam id="1515" interp="linr"  time="-9999999/1" value="1" leadInLength="0/1"  />
              </VectorParam>
              <VectorParam id="1516"  name="anchor">
               <InterpolatingParam id="1517" interp="linr"  time="0/1" value="0" leadInLength="0/1"  />
               <InterpolatingParam id="1518" interp="linr"  time="0/1" value="0" leadInLength="0/1"  />
               <InterpolatingParam id="1519" interp="linr"  time="0/1" value="0" leadInLength="0/1"  />
              </VectorParam>
             </Transformer>
             <Parameters>
              <VectorParam id="1520"  name="sourceCrop">
               <InterpolatingParam id="1521" interp="linr"  time="0/1" value="0" leadInLength="0/1"  />
               <InterpolatingParam id="1522" interp="linr"  time="0/1" value="0" leadInLength="0/1"  />
               <InterpolatingParam id="1523" interp="linr"  time="0/1" value="0" leadInLength="0/1"  />
               <InterpolatingParam id="1524" interp="linr"  time="0/1" value="0" leadInLength="0/1"  />
              </VectorParam>
              <VectorParam id="1525"  name="geometryCrop">
               <InterpolatingParam id="1526" interp="linr"  time="-9999999/1" value="0" leadInLength="0/1"  />
               <InterpolatingParam id="1527" interp="linr"  time="-9999999/1" value="0" leadInLength="0/1"  />
               <InterpolatingParam id="1528" interp="linr"  time="-9999999/1" value="0" leadInLength="0/1"  />
               <InterpolatingParam id="1529" interp="linr"  time="-9999999/1" value="0" leadInLength="0/1"  />
              </VectorParam>
              <InterpolatingParam id="1530" interp="linr"  time="-9999999/1" value="1" leadInLength="0/1"  name="opacity"/>
              <InterpolatingParam id="1531" interp="linr"  time="0/1" value="0" leadInLength="0/1"  name="cursorOpacity"/>
              <InterpolatingParam id="1532" interp="linr"  time="0/1" value="0" leadInLength="0/1"  name="cursorScale"/>
             </Parameters>
             <Attributes>
              <Attribute id="1533" value="" name="ident"/>
             </Attributes>
             <ExtraData>
              <Entry key="ZoomPanBin">
               <ZoomPanBin id="1534"  >
                <ZoomPanKeyframes>
                 <ZoomPanKeyframe id="1535" timeRangeEnd="-9999999/1" timeRangeDuration="0/1" interpolaterName=""  />
                </ZoomPanKeyframes>
               </ZoomPanBin>
              </Entry>
              <Entry key="CursorEffectBin">
               <CursorEffectBin id="1536"  >
                <CursorEffectKeyframes>
                </CursorEffectKeyframes>
               </CursorEffectBin>
              </Entry>
             </ExtraData>
            </ScreenVMFile>
            <MetaData>
             <entry key="AutoAppliedSmartFocus" val="False"/>
             <entry key="WinSubProjectDisplayName" val=""/>
            </MetaData>
           </UnifiedMedia>
           <UnifiedMedia id="1537"  >
            <AMFile id="1538" start="4346" duration="370" scalar="1/1" mediaStart="8421/1" mediaDuration="370/1" trackNumber="1" src="4" channelNumber="0,1" >
             <Parameters>
              <InterpolatingParam id="1539" interp="linr"  time="0/1" value="1" leadInLength="0/1"  name="volume"/>
              <Parameter id="1540"  name="captions"/>
             </Parameters>
             <Attributes>
              <Attribute id="1541" value="" name="ident"/>
              <Attribute id="1542" value="44100" name="sampleRate"/>
              <Attribute id="1543" value="16" name="bitDepth"/>
              <Attribute id="1544" value="1" name="gain"/>
              <Attribute id="1545" value="0" name="mixToMono"/>
             </Attributes>
            </AMFile>
            <ScreenVMFile id="1546" start="4346" duration="370" scalar="1/1" mediaStart="8421/1" mediaDuration="370/1" trackNumber="0" src="4" >
             <Transformer>
              <VectorParam id="1547"  name="translation">
               <InterpolatingParam id="1548" interp="linr"  time="-9999999/1" value="0" leadInLength="0/1"  />
               <InterpolatingParam id="1549" interp="linr"  time="-9999999/1" value="0" leadInLength="0/1"  />
               <InterpolatingParam id="1550" interp="linr"  time="-9999999/1" value="0" leadInLength="0/1"  />
              </VectorParam>
              <VectorParam id="1551"  name="rotation">
               <InterpolatingParam id="1552" interp="linr"  time="-9999999/1" value="0" leadInLength="0/1"  />
               <InterpolatingParam id="1553" interp="linr"  time="-9999999/1" value="0" leadInLength="0/1"  />
               <InterpolatingParam id="1554" interp="linr"  time="-9999999/1" value="0" leadInLength="0/1"  />
              </VectorParam>
              <VectorParam id="1555"  name="shear">
               <InterpolatingParam id="1556" interp="linr"  time="-9999999/1" value="0" leadInLength="0/1"  />
               <InterpolatingParam id="1557" interp="linr"  time="-9999999/1" value="0" leadInLength="0/1"  />
               <InterpolatingParam id="1558" interp="linr"  time="-9999999/1" value="0" leadInLength="0/1"  />
              </VectorParam>
              <VectorParam id="1559"  name="scale">
               <InterpolatingParam id="1560" interp="linr"  time="-9999999/1" value="1" leadInLength="0/1"  />
               <InterpolatingParam id="1561" interp="linr"  time="-9999999/1" value="1" leadInLength="0/1"  />
               <InterpolatingParam id="1562" interp="linr"  time="-9999999/1" value="1" leadInLength="0/1"  />
              </VectorParam>
              <VectorParam id="1563"  name="anchor">
               <InterpolatingParam id="1564" interp="linr"  time="0/1" value="0" leadInLength="0/1"  />
               <InterpolatingParam id="1565" interp="linr"  time="0/1" value="0" leadInLength="0/1"  />
               <InterpolatingParam id="1566" interp="linr"  time="0/1" value="0" leadInLength="0/1"  />
              </VectorParam>
             </Transformer>
             <Parameters>
              <VectorParam id="1567"  name="sourceCrop">
               <InterpolatingParam id="1568" interp="linr"  time="0/1" value="0" leadInLength="0/1"  />
               <InterpolatingParam id="1569" interp="linr"  time="0/1" value="0" leadInLength="0/1"  />
               <InterpolatingParam id="1570" interp="linr"  time="0/1" value="0" leadInLength="0/1"  />
               <InterpolatingParam id="1571" interp="linr"  time="0/1" value="0" leadInLength="0/1"  />
              </VectorParam>
              <VectorParam id="1572"  name="geometryCrop">
               <InterpolatingParam id="1573" interp="linr"  time="-9999999/1" value="0" leadInLength="0/1"  />
               <InterpolatingParam id="1574" interp="linr"  time="-9999999/1" value="0" leadInLength="0/1"  />
               <InterpolatingParam id="1575" interp="linr"  time="-9999999/1" value="0" leadInLength="0/1"  />
               <InterpolatingParam id="1576" interp="linr"  time="-9999999/1" value="0" leadInLength="0/1"  />
              </VectorParam>
              <InterpolatingParam id="1577" interp="linr"  time="-9999999/1" value="1" leadInLength="0/1"  name="opacity"/>
              <InterpolatingParam id="1578" interp="linr"  time="0/1" value="0" leadInLength="0/1"  name="cursorOpacity"/>
              <InterpolatingParam id="1579" interp="linr"  time="0/1" value="0" leadInLength="0/1"  name="cursorScale"/>
             </Parameters>
             <Attributes>
              <Attribute id="1580" value="" name="ident"/>
             </Attributes>
             <ExtraData>
              <Entry key="ZoomPanBin">
               <ZoomPanBin id="1581"  >
                <ZoomPanKeyframes>
                 <ZoomPanKeyframe id="1582" timeRangeEnd="-9999999/1" timeRangeDuration="0/1" interpolaterName=""  />
                </ZoomPanKeyframes>
               </ZoomPanBin>
              </Entry>
              <Entry key="CursorEffectBin">
               <CursorEffectBin id="1583"  >
                <CursorEffectKeyframes>
                </CursorEffectKeyframes>
               </CursorEffectBin>
              </Entry>
             </ExtraData>
            </ScreenVMFile>
            <MetaData>
             <entry key="AutoAppliedSmartFocus" val="False"/>
             <entry key="WinSubProjectDisplayName" val=""/>
            </MetaData>
           </UnifiedMedia>
           <UnifiedMedia id="1584"  >
            <AMFile id="1585" start="4716" duration="173" scalar="1/1" mediaStart="8872/1" mediaDuration="173/1" trackNumber="1" src="4" channelNumber="0,1" >
             <Parameters>
              <InterpolatingParam id="1586" interp="linr"  time="0/1" value="1" leadInLength="0/1"  name="volume"/>
              <Parameter id="1587"  name="captions"/>
             </Parameters>
             <Attributes>
              <Attribute id="1588" value="" name="ident"/>
              <Attribute id="1589" value="44100" name="sampleRate"/>
              <Attribute id="1590" value="16" name="bitDepth"/>
              <Attribute id="1591" value="1" name="gain"/>
              <Attribute id="1592" value="0" name="mixToMono"/>
             </Attributes>
            </AMFile>
            <ScreenVMFile id="1593" start="4716" duration="173" scalar="1/1" mediaStart="8872/1" mediaDuration="173/1" trackNumber="0" src="4" >
             <Transformer>
              <VectorParam id="1594"  name="translation">
               <InterpolatingParam id="1595" interp="linr"  time="-9999999/1" value="0" leadInLength="0/1"  />
               <InterpolatingParam id="1596" interp="linr"  time="-9999999/1" value="0" leadInLength="0/1"  />
               <InterpolatingParam id="1597" interp="linr"  time="-9999999/1" value="0" leadInLength="0/1"  />
              </VectorParam>
              <VectorParam id="1598"  name="rotation">
               <InterpolatingParam id="1599" interp="linr"  time="-9999999/1" value="0" leadInLength="0/1"  />
               <InterpolatingParam id="1600" interp="linr"  time="-9999999/1" value="0" leadInLength="0/1"  />
               <InterpolatingParam id="1601" interp="linr"  time="-9999999/1" value="0" leadInLength="0/1"  />
              </VectorParam>
              <VectorParam id="1602"  name="shear">
               <InterpolatingParam id="1603" interp="linr"  time="-9999999/1" value="0" leadInLength="0/1"  />
               <InterpolatingParam id="1604" interp="linr"  time="-9999999/1" value="0" leadInLength="0/1"  />
               <InterpolatingParam id="1605" interp="linr"  time="-9999999/1" value="0" leadInLength="0/1"  />
              </VectorParam>
              <VectorParam id="1606"  name="scale">
               <InterpolatingParam id="1607" interp="linr"  time="-9999999/1" value="1" leadInLength="0/1"  />
               <InterpolatingParam id="1608" interp="linr"  time="-9999999/1" value="1" leadInLength="0/1"  />
               <InterpolatingParam id="1609" interp="linr"  time="-9999999/1" value="1" leadInLength="0/1"  />
              </VectorParam>
              <VectorParam id="1610"  name="anchor">
               <InterpolatingParam id="1611" interp="linr"  time="0/1" value="0" leadInLength="0/1"  />
               <InterpolatingParam id="1612" interp="linr"  time="0/1" value="0" leadInLength="0/1"  />
               <InterpolatingParam id="1613" interp="linr"  time="0/1" value="0" leadInLength="0/1"  />
              </VectorParam>
             </Transformer>
             <Parameters>
              <VectorParam id="1614"  name="sourceCrop">
               <InterpolatingParam id="1615" interp="linr"  time="0/1" value="0" leadInLength="0/1"  />
               <InterpolatingParam id="1616" interp="linr"  time="0/1" value="0" leadInLength="0/1"  />
               <InterpolatingParam id="1617" interp="linr"  time="0/1" value="0" leadInLength="0/1"  />
               <InterpolatingParam id="1618" interp="linr"  time="0/1" value="0" leadInLength="0/1"  />
              </VectorParam>
              <VectorParam id="1619"  name="geometryCrop">
               <InterpolatingParam id="1620" interp="linr"  time="-9999999/1" value="0" leadInLength="0/1"  />
               <InterpolatingParam id="1621" interp="linr"  time="-9999999/1" value="0" leadInLength="0/1"  />
               <InterpolatingParam id="1622" interp="linr"  time="-9999999/1" value="0" leadInLength="0/1"  />
               <InterpolatingParam id="1623" interp="linr"  time="-9999999/1" value="0" leadInLength="0/1"  />
              </VectorParam>
              <InterpolatingParam id="1624" interp="linr"  time="-9999999/1" value="1" leadInLength="0/1"  name="opacity"/>
              <InterpolatingParam id="1625" interp="linr"  time="0/1" value="0" leadInLength="0/1"  name="cursorOpacity"/>
              <InterpolatingParam id="1626" interp="linr"  time="0/1" value="0" leadInLength="0/1"  name="cursorScale"/>
             </Parameters>
             <Attributes>
              <Attribute id="1627" value="" name="ident"/>
             </Attributes>
             <ExtraData>
              <Entry key="ZoomPanBin">
               <ZoomPanBin id="1628"  >
                <ZoomPanKeyframes>
                 <ZoomPanKeyframe id="1629" timeRangeEnd="-9999999/1" timeRangeDuration="0/1" interpolaterName=""  />
                </ZoomPanKeyframes>
               </ZoomPanBin>
              </Entry>
              <Entry key="CursorEffectBin">
               <CursorEffectBin id="1630"  >
                <CursorEffectKeyframes>
                </CursorEffectKeyframes>
               </CursorEffectBin>
              </Entry>
             </ExtraData>
            </ScreenVMFile>
            <MetaData>
             <entry key="AutoAppliedSmartFocus" val="False"/>
             <entry key="WinSubProjectDisplayName" val=""/>
            </MetaData>
           </UnifiedMedia>
           <UnifiedMedia id="1631"  >
            <AMFile id="1632" start="4889" duration="119" scalar="1/1" mediaStart="9056/1" mediaDuration="119/1" trackNumber="1" src="4" channelNumber="0,1" >
             <Parameters>
              <InterpolatingParam id="1633" interp="linr"  time="0/1" value="1" leadInLength="0/1"  name="volume"/>
              <Parameter id="1634"  name="captions"/>
             </Parameters>
             <Attributes>
              <Attribute id="1635" value="" name="ident"/>
              <Attribute id="1636" value="44100" name="sampleRate"/>
              <Attribute id="1637" value="16" name="bitDepth"/>
              <Attribute id="1638" value="1" name="gain"/>
              <Attribute id="1639" value="0" name="mixToMono"/>
             </Attributes>
            </AMFile>
            <ScreenVMFile id="1640" start="4889" duration="119" scalar="1/1" mediaStart="9056/1" mediaDuration="119/1" trackNumber="0" src="4" >
             <Transformer>
              <VectorParam id="1641"  name="translation">
               <InterpolatingParam id="1642" interp="linr"  time="-9999999/1" value="0" leadInLength="0/1"  />
               <InterpolatingParam id="1643" interp="linr"  time="-9999999/1" value="0" leadInLength="0/1"  />
               <InterpolatingParam id="1644" interp="linr"  time="-9999999/1" value="0" leadInLength="0/1"  />
              </VectorParam>
              <VectorParam id="1645"  name="rotation">
               <InterpolatingParam id="1646" interp="linr"  time="-9999999/1" value="0" leadInLength="0/1"  />
               <InterpolatingParam id="1647" interp="linr"  time="-9999999/1" value="0" leadInLength="0/1"  />
               <InterpolatingParam id="1648" interp="linr"  time="-9999999/1" value="0" leadInLength="0/1"  />
              </VectorParam>
              <VectorParam id="1649"  name="shear">
               <InterpolatingParam id="1650" interp="linr"  time="-9999999/1" value="0" leadInLength="0/1"  />
               <InterpolatingParam id="1651" interp="linr"  time="-9999999/1" value="0" leadInLength="0/1"  />
               <InterpolatingParam id="1652" interp="linr"  time="-9999999/1" value="0" leadInLength="0/1"  />
              </VectorParam>
              <VectorParam id="1653"  name="scale">
               <InterpolatingParam id="1654" interp="linr"  time="-9999999/1" value="1" leadInLength="0/1"  />
               <InterpolatingParam id="1655" interp="linr"  time="-9999999/1" value="1" leadInLength="0/1"  />
               <InterpolatingParam id="1656" interp="linr"  time="-9999999/1" value="1" leadInLength="0/1"  />
              </VectorParam>
              <VectorParam id="1657"  name="anchor">
               <InterpolatingParam id="1658" interp="linr"  time="0/1" value="0" leadInLength="0/1"  />
               <InterpolatingParam id="1659" interp="linr"  time="0/1" value="0" leadInLength="0/1"  />
               <InterpolatingParam id="1660" interp="linr"  time="0/1" value="0" leadInLength="0/1"  />
              </VectorParam>
             </Transformer>
             <Parameters>
              <VectorParam id="1661"  name="sourceCrop">
               <InterpolatingParam id="1662" interp="linr"  time="0/1" value="0" leadInLength="0/1"  />
               <InterpolatingParam id="1663" interp="linr"  time="0/1" value="0" leadInLength="0/1"  />
               <InterpolatingParam id="1664" interp="linr"  time="0/1" value="0" leadInLength="0/1"  />
               <InterpolatingParam id="1665" interp="linr"  time="0/1" value="0" leadInLength="0/1"  />
              </VectorParam>
              <VectorParam id="1666"  name="geometryCrop">
               <InterpolatingParam id="1667" interp="linr"  time="-9999999/1" value="0" leadInLength="0/1"  />
               <InterpolatingParam id="1668" interp="linr"  time="-9999999/1" value="0" leadInLength="0/1"  />
               <InterpolatingParam id="1669" interp="linr"  time="-9999999/1" value="0" leadInLength="0/1"  />
               <InterpolatingParam id="1670" interp="linr"  time="-9999999/1" value="0" leadInLength="0/1"  />
              </VectorParam>
              <InterpolatingParam id="1671" interp="linr"  time="-9999999/1" value="1" leadInLength="0/1"  name="opacity"/>
              <InterpolatingParam id="1672" interp="linr"  time="0/1" value="0" leadInLength="0/1"  name="cursorOpacity"/>
              <InterpolatingParam id="1673" interp="linr"  time="0/1" value="0" leadInLength="0/1"  name="cursorScale"/>
             </Parameters>
             <Attributes>
              <Attribute id="1674" value="" name="ident"/>
             </Attributes>
             <ExtraData>
              <Entry key="ZoomPanBin">
               <ZoomPanBin id="1675"  >
                <ZoomPanKeyframes>
                 <ZoomPanKeyframe id="1676" timeRangeEnd="-9999999/1" timeRangeDuration="0/1" interpolaterName=""  />
                </ZoomPanKeyframes>
               </ZoomPanBin>
              </Entry>
              <Entry key="CursorEffectBin">
               <CursorEffectBin id="1677"  >
                <CursorEffectKeyframes>
                </CursorEffectKeyframes>
               </CursorEffectBin>
              </Entry>
             </ExtraData>
            </ScreenVMFile>
            <MetaData>
             <entry key="AutoAppliedSmartFocus" val="False"/>
             <entry key="WinSubProjectDisplayName" val=""/>
            </MetaData>
           </UnifiedMedia>
           <UnifiedMedia id="1678"  >
            <AMFile id="1679" start="5008" duration="111" scalar="1/1" mediaStart="9183/1" mediaDuration="111/1" trackNumber="1" src="4" channelNumber="0,1" >
             <Parameters>
              <InterpolatingParam id="1680" interp="linr"  time="0/1" value="1" leadInLength="0/1"  name="volume"/>
              <Parameter id="1681"  name="captions"/>
             </Parameters>
             <Attributes>
              <Attribute id="1682" value="" name="ident"/>
              <Attribute id="1683" value="44100" name="sampleRate"/>
              <Attribute id="1684" value="16" name="bitDepth"/>
              <Attribute id="1685" value="1" name="gain"/>
              <Attribute id="1686" value="0" name="mixToMono"/>
             </Attributes>
            </AMFile>
            <ScreenVMFile id="1687" start="5008" duration="111" scalar="1/1" mediaStart="9183/1" mediaDuration="111/1" trackNumber="0" src="4" >
             <Transformer>
              <VectorParam id="1688"  name="translation">
               <InterpolatingParam id="1689" interp="linr"  time="-9999999/1" value="0" leadInLength="0/1"  />
               <InterpolatingParam id="1690" interp="linr"  time="-9999999/1" value="0" leadInLength="0/1"  />
               <InterpolatingParam id="1691" interp="linr"  time="-9999999/1" value="0" leadInLength="0/1"  />
              </VectorParam>
              <VectorParam id="1692"  name="rotation">
               <InterpolatingParam id="1693" interp="linr"  time="-9999999/1" value="0" leadInLength="0/1"  />
               <InterpolatingParam id="1694" interp="linr"  time="-9999999/1" value="0" leadInLength="0/1"  />
               <InterpolatingParam id="1695" interp="linr"  time="-9999999/1" value="0" leadInLength="0/1"  />
              </VectorParam>
              <VectorParam id="1696"  name="shear">
               <InterpolatingParam id="1697" interp="linr"  time="-9999999/1" value="0" leadInLength="0/1"  />
               <InterpolatingParam id="1698" interp="linr"  time="-9999999/1" value="0" leadInLength="0/1"  />
               <InterpolatingParam id="1699" interp="linr"  time="-9999999/1" value="0" leadInLength="0/1"  />
              </VectorParam>
              <VectorParam id="1700"  name="scale">
               <InterpolatingParam id="1701" interp="linr"  time="-9999999/1" value="1" leadInLength="0/1"  />
               <InterpolatingParam id="1702" interp="linr"  time="-9999999/1" value="1" leadInLength="0/1"  />
               <InterpolatingParam id="1703" interp="linr"  time="-9999999/1" value="1" leadInLength="0/1"  />
              </VectorParam>
              <VectorParam id="1704"  name="anchor">
               <InterpolatingParam id="1705" interp="linr"  time="0/1" value="0" leadInLength="0/1"  />
               <InterpolatingParam id="1706" interp="linr"  time="0/1" value="0" leadInLength="0/1"  />
               <InterpolatingParam id="1707" interp="linr"  time="0/1" value="0" leadInLength="0/1"  />
              </VectorParam>
             </Transformer>
             <Parameters>
              <VectorParam id="1708"  name="sourceCrop">
               <InterpolatingParam id="1709" interp="linr"  time="0/1" value="0" leadInLength="0/1"  />
               <InterpolatingParam id="1710" interp="linr"  time="0/1" value="0" leadInLength="0/1"  />
               <InterpolatingParam id="1711" interp="linr"  time="0/1" value="0" leadInLength="0/1"  />
               <InterpolatingParam id="1712" interp="linr"  time="0/1" value="0" leadInLength="0/1"  />
              </VectorParam>
              <VectorParam id="1713"  name="geometryCrop">
               <InterpolatingParam id="1714" interp="linr"  time="-9999999/1" value="0" leadInLength="0/1"  />
               <InterpolatingParam id="1715" interp="linr"  time="-9999999/1" value="0" leadInLength="0/1"  />
               <InterpolatingParam id="1716" interp="linr"  time="-9999999/1" value="0" leadInLength="0/1"  />
               <InterpolatingParam id="1717" interp="linr"  time="-9999999/1" value="0" leadInLength="0/1"  />
              </VectorParam>
              <InterpolatingParam id="1718" interp="linr"  time="-9999999/1" value="1" leadInLength="0/1"  name="opacity"/>
              <InterpolatingParam id="1719" interp="linr"  time="0/1" value="0" leadInLength="0/1"  name="cursorOpacity"/>
              <InterpolatingParam id="1720" interp="linr"  time="0/1" value="0" leadInLength="0/1"  name="cursorScale"/>
             </Parameters>
             <Attributes>
              <Attribute id="1721" value="" name="ident"/>
             </Attributes>
             <ExtraData>
              <Entry key="ZoomPanBin">
               <ZoomPanBin id="1722"  >
                <ZoomPanKeyframes>
                 <ZoomPanKeyframe id="1723" timeRangeEnd="-9999999/1" timeRangeDuration="0/1" interpolaterName=""  />
                </ZoomPanKeyframes>
               </ZoomPanBin>
              </Entry>
              <Entry key="CursorEffectBin">
               <CursorEffectBin id="1724"  >
                <CursorEffectKeyframes>
                </CursorEffectKeyframes>
               </CursorEffectBin>
              </Entry>
             </ExtraData>
            </ScreenVMFile>
            <MetaData>
             <entry key="AutoAppliedSmartFocus" val="False"/>
             <entry key="WinSubProjectDisplayName" val=""/>
            </MetaData>
           </UnifiedMedia>
           <UnifiedMedia id="1725"  >
            <AMFile id="1726" start="5119" duration="145" scalar="1/1" mediaStart="9299/1" mediaDuration="145/1" trackNumber="1" src="4" channelNumber="0,1" >
             <Parameters>
              <InterpolatingParam id="1727" interp="linr"  time="0/1" value="1" leadInLength="0/1"  name="volume"/>
              <Parameter id="1728"  name="captions"/>
             </Parameters>
             <Attributes>
              <Attribute id="1729" value="" name="ident"/>
              <Attribute id="1730" value="44100" name="sampleRate"/>
              <Attribute id="1731" value="16" name="bitDepth"/>
              <Attribute id="1732" value="1" name="gain"/>
              <Attribute id="1733" value="0" name="mixToMono"/>
             </Attributes>
            </AMFile>
            <ScreenVMFile id="1734" start="5119" duration="145" scalar="1/1" mediaStart="9299/1" mediaDuration="145/1" trackNumber="0" src="4" >
             <Transformer>
              <VectorParam id="1735"  name="translation">
               <InterpolatingParam id="1736" interp="linr"  time="-9999999/1" value="0" leadInLength="0/1"  />
               <InterpolatingParam id="1737" interp="linr"  time="-9999999/1" value="0" leadInLength="0/1"  />
               <InterpolatingParam id="1738" interp="linr"  time="-9999999/1" value="0" leadInLength="0/1"  />
              </VectorParam>
              <VectorParam id="1739"  name="rotation">
               <InterpolatingParam id="1740" interp="linr"  time="-9999999/1" value="0" leadInLength="0/1"  />
               <InterpolatingParam id="1741" interp="linr"  time="-9999999/1" value="0" leadInLength="0/1"  />
               <InterpolatingParam id="1742" interp="linr"  time="-9999999/1" value="0" leadInLength="0/1"  />
              </VectorParam>
              <VectorParam id="1743"  name="shear">
               <InterpolatingParam id="1744" interp="linr"  time="-9999999/1" value="0" leadInLength="0/1"  />
               <InterpolatingParam id="1745" interp="linr"  time="-9999999/1" value="0" leadInLength="0/1"  />
               <InterpolatingParam id="1746" interp="linr"  time="-9999999/1" value="0" leadInLength="0/1"  />
              </VectorParam>
              <VectorParam id="1747"  name="scale">
               <InterpolatingParam id="1748" interp="linr"  time="-9999999/1" value="1" leadInLength="0/1"  />
               <InterpolatingParam id="1749" interp="linr"  time="-9999999/1" value="1" leadInLength="0/1"  />
               <InterpolatingParam id="1750" interp="linr"  time="-9999999/1" value="1" leadInLength="0/1"  />
              </VectorParam>
              <VectorParam id="1751"  name="anchor">
               <InterpolatingParam id="1752" interp="linr"  time="0/1" value="0" leadInLength="0/1"  />
               <InterpolatingParam id="1753" interp="linr"  time="0/1" value="0" leadInLength="0/1"  />
               <InterpolatingParam id="1754" interp="linr"  time="0/1" value="0" leadInLength="0/1"  />
              </VectorParam>
             </Transformer>
             <Parameters>
              <VectorParam id="1755"  name="sourceCrop">
               <InterpolatingParam id="1756" interp="linr"  time="0/1" value="0" leadInLength="0/1"  />
               <InterpolatingParam id="1757" interp="linr"  time="0/1" value="0" leadInLength="0/1"  />
               <InterpolatingParam id="1758" interp="linr"  time="0/1" value="0" leadInLength="0/1"  />
               <InterpolatingParam id="1759" interp="linr"  time="0/1" value="0" leadInLength="0/1"  />
              </VectorParam>
              <VectorParam id="1760"  name="geometryCrop">
               <InterpolatingParam id="1761" interp="linr"  time="-9999999/1" value="0" leadInLength="0/1"  />
               <InterpolatingParam id="1762" interp="linr"  time="-9999999/1" value="0" leadInLength="0/1"  />
               <InterpolatingParam id="1763" interp="linr"  time="-9999999/1" value="0" leadInLength="0/1"  />
               <InterpolatingParam id="1764" interp="linr"  time="-9999999/1" value="0" leadInLength="0/1"  />
              </VectorParam>
              <InterpolatingParam id="1765" interp="linr"  time="-9999999/1" value="1" leadInLength="0/1"  name="opacity"/>
              <InterpolatingParam id="1766" interp="linr"  time="0/1" value="0" leadInLength="0/1"  name="cursorOpacity"/>
              <InterpolatingParam id="1767" interp="linr"  time="0/1" value="0" leadInLength="0/1"  name="cursorScale"/>
             </Parameters>
             <Attributes>
              <Attribute id="1768" value="" name="ident"/>
             </Attributes>
             <ExtraData>
              <Entry key="ZoomPanBin">
               <ZoomPanBin id="1769"  >
                <ZoomPanKeyframes>
                 <ZoomPanKeyframe id="1770" timeRangeEnd="-9999999/1" timeRangeDuration="0/1" interpolaterName=""  />
                </ZoomPanKeyframes>
               </ZoomPanBin>
              </Entry>
              <Entry key="CursorEffectBin">
               <CursorEffectBin id="1771"  >
                <CursorEffectKeyframes>
                </CursorEffectKeyframes>
               </CursorEffectBin>
              </Entry>
             </ExtraData>
            </ScreenVMFile>
            <MetaData>
             <entry key="AutoAppliedSmartFocus" val="False"/>
             <entry key="WinSubProjectDisplayName" val=""/>
            </MetaData>
           </UnifiedMedia>
           <UnifiedMedia id="1772"  >
            <AMFile id="1773" start="5264" duration="239" scalar="1/1" mediaStart="9711/1" mediaDuration="239/1" trackNumber="1" src="4" channelNumber="0,1" >
             <Parameters>
              <InterpolatingParam id="1774" interp="linr"  time="0/1" value="1" leadInLength="0/1"  name="volume"/>
              <Parameter id="1775"  name="captions"/>
             </Parameters>
             <Attributes>
              <Attribute id="1776" value="" name="ident"/>
              <Attribute id="1777" value="44100" name="sampleRate"/>
              <Attribute id="1778" value="16" name="bitDepth"/>
              <Attribute id="1779" value="1" name="gain"/>
              <Attribute id="1780" value="0" name="mixToMono"/>
             </Attributes>
            </AMFile>
            <ScreenVMFile id="1781" start="5264" duration="239" scalar="1/1" mediaStart="9711/1" mediaDuration="239/1" trackNumber="0" src="4" >
             <Transformer>
              <VectorParam id="1782"  name="translation">
               <InterpolatingParam id="1783" interp="linr"  time="-9999999/1" value="0" leadInLength="0/1"  />
               <InterpolatingParam id="1784" interp="linr"  time="-9999999/1" value="0" leadInLength="0/1"  />
               <InterpolatingParam id="1785" interp="linr"  time="-9999999/1" value="0" leadInLength="0/1"  />
              </VectorParam>
              <VectorParam id="1786"  name="rotation">
               <InterpolatingParam id="1787" interp="linr"  time="-9999999/1" value="0" leadInLength="0/1"  />
               <InterpolatingParam id="1788" interp="linr"  time="-9999999/1" value="0" leadInLength="0/1"  />
               <InterpolatingParam id="1789" interp="linr"  time="-9999999/1" value="0" leadInLength="0/1"  />
              </VectorParam>
              <VectorParam id="1790"  name="shear">
               <InterpolatingParam id="1791" interp="linr"  time="-9999999/1" value="0" leadInLength="0/1"  />
               <InterpolatingParam id="1792" interp="linr"  time="-9999999/1" value="0" leadInLength="0/1"  />
               <InterpolatingParam id="1793" interp="linr"  time="-9999999/1" value="0" leadInLength="0/1"  />
              </VectorParam>
              <VectorParam id="1794"  name="scale">
               <InterpolatingParam id="1795" interp="linr"  time="-9999999/1" value="1" leadInLength="0/1"  />
               <InterpolatingParam id="1796" interp="linr"  time="-9999999/1" value="1" leadInLength="0/1"  />
               <InterpolatingParam id="1797" interp="linr"  time="-9999999/1" value="1" leadInLength="0/1"  />
              </VectorParam>
              <VectorParam id="1798"  name="anchor">
               <InterpolatingParam id="1799" interp="linr"  time="0/1" value="0" leadInLength="0/1"  />
               <InterpolatingParam id="1800" interp="linr"  time="0/1" value="0" leadInLength="0/1"  />
               <InterpolatingParam id="1801" interp="linr"  time="0/1" value="0" leadInLength="0/1"  />
              </VectorParam>
             </Transformer>
             <Parameters>
              <VectorParam id="1802"  name="sourceCrop">
               <InterpolatingParam id="1803" interp="linr"  time="0/1" value="0" leadInLength="0/1"  />
               <InterpolatingParam id="1804" interp="linr"  time="0/1" value="0" leadInLength="0/1"  />
               <InterpolatingParam id="1805" interp="linr"  time="0/1" value="0" leadInLength="0/1"  />
               <InterpolatingParam id="1806" interp="linr"  time="0/1" value="0" leadInLength="0/1"  />
              </VectorParam>
              <VectorParam id="1807"  name="geometryCrop">
               <InterpolatingParam id="1808" interp="linr"  time="-9999999/1" value="0" leadInLength="0/1"  />
               <InterpolatingParam id="1809" interp="linr"  time="-9999999/1" value="0" leadInLength="0/1"  />
               <InterpolatingParam id="1810" interp="linr"  time="-9999999/1" value="0" leadInLength="0/1"  />
               <InterpolatingParam id="1811" interp="linr"  time="-9999999/1" value="0" leadInLength="0/1"  />
              </VectorParam>
              <InterpolatingParam id="1812" interp="linr"  time="-9999999/1" value="1" leadInLength="0/1"  name="opacity"/>
              <InterpolatingParam id="1813" interp="linr"  time="0/1" value="0" leadInLength="0/1"  name="cursorOpacity"/>
              <InterpolatingParam id="1814" interp="linr"  time="0/1" value="0" leadInLength="0/1"  name="cursorScale"/>
             </Parameters>
             <Attributes>
              <Attribute id="1815" value="" name="ident"/>
             </Attributes>
             <ExtraData>
              <Entry key="ZoomPanBin">
               <ZoomPanBin id="1816"  >
                <ZoomPanKeyframes>
                 <ZoomPanKeyframe id="1817" timeRangeEnd="-9999999/1" timeRangeDuration="0/1" interpolaterName=""  />
                </ZoomPanKeyframes>
               </ZoomPanBin>
              </Entry>
              <Entry key="CursorEffectBin">
               <CursorEffectBin id="1818"  >
                <CursorEffectKeyframes>
                </CursorEffectKeyframes>
               </CursorEffectBin>
              </Entry>
             </ExtraData>
            </ScreenVMFile>
            <MetaData>
             <entry key="AutoAppliedSmartFocus" val="False"/>
             <entry key="WinSubProjectDisplayName" val=""/>
            </MetaData>
           </UnifiedMedia>
           <UnifiedMedia id="1819"  >
            <AMFile id="1820" start="5503" duration="134" scalar="1/1" mediaStart="9962/1" mediaDuration="134/1" trackNumber="1" src="4" channelNumber="0,1" >
             <Parameters>
              <InterpolatingParam id="1821" interp="linr"  time="0/1" value="1" leadInLength="0/1"  name="volume"/>
              <Parameter id="1822"  name="captions"/>
             </Parameters>
             <Attributes>
              <Attribute id="1823" value="" name="ident"/>
              <Attribute id="1824" value="44100" name="sampleRate"/>
              <Attribute id="1825" value="16" name="bitDepth"/>
              <Attribute id="1826" value="1" name="gain"/>
              <Attribute id="1827" value="0" name="mixToMono"/>
             </Attributes>
            </AMFile>
            <ScreenVMFile id="1828" start="5503" duration="134" scalar="1/1" mediaStart="9962/1" mediaDuration="134/1" trackNumber="0" src="4" >
             <Transformer>
              <VectorParam id="1829"  name="translation">
               <InterpolatingParam id="1830" interp="linr"  time="-9999999/1" value="0" leadInLength="0/1"  />
               <InterpolatingParam id="1831" interp="linr"  time="-9999999/1" value="0" leadInLength="0/1"  />
               <InterpolatingParam id="1832" interp="linr"  time="-9999999/1" value="0" leadInLength="0/1"  />
              </VectorParam>
              <VectorParam id="1833"  name="rotation">
               <InterpolatingParam id="1834" interp="linr"  time="-9999999/1" value="0" leadInLength="0/1"  />
               <InterpolatingParam id="1835" interp="linr"  time="-9999999/1" value="0" leadInLength="0/1"  />
               <InterpolatingParam id="1836" interp="linr"  time="-9999999/1" value="0" leadInLength="0/1"  />
              </VectorParam>
              <VectorParam id="1837"  name="shear">
               <InterpolatingParam id="1838" interp="linr"  time="-9999999/1" value="0" leadInLength="0/1"  />
               <InterpolatingParam id="1839" interp="linr"  time="-9999999/1" value="0" leadInLength="0/1"  />
               <InterpolatingParam id="1840" interp="linr"  time="-9999999/1" value="0" leadInLength="0/1"  />
              </VectorParam>
              <VectorParam id="1841"  name="scale">
               <InterpolatingParam id="1842" interp="linr"  time="-9999999/1" value="1" leadInLength="0/1"  />
               <InterpolatingParam id="1843" interp="linr"  time="-9999999/1" value="1" leadInLength="0/1"  />
               <InterpolatingParam id="1844" interp="linr"  time="-9999999/1" value="1" leadInLength="0/1"  />
              </VectorParam>
              <VectorParam id="1845"  name="anchor">
               <InterpolatingParam id="1846" interp="linr"  time="0/1" value="0" leadInLength="0/1"  />
               <InterpolatingParam id="1847" interp="linr"  time="0/1" value="0" leadInLength="0/1"  />
               <InterpolatingParam id="1848" interp="linr"  time="0/1" value="0" leadInLength="0/1"  />
              </VectorParam>
             </Transformer>
             <Parameters>
              <VectorParam id="1849"  name="sourceCrop">
               <InterpolatingParam id="1850" interp="linr"  time="0/1" value="0" leadInLength="0/1"  />
               <InterpolatingParam id="1851" interp="linr"  time="0/1" value="0" leadInLength="0/1"  />
               <InterpolatingParam id="1852" interp="linr"  time="0/1" value="0" leadInLength="0/1"  />
               <InterpolatingParam id="1853" interp="linr"  time="0/1" value="0" leadInLength="0/1"  />
              </VectorParam>
              <VectorParam id="1854"  name="geometryCrop">
               <InterpolatingParam id="1855" interp="linr"  time="-9999999/1" value="0" leadInLength="0/1"  />
               <InterpolatingParam id="1856" interp="linr"  time="-9999999/1" value="0" leadInLength="0/1"  />
               <InterpolatingParam id="1857" interp="linr"  time="-9999999/1" value="0" leadInLength="0/1"  />
               <InterpolatingParam id="1858" interp="linr"  time="-9999999/1" value="0" leadInLength="0/1"  />
              </VectorParam>
              <InterpolatingParam id="1859" interp="linr"  time="-9999999/1" value="1" leadInLength="0/1"  name="opacity"/>
              <InterpolatingParam id="1860" interp="linr"  time="0/1" value="0" leadInLength="0/1"  name="cursorOpacity"/>
              <InterpolatingParam id="1861" interp="linr"  time="0/1" value="0" leadInLength="0/1"  name="cursorScale"/>
             </Parameters>
             <Attributes>
              <Attribute id="1862" value="" name="ident"/>
             </Attributes>
             <ExtraData>
              <Entry key="ZoomPanBin">
               <ZoomPanBin id="1863"  >
                <ZoomPanKeyframes>
                 <ZoomPanKeyframe id="1864" timeRangeEnd="-9999999/1" timeRangeDuration="0/1" interpolaterName=""  />
                </ZoomPanKeyframes>
               </ZoomPanBin>
              </Entry>
              <Entry key="CursorEffectBin">
               <CursorEffectBin id="1865"  >
                <CursorEffectKeyframes>
                </CursorEffectKeyframes>
               </CursorEffectBin>
              </Entry>
             </ExtraData>
            </ScreenVMFile>
            <MetaData>
             <entry key="AutoAppliedSmartFocus" val="False"/>
             <entry key="WinSubProjectDisplayName" val=""/>
            </MetaData>
           </UnifiedMedia>
           <UnifiedMedia id="1866"  >
            <AMFile id="1867" start="5637" duration="600" scalar="1/1" mediaStart="10113/1" mediaDuration="600/1" trackNumber="1" src="4" channelNumber="0,1" >
             <Parameters>
              <InterpolatingParam id="1868" interp="linr"  time="0/1" value="1" leadInLength="0/1"  name="volume"/>
              <Parameter id="1869"  name="captions"/>
             </Parameters>
             <Attributes>
              <Attribute id="1870" value="" name="ident"/>
              <Attribute id="1871" value="44100" name="sampleRate"/>
              <Attribute id="1872" value="16" name="bitDepth"/>
              <Attribute id="1873" value="1" name="gain"/>
              <Attribute id="1874" value="0" name="mixToMono"/>
             </Attributes>
            </AMFile>
            <ScreenVMFile id="1875" start="5637" duration="600" scalar="1/1" mediaStart="10113/1" mediaDuration="600/1" trackNumber="0" src="4" >
             <Transformer>
              <VectorParam id="1876"  name="translation">
               <InterpolatingParam id="1877" interp="linr"  time="-9999999/1" value="0" leadInLength="0/1"  />
               <InterpolatingParam id="1878" interp="linr"  time="-9999999/1" value="0" leadInLength="0/1"  />
               <InterpolatingParam id="1879" interp="linr"  time="-9999999/1" value="0" leadInLength="0/1"  />
              </VectorParam>
              <VectorParam id="1880"  name="rotation">
               <InterpolatingParam id="1881" interp="linr"  time="-9999999/1" value="0" leadInLength="0/1"  />
               <InterpolatingParam id="1882" interp="linr"  time="-9999999/1" value="0" leadInLength="0/1"  />
               <InterpolatingParam id="1883" interp="linr"  time="-9999999/1" value="0" leadInLength="0/1"  />
              </VectorParam>
              <VectorParam id="1884"  name="shear">
               <InterpolatingParam id="1885" interp="linr"  time="-9999999/1" value="0" leadInLength="0/1"  />
               <InterpolatingParam id="1886" interp="linr"  time="-9999999/1" value="0" leadInLength="0/1"  />
               <InterpolatingParam id="1887" interp="linr"  time="-9999999/1" value="0" leadInLength="0/1"  />
              </VectorParam>
              <VectorParam id="1888"  name="scale">
               <InterpolatingParam id="1889" interp="linr"  time="-9999999/1" value="1" leadInLength="0/1"  />
               <InterpolatingParam id="1890" interp="linr"  time="-9999999/1" value="1" leadInLength="0/1"  />
               <InterpolatingParam id="1891" interp="linr"  time="-9999999/1" value="1" leadInLength="0/1"  />
              </VectorParam>
              <VectorParam id="1892"  name="anchor">
               <InterpolatingParam id="1893" interp="linr"  time="0/1" value="0" leadInLength="0/1"  />
               <InterpolatingParam id="1894" interp="linr"  time="0/1" value="0" leadInLength="0/1"  />
               <InterpolatingParam id="1895" interp="linr"  time="0/1" value="0" leadInLength="0/1"  />
              </VectorParam>
             </Transformer>
             <Parameters>
              <VectorParam id="1896"  name="sourceCrop">
               <InterpolatingParam id="1897" interp="linr"  time="0/1" value="0" leadInLength="0/1"  />
               <InterpolatingParam id="1898" interp="linr"  time="0/1" value="0" leadInLength="0/1"  />
               <InterpolatingParam id="1899" interp="linr"  time="0/1" value="0" leadInLength="0/1"  />
               <InterpolatingParam id="1900" interp="linr"  time="0/1" value="0" leadInLength="0/1"  />
              </VectorParam>
              <VectorParam id="1901"  name="geometryCrop">
               <InterpolatingParam id="1902" interp="linr"  time="-9999999/1" value="0" leadInLength="0/1"  />
               <InterpolatingParam id="1903" interp="linr"  time="-9999999/1" value="0" leadInLength="0/1"  />
               <InterpolatingParam id="1904" interp="linr"  time="-9999999/1" value="0" leadInLength="0/1"  />
               <InterpolatingParam id="1905" interp="linr"  time="-9999999/1" value="0" leadInLength="0/1"  />
              </VectorParam>
              <InterpolatingParam id="1906" interp="linr"  time="-9999999/1" value="1" leadInLength="0/1"  name="opacity"/>
              <InterpolatingParam id="1907" interp="linr"  time="0/1" value="0" leadInLength="0/1"  name="cursorOpacity"/>
              <InterpolatingParam id="1908" interp="linr"  time="0/1" value="0" leadInLength="0/1"  name="cursorScale"/>
             </Parameters>
             <Attributes>
              <Attribute id="1909" value="" name="ident"/>
             </Attributes>
             <ExtraData>
              <Entry key="ZoomPanBin">
               <ZoomPanBin id="1910"  >
                <ZoomPanKeyframes>
                 <ZoomPanKeyframe id="1911" timeRangeEnd="-9999999/1" timeRangeDuration="0/1" interpolaterName=""  />
                </ZoomPanKeyframes>
               </ZoomPanBin>
              </Entry>
              <Entry key="CursorEffectBin">
               <CursorEffectBin id="1912"  >
                <CursorEffectKeyframes>
                </CursorEffectKeyframes>
               </CursorEffectBin>
              </Entry>
             </ExtraData>
            </ScreenVMFile>
            <MetaData>
             <entry key="AutoAppliedSmartFocus" val="False"/>
             <entry key="WinSubProjectDisplayName" val=""/>
            </MetaData>
           </UnifiedMedia>
           <UnifiedMedia id="1913"  >
            <AMFile id="1914" start="6237" duration="460" scalar="1/1" mediaStart="10786/1" mediaDuration="460/1" trackNumber="1" src="4" channelNumber="0,1" >
             <Parameters>
              <InterpolatingParam id="1915" interp="linr"  time="0/1" value="1" leadInLength="0/1"  name="volume"/>
              <Parameter id="1916"  name="captions"/>
             </Parameters>
             <Attributes>
              <Attribute id="1917" value="" name="ident"/>
              <Attribute id="1918" value="44100" name="sampleRate"/>
              <Attribute id="1919" value="16" name="bitDepth"/>
              <Attribute id="1920" value="1" name="gain"/>
              <Attribute id="1921" value="0" name="mixToMono"/>
             </Attributes>
            </AMFile>
            <ScreenVMFile id="1922" start="6237" duration="460" scalar="1/1" mediaStart="10786/1" mediaDuration="460/1" trackNumber="0" src="4" >
             <Transformer>
              <VectorParam id="1923"  name="translation">
               <InterpolatingParam id="1924" interp="linr"  time="-9999999/1" value="0" leadInLength="0/1"  />
               <InterpolatingParam id="1925" interp="linr"  time="-9999999/1" value="0" leadInLength="0/1"  />
               <InterpolatingParam id="1926" interp="linr"  time="-9999999/1" value="0" leadInLength="0/1"  />
              </VectorParam>
              <VectorParam id="1927"  name="rotation">
               <InterpolatingParam id="1928" interp="linr"  time="-9999999/1" value="0" leadInLength="0/1"  />
               <InterpolatingParam id="1929" interp="linr"  time="-9999999/1" value="0" leadInLength="0/1"  />
               <InterpolatingParam id="1930" interp="linr"  time="-9999999/1" value="0" leadInLength="0/1"  />
              </VectorParam>
              <VectorParam id="1931"  name="shear">
               <InterpolatingParam id="1932" interp="linr"  time="-9999999/1" value="0" leadInLength="0/1"  />
               <InterpolatingParam id="1933" interp="linr"  time="-9999999/1" value="0" leadInLength="0/1"  />
               <InterpolatingParam id="1934" interp="linr"  time="-9999999/1" value="0" leadInLength="0/1"  />
              </VectorParam>
              <VectorParam id="1935"  name="scale">
               <InterpolatingParam id="1936" interp="linr"  time="-9999999/1" value="1" leadInLength="0/1"  />
               <InterpolatingParam id="1937" interp="linr"  time="-9999999/1" value="1" leadInLength="0/1"  />
               <InterpolatingParam id="1938" interp="linr"  time="-9999999/1" value="1" leadInLength="0/1"  />
              </VectorParam>
              <VectorParam id="1939"  name="anchor">
               <InterpolatingParam id="1940" interp="linr"  time="0/1" value="0" leadInLength="0/1"  />
               <InterpolatingParam id="1941" interp="linr"  time="0/1" value="0" leadInLength="0/1"  />
               <InterpolatingParam id="1942" interp="linr"  time="0/1" value="0" leadInLength="0/1"  />
              </VectorParam>
             </Transformer>
             <Parameters>
              <VectorParam id="1943"  name="sourceCrop">
               <InterpolatingParam id="1944" interp="linr"  time="0/1" value="0" leadInLength="0/1"  />
               <InterpolatingParam id="1945" interp="linr"  time="0/1" value="0" leadInLength="0/1"  />
               <InterpolatingParam id="1946" interp="linr"  time="0/1" value="0" leadInLength="0/1"  />
               <InterpolatingParam id="1947" interp="linr"  time="0/1" value="0" leadInLength="0/1"  />
              </VectorParam>
              <VectorParam id="1948"  name="geometryCrop">
               <InterpolatingParam id="1949" interp="linr"  time="-9999999/1" value="0" leadInLength="0/1"  />
               <InterpolatingParam id="1950" interp="linr"  time="-9999999/1" value="0" leadInLength="0/1"  />
               <InterpolatingParam id="1951" interp="linr"  time="-9999999/1" value="0" leadInLength="0/1"  />
               <InterpolatingParam id="1952" interp="linr"  time="-9999999/1" value="0" leadInLength="0/1"  />
              </VectorParam>
              <InterpolatingParam id="1953" interp="linr"  time="-9999999/1" value="1" leadInLength="0/1"  name="opacity"/>
              <InterpolatingParam id="1954" interp="linr"  time="0/1" value="0" leadInLength="0/1"  name="cursorOpacity"/>
              <InterpolatingParam id="1955" interp="linr"  time="0/1" value="0" leadInLength="0/1"  name="cursorScale"/>
             </Parameters>
             <Attributes>
              <Attribute id="1956" value="" name="ident"/>
             </Attributes>
             <ExtraData>
              <Entry key="ZoomPanBin">
               <ZoomPanBin id="1957"  >
                <ZoomPanKeyframes>
                 <ZoomPanKeyframe id="1958" timeRangeEnd="-9999999/1" timeRangeDuration="0/1" interpolaterName=""  />
                </ZoomPanKeyframes>
               </ZoomPanBin>
              </Entry>
              <Entry key="CursorEffectBin">
               <CursorEffectBin id="1959"  >
                <CursorEffectKeyframes>
                </CursorEffectKeyframes>
               </CursorEffectBin>
              </Entry>
             </ExtraData>
            </ScreenVMFile>
            <MetaData>
             <entry key="AutoAppliedSmartFocus" val="False"/>
             <entry key="WinSubProjectDisplayName" val=""/>
            </MetaData>
           </UnifiedMedia>
           <UnifiedMedia id="1960"  >
            <AMFile id="1961" start="6697" duration="57" scalar="1/1" mediaStart="11317/1" mediaDuration="57/1" trackNumber="1" src="4" channelNumber="0,1" >
             <Parameters>
              <InterpolatingParam id="1962" interp="linr"  time="0/1" value="1" leadInLength="0/1"  name="volume"/>
              <Parameter id="1963"  name="captions"/>
             </Parameters>
             <Attributes>
              <Attribute id="1964" value="" name="ident"/>
              <Attribute id="1965" value="44100" name="sampleRate"/>
              <Attribute id="1966" value="16" name="bitDepth"/>
              <Attribute id="1967" value="1" name="gain"/>
              <Attribute id="1968" value="0" name="mixToMono"/>
             </Attributes>
            </AMFile>
            <ScreenVMFile id="1969" start="6697" duration="57" scalar="1/1" mediaStart="11317/1" mediaDuration="57/1" trackNumber="0" src="4" >
             <Transformer>
              <VectorParam id="1970"  name="translation">
               <InterpolatingParam id="1971" interp="linr"  time="-9999999/1" value="0" leadInLength="0/1"  />
               <InterpolatingParam id="1972" interp="linr"  time="-9999999/1" value="0" leadInLength="0/1"  />
               <InterpolatingParam id="1973" interp="linr"  time="-9999999/1" value="0" leadInLength="0/1"  />
              </VectorParam>
              <VectorParam id="1974"  name="rotation">
               <InterpolatingParam id="1975" interp="linr"  time="-9999999/1" value="0" leadInLength="0/1"  />
               <InterpolatingParam id="1976" interp="linr"  time="-9999999/1" value="0" leadInLength="0/1"  />
               <InterpolatingParam id="1977" interp="linr"  time="-9999999/1" value="0" leadInLength="0/1"  />
              </VectorParam>
              <VectorParam id="1978"  name="shear">
               <InterpolatingParam id="1979" interp="linr"  time="-9999999/1" value="0" leadInLength="0/1"  />
               <InterpolatingParam id="1980" interp="linr"  time="-9999999/1" value="0" leadInLength="0/1"  />
               <InterpolatingParam id="1981" interp="linr"  time="-9999999/1" value="0" leadInLength="0/1"  />
              </VectorParam>
              <VectorParam id="1982"  name="scale">
               <InterpolatingParam id="1983" interp="linr"  time="-9999999/1" value="1" leadInLength="0/1"  />
               <InterpolatingParam id="1984" interp="linr"  time="-9999999/1" value="1" leadInLength="0/1"  />
               <InterpolatingParam id="1985" interp="linr"  time="-9999999/1" value="1" leadInLength="0/1"  />
              </VectorParam>
              <VectorParam id="1986"  name="anchor">
               <InterpolatingParam id="1987" interp="linr"  time="0/1" value="0" leadInLength="0/1"  />
               <InterpolatingParam id="1988" interp="linr"  time="0/1" value="0" leadInLength="0/1"  />
               <InterpolatingParam id="1989" interp="linr"  time="0/1" value="0" leadInLength="0/1"  />
              </VectorParam>
             </Transformer>
             <Parameters>
              <VectorParam id="1990"  name="sourceCrop">
               <InterpolatingParam id="1991" interp="linr"  time="0/1" value="0" leadInLength="0/1"  />
               <InterpolatingParam id="1992" interp="linr"  time="0/1" value="0" leadInLength="0/1"  />
               <InterpolatingParam id="1993" interp="linr"  time="0/1" value="0" leadInLength="0/1"  />
               <InterpolatingParam id="1994" interp="linr"  time="0/1" value="0" leadInLength="0/1"  />
              </VectorParam>
              <VectorParam id="1995"  name="geometryCrop">
               <InterpolatingParam id="1996" interp="linr"  time="-9999999/1" value="0" leadInLength="0/1"  />
               <InterpolatingParam id="1997" interp="linr"  time="-9999999/1" value="0" leadInLength="0/1"  />
               <InterpolatingParam id="1998" interp="linr"  time="-9999999/1" value="0" leadInLength="0/1"  />
               <InterpolatingParam id="1999" interp="linr"  time="-9999999/1" value="0" leadInLength="0/1"  />
              </VectorParam>
              <InterpolatingParam id="2000" interp="linr"  time="-9999999/1" value="1" leadInLength="0/1"  name="opacity"/>
              <InterpolatingParam id="2001" interp="linr"  time="0/1" value="0" leadInLength="0/1"  name="cursorOpacity"/>
              <InterpolatingParam id="2002" interp="linr"  time="0/1" value="0" leadInLength="0/1"  name="cursorScale"/>
             </Parameters>
             <Attributes>
              <Attribute id="2003" value="" name="ident"/>
             </Attributes>
             <ExtraData>
              <Entry key="ZoomPanBin">
               <ZoomPanBin id="2004"  >
                <ZoomPanKeyframes>
                 <ZoomPanKeyframe id="2005" timeRangeEnd="-9999999/1" timeRangeDuration="0/1" interpolaterName=""  />
                </ZoomPanKeyframes>
               </ZoomPanBin>
              </Entry>
              <Entry key="CursorEffectBin">
               <CursorEffectBin id="2006"  >
                <CursorEffectKeyframes>
                </CursorEffectKeyframes>
               </CursorEffectBin>
              </Entry>
             </ExtraData>
            </ScreenVMFile>
            <MetaData>
             <entry key="AutoAppliedSmartFocus" val="False"/>
             <entry key="WinSubProjectDisplayName" val=""/>
            </MetaData>
           </UnifiedMedia>
           <UnifiedMedia id="2007"  >
            <AMFile id="2008" start="6754" duration="35" scalar="1/1" mediaStart="11382/1" mediaDuration="35/1" trackNumber="1" src="4" channelNumber="0,1" >
             <Parameters>
              <InterpolatingParam id="2009" interp="linr"  time="0/1" value="1" leadInLength="0/1"  name="volume"/>
              <Parameter id="2010"  name="captions"/>
             </Parameters>
             <Attributes>
              <Attribute id="2011" value="" name="ident"/>
              <Attribute id="2012" value="44100" name="sampleRate"/>
              <Attribute id="2013" value="16" name="bitDepth"/>
              <Attribute id="2014" value="1" name="gain"/>
              <Attribute id="2015" value="0" name="mixToMono"/>
             </Attributes>
            </AMFile>
            <ScreenVMFile id="2016" start="6754" duration="35" scalar="1/1" mediaStart="11382/1" mediaDuration="35/1" trackNumber="0" src="4" >
             <Transformer>
              <VectorParam id="2017"  name="translation">
               <InterpolatingParam id="2018" interp="linr"  time="-9999999/1" value="0" leadInLength="0/1"  />
               <InterpolatingParam id="2019" interp="linr"  time="-9999999/1" value="0" leadInLength="0/1"  />
               <InterpolatingParam id="2020" interp="linr"  time="-9999999/1" value="0" leadInLength="0/1"  />
              </VectorParam>
              <VectorParam id="2021"  name="rotation">
               <InterpolatingParam id="2022" interp="linr"  time="-9999999/1" value="0" leadInLength="0/1"  />
               <InterpolatingParam id="2023" interp="linr"  time="-9999999/1" value="0" leadInLength="0/1"  />
               <InterpolatingParam id="2024" interp="linr"  time="-9999999/1" value="0" leadInLength="0/1"  />
              </VectorParam>
              <VectorParam id="2025"  name="shear">
               <InterpolatingParam id="2026" interp="linr"  time="-9999999/1" value="0" leadInLength="0/1"  />
               <InterpolatingParam id="2027" interp="linr"  time="-9999999/1" value="0" leadInLength="0/1"  />
               <InterpolatingParam id="2028" interp="linr"  time="-9999999/1" value="0" leadInLength="0/1"  />
              </VectorParam>
              <VectorParam id="2029"  name="scale">
               <InterpolatingParam id="2030" interp="linr"  time="-9999999/1" value="1" leadInLength="0/1"  />
               <InterpolatingParam id="2031" interp="linr"  time="-9999999/1" value="1" leadInLength="0/1"  />
               <InterpolatingParam id="2032" interp="linr"  time="-9999999/1" value="1" leadInLength="0/1"  />
              </VectorParam>
              <VectorParam id="2033"  name="anchor">
               <InterpolatingParam id="2034" interp="linr"  time="0/1" value="0" leadInLength="0/1"  />
               <InterpolatingParam id="2035" interp="linr"  time="0/1" value="0" leadInLength="0/1"  />
               <InterpolatingParam id="2036" interp="linr"  time="0/1" value="0" leadInLength="0/1"  />
              </VectorParam>
             </Transformer>
             <Parameters>
              <VectorParam id="2037"  name="sourceCrop">
               <InterpolatingParam id="2038" interp="linr"  time="0/1" value="0" leadInLength="0/1"  />
               <InterpolatingParam id="2039" interp="linr"  time="0/1" value="0" leadInLength="0/1"  />
               <InterpolatingParam id="2040" interp="linr"  time="0/1" value="0" leadInLength="0/1"  />
               <InterpolatingParam id="2041" interp="linr"  time="0/1" value="0" leadInLength="0/1"  />
              </VectorParam>
              <VectorParam id="2042"  name="geometryCrop">
               <InterpolatingParam id="2043" interp="linr"  time="-9999999/1" value="0" leadInLength="0/1"  />
               <InterpolatingParam id="2044" interp="linr"  time="-9999999/1" value="0" leadInLength="0/1"  />
               <InterpolatingParam id="2045" interp="linr"  time="-9999999/1" value="0" leadInLength="0/1"  />
               <InterpolatingParam id="2046" interp="linr"  time="-9999999/1" value="0" leadInLength="0/1"  />
              </VectorParam>
              <InterpolatingParam id="2047" interp="linr"  time="-9999999/1" value="1" leadInLength="0/1"  name="opacity"/>
              <InterpolatingParam id="2048" interp="linr"  time="0/1" value="0" leadInLength="0/1"  name="cursorOpacity"/>
              <InterpolatingParam id="2049" interp="linr"  time="0/1" value="0" leadInLength="0/1"  name="cursorScale"/>
             </Parameters>
             <Attributes>
              <Attribute id="2050" value="" name="ident"/>
             </Attributes>
             <ExtraData>
              <Entry key="ZoomPanBin">
               <ZoomPanBin id="2051"  >
                <ZoomPanKeyframes>
                 <ZoomPanKeyframe id="2052" timeRangeEnd="-9999999/1" timeRangeDuration="0/1" interpolaterName=""  />
                </ZoomPanKeyframes>
               </ZoomPanBin>
              </Entry>
              <Entry key="CursorEffectBin">
               <CursorEffectBin id="2053"  >
                <CursorEffectKeyframes>
                </CursorEffectKeyframes>
               </CursorEffectBin>
              </Entry>
             </ExtraData>
            </ScreenVMFile>
            <MetaData>
             <entry key="AutoAppliedSmartFocus" val="False"/>
             <entry key="WinSubProjectDisplayName" val=""/>
            </MetaData>
           </UnifiedMedia>
           <UnifiedMedia id="2054"  >
            <AMFile id="2055" start="6789" duration="62" scalar="1/1" mediaStart="11452/1" mediaDuration="62/1" trackNumber="1" src="4" channelNumber="0,1" >
             <Parameters>
              <InterpolatingParam id="2056" interp="linr"  time="0/1" value="1" leadInLength="0/1"  name="volume"/>
              <Parameter id="2057"  name="captions"/>
             </Parameters>
             <Attributes>
              <Attribute id="2058" value="" name="ident"/>
              <Attribute id="2059" value="44100" name="sampleRate"/>
              <Attribute id="2060" value="16" name="bitDepth"/>
              <Attribute id="2061" value="1" name="gain"/>
              <Attribute id="2062" value="0" name="mixToMono"/>
             </Attributes>
            </AMFile>
            <ScreenVMFile id="2063" start="6789" duration="62" scalar="1/1" mediaStart="11452/1" mediaDuration="62/1" trackNumber="0" src="4" >
             <Transformer>
              <VectorParam id="2064"  name="translation">
               <InterpolatingParam id="2065" interp="linr"  time="-9999999/1" value="0" leadInLength="0/1"  />
               <InterpolatingParam id="2066" interp="linr"  time="-9999999/1" value="0" leadInLength="0/1"  />
               <InterpolatingParam id="2067" interp="linr"  time="-9999999/1" value="0" leadInLength="0/1"  />
              </VectorParam>
              <VectorParam id="2068"  name="rotation">
               <InterpolatingParam id="2069" interp="linr"  time="-9999999/1" value="0" leadInLength="0/1"  />
               <InterpolatingParam id="2070" interp="linr"  time="-9999999/1" value="0" leadInLength="0/1"  />
               <InterpolatingParam id="2071" interp="linr"  time="-9999999/1" value="0" leadInLength="0/1"  />
              </VectorParam>
              <VectorParam id="2072"  name="shear">
               <InterpolatingParam id="2073" interp="linr"  time="-9999999/1" value="0" leadInLength="0/1"  />
               <InterpolatingParam id="2074" interp="linr"  time="-9999999/1" value="0" leadInLength="0/1"  />
               <InterpolatingParam id="2075" interp="linr"  time="-9999999/1" value="0" leadInLength="0/1"  />
              </VectorParam>
              <VectorParam id="2076"  name="scale">
               <InterpolatingParam id="2077" interp="linr"  time="-9999999/1" value="1" leadInLength="0/1"  />
               <InterpolatingParam id="2078" interp="linr"  time="-9999999/1" value="1" leadInLength="0/1"  />
               <InterpolatingParam id="2079" interp="linr"  time="-9999999/1" value="1" leadInLength="0/1"  />
              </VectorParam>
              <VectorParam id="2080"  name="anchor">
               <InterpolatingParam id="2081" interp="linr"  time="0/1" value="0" leadInLength="0/1"  />
               <InterpolatingParam id="2082" interp="linr"  time="0/1" value="0" leadInLength="0/1"  />
               <InterpolatingParam id="2083" interp="linr"  time="0/1" value="0" leadInLength="0/1"  />
              </VectorParam>
             </Transformer>
             <Parameters>
              <VectorParam id="2084"  name="sourceCrop">
               <InterpolatingParam id="2085" interp="linr"  time="0/1" value="0" leadInLength="0/1"  />
               <InterpolatingParam id="2086" interp="linr"  time="0/1" value="0" leadInLength="0/1"  />
               <InterpolatingParam id="2087" interp="linr"  time="0/1" value="0" leadInLength="0/1"  />
               <InterpolatingParam id="2088" interp="linr"  time="0/1" value="0" leadInLength="0/1"  />
              </VectorParam>
              <VectorParam id="2089"  name="geometryCrop">
               <InterpolatingParam id="2090" interp="linr"  time="-9999999/1" value="0" leadInLength="0/1"  />
               <InterpolatingParam id="2091" interp="linr"  time="-9999999/1" value="0" leadInLength="0/1"  />
               <InterpolatingParam id="2092" interp="linr"  time="-9999999/1" value="0" leadInLength="0/1"  />
               <InterpolatingParam id="2093" interp="linr"  time="-9999999/1" value="0" leadInLength="0/1"  />
              </VectorParam>
              <InterpolatingParam id="2094" interp="linr"  time="-9999999/1" value="1" leadInLength="0/1"  name="opacity"/>
              <InterpolatingParam id="2095" interp="linr"  time="0/1" value="0" leadInLength="0/1"  name="cursorOpacity"/>
              <InterpolatingParam id="2096" interp="linr"  time="0/1" value="0" leadInLength="0/1"  name="cursorScale"/>
             </Parameters>
             <Attributes>
              <Attribute id="2097" value="" name="ident"/>
             </Attributes>
             <ExtraData>
              <Entry key="ZoomPanBin">
               <ZoomPanBin id="2098"  >
                <ZoomPanKeyframes>
                 <ZoomPanKeyframe id="2099" timeRangeEnd="-9999999/1" timeRangeDuration="0/1" interpolaterName=""  />
                </ZoomPanKeyframes>
               </ZoomPanBin>
              </Entry>
              <Entry key="CursorEffectBin">
               <CursorEffectBin id="2100"  >
                <CursorEffectKeyframes>
                </CursorEffectKeyframes>
               </CursorEffectBin>
              </Entry>
             </ExtraData>
            </ScreenVMFile>
            <MetaData>
             <entry key="AutoAppliedSmartFocus" val="False"/>
             <entry key="WinSubProjectDisplayName" val=""/>
            </MetaData>
           </UnifiedMedia>
           <UnifiedMedia id="2101"  >
            <AMFile id="2102" start="6851" duration="325" scalar="1/1" mediaStart="11576/1" mediaDuration="325/1" trackNumber="1" src="4" channelNumber="0,1" >
             <Parameters>
              <InterpolatingParam id="2103" interp="linr"  time="0/1" value="1" leadInLength="0/1"  name="volume"/>
              <Parameter id="2104"  name="captions"/>
             </Parameters>
             <Attributes>
              <Attribute id="2105" value="" name="ident"/>
              <Attribute id="2106" value="44100" name="sampleRate"/>
              <Attribute id="2107" value="16" name="bitDepth"/>
              <Attribute id="2108" value="1" name="gain"/>
              <Attribute id="2109" value="0" name="mixToMono"/>
             </Attributes>
            </AMFile>
            <ScreenVMFile id="2110" start="6851" duration="325" scalar="1/1" mediaStart="11576/1" mediaDuration="325/1" trackNumber="0" src="4" >
             <Transformer>
              <VectorParam id="2111"  name="translation">
               <InterpolatingParam id="2112" interp="linr"  time="-9999999/1" value="0" leadInLength="0/1"  />
               <InterpolatingParam id="2113" interp="linr"  time="-9999999/1" value="0" leadInLength="0/1"  />
               <InterpolatingParam id="2114" interp="linr"  time="-9999999/1" value="0" leadInLength="0/1"  />
              </VectorParam>
              <VectorParam id="2115"  name="rotation">
               <InterpolatingParam id="2116" interp="linr"  time="-9999999/1" value="0" leadInLength="0/1"  />
               <InterpolatingParam id="2117" interp="linr"  time="-9999999/1" value="0" leadInLength="0/1"  />
               <InterpolatingParam id="2118" interp="linr"  time="-9999999/1" value="0" leadInLength="0/1"  />
              </VectorParam>
              <VectorParam id="2119"  name="shear">
               <InterpolatingParam id="2120" interp="linr"  time="-9999999/1" value="0" leadInLength="0/1"  />
               <InterpolatingParam id="2121" interp="linr"  time="-9999999/1" value="0" leadInLength="0/1"  />
               <InterpolatingParam id="2122" interp="linr"  time="-9999999/1" value="0" leadInLength="0/1"  />
              </VectorParam>
              <VectorParam id="2123"  name="scale">
               <InterpolatingParam id="2124" interp="linr"  time="-9999999/1" value="1" leadInLength="0/1"  />
               <InterpolatingParam id="2125" interp="linr"  time="-9999999/1" value="1" leadInLength="0/1"  />
               <InterpolatingParam id="2126" interp="linr"  time="-9999999/1" value="1" leadInLength="0/1"  />
              </VectorParam>
              <VectorParam id="2127"  name="anchor">
               <InterpolatingParam id="2128" interp="linr"  time="0/1" value="0" leadInLength="0/1"  />
               <InterpolatingParam id="2129" interp="linr"  time="0/1" value="0" leadInLength="0/1"  />
               <InterpolatingParam id="2130" interp="linr"  time="0/1" value="0" leadInLength="0/1"  />
              </VectorParam>
             </Transformer>
             <Parameters>
              <VectorParam id="2131"  name="sourceCrop">
               <InterpolatingParam id="2132" interp="linr"  time="0/1" value="0" leadInLength="0/1"  />
               <InterpolatingParam id="2133" interp="linr"  time="0/1" value="0" leadInLength="0/1"  />
               <InterpolatingParam id="2134" interp="linr"  time="0/1" value="0" leadInLength="0/1"  />
               <InterpolatingParam id="2135" interp="linr"  time="0/1" value="0" leadInLength="0/1"  />
              </VectorParam>
              <VectorParam id="2136"  name="geometryCrop">
               <InterpolatingParam id="2137" interp="linr"  time="-9999999/1" value="0" leadInLength="0/1"  />
               <InterpolatingParam id="2138" interp="linr"  time="-9999999/1" value="0" leadInLength="0/1"  />
               <InterpolatingParam id="2139" interp="linr"  time="-9999999/1" value="0" leadInLength="0/1"  />
               <InterpolatingParam id="2140" interp="linr"  time="-9999999/1" value="0" leadInLength="0/1"  />
              </VectorParam>
              <InterpolatingParam id="2141" interp="linr"  time="-9999999/1" value="1" leadInLength="0/1"  name="opacity"/>
              <InterpolatingParam id="2142" interp="linr"  time="0/1" value="0" leadInLength="0/1"  name="cursorOpacity"/>
              <InterpolatingParam id="2143" interp="linr"  time="0/1" value="0" leadInLength="0/1"  name="cursorScale"/>
             </Parameters>
             <Attributes>
              <Attribute id="2144" value="" name="ident"/>
             </Attributes>
             <ExtraData>
              <Entry key="ZoomPanBin">
               <ZoomPanBin id="2145"  >
                <ZoomPanKeyframes>
                 <ZoomPanKeyframe id="2146" timeRangeEnd="-9999999/1" timeRangeDuration="0/1" interpolaterName=""  />
                </ZoomPanKeyframes>
               </ZoomPanBin>
              </Entry>
              <Entry key="CursorEffectBin">
               <CursorEffectBin id="2147"  >
                <CursorEffectKeyframes>
                </CursorEffectKeyframes>
               </CursorEffectBin>
              </Entry>
             </ExtraData>
            </ScreenVMFile>
            <MetaData>
             <entry key="AutoAppliedSmartFocus" val="False"/>
             <entry key="WinSubProjectDisplayName" val=""/>
            </MetaData>
           </UnifiedMedia>
           <UnifiedMedia id="2148"  >
            <AMFile id="2149" start="7176" duration="68" scalar="1/1" mediaStart="11911/1" mediaDuration="68/1" trackNumber="1" src="4" channelNumber="0,1" >
             <Parameters>
              <InterpolatingParam id="2150" interp="linr"  time="0/1" value="1" leadInLength="0/1"  name="volume"/>
              <Parameter id="2151"  name="captions"/>
             </Parameters>
             <Attributes>
              <Attribute id="2152" value="" name="ident"/>
              <Attribute id="2153" value="44100" name="sampleRate"/>
              <Attribute id="2154" value="16" name="bitDepth"/>
              <Attribute id="2155" value="1" name="gain"/>
              <Attribute id="2156" value="0" name="mixToMono"/>
             </Attributes>
            </AMFile>
            <ScreenVMFile id="2157" start="7176" duration="68" scalar="1/1" mediaStart="11911/1" mediaDuration="68/1" trackNumber="0" src="4" >
             <Transformer>
              <VectorParam id="2158"  name="translation">
               <InterpolatingParam id="2159" interp="linr"  time="-9999999/1" value="0" leadInLength="0/1"  />
               <InterpolatingParam id="2160" interp="linr"  time="-9999999/1" value="0" leadInLength="0/1"  />
               <InterpolatingParam id="2161" interp="linr"  time="-9999999/1" value="0" leadInLength="0/1"  />
              </VectorParam>
              <VectorParam id="2162"  name="rotation">
               <InterpolatingParam id="2163" interp="linr"  time="-9999999/1" value="0" leadInLength="0/1"  />
               <InterpolatingParam id="2164" interp="linr"  time="-9999999/1" value="0" leadInLength="0/1"  />
               <InterpolatingParam id="2165" interp="linr"  time="-9999999/1" value="0" leadInLength="0/1"  />
              </VectorParam>
              <VectorParam id="2166"  name="shear">
               <InterpolatingParam id="2167" interp="linr"  time="-9999999/1" value="0" leadInLength="0/1"  />
               <InterpolatingParam id="2168" interp="linr"  time="-9999999/1" value="0" leadInLength="0/1"  />
               <InterpolatingParam id="2169" interp="linr"  time="-9999999/1" value="0" leadInLength="0/1"  />
              </VectorParam>
              <VectorParam id="2170"  name="scale">
               <InterpolatingParam id="2171" interp="linr"  time="-9999999/1" value="1" leadInLength="0/1"  />
               <InterpolatingParam id="2172" interp="linr"  time="-9999999/1" value="1" leadInLength="0/1"  />
               <InterpolatingParam id="2173" interp="linr"  time="-9999999/1" value="1" leadInLength="0/1"  />
              </VectorParam>
              <VectorParam id="2174"  name="anchor">
               <InterpolatingParam id="2175" interp="linr"  time="0/1" value="0" leadInLength="0/1"  />
               <InterpolatingParam id="2176" interp="linr"  time="0/1" value="0" leadInLength="0/1"  />
               <InterpolatingParam id="2177" interp="linr"  time="0/1" value="0" leadInLength="0/1"  />
              </VectorParam>
             </Transformer>
             <Parameters>
              <VectorParam id="2178"  name="sourceCrop">
               <InterpolatingParam id="2179" interp="linr"  time="0/1" value="0" leadInLength="0/1"  />
               <InterpolatingParam id="2180" interp="linr"  time="0/1" value="0" leadInLength="0/1"  />
               <InterpolatingParam id="2181" interp="linr"  time="0/1" value="0" leadInLength="0/1"  />
               <InterpolatingParam id="2182" interp="linr"  time="0/1" value="0" leadInLength="0/1"  />
              </VectorParam>
              <VectorParam id="2183"  name="geometryCrop">
               <InterpolatingParam id="2184" interp="linr"  time="-9999999/1" value="0" leadInLength="0/1"  />
               <InterpolatingParam id="2185" interp="linr"  time="-9999999/1" value="0" leadInLength="0/1"  />
               <InterpolatingParam id="2186" interp="linr"  time="-9999999/1" value="0" leadInLength="0/1"  />
               <InterpolatingParam id="2187" interp="linr"  time="-9999999/1" value="0" leadInLength="0/1"  />
              </VectorParam>
              <InterpolatingParam id="2188" interp="linr"  time="-9999999/1" value="1" leadInLength="0/1"  name="opacity"/>
              <InterpolatingParam id="2189" interp="linr"  time="0/1" value="0" leadInLength="0/1"  name="cursorOpacity"/>
              <InterpolatingParam id="2190" interp="linr"  time="0/1" value="0" leadInLength="0/1"  name="cursorScale"/>
             </Parameters>
             <Attributes>
              <Attribute id="2191" value="" name="ident"/>
             </Attributes>
             <ExtraData>
              <Entry key="ZoomPanBin">
               <ZoomPanBin id="2192"  >
                <ZoomPanKeyframes>
                 <ZoomPanKeyframe id="2193" timeRangeEnd="-9999999/1" timeRangeDuration="0/1" interpolaterName=""  />
                </ZoomPanKeyframes>
               </ZoomPanBin>
              </Entry>
              <Entry key="CursorEffectBin">
               <CursorEffectBin id="2194"  >
                <CursorEffectKeyframes>
                </CursorEffectKeyframes>
               </CursorEffectBin>
              </Entry>
             </ExtraData>
            </ScreenVMFile>
            <MetaData>
             <entry key="AutoAppliedSmartFocus" val="False"/>
             <entry key="WinSubProjectDisplayName" val=""/>
            </MetaData>
           </UnifiedMedia>
           <UnifiedMedia id="2195"  >
            <AMFile id="2196" start="7244" duration="209" scalar="1/1" mediaStart="12160/1" mediaDuration="209/1" trackNumber="1" src="4" channelNumber="0,1" >
             <Parameters>
              <InterpolatingParam id="2197" interp="linr"  time="0/1" value="1" leadInLength="0/1"  name="volume"/>
              <Parameter id="2198"  name="captions"/>
             </Parameters>
             <Attributes>
              <Attribute id="2199" value="" name="ident"/>
              <Attribute id="2200" value="44100" name="sampleRate"/>
              <Attribute id="2201" value="16" name="bitDepth"/>
              <Attribute id="2202" value="1" name="gain"/>
              <Attribute id="2203" value="0" name="mixToMono"/>
             </Attributes>
            </AMFile>
            <ScreenVMFile id="2204" start="7244" duration="209" scalar="1/1" mediaStart="12160/1" mediaDuration="209/1" trackNumber="0" src="4" >
             <Transformer>
              <VectorParam id="2205"  name="translation">
               <InterpolatingParam id="2206" interp="linr"  time="-9999999/1" value="0" leadInLength="0/1"  />
               <InterpolatingParam id="2207" interp="linr"  time="-9999999/1" value="0" leadInLength="0/1"  />
               <InterpolatingParam id="2208" interp="linr"  time="-9999999/1" value="0" leadInLength="0/1"  />
              </VectorParam>
              <VectorParam id="2209"  name="rotation">
               <InterpolatingParam id="2210" interp="linr"  time="-9999999/1" value="0" leadInLength="0/1"  />
               <InterpolatingParam id="2211" interp="linr"  time="-9999999/1" value="0" leadInLength="0/1"  />
               <InterpolatingParam id="2212" interp="linr"  time="-9999999/1" value="0" leadInLength="0/1"  />
              </VectorParam>
              <VectorParam id="2213"  name="shear">
               <InterpolatingParam id="2214" interp="linr"  time="-9999999/1" value="0" leadInLength="0/1"  />
               <InterpolatingParam id="2215" interp="linr"  time="-9999999/1" value="0" leadInLength="0/1"  />
               <InterpolatingParam id="2216" interp="linr"  time="-9999999/1" value="0" leadInLength="0/1"  />
              </VectorParam>
              <VectorParam id="2217"  name="scale">
               <InterpolatingParam id="2218" interp="linr"  time="-9999999/1" value="1" leadInLength="0/1"  />
               <InterpolatingParam id="2219" interp="linr"  time="-9999999/1" value="1" leadInLength="0/1"  />
               <InterpolatingParam id="2220" interp="linr"  time="-9999999/1" value="1" leadInLength="0/1"  />
              </VectorParam>
              <VectorParam id="2221"  name="anchor">
               <InterpolatingParam id="2222" interp="linr"  time="0/1" value="0" leadInLength="0/1"  />
               <InterpolatingParam id="2223" interp="linr"  time="0/1" value="0" leadInLength="0/1"  />
               <InterpolatingParam id="2224" interp="linr"  time="0/1" value="0" leadInLength="0/1"  />
              </VectorParam>
             </Transformer>
             <Parameters>
              <VectorParam id="2225"  name="sourceCrop">
               <InterpolatingParam id="2226" interp="linr"  time="0/1" value="0" leadInLength="0/1"  />
               <InterpolatingParam id="2227" interp="linr"  time="0/1" value="0" leadInLength="0/1"  />
               <InterpolatingParam id="2228" interp="linr"  time="0/1" value="0" leadInLength="0/1"  />
               <InterpolatingParam id="2229" interp="linr"  time="0/1" value="0" leadInLength="0/1"  />
              </VectorParam>
              <VectorParam id="2230"  name="geometryCrop">
               <InterpolatingParam id="2231" interp="linr"  time="-9999999/1" value="0" leadInLength="0/1"  />
               <InterpolatingParam id="2232" interp="linr"  time="-9999999/1" value="0" leadInLength="0/1"  />
               <InterpolatingParam id="2233" interp="linr"  time="-9999999/1" value="0" leadInLength="0/1"  />
               <InterpolatingParam id="2234" interp="linr"  time="-9999999/1" value="0" leadInLength="0/1"  />
              </VectorParam>
              <InterpolatingParam id="2235" interp="linr"  time="-9999999/1" value="1" leadInLength="0/1"  name="opacity"/>
              <InterpolatingParam id="2236" interp="linr"  time="0/1" value="0" leadInLength="0/1"  name="cursorOpacity"/>
              <InterpolatingParam id="2237" interp="linr"  time="0/1" value="0" leadInLength="0/1"  name="cursorScale"/>
             </Parameters>
             <Attributes>
              <Attribute id="2238" value="" name="ident"/>
             </Attributes>
             <ExtraData>
              <Entry key="ZoomPanBin">
               <ZoomPanBin id="2239"  >
                <ZoomPanKeyframes>
                 <ZoomPanKeyframe id="2240" timeRangeEnd="-9999999/1" timeRangeDuration="0/1" interpolaterName=""  />
                </ZoomPanKeyframes>
               </ZoomPanBin>
              </Entry>
              <Entry key="CursorEffectBin">
               <CursorEffectBin id="2241"  >
                <CursorEffectKeyframes>
                </CursorEffectKeyframes>
               </CursorEffectBin>
              </Entry>
             </ExtraData>
            </ScreenVMFile>
            <MetaData>
             <entry key="AutoAppliedSmartFocus" val="False"/>
             <entry key="WinSubProjectDisplayName" val=""/>
            </MetaData>
           </UnifiedMedia>
           <UnifiedMedia id="2242"  >
            <AMFile id="2243" start="7453" duration="20" scalar="1/1" mediaStart="12381/1" mediaDuration="20/1" trackNumber="1" src="4" channelNumber="0,1" >
             <Parameters>
              <InterpolatingParam id="2244" interp="linr"  time="0/1" value="1" leadInLength="0/1"  name="volume"/>
              <Parameter id="2245"  name="captions"/>
             </Parameters>
             <Attributes>
              <Attribute id="2246" value="" name="ident"/>
              <Attribute id="2247" value="44100" name="sampleRate"/>
              <Attribute id="2248" value="16" name="bitDepth"/>
              <Attribute id="2249" value="1" name="gain"/>
              <Attribute id="2250" value="0" name="mixToMono"/>
             </Attributes>
            </AMFile>
            <ScreenVMFile id="2251" start="7453" duration="20" scalar="1/1" mediaStart="12381/1" mediaDuration="20/1" trackNumber="0" src="4" >
             <Transformer>
              <VectorParam id="2252"  name="translation">
               <InterpolatingParam id="2253" interp="linr"  time="-9999999/1" value="0" leadInLength="0/1"  />
               <InterpolatingParam id="2254" interp="linr"  time="-9999999/1" value="0" leadInLength="0/1"  />
               <InterpolatingParam id="2255" interp="linr"  time="-9999999/1" value="0" leadInLength="0/1"  />
              </VectorParam>
              <VectorParam id="2256"  name="rotation">
               <InterpolatingParam id="2257" interp="linr"  time="-9999999/1" value="0" leadInLength="0/1"  />
               <InterpolatingParam id="2258" interp="linr"  time="-9999999/1" value="0" leadInLength="0/1"  />
               <InterpolatingParam id="2259" interp="linr"  time="-9999999/1" value="0" leadInLength="0/1"  />
              </VectorParam>
              <VectorParam id="2260"  name="shear">
               <InterpolatingParam id="2261" interp="linr"  time="-9999999/1" value="0" leadInLength="0/1"  />
               <InterpolatingParam id="2262" interp="linr"  time="-9999999/1" value="0" leadInLength="0/1"  />
               <InterpolatingParam id="2263" interp="linr"  time="-9999999/1" value="0" leadInLength="0/1"  />
              </VectorParam>
              <VectorParam id="2264"  name="scale">
               <InterpolatingParam id="2265" interp="linr"  time="-9999999/1" value="1" leadInLength="0/1"  />
               <InterpolatingParam id="2266" interp="linr"  time="-9999999/1" value="1" leadInLength="0/1"  />
               <InterpolatingParam id="2267" interp="linr"  time="-9999999/1" value="1" leadInLength="0/1"  />
              </VectorParam>
              <VectorParam id="2268"  name="anchor">
               <InterpolatingParam id="2269" interp="linr"  time="0/1" value="0" leadInLength="0/1"  />
               <InterpolatingParam id="2270" interp="linr"  time="0/1" value="0" leadInLength="0/1"  />
               <InterpolatingParam id="2271" interp="linr"  time="0/1" value="0" leadInLength="0/1"  />
              </VectorParam>
             </Transformer>
             <Parameters>
              <VectorParam id="2272"  name="sourceCrop">
               <InterpolatingParam id="2273" interp="linr"  time="0/1" value="0" leadInLength="0/1"  />
               <InterpolatingParam id="2274" interp="linr"  time="0/1" value="0" leadInLength="0/1"  />
               <InterpolatingParam id="2275" interp="linr"  time="0/1" value="0" leadInLength="0/1"  />
               <InterpolatingParam id="2276" interp="linr"  time="0/1" value="0" leadInLength="0/1"  />
              </VectorParam>
              <VectorParam id="2277"  name="geometryCrop">
               <InterpolatingParam id="2278" interp="linr"  time="-9999999/1" value="0" leadInLength="0/1"  />
               <InterpolatingParam id="2279" interp="linr"  time="-9999999/1" value="0" leadInLength="0/1"  />
               <InterpolatingParam id="2280" interp="linr"  time="-9999999/1" value="0" leadInLength="0/1"  />
               <InterpolatingParam id="2281" interp="linr"  time="-9999999/1" value="0" leadInLength="0/1"  />
              </VectorParam>
              <InterpolatingParam id="2282" interp="linr"  time="-9999999/1" value="1" leadInLength="0/1"  name="opacity"/>
              <InterpolatingParam id="2283" interp="linr"  time="0/1" value="0" leadInLength="0/1"  name="cursorOpacity"/>
              <InterpolatingParam id="2284" interp="linr"  time="0/1" value="0" leadInLength="0/1"  name="cursorScale"/>
             </Parameters>
             <Attributes>
              <Attribute id="2285" value="" name="ident"/>
             </Attributes>
             <ExtraData>
              <Entry key="ZoomPanBin">
               <ZoomPanBin id="2286"  >
                <ZoomPanKeyframes>
                 <ZoomPanKeyframe id="2287" timeRangeEnd="-9999999/1" timeRangeDuration="0/1" interpolaterName=""  />
                </ZoomPanKeyframes>
               </ZoomPanBin>
              </Entry>
              <Entry key="CursorEffectBin">
               <CursorEffectBin id="2288"  >
                <CursorEffectKeyframes>
                </CursorEffectKeyframes>
               </CursorEffectBin>
              </Entry>
             </ExtraData>
            </ScreenVMFile>
            <MetaData>
             <entry key="AutoAppliedSmartFocus" val="False"/>
             <entry key="WinSubProjectDisplayName" val=""/>
            </MetaData>
           </UnifiedMedia>
           <UnifiedMedia id="2289"  >
            <AMFile id="2290" start="7473" duration="395" scalar="1/1" mediaStart="12418/1" mediaDuration="395/1" trackNumber="1" src="4" channelNumber="0,1" >
             <Parameters>
              <InterpolatingParam id="2291" interp="linr"  time="0/1" value="1" leadInLength="0/1"  name="volume"/>
              <Parameter id="2292"  name="captions"/>
             </Parameters>
             <Attributes>
              <Attribute id="2293" value="" name="ident"/>
              <Attribute id="2294" value="44100" name="sampleRate"/>
              <Attribute id="2295" value="16" name="bitDepth"/>
              <Attribute id="2296" value="1" name="gain"/>
              <Attribute id="2297" value="0" name="mixToMono"/>
             </Attributes>
            </AMFile>
            <ScreenVMFile id="2298" start="7473" duration="395" scalar="1/1" mediaStart="12418/1" mediaDuration="395/1" trackNumber="0" src="4" >
             <Transformer>
              <VectorParam id="2299"  name="translation">
               <InterpolatingParam id="2300" interp="linr"  time="-9999999/1" value="0" leadInLength="0/1"  />
               <InterpolatingParam id="2301" interp="linr"  time="-9999999/1" value="0" leadInLength="0/1"  />
               <InterpolatingParam id="2302" interp="linr"  time="-9999999/1" value="0" leadInLength="0/1"  />
              </VectorParam>
              <VectorParam id="2303"  name="rotation">
               <InterpolatingParam id="2304" interp="linr"  time="-9999999/1" value="0" leadInLength="0/1"  />
               <InterpolatingParam id="2305" interp="linr"  time="-9999999/1" value="0" leadInLength="0/1"  />
               <InterpolatingParam id="2306" interp="linr"  time="-9999999/1" value="0" leadInLength="0/1"  />
              </VectorParam>
              <VectorParam id="2307"  name="shear">
               <InterpolatingParam id="2308" interp="linr"  time="-9999999/1" value="0" leadInLength="0/1"  />
               <InterpolatingParam id="2309" interp="linr"  time="-9999999/1" value="0" leadInLength="0/1"  />
               <InterpolatingParam id="2310" interp="linr"  time="-9999999/1" value="0" leadInLength="0/1"  />
              </VectorParam>
              <VectorParam id="2311"  name="scale">
               <InterpolatingParam id="2312" interp="linr"  time="-9999999/1" value="1" leadInLength="0/1"  />
               <InterpolatingParam id="2313" interp="linr"  time="-9999999/1" value="1" leadInLength="0/1"  />
               <InterpolatingParam id="2314" interp="linr"  time="-9999999/1" value="1" leadInLength="0/1"  />
              </VectorParam>
              <VectorParam id="2315"  name="anchor">
               <InterpolatingParam id="2316" interp="linr"  time="0/1" value="0" leadInLength="0/1"  />
               <InterpolatingParam id="2317" interp="linr"  time="0/1" value="0" leadInLength="0/1"  />
               <InterpolatingParam id="2318" interp="linr"  time="0/1" value="0" leadInLength="0/1"  />
              </VectorParam>
             </Transformer>
             <Parameters>
              <VectorParam id="2319"  name="sourceCrop">
               <InterpolatingParam id="2320" interp="linr"  time="0/1" value="0" leadInLength="0/1"  />
               <InterpolatingParam id="2321" interp="linr"  time="0/1" value="0" leadInLength="0/1"  />
               <InterpolatingParam id="2322" interp="linr"  time="0/1" value="0" leadInLength="0/1"  />
               <InterpolatingParam id="2323" interp="linr"  time="0/1" value="0" leadInLength="0/1"  />
              </VectorParam>
              <VectorParam id="2324"  name="geometryCrop">
               <InterpolatingParam id="2325" interp="linr"  time="-9999999/1" value="0" leadInLength="0/1"  />
               <InterpolatingParam id="2326" interp="linr"  time="-9999999/1" value="0" leadInLength="0/1"  />
               <InterpolatingParam id="2327" interp="linr"  time="-9999999/1" value="0" leadInLength="0/1"  />
               <InterpolatingParam id="2328" interp="linr"  time="-9999999/1" value="0" leadInLength="0/1"  />
              </VectorParam>
              <InterpolatingParam id="2329" interp="linr"  time="-9999999/1" value="1" leadInLength="0/1"  name="opacity"/>
              <InterpolatingParam id="2330" interp="linr"  time="0/1" value="0" leadInLength="0/1"  name="cursorOpacity"/>
              <InterpolatingParam id="2331" interp="linr"  time="0/1" value="0" leadInLength="0/1"  name="cursorScale"/>
             </Parameters>
             <Attributes>
              <Attribute id="2332" value="" name="ident"/>
             </Attributes>
             <ExtraData>
              <Entry key="ZoomPanBin">
               <ZoomPanBin id="2333"  >
                <ZoomPanKeyframes>
                 <ZoomPanKeyframe id="2334" timeRangeEnd="-9999999/1" timeRangeDuration="0/1" interpolaterName=""  />
                </ZoomPanKeyframes>
               </ZoomPanBin>
              </Entry>
              <Entry key="CursorEffectBin">
               <CursorEffectBin id="2335"  >
                <CursorEffectKeyframes>
                </CursorEffectKeyframes>
               </CursorEffectBin>
              </Entry>
             </ExtraData>
            </ScreenVMFile>
            <MetaData>
             <entry key="AutoAppliedSmartFocus" val="False"/>
             <entry key="WinSubProjectDisplayName" val=""/>
            </MetaData>
           </UnifiedMedia>
           <UnifiedMedia id="2336"  >
            <AMFile id="2337" start="7868" duration="77" scalar="1/1" mediaStart="12910/1" mediaDuration="77/1" trackNumber="1" src="4" channelNumber="0,1" >
             <Parameters>
              <InterpolatingParam id="2338" interp="linr"  time="0/1" value="1" leadInLength="0/1"  name="volume"/>
              <Parameter id="2339"  name="captions"/>
             </Parameters>
             <Attributes>
              <Attribute id="2340" value="" name="ident"/>
              <Attribute id="2341" value="44100" name="sampleRate"/>
              <Attribute id="2342" value="16" name="bitDepth"/>
              <Attribute id="2343" value="1" name="gain"/>
              <Attribute id="2344" value="0" name="mixToMono"/>
             </Attributes>
            </AMFile>
            <ScreenVMFile id="2345" start="7868" duration="77" scalar="1/1" mediaStart="12910/1" mediaDuration="77/1" trackNumber="0" src="4" >
             <Transformer>
              <VectorParam id="2346"  name="translation">
               <InterpolatingParam id="2347" interp="linr"  time="-9999999/1" value="0" leadInLength="0/1"  />
               <InterpolatingParam id="2348" interp="linr"  time="-9999999/1" value="0" leadInLength="0/1"  />
               <InterpolatingParam id="2349" interp="linr"  time="-9999999/1" value="0" leadInLength="0/1"  />
              </VectorParam>
              <VectorParam id="2350"  name="rotation">
               <InterpolatingParam id="2351" interp="linr"  time="-9999999/1" value="0" leadInLength="0/1"  />
               <InterpolatingParam id="2352" interp="linr"  time="-9999999/1" value="0" leadInLength="0/1"  />
               <InterpolatingParam id="2353" interp="linr"  time="-9999999/1" value="0" leadInLength="0/1"  />
              </VectorParam>
              <VectorParam id="2354"  name="shear">
               <InterpolatingParam id="2355" interp="linr"  time="-9999999/1" value="0" leadInLength="0/1"  />
               <InterpolatingParam id="2356" interp="linr"  time="-9999999/1" value="0" leadInLength="0/1"  />
               <InterpolatingParam id="2357" interp="linr"  time="-9999999/1" value="0" leadInLength="0/1"  />
              </VectorParam>
              <VectorParam id="2358"  name="scale">
               <InterpolatingParam id="2359" interp="linr"  time="-9999999/1" value="1" leadInLength="0/1"  />
               <InterpolatingParam id="2360" interp="linr"  time="-9999999/1" value="1" leadInLength="0/1"  />
               <InterpolatingParam id="2361" interp="linr"  time="-9999999/1" value="1" leadInLength="0/1"  />
              </VectorParam>
              <VectorParam id="2362"  name="anchor">
               <InterpolatingParam id="2363" interp="linr"  time="0/1" value="0" leadInLength="0/1"  />
               <InterpolatingParam id="2364" interp="linr"  time="0/1" value="0" leadInLength="0/1"  />
               <InterpolatingParam id="2365" interp="linr"  time="0/1" value="0" leadInLength="0/1"  />
              </VectorParam>
             </Transformer>
             <Parameters>
              <VectorParam id="2366"  name="sourceCrop">
               <InterpolatingParam id="2367" interp="linr"  time="0/1" value="0" leadInLength="0/1"  />
               <InterpolatingParam id="2368" interp="linr"  time="0/1" value="0" leadInLength="0/1"  />
               <InterpolatingParam id="2369" interp="linr"  time="0/1" value="0" leadInLength="0/1"  />
               <InterpolatingParam id="2370" interp="linr"  time="0/1" value="0" leadInLength="0/1"  />
              </VectorParam>
              <VectorParam id="2371"  name="geometryCrop">
               <InterpolatingParam id="2372" interp="linr"  time="-9999999/1" value="0" leadInLength="0/1"  />
               <InterpolatingParam id="2373" interp="linr"  time="-9999999/1" value="0" leadInLength="0/1"  />
               <InterpolatingParam id="2374" interp="linr"  time="-9999999/1" value="0" leadInLength="0/1"  />
               <InterpolatingParam id="2375" interp="linr"  time="-9999999/1" value="0" leadInLength="0/1"  />
              </VectorParam>
              <InterpolatingParam id="2376" interp="linr"  time="-9999999/1" value="1" leadInLength="0/1"  name="opacity"/>
              <InterpolatingParam id="2377" interp="linr"  time="0/1" value="0" leadInLength="0/1"  name="cursorOpacity"/>
              <InterpolatingParam id="2378" interp="linr"  time="0/1" value="0" leadInLength="0/1"  name="cursorScale"/>
             </Parameters>
             <Attributes>
              <Attribute id="2379" value="" name="ident"/>
             </Attributes>
             <ExtraData>
              <Entry key="ZoomPanBin">
               <ZoomPanBin id="2380"  >
                <ZoomPanKeyframes>
                 <ZoomPanKeyframe id="2381" timeRangeEnd="-9999999/1" timeRangeDuration="0/1" interpolaterName=""  />
                </ZoomPanKeyframes>
               </ZoomPanBin>
              </Entry>
              <Entry key="CursorEffectBin">
               <CursorEffectBin id="2382"  >
                <CursorEffectKeyframes>
                </CursorEffectKeyframes>
               </CursorEffectBin>
              </Entry>
             </ExtraData>
            </ScreenVMFile>
            <MetaData>
             <entry key="AutoAppliedSmartFocus" val="False"/>
             <entry key="WinSubProjectDisplayName" val=""/>
            </MetaData>
           </UnifiedMedia>
           <UnifiedMedia id="2383"  >
            <AMFile id="2384" start="7945" duration="128" scalar="1/1" mediaStart="13006/1" mediaDuration="128/1" trackNumber="1" src="4" channelNumber="0,1" >
             <Parameters>
              <InterpolatingParam id="2385" interp="linr"  time="0/1" value="1" leadInLength="0/1"  name="volume"/>
              <Parameter id="2386"  name="captions"/>
             </Parameters>
             <Attributes>
              <Attribute id="2387" value="" name="ident"/>
              <Attribute id="2388" value="44100" name="sampleRate"/>
              <Attribute id="2389" value="16" name="bitDepth"/>
              <Attribute id="2390" value="1" name="gain"/>
              <Attribute id="2391" value="0" name="mixToMono"/>
             </Attributes>
            </AMFile>
            <ScreenVMFile id="2392" start="7945" duration="128" scalar="1/1" mediaStart="13006/1" mediaDuration="128/1" trackNumber="0" src="4" >
             <Transformer>
              <VectorParam id="2393"  name="translation">
               <InterpolatingParam id="2394" interp="linr"  time="-9999999/1" value="0" leadInLength="0/1"  />
               <InterpolatingParam id="2395" interp="linr"  time="-9999999/1" value="0" leadInLength="0/1"  />
               <InterpolatingParam id="2396" interp="linr"  time="-9999999/1" value="0" leadInLength="0/1"  />
              </VectorParam>
              <VectorParam id="2397"  name="rotation">
               <InterpolatingParam id="2398" interp="linr"  time="-9999999/1" value="0" leadInLength="0/1"  />
               <InterpolatingParam id="2399" interp="linr"  time="-9999999/1" value="0" leadInLength="0/1"  />
               <InterpolatingParam id="2400" interp="linr"  time="-9999999/1" value="0" leadInLength="0/1"  />
              </VectorParam>
              <VectorParam id="2401"  name="shear">
               <InterpolatingParam id="2402" interp="linr"  time="-9999999/1" value="0" leadInLength="0/1"  />
               <InterpolatingParam id="2403" interp="linr"  time="-9999999/1" value="0" leadInLength="0/1"  />
               <InterpolatingParam id="2404" interp="linr"  time="-9999999/1" value="0" leadInLength="0/1"  />
              </VectorParam>
              <VectorParam id="2405"  name="scale">
               <InterpolatingParam id="2406" interp="linr"  time="-9999999/1" value="1" leadInLength="0/1"  />
               <InterpolatingParam id="2407" interp="linr"  time="-9999999/1" value="1" leadInLength="0/1"  />
               <InterpolatingParam id="2408" interp="linr"  time="-9999999/1" value="1" leadInLength="0/1"  />
              </VectorParam>
              <VectorParam id="2409"  name="anchor">
               <InterpolatingParam id="2410" interp="linr"  time="0/1" value="0" leadInLength="0/1"  />
               <InterpolatingParam id="2411" interp="linr"  time="0/1" value="0" leadInLength="0/1"  />
               <InterpolatingParam id="2412" interp="linr"  time="0/1" value="0" leadInLength="0/1"  />
              </VectorParam>
             </Transformer>
             <Parameters>
              <VectorParam id="2413"  name="sourceCrop">
               <InterpolatingParam id="2414" interp="linr"  time="0/1" value="0" leadInLength="0/1"  />
               <InterpolatingParam id="2415" interp="linr"  time="0/1" value="0" leadInLength="0/1"  />
               <InterpolatingParam id="2416" interp="linr"  time="0/1" value="0" leadInLength="0/1"  />
               <InterpolatingParam id="2417" interp="linr"  time="0/1" value="0" leadInLength="0/1"  />
              </VectorParam>
              <VectorParam id="2418"  name="geometryCrop">
               <InterpolatingParam id="2419" interp="linr"  time="-9999999/1" value="0" leadInLength="0/1"  />
               <InterpolatingParam id="2420" interp="linr"  time="-9999999/1" value="0" leadInLength="0/1"  />
               <InterpolatingParam id="2421" interp="linr"  time="-9999999/1" value="0" leadInLength="0/1"  />
               <InterpolatingParam id="2422" interp="linr"  time="-9999999/1" value="0" leadInLength="0/1"  />
              </VectorParam>
              <InterpolatingParam id="2423" interp="linr"  time="-9999999/1" value="1" leadInLength="0/1"  name="opacity"/>
              <InterpolatingParam id="2424" interp="linr"  time="0/1" value="0" leadInLength="0/1"  name="cursorOpacity"/>
              <InterpolatingParam id="2425" interp="linr"  time="0/1" value="0" leadInLength="0/1"  name="cursorScale"/>
             </Parameters>
             <Attributes>
              <Attribute id="2426" value="" name="ident"/>
             </Attributes>
             <ExtraData>
              <Entry key="ZoomPanBin">
               <ZoomPanBin id="2427"  >
                <ZoomPanKeyframes>
                 <ZoomPanKeyframe id="2428" timeRangeEnd="-9999999/1" timeRangeDuration="0/1" interpolaterName=""  />
                </ZoomPanKeyframes>
               </ZoomPanBin>
              </Entry>
              <Entry key="CursorEffectBin">
               <CursorEffectBin id="2429"  >
                <CursorEffectKeyframes>
                </CursorEffectKeyframes>
               </CursorEffectBin>
              </Entry>
             </ExtraData>
            </ScreenVMFile>
            <MetaData>
             <entry key="AutoAppliedSmartFocus" val="False"/>
             <entry key="WinSubProjectDisplayName" val=""/>
            </MetaData>
           </UnifiedMedia>
           <UnifiedMedia id="2430"  >
            <AMFile id="2431" start="8073" duration="374" scalar="1/1" mediaStart="13196/1" mediaDuration="374/1" trackNumber="1" src="4" channelNumber="0,1" >
             <Parameters>
              <InterpolatingParam id="2432" interp="linr"  time="0/1" value="1" leadInLength="0/1"  name="volume"/>
              <Parameter id="2433"  name="captions"/>
             </Parameters>
             <Attributes>
              <Attribute id="2434" value="" name="ident"/>
              <Attribute id="2435" value="44100" name="sampleRate"/>
              <Attribute id="2436" value="16" name="bitDepth"/>
              <Attribute id="2437" value="1" name="gain"/>
              <Attribute id="2438" value="0" name="mixToMono"/>
             </Attributes>
            </AMFile>
            <ScreenVMFile id="2439" start="8073" duration="374" scalar="1/1" mediaStart="13196/1" mediaDuration="374/1" trackNumber="0" src="4" >
             <Transformer>
              <VectorParam id="2440"  name="translation">
               <InterpolatingParam id="2441" interp="linr"  time="-9999999/1" value="0" leadInLength="0/1"  />
               <InterpolatingParam id="2442" interp="linr"  time="-9999999/1" value="0" leadInLength="0/1"  />
               <InterpolatingParam id="2443" interp="linr"  time="-9999999/1" value="0" leadInLength="0/1"  />
              </VectorParam>
              <VectorParam id="2444"  name="rotation">
               <InterpolatingParam id="2445" interp="linr"  time="-9999999/1" value="0" leadInLength="0/1"  />
               <InterpolatingParam id="2446" interp="linr"  time="-9999999/1" value="0" leadInLength="0/1"  />
               <InterpolatingParam id="2447" interp="linr"  time="-9999999/1" value="0" leadInLength="0/1"  />
              </VectorParam>
              <VectorParam id="2448"  name="shear">
               <InterpolatingParam id="2449" interp="linr"  time="-9999999/1" value="0" leadInLength="0/1"  />
               <InterpolatingParam id="2450" interp="linr"  time="-9999999/1" value="0" leadInLength="0/1"  />
               <InterpolatingParam id="2451" interp="linr"  time="-9999999/1" value="0" leadInLength="0/1"  />
              </VectorParam>
              <VectorParam id="2452"  name="scale">
               <InterpolatingParam id="2453" interp="linr"  time="-9999999/1" value="1" leadInLength="0/1"  />
               <InterpolatingParam id="2454" interp="linr"  time="-9999999/1" value="1" leadInLength="0/1"  />
               <InterpolatingParam id="2455" interp="linr"  time="-9999999/1" value="1" leadInLength="0/1"  />
              </VectorParam>
              <VectorParam id="2456"  name="anchor">
               <InterpolatingParam id="2457" interp="linr"  time="0/1" value="0" leadInLength="0/1"  />
               <InterpolatingParam id="2458" interp="linr"  time="0/1" value="0" leadInLength="0/1"  />
               <InterpolatingParam id="2459" interp="linr"  time="0/1" value="0" leadInLength="0/1"  />
              </VectorParam>
             </Transformer>
             <Parameters>
              <VectorParam id="2460"  name="sourceCrop">
               <InterpolatingParam id="2461" interp="linr"  time="0/1" value="0" leadInLength="0/1"  />
               <InterpolatingParam id="2462" interp="linr"  time="0/1" value="0" leadInLength="0/1"  />
               <InterpolatingParam id="2463" interp="linr"  time="0/1" value="0" leadInLength="0/1"  />
               <InterpolatingParam id="2464" interp="linr"  time="0/1" value="0" leadInLength="0/1"  />
              </VectorParam>
              <VectorParam id="2465"  name="geometryCrop">
               <InterpolatingParam id="2466" interp="linr"  time="-9999999/1" value="0" leadInLength="0/1"  />
               <InterpolatingParam id="2467" interp="linr"  time="-9999999/1" value="0" leadInLength="0/1"  />
               <InterpolatingParam id="2468" interp="linr"  time="-9999999/1" value="0" leadInLength="0/1"  />
               <InterpolatingParam id="2469" interp="linr"  time="-9999999/1" value="0" leadInLength="0/1"  />
              </VectorParam>
              <InterpolatingParam id="2470" interp="linr"  time="-9999999/1" value="1" leadInLength="0/1"  name="opacity"/>
              <InterpolatingParam id="2471" interp="linr"  time="0/1" value="0" leadInLength="0/1"  name="cursorOpacity"/>
              <InterpolatingParam id="2472" interp="linr"  time="0/1" value="0" leadInLength="0/1"  name="cursorScale"/>
             </Parameters>
             <Attributes>
              <Attribute id="2473" value="" name="ident"/>
             </Attributes>
             <ExtraData>
              <Entry key="ZoomPanBin">
               <ZoomPanBin id="2474"  >
                <ZoomPanKeyframes>
                 <ZoomPanKeyframe id="2475" timeRangeEnd="-9999999/1" timeRangeDuration="0/1" interpolaterName=""  />
                </ZoomPanKeyframes>
               </ZoomPanBin>
              </Entry>
              <Entry key="CursorEffectBin">
               <CursorEffectBin id="2476"  >
                <CursorEffectKeyframes>
                </CursorEffectKeyframes>
               </CursorEffectBin>
              </Entry>
             </ExtraData>
            </ScreenVMFile>
            <MetaData>
             <entry key="AutoAppliedSmartFocus" val="False"/>
             <entry key="WinSubProjectDisplayName" val=""/>
            </MetaData>
           </UnifiedMedia>
           <UnifiedMedia id="2477"  >
            <AMFile id="2478" start="8447" duration="156" scalar="1/1" mediaStart="13794/1" mediaDuration="156/1" trackNumber="1" src="4" channelNumber="0,1" >
             <Parameters>
              <InterpolatingParam id="2479" interp="linr"  time="0/1" value="1" leadInLength="0/1"  name="volume"/>
              <Parameter id="2480"  name="captions"/>
             </Parameters>
             <Attributes>
              <Attribute id="2481" value="" name="ident"/>
              <Attribute id="2482" value="44100" name="sampleRate"/>
              <Attribute id="2483" value="16" name="bitDepth"/>
              <Attribute id="2484" value="1" name="gain"/>
              <Attribute id="2485" value="0" name="mixToMono"/>
             </Attributes>
            </AMFile>
            <ScreenVMFile id="2486" start="8447" duration="156" scalar="1/1" mediaStart="13794/1" mediaDuration="156/1" trackNumber="0" src="4" >
             <Transformer>
              <VectorParam id="2487"  name="translation">
               <InterpolatingParam id="2488" interp="linr"  time="-9999999/1" value="0" leadInLength="0/1"  />
               <InterpolatingParam id="2489" interp="linr"  time="-9999999/1" value="0" leadInLength="0/1"  />
               <InterpolatingParam id="2490" interp="linr"  time="-9999999/1" value="0" leadInLength="0/1"  />
              </VectorParam>
              <VectorParam id="2491"  name="rotation">
               <InterpolatingParam id="2492" interp="linr"  time="-9999999/1" value="0" leadInLength="0/1"  />
               <InterpolatingParam id="2493" interp="linr"  time="-9999999/1" value="0" leadInLength="0/1"  />
               <InterpolatingParam id="2494" interp="linr"  time="-9999999/1" value="0" leadInLength="0/1"  />
              </VectorParam>
              <VectorParam id="2495"  name="shear">
               <InterpolatingParam id="2496" interp="linr"  time="-9999999/1" value="0" leadInLength="0/1"  />
               <InterpolatingParam id="2497" interp="linr"  time="-9999999/1" value="0" leadInLength="0/1"  />
               <InterpolatingParam id="2498" interp="linr"  time="-9999999/1" value="0" leadInLength="0/1"  />
              </VectorParam>
              <VectorParam id="2499"  name="scale">
               <InterpolatingParam id="2500" interp="linr"  time="-9999999/1" value="1" leadInLength="0/1"  />
               <InterpolatingParam id="2501" interp="linr"  time="-9999999/1" value="1" leadInLength="0/1"  />
               <InterpolatingParam id="2502" interp="linr"  time="-9999999/1" value="1" leadInLength="0/1"  />
              </VectorParam>
              <VectorParam id="2503"  name="anchor">
               <InterpolatingParam id="2504" interp="linr"  time="0/1" value="0" leadInLength="0/1"  />
               <InterpolatingParam id="2505" interp="linr"  time="0/1" value="0" leadInLength="0/1"  />
               <InterpolatingParam id="2506" interp="linr"  time="0/1" value="0" leadInLength="0/1"  />
              </VectorParam>
             </Transformer>
             <Parameters>
              <VectorParam id="2507"  name="sourceCrop">
               <InterpolatingParam id="2508" interp="linr"  time="0/1" value="0" leadInLength="0/1"  />
               <InterpolatingParam id="2509" interp="linr"  time="0/1" value="0" leadInLength="0/1"  />
               <InterpolatingParam id="2510" interp="linr"  time="0/1" value="0" leadInLength="0/1"  />
               <InterpolatingParam id="2511" interp="linr"  time="0/1" value="0" leadInLength="0/1"  />
              </VectorParam>
              <VectorParam id="2512"  name="geometryCrop">
               <InterpolatingParam id="2513" interp="linr"  time="-9999999/1" value="0" leadInLength="0/1"  />
               <InterpolatingParam id="2514" interp="linr"  time="-9999999/1" value="0" leadInLength="0/1"  />
               <InterpolatingParam id="2515" interp="linr"  time="-9999999/1" value="0" leadInLength="0/1"  />
               <InterpolatingParam id="2516" interp="linr"  time="-9999999/1" value="0" leadInLength="0/1"  />
              </VectorParam>
              <InterpolatingParam id="2517" interp="linr"  time="-9999999/1" value="1" leadInLength="0/1"  name="opacity"/>
              <InterpolatingParam id="2518" interp="linr"  time="0/1" value="0" leadInLength="0/1"  name="cursorOpacity"/>
              <InterpolatingParam id="2519" interp="linr"  time="0/1" value="0" leadInLength="0/1"  name="cursorScale"/>
             </Parameters>
             <Attributes>
              <Attribute id="2520" value="" name="ident"/>
             </Attributes>
             <ExtraData>
              <Entry key="ZoomPanBin">
               <ZoomPanBin id="2521"  >
                <ZoomPanKeyframes>
                 <ZoomPanKeyframe id="2522" timeRangeEnd="-9999999/1" timeRangeDuration="0/1" interpolaterName=""  />
                </ZoomPanKeyframes>
               </ZoomPanBin>
              </Entry>
              <Entry key="CursorEffectBin">
               <CursorEffectBin id="2523"  >
                <CursorEffectKeyframes>
                </CursorEffectKeyframes>
               </CursorEffectBin>
              </Entry>
             </ExtraData>
            </ScreenVMFile>
            <MetaData>
             <entry key="AutoAppliedSmartFocus" val="False"/>
             <entry key="WinSubProjectDisplayName" val=""/>
            </MetaData>
           </UnifiedMedia>
           <UnifiedMedia id="2524"  >
            <AMFile id="2525" start="8603" duration="37" scalar="1/1" mediaStart="13956/1" mediaDuration="37/1" trackNumber="1" src="4" channelNumber="0,1" >
             <Parameters>
              <InterpolatingParam id="2526" interp="linr"  time="0/1" value="1" leadInLength="0/1"  name="volume"/>
              <Parameter id="2527"  name="captions"/>
             </Parameters>
             <Attributes>
              <Attribute id="2528" value="" name="ident"/>
              <Attribute id="2529" value="44100" name="sampleRate"/>
              <Attribute id="2530" value="16" name="bitDepth"/>
              <Attribute id="2531" value="1" name="gain"/>
              <Attribute id="2532" value="0" name="mixToMono"/>
             </Attributes>
            </AMFile>
            <ScreenVMFile id="2533" start="8603" duration="37" scalar="1/1" mediaStart="13956/1" mediaDuration="37/1" trackNumber="0" src="4" >
             <Transformer>
              <VectorParam id="2534"  name="translation">
               <InterpolatingParam id="2535" interp="linr"  time="-9999999/1" value="0" leadInLength="0/1"  />
               <InterpolatingParam id="2536" interp="linr"  time="-9999999/1" value="0" leadInLength="0/1"  />
               <InterpolatingParam id="2537" interp="linr"  time="-9999999/1" value="0" leadInLength="0/1"  />
              </VectorParam>
              <VectorParam id="2538"  name="rotation">
               <InterpolatingParam id="2539" interp="linr"  time="-9999999/1" value="0" leadInLength="0/1"  />
               <InterpolatingParam id="2540" interp="linr"  time="-9999999/1" value="0" leadInLength="0/1"  />
               <InterpolatingParam id="2541" interp="linr"  time="-9999999/1" value="0" leadInLength="0/1"  />
              </VectorParam>
              <VectorParam id="2542"  name="shear">
               <InterpolatingParam id="2543" interp="linr"  time="-9999999/1" value="0" leadInLength="0/1"  />
               <InterpolatingParam id="2544" interp="linr"  time="-9999999/1" value="0" leadInLength="0/1"  />
               <InterpolatingParam id="2545" interp="linr"  time="-9999999/1" value="0" leadInLength="0/1"  />
              </VectorParam>
              <VectorParam id="2546"  name="scale">
               <InterpolatingParam id="2547" interp="linr"  time="-9999999/1" value="1" leadInLength="0/1"  />
               <InterpolatingParam id="2548" interp="linr"  time="-9999999/1" value="1" leadInLength="0/1"  />
               <InterpolatingParam id="2549" interp="linr"  time="-9999999/1" value="1" leadInLength="0/1"  />
              </VectorParam>
              <VectorParam id="2550"  name="anchor">
               <InterpolatingParam id="2551" interp="linr"  time="0/1" value="0" leadInLength="0/1"  />
               <InterpolatingParam id="2552" interp="linr"  time="0/1" value="0" leadInLength="0/1"  />
               <InterpolatingParam id="2553" interp="linr"  time="0/1" value="0" leadInLength="0/1"  />
              </VectorParam>
             </Transformer>
             <Parameters>
              <VectorParam id="2554"  name="sourceCrop">
               <InterpolatingParam id="2555" interp="linr"  time="0/1" value="0" leadInLength="0/1"  />
               <InterpolatingParam id="2556" interp="linr"  time="0/1" value="0" leadInLength="0/1"  />
               <InterpolatingParam id="2557" interp="linr"  time="0/1" value="0" leadInLength="0/1"  />
               <InterpolatingParam id="2558" interp="linr"  time="0/1" value="0" leadInLength="0/1"  />
              </VectorParam>
              <VectorParam id="2559"  name="geometryCrop">
               <InterpolatingParam id="2560" interp="linr"  time="-9999999/1" value="0" leadInLength="0/1"  />
               <InterpolatingParam id="2561" interp="linr"  time="-9999999/1" value="0" leadInLength="0/1"  />
               <InterpolatingParam id="2562" interp="linr"  time="-9999999/1" value="0" leadInLength="0/1"  />
               <InterpolatingParam id="2563" interp="linr"  time="-9999999/1" value="0" leadInLength="0/1"  />
              </VectorParam>
              <InterpolatingParam id="2564" interp="linr"  time="-9999999/1" value="1" leadInLength="0/1"  name="opacity"/>
              <InterpolatingParam id="2565" interp="linr"  time="0/1" value="0" leadInLength="0/1"  name="cursorOpacity"/>
              <InterpolatingParam id="2566" interp="linr"  time="0/1" value="0" leadInLength="0/1"  name="cursorScale"/>
             </Parameters>
             <Attributes>
              <Attribute id="2567" value="" name="ident"/>
             </Attributes>
             <ExtraData>
              <Entry key="ZoomPanBin">
               <ZoomPanBin id="2568"  >
                <ZoomPanKeyframes>
                 <ZoomPanKeyframe id="2569" timeRangeEnd="-9999999/1" timeRangeDuration="0/1" interpolaterName=""  />
                </ZoomPanKeyframes>
               </ZoomPanBin>
              </Entry>
              <Entry key="CursorEffectBin">
               <CursorEffectBin id="2570"  >
                <CursorEffectKeyframes>
                </CursorEffectKeyframes>
               </CursorEffectBin>
              </Entry>
             </ExtraData>
            </ScreenVMFile>
            <MetaData>
             <entry key="AutoAppliedSmartFocus" val="False"/>
             <entry key="WinSubProjectDisplayName" val=""/>
            </MetaData>
           </UnifiedMedia>
           <UnifiedMedia id="2571"  >
            <AMFile id="2572" start="8640" duration="349" scalar="1/1" mediaStart="14291/1" mediaDuration="349/1" trackNumber="1" src="4" channelNumber="0,1" >
             <Parameters>
              <InterpolatingParam id="2573" interp="linr"  time="0/1" value="1" leadInLength="0/1"  name="volume"/>
              <Parameter id="2574"  name="captions"/>
             </Parameters>
             <Attributes>
              <Attribute id="2575" value="" name="ident"/>
              <Attribute id="2576" value="44100" name="sampleRate"/>
              <Attribute id="2577" value="16" name="bitDepth"/>
              <Attribute id="2578" value="1" name="gain"/>
              <Attribute id="2579" value="0" name="mixToMono"/>
             </Attributes>
            </AMFile>
            <ScreenVMFile id="2580" start="8640" duration="349" scalar="1/1" mediaStart="14291/1" mediaDuration="349/1" trackNumber="0" src="4" >
             <Transformer>
              <VectorParam id="2581"  name="translation">
               <InterpolatingParam id="2582" interp="linr"  time="-9999999/1" value="0" leadInLength="0/1"  />
               <InterpolatingParam id="2583" interp="linr"  time="-9999999/1" value="0" leadInLength="0/1"  />
               <InterpolatingParam id="2584" interp="linr"  time="-9999999/1" value="0" leadInLength="0/1"  />
              </VectorParam>
              <VectorParam id="2585"  name="rotation">
               <InterpolatingParam id="2586" interp="linr"  time="-9999999/1" value="0" leadInLength="0/1"  />
               <InterpolatingParam id="2587" interp="linr"  time="-9999999/1" value="0" leadInLength="0/1"  />
               <InterpolatingParam id="2588" interp="linr"  time="-9999999/1" value="0" leadInLength="0/1"  />
              </VectorParam>
              <VectorParam id="2589"  name="shear">
               <InterpolatingParam id="2590" interp="linr"  time="-9999999/1" value="0" leadInLength="0/1"  />
               <InterpolatingParam id="2591" interp="linr"  time="-9999999/1" value="0" leadInLength="0/1"  />
               <InterpolatingParam id="2592" interp="linr"  time="-9999999/1" value="0" leadInLength="0/1"  />
              </VectorParam>
              <VectorParam id="2593"  name="scale">
               <InterpolatingParam id="2594" interp="linr"  time="-9999999/1" value="1" leadInLength="0/1"  />
               <InterpolatingParam id="2595" interp="linr"  time="-9999999/1" value="1" leadInLength="0/1"  />
               <InterpolatingParam id="2596" interp="linr"  time="-9999999/1" value="1" leadInLength="0/1"  />
              </VectorParam>
              <VectorParam id="2597"  name="anchor">
               <InterpolatingParam id="2598" interp="linr"  time="0/1" value="0" leadInLength="0/1"  />
               <InterpolatingParam id="2599" interp="linr"  time="0/1" value="0" leadInLength="0/1"  />
               <InterpolatingParam id="2600" interp="linr"  time="0/1" value="0" leadInLength="0/1"  />
              </VectorParam>
             </Transformer>
             <Parameters>
              <VectorParam id="2601"  name="sourceCrop">
               <InterpolatingParam id="2602" interp="linr"  time="0/1" value="0" leadInLength="0/1"  />
               <InterpolatingParam id="2603" interp="linr"  time="0/1" value="0" leadInLength="0/1"  />
               <InterpolatingParam id="2604" interp="linr"  time="0/1" value="0" leadInLength="0/1"  />
               <InterpolatingParam id="2605" interp="linr"  time="0/1" value="0" leadInLength="0/1"  />
              </VectorParam>
              <VectorParam id="2606"  name="geometryCrop">
               <InterpolatingParam id="2607" interp="linr"  time="-9999999/1" value="0" leadInLength="0/1"  />
               <InterpolatingParam id="2608" interp="linr"  time="-9999999/1" value="0" leadInLength="0/1"  />
               <InterpolatingParam id="2609" interp="linr"  time="-9999999/1" value="0" leadInLength="0/1"  />
               <InterpolatingParam id="2610" interp="linr"  time="-9999999/1" value="0" leadInLength="0/1"  />
              </VectorParam>
              <InterpolatingParam id="2611" interp="linr"  time="-9999999/1" value="1" leadInLength="0/1"  name="opacity"/>
              <InterpolatingParam id="2612" interp="linr"  time="0/1" value="0" leadInLength="0/1"  name="cursorOpacity"/>
              <InterpolatingParam id="2613" interp="linr"  time="0/1" value="0" leadInLength="0/1"  name="cursorScale"/>
             </Parameters>
             <Attributes>
              <Attribute id="2614" value="" name="ident"/>
             </Attributes>
             <ExtraData>
              <Entry key="ZoomPanBin">
               <ZoomPanBin id="2615"  >
                <ZoomPanKeyframes>
                 <ZoomPanKeyframe id="2616" timeRangeEnd="-9999999/1" timeRangeDuration="0/1" interpolaterName=""  />
                </ZoomPanKeyframes>
               </ZoomPanBin>
              </Entry>
              <Entry key="CursorEffectBin">
               <CursorEffectBin id="2617"  >
                <CursorEffectKeyframes>
                </CursorEffectKeyframes>
               </CursorEffectBin>
              </Entry>
             </ExtraData>
            </ScreenVMFile>
            <MetaData>
             <entry key="AutoAppliedSmartFocus" val="False"/>
             <entry key="WinSubProjectDisplayName" val=""/>
            </MetaData>
           </UnifiedMedia>
           <UnifiedMedia id="2618"  >
            <AMFile id="2619" start="8989" duration="284" scalar="1/1" mediaStart="14655/1" mediaDuration="284/1" trackNumber="1" src="4" channelNumber="0,1" >
             <Parameters>
              <InterpolatingParam id="2620" interp="linr"  time="0/1" value="1" leadInLength="0/1"  name="volume"/>
              <Parameter id="2621"  name="captions"/>
             </Parameters>
             <Attributes>
              <Attribute id="2622" value="" name="ident"/>
              <Attribute id="2623" value="44100" name="sampleRate"/>
              <Attribute id="2624" value="16" name="bitDepth"/>
              <Attribute id="2625" value="1" name="gain"/>
              <Attribute id="2626" value="0" name="mixToMono"/>
             </Attributes>
            </AMFile>
            <ScreenVMFile id="2627" start="8989" duration="284" scalar="1/1" mediaStart="14655/1" mediaDuration="284/1" trackNumber="0" src="4" >
             <Transformer>
              <VectorParam id="2628"  name="translation">
               <InterpolatingParam id="2629" interp="linr"  time="-9999999/1" value="0" leadInLength="0/1"  />
               <InterpolatingParam id="2630" interp="linr"  time="-9999999/1" value="0" leadInLength="0/1"  />
               <InterpolatingParam id="2631" interp="linr"  time="-9999999/1" value="0" leadInLength="0/1"  />
              </VectorParam>
              <VectorParam id="2632"  name="rotation">
               <InterpolatingParam id="2633" interp="linr"  time="-9999999/1" value="0" leadInLength="0/1"  />
               <InterpolatingParam id="2634" interp="linr"  time="-9999999/1" value="0" leadInLength="0/1"  />
               <InterpolatingParam id="2635" interp="linr"  time="-9999999/1" value="0" leadInLength="0/1"  />
              </VectorParam>
              <VectorParam id="2636"  name="shear">
               <InterpolatingParam id="2637" interp="linr"  time="-9999999/1" value="0" leadInLength="0/1"  />
               <InterpolatingParam id="2638" interp="linr"  time="-9999999/1" value="0" leadInLength="0/1"  />
               <InterpolatingParam id="2639" interp="linr"  time="-9999999/1" value="0" leadInLength="0/1"  />
              </VectorParam>
              <VectorParam id="2640"  name="scale">
               <InterpolatingParam id="2641" interp="linr"  time="-9999999/1" value="1" leadInLength="0/1"  />
               <InterpolatingParam id="2642" interp="linr"  time="-9999999/1" value="1" leadInLength="0/1"  />
               <InterpolatingParam id="2643" interp="linr"  time="-9999999/1" value="1" leadInLength="0/1"  />
              </VectorParam>
              <VectorParam id="2644"  name="anchor">
               <InterpolatingParam id="2645" interp="linr"  time="0/1" value="0" leadInLength="0/1"  />
               <InterpolatingParam id="2646" interp="linr"  time="0/1" value="0" leadInLength="0/1"  />
               <InterpolatingParam id="2647" interp="linr"  time="0/1" value="0" leadInLength="0/1"  />
              </VectorParam>
             </Transformer>
             <Parameters>
              <VectorParam id="2648"  name="sourceCrop">
               <InterpolatingParam id="2649" interp="linr"  time="0/1" value="0" leadInLength="0/1"  />
               <InterpolatingParam id="2650" interp="linr"  time="0/1" value="0" leadInLength="0/1"  />
               <InterpolatingParam id="2651" interp="linr"  time="0/1" value="0" leadInLength="0/1"  />
               <InterpolatingParam id="2652" interp="linr"  time="0/1" value="0" leadInLength="0/1"  />
              </VectorParam>
              <VectorParam id="2653"  name="geometryCrop">
               <InterpolatingParam id="2654" interp="linr"  time="-9999999/1" value="0" leadInLength="0/1"  />
               <InterpolatingParam id="2655" interp="linr"  time="-9999999/1" value="0" leadInLength="0/1"  />
               <InterpolatingParam id="2656" interp="linr"  time="-9999999/1" value="0" leadInLength="0/1"  />
               <InterpolatingParam id="2657" interp="linr"  time="-9999999/1" value="0" leadInLength="0/1"  />
              </VectorParam>
              <InterpolatingParam id="2658" interp="linr"  time="-9999999/1" value="1" leadInLength="0/1"  name="opacity"/>
              <InterpolatingParam id="2659" interp="linr"  time="0/1" value="0" leadInLength="0/1"  name="cursorOpacity"/>
              <InterpolatingParam id="2660" interp="linr"  time="0/1" value="0" leadInLength="0/1"  name="cursorScale"/>
             </Parameters>
             <Attributes>
              <Attribute id="2661" value="" name="ident"/>
             </Attributes>
             <ExtraData>
              <Entry key="ZoomPanBin">
               <ZoomPanBin id="2662"  >
                <ZoomPanKeyframes>
                 <ZoomPanKeyframe id="2663" timeRangeEnd="-9999999/1" timeRangeDuration="0/1" interpolaterName=""  />
                </ZoomPanKeyframes>
               </ZoomPanBin>
              </Entry>
              <Entry key="CursorEffectBin">
               <CursorEffectBin id="2664"  >
                <CursorEffectKeyframes>
                </CursorEffectKeyframes>
               </CursorEffectBin>
              </Entry>
             </ExtraData>
            </ScreenVMFile>
            <MetaData>
             <entry key="AutoAppliedSmartFocus" val="False"/>
             <entry key="WinSubProjectDisplayName" val=""/>
            </MetaData>
           </UnifiedMedia>
           <UnifiedMedia id="2665"  >
            <AMFile id="2666" start="9273" duration="89" scalar="1/1" mediaStart="14947/1" mediaDuration="89/1" trackNumber="1" src="4" channelNumber="0,1" >
             <Parameters>
              <InterpolatingParam id="2667" interp="linr"  time="0/1" value="1" leadInLength="0/1"  name="volume"/>
              <Parameter id="2668"  name="captions"/>
             </Parameters>
             <Attributes>
              <Attribute id="2669" value="" name="ident"/>
              <Attribute id="2670" value="44100" name="sampleRate"/>
              <Attribute id="2671" value="16" name="bitDepth"/>
              <Attribute id="2672" value="1" name="gain"/>
              <Attribute id="2673" value="0" name="mixToMono"/>
             </Attributes>
            </AMFile>
            <ScreenVMFile id="2674" start="9273" duration="89" scalar="1/1" mediaStart="14947/1" mediaDuration="89/1" trackNumber="0" src="4" >
             <Transformer>
              <VectorParam id="2675"  name="translation">
               <InterpolatingParam id="2676" interp="linr"  time="-9999999/1" value="0" leadInLength="0/1"  />
               <InterpolatingParam id="2677" interp="linr"  time="-9999999/1" value="0" leadInLength="0/1"  />
               <InterpolatingParam id="2678" interp="linr"  time="-9999999/1" value="0" leadInLength="0/1"  />
              </VectorParam>
              <VectorParam id="2679"  name="rotation">
               <InterpolatingParam id="2680" interp="linr"  time="-9999999/1" value="0" leadInLength="0/1"  />
               <InterpolatingParam id="2681" interp="linr"  time="-9999999/1" value="0" leadInLength="0/1"  />
               <InterpolatingParam id="2682" interp="linr"  time="-9999999/1" value="0" leadInLength="0/1"  />
              </VectorParam>
              <VectorParam id="2683"  name="shear">
               <InterpolatingParam id="2684" interp="linr"  time="-9999999/1" value="0" leadInLength="0/1"  />
               <InterpolatingParam id="2685" interp="linr"  time="-9999999/1" value="0" leadInLength="0/1"  />
               <InterpolatingParam id="2686" interp="linr"  time="-9999999/1" value="0" leadInLength="0/1"  />
              </VectorParam>
              <VectorParam id="2687"  name="scale">
               <InterpolatingParam id="2688" interp="linr"  time="-9999999/1" value="1" leadInLength="0/1"  />
               <InterpolatingParam id="2689" interp="linr"  time="-9999999/1" value="1" leadInLength="0/1"  />
               <InterpolatingParam id="2690" interp="linr"  time="-9999999/1" value="1" leadInLength="0/1"  />
              </VectorParam>
              <VectorParam id="2691"  name="anchor">
               <InterpolatingParam id="2692" interp="linr"  time="0/1" value="0" leadInLength="0/1"  />
               <InterpolatingParam id="2693" interp="linr"  time="0/1" value="0" leadInLength="0/1"  />
               <InterpolatingParam id="2694" interp="linr"  time="0/1" value="0" leadInLength="0/1"  />
              </VectorParam>
             </Transformer>
             <Parameters>
              <VectorParam id="2695"  name="sourceCrop">
               <InterpolatingParam id="2696" interp="linr"  time="0/1" value="0" leadInLength="0/1"  />
               <InterpolatingParam id="2697" interp="linr"  time="0/1" value="0" leadInLength="0/1"  />
               <InterpolatingParam id="2698" interp="linr"  time="0/1" value="0" leadInLength="0/1"  />
               <InterpolatingParam id="2699" interp="linr"  time="0/1" value="0" leadInLength="0/1"  />
              </VectorParam>
              <VectorParam id="2700"  name="geometryCrop">
               <InterpolatingParam id="2701" interp="linr"  time="-9999999/1" value="0" leadInLength="0/1"  />
               <InterpolatingParam id="2702" interp="linr"  time="-9999999/1" value="0" leadInLength="0/1"  />
               <InterpolatingParam id="2703" interp="linr"  time="-9999999/1" value="0" leadInLength="0/1"  />
               <InterpolatingParam id="2704" interp="linr"  time="-9999999/1" value="0" leadInLength="0/1"  />
              </VectorParam>
              <InterpolatingParam id="2705" interp="linr"  time="-9999999/1" value="1" leadInLength="0/1"  name="opacity"/>
              <InterpolatingParam id="2706" interp="linr"  time="0/1" value="0" leadInLength="0/1"  name="cursorOpacity"/>
              <InterpolatingParam id="2707" interp="linr"  time="0/1" value="0" leadInLength="0/1"  name="cursorScale"/>
             </Parameters>
             <Attributes>
              <Attribute id="2708" value="" name="ident"/>
             </Attributes>
             <ExtraData>
              <Entry key="ZoomPanBin">
               <ZoomPanBin id="2709"  >
                <ZoomPanKeyframes>
                 <ZoomPanKeyframe id="2710" timeRangeEnd="-9999999/1" timeRangeDuration="0/1" interpolaterName=""  />
                </ZoomPanKeyframes>
               </ZoomPanBin>
              </Entry>
              <Entry key="CursorEffectBin">
               <CursorEffectBin id="2711"  >
                <CursorEffectKeyframes>
                </CursorEffectKeyframes>
               </CursorEffectBin>
              </Entry>
             </ExtraData>
            </ScreenVMFile>
            <MetaData>
             <entry key="AutoAppliedSmartFocus" val="False"/>
             <entry key="WinSubProjectDisplayName" val=""/>
            </MetaData>
           </UnifiedMedia>
           <UnifiedMedia id="2712"  >
            <AMFile id="2713" start="9362" duration="183" scalar="1/1" mediaStart="15688/1" mediaDuration="183/1" trackNumber="1" src="4" channelNumber="0,1" >
             <Parameters>
              <InterpolatingParam id="2714" interp="linr"  time="0/1" value="1" leadInLength="0/1"  name="volume"/>
              <Parameter id="2715"  name="captions"/>
             </Parameters>
             <Attributes>
              <Attribute id="2716" value="" name="ident"/>
              <Attribute id="2717" value="44100" name="sampleRate"/>
              <Attribute id="2718" value="16" name="bitDepth"/>
              <Attribute id="2719" value="1" name="gain"/>
              <Attribute id="2720" value="0" name="mixToMono"/>
             </Attributes>
            </AMFile>
            <ScreenVMFile id="2721" start="9362" duration="183" scalar="1/1" mediaStart="15688/1" mediaDuration="183/1" trackNumber="0" src="4" >
             <Transformer>
              <VectorParam id="2722"  name="translation">
               <InterpolatingParam id="2723" interp="linr"  time="-9999999/1" value="0" leadInLength="0/1"  />
               <InterpolatingParam id="2724" interp="linr"  time="-9999999/1" value="0" leadInLength="0/1"  />
               <InterpolatingParam id="2725" interp="linr"  time="-9999999/1" value="0" leadInLength="0/1"  />
              </VectorParam>
              <VectorParam id="2726"  name="rotation">
               <InterpolatingParam id="2727" interp="linr"  time="-9999999/1" value="0" leadInLength="0/1"  />
               <InterpolatingParam id="2728" interp="linr"  time="-9999999/1" value="0" leadInLength="0/1"  />
               <InterpolatingParam id="2729" interp="linr"  time="-9999999/1" value="0" leadInLength="0/1"  />
              </VectorParam>
              <VectorParam id="2730"  name="shear">
               <InterpolatingParam id="2731" interp="linr"  time="-9999999/1" value="0" leadInLength="0/1"  />
               <InterpolatingParam id="2732" interp="linr"  time="-9999999/1" value="0" leadInLength="0/1"  />
               <InterpolatingParam id="2733" interp="linr"  time="-9999999/1" value="0" leadInLength="0/1"  />
              </VectorParam>
              <VectorParam id="2734"  name="scale">
               <InterpolatingParam id="2735" interp="linr"  time="-9999999/1" value="1" leadInLength="0/1"  />
               <InterpolatingParam id="2736" interp="linr"  time="-9999999/1" value="1" leadInLength="0/1"  />
               <InterpolatingParam id="2737" interp="linr"  time="-9999999/1" value="1" leadInLength="0/1"  />
              </VectorParam>
              <VectorParam id="2738"  name="anchor">
               <InterpolatingParam id="2739" interp="linr"  time="0/1" value="0" leadInLength="0/1"  />
               <InterpolatingParam id="2740" interp="linr"  time="0/1" value="0" leadInLength="0/1"  />
               <InterpolatingParam id="2741" interp="linr"  time="0/1" value="0" leadInLength="0/1"  />
              </VectorParam>
             </Transformer>
             <Parameters>
              <VectorParam id="2742"  name="sourceCrop">
               <InterpolatingParam id="2743" interp="linr"  time="0/1" value="0" leadInLength="0/1"  />
               <InterpolatingParam id="2744" interp="linr"  time="0/1" value="0" leadInLength="0/1"  />
               <InterpolatingParam id="2745" interp="linr"  time="0/1" value="0" leadInLength="0/1"  />
               <InterpolatingParam id="2746" interp="linr"  time="0/1" value="0" leadInLength="0/1"  />
              </VectorParam>
              <VectorParam id="2747"  name="geometryCrop">
               <InterpolatingParam id="2748" interp="linr"  time="-9999999/1" value="0" leadInLength="0/1"  />
               <InterpolatingParam id="2749" interp="linr"  time="-9999999/1" value="0" leadInLength="0/1"  />
               <InterpolatingParam id="2750" interp="linr"  time="-9999999/1" value="0" leadInLength="0/1"  />
               <InterpolatingParam id="2751" interp="linr"  time="-9999999/1" value="0" leadInLength="0/1"  />
              </VectorParam>
              <InterpolatingParam id="2752" interp="linr"  time="-9999999/1" value="1" leadInLength="0/1"  name="opacity"/>
              <InterpolatingParam id="2753" interp="linr"  time="0/1" value="0" leadInLength="0/1"  name="cursorOpacity"/>
              <InterpolatingParam id="2754" interp="linr"  time="0/1" value="0" leadInLength="0/1"  name="cursorScale"/>
             </Parameters>
             <Attributes>
              <Attribute id="2755" value="" name="ident"/>
             </Attributes>
             <ExtraData>
              <Entry key="ZoomPanBin">
               <ZoomPanBin id="2756"  >
                <ZoomPanKeyframes>
                 <ZoomPanKeyframe id="2757" timeRangeEnd="-9999999/1" timeRangeDuration="0/1" interpolaterName=""  />
                </ZoomPanKeyframes>
               </ZoomPanBin>
              </Entry>
              <Entry key="CursorEffectBin">
               <CursorEffectBin id="2758"  >
                <CursorEffectKeyframes>
                </CursorEffectKeyframes>
               </CursorEffectBin>
              </Entry>
             </ExtraData>
            </ScreenVMFile>
            <MetaData>
             <entry key="AutoAppliedSmartFocus" val="False"/>
             <entry key="WinSubProjectDisplayName" val=""/>
            </MetaData>
           </UnifiedMedia>
           <UnifiedMedia id="2759"  >
            <AMFile id="2760" start="9545" duration="174" scalar="1/1" mediaStart="15998/1" mediaDuration="174/1" trackNumber="1" src="4" channelNumber="0,1" >
             <Parameters>
              <InterpolatingParam id="2761" interp="linr"  time="0/1" value="1" leadInLength="0/1"  name="volume"/>
              <Parameter id="2762"  name="captions"/>
             </Parameters>
             <Attributes>
              <Attribute id="2763" value="" name="ident"/>
              <Attribute id="2764" value="44100" name="sampleRate"/>
              <Attribute id="2765" value="16" name="bitDepth"/>
              <Attribute id="2766" value="1" name="gain"/>
              <Attribute id="2767" value="0" name="mixToMono"/>
             </Attributes>
            </AMFile>
            <ScreenVMFile id="2768" start="9545" duration="174" scalar="1/1" mediaStart="15998/1" mediaDuration="174/1" trackNumber="0" src="4" >
             <Transformer>
              <VectorParam id="2769"  name="translation">
               <InterpolatingParam id="2770" interp="linr"  time="-9999999/1" value="0" leadInLength="0/1"  />
               <InterpolatingParam id="2771" interp="linr"  time="-9999999/1" value="0" leadInLength="0/1"  />
               <InterpolatingParam id="2772" interp="linr"  time="-9999999/1" value="0" leadInLength="0/1"  />
              </VectorParam>
              <VectorParam id="2773"  name="rotation">
               <InterpolatingParam id="2774" interp="linr"  time="-9999999/1" value="0" leadInLength="0/1"  />
               <InterpolatingParam id="2775" interp="linr"  time="-9999999/1" value="0" leadInLength="0/1"  />
               <InterpolatingParam id="2776" interp="linr"  time="-9999999/1" value="0" leadInLength="0/1"  />
              </VectorParam>
              <VectorParam id="2777"  name="shear">
               <InterpolatingParam id="2778" interp="linr"  time="-9999999/1" value="0" leadInLength="0/1"  />
               <InterpolatingParam id="2779" interp="linr"  time="-9999999/1" value="0" leadInLength="0/1"  />
               <InterpolatingParam id="2780" interp="linr"  time="-9999999/1" value="0" leadInLength="0/1"  />
              </VectorParam>
              <VectorParam id="2781"  name="scale">
               <InterpolatingParam id="2782" interp="linr"  time="-9999999/1" value="1" leadInLength="0/1"  />
               <InterpolatingParam id="2783" interp="linr"  time="-9999999/1" value="1" leadInLength="0/1"  />
               <InterpolatingParam id="2784" interp="linr"  time="-9999999/1" value="1" leadInLength="0/1"  />
              </VectorParam>
              <VectorParam id="2785"  name="anchor">
               <InterpolatingParam id="2786" interp="linr"  time="0/1" value="0" leadInLength="0/1"  />
               <InterpolatingParam id="2787" interp="linr"  time="0/1" value="0" leadInLength="0/1"  />
               <InterpolatingParam id="2788" interp="linr"  time="0/1" value="0" leadInLength="0/1"  />
              </VectorParam>
             </Transformer>
             <Parameters>
              <VectorParam id="2789"  name="sourceCrop">
               <InterpolatingParam id="2790" interp="linr"  time="0/1" value="0" leadInLength="0/1"  />
               <InterpolatingParam id="2791" interp="linr"  time="0/1" value="0" leadInLength="0/1"  />
               <InterpolatingParam id="2792" interp="linr"  time="0/1" value="0" leadInLength="0/1"  />
               <InterpolatingParam id="2793" interp="linr"  time="0/1" value="0" leadInLength="0/1"  />
              </VectorParam>
              <VectorParam id="2794"  name="geometryCrop">
               <InterpolatingParam id="2795" interp="linr"  time="-9999999/1" value="0" leadInLength="0/1"  />
               <InterpolatingParam id="2796" interp="linr"  time="-9999999/1" value="0" leadInLength="0/1"  />
               <InterpolatingParam id="2797" interp="linr"  time="-9999999/1" value="0" leadInLength="0/1"  />
               <InterpolatingParam id="2798" interp="linr"  time="-9999999/1" value="0" leadInLength="0/1"  />
              </VectorParam>
              <InterpolatingParam id="2799" interp="linr"  time="-9999999/1" value="1" leadInLength="0/1"  name="opacity"/>
              <InterpolatingParam id="2800" interp="linr"  time="0/1" value="0" leadInLength="0/1"  name="cursorOpacity"/>
              <InterpolatingParam id="2801" interp="linr"  time="0/1" value="0" leadInLength="0/1"  name="cursorScale"/>
             </Parameters>
             <Attributes>
              <Attribute id="2802" value="" name="ident"/>
             </Attributes>
             <ExtraData>
              <Entry key="ZoomPanBin">
               <ZoomPanBin id="2803"  >
                <ZoomPanKeyframes>
                 <ZoomPanKeyframe id="2804" timeRangeEnd="-9999999/1" timeRangeDuration="0/1" interpolaterName=""  />
                </ZoomPanKeyframes>
               </ZoomPanBin>
              </Entry>
              <Entry key="CursorEffectBin">
               <CursorEffectBin id="2805"  >
                <CursorEffectKeyframes>
                </CursorEffectKeyframes>
               </CursorEffectBin>
              </Entry>
             </ExtraData>
            </ScreenVMFile>
            <MetaData>
             <entry key="AutoAppliedSmartFocus" val="False"/>
             <entry key="WinSubProjectDisplayName" val=""/>
            </MetaData>
           </UnifiedMedia>
           <UnifiedMedia id="2806"  >
            <AMFile id="2807" start="9719" duration="125" scalar="1/1" mediaStart="16191/1" mediaDuration="125/1" trackNumber="1" src="4" channelNumber="0,1" >
             <Parameters>
              <InterpolatingParam id="2808" interp="linr"  time="0/1" value="1" leadInLength="0/1"  name="volume"/>
              <Parameter id="2809"  name="captions"/>
             </Parameters>
             <Attributes>
              <Attribute id="2810" value="" name="ident"/>
              <Attribute id="2811" value="44100" name="sampleRate"/>
              <Attribute id="2812" value="16" name="bitDepth"/>
              <Attribute id="2813" value="1" name="gain"/>
              <Attribute id="2814" value="0" name="mixToMono"/>
             </Attributes>
            </AMFile>
            <ScreenVMFile id="2815" start="9719" duration="125" scalar="1/1" mediaStart="16191/1" mediaDuration="125/1" trackNumber="0" src="4" >
             <Transformer>
              <VectorParam id="2816"  name="translation">
               <InterpolatingParam id="2817" interp="linr"  time="-9999999/1" value="0" leadInLength="0/1"  />
               <InterpolatingParam id="2818" interp="linr"  time="-9999999/1" value="0" leadInLength="0/1"  />
               <InterpolatingParam id="2819" interp="linr"  time="-9999999/1" value="0" leadInLength="0/1"  />
              </VectorParam>
              <VectorParam id="2820"  name="rotation">
               <InterpolatingParam id="2821" interp="linr"  time="-9999999/1" value="0" leadInLength="0/1"  />
               <InterpolatingParam id="2822" interp="linr"  time="-9999999/1" value="0" leadInLength="0/1"  />
               <InterpolatingParam id="2823" interp="linr"  time="-9999999/1" value="0" leadInLength="0/1"  />
              </VectorParam>
              <VectorParam id="2824"  name="shear">
               <InterpolatingParam id="2825" interp="linr"  time="-9999999/1" value="0" leadInLength="0/1"  />
               <InterpolatingParam id="2826" interp="linr"  time="-9999999/1" value="0" leadInLength="0/1"  />
               <InterpolatingParam id="2827" interp="linr"  time="-9999999/1" value="0" leadInLength="0/1"  />
              </VectorParam>
              <VectorParam id="2828"  name="scale">
               <InterpolatingParam id="2829" interp="linr"  time="-9999999/1" value="1" leadInLength="0/1"  />
               <InterpolatingParam id="2830" interp="linr"  time="-9999999/1" value="1" leadInLength="0/1"  />
               <InterpolatingParam id="2831" interp="linr"  time="-9999999/1" value="1" leadInLength="0/1"  />
              </VectorParam>
              <VectorParam id="2832"  name="anchor">
               <InterpolatingParam id="2833" interp="linr"  time="0/1" value="0" leadInLength="0/1"  />
               <InterpolatingParam id="2834" interp="linr"  time="0/1" value="0" leadInLength="0/1"  />
               <InterpolatingParam id="2835" interp="linr"  time="0/1" value="0" leadInLength="0/1"  />
              </VectorParam>
             </Transformer>
             <Parameters>
              <VectorParam id="2836"  name="sourceCrop">
               <InterpolatingParam id="2837" interp="linr"  time="0/1" value="0" leadInLength="0/1"  />
               <InterpolatingParam id="2838" interp="linr"  time="0/1" value="0" leadInLength="0/1"  />
               <InterpolatingParam id="2839" interp="linr"  time="0/1" value="0" leadInLength="0/1"  />
               <InterpolatingParam id="2840" interp="linr"  time="0/1" value="0" leadInLength="0/1"  />
              </VectorParam>
              <VectorParam id="2841"  name="geometryCrop">
               <InterpolatingParam id="2842" interp="linr"  time="-9999999/1" value="0" leadInLength="0/1"  />
               <InterpolatingParam id="2843" interp="linr"  time="-9999999/1" value="0" leadInLength="0/1"  />
               <InterpolatingParam id="2844" interp="linr"  time="-9999999/1" value="0" leadInLength="0/1"  />
               <InterpolatingParam id="2845" interp="linr"  time="-9999999/1" value="0" leadInLength="0/1"  />
              </VectorParam>
              <InterpolatingParam id="2846" interp="linr"  time="-9999999/1" value="1" leadInLength="0/1"  name="opacity"/>
              <InterpolatingParam id="2847" interp="linr"  time="0/1" value="0" leadInLength="0/1"  name="cursorOpacity"/>
              <InterpolatingParam id="2848" interp="linr"  time="0/1" value="0" leadInLength="0/1"  name="cursorScale"/>
             </Parameters>
             <Attributes>
              <Attribute id="2849" value="" name="ident"/>
             </Attributes>
             <ExtraData>
              <Entry key="ZoomPanBin">
               <ZoomPanBin id="2850"  >
                <ZoomPanKeyframes>
                 <ZoomPanKeyframe id="2851" timeRangeEnd="-9999999/1" timeRangeDuration="0/1" interpolaterName=""  />
                </ZoomPanKeyframes>
               </ZoomPanBin>
              </Entry>
              <Entry key="CursorEffectBin">
               <CursorEffectBin id="2852"  >
                <CursorEffectKeyframes>
                </CursorEffectKeyframes>
               </CursorEffectBin>
              </Entry>
             </ExtraData>
            </ScreenVMFile>
            <MetaData>
             <entry key="AutoAppliedSmartFocus" val="False"/>
             <entry key="WinSubProjectDisplayName" val=""/>
            </MetaData>
           </UnifiedMedia>
           <UnifiedMedia id="2853"  >
            <AMFile id="2854" start="9844" duration="103" scalar="1/1" mediaStart="16329/1" mediaDuration="103/1" trackNumber="1" src="4" channelNumber="0,1" >
             <Parameters>
              <InterpolatingParam id="2855" interp="linr"  time="0/1" value="1" leadInLength="0/1"  name="volume"/>
              <Parameter id="2856"  name="captions"/>
             </Parameters>
             <Attributes>
              <Attribute id="2857" value="" name="ident"/>
              <Attribute id="2858" value="44100" name="sampleRate"/>
              <Attribute id="2859" value="16" name="bitDepth"/>
              <Attribute id="2860" value="1" name="gain"/>
              <Attribute id="2861" value="0" name="mixToMono"/>
             </Attributes>
            </AMFile>
            <ScreenVMFile id="2862" start="9844" duration="103" scalar="1/1" mediaStart="16329/1" mediaDuration="103/1" trackNumber="0" src="4" >
             <Transformer>
              <VectorParam id="2863"  name="translation">
               <InterpolatingParam id="2864" interp="linr"  time="-9999999/1" value="0" leadInLength="0/1"  />
               <InterpolatingParam id="2865" interp="linr"  time="-9999999/1" value="0" leadInLength="0/1"  />
               <InterpolatingParam id="2866" interp="linr"  time="-9999999/1" value="0" leadInLength="0/1"  />
              </VectorParam>
              <VectorParam id="2867"  name="rotation">
               <InterpolatingParam id="2868" interp="linr"  time="-9999999/1" value="0" leadInLength="0/1"  />
               <InterpolatingParam id="2869" interp="linr"  time="-9999999/1" value="0" leadInLength="0/1"  />
               <InterpolatingParam id="2870" interp="linr"  time="-9999999/1" value="0" leadInLength="0/1"  />
              </VectorParam>
              <VectorParam id="2871"  name="shear">
               <InterpolatingParam id="2872" interp="linr"  time="-9999999/1" value="0" leadInLength="0/1"  />
               <InterpolatingParam id="2873" interp="linr"  time="-9999999/1" value="0" leadInLength="0/1"  />
               <InterpolatingParam id="2874" interp="linr"  time="-9999999/1" value="0" leadInLength="0/1"  />
              </VectorParam>
              <VectorParam id="2875"  name="scale">
               <InterpolatingParam id="2876" interp="linr"  time="-9999999/1" value="1" leadInLength="0/1"  />
               <InterpolatingParam id="2877" interp="linr"  time="-9999999/1" value="1" leadInLength="0/1"  />
               <InterpolatingParam id="2878" interp="linr"  time="-9999999/1" value="1" leadInLength="0/1"  />
              </VectorParam>
              <VectorParam id="2879"  name="anchor">
               <InterpolatingParam id="2880" interp="linr"  time="0/1" value="0" leadInLength="0/1"  />
               <InterpolatingParam id="2881" interp="linr"  time="0/1" value="0" leadInLength="0/1"  />
               <InterpolatingParam id="2882" interp="linr"  time="0/1" value="0" leadInLength="0/1"  />
              </VectorParam>
             </Transformer>
             <Parameters>
              <VectorParam id="2883"  name="sourceCrop">
               <InterpolatingParam id="2884" interp="linr"  time="0/1" value="0" leadInLength="0/1"  />
               <InterpolatingParam id="2885" interp="linr"  time="0/1" value="0" leadInLength="0/1"  />
               <InterpolatingParam id="2886" interp="linr"  time="0/1" value="0" leadInLength="0/1"  />
               <InterpolatingParam id="2887" interp="linr"  time="0/1" value="0" leadInLength="0/1"  />
              </VectorParam>
              <VectorParam id="2888"  name="geometryCrop">
               <InterpolatingParam id="2889" interp="linr"  time="-9999999/1" value="0" leadInLength="0/1"  />
               <InterpolatingParam id="2890" interp="linr"  time="-9999999/1" value="0" leadInLength="0/1"  />
               <InterpolatingParam id="2891" interp="linr"  time="-9999999/1" value="0" leadInLength="0/1"  />
               <InterpolatingParam id="2892" interp="linr"  time="-9999999/1" value="0" leadInLength="0/1"  />
              </VectorParam>
              <InterpolatingParam id="2893" interp="linr"  time="-9999999/1" value="1" leadInLength="0/1"  name="opacity"/>
              <InterpolatingParam id="2894" interp="linr"  time="0/1" value="0" leadInLength="0/1"  name="cursorOpacity"/>
              <InterpolatingParam id="2895" interp="linr"  time="0/1" value="0" leadInLength="0/1"  name="cursorScale"/>
             </Parameters>
             <Attributes>
              <Attribute id="2896" value="" name="ident"/>
             </Attributes>
             <ExtraData>
              <Entry key="ZoomPanBin">
               <ZoomPanBin id="2897"  >
                <ZoomPanKeyframes>
                 <ZoomPanKeyframe id="2898" timeRangeEnd="-9999999/1" timeRangeDuration="0/1" interpolaterName=""  />
                </ZoomPanKeyframes>
               </ZoomPanBin>
              </Entry>
              <Entry key="CursorEffectBin">
               <CursorEffectBin id="2899"  >
                <CursorEffectKeyframes>
                </CursorEffectKeyframes>
               </CursorEffectBin>
              </Entry>
             </ExtraData>
            </ScreenVMFile>
            <MetaData>
             <entry key="AutoAppliedSmartFocus" val="False"/>
             <entry key="WinSubProjectDisplayName" val=""/>
            </MetaData>
           </UnifiedMedia>
           <UnifiedMedia id="2900"  >
            <AMFile id="2901" start="9947" duration="160" scalar="1/1" mediaStart="16440/1" mediaDuration="160/1" trackNumber="1" src="4" channelNumber="0,1" >
             <Parameters>
              <InterpolatingParam id="2902" interp="linr"  time="0/1" value="1" leadInLength="0/1"  name="volume"/>
              <Parameter id="2903"  name="captions"/>
             </Parameters>
             <Attributes>
              <Attribute id="2904" value="" name="ident"/>
              <Attribute id="2905" value="44100" name="sampleRate"/>
              <Attribute id="2906" value="16" name="bitDepth"/>
              <Attribute id="2907" value="1" name="gain"/>
              <Attribute id="2908" value="0" name="mixToMono"/>
             </Attributes>
            </AMFile>
            <ScreenVMFile id="2909" start="9947" duration="160" scalar="1/1" mediaStart="16440/1" mediaDuration="160/1" trackNumber="0" src="4" >
             <Transformer>
              <VectorParam id="2910"  name="translation">
               <InterpolatingParam id="2911" interp="linr"  time="-9999999/1" value="0" leadInLength="0/1"  />
               <InterpolatingParam id="2912" interp="linr"  time="-9999999/1" value="0" leadInLength="0/1"  />
               <InterpolatingParam id="2913" interp="linr"  time="-9999999/1" value="0" leadInLength="0/1"  />
              </VectorParam>
              <VectorParam id="2914"  name="rotation">
               <InterpolatingParam id="2915" interp="linr"  time="-9999999/1" value="0" leadInLength="0/1"  />
               <InterpolatingParam id="2916" interp="linr"  time="-9999999/1" value="0" leadInLength="0/1"  />
               <InterpolatingParam id="2917" interp="linr"  time="-9999999/1" value="0" leadInLength="0/1"  />
              </VectorParam>
              <VectorParam id="2918"  name="shear">
               <InterpolatingParam id="2919" interp="linr"  time="-9999999/1" value="0" leadInLength="0/1"  />
               <InterpolatingParam id="2920" interp="linr"  time="-9999999/1" value="0" leadInLength="0/1"  />
               <InterpolatingParam id="2921" interp="linr"  time="-9999999/1" value="0" leadInLength="0/1"  />
              </VectorParam>
              <VectorParam id="2922"  name="scale">
               <InterpolatingParam id="2923" interp="linr"  time="-9999999/1" value="1" leadInLength="0/1"  />
               <InterpolatingParam id="2924" interp="linr"  time="-9999999/1" value="1" leadInLength="0/1"  />
               <InterpolatingParam id="2925" interp="linr"  time="-9999999/1" value="1" leadInLength="0/1"  />
              </VectorParam>
              <VectorParam id="2926"  name="anchor">
               <InterpolatingParam id="2927" interp="linr"  time="0/1" value="0" leadInLength="0/1"  />
               <InterpolatingParam id="2928" interp="linr"  time="0/1" value="0" leadInLength="0/1"  />
               <InterpolatingParam id="2929" interp="linr"  time="0/1" value="0" leadInLength="0/1"  />
              </VectorParam>
             </Transformer>
             <Parameters>
              <VectorParam id="2930"  name="sourceCrop">
               <InterpolatingParam id="2931" interp="linr"  time="0/1" value="0" leadInLength="0/1"  />
               <InterpolatingParam id="2932" interp="linr"  time="0/1" value="0" leadInLength="0/1"  />
               <InterpolatingParam id="2933" interp="linr"  time="0/1" value="0" leadInLength="0/1"  />
               <InterpolatingParam id="2934" interp="linr"  time="0/1" value="0" leadInLength="0/1"  />
              </VectorParam>
              <VectorParam id="2935"  name="geometryCrop">
               <InterpolatingParam id="2936" interp="linr"  time="-9999999/1" value="0" leadInLength="0/1"  />
               <InterpolatingParam id="2937" interp="linr"  time="-9999999/1" value="0" leadInLength="0/1"  />
               <InterpolatingParam id="2938" interp="linr"  time="-9999999/1" value="0" leadInLength="0/1"  />
               <InterpolatingParam id="2939" interp="linr"  time="-9999999/1" value="0" leadInLength="0/1"  />
              </VectorParam>
              <InterpolatingParam id="2940" interp="linr"  time="-9999999/1" value="1" leadInLength="0/1"  name="opacity"/>
              <InterpolatingParam id="2941" interp="linr"  time="0/1" value="0" leadInLength="0/1"  name="cursorOpacity"/>
              <InterpolatingParam id="2942" interp="linr"  time="0/1" value="0" leadInLength="0/1"  name="cursorScale"/>
             </Parameters>
             <Attributes>
              <Attribute id="2943" value="" name="ident"/>
             </Attributes>
             <ExtraData>
              <Entry key="ZoomPanBin">
               <ZoomPanBin id="2944"  >
                <ZoomPanKeyframes>
                 <ZoomPanKeyframe id="2945" timeRangeEnd="-9999999/1" timeRangeDuration="0/1" interpolaterName=""  />
                </ZoomPanKeyframes>
               </ZoomPanBin>
              </Entry>
              <Entry key="CursorEffectBin">
               <CursorEffectBin id="2946"  >
                <CursorEffectKeyframes>
                </CursorEffectKeyframes>
               </CursorEffectBin>
              </Entry>
             </ExtraData>
            </ScreenVMFile>
            <MetaData>
             <entry key="AutoAppliedSmartFocus" val="False"/>
             <entry key="WinSubProjectDisplayName" val=""/>
            </MetaData>
           </UnifiedMedia>
           <UnifiedMedia id="2947"  >
            <AMFile id="2948" start="10107" duration="312" scalar="1/1" mediaStart="16618/1" mediaDuration="312/1" trackNumber="1" src="4" channelNumber="0,1" >
             <Parameters>
              <InterpolatingParam id="2949" interp="linr"  time="0/1" value="1" leadInLength="0/1"  name="volume"/>
              <Parameter id="2950"  name="captions"/>
             </Parameters>
             <Attributes>
              <Attribute id="2951" value="" name="ident"/>
              <Attribute id="2952" value="44100" name="sampleRate"/>
              <Attribute id="2953" value="16" name="bitDepth"/>
              <Attribute id="2954" value="1" name="gain"/>
              <Attribute id="2955" value="0" name="mixToMono"/>
             </Attributes>
            </AMFile>
            <ScreenVMFile id="2956" start="10107" duration="312" scalar="1/1" mediaStart="16618/1" mediaDuration="312/1" trackNumber="0" src="4" >
             <Transformer>
              <VectorParam id="2957"  name="translation">
               <InterpolatingParam id="2958" interp="linr"  time="-9999999/1" value="0" leadInLength="0/1"  />
               <InterpolatingParam id="2959" interp="linr"  time="-9999999/1" value="0" leadInLength="0/1"  />
               <InterpolatingParam id="2960" interp="linr"  time="-9999999/1" value="0" leadInLength="0/1"  />
              </VectorParam>
              <VectorParam id="2961"  name="rotation">
               <InterpolatingParam id="2962" interp="linr"  time="-9999999/1" value="0" leadInLength="0/1"  />
               <InterpolatingParam id="2963" interp="linr"  time="-9999999/1" value="0" leadInLength="0/1"  />
               <InterpolatingParam id="2964" interp="linr"  time="-9999999/1" value="0" leadInLength="0/1"  />
              </VectorParam>
              <VectorParam id="2965"  name="shear">
               <InterpolatingParam id="2966" interp="linr"  time="-9999999/1" value="0" leadInLength="0/1"  />
               <InterpolatingParam id="2967" interp="linr"  time="-9999999/1" value="0" leadInLength="0/1"  />
               <InterpolatingParam id="2968" interp="linr"  time="-9999999/1" value="0" leadInLength="0/1"  />
              </VectorParam>
              <VectorParam id="2969"  name="scale">
               <InterpolatingParam id="2970" interp="linr"  time="-9999999/1" value="1" leadInLength="0/1"  />
               <InterpolatingParam id="2971" interp="linr"  time="-9999999/1" value="1" leadInLength="0/1"  />
               <InterpolatingParam id="2972" interp="linr"  time="-9999999/1" value="1" leadInLength="0/1"  />
              </VectorParam>
              <VectorParam id="2973"  name="anchor">
               <InterpolatingParam id="2974" interp="linr"  time="0/1" value="0" leadInLength="0/1"  />
               <InterpolatingParam id="2975" interp="linr"  time="0/1" value="0" leadInLength="0/1"  />
               <InterpolatingParam id="2976" interp="linr"  time="0/1" value="0" leadInLength="0/1"  />
              </VectorParam>
             </Transformer>
             <Parameters>
              <VectorParam id="2977"  name="sourceCrop">
               <InterpolatingParam id="2978" interp="linr"  time="0/1" value="0" leadInLength="0/1"  />
               <InterpolatingParam id="2979" interp="linr"  time="0/1" value="0" leadInLength="0/1"  />
               <InterpolatingParam id="2980" interp="linr"  time="0/1" value="0" leadInLength="0/1"  />
               <InterpolatingParam id="2981" interp="linr"  time="0/1" value="0" leadInLength="0/1"  />
              </VectorParam>
              <VectorParam id="2982"  name="geometryCrop">
               <InterpolatingParam id="2983" interp="linr"  time="-9999999/1" value="0" leadInLength="0/1"  />
               <InterpolatingParam id="2984" interp="linr"  time="-9999999/1" value="0" leadInLength="0/1"  />
               <InterpolatingParam id="2985" interp="linr"  time="-9999999/1" value="0" leadInLength="0/1"  />
               <InterpolatingParam id="2986" interp="linr"  time="-9999999/1" value="0" leadInLength="0/1"  />
              </VectorParam>
              <InterpolatingParam id="2987" interp="linr"  time="-9999999/1" value="1" leadInLength="0/1"  name="opacity"/>
              <InterpolatingParam id="2988" interp="linr"  time="0/1" value="0" leadInLength="0/1"  name="cursorOpacity"/>
              <InterpolatingParam id="2989" interp="linr"  time="0/1" value="0" leadInLength="0/1"  name="cursorScale"/>
             </Parameters>
             <Attributes>
              <Attribute id="2990" value="" name="ident"/>
             </Attributes>
             <ExtraData>
              <Entry key="ZoomPanBin">
               <ZoomPanBin id="2991"  >
                <ZoomPanKeyframes>
                 <ZoomPanKeyframe id="2992" timeRangeEnd="-9999999/1" timeRangeDuration="0/1" interpolaterName=""  />
                </ZoomPanKeyframes>
               </ZoomPanBin>
              </Entry>
              <Entry key="CursorEffectBin">
               <CursorEffectBin id="2993"  >
                <CursorEffectKeyframes>
                </CursorEffectKeyframes>
               </CursorEffectBin>
              </Entry>
             </ExtraData>
            </ScreenVMFile>
            <MetaData>
             <entry key="AutoAppliedSmartFocus" val="False"/>
             <entry key="WinSubProjectDisplayName" val=""/>
            </MetaData>
           </UnifiedMedia>
           <UnifiedMedia id="2994"  >
            <AMFile id="2995" start="10419" duration="378" scalar="1/1" mediaStart="16940/1" mediaDuration="378/1" trackNumber="1" src="4" channelNumber="0,1" >
             <Parameters>
              <InterpolatingParam id="2996" interp="linr"  time="0/1" value="1" leadInLength="0/1"  name="volume"/>
              <Parameter id="2997"  name="captions"/>
             </Parameters>
             <Attributes>
              <Attribute id="2998" value="" name="ident"/>
              <Attribute id="2999" value="44100" name="sampleRate"/>
              <Attribute id="3000" value="16" name="bitDepth"/>
              <Attribute id="3001" value="1" name="gain"/>
              <Attribute id="3002" value="0" name="mixToMono"/>
             </Attributes>
            </AMFile>
            <ScreenVMFile id="3003" start="10419" duration="378" scalar="1/1" mediaStart="16940/1" mediaDuration="378/1" trackNumber="0" src="4" >
             <Transformer>
              <VectorParam id="3004"  name="translation">
               <InterpolatingParam id="3005" interp="linr"  time="-9999999/1" value="0" leadInLength="0/1"  />
               <InterpolatingParam id="3006" interp="linr"  time="-9999999/1" value="0" leadInLength="0/1"  />
               <InterpolatingParam id="3007" interp="linr"  time="-9999999/1" value="0" leadInLength="0/1"  />
              </VectorParam>
              <VectorParam id="3008"  name="rotation">
               <InterpolatingParam id="3009" interp="linr"  time="-9999999/1" value="0" leadInLength="0/1"  />
               <InterpolatingParam id="3010" interp="linr"  time="-9999999/1" value="0" leadInLength="0/1"  />
               <InterpolatingParam id="3011" interp="linr"  time="-9999999/1" value="0" leadInLength="0/1"  />
              </VectorParam>
              <VectorParam id="3012"  name="shear">
               <InterpolatingParam id="3013" interp="linr"  time="-9999999/1" value="0" leadInLength="0/1"  />
               <InterpolatingParam id="3014" interp="linr"  time="-9999999/1" value="0" leadInLength="0/1"  />
               <InterpolatingParam id="3015" interp="linr"  time="-9999999/1" value="0" leadInLength="0/1"  />
              </VectorParam>
              <VectorParam id="3016"  name="scale">
               <InterpolatingParam id="3017" interp="linr"  time="-9999999/1" value="1" leadInLength="0/1"  />
               <InterpolatingParam id="3018" interp="linr"  time="-9999999/1" value="1" leadInLength="0/1"  />
               <InterpolatingParam id="3019" interp="linr"  time="-9999999/1" value="1" leadInLength="0/1"  />
              </VectorParam>
              <VectorParam id="3020"  name="anchor">
               <InterpolatingParam id="3021" interp="linr"  time="0/1" value="0" leadInLength="0/1"  />
               <InterpolatingParam id="3022" interp="linr"  time="0/1" value="0" leadInLength="0/1"  />
               <InterpolatingParam id="3023" interp="linr"  time="0/1" value="0" leadInLength="0/1"  />
              </VectorParam>
             </Transformer>
             <Parameters>
              <VectorParam id="3024"  name="sourceCrop">
               <InterpolatingParam id="3025" interp="linr"  time="0/1" value="0" leadInLength="0/1"  />
               <InterpolatingParam id="3026" interp="linr"  time="0/1" value="0" leadInLength="0/1"  />
               <InterpolatingParam id="3027" interp="linr"  time="0/1" value="0" leadInLength="0/1"  />
               <InterpolatingParam id="3028" interp="linr"  time="0/1" value="0" leadInLength="0/1"  />
              </VectorParam>
              <VectorParam id="3029"  name="geometryCrop">
               <InterpolatingParam id="3030" interp="linr"  time="-9999999/1" value="0" leadInLength="0/1"  />
               <InterpolatingParam id="3031" interp="linr"  time="-9999999/1" value="0" leadInLength="0/1"  />
               <InterpolatingParam id="3032" interp="linr"  time="-9999999/1" value="0" leadInLength="0/1"  />
               <InterpolatingParam id="3033" interp="linr"  time="-9999999/1" value="0" leadInLength="0/1"  />
              </VectorParam>
              <InterpolatingParam id="3034" interp="linr"  time="-9999999/1" value="1" leadInLength="0/1"  name="opacity"/>
              <InterpolatingParam id="3035" interp="linr"  time="0/1" value="0" leadInLength="0/1"  name="cursorOpacity"/>
              <InterpolatingParam id="3036" interp="linr"  time="0/1" value="0" leadInLength="0/1"  name="cursorScale"/>
             </Parameters>
             <Attributes>
              <Attribute id="3037" value="" name="ident"/>
             </Attributes>
             <ExtraData>
              <Entry key="ZoomPanBin">
               <ZoomPanBin id="3038"  >
                <ZoomPanKeyframes>
                 <ZoomPanKeyframe id="3039" timeRangeEnd="-9999999/1" timeRangeDuration="0/1" interpolaterName=""  />
                </ZoomPanKeyframes>
               </ZoomPanBin>
              </Entry>
              <Entry key="CursorEffectBin">
               <CursorEffectBin id="3040"  >
                <CursorEffectKeyframes>
                </CursorEffectKeyframes>
               </CursorEffectBin>
              </Entry>
             </ExtraData>
            </ScreenVMFile>
            <MetaData>
             <entry key="AutoAppliedSmartFocus" val="False"/>
             <entry key="WinSubProjectDisplayName" val=""/>
            </MetaData>
           </UnifiedMedia>
           <UnifiedMedia id="3041"  >
            <AMFile id="3042" start="10797" duration="166" scalar="1/1" mediaStart="17329/1" mediaDuration="166/1" trackNumber="1" src="4" channelNumber="0,1" >
             <Parameters>
              <InterpolatingParam id="3043" interp="linr"  time="0/1" value="1" leadInLength="0/1"  name="volume"/>
              <Parameter id="3044"  name="captions"/>
             </Parameters>
             <Attributes>
              <Attribute id="3045" value="" name="ident"/>
              <Attribute id="3046" value="44100" name="sampleRate"/>
              <Attribute id="3047" value="16" name="bitDepth"/>
              <Attribute id="3048" value="1" name="gain"/>
              <Attribute id="3049" value="0" name="mixToMono"/>
             </Attributes>
            </AMFile>
            <ScreenVMFile id="3050" start="10797" duration="166" scalar="1/1" mediaStart="17329/1" mediaDuration="166/1" trackNumber="0" src="4" >
             <Transformer>
              <VectorParam id="3051"  name="translation">
               <InterpolatingParam id="3052" interp="linr"  time="-9999999/1" value="0" leadInLength="0/1"  />
               <InterpolatingParam id="3053" interp="linr"  time="-9999999/1" value="0" leadInLength="0/1"  />
               <InterpolatingParam id="3054" interp="linr"  time="-9999999/1" value="0" leadInLength="0/1"  />
              </VectorParam>
              <VectorParam id="3055"  name="rotation">
               <InterpolatingParam id="3056" interp="linr"  time="-9999999/1" value="0" leadInLength="0/1"  />
               <InterpolatingParam id="3057" interp="linr"  time="-9999999/1" value="0" leadInLength="0/1"  />
               <InterpolatingParam id="3058" interp="linr"  time="-9999999/1" value="0" leadInLength="0/1"  />
              </VectorParam>
              <VectorParam id="3059"  name="shear">
               <InterpolatingParam id="3060" interp="linr"  time="-9999999/1" value="0" leadInLength="0/1"  />
               <InterpolatingParam id="3061" interp="linr"  time="-9999999/1" value="0" leadInLength="0/1"  />
               <InterpolatingParam id="3062" interp="linr"  time="-9999999/1" value="0" leadInLength="0/1"  />
              </VectorParam>
              <VectorParam id="3063"  name="scale">
               <InterpolatingParam id="3064" interp="linr"  time="-9999999/1" value="1" leadInLength="0/1"  />
               <InterpolatingParam id="3065" interp="linr"  time="-9999999/1" value="1" leadInLength="0/1"  />
               <InterpolatingParam id="3066" interp="linr"  time="-9999999/1" value="1" leadInLength="0/1"  />
              </VectorParam>
              <VectorParam id="3067"  name="anchor">
               <InterpolatingParam id="3068" interp="linr"  time="0/1" value="0" leadInLength="0/1"  />
               <InterpolatingParam id="3069" interp="linr"  time="0/1" value="0" leadInLength="0/1"  />
               <InterpolatingParam id="3070" interp="linr"  time="0/1" value="0" leadInLength="0/1"  />
              </VectorParam>
             </Transformer>
             <Parameters>
              <VectorParam id="3071"  name="sourceCrop">
               <InterpolatingParam id="3072" interp="linr"  time="0/1" value="0" leadInLength="0/1"  />
               <InterpolatingParam id="3073" interp="linr"  time="0/1" value="0" leadInLength="0/1"  />
               <InterpolatingParam id="3074" interp="linr"  time="0/1" value="0" leadInLength="0/1"  />
               <InterpolatingParam id="3075" interp="linr"  time="0/1" value="0" leadInLength="0/1"  />
              </VectorParam>
              <VectorParam id="3076"  name="geometryCrop">
               <InterpolatingParam id="3077" interp="linr"  time="-9999999/1" value="0" leadInLength="0/1"  />
               <InterpolatingParam id="3078" interp="linr"  time="-9999999/1" value="0" leadInLength="0/1"  />
               <InterpolatingParam id="3079" interp="linr"  time="-9999999/1" value="0" leadInLength="0/1"  />
               <InterpolatingParam id="3080" interp="linr"  time="-9999999/1" value="0" leadInLength="0/1"  />
              </VectorParam>
              <InterpolatingParam id="3081" interp="linr"  time="-9999999/1" value="1" leadInLength="0/1"  name="opacity"/>
              <InterpolatingParam id="3082" interp="linr"  time="0/1" value="0" leadInLength="0/1"  name="cursorOpacity"/>
              <InterpolatingParam id="3083" interp="linr"  time="0/1" value="0" leadInLength="0/1"  name="cursorScale"/>
             </Parameters>
             <Attributes>
              <Attribute id="3084" value="" name="ident"/>
             </Attributes>
             <ExtraData>
              <Entry key="ZoomPanBin">
               <ZoomPanBin id="3085"  >
                <ZoomPanKeyframes>
                 <ZoomPanKeyframe id="3086" timeRangeEnd="-9999999/1" timeRangeDuration="0/1" interpolaterName=""  />
                </ZoomPanKeyframes>
               </ZoomPanBin>
              </Entry>
              <Entry key="CursorEffectBin">
               <CursorEffectBin id="3087"  >
                <CursorEffectKeyframes>
                </CursorEffectKeyframes>
               </CursorEffectBin>
              </Entry>
             </ExtraData>
            </ScreenVMFile>
            <MetaData>
             <entry key="AutoAppliedSmartFocus" val="False"/>
             <entry key="WinSubProjectDisplayName" val=""/>
            </MetaData>
           </UnifiedMedia>
           <UnifiedMedia id="3088"  >
            <AMFile id="3089" start="10963" duration="118" scalar="1/1" mediaStart="17509/1" mediaDuration="118/1" trackNumber="1" src="4" channelNumber="0,1" >
             <Parameters>
              <InterpolatingParam id="3090" interp="linr"  time="0/1" value="1" leadInLength="0/1"  name="volume"/>
              <Parameter id="3091"  name="captions"/>
             </Parameters>
             <Attributes>
              <Attribute id="3092" value="" name="ident"/>
              <Attribute id="3093" value="44100" name="sampleRate"/>
              <Attribute id="3094" value="16" name="bitDepth"/>
              <Attribute id="3095" value="1" name="gain"/>
              <Attribute id="3096" value="0" name="mixToMono"/>
             </Attributes>
            </AMFile>
            <ScreenVMFile id="3097" start="10963" duration="118" scalar="1/1" mediaStart="17509/1" mediaDuration="118/1" trackNumber="0" src="4" >
             <Transformer>
              <VectorParam id="3098"  name="translation">
               <InterpolatingParam id="3099" interp="linr"  time="-9999999/1" value="0" leadInLength="0/1"  />
               <InterpolatingParam id="3100" interp="linr"  time="-9999999/1" value="0" leadInLength="0/1"  />
               <InterpolatingParam id="3101" interp="linr"  time="-9999999/1" value="0" leadInLength="0/1"  />
              </VectorParam>
              <VectorParam id="3102"  name="rotation">
               <InterpolatingParam id="3103" interp="linr"  time="-9999999/1" value="0" leadInLength="0/1"  />
               <InterpolatingParam id="3104" interp="linr"  time="-9999999/1" value="0" leadInLength="0/1"  />
               <InterpolatingParam id="3105" interp="linr"  time="-9999999/1" value="0" leadInLength="0/1"  />
              </VectorParam>
              <VectorParam id="3106"  name="shear">
               <InterpolatingParam id="3107" interp="linr"  time="-9999999/1" value="0" leadInLength="0/1"  />
               <InterpolatingParam id="3108" interp="linr"  time="-9999999/1" value="0" leadInLength="0/1"  />
               <InterpolatingParam id="3109" interp="linr"  time="-9999999/1" value="0" leadInLength="0/1"  />
              </VectorParam>
              <VectorParam id="3110"  name="scale">
               <InterpolatingParam id="3111" interp="linr"  time="-9999999/1" value="1" leadInLength="0/1"  />
               <InterpolatingParam id="3112" interp="linr"  time="-9999999/1" value="1" leadInLength="0/1"  />
               <InterpolatingParam id="3113" interp="linr"  time="-9999999/1" value="1" leadInLength="0/1"  />
              </VectorParam>
              <VectorParam id="3114"  name="anchor">
               <InterpolatingParam id="3115" interp="linr"  time="0/1" value="0" leadInLength="0/1"  />
               <InterpolatingParam id="3116" interp="linr"  time="0/1" value="0" leadInLength="0/1"  />
               <InterpolatingParam id="3117" interp="linr"  time="0/1" value="0" leadInLength="0/1"  />
              </VectorParam>
             </Transformer>
             <Parameters>
              <VectorParam id="3118"  name="sourceCrop">
               <InterpolatingParam id="3119" interp="linr"  time="0/1" value="0" leadInLength="0/1"  />
               <InterpolatingParam id="3120" interp="linr"  time="0/1" value="0" leadInLength="0/1"  />
               <InterpolatingParam id="3121" interp="linr"  time="0/1" value="0" leadInLength="0/1"  />
               <InterpolatingParam id="3122" interp="linr"  time="0/1" value="0" leadInLength="0/1"  />
              </VectorParam>
              <VectorParam id="3123"  name="geometryCrop">
               <InterpolatingParam id="3124" interp="linr"  time="-9999999/1" value="0" leadInLength="0/1"  />
               <InterpolatingParam id="3125" interp="linr"  time="-9999999/1" value="0" leadInLength="0/1"  />
               <InterpolatingParam id="3126" interp="linr"  time="-9999999/1" value="0" leadInLength="0/1"  />
               <InterpolatingParam id="3127" interp="linr"  time="-9999999/1" value="0" leadInLength="0/1"  />
              </VectorParam>
              <InterpolatingParam id="3128" interp="linr"  time="-9999999/1" value="1" leadInLength="0/1"  name="opacity"/>
              <InterpolatingParam id="3129" interp="linr"  time="0/1" value="0" leadInLength="0/1"  name="cursorOpacity"/>
              <InterpolatingParam id="3130" interp="linr"  time="0/1" value="0" leadInLength="0/1"  name="cursorScale"/>
             </Parameters>
             <Attributes>
              <Attribute id="3131" value="" name="ident"/>
             </Attributes>
             <ExtraData>
              <Entry key="ZoomPanBin">
               <ZoomPanBin id="3132"  >
                <ZoomPanKeyframes>
                 <ZoomPanKeyframe id="3133" timeRangeEnd="-9999999/1" timeRangeDuration="0/1" interpolaterName=""  />
                </ZoomPanKeyframes>
               </ZoomPanBin>
              </Entry>
              <Entry key="CursorEffectBin">
               <CursorEffectBin id="3134"  >
                <CursorEffectKeyframes>
                </CursorEffectKeyframes>
               </CursorEffectBin>
              </Entry>
             </ExtraData>
            </ScreenVMFile>
            <MetaData>
             <entry key="AutoAppliedSmartFocus" val="False"/>
             <entry key="WinSubProjectDisplayName" val=""/>
            </MetaData>
           </UnifiedMedia>
           <UnifiedMedia id="3135"  >
            <AMFile id="3136" start="11081" duration="126" scalar="1/1" mediaStart="17641/1" mediaDuration="126/1" trackNumber="1" src="4" channelNumber="0,1" >
             <Parameters>
              <InterpolatingParam id="3137" interp="linr"  time="0/1" value="1" leadInLength="0/1"  name="volume"/>
              <Parameter id="3138"  name="captions"/>
             </Parameters>
             <Attributes>
              <Attribute id="3139" value="" name="ident"/>
              <Attribute id="3140" value="44100" name="sampleRate"/>
              <Attribute id="3141" value="16" name="bitDepth"/>
              <Attribute id="3142" value="1" name="gain"/>
              <Attribute id="3143" value="0" name="mixToMono"/>
             </Attributes>
            </AMFile>
            <ScreenVMFile id="3144" start="11081" duration="126" scalar="1/1" mediaStart="17641/1" mediaDuration="126/1" trackNumber="0" src="4" >
             <Transformer>
              <VectorParam id="3145"  name="translation">
               <InterpolatingParam id="3146" interp="linr"  time="-9999999/1" value="0" leadInLength="0/1"  />
               <InterpolatingParam id="3147" interp="linr"  time="-9999999/1" value="0" leadInLength="0/1"  />
               <InterpolatingParam id="3148" interp="linr"  time="-9999999/1" value="0" leadInLength="0/1"  />
              </VectorParam>
              <VectorParam id="3149"  name="rotation">
               <InterpolatingParam id="3150" interp="linr"  time="-9999999/1" value="0" leadInLength="0/1"  />
               <InterpolatingParam id="3151" interp="linr"  time="-9999999/1" value="0" leadInLength="0/1"  />
               <InterpolatingParam id="3152" interp="linr"  time="-9999999/1" value="0" leadInLength="0/1"  />
              </VectorParam>
              <VectorParam id="3153"  name="shear">
               <InterpolatingParam id="3154" interp="linr"  time="-9999999/1" value="0" leadInLength="0/1"  />
               <InterpolatingParam id="3155" interp="linr"  time="-9999999/1" value="0" leadInLength="0/1"  />
               <InterpolatingParam id="3156" interp="linr"  time="-9999999/1" value="0" leadInLength="0/1"  />
              </VectorParam>
              <VectorParam id="3157"  name="scale">
               <InterpolatingParam id="3158" interp="linr"  time="-9999999/1" value="1" leadInLength="0/1"  />
               <InterpolatingParam id="3159" interp="linr"  time="-9999999/1" value="1" leadInLength="0/1"  />
               <InterpolatingParam id="3160" interp="linr"  time="-9999999/1" value="1" leadInLength="0/1"  />
              </VectorParam>
              <VectorParam id="3161"  name="anchor">
               <InterpolatingParam id="3162" interp="linr"  time="0/1" value="0" leadInLength="0/1"  />
               <InterpolatingParam id="3163" interp="linr"  time="0/1" value="0" leadInLength="0/1"  />
               <InterpolatingParam id="3164" interp="linr"  time="0/1" value="0" leadInLength="0/1"  />
              </VectorParam>
             </Transformer>
             <Parameters>
              <VectorParam id="3165"  name="sourceCrop">
               <InterpolatingParam id="3166" interp="linr"  time="0/1" value="0" leadInLength="0/1"  />
               <InterpolatingParam id="3167" interp="linr"  time="0/1" value="0" leadInLength="0/1"  />
               <InterpolatingParam id="3168" interp="linr"  time="0/1" value="0" leadInLength="0/1"  />
               <InterpolatingParam id="3169" interp="linr"  time="0/1" value="0" leadInLength="0/1"  />
              </VectorParam>
              <VectorParam id="3170"  name="geometryCrop">
               <InterpolatingParam id="3171" interp="linr"  time="-9999999/1" value="0" leadInLength="0/1"  />
               <InterpolatingParam id="3172" interp="linr"  time="-9999999/1" value="0" leadInLength="0/1"  />
               <InterpolatingParam id="3173" interp="linr"  time="-9999999/1" value="0" leadInLength="0/1"  />
               <InterpolatingParam id="3174" interp="linr"  time="-9999999/1" value="0" leadInLength="0/1"  />
              </VectorParam>
              <InterpolatingParam id="3175" interp="linr"  time="-9999999/1" value="1" leadInLength="0/1"  name="opacity"/>
              <InterpolatingParam id="3176" interp="linr"  time="0/1" value="0" leadInLength="0/1"  name="cursorOpacity"/>
              <InterpolatingParam id="3177" interp="linr"  time="0/1" value="0" leadInLength="0/1"  name="cursorScale"/>
             </Parameters>
             <Attributes>
              <Attribute id="3178" value="" name="ident"/>
             </Attributes>
             <ExtraData>
              <Entry key="ZoomPanBin">
               <ZoomPanBin id="3179"  >
                <ZoomPanKeyframes>
                 <ZoomPanKeyframe id="3180" timeRangeEnd="-9999999/1" timeRangeDuration="0/1" interpolaterName=""  />
                </ZoomPanKeyframes>
               </ZoomPanBin>
              </Entry>
              <Entry key="CursorEffectBin">
               <CursorEffectBin id="3181"  >
                <CursorEffectKeyframes>
                </CursorEffectKeyframes>
               </CursorEffectBin>
              </Entry>
             </ExtraData>
            </ScreenVMFile>
            <MetaData>
             <entry key="AutoAppliedSmartFocus" val="False"/>
             <entry key="WinSubProjectDisplayName" val=""/>
            </MetaData>
           </UnifiedMedia>
           <UnifiedMedia id="3182"  >
            <AMFile id="3183" start="11207" duration="280" scalar="1/1" mediaStart="17788/1" mediaDuration="280/1" trackNumber="1" src="4" channelNumber="0,1" >
             <Parameters>
              <InterpolatingParam id="3184" interp="linr"  time="0/1" value="1" leadInLength="0/1"  name="volume"/>
              <Parameter id="3185"  name="captions"/>
             </Parameters>
             <Attributes>
              <Attribute id="3186" value="" name="ident"/>
              <Attribute id="3187" value="44100" name="sampleRate"/>
              <Attribute id="3188" value="16" name="bitDepth"/>
              <Attribute id="3189" value="1" name="gain"/>
              <Attribute id="3190" value="0" name="mixToMono"/>
             </Attributes>
            </AMFile>
            <ScreenVMFile id="3191" start="11207" duration="280" scalar="1/1" mediaStart="17788/1" mediaDuration="280/1" trackNumber="0" src="4" >
             <Transformer>
              <VectorParam id="3192"  name="translation">
               <InterpolatingParam id="3193" interp="linr"  time="-9999999/1" value="0" leadInLength="0/1"  />
               <InterpolatingParam id="3194" interp="linr"  time="-9999999/1" value="0" leadInLength="0/1"  />
               <InterpolatingParam id="3195" interp="linr"  time="-9999999/1" value="0" leadInLength="0/1"  />
              </VectorParam>
              <VectorParam id="3196"  name="rotation">
               <InterpolatingParam id="3197" interp="linr"  time="-9999999/1" value="0" leadInLength="0/1"  />
               <InterpolatingParam id="3198" interp="linr"  time="-9999999/1" value="0" leadInLength="0/1"  />
               <InterpolatingParam id="3199" interp="linr"  time="-9999999/1" value="0" leadInLength="0/1"  />
              </VectorParam>
              <VectorParam id="3200"  name="shear">
               <InterpolatingParam id="3201" interp="linr"  time="-9999999/1" value="0" leadInLength="0/1"  />
               <InterpolatingParam id="3202" interp="linr"  time="-9999999/1" value="0" leadInLength="0/1"  />
               <InterpolatingParam id="3203" interp="linr"  time="-9999999/1" value="0" leadInLength="0/1"  />
              </VectorParam>
              <VectorParam id="3204"  name="scale">
               <InterpolatingParam id="3205" interp="linr"  time="-9999999/1" value="1" leadInLength="0/1"  />
               <InterpolatingParam id="3206" interp="linr"  time="-9999999/1" value="1" leadInLength="0/1"  />
               <InterpolatingParam id="3207" interp="linr"  time="-9999999/1" value="1" leadInLength="0/1"  />
              </VectorParam>
              <VectorParam id="3208"  name="anchor">
               <InterpolatingParam id="3209" interp="linr"  time="0/1" value="0" leadInLength="0/1"  />
               <InterpolatingParam id="3210" interp="linr"  time="0/1" value="0" leadInLength="0/1"  />
               <InterpolatingParam id="3211" interp="linr"  time="0/1" value="0" leadInLength="0/1"  />
              </VectorParam>
             </Transformer>
             <Parameters>
              <VectorParam id="3212"  name="sourceCrop">
               <InterpolatingParam id="3213" interp="linr"  time="0/1" value="0" leadInLength="0/1"  />
               <InterpolatingParam id="3214" interp="linr"  time="0/1" value="0" leadInLength="0/1"  />
               <InterpolatingParam id="3215" interp="linr"  time="0/1" value="0" leadInLength="0/1"  />
               <InterpolatingParam id="3216" interp="linr"  time="0/1" value="0" leadInLength="0/1"  />
              </VectorParam>
              <VectorParam id="3217"  name="geometryCrop">
               <InterpolatingParam id="3218" interp="linr"  time="-9999999/1" value="0" leadInLength="0/1"  />
               <InterpolatingParam id="3219" interp="linr"  time="-9999999/1" value="0" leadInLength="0/1"  />
               <InterpolatingParam id="3220" interp="linr"  time="-9999999/1" value="0" leadInLength="0/1"  />
               <InterpolatingParam id="3221" interp="linr"  time="-9999999/1" value="0" leadInLength="0/1"  />
              </VectorParam>
              <InterpolatingParam id="3222" interp="linr"  time="-9999999/1" value="1" leadInLength="0/1"  name="opacity"/>
              <InterpolatingParam id="3223" interp="linr"  time="0/1" value="0" leadInLength="0/1"  name="cursorOpacity"/>
              <InterpolatingParam id="3224" interp="linr"  time="0/1" value="0" leadInLength="0/1"  name="cursorScale"/>
             </Parameters>
             <Attributes>
              <Attribute id="3225" value="" name="ident"/>
             </Attributes>
             <ExtraData>
              <Entry key="ZoomPanBin">
               <ZoomPanBin id="3226"  >
                <ZoomPanKeyframes>
                 <ZoomPanKeyframe id="3227" timeRangeEnd="-9999999/1" timeRangeDuration="0/1" interpolaterName=""  />
                </ZoomPanKeyframes>
               </ZoomPanBin>
              </Entry>
              <Entry key="CursorEffectBin">
               <CursorEffectBin id="3228"  >
                <CursorEffectKeyframes>
                </CursorEffectKeyframes>
               </CursorEffectBin>
              </Entry>
             </ExtraData>
            </ScreenVMFile>
            <MetaData>
             <entry key="AutoAppliedSmartFocus" val="False"/>
             <entry key="WinSubProjectDisplayName" val=""/>
            </MetaData>
           </UnifiedMedia>
           <UnifiedMedia id="3229"  >
            <AMFile id="3230" start="11487" duration="415" scalar="1/1" mediaStart="18146/1" mediaDuration="415/1" trackNumber="1" src="4" channelNumber="0,1" >
             <Parameters>
              <InterpolatingParam id="3231" interp="linr"  time="0/1" value="1" leadInLength="0/1"  name="volume"/>
              <Parameter id="3232"  name="captions"/>
             </Parameters>
             <Attributes>
              <Attribute id="3233" value="" name="ident"/>
              <Attribute id="3234" value="44100" name="sampleRate"/>
              <Attribute id="3235" value="16" name="bitDepth"/>
              <Attribute id="3236" value="1" name="gain"/>
              <Attribute id="3237" value="0" name="mixToMono"/>
             </Attributes>
            </AMFile>
            <ScreenVMFile id="3238" start="11487" duration="415" scalar="1/1" mediaStart="18146/1" mediaDuration="415/1" trackNumber="0" src="4" >
             <Transformer>
              <VectorParam id="3239"  name="translation">
               <InterpolatingParam id="3240" interp="linr"  time="-9999999/1" value="0" leadInLength="0/1"  />
               <InterpolatingParam id="3241" interp="linr"  time="-9999999/1" value="0" leadInLength="0/1"  />
               <InterpolatingParam id="3242" interp="linr"  time="-9999999/1" value="0" leadInLength="0/1"  />
              </VectorParam>
              <VectorParam id="3243"  name="rotation">
               <InterpolatingParam id="3244" interp="linr"  time="-9999999/1" value="0" leadInLength="0/1"  />
               <InterpolatingParam id="3245" interp="linr"  time="-9999999/1" value="0" leadInLength="0/1"  />
               <InterpolatingParam id="3246" interp="linr"  time="-9999999/1" value="0" leadInLength="0/1"  />
              </VectorParam>
              <VectorParam id="3247"  name="shear">
               <InterpolatingParam id="3248" interp="linr"  time="-9999999/1" value="0" leadInLength="0/1"  />
               <InterpolatingParam id="3249" interp="linr"  time="-9999999/1" value="0" leadInLength="0/1"  />
               <InterpolatingParam id="3250" interp="linr"  time="-9999999/1" value="0" leadInLength="0/1"  />
              </VectorParam>
              <VectorParam id="3251"  name="scale">
               <InterpolatingParam id="3252" interp="linr"  time="-9999999/1" value="1" leadInLength="0/1"  />
               <InterpolatingParam id="3253" interp="linr"  time="-9999999/1" value="1" leadInLength="0/1"  />
               <InterpolatingParam id="3254" interp="linr"  time="-9999999/1" value="1" leadInLength="0/1"  />
              </VectorParam>
              <VectorParam id="3255"  name="anchor">
               <InterpolatingParam id="3256" interp="linr"  time="0/1" value="0" leadInLength="0/1"  />
               <InterpolatingParam id="3257" interp="linr"  time="0/1" value="0" leadInLength="0/1"  />
               <InterpolatingParam id="3258" interp="linr"  time="0/1" value="0" leadInLength="0/1"  />
              </VectorParam>
             </Transformer>
             <Parameters>
              <VectorParam id="3259"  name="sourceCrop">
               <InterpolatingParam id="3260" interp="linr"  time="0/1" value="0" leadInLength="0/1"  />
               <InterpolatingParam id="3261" interp="linr"  time="0/1" value="0" leadInLength="0/1"  />
               <InterpolatingParam id="3262" interp="linr"  time="0/1" value="0" leadInLength="0/1"  />
               <InterpolatingParam id="3263" interp="linr"  time="0/1" value="0" leadInLength="0/1"  />
              </VectorParam>
              <VectorParam id="3264"  name="geometryCrop">
               <InterpolatingParam id="3265" interp="linr"  time="-9999999/1" value="0" leadInLength="0/1"  />
               <InterpolatingParam id="3266" interp="linr"  time="-9999999/1" value="0" leadInLength="0/1"  />
               <InterpolatingParam id="3267" interp="linr"  time="-9999999/1" value="0" leadInLength="0/1"  />
               <InterpolatingParam id="3268" interp="linr"  time="-9999999/1" value="0" leadInLength="0/1"  />
              </VectorParam>
              <InterpolatingParam id="3269" interp="linr"  time="-9999999/1" value="1" leadInLength="0/1"  name="opacity"/>
              <InterpolatingParam id="3270" interp="linr"  time="0/1" value="0" leadInLength="0/1"  name="cursorOpacity"/>
              <InterpolatingParam id="3271" interp="linr"  time="0/1" value="0" leadInLength="0/1"  name="cursorScale"/>
             </Parameters>
             <Attributes>
              <Attribute id="3272" value="" name="ident"/>
             </Attributes>
             <ExtraData>
              <Entry key="ZoomPanBin">
               <ZoomPanBin id="3273"  >
                <ZoomPanKeyframes>
                 <ZoomPanKeyframe id="3274" timeRangeEnd="-9999999/1" timeRangeDuration="0/1" interpolaterName=""  />
                </ZoomPanKeyframes>
               </ZoomPanBin>
              </Entry>
              <Entry key="CursorEffectBin">
               <CursorEffectBin id="3275"  >
                <CursorEffectKeyframes>
                </CursorEffectKeyframes>
               </CursorEffectBin>
              </Entry>
             </ExtraData>
            </ScreenVMFile>
            <MetaData>
             <entry key="AutoAppliedSmartFocus" val="False"/>
             <entry key="WinSubProjectDisplayName" val=""/>
            </MetaData>
           </UnifiedMedia>
           <UnifiedMedia id="3276"  >
            <AMFile id="3277" start="11902" duration="539" scalar="1/1" mediaStart="18749/1" mediaDuration="539/1" trackNumber="1" src="4" channelNumber="0,1" >
             <Parameters>
              <InterpolatingParam id="3278" interp="linr"  time="0/1" value="1" leadInLength="0/1"  name="volume"/>
              <Parameter id="3279"  name="captions"/>
             </Parameters>
             <Attributes>
              <Attribute id="3280" value="" name="ident"/>
              <Attribute id="3281" value="44100" name="sampleRate"/>
              <Attribute id="3282" value="16" name="bitDepth"/>
              <Attribute id="3283" value="1" name="gain"/>
              <Attribute id="3284" value="0" name="mixToMono"/>
             </Attributes>
            </AMFile>
            <ScreenVMFile id="3285" start="11902" duration="539" scalar="1/1" mediaStart="18749/1" mediaDuration="539/1" trackNumber="0" src="4" >
             <Transformer>
              <VectorParam id="3286"  name="translation">
               <InterpolatingParam id="3287" interp="linr"  time="-9999999/1" value="0" leadInLength="0/1"  />
               <InterpolatingParam id="3288" interp="linr"  time="-9999999/1" value="0" leadInLength="0/1"  />
               <InterpolatingParam id="3289" interp="linr"  time="-9999999/1" value="0" leadInLength="0/1"  />
              </VectorParam>
              <VectorParam id="3290"  name="rotation">
               <InterpolatingParam id="3291" interp="linr"  time="-9999999/1" value="0" leadInLength="0/1"  />
               <InterpolatingParam id="3292" interp="linr"  time="-9999999/1" value="0" leadInLength="0/1"  />
               <InterpolatingParam id="3293" interp="linr"  time="-9999999/1" value="0" leadInLength="0/1"  />
              </VectorParam>
              <VectorParam id="3294"  name="shear">
               <InterpolatingParam id="3295" interp="linr"  time="-9999999/1" value="0" leadInLength="0/1"  />
               <InterpolatingParam id="3296" interp="linr"  time="-9999999/1" value="0" leadInLength="0/1"  />
               <InterpolatingParam id="3297" interp="linr"  time="-9999999/1" value="0" leadInLength="0/1"  />
              </VectorParam>
              <VectorParam id="3298"  name="scale">
               <InterpolatingParam id="3299" interp="linr"  time="-9999999/1" value="1" leadInLength="0/1"  />
               <InterpolatingParam id="3300" interp="linr"  time="-9999999/1" value="1" leadInLength="0/1"  />
               <InterpolatingParam id="3301" interp="linr"  time="-9999999/1" value="1" leadInLength="0/1"  />
              </VectorParam>
              <VectorParam id="3302"  name="anchor">
               <InterpolatingParam id="3303" interp="linr"  time="0/1" value="0" leadInLength="0/1"  />
               <InterpolatingParam id="3304" interp="linr"  time="0/1" value="0" leadInLength="0/1"  />
               <InterpolatingParam id="3305" interp="linr"  time="0/1" value="0" leadInLength="0/1"  />
              </VectorParam>
             </Transformer>
             <Parameters>
              <VectorParam id="3306"  name="sourceCrop">
               <InterpolatingParam id="3307" interp="linr"  time="0/1" value="0" leadInLength="0/1"  />
               <InterpolatingParam id="3308" interp="linr"  time="0/1" value="0" leadInLength="0/1"  />
               <InterpolatingParam id="3309" interp="linr"  time="0/1" value="0" leadInLength="0/1"  />
               <InterpolatingParam id="3310" interp="linr"  time="0/1" value="0" leadInLength="0/1"  />
              </VectorParam>
              <VectorParam id="3311"  name="geometryCrop">
               <InterpolatingParam id="3312" interp="linr"  time="-9999999/1" value="0" leadInLength="0/1"  />
               <InterpolatingParam id="3313" interp="linr"  time="-9999999/1" value="0" leadInLength="0/1"  />
               <InterpolatingParam id="3314" interp="linr"  time="-9999999/1" value="0" leadInLength="0/1"  />
               <InterpolatingParam id="3315" interp="linr"  time="-9999999/1" value="0" leadInLength="0/1"  />
              </VectorParam>
              <InterpolatingParam id="3316" interp="linr"  time="-9999999/1" value="1" leadInLength="0/1"  name="opacity"/>
              <InterpolatingParam id="3317" interp="linr"  time="0/1" value="0" leadInLength="0/1"  name="cursorOpacity"/>
              <InterpolatingParam id="3318" interp="linr"  time="0/1" value="0" leadInLength="0/1"  name="cursorScale"/>
             </Parameters>
             <Attributes>
              <Attribute id="3319" value="" name="ident"/>
             </Attributes>
             <ExtraData>
              <Entry key="ZoomPanBin">
               <ZoomPanBin id="3320"  >
                <ZoomPanKeyframes>
                 <ZoomPanKeyframe id="3321" timeRangeEnd="-9999999/1" timeRangeDuration="0/1" interpolaterName=""  />
                </ZoomPanKeyframes>
               </ZoomPanBin>
              </Entry>
              <Entry key="CursorEffectBin">
               <CursorEffectBin id="3322"  >
                <CursorEffectKeyframes>
                </CursorEffectKeyframes>
               </CursorEffectBin>
              </Entry>
             </ExtraData>
            </ScreenVMFile>
            <MetaData>
             <entry key="AutoAppliedSmartFocus" val="False"/>
             <entry key="WinSubProjectDisplayName" val=""/>
            </MetaData>
           </UnifiedMedia>
           <UnifiedMedia id="3323"  >
            <AMFile id="3324" start="12441" duration="150" scalar="1/1" mediaStart="19302/1" mediaDuration="150/1" trackNumber="1" src="4" channelNumber="0,1" >
             <Parameters>
              <InterpolatingParam id="3325" interp="linr"  time="0/1" value="1" leadInLength="0/1"  name="volume"/>
              <Parameter id="3326"  name="captions"/>
             </Parameters>
             <Attributes>
              <Attribute id="3327" value="" name="ident"/>
              <Attribute id="3328" value="44100" name="sampleRate"/>
              <Attribute id="3329" value="16" name="bitDepth"/>
              <Attribute id="3330" value="1" name="gain"/>
              <Attribute id="3331" value="0" name="mixToMono"/>
             </Attributes>
            </AMFile>
            <ScreenVMFile id="3332" start="12441" duration="150" scalar="1/1" mediaStart="19302/1" mediaDuration="150/1" trackNumber="0" src="4" >
             <Transformer>
              <VectorParam id="3333"  name="translation">
               <InterpolatingParam id="3334" interp="linr"  time="-9999999/1" value="0" leadInLength="0/1"  />
               <InterpolatingParam id="3335" interp="linr"  time="-9999999/1" value="0" leadInLength="0/1"  />
               <InterpolatingParam id="3336" interp="linr"  time="-9999999/1" value="0" leadInLength="0/1"  />
              </VectorParam>
              <VectorParam id="3337"  name="rotation">
               <InterpolatingParam id="3338" interp="linr"  time="-9999999/1" value="0" leadInLength="0/1"  />
               <InterpolatingParam id="3339" interp="linr"  time="-9999999/1" value="0" leadInLength="0/1"  />
               <InterpolatingParam id="3340" interp="linr"  time="-9999999/1" value="0" leadInLength="0/1"  />
              </VectorParam>
              <VectorParam id="3341"  name="shear">
               <InterpolatingParam id="3342" interp="linr"  time="-9999999/1" value="0" leadInLength="0/1"  />
               <InterpolatingParam id="3343" interp="linr"  time="-9999999/1" value="0" leadInLength="0/1"  />
               <InterpolatingParam id="3344" interp="linr"  time="-9999999/1" value="0" leadInLength="0/1"  />
              </VectorParam>
              <VectorParam id="3345"  name="scale">
               <InterpolatingParam id="3346" interp="linr"  time="-9999999/1" value="1" leadInLength="0/1"  />
               <InterpolatingParam id="3347" interp="linr"  time="-9999999/1" value="1" leadInLength="0/1"  />
               <InterpolatingParam id="3348" interp="linr"  time="-9999999/1" value="1" leadInLength="0/1"  />
              </VectorParam>
              <VectorParam id="3349"  name="anchor">
               <InterpolatingParam id="3350" interp="linr"  time="0/1" value="0" leadInLength="0/1"  />
               <InterpolatingParam id="3351" interp="linr"  time="0/1" value="0" leadInLength="0/1"  />
               <InterpolatingParam id="3352" interp="linr"  time="0/1" value="0" leadInLength="0/1"  />
              </VectorParam>
             </Transformer>
             <Parameters>
              <VectorParam id="3353"  name="sourceCrop">
               <InterpolatingParam id="3354" interp="linr"  time="0/1" value="0" leadInLength="0/1"  />
               <InterpolatingParam id="3355" interp="linr"  time="0/1" value="0" leadInLength="0/1"  />
               <InterpolatingParam id="3356" interp="linr"  time="0/1" value="0" leadInLength="0/1"  />
               <InterpolatingParam id="3357" interp="linr"  time="0/1" value="0" leadInLength="0/1"  />
              </VectorParam>
              <VectorParam id="3358"  name="geometryCrop">
               <InterpolatingParam id="3359" interp="linr"  time="-9999999/1" value="0" leadInLength="0/1"  />
               <InterpolatingParam id="3360" interp="linr"  time="-9999999/1" value="0" leadInLength="0/1"  />
               <InterpolatingParam id="3361" interp="linr"  time="-9999999/1" value="0" leadInLength="0/1"  />
               <InterpolatingParam id="3362" interp="linr"  time="-9999999/1" value="0" leadInLength="0/1"  />
              </VectorParam>
              <InterpolatingParam id="3363" interp="linr"  time="-9999999/1" value="1" leadInLength="0/1"  name="opacity"/>
              <InterpolatingParam id="3364" interp="linr"  time="0/1" value="0" leadInLength="0/1"  name="cursorOpacity"/>
              <InterpolatingParam id="3365" interp="linr"  time="0/1" value="0" leadInLength="0/1"  name="cursorScale"/>
             </Parameters>
             <Attributes>
              <Attribute id="3366" value="" name="ident"/>
             </Attributes>
             <ExtraData>
              <Entry key="ZoomPanBin">
               <ZoomPanBin id="3367"  >
                <ZoomPanKeyframes>
                 <ZoomPanKeyframe id="3368" timeRangeEnd="-9999999/1" timeRangeDuration="0/1" interpolaterName=""  />
                </ZoomPanKeyframes>
               </ZoomPanBin>
              </Entry>
              <Entry key="CursorEffectBin">
               <CursorEffectBin id="3369"  >
                <CursorEffectKeyframes>
                </CursorEffectKeyframes>
               </CursorEffectBin>
              </Entry>
             </ExtraData>
            </ScreenVMFile>
            <MetaData>
             <entry key="AutoAppliedSmartFocus" val="False"/>
             <entry key="WinSubProjectDisplayName" val=""/>
            </MetaData>
           </UnifiedMedia>
           <UnifiedMedia id="3370"  >
            <AMFile id="3371" start="12591" duration="50" scalar="1/1" mediaStart="19463/1" mediaDuration="50/1" trackNumber="1" src="4" channelNumber="0,1" >
             <Parameters>
              <InterpolatingParam id="3372" interp="linr"  time="0/1" value="1" leadInLength="0/1"  name="volume"/>
              <Parameter id="3373"  name="captions"/>
             </Parameters>
             <Attributes>
              <Attribute id="3374" value="" name="ident"/>
              <Attribute id="3375" value="44100" name="sampleRate"/>
              <Attribute id="3376" value="16" name="bitDepth"/>
              <Attribute id="3377" value="1" name="gain"/>
              <Attribute id="3378" value="0" name="mixToMono"/>
             </Attributes>
            </AMFile>
            <ScreenVMFile id="3379" start="12591" duration="50" scalar="1/1" mediaStart="19463/1" mediaDuration="50/1" trackNumber="0" src="4" >
             <Transformer>
              <VectorParam id="3380"  name="translation">
               <InterpolatingParam id="3381" interp="linr"  time="-9999999/1" value="0" leadInLength="0/1"  />
               <InterpolatingParam id="3382" interp="linr"  time="-9999999/1" value="0" leadInLength="0/1"  />
               <InterpolatingParam id="3383" interp="linr"  time="-9999999/1" value="0" leadInLength="0/1"  />
              </VectorParam>
              <VectorParam id="3384"  name="rotation">
               <InterpolatingParam id="3385" interp="linr"  time="-9999999/1" value="0" leadInLength="0/1"  />
               <InterpolatingParam id="3386" interp="linr"  time="-9999999/1" value="0" leadInLength="0/1"  />
               <InterpolatingParam id="3387" interp="linr"  time="-9999999/1" value="0" leadInLength="0/1"  />
              </VectorParam>
              <VectorParam id="3388"  name="shear">
               <InterpolatingParam id="3389" interp="linr"  time="-9999999/1" value="0" leadInLength="0/1"  />
               <InterpolatingParam id="3390" interp="linr"  time="-9999999/1" value="0" leadInLength="0/1"  />
               <InterpolatingParam id="3391" interp="linr"  time="-9999999/1" value="0" leadInLength="0/1"  />
              </VectorParam>
              <VectorParam id="3392"  name="scale">
               <InterpolatingParam id="3393" interp="linr"  time="-9999999/1" value="1" leadInLength="0/1"  />
               <InterpolatingParam id="3394" interp="linr"  time="-9999999/1" value="1" leadInLength="0/1"  />
               <InterpolatingParam id="3395" interp="linr"  time="-9999999/1" value="1" leadInLength="0/1"  />
              </VectorParam>
              <VectorParam id="3396"  name="anchor">
               <InterpolatingParam id="3397" interp="linr"  time="0/1" value="0" leadInLength="0/1"  />
               <InterpolatingParam id="3398" interp="linr"  time="0/1" value="0" leadInLength="0/1"  />
               <InterpolatingParam id="3399" interp="linr"  time="0/1" value="0" leadInLength="0/1"  />
              </VectorParam>
             </Transformer>
             <Parameters>
              <VectorParam id="3400"  name="sourceCrop">
               <InterpolatingParam id="3401" interp="linr"  time="0/1" value="0" leadInLength="0/1"  />
               <InterpolatingParam id="3402" interp="linr"  time="0/1" value="0" leadInLength="0/1"  />
               <InterpolatingParam id="3403" interp="linr"  time="0/1" value="0" leadInLength="0/1"  />
               <InterpolatingParam id="3404" interp="linr"  time="0/1" value="0" leadInLength="0/1"  />
              </VectorParam>
              <VectorParam id="3405"  name="geometryCrop">
               <InterpolatingParam id="3406" interp="linr"  time="-9999999/1" value="0" leadInLength="0/1"  />
               <InterpolatingParam id="3407" interp="linr"  time="-9999999/1" value="0" leadInLength="0/1"  />
               <InterpolatingParam id="3408" interp="linr"  time="-9999999/1" value="0" leadInLength="0/1"  />
               <InterpolatingParam id="3409" interp="linr"  time="-9999999/1" value="0" leadInLength="0/1"  />
              </VectorParam>
              <InterpolatingParam id="3410" interp="linr"  time="-9999999/1" value="1" leadInLength="0/1"  name="opacity"/>
              <InterpolatingParam id="3411" interp="linr"  time="0/1" value="0" leadInLength="0/1"  name="cursorOpacity"/>
              <InterpolatingParam id="3412" interp="linr"  time="0/1" value="0" leadInLength="0/1"  name="cursorScale"/>
             </Parameters>
             <Attributes>
              <Attribute id="3413" value="" name="ident"/>
             </Attributes>
             <ExtraData>
              <Entry key="ZoomPanBin">
               <ZoomPanBin id="3414"  >
                <ZoomPanKeyframes>
                 <ZoomPanKeyframe id="3415" timeRangeEnd="-9999999/1" timeRangeDuration="0/1" interpolaterName=""  />
                </ZoomPanKeyframes>
               </ZoomPanBin>
              </Entry>
              <Entry key="CursorEffectBin">
               <CursorEffectBin id="3416"  >
                <CursorEffectKeyframes>
                </CursorEffectKeyframes>
               </CursorEffectBin>
              </Entry>
             </ExtraData>
            </ScreenVMFile>
            <MetaData>
             <entry key="AutoAppliedSmartFocus" val="False"/>
             <entry key="WinSubProjectDisplayName" val=""/>
            </MetaData>
           </UnifiedMedia>
           <UnifiedMedia id="3417"  >
            <AMFile id="3418" start="12641" duration="462" scalar="1/1" mediaStart="19826/1" mediaDuration="462/1" trackNumber="1" src="4" channelNumber="0,1" >
             <Parameters>
              <InterpolatingParam id="3419" interp="linr"  time="0/1" value="1" leadInLength="0/1"  name="volume"/>
              <Parameter id="3420"  name="captions"/>
             </Parameters>
             <Attributes>
              <Attribute id="3421" value="" name="ident"/>
              <Attribute id="3422" value="44100" name="sampleRate"/>
              <Attribute id="3423" value="16" name="bitDepth"/>
              <Attribute id="3424" value="1" name="gain"/>
              <Attribute id="3425" value="0" name="mixToMono"/>
             </Attributes>
            </AMFile>
            <ScreenVMFile id="3426" start="12641" duration="462" scalar="1/1" mediaStart="19826/1" mediaDuration="462/1" trackNumber="0" src="4" >
             <Transformer>
              <VectorParam id="3427"  name="translation">
               <InterpolatingParam id="3428" interp="linr"  time="-9999999/1" value="0" leadInLength="0/1"  />
               <InterpolatingParam id="3429" interp="linr"  time="-9999999/1" value="0" leadInLength="0/1"  />
               <InterpolatingParam id="3430" interp="linr"  time="-9999999/1" value="0" leadInLength="0/1"  />
              </VectorParam>
              <VectorParam id="3431"  name="rotation">
               <InterpolatingParam id="3432" interp="linr"  time="-9999999/1" value="0" leadInLength="0/1"  />
               <InterpolatingParam id="3433" interp="linr"  time="-9999999/1" value="0" leadInLength="0/1"  />
               <InterpolatingParam id="3434" interp="linr"  time="-9999999/1" value="0" leadInLength="0/1"  />
              </VectorParam>
              <VectorParam id="3435"  name="shear">
               <InterpolatingParam id="3436" interp="linr"  time="-9999999/1" value="0" leadInLength="0/1"  />
               <InterpolatingParam id="3437" interp="linr"  time="-9999999/1" value="0" leadInLength="0/1"  />
               <InterpolatingParam id="3438" interp="linr"  time="-9999999/1" value="0" leadInLength="0/1"  />
              </VectorParam>
              <VectorParam id="3439"  name="scale">
               <InterpolatingParam id="3440" interp="linr"  time="-9999999/1" value="1" leadInLength="0/1"  />
               <InterpolatingParam id="3441" interp="linr"  time="-9999999/1" value="1" leadInLength="0/1"  />
               <InterpolatingParam id="3442" interp="linr"  time="-9999999/1" value="1" leadInLength="0/1"  />
              </VectorParam>
              <VectorParam id="3443"  name="anchor">
               <InterpolatingParam id="3444" interp="linr"  time="0/1" value="0" leadInLength="0/1"  />
               <InterpolatingParam id="3445" interp="linr"  time="0/1" value="0" leadInLength="0/1"  />
               <InterpolatingParam id="3446" interp="linr"  time="0/1" value="0" leadInLength="0/1"  />
              </VectorParam>
             </Transformer>
             <Parameters>
              <VectorParam id="3447"  name="sourceCrop">
               <InterpolatingParam id="3448" interp="linr"  time="0/1" value="0" leadInLength="0/1"  />
               <InterpolatingParam id="3449" interp="linr"  time="0/1" value="0" leadInLength="0/1"  />
               <InterpolatingParam id="3450" interp="linr"  time="0/1" value="0" leadInLength="0/1"  />
               <InterpolatingParam id="3451" interp="linr"  time="0/1" value="0" leadInLength="0/1"  />
              </VectorParam>
              <VectorParam id="3452"  name="geometryCrop">
               <InterpolatingParam id="3453" interp="linr"  time="-9999999/1" value="0" leadInLength="0/1"  />
               <InterpolatingParam id="3454" interp="linr"  time="-9999999/1" value="0" leadInLength="0/1"  />
               <InterpolatingParam id="3455" interp="linr"  time="-9999999/1" value="0" leadInLength="0/1"  />
               <InterpolatingParam id="3456" interp="linr"  time="-9999999/1" value="0" leadInLength="0/1"  />
              </VectorParam>
              <InterpolatingParam id="3457" interp="linr"  time="-9999999/1" value="1" leadInLength="0/1"  name="opacity"/>
              <InterpolatingParam id="3458" interp="linr"  time="0/1" value="0" leadInLength="0/1"  name="cursorOpacity"/>
              <InterpolatingParam id="3459" interp="linr"  time="0/1" value="0" leadInLength="0/1"  name="cursorScale"/>
             </Parameters>
             <Attributes>
              <Attribute id="3460" value="" name="ident"/>
             </Attributes>
             <ExtraData>
              <Entry key="ZoomPanBin">
               <ZoomPanBin id="3461"  >
                <ZoomPanKeyframes>
                 <ZoomPanKeyframe id="3462" timeRangeEnd="-9999999/1" timeRangeDuration="0/1" interpolaterName=""  />
                </ZoomPanKeyframes>
               </ZoomPanBin>
              </Entry>
              <Entry key="CursorEffectBin">
               <CursorEffectBin id="3463"  >
                <CursorEffectKeyframes>
                </CursorEffectKeyframes>
               </CursorEffectBin>
              </Entry>
             </ExtraData>
            </ScreenVMFile>
            <MetaData>
             <entry key="AutoAppliedSmartFocus" val="False"/>
             <entry key="WinSubProjectDisplayName" val=""/>
            </MetaData>
           </UnifiedMedia>
           <UnifiedMedia id="3464"  >
            <AMFile id="3465" start="13103" duration="89" scalar="1/1" mediaStart="20296/1" mediaDuration="89/1" trackNumber="1" src="4" channelNumber="0,1" >
             <Parameters>
              <InterpolatingParam id="3466" interp="linr"  time="0/1" value="1" leadInLength="0/1"  name="volume"/>
              <Parameter id="3467"  name="captions"/>
             </Parameters>
             <Attributes>
              <Attribute id="3468" value="" name="ident"/>
              <Attribute id="3469" value="44100" name="sampleRate"/>
              <Attribute id="3470" value="16" name="bitDepth"/>
              <Attribute id="3471" value="1" name="gain"/>
              <Attribute id="3472" value="0" name="mixToMono"/>
             </Attributes>
            </AMFile>
            <ScreenVMFile id="3473" start="13103" duration="89" scalar="1/1" mediaStart="20296/1" mediaDuration="89/1" trackNumber="0" src="4" >
             <Transformer>
              <VectorParam id="3474"  name="translation">
               <InterpolatingParam id="3475" interp="linr"  time="-9999999/1" value="0" leadInLength="0/1"  />
               <InterpolatingParam id="3476" interp="linr"  time="-9999999/1" value="0" leadInLength="0/1"  />
               <InterpolatingParam id="3477" interp="linr"  time="-9999999/1" value="0" leadInLength="0/1"  />
              </VectorParam>
              <VectorParam id="3478"  name="rotation">
               <InterpolatingParam id="3479" interp="linr"  time="-9999999/1" value="0" leadInLength="0/1"  />
               <InterpolatingParam id="3480" interp="linr"  time="-9999999/1" value="0" leadInLength="0/1"  />
               <InterpolatingParam id="3481" interp="linr"  time="-9999999/1" value="0" leadInLength="0/1"  />
              </VectorParam>
              <VectorParam id="3482"  name="shear">
               <InterpolatingParam id="3483" interp="linr"  time="-9999999/1" value="0" leadInLength="0/1"  />
               <InterpolatingParam id="3484" interp="linr"  time="-9999999/1" value="0" leadInLength="0/1"  />
               <InterpolatingParam id="3485" interp="linr"  time="-9999999/1" value="0" leadInLength="0/1"  />
              </VectorParam>
              <VectorParam id="3486"  name="scale">
               <InterpolatingParam id="3487" interp="linr"  time="-9999999/1" value="1" leadInLength="0/1"  />
               <InterpolatingParam id="3488" interp="linr"  time="-9999999/1" value="1" leadInLength="0/1"  />
               <InterpolatingParam id="3489" interp="linr"  time="-9999999/1" value="1" leadInLength="0/1"  />
              </VectorParam>
              <VectorParam id="3490"  name="anchor">
               <InterpolatingParam id="3491" interp="linr"  time="0/1" value="0" leadInLength="0/1"  />
               <InterpolatingParam id="3492" interp="linr"  time="0/1" value="0" leadInLength="0/1"  />
               <InterpolatingParam id="3493" interp="linr"  time="0/1" value="0" leadInLength="0/1"  />
              </VectorParam>
             </Transformer>
             <Parameters>
              <VectorParam id="3494"  name="sourceCrop">
               <InterpolatingParam id="3495" interp="linr"  time="0/1" value="0" leadInLength="0/1"  />
               <InterpolatingParam id="3496" interp="linr"  time="0/1" value="0" leadInLength="0/1"  />
               <InterpolatingParam id="3497" interp="linr"  time="0/1" value="0" leadInLength="0/1"  />
               <InterpolatingParam id="3498" interp="linr"  time="0/1" value="0" leadInLength="0/1"  />
              </VectorParam>
              <VectorParam id="3499"  name="geometryCrop">
               <InterpolatingParam id="3500" interp="linr"  time="-9999999/1" value="0" leadInLength="0/1"  />
               <InterpolatingParam id="3501" interp="linr"  time="-9999999/1" value="0" leadInLength="0/1"  />
               <InterpolatingParam id="3502" interp="linr"  time="-9999999/1" value="0" leadInLength="0/1"  />
               <InterpolatingParam id="3503" interp="linr"  time="-9999999/1" value="0" leadInLength="0/1"  />
              </VectorParam>
              <InterpolatingParam id="3504" interp="linr"  time="-9999999/1" value="1" leadInLength="0/1"  name="opacity"/>
              <InterpolatingParam id="3505" interp="linr"  time="0/1" value="0" leadInLength="0/1"  name="cursorOpacity"/>
              <InterpolatingParam id="3506" interp="linr"  time="0/1" value="0" leadInLength="0/1"  name="cursorScale"/>
             </Parameters>
             <Attributes>
              <Attribute id="3507" value="" name="ident"/>
             </Attributes>
             <ExtraData>
              <Entry key="ZoomPanBin">
               <ZoomPanBin id="3508"  >
                <ZoomPanKeyframes>
                 <ZoomPanKeyframe id="3509" timeRangeEnd="-9999999/1" timeRangeDuration="0/1" interpolaterName=""  />
                </ZoomPanKeyframes>
               </ZoomPanBin>
              </Entry>
              <Entry key="CursorEffectBin">
               <CursorEffectBin id="3510"  >
                <CursorEffectKeyframes>
                </CursorEffectKeyframes>
               </CursorEffectBin>
              </Entry>
             </ExtraData>
            </ScreenVMFile>
            <MetaData>
             <entry key="AutoAppliedSmartFocus" val="False"/>
             <entry key="WinSubProjectDisplayName" val=""/>
            </MetaData>
           </UnifiedMedia>
           <UnifiedMedia id="3511"  >
            <AMFile id="3512" start="13192" duration="53" scalar="1/1" mediaStart="20395/1" mediaDuration="53/1" trackNumber="1" src="4" channelNumber="0,1" >
             <Parameters>
              <InterpolatingParam id="3513" interp="linr"  time="0/1" value="1" leadInLength="0/1"  name="volume"/>
              <Parameter id="3514"  name="captions"/>
             </Parameters>
             <Attributes>
              <Attribute id="3515" value="" name="ident"/>
              <Attribute id="3516" value="44100" name="sampleRate"/>
              <Attribute id="3517" value="16" name="bitDepth"/>
              <Attribute id="3518" value="1" name="gain"/>
              <Attribute id="3519" value="0" name="mixToMono"/>
             </Attributes>
            </AMFile>
            <ScreenVMFile id="3520" start="13192" duration="53" scalar="1/1" mediaStart="20395/1" mediaDuration="53/1" trackNumber="0" src="4" >
             <Transformer>
              <VectorParam id="3521"  name="translation">
               <InterpolatingParam id="3522" interp="linr"  time="-9999999/1" value="0" leadInLength="0/1"  />
               <InterpolatingParam id="3523" interp="linr"  time="-9999999/1" value="0" leadInLength="0/1"  />
               <InterpolatingParam id="3524" interp="linr"  time="-9999999/1" value="0" leadInLength="0/1"  />
              </VectorParam>
              <VectorParam id="3525"  name="rotation">
               <InterpolatingParam id="3526" interp="linr"  time="-9999999/1" value="0" leadInLength="0/1"  />
               <InterpolatingParam id="3527" interp="linr"  time="-9999999/1" value="0" leadInLength="0/1"  />
               <InterpolatingParam id="3528" interp="linr"  time="-9999999/1" value="0" leadInLength="0/1"  />
              </VectorParam>
              <VectorParam id="3529"  name="shear">
               <InterpolatingParam id="3530" interp="linr"  time="-9999999/1" value="0" leadInLength="0/1"  />
               <InterpolatingParam id="3531" interp="linr"  time="-9999999/1" value="0" leadInLength="0/1"  />
               <InterpolatingParam id="3532" interp="linr"  time="-9999999/1" value="0" leadInLength="0/1"  />
              </VectorParam>
              <VectorParam id="3533"  name="scale">
               <InterpolatingParam id="3534" interp="linr"  time="-9999999/1" value="1" leadInLength="0/1"  />
               <InterpolatingParam id="3535" interp="linr"  time="-9999999/1" value="1" leadInLength="0/1"  />
               <InterpolatingParam id="3536" interp="linr"  time="-9999999/1" value="1" leadInLength="0/1"  />
              </VectorParam>
              <VectorParam id="3537"  name="anchor">
               <InterpolatingParam id="3538" interp="linr"  time="0/1" value="0" leadInLength="0/1"  />
               <InterpolatingParam id="3539" interp="linr"  time="0/1" value="0" leadInLength="0/1"  />
               <InterpolatingParam id="3540" interp="linr"  time="0/1" value="0" leadInLength="0/1"  />
              </VectorParam>
             </Transformer>
             <Parameters>
              <VectorParam id="3541"  name="sourceCrop">
               <InterpolatingParam id="3542" interp="linr"  time="0/1" value="0" leadInLength="0/1"  />
               <InterpolatingParam id="3543" interp="linr"  time="0/1" value="0" leadInLength="0/1"  />
               <InterpolatingParam id="3544" interp="linr"  time="0/1" value="0" leadInLength="0/1"  />
               <InterpolatingParam id="3545" interp="linr"  time="0/1" value="0" leadInLength="0/1"  />
              </VectorParam>
              <VectorParam id="3546"  name="geometryCrop">
               <InterpolatingParam id="3547" interp="linr"  time="-9999999/1" value="0" leadInLength="0/1"  />
               <InterpolatingParam id="3548" interp="linr"  time="-9999999/1" value="0" leadInLength="0/1"  />
               <InterpolatingParam id="3549" interp="linr"  time="-9999999/1" value="0" leadInLength="0/1"  />
               <InterpolatingParam id="3550" interp="linr"  time="-9999999/1" value="0" leadInLength="0/1"  />
              </VectorParam>
              <InterpolatingParam id="3551" interp="linr"  time="-9999999/1" value="1" leadInLength="0/1"  name="opacity"/>
              <InterpolatingParam id="3552" interp="linr"  time="0/1" value="0" leadInLength="0/1"  name="cursorOpacity"/>
              <InterpolatingParam id="3553" interp="linr"  time="0/1" value="0" leadInLength="0/1"  name="cursorScale"/>
             </Parameters>
             <Attributes>
              <Attribute id="3554" value="" name="ident"/>
             </Attributes>
             <ExtraData>
              <Entry key="ZoomPanBin">
               <ZoomPanBin id="3555"  >
                <ZoomPanKeyframes>
                 <ZoomPanKeyframe id="3556" timeRangeEnd="-9999999/1" timeRangeDuration="0/1" interpolaterName=""  />
                </ZoomPanKeyframes>
               </ZoomPanBin>
              </Entry>
              <Entry key="CursorEffectBin">
               <CursorEffectBin id="3557"  >
                <CursorEffectKeyframes>
                </CursorEffectKeyframes>
               </CursorEffectBin>
              </Entry>
             </ExtraData>
            </ScreenVMFile>
            <MetaData>
             <entry key="AutoAppliedSmartFocus" val="False"/>
             <entry key="WinSubProjectDisplayName" val=""/>
            </MetaData>
           </UnifiedMedia>
           <UnifiedMedia id="3558"  >
            <AMFile id="3559" start="13245" duration="62" scalar="1/1" mediaStart="20462/1" mediaDuration="62/1" trackNumber="1" src="4" channelNumber="0,1" >
             <Parameters>
              <InterpolatingParam id="3560" interp="linr"  time="0/1" value="1" leadInLength="0/1"  name="volume"/>
              <Parameter id="3561"  name="captions"/>
             </Parameters>
             <Attributes>
              <Attribute id="3562" value="" name="ident"/>
              <Attribute id="3563" value="44100" name="sampleRate"/>
              <Attribute id="3564" value="16" name="bitDepth"/>
              <Attribute id="3565" value="1" name="gain"/>
              <Attribute id="3566" value="0" name="mixToMono"/>
             </Attributes>
            </AMFile>
            <ScreenVMFile id="3567" start="13245" duration="62" scalar="1/1" mediaStart="20462/1" mediaDuration="62/1" trackNumber="0" src="4" >
             <Transformer>
              <VectorParam id="3568"  name="translation">
               <InterpolatingParam id="3569" interp="linr"  time="-9999999/1" value="0" leadInLength="0/1"  />
               <InterpolatingParam id="3570" interp="linr"  time="-9999999/1" value="0" leadInLength="0/1"  />
               <InterpolatingParam id="3571" interp="linr"  time="-9999999/1" value="0" leadInLength="0/1"  />
              </VectorParam>
              <VectorParam id="3572"  name="rotation">
               <InterpolatingParam id="3573" interp="linr"  time="-9999999/1" value="0" leadInLength="0/1"  />
               <InterpolatingParam id="3574" interp="linr"  time="-9999999/1" value="0" leadInLength="0/1"  />
               <InterpolatingParam id="3575" interp="linr"  time="-9999999/1" value="0" leadInLength="0/1"  />
              </VectorParam>
              <VectorParam id="3576"  name="shear">
               <InterpolatingParam id="3577" interp="linr"  time="-9999999/1" value="0" leadInLength="0/1"  />
               <InterpolatingParam id="3578" interp="linr"  time="-9999999/1" value="0" leadInLength="0/1"  />
               <InterpolatingParam id="3579" interp="linr"  time="-9999999/1" value="0" leadInLength="0/1"  />
              </VectorParam>
              <VectorParam id="3580"  name="scale">
               <InterpolatingParam id="3581" interp="linr"  time="-9999999/1" value="1" leadInLength="0/1"  />
               <InterpolatingParam id="3582" interp="linr"  time="-9999999/1" value="1" leadInLength="0/1"  />
               <InterpolatingParam id="3583" interp="linr"  time="-9999999/1" value="1" leadInLength="0/1"  />
              </VectorParam>
              <VectorParam id="3584"  name="anchor">
               <InterpolatingParam id="3585" interp="linr"  time="0/1" value="0" leadInLength="0/1"  />
               <InterpolatingParam id="3586" interp="linr"  time="0/1" value="0" leadInLength="0/1"  />
               <InterpolatingParam id="3587" interp="linr"  time="0/1" value="0" leadInLength="0/1"  />
              </VectorParam>
             </Transformer>
             <Parameters>
              <VectorParam id="3588"  name="sourceCrop">
               <InterpolatingParam id="3589" interp="linr"  time="0/1" value="0" leadInLength="0/1"  />
               <InterpolatingParam id="3590" interp="linr"  time="0/1" value="0" leadInLength="0/1"  />
               <InterpolatingParam id="3591" interp="linr"  time="0/1" value="0" leadInLength="0/1"  />
               <InterpolatingParam id="3592" interp="linr"  time="0/1" value="0" leadInLength="0/1"  />
              </VectorParam>
              <VectorParam id="3593"  name="geometryCrop">
               <InterpolatingParam id="3594" interp="linr"  time="-9999999/1" value="0" leadInLength="0/1"  />
               <InterpolatingParam id="3595" interp="linr"  time="-9999999/1" value="0" leadInLength="0/1"  />
               <InterpolatingParam id="3596" interp="linr"  time="-9999999/1" value="0" leadInLength="0/1"  />
               <InterpolatingParam id="3597" interp="linr"  time="-9999999/1" value="0" leadInLength="0/1"  />
              </VectorParam>
              <InterpolatingParam id="3598" interp="linr"  time="-9999999/1" value="1" leadInLength="0/1"  name="opacity"/>
              <InterpolatingParam id="3599" interp="linr"  time="0/1" value="0" leadInLength="0/1"  name="cursorOpacity"/>
              <InterpolatingParam id="3600" interp="linr"  time="0/1" value="0" leadInLength="0/1"  name="cursorScale"/>
             </Parameters>
             <Attributes>
              <Attribute id="3601" value="" name="ident"/>
             </Attributes>
             <ExtraData>
              <Entry key="ZoomPanBin">
               <ZoomPanBin id="3602"  >
                <ZoomPanKeyframes>
                 <ZoomPanKeyframe id="3603" timeRangeEnd="-9999999/1" timeRangeDuration="0/1" interpolaterName=""  />
                </ZoomPanKeyframes>
               </ZoomPanBin>
              </Entry>
              <Entry key="CursorEffectBin">
               <CursorEffectBin id="3604"  >
                <CursorEffectKeyframes>
                </CursorEffectKeyframes>
               </CursorEffectBin>
              </Entry>
             </ExtraData>
            </ScreenVMFile>
            <MetaData>
             <entry key="AutoAppliedSmartFocus" val="False"/>
             <entry key="WinSubProjectDisplayName" val=""/>
            </MetaData>
           </UnifiedMedia>
           <UnifiedMedia id="3605"  >
            <AMFile id="3606" start="13307" duration="131" scalar="1/1" mediaStart="20926/1" mediaDuration="131/1" trackNumber="1" src="4" channelNumber="0,1" >
             <Parameters>
              <InterpolatingParam id="3607" interp="linr"  time="0/1" value="1" leadInLength="0/1"  name="volume"/>
              <Parameter id="3608"  name="captions"/>
             </Parameters>
             <Attributes>
              <Attribute id="3609" value="" name="ident"/>
              <Attribute id="3610" value="44100" name="sampleRate"/>
              <Attribute id="3611" value="16" name="bitDepth"/>
              <Attribute id="3612" value="1" name="gain"/>
              <Attribute id="3613" value="0" name="mixToMono"/>
             </Attributes>
            </AMFile>
            <ScreenVMFile id="3614" start="13307" duration="131" scalar="1/1" mediaStart="20926/1" mediaDuration="131/1" trackNumber="0" src="4" >
             <Transformer>
              <VectorParam id="3615"  name="translation">
               <InterpolatingParam id="3616" interp="linr"  time="-9999999/1" value="0" leadInLength="0/1"  />
               <InterpolatingParam id="3617" interp="linr"  time="-9999999/1" value="0" leadInLength="0/1"  />
               <InterpolatingParam id="3618" interp="linr"  time="-9999999/1" value="0" leadInLength="0/1"  />
              </VectorParam>
              <VectorParam id="3619"  name="rotation">
               <InterpolatingParam id="3620" interp="linr"  time="-9999999/1" value="0" leadInLength="0/1"  />
               <InterpolatingParam id="3621" interp="linr"  time="-9999999/1" value="0" leadInLength="0/1"  />
               <InterpolatingParam id="3622" interp="linr"  time="-9999999/1" value="0" leadInLength="0/1"  />
              </VectorParam>
              <VectorParam id="3623"  name="shear">
               <InterpolatingParam id="3624" interp="linr"  time="-9999999/1" value="0" leadInLength="0/1"  />
               <InterpolatingParam id="3625" interp="linr"  time="-9999999/1" value="0" leadInLength="0/1"  />
               <InterpolatingParam id="3626" interp="linr"  time="-9999999/1" value="0" leadInLength="0/1"  />
              </VectorParam>
              <VectorParam id="3627"  name="scale">
               <InterpolatingParam id="3628" interp="linr"  time="-9999999/1" value="1" leadInLength="0/1"  />
               <InterpolatingParam id="3629" interp="linr"  time="-9999999/1" value="1" leadInLength="0/1"  />
               <InterpolatingParam id="3630" interp="linr"  time="-9999999/1" value="1" leadInLength="0/1"  />
              </VectorParam>
              <VectorParam id="3631"  name="anchor">
               <InterpolatingParam id="3632" interp="linr"  time="0/1" value="0" leadInLength="0/1"  />
               <InterpolatingParam id="3633" interp="linr"  time="0/1" value="0" leadInLength="0/1"  />
               <InterpolatingParam id="3634" interp="linr"  time="0/1" value="0" leadInLength="0/1"  />
              </VectorParam>
             </Transformer>
             <Parameters>
              <VectorParam id="3635"  name="sourceCrop">
               <InterpolatingParam id="3636" interp="linr"  time="0/1" value="0" leadInLength="0/1"  />
               <InterpolatingParam id="3637" interp="linr"  time="0/1" value="0" leadInLength="0/1"  />
               <InterpolatingParam id="3638" interp="linr"  time="0/1" value="0" leadInLength="0/1"  />
               <InterpolatingParam id="3639" interp="linr"  time="0/1" value="0" leadInLength="0/1"  />
              </VectorParam>
              <VectorParam id="3640"  name="geometryCrop">
               <InterpolatingParam id="3641" interp="linr"  time="-9999999/1" value="0" leadInLength="0/1"  />
               <InterpolatingParam id="3642" interp="linr"  time="-9999999/1" value="0" leadInLength="0/1"  />
               <InterpolatingParam id="3643" interp="linr"  time="-9999999/1" value="0" leadInLength="0/1"  />
               <InterpolatingParam id="3644" interp="linr"  time="-9999999/1" value="0" leadInLength="0/1"  />
              </VectorParam>
              <InterpolatingParam id="3645" interp="linr"  time="-9999999/1" value="1" leadInLength="0/1"  name="opacity"/>
              <InterpolatingParam id="3646" interp="linr"  time="0/1" value="0" leadInLength="0/1"  name="cursorOpacity"/>
              <InterpolatingParam id="3647" interp="linr"  time="0/1" value="0" leadInLength="0/1"  name="cursorScale"/>
             </Parameters>
             <Attributes>
              <Attribute id="3648" value="" name="ident"/>
             </Attributes>
             <ExtraData>
              <Entry key="ZoomPanBin">
               <ZoomPanBin id="3649"  >
                <ZoomPanKeyframes>
                 <ZoomPanKeyframe id="3650" timeRangeEnd="-9999999/1" timeRangeDuration="0/1" interpolaterName=""  />
                </ZoomPanKeyframes>
               </ZoomPanBin>
              </Entry>
              <Entry key="CursorEffectBin">
               <CursorEffectBin id="3651"  >
                <CursorEffectKeyframes>
                </CursorEffectKeyframes>
               </CursorEffectBin>
              </Entry>
             </ExtraData>
            </ScreenVMFile>
            <MetaData>
             <entry key="AutoAppliedSmartFocus" val="False"/>
             <entry key="WinSubProjectDisplayName" val=""/>
            </MetaData>
           </UnifiedMedia>
           <UnifiedMedia id="3652"  >
            <AMFile id="3653" start="13438" duration="1011" scalar="1/1" mediaStart="21071/1" mediaDuration="1011/1" trackNumber="1" src="4" channelNumber="0,1" >
             <Parameters>
              <InterpolatingParam id="3654" interp="linr"  time="0/1" value="1" leadInLength="0/1"  name="volume"/>
              <Parameter id="3655"  name="captions"/>
             </Parameters>
             <Attributes>
              <Attribute id="3656" value="" name="ident"/>
              <Attribute id="3657" value="44100" name="sampleRate"/>
              <Attribute id="3658" value="16" name="bitDepth"/>
              <Attribute id="3659" value="1" name="gain"/>
              <Attribute id="3660" value="0" name="mixToMono"/>
             </Attributes>
            </AMFile>
            <ScreenVMFile id="3661" start="13438" duration="1011" scalar="1/1" mediaStart="21071/1" mediaDuration="1011/1" trackNumber="0" src="4" >
             <Transformer>
              <VectorParam id="3662"  name="translation">
               <InterpolatingParam id="3663" interp="linr"  time="-9999999/1" value="0" leadInLength="0/1"  />
               <InterpolatingParam id="3664" interp="linr"  time="-9999999/1" value="0" leadInLength="0/1"  />
               <InterpolatingParam id="3665" interp="linr"  time="-9999999/1" value="0" leadInLength="0/1"  />
              </VectorParam>
              <VectorParam id="3666"  name="rotation">
               <InterpolatingParam id="3667" interp="linr"  time="-9999999/1" value="0" leadInLength="0/1"  />
               <InterpolatingParam id="3668" interp="linr"  time="-9999999/1" value="0" leadInLength="0/1"  />
               <InterpolatingParam id="3669" interp="linr"  time="-9999999/1" value="0" leadInLength="0/1"  />
              </VectorParam>
              <VectorParam id="3670"  name="shear">
               <InterpolatingParam id="3671" interp="linr"  time="-9999999/1" value="0" leadInLength="0/1"  />
               <InterpolatingParam id="3672" interp="linr"  time="-9999999/1" value="0" leadInLength="0/1"  />
               <InterpolatingParam id="3673" interp="linr"  time="-9999999/1" value="0" leadInLength="0/1"  />
              </VectorParam>
              <VectorParam id="3674"  name="scale">
               <InterpolatingParam id="3675" interp="linr"  time="-9999999/1" value="1" leadInLength="0/1"  />
               <InterpolatingParam id="3676" interp="linr"  time="-9999999/1" value="1" leadInLength="0/1"  />
               <InterpolatingParam id="3677" interp="linr"  time="-9999999/1" value="1" leadInLength="0/1"  />
              </VectorParam>
              <VectorParam id="3678"  name="anchor">
               <InterpolatingParam id="3679" interp="linr"  time="0/1" value="0" leadInLength="0/1"  />
               <InterpolatingParam id="3680" interp="linr"  time="0/1" value="0" leadInLength="0/1"  />
               <InterpolatingParam id="3681" interp="linr"  time="0/1" value="0" leadInLength="0/1"  />
              </VectorParam>
             </Transformer>
             <Parameters>
              <VectorParam id="3682"  name="sourceCrop">
               <InterpolatingParam id="3683" interp="linr"  time="0/1" value="0" leadInLength="0/1"  />
               <InterpolatingParam id="3684" interp="linr"  time="0/1" value="0" leadInLength="0/1"  />
               <InterpolatingParam id="3685" interp="linr"  time="0/1" value="0" leadInLength="0/1"  />
               <InterpolatingParam id="3686" interp="linr"  time="0/1" value="0" leadInLength="0/1"  />
              </VectorParam>
              <VectorParam id="3687"  name="geometryCrop">
               <InterpolatingParam id="3688" interp="linr"  time="-9999999/1" value="0" leadInLength="0/1"  />
               <InterpolatingParam id="3689" interp="linr"  time="-9999999/1" value="0" leadInLength="0/1"  />
               <InterpolatingParam id="3690" interp="linr"  time="-9999999/1" value="0" leadInLength="0/1"  />
               <InterpolatingParam id="3691" interp="linr"  time="-9999999/1" value="0" leadInLength="0/1"  />
              </VectorParam>
              <InterpolatingParam id="3692" interp="linr"  time="-9999999/1" value="1" leadInLength="0/1"  name="opacity"/>
              <InterpolatingParam id="3693" interp="linr"  time="0/1" value="0" leadInLength="0/1"  name="cursorOpacity"/>
              <InterpolatingParam id="3694" interp="linr"  time="0/1" value="0" leadInLength="0/1"  name="cursorScale"/>
             </Parameters>
             <Attributes>
              <Attribute id="3695" value="" name="ident"/>
             </Attributes>
             <ExtraData>
              <Entry key="ZoomPanBin">
               <ZoomPanBin id="3696"  >
                <ZoomPanKeyframes>
                 <ZoomPanKeyframe id="3697" timeRangeEnd="-9999999/1" timeRangeDuration="0/1" interpolaterName=""  />
                </ZoomPanKeyframes>
               </ZoomPanBin>
              </Entry>
              <Entry key="CursorEffectBin">
               <CursorEffectBin id="3698"  >
                <CursorEffectKeyframes>
                </CursorEffectKeyframes>
               </CursorEffectBin>
              </Entry>
             </ExtraData>
            </ScreenVMFile>
            <MetaData>
             <entry key="AutoAppliedSmartFocus" val="False"/>
             <entry key="WinSubProjectDisplayName" val=""/>
            </MetaData>
           </UnifiedMedia>
           <UnifiedMedia id="3699"  >
            <AMFile id="3700" start="14449" duration="416" scalar="1/1" mediaStart="22121/1" mediaDuration="416/1" trackNumber="1" src="4" channelNumber="0,1" >
             <Parameters>
              <InterpolatingParam id="3701" interp="linr"  time="0/1" value="1" leadInLength="0/1"  name="volume"/>
              <Parameter id="3702"  name="captions"/>
             </Parameters>
             <Attributes>
              <Attribute id="3703" value="" name="ident"/>
              <Attribute id="3704" value="44100" name="sampleRate"/>
              <Attribute id="3705" value="16" name="bitDepth"/>
              <Attribute id="3706" value="1" name="gain"/>
              <Attribute id="3707" value="0" name="mixToMono"/>
             </Attributes>
            </AMFile>
            <ScreenVMFile id="3708" start="14449" duration="416" scalar="1/1" mediaStart="22121/1" mediaDuration="416/1" trackNumber="0" src="4" >
             <Transformer>
              <VectorParam id="3709"  name="translation">
               <InterpolatingParam id="3710" interp="linr"  time="-9999999/1" value="0" leadInLength="0/1"  />
               <InterpolatingParam id="3711" interp="linr"  time="-9999999/1" value="0" leadInLength="0/1"  />
               <InterpolatingParam id="3712" interp="linr"  time="-9999999/1" value="0" leadInLength="0/1"  />
              </VectorParam>
              <VectorParam id="3713"  name="rotation">
               <InterpolatingParam id="3714" interp="linr"  time="-9999999/1" value="0" leadInLength="0/1"  />
               <InterpolatingParam id="3715" interp="linr"  time="-9999999/1" value="0" leadInLength="0/1"  />
               <InterpolatingParam id="3716" interp="linr"  time="-9999999/1" value="0" leadInLength="0/1"  />
              </VectorParam>
              <VectorParam id="3717"  name="shear">
               <InterpolatingParam id="3718" interp="linr"  time="-9999999/1" value="0" leadInLength="0/1"  />
               <InterpolatingParam id="3719" interp="linr"  time="-9999999/1" value="0" leadInLength="0/1"  />
               <InterpolatingParam id="3720" interp="linr"  time="-9999999/1" value="0" leadInLength="0/1"  />
              </VectorParam>
              <VectorParam id="3721"  name="scale">
               <InterpolatingParam id="3722" interp="linr"  time="-9999999/1" value="1" leadInLength="0/1"  />
               <InterpolatingParam id="3723" interp="linr"  time="-9999999/1" value="1" leadInLength="0/1"  />
               <InterpolatingParam id="3724" interp="linr"  time="-9999999/1" value="1" leadInLength="0/1"  />
              </VectorParam>
              <VectorParam id="3725"  name="anchor">
               <InterpolatingParam id="3726" interp="linr"  time="0/1" value="0" leadInLength="0/1"  />
               <InterpolatingParam id="3727" interp="linr"  time="0/1" value="0" leadInLength="0/1"  />
               <InterpolatingParam id="3728" interp="linr"  time="0/1" value="0" leadInLength="0/1"  />
              </VectorParam>
             </Transformer>
             <Parameters>
              <VectorParam id="3729"  name="sourceCrop">
               <InterpolatingParam id="3730" interp="linr"  time="0/1" value="0" leadInLength="0/1"  />
               <InterpolatingParam id="3731" interp="linr"  time="0/1" value="0" leadInLength="0/1"  />
               <InterpolatingParam id="3732" interp="linr"  time="0/1" value="0" leadInLength="0/1"  />
               <InterpolatingParam id="3733" interp="linr"  time="0/1" value="0" leadInLength="0/1"  />
              </VectorParam>
              <VectorParam id="3734"  name="geometryCrop">
               <InterpolatingParam id="3735" interp="linr"  time="-9999999/1" value="0" leadInLength="0/1"  />
               <InterpolatingParam id="3736" interp="linr"  time="-9999999/1" value="0" leadInLength="0/1"  />
               <InterpolatingParam id="3737" interp="linr"  time="-9999999/1" value="0" leadInLength="0/1"  />
               <InterpolatingParam id="3738" interp="linr"  time="-9999999/1" value="0" leadInLength="0/1"  />
              </VectorParam>
              <InterpolatingParam id="3739" interp="linr"  time="-9999999/1" value="1" leadInLength="0/1"  name="opacity"/>
              <InterpolatingParam id="3740" interp="linr"  time="0/1" value="0" leadInLength="0/1"  name="cursorOpacity"/>
              <InterpolatingParam id="3741" interp="linr"  time="0/1" value="0" leadInLength="0/1"  name="cursorScale"/>
             </Parameters>
             <Attributes>
              <Attribute id="3742" value="" name="ident"/>
             </Attributes>
             <ExtraData>
              <Entry key="ZoomPanBin">
               <ZoomPanBin id="3743"  >
                <ZoomPanKeyframes>
                 <ZoomPanKeyframe id="3744" timeRangeEnd="-9999999/1" timeRangeDuration="0/1" interpolaterName=""  />
                </ZoomPanKeyframes>
               </ZoomPanBin>
              </Entry>
              <Entry key="CursorEffectBin">
               <CursorEffectBin id="3745"  >
                <CursorEffectKeyframes>
                </CursorEffectKeyframes>
               </CursorEffectBin>
              </Entry>
             </ExtraData>
            </ScreenVMFile>
            <MetaData>
             <entry key="AutoAppliedSmartFocus" val="False"/>
             <entry key="WinSubProjectDisplayName" val=""/>
            </MetaData>
           </UnifiedMedia>
           <UnifiedMedia id="3746"  >
            <AMFile id="3747" start="14865" duration="139" scalar="1/1" mediaStart="22547/1" mediaDuration="139/1" trackNumber="1" src="4" channelNumber="0,1" >
             <Parameters>
              <InterpolatingParam id="3748" interp="linr"  time="0/1" value="1" leadInLength="0/1"  name="volume"/>
              <Parameter id="3749"  name="captions"/>
             </Parameters>
             <Attributes>
              <Attribute id="3750" value="" name="ident"/>
              <Attribute id="3751" value="44100" name="sampleRate"/>
              <Attribute id="3752" value="16" name="bitDepth"/>
              <Attribute id="3753" value="1" name="gain"/>
              <Attribute id="3754" value="0" name="mixToMono"/>
             </Attributes>
            </AMFile>
            <ScreenVMFile id="3755" start="14865" duration="139" scalar="1/1" mediaStart="22547/1" mediaDuration="139/1" trackNumber="0" src="4" >
             <Transformer>
              <VectorParam id="3756"  name="translation">
               <InterpolatingParam id="3757" interp="linr"  time="-9999999/1" value="0" leadInLength="0/1"  />
               <InterpolatingParam id="3758" interp="linr"  time="-9999999/1" value="0" leadInLength="0/1"  />
               <InterpolatingParam id="3759" interp="linr"  time="-9999999/1" value="0" leadInLength="0/1"  />
              </VectorParam>
              <VectorParam id="3760"  name="rotation">
               <InterpolatingParam id="3761" interp="linr"  time="-9999999/1" value="0" leadInLength="0/1"  />
               <InterpolatingParam id="3762" interp="linr"  time="-9999999/1" value="0" leadInLength="0/1"  />
               <InterpolatingParam id="3763" interp="linr"  time="-9999999/1" value="0" leadInLength="0/1"  />
              </VectorParam>
              <VectorParam id="3764"  name="shear">
               <InterpolatingParam id="3765" interp="linr"  time="-9999999/1" value="0" leadInLength="0/1"  />
               <InterpolatingParam id="3766" interp="linr"  time="-9999999/1" value="0" leadInLength="0/1"  />
               <InterpolatingParam id="3767" interp="linr"  time="-9999999/1" value="0" leadInLength="0/1"  />
              </VectorParam>
              <VectorParam id="3768"  name="scale">
               <InterpolatingParam id="3769" interp="linr"  time="-9999999/1" value="1" leadInLength="0/1"  />
               <InterpolatingParam id="3770" interp="linr"  time="-9999999/1" value="1" leadInLength="0/1"  />
               <InterpolatingParam id="3771" interp="linr"  time="-9999999/1" value="1" leadInLength="0/1"  />
              </VectorParam>
              <VectorParam id="3772"  name="anchor">
               <InterpolatingParam id="3773" interp="linr"  time="0/1" value="0" leadInLength="0/1"  />
               <InterpolatingParam id="3774" interp="linr"  time="0/1" value="0" leadInLength="0/1"  />
               <InterpolatingParam id="3775" interp="linr"  time="0/1" value="0" leadInLength="0/1"  />
              </VectorParam>
             </Transformer>
             <Parameters>
              <VectorParam id="3776"  name="sourceCrop">
               <InterpolatingParam id="3777" interp="linr"  time="0/1" value="0" leadInLength="0/1"  />
               <InterpolatingParam id="3778" interp="linr"  time="0/1" value="0" leadInLength="0/1"  />
               <InterpolatingParam id="3779" interp="linr"  time="0/1" value="0" leadInLength="0/1"  />
               <InterpolatingParam id="3780" interp="linr"  time="0/1" value="0" leadInLength="0/1"  />
              </VectorParam>
              <VectorParam id="3781"  name="geometryCrop">
               <InterpolatingParam id="3782" interp="linr"  time="-9999999/1" value="0" leadInLength="0/1"  />
               <InterpolatingParam id="3783" interp="linr"  time="-9999999/1" value="0" leadInLength="0/1"  />
               <InterpolatingParam id="3784" interp="linr"  time="-9999999/1" value="0" leadInLength="0/1"  />
               <InterpolatingParam id="3785" interp="linr"  time="-9999999/1" value="0" leadInLength="0/1"  />
              </VectorParam>
              <InterpolatingParam id="3786" interp="linr"  time="-9999999/1" value="1" leadInLength="0/1"  name="opacity"/>
              <InterpolatingParam id="3787" interp="linr"  time="0/1" value="0" leadInLength="0/1"  name="cursorOpacity"/>
              <InterpolatingParam id="3788" interp="linr"  time="0/1" value="0" leadInLength="0/1"  name="cursorScale"/>
             </Parameters>
             <Attributes>
              <Attribute id="3789" value="" name="ident"/>
             </Attributes>
             <ExtraData>
              <Entry key="ZoomPanBin">
               <ZoomPanBin id="3790"  >
                <ZoomPanKeyframes>
                 <ZoomPanKeyframe id="3791" timeRangeEnd="-9999999/1" timeRangeDuration="0/1" interpolaterName=""  />
                </ZoomPanKeyframes>
               </ZoomPanBin>
              </Entry>
              <Entry key="CursorEffectBin">
               <CursorEffectBin id="3792"  >
                <CursorEffectKeyframes>
                </CursorEffectKeyframes>
               </CursorEffectBin>
              </Entry>
             </ExtraData>
            </ScreenVMFile>
            <MetaData>
             <entry key="AutoAppliedSmartFocus" val="False"/>
             <entry key="WinSubProjectDisplayName" val=""/>
            </MetaData>
           </UnifiedMedia>
           <UnifiedMedia id="3793"  >
            <AMFile id="3794" start="15004" duration="236" scalar="1/1" mediaStart="22699/1" mediaDuration="236/1" trackNumber="1" src="4" channelNumber="0,1" >
             <Parameters>
              <InterpolatingParam id="3795" interp="linr"  time="0/1" value="1" leadInLength="0/1"  name="volume"/>
              <Parameter id="3796"  name="captions"/>
             </Parameters>
             <Attributes>
              <Attribute id="3797" value="" name="ident"/>
              <Attribute id="3798" value="44100" name="sampleRate"/>
              <Attribute id="3799" value="16" name="bitDepth"/>
              <Attribute id="3800" value="1" name="gain"/>
              <Attribute id="3801" value="0" name="mixToMono"/>
             </Attributes>
            </AMFile>
            <ScreenVMFile id="3802" start="15004" duration="236" scalar="1/1" mediaStart="22699/1" mediaDuration="236/1" trackNumber="0" src="4" >
             <Transformer>
              <VectorParam id="3803"  name="translation">
               <InterpolatingParam id="3804" interp="linr"  time="-9999999/1" value="0" leadInLength="0/1"  />
               <InterpolatingParam id="3805" interp="linr"  time="-9999999/1" value="0" leadInLength="0/1"  />
               <InterpolatingParam id="3806" interp="linr"  time="-9999999/1" value="0" leadInLength="0/1"  />
              </VectorParam>
              <VectorParam id="3807"  name="rotation">
               <InterpolatingParam id="3808" interp="linr"  time="-9999999/1" value="0" leadInLength="0/1"  />
               <InterpolatingParam id="3809" interp="linr"  time="-9999999/1" value="0" leadInLength="0/1"  />
               <InterpolatingParam id="3810" interp="linr"  time="-9999999/1" value="0" leadInLength="0/1"  />
              </VectorParam>
              <VectorParam id="3811"  name="shear">
               <InterpolatingParam id="3812" interp="linr"  time="-9999999/1" value="0" leadInLength="0/1"  />
               <InterpolatingParam id="3813" interp="linr"  time="-9999999/1" value="0" leadInLength="0/1"  />
               <InterpolatingParam id="3814" interp="linr"  time="-9999999/1" value="0" leadInLength="0/1"  />
              </VectorParam>
              <VectorParam id="3815"  name="scale">
               <InterpolatingParam id="3816" interp="linr"  time="-9999999/1" value="1" leadInLength="0/1"  />
               <InterpolatingParam id="3817" interp="linr"  time="-9999999/1" value="1" leadInLength="0/1"  />
               <InterpolatingParam id="3818" interp="linr"  time="-9999999/1" value="1" leadInLength="0/1"  />
              </VectorParam>
              <VectorParam id="3819"  name="anchor">
               <InterpolatingParam id="3820" interp="linr"  time="0/1" value="0" leadInLength="0/1"  />
               <InterpolatingParam id="3821" interp="linr"  time="0/1" value="0" leadInLength="0/1"  />
               <InterpolatingParam id="3822" interp="linr"  time="0/1" value="0" leadInLength="0/1"  />
              </VectorParam>
             </Transformer>
             <Parameters>
              <VectorParam id="3823"  name="sourceCrop">
               <InterpolatingParam id="3824" interp="linr"  time="0/1" value="0" leadInLength="0/1"  />
               <InterpolatingParam id="3825" interp="linr"  time="0/1" value="0" leadInLength="0/1"  />
               <InterpolatingParam id="3826" interp="linr"  time="0/1" value="0" leadInLength="0/1"  />
               <InterpolatingParam id="3827" interp="linr"  time="0/1" value="0" leadInLength="0/1"  />
              </VectorParam>
              <VectorParam id="3828"  name="geometryCrop">
               <InterpolatingParam id="3829" interp="linr"  time="-9999999/1" value="0" leadInLength="0/1"  />
               <InterpolatingParam id="3830" interp="linr"  time="-9999999/1" value="0" leadInLength="0/1"  />
               <InterpolatingParam id="3831" interp="linr"  time="-9999999/1" value="0" leadInLength="0/1"  />
               <InterpolatingParam id="3832" interp="linr"  time="-9999999/1" value="0" leadInLength="0/1"  />
              </VectorParam>
              <InterpolatingParam id="3833" interp="linr"  time="-9999999/1" value="1" leadInLength="0/1"  name="opacity"/>
              <InterpolatingParam id="3834" interp="linr"  time="0/1" value="0" leadInLength="0/1"  name="cursorOpacity"/>
              <InterpolatingParam id="3835" interp="linr"  time="0/1" value="0" leadInLength="0/1"  name="cursorScale"/>
             </Parameters>
             <Attributes>
              <Attribute id="3836" value="" name="ident"/>
             </Attributes>
             <ExtraData>
              <Entry key="ZoomPanBin">
               <ZoomPanBin id="3837"  >
                <ZoomPanKeyframes>
                 <ZoomPanKeyframe id="3838" timeRangeEnd="-9999999/1" timeRangeDuration="0/1" interpolaterName=""  />
                </ZoomPanKeyframes>
               </ZoomPanBin>
              </Entry>
              <Entry key="CursorEffectBin">
               <CursorEffectBin id="3839"  >
                <CursorEffectKeyframes>
                </CursorEffectKeyframes>
               </CursorEffectBin>
              </Entry>
             </ExtraData>
            </ScreenVMFile>
            <MetaData>
             <entry key="AutoAppliedSmartFocus" val="False"/>
             <entry key="WinSubProjectDisplayName" val=""/>
            </MetaData>
           </UnifiedMedia>
           <UnifiedMedia id="3840"  >
            <AMFile id="3841" start="15240" duration="185" scalar="1/1" mediaStart="23056/1" mediaDuration="185/1" trackNumber="1" src="4" channelNumber="0,1" >
             <Parameters>
              <InterpolatingParam id="3842" interp="linr"  time="0/1" value="1" leadInLength="0/1"  name="volume"/>
              <Parameter id="3843"  name="captions"/>
             </Parameters>
             <Attributes>
              <Attribute id="3844" value="" name="ident"/>
              <Attribute id="3845" value="44100" name="sampleRate"/>
              <Attribute id="3846" value="16" name="bitDepth"/>
              <Attribute id="3847" value="1" name="gain"/>
              <Attribute id="3848" value="0" name="mixToMono"/>
             </Attributes>
            </AMFile>
            <ScreenVMFile id="3849" start="15240" duration="185" scalar="1/1" mediaStart="23056/1" mediaDuration="185/1" trackNumber="0" src="4" >
             <Transformer>
              <VectorParam id="3850"  name="translation">
               <InterpolatingParam id="3851" interp="linr"  time="-9999999/1" value="0" leadInLength="0/1"  />
               <InterpolatingParam id="3852" interp="linr"  time="-9999999/1" value="0" leadInLength="0/1"  />
               <InterpolatingParam id="3853" interp="linr"  time="-9999999/1" value="0" leadInLength="0/1"  />
              </VectorParam>
              <VectorParam id="3854"  name="rotation">
               <InterpolatingParam id="3855" interp="linr"  time="-9999999/1" value="0" leadInLength="0/1"  />
               <InterpolatingParam id="3856" interp="linr"  time="-9999999/1" value="0" leadInLength="0/1"  />
               <InterpolatingParam id="3857" interp="linr"  time="-9999999/1" value="0" leadInLength="0/1"  />
              </VectorParam>
              <VectorParam id="3858"  name="shear">
               <InterpolatingParam id="3859" interp="linr"  time="-9999999/1" value="0" leadInLength="0/1"  />
               <InterpolatingParam id="3860" interp="linr"  time="-9999999/1" value="0" leadInLength="0/1"  />
               <InterpolatingParam id="3861" interp="linr"  time="-9999999/1" value="0" leadInLength="0/1"  />
              </VectorParam>
              <VectorParam id="3862"  name="scale">
               <InterpolatingParam id="3863" interp="linr"  time="-9999999/1" value="1" leadInLength="0/1"  />
               <InterpolatingParam id="3864" interp="linr"  time="-9999999/1" value="1" leadInLength="0/1"  />
               <InterpolatingParam id="3865" interp="linr"  time="-9999999/1" value="1" leadInLength="0/1"  />
              </VectorParam>
              <VectorParam id="3866"  name="anchor">
               <InterpolatingParam id="3867" interp="linr"  time="0/1" value="0" leadInLength="0/1"  />
               <InterpolatingParam id="3868" interp="linr"  time="0/1" value="0" leadInLength="0/1"  />
               <InterpolatingParam id="3869" interp="linr"  time="0/1" value="0" leadInLength="0/1"  />
              </VectorParam>
             </Transformer>
             <Parameters>
              <VectorParam id="3870"  name="sourceCrop">
               <InterpolatingParam id="3871" interp="linr"  time="0/1" value="0" leadInLength="0/1"  />
               <InterpolatingParam id="3872" interp="linr"  time="0/1" value="0" leadInLength="0/1"  />
               <InterpolatingParam id="3873" interp="linr"  time="0/1" value="0" leadInLength="0/1"  />
               <InterpolatingParam id="3874" interp="linr"  time="0/1" value="0" leadInLength="0/1"  />
              </VectorParam>
              <VectorParam id="3875"  name="geometryCrop">
               <InterpolatingParam id="3876" interp="linr"  time="-9999999/1" value="0" leadInLength="0/1"  />
               <InterpolatingParam id="3877" interp="linr"  time="-9999999/1" value="0" leadInLength="0/1"  />
               <InterpolatingParam id="3878" interp="linr"  time="-9999999/1" value="0" leadInLength="0/1"  />
               <InterpolatingParam id="3879" interp="linr"  time="-9999999/1" value="0" leadInLength="0/1"  />
              </VectorParam>
              <InterpolatingParam id="3880" interp="linr"  time="-9999999/1" value="1" leadInLength="0/1"  name="opacity"/>
              <InterpolatingParam id="3881" interp="linr"  time="0/1" value="0" leadInLength="0/1"  name="cursorOpacity"/>
              <InterpolatingParam id="3882" interp="linr"  time="0/1" value="0" leadInLength="0/1"  name="cursorScale"/>
             </Parameters>
             <Attributes>
              <Attribute id="3883" value="" name="ident"/>
             </Attributes>
             <ExtraData>
              <Entry key="ZoomPanBin">
               <ZoomPanBin id="3884"  >
                <ZoomPanKeyframes>
                 <ZoomPanKeyframe id="3885" timeRangeEnd="-9999999/1" timeRangeDuration="0/1" interpolaterName=""  />
                </ZoomPanKeyframes>
               </ZoomPanBin>
              </Entry>
              <Entry key="CursorEffectBin">
               <CursorEffectBin id="3886"  >
                <CursorEffectKeyframes>
                </CursorEffectKeyframes>
               </CursorEffectBin>
              </Entry>
             </ExtraData>
            </ScreenVMFile>
            <MetaData>
             <entry key="AutoAppliedSmartFocus" val="False"/>
             <entry key="WinSubProjectDisplayName" val=""/>
            </MetaData>
           </UnifiedMedia>
          </Medias>
         </GenericTrack>
        </StitchedMedia>
        <UnifiedMedia id="3887"  >
         <AudioTransition id="3888" start="15236" duration="30" >
          <Parameters>
           <InterpolatingParam id="3889" interp="linr"  time="0/1" value="1" leadInLength="0/1"  name="volume"/>
           <Parameter id="3890"  name="captions"/>
          </Parameters>
          <Effects>
           <GenericEffect id="3891" name = "AudioTransition" >
            <Parameters>
            <Parameter id="3892"   name="audioEdgeModType">
             <Keyframes>
             <Keyframe id="3893"  time="0/1" value="0" leadInLength="0/1"  />
             </Keyframes>
            </Parameter>
            <Parameter id="3894"   name="audioTransitionType">
             <Keyframes>
             <Keyframe id="3895"  time="0/1" value="" leadInLength="0/1"  />
             </Keyframes>
            </Parameter>
            </Parameters>
            <MetaData>
            </MetaData>
           </GenericEffect>
          </Effects>
          <Attributes>
           <Attribute id="3896" value="" name="ident"/>
           <Attribute id="3897" value="0" name="sampleRate"/>
           <Attribute id="3898" value="0" name="bitDepth"/>
           <Attribute id="3899" value="1" name="gain"/>
           <Attribute id="3900" value="0" name="mixToMono"/>
          </Attributes>
         </AudioTransition>
         <ImageTransition id="3901" start="15236" duration="30" >
          <Transformer>
           <VectorParam id="3902"  name="translation">
            <InterpolatingParam id="3903" interp="linr"  time="0/1" value="0" leadInLength="0/1"  />
            <InterpolatingParam id="3904" interp="linr"  time="0/1" value="0" leadInLength="0/1"  />
            <InterpolatingParam id="3905" interp="linr"  time="0/1" value="0" leadInLength="0/1"  />
           </VectorParam>
           <VectorParam id="3906"  name="rotation">
            <InterpolatingParam id="3907" interp="linr"  time="0/1" value="0" leadInLength="0/1"  />
            <InterpolatingParam id="3908" interp="linr"  time="0/1" value="0" leadInLength="0/1"  />
            <InterpolatingParam id="3909" interp="linr"  time="0/1" value="0" leadInLength="0/1"  />
           </VectorParam>
           <VectorParam id="3910"  name="shear">
            <InterpolatingParam id="3911" interp="linr"  time="0/1" value="0" leadInLength="0/1"  />
            <InterpolatingParam id="3912" interp="linr"  time="0/1" value="0" leadInLength="0/1"  />
            <InterpolatingParam id="3913" interp="linr"  time="0/1" value="0" leadInLength="0/1"  />
           </VectorParam>
           <VectorParam id="3914"  name="scale">
            <InterpolatingParam id="3915" interp="linr"  time="0/1" value="1" leadInLength="0/1"  />
            <InterpolatingParam id="3916" interp="linr"  time="0/1" value="1" leadInLength="0/1"  />
            <InterpolatingParam id="3917" interp="linr"  time="0/1" value="1" leadInLength="0/1"  />
           </VectorParam>
           <VectorParam id="3918"  name="anchor">
            <InterpolatingParam id="3919" interp="linr"  time="0/1" value="0" leadInLength="0/1"  />
            <InterpolatingParam id="3920" interp="linr"  time="0/1" value="0" leadInLength="0/1"  />
            <InterpolatingParam id="3921" interp="linr"  time="0/1" value="0" leadInLength="0/1"  />
           </VectorParam>
          </Transformer>
          <Parameters>
           <VectorParam id="3922"  name="sourceCrop">
            <InterpolatingParam id="3923" interp="linr"  time="0/1" value="0" leadInLength="0/1"  />
            <InterpolatingParam id="3924" interp="linr"  time="0/1" value="0" leadInLength="0/1"  />
            <InterpolatingParam id="3925" interp="linr"  time="0/1" value="0" leadInLength="0/1"  />
            <InterpolatingParam id="3926" interp="linr"  time="0/1" value="0" leadInLength="0/1"  />
           </VectorParam>
           <VectorParam id="3927"  name="geometryCrop">
            <InterpolatingParam id="3928" interp="linr"  time="0/1" value="0" leadInLength="0/1"  />
            <InterpolatingParam id="3929" interp="linr"  time="0/1" value="0" leadInLength="0/1"  />
            <InterpolatingParam id="3930" interp="linr"  time="0/1" value="0" leadInLength="0/1"  />
            <InterpolatingParam id="3931" interp="linr"  time="0/1" value="0" leadInLength="0/1"  />
           </VectorParam>
           <InterpolatingParam id="3932" interp="linr"  time="0/1" value="1" leadInLength="0/1"  name="opacity"/>
          </Parameters>
          <Effects>
           <GenericEffect id="3933" name = "VisualTransition" >
            <Parameters>
            <InterpolatingParam id="3934" interp="linr"  time="0/1" value="0.5" leadInLength="0/1"   name="leftFramePercentage"/>
            <InterpolatingParam id="3935" interp="linr"  time="0/1" value="0.5" leadInLength="0/1"   name="rightFramePercentage"/>
            <Parameter id="3936"   name="visualEdgeModType">
             <Keyframes>
             <Keyframe id="3937"  time="0/1" value="2" leadInLength="0/1"  />
             </Keyframes>
            </Parameter>
            <Parameter id="3938"   name="visualTransitionType">
             <Keyframes>
             <Keyframe id="3939"  time="0/1" value="Glow" leadInLength="0/1"  />
             </Keyframes>
            </Parameter>
            </Parameters>
            <MetaData>
            </MetaData>
           </GenericEffect>
          </Effects>
          <Attributes>
           <Attribute id="3940" value="" name="ident"/>
          </Attributes>
          <ExtraData>
           <Entry key="ZoomPanBin">
            <ZoomPanBin id="3941"  >
             <ZoomPanKeyframes>
             </ZoomPanKeyframes>
            </ZoomPanBin>
           </Entry>
          </ExtraData>
         </ImageTransition>
         <MetaData>
          <entry key="WinSubProjectDisplayName" val=""/>
         </MetaData>
        </UnifiedMedia>
       </Medias>
      </GenericTrack>
      <GenericTrack id="3942"  >
       <Attributes>
        <Attribute id="3943" value="" name="ident"/>
        <Attribute id="3944" value="0" name="audioMuted"/>
        <Attribute id="3945" value="0" name="videoHidden"/>
       </Attributes>
       <MetaData>
        <entry key="IsLocked" val="False"/>
        <entry key="WinTrackHeight" val="62"/>
       </MetaData>
       <Medias>
       </Medias>
      </GenericTrack>
     </Tracks>
    </GenericMixer>
   <CaptionAttributes id="3946"  >
    <Attribute id="3947" value="1" name="captionsEnabled"/>
    <Attribute id="3948" value="Arial" name="captionsFontName"/>
    <Attribute id="3949" value="36" name="captionsFontSize"/>
    <Attribute id="3950" value="(0,0,0,255)" name="captionsBackgroundColor"/>
    <Attribute id="3951" value="(255,255,255,255)" name="captionsForegroundColor"/>
    <Attribute id="3952" value="en" name="lang"/>
    <Attribute id="3953" value="0" name="captionsAlignment"/>
    <Attribute id="3954" value="1" name="captionsDefaultFontSize"/>
    <Attribute id="3955" value="0.5" name="captionsOpacity"/>
    <Attribute id="3956" value="1" name="captionsBackgroundEnabled"/>
    <Attribute id="3957" value="1" name="captionsBackgroundOnlyAroundText"/>
   </CaptionAttributes>
   <Parameters>
    <VectorParam id="3958"  name="eyePosition">
     <InterpolatingParam id="3959" interp="linr"  time="0/1" value="0" leadInLength="0/1"  />
     <InterpolatingParam id="3960" interp="linr"  time="0/1" value="0" leadInLength="0/1"  />
     <InterpolatingParam id="3961" interp="linr"  time="0/1" value="3000" leadInLength="0/1"  />
    </VectorParam>
    <VectorParam id="3962"  name="eyeLookAtPosition">
     <InterpolatingParam id="3963" interp="linr"  time="0/1" value="0" leadInLength="0/1"  />
     <InterpolatingParam id="3964" interp="linr"  time="0/1" value="0" leadInLength="0/1"  />
     <InterpolatingParam id="3965" interp="linr"  time="0/1" value="0" leadInLength="0/1"  />
    </VectorParam>
    <VectorParam id="3966"  name="eyeUpVector">
     <InterpolatingParam id="3967" interp="linr"  time="0/1" value="0" leadInLength="0/1"  />
     <InterpolatingParam id="3968" interp="linr"  time="0/1" value="1" leadInLength="0/1"  />
     <InterpolatingParam id="3969" interp="linr"  time="0/1" value="0" leadInLength="0/1"  />
    </VectorParam>
    <InterpolatingParam id="3970" interp="linr"  time="0/1" value="0.356185883" leadInLength="0/1"  name="fov"/>
    <InterpolatingParam id="3971" interp="linr"  time="0/1" value="1.5" leadInLength="0/1"  name="nearClipDistance"/>
    <InterpolatingParam id="3972" interp="linr"  time="0/1" value="6000" leadInLength="0/1"  name="farClipDistance"/>
   </Parameters>
  </Timeline>
 </Project>
</GoProject>
</CSMLData>

</Project_Data>
