<?xml version="1.0"?>
<Project_Data Version="8.00">
<Project_Settings>
<ProfileName>MP4 only (up to 1080p)</ProfileName>
<ProjectWidth>1920</ProjectWidth>
<ProjectHeight>1080</ProjectHeight>
<IsCustomProject>1</IsCustomProject>
<SavedProjectSettings>1</SavedProjectSettings>
<LastFlashTemplate>-1</LastFlashTemplate>
</Project_Settings>


<AutoSaveFile>C:\Users\Administrator\AppData\Local\TechSmith\Camtasia Studio\8.0\Auto-Saves\17.vertical-centeringa5085c.autosave.camproj</AutoSaveFile>

<ProjectID>6454B11D-025A-4434-8B32-60764E3945DF</ProjectID>

<PowerPointProject>0</PowerPointProject>

<PowerPointFilename></PowerPointFilename>


<Project_Notes>
</Project_Notes>

<Project_MetaData>
<Project_MetaData_Object>
<FieldArrayKey>8</FieldArrayKey>
<Value>17.vertical-centering</Value>
</Project_MetaData_Object>
<Project_MetaData_Object>
<FieldArrayKey>13</FieldArrayKey>
<Value>2017-02-28 04:48:25 PM</Value>
</Project_MetaData_Object>
<Project_MetaData_Object>
<FieldArrayKey>16</FieldArrayKey>
<Value>ENU</Value>
</Project_MetaData_Object>
</Project_MetaData>

<CSMLData>
<GoProject id="1" version="3.0" >
 <Project id="2" editRate="30/1" version="3.0" >
  <Author></Author>
  <Comment></Comment>
  <System></System>
  <SourceBin id="3"  >
    <Source id="4" src="D:\Peter Sommerhoff\Source Files\17.vertical-centering.trec" lastMod="20170224T094910" rect="(0,0,1920,1080)" >
      <SourceTrack range="(0,37423)" type="0" editRate="60/1" trackRect="(0,0,1920,1080)" sampleRate="0/1" bitDepth="0" numChannels="0" filename="17.vertical-centering.trec!Strack0.tsc2" metaData="17.vertical-centering.trec;" />
      <SourceTrack range="(0,27520000)" type="2" editRate="44100/1" trackRect="(0,0,0,0)" sampleRate="44100/1" bitDepth="16" numChannels="2" filename="17.vertical-centering.trec!Maudio1.mp4" metaData="" />
    </Source>
  </SourceBin>
  <Timeline id="5"  >
   <Attributes>
    <Attribute id="6" value="1920" name="width"/>
    <Attribute id="7" value="1080" name="height"/>
    <Attribute id="8" value="(0,0,0,255)" name="backgroundColor"/>
   </Attributes>
    <GenericMixer id="9"  name="Unified Mixer">
     <MetaData>
      <entry key="MixerType" val="TimelineMixer"/>
     </MetaData>
     <Tracks>
      <GenericTrack id="10"  >
       <Attributes>
        <Attribute id="11" value="" name="ident"/>
        <Attribute id="12" value="0" name="audioMuted"/>
        <Attribute id="13" value="0" name="videoHidden"/>
       </Attributes>
       <MetaData>
        <entry key="IsLocked" val="False"/>
        <entry key="WinTrackHeight" val="40"/>
       </MetaData>
       <Medias>
       </Medias>
      </GenericTrack>
      <GenericTrack id="14"  >
       <Attributes>
        <Attribute id="15" value="" name="ident"/>
        <Attribute id="16" value="0" name="audioMuted"/>
        <Attribute id="17" value="0" name="videoHidden"/>
       </Attributes>
       <MetaData>
        <entry key="IsLocked" val="False"/>
        <entry key="WinTrackHeight" val="141"/>
       </MetaData>
       <Medias>
        <UnifiedMedia id="18"  >
         <AudioTransition id="19" start="0" duration="30" >
          <Parameters>
           <InterpolatingParam id="20" interp="linr"  time="0/1" value="1" leadInLength="0/1"  name="volume"/>
           <Parameter id="21"  name="captions"/>
          </Parameters>
          <Effects>
           <GenericEffect id="22" name = "AudioTransition" >
            <Parameters>
            <Parameter id="23"   name="audioEdgeModType">
             <Keyframes>
             <Keyframe id="24"  time="0/1" value="0" leadInLength="0/1"  />
             </Keyframes>
            </Parameter>
            <Parameter id="25"   name="audioTransitionType">
             <Keyframes>
             <Keyframe id="26"  time="0/1" value="" leadInLength="0/1"  />
             </Keyframes>
            </Parameter>
            </Parameters>
            <MetaData>
            </MetaData>
           </GenericEffect>
          </Effects>
          <Attributes>
           <Attribute id="27" value="" name="ident"/>
           <Attribute id="28" value="0" name="sampleRate"/>
           <Attribute id="29" value="0" name="bitDepth"/>
           <Attribute id="30" value="1" name="gain"/>
           <Attribute id="31" value="0" name="mixToMono"/>
          </Attributes>
         </AudioTransition>
         <ImageTransition id="32" start="0" duration="30" >
          <Transformer>
           <VectorParam id="33"  name="translation">
            <InterpolatingParam id="34" interp="linr"  time="0/1" value="0" leadInLength="0/1"  />
            <InterpolatingParam id="35" interp="linr"  time="0/1" value="0" leadInLength="0/1"  />
            <InterpolatingParam id="36" interp="linr"  time="0/1" value="0" leadInLength="0/1"  />
           </VectorParam>
           <VectorParam id="37"  name="rotation">
            <InterpolatingParam id="38" interp="linr"  time="0/1" value="0" leadInLength="0/1"  />
            <InterpolatingParam id="39" interp="linr"  time="0/1" value="0" leadInLength="0/1"  />
            <InterpolatingParam id="40" interp="linr"  time="0/1" value="0" leadInLength="0/1"  />
           </VectorParam>
           <VectorParam id="41"  name="shear">
            <InterpolatingParam id="42" interp="linr"  time="0/1" value="0" leadInLength="0/1"  />
            <InterpolatingParam id="43" interp="linr"  time="0/1" value="0" leadInLength="0/1"  />
            <InterpolatingParam id="44" interp="linr"  time="0/1" value="0" leadInLength="0/1"  />
           </VectorParam>
           <VectorParam id="45"  name="scale">
            <InterpolatingParam id="46" interp="linr"  time="0/1" value="1" leadInLength="0/1"  />
            <InterpolatingParam id="47" interp="linr"  time="0/1" value="1" leadInLength="0/1"  />
            <InterpolatingParam id="48" interp="linr"  time="0/1" value="1" leadInLength="0/1"  />
           </VectorParam>
           <VectorParam id="49"  name="anchor">
            <InterpolatingParam id="50" interp="linr"  time="0/1" value="0" leadInLength="0/1"  />
            <InterpolatingParam id="51" interp="linr"  time="0/1" value="0" leadInLength="0/1"  />
            <InterpolatingParam id="52" interp="linr"  time="0/1" value="0" leadInLength="0/1"  />
           </VectorParam>
          </Transformer>
          <Parameters>
           <VectorParam id="53"  name="sourceCrop">
            <InterpolatingParam id="54" interp="linr"  time="0/1" value="0" leadInLength="0/1"  />
            <InterpolatingParam id="55" interp="linr"  time="0/1" value="0" leadInLength="0/1"  />
            <InterpolatingParam id="56" interp="linr"  time="0/1" value="0" leadInLength="0/1"  />
            <InterpolatingParam id="57" interp="linr"  time="0/1" value="0" leadInLength="0/1"  />
           </VectorParam>
           <VectorParam id="58"  name="geometryCrop">
            <InterpolatingParam id="59" interp="linr"  time="0/1" value="0" leadInLength="0/1"  />
            <InterpolatingParam id="60" interp="linr"  time="0/1" value="0" leadInLength="0/1"  />
            <InterpolatingParam id="61" interp="linr"  time="0/1" value="0" leadInLength="0/1"  />
            <InterpolatingParam id="62" interp="linr"  time="0/1" value="0" leadInLength="0/1"  />
           </VectorParam>
           <InterpolatingParam id="63" interp="linr"  time="0/1" value="1" leadInLength="0/1"  name="opacity"/>
          </Parameters>
          <Effects>
           <GenericEffect id="64" name = "VisualTransition" >
            <Parameters>
            <InterpolatingParam id="65" interp="linr"  time="0/1" value="0.5" leadInLength="0/1"   name="leftFramePercentage"/>
            <InterpolatingParam id="66" interp="linr"  time="0/1" value="0.5" leadInLength="0/1"   name="rightFramePercentage"/>
            <Parameter id="67"   name="visualEdgeModType">
             <Keyframes>
             <Keyframe id="68"  time="0/1" value="1" leadInLength="0/1"  />
             </Keyframes>
            </Parameter>
            <Parameter id="69"   name="visualTransitionType">
             <Keyframes>
             <Keyframe id="70"  time="0/1" value="Glow" leadInLength="0/1"  />
             </Keyframes>
            </Parameter>
            </Parameters>
            <MetaData>
            </MetaData>
           </GenericEffect>
          </Effects>
          <Attributes>
           <Attribute id="71" value="" name="ident"/>
          </Attributes>
          <ExtraData>
           <Entry key="ZoomPanBin">
            <ZoomPanBin id="72"  >
             <ZoomPanKeyframes>
             </ZoomPanKeyframes>
            </ZoomPanBin>
           </Entry>
          </ExtraData>
         </ImageTransition>
         <MetaData>
          <entry key="WinSubProjectDisplayName" val=""/>
         </MetaData>
        </UnifiedMedia>
        <StitchedMedia id="73" start="30" duration="10979" scalar="1/1" mediaStart="165/1" mediaDuration="10979/1" minMediaStart="0/1" >
         <Transformer>
          <VectorParam id="74"  name="translation">
           <InterpolatingParam id="75" interp="linr"  time="-9999999/1" value="0" leadInLength="0/1"  interpolater="leadin-linr"  />
           <InterpolatingParam id="76" interp="linr"  time="-9999999/1" value="0" leadInLength="0/1"  interpolater="leadin-linr"  />
           <InterpolatingParam id="77" interp="linr"  time="-9999999/1" value="0" leadInLength="0/1"  interpolater="leadin-linr"  />
          </VectorParam>
          <VectorParam id="78"  name="rotation">
           <InterpolatingParam id="79" interp="linr"  time="-9999999/1" value="0" leadInLength="0/1"  interpolater="leadin-linr"  />
           <InterpolatingParam id="80" interp="linr"  time="-9999999/1" value="0" leadInLength="0/1"  interpolater="leadin-linr"  />
           <InterpolatingParam id="81" interp="linr"  time="-9999999/1" value="0" leadInLength="0/1"  interpolater="leadin-linr"  />
          </VectorParam>
          <VectorParam id="82"  name="shear">
           <InterpolatingParam id="83" interp="linr"  time="-9999999/1" value="0" leadInLength="0/1"  interpolater="leadin-linr"  />
           <InterpolatingParam id="84" interp="linr"  time="-9999999/1" value="0" leadInLength="0/1"  interpolater="leadin-linr"  />
           <InterpolatingParam id="85" interp="linr"  time="-9999999/1" value="0" leadInLength="0/1"  interpolater="leadin-linr"  />
          </VectorParam>
          <VectorParam id="86"  name="scale">
           <InterpolatingParam id="87" interp="linr"  time="-9999999/1" value="1" leadInLength="0/1"  interpolater="leadin-linr"  />
           <InterpolatingParam id="88" interp="linr"  time="-9999999/1" value="1" leadInLength="0/1"  interpolater="leadin-linr"  />
           <InterpolatingParam id="89" interp="linr"  time="-9999999/1" value="1" leadInLength="0/1"  interpolater="leadin-linr"  />
          </VectorParam>
          <VectorParam id="90"  name="anchor">
           <InterpolatingParam id="91" interp="linr"  time="0/1" value="0" leadInLength="0/1"  />
           <InterpolatingParam id="92" interp="linr"  time="0/1" value="0" leadInLength="0/1"  />
           <InterpolatingParam id="93" interp="linr"  time="0/1" value="0" leadInLength="0/1"  />
          </VectorParam>
         </Transformer>
         <Parameters>
          <VectorParam id="94"  name="sourceCrop">
           <InterpolatingParam id="95" interp="linr"  time="0/1" value="0" leadInLength="0/1"  />
           <InterpolatingParam id="96" interp="linr"  time="0/1" value="0" leadInLength="0/1"  />
           <InterpolatingParam id="97" interp="linr"  time="0/1" value="0" leadInLength="0/1"  />
           <InterpolatingParam id="98" interp="linr"  time="0/1" value="0" leadInLength="0/1"  />
          </VectorParam>
          <VectorParam id="99"  name="geometryCrop">
           <InterpolatingParam id="100" interp="linr"  time="-9999999/1" value="0" leadInLength="0/1"  interpolater="leadin-linr"  />
           <InterpolatingParam id="101" interp="linr"  time="-9999999/1" value="0" leadInLength="0/1"  interpolater="leadin-linr"  />
           <InterpolatingParam id="102" interp="linr"  time="-9999999/1" value="0" leadInLength="0/1"  interpolater="leadin-linr"  />
           <InterpolatingParam id="103" interp="linr"  time="-9999999/1" value="0" leadInLength="0/1"  interpolater="leadin-linr"  />
          </VectorParam>
          <InterpolatingParam id="104" interp="linr"  time="-9999999/1" value="1" leadInLength="0/1"  interpolater="leadin-linr"  name="opacity"/>
          <InterpolatingParam id="105" interp="linr"  time="0/1" value="1" leadInLength="0/1"  name="cursorOpacity"/>
          <InterpolatingParam id="106" interp="linr"  time="0/1" value="1" leadInLength="0/1"  name="cursorScale"/>
          <InterpolatingParam id="107" interp="linr"  name="volume">
           <Keyframes>
           <Keyframe id="108"  time="0/1" value="1.5625" leadInLength="0/1"  />
           <Keyframe id="109"  time="1734/1" value="1.5625" leadInLength="0/1"  />
           <Keyframe id="110"  time="1736/1" value="0" leadInLength="0/1"  />
           <Keyframe id="111"  time="1754/1" value="0" leadInLength="0/1"  />
           <Keyframe id="112"  time="1755/1" value="1.5625" leadInLength="0/1"  />
           </Keyframes>
          </InterpolatingParam>
          <Parameter id="113"  name="captions"/>
         </Parameters>
         <Effects>
          <GenericEffect id="114" name = "CursorBaseEffectName" >
           <Parameters>
           <InterpolatingParam id="115" interp="linr"  time="-9999999/1" value="1" leadInLength="0/1"   name="cursorSize"/>
           <InterpolatingParam id="116" interp="linr"  time="-9999999/1" value="0" leadInLength="0/1"   name="highlightBlurRadius"/>
           <InterpolatingParam id="117" interp="linr"  time="-9999999/1" value="0" leadInLength="0/1"   name="highlightColorBlue"/>
           <InterpolatingParam id="118" interp="linr"  time="-9999999/1" value="255" leadInLength="0/1"   name="highlightColorGreen"/>
           <InterpolatingParam id="119" interp="linr"  time="-9999999/1" value="255" leadInLength="0/1"   name="highlightColorRed"/>
           <InterpolatingParam id="120" interp="linr"  time="-9999999/1" value="5" leadInLength="0/1"   name="highlightFeatherSize"/>
           <InterpolatingParam id="121" interp="linr"  time="-9999999/1" value="2" leadInLength="0/1"   name="highlightMagnification"/>
           <InterpolatingParam id="122" interp="linr"  time="-9999999/1" value="1" leadInLength="0/1"   name="highlightOpacity"/>
           <InterpolatingParam id="123" interp="linr"  time="-9999999/1" value="45" leadInLength="0/1"   name="highlightSize"/>
           <Parameter id="124"   name="highlightType">
            <Keyframes>
            <Keyframe id="125"  time="-9999999/1" value="0" leadInLength="0/1"  />
            </Keyframes>
           </Parameter>
           <InterpolatingParam id="126" interp="linr"  time="-9999999/1" value="0" leadInLength="0/1"   name="leftClickColorBlue"/>
           <InterpolatingParam id="127" interp="linr"  time="-9999999/1" value="0" leadInLength="0/1"   name="leftClickColorGreen"/>
           <InterpolatingParam id="128" interp="linr"  time="-9999999/1" value="255" leadInLength="0/1"   name="leftClickColorRed"/>
           <InterpolatingParam id="129" interp="linr"  time="-9999999/1" value="0.80000000000000004" leadInLength="0/1"   name="leftClickDuration"/>
           <InterpolatingParam id="130" interp="linr"  time="-9999999/1" value="20" leadInLength="0/1"   name="leftClickSize"/>
           <Parameter id="131"   name="leftClickSoundFilename">
            <Keyframes>
            <Keyframe id="132"  time="-9999999/1" value="" leadInLength="0/1"  />
            </Keyframes>
           </Parameter>
           <InterpolatingParam id="133" interp="linr"  time="-9999999/1" value="1" leadInLength="0/1"   name="leftClickSoundVolume"/>
           <Parameter id="134"   name="leftClickType">
            <Keyframes>
            <Keyframe id="135"  time="-9999999/1" value="0" leadInLength="0/1"  />
            </Keyframes>
           </Parameter>
           <InterpolatingParam id="136" interp="linr"  time="-9999999/1" value="1" leadInLength="0/1"   name="opacity"/>
           <InterpolatingParam id="137" interp="linr"  time="-9999999/1" value="255" leadInLength="0/1"   name="rightClickColorBlue"/>
           <InterpolatingParam id="138" interp="linr"  time="-9999999/1" value="0" leadInLength="0/1"   name="rightClickColorGreen"/>
           <InterpolatingParam id="139" interp="linr"  time="-9999999/1" value="0" leadInLength="0/1"   name="rightClickColorRed"/>
           <InterpolatingParam id="140" interp="linr"  time="-9999999/1" value="0.80000000000000004" leadInLength="0/1"   name="rightClickDuration"/>
           <InterpolatingParam id="141" interp="linr"  time="-9999999/1" value="20" leadInLength="0/1"   name="rightClickSize"/>
           <Parameter id="142"   name="rightClickSoundFilename">
            <Keyframes>
            <Keyframe id="143"  time="-9999999/1" value="" leadInLength="0/1"  />
            </Keyframes>
           </Parameter>
           <InterpolatingParam id="144" interp="linr"  time="-9999999/1" value="1" leadInLength="0/1"   name="rightClickSoundVolume"/>
           <Parameter id="145"   name="rightClickType">
            <Keyframes>
            <Keyframe id="146"  time="-9999999/1" value="0" leadInLength="0/1"  />
            </Keyframes>
           </Parameter>
           </Parameters>
           <MetaData>
            <entry key="effectIndex" val="0"/>
           </MetaData>
          </GenericEffect>
          <GenericEffect id="147" name = "WinCompression" >
           <Parameters>
           <InterpolatingParam id="148" interp="linr"  time="0/1" value="0" leadInLength="0/1"   name="attack"/>
           <InterpolatingParam id="149" interp="linr"  time="0/1" value="9" leadInLength="0/1"   name="gain"/>
           <Parameter id="150"   name="preset">
            <Keyframes>
            <Keyframe id="151"  time="0/1" value="1" leadInLength="0/1"  />
            </Keyframes>
           </Parameter>
           <InterpolatingParam id="152" interp="linr"  time="0/1" value="10" leadInLength="0/1"   name="ratio"/>
           <InterpolatingParam id="153" interp="linr"  time="0/1" value="3500" leadInLength="0/1"   name="release"/>
           <InterpolatingParam id="154" interp="linr"  time="0/1" value="-20" leadInLength="0/1"   name="threshold"/>
           </Parameters>
           <MetaData>
            <entry key="effectIndex" val="1"/>
           </MetaData>
          </GenericEffect>
          <GenericEffect id="155" name = "NoiseReduction" >
           <Parameters>
           <InterpolatingParam id="156" interp="linr"  time="0/1" value="20" leadInLength="0/1"   name="denoiserAmount"/>
           <InterpolatingParam id="157" interp="linr"  time="0/1" value="0" leadInLength="0/1"   name="denoiserThreshold"/>
           <Parameter id="158"   name="noiseProfile">
            <Keyframes>
            <Keyframe id="159"  time="0/1" value="FBAAAAIAAABErAAAAQIAAPbdnsKGF5fC3iCfwnCMnsLeC5/CiSejwhjoo8Jmca7CQkm3wnkGt8JP&#xD;&#xa;LbrC9jO6wlRkusIs+bnC6Yi3whCrusJjM77Coru+wszmvcK0vr3CGzK/wv7LwMJgeMHC/kfBws7D&#xD;&#xa;wcLkt8LCIfzCwiRfxMLIesPC0tPFwrjEw8IIZsTCfDnIwoBbx8KYScXC7mnGwoQMxsJXAsbCZh3I&#xD;&#xa;wiFCy8LExcrCyFPKwsLezMKUiMvCMMrHwqihyMIE28jCHNfKwjoDzcLcdc7CRgfPwqflzMLZWsvC&#xD;&#xa;2h7IwuKTyMKYmMzCnr3QwsiVz8Imf87CiMHPwvxzzcKfMczCiADQwmL9zcKyS8zCN+LKwgaVzcJ9&#xD;&#xa;ZdDCPp3Owo70ysIyjMrCSCPPwl++0MKAJ9DC6DjRwj5S0MI+cs7C2jbPwioD0MIYsNLC1lnUwibW&#xD;&#xa;1MKRW9XCc9vTwipU1MKictXCMCDXwiTp1MJsJdPCJHHUwvy2zsIK3szCXRfNwirxzMIZf9HCnODS&#xD;&#xa;wkQb0sKmctLCB7jSwhR50cJk1NLC6BnVwrpC1sJkF9XCJrTTwtxQ1MI4lNLCj8vRwtJE1cI5vNXC&#xD;&#xa;xNXSwi2J1MJcDNXC8vDVwj9U18IM/dbCGHzUwiiq1cLXmtXCunLRwhNEzsLxXs3CYJzOwjSxz8Jf&#xD;&#xa;gdPCnn3Uwh811MLT4dPC1TbWwibX1sK9rNTCN/bRwrOn0cKDnM/CxKLQwreL1cKKENfCPtbYwn5n&#xD;&#xa;1sKdEtHCwM/RwpBU1MI6h9TCqOfXwqQL18JgRdfC3b3WwnRw2MI6ZdrCiFDXwsLn0sLDvtLCBInU&#xD;&#xa;wqxo18Lkm9nC+FLYwnaJ2MJk/NbC0j7Xwvtm2cInPt3CqHPbwj0W2cKoXNfC0ifRwjoC0cIZHdLC&#xD;&#xa;2lzSwgK10sImntXCBA/UwkvH0MKEt9HCbmvTwnCb18K+MtfCoYjVwvkR1sJkNtfCcuzVwu1k08LX&#xD;&#xa;KdXCdGfWwiQp18LqwNjCQtPYwo1628JYCt3CyQbbwoz52cLCG9vC5EDcwtYV2cK8ltXCt5HWwq+V&#xD;&#xa;28J45dzCT0Tbwn6v2sJZPdvCSFnbwhIT2sIyS9zCGt7ZwnT12MICkNvCNC7cwjFj3MKgTdzC8Wjc&#xD;&#xa;wthM4MLEf9/CABjewlpo3cJPyN7CIg/dwl7W3MKmINzC4obewrA038LCmtzCAezawvoM3cJ2xd/C&#xD;&#xa;o8Phwqzz38IkiNzCeqDbwib728LS9dzCysDdwmqb28KiE9jCNrTcwlbe38K38t/CZrPfwpY43cIs&#xD;&#xa;9dzCUoLhwljU4cKsiOTCGq3mwptj5MLca+XCZ5blwgQ148Lw3+XCYrPmwvYo5cKU2+XCO07kwsbp&#xD;&#xa;48IKEuXCM2zjwiP238KEheLCQvHkwhrh58JbhOrCIC/owiDU58JCyOnCLCjpwu5n6cJmFu7CA3Xq&#xD;&#xa;wg4V6MKuPOrCYqvqwu1f6cKkz+nC6gPkwlo64sIC6uLCDQbgwtZA4cIcSuLCAo7cwhQb28IvmeDC&#xD;&#xa;C7Liwlvh4sKceuLCoh7jwgTf5MJM4+PC0tTkwmpK68LaJPTC9Yz2wmZu98IKFfjCMtj4wqA2+MJk&#xD;&#xa;kfjC8i76wjQZ+8IYOfvCvqv8wqg4/ML+fPnCPMf1wgqH9sKGivfCZFf6wsxI+cKWzPfCGqL3wnPr&#xD;&#xa;98LYGvjCxLn5wvLm98J97vXCJqX0wsFc9MIiHfjCRL/6wqrX9sLuYvXC1Kf1wthD9cJz9PTCfh32&#xD;&#xa;wqQz9cJ0OfXCZh/0whx088IFyPTCoun4wnKr+sJw9vbCiBr2woaT+MIwfPbCzQX1wnQK98K6p/rC&#xD;&#xa;NlT5wprr+MLi9fnCbDD6wqZt9sL6IvXCciz3woYK+8JEpPvCPiz5wkBG9sLSR/XCC3/3wlIu98Le&#xD;&#xa;uvjCjoP+wsgD+8KI/PXCFeD0wuLT9sKXM/jCmPD6wlJ2+cKjZ/fC/Gv4wsgB+cJWS/jCDtj3wsjx&#xD;&#xa;98ImRfrCEhT5wtK7+MIQLPvC3pz4wr7b9cLx4vPCbvLywsJO9cJ+jPjC0tv7wjaw+MLvKfbChGr3&#xD;&#xa;wuYY+sLGQfrC2I/7wgD6+sJW3ffCmvT4wlIm+sLA8PnCvpD4wtdc9sJmcPbCJLf4wuTD+MK+DPnC&#xD;&#xa;RHv4wiQa9sLkmvfCvpP3whhj+cJyT/jCknr6whge+cKlkfbCN3r2wshh+MLT8vfCPq32wk0I9sKQ&#xD;&#xa;fvfCHHb3wiDo98J6ifXCSZj0wsYU+cJaHPvClrT4wlz898KUgPjCPJj4wsDy+MIIbPjCLMD2wkCG&#xD;&#xa;98J6yPrCYJv4wpYG9MKRaPPCijb2wryr9cKSvPXC4nr3wvi9+MITBfjCbpT5wnb0+cLGNvrCHvn4&#xD;&#xa;wj6/98IG0fbCzov3wqu09sLfR/fCHGn3wsBO+MKEjPrCjML4wjQz+ML1FffCIBL2wrRS98JK3vfC&#xD;&#xa;1Bv5wrQw+sIatffCOH73wst898Iku/jCTrz5wq6Y+cKS2PrClEv3wugw9MIAWPTCPuP4wiYm+cKC&#xD;&#xa;jffCsH76whJk+sJ0jfjCLJP3wuT89sKYofnCVnH4wqol+sJYEvrC0nb4wjTR+MJwp/nCFFL2wqri&#xD;&#xa;9MJaxfjCcrD8wqLW/MIcIPnCIjT4wvqA9sJyTvfCPgX5wlzw+sIsoPvCFCf4wpAL9sJGePXCnJf3&#xD;&#xa;wpif+cJgpvnCsfv2wrTr9sJkTPfCKjH2woVU98KcX/nCisr6wjo2+sKKFfnCpFn1wkLc88KuZfjC&#xD;&#xa;Mnj7wlqD+cKaWPnCBsADwwhUn8L3bJfCa0CfwnWQnsI8BZ/CyCqjwpLYo8JQVK7ChEK3wuBRt8KK&#xD;&#xa;sLrCenu6wuoLusLmXLrCBBW4wnLHusKNgb7CgE2+wvjivcINDr7C5ha/whaDwMKULMHCcvfBwuYo&#xD;&#xa;w8LWHsTCS5fDwuRRxcIw1sPCa1HFwkyIw8IKwMTCiF/IwqxYx8IoY8XC2sfHwixsx8I4WMfCoHjJ&#xD;&#xa;wlYxy8KOy8nCmivKwjzbzMIzssvCYsHJwg5Iy8J2PMzC6IPLwgYzzcLiOc7CxBTNwnZNzMKYFszC&#xD;&#xa;fAjJwpQ/ycLBCMvC/GLOwr0x0sKsxdDCbHHPwmAazcKw3c3Cnr7QwrwczsJqE87C4KzMwkhnzsIm&#xD;&#xa;EdHC2sDOwr5Ey8JejsrCQAfOwlxP0MI61dDCB6zRwk4C0cJDPs/CakzPwpQ50cKCqNTC2mDTwqXg&#xD;&#xa;1MJWddXCX6zSwlkS1MLiidXCxnXWwi/91sLmrdXCJizVwhKd0MKBis3CnmfMwgKQzMJan9DCl83R&#xD;&#xa;wrpW0cLm0dHCe2PTwtby0sKWZ9PCVNrRwpFH1MJQDNXCpObRwrbm0cKMK9TCgcfSwrS808LC0dTC&#xD;&#xa;LObSwi1H1cLqL9XC0vbTwhSX1cKqtNfCIOvUwr6m1sJOAtbCu7LRwh4Wz8JaKM3CMj3Owiwz0MKM&#xD;&#xa;KdPC5uDTwsy91MLQM9PCSp7TwnL31cLcI9bCPAvTwn4w0sJklNDCvDzRwiZI08IASdHC+N/Uwo9T&#xD;&#xa;1cIzqNDC3crQwq4Q08KzMNTCtvvVwso+1sJY4NbCOsTVwmxz18JqCNnCjJPVwtzY0sIlJdTCRLPV&#xD;&#xa;wgef18IYYtnClqrXwhjp1cJuo9bCMHTXwvqm28JezNvCmvLZwvzH18Jw0dXCPDXRwqFy0cLlX9LC&#xD;&#xa;L8rRwiv508JCJtTCSZbRwp6/z8L+SdPC0GPVwthJ2cLIdtfCk2zVwoTr1cJ0mNbCbSDXwhMK1sKW&#xD;&#xa;NtXC4kzYwlxb2MIux9fClu/YwoCF28If2drCbqLawm2Y2cJ0ytjC7GPawgxx2sLXdNjCcJrXwnRH&#xD;&#xa;2MIwDdrCpFXawqD33MJm797CSHDcwpb72sIHYtzC8Orbwpp62sKEh9vC2trZwrpk2cLzbNrCdZHZ&#xD;&#xa;wth228Kgjt7CZcHcwp9r3MKAtt3CIrHbwuw628IkdN3CVVfewj5n3cJmqNvCoafcwvFB3cJDR9/C&#xD;&#xa;DprfwugV4cJs5d7CMETdwktK3MKq4d3CyJjgwhDW3sL+LtnChEXcwpKv3sL9k9zCdFLdwgSx3cKA&#xD;&#xa;B9zCZsTcwnKc38IA7eLC7uHmwtht5MIfLuXCGr3jwhnO4sLQL+XC5mDkwhg348JUL+TCn47iwjDF&#xD;&#xa;48K/tuXCdqjjwhHD4MLk3OPCpTnnwhGv58JRMenC1gPqwtLK58I6LerCWufowpaD6cKykOzCpnfr&#xD;&#xa;wqgY6MLAzOjCtFzqwv4268KSA+vCkdPlwl6748LcMuPCZuLgwnyr4sKGMuPC3Azdwpz12sJNF+HC&#xD;&#xa;SrDiwuoz48LoN+PCZorhwt7h4cL+reLCP7flwmZe7MLTafTC8ir6wtZ7+8KMg/jC4qz3wuaL+sKo&#xD;&#xa;9/rCDHP5wuCE+MIC9/jC0E/7wqi9+sJym/nCPsz6wpQ8+sLk4fbCAvL1wtGl9cLYF/XC5233wuwo&#xD;&#xa;98IgDPXCDgj1wuR19sJcUvnCjJz7wux7+sIcX/jCoDn4wlSh+cKg3vjCATr2wpT398K4mvjCSiP4&#xD;&#xa;wj5m98JGTvbCHyD1whqO9cIWs/bCqs75ws7K+8JuNvzCTD36woio+cI8/fnCgt35wuhO+MKUoPnC&#xD;&#xa;+LD6wqqz+sL+WPnCwLL4wplB+MLGivjCLJ/3wgqp9MLUUPTCnDr0wtr09MKR2PTCAMPzwpPI9cIE&#xD;&#xa;NvXCcDz3wpSN+MI7y/bCJsT1wngL9sLESvjCoKH7wmq++MLudvbCOEj4wmLV+cKka/jC9Lz5whi2&#xD;&#xa;+MK0SvbCogz4wmat9sICmPfCY/j1woCf9cJ+8PfCfUf2wrA39sL6FfbCwqn2wtRM9sKTQ/jCaNr3&#xD;&#xa;woad+cJguvvCCN74wqTU98KYxfXC00L3whJb+8IGGPnCGCX6wvAn+MKF2vXCwur2whZ1+cJzpPfC&#xD;&#xa;0qz3wuRq+cJqO/nCap75wjp8+MJGefbCugH3wtAD+cJw1/fC7gr7wvA0+8JUvfrC4gf5wsBW9cLi&#xD;&#xa;YPfCk0n4wno7+cKWP/rCLLX1wrpH98IMJPnCVvf2wn6m9sIxjfXC6M7ywkBN8sKki/XC5wT2wo7R&#xD;&#xa;9sJyafjCbPX3wqJK+MJmSvnC5Gz4wpXL9cIhWvbCmKf5wvyr+cLMp/jCn931wmSQ+MLQN/vCxv36&#xD;&#xa;wqYB+sJIK/jC4P3zwu6k98LwMvnChOP2wkD19MIiwPTCsSL1wrx69cJjKvbChs/3wqs5+MKCgvbC&#xD;&#xa;OLn1wrpI+MKY5vrC/Mv6wub098IQp/bCnIH5wjxc+cLcHPnC8k/3wsSc+MIMf/nCFBL4whQr9cJI&#xD;&#xa;F/bC0K/3wgwi+8KMgvfClLL3wjh++cKUcffCy9X0wvZf+MJ2G/jCwmX5wtx4+MJ+4/jCgFP2wvqP&#xD;&#xa;98JyG/vCQM/4wiZg+cLk8PnCcHb5wpaa+sJodPrCmLn7wn4a+8L0nPnCUBr5wvj0+cLkQ/vCzOX3&#xD;&#xa;wswA9sLIPvrCHH/8wtgw+8IyXvfCW+b1wqS2+MKK3vXCwtbxwu4e9MKGtffCuUD3wvg/+MIUO/nC&#xD;&#xa;iuf4wjqj+MIgXPnCiJUD" leadInLength="0/1"  />
            </Keyframes>
           </Parameter>
           </Parameters>
           <MetaData>
            <entry key="effectIndex" val="2"/>
           </MetaData>
          </GenericEffect>
         </Effects>
         <Attributes>
          <Attribute id="160" value="" name="ident"/>
          <Attribute id="161" value="0" name="mixToMono"/>
         </Attributes>
         <MetaData>
          <entry key="AutoAppliedSmartFocus" val="False"/>
          <entry key="WinSubProjectDisplayName" val=""/>
         </MetaData>
         <ExtraData>
          <Entry key="ZoomPanBin">
           <ZoomPanBin id="162"  >
            <ZoomPanKeyframes>
             <ZoomPanKeyframe id="163" timeRangeEnd="-9999999/1" timeRangeDuration="0/1" interpolaterName="linr"  />
            </ZoomPanKeyframes>
           </ZoomPanBin>
          </Entry>
          <Entry key="CursorEffectBin">
           <CursorEffectBin id="164"  >
            <CursorEffectKeyframes>
             <CursorEffectKeyframe id="165" timeRangeEnd="-9999999/1" timeRangeDuration="0/1" interpolaterName=""  />
            </CursorEffectKeyframes>
           </CursorEffectBin>
          </Entry>
         </ExtraData>
         <GenericTrack id="166"  >
          <Attributes>
           <Attribute id="167" value="" name="ident"/>
           <Attribute id="168" value="0" name="audioMuted"/>
           <Attribute id="169" value="0" name="videoHidden"/>
          </Attributes>
          <MetaData>
           <entry key="IsLocked" val="False"/>
           <entry key="WinTrackHeight" val="0"/>
          </MetaData>
          <Medias>
           <UnifiedMedia id="170"  >
            <AMFile id="171" start="0" duration="1129" scalar="1/1" mediaStart="0/1" mediaDuration="1129/1" trackNumber="1" src="4" channelNumber="0,1" >
             <Parameters>
              <InterpolatingParam id="172" interp="linr"  time="0/1" value="1" leadInLength="0/1"  name="volume"/>
              <Parameter id="173"  name="captions"/>
             </Parameters>
             <Attributes>
              <Attribute id="174" value="" name="ident"/>
              <Attribute id="175" value="44100" name="sampleRate"/>
              <Attribute id="176" value="16" name="bitDepth"/>
              <Attribute id="177" value="1" name="gain"/>
              <Attribute id="178" value="0" name="mixToMono"/>
             </Attributes>
            </AMFile>
            <ScreenVMFile id="179" start="0" duration="1129" scalar="1/1" mediaStart="0/1" mediaDuration="1129/1" trackNumber="0" src="4" >
             <Transformer>
              <VectorParam id="180"  name="translation">
               <InterpolatingParam id="181" interp="linr"  time="-9999999/1" value="0" leadInLength="0/1"  />
               <InterpolatingParam id="182" interp="linr"  time="-9999999/1" value="0" leadInLength="0/1"  />
               <InterpolatingParam id="183" interp="linr"  time="-9999999/1" value="0" leadInLength="0/1"  />
              </VectorParam>
              <VectorParam id="184"  name="rotation">
               <InterpolatingParam id="185" interp="linr"  time="-9999999/1" value="0" leadInLength="0/1"  />
               <InterpolatingParam id="186" interp="linr"  time="-9999999/1" value="0" leadInLength="0/1"  />
               <InterpolatingParam id="187" interp="linr"  time="-9999999/1" value="0" leadInLength="0/1"  />
              </VectorParam>
              <VectorParam id="188"  name="shear">
               <InterpolatingParam id="189" interp="linr"  time="-9999999/1" value="0" leadInLength="0/1"  />
               <InterpolatingParam id="190" interp="linr"  time="-9999999/1" value="0" leadInLength="0/1"  />
               <InterpolatingParam id="191" interp="linr"  time="-9999999/1" value="0" leadInLength="0/1"  />
              </VectorParam>
              <VectorParam id="192"  name="scale">
               <InterpolatingParam id="193" interp="linr"  time="-9999999/1" value="1" leadInLength="0/1"  />
               <InterpolatingParam id="194" interp="linr"  time="-9999999/1" value="1" leadInLength="0/1"  />
               <InterpolatingParam id="195" interp="linr"  time="-9999999/1" value="1" leadInLength="0/1"  />
              </VectorParam>
              <VectorParam id="196"  name="anchor">
               <InterpolatingParam id="197" interp="linr"  time="0/1" value="0" leadInLength="0/1"  />
               <InterpolatingParam id="198" interp="linr"  time="0/1" value="0" leadInLength="0/1"  />
               <InterpolatingParam id="199" interp="linr"  time="0/1" value="0" leadInLength="0/1"  />
              </VectorParam>
             </Transformer>
             <Parameters>
              <VectorParam id="200"  name="sourceCrop">
               <InterpolatingParam id="201" interp="linr"  time="0/1" value="0" leadInLength="0/1"  />
               <InterpolatingParam id="202" interp="linr"  time="0/1" value="0" leadInLength="0/1"  />
               <InterpolatingParam id="203" interp="linr"  time="0/1" value="0" leadInLength="0/1"  />
               <InterpolatingParam id="204" interp="linr"  time="0/1" value="0" leadInLength="0/1"  />
              </VectorParam>
              <VectorParam id="205"  name="geometryCrop">
               <InterpolatingParam id="206" interp="linr"  time="-9999999/1" value="0" leadInLength="0/1"  />
               <InterpolatingParam id="207" interp="linr"  time="-9999999/1" value="0" leadInLength="0/1"  />
               <InterpolatingParam id="208" interp="linr"  time="-9999999/1" value="0" leadInLength="0/1"  />
               <InterpolatingParam id="209" interp="linr"  time="-9999999/1" value="0" leadInLength="0/1"  />
              </VectorParam>
              <InterpolatingParam id="210" interp="linr"  time="-9999999/1" value="1" leadInLength="0/1"  name="opacity"/>
              <InterpolatingParam id="211" interp="linr"  time="0/1" value="0" leadInLength="0/1"  name="cursorOpacity"/>
              <InterpolatingParam id="212" interp="linr"  time="0/1" value="0" leadInLength="0/1"  name="cursorScale"/>
             </Parameters>
             <Attributes>
              <Attribute id="213" value="" name="ident"/>
             </Attributes>
             <ExtraData>
              <Entry key="ZoomPanBin">
               <ZoomPanBin id="214"  >
                <ZoomPanKeyframes>
                 <ZoomPanKeyframe id="215" timeRangeEnd="-9999999/1" timeRangeDuration="0/1" interpolaterName=""  />
                </ZoomPanKeyframes>
               </ZoomPanBin>
              </Entry>
              <Entry key="CursorEffectBin">
               <CursorEffectBin id="216"  >
                <CursorEffectKeyframes>
                </CursorEffectKeyframes>
               </CursorEffectBin>
              </Entry>
             </ExtraData>
            </ScreenVMFile>
            <MetaData>
             <entry key="AutoAppliedSmartFocus" val="False"/>
             <entry key="WinSubProjectDisplayName" val=""/>
            </MetaData>
           </UnifiedMedia>
           <UnifiedMedia id="217"  >
            <AMFile id="218" start="1129" duration="121" scalar="1/1" mediaStart="1301/1" mediaDuration="121/1" trackNumber="1" src="4" channelNumber="0,1" >
             <Parameters>
              <InterpolatingParam id="219" interp="linr"  time="0/1" value="1" leadInLength="0/1"  name="volume"/>
              <Parameter id="220"  name="captions"/>
             </Parameters>
             <Attributes>
              <Attribute id="221" value="" name="ident"/>
              <Attribute id="222" value="44100" name="sampleRate"/>
              <Attribute id="223" value="16" name="bitDepth"/>
              <Attribute id="224" value="1" name="gain"/>
              <Attribute id="225" value="0" name="mixToMono"/>
             </Attributes>
            </AMFile>
            <ScreenVMFile id="226" start="1129" duration="121" scalar="1/1" mediaStart="1301/1" mediaDuration="121/1" trackNumber="0" src="4" >
             <Transformer>
              <VectorParam id="227"  name="translation">
               <InterpolatingParam id="228" interp="linr"  time="-9999999/1" value="0" leadInLength="0/1"  />
               <InterpolatingParam id="229" interp="linr"  time="-9999999/1" value="0" leadInLength="0/1"  />
               <InterpolatingParam id="230" interp="linr"  time="-9999999/1" value="0" leadInLength="0/1"  />
              </VectorParam>
              <VectorParam id="231"  name="rotation">
               <InterpolatingParam id="232" interp="linr"  time="-9999999/1" value="0" leadInLength="0/1"  />
               <InterpolatingParam id="233" interp="linr"  time="-9999999/1" value="0" leadInLength="0/1"  />
               <InterpolatingParam id="234" interp="linr"  time="-9999999/1" value="0" leadInLength="0/1"  />
              </VectorParam>
              <VectorParam id="235"  name="shear">
               <InterpolatingParam id="236" interp="linr"  time="-9999999/1" value="0" leadInLength="0/1"  />
               <InterpolatingParam id="237" interp="linr"  time="-9999999/1" value="0" leadInLength="0/1"  />
               <InterpolatingParam id="238" interp="linr"  time="-9999999/1" value="0" leadInLength="0/1"  />
              </VectorParam>
              <VectorParam id="239"  name="scale">
               <InterpolatingParam id="240" interp="linr"  time="-9999999/1" value="1" leadInLength="0/1"  />
               <InterpolatingParam id="241" interp="linr"  time="-9999999/1" value="1" leadInLength="0/1"  />
               <InterpolatingParam id="242" interp="linr"  time="-9999999/1" value="1" leadInLength="0/1"  />
              </VectorParam>
              <VectorParam id="243"  name="anchor">
               <InterpolatingParam id="244" interp="linr"  time="0/1" value="0" leadInLength="0/1"  />
               <InterpolatingParam id="245" interp="linr"  time="0/1" value="0" leadInLength="0/1"  />
               <InterpolatingParam id="246" interp="linr"  time="0/1" value="0" leadInLength="0/1"  />
              </VectorParam>
             </Transformer>
             <Parameters>
              <VectorParam id="247"  name="sourceCrop">
               <InterpolatingParam id="248" interp="linr"  time="0/1" value="0" leadInLength="0/1"  />
               <InterpolatingParam id="249" interp="linr"  time="0/1" value="0" leadInLength="0/1"  />
               <InterpolatingParam id="250" interp="linr"  time="0/1" value="0" leadInLength="0/1"  />
               <InterpolatingParam id="251" interp="linr"  time="0/1" value="0" leadInLength="0/1"  />
              </VectorParam>
              <VectorParam id="252"  name="geometryCrop">
               <InterpolatingParam id="253" interp="linr"  time="-9999999/1" value="0" leadInLength="0/1"  />
               <InterpolatingParam id="254" interp="linr"  time="-9999999/1" value="0" leadInLength="0/1"  />
               <InterpolatingParam id="255" interp="linr"  time="-9999999/1" value="0" leadInLength="0/1"  />
               <InterpolatingParam id="256" interp="linr"  time="-9999999/1" value="0" leadInLength="0/1"  />
              </VectorParam>
              <InterpolatingParam id="257" interp="linr"  time="-9999999/1" value="1" leadInLength="0/1"  name="opacity"/>
              <InterpolatingParam id="258" interp="linr"  time="0/1" value="0" leadInLength="0/1"  name="cursorOpacity"/>
              <InterpolatingParam id="259" interp="linr"  time="0/1" value="0" leadInLength="0/1"  name="cursorScale"/>
             </Parameters>
             <Attributes>
              <Attribute id="260" value="" name="ident"/>
             </Attributes>
             <ExtraData>
              <Entry key="ZoomPanBin">
               <ZoomPanBin id="261"  >
                <ZoomPanKeyframes>
                 <ZoomPanKeyframe id="262" timeRangeEnd="-9999999/1" timeRangeDuration="0/1" interpolaterName=""  />
                </ZoomPanKeyframes>
               </ZoomPanBin>
              </Entry>
              <Entry key="CursorEffectBin">
               <CursorEffectBin id="263"  >
                <CursorEffectKeyframes>
                </CursorEffectKeyframes>
               </CursorEffectBin>
              </Entry>
             </ExtraData>
            </ScreenVMFile>
            <MetaData>
             <entry key="AutoAppliedSmartFocus" val="False"/>
             <entry key="WinSubProjectDisplayName" val=""/>
            </MetaData>
           </UnifiedMedia>
           <UnifiedMedia id="264"  >
            <AMFile id="265" start="1250" duration="254" scalar="1/1" mediaStart="1432/1" mediaDuration="254/1" trackNumber="1" src="4" channelNumber="0,1" >
             <Parameters>
              <InterpolatingParam id="266" interp="linr"  time="0/1" value="1" leadInLength="0/1"  name="volume"/>
              <Parameter id="267"  name="captions"/>
             </Parameters>
             <Attributes>
              <Attribute id="268" value="" name="ident"/>
              <Attribute id="269" value="44100" name="sampleRate"/>
              <Attribute id="270" value="16" name="bitDepth"/>
              <Attribute id="271" value="1" name="gain"/>
              <Attribute id="272" value="0" name="mixToMono"/>
             </Attributes>
            </AMFile>
            <ScreenVMFile id="273" start="1250" duration="254" scalar="1/1" mediaStart="1432/1" mediaDuration="254/1" trackNumber="0" src="4" >
             <Transformer>
              <VectorParam id="274"  name="translation">
               <InterpolatingParam id="275" interp="linr"  time="-9999999/1" value="0" leadInLength="0/1"  />
               <InterpolatingParam id="276" interp="linr"  time="-9999999/1" value="0" leadInLength="0/1"  />
               <InterpolatingParam id="277" interp="linr"  time="-9999999/1" value="0" leadInLength="0/1"  />
              </VectorParam>
              <VectorParam id="278"  name="rotation">
               <InterpolatingParam id="279" interp="linr"  time="-9999999/1" value="0" leadInLength="0/1"  />
               <InterpolatingParam id="280" interp="linr"  time="-9999999/1" value="0" leadInLength="0/1"  />
               <InterpolatingParam id="281" interp="linr"  time="-9999999/1" value="0" leadInLength="0/1"  />
              </VectorParam>
              <VectorParam id="282"  name="shear">
               <InterpolatingParam id="283" interp="linr"  time="-9999999/1" value="0" leadInLength="0/1"  />
               <InterpolatingParam id="284" interp="linr"  time="-9999999/1" value="0" leadInLength="0/1"  />
               <InterpolatingParam id="285" interp="linr"  time="-9999999/1" value="0" leadInLength="0/1"  />
              </VectorParam>
              <VectorParam id="286"  name="scale">
               <InterpolatingParam id="287" interp="linr"  time="-9999999/1" value="1" leadInLength="0/1"  />
               <InterpolatingParam id="288" interp="linr"  time="-9999999/1" value="1" leadInLength="0/1"  />
               <InterpolatingParam id="289" interp="linr"  time="-9999999/1" value="1" leadInLength="0/1"  />
              </VectorParam>
              <VectorParam id="290"  name="anchor">
               <InterpolatingParam id="291" interp="linr"  time="0/1" value="0" leadInLength="0/1"  />
               <InterpolatingParam id="292" interp="linr"  time="0/1" value="0" leadInLength="0/1"  />
               <InterpolatingParam id="293" interp="linr"  time="0/1" value="0" leadInLength="0/1"  />
              </VectorParam>
             </Transformer>
             <Parameters>
              <VectorParam id="294"  name="sourceCrop">
               <InterpolatingParam id="295" interp="linr"  time="0/1" value="0" leadInLength="0/1"  />
               <InterpolatingParam id="296" interp="linr"  time="0/1" value="0" leadInLength="0/1"  />
               <InterpolatingParam id="297" interp="linr"  time="0/1" value="0" leadInLength="0/1"  />
               <InterpolatingParam id="298" interp="linr"  time="0/1" value="0" leadInLength="0/1"  />
              </VectorParam>
              <VectorParam id="299"  name="geometryCrop">
               <InterpolatingParam id="300" interp="linr"  time="-9999999/1" value="0" leadInLength="0/1"  />
               <InterpolatingParam id="301" interp="linr"  time="-9999999/1" value="0" leadInLength="0/1"  />
               <InterpolatingParam id="302" interp="linr"  time="-9999999/1" value="0" leadInLength="0/1"  />
               <InterpolatingParam id="303" interp="linr"  time="-9999999/1" value="0" leadInLength="0/1"  />
              </VectorParam>
              <InterpolatingParam id="304" interp="linr"  time="-9999999/1" value="1" leadInLength="0/1"  name="opacity"/>
              <InterpolatingParam id="305" interp="linr"  time="0/1" value="0" leadInLength="0/1"  name="cursorOpacity"/>
              <InterpolatingParam id="306" interp="linr"  time="0/1" value="0" leadInLength="0/1"  name="cursorScale"/>
             </Parameters>
             <Attributes>
              <Attribute id="307" value="" name="ident"/>
             </Attributes>
             <ExtraData>
              <Entry key="ZoomPanBin">
               <ZoomPanBin id="308"  >
                <ZoomPanKeyframes>
                 <ZoomPanKeyframe id="309" timeRangeEnd="-9999999/1" timeRangeDuration="0/1" interpolaterName=""  />
                </ZoomPanKeyframes>
               </ZoomPanBin>
              </Entry>
              <Entry key="CursorEffectBin">
               <CursorEffectBin id="310"  >
                <CursorEffectKeyframes>
                </CursorEffectKeyframes>
               </CursorEffectBin>
              </Entry>
             </ExtraData>
            </ScreenVMFile>
            <MetaData>
             <entry key="AutoAppliedSmartFocus" val="False"/>
             <entry key="WinSubProjectDisplayName" val=""/>
            </MetaData>
           </UnifiedMedia>
           <UnifiedMedia id="311"  >
            <AMFile id="312" start="1504" duration="170" scalar="1/1" mediaStart="1701/1" mediaDuration="170/1" trackNumber="1" src="4" channelNumber="0,1" >
             <Parameters>
              <InterpolatingParam id="313" interp="linr"  time="0/1" value="1" leadInLength="0/1"  name="volume"/>
              <Parameter id="314"  name="captions"/>
             </Parameters>
             <Attributes>
              <Attribute id="315" value="" name="ident"/>
              <Attribute id="316" value="44100" name="sampleRate"/>
              <Attribute id="317" value="16" name="bitDepth"/>
              <Attribute id="318" value="1" name="gain"/>
              <Attribute id="319" value="0" name="mixToMono"/>
             </Attributes>
            </AMFile>
            <ScreenVMFile id="320" start="1504" duration="170" scalar="1/1" mediaStart="1701/1" mediaDuration="170/1" trackNumber="0" src="4" >
             <Transformer>
              <VectorParam id="321"  name="translation">
               <InterpolatingParam id="322" interp="linr"  time="-9999999/1" value="0" leadInLength="0/1"  />
               <InterpolatingParam id="323" interp="linr"  time="-9999999/1" value="0" leadInLength="0/1"  />
               <InterpolatingParam id="324" interp="linr"  time="-9999999/1" value="0" leadInLength="0/1"  />
              </VectorParam>
              <VectorParam id="325"  name="rotation">
               <InterpolatingParam id="326" interp="linr"  time="-9999999/1" value="0" leadInLength="0/1"  />
               <InterpolatingParam id="327" interp="linr"  time="-9999999/1" value="0" leadInLength="0/1"  />
               <InterpolatingParam id="328" interp="linr"  time="-9999999/1" value="0" leadInLength="0/1"  />
              </VectorParam>
              <VectorParam id="329"  name="shear">
               <InterpolatingParam id="330" interp="linr"  time="-9999999/1" value="0" leadInLength="0/1"  />
               <InterpolatingParam id="331" interp="linr"  time="-9999999/1" value="0" leadInLength="0/1"  />
               <InterpolatingParam id="332" interp="linr"  time="-9999999/1" value="0" leadInLength="0/1"  />
              </VectorParam>
              <VectorParam id="333"  name="scale">
               <InterpolatingParam id="334" interp="linr"  time="-9999999/1" value="1" leadInLength="0/1"  />
               <InterpolatingParam id="335" interp="linr"  time="-9999999/1" value="1" leadInLength="0/1"  />
               <InterpolatingParam id="336" interp="linr"  time="-9999999/1" value="1" leadInLength="0/1"  />
              </VectorParam>
              <VectorParam id="337"  name="anchor">
               <InterpolatingParam id="338" interp="linr"  time="0/1" value="0" leadInLength="0/1"  />
               <InterpolatingParam id="339" interp="linr"  time="0/1" value="0" leadInLength="0/1"  />
               <InterpolatingParam id="340" interp="linr"  time="0/1" value="0" leadInLength="0/1"  />
              </VectorParam>
             </Transformer>
             <Parameters>
              <VectorParam id="341"  name="sourceCrop">
               <InterpolatingParam id="342" interp="linr"  time="0/1" value="0" leadInLength="0/1"  />
               <InterpolatingParam id="343" interp="linr"  time="0/1" value="0" leadInLength="0/1"  />
               <InterpolatingParam id="344" interp="linr"  time="0/1" value="0" leadInLength="0/1"  />
               <InterpolatingParam id="345" interp="linr"  time="0/1" value="0" leadInLength="0/1"  />
              </VectorParam>
              <VectorParam id="346"  name="geometryCrop">
               <InterpolatingParam id="347" interp="linr"  time="-9999999/1" value="0" leadInLength="0/1"  />
               <InterpolatingParam id="348" interp="linr"  time="-9999999/1" value="0" leadInLength="0/1"  />
               <InterpolatingParam id="349" interp="linr"  time="-9999999/1" value="0" leadInLength="0/1"  />
               <InterpolatingParam id="350" interp="linr"  time="-9999999/1" value="0" leadInLength="0/1"  />
              </VectorParam>
              <InterpolatingParam id="351" interp="linr"  time="-9999999/1" value="1" leadInLength="0/1"  name="opacity"/>
              <InterpolatingParam id="352" interp="linr"  time="0/1" value="0" leadInLength="0/1"  name="cursorOpacity"/>
              <InterpolatingParam id="353" interp="linr"  time="0/1" value="0" leadInLength="0/1"  name="cursorScale"/>
             </Parameters>
             <Attributes>
              <Attribute id="354" value="" name="ident"/>
             </Attributes>
             <ExtraData>
              <Entry key="ZoomPanBin">
               <ZoomPanBin id="355"  >
                <ZoomPanKeyframes>
                 <ZoomPanKeyframe id="356" timeRangeEnd="-9999999/1" timeRangeDuration="0/1" interpolaterName=""  />
                </ZoomPanKeyframes>
               </ZoomPanBin>
              </Entry>
              <Entry key="CursorEffectBin">
               <CursorEffectBin id="357"  >
                <CursorEffectKeyframes>
                </CursorEffectKeyframes>
               </CursorEffectBin>
              </Entry>
             </ExtraData>
            </ScreenVMFile>
            <MetaData>
             <entry key="AutoAppliedSmartFocus" val="False"/>
             <entry key="WinSubProjectDisplayName" val=""/>
            </MetaData>
           </UnifiedMedia>
           <UnifiedMedia id="358"  >
            <AMFile id="359" start="1674" duration="60" scalar="1/1" mediaStart="1892/1" mediaDuration="60/1" trackNumber="1" src="4" channelNumber="0,1" >
             <Parameters>
              <InterpolatingParam id="360" interp="linr"  time="0/1" value="1" leadInLength="0/1"  name="volume"/>
              <Parameter id="361"  name="captions"/>
             </Parameters>
             <Attributes>
              <Attribute id="362" value="" name="ident"/>
              <Attribute id="363" value="44100" name="sampleRate"/>
              <Attribute id="364" value="16" name="bitDepth"/>
              <Attribute id="365" value="1" name="gain"/>
              <Attribute id="366" value="0" name="mixToMono"/>
             </Attributes>
            </AMFile>
            <ScreenVMFile id="367" start="1674" duration="60" scalar="1/1" mediaStart="1892/1" mediaDuration="60/1" trackNumber="0" src="4" >
             <Transformer>
              <VectorParam id="368"  name="translation">
               <InterpolatingParam id="369" interp="linr"  time="-9999999/1" value="0" leadInLength="0/1"  />
               <InterpolatingParam id="370" interp="linr"  time="-9999999/1" value="0" leadInLength="0/1"  />
               <InterpolatingParam id="371" interp="linr"  time="-9999999/1" value="0" leadInLength="0/1"  />
              </VectorParam>
              <VectorParam id="372"  name="rotation">
               <InterpolatingParam id="373" interp="linr"  time="-9999999/1" value="0" leadInLength="0/1"  />
               <InterpolatingParam id="374" interp="linr"  time="-9999999/1" value="0" leadInLength="0/1"  />
               <InterpolatingParam id="375" interp="linr"  time="-9999999/1" value="0" leadInLength="0/1"  />
              </VectorParam>
              <VectorParam id="376"  name="shear">
               <InterpolatingParam id="377" interp="linr"  time="-9999999/1" value="0" leadInLength="0/1"  />
               <InterpolatingParam id="378" interp="linr"  time="-9999999/1" value="0" leadInLength="0/1"  />
               <InterpolatingParam id="379" interp="linr"  time="-9999999/1" value="0" leadInLength="0/1"  />
              </VectorParam>
              <VectorParam id="380"  name="scale">
               <InterpolatingParam id="381" interp="linr"  time="-9999999/1" value="1" leadInLength="0/1"  />
               <InterpolatingParam id="382" interp="linr"  time="-9999999/1" value="1" leadInLength="0/1"  />
               <InterpolatingParam id="383" interp="linr"  time="-9999999/1" value="1" leadInLength="0/1"  />
              </VectorParam>
              <VectorParam id="384"  name="anchor">
               <InterpolatingParam id="385" interp="linr"  time="0/1" value="0" leadInLength="0/1"  />
               <InterpolatingParam id="386" interp="linr"  time="0/1" value="0" leadInLength="0/1"  />
               <InterpolatingParam id="387" interp="linr"  time="0/1" value="0" leadInLength="0/1"  />
              </VectorParam>
             </Transformer>
             <Parameters>
              <VectorParam id="388"  name="sourceCrop">
               <InterpolatingParam id="389" interp="linr"  time="0/1" value="0" leadInLength="0/1"  />
               <InterpolatingParam id="390" interp="linr"  time="0/1" value="0" leadInLength="0/1"  />
               <InterpolatingParam id="391" interp="linr"  time="0/1" value="0" leadInLength="0/1"  />
               <InterpolatingParam id="392" interp="linr"  time="0/1" value="0" leadInLength="0/1"  />
              </VectorParam>
              <VectorParam id="393"  name="geometryCrop">
               <InterpolatingParam id="394" interp="linr"  time="-9999999/1" value="0" leadInLength="0/1"  />
               <InterpolatingParam id="395" interp="linr"  time="-9999999/1" value="0" leadInLength="0/1"  />
               <InterpolatingParam id="396" interp="linr"  time="-9999999/1" value="0" leadInLength="0/1"  />
               <InterpolatingParam id="397" interp="linr"  time="-9999999/1" value="0" leadInLength="0/1"  />
              </VectorParam>
              <InterpolatingParam id="398" interp="linr"  time="-9999999/1" value="1" leadInLength="0/1"  name="opacity"/>
              <InterpolatingParam id="399" interp="linr"  time="0/1" value="0" leadInLength="0/1"  name="cursorOpacity"/>
              <InterpolatingParam id="400" interp="linr"  time="0/1" value="0" leadInLength="0/1"  name="cursorScale"/>
             </Parameters>
             <Attributes>
              <Attribute id="401" value="" name="ident"/>
             </Attributes>
             <ExtraData>
              <Entry key="ZoomPanBin">
               <ZoomPanBin id="402"  >
                <ZoomPanKeyframes>
                 <ZoomPanKeyframe id="403" timeRangeEnd="-9999999/1" timeRangeDuration="0/1" interpolaterName=""  />
                </ZoomPanKeyframes>
               </ZoomPanBin>
              </Entry>
              <Entry key="CursorEffectBin">
               <CursorEffectBin id="404"  >
                <CursorEffectKeyframes>
                </CursorEffectKeyframes>
               </CursorEffectBin>
              </Entry>
             </ExtraData>
            </ScreenVMFile>
            <MetaData>
             <entry key="AutoAppliedSmartFocus" val="False"/>
             <entry key="WinSubProjectDisplayName" val=""/>
            </MetaData>
           </UnifiedMedia>
           <UnifiedMedia id="405"  >
            <AMFile id="406" start="1734" duration="61" scalar="1/1" mediaStart="2007/1" mediaDuration="61/1" trackNumber="1" src="4" channelNumber="0,1" >
             <Parameters>
              <InterpolatingParam id="407" interp="linr"  time="0/1" value="1" leadInLength="0/1"  name="volume"/>
              <Parameter id="408"  name="captions"/>
             </Parameters>
             <Attributes>
              <Attribute id="409" value="" name="ident"/>
              <Attribute id="410" value="44100" name="sampleRate"/>
              <Attribute id="411" value="16" name="bitDepth"/>
              <Attribute id="412" value="1" name="gain"/>
              <Attribute id="413" value="0" name="mixToMono"/>
             </Attributes>
            </AMFile>
            <ScreenVMFile id="414" start="1734" duration="61" scalar="1/1" mediaStart="2007/1" mediaDuration="61/1" trackNumber="0" src="4" >
             <Transformer>
              <VectorParam id="415"  name="translation">
               <InterpolatingParam id="416" interp="linr"  time="-9999999/1" value="0" leadInLength="0/1"  />
               <InterpolatingParam id="417" interp="linr"  time="-9999999/1" value="0" leadInLength="0/1"  />
               <InterpolatingParam id="418" interp="linr"  time="-9999999/1" value="0" leadInLength="0/1"  />
              </VectorParam>
              <VectorParam id="419"  name="rotation">
               <InterpolatingParam id="420" interp="linr"  time="-9999999/1" value="0" leadInLength="0/1"  />
               <InterpolatingParam id="421" interp="linr"  time="-9999999/1" value="0" leadInLength="0/1"  />
               <InterpolatingParam id="422" interp="linr"  time="-9999999/1" value="0" leadInLength="0/1"  />
              </VectorParam>
              <VectorParam id="423"  name="shear">
               <InterpolatingParam id="424" interp="linr"  time="-9999999/1" value="0" leadInLength="0/1"  />
               <InterpolatingParam id="425" interp="linr"  time="-9999999/1" value="0" leadInLength="0/1"  />
               <InterpolatingParam id="426" interp="linr"  time="-9999999/1" value="0" leadInLength="0/1"  />
              </VectorParam>
              <VectorParam id="427"  name="scale">
               <InterpolatingParam id="428" interp="linr"  time="-9999999/1" value="1" leadInLength="0/1"  />
               <InterpolatingParam id="429" interp="linr"  time="-9999999/1" value="1" leadInLength="0/1"  />
               <InterpolatingParam id="430" interp="linr"  time="-9999999/1" value="1" leadInLength="0/1"  />
              </VectorParam>
              <VectorParam id="431"  name="anchor">
               <InterpolatingParam id="432" interp="linr"  time="0/1" value="0" leadInLength="0/1"  />
               <InterpolatingParam id="433" interp="linr"  time="0/1" value="0" leadInLength="0/1"  />
               <InterpolatingParam id="434" interp="linr"  time="0/1" value="0" leadInLength="0/1"  />
              </VectorParam>
             </Transformer>
             <Parameters>
              <VectorParam id="435"  name="sourceCrop">
               <InterpolatingParam id="436" interp="linr"  time="0/1" value="0" leadInLength="0/1"  />
               <InterpolatingParam id="437" interp="linr"  time="0/1" value="0" leadInLength="0/1"  />
               <InterpolatingParam id="438" interp="linr"  time="0/1" value="0" leadInLength="0/1"  />
               <InterpolatingParam id="439" interp="linr"  time="0/1" value="0" leadInLength="0/1"  />
              </VectorParam>
              <VectorParam id="440"  name="geometryCrop">
               <InterpolatingParam id="441" interp="linr"  time="-9999999/1" value="0" leadInLength="0/1"  />
               <InterpolatingParam id="442" interp="linr"  time="-9999999/1" value="0" leadInLength="0/1"  />
               <InterpolatingParam id="443" interp="linr"  time="-9999999/1" value="0" leadInLength="0/1"  />
               <InterpolatingParam id="444" interp="linr"  time="-9999999/1" value="0" leadInLength="0/1"  />
              </VectorParam>
              <InterpolatingParam id="445" interp="linr"  time="-9999999/1" value="1" leadInLength="0/1"  name="opacity"/>
              <InterpolatingParam id="446" interp="linr"  time="0/1" value="0" leadInLength="0/1"  name="cursorOpacity"/>
              <InterpolatingParam id="447" interp="linr"  time="0/1" value="0" leadInLength="0/1"  name="cursorScale"/>
             </Parameters>
             <Attributes>
              <Attribute id="448" value="" name="ident"/>
             </Attributes>
             <ExtraData>
              <Entry key="ZoomPanBin">
               <ZoomPanBin id="449"  >
                <ZoomPanKeyframes>
                 <ZoomPanKeyframe id="450" timeRangeEnd="-9999999/1" timeRangeDuration="0/1" interpolaterName=""  />
                </ZoomPanKeyframes>
               </ZoomPanBin>
              </Entry>
              <Entry key="CursorEffectBin">
               <CursorEffectBin id="451"  >
                <CursorEffectKeyframes>
                </CursorEffectKeyframes>
               </CursorEffectBin>
              </Entry>
             </ExtraData>
            </ScreenVMFile>
            <MetaData>
             <entry key="AutoAppliedSmartFocus" val="False"/>
             <entry key="WinSubProjectDisplayName" val=""/>
            </MetaData>
           </UnifiedMedia>
           <UnifiedMedia id="452"  >
            <AMFile id="453" start="1795" duration="141" scalar="1/1" mediaStart="2178/1" mediaDuration="141/1" trackNumber="1" src="4" channelNumber="0,1" >
             <Parameters>
              <InterpolatingParam id="454" interp="linr"  time="0/1" value="1" leadInLength="0/1"  name="volume"/>
              <Parameter id="455"  name="captions"/>
             </Parameters>
             <Attributes>
              <Attribute id="456" value="" name="ident"/>
              <Attribute id="457" value="44100" name="sampleRate"/>
              <Attribute id="458" value="16" name="bitDepth"/>
              <Attribute id="459" value="1" name="gain"/>
              <Attribute id="460" value="0" name="mixToMono"/>
             </Attributes>
            </AMFile>
            <ScreenVMFile id="461" start="1795" duration="141" scalar="1/1" mediaStart="2178/1" mediaDuration="141/1" trackNumber="0" src="4" >
             <Transformer>
              <VectorParam id="462"  name="translation">
               <InterpolatingParam id="463" interp="linr"  time="-9999999/1" value="0" leadInLength="0/1"  />
               <InterpolatingParam id="464" interp="linr"  time="-9999999/1" value="0" leadInLength="0/1"  />
               <InterpolatingParam id="465" interp="linr"  time="-9999999/1" value="0" leadInLength="0/1"  />
              </VectorParam>
              <VectorParam id="466"  name="rotation">
               <InterpolatingParam id="467" interp="linr"  time="-9999999/1" value="0" leadInLength="0/1"  />
               <InterpolatingParam id="468" interp="linr"  time="-9999999/1" value="0" leadInLength="0/1"  />
               <InterpolatingParam id="469" interp="linr"  time="-9999999/1" value="0" leadInLength="0/1"  />
              </VectorParam>
              <VectorParam id="470"  name="shear">
               <InterpolatingParam id="471" interp="linr"  time="-9999999/1" value="0" leadInLength="0/1"  />
               <InterpolatingParam id="472" interp="linr"  time="-9999999/1" value="0" leadInLength="0/1"  />
               <InterpolatingParam id="473" interp="linr"  time="-9999999/1" value="0" leadInLength="0/1"  />
              </VectorParam>
              <VectorParam id="474"  name="scale">
               <InterpolatingParam id="475" interp="linr"  time="-9999999/1" value="1" leadInLength="0/1"  />
               <InterpolatingParam id="476" interp="linr"  time="-9999999/1" value="1" leadInLength="0/1"  />
               <InterpolatingParam id="477" interp="linr"  time="-9999999/1" value="1" leadInLength="0/1"  />
              </VectorParam>
              <VectorParam id="478"  name="anchor">
               <InterpolatingParam id="479" interp="linr"  time="0/1" value="0" leadInLength="0/1"  />
               <InterpolatingParam id="480" interp="linr"  time="0/1" value="0" leadInLength="0/1"  />
               <InterpolatingParam id="481" interp="linr"  time="0/1" value="0" leadInLength="0/1"  />
              </VectorParam>
             </Transformer>
             <Parameters>
              <VectorParam id="482"  name="sourceCrop">
               <InterpolatingParam id="483" interp="linr"  time="0/1" value="0" leadInLength="0/1"  />
               <InterpolatingParam id="484" interp="linr"  time="0/1" value="0" leadInLength="0/1"  />
               <InterpolatingParam id="485" interp="linr"  time="0/1" value="0" leadInLength="0/1"  />
               <InterpolatingParam id="486" interp="linr"  time="0/1" value="0" leadInLength="0/1"  />
              </VectorParam>
              <VectorParam id="487"  name="geometryCrop">
               <InterpolatingParam id="488" interp="linr"  time="-9999999/1" value="0" leadInLength="0/1"  />
               <InterpolatingParam id="489" interp="linr"  time="-9999999/1" value="0" leadInLength="0/1"  />
               <InterpolatingParam id="490" interp="linr"  time="-9999999/1" value="0" leadInLength="0/1"  />
               <InterpolatingParam id="491" interp="linr"  time="-9999999/1" value="0" leadInLength="0/1"  />
              </VectorParam>
              <InterpolatingParam id="492" interp="linr"  time="-9999999/1" value="1" leadInLength="0/1"  name="opacity"/>
              <InterpolatingParam id="493" interp="linr"  time="0/1" value="0" leadInLength="0/1"  name="cursorOpacity"/>
              <InterpolatingParam id="494" interp="linr"  time="0/1" value="0" leadInLength="0/1"  name="cursorScale"/>
             </Parameters>
             <Attributes>
              <Attribute id="495" value="" name="ident"/>
             </Attributes>
             <ExtraData>
              <Entry key="ZoomPanBin">
               <ZoomPanBin id="496"  >
                <ZoomPanKeyframes>
                 <ZoomPanKeyframe id="497" timeRangeEnd="-9999999/1" timeRangeDuration="0/1" interpolaterName=""  />
                </ZoomPanKeyframes>
               </ZoomPanBin>
              </Entry>
              <Entry key="CursorEffectBin">
               <CursorEffectBin id="498"  >
                <CursorEffectKeyframes>
                </CursorEffectKeyframes>
               </CursorEffectBin>
              </Entry>
             </ExtraData>
            </ScreenVMFile>
            <MetaData>
             <entry key="AutoAppliedSmartFocus" val="False"/>
             <entry key="WinSubProjectDisplayName" val=""/>
            </MetaData>
           </UnifiedMedia>
           <UnifiedMedia id="499"  >
            <AMFile id="500" start="1936" duration="158" scalar="1/1" mediaStart="2332/1" mediaDuration="158/1" trackNumber="1" src="4" channelNumber="0,1" >
             <Parameters>
              <InterpolatingParam id="501" interp="linr"  time="0/1" value="1" leadInLength="0/1"  name="volume"/>
              <Parameter id="502"  name="captions"/>
             </Parameters>
             <Attributes>
              <Attribute id="503" value="" name="ident"/>
              <Attribute id="504" value="44100" name="sampleRate"/>
              <Attribute id="505" value="16" name="bitDepth"/>
              <Attribute id="506" value="1" name="gain"/>
              <Attribute id="507" value="0" name="mixToMono"/>
             </Attributes>
            </AMFile>
            <ScreenVMFile id="508" start="1936" duration="158" scalar="1/1" mediaStart="2332/1" mediaDuration="158/1" trackNumber="0" src="4" >
             <Transformer>
              <VectorParam id="509"  name="translation">
               <InterpolatingParam id="510" interp="linr"  time="-9999999/1" value="0" leadInLength="0/1"  />
               <InterpolatingParam id="511" interp="linr"  time="-9999999/1" value="0" leadInLength="0/1"  />
               <InterpolatingParam id="512" interp="linr"  time="-9999999/1" value="0" leadInLength="0/1"  />
              </VectorParam>
              <VectorParam id="513"  name="rotation">
               <InterpolatingParam id="514" interp="linr"  time="-9999999/1" value="0" leadInLength="0/1"  />
               <InterpolatingParam id="515" interp="linr"  time="-9999999/1" value="0" leadInLength="0/1"  />
               <InterpolatingParam id="516" interp="linr"  time="-9999999/1" value="0" leadInLength="0/1"  />
              </VectorParam>
              <VectorParam id="517"  name="shear">
               <InterpolatingParam id="518" interp="linr"  time="-9999999/1" value="0" leadInLength="0/1"  />
               <InterpolatingParam id="519" interp="linr"  time="-9999999/1" value="0" leadInLength="0/1"  />
               <InterpolatingParam id="520" interp="linr"  time="-9999999/1" value="0" leadInLength="0/1"  />
              </VectorParam>
              <VectorParam id="521"  name="scale">
               <InterpolatingParam id="522" interp="linr"  time="-9999999/1" value="1" leadInLength="0/1"  />
               <InterpolatingParam id="523" interp="linr"  time="-9999999/1" value="1" leadInLength="0/1"  />
               <InterpolatingParam id="524" interp="linr"  time="-9999999/1" value="1" leadInLength="0/1"  />
              </VectorParam>
              <VectorParam id="525"  name="anchor">
               <InterpolatingParam id="526" interp="linr"  time="0/1" value="0" leadInLength="0/1"  />
               <InterpolatingParam id="527" interp="linr"  time="0/1" value="0" leadInLength="0/1"  />
               <InterpolatingParam id="528" interp="linr"  time="0/1" value="0" leadInLength="0/1"  />
              </VectorParam>
             </Transformer>
             <Parameters>
              <VectorParam id="529"  name="sourceCrop">
               <InterpolatingParam id="530" interp="linr"  time="0/1" value="0" leadInLength="0/1"  />
               <InterpolatingParam id="531" interp="linr"  time="0/1" value="0" leadInLength="0/1"  />
               <InterpolatingParam id="532" interp="linr"  time="0/1" value="0" leadInLength="0/1"  />
               <InterpolatingParam id="533" interp="linr"  time="0/1" value="0" leadInLength="0/1"  />
              </VectorParam>
              <VectorParam id="534"  name="geometryCrop">
               <InterpolatingParam id="535" interp="linr"  time="-9999999/1" value="0" leadInLength="0/1"  />
               <InterpolatingParam id="536" interp="linr"  time="-9999999/1" value="0" leadInLength="0/1"  />
               <InterpolatingParam id="537" interp="linr"  time="-9999999/1" value="0" leadInLength="0/1"  />
               <InterpolatingParam id="538" interp="linr"  time="-9999999/1" value="0" leadInLength="0/1"  />
              </VectorParam>
              <InterpolatingParam id="539" interp="linr"  time="-9999999/1" value="1" leadInLength="0/1"  name="opacity"/>
              <InterpolatingParam id="540" interp="linr"  time="0/1" value="0" leadInLength="0/1"  name="cursorOpacity"/>
              <InterpolatingParam id="541" interp="linr"  time="0/1" value="0" leadInLength="0/1"  name="cursorScale"/>
             </Parameters>
             <Attributes>
              <Attribute id="542" value="" name="ident"/>
             </Attributes>
             <ExtraData>
              <Entry key="ZoomPanBin">
               <ZoomPanBin id="543"  >
                <ZoomPanKeyframes>
                 <ZoomPanKeyframe id="544" timeRangeEnd="-9999999/1" timeRangeDuration="0/1" interpolaterName=""  />
                </ZoomPanKeyframes>
               </ZoomPanBin>
              </Entry>
              <Entry key="CursorEffectBin">
               <CursorEffectBin id="545"  >
                <CursorEffectKeyframes>
                </CursorEffectKeyframes>
               </CursorEffectBin>
              </Entry>
             </ExtraData>
            </ScreenVMFile>
            <MetaData>
             <entry key="AutoAppliedSmartFocus" val="False"/>
             <entry key="WinSubProjectDisplayName" val=""/>
            </MetaData>
           </UnifiedMedia>
           <UnifiedMedia id="546"  >
            <AMFile id="547" start="2094" duration="81" scalar="1/1" mediaStart="2519/1" mediaDuration="81/1" trackNumber="1" src="4" channelNumber="0,1" >
             <Parameters>
              <InterpolatingParam id="548" interp="linr"  time="0/1" value="1" leadInLength="0/1"  name="volume"/>
              <Parameter id="549"  name="captions"/>
             </Parameters>
             <Attributes>
              <Attribute id="550" value="" name="ident"/>
              <Attribute id="551" value="44100" name="sampleRate"/>
              <Attribute id="552" value="16" name="bitDepth"/>
              <Attribute id="553" value="1" name="gain"/>
              <Attribute id="554" value="0" name="mixToMono"/>
             </Attributes>
            </AMFile>
            <ScreenVMFile id="555" start="2094" duration="81" scalar="1/1" mediaStart="2519/1" mediaDuration="81/1" trackNumber="0" src="4" >
             <Transformer>
              <VectorParam id="556"  name="translation">
               <InterpolatingParam id="557" interp="linr"  time="-9999999/1" value="0" leadInLength="0/1"  />
               <InterpolatingParam id="558" interp="linr"  time="-9999999/1" value="0" leadInLength="0/1"  />
               <InterpolatingParam id="559" interp="linr"  time="-9999999/1" value="0" leadInLength="0/1"  />
              </VectorParam>
              <VectorParam id="560"  name="rotation">
               <InterpolatingParam id="561" interp="linr"  time="-9999999/1" value="0" leadInLength="0/1"  />
               <InterpolatingParam id="562" interp="linr"  time="-9999999/1" value="0" leadInLength="0/1"  />
               <InterpolatingParam id="563" interp="linr"  time="-9999999/1" value="0" leadInLength="0/1"  />
              </VectorParam>
              <VectorParam id="564"  name="shear">
               <InterpolatingParam id="565" interp="linr"  time="-9999999/1" value="0" leadInLength="0/1"  />
               <InterpolatingParam id="566" interp="linr"  time="-9999999/1" value="0" leadInLength="0/1"  />
               <InterpolatingParam id="567" interp="linr"  time="-9999999/1" value="0" leadInLength="0/1"  />
              </VectorParam>
              <VectorParam id="568"  name="scale">
               <InterpolatingParam id="569" interp="linr"  time="-9999999/1" value="1" leadInLength="0/1"  />
               <InterpolatingParam id="570" interp="linr"  time="-9999999/1" value="1" leadInLength="0/1"  />
               <InterpolatingParam id="571" interp="linr"  time="-9999999/1" value="1" leadInLength="0/1"  />
              </VectorParam>
              <VectorParam id="572"  name="anchor">
               <InterpolatingParam id="573" interp="linr"  time="0/1" value="0" leadInLength="0/1"  />
               <InterpolatingParam id="574" interp="linr"  time="0/1" value="0" leadInLength="0/1"  />
               <InterpolatingParam id="575" interp="linr"  time="0/1" value="0" leadInLength="0/1"  />
              </VectorParam>
             </Transformer>
             <Parameters>
              <VectorParam id="576"  name="sourceCrop">
               <InterpolatingParam id="577" interp="linr"  time="0/1" value="0" leadInLength="0/1"  />
               <InterpolatingParam id="578" interp="linr"  time="0/1" value="0" leadInLength="0/1"  />
               <InterpolatingParam id="579" interp="linr"  time="0/1" value="0" leadInLength="0/1"  />
               <InterpolatingParam id="580" interp="linr"  time="0/1" value="0" leadInLength="0/1"  />
              </VectorParam>
              <VectorParam id="581"  name="geometryCrop">
               <InterpolatingParam id="582" interp="linr"  time="-9999999/1" value="0" leadInLength="0/1"  />
               <InterpolatingParam id="583" interp="linr"  time="-9999999/1" value="0" leadInLength="0/1"  />
               <InterpolatingParam id="584" interp="linr"  time="-9999999/1" value="0" leadInLength="0/1"  />
               <InterpolatingParam id="585" interp="linr"  time="-9999999/1" value="0" leadInLength="0/1"  />
              </VectorParam>
              <InterpolatingParam id="586" interp="linr"  time="-9999999/1" value="1" leadInLength="0/1"  name="opacity"/>
              <InterpolatingParam id="587" interp="linr"  time="0/1" value="0" leadInLength="0/1"  name="cursorOpacity"/>
              <InterpolatingParam id="588" interp="linr"  time="0/1" value="0" leadInLength="0/1"  name="cursorScale"/>
             </Parameters>
             <Attributes>
              <Attribute id="589" value="" name="ident"/>
             </Attributes>
             <ExtraData>
              <Entry key="ZoomPanBin">
               <ZoomPanBin id="590"  >
                <ZoomPanKeyframes>
                 <ZoomPanKeyframe id="591" timeRangeEnd="-9999999/1" timeRangeDuration="0/1" interpolaterName=""  />
                </ZoomPanKeyframes>
               </ZoomPanBin>
              </Entry>
              <Entry key="CursorEffectBin">
               <CursorEffectBin id="592"  >
                <CursorEffectKeyframes>
                </CursorEffectKeyframes>
               </CursorEffectBin>
              </Entry>
             </ExtraData>
            </ScreenVMFile>
            <MetaData>
             <entry key="AutoAppliedSmartFocus" val="False"/>
             <entry key="WinSubProjectDisplayName" val=""/>
            </MetaData>
           </UnifiedMedia>
           <UnifiedMedia id="593"  >
            <AMFile id="594" start="2175" duration="94" scalar="1/1" mediaStart="2613/1" mediaDuration="94/1" trackNumber="1" src="4" channelNumber="0,1" >
             <Parameters>
              <InterpolatingParam id="595" interp="linr"  time="0/1" value="1" leadInLength="0/1"  name="volume"/>
              <Parameter id="596"  name="captions"/>
             </Parameters>
             <Attributes>
              <Attribute id="597" value="" name="ident"/>
              <Attribute id="598" value="44100" name="sampleRate"/>
              <Attribute id="599" value="16" name="bitDepth"/>
              <Attribute id="600" value="1" name="gain"/>
              <Attribute id="601" value="0" name="mixToMono"/>
             </Attributes>
            </AMFile>
            <ScreenVMFile id="602" start="2175" duration="94" scalar="1/1" mediaStart="2613/1" mediaDuration="94/1" trackNumber="0" src="4" >
             <Transformer>
              <VectorParam id="603"  name="translation">
               <InterpolatingParam id="604" interp="linr"  time="-9999999/1" value="0" leadInLength="0/1"  />
               <InterpolatingParam id="605" interp="linr"  time="-9999999/1" value="0" leadInLength="0/1"  />
               <InterpolatingParam id="606" interp="linr"  time="-9999999/1" value="0" leadInLength="0/1"  />
              </VectorParam>
              <VectorParam id="607"  name="rotation">
               <InterpolatingParam id="608" interp="linr"  time="-9999999/1" value="0" leadInLength="0/1"  />
               <InterpolatingParam id="609" interp="linr"  time="-9999999/1" value="0" leadInLength="0/1"  />
               <InterpolatingParam id="610" interp="linr"  time="-9999999/1" value="0" leadInLength="0/1"  />
              </VectorParam>
              <VectorParam id="611"  name="shear">
               <InterpolatingParam id="612" interp="linr"  time="-9999999/1" value="0" leadInLength="0/1"  />
               <InterpolatingParam id="613" interp="linr"  time="-9999999/1" value="0" leadInLength="0/1"  />
               <InterpolatingParam id="614" interp="linr"  time="-9999999/1" value="0" leadInLength="0/1"  />
              </VectorParam>
              <VectorParam id="615"  name="scale">
               <InterpolatingParam id="616" interp="linr"  time="-9999999/1" value="1" leadInLength="0/1"  />
               <InterpolatingParam id="617" interp="linr"  time="-9999999/1" value="1" leadInLength="0/1"  />
               <InterpolatingParam id="618" interp="linr"  time="-9999999/1" value="1" leadInLength="0/1"  />
              </VectorParam>
              <VectorParam id="619"  name="anchor">
               <InterpolatingParam id="620" interp="linr"  time="0/1" value="0" leadInLength="0/1"  />
               <InterpolatingParam id="621" interp="linr"  time="0/1" value="0" leadInLength="0/1"  />
               <InterpolatingParam id="622" interp="linr"  time="0/1" value="0" leadInLength="0/1"  />
              </VectorParam>
             </Transformer>
             <Parameters>
              <VectorParam id="623"  name="sourceCrop">
               <InterpolatingParam id="624" interp="linr"  time="0/1" value="0" leadInLength="0/1"  />
               <InterpolatingParam id="625" interp="linr"  time="0/1" value="0" leadInLength="0/1"  />
               <InterpolatingParam id="626" interp="linr"  time="0/1" value="0" leadInLength="0/1"  />
               <InterpolatingParam id="627" interp="linr"  time="0/1" value="0" leadInLength="0/1"  />
              </VectorParam>
              <VectorParam id="628"  name="geometryCrop">
               <InterpolatingParam id="629" interp="linr"  time="-9999999/1" value="0" leadInLength="0/1"  />
               <InterpolatingParam id="630" interp="linr"  time="-9999999/1" value="0" leadInLength="0/1"  />
               <InterpolatingParam id="631" interp="linr"  time="-9999999/1" value="0" leadInLength="0/1"  />
               <InterpolatingParam id="632" interp="linr"  time="-9999999/1" value="0" leadInLength="0/1"  />
              </VectorParam>
              <InterpolatingParam id="633" interp="linr"  time="-9999999/1" value="1" leadInLength="0/1"  name="opacity"/>
              <InterpolatingParam id="634" interp="linr"  time="0/1" value="0" leadInLength="0/1"  name="cursorOpacity"/>
              <InterpolatingParam id="635" interp="linr"  time="0/1" value="0" leadInLength="0/1"  name="cursorScale"/>
             </Parameters>
             <Attributes>
              <Attribute id="636" value="" name="ident"/>
             </Attributes>
             <ExtraData>
              <Entry key="ZoomPanBin">
               <ZoomPanBin id="637"  >
                <ZoomPanKeyframes>
                 <ZoomPanKeyframe id="638" timeRangeEnd="-9999999/1" timeRangeDuration="0/1" interpolaterName=""  />
                </ZoomPanKeyframes>
               </ZoomPanBin>
              </Entry>
              <Entry key="CursorEffectBin">
               <CursorEffectBin id="639"  >
                <CursorEffectKeyframes>
                </CursorEffectKeyframes>
               </CursorEffectBin>
              </Entry>
             </ExtraData>
            </ScreenVMFile>
            <MetaData>
             <entry key="AutoAppliedSmartFocus" val="False"/>
             <entry key="WinSubProjectDisplayName" val=""/>
            </MetaData>
           </UnifiedMedia>
           <UnifiedMedia id="640"  >
            <AMFile id="641" start="2269" duration="180" scalar="1/1" mediaStart="2976/1" mediaDuration="180/1" trackNumber="1" src="4" channelNumber="0,1" >
             <Parameters>
              <InterpolatingParam id="642" interp="linr"  time="0/1" value="1" leadInLength="0/1"  name="volume"/>
              <Parameter id="643"  name="captions"/>
             </Parameters>
             <Attributes>
              <Attribute id="644" value="" name="ident"/>
              <Attribute id="645" value="44100" name="sampleRate"/>
              <Attribute id="646" value="16" name="bitDepth"/>
              <Attribute id="647" value="1" name="gain"/>
              <Attribute id="648" value="0" name="mixToMono"/>
             </Attributes>
            </AMFile>
            <ScreenVMFile id="649" start="2269" duration="180" scalar="1/1" mediaStart="2976/1" mediaDuration="180/1" trackNumber="0" src="4" >
             <Transformer>
              <VectorParam id="650"  name="translation">
               <InterpolatingParam id="651" interp="linr"  time="-9999999/1" value="0" leadInLength="0/1"  />
               <InterpolatingParam id="652" interp="linr"  time="-9999999/1" value="0" leadInLength="0/1"  />
               <InterpolatingParam id="653" interp="linr"  time="-9999999/1" value="0" leadInLength="0/1"  />
              </VectorParam>
              <VectorParam id="654"  name="rotation">
               <InterpolatingParam id="655" interp="linr"  time="-9999999/1" value="0" leadInLength="0/1"  />
               <InterpolatingParam id="656" interp="linr"  time="-9999999/1" value="0" leadInLength="0/1"  />
               <InterpolatingParam id="657" interp="linr"  time="-9999999/1" value="0" leadInLength="0/1"  />
              </VectorParam>
              <VectorParam id="658"  name="shear">
               <InterpolatingParam id="659" interp="linr"  time="-9999999/1" value="0" leadInLength="0/1"  />
               <InterpolatingParam id="660" interp="linr"  time="-9999999/1" value="0" leadInLength="0/1"  />
               <InterpolatingParam id="661" interp="linr"  time="-9999999/1" value="0" leadInLength="0/1"  />
              </VectorParam>
              <VectorParam id="662"  name="scale">
               <InterpolatingParam id="663" interp="linr"  time="-9999999/1" value="1" leadInLength="0/1"  />
               <InterpolatingParam id="664" interp="linr"  time="-9999999/1" value="1" leadInLength="0/1"  />
               <InterpolatingParam id="665" interp="linr"  time="-9999999/1" value="1" leadInLength="0/1"  />
              </VectorParam>
              <VectorParam id="666"  name="anchor">
               <InterpolatingParam id="667" interp="linr"  time="0/1" value="0" leadInLength="0/1"  />
               <InterpolatingParam id="668" interp="linr"  time="0/1" value="0" leadInLength="0/1"  />
               <InterpolatingParam id="669" interp="linr"  time="0/1" value="0" leadInLength="0/1"  />
              </VectorParam>
             </Transformer>
             <Parameters>
              <VectorParam id="670"  name="sourceCrop">
               <InterpolatingParam id="671" interp="linr"  time="0/1" value="0" leadInLength="0/1"  />
               <InterpolatingParam id="672" interp="linr"  time="0/1" value="0" leadInLength="0/1"  />
               <InterpolatingParam id="673" interp="linr"  time="0/1" value="0" leadInLength="0/1"  />
               <InterpolatingParam id="674" interp="linr"  time="0/1" value="0" leadInLength="0/1"  />
              </VectorParam>
              <VectorParam id="675"  name="geometryCrop">
               <InterpolatingParam id="676" interp="linr"  time="-9999999/1" value="0" leadInLength="0/1"  />
               <InterpolatingParam id="677" interp="linr"  time="-9999999/1" value="0" leadInLength="0/1"  />
               <InterpolatingParam id="678" interp="linr"  time="-9999999/1" value="0" leadInLength="0/1"  />
               <InterpolatingParam id="679" interp="linr"  time="-9999999/1" value="0" leadInLength="0/1"  />
              </VectorParam>
              <InterpolatingParam id="680" interp="linr"  time="-9999999/1" value="1" leadInLength="0/1"  name="opacity"/>
              <InterpolatingParam id="681" interp="linr"  time="0/1" value="0" leadInLength="0/1"  name="cursorOpacity"/>
              <InterpolatingParam id="682" interp="linr"  time="0/1" value="0" leadInLength="0/1"  name="cursorScale"/>
             </Parameters>
             <Attributes>
              <Attribute id="683" value="" name="ident"/>
             </Attributes>
             <ExtraData>
              <Entry key="ZoomPanBin">
               <ZoomPanBin id="684"  >
                <ZoomPanKeyframes>
                 <ZoomPanKeyframe id="685" timeRangeEnd="-9999999/1" timeRangeDuration="0/1" interpolaterName=""  />
                </ZoomPanKeyframes>
               </ZoomPanBin>
              </Entry>
              <Entry key="CursorEffectBin">
               <CursorEffectBin id="686"  >
                <CursorEffectKeyframes>
                </CursorEffectKeyframes>
               </CursorEffectBin>
              </Entry>
             </ExtraData>
            </ScreenVMFile>
            <MetaData>
             <entry key="AutoAppliedSmartFocus" val="False"/>
             <entry key="WinSubProjectDisplayName" val=""/>
            </MetaData>
           </UnifiedMedia>
           <UnifiedMedia id="687"  >
            <AMFile id="688" start="2449" duration="39" scalar="1/1" mediaStart="3255/1" mediaDuration="39/1" trackNumber="1" src="4" channelNumber="0,1" >
             <Parameters>
              <InterpolatingParam id="689" interp="linr"  time="0/1" value="1" leadInLength="0/1"  name="volume"/>
              <Parameter id="690"  name="captions"/>
             </Parameters>
             <Attributes>
              <Attribute id="691" value="" name="ident"/>
              <Attribute id="692" value="44100" name="sampleRate"/>
              <Attribute id="693" value="16" name="bitDepth"/>
              <Attribute id="694" value="1" name="gain"/>
              <Attribute id="695" value="0" name="mixToMono"/>
             </Attributes>
            </AMFile>
            <ScreenVMFile id="696" start="2449" duration="39" scalar="1/1" mediaStart="3255/1" mediaDuration="39/1" trackNumber="0" src="4" >
             <Transformer>
              <VectorParam id="697"  name="translation">
               <InterpolatingParam id="698" interp="linr"  time="-9999999/1" value="0" leadInLength="0/1"  />
               <InterpolatingParam id="699" interp="linr"  time="-9999999/1" value="0" leadInLength="0/1"  />
               <InterpolatingParam id="700" interp="linr"  time="-9999999/1" value="0" leadInLength="0/1"  />
              </VectorParam>
              <VectorParam id="701"  name="rotation">
               <InterpolatingParam id="702" interp="linr"  time="-9999999/1" value="0" leadInLength="0/1"  />
               <InterpolatingParam id="703" interp="linr"  time="-9999999/1" value="0" leadInLength="0/1"  />
               <InterpolatingParam id="704" interp="linr"  time="-9999999/1" value="0" leadInLength="0/1"  />
              </VectorParam>
              <VectorParam id="705"  name="shear">
               <InterpolatingParam id="706" interp="linr"  time="-9999999/1" value="0" leadInLength="0/1"  />
               <InterpolatingParam id="707" interp="linr"  time="-9999999/1" value="0" leadInLength="0/1"  />
               <InterpolatingParam id="708" interp="linr"  time="-9999999/1" value="0" leadInLength="0/1"  />
              </VectorParam>
              <VectorParam id="709"  name="scale">
               <InterpolatingParam id="710" interp="linr"  time="-9999999/1" value="1" leadInLength="0/1"  />
               <InterpolatingParam id="711" interp="linr"  time="-9999999/1" value="1" leadInLength="0/1"  />
               <InterpolatingParam id="712" interp="linr"  time="-9999999/1" value="1" leadInLength="0/1"  />
              </VectorParam>
              <VectorParam id="713"  name="anchor">
               <InterpolatingParam id="714" interp="linr"  time="0/1" value="0" leadInLength="0/1"  />
               <InterpolatingParam id="715" interp="linr"  time="0/1" value="0" leadInLength="0/1"  />
               <InterpolatingParam id="716" interp="linr"  time="0/1" value="0" leadInLength="0/1"  />
              </VectorParam>
             </Transformer>
             <Parameters>
              <VectorParam id="717"  name="sourceCrop">
               <InterpolatingParam id="718" interp="linr"  time="0/1" value="0" leadInLength="0/1"  />
               <InterpolatingParam id="719" interp="linr"  time="0/1" value="0" leadInLength="0/1"  />
               <InterpolatingParam id="720" interp="linr"  time="0/1" value="0" leadInLength="0/1"  />
               <InterpolatingParam id="721" interp="linr"  time="0/1" value="0" leadInLength="0/1"  />
              </VectorParam>
              <VectorParam id="722"  name="geometryCrop">
               <InterpolatingParam id="723" interp="linr"  time="-9999999/1" value="0" leadInLength="0/1"  />
               <InterpolatingParam id="724" interp="linr"  time="-9999999/1" value="0" leadInLength="0/1"  />
               <InterpolatingParam id="725" interp="linr"  time="-9999999/1" value="0" leadInLength="0/1"  />
               <InterpolatingParam id="726" interp="linr"  time="-9999999/1" value="0" leadInLength="0/1"  />
              </VectorParam>
              <InterpolatingParam id="727" interp="linr"  time="-9999999/1" value="1" leadInLength="0/1"  name="opacity"/>
              <InterpolatingParam id="728" interp="linr"  time="0/1" value="0" leadInLength="0/1"  name="cursorOpacity"/>
              <InterpolatingParam id="729" interp="linr"  time="0/1" value="0" leadInLength="0/1"  name="cursorScale"/>
             </Parameters>
             <Attributes>
              <Attribute id="730" value="" name="ident"/>
             </Attributes>
             <ExtraData>
              <Entry key="ZoomPanBin">
               <ZoomPanBin id="731"  >
                <ZoomPanKeyframes>
                 <ZoomPanKeyframe id="732" timeRangeEnd="-9999999/1" timeRangeDuration="0/1" interpolaterName=""  />
                </ZoomPanKeyframes>
               </ZoomPanBin>
              </Entry>
              <Entry key="CursorEffectBin">
               <CursorEffectBin id="733"  >
                <CursorEffectKeyframes>
                </CursorEffectKeyframes>
               </CursorEffectBin>
              </Entry>
             </ExtraData>
            </ScreenVMFile>
            <MetaData>
             <entry key="AutoAppliedSmartFocus" val="False"/>
             <entry key="WinSubProjectDisplayName" val=""/>
            </MetaData>
           </UnifiedMedia>
           <UnifiedMedia id="734"  >
            <AMFile id="735" start="2488" duration="62" scalar="1/1" mediaStart="3412/1" mediaDuration="62/1" trackNumber="1" src="4" channelNumber="0,1" >
             <Parameters>
              <InterpolatingParam id="736" interp="linr"  time="0/1" value="1" leadInLength="0/1"  name="volume"/>
              <Parameter id="737"  name="captions"/>
             </Parameters>
             <Attributes>
              <Attribute id="738" value="" name="ident"/>
              <Attribute id="739" value="44100" name="sampleRate"/>
              <Attribute id="740" value="16" name="bitDepth"/>
              <Attribute id="741" value="1" name="gain"/>
              <Attribute id="742" value="0" name="mixToMono"/>
             </Attributes>
            </AMFile>
            <ScreenVMFile id="743" start="2488" duration="62" scalar="1/1" mediaStart="3412/1" mediaDuration="62/1" trackNumber="0" src="4" >
             <Transformer>
              <VectorParam id="744"  name="translation">
               <InterpolatingParam id="745" interp="linr"  time="-9999999/1" value="0" leadInLength="0/1"  />
               <InterpolatingParam id="746" interp="linr"  time="-9999999/1" value="0" leadInLength="0/1"  />
               <InterpolatingParam id="747" interp="linr"  time="-9999999/1" value="0" leadInLength="0/1"  />
              </VectorParam>
              <VectorParam id="748"  name="rotation">
               <InterpolatingParam id="749" interp="linr"  time="-9999999/1" value="0" leadInLength="0/1"  />
               <InterpolatingParam id="750" interp="linr"  time="-9999999/1" value="0" leadInLength="0/1"  />
               <InterpolatingParam id="751" interp="linr"  time="-9999999/1" value="0" leadInLength="0/1"  />
              </VectorParam>
              <VectorParam id="752"  name="shear">
               <InterpolatingParam id="753" interp="linr"  time="-9999999/1" value="0" leadInLength="0/1"  />
               <InterpolatingParam id="754" interp="linr"  time="-9999999/1" value="0" leadInLength="0/1"  />
               <InterpolatingParam id="755" interp="linr"  time="-9999999/1" value="0" leadInLength="0/1"  />
              </VectorParam>
              <VectorParam id="756"  name="scale">
               <InterpolatingParam id="757" interp="linr"  time="-9999999/1" value="1" leadInLength="0/1"  />
               <InterpolatingParam id="758" interp="linr"  time="-9999999/1" value="1" leadInLength="0/1"  />
               <InterpolatingParam id="759" interp="linr"  time="-9999999/1" value="1" leadInLength="0/1"  />
              </VectorParam>
              <VectorParam id="760"  name="anchor">
               <InterpolatingParam id="761" interp="linr"  time="0/1" value="0" leadInLength="0/1"  />
               <InterpolatingParam id="762" interp="linr"  time="0/1" value="0" leadInLength="0/1"  />
               <InterpolatingParam id="763" interp="linr"  time="0/1" value="0" leadInLength="0/1"  />
              </VectorParam>
             </Transformer>
             <Parameters>
              <VectorParam id="764"  name="sourceCrop">
               <InterpolatingParam id="765" interp="linr"  time="0/1" value="0" leadInLength="0/1"  />
               <InterpolatingParam id="766" interp="linr"  time="0/1" value="0" leadInLength="0/1"  />
               <InterpolatingParam id="767" interp="linr"  time="0/1" value="0" leadInLength="0/1"  />
               <InterpolatingParam id="768" interp="linr"  time="0/1" value="0" leadInLength="0/1"  />
              </VectorParam>
              <VectorParam id="769"  name="geometryCrop">
               <InterpolatingParam id="770" interp="linr"  time="-9999999/1" value="0" leadInLength="0/1"  />
               <InterpolatingParam id="771" interp="linr"  time="-9999999/1" value="0" leadInLength="0/1"  />
               <InterpolatingParam id="772" interp="linr"  time="-9999999/1" value="0" leadInLength="0/1"  />
               <InterpolatingParam id="773" interp="linr"  time="-9999999/1" value="0" leadInLength="0/1"  />
              </VectorParam>
              <InterpolatingParam id="774" interp="linr"  time="-9999999/1" value="1" leadInLength="0/1"  name="opacity"/>
              <InterpolatingParam id="775" interp="linr"  time="0/1" value="0" leadInLength="0/1"  name="cursorOpacity"/>
              <InterpolatingParam id="776" interp="linr"  time="0/1" value="0" leadInLength="0/1"  name="cursorScale"/>
             </Parameters>
             <Attributes>
              <Attribute id="777" value="" name="ident"/>
             </Attributes>
             <ExtraData>
              <Entry key="ZoomPanBin">
               <ZoomPanBin id="778"  >
                <ZoomPanKeyframes>
                 <ZoomPanKeyframe id="779" timeRangeEnd="-9999999/1" timeRangeDuration="0/1" interpolaterName=""  />
                </ZoomPanKeyframes>
               </ZoomPanBin>
              </Entry>
              <Entry key="CursorEffectBin">
               <CursorEffectBin id="780"  >
                <CursorEffectKeyframes>
                </CursorEffectKeyframes>
               </CursorEffectBin>
              </Entry>
             </ExtraData>
            </ScreenVMFile>
            <MetaData>
             <entry key="AutoAppliedSmartFocus" val="False"/>
             <entry key="WinSubProjectDisplayName" val=""/>
            </MetaData>
           </UnifiedMedia>
           <UnifiedMedia id="781"  >
            <AMFile id="782" start="2550" duration="95" scalar="1/1" mediaStart="3483/1" mediaDuration="95/1" trackNumber="1" src="4" channelNumber="0,1" >
             <Parameters>
              <InterpolatingParam id="783" interp="linr"  time="0/1" value="1" leadInLength="0/1"  name="volume"/>
              <Parameter id="784"  name="captions"/>
             </Parameters>
             <Attributes>
              <Attribute id="785" value="" name="ident"/>
              <Attribute id="786" value="44100" name="sampleRate"/>
              <Attribute id="787" value="16" name="bitDepth"/>
              <Attribute id="788" value="1" name="gain"/>
              <Attribute id="789" value="0" name="mixToMono"/>
             </Attributes>
            </AMFile>
            <ScreenVMFile id="790" start="2550" duration="95" scalar="1/1" mediaStart="3483/1" mediaDuration="95/1" trackNumber="0" src="4" >
             <Transformer>
              <VectorParam id="791"  name="translation">
               <InterpolatingParam id="792" interp="linr"  time="-9999999/1" value="0" leadInLength="0/1"  />
               <InterpolatingParam id="793" interp="linr"  time="-9999999/1" value="0" leadInLength="0/1"  />
               <InterpolatingParam id="794" interp="linr"  time="-9999999/1" value="0" leadInLength="0/1"  />
              </VectorParam>
              <VectorParam id="795"  name="rotation">
               <InterpolatingParam id="796" interp="linr"  time="-9999999/1" value="0" leadInLength="0/1"  />
               <InterpolatingParam id="797" interp="linr"  time="-9999999/1" value="0" leadInLength="0/1"  />
               <InterpolatingParam id="798" interp="linr"  time="-9999999/1" value="0" leadInLength="0/1"  />
              </VectorParam>
              <VectorParam id="799"  name="shear">
               <InterpolatingParam id="800" interp="linr"  time="-9999999/1" value="0" leadInLength="0/1"  />
               <InterpolatingParam id="801" interp="linr"  time="-9999999/1" value="0" leadInLength="0/1"  />
               <InterpolatingParam id="802" interp="linr"  time="-9999999/1" value="0" leadInLength="0/1"  />
              </VectorParam>
              <VectorParam id="803"  name="scale">
               <InterpolatingParam id="804" interp="linr"  time="-9999999/1" value="1" leadInLength="0/1"  />
               <InterpolatingParam id="805" interp="linr"  time="-9999999/1" value="1" leadInLength="0/1"  />
               <InterpolatingParam id="806" interp="linr"  time="-9999999/1" value="1" leadInLength="0/1"  />
              </VectorParam>
              <VectorParam id="807"  name="anchor">
               <InterpolatingParam id="808" interp="linr"  time="0/1" value="0" leadInLength="0/1"  />
               <InterpolatingParam id="809" interp="linr"  time="0/1" value="0" leadInLength="0/1"  />
               <InterpolatingParam id="810" interp="linr"  time="0/1" value="0" leadInLength="0/1"  />
              </VectorParam>
             </Transformer>
             <Parameters>
              <VectorParam id="811"  name="sourceCrop">
               <InterpolatingParam id="812" interp="linr"  time="0/1" value="0" leadInLength="0/1"  />
               <InterpolatingParam id="813" interp="linr"  time="0/1" value="0" leadInLength="0/1"  />
               <InterpolatingParam id="814" interp="linr"  time="0/1" value="0" leadInLength="0/1"  />
               <InterpolatingParam id="815" interp="linr"  time="0/1" value="0" leadInLength="0/1"  />
              </VectorParam>
              <VectorParam id="816"  name="geometryCrop">
               <InterpolatingParam id="817" interp="linr"  time="-9999999/1" value="0" leadInLength="0/1"  />
               <InterpolatingParam id="818" interp="linr"  time="-9999999/1" value="0" leadInLength="0/1"  />
               <InterpolatingParam id="819" interp="linr"  time="-9999999/1" value="0" leadInLength="0/1"  />
               <InterpolatingParam id="820" interp="linr"  time="-9999999/1" value="0" leadInLength="0/1"  />
              </VectorParam>
              <InterpolatingParam id="821" interp="linr"  time="-9999999/1" value="1" leadInLength="0/1"  name="opacity"/>
              <InterpolatingParam id="822" interp="linr"  time="0/1" value="0" leadInLength="0/1"  name="cursorOpacity"/>
              <InterpolatingParam id="823" interp="linr"  time="0/1" value="0" leadInLength="0/1"  name="cursorScale"/>
             </Parameters>
             <Attributes>
              <Attribute id="824" value="" name="ident"/>
             </Attributes>
             <ExtraData>
              <Entry key="ZoomPanBin">
               <ZoomPanBin id="825"  >
                <ZoomPanKeyframes>
                 <ZoomPanKeyframe id="826" timeRangeEnd="-9999999/1" timeRangeDuration="0/1" interpolaterName=""  />
                </ZoomPanKeyframes>
               </ZoomPanBin>
              </Entry>
              <Entry key="CursorEffectBin">
               <CursorEffectBin id="827"  >
                <CursorEffectKeyframes>
                </CursorEffectKeyframes>
               </CursorEffectBin>
              </Entry>
             </ExtraData>
            </ScreenVMFile>
            <MetaData>
             <entry key="AutoAppliedSmartFocus" val="False"/>
             <entry key="WinSubProjectDisplayName" val=""/>
            </MetaData>
           </UnifiedMedia>
           <UnifiedMedia id="828"  >
            <AMFile id="829" start="2645" duration="48" scalar="1/1" mediaStart="3584/1" mediaDuration="48/1" trackNumber="1" src="4" channelNumber="0,1" >
             <Parameters>
              <InterpolatingParam id="830" interp="linr"  time="0/1" value="1" leadInLength="0/1"  name="volume"/>
              <Parameter id="831"  name="captions"/>
             </Parameters>
             <Attributes>
              <Attribute id="832" value="" name="ident"/>
              <Attribute id="833" value="44100" name="sampleRate"/>
              <Attribute id="834" value="16" name="bitDepth"/>
              <Attribute id="835" value="1" name="gain"/>
              <Attribute id="836" value="0" name="mixToMono"/>
             </Attributes>
            </AMFile>
            <ScreenVMFile id="837" start="2645" duration="48" scalar="1/1" mediaStart="3584/1" mediaDuration="48/1" trackNumber="0" src="4" >
             <Transformer>
              <VectorParam id="838"  name="translation">
               <InterpolatingParam id="839" interp="linr"  time="-9999999/1" value="0" leadInLength="0/1"  />
               <InterpolatingParam id="840" interp="linr"  time="-9999999/1" value="0" leadInLength="0/1"  />
               <InterpolatingParam id="841" interp="linr"  time="-9999999/1" value="0" leadInLength="0/1"  />
              </VectorParam>
              <VectorParam id="842"  name="rotation">
               <InterpolatingParam id="843" interp="linr"  time="-9999999/1" value="0" leadInLength="0/1"  />
               <InterpolatingParam id="844" interp="linr"  time="-9999999/1" value="0" leadInLength="0/1"  />
               <InterpolatingParam id="845" interp="linr"  time="-9999999/1" value="0" leadInLength="0/1"  />
              </VectorParam>
              <VectorParam id="846"  name="shear">
               <InterpolatingParam id="847" interp="linr"  time="-9999999/1" value="0" leadInLength="0/1"  />
               <InterpolatingParam id="848" interp="linr"  time="-9999999/1" value="0" leadInLength="0/1"  />
               <InterpolatingParam id="849" interp="linr"  time="-9999999/1" value="0" leadInLength="0/1"  />
              </VectorParam>
              <VectorParam id="850"  name="scale">
               <InterpolatingParam id="851" interp="linr"  time="-9999999/1" value="1" leadInLength="0/1"  />
               <InterpolatingParam id="852" interp="linr"  time="-9999999/1" value="1" leadInLength="0/1"  />
               <InterpolatingParam id="853" interp="linr"  time="-9999999/1" value="1" leadInLength="0/1"  />
              </VectorParam>
              <VectorParam id="854"  name="anchor">
               <InterpolatingParam id="855" interp="linr"  time="0/1" value="0" leadInLength="0/1"  />
               <InterpolatingParam id="856" interp="linr"  time="0/1" value="0" leadInLength="0/1"  />
               <InterpolatingParam id="857" interp="linr"  time="0/1" value="0" leadInLength="0/1"  />
              </VectorParam>
             </Transformer>
             <Parameters>
              <VectorParam id="858"  name="sourceCrop">
               <InterpolatingParam id="859" interp="linr"  time="0/1" value="0" leadInLength="0/1"  />
               <InterpolatingParam id="860" interp="linr"  time="0/1" value="0" leadInLength="0/1"  />
               <InterpolatingParam id="861" interp="linr"  time="0/1" value="0" leadInLength="0/1"  />
               <InterpolatingParam id="862" interp="linr"  time="0/1" value="0" leadInLength="0/1"  />
              </VectorParam>
              <VectorParam id="863"  name="geometryCrop">
               <InterpolatingParam id="864" interp="linr"  time="-9999999/1" value="0" leadInLength="0/1"  />
               <InterpolatingParam id="865" interp="linr"  time="-9999999/1" value="0" leadInLength="0/1"  />
               <InterpolatingParam id="866" interp="linr"  time="-9999999/1" value="0" leadInLength="0/1"  />
               <InterpolatingParam id="867" interp="linr"  time="-9999999/1" value="0" leadInLength="0/1"  />
              </VectorParam>
              <InterpolatingParam id="868" interp="linr"  time="-9999999/1" value="1" leadInLength="0/1"  name="opacity"/>
              <InterpolatingParam id="869" interp="linr"  time="0/1" value="0" leadInLength="0/1"  name="cursorOpacity"/>
              <InterpolatingParam id="870" interp="linr"  time="0/1" value="0" leadInLength="0/1"  name="cursorScale"/>
             </Parameters>
             <Attributes>
              <Attribute id="871" value="" name="ident"/>
             </Attributes>
             <ExtraData>
              <Entry key="ZoomPanBin">
               <ZoomPanBin id="872"  >
                <ZoomPanKeyframes>
                 <ZoomPanKeyframe id="873" timeRangeEnd="-9999999/1" timeRangeDuration="0/1" interpolaterName=""  />
                </ZoomPanKeyframes>
               </ZoomPanBin>
              </Entry>
              <Entry key="CursorEffectBin">
               <CursorEffectBin id="874"  >
                <CursorEffectKeyframes>
                </CursorEffectKeyframes>
               </CursorEffectBin>
              </Entry>
             </ExtraData>
            </ScreenVMFile>
            <MetaData>
             <entry key="AutoAppliedSmartFocus" val="False"/>
             <entry key="WinSubProjectDisplayName" val=""/>
            </MetaData>
           </UnifiedMedia>
           <UnifiedMedia id="875"  >
            <AMFile id="876" start="2693" duration="830" scalar="1/1" mediaStart="3642/1" mediaDuration="830/1" trackNumber="1" src="4" channelNumber="0,1" >
             <Parameters>
              <InterpolatingParam id="877" interp="linr"  time="0/1" value="1" leadInLength="0/1"  name="volume"/>
              <Parameter id="878"  name="captions"/>
             </Parameters>
             <Attributes>
              <Attribute id="879" value="" name="ident"/>
              <Attribute id="880" value="44100" name="sampleRate"/>
              <Attribute id="881" value="16" name="bitDepth"/>
              <Attribute id="882" value="1" name="gain"/>
              <Attribute id="883" value="0" name="mixToMono"/>
             </Attributes>
            </AMFile>
            <ScreenVMFile id="884" start="2693" duration="830" scalar="1/1" mediaStart="3642/1" mediaDuration="830/1" trackNumber="0" src="4" >
             <Transformer>
              <VectorParam id="885"  name="translation">
               <InterpolatingParam id="886" interp="linr"  time="-9999999/1" value="0" leadInLength="0/1"  />
               <InterpolatingParam id="887" interp="linr"  time="-9999999/1" value="0" leadInLength="0/1"  />
               <InterpolatingParam id="888" interp="linr"  time="-9999999/1" value="0" leadInLength="0/1"  />
              </VectorParam>
              <VectorParam id="889"  name="rotation">
               <InterpolatingParam id="890" interp="linr"  time="-9999999/1" value="0" leadInLength="0/1"  />
               <InterpolatingParam id="891" interp="linr"  time="-9999999/1" value="0" leadInLength="0/1"  />
               <InterpolatingParam id="892" interp="linr"  time="-9999999/1" value="0" leadInLength="0/1"  />
              </VectorParam>
              <VectorParam id="893"  name="shear">
               <InterpolatingParam id="894" interp="linr"  time="-9999999/1" value="0" leadInLength="0/1"  />
               <InterpolatingParam id="895" interp="linr"  time="-9999999/1" value="0" leadInLength="0/1"  />
               <InterpolatingParam id="896" interp="linr"  time="-9999999/1" value="0" leadInLength="0/1"  />
              </VectorParam>
              <VectorParam id="897"  name="scale">
               <InterpolatingParam id="898" interp="linr"  time="-9999999/1" value="1" leadInLength="0/1"  />
               <InterpolatingParam id="899" interp="linr"  time="-9999999/1" value="1" leadInLength="0/1"  />
               <InterpolatingParam id="900" interp="linr"  time="-9999999/1" value="1" leadInLength="0/1"  />
              </VectorParam>
              <VectorParam id="901"  name="anchor">
               <InterpolatingParam id="902" interp="linr"  time="0/1" value="0" leadInLength="0/1"  />
               <InterpolatingParam id="903" interp="linr"  time="0/1" value="0" leadInLength="0/1"  />
               <InterpolatingParam id="904" interp="linr"  time="0/1" value="0" leadInLength="0/1"  />
              </VectorParam>
             </Transformer>
             <Parameters>
              <VectorParam id="905"  name="sourceCrop">
               <InterpolatingParam id="906" interp="linr"  time="0/1" value="0" leadInLength="0/1"  />
               <InterpolatingParam id="907" interp="linr"  time="0/1" value="0" leadInLength="0/1"  />
               <InterpolatingParam id="908" interp="linr"  time="0/1" value="0" leadInLength="0/1"  />
               <InterpolatingParam id="909" interp="linr"  time="0/1" value="0" leadInLength="0/1"  />
              </VectorParam>
              <VectorParam id="910"  name="geometryCrop">
               <InterpolatingParam id="911" interp="linr"  time="-9999999/1" value="0" leadInLength="0/1"  />
               <InterpolatingParam id="912" interp="linr"  time="-9999999/1" value="0" leadInLength="0/1"  />
               <InterpolatingParam id="913" interp="linr"  time="-9999999/1" value="0" leadInLength="0/1"  />
               <InterpolatingParam id="914" interp="linr"  time="-9999999/1" value="0" leadInLength="0/1"  />
              </VectorParam>
              <InterpolatingParam id="915" interp="linr"  time="-9999999/1" value="1" leadInLength="0/1"  name="opacity"/>
              <InterpolatingParam id="916" interp="linr"  time="0/1" value="0" leadInLength="0/1"  name="cursorOpacity"/>
              <InterpolatingParam id="917" interp="linr"  time="0/1" value="0" leadInLength="0/1"  name="cursorScale"/>
             </Parameters>
             <Attributes>
              <Attribute id="918" value="" name="ident"/>
             </Attributes>
             <ExtraData>
              <Entry key="ZoomPanBin">
               <ZoomPanBin id="919"  >
                <ZoomPanKeyframes>
                 <ZoomPanKeyframe id="920" timeRangeEnd="-9999999/1" timeRangeDuration="0/1" interpolaterName=""  />
                </ZoomPanKeyframes>
               </ZoomPanBin>
              </Entry>
              <Entry key="CursorEffectBin">
               <CursorEffectBin id="921"  >
                <CursorEffectKeyframes>
                </CursorEffectKeyframes>
               </CursorEffectBin>
              </Entry>
             </ExtraData>
            </ScreenVMFile>
            <MetaData>
             <entry key="AutoAppliedSmartFocus" val="False"/>
             <entry key="WinSubProjectDisplayName" val=""/>
            </MetaData>
           </UnifiedMedia>
           <UnifiedMedia id="922"  >
            <AMFile id="923" start="3523" duration="227" scalar="1/1" mediaStart="4550/1" mediaDuration="227/1" trackNumber="1" src="4" channelNumber="0,1" >
             <Parameters>
              <InterpolatingParam id="924" interp="linr"  time="0/1" value="1" leadInLength="0/1"  name="volume"/>
              <Parameter id="925"  name="captions"/>
             </Parameters>
             <Attributes>
              <Attribute id="926" value="" name="ident"/>
              <Attribute id="927" value="44100" name="sampleRate"/>
              <Attribute id="928" value="16" name="bitDepth"/>
              <Attribute id="929" value="1" name="gain"/>
              <Attribute id="930" value="0" name="mixToMono"/>
             </Attributes>
            </AMFile>
            <ScreenVMFile id="931" start="3523" duration="227" scalar="1/1" mediaStart="4550/1" mediaDuration="227/1" trackNumber="0" src="4" >
             <Transformer>
              <VectorParam id="932"  name="translation">
               <InterpolatingParam id="933" interp="linr"  time="-9999999/1" value="0" leadInLength="0/1"  />
               <InterpolatingParam id="934" interp="linr"  time="-9999999/1" value="0" leadInLength="0/1"  />
               <InterpolatingParam id="935" interp="linr"  time="-9999999/1" value="0" leadInLength="0/1"  />
              </VectorParam>
              <VectorParam id="936"  name="rotation">
               <InterpolatingParam id="937" interp="linr"  time="-9999999/1" value="0" leadInLength="0/1"  />
               <InterpolatingParam id="938" interp="linr"  time="-9999999/1" value="0" leadInLength="0/1"  />
               <InterpolatingParam id="939" interp="linr"  time="-9999999/1" value="0" leadInLength="0/1"  />
              </VectorParam>
              <VectorParam id="940"  name="shear">
               <InterpolatingParam id="941" interp="linr"  time="-9999999/1" value="0" leadInLength="0/1"  />
               <InterpolatingParam id="942" interp="linr"  time="-9999999/1" value="0" leadInLength="0/1"  />
               <InterpolatingParam id="943" interp="linr"  time="-9999999/1" value="0" leadInLength="0/1"  />
              </VectorParam>
              <VectorParam id="944"  name="scale">
               <InterpolatingParam id="945" interp="linr"  time="-9999999/1" value="1" leadInLength="0/1"  />
               <InterpolatingParam id="946" interp="linr"  time="-9999999/1" value="1" leadInLength="0/1"  />
               <InterpolatingParam id="947" interp="linr"  time="-9999999/1" value="1" leadInLength="0/1"  />
              </VectorParam>
              <VectorParam id="948"  name="anchor">
               <InterpolatingParam id="949" interp="linr"  time="0/1" value="0" leadInLength="0/1"  />
               <InterpolatingParam id="950" interp="linr"  time="0/1" value="0" leadInLength="0/1"  />
               <InterpolatingParam id="951" interp="linr"  time="0/1" value="0" leadInLength="0/1"  />
              </VectorParam>
             </Transformer>
             <Parameters>
              <VectorParam id="952"  name="sourceCrop">
               <InterpolatingParam id="953" interp="linr"  time="0/1" value="0" leadInLength="0/1"  />
               <InterpolatingParam id="954" interp="linr"  time="0/1" value="0" leadInLength="0/1"  />
               <InterpolatingParam id="955" interp="linr"  time="0/1" value="0" leadInLength="0/1"  />
               <InterpolatingParam id="956" interp="linr"  time="0/1" value="0" leadInLength="0/1"  />
              </VectorParam>
              <VectorParam id="957"  name="geometryCrop">
               <InterpolatingParam id="958" interp="linr"  time="-9999999/1" value="0" leadInLength="0/1"  />
               <InterpolatingParam id="959" interp="linr"  time="-9999999/1" value="0" leadInLength="0/1"  />
               <InterpolatingParam id="960" interp="linr"  time="-9999999/1" value="0" leadInLength="0/1"  />
               <InterpolatingParam id="961" interp="linr"  time="-9999999/1" value="0" leadInLength="0/1"  />
              </VectorParam>
              <InterpolatingParam id="962" interp="linr"  time="-9999999/1" value="1" leadInLength="0/1"  name="opacity"/>
              <InterpolatingParam id="963" interp="linr"  time="0/1" value="0" leadInLength="0/1"  name="cursorOpacity"/>
              <InterpolatingParam id="964" interp="linr"  time="0/1" value="0" leadInLength="0/1"  name="cursorScale"/>
             </Parameters>
             <Attributes>
              <Attribute id="965" value="" name="ident"/>
             </Attributes>
             <ExtraData>
              <Entry key="ZoomPanBin">
               <ZoomPanBin id="966"  >
                <ZoomPanKeyframes>
                 <ZoomPanKeyframe id="967" timeRangeEnd="-9999999/1" timeRangeDuration="0/1" interpolaterName=""  />
                </ZoomPanKeyframes>
               </ZoomPanBin>
              </Entry>
              <Entry key="CursorEffectBin">
               <CursorEffectBin id="968"  >
                <CursorEffectKeyframes>
                </CursorEffectKeyframes>
               </CursorEffectBin>
              </Entry>
             </ExtraData>
            </ScreenVMFile>
            <MetaData>
             <entry key="AutoAppliedSmartFocus" val="False"/>
             <entry key="WinSubProjectDisplayName" val=""/>
            </MetaData>
           </UnifiedMedia>
           <UnifiedMedia id="969"  >
            <AMFile id="970" start="3750" duration="71" scalar="1/1" mediaStart="4792/1" mediaDuration="71/1" trackNumber="1" src="4" channelNumber="0,1" >
             <Parameters>
              <InterpolatingParam id="971" interp="linr"  time="0/1" value="1" leadInLength="0/1"  name="volume"/>
              <Parameter id="972"  name="captions"/>
             </Parameters>
             <Attributes>
              <Attribute id="973" value="" name="ident"/>
              <Attribute id="974" value="44100" name="sampleRate"/>
              <Attribute id="975" value="16" name="bitDepth"/>
              <Attribute id="976" value="1" name="gain"/>
              <Attribute id="977" value="0" name="mixToMono"/>
             </Attributes>
            </AMFile>
            <ScreenVMFile id="978" start="3750" duration="71" scalar="1/1" mediaStart="4792/1" mediaDuration="71/1" trackNumber="0" src="4" >
             <Transformer>
              <VectorParam id="979"  name="translation">
               <InterpolatingParam id="980" interp="linr"  time="-9999999/1" value="0" leadInLength="0/1"  />
               <InterpolatingParam id="981" interp="linr"  time="-9999999/1" value="0" leadInLength="0/1"  />
               <InterpolatingParam id="982" interp="linr"  time="-9999999/1" value="0" leadInLength="0/1"  />
              </VectorParam>
              <VectorParam id="983"  name="rotation">
               <InterpolatingParam id="984" interp="linr"  time="-9999999/1" value="0" leadInLength="0/1"  />
               <InterpolatingParam id="985" interp="linr"  time="-9999999/1" value="0" leadInLength="0/1"  />
               <InterpolatingParam id="986" interp="linr"  time="-9999999/1" value="0" leadInLength="0/1"  />
              </VectorParam>
              <VectorParam id="987"  name="shear">
               <InterpolatingParam id="988" interp="linr"  time="-9999999/1" value="0" leadInLength="0/1"  />
               <InterpolatingParam id="989" interp="linr"  time="-9999999/1" value="0" leadInLength="0/1"  />
               <InterpolatingParam id="990" interp="linr"  time="-9999999/1" value="0" leadInLength="0/1"  />
              </VectorParam>
              <VectorParam id="991"  name="scale">
               <InterpolatingParam id="992" interp="linr"  time="-9999999/1" value="1" leadInLength="0/1"  />
               <InterpolatingParam id="993" interp="linr"  time="-9999999/1" value="1" leadInLength="0/1"  />
               <InterpolatingParam id="994" interp="linr"  time="-9999999/1" value="1" leadInLength="0/1"  />
              </VectorParam>
              <VectorParam id="995"  name="anchor">
               <InterpolatingParam id="996" interp="linr"  time="0/1" value="0" leadInLength="0/1"  />
               <InterpolatingParam id="997" interp="linr"  time="0/1" value="0" leadInLength="0/1"  />
               <InterpolatingParam id="998" interp="linr"  time="0/1" value="0" leadInLength="0/1"  />
              </VectorParam>
             </Transformer>
             <Parameters>
              <VectorParam id="999"  name="sourceCrop">
               <InterpolatingParam id="1000" interp="linr"  time="0/1" value="0" leadInLength="0/1"  />
               <InterpolatingParam id="1001" interp="linr"  time="0/1" value="0" leadInLength="0/1"  />
               <InterpolatingParam id="1002" interp="linr"  time="0/1" value="0" leadInLength="0/1"  />
               <InterpolatingParam id="1003" interp="linr"  time="0/1" value="0" leadInLength="0/1"  />
              </VectorParam>
              <VectorParam id="1004"  name="geometryCrop">
               <InterpolatingParam id="1005" interp="linr"  time="-9999999/1" value="0" leadInLength="0/1"  />
               <InterpolatingParam id="1006" interp="linr"  time="-9999999/1" value="0" leadInLength="0/1"  />
               <InterpolatingParam id="1007" interp="linr"  time="-9999999/1" value="0" leadInLength="0/1"  />
               <InterpolatingParam id="1008" interp="linr"  time="-9999999/1" value="0" leadInLength="0/1"  />
              </VectorParam>
              <InterpolatingParam id="1009" interp="linr"  time="-9999999/1" value="1" leadInLength="0/1"  name="opacity"/>
              <InterpolatingParam id="1010" interp="linr"  time="0/1" value="0" leadInLength="0/1"  name="cursorOpacity"/>
              <InterpolatingParam id="1011" interp="linr"  time="0/1" value="0" leadInLength="0/1"  name="cursorScale"/>
             </Parameters>
             <Attributes>
              <Attribute id="1012" value="" name="ident"/>
             </Attributes>
             <ExtraData>
              <Entry key="ZoomPanBin">
               <ZoomPanBin id="1013"  >
                <ZoomPanKeyframes>
                 <ZoomPanKeyframe id="1014" timeRangeEnd="-9999999/1" timeRangeDuration="0/1" interpolaterName=""  />
                </ZoomPanKeyframes>
               </ZoomPanBin>
              </Entry>
              <Entry key="CursorEffectBin">
               <CursorEffectBin id="1015"  >
                <CursorEffectKeyframes>
                </CursorEffectKeyframes>
               </CursorEffectBin>
              </Entry>
             </ExtraData>
            </ScreenVMFile>
            <MetaData>
             <entry key="AutoAppliedSmartFocus" val="False"/>
             <entry key="WinSubProjectDisplayName" val=""/>
            </MetaData>
           </UnifiedMedia>
           <UnifiedMedia id="1016"  >
            <AMFile id="1017" start="3821" duration="117" scalar="1/1" mediaStart="4909/1" mediaDuration="117/1" trackNumber="1" src="4" channelNumber="0,1" >
             <Parameters>
              <InterpolatingParam id="1018" interp="linr"  time="0/1" value="1" leadInLength="0/1"  name="volume"/>
              <Parameter id="1019"  name="captions"/>
             </Parameters>
             <Attributes>
              <Attribute id="1020" value="" name="ident"/>
              <Attribute id="1021" value="44100" name="sampleRate"/>
              <Attribute id="1022" value="16" name="bitDepth"/>
              <Attribute id="1023" value="1" name="gain"/>
              <Attribute id="1024" value="0" name="mixToMono"/>
             </Attributes>
            </AMFile>
            <ScreenVMFile id="1025" start="3821" duration="117" scalar="1/1" mediaStart="4909/1" mediaDuration="117/1" trackNumber="0" src="4" >
             <Transformer>
              <VectorParam id="1026"  name="translation">
               <InterpolatingParam id="1027" interp="linr"  time="-9999999/1" value="0" leadInLength="0/1"  />
               <InterpolatingParam id="1028" interp="linr"  time="-9999999/1" value="0" leadInLength="0/1"  />
               <InterpolatingParam id="1029" interp="linr"  time="-9999999/1" value="0" leadInLength="0/1"  />
              </VectorParam>
              <VectorParam id="1030"  name="rotation">
               <InterpolatingParam id="1031" interp="linr"  time="-9999999/1" value="0" leadInLength="0/1"  />
               <InterpolatingParam id="1032" interp="linr"  time="-9999999/1" value="0" leadInLength="0/1"  />
               <InterpolatingParam id="1033" interp="linr"  time="-9999999/1" value="0" leadInLength="0/1"  />
              </VectorParam>
              <VectorParam id="1034"  name="shear">
               <InterpolatingParam id="1035" interp="linr"  time="-9999999/1" value="0" leadInLength="0/1"  />
               <InterpolatingParam id="1036" interp="linr"  time="-9999999/1" value="0" leadInLength="0/1"  />
               <InterpolatingParam id="1037" interp="linr"  time="-9999999/1" value="0" leadInLength="0/1"  />
              </VectorParam>
              <VectorParam id="1038"  name="scale">
               <InterpolatingParam id="1039" interp="linr"  time="-9999999/1" value="1" leadInLength="0/1"  />
               <InterpolatingParam id="1040" interp="linr"  time="-9999999/1" value="1" leadInLength="0/1"  />
               <InterpolatingParam id="1041" interp="linr"  time="-9999999/1" value="1" leadInLength="0/1"  />
              </VectorParam>
              <VectorParam id="1042"  name="anchor">
               <InterpolatingParam id="1043" interp="linr"  time="0/1" value="0" leadInLength="0/1"  />
               <InterpolatingParam id="1044" interp="linr"  time="0/1" value="0" leadInLength="0/1"  />
               <InterpolatingParam id="1045" interp="linr"  time="0/1" value="0" leadInLength="0/1"  />
              </VectorParam>
             </Transformer>
             <Parameters>
              <VectorParam id="1046"  name="sourceCrop">
               <InterpolatingParam id="1047" interp="linr"  time="0/1" value="0" leadInLength="0/1"  />
               <InterpolatingParam id="1048" interp="linr"  time="0/1" value="0" leadInLength="0/1"  />
               <InterpolatingParam id="1049" interp="linr"  time="0/1" value="0" leadInLength="0/1"  />
               <InterpolatingParam id="1050" interp="linr"  time="0/1" value="0" leadInLength="0/1"  />
              </VectorParam>
              <VectorParam id="1051"  name="geometryCrop">
               <InterpolatingParam id="1052" interp="linr"  time="-9999999/1" value="0" leadInLength="0/1"  />
               <InterpolatingParam id="1053" interp="linr"  time="-9999999/1" value="0" leadInLength="0/1"  />
               <InterpolatingParam id="1054" interp="linr"  time="-9999999/1" value="0" leadInLength="0/1"  />
               <InterpolatingParam id="1055" interp="linr"  time="-9999999/1" value="0" leadInLength="0/1"  />
              </VectorParam>
              <InterpolatingParam id="1056" interp="linr"  time="-9999999/1" value="1" leadInLength="0/1"  name="opacity"/>
              <InterpolatingParam id="1057" interp="linr"  time="0/1" value="0" leadInLength="0/1"  name="cursorOpacity"/>
              <InterpolatingParam id="1058" interp="linr"  time="0/1" value="0" leadInLength="0/1"  name="cursorScale"/>
             </Parameters>
             <Attributes>
              <Attribute id="1059" value="" name="ident"/>
             </Attributes>
             <ExtraData>
              <Entry key="ZoomPanBin">
               <ZoomPanBin id="1060"  >
                <ZoomPanKeyframes>
                 <ZoomPanKeyframe id="1061" timeRangeEnd="-9999999/1" timeRangeDuration="0/1" interpolaterName=""  />
                </ZoomPanKeyframes>
               </ZoomPanBin>
              </Entry>
              <Entry key="CursorEffectBin">
               <CursorEffectBin id="1062"  >
                <CursorEffectKeyframes>
                </CursorEffectKeyframes>
               </CursorEffectBin>
              </Entry>
             </ExtraData>
            </ScreenVMFile>
            <MetaData>
             <entry key="AutoAppliedSmartFocus" val="False"/>
             <entry key="WinSubProjectDisplayName" val=""/>
            </MetaData>
           </UnifiedMedia>
           <UnifiedMedia id="1063"  >
            <AMFile id="1064" start="3938" duration="53" scalar="1/1" mediaStart="5224/1" mediaDuration="53/1" trackNumber="1" src="4" channelNumber="0,1" >
             <Parameters>
              <InterpolatingParam id="1065" interp="linr"  time="0/1" value="1" leadInLength="0/1"  name="volume"/>
              <Parameter id="1066"  name="captions"/>
             </Parameters>
             <Attributes>
              <Attribute id="1067" value="" name="ident"/>
              <Attribute id="1068" value="44100" name="sampleRate"/>
              <Attribute id="1069" value="16" name="bitDepth"/>
              <Attribute id="1070" value="1" name="gain"/>
              <Attribute id="1071" value="0" name="mixToMono"/>
             </Attributes>
            </AMFile>
            <ScreenVMFile id="1072" start="3938" duration="53" scalar="1/1" mediaStart="5224/1" mediaDuration="53/1" trackNumber="0" src="4" >
             <Transformer>
              <VectorParam id="1073"  name="translation">
               <InterpolatingParam id="1074" interp="linr"  time="-9999999/1" value="0" leadInLength="0/1"  />
               <InterpolatingParam id="1075" interp="linr"  time="-9999999/1" value="0" leadInLength="0/1"  />
               <InterpolatingParam id="1076" interp="linr"  time="-9999999/1" value="0" leadInLength="0/1"  />
              </VectorParam>
              <VectorParam id="1077"  name="rotation">
               <InterpolatingParam id="1078" interp="linr"  time="-9999999/1" value="0" leadInLength="0/1"  />
               <InterpolatingParam id="1079" interp="linr"  time="-9999999/1" value="0" leadInLength="0/1"  />
               <InterpolatingParam id="1080" interp="linr"  time="-9999999/1" value="0" leadInLength="0/1"  />
              </VectorParam>
              <VectorParam id="1081"  name="shear">
               <InterpolatingParam id="1082" interp="linr"  time="-9999999/1" value="0" leadInLength="0/1"  />
               <InterpolatingParam id="1083" interp="linr"  time="-9999999/1" value="0" leadInLength="0/1"  />
               <InterpolatingParam id="1084" interp="linr"  time="-9999999/1" value="0" leadInLength="0/1"  />
              </VectorParam>
              <VectorParam id="1085"  name="scale">
               <InterpolatingParam id="1086" interp="linr"  time="-9999999/1" value="1" leadInLength="0/1"  />
               <InterpolatingParam id="1087" interp="linr"  time="-9999999/1" value="1" leadInLength="0/1"  />
               <InterpolatingParam id="1088" interp="linr"  time="-9999999/1" value="1" leadInLength="0/1"  />
              </VectorParam>
              <VectorParam id="1089"  name="anchor">
               <InterpolatingParam id="1090" interp="linr"  time="0/1" value="0" leadInLength="0/1"  />
               <InterpolatingParam id="1091" interp="linr"  time="0/1" value="0" leadInLength="0/1"  />
               <InterpolatingParam id="1092" interp="linr"  time="0/1" value="0" leadInLength="0/1"  />
              </VectorParam>
             </Transformer>
             <Parameters>
              <VectorParam id="1093"  name="sourceCrop">
               <InterpolatingParam id="1094" interp="linr"  time="0/1" value="0" leadInLength="0/1"  />
               <InterpolatingParam id="1095" interp="linr"  time="0/1" value="0" leadInLength="0/1"  />
               <InterpolatingParam id="1096" interp="linr"  time="0/1" value="0" leadInLength="0/1"  />
               <InterpolatingParam id="1097" interp="linr"  time="0/1" value="0" leadInLength="0/1"  />
              </VectorParam>
              <VectorParam id="1098"  name="geometryCrop">
               <InterpolatingParam id="1099" interp="linr"  time="-9999999/1" value="0" leadInLength="0/1"  />
               <InterpolatingParam id="1100" interp="linr"  time="-9999999/1" value="0" leadInLength="0/1"  />
               <InterpolatingParam id="1101" interp="linr"  time="-9999999/1" value="0" leadInLength="0/1"  />
               <InterpolatingParam id="1102" interp="linr"  time="-9999999/1" value="0" leadInLength="0/1"  />
              </VectorParam>
              <InterpolatingParam id="1103" interp="linr"  time="-9999999/1" value="1" leadInLength="0/1"  name="opacity"/>
              <InterpolatingParam id="1104" interp="linr"  time="0/1" value="0" leadInLength="0/1"  name="cursorOpacity"/>
              <InterpolatingParam id="1105" interp="linr"  time="0/1" value="0" leadInLength="0/1"  name="cursorScale"/>
             </Parameters>
             <Attributes>
              <Attribute id="1106" value="" name="ident"/>
             </Attributes>
             <ExtraData>
              <Entry key="ZoomPanBin">
               <ZoomPanBin id="1107"  >
                <ZoomPanKeyframes>
                 <ZoomPanKeyframe id="1108" timeRangeEnd="-9999999/1" timeRangeDuration="0/1" interpolaterName=""  />
                </ZoomPanKeyframes>
               </ZoomPanBin>
              </Entry>
              <Entry key="CursorEffectBin">
               <CursorEffectBin id="1109"  >
                <CursorEffectKeyframes>
                </CursorEffectKeyframes>
               </CursorEffectBin>
              </Entry>
             </ExtraData>
            </ScreenVMFile>
            <MetaData>
             <entry key="AutoAppliedSmartFocus" val="False"/>
             <entry key="WinSubProjectDisplayName" val=""/>
            </MetaData>
           </UnifiedMedia>
           <UnifiedMedia id="1110"  >
            <AMFile id="1111" start="3991" duration="439" scalar="1/1" mediaStart="5309/1" mediaDuration="439/1" trackNumber="1" src="4" channelNumber="0,1" >
             <Parameters>
              <InterpolatingParam id="1112" interp="linr"  time="0/1" value="1" leadInLength="0/1"  name="volume"/>
              <Parameter id="1113"  name="captions"/>
             </Parameters>
             <Attributes>
              <Attribute id="1114" value="" name="ident"/>
              <Attribute id="1115" value="44100" name="sampleRate"/>
              <Attribute id="1116" value="16" name="bitDepth"/>
              <Attribute id="1117" value="1" name="gain"/>
              <Attribute id="1118" value="0" name="mixToMono"/>
             </Attributes>
            </AMFile>
            <ScreenVMFile id="1119" start="3991" duration="439" scalar="1/1" mediaStart="5309/1" mediaDuration="439/1" trackNumber="0" src="4" >
             <Transformer>
              <VectorParam id="1120"  name="translation">
               <InterpolatingParam id="1121" interp="linr"  time="-9999999/1" value="0" leadInLength="0/1"  />
               <InterpolatingParam id="1122" interp="linr"  time="-9999999/1" value="0" leadInLength="0/1"  />
               <InterpolatingParam id="1123" interp="linr"  time="-9999999/1" value="0" leadInLength="0/1"  />
              </VectorParam>
              <VectorParam id="1124"  name="rotation">
               <InterpolatingParam id="1125" interp="linr"  time="-9999999/1" value="0" leadInLength="0/1"  />
               <InterpolatingParam id="1126" interp="linr"  time="-9999999/1" value="0" leadInLength="0/1"  />
               <InterpolatingParam id="1127" interp="linr"  time="-9999999/1" value="0" leadInLength="0/1"  />
              </VectorParam>
              <VectorParam id="1128"  name="shear">
               <InterpolatingParam id="1129" interp="linr"  time="-9999999/1" value="0" leadInLength="0/1"  />
               <InterpolatingParam id="1130" interp="linr"  time="-9999999/1" value="0" leadInLength="0/1"  />
               <InterpolatingParam id="1131" interp="linr"  time="-9999999/1" value="0" leadInLength="0/1"  />
              </VectorParam>
              <VectorParam id="1132"  name="scale">
               <InterpolatingParam id="1133" interp="linr"  time="-9999999/1" value="1" leadInLength="0/1"  />
               <InterpolatingParam id="1134" interp="linr"  time="-9999999/1" value="1" leadInLength="0/1"  />
               <InterpolatingParam id="1135" interp="linr"  time="-9999999/1" value="1" leadInLength="0/1"  />
              </VectorParam>
              <VectorParam id="1136"  name="anchor">
               <InterpolatingParam id="1137" interp="linr"  time="0/1" value="0" leadInLength="0/1"  />
               <InterpolatingParam id="1138" interp="linr"  time="0/1" value="0" leadInLength="0/1"  />
               <InterpolatingParam id="1139" interp="linr"  time="0/1" value="0" leadInLength="0/1"  />
              </VectorParam>
             </Transformer>
             <Parameters>
              <VectorParam id="1140"  name="sourceCrop">
               <InterpolatingParam id="1141" interp="linr"  time="0/1" value="0" leadInLength="0/1"  />
               <InterpolatingParam id="1142" interp="linr"  time="0/1" value="0" leadInLength="0/1"  />
               <InterpolatingParam id="1143" interp="linr"  time="0/1" value="0" leadInLength="0/1"  />
               <InterpolatingParam id="1144" interp="linr"  time="0/1" value="0" leadInLength="0/1"  />
              </VectorParam>
              <VectorParam id="1145"  name="geometryCrop">
               <InterpolatingParam id="1146" interp="linr"  time="-9999999/1" value="0" leadInLength="0/1"  />
               <InterpolatingParam id="1147" interp="linr"  time="-9999999/1" value="0" leadInLength="0/1"  />
               <InterpolatingParam id="1148" interp="linr"  time="-9999999/1" value="0" leadInLength="0/1"  />
               <InterpolatingParam id="1149" interp="linr"  time="-9999999/1" value="0" leadInLength="0/1"  />
              </VectorParam>
              <InterpolatingParam id="1150" interp="linr"  time="-9999999/1" value="1" leadInLength="0/1"  name="opacity"/>
              <InterpolatingParam id="1151" interp="linr"  time="0/1" value="0" leadInLength="0/1"  name="cursorOpacity"/>
              <InterpolatingParam id="1152" interp="linr"  time="0/1" value="0" leadInLength="0/1"  name="cursorScale"/>
             </Parameters>
             <Attributes>
              <Attribute id="1153" value="" name="ident"/>
             </Attributes>
             <ExtraData>
              <Entry key="ZoomPanBin">
               <ZoomPanBin id="1154"  >
                <ZoomPanKeyframes>
                 <ZoomPanKeyframe id="1155" timeRangeEnd="-9999999/1" timeRangeDuration="0/1" interpolaterName=""  />
                </ZoomPanKeyframes>
               </ZoomPanBin>
              </Entry>
              <Entry key="CursorEffectBin">
               <CursorEffectBin id="1156"  >
                <CursorEffectKeyframes>
                </CursorEffectKeyframes>
               </CursorEffectBin>
              </Entry>
             </ExtraData>
            </ScreenVMFile>
            <MetaData>
             <entry key="AutoAppliedSmartFocus" val="False"/>
             <entry key="WinSubProjectDisplayName" val=""/>
            </MetaData>
           </UnifiedMedia>
           <UnifiedMedia id="1157"  >
            <AMFile id="1158" start="4430" duration="179" scalar="1/1" mediaStart="6281/1" mediaDuration="179/1" trackNumber="1" src="4" channelNumber="0,1" >
             <Parameters>
              <InterpolatingParam id="1159" interp="linr"  time="0/1" value="1" leadInLength="0/1"  name="volume"/>
              <Parameter id="1160"  name="captions"/>
             </Parameters>
             <Attributes>
              <Attribute id="1161" value="" name="ident"/>
              <Attribute id="1162" value="44100" name="sampleRate"/>
              <Attribute id="1163" value="16" name="bitDepth"/>
              <Attribute id="1164" value="1" name="gain"/>
              <Attribute id="1165" value="0" name="mixToMono"/>
             </Attributes>
            </AMFile>
            <ScreenVMFile id="1166" start="4430" duration="179" scalar="1/1" mediaStart="6281/1" mediaDuration="179/1" trackNumber="0" src="4" >
             <Transformer>
              <VectorParam id="1167"  name="translation">
               <InterpolatingParam id="1168" interp="linr"  time="-9999999/1" value="0" leadInLength="0/1"  />
               <InterpolatingParam id="1169" interp="linr"  time="-9999999/1" value="0" leadInLength="0/1"  />
               <InterpolatingParam id="1170" interp="linr"  time="-9999999/1" value="0" leadInLength="0/1"  />
              </VectorParam>
              <VectorParam id="1171"  name="rotation">
               <InterpolatingParam id="1172" interp="linr"  time="-9999999/1" value="0" leadInLength="0/1"  />
               <InterpolatingParam id="1173" interp="linr"  time="-9999999/1" value="0" leadInLength="0/1"  />
               <InterpolatingParam id="1174" interp="linr"  time="-9999999/1" value="0" leadInLength="0/1"  />
              </VectorParam>
              <VectorParam id="1175"  name="shear">
               <InterpolatingParam id="1176" interp="linr"  time="-9999999/1" value="0" leadInLength="0/1"  />
               <InterpolatingParam id="1177" interp="linr"  time="-9999999/1" value="0" leadInLength="0/1"  />
               <InterpolatingParam id="1178" interp="linr"  time="-9999999/1" value="0" leadInLength="0/1"  />
              </VectorParam>
              <VectorParam id="1179"  name="scale">
               <InterpolatingParam id="1180" interp="linr"  time="-9999999/1" value="1" leadInLength="0/1"  />
               <InterpolatingParam id="1181" interp="linr"  time="-9999999/1" value="1" leadInLength="0/1"  />
               <InterpolatingParam id="1182" interp="linr"  time="-9999999/1" value="1" leadInLength="0/1"  />
              </VectorParam>
              <VectorParam id="1183"  name="anchor">
               <InterpolatingParam id="1184" interp="linr"  time="0/1" value="0" leadInLength="0/1"  />
               <InterpolatingParam id="1185" interp="linr"  time="0/1" value="0" leadInLength="0/1"  />
               <InterpolatingParam id="1186" interp="linr"  time="0/1" value="0" leadInLength="0/1"  />
              </VectorParam>
             </Transformer>
             <Parameters>
              <VectorParam id="1187"  name="sourceCrop">
               <InterpolatingParam id="1188" interp="linr"  time="0/1" value="0" leadInLength="0/1"  />
               <InterpolatingParam id="1189" interp="linr"  time="0/1" value="0" leadInLength="0/1"  />
               <InterpolatingParam id="1190" interp="linr"  time="0/1" value="0" leadInLength="0/1"  />
               <InterpolatingParam id="1191" interp="linr"  time="0/1" value="0" leadInLength="0/1"  />
              </VectorParam>
              <VectorParam id="1192"  name="geometryCrop">
               <InterpolatingParam id="1193" interp="linr"  time="-9999999/1" value="0" leadInLength="0/1"  />
               <InterpolatingParam id="1194" interp="linr"  time="-9999999/1" value="0" leadInLength="0/1"  />
               <InterpolatingParam id="1195" interp="linr"  time="-9999999/1" value="0" leadInLength="0/1"  />
               <InterpolatingParam id="1196" interp="linr"  time="-9999999/1" value="0" leadInLength="0/1"  />
              </VectorParam>
              <InterpolatingParam id="1197" interp="linr"  time="-9999999/1" value="1" leadInLength="0/1"  name="opacity"/>
              <InterpolatingParam id="1198" interp="linr"  time="0/1" value="0" leadInLength="0/1"  name="cursorOpacity"/>
              <InterpolatingParam id="1199" interp="linr"  time="0/1" value="0" leadInLength="0/1"  name="cursorScale"/>
             </Parameters>
             <Attributes>
              <Attribute id="1200" value="" name="ident"/>
             </Attributes>
             <ExtraData>
              <Entry key="ZoomPanBin">
               <ZoomPanBin id="1201"  >
                <ZoomPanKeyframes>
                 <ZoomPanKeyframe id="1202" timeRangeEnd="-9999999/1" timeRangeDuration="0/1" interpolaterName=""  />
                </ZoomPanKeyframes>
               </ZoomPanBin>
              </Entry>
              <Entry key="CursorEffectBin">
               <CursorEffectBin id="1203"  >
                <CursorEffectKeyframes>
                </CursorEffectKeyframes>
               </CursorEffectBin>
              </Entry>
             </ExtraData>
            </ScreenVMFile>
            <MetaData>
             <entry key="AutoAppliedSmartFocus" val="False"/>
             <entry key="WinSubProjectDisplayName" val=""/>
            </MetaData>
           </UnifiedMedia>
           <UnifiedMedia id="1204"  >
            <AMFile id="1205" start="4609" duration="131" scalar="1/1" mediaStart="7870/1" mediaDuration="131/1" trackNumber="1" src="4" channelNumber="0,1" >
             <Parameters>
              <InterpolatingParam id="1206" interp="linr"  time="0/1" value="1" leadInLength="0/1"  name="volume"/>
              <Parameter id="1207"  name="captions"/>
             </Parameters>
             <Attributes>
              <Attribute id="1208" value="" name="ident"/>
              <Attribute id="1209" value="44100" name="sampleRate"/>
              <Attribute id="1210" value="16" name="bitDepth"/>
              <Attribute id="1211" value="1" name="gain"/>
              <Attribute id="1212" value="0" name="mixToMono"/>
             </Attributes>
            </AMFile>
            <ScreenVMFile id="1213" start="4609" duration="131" scalar="1/1" mediaStart="7870/1" mediaDuration="131/1" trackNumber="0" src="4" >
             <Transformer>
              <VectorParam id="1214"  name="translation">
               <InterpolatingParam id="1215" interp="linr"  time="-9999999/1" value="0" leadInLength="0/1"  />
               <InterpolatingParam id="1216" interp="linr"  time="-9999999/1" value="0" leadInLength="0/1"  />
               <InterpolatingParam id="1217" interp="linr"  time="-9999999/1" value="0" leadInLength="0/1"  />
              </VectorParam>
              <VectorParam id="1218"  name="rotation">
               <InterpolatingParam id="1219" interp="linr"  time="-9999999/1" value="0" leadInLength="0/1"  />
               <InterpolatingParam id="1220" interp="linr"  time="-9999999/1" value="0" leadInLength="0/1"  />
               <InterpolatingParam id="1221" interp="linr"  time="-9999999/1" value="0" leadInLength="0/1"  />
              </VectorParam>
              <VectorParam id="1222"  name="shear">
               <InterpolatingParam id="1223" interp="linr"  time="-9999999/1" value="0" leadInLength="0/1"  />
               <InterpolatingParam id="1224" interp="linr"  time="-9999999/1" value="0" leadInLength="0/1"  />
               <InterpolatingParam id="1225" interp="linr"  time="-9999999/1" value="0" leadInLength="0/1"  />
              </VectorParam>
              <VectorParam id="1226"  name="scale">
               <InterpolatingParam id="1227" interp="linr"  time="-9999999/1" value="1" leadInLength="0/1"  />
               <InterpolatingParam id="1228" interp="linr"  time="-9999999/1" value="1" leadInLength="0/1"  />
               <InterpolatingParam id="1229" interp="linr"  time="-9999999/1" value="1" leadInLength="0/1"  />
              </VectorParam>
              <VectorParam id="1230"  name="anchor">
               <InterpolatingParam id="1231" interp="linr"  time="0/1" value="0" leadInLength="0/1"  />
               <InterpolatingParam id="1232" interp="linr"  time="0/1" value="0" leadInLength="0/1"  />
               <InterpolatingParam id="1233" interp="linr"  time="0/1" value="0" leadInLength="0/1"  />
              </VectorParam>
             </Transformer>
             <Parameters>
              <VectorParam id="1234"  name="sourceCrop">
               <InterpolatingParam id="1235" interp="linr"  time="0/1" value="0" leadInLength="0/1"  />
               <InterpolatingParam id="1236" interp="linr"  time="0/1" value="0" leadInLength="0/1"  />
               <InterpolatingParam id="1237" interp="linr"  time="0/1" value="0" leadInLength="0/1"  />
               <InterpolatingParam id="1238" interp="linr"  time="0/1" value="0" leadInLength="0/1"  />
              </VectorParam>
              <VectorParam id="1239"  name="geometryCrop">
               <InterpolatingParam id="1240" interp="linr"  time="-9999999/1" value="0" leadInLength="0/1"  />
               <InterpolatingParam id="1241" interp="linr"  time="-9999999/1" value="0" leadInLength="0/1"  />
               <InterpolatingParam id="1242" interp="linr"  time="-9999999/1" value="0" leadInLength="0/1"  />
               <InterpolatingParam id="1243" interp="linr"  time="-9999999/1" value="0" leadInLength="0/1"  />
              </VectorParam>
              <InterpolatingParam id="1244" interp="linr"  time="-9999999/1" value="1" leadInLength="0/1"  name="opacity"/>
              <InterpolatingParam id="1245" interp="linr"  time="0/1" value="0" leadInLength="0/1"  name="cursorOpacity"/>
              <InterpolatingParam id="1246" interp="linr"  time="0/1" value="0" leadInLength="0/1"  name="cursorScale"/>
             </Parameters>
             <Attributes>
              <Attribute id="1247" value="" name="ident"/>
             </Attributes>
             <ExtraData>
              <Entry key="ZoomPanBin">
               <ZoomPanBin id="1248"  >
                <ZoomPanKeyframes>
                 <ZoomPanKeyframe id="1249" timeRangeEnd="-9999999/1" timeRangeDuration="0/1" interpolaterName=""  />
                </ZoomPanKeyframes>
               </ZoomPanBin>
              </Entry>
              <Entry key="CursorEffectBin">
               <CursorEffectBin id="1250"  >
                <CursorEffectKeyframes>
                </CursorEffectKeyframes>
               </CursorEffectBin>
              </Entry>
             </ExtraData>
            </ScreenVMFile>
            <MetaData>
             <entry key="AutoAppliedSmartFocus" val="False"/>
             <entry key="WinSubProjectDisplayName" val=""/>
            </MetaData>
           </UnifiedMedia>
           <UnifiedMedia id="1251"  >
            <AMFile id="1252" start="4740" duration="61" scalar="1/1" mediaStart="8014/1" mediaDuration="61/1" trackNumber="1" src="4" channelNumber="0,1" >
             <Parameters>
              <InterpolatingParam id="1253" interp="linr"  time="0/1" value="1" leadInLength="0/1"  name="volume"/>
              <Parameter id="1254"  name="captions"/>
             </Parameters>
             <Attributes>
              <Attribute id="1255" value="" name="ident"/>
              <Attribute id="1256" value="44100" name="sampleRate"/>
              <Attribute id="1257" value="16" name="bitDepth"/>
              <Attribute id="1258" value="1" name="gain"/>
              <Attribute id="1259" value="0" name="mixToMono"/>
             </Attributes>
            </AMFile>
            <ScreenVMFile id="1260" start="4740" duration="61" scalar="1/1" mediaStart="8014/1" mediaDuration="61/1" trackNumber="0" src="4" >
             <Transformer>
              <VectorParam id="1261"  name="translation">
               <InterpolatingParam id="1262" interp="linr"  time="-9999999/1" value="0" leadInLength="0/1"  />
               <InterpolatingParam id="1263" interp="linr"  time="-9999999/1" value="0" leadInLength="0/1"  />
               <InterpolatingParam id="1264" interp="linr"  time="-9999999/1" value="0" leadInLength="0/1"  />
              </VectorParam>
              <VectorParam id="1265"  name="rotation">
               <InterpolatingParam id="1266" interp="linr"  time="-9999999/1" value="0" leadInLength="0/1"  />
               <InterpolatingParam id="1267" interp="linr"  time="-9999999/1" value="0" leadInLength="0/1"  />
               <InterpolatingParam id="1268" interp="linr"  time="-9999999/1" value="0" leadInLength="0/1"  />
              </VectorParam>
              <VectorParam id="1269"  name="shear">
               <InterpolatingParam id="1270" interp="linr"  time="-9999999/1" value="0" leadInLength="0/1"  />
               <InterpolatingParam id="1271" interp="linr"  time="-9999999/1" value="0" leadInLength="0/1"  />
               <InterpolatingParam id="1272" interp="linr"  time="-9999999/1" value="0" leadInLength="0/1"  />
              </VectorParam>
              <VectorParam id="1273"  name="scale">
               <InterpolatingParam id="1274" interp="linr"  time="-9999999/1" value="1" leadInLength="0/1"  />
               <InterpolatingParam id="1275" interp="linr"  time="-9999999/1" value="1" leadInLength="0/1"  />
               <InterpolatingParam id="1276" interp="linr"  time="-9999999/1" value="1" leadInLength="0/1"  />
              </VectorParam>
              <VectorParam id="1277"  name="anchor">
               <InterpolatingParam id="1278" interp="linr"  time="0/1" value="0" leadInLength="0/1"  />
               <InterpolatingParam id="1279" interp="linr"  time="0/1" value="0" leadInLength="0/1"  />
               <InterpolatingParam id="1280" interp="linr"  time="0/1" value="0" leadInLength="0/1"  />
              </VectorParam>
             </Transformer>
             <Parameters>
              <VectorParam id="1281"  name="sourceCrop">
               <InterpolatingParam id="1282" interp="linr"  time="0/1" value="0" leadInLength="0/1"  />
               <InterpolatingParam id="1283" interp="linr"  time="0/1" value="0" leadInLength="0/1"  />
               <InterpolatingParam id="1284" interp="linr"  time="0/1" value="0" leadInLength="0/1"  />
               <InterpolatingParam id="1285" interp="linr"  time="0/1" value="0" leadInLength="0/1"  />
              </VectorParam>
              <VectorParam id="1286"  name="geometryCrop">
               <InterpolatingParam id="1287" interp="linr"  time="-9999999/1" value="0" leadInLength="0/1"  />
               <InterpolatingParam id="1288" interp="linr"  time="-9999999/1" value="0" leadInLength="0/1"  />
               <InterpolatingParam id="1289" interp="linr"  time="-9999999/1" value="0" leadInLength="0/1"  />
               <InterpolatingParam id="1290" interp="linr"  time="-9999999/1" value="0" leadInLength="0/1"  />
              </VectorParam>
              <InterpolatingParam id="1291" interp="linr"  time="-9999999/1" value="1" leadInLength="0/1"  name="opacity"/>
              <InterpolatingParam id="1292" interp="linr"  time="0/1" value="0" leadInLength="0/1"  name="cursorOpacity"/>
              <InterpolatingParam id="1293" interp="linr"  time="0/1" value="0" leadInLength="0/1"  name="cursorScale"/>
             </Parameters>
             <Attributes>
              <Attribute id="1294" value="" name="ident"/>
             </Attributes>
             <ExtraData>
              <Entry key="ZoomPanBin">
               <ZoomPanBin id="1295"  >
                <ZoomPanKeyframes>
                 <ZoomPanKeyframe id="1296" timeRangeEnd="-9999999/1" timeRangeDuration="0/1" interpolaterName=""  />
                </ZoomPanKeyframes>
               </ZoomPanBin>
              </Entry>
              <Entry key="CursorEffectBin">
               <CursorEffectBin id="1297"  >
                <CursorEffectKeyframes>
                </CursorEffectKeyframes>
               </CursorEffectBin>
              </Entry>
             </ExtraData>
            </ScreenVMFile>
            <MetaData>
             <entry key="AutoAppliedSmartFocus" val="False"/>
             <entry key="WinSubProjectDisplayName" val=""/>
            </MetaData>
           </UnifiedMedia>
           <UnifiedMedia id="1298"  >
            <AMFile id="1299" start="4801" duration="102" scalar="1/1" mediaStart="8085/1" mediaDuration="102/1" trackNumber="1" src="4" channelNumber="0,1" >
             <Parameters>
              <InterpolatingParam id="1300" interp="linr"  time="0/1" value="1" leadInLength="0/1"  name="volume"/>
              <Parameter id="1301"  name="captions"/>
             </Parameters>
             <Attributes>
              <Attribute id="1302" value="" name="ident"/>
              <Attribute id="1303" value="44100" name="sampleRate"/>
              <Attribute id="1304" value="16" name="bitDepth"/>
              <Attribute id="1305" value="1" name="gain"/>
              <Attribute id="1306" value="0" name="mixToMono"/>
             </Attributes>
            </AMFile>
            <ScreenVMFile id="1307" start="4801" duration="102" scalar="1/1" mediaStart="8085/1" mediaDuration="102/1" trackNumber="0" src="4" >
             <Transformer>
              <VectorParam id="1308"  name="translation">
               <InterpolatingParam id="1309" interp="linr"  time="-9999999/1" value="0" leadInLength="0/1"  />
               <InterpolatingParam id="1310" interp="linr"  time="-9999999/1" value="0" leadInLength="0/1"  />
               <InterpolatingParam id="1311" interp="linr"  time="-9999999/1" value="0" leadInLength="0/1"  />
              </VectorParam>
              <VectorParam id="1312"  name="rotation">
               <InterpolatingParam id="1313" interp="linr"  time="-9999999/1" value="0" leadInLength="0/1"  />
               <InterpolatingParam id="1314" interp="linr"  time="-9999999/1" value="0" leadInLength="0/1"  />
               <InterpolatingParam id="1315" interp="linr"  time="-9999999/1" value="0" leadInLength="0/1"  />
              </VectorParam>
              <VectorParam id="1316"  name="shear">
               <InterpolatingParam id="1317" interp="linr"  time="-9999999/1" value="0" leadInLength="0/1"  />
               <InterpolatingParam id="1318" interp="linr"  time="-9999999/1" value="0" leadInLength="0/1"  />
               <InterpolatingParam id="1319" interp="linr"  time="-9999999/1" value="0" leadInLength="0/1"  />
              </VectorParam>
              <VectorParam id="1320"  name="scale">
               <InterpolatingParam id="1321" interp="linr"  time="-9999999/1" value="1" leadInLength="0/1"  />
               <InterpolatingParam id="1322" interp="linr"  time="-9999999/1" value="1" leadInLength="0/1"  />
               <InterpolatingParam id="1323" interp="linr"  time="-9999999/1" value="1" leadInLength="0/1"  />
              </VectorParam>
              <VectorParam id="1324"  name="anchor">
               <InterpolatingParam id="1325" interp="linr"  time="0/1" value="0" leadInLength="0/1"  />
               <InterpolatingParam id="1326" interp="linr"  time="0/1" value="0" leadInLength="0/1"  />
               <InterpolatingParam id="1327" interp="linr"  time="0/1" value="0" leadInLength="0/1"  />
              </VectorParam>
             </Transformer>
             <Parameters>
              <VectorParam id="1328"  name="sourceCrop">
               <InterpolatingParam id="1329" interp="linr"  time="0/1" value="0" leadInLength="0/1"  />
               <InterpolatingParam id="1330" interp="linr"  time="0/1" value="0" leadInLength="0/1"  />
               <InterpolatingParam id="1331" interp="linr"  time="0/1" value="0" leadInLength="0/1"  />
               <InterpolatingParam id="1332" interp="linr"  time="0/1" value="0" leadInLength="0/1"  />
              </VectorParam>
              <VectorParam id="1333"  name="geometryCrop">
               <InterpolatingParam id="1334" interp="linr"  time="-9999999/1" value="0" leadInLength="0/1"  />
               <InterpolatingParam id="1335" interp="linr"  time="-9999999/1" value="0" leadInLength="0/1"  />
               <InterpolatingParam id="1336" interp="linr"  time="-9999999/1" value="0" leadInLength="0/1"  />
               <InterpolatingParam id="1337" interp="linr"  time="-9999999/1" value="0" leadInLength="0/1"  />
              </VectorParam>
              <InterpolatingParam id="1338" interp="linr"  time="-9999999/1" value="1" leadInLength="0/1"  name="opacity"/>
              <InterpolatingParam id="1339" interp="linr"  time="0/1" value="0" leadInLength="0/1"  name="cursorOpacity"/>
              <InterpolatingParam id="1340" interp="linr"  time="0/1" value="0" leadInLength="0/1"  name="cursorScale"/>
             </Parameters>
             <Attributes>
              <Attribute id="1341" value="" name="ident"/>
             </Attributes>
             <ExtraData>
              <Entry key="ZoomPanBin">
               <ZoomPanBin id="1342"  >
                <ZoomPanKeyframes>
                 <ZoomPanKeyframe id="1343" timeRangeEnd="-9999999/1" timeRangeDuration="0/1" interpolaterName=""  />
                </ZoomPanKeyframes>
               </ZoomPanBin>
              </Entry>
              <Entry key="CursorEffectBin">
               <CursorEffectBin id="1344"  >
                <CursorEffectKeyframes>
                </CursorEffectKeyframes>
               </CursorEffectBin>
              </Entry>
             </ExtraData>
            </ScreenVMFile>
            <MetaData>
             <entry key="AutoAppliedSmartFocus" val="False"/>
             <entry key="WinSubProjectDisplayName" val=""/>
            </MetaData>
           </UnifiedMedia>
           <UnifiedMedia id="1345"  >
            <AMFile id="1346" start="4903" duration="212" scalar="1/1" mediaStart="8195/1" mediaDuration="212/1" trackNumber="1" src="4" channelNumber="0,1" >
             <Parameters>
              <InterpolatingParam id="1347" interp="linr"  time="0/1" value="1" leadInLength="0/1"  name="volume"/>
              <Parameter id="1348"  name="captions"/>
             </Parameters>
             <Attributes>
              <Attribute id="1349" value="" name="ident"/>
              <Attribute id="1350" value="44100" name="sampleRate"/>
              <Attribute id="1351" value="16" name="bitDepth"/>
              <Attribute id="1352" value="1" name="gain"/>
              <Attribute id="1353" value="0" name="mixToMono"/>
             </Attributes>
            </AMFile>
            <ScreenVMFile id="1354" start="4903" duration="212" scalar="1/1" mediaStart="8195/1" mediaDuration="212/1" trackNumber="0" src="4" >
             <Transformer>
              <VectorParam id="1355"  name="translation">
               <InterpolatingParam id="1356" interp="linr"  time="-9999999/1" value="0" leadInLength="0/1"  />
               <InterpolatingParam id="1357" interp="linr"  time="-9999999/1" value="0" leadInLength="0/1"  />
               <InterpolatingParam id="1358" interp="linr"  time="-9999999/1" value="0" leadInLength="0/1"  />
              </VectorParam>
              <VectorParam id="1359"  name="rotation">
               <InterpolatingParam id="1360" interp="linr"  time="-9999999/1" value="0" leadInLength="0/1"  />
               <InterpolatingParam id="1361" interp="linr"  time="-9999999/1" value="0" leadInLength="0/1"  />
               <InterpolatingParam id="1362" interp="linr"  time="-9999999/1" value="0" leadInLength="0/1"  />
              </VectorParam>
              <VectorParam id="1363"  name="shear">
               <InterpolatingParam id="1364" interp="linr"  time="-9999999/1" value="0" leadInLength="0/1"  />
               <InterpolatingParam id="1365" interp="linr"  time="-9999999/1" value="0" leadInLength="0/1"  />
               <InterpolatingParam id="1366" interp="linr"  time="-9999999/1" value="0" leadInLength="0/1"  />
              </VectorParam>
              <VectorParam id="1367"  name="scale">
               <InterpolatingParam id="1368" interp="linr"  time="-9999999/1" value="1" leadInLength="0/1"  />
               <InterpolatingParam id="1369" interp="linr"  time="-9999999/1" value="1" leadInLength="0/1"  />
               <InterpolatingParam id="1370" interp="linr"  time="-9999999/1" value="1" leadInLength="0/1"  />
              </VectorParam>
              <VectorParam id="1371"  name="anchor">
               <InterpolatingParam id="1372" interp="linr"  time="0/1" value="0" leadInLength="0/1"  />
               <InterpolatingParam id="1373" interp="linr"  time="0/1" value="0" leadInLength="0/1"  />
               <InterpolatingParam id="1374" interp="linr"  time="0/1" value="0" leadInLength="0/1"  />
              </VectorParam>
             </Transformer>
             <Parameters>
              <VectorParam id="1375"  name="sourceCrop">
               <InterpolatingParam id="1376" interp="linr"  time="0/1" value="0" leadInLength="0/1"  />
               <InterpolatingParam id="1377" interp="linr"  time="0/1" value="0" leadInLength="0/1"  />
               <InterpolatingParam id="1378" interp="linr"  time="0/1" value="0" leadInLength="0/1"  />
               <InterpolatingParam id="1379" interp="linr"  time="0/1" value="0" leadInLength="0/1"  />
              </VectorParam>
              <VectorParam id="1380"  name="geometryCrop">
               <InterpolatingParam id="1381" interp="linr"  time="-9999999/1" value="0" leadInLength="0/1"  />
               <InterpolatingParam id="1382" interp="linr"  time="-9999999/1" value="0" leadInLength="0/1"  />
               <InterpolatingParam id="1383" interp="linr"  time="-9999999/1" value="0" leadInLength="0/1"  />
               <InterpolatingParam id="1384" interp="linr"  time="-9999999/1" value="0" leadInLength="0/1"  />
              </VectorParam>
              <InterpolatingParam id="1385" interp="linr"  time="-9999999/1" value="1" leadInLength="0/1"  name="opacity"/>
              <InterpolatingParam id="1386" interp="linr"  time="0/1" value="0" leadInLength="0/1"  name="cursorOpacity"/>
              <InterpolatingParam id="1387" interp="linr"  time="0/1" value="0" leadInLength="0/1"  name="cursorScale"/>
             </Parameters>
             <Attributes>
              <Attribute id="1388" value="" name="ident"/>
             </Attributes>
             <ExtraData>
              <Entry key="ZoomPanBin">
               <ZoomPanBin id="1389"  >
                <ZoomPanKeyframes>
                 <ZoomPanKeyframe id="1390" timeRangeEnd="-9999999/1" timeRangeDuration="0/1" interpolaterName=""  />
                </ZoomPanKeyframes>
               </ZoomPanBin>
              </Entry>
              <Entry key="CursorEffectBin">
               <CursorEffectBin id="1391"  >
                <CursorEffectKeyframes>
                </CursorEffectKeyframes>
               </CursorEffectBin>
              </Entry>
             </ExtraData>
            </ScreenVMFile>
            <MetaData>
             <entry key="AutoAppliedSmartFocus" val="False"/>
             <entry key="WinSubProjectDisplayName" val=""/>
            </MetaData>
           </UnifiedMedia>
           <UnifiedMedia id="1392"  >
            <AMFile id="1393" start="5115" duration="173" scalar="1/1" mediaStart="8418/1" mediaDuration="173/1" trackNumber="1" src="4" channelNumber="0,1" >
             <Parameters>
              <InterpolatingParam id="1394" interp="linr"  time="0/1" value="1" leadInLength="0/1"  name="volume"/>
              <Parameter id="1395"  name="captions"/>
             </Parameters>
             <Attributes>
              <Attribute id="1396" value="" name="ident"/>
              <Attribute id="1397" value="44100" name="sampleRate"/>
              <Attribute id="1398" value="16" name="bitDepth"/>
              <Attribute id="1399" value="1" name="gain"/>
              <Attribute id="1400" value="0" name="mixToMono"/>
             </Attributes>
            </AMFile>
            <ScreenVMFile id="1401" start="5115" duration="173" scalar="1/1" mediaStart="8418/1" mediaDuration="173/1" trackNumber="0" src="4" >
             <Transformer>
              <VectorParam id="1402"  name="translation">
               <InterpolatingParam id="1403" interp="linr"  time="-9999999/1" value="0" leadInLength="0/1"  />
               <InterpolatingParam id="1404" interp="linr"  time="-9999999/1" value="0" leadInLength="0/1"  />
               <InterpolatingParam id="1405" interp="linr"  time="-9999999/1" value="0" leadInLength="0/1"  />
              </VectorParam>
              <VectorParam id="1406"  name="rotation">
               <InterpolatingParam id="1407" interp="linr"  time="-9999999/1" value="0" leadInLength="0/1"  />
               <InterpolatingParam id="1408" interp="linr"  time="-9999999/1" value="0" leadInLength="0/1"  />
               <InterpolatingParam id="1409" interp="linr"  time="-9999999/1" value="0" leadInLength="0/1"  />
              </VectorParam>
              <VectorParam id="1410"  name="shear">
               <InterpolatingParam id="1411" interp="linr"  time="-9999999/1" value="0" leadInLength="0/1"  />
               <InterpolatingParam id="1412" interp="linr"  time="-9999999/1" value="0" leadInLength="0/1"  />
               <InterpolatingParam id="1413" interp="linr"  time="-9999999/1" value="0" leadInLength="0/1"  />
              </VectorParam>
              <VectorParam id="1414"  name="scale">
               <InterpolatingParam id="1415" interp="linr"  time="-9999999/1" value="1" leadInLength="0/1"  />
               <InterpolatingParam id="1416" interp="linr"  time="-9999999/1" value="1" leadInLength="0/1"  />
               <InterpolatingParam id="1417" interp="linr"  time="-9999999/1" value="1" leadInLength="0/1"  />
              </VectorParam>
              <VectorParam id="1418"  name="anchor">
               <InterpolatingParam id="1419" interp="linr"  time="0/1" value="0" leadInLength="0/1"  />
               <InterpolatingParam id="1420" interp="linr"  time="0/1" value="0" leadInLength="0/1"  />
               <InterpolatingParam id="1421" interp="linr"  time="0/1" value="0" leadInLength="0/1"  />
              </VectorParam>
             </Transformer>
             <Parameters>
              <VectorParam id="1422"  name="sourceCrop">
               <InterpolatingParam id="1423" interp="linr"  time="0/1" value="0" leadInLength="0/1"  />
               <InterpolatingParam id="1424" interp="linr"  time="0/1" value="0" leadInLength="0/1"  />
               <InterpolatingParam id="1425" interp="linr"  time="0/1" value="0" leadInLength="0/1"  />
               <InterpolatingParam id="1426" interp="linr"  time="0/1" value="0" leadInLength="0/1"  />
              </VectorParam>
              <VectorParam id="1427"  name="geometryCrop">
               <InterpolatingParam id="1428" interp="linr"  time="-9999999/1" value="0" leadInLength="0/1"  />
               <InterpolatingParam id="1429" interp="linr"  time="-9999999/1" value="0" leadInLength="0/1"  />
               <InterpolatingParam id="1430" interp="linr"  time="-9999999/1" value="0" leadInLength="0/1"  />
               <InterpolatingParam id="1431" interp="linr"  time="-9999999/1" value="0" leadInLength="0/1"  />
              </VectorParam>
              <InterpolatingParam id="1432" interp="linr"  time="-9999999/1" value="1" leadInLength="0/1"  name="opacity"/>
              <InterpolatingParam id="1433" interp="linr"  time="0/1" value="0" leadInLength="0/1"  name="cursorOpacity"/>
              <InterpolatingParam id="1434" interp="linr"  time="0/1" value="0" leadInLength="0/1"  name="cursorScale"/>
             </Parameters>
             <Attributes>
              <Attribute id="1435" value="" name="ident"/>
             </Attributes>
             <ExtraData>
              <Entry key="ZoomPanBin">
               <ZoomPanBin id="1436"  >
                <ZoomPanKeyframes>
                 <ZoomPanKeyframe id="1437" timeRangeEnd="-9999999/1" timeRangeDuration="0/1" interpolaterName=""  />
                </ZoomPanKeyframes>
               </ZoomPanBin>
              </Entry>
              <Entry key="CursorEffectBin">
               <CursorEffectBin id="1438"  >
                <CursorEffectKeyframes>
                </CursorEffectKeyframes>
               </CursorEffectBin>
              </Entry>
             </ExtraData>
            </ScreenVMFile>
            <MetaData>
             <entry key="AutoAppliedSmartFocus" val="False"/>
             <entry key="WinSubProjectDisplayName" val=""/>
            </MetaData>
           </UnifiedMedia>
           <UnifiedMedia id="1439"  >
            <AMFile id="1440" start="5288" duration="249" scalar="1/1" mediaStart="8615/1" mediaDuration="249/1" trackNumber="1" src="4" channelNumber="0,1" >
             <Parameters>
              <InterpolatingParam id="1441" interp="linr"  time="0/1" value="1" leadInLength="0/1"  name="volume"/>
              <Parameter id="1442"  name="captions"/>
             </Parameters>
             <Attributes>
              <Attribute id="1443" value="" name="ident"/>
              <Attribute id="1444" value="44100" name="sampleRate"/>
              <Attribute id="1445" value="16" name="bitDepth"/>
              <Attribute id="1446" value="1" name="gain"/>
              <Attribute id="1447" value="0" name="mixToMono"/>
             </Attributes>
            </AMFile>
            <ScreenVMFile id="1448" start="5288" duration="249" scalar="1/1" mediaStart="8615/1" mediaDuration="249/1" trackNumber="0" src="4" >
             <Transformer>
              <VectorParam id="1449"  name="translation">
               <InterpolatingParam id="1450" interp="linr"  time="-9999999/1" value="0" leadInLength="0/1"  />
               <InterpolatingParam id="1451" interp="linr"  time="-9999999/1" value="0" leadInLength="0/1"  />
               <InterpolatingParam id="1452" interp="linr"  time="-9999999/1" value="0" leadInLength="0/1"  />
              </VectorParam>
              <VectorParam id="1453"  name="rotation">
               <InterpolatingParam id="1454" interp="linr"  time="-9999999/1" value="0" leadInLength="0/1"  />
               <InterpolatingParam id="1455" interp="linr"  time="-9999999/1" value="0" leadInLength="0/1"  />
               <InterpolatingParam id="1456" interp="linr"  time="-9999999/1" value="0" leadInLength="0/1"  />
              </VectorParam>
              <VectorParam id="1457"  name="shear">
               <InterpolatingParam id="1458" interp="linr"  time="-9999999/1" value="0" leadInLength="0/1"  />
               <InterpolatingParam id="1459" interp="linr"  time="-9999999/1" value="0" leadInLength="0/1"  />
               <InterpolatingParam id="1460" interp="linr"  time="-9999999/1" value="0" leadInLength="0/1"  />
              </VectorParam>
              <VectorParam id="1461"  name="scale">
               <InterpolatingParam id="1462" interp="linr"  time="-9999999/1" value="1" leadInLength="0/1"  />
               <InterpolatingParam id="1463" interp="linr"  time="-9999999/1" value="1" leadInLength="0/1"  />
               <InterpolatingParam id="1464" interp="linr"  time="-9999999/1" value="1" leadInLength="0/1"  />
              </VectorParam>
              <VectorParam id="1465"  name="anchor">
               <InterpolatingParam id="1466" interp="linr"  time="0/1" value="0" leadInLength="0/1"  />
               <InterpolatingParam id="1467" interp="linr"  time="0/1" value="0" leadInLength="0/1"  />
               <InterpolatingParam id="1468" interp="linr"  time="0/1" value="0" leadInLength="0/1"  />
              </VectorParam>
             </Transformer>
             <Parameters>
              <VectorParam id="1469"  name="sourceCrop">
               <InterpolatingParam id="1470" interp="linr"  time="0/1" value="0" leadInLength="0/1"  />
               <InterpolatingParam id="1471" interp="linr"  time="0/1" value="0" leadInLength="0/1"  />
               <InterpolatingParam id="1472" interp="linr"  time="0/1" value="0" leadInLength="0/1"  />
               <InterpolatingParam id="1473" interp="linr"  time="0/1" value="0" leadInLength="0/1"  />
              </VectorParam>
              <VectorParam id="1474"  name="geometryCrop">
               <InterpolatingParam id="1475" interp="linr"  time="-9999999/1" value="0" leadInLength="0/1"  />
               <InterpolatingParam id="1476" interp="linr"  time="-9999999/1" value="0" leadInLength="0/1"  />
               <InterpolatingParam id="1477" interp="linr"  time="-9999999/1" value="0" leadInLength="0/1"  />
               <InterpolatingParam id="1478" interp="linr"  time="-9999999/1" value="0" leadInLength="0/1"  />
              </VectorParam>
              <InterpolatingParam id="1479" interp="linr"  time="-9999999/1" value="1" leadInLength="0/1"  name="opacity"/>
              <InterpolatingParam id="1480" interp="linr"  time="0/1" value="0" leadInLength="0/1"  name="cursorOpacity"/>
              <InterpolatingParam id="1481" interp="linr"  time="0/1" value="0" leadInLength="0/1"  name="cursorScale"/>
             </Parameters>
             <Attributes>
              <Attribute id="1482" value="" name="ident"/>
             </Attributes>
             <ExtraData>
              <Entry key="ZoomPanBin">
               <ZoomPanBin id="1483"  >
                <ZoomPanKeyframes>
                 <ZoomPanKeyframe id="1484" timeRangeEnd="-9999999/1" timeRangeDuration="0/1" interpolaterName=""  />
                </ZoomPanKeyframes>
               </ZoomPanBin>
              </Entry>
              <Entry key="CursorEffectBin">
               <CursorEffectBin id="1485"  >
                <CursorEffectKeyframes>
                </CursorEffectKeyframes>
               </CursorEffectBin>
              </Entry>
             </ExtraData>
            </ScreenVMFile>
            <MetaData>
             <entry key="AutoAppliedSmartFocus" val="False"/>
             <entry key="WinSubProjectDisplayName" val=""/>
            </MetaData>
           </UnifiedMedia>
           <UnifiedMedia id="1486"  >
            <AMFile id="1487" start="5537" duration="239" scalar="1/1" mediaStart="8881/1" mediaDuration="239/1" trackNumber="1" src="4" channelNumber="0,1" >
             <Parameters>
              <InterpolatingParam id="1488" interp="linr"  time="0/1" value="1" leadInLength="0/1"  name="volume"/>
              <Parameter id="1489"  name="captions"/>
             </Parameters>
             <Attributes>
              <Attribute id="1490" value="" name="ident"/>
              <Attribute id="1491" value="44100" name="sampleRate"/>
              <Attribute id="1492" value="16" name="bitDepth"/>
              <Attribute id="1493" value="1" name="gain"/>
              <Attribute id="1494" value="0" name="mixToMono"/>
             </Attributes>
            </AMFile>
            <ScreenVMFile id="1495" start="5537" duration="239" scalar="1/1" mediaStart="8881/1" mediaDuration="239/1" trackNumber="0" src="4" >
             <Transformer>
              <VectorParam id="1496"  name="translation">
               <InterpolatingParam id="1497" interp="linr"  time="-9999999/1" value="0" leadInLength="0/1"  />
               <InterpolatingParam id="1498" interp="linr"  time="-9999999/1" value="0" leadInLength="0/1"  />
               <InterpolatingParam id="1499" interp="linr"  time="-9999999/1" value="0" leadInLength="0/1"  />
              </VectorParam>
              <VectorParam id="1500"  name="rotation">
               <InterpolatingParam id="1501" interp="linr"  time="-9999999/1" value="0" leadInLength="0/1"  />
               <InterpolatingParam id="1502" interp="linr"  time="-9999999/1" value="0" leadInLength="0/1"  />
               <InterpolatingParam id="1503" interp="linr"  time="-9999999/1" value="0" leadInLength="0/1"  />
              </VectorParam>
              <VectorParam id="1504"  name="shear">
               <InterpolatingParam id="1505" interp="linr"  time="-9999999/1" value="0" leadInLength="0/1"  />
               <InterpolatingParam id="1506" interp="linr"  time="-9999999/1" value="0" leadInLength="0/1"  />
               <InterpolatingParam id="1507" interp="linr"  time="-9999999/1" value="0" leadInLength="0/1"  />
              </VectorParam>
              <VectorParam id="1508"  name="scale">
               <InterpolatingParam id="1509" interp="linr"  time="-9999999/1" value="1" leadInLength="0/1"  />
               <InterpolatingParam id="1510" interp="linr"  time="-9999999/1" value="1" leadInLength="0/1"  />
               <InterpolatingParam id="1511" interp="linr"  time="-9999999/1" value="1" leadInLength="0/1"  />
              </VectorParam>
              <VectorParam id="1512"  name="anchor">
               <InterpolatingParam id="1513" interp="linr"  time="0/1" value="0" leadInLength="0/1"  />
               <InterpolatingParam id="1514" interp="linr"  time="0/1" value="0" leadInLength="0/1"  />
               <InterpolatingParam id="1515" interp="linr"  time="0/1" value="0" leadInLength="0/1"  />
              </VectorParam>
             </Transformer>
             <Parameters>
              <VectorParam id="1516"  name="sourceCrop">
               <InterpolatingParam id="1517" interp="linr"  time="0/1" value="0" leadInLength="0/1"  />
               <InterpolatingParam id="1518" interp="linr"  time="0/1" value="0" leadInLength="0/1"  />
               <InterpolatingParam id="1519" interp="linr"  time="0/1" value="0" leadInLength="0/1"  />
               <InterpolatingParam id="1520" interp="linr"  time="0/1" value="0" leadInLength="0/1"  />
              </VectorParam>
              <VectorParam id="1521"  name="geometryCrop">
               <InterpolatingParam id="1522" interp="linr"  time="-9999999/1" value="0" leadInLength="0/1"  />
               <InterpolatingParam id="1523" interp="linr"  time="-9999999/1" value="0" leadInLength="0/1"  />
               <InterpolatingParam id="1524" interp="linr"  time="-9999999/1" value="0" leadInLength="0/1"  />
               <InterpolatingParam id="1525" interp="linr"  time="-9999999/1" value="0" leadInLength="0/1"  />
              </VectorParam>
              <InterpolatingParam id="1526" interp="linr"  time="-9999999/1" value="1" leadInLength="0/1"  name="opacity"/>
              <InterpolatingParam id="1527" interp="linr"  time="0/1" value="0" leadInLength="0/1"  name="cursorOpacity"/>
              <InterpolatingParam id="1528" interp="linr"  time="0/1" value="0" leadInLength="0/1"  name="cursorScale"/>
             </Parameters>
             <Attributes>
              <Attribute id="1529" value="" name="ident"/>
             </Attributes>
             <ExtraData>
              <Entry key="ZoomPanBin">
               <ZoomPanBin id="1530"  >
                <ZoomPanKeyframes>
                 <ZoomPanKeyframe id="1531" timeRangeEnd="-9999999/1" timeRangeDuration="0/1" interpolaterName=""  />
                </ZoomPanKeyframes>
               </ZoomPanBin>
              </Entry>
              <Entry key="CursorEffectBin">
               <CursorEffectBin id="1532"  >
                <CursorEffectKeyframes>
                </CursorEffectKeyframes>
               </CursorEffectBin>
              </Entry>
             </ExtraData>
            </ScreenVMFile>
            <MetaData>
             <entry key="AutoAppliedSmartFocus" val="False"/>
             <entry key="WinSubProjectDisplayName" val=""/>
            </MetaData>
           </UnifiedMedia>
           <UnifiedMedia id="1533"  >
            <AMFile id="1534" start="5776" duration="143" scalar="1/1" mediaStart="9134/1" mediaDuration="143/1" trackNumber="1" src="4" channelNumber="0,1" >
             <Parameters>
              <InterpolatingParam id="1535" interp="linr"  time="0/1" value="1" leadInLength="0/1"  name="volume"/>
              <Parameter id="1536"  name="captions"/>
             </Parameters>
             <Attributes>
              <Attribute id="1537" value="" name="ident"/>
              <Attribute id="1538" value="44100" name="sampleRate"/>
              <Attribute id="1539" value="16" name="bitDepth"/>
              <Attribute id="1540" value="1" name="gain"/>
              <Attribute id="1541" value="0" name="mixToMono"/>
             </Attributes>
            </AMFile>
            <ScreenVMFile id="1542" start="5776" duration="143" scalar="1/1" mediaStart="9134/1" mediaDuration="143/1" trackNumber="0" src="4" >
             <Transformer>
              <VectorParam id="1543"  name="translation">
               <InterpolatingParam id="1544" interp="linr"  time="-9999999/1" value="0" leadInLength="0/1"  />
               <InterpolatingParam id="1545" interp="linr"  time="-9999999/1" value="0" leadInLength="0/1"  />
               <InterpolatingParam id="1546" interp="linr"  time="-9999999/1" value="0" leadInLength="0/1"  />
              </VectorParam>
              <VectorParam id="1547"  name="rotation">
               <InterpolatingParam id="1548" interp="linr"  time="-9999999/1" value="0" leadInLength="0/1"  />
               <InterpolatingParam id="1549" interp="linr"  time="-9999999/1" value="0" leadInLength="0/1"  />
               <InterpolatingParam id="1550" interp="linr"  time="-9999999/1" value="0" leadInLength="0/1"  />
              </VectorParam>
              <VectorParam id="1551"  name="shear">
               <InterpolatingParam id="1552" interp="linr"  time="-9999999/1" value="0" leadInLength="0/1"  />
               <InterpolatingParam id="1553" interp="linr"  time="-9999999/1" value="0" leadInLength="0/1"  />
               <InterpolatingParam id="1554" interp="linr"  time="-9999999/1" value="0" leadInLength="0/1"  />
              </VectorParam>
              <VectorParam id="1555"  name="scale">
               <InterpolatingParam id="1556" interp="linr"  time="-9999999/1" value="1" leadInLength="0/1"  />
               <InterpolatingParam id="1557" interp="linr"  time="-9999999/1" value="1" leadInLength="0/1"  />
               <InterpolatingParam id="1558" interp="linr"  time="-9999999/1" value="1" leadInLength="0/1"  />
              </VectorParam>
              <VectorParam id="1559"  name="anchor">
               <InterpolatingParam id="1560" interp="linr"  time="0/1" value="0" leadInLength="0/1"  />
               <InterpolatingParam id="1561" interp="linr"  time="0/1" value="0" leadInLength="0/1"  />
               <InterpolatingParam id="1562" interp="linr"  time="0/1" value="0" leadInLength="0/1"  />
              </VectorParam>
             </Transformer>
             <Parameters>
              <VectorParam id="1563"  name="sourceCrop">
               <InterpolatingParam id="1564" interp="linr"  time="0/1" value="0" leadInLength="0/1"  />
               <InterpolatingParam id="1565" interp="linr"  time="0/1" value="0" leadInLength="0/1"  />
               <InterpolatingParam id="1566" interp="linr"  time="0/1" value="0" leadInLength="0/1"  />
               <InterpolatingParam id="1567" interp="linr"  time="0/1" value="0" leadInLength="0/1"  />
              </VectorParam>
              <VectorParam id="1568"  name="geometryCrop">
               <InterpolatingParam id="1569" interp="linr"  time="-9999999/1" value="0" leadInLength="0/1"  />
               <InterpolatingParam id="1570" interp="linr"  time="-9999999/1" value="0" leadInLength="0/1"  />
               <InterpolatingParam id="1571" interp="linr"  time="-9999999/1" value="0" leadInLength="0/1"  />
               <InterpolatingParam id="1572" interp="linr"  time="-9999999/1" value="0" leadInLength="0/1"  />
              </VectorParam>
              <InterpolatingParam id="1573" interp="linr"  time="-9999999/1" value="1" leadInLength="0/1"  name="opacity"/>
              <InterpolatingParam id="1574" interp="linr"  time="0/1" value="0" leadInLength="0/1"  name="cursorOpacity"/>
              <InterpolatingParam id="1575" interp="linr"  time="0/1" value="0" leadInLength="0/1"  name="cursorScale"/>
             </Parameters>
             <Attributes>
              <Attribute id="1576" value="" name="ident"/>
             </Attributes>
             <ExtraData>
              <Entry key="ZoomPanBin">
               <ZoomPanBin id="1577"  >
                <ZoomPanKeyframes>
                 <ZoomPanKeyframe id="1578" timeRangeEnd="-9999999/1" timeRangeDuration="0/1" interpolaterName=""  />
                </ZoomPanKeyframes>
               </ZoomPanBin>
              </Entry>
              <Entry key="CursorEffectBin">
               <CursorEffectBin id="1579"  >
                <CursorEffectKeyframes>
                </CursorEffectKeyframes>
               </CursorEffectBin>
              </Entry>
             </ExtraData>
            </ScreenVMFile>
            <MetaData>
             <entry key="AutoAppliedSmartFocus" val="False"/>
             <entry key="WinSubProjectDisplayName" val=""/>
            </MetaData>
           </UnifiedMedia>
           <UnifiedMedia id="1580"  >
            <AMFile id="1581" start="5919" duration="54" scalar="1/1" mediaStart="9286/1" mediaDuration="54/1" trackNumber="1" src="4" channelNumber="0,1" >
             <Parameters>
              <InterpolatingParam id="1582" interp="linr"  time="0/1" value="1" leadInLength="0/1"  name="volume"/>
              <Parameter id="1583"  name="captions"/>
             </Parameters>
             <Attributes>
              <Attribute id="1584" value="" name="ident"/>
              <Attribute id="1585" value="44100" name="sampleRate"/>
              <Attribute id="1586" value="16" name="bitDepth"/>
              <Attribute id="1587" value="1" name="gain"/>
              <Attribute id="1588" value="0" name="mixToMono"/>
             </Attributes>
            </AMFile>
            <ScreenVMFile id="1589" start="5919" duration="54" scalar="1/1" mediaStart="9286/1" mediaDuration="54/1" trackNumber="0" src="4" >
             <Transformer>
              <VectorParam id="1590"  name="translation">
               <InterpolatingParam id="1591" interp="linr"  time="-9999999/1" value="0" leadInLength="0/1"  />
               <InterpolatingParam id="1592" interp="linr"  time="-9999999/1" value="0" leadInLength="0/1"  />
               <InterpolatingParam id="1593" interp="linr"  time="-9999999/1" value="0" leadInLength="0/1"  />
              </VectorParam>
              <VectorParam id="1594"  name="rotation">
               <InterpolatingParam id="1595" interp="linr"  time="-9999999/1" value="0" leadInLength="0/1"  />
               <InterpolatingParam id="1596" interp="linr"  time="-9999999/1" value="0" leadInLength="0/1"  />
               <InterpolatingParam id="1597" interp="linr"  time="-9999999/1" value="0" leadInLength="0/1"  />
              </VectorParam>
              <VectorParam id="1598"  name="shear">
               <InterpolatingParam id="1599" interp="linr"  time="-9999999/1" value="0" leadInLength="0/1"  />
               <InterpolatingParam id="1600" interp="linr"  time="-9999999/1" value="0" leadInLength="0/1"  />
               <InterpolatingParam id="1601" interp="linr"  time="-9999999/1" value="0" leadInLength="0/1"  />
              </VectorParam>
              <VectorParam id="1602"  name="scale">
               <InterpolatingParam id="1603" interp="linr"  time="-9999999/1" value="1" leadInLength="0/1"  />
               <InterpolatingParam id="1604" interp="linr"  time="-9999999/1" value="1" leadInLength="0/1"  />
               <InterpolatingParam id="1605" interp="linr"  time="-9999999/1" value="1" leadInLength="0/1"  />
              </VectorParam>
              <VectorParam id="1606"  name="anchor">
               <InterpolatingParam id="1607" interp="linr"  time="0/1" value="0" leadInLength="0/1"  />
               <InterpolatingParam id="1608" interp="linr"  time="0/1" value="0" leadInLength="0/1"  />
               <InterpolatingParam id="1609" interp="linr"  time="0/1" value="0" leadInLength="0/1"  />
              </VectorParam>
             </Transformer>
             <Parameters>
              <VectorParam id="1610"  name="sourceCrop">
               <InterpolatingParam id="1611" interp="linr"  time="0/1" value="0" leadInLength="0/1"  />
               <InterpolatingParam id="1612" interp="linr"  time="0/1" value="0" leadInLength="0/1"  />
               <InterpolatingParam id="1613" interp="linr"  time="0/1" value="0" leadInLength="0/1"  />
               <InterpolatingParam id="1614" interp="linr"  time="0/1" value="0" leadInLength="0/1"  />
              </VectorParam>
              <VectorParam id="1615"  name="geometryCrop">
               <InterpolatingParam id="1616" interp="linr"  time="-9999999/1" value="0" leadInLength="0/1"  />
               <InterpolatingParam id="1617" interp="linr"  time="-9999999/1" value="0" leadInLength="0/1"  />
               <InterpolatingParam id="1618" interp="linr"  time="-9999999/1" value="0" leadInLength="0/1"  />
               <InterpolatingParam id="1619" interp="linr"  time="-9999999/1" value="0" leadInLength="0/1"  />
              </VectorParam>
              <InterpolatingParam id="1620" interp="linr"  time="-9999999/1" value="1" leadInLength="0/1"  name="opacity"/>
              <InterpolatingParam id="1621" interp="linr"  time="0/1" value="0" leadInLength="0/1"  name="cursorOpacity"/>
              <InterpolatingParam id="1622" interp="linr"  time="0/1" value="0" leadInLength="0/1"  name="cursorScale"/>
             </Parameters>
             <Attributes>
              <Attribute id="1623" value="" name="ident"/>
             </Attributes>
             <ExtraData>
              <Entry key="ZoomPanBin">
               <ZoomPanBin id="1624"  >
                <ZoomPanKeyframes>
                 <ZoomPanKeyframe id="1625" timeRangeEnd="-9999999/1" timeRangeDuration="0/1" interpolaterName=""  />
                </ZoomPanKeyframes>
               </ZoomPanBin>
              </Entry>
              <Entry key="CursorEffectBin">
               <CursorEffectBin id="1626"  >
                <CursorEffectKeyframes>
                </CursorEffectKeyframes>
               </CursorEffectBin>
              </Entry>
             </ExtraData>
            </ScreenVMFile>
            <MetaData>
             <entry key="AutoAppliedSmartFocus" val="False"/>
             <entry key="WinSubProjectDisplayName" val=""/>
            </MetaData>
           </UnifiedMedia>
           <UnifiedMedia id="1627"  >
            <AMFile id="1628" start="5973" duration="51" scalar="1/1" mediaStart="9349/1" mediaDuration="51/1" trackNumber="1" src="4" channelNumber="0,1" >
             <Parameters>
              <InterpolatingParam id="1629" interp="linr"  time="0/1" value="1" leadInLength="0/1"  name="volume"/>
              <Parameter id="1630"  name="captions"/>
             </Parameters>
             <Attributes>
              <Attribute id="1631" value="" name="ident"/>
              <Attribute id="1632" value="44100" name="sampleRate"/>
              <Attribute id="1633" value="16" name="bitDepth"/>
              <Attribute id="1634" value="1" name="gain"/>
              <Attribute id="1635" value="0" name="mixToMono"/>
             </Attributes>
            </AMFile>
            <ScreenVMFile id="1636" start="5973" duration="51" scalar="1/1" mediaStart="9349/1" mediaDuration="51/1" trackNumber="0" src="4" >
             <Transformer>
              <VectorParam id="1637"  name="translation">
               <InterpolatingParam id="1638" interp="linr"  time="-9999999/1" value="0" leadInLength="0/1"  />
               <InterpolatingParam id="1639" interp="linr"  time="-9999999/1" value="0" leadInLength="0/1"  />
               <InterpolatingParam id="1640" interp="linr"  time="-9999999/1" value="0" leadInLength="0/1"  />
              </VectorParam>
              <VectorParam id="1641"  name="rotation">
               <InterpolatingParam id="1642" interp="linr"  time="-9999999/1" value="0" leadInLength="0/1"  />
               <InterpolatingParam id="1643" interp="linr"  time="-9999999/1" value="0" leadInLength="0/1"  />
               <InterpolatingParam id="1644" interp="linr"  time="-9999999/1" value="0" leadInLength="0/1"  />
              </VectorParam>
              <VectorParam id="1645"  name="shear">
               <InterpolatingParam id="1646" interp="linr"  time="-9999999/1" value="0" leadInLength="0/1"  />
               <InterpolatingParam id="1647" interp="linr"  time="-9999999/1" value="0" leadInLength="0/1"  />
               <InterpolatingParam id="1648" interp="linr"  time="-9999999/1" value="0" leadInLength="0/1"  />
              </VectorParam>
              <VectorParam id="1649"  name="scale">
               <InterpolatingParam id="1650" interp="linr"  time="-9999999/1" value="1" leadInLength="0/1"  />
               <InterpolatingParam id="1651" interp="linr"  time="-9999999/1" value="1" leadInLength="0/1"  />
               <InterpolatingParam id="1652" interp="linr"  time="-9999999/1" value="1" leadInLength="0/1"  />
              </VectorParam>
              <VectorParam id="1653"  name="anchor">
               <InterpolatingParam id="1654" interp="linr"  time="0/1" value="0" leadInLength="0/1"  />
               <InterpolatingParam id="1655" interp="linr"  time="0/1" value="0" leadInLength="0/1"  />
               <InterpolatingParam id="1656" interp="linr"  time="0/1" value="0" leadInLength="0/1"  />
              </VectorParam>
             </Transformer>
             <Parameters>
              <VectorParam id="1657"  name="sourceCrop">
               <InterpolatingParam id="1658" interp="linr"  time="0/1" value="0" leadInLength="0/1"  />
               <InterpolatingParam id="1659" interp="linr"  time="0/1" value="0" leadInLength="0/1"  />
               <InterpolatingParam id="1660" interp="linr"  time="0/1" value="0" leadInLength="0/1"  />
               <InterpolatingParam id="1661" interp="linr"  time="0/1" value="0" leadInLength="0/1"  />
              </VectorParam>
              <VectorParam id="1662"  name="geometryCrop">
               <InterpolatingParam id="1663" interp="linr"  time="-9999999/1" value="0" leadInLength="0/1"  />
               <InterpolatingParam id="1664" interp="linr"  time="-9999999/1" value="0" leadInLength="0/1"  />
               <InterpolatingParam id="1665" interp="linr"  time="-9999999/1" value="0" leadInLength="0/1"  />
               <InterpolatingParam id="1666" interp="linr"  time="-9999999/1" value="0" leadInLength="0/1"  />
              </VectorParam>
              <InterpolatingParam id="1667" interp="linr"  time="-9999999/1" value="1" leadInLength="0/1"  name="opacity"/>
              <InterpolatingParam id="1668" interp="linr"  time="0/1" value="0" leadInLength="0/1"  name="cursorOpacity"/>
              <InterpolatingParam id="1669" interp="linr"  time="0/1" value="0" leadInLength="0/1"  name="cursorScale"/>
             </Parameters>
             <Attributes>
              <Attribute id="1670" value="" name="ident"/>
             </Attributes>
             <ExtraData>
              <Entry key="ZoomPanBin">
               <ZoomPanBin id="1671"  >
                <ZoomPanKeyframes>
                 <ZoomPanKeyframe id="1672" timeRangeEnd="-9999999/1" timeRangeDuration="0/1" interpolaterName=""  />
                </ZoomPanKeyframes>
               </ZoomPanBin>
              </Entry>
              <Entry key="CursorEffectBin">
               <CursorEffectBin id="1673"  >
                <CursorEffectKeyframes>
                </CursorEffectKeyframes>
               </CursorEffectBin>
              </Entry>
             </ExtraData>
            </ScreenVMFile>
            <MetaData>
             <entry key="AutoAppliedSmartFocus" val="False"/>
             <entry key="WinSubProjectDisplayName" val=""/>
            </MetaData>
           </UnifiedMedia>
           <UnifiedMedia id="1674"  >
            <AMFile id="1675" start="6024" duration="678" scalar="1/1" mediaStart="9410/1" mediaDuration="678/1" trackNumber="1" src="4" channelNumber="0,1" >
             <Parameters>
              <InterpolatingParam id="1676" interp="linr"  time="0/1" value="1" leadInLength="0/1"  name="volume"/>
              <Parameter id="1677"  name="captions"/>
             </Parameters>
             <Attributes>
              <Attribute id="1678" value="" name="ident"/>
              <Attribute id="1679" value="44100" name="sampleRate"/>
              <Attribute id="1680" value="16" name="bitDepth"/>
              <Attribute id="1681" value="1" name="gain"/>
              <Attribute id="1682" value="0" name="mixToMono"/>
             </Attributes>
            </AMFile>
            <ScreenVMFile id="1683" start="6024" duration="678" scalar="1/1" mediaStart="9410/1" mediaDuration="678/1" trackNumber="0" src="4" >
             <Transformer>
              <VectorParam id="1684"  name="translation">
               <InterpolatingParam id="1685" interp="linr"  time="-9999999/1" value="0" leadInLength="0/1"  />
               <InterpolatingParam id="1686" interp="linr"  time="-9999999/1" value="0" leadInLength="0/1"  />
               <InterpolatingParam id="1687" interp="linr"  time="-9999999/1" value="0" leadInLength="0/1"  />
              </VectorParam>
              <VectorParam id="1688"  name="rotation">
               <InterpolatingParam id="1689" interp="linr"  time="-9999999/1" value="0" leadInLength="0/1"  />
               <InterpolatingParam id="1690" interp="linr"  time="-9999999/1" value="0" leadInLength="0/1"  />
               <InterpolatingParam id="1691" interp="linr"  time="-9999999/1" value="0" leadInLength="0/1"  />
              </VectorParam>
              <VectorParam id="1692"  name="shear">
               <InterpolatingParam id="1693" interp="linr"  time="-9999999/1" value="0" leadInLength="0/1"  />
               <InterpolatingParam id="1694" interp="linr"  time="-9999999/1" value="0" leadInLength="0/1"  />
               <InterpolatingParam id="1695" interp="linr"  time="-9999999/1" value="0" leadInLength="0/1"  />
              </VectorParam>
              <VectorParam id="1696"  name="scale">
               <InterpolatingParam id="1697" interp="linr"  time="-9999999/1" value="1" leadInLength="0/1"  />
               <InterpolatingParam id="1698" interp="linr"  time="-9999999/1" value="1" leadInLength="0/1"  />
               <InterpolatingParam id="1699" interp="linr"  time="-9999999/1" value="1" leadInLength="0/1"  />
              </VectorParam>
              <VectorParam id="1700"  name="anchor">
               <InterpolatingParam id="1701" interp="linr"  time="0/1" value="0" leadInLength="0/1"  />
               <InterpolatingParam id="1702" interp="linr"  time="0/1" value="0" leadInLength="0/1"  />
               <InterpolatingParam id="1703" interp="linr"  time="0/1" value="0" leadInLength="0/1"  />
              </VectorParam>
             </Transformer>
             <Parameters>
              <VectorParam id="1704"  name="sourceCrop">
               <InterpolatingParam id="1705" interp="linr"  time="0/1" value="0" leadInLength="0/1"  />
               <InterpolatingParam id="1706" interp="linr"  time="0/1" value="0" leadInLength="0/1"  />
               <InterpolatingParam id="1707" interp="linr"  time="0/1" value="0" leadInLength="0/1"  />
               <InterpolatingParam id="1708" interp="linr"  time="0/1" value="0" leadInLength="0/1"  />
              </VectorParam>
              <VectorParam id="1709"  name="geometryCrop">
               <InterpolatingParam id="1710" interp="linr"  time="-9999999/1" value="0" leadInLength="0/1"  />
               <InterpolatingParam id="1711" interp="linr"  time="-9999999/1" value="0" leadInLength="0/1"  />
               <InterpolatingParam id="1712" interp="linr"  time="-9999999/1" value="0" leadInLength="0/1"  />
               <InterpolatingParam id="1713" interp="linr"  time="-9999999/1" value="0" leadInLength="0/1"  />
              </VectorParam>
              <InterpolatingParam id="1714" interp="linr"  time="-9999999/1" value="1" leadInLength="0/1"  name="opacity"/>
              <InterpolatingParam id="1715" interp="linr"  time="0/1" value="0" leadInLength="0/1"  name="cursorOpacity"/>
              <InterpolatingParam id="1716" interp="linr"  time="0/1" value="0" leadInLength="0/1"  name="cursorScale"/>
             </Parameters>
             <Attributes>
              <Attribute id="1717" value="" name="ident"/>
             </Attributes>
             <ExtraData>
              <Entry key="ZoomPanBin">
               <ZoomPanBin id="1718"  >
                <ZoomPanKeyframes>
                 <ZoomPanKeyframe id="1719" timeRangeEnd="-9999999/1" timeRangeDuration="0/1" interpolaterName=""  />
                </ZoomPanKeyframes>
               </ZoomPanBin>
              </Entry>
              <Entry key="CursorEffectBin">
               <CursorEffectBin id="1720"  >
                <CursorEffectKeyframes>
                </CursorEffectKeyframes>
               </CursorEffectBin>
              </Entry>
             </ExtraData>
            </ScreenVMFile>
            <MetaData>
             <entry key="AutoAppliedSmartFocus" val="False"/>
             <entry key="WinSubProjectDisplayName" val=""/>
            </MetaData>
           </UnifiedMedia>
           <UnifiedMedia id="1721"  >
            <AMFile id="1722" start="6702" duration="292" scalar="1/1" mediaStart="10101/1" mediaDuration="292/1" trackNumber="1" src="4" channelNumber="0,1" >
             <Parameters>
              <InterpolatingParam id="1723" interp="linr"  time="0/1" value="1" leadInLength="0/1"  name="volume"/>
              <Parameter id="1724"  name="captions"/>
             </Parameters>
             <Attributes>
              <Attribute id="1725" value="" name="ident"/>
              <Attribute id="1726" value="44100" name="sampleRate"/>
              <Attribute id="1727" value="16" name="bitDepth"/>
              <Attribute id="1728" value="1" name="gain"/>
              <Attribute id="1729" value="0" name="mixToMono"/>
             </Attributes>
            </AMFile>
            <ScreenVMFile id="1730" start="6702" duration="292" scalar="1/1" mediaStart="10101/1" mediaDuration="292/1" trackNumber="0" src="4" >
             <Transformer>
              <VectorParam id="1731"  name="translation">
               <InterpolatingParam id="1732" interp="linr"  time="-9999999/1" value="0" leadInLength="0/1"  />
               <InterpolatingParam id="1733" interp="linr"  time="-9999999/1" value="0" leadInLength="0/1"  />
               <InterpolatingParam id="1734" interp="linr"  time="-9999999/1" value="0" leadInLength="0/1"  />
              </VectorParam>
              <VectorParam id="1735"  name="rotation">
               <InterpolatingParam id="1736" interp="linr"  time="-9999999/1" value="0" leadInLength="0/1"  />
               <InterpolatingParam id="1737" interp="linr"  time="-9999999/1" value="0" leadInLength="0/1"  />
               <InterpolatingParam id="1738" interp="linr"  time="-9999999/1" value="0" leadInLength="0/1"  />
              </VectorParam>
              <VectorParam id="1739"  name="shear">
               <InterpolatingParam id="1740" interp="linr"  time="-9999999/1" value="0" leadInLength="0/1"  />
               <InterpolatingParam id="1741" interp="linr"  time="-9999999/1" value="0" leadInLength="0/1"  />
               <InterpolatingParam id="1742" interp="linr"  time="-9999999/1" value="0" leadInLength="0/1"  />
              </VectorParam>
              <VectorParam id="1743"  name="scale">
               <InterpolatingParam id="1744" interp="linr"  time="-9999999/1" value="1" leadInLength="0/1"  />
               <InterpolatingParam id="1745" interp="linr"  time="-9999999/1" value="1" leadInLength="0/1"  />
               <InterpolatingParam id="1746" interp="linr"  time="-9999999/1" value="1" leadInLength="0/1"  />
              </VectorParam>
              <VectorParam id="1747"  name="anchor">
               <InterpolatingParam id="1748" interp="linr"  time="0/1" value="0" leadInLength="0/1"  />
               <InterpolatingParam id="1749" interp="linr"  time="0/1" value="0" leadInLength="0/1"  />
               <InterpolatingParam id="1750" interp="linr"  time="0/1" value="0" leadInLength="0/1"  />
              </VectorParam>
             </Transformer>
             <Parameters>
              <VectorParam id="1751"  name="sourceCrop">
               <InterpolatingParam id="1752" interp="linr"  time="0/1" value="0" leadInLength="0/1"  />
               <InterpolatingParam id="1753" interp="linr"  time="0/1" value="0" leadInLength="0/1"  />
               <InterpolatingParam id="1754" interp="linr"  time="0/1" value="0" leadInLength="0/1"  />
               <InterpolatingParam id="1755" interp="linr"  time="0/1" value="0" leadInLength="0/1"  />
              </VectorParam>
              <VectorParam id="1756"  name="geometryCrop">
               <InterpolatingParam id="1757" interp="linr"  time="-9999999/1" value="0" leadInLength="0/1"  />
               <InterpolatingParam id="1758" interp="linr"  time="-9999999/1" value="0" leadInLength="0/1"  />
               <InterpolatingParam id="1759" interp="linr"  time="-9999999/1" value="0" leadInLength="0/1"  />
               <InterpolatingParam id="1760" interp="linr"  time="-9999999/1" value="0" leadInLength="0/1"  />
              </VectorParam>
              <InterpolatingParam id="1761" interp="linr"  time="-9999999/1" value="1" leadInLength="0/1"  name="opacity"/>
              <InterpolatingParam id="1762" interp="linr"  time="0/1" value="0" leadInLength="0/1"  name="cursorOpacity"/>
              <InterpolatingParam id="1763" interp="linr"  time="0/1" value="0" leadInLength="0/1"  name="cursorScale"/>
             </Parameters>
             <Attributes>
              <Attribute id="1764" value="" name="ident"/>
             </Attributes>
             <ExtraData>
              <Entry key="ZoomPanBin">
               <ZoomPanBin id="1765"  >
                <ZoomPanKeyframes>
                 <ZoomPanKeyframe id="1766" timeRangeEnd="-9999999/1" timeRangeDuration="0/1" interpolaterName=""  />
                </ZoomPanKeyframes>
               </ZoomPanBin>
              </Entry>
              <Entry key="CursorEffectBin">
               <CursorEffectBin id="1767"  >
                <CursorEffectKeyframes>
                </CursorEffectKeyframes>
               </CursorEffectBin>
              </Entry>
             </ExtraData>
            </ScreenVMFile>
            <MetaData>
             <entry key="AutoAppliedSmartFocus" val="False"/>
             <entry key="WinSubProjectDisplayName" val=""/>
            </MetaData>
           </UnifiedMedia>
           <UnifiedMedia id="1768"  >
            <AMFile id="1769" start="6994" duration="306" scalar="1/1" mediaStart="11049/1" mediaDuration="306/1" trackNumber="1" src="4" channelNumber="0,1" >
             <Parameters>
              <InterpolatingParam id="1770" interp="linr"  time="0/1" value="1" leadInLength="0/1"  name="volume"/>
              <Parameter id="1771"  name="captions"/>
             </Parameters>
             <Attributes>
              <Attribute id="1772" value="" name="ident"/>
              <Attribute id="1773" value="44100" name="sampleRate"/>
              <Attribute id="1774" value="16" name="bitDepth"/>
              <Attribute id="1775" value="1" name="gain"/>
              <Attribute id="1776" value="0" name="mixToMono"/>
             </Attributes>
            </AMFile>
            <ScreenVMFile id="1777" start="6994" duration="306" scalar="1/1" mediaStart="11049/1" mediaDuration="306/1" trackNumber="0" src="4" >
             <Transformer>
              <VectorParam id="1778"  name="translation">
               <InterpolatingParam id="1779" interp="linr"  time="-9999999/1" value="0" leadInLength="0/1"  />
               <InterpolatingParam id="1780" interp="linr"  time="-9999999/1" value="0" leadInLength="0/1"  />
               <InterpolatingParam id="1781" interp="linr"  time="-9999999/1" value="0" leadInLength="0/1"  />
              </VectorParam>
              <VectorParam id="1782"  name="rotation">
               <InterpolatingParam id="1783" interp="linr"  time="-9999999/1" value="0" leadInLength="0/1"  />
               <InterpolatingParam id="1784" interp="linr"  time="-9999999/1" value="0" leadInLength="0/1"  />
               <InterpolatingParam id="1785" interp="linr"  time="-9999999/1" value="0" leadInLength="0/1"  />
              </VectorParam>
              <VectorParam id="1786"  name="shear">
               <InterpolatingParam id="1787" interp="linr"  time="-9999999/1" value="0" leadInLength="0/1"  />
               <InterpolatingParam id="1788" interp="linr"  time="-9999999/1" value="0" leadInLength="0/1"  />
               <InterpolatingParam id="1789" interp="linr"  time="-9999999/1" value="0" leadInLength="0/1"  />
              </VectorParam>
              <VectorParam id="1790"  name="scale">
               <InterpolatingParam id="1791" interp="linr"  time="-9999999/1" value="1" leadInLength="0/1"  />
               <InterpolatingParam id="1792" interp="linr"  time="-9999999/1" value="1" leadInLength="0/1"  />
               <InterpolatingParam id="1793" interp="linr"  time="-9999999/1" value="1" leadInLength="0/1"  />
              </VectorParam>
              <VectorParam id="1794"  name="anchor">
               <InterpolatingParam id="1795" interp="linr"  time="0/1" value="0" leadInLength="0/1"  />
               <InterpolatingParam id="1796" interp="linr"  time="0/1" value="0" leadInLength="0/1"  />
               <InterpolatingParam id="1797" interp="linr"  time="0/1" value="0" leadInLength="0/1"  />
              </VectorParam>
             </Transformer>
             <Parameters>
              <VectorParam id="1798"  name="sourceCrop">
               <InterpolatingParam id="1799" interp="linr"  time="0/1" value="0" leadInLength="0/1"  />
               <InterpolatingParam id="1800" interp="linr"  time="0/1" value="0" leadInLength="0/1"  />
               <InterpolatingParam id="1801" interp="linr"  time="0/1" value="0" leadInLength="0/1"  />
               <InterpolatingParam id="1802" interp="linr"  time="0/1" value="0" leadInLength="0/1"  />
              </VectorParam>
              <VectorParam id="1803"  name="geometryCrop">
               <InterpolatingParam id="1804" interp="linr"  time="-9999999/1" value="0" leadInLength="0/1"  />
               <InterpolatingParam id="1805" interp="linr"  time="-9999999/1" value="0" leadInLength="0/1"  />
               <InterpolatingParam id="1806" interp="linr"  time="-9999999/1" value="0" leadInLength="0/1"  />
               <InterpolatingParam id="1807" interp="linr"  time="-9999999/1" value="0" leadInLength="0/1"  />
              </VectorParam>
              <InterpolatingParam id="1808" interp="linr"  time="-9999999/1" value="1" leadInLength="0/1"  name="opacity"/>
              <InterpolatingParam id="1809" interp="linr"  time="0/1" value="0" leadInLength="0/1"  name="cursorOpacity"/>
              <InterpolatingParam id="1810" interp="linr"  time="0/1" value="0" leadInLength="0/1"  name="cursorScale"/>
             </Parameters>
             <Attributes>
              <Attribute id="1811" value="" name="ident"/>
             </Attributes>
             <ExtraData>
              <Entry key="ZoomPanBin">
               <ZoomPanBin id="1812"  >
                <ZoomPanKeyframes>
                 <ZoomPanKeyframe id="1813" timeRangeEnd="-9999999/1" timeRangeDuration="0/1" interpolaterName=""  />
                </ZoomPanKeyframes>
               </ZoomPanBin>
              </Entry>
              <Entry key="CursorEffectBin">
               <CursorEffectBin id="1814"  >
                <CursorEffectKeyframes>
                </CursorEffectKeyframes>
               </CursorEffectBin>
              </Entry>
             </ExtraData>
            </ScreenVMFile>
            <MetaData>
             <entry key="AutoAppliedSmartFocus" val="False"/>
             <entry key="WinSubProjectDisplayName" val=""/>
            </MetaData>
           </UnifiedMedia>
           <UnifiedMedia id="1815"  >
            <AMFile id="1816" start="7300" duration="79" scalar="1/1" mediaStart="11363/1" mediaDuration="79/1" trackNumber="1" src="4" channelNumber="0,1" >
             <Parameters>
              <InterpolatingParam id="1817" interp="linr"  time="0/1" value="1" leadInLength="0/1"  name="volume"/>
              <Parameter id="1818"  name="captions"/>
             </Parameters>
             <Attributes>
              <Attribute id="1819" value="" name="ident"/>
              <Attribute id="1820" value="44100" name="sampleRate"/>
              <Attribute id="1821" value="16" name="bitDepth"/>
              <Attribute id="1822" value="1" name="gain"/>
              <Attribute id="1823" value="0" name="mixToMono"/>
             </Attributes>
            </AMFile>
            <ScreenVMFile id="1824" start="7300" duration="79" scalar="1/1" mediaStart="11363/1" mediaDuration="79/1" trackNumber="0" src="4" >
             <Transformer>
              <VectorParam id="1825"  name="translation">
               <InterpolatingParam id="1826" interp="linr"  time="-9999999/1" value="0" leadInLength="0/1"  />
               <InterpolatingParam id="1827" interp="linr"  time="-9999999/1" value="0" leadInLength="0/1"  />
               <InterpolatingParam id="1828" interp="linr"  time="-9999999/1" value="0" leadInLength="0/1"  />
              </VectorParam>
              <VectorParam id="1829"  name="rotation">
               <InterpolatingParam id="1830" interp="linr"  time="-9999999/1" value="0" leadInLength="0/1"  />
               <InterpolatingParam id="1831" interp="linr"  time="-9999999/1" value="0" leadInLength="0/1"  />
               <InterpolatingParam id="1832" interp="linr"  time="-9999999/1" value="0" leadInLength="0/1"  />
              </VectorParam>
              <VectorParam id="1833"  name="shear">
               <InterpolatingParam id="1834" interp="linr"  time="-9999999/1" value="0" leadInLength="0/1"  />
               <InterpolatingParam id="1835" interp="linr"  time="-9999999/1" value="0" leadInLength="0/1"  />
               <InterpolatingParam id="1836" interp="linr"  time="-9999999/1" value="0" leadInLength="0/1"  />
              </VectorParam>
              <VectorParam id="1837"  name="scale">
               <InterpolatingParam id="1838" interp="linr"  time="-9999999/1" value="1" leadInLength="0/1"  />
               <InterpolatingParam id="1839" interp="linr"  time="-9999999/1" value="1" leadInLength="0/1"  />
               <InterpolatingParam id="1840" interp="linr"  time="-9999999/1" value="1" leadInLength="0/1"  />
              </VectorParam>
              <VectorParam id="1841"  name="anchor">
               <InterpolatingParam id="1842" interp="linr"  time="0/1" value="0" leadInLength="0/1"  />
               <InterpolatingParam id="1843" interp="linr"  time="0/1" value="0" leadInLength="0/1"  />
               <InterpolatingParam id="1844" interp="linr"  time="0/1" value="0" leadInLength="0/1"  />
              </VectorParam>
             </Transformer>
             <Parameters>
              <VectorParam id="1845"  name="sourceCrop">
               <InterpolatingParam id="1846" interp="linr"  time="0/1" value="0" leadInLength="0/1"  />
               <InterpolatingParam id="1847" interp="linr"  time="0/1" value="0" leadInLength="0/1"  />
               <InterpolatingParam id="1848" interp="linr"  time="0/1" value="0" leadInLength="0/1"  />
               <InterpolatingParam id="1849" interp="linr"  time="0/1" value="0" leadInLength="0/1"  />
              </VectorParam>
              <VectorParam id="1850"  name="geometryCrop">
               <InterpolatingParam id="1851" interp="linr"  time="-9999999/1" value="0" leadInLength="0/1"  />
               <InterpolatingParam id="1852" interp="linr"  time="-9999999/1" value="0" leadInLength="0/1"  />
               <InterpolatingParam id="1853" interp="linr"  time="-9999999/1" value="0" leadInLength="0/1"  />
               <InterpolatingParam id="1854" interp="linr"  time="-9999999/1" value="0" leadInLength="0/1"  />
              </VectorParam>
              <InterpolatingParam id="1855" interp="linr"  time="-9999999/1" value="1" leadInLength="0/1"  name="opacity"/>
              <InterpolatingParam id="1856" interp="linr"  time="0/1" value="0" leadInLength="0/1"  name="cursorOpacity"/>
              <InterpolatingParam id="1857" interp="linr"  time="0/1" value="0" leadInLength="0/1"  name="cursorScale"/>
             </Parameters>
             <Attributes>
              <Attribute id="1858" value="" name="ident"/>
             </Attributes>
             <ExtraData>
              <Entry key="ZoomPanBin">
               <ZoomPanBin id="1859"  >
                <ZoomPanKeyframes>
                 <ZoomPanKeyframe id="1860" timeRangeEnd="-9999999/1" timeRangeDuration="0/1" interpolaterName=""  />
                </ZoomPanKeyframes>
               </ZoomPanBin>
              </Entry>
              <Entry key="CursorEffectBin">
               <CursorEffectBin id="1861"  >
                <CursorEffectKeyframes>
                </CursorEffectKeyframes>
               </CursorEffectBin>
              </Entry>
             </ExtraData>
            </ScreenVMFile>
            <MetaData>
             <entry key="AutoAppliedSmartFocus" val="False"/>
             <entry key="WinSubProjectDisplayName" val=""/>
            </MetaData>
           </UnifiedMedia>
           <UnifiedMedia id="1862"  >
            <AMFile id="1863" start="7379" duration="222" scalar="1/1" mediaStart="11554/1" mediaDuration="222/1" trackNumber="1" src="4" channelNumber="0,1" >
             <Parameters>
              <InterpolatingParam id="1864" interp="linr"  time="0/1" value="1" leadInLength="0/1"  name="volume"/>
              <Parameter id="1865"  name="captions"/>
             </Parameters>
             <Attributes>
              <Attribute id="1866" value="" name="ident"/>
              <Attribute id="1867" value="44100" name="sampleRate"/>
              <Attribute id="1868" value="16" name="bitDepth"/>
              <Attribute id="1869" value="1" name="gain"/>
              <Attribute id="1870" value="0" name="mixToMono"/>
             </Attributes>
            </AMFile>
            <ScreenVMFile id="1871" start="7379" duration="222" scalar="1/1" mediaStart="11554/1" mediaDuration="222/1" trackNumber="0" src="4" >
             <Transformer>
              <VectorParam id="1872"  name="translation">
               <InterpolatingParam id="1873" interp="linr"  time="-9999999/1" value="0" leadInLength="0/1"  />
               <InterpolatingParam id="1874" interp="linr"  time="-9999999/1" value="0" leadInLength="0/1"  />
               <InterpolatingParam id="1875" interp="linr"  time="-9999999/1" value="0" leadInLength="0/1"  />
              </VectorParam>
              <VectorParam id="1876"  name="rotation">
               <InterpolatingParam id="1877" interp="linr"  time="-9999999/1" value="0" leadInLength="0/1"  />
               <InterpolatingParam id="1878" interp="linr"  time="-9999999/1" value="0" leadInLength="0/1"  />
               <InterpolatingParam id="1879" interp="linr"  time="-9999999/1" value="0" leadInLength="0/1"  />
              </VectorParam>
              <VectorParam id="1880"  name="shear">
               <InterpolatingParam id="1881" interp="linr"  time="-9999999/1" value="0" leadInLength="0/1"  />
               <InterpolatingParam id="1882" interp="linr"  time="-9999999/1" value="0" leadInLength="0/1"  />
               <InterpolatingParam id="1883" interp="linr"  time="-9999999/1" value="0" leadInLength="0/1"  />
              </VectorParam>
              <VectorParam id="1884"  name="scale">
               <InterpolatingParam id="1885" interp="linr"  time="-9999999/1" value="1" leadInLength="0/1"  />
               <InterpolatingParam id="1886" interp="linr"  time="-9999999/1" value="1" leadInLength="0/1"  />
               <InterpolatingParam id="1887" interp="linr"  time="-9999999/1" value="1" leadInLength="0/1"  />
              </VectorParam>
              <VectorParam id="1888"  name="anchor">
               <InterpolatingParam id="1889" interp="linr"  time="0/1" value="0" leadInLength="0/1"  />
               <InterpolatingParam id="1890" interp="linr"  time="0/1" value="0" leadInLength="0/1"  />
               <InterpolatingParam id="1891" interp="linr"  time="0/1" value="0" leadInLength="0/1"  />
              </VectorParam>
             </Transformer>
             <Parameters>
              <VectorParam id="1892"  name="sourceCrop">
               <InterpolatingParam id="1893" interp="linr"  time="0/1" value="0" leadInLength="0/1"  />
               <InterpolatingParam id="1894" interp="linr"  time="0/1" value="0" leadInLength="0/1"  />
               <InterpolatingParam id="1895" interp="linr"  time="0/1" value="0" leadInLength="0/1"  />
               <InterpolatingParam id="1896" interp="linr"  time="0/1" value="0" leadInLength="0/1"  />
              </VectorParam>
              <VectorParam id="1897"  name="geometryCrop">
               <InterpolatingParam id="1898" interp="linr"  time="-9999999/1" value="0" leadInLength="0/1"  />
               <InterpolatingParam id="1899" interp="linr"  time="-9999999/1" value="0" leadInLength="0/1"  />
               <InterpolatingParam id="1900" interp="linr"  time="-9999999/1" value="0" leadInLength="0/1"  />
               <InterpolatingParam id="1901" interp="linr"  time="-9999999/1" value="0" leadInLength="0/1"  />
              </VectorParam>
              <InterpolatingParam id="1902" interp="linr"  time="-9999999/1" value="1" leadInLength="0/1"  name="opacity"/>
              <InterpolatingParam id="1903" interp="linr"  time="0/1" value="0" leadInLength="0/1"  name="cursorOpacity"/>
              <InterpolatingParam id="1904" interp="linr"  time="0/1" value="0" leadInLength="0/1"  name="cursorScale"/>
             </Parameters>
             <Attributes>
              <Attribute id="1905" value="" name="ident"/>
             </Attributes>
             <ExtraData>
              <Entry key="ZoomPanBin">
               <ZoomPanBin id="1906"  >
                <ZoomPanKeyframes>
                 <ZoomPanKeyframe id="1907" timeRangeEnd="-9999999/1" timeRangeDuration="0/1" interpolaterName=""  />
                </ZoomPanKeyframes>
               </ZoomPanBin>
              </Entry>
              <Entry key="CursorEffectBin">
               <CursorEffectBin id="1908"  >
                <CursorEffectKeyframes>
                </CursorEffectKeyframes>
               </CursorEffectBin>
              </Entry>
             </ExtraData>
            </ScreenVMFile>
            <MetaData>
             <entry key="AutoAppliedSmartFocus" val="False"/>
             <entry key="WinSubProjectDisplayName" val=""/>
            </MetaData>
           </UnifiedMedia>
           <UnifiedMedia id="1909"  >
            <AMFile id="1910" start="7601" duration="438" scalar="1/1" mediaStart="11918/1" mediaDuration="438/1" trackNumber="1" src="4" channelNumber="0,1" >
             <Parameters>
              <InterpolatingParam id="1911" interp="linr"  time="0/1" value="1" leadInLength="0/1"  name="volume"/>
              <Parameter id="1912"  name="captions"/>
             </Parameters>
             <Attributes>
              <Attribute id="1913" value="" name="ident"/>
              <Attribute id="1914" value="44100" name="sampleRate"/>
              <Attribute id="1915" value="16" name="bitDepth"/>
              <Attribute id="1916" value="1" name="gain"/>
              <Attribute id="1917" value="0" name="mixToMono"/>
             </Attributes>
            </AMFile>
            <ScreenVMFile id="1918" start="7601" duration="438" scalar="1/1" mediaStart="11918/1" mediaDuration="438/1" trackNumber="0" src="4" >
             <Transformer>
              <VectorParam id="1919"  name="translation">
               <InterpolatingParam id="1920" interp="linr"  time="-9999999/1" value="0" leadInLength="0/1"  />
               <InterpolatingParam id="1921" interp="linr"  time="-9999999/1" value="0" leadInLength="0/1"  />
               <InterpolatingParam id="1922" interp="linr"  time="-9999999/1" value="0" leadInLength="0/1"  />
              </VectorParam>
              <VectorParam id="1923"  name="rotation">
               <InterpolatingParam id="1924" interp="linr"  time="-9999999/1" value="0" leadInLength="0/1"  />
               <InterpolatingParam id="1925" interp="linr"  time="-9999999/1" value="0" leadInLength="0/1"  />
               <InterpolatingParam id="1926" interp="linr"  time="-9999999/1" value="0" leadInLength="0/1"  />
              </VectorParam>
              <VectorParam id="1927"  name="shear">
               <InterpolatingParam id="1928" interp="linr"  time="-9999999/1" value="0" leadInLength="0/1"  />
               <InterpolatingParam id="1929" interp="linr"  time="-9999999/1" value="0" leadInLength="0/1"  />
               <InterpolatingParam id="1930" interp="linr"  time="-9999999/1" value="0" leadInLength="0/1"  />
              </VectorParam>
              <VectorParam id="1931"  name="scale">
               <InterpolatingParam id="1932" interp="linr"  time="-9999999/1" value="1" leadInLength="0/1"  />
               <InterpolatingParam id="1933" interp="linr"  time="-9999999/1" value="1" leadInLength="0/1"  />
               <InterpolatingParam id="1934" interp="linr"  time="-9999999/1" value="1" leadInLength="0/1"  />
              </VectorParam>
              <VectorParam id="1935"  name="anchor">
               <InterpolatingParam id="1936" interp="linr"  time="0/1" value="0" leadInLength="0/1"  />
               <InterpolatingParam id="1937" interp="linr"  time="0/1" value="0" leadInLength="0/1"  />
               <InterpolatingParam id="1938" interp="linr"  time="0/1" value="0" leadInLength="0/1"  />
              </VectorParam>
             </Transformer>
             <Parameters>
              <VectorParam id="1939"  name="sourceCrop">
               <InterpolatingParam id="1940" interp="linr"  time="0/1" value="0" leadInLength="0/1"  />
               <InterpolatingParam id="1941" interp="linr"  time="0/1" value="0" leadInLength="0/1"  />
               <InterpolatingParam id="1942" interp="linr"  time="0/1" value="0" leadInLength="0/1"  />
               <InterpolatingParam id="1943" interp="linr"  time="0/1" value="0" leadInLength="0/1"  />
              </VectorParam>
              <VectorParam id="1944"  name="geometryCrop">
               <InterpolatingParam id="1945" interp="linr"  time="-9999999/1" value="0" leadInLength="0/1"  />
               <InterpolatingParam id="1946" interp="linr"  time="-9999999/1" value="0" leadInLength="0/1"  />
               <InterpolatingParam id="1947" interp="linr"  time="-9999999/1" value="0" leadInLength="0/1"  />
               <InterpolatingParam id="1948" interp="linr"  time="-9999999/1" value="0" leadInLength="0/1"  />
              </VectorParam>
              <InterpolatingParam id="1949" interp="linr"  time="-9999999/1" value="1" leadInLength="0/1"  name="opacity"/>
              <InterpolatingParam id="1950" interp="linr"  time="0/1" value="0" leadInLength="0/1"  name="cursorOpacity"/>
              <InterpolatingParam id="1951" interp="linr"  time="0/1" value="0" leadInLength="0/1"  name="cursorScale"/>
             </Parameters>
             <Attributes>
              <Attribute id="1952" value="" name="ident"/>
             </Attributes>
             <ExtraData>
              <Entry key="ZoomPanBin">
               <ZoomPanBin id="1953"  >
                <ZoomPanKeyframes>
                 <ZoomPanKeyframe id="1954" timeRangeEnd="-9999999/1" timeRangeDuration="0/1" interpolaterName=""  />
                </ZoomPanKeyframes>
               </ZoomPanBin>
              </Entry>
              <Entry key="CursorEffectBin">
               <CursorEffectBin id="1955"  >
                <CursorEffectKeyframes>
                </CursorEffectKeyframes>
               </CursorEffectBin>
              </Entry>
             </ExtraData>
            </ScreenVMFile>
            <MetaData>
             <entry key="AutoAppliedSmartFocus" val="False"/>
             <entry key="WinSubProjectDisplayName" val=""/>
            </MetaData>
           </UnifiedMedia>
           <UnifiedMedia id="1956"  >
            <AMFile id="1957" start="8039" duration="121" scalar="1/1" mediaStart="12435/1" mediaDuration="121/1" trackNumber="1" src="4" channelNumber="0,1" >
             <Parameters>
              <InterpolatingParam id="1958" interp="linr"  time="0/1" value="1" leadInLength="0/1"  name="volume"/>
              <Parameter id="1959"  name="captions"/>
             </Parameters>
             <Attributes>
              <Attribute id="1960" value="" name="ident"/>
              <Attribute id="1961" value="44100" name="sampleRate"/>
              <Attribute id="1962" value="16" name="bitDepth"/>
              <Attribute id="1963" value="1" name="gain"/>
              <Attribute id="1964" value="0" name="mixToMono"/>
             </Attributes>
            </AMFile>
            <ScreenVMFile id="1965" start="8039" duration="121" scalar="1/1" mediaStart="12435/1" mediaDuration="121/1" trackNumber="0" src="4" >
             <Transformer>
              <VectorParam id="1966"  name="translation">
               <InterpolatingParam id="1967" interp="linr"  time="-9999999/1" value="0" leadInLength="0/1"  />
               <InterpolatingParam id="1968" interp="linr"  time="-9999999/1" value="0" leadInLength="0/1"  />
               <InterpolatingParam id="1969" interp="linr"  time="-9999999/1" value="0" leadInLength="0/1"  />
              </VectorParam>
              <VectorParam id="1970"  name="rotation">
               <InterpolatingParam id="1971" interp="linr"  time="-9999999/1" value="0" leadInLength="0/1"  />
               <InterpolatingParam id="1972" interp="linr"  time="-9999999/1" value="0" leadInLength="0/1"  />
               <InterpolatingParam id="1973" interp="linr"  time="-9999999/1" value="0" leadInLength="0/1"  />
              </VectorParam>
              <VectorParam id="1974"  name="shear">
               <InterpolatingParam id="1975" interp="linr"  time="-9999999/1" value="0" leadInLength="0/1"  />
               <InterpolatingParam id="1976" interp="linr"  time="-9999999/1" value="0" leadInLength="0/1"  />
               <InterpolatingParam id="1977" interp="linr"  time="-9999999/1" value="0" leadInLength="0/1"  />
              </VectorParam>
              <VectorParam id="1978"  name="scale">
               <InterpolatingParam id="1979" interp="linr"  time="-9999999/1" value="1" leadInLength="0/1"  />
               <InterpolatingParam id="1980" interp="linr"  time="-9999999/1" value="1" leadInLength="0/1"  />
               <InterpolatingParam id="1981" interp="linr"  time="-9999999/1" value="1" leadInLength="0/1"  />
              </VectorParam>
              <VectorParam id="1982"  name="anchor">
               <InterpolatingParam id="1983" interp="linr"  time="0/1" value="0" leadInLength="0/1"  />
               <InterpolatingParam id="1984" interp="linr"  time="0/1" value="0" leadInLength="0/1"  />
               <InterpolatingParam id="1985" interp="linr"  time="0/1" value="0" leadInLength="0/1"  />
              </VectorParam>
             </Transformer>
             <Parameters>
              <VectorParam id="1986"  name="sourceCrop">
               <InterpolatingParam id="1987" interp="linr"  time="0/1" value="0" leadInLength="0/1"  />
               <InterpolatingParam id="1988" interp="linr"  time="0/1" value="0" leadInLength="0/1"  />
               <InterpolatingParam id="1989" interp="linr"  time="0/1" value="0" leadInLength="0/1"  />
               <InterpolatingParam id="1990" interp="linr"  time="0/1" value="0" leadInLength="0/1"  />
              </VectorParam>
              <VectorParam id="1991"  name="geometryCrop">
               <InterpolatingParam id="1992" interp="linr"  time="-9999999/1" value="0" leadInLength="0/1"  />
               <InterpolatingParam id="1993" interp="linr"  time="-9999999/1" value="0" leadInLength="0/1"  />
               <InterpolatingParam id="1994" interp="linr"  time="-9999999/1" value="0" leadInLength="0/1"  />
               <InterpolatingParam id="1995" interp="linr"  time="-9999999/1" value="0" leadInLength="0/1"  />
              </VectorParam>
              <InterpolatingParam id="1996" interp="linr"  time="-9999999/1" value="1" leadInLength="0/1"  name="opacity"/>
              <InterpolatingParam id="1997" interp="linr"  time="0/1" value="0" leadInLength="0/1"  name="cursorOpacity"/>
              <InterpolatingParam id="1998" interp="linr"  time="0/1" value="0" leadInLength="0/1"  name="cursorScale"/>
             </Parameters>
             <Attributes>
              <Attribute id="1999" value="" name="ident"/>
             </Attributes>
             <ExtraData>
              <Entry key="ZoomPanBin">
               <ZoomPanBin id="2000"  >
                <ZoomPanKeyframes>
                 <ZoomPanKeyframe id="2001" timeRangeEnd="-9999999/1" timeRangeDuration="0/1" interpolaterName=""  />
                </ZoomPanKeyframes>
               </ZoomPanBin>
              </Entry>
              <Entry key="CursorEffectBin">
               <CursorEffectBin id="2002"  >
                <CursorEffectKeyframes>
                </CursorEffectKeyframes>
               </CursorEffectBin>
              </Entry>
             </ExtraData>
            </ScreenVMFile>
            <MetaData>
             <entry key="AutoAppliedSmartFocus" val="False"/>
             <entry key="WinSubProjectDisplayName" val=""/>
            </MetaData>
           </UnifiedMedia>
           <UnifiedMedia id="2003"  >
            <AMFile id="2004" start="8160" duration="7" scalar="1/1" mediaStart="12837/1" mediaDuration="7/1" trackNumber="1" src="4" channelNumber="0,1" >
             <Parameters>
              <InterpolatingParam id="2005" interp="linr"  time="0/1" value="1" leadInLength="0/1"  name="volume"/>
              <Parameter id="2006"  name="captions"/>
             </Parameters>
             <Attributes>
              <Attribute id="2007" value="" name="ident"/>
              <Attribute id="2008" value="44100" name="sampleRate"/>
              <Attribute id="2009" value="16" name="bitDepth"/>
              <Attribute id="2010" value="1" name="gain"/>
              <Attribute id="2011" value="0" name="mixToMono"/>
             </Attributes>
            </AMFile>
            <ScreenVMFile id="2012" start="8160" duration="7" scalar="1/1" mediaStart="12837/1" mediaDuration="7/1" trackNumber="0" src="4" >
             <Transformer>
              <VectorParam id="2013"  name="translation">
               <InterpolatingParam id="2014" interp="linr"  time="-9999999/1" value="0" leadInLength="0/1"  />
               <InterpolatingParam id="2015" interp="linr"  time="-9999999/1" value="0" leadInLength="0/1"  />
               <InterpolatingParam id="2016" interp="linr"  time="-9999999/1" value="0" leadInLength="0/1"  />
              </VectorParam>
              <VectorParam id="2017"  name="rotation">
               <InterpolatingParam id="2018" interp="linr"  time="-9999999/1" value="0" leadInLength="0/1"  />
               <InterpolatingParam id="2019" interp="linr"  time="-9999999/1" value="0" leadInLength="0/1"  />
               <InterpolatingParam id="2020" interp="linr"  time="-9999999/1" value="0" leadInLength="0/1"  />
              </VectorParam>
              <VectorParam id="2021"  name="shear">
               <InterpolatingParam id="2022" interp="linr"  time="-9999999/1" value="0" leadInLength="0/1"  />
               <InterpolatingParam id="2023" interp="linr"  time="-9999999/1" value="0" leadInLength="0/1"  />
               <InterpolatingParam id="2024" interp="linr"  time="-9999999/1" value="0" leadInLength="0/1"  />
              </VectorParam>
              <VectorParam id="2025"  name="scale">
               <InterpolatingParam id="2026" interp="linr"  time="-9999999/1" value="1" leadInLength="0/1"  />
               <InterpolatingParam id="2027" interp="linr"  time="-9999999/1" value="1" leadInLength="0/1"  />
               <InterpolatingParam id="2028" interp="linr"  time="-9999999/1" value="1" leadInLength="0/1"  />
              </VectorParam>
              <VectorParam id="2029"  name="anchor">
               <InterpolatingParam id="2030" interp="linr"  time="0/1" value="0" leadInLength="0/1"  />
               <InterpolatingParam id="2031" interp="linr"  time="0/1" value="0" leadInLength="0/1"  />
               <InterpolatingParam id="2032" interp="linr"  time="0/1" value="0" leadInLength="0/1"  />
              </VectorParam>
             </Transformer>
             <Parameters>
              <VectorParam id="2033"  name="sourceCrop">
               <InterpolatingParam id="2034" interp="linr"  time="0/1" value="0" leadInLength="0/1"  />
               <InterpolatingParam id="2035" interp="linr"  time="0/1" value="0" leadInLength="0/1"  />
               <InterpolatingParam id="2036" interp="linr"  time="0/1" value="0" leadInLength="0/1"  />
               <InterpolatingParam id="2037" interp="linr"  time="0/1" value="0" leadInLength="0/1"  />
              </VectorParam>
              <VectorParam id="2038"  name="geometryCrop">
               <InterpolatingParam id="2039" interp="linr"  time="-9999999/1" value="0" leadInLength="0/1"  />
               <InterpolatingParam id="2040" interp="linr"  time="-9999999/1" value="0" leadInLength="0/1"  />
               <InterpolatingParam id="2041" interp="linr"  time="-9999999/1" value="0" leadInLength="0/1"  />
               <InterpolatingParam id="2042" interp="linr"  time="-9999999/1" value="0" leadInLength="0/1"  />
              </VectorParam>
              <InterpolatingParam id="2043" interp="linr"  time="-9999999/1" value="1" leadInLength="0/1"  name="opacity"/>
              <InterpolatingParam id="2044" interp="linr"  time="0/1" value="0" leadInLength="0/1"  name="cursorOpacity"/>
              <InterpolatingParam id="2045" interp="linr"  time="0/1" value="0" leadInLength="0/1"  name="cursorScale"/>
             </Parameters>
             <Attributes>
              <Attribute id="2046" value="" name="ident"/>
             </Attributes>
             <ExtraData>
              <Entry key="ZoomPanBin">
               <ZoomPanBin id="2047"  >
                <ZoomPanKeyframes>
                 <ZoomPanKeyframe id="2048" timeRangeEnd="-9999999/1" timeRangeDuration="0/1" interpolaterName=""  />
                </ZoomPanKeyframes>
               </ZoomPanBin>
              </Entry>
              <Entry key="CursorEffectBin">
               <CursorEffectBin id="2049"  >
                <CursorEffectKeyframes>
                </CursorEffectKeyframes>
               </CursorEffectBin>
              </Entry>
             </ExtraData>
            </ScreenVMFile>
            <MetaData>
             <entry key="AutoAppliedSmartFocus" val="False"/>
             <entry key="WinSubProjectDisplayName" val=""/>
            </MetaData>
           </UnifiedMedia>
           <UnifiedMedia id="2050"  >
            <AMFile id="2051" start="8167" duration="176" scalar="1/1" mediaStart="13252/1" mediaDuration="176/1" trackNumber="1" src="4" channelNumber="0,1" >
             <Parameters>
              <InterpolatingParam id="2052" interp="linr"  time="0/1" value="1" leadInLength="0/1"  name="volume"/>
              <Parameter id="2053"  name="captions"/>
             </Parameters>
             <Attributes>
              <Attribute id="2054" value="" name="ident"/>
              <Attribute id="2055" value="44100" name="sampleRate"/>
              <Attribute id="2056" value="16" name="bitDepth"/>
              <Attribute id="2057" value="1" name="gain"/>
              <Attribute id="2058" value="0" name="mixToMono"/>
             </Attributes>
            </AMFile>
            <ScreenVMFile id="2059" start="8167" duration="176" scalar="1/1" mediaStart="13252/1" mediaDuration="176/1" trackNumber="0" src="4" >
             <Transformer>
              <VectorParam id="2060"  name="translation">
               <InterpolatingParam id="2061" interp="linr"  time="-9999999/1" value="0" leadInLength="0/1"  />
               <InterpolatingParam id="2062" interp="linr"  time="-9999999/1" value="0" leadInLength="0/1"  />
               <InterpolatingParam id="2063" interp="linr"  time="-9999999/1" value="0" leadInLength="0/1"  />
              </VectorParam>
              <VectorParam id="2064"  name="rotation">
               <InterpolatingParam id="2065" interp="linr"  time="-9999999/1" value="0" leadInLength="0/1"  />
               <InterpolatingParam id="2066" interp="linr"  time="-9999999/1" value="0" leadInLength="0/1"  />
               <InterpolatingParam id="2067" interp="linr"  time="-9999999/1" value="0" leadInLength="0/1"  />
              </VectorParam>
              <VectorParam id="2068"  name="shear">
               <InterpolatingParam id="2069" interp="linr"  time="-9999999/1" value="0" leadInLength="0/1"  />
               <InterpolatingParam id="2070" interp="linr"  time="-9999999/1" value="0" leadInLength="0/1"  />
               <InterpolatingParam id="2071" interp="linr"  time="-9999999/1" value="0" leadInLength="0/1"  />
              </VectorParam>
              <VectorParam id="2072"  name="scale">
               <InterpolatingParam id="2073" interp="linr"  time="-9999999/1" value="1" leadInLength="0/1"  />
               <InterpolatingParam id="2074" interp="linr"  time="-9999999/1" value="1" leadInLength="0/1"  />
               <InterpolatingParam id="2075" interp="linr"  time="-9999999/1" value="1" leadInLength="0/1"  />
              </VectorParam>
              <VectorParam id="2076"  name="anchor">
               <InterpolatingParam id="2077" interp="linr"  time="0/1" value="0" leadInLength="0/1"  />
               <InterpolatingParam id="2078" interp="linr"  time="0/1" value="0" leadInLength="0/1"  />
               <InterpolatingParam id="2079" interp="linr"  time="0/1" value="0" leadInLength="0/1"  />
              </VectorParam>
             </Transformer>
             <Parameters>
              <VectorParam id="2080"  name="sourceCrop">
               <InterpolatingParam id="2081" interp="linr"  time="0/1" value="0" leadInLength="0/1"  />
               <InterpolatingParam id="2082" interp="linr"  time="0/1" value="0" leadInLength="0/1"  />
               <InterpolatingParam id="2083" interp="linr"  time="0/1" value="0" leadInLength="0/1"  />
               <InterpolatingParam id="2084" interp="linr"  time="0/1" value="0" leadInLength="0/1"  />
              </VectorParam>
              <VectorParam id="2085"  name="geometryCrop">
               <InterpolatingParam id="2086" interp="linr"  time="-9999999/1" value="0" leadInLength="0/1"  />
               <InterpolatingParam id="2087" interp="linr"  time="-9999999/1" value="0" leadInLength="0/1"  />
               <InterpolatingParam id="2088" interp="linr"  time="-9999999/1" value="0" leadInLength="0/1"  />
               <InterpolatingParam id="2089" interp="linr"  time="-9999999/1" value="0" leadInLength="0/1"  />
              </VectorParam>
              <InterpolatingParam id="2090" interp="linr"  time="-9999999/1" value="1" leadInLength="0/1"  name="opacity"/>
              <InterpolatingParam id="2091" interp="linr"  time="0/1" value="0" leadInLength="0/1"  name="cursorOpacity"/>
              <InterpolatingParam id="2092" interp="linr"  time="0/1" value="0" leadInLength="0/1"  name="cursorScale"/>
             </Parameters>
             <Attributes>
              <Attribute id="2093" value="" name="ident"/>
             </Attributes>
             <ExtraData>
              <Entry key="ZoomPanBin">
               <ZoomPanBin id="2094"  >
                <ZoomPanKeyframes>
                 <ZoomPanKeyframe id="2095" timeRangeEnd="-9999999/1" timeRangeDuration="0/1" interpolaterName=""  />
                </ZoomPanKeyframes>
               </ZoomPanBin>
              </Entry>
              <Entry key="CursorEffectBin">
               <CursorEffectBin id="2096"  >
                <CursorEffectKeyframes>
                </CursorEffectKeyframes>
               </CursorEffectBin>
              </Entry>
             </ExtraData>
            </ScreenVMFile>
            <MetaData>
             <entry key="AutoAppliedSmartFocus" val="False"/>
             <entry key="WinSubProjectDisplayName" val=""/>
            </MetaData>
           </UnifiedMedia>
           <UnifiedMedia id="2097"  >
            <AMFile id="2098" start="8343" duration="411" scalar="1/1" mediaStart="13785/1" mediaDuration="411/1" trackNumber="1" src="4" channelNumber="0,1" >
             <Parameters>
              <InterpolatingParam id="2099" interp="linr"  time="0/1" value="1" leadInLength="0/1"  name="volume"/>
              <Parameter id="2100"  name="captions"/>
             </Parameters>
             <Attributes>
              <Attribute id="2101" value="" name="ident"/>
              <Attribute id="2102" value="44100" name="sampleRate"/>
              <Attribute id="2103" value="16" name="bitDepth"/>
              <Attribute id="2104" value="1" name="gain"/>
              <Attribute id="2105" value="0" name="mixToMono"/>
             </Attributes>
            </AMFile>
            <ScreenVMFile id="2106" start="8343" duration="411" scalar="1/1" mediaStart="13785/1" mediaDuration="411/1" trackNumber="0" src="4" >
             <Transformer>
              <VectorParam id="2107"  name="translation">
               <InterpolatingParam id="2108" interp="linr"  time="-9999999/1" value="0" leadInLength="0/1"  />
               <InterpolatingParam id="2109" interp="linr"  time="-9999999/1" value="0" leadInLength="0/1"  />
               <InterpolatingParam id="2110" interp="linr"  time="-9999999/1" value="0" leadInLength="0/1"  />
              </VectorParam>
              <VectorParam id="2111"  name="rotation">
               <InterpolatingParam id="2112" interp="linr"  time="-9999999/1" value="0" leadInLength="0/1"  />
               <InterpolatingParam id="2113" interp="linr"  time="-9999999/1" value="0" leadInLength="0/1"  />
               <InterpolatingParam id="2114" interp="linr"  time="-9999999/1" value="0" leadInLength="0/1"  />
              </VectorParam>
              <VectorParam id="2115"  name="shear">
               <InterpolatingParam id="2116" interp="linr"  time="-9999999/1" value="0" leadInLength="0/1"  />
               <InterpolatingParam id="2117" interp="linr"  time="-9999999/1" value="0" leadInLength="0/1"  />
               <InterpolatingParam id="2118" interp="linr"  time="-9999999/1" value="0" leadInLength="0/1"  />
              </VectorParam>
              <VectorParam id="2119"  name="scale">
               <InterpolatingParam id="2120" interp="linr"  time="-9999999/1" value="1" leadInLength="0/1"  />
               <InterpolatingParam id="2121" interp="linr"  time="-9999999/1" value="1" leadInLength="0/1"  />
               <InterpolatingParam id="2122" interp="linr"  time="-9999999/1" value="1" leadInLength="0/1"  />
              </VectorParam>
              <VectorParam id="2123"  name="anchor">
               <InterpolatingParam id="2124" interp="linr"  time="0/1" value="0" leadInLength="0/1"  />
               <InterpolatingParam id="2125" interp="linr"  time="0/1" value="0" leadInLength="0/1"  />
               <InterpolatingParam id="2126" interp="linr"  time="0/1" value="0" leadInLength="0/1"  />
              </VectorParam>
             </Transformer>
             <Parameters>
              <VectorParam id="2127"  name="sourceCrop">
               <InterpolatingParam id="2128" interp="linr"  time="0/1" value="0" leadInLength="0/1"  />
               <InterpolatingParam id="2129" interp="linr"  time="0/1" value="0" leadInLength="0/1"  />
               <InterpolatingParam id="2130" interp="linr"  time="0/1" value="0" leadInLength="0/1"  />
               <InterpolatingParam id="2131" interp="linr"  time="0/1" value="0" leadInLength="0/1"  />
              </VectorParam>
              <VectorParam id="2132"  name="geometryCrop">
               <InterpolatingParam id="2133" interp="linr"  time="-9999999/1" value="0" leadInLength="0/1"  />
               <InterpolatingParam id="2134" interp="linr"  time="-9999999/1" value="0" leadInLength="0/1"  />
               <InterpolatingParam id="2135" interp="linr"  time="-9999999/1" value="0" leadInLength="0/1"  />
               <InterpolatingParam id="2136" interp="linr"  time="-9999999/1" value="0" leadInLength="0/1"  />
              </VectorParam>
              <InterpolatingParam id="2137" interp="linr"  time="-9999999/1" value="1" leadInLength="0/1"  name="opacity"/>
              <InterpolatingParam id="2138" interp="linr"  time="0/1" value="0" leadInLength="0/1"  name="cursorOpacity"/>
              <InterpolatingParam id="2139" interp="linr"  time="0/1" value="0" leadInLength="0/1"  name="cursorScale"/>
             </Parameters>
             <Attributes>
              <Attribute id="2140" value="" name="ident"/>
             </Attributes>
             <ExtraData>
              <Entry key="ZoomPanBin">
               <ZoomPanBin id="2141"  >
                <ZoomPanKeyframes>
                 <ZoomPanKeyframe id="2142" timeRangeEnd="-9999999/1" timeRangeDuration="0/1" interpolaterName=""  />
                </ZoomPanKeyframes>
               </ZoomPanBin>
              </Entry>
              <Entry key="CursorEffectBin">
               <CursorEffectBin id="2143"  >
                <CursorEffectKeyframes>
                </CursorEffectKeyframes>
               </CursorEffectBin>
              </Entry>
             </ExtraData>
            </ScreenVMFile>
            <MetaData>
             <entry key="AutoAppliedSmartFocus" val="False"/>
             <entry key="WinSubProjectDisplayName" val=""/>
            </MetaData>
           </UnifiedMedia>
           <UnifiedMedia id="2144"  >
            <AMFile id="2145" start="8754" duration="274" scalar="1/1" mediaStart="14342/1" mediaDuration="274/1" trackNumber="1" src="4" channelNumber="0,1" >
             <Parameters>
              <InterpolatingParam id="2146" interp="linr"  time="0/1" value="1" leadInLength="0/1"  name="volume"/>
              <Parameter id="2147"  name="captions"/>
             </Parameters>
             <Attributes>
              <Attribute id="2148" value="" name="ident"/>
              <Attribute id="2149" value="44100" name="sampleRate"/>
              <Attribute id="2150" value="16" name="bitDepth"/>
              <Attribute id="2151" value="1" name="gain"/>
              <Attribute id="2152" value="0" name="mixToMono"/>
             </Attributes>
            </AMFile>
            <ScreenVMFile id="2153" start="8754" duration="274" scalar="1/1" mediaStart="14342/1" mediaDuration="274/1" trackNumber="0" src="4" >
             <Transformer>
              <VectorParam id="2154"  name="translation">
               <InterpolatingParam id="2155" interp="linr"  time="-9999999/1" value="0" leadInLength="0/1"  />
               <InterpolatingParam id="2156" interp="linr"  time="-9999999/1" value="0" leadInLength="0/1"  />
               <InterpolatingParam id="2157" interp="linr"  time="-9999999/1" value="0" leadInLength="0/1"  />
              </VectorParam>
              <VectorParam id="2158"  name="rotation">
               <InterpolatingParam id="2159" interp="linr"  time="-9999999/1" value="0" leadInLength="0/1"  />
               <InterpolatingParam id="2160" interp="linr"  time="-9999999/1" value="0" leadInLength="0/1"  />
               <InterpolatingParam id="2161" interp="linr"  time="-9999999/1" value="0" leadInLength="0/1"  />
              </VectorParam>
              <VectorParam id="2162"  name="shear">
               <InterpolatingParam id="2163" interp="linr"  time="-9999999/1" value="0" leadInLength="0/1"  />
               <InterpolatingParam id="2164" interp="linr"  time="-9999999/1" value="0" leadInLength="0/1"  />
               <InterpolatingParam id="2165" interp="linr"  time="-9999999/1" value="0" leadInLength="0/1"  />
              </VectorParam>
              <VectorParam id="2166"  name="scale">
               <InterpolatingParam id="2167" interp="linr"  time="-9999999/1" value="1" leadInLength="0/1"  />
               <InterpolatingParam id="2168" interp="linr"  time="-9999999/1" value="1" leadInLength="0/1"  />
               <InterpolatingParam id="2169" interp="linr"  time="-9999999/1" value="1" leadInLength="0/1"  />
              </VectorParam>
              <VectorParam id="2170"  name="anchor">
               <InterpolatingParam id="2171" interp="linr"  time="0/1" value="0" leadInLength="0/1"  />
               <InterpolatingParam id="2172" interp="linr"  time="0/1" value="0" leadInLength="0/1"  />
               <InterpolatingParam id="2173" interp="linr"  time="0/1" value="0" leadInLength="0/1"  />
              </VectorParam>
             </Transformer>
             <Parameters>
              <VectorParam id="2174"  name="sourceCrop">
               <InterpolatingParam id="2175" interp="linr"  time="0/1" value="0" leadInLength="0/1"  />
               <InterpolatingParam id="2176" interp="linr"  time="0/1" value="0" leadInLength="0/1"  />
               <InterpolatingParam id="2177" interp="linr"  time="0/1" value="0" leadInLength="0/1"  />
               <InterpolatingParam id="2178" interp="linr"  time="0/1" value="0" leadInLength="0/1"  />
              </VectorParam>
              <VectorParam id="2179"  name="geometryCrop">
               <InterpolatingParam id="2180" interp="linr"  time="-9999999/1" value="0" leadInLength="0/1"  />
               <InterpolatingParam id="2181" interp="linr"  time="-9999999/1" value="0" leadInLength="0/1"  />
               <InterpolatingParam id="2182" interp="linr"  time="-9999999/1" value="0" leadInLength="0/1"  />
               <InterpolatingParam id="2183" interp="linr"  time="-9999999/1" value="0" leadInLength="0/1"  />
              </VectorParam>
              <InterpolatingParam id="2184" interp="linr"  time="-9999999/1" value="1" leadInLength="0/1"  name="opacity"/>
              <InterpolatingParam id="2185" interp="linr"  time="0/1" value="0" leadInLength="0/1"  name="cursorOpacity"/>
              <InterpolatingParam id="2186" interp="linr"  time="0/1" value="0" leadInLength="0/1"  name="cursorScale"/>
             </Parameters>
             <Attributes>
              <Attribute id="2187" value="" name="ident"/>
             </Attributes>
             <ExtraData>
              <Entry key="ZoomPanBin">
               <ZoomPanBin id="2188"  >
                <ZoomPanKeyframes>
                 <ZoomPanKeyframe id="2189" timeRangeEnd="-9999999/1" timeRangeDuration="0/1" interpolaterName=""  />
                </ZoomPanKeyframes>
               </ZoomPanBin>
              </Entry>
              <Entry key="CursorEffectBin">
               <CursorEffectBin id="2190"  >
                <CursorEffectKeyframes>
                </CursorEffectKeyframes>
               </CursorEffectBin>
              </Entry>
             </ExtraData>
            </ScreenVMFile>
            <MetaData>
             <entry key="AutoAppliedSmartFocus" val="False"/>
             <entry key="WinSubProjectDisplayName" val=""/>
            </MetaData>
           </UnifiedMedia>
           <UnifiedMedia id="2191"  >
            <AMFile id="2192" start="9028" duration="60" scalar="1/1" mediaStart="14642/1" mediaDuration="60/1" trackNumber="1" src="4" channelNumber="0,1" >
             <Parameters>
              <InterpolatingParam id="2193" interp="linr"  time="0/1" value="1" leadInLength="0/1"  name="volume"/>
              <Parameter id="2194"  name="captions"/>
             </Parameters>
             <Attributes>
              <Attribute id="2195" value="" name="ident"/>
              <Attribute id="2196" value="44100" name="sampleRate"/>
              <Attribute id="2197" value="16" name="bitDepth"/>
              <Attribute id="2198" value="1" name="gain"/>
              <Attribute id="2199" value="0" name="mixToMono"/>
             </Attributes>
            </AMFile>
            <ScreenVMFile id="2200" start="9028" duration="60" scalar="1/1" mediaStart="14642/1" mediaDuration="60/1" trackNumber="0" src="4" >
             <Transformer>
              <VectorParam id="2201"  name="translation">
               <InterpolatingParam id="2202" interp="linr"  time="-9999999/1" value="0" leadInLength="0/1"  />
               <InterpolatingParam id="2203" interp="linr"  time="-9999999/1" value="0" leadInLength="0/1"  />
               <InterpolatingParam id="2204" interp="linr"  time="-9999999/1" value="0" leadInLength="0/1"  />
              </VectorParam>
              <VectorParam id="2205"  name="rotation">
               <InterpolatingParam id="2206" interp="linr"  time="-9999999/1" value="0" leadInLength="0/1"  />
               <InterpolatingParam id="2207" interp="linr"  time="-9999999/1" value="0" leadInLength="0/1"  />
               <InterpolatingParam id="2208" interp="linr"  time="-9999999/1" value="0" leadInLength="0/1"  />
              </VectorParam>
              <VectorParam id="2209"  name="shear">
               <InterpolatingParam id="2210" interp="linr"  time="-9999999/1" value="0" leadInLength="0/1"  />
               <InterpolatingParam id="2211" interp="linr"  time="-9999999/1" value="0" leadInLength="0/1"  />
               <InterpolatingParam id="2212" interp="linr"  time="-9999999/1" value="0" leadInLength="0/1"  />
              </VectorParam>
              <VectorParam id="2213"  name="scale">
               <InterpolatingParam id="2214" interp="linr"  time="-9999999/1" value="1" leadInLength="0/1"  />
               <InterpolatingParam id="2215" interp="linr"  time="-9999999/1" value="1" leadInLength="0/1"  />
               <InterpolatingParam id="2216" interp="linr"  time="-9999999/1" value="1" leadInLength="0/1"  />
              </VectorParam>
              <VectorParam id="2217"  name="anchor">
               <InterpolatingParam id="2218" interp="linr"  time="0/1" value="0" leadInLength="0/1"  />
               <InterpolatingParam id="2219" interp="linr"  time="0/1" value="0" leadInLength="0/1"  />
               <InterpolatingParam id="2220" interp="linr"  time="0/1" value="0" leadInLength="0/1"  />
              </VectorParam>
             </Transformer>
             <Parameters>
              <VectorParam id="2221"  name="sourceCrop">
               <InterpolatingParam id="2222" interp="linr"  time="0/1" value="0" leadInLength="0/1"  />
               <InterpolatingParam id="2223" interp="linr"  time="0/1" value="0" leadInLength="0/1"  />
               <InterpolatingParam id="2224" interp="linr"  time="0/1" value="0" leadInLength="0/1"  />
               <InterpolatingParam id="2225" interp="linr"  time="0/1" value="0" leadInLength="0/1"  />
              </VectorParam>
              <VectorParam id="2226"  name="geometryCrop">
               <InterpolatingParam id="2227" interp="linr"  time="-9999999/1" value="0" leadInLength="0/1"  />
               <InterpolatingParam id="2228" interp="linr"  time="-9999999/1" value="0" leadInLength="0/1"  />
               <InterpolatingParam id="2229" interp="linr"  time="-9999999/1" value="0" leadInLength="0/1"  />
               <InterpolatingParam id="2230" interp="linr"  time="-9999999/1" value="0" leadInLength="0/1"  />
              </VectorParam>
              <InterpolatingParam id="2231" interp="linr"  time="-9999999/1" value="1" leadInLength="0/1"  name="opacity"/>
              <InterpolatingParam id="2232" interp="linr"  time="0/1" value="0" leadInLength="0/1"  name="cursorOpacity"/>
              <InterpolatingParam id="2233" interp="linr"  time="0/1" value="0" leadInLength="0/1"  name="cursorScale"/>
             </Parameters>
             <Attributes>
              <Attribute id="2234" value="" name="ident"/>
             </Attributes>
             <ExtraData>
              <Entry key="ZoomPanBin">
               <ZoomPanBin id="2235"  >
                <ZoomPanKeyframes>
                 <ZoomPanKeyframe id="2236" timeRangeEnd="-9999999/1" timeRangeDuration="0/1" interpolaterName=""  />
                </ZoomPanKeyframes>
               </ZoomPanBin>
              </Entry>
              <Entry key="CursorEffectBin">
               <CursorEffectBin id="2237"  >
                <CursorEffectKeyframes>
                </CursorEffectKeyframes>
               </CursorEffectBin>
              </Entry>
             </ExtraData>
            </ScreenVMFile>
            <MetaData>
             <entry key="AutoAppliedSmartFocus" val="False"/>
             <entry key="WinSubProjectDisplayName" val=""/>
            </MetaData>
           </UnifiedMedia>
           <UnifiedMedia id="2238"  >
            <AMFile id="2239" start="9088" duration="674" scalar="1/1" mediaStart="15056/1" mediaDuration="674/1" trackNumber="1" src="4" channelNumber="0,1" >
             <Parameters>
              <InterpolatingParam id="2240" interp="linr"  time="0/1" value="1" leadInLength="0/1"  name="volume"/>
              <Parameter id="2241"  name="captions"/>
             </Parameters>
             <Attributes>
              <Attribute id="2242" value="" name="ident"/>
              <Attribute id="2243" value="44100" name="sampleRate"/>
              <Attribute id="2244" value="16" name="bitDepth"/>
              <Attribute id="2245" value="1" name="gain"/>
              <Attribute id="2246" value="0" name="mixToMono"/>
             </Attributes>
            </AMFile>
            <ScreenVMFile id="2247" start="9088" duration="674" scalar="1/1" mediaStart="15056/1" mediaDuration="674/1" trackNumber="0" src="4" >
             <Transformer>
              <VectorParam id="2248"  name="translation">
               <InterpolatingParam id="2249" interp="linr"  time="-9999999/1" value="0" leadInLength="0/1"  />
               <InterpolatingParam id="2250" interp="linr"  time="-9999999/1" value="0" leadInLength="0/1"  />
               <InterpolatingParam id="2251" interp="linr"  time="-9999999/1" value="0" leadInLength="0/1"  />
              </VectorParam>
              <VectorParam id="2252"  name="rotation">
               <InterpolatingParam id="2253" interp="linr"  time="-9999999/1" value="0" leadInLength="0/1"  />
               <InterpolatingParam id="2254" interp="linr"  time="-9999999/1" value="0" leadInLength="0/1"  />
               <InterpolatingParam id="2255" interp="linr"  time="-9999999/1" value="0" leadInLength="0/1"  />
              </VectorParam>
              <VectorParam id="2256"  name="shear">
               <InterpolatingParam id="2257" interp="linr"  time="-9999999/1" value="0" leadInLength="0/1"  />
               <InterpolatingParam id="2258" interp="linr"  time="-9999999/1" value="0" leadInLength="0/1"  />
               <InterpolatingParam id="2259" interp="linr"  time="-9999999/1" value="0" leadInLength="0/1"  />
              </VectorParam>
              <VectorParam id="2260"  name="scale">
               <InterpolatingParam id="2261" interp="linr"  time="-9999999/1" value="1" leadInLength="0/1"  />
               <InterpolatingParam id="2262" interp="linr"  time="-9999999/1" value="1" leadInLength="0/1"  />
               <InterpolatingParam id="2263" interp="linr"  time="-9999999/1" value="1" leadInLength="0/1"  />
              </VectorParam>
              <VectorParam id="2264"  name="anchor">
               <InterpolatingParam id="2265" interp="linr"  time="0/1" value="0" leadInLength="0/1"  />
               <InterpolatingParam id="2266" interp="linr"  time="0/1" value="0" leadInLength="0/1"  />
               <InterpolatingParam id="2267" interp="linr"  time="0/1" value="0" leadInLength="0/1"  />
              </VectorParam>
             </Transformer>
             <Parameters>
              <VectorParam id="2268"  name="sourceCrop">
               <InterpolatingParam id="2269" interp="linr"  time="0/1" value="0" leadInLength="0/1"  />
               <InterpolatingParam id="2270" interp="linr"  time="0/1" value="0" leadInLength="0/1"  />
               <InterpolatingParam id="2271" interp="linr"  time="0/1" value="0" leadInLength="0/1"  />
               <InterpolatingParam id="2272" interp="linr"  time="0/1" value="0" leadInLength="0/1"  />
              </VectorParam>
              <VectorParam id="2273"  name="geometryCrop">
               <InterpolatingParam id="2274" interp="linr"  time="-9999999/1" value="0" leadInLength="0/1"  />
               <InterpolatingParam id="2275" interp="linr"  time="-9999999/1" value="0" leadInLength="0/1"  />
               <InterpolatingParam id="2276" interp="linr"  time="-9999999/1" value="0" leadInLength="0/1"  />
               <InterpolatingParam id="2277" interp="linr"  time="-9999999/1" value="0" leadInLength="0/1"  />
              </VectorParam>
              <InterpolatingParam id="2278" interp="linr"  time="-9999999/1" value="1" leadInLength="0/1"  name="opacity"/>
              <InterpolatingParam id="2279" interp="linr"  time="0/1" value="0" leadInLength="0/1"  name="cursorOpacity"/>
              <InterpolatingParam id="2280" interp="linr"  time="0/1" value="0" leadInLength="0/1"  name="cursorScale"/>
             </Parameters>
             <Attributes>
              <Attribute id="2281" value="" name="ident"/>
             </Attributes>
             <ExtraData>
              <Entry key="ZoomPanBin">
               <ZoomPanBin id="2282"  >
                <ZoomPanKeyframes>
                 <ZoomPanKeyframe id="2283" timeRangeEnd="-9999999/1" timeRangeDuration="0/1" interpolaterName=""  />
                </ZoomPanKeyframes>
               </ZoomPanBin>
              </Entry>
              <Entry key="CursorEffectBin">
               <CursorEffectBin id="2284"  >
                <CursorEffectKeyframes>
                </CursorEffectKeyframes>
               </CursorEffectBin>
              </Entry>
             </ExtraData>
            </ScreenVMFile>
            <MetaData>
             <entry key="AutoAppliedSmartFocus" val="False"/>
             <entry key="WinSubProjectDisplayName" val=""/>
            </MetaData>
           </UnifiedMedia>
           <UnifiedMedia id="2285"  >
            <AMFile id="2286" start="9762" duration="274" scalar="1/1" mediaStart="15741/1" mediaDuration="274/1" trackNumber="1" src="4" channelNumber="0,1" >
             <Parameters>
              <InterpolatingParam id="2287" interp="linr"  time="0/1" value="1" leadInLength="0/1"  name="volume"/>
              <Parameter id="2288"  name="captions"/>
             </Parameters>
             <Attributes>
              <Attribute id="2289" value="" name="ident"/>
              <Attribute id="2290" value="44100" name="sampleRate"/>
              <Attribute id="2291" value="16" name="bitDepth"/>
              <Attribute id="2292" value="1" name="gain"/>
              <Attribute id="2293" value="0" name="mixToMono"/>
             </Attributes>
            </AMFile>
            <ScreenVMFile id="2294" start="9762" duration="274" scalar="1/1" mediaStart="15741/1" mediaDuration="274/1" trackNumber="0" src="4" >
             <Transformer>
              <VectorParam id="2295"  name="translation">
               <InterpolatingParam id="2296" interp="linr"  time="-9999999/1" value="0" leadInLength="0/1"  />
               <InterpolatingParam id="2297" interp="linr"  time="-9999999/1" value="0" leadInLength="0/1"  />
               <InterpolatingParam id="2298" interp="linr"  time="-9999999/1" value="0" leadInLength="0/1"  />
              </VectorParam>
              <VectorParam id="2299"  name="rotation">
               <InterpolatingParam id="2300" interp="linr"  time="-9999999/1" value="0" leadInLength="0/1"  />
               <InterpolatingParam id="2301" interp="linr"  time="-9999999/1" value="0" leadInLength="0/1"  />
               <InterpolatingParam id="2302" interp="linr"  time="-9999999/1" value="0" leadInLength="0/1"  />
              </VectorParam>
              <VectorParam id="2303"  name="shear">
               <InterpolatingParam id="2304" interp="linr"  time="-9999999/1" value="0" leadInLength="0/1"  />
               <InterpolatingParam id="2305" interp="linr"  time="-9999999/1" value="0" leadInLength="0/1"  />
               <InterpolatingParam id="2306" interp="linr"  time="-9999999/1" value="0" leadInLength="0/1"  />
              </VectorParam>
              <VectorParam id="2307"  name="scale">
               <InterpolatingParam id="2308" interp="linr"  time="-9999999/1" value="1" leadInLength="0/1"  />
               <InterpolatingParam id="2309" interp="linr"  time="-9999999/1" value="1" leadInLength="0/1"  />
               <InterpolatingParam id="2310" interp="linr"  time="-9999999/1" value="1" leadInLength="0/1"  />
              </VectorParam>
              <VectorParam id="2311"  name="anchor">
               <InterpolatingParam id="2312" interp="linr"  time="0/1" value="0" leadInLength="0/1"  />
               <InterpolatingParam id="2313" interp="linr"  time="0/1" value="0" leadInLength="0/1"  />
               <InterpolatingParam id="2314" interp="linr"  time="0/1" value="0" leadInLength="0/1"  />
              </VectorParam>
             </Transformer>
             <Parameters>
              <VectorParam id="2315"  name="sourceCrop">
               <InterpolatingParam id="2316" interp="linr"  time="0/1" value="0" leadInLength="0/1"  />
               <InterpolatingParam id="2317" interp="linr"  time="0/1" value="0" leadInLength="0/1"  />
               <InterpolatingParam id="2318" interp="linr"  time="0/1" value="0" leadInLength="0/1"  />
               <InterpolatingParam id="2319" interp="linr"  time="0/1" value="0" leadInLength="0/1"  />
              </VectorParam>
              <VectorParam id="2320"  name="geometryCrop">
               <InterpolatingParam id="2321" interp="linr"  time="-9999999/1" value="0" leadInLength="0/1"  />
               <InterpolatingParam id="2322" interp="linr"  time="-9999999/1" value="0" leadInLength="0/1"  />
               <InterpolatingParam id="2323" interp="linr"  time="-9999999/1" value="0" leadInLength="0/1"  />
               <InterpolatingParam id="2324" interp="linr"  time="-9999999/1" value="0" leadInLength="0/1"  />
              </VectorParam>
              <InterpolatingParam id="2325" interp="linr"  time="-9999999/1" value="1" leadInLength="0/1"  name="opacity"/>
              <InterpolatingParam id="2326" interp="linr"  time="0/1" value="0" leadInLength="0/1"  name="cursorOpacity"/>
              <InterpolatingParam id="2327" interp="linr"  time="0/1" value="0" leadInLength="0/1"  name="cursorScale"/>
             </Parameters>
             <Attributes>
              <Attribute id="2328" value="" name="ident"/>
             </Attributes>
             <ExtraData>
              <Entry key="ZoomPanBin">
               <ZoomPanBin id="2329"  >
                <ZoomPanKeyframes>
                 <ZoomPanKeyframe id="2330" timeRangeEnd="-9999999/1" timeRangeDuration="0/1" interpolaterName=""  />
                </ZoomPanKeyframes>
               </ZoomPanBin>
              </Entry>
              <Entry key="CursorEffectBin">
               <CursorEffectBin id="2331"  >
                <CursorEffectKeyframes>
                </CursorEffectKeyframes>
               </CursorEffectBin>
              </Entry>
             </ExtraData>
            </ScreenVMFile>
            <MetaData>
             <entry key="AutoAppliedSmartFocus" val="False"/>
             <entry key="WinSubProjectDisplayName" val=""/>
            </MetaData>
           </UnifiedMedia>
           <UnifiedMedia id="2332"  >
            <AMFile id="2333" start="10036" duration="234" scalar="1/1" mediaStart="16211/1" mediaDuration="234/1" trackNumber="1" src="4" channelNumber="0,1" >
             <Parameters>
              <InterpolatingParam id="2334" interp="linr"  time="0/1" value="1" leadInLength="0/1"  name="volume"/>
              <Parameter id="2335"  name="captions"/>
             </Parameters>
             <Attributes>
              <Attribute id="2336" value="" name="ident"/>
              <Attribute id="2337" value="44100" name="sampleRate"/>
              <Attribute id="2338" value="16" name="bitDepth"/>
              <Attribute id="2339" value="1" name="gain"/>
              <Attribute id="2340" value="0" name="mixToMono"/>
             </Attributes>
            </AMFile>
            <ScreenVMFile id="2341" start="10036" duration="234" scalar="1/1" mediaStart="16211/1" mediaDuration="234/1" trackNumber="0" src="4" >
             <Transformer>
              <VectorParam id="2342"  name="translation">
               <InterpolatingParam id="2343" interp="linr"  time="-9999999/1" value="0" leadInLength="0/1"  />
               <InterpolatingParam id="2344" interp="linr"  time="-9999999/1" value="0" leadInLength="0/1"  />
               <InterpolatingParam id="2345" interp="linr"  time="-9999999/1" value="0" leadInLength="0/1"  />
              </VectorParam>
              <VectorParam id="2346"  name="rotation">
               <InterpolatingParam id="2347" interp="linr"  time="-9999999/1" value="0" leadInLength="0/1"  />
               <InterpolatingParam id="2348" interp="linr"  time="-9999999/1" value="0" leadInLength="0/1"  />
               <InterpolatingParam id="2349" interp="linr"  time="-9999999/1" value="0" leadInLength="0/1"  />
              </VectorParam>
              <VectorParam id="2350"  name="shear">
               <InterpolatingParam id="2351" interp="linr"  time="-9999999/1" value="0" leadInLength="0/1"  />
               <InterpolatingParam id="2352" interp="linr"  time="-9999999/1" value="0" leadInLength="0/1"  />
               <InterpolatingParam id="2353" interp="linr"  time="-9999999/1" value="0" leadInLength="0/1"  />
              </VectorParam>
              <VectorParam id="2354"  name="scale">
               <InterpolatingParam id="2355" interp="linr"  time="-9999999/1" value="1" leadInLength="0/1"  />
               <InterpolatingParam id="2356" interp="linr"  time="-9999999/1" value="1" leadInLength="0/1"  />
               <InterpolatingParam id="2357" interp="linr"  time="-9999999/1" value="1" leadInLength="0/1"  />
              </VectorParam>
              <VectorParam id="2358"  name="anchor">
               <InterpolatingParam id="2359" interp="linr"  time="0/1" value="0" leadInLength="0/1"  />
               <InterpolatingParam id="2360" interp="linr"  time="0/1" value="0" leadInLength="0/1"  />
               <InterpolatingParam id="2361" interp="linr"  time="0/1" value="0" leadInLength="0/1"  />
              </VectorParam>
             </Transformer>
             <Parameters>
              <VectorParam id="2362"  name="sourceCrop">
               <InterpolatingParam id="2363" interp="linr"  time="0/1" value="0" leadInLength="0/1"  />
               <InterpolatingParam id="2364" interp="linr"  time="0/1" value="0" leadInLength="0/1"  />
               <InterpolatingParam id="2365" interp="linr"  time="0/1" value="0" leadInLength="0/1"  />
               <InterpolatingParam id="2366" interp="linr"  time="0/1" value="0" leadInLength="0/1"  />
              </VectorParam>
              <VectorParam id="2367"  name="geometryCrop">
               <InterpolatingParam id="2368" interp="linr"  time="-9999999/1" value="0" leadInLength="0/1"  />
               <InterpolatingParam id="2369" interp="linr"  time="-9999999/1" value="0" leadInLength="0/1"  />
               <InterpolatingParam id="2370" interp="linr"  time="-9999999/1" value="0" leadInLength="0/1"  />
               <InterpolatingParam id="2371" interp="linr"  time="-9999999/1" value="0" leadInLength="0/1"  />
              </VectorParam>
              <InterpolatingParam id="2372" interp="linr"  time="-9999999/1" value="1" leadInLength="0/1"  name="opacity"/>
              <InterpolatingParam id="2373" interp="linr"  time="0/1" value="0" leadInLength="0/1"  name="cursorOpacity"/>
              <InterpolatingParam id="2374" interp="linr"  time="0/1" value="0" leadInLength="0/1"  name="cursorScale"/>
             </Parameters>
             <Attributes>
              <Attribute id="2375" value="" name="ident"/>
             </Attributes>
             <ExtraData>
              <Entry key="ZoomPanBin">
               <ZoomPanBin id="2376"  >
                <ZoomPanKeyframes>
                 <ZoomPanKeyframe id="2377" timeRangeEnd="-9999999/1" timeRangeDuration="0/1" interpolaterName=""  />
                </ZoomPanKeyframes>
               </ZoomPanBin>
              </Entry>
              <Entry key="CursorEffectBin">
               <CursorEffectBin id="2378"  >
                <CursorEffectKeyframes>
                </CursorEffectKeyframes>
               </CursorEffectBin>
              </Entry>
             </ExtraData>
            </ScreenVMFile>
            <MetaData>
             <entry key="AutoAppliedSmartFocus" val="False"/>
             <entry key="WinSubProjectDisplayName" val=""/>
            </MetaData>
           </UnifiedMedia>
           <UnifiedMedia id="2379"  >
            <AMFile id="2380" start="10270" duration="110" scalar="1/1" mediaStart="16454/1" mediaDuration="110/1" trackNumber="1" src="4" channelNumber="0,1" >
             <Parameters>
              <InterpolatingParam id="2381" interp="linr"  time="0/1" value="1" leadInLength="0/1"  name="volume"/>
              <Parameter id="2382"  name="captions"/>
             </Parameters>
             <Attributes>
              <Attribute id="2383" value="" name="ident"/>
              <Attribute id="2384" value="44100" name="sampleRate"/>
              <Attribute id="2385" value="16" name="bitDepth"/>
              <Attribute id="2386" value="1" name="gain"/>
              <Attribute id="2387" value="0" name="mixToMono"/>
             </Attributes>
            </AMFile>
            <ScreenVMFile id="2388" start="10270" duration="110" scalar="1/1" mediaStart="16454/1" mediaDuration="110/1" trackNumber="0" src="4" >
             <Transformer>
              <VectorParam id="2389"  name="translation">
               <InterpolatingParam id="2390" interp="linr"  time="-9999999/1" value="0" leadInLength="0/1"  />
               <InterpolatingParam id="2391" interp="linr"  time="-9999999/1" value="0" leadInLength="0/1"  />
               <InterpolatingParam id="2392" interp="linr"  time="-9999999/1" value="0" leadInLength="0/1"  />
              </VectorParam>
              <VectorParam id="2393"  name="rotation">
               <InterpolatingParam id="2394" interp="linr"  time="-9999999/1" value="0" leadInLength="0/1"  />
               <InterpolatingParam id="2395" interp="linr"  time="-9999999/1" value="0" leadInLength="0/1"  />
               <InterpolatingParam id="2396" interp="linr"  time="-9999999/1" value="0" leadInLength="0/1"  />
              </VectorParam>
              <VectorParam id="2397"  name="shear">
               <InterpolatingParam id="2398" interp="linr"  time="-9999999/1" value="0" leadInLength="0/1"  />
               <InterpolatingParam id="2399" interp="linr"  time="-9999999/1" value="0" leadInLength="0/1"  />
               <InterpolatingParam id="2400" interp="linr"  time="-9999999/1" value="0" leadInLength="0/1"  />
              </VectorParam>
              <VectorParam id="2401"  name="scale">
               <InterpolatingParam id="2402" interp="linr"  time="-9999999/1" value="1" leadInLength="0/1"  />
               <InterpolatingParam id="2403" interp="linr"  time="-9999999/1" value="1" leadInLength="0/1"  />
               <InterpolatingParam id="2404" interp="linr"  time="-9999999/1" value="1" leadInLength="0/1"  />
              </VectorParam>
              <VectorParam id="2405"  name="anchor">
               <InterpolatingParam id="2406" interp="linr"  time="0/1" value="0" leadInLength="0/1"  />
               <InterpolatingParam id="2407" interp="linr"  time="0/1" value="0" leadInLength="0/1"  />
               <InterpolatingParam id="2408" interp="linr"  time="0/1" value="0" leadInLength="0/1"  />
              </VectorParam>
             </Transformer>
             <Parameters>
              <VectorParam id="2409"  name="sourceCrop">
               <InterpolatingParam id="2410" interp="linr"  time="0/1" value="0" leadInLength="0/1"  />
               <InterpolatingParam id="2411" interp="linr"  time="0/1" value="0" leadInLength="0/1"  />
               <InterpolatingParam id="2412" interp="linr"  time="0/1" value="0" leadInLength="0/1"  />
               <InterpolatingParam id="2413" interp="linr"  time="0/1" value="0" leadInLength="0/1"  />
              </VectorParam>
              <VectorParam id="2414"  name="geometryCrop">
               <InterpolatingParam id="2415" interp="linr"  time="-9999999/1" value="0" leadInLength="0/1"  />
               <InterpolatingParam id="2416" interp="linr"  time="-9999999/1" value="0" leadInLength="0/1"  />
               <InterpolatingParam id="2417" interp="linr"  time="-9999999/1" value="0" leadInLength="0/1"  />
               <InterpolatingParam id="2418" interp="linr"  time="-9999999/1" value="0" leadInLength="0/1"  />
              </VectorParam>
              <InterpolatingParam id="2419" interp="linr"  time="-9999999/1" value="1" leadInLength="0/1"  name="opacity"/>
              <InterpolatingParam id="2420" interp="linr"  time="0/1" value="0" leadInLength="0/1"  name="cursorOpacity"/>
              <InterpolatingParam id="2421" interp="linr"  time="0/1" value="0" leadInLength="0/1"  name="cursorScale"/>
             </Parameters>
             <Attributes>
              <Attribute id="2422" value="" name="ident"/>
             </Attributes>
             <ExtraData>
              <Entry key="ZoomPanBin">
               <ZoomPanBin id="2423"  >
                <ZoomPanKeyframes>
                 <ZoomPanKeyframe id="2424" timeRangeEnd="-9999999/1" timeRangeDuration="0/1" interpolaterName=""  />
                </ZoomPanKeyframes>
               </ZoomPanBin>
              </Entry>
              <Entry key="CursorEffectBin">
               <CursorEffectBin id="2425"  >
                <CursorEffectKeyframes>
                </CursorEffectKeyframes>
               </CursorEffectBin>
              </Entry>
             </ExtraData>
            </ScreenVMFile>
            <MetaData>
             <entry key="AutoAppliedSmartFocus" val="False"/>
             <entry key="WinSubProjectDisplayName" val=""/>
            </MetaData>
           </UnifiedMedia>
           <UnifiedMedia id="2426"  >
            <AMFile id="2427" start="10380" duration="162" scalar="1/1" mediaStart="17399/1" mediaDuration="162/1" trackNumber="1" src="4" channelNumber="0,1" >
             <Parameters>
              <InterpolatingParam id="2428" interp="linr"  time="0/1" value="1" leadInLength="0/1"  name="volume"/>
              <Parameter id="2429"  name="captions"/>
             </Parameters>
             <Attributes>
              <Attribute id="2430" value="" name="ident"/>
              <Attribute id="2431" value="44100" name="sampleRate"/>
              <Attribute id="2432" value="16" name="bitDepth"/>
              <Attribute id="2433" value="1" name="gain"/>
              <Attribute id="2434" value="0" name="mixToMono"/>
             </Attributes>
            </AMFile>
            <ScreenVMFile id="2435" start="10380" duration="162" scalar="1/1" mediaStart="17399/1" mediaDuration="162/1" trackNumber="0" src="4" >
             <Transformer>
              <VectorParam id="2436"  name="translation">
               <InterpolatingParam id="2437" interp="linr"  time="-9999999/1" value="0" leadInLength="0/1"  />
               <InterpolatingParam id="2438" interp="linr"  time="-9999999/1" value="0" leadInLength="0/1"  />
               <InterpolatingParam id="2439" interp="linr"  time="-9999999/1" value="0" leadInLength="0/1"  />
              </VectorParam>
              <VectorParam id="2440"  name="rotation">
               <InterpolatingParam id="2441" interp="linr"  time="-9999999/1" value="0" leadInLength="0/1"  />
               <InterpolatingParam id="2442" interp="linr"  time="-9999999/1" value="0" leadInLength="0/1"  />
               <InterpolatingParam id="2443" interp="linr"  time="-9999999/1" value="0" leadInLength="0/1"  />
              </VectorParam>
              <VectorParam id="2444"  name="shear">
               <InterpolatingParam id="2445" interp="linr"  time="-9999999/1" value="0" leadInLength="0/1"  />
               <InterpolatingParam id="2446" interp="linr"  time="-9999999/1" value="0" leadInLength="0/1"  />
               <InterpolatingParam id="2447" interp="linr"  time="-9999999/1" value="0" leadInLength="0/1"  />
              </VectorParam>
              <VectorParam id="2448"  name="scale">
               <InterpolatingParam id="2449" interp="linr"  time="-9999999/1" value="1" leadInLength="0/1"  />
               <InterpolatingParam id="2450" interp="linr"  time="-9999999/1" value="1" leadInLength="0/1"  />
               <InterpolatingParam id="2451" interp="linr"  time="-9999999/1" value="1" leadInLength="0/1"  />
              </VectorParam>
              <VectorParam id="2452"  name="anchor">
               <InterpolatingParam id="2453" interp="linr"  time="0/1" value="0" leadInLength="0/1"  />
               <InterpolatingParam id="2454" interp="linr"  time="0/1" value="0" leadInLength="0/1"  />
               <InterpolatingParam id="2455" interp="linr"  time="0/1" value="0" leadInLength="0/1"  />
              </VectorParam>
             </Transformer>
             <Parameters>
              <VectorParam id="2456"  name="sourceCrop">
               <InterpolatingParam id="2457" interp="linr"  time="0/1" value="0" leadInLength="0/1"  />
               <InterpolatingParam id="2458" interp="linr"  time="0/1" value="0" leadInLength="0/1"  />
               <InterpolatingParam id="2459" interp="linr"  time="0/1" value="0" leadInLength="0/1"  />
               <InterpolatingParam id="2460" interp="linr"  time="0/1" value="0" leadInLength="0/1"  />
              </VectorParam>
              <VectorParam id="2461"  name="geometryCrop">
               <InterpolatingParam id="2462" interp="linr"  time="-9999999/1" value="0" leadInLength="0/1"  />
               <InterpolatingParam id="2463" interp="linr"  time="-9999999/1" value="0" leadInLength="0/1"  />
               <InterpolatingParam id="2464" interp="linr"  time="-9999999/1" value="0" leadInLength="0/1"  />
               <InterpolatingParam id="2465" interp="linr"  time="-9999999/1" value="0" leadInLength="0/1"  />
              </VectorParam>
              <InterpolatingParam id="2466" interp="linr"  time="-9999999/1" value="1" leadInLength="0/1"  name="opacity"/>
              <InterpolatingParam id="2467" interp="linr"  time="0/1" value="0" leadInLength="0/1"  name="cursorOpacity"/>
              <InterpolatingParam id="2468" interp="linr"  time="0/1" value="0" leadInLength="0/1"  name="cursorScale"/>
             </Parameters>
             <Attributes>
              <Attribute id="2469" value="" name="ident"/>
             </Attributes>
             <ExtraData>
              <Entry key="ZoomPanBin">
               <ZoomPanBin id="2470"  >
                <ZoomPanKeyframes>
                 <ZoomPanKeyframe id="2471" timeRangeEnd="-9999999/1" timeRangeDuration="0/1" interpolaterName=""  />
                </ZoomPanKeyframes>
               </ZoomPanBin>
              </Entry>
              <Entry key="CursorEffectBin">
               <CursorEffectBin id="2472"  >
                <CursorEffectKeyframes>
                </CursorEffectKeyframes>
               </CursorEffectBin>
              </Entry>
             </ExtraData>
            </ScreenVMFile>
            <MetaData>
             <entry key="AutoAppliedSmartFocus" val="False"/>
             <entry key="WinSubProjectDisplayName" val=""/>
            </MetaData>
           </UnifiedMedia>
           <UnifiedMedia id="2473"  >
            <AMFile id="2474" start="10542" duration="130" scalar="1/1" mediaStart="17573/1" mediaDuration="130/1" trackNumber="1" src="4" channelNumber="0,1" >
             <Parameters>
              <InterpolatingParam id="2475" interp="linr"  time="0/1" value="1" leadInLength="0/1"  name="volume"/>
              <Parameter id="2476"  name="captions"/>
             </Parameters>
             <Attributes>
              <Attribute id="2477" value="" name="ident"/>
              <Attribute id="2478" value="44100" name="sampleRate"/>
              <Attribute id="2479" value="16" name="bitDepth"/>
              <Attribute id="2480" value="1" name="gain"/>
              <Attribute id="2481" value="0" name="mixToMono"/>
             </Attributes>
            </AMFile>
            <ScreenVMFile id="2482" start="10542" duration="130" scalar="1/1" mediaStart="17573/1" mediaDuration="130/1" trackNumber="0" src="4" >
             <Transformer>
              <VectorParam id="2483"  name="translation">
               <InterpolatingParam id="2484" interp="linr"  time="-9999999/1" value="0" leadInLength="0/1"  />
               <InterpolatingParam id="2485" interp="linr"  time="-9999999/1" value="0" leadInLength="0/1"  />
               <InterpolatingParam id="2486" interp="linr"  time="-9999999/1" value="0" leadInLength="0/1"  />
              </VectorParam>
              <VectorParam id="2487"  name="rotation">
               <InterpolatingParam id="2488" interp="linr"  time="-9999999/1" value="0" leadInLength="0/1"  />
               <InterpolatingParam id="2489" interp="linr"  time="-9999999/1" value="0" leadInLength="0/1"  />
               <InterpolatingParam id="2490" interp="linr"  time="-9999999/1" value="0" leadInLength="0/1"  />
              </VectorParam>
              <VectorParam id="2491"  name="shear">
               <InterpolatingParam id="2492" interp="linr"  time="-9999999/1" value="0" leadInLength="0/1"  />
               <InterpolatingParam id="2493" interp="linr"  time="-9999999/1" value="0" leadInLength="0/1"  />
               <InterpolatingParam id="2494" interp="linr"  time="-9999999/1" value="0" leadInLength="0/1"  />
              </VectorParam>
              <VectorParam id="2495"  name="scale">
               <InterpolatingParam id="2496" interp="linr"  time="-9999999/1" value="1" leadInLength="0/1"  />
               <InterpolatingParam id="2497" interp="linr"  time="-9999999/1" value="1" leadInLength="0/1"  />
               <InterpolatingParam id="2498" interp="linr"  time="-9999999/1" value="1" leadInLength="0/1"  />
              </VectorParam>
              <VectorParam id="2499"  name="anchor">
               <InterpolatingParam id="2500" interp="linr"  time="0/1" value="0" leadInLength="0/1"  />
               <InterpolatingParam id="2501" interp="linr"  time="0/1" value="0" leadInLength="0/1"  />
               <InterpolatingParam id="2502" interp="linr"  time="0/1" value="0" leadInLength="0/1"  />
              </VectorParam>
             </Transformer>
             <Parameters>
              <VectorParam id="2503"  name="sourceCrop">
               <InterpolatingParam id="2504" interp="linr"  time="0/1" value="0" leadInLength="0/1"  />
               <InterpolatingParam id="2505" interp="linr"  time="0/1" value="0" leadInLength="0/1"  />
               <InterpolatingParam id="2506" interp="linr"  time="0/1" value="0" leadInLength="0/1"  />
               <InterpolatingParam id="2507" interp="linr"  time="0/1" value="0" leadInLength="0/1"  />
              </VectorParam>
              <VectorParam id="2508"  name="geometryCrop">
               <InterpolatingParam id="2509" interp="linr"  time="-9999999/1" value="0" leadInLength="0/1"  />
               <InterpolatingParam id="2510" interp="linr"  time="-9999999/1" value="0" leadInLength="0/1"  />
               <InterpolatingParam id="2511" interp="linr"  time="-9999999/1" value="0" leadInLength="0/1"  />
               <InterpolatingParam id="2512" interp="linr"  time="-9999999/1" value="0" leadInLength="0/1"  />
              </VectorParam>
              <InterpolatingParam id="2513" interp="linr"  time="-9999999/1" value="1" leadInLength="0/1"  name="opacity"/>
              <InterpolatingParam id="2514" interp="linr"  time="0/1" value="0" leadInLength="0/1"  name="cursorOpacity"/>
              <InterpolatingParam id="2515" interp="linr"  time="0/1" value="0" leadInLength="0/1"  name="cursorScale"/>
             </Parameters>
             <Attributes>
              <Attribute id="2516" value="" name="ident"/>
             </Attributes>
             <ExtraData>
              <Entry key="ZoomPanBin">
               <ZoomPanBin id="2517"  >
                <ZoomPanKeyframes>
                 <ZoomPanKeyframe id="2518" timeRangeEnd="-9999999/1" timeRangeDuration="0/1" interpolaterName=""  />
                </ZoomPanKeyframes>
               </ZoomPanBin>
              </Entry>
              <Entry key="CursorEffectBin">
               <CursorEffectBin id="2519"  >
                <CursorEffectKeyframes>
                </CursorEffectKeyframes>
               </CursorEffectBin>
              </Entry>
             </ExtraData>
            </ScreenVMFile>
            <MetaData>
             <entry key="AutoAppliedSmartFocus" val="False"/>
             <entry key="WinSubProjectDisplayName" val=""/>
            </MetaData>
           </UnifiedMedia>
           <UnifiedMedia id="2520"  >
            <AMFile id="2521" start="10672" duration="62" scalar="1/1" mediaStart="17715/1" mediaDuration="62/1" trackNumber="1" src="4" channelNumber="0,1" >
             <Parameters>
              <InterpolatingParam id="2522" interp="linr"  time="0/1" value="1" leadInLength="0/1"  name="volume"/>
              <Parameter id="2523"  name="captions"/>
             </Parameters>
             <Attributes>
              <Attribute id="2524" value="" name="ident"/>
              <Attribute id="2525" value="44100" name="sampleRate"/>
              <Attribute id="2526" value="16" name="bitDepth"/>
              <Attribute id="2527" value="1" name="gain"/>
              <Attribute id="2528" value="0" name="mixToMono"/>
             </Attributes>
            </AMFile>
            <ScreenVMFile id="2529" start="10672" duration="62" scalar="1/1" mediaStart="17715/1" mediaDuration="62/1" trackNumber="0" src="4" >
             <Transformer>
              <VectorParam id="2530"  name="translation">
               <InterpolatingParam id="2531" interp="linr"  time="-9999999/1" value="0" leadInLength="0/1"  />
               <InterpolatingParam id="2532" interp="linr"  time="-9999999/1" value="0" leadInLength="0/1"  />
               <InterpolatingParam id="2533" interp="linr"  time="-9999999/1" value="0" leadInLength="0/1"  />
              </VectorParam>
              <VectorParam id="2534"  name="rotation">
               <InterpolatingParam id="2535" interp="linr"  time="-9999999/1" value="0" leadInLength="0/1"  />
               <InterpolatingParam id="2536" interp="linr"  time="-9999999/1" value="0" leadInLength="0/1"  />
               <InterpolatingParam id="2537" interp="linr"  time="-9999999/1" value="0" leadInLength="0/1"  />
              </VectorParam>
              <VectorParam id="2538"  name="shear">
               <InterpolatingParam id="2539" interp="linr"  time="-9999999/1" value="0" leadInLength="0/1"  />
               <InterpolatingParam id="2540" interp="linr"  time="-9999999/1" value="0" leadInLength="0/1"  />
               <InterpolatingParam id="2541" interp="linr"  time="-9999999/1" value="0" leadInLength="0/1"  />
              </VectorParam>
              <VectorParam id="2542"  name="scale">
               <InterpolatingParam id="2543" interp="linr"  time="-9999999/1" value="1" leadInLength="0/1"  />
               <InterpolatingParam id="2544" interp="linr"  time="-9999999/1" value="1" leadInLength="0/1"  />
               <InterpolatingParam id="2545" interp="linr"  time="-9999999/1" value="1" leadInLength="0/1"  />
              </VectorParam>
              <VectorParam id="2546"  name="anchor">
               <InterpolatingParam id="2547" interp="linr"  time="0/1" value="0" leadInLength="0/1"  />
               <InterpolatingParam id="2548" interp="linr"  time="0/1" value="0" leadInLength="0/1"  />
               <InterpolatingParam id="2549" interp="linr"  time="0/1" value="0" leadInLength="0/1"  />
              </VectorParam>
             </Transformer>
             <Parameters>
              <VectorParam id="2550"  name="sourceCrop">
               <InterpolatingParam id="2551" interp="linr"  time="0/1" value="0" leadInLength="0/1"  />
               <InterpolatingParam id="2552" interp="linr"  time="0/1" value="0" leadInLength="0/1"  />
               <InterpolatingParam id="2553" interp="linr"  time="0/1" value="0" leadInLength="0/1"  />
               <InterpolatingParam id="2554" interp="linr"  time="0/1" value="0" leadInLength="0/1"  />
              </VectorParam>
              <VectorParam id="2555"  name="geometryCrop">
               <InterpolatingParam id="2556" interp="linr"  time="-9999999/1" value="0" leadInLength="0/1"  />
               <InterpolatingParam id="2557" interp="linr"  time="-9999999/1" value="0" leadInLength="0/1"  />
               <InterpolatingParam id="2558" interp="linr"  time="-9999999/1" value="0" leadInLength="0/1"  />
               <InterpolatingParam id="2559" interp="linr"  time="-9999999/1" value="0" leadInLength="0/1"  />
              </VectorParam>
              <InterpolatingParam id="2560" interp="linr"  time="-9999999/1" value="1" leadInLength="0/1"  name="opacity"/>
              <InterpolatingParam id="2561" interp="linr"  time="0/1" value="0" leadInLength="0/1"  name="cursorOpacity"/>
              <InterpolatingParam id="2562" interp="linr"  time="0/1" value="0" leadInLength="0/1"  name="cursorScale"/>
             </Parameters>
             <Attributes>
              <Attribute id="2563" value="" name="ident"/>
             </Attributes>
             <ExtraData>
              <Entry key="ZoomPanBin">
               <ZoomPanBin id="2564"  >
                <ZoomPanKeyframes>
                 <ZoomPanKeyframe id="2565" timeRangeEnd="-9999999/1" timeRangeDuration="0/1" interpolaterName=""  />
                </ZoomPanKeyframes>
               </ZoomPanBin>
              </Entry>
              <Entry key="CursorEffectBin">
               <CursorEffectBin id="2566"  >
                <CursorEffectKeyframes>
                </CursorEffectKeyframes>
               </CursorEffectBin>
              </Entry>
             </ExtraData>
            </ScreenVMFile>
            <MetaData>
             <entry key="AutoAppliedSmartFocus" val="False"/>
             <entry key="WinSubProjectDisplayName" val=""/>
            </MetaData>
           </UnifiedMedia>
           <UnifiedMedia id="2567"  >
            <AMFile id="2568" start="10734" duration="311" scalar="1/1" mediaStart="18043/1" mediaDuration="311/1" trackNumber="1" src="4" channelNumber="0,1" >
             <Parameters>
              <InterpolatingParam id="2569" interp="linr"  time="0/1" value="1" leadInLength="0/1"  name="volume"/>
              <Parameter id="2570"  name="captions"/>
             </Parameters>
             <Attributes>
              <Attribute id="2571" value="" name="ident"/>
              <Attribute id="2572" value="44100" name="sampleRate"/>
              <Attribute id="2573" value="16" name="bitDepth"/>
              <Attribute id="2574" value="1" name="gain"/>
              <Attribute id="2575" value="0" name="mixToMono"/>
             </Attributes>
            </AMFile>
            <ScreenVMFile id="2576" start="10734" duration="311" scalar="1/1" mediaStart="18043/1" mediaDuration="311/1" trackNumber="0" src="4" >
             <Transformer>
              <VectorParam id="2577"  name="translation">
               <InterpolatingParam id="2578" interp="linr"  time="-9999999/1" value="0" leadInLength="0/1"  />
               <InterpolatingParam id="2579" interp="linr"  time="-9999999/1" value="0" leadInLength="0/1"  />
               <InterpolatingParam id="2580" interp="linr"  time="-9999999/1" value="0" leadInLength="0/1"  />
              </VectorParam>
              <VectorParam id="2581"  name="rotation">
               <InterpolatingParam id="2582" interp="linr"  time="-9999999/1" value="0" leadInLength="0/1"  />
               <InterpolatingParam id="2583" interp="linr"  time="-9999999/1" value="0" leadInLength="0/1"  />
               <InterpolatingParam id="2584" interp="linr"  time="-9999999/1" value="0" leadInLength="0/1"  />
              </VectorParam>
              <VectorParam id="2585"  name="shear">
               <InterpolatingParam id="2586" interp="linr"  time="-9999999/1" value="0" leadInLength="0/1"  />
               <InterpolatingParam id="2587" interp="linr"  time="-9999999/1" value="0" leadInLength="0/1"  />
               <InterpolatingParam id="2588" interp="linr"  time="-9999999/1" value="0" leadInLength="0/1"  />
              </VectorParam>
              <VectorParam id="2589"  name="scale">
               <InterpolatingParam id="2590" interp="linr"  time="-9999999/1" value="1" leadInLength="0/1"  />
               <InterpolatingParam id="2591" interp="linr"  time="-9999999/1" value="1" leadInLength="0/1"  />
               <InterpolatingParam id="2592" interp="linr"  time="-9999999/1" value="1" leadInLength="0/1"  />
              </VectorParam>
              <VectorParam id="2593"  name="anchor">
               <InterpolatingParam id="2594" interp="linr"  time="0/1" value="0" leadInLength="0/1"  />
               <InterpolatingParam id="2595" interp="linr"  time="0/1" value="0" leadInLength="0/1"  />
               <InterpolatingParam id="2596" interp="linr"  time="0/1" value="0" leadInLength="0/1"  />
              </VectorParam>
             </Transformer>
             <Parameters>
              <VectorParam id="2597"  name="sourceCrop">
               <InterpolatingParam id="2598" interp="linr"  time="0/1" value="0" leadInLength="0/1"  />
               <InterpolatingParam id="2599" interp="linr"  time="0/1" value="0" leadInLength="0/1"  />
               <InterpolatingParam id="2600" interp="linr"  time="0/1" value="0" leadInLength="0/1"  />
               <InterpolatingParam id="2601" interp="linr"  time="0/1" value="0" leadInLength="0/1"  />
              </VectorParam>
              <VectorParam id="2602"  name="geometryCrop">
               <InterpolatingParam id="2603" interp="linr"  time="-9999999/1" value="0" leadInLength="0/1"  />
               <InterpolatingParam id="2604" interp="linr"  time="-9999999/1" value="0" leadInLength="0/1"  />
               <InterpolatingParam id="2605" interp="linr"  time="-9999999/1" value="0" leadInLength="0/1"  />
               <InterpolatingParam id="2606" interp="linr"  time="-9999999/1" value="0" leadInLength="0/1"  />
              </VectorParam>
              <InterpolatingParam id="2607" interp="linr"  time="-9999999/1" value="1" leadInLength="0/1"  name="opacity"/>
              <InterpolatingParam id="2608" interp="linr"  time="0/1" value="0" leadInLength="0/1"  name="cursorOpacity"/>
              <InterpolatingParam id="2609" interp="linr"  time="0/1" value="0" leadInLength="0/1"  name="cursorScale"/>
             </Parameters>
             <Attributes>
              <Attribute id="2610" value="" name="ident"/>
             </Attributes>
             <ExtraData>
              <Entry key="ZoomPanBin">
               <ZoomPanBin id="2611"  >
                <ZoomPanKeyframes>
                 <ZoomPanKeyframe id="2612" timeRangeEnd="-9999999/1" timeRangeDuration="0/1" interpolaterName=""  />
                </ZoomPanKeyframes>
               </ZoomPanBin>
              </Entry>
              <Entry key="CursorEffectBin">
               <CursorEffectBin id="2613"  >
                <CursorEffectKeyframes>
                </CursorEffectKeyframes>
               </CursorEffectBin>
              </Entry>
             </ExtraData>
            </ScreenVMFile>
            <MetaData>
             <entry key="AutoAppliedSmartFocus" val="False"/>
             <entry key="WinSubProjectDisplayName" val=""/>
            </MetaData>
           </UnifiedMedia>
           <UnifiedMedia id="2614"  >
            <AMFile id="2615" start="11045" duration="182" scalar="1/1" mediaStart="18529/1" mediaDuration="182/1" trackNumber="1" src="4" channelNumber="0,1" >
             <Parameters>
              <InterpolatingParam id="2616" interp="linr"  time="0/1" value="1" leadInLength="0/1"  name="volume"/>
              <Parameter id="2617"  name="captions"/>
             </Parameters>
             <Attributes>
              <Attribute id="2618" value="" name="ident"/>
              <Attribute id="2619" value="44100" name="sampleRate"/>
              <Attribute id="2620" value="16" name="bitDepth"/>
              <Attribute id="2621" value="1" name="gain"/>
              <Attribute id="2622" value="0" name="mixToMono"/>
             </Attributes>
            </AMFile>
            <ScreenVMFile id="2623" start="11045" duration="182" scalar="1/1" mediaStart="18529/1" mediaDuration="182/1" trackNumber="0" src="4" >
             <Transformer>
              <VectorParam id="2624"  name="translation">
               <InterpolatingParam id="2625" interp="linr"  time="-9999999/1" value="0" leadInLength="0/1"  />
               <InterpolatingParam id="2626" interp="linr"  time="-9999999/1" value="0" leadInLength="0/1"  />
               <InterpolatingParam id="2627" interp="linr"  time="-9999999/1" value="0" leadInLength="0/1"  />
              </VectorParam>
              <VectorParam id="2628"  name="rotation">
               <InterpolatingParam id="2629" interp="linr"  time="-9999999/1" value="0" leadInLength="0/1"  />
               <InterpolatingParam id="2630" interp="linr"  time="-9999999/1" value="0" leadInLength="0/1"  />
               <InterpolatingParam id="2631" interp="linr"  time="-9999999/1" value="0" leadInLength="0/1"  />
              </VectorParam>
              <VectorParam id="2632"  name="shear">
               <InterpolatingParam id="2633" interp="linr"  time="-9999999/1" value="0" leadInLength="0/1"  />
               <InterpolatingParam id="2634" interp="linr"  time="-9999999/1" value="0" leadInLength="0/1"  />
               <InterpolatingParam id="2635" interp="linr"  time="-9999999/1" value="0" leadInLength="0/1"  />
              </VectorParam>
              <VectorParam id="2636"  name="scale">
               <InterpolatingParam id="2637" interp="linr"  time="-9999999/1" value="1" leadInLength="0/1"  />
               <InterpolatingParam id="2638" interp="linr"  time="-9999999/1" value="1" leadInLength="0/1"  />
               <InterpolatingParam id="2639" interp="linr"  time="-9999999/1" value="1" leadInLength="0/1"  />
              </VectorParam>
              <VectorParam id="2640"  name="anchor">
               <InterpolatingParam id="2641" interp="linr"  time="0/1" value="0" leadInLength="0/1"  />
               <InterpolatingParam id="2642" interp="linr"  time="0/1" value="0" leadInLength="0/1"  />
               <InterpolatingParam id="2643" interp="linr"  time="0/1" value="0" leadInLength="0/1"  />
              </VectorParam>
             </Transformer>
             <Parameters>
              <VectorParam id="2644"  name="sourceCrop">
               <InterpolatingParam id="2645" interp="linr"  time="0/1" value="0" leadInLength="0/1"  />
               <InterpolatingParam id="2646" interp="linr"  time="0/1" value="0" leadInLength="0/1"  />
               <InterpolatingParam id="2647" interp="linr"  time="0/1" value="0" leadInLength="0/1"  />
               <InterpolatingParam id="2648" interp="linr"  time="0/1" value="0" leadInLength="0/1"  />
              </VectorParam>
              <VectorParam id="2649"  name="geometryCrop">
               <InterpolatingParam id="2650" interp="linr"  time="-9999999/1" value="0" leadInLength="0/1"  />
               <InterpolatingParam id="2651" interp="linr"  time="-9999999/1" value="0" leadInLength="0/1"  />
               <InterpolatingParam id="2652" interp="linr"  time="-9999999/1" value="0" leadInLength="0/1"  />
               <InterpolatingParam id="2653" interp="linr"  time="-9999999/1" value="0" leadInLength="0/1"  />
              </VectorParam>
              <InterpolatingParam id="2654" interp="linr"  time="-9999999/1" value="1" leadInLength="0/1"  name="opacity"/>
              <InterpolatingParam id="2655" interp="linr"  time="0/1" value="0" leadInLength="0/1"  name="cursorOpacity"/>
              <InterpolatingParam id="2656" interp="linr"  time="0/1" value="0" leadInLength="0/1"  name="cursorScale"/>
             </Parameters>
             <Attributes>
              <Attribute id="2657" value="" name="ident"/>
             </Attributes>
             <ExtraData>
              <Entry key="ZoomPanBin">
               <ZoomPanBin id="2658"  >
                <ZoomPanKeyframes>
                 <ZoomPanKeyframe id="2659" timeRangeEnd="-9999999/1" timeRangeDuration="0/1" interpolaterName=""  />
                </ZoomPanKeyframes>
               </ZoomPanBin>
              </Entry>
              <Entry key="CursorEffectBin">
               <CursorEffectBin id="2660"  >
                <CursorEffectKeyframes>
                </CursorEffectKeyframes>
               </CursorEffectBin>
              </Entry>
             </ExtraData>
            </ScreenVMFile>
            <MetaData>
             <entry key="AutoAppliedSmartFocus" val="False"/>
             <entry key="WinSubProjectDisplayName" val=""/>
            </MetaData>
           </UnifiedMedia>
          </Medias>
         </GenericTrack>
        </StitchedMedia>
        <UnifiedMedia id="2661"  >
         <AudioTransition id="2662" start="11009" duration="30" >
          <Parameters>
           <InterpolatingParam id="2663" interp="linr"  time="0/1" value="1" leadInLength="0/1"  name="volume"/>
           <Parameter id="2664"  name="captions"/>
          </Parameters>
          <Effects>
           <GenericEffect id="2665" name = "AudioTransition" >
            <Parameters>
            <Parameter id="2666"   name="audioEdgeModType">
             <Keyframes>
             <Keyframe id="2667"  time="0/1" value="0" leadInLength="0/1"  />
             </Keyframes>
            </Parameter>
            <Parameter id="2668"   name="audioTransitionType">
             <Keyframes>
             <Keyframe id="2669"  time="0/1" value="" leadInLength="0/1"  />
             </Keyframes>
            </Parameter>
            </Parameters>
            <MetaData>
            </MetaData>
           </GenericEffect>
          </Effects>
          <Attributes>
           <Attribute id="2670" value="" name="ident"/>
           <Attribute id="2671" value="0" name="sampleRate"/>
           <Attribute id="2672" value="0" name="bitDepth"/>
           <Attribute id="2673" value="1" name="gain"/>
           <Attribute id="2674" value="0" name="mixToMono"/>
          </Attributes>
         </AudioTransition>
         <ImageTransition id="2675" start="11009" duration="30" >
          <Transformer>
           <VectorParam id="2676"  name="translation">
            <InterpolatingParam id="2677" interp="linr"  time="0/1" value="0" leadInLength="0/1"  />
            <InterpolatingParam id="2678" interp="linr"  time="0/1" value="0" leadInLength="0/1"  />
            <InterpolatingParam id="2679" interp="linr"  time="0/1" value="0" leadInLength="0/1"  />
           </VectorParam>
           <VectorParam id="2680"  name="rotation">
            <InterpolatingParam id="2681" interp="linr"  time="0/1" value="0" leadInLength="0/1"  />
            <InterpolatingParam id="2682" interp="linr"  time="0/1" value="0" leadInLength="0/1"  />
            <InterpolatingParam id="2683" interp="linr"  time="0/1" value="0" leadInLength="0/1"  />
           </VectorParam>
           <VectorParam id="2684"  name="shear">
            <InterpolatingParam id="2685" interp="linr"  time="0/1" value="0" leadInLength="0/1"  />
            <InterpolatingParam id="2686" interp="linr"  time="0/1" value="0" leadInLength="0/1"  />
            <InterpolatingParam id="2687" interp="linr"  time="0/1" value="0" leadInLength="0/1"  />
           </VectorParam>
           <VectorParam id="2688"  name="scale">
            <InterpolatingParam id="2689" interp="linr"  time="0/1" value="1" leadInLength="0/1"  />
            <InterpolatingParam id="2690" interp="linr"  time="0/1" value="1" leadInLength="0/1"  />
            <InterpolatingParam id="2691" interp="linr"  time="0/1" value="1" leadInLength="0/1"  />
           </VectorParam>
           <VectorParam id="2692"  name="anchor">
            <InterpolatingParam id="2693" interp="linr"  time="0/1" value="0" leadInLength="0/1"  />
            <InterpolatingParam id="2694" interp="linr"  time="0/1" value="0" leadInLength="0/1"  />
            <InterpolatingParam id="2695" interp="linr"  time="0/1" value="0" leadInLength="0/1"  />
           </VectorParam>
          </Transformer>
          <Parameters>
           <VectorParam id="2696"  name="sourceCrop">
            <InterpolatingParam id="2697" interp="linr"  time="0/1" value="0" leadInLength="0/1"  />
            <InterpolatingParam id="2698" interp="linr"  time="0/1" value="0" leadInLength="0/1"  />
            <InterpolatingParam id="2699" interp="linr"  time="0/1" value="0" leadInLength="0/1"  />
            <InterpolatingParam id="2700" interp="linr"  time="0/1" value="0" leadInLength="0/1"  />
           </VectorParam>
           <VectorParam id="2701"  name="geometryCrop">
            <InterpolatingParam id="2702" interp="linr"  time="0/1" value="0" leadInLength="0/1"  />
            <InterpolatingParam id="2703" interp="linr"  time="0/1" value="0" leadInLength="0/1"  />
            <InterpolatingParam id="2704" interp="linr"  time="0/1" value="0" leadInLength="0/1"  />
            <InterpolatingParam id="2705" interp="linr"  time="0/1" value="0" leadInLength="0/1"  />
           </VectorParam>
           <InterpolatingParam id="2706" interp="linr"  time="0/1" value="1" leadInLength="0/1"  name="opacity"/>
          </Parameters>
          <Effects>
           <GenericEffect id="2707" name = "VisualTransition" >
            <Parameters>
            <InterpolatingParam id="2708" interp="linr"  time="0/1" value="0.5" leadInLength="0/1"   name="leftFramePercentage"/>
            <InterpolatingParam id="2709" interp="linr"  time="0/1" value="0.5" leadInLength="0/1"   name="rightFramePercentage"/>
            <Parameter id="2710"   name="visualEdgeModType">
             <Keyframes>
             <Keyframe id="2711"  time="0/1" value="2" leadInLength="0/1"  />
             </Keyframes>
            </Parameter>
            <Parameter id="2712"   name="visualTransitionType">
             <Keyframes>
             <Keyframe id="2713"  time="0/1" value="Glow" leadInLength="0/1"  />
             </Keyframes>
            </Parameter>
            </Parameters>
            <MetaData>
            </MetaData>
           </GenericEffect>
          </Effects>
          <Attributes>
           <Attribute id="2714" value="" name="ident"/>
          </Attributes>
          <ExtraData>
           <Entry key="ZoomPanBin">
            <ZoomPanBin id="2715"  >
             <ZoomPanKeyframes>
             </ZoomPanKeyframes>
            </ZoomPanBin>
           </Entry>
          </ExtraData>
         </ImageTransition>
         <MetaData>
          <entry key="WinSubProjectDisplayName" val=""/>
         </MetaData>
        </UnifiedMedia>
       </Medias>
      </GenericTrack>
      <GenericTrack id="2716"  >
       <Attributes>
        <Attribute id="2717" value="" name="ident"/>
        <Attribute id="2718" value="0" name="audioMuted"/>
        <Attribute id="2719" value="0" name="videoHidden"/>
       </Attributes>
       <MetaData>
        <entry key="IsLocked" val="False"/>
        <entry key="WinTrackHeight" val="62"/>
       </MetaData>
       <Medias>
       </Medias>
      </GenericTrack>
     </Tracks>
    </GenericMixer>
   <CaptionAttributes id="2720"  >
    <Attribute id="2721" value="1" name="captionsEnabled"/>
    <Attribute id="2722" value="Arial" name="captionsFontName"/>
    <Attribute id="2723" value="36" name="captionsFontSize"/>
    <Attribute id="2724" value="(0,0,0,255)" name="captionsBackgroundColor"/>
    <Attribute id="2725" value="(255,255,255,255)" name="captionsForegroundColor"/>
    <Attribute id="2726" value="en" name="lang"/>
    <Attribute id="2727" value="0" name="captionsAlignment"/>
    <Attribute id="2728" value="1" name="captionsDefaultFontSize"/>
    <Attribute id="2729" value="0.5" name="captionsOpacity"/>
    <Attribute id="2730" value="1" name="captionsBackgroundEnabled"/>
    <Attribute id="2731" value="1" name="captionsBackgroundOnlyAroundText"/>
   </CaptionAttributes>
   <Parameters>
    <VectorParam id="2732"  name="eyePosition">
     <InterpolatingParam id="2733" interp="linr"  time="0/1" value="0" leadInLength="0/1"  />
     <InterpolatingParam id="2734" interp="linr"  time="0/1" value="0" leadInLength="0/1"  />
     <InterpolatingParam id="2735" interp="linr"  time="0/1" value="3000" leadInLength="0/1"  />
    </VectorParam>
    <VectorParam id="2736"  name="eyeLookAtPosition">
     <InterpolatingParam id="2737" interp="linr"  time="0/1" value="0" leadInLength="0/1"  />
     <InterpolatingParam id="2738" interp="linr"  time="0/1" value="0" leadInLength="0/1"  />
     <InterpolatingParam id="2739" interp="linr"  time="0/1" value="0" leadInLength="0/1"  />
    </VectorParam>
    <VectorParam id="2740"  name="eyeUpVector">
     <InterpolatingParam id="2741" interp="linr"  time="0/1" value="0" leadInLength="0/1"  />
     <InterpolatingParam id="2742" interp="linr"  time="0/1" value="1" leadInLength="0/1"  />
     <InterpolatingParam id="2743" interp="linr"  time="0/1" value="0" leadInLength="0/1"  />
    </VectorParam>
    <InterpolatingParam id="2744" interp="linr"  time="0/1" value="0.356185883" leadInLength="0/1"  name="fov"/>
    <InterpolatingParam id="2745" interp="linr"  time="0/1" value="1.5" leadInLength="0/1"  name="nearClipDistance"/>
    <InterpolatingParam id="2746" interp="linr"  time="0/1" value="6000" leadInLength="0/1"  name="farClipDistance"/>
   </Parameters>
  </Timeline>
 </Project>
</GoProject>
</CSMLData>

</Project_Data>
