<?xml version="1.0"?>
<Project_Data Version="8.00">
<Project_Settings>
<ProfileName></ProfileName>
<ProjectWidth>1920</ProjectWidth>
<ProjectHeight>1080</ProjectHeight>
<IsCustomProject>1</IsCustomProject>
<SavedProjectSettings>1</SavedProjectSettings>
<LastFlashTemplate>-1</LastFlashTemplate>
</Project_Settings>


<AutoSaveFile>C:\Users\Administrator\AppData\Local\TechSmith\Camtasia Studio\8.0\Auto-Saves\Align Items2f70fb.autosave.camproj</AutoSaveFile>

<ProjectID>CC3FA732-159C-446A-A471-DDB690B05E0F</ProjectID>

<PowerPointProject>0</PowerPointProject>

<PowerPointFilename></PowerPointFilename>


<Project_Notes>
</Project_Notes>

<Project_MetaData>
<Project_MetaData_Object>
<FieldArrayKey>8</FieldArrayKey>
<Value>Align Items</Value>
</Project_MetaData_Object>
<Project_MetaData_Object>
<FieldArrayKey>13</FieldArrayKey>
<Value>2017-02-04 10:52:01 AM</Value>
</Project_MetaData_Object>
<Project_MetaData_Object>
<FieldArrayKey>16</FieldArrayKey>
<Value>ENU</Value>
</Project_MetaData_Object>
</Project_MetaData>

<CSMLData>
<GoProject id="1" version="3.0" >
 <Project id="2" editRate="30/1" version="3.0" >
  <Author></Author>
  <Comment></Comment>
  <System></System>
  <SourceBin id="3"  >
    <Source id="4" src="D:\Peter Sommerhoff\Source Files\07.align-items.trec" lastMod="20170129T080608" rect="(0,0,1920,1080)" >
      <SourceTrack range="(0,13689)" type="0" editRate="30/1" trackRect="(0,0,1920,1080)" sampleRate="0/1" bitDepth="0" numChannels="0" filename="07.align-items.trec!Strack0.tsc2" metaData="07.align-items.trec;" />
      <SourceTrack range="(0,20111360)" type="2" editRate="44100/1" trackRect="(0,0,0,0)" sampleRate="44100/1" bitDepth="16" numChannels="2" filename="07.align-items.trec!Maudio1.mp4" metaData="" />
    </Source>
    <Source id="5" src="D:\installer\Camtasia plus\new\triangle-dots-background\triangle-dots-background.mp4" lastMod="20160831T191046" rect="(0,0,1920,1080)" >
      <SourceTrack range="(0,300333333)" type="0" editRate="10000000/1" trackRect="(0,0,1920,1080)" sampleRate="10000000/333677" bitDepth="24" numChannels="0" filename="" metaData="" />
    </Source>
    <Source id="6" src="D:\Music\AudioJungle\[Audiojungle] Bundle 2015 Vol. 3 [Fluck3r]\audiojungle-9111267-glitchy-trailer\Edits\Glitchy Trailer - Teaser.mp3" lastMod="20141004T110528" rect="(0,0,0,0)" >
      <SourceTrack range="(0,148666667)" type="2" editRate="10000000/1" trackRect="(0,0,0,0)" sampleRate="44100/1" bitDepth="0" numChannels="2" filename="" metaData="" />
    </Source>
    <Source id="7" src="D:\adszest\social icon\Socail-Media-pinterest.png" lastMod="20160803T170056" rect="(0,0,470,470)" >
      <SourceTrack range="(0,1)" type="1" editRate="10000000/1" trackRect="(0,0,470,470)" sampleRate="0/1" bitDepth="32" numChannels="0" filename="" metaData="" />
    </Source>
    <Source id="8" src="D:\adszest\social icon\Socail-Media-twitter.png" lastMod="20160803T165846" rect="(0,0,470,470)" >
      <SourceTrack range="(0,1)" type="1" editRate="10000000/1" trackRect="(0,0,470,470)" sampleRate="0/1" bitDepth="32" numChannels="0" filename="" metaData="" />
    </Source>
    <Source id="9" src="D:\adszest\social icon\Socail-Media-youtube.png" lastMod="20160803T170024" rect="(0,0,470,470)" >
      <SourceTrack range="(0,1)" type="1" editRate="10000000/1" trackRect="(0,0,470,470)" sampleRate="0/1" bitDepth="32" numChannels="0" filename="" metaData="" />
    </Source>
    <Source id="10" src="D:\adszest\social icon\Socail-Media-facebook.png" lastMod="20160803T165925" rect="(0,0,470,470)" >
      <SourceTrack range="(0,1)" type="1" editRate="10000000/1" trackRect="(0,0,470,470)" sampleRate="0/1" bitDepth="32" numChannels="0" filename="" metaData="" />
    </Source>
    <Source id="11" src="D:\adszest\social icon\Socail-Media-instagram.png" lastMod="20160803T165952" rect="(0,0,470,470)" >
      <SourceTrack range="(0,1)" type="1" editRate="10000000/1" trackRect="(0,0,470,470)" sampleRate="0/1" bitDepth="32" numChannels="0" filename="" metaData="" />
    </Source>
    <Source id="12" src="C:\ProgramData\TechSmith\Camtasia Studio\Library 2.0\Group_2017-02-04_121120\triangle-dots-background.mp4" lastMod="20160831T191046" rect="(0,0,1920,1080)" >
      <SourceTrack range="(0,300333333)" type="0" editRate="10000000/1" trackRect="(0,0,1920,1080)" sampleRate="10000000/333677" bitDepth="24" numChannels="0" filename="" metaData="" />
    </Source>
    <Source id="13" src="C:\ProgramData\TechSmith\Camtasia Studio\Library 2.0\Group_2017-02-04_121120\Socail-Media-facebook.png" lastMod="20160803T165925" rect="(0,0,470,470)" >
      <SourceTrack range="(0,1)" type="1" editRate="10000000/1" trackRect="(0,0,470,470)" sampleRate="0/1" bitDepth="32" numChannels="0" filename="" metaData="" />
    </Source>
    <Source id="14" src="C:\ProgramData\TechSmith\Camtasia Studio\Library 2.0\Group_2017-02-04_121120\Socail-Media-instagram.png" lastMod="20160803T165952" rect="(0,0,470,470)" >
      <SourceTrack range="(0,1)" type="1" editRate="10000000/1" trackRect="(0,0,470,470)" sampleRate="0/1" bitDepth="32" numChannels="0" filename="" metaData="" />
    </Source>
    <Source id="15" src="C:\ProgramData\TechSmith\Camtasia Studio\Library 2.0\Group_2017-02-04_121120\Socail-Media-pinterest.png" lastMod="20160803T170056" rect="(0,0,470,470)" >
      <SourceTrack range="(0,1)" type="1" editRate="10000000/1" trackRect="(0,0,470,470)" sampleRate="0/1" bitDepth="32" numChannels="0" filename="" metaData="" />
    </Source>
    <Source id="16" src="C:\ProgramData\TechSmith\Camtasia Studio\Library 2.0\Group_2017-02-04_121120\Socail-Media-twitter.png" lastMod="20160803T165846" rect="(0,0,470,470)" >
      <SourceTrack range="(0,1)" type="1" editRate="10000000/1" trackRect="(0,0,470,470)" sampleRate="0/1" bitDepth="32" numChannels="0" filename="" metaData="" />
    </Source>
    <Source id="17" src="C:\ProgramData\TechSmith\Camtasia Studio\Library 2.0\Group_2017-02-04_121120\Socail-Media-youtube.png" lastMod="20160803T170024" rect="(0,0,470,470)" >
      <SourceTrack range="(0,1)" type="1" editRate="10000000/1" trackRect="(0,0,470,470)" sampleRate="0/1" bitDepth="32" numChannels="0" filename="" metaData="" />
    </Source>
  </SourceBin>
  <Timeline id="18"  >
   <Attributes>
    <Attribute id="19" value="1920" name="width"/>
    <Attribute id="20" value="1080" name="height"/>
    <Attribute id="21" value="(0,0,0,255)" name="backgroundColor"/>
   </Attributes>
    <GenericMixer id="22"  name="Unified Mixer">
     <MetaData>
      <entry key="MixerType" val="TimelineMixer"/>
     </MetaData>
     <Tracks>
      <GenericTrack id="23"  >
       <Attributes>
        <Attribute id="24" value="" name="ident"/>
        <Attribute id="25" value="0" name="audioMuted"/>
        <Attribute id="26" value="0" name="videoHidden"/>
       </Attributes>
       <MetaData>
        <entry key="IsLocked" val="False"/>
        <entry key="WinTrackHeight" val="40"/>
       </MetaData>
       <Medias>
       </Medias>
      </GenericTrack>
      <GenericTrack id="27"  >
       <Attributes>
        <Attribute id="28" value="" name="ident"/>
        <Attribute id="29" value="0" name="audioMuted"/>
        <Attribute id="30" value="0" name="videoHidden"/>
       </Attributes>
       <MetaData>
        <entry key="IsLocked" val="False"/>
        <entry key="WinTrackHeight" val="137"/>
       </MetaData>
       <Medias>
        <UnifiedMedia id="31"  >
         <AudioTransition id="32" start="0" duration="15" >
          <Parameters>
           <InterpolatingParam id="33" interp="linr"  time="0/1" value="1" leadInLength="0/1"  name="volume"/>
           <Parameter id="34"  name="captions"/>
          </Parameters>
          <Effects>
           <GenericEffect id="35" name = "AudioTransition" >
            <Parameters>
            <Parameter id="36"   name="audioEdgeModType">
             <Keyframes>
             <Keyframe id="37"  time="0/1" value="0" leadInLength="0/1"  />
             </Keyframes>
            </Parameter>
            <Parameter id="38"   name="audioTransitionType">
             <Keyframes>
             <Keyframe id="39"  time="0/1" value="" leadInLength="0/1"  />
             </Keyframes>
            </Parameter>
            </Parameters>
            <MetaData>
            </MetaData>
           </GenericEffect>
          </Effects>
          <Attributes>
           <Attribute id="40" value="" name="ident"/>
           <Attribute id="41" value="0" name="sampleRate"/>
           <Attribute id="42" value="0" name="bitDepth"/>
           <Attribute id="43" value="1" name="gain"/>
           <Attribute id="44" value="0" name="mixToMono"/>
          </Attributes>
         </AudioTransition>
         <ImageTransition id="45" start="0" duration="15" >
          <Transformer>
           <VectorParam id="46"  name="translation">
            <InterpolatingParam id="47" interp="linr"  time="0/1" value="0" leadInLength="0/1"  />
            <InterpolatingParam id="48" interp="linr"  time="0/1" value="0" leadInLength="0/1"  />
            <InterpolatingParam id="49" interp="linr"  time="0/1" value="0" leadInLength="0/1"  />
           </VectorParam>
           <VectorParam id="50"  name="rotation">
            <InterpolatingParam id="51" interp="linr"  time="0/1" value="0" leadInLength="0/1"  />
            <InterpolatingParam id="52" interp="linr"  time="0/1" value="0" leadInLength="0/1"  />
            <InterpolatingParam id="53" interp="linr"  time="0/1" value="0" leadInLength="0/1"  />
           </VectorParam>
           <VectorParam id="54"  name="shear">
            <InterpolatingParam id="55" interp="linr"  time="0/1" value="0" leadInLength="0/1"  />
            <InterpolatingParam id="56" interp="linr"  time="0/1" value="0" leadInLength="0/1"  />
            <InterpolatingParam id="57" interp="linr"  time="0/1" value="0" leadInLength="0/1"  />
           </VectorParam>
           <VectorParam id="58"  name="scale">
            <InterpolatingParam id="59" interp="linr"  time="0/1" value="1" leadInLength="0/1"  />
            <InterpolatingParam id="60" interp="linr"  time="0/1" value="1" leadInLength="0/1"  />
            <InterpolatingParam id="61" interp="linr"  time="0/1" value="1" leadInLength="0/1"  />
           </VectorParam>
           <VectorParam id="62"  name="anchor">
            <InterpolatingParam id="63" interp="linr"  time="0/1" value="0" leadInLength="0/1"  />
            <InterpolatingParam id="64" interp="linr"  time="0/1" value="0" leadInLength="0/1"  />
            <InterpolatingParam id="65" interp="linr"  time="0/1" value="0" leadInLength="0/1"  />
           </VectorParam>
          </Transformer>
          <Parameters>
           <VectorParam id="66"  name="sourceCrop">
            <InterpolatingParam id="67" interp="linr"  time="0/1" value="0" leadInLength="0/1"  />
            <InterpolatingParam id="68" interp="linr"  time="0/1" value="0" leadInLength="0/1"  />
            <InterpolatingParam id="69" interp="linr"  time="0/1" value="0" leadInLength="0/1"  />
            <InterpolatingParam id="70" interp="linr"  time="0/1" value="0" leadInLength="0/1"  />
           </VectorParam>
           <VectorParam id="71"  name="geometryCrop">
            <InterpolatingParam id="72" interp="linr"  time="0/1" value="0" leadInLength="0/1"  />
            <InterpolatingParam id="73" interp="linr"  time="0/1" value="0" leadInLength="0/1"  />
            <InterpolatingParam id="74" interp="linr"  time="0/1" value="0" leadInLength="0/1"  />
            <InterpolatingParam id="75" interp="linr"  time="0/1" value="0" leadInLength="0/1"  />
           </VectorParam>
           <InterpolatingParam id="76" interp="linr"  time="0/1" value="1" leadInLength="0/1"  name="opacity"/>
          </Parameters>
          <Effects>
           <GenericEffect id="77" name = "VisualTransition" >
            <Parameters>
            <InterpolatingParam id="78" interp="linr"  time="0/1" value="0.5" leadInLength="0/1"   name="leftFramePercentage"/>
            <InterpolatingParam id="79" interp="linr"  time="0/1" value="0.5" leadInLength="0/1"   name="rightFramePercentage"/>
            <Parameter id="80"   name="visualEdgeModType">
             <Keyframes>
             <Keyframe id="81"  time="0/1" value="1" leadInLength="0/1"  />
             </Keyframes>
            </Parameter>
            <Parameter id="82"   name="visualTransitionType">
             <Keyframes>
             <Keyframe id="83"  time="0/1" value="Glow" leadInLength="0/1"  />
             </Keyframes>
            </Parameter>
            </Parameters>
            <MetaData>
            </MetaData>
           </GenericEffect>
          </Effects>
          <Attributes>
           <Attribute id="84" value="" name="ident"/>
          </Attributes>
          <ExtraData>
           <Entry key="ZoomPanBin">
            <ZoomPanBin id="85"  >
             <ZoomPanKeyframes>
             </ZoomPanKeyframes>
            </ZoomPanBin>
           </Entry>
          </ExtraData>
         </ImageTransition>
         <MetaData>
          <entry key="WinSubProjectDisplayName" val=""/>
         </MetaData>
        </UnifiedMedia>
        <StitchedMedia id="86" start="15" duration="7353" scalar="1/1" mediaStart="93/1" mediaDuration="7353/1" minMediaStart="0/1" >
         <Transformer>
          <VectorParam id="87"  name="translation">
           <InterpolatingParam id="88" interp="linr"  time="-9999999/1" value="0" leadInLength="0/1"  interpolater="leadin-linr"  />
           <InterpolatingParam id="89" interp="linr"  time="-9999999/1" value="0" leadInLength="0/1"  interpolater="leadin-linr"  />
           <InterpolatingParam id="90" interp="linr"  time="-9999999/1" value="0" leadInLength="0/1"  interpolater="leadin-linr"  />
          </VectorParam>
          <VectorParam id="91"  name="rotation">
           <InterpolatingParam id="92" interp="linr"  time="-9999999/1" value="0" leadInLength="0/1"  interpolater="leadin-linr"  />
           <InterpolatingParam id="93" interp="linr"  time="-9999999/1" value="0" leadInLength="0/1"  interpolater="leadin-linr"  />
           <InterpolatingParam id="94" interp="linr"  time="-9999999/1" value="0" leadInLength="0/1"  interpolater="leadin-linr"  />
          </VectorParam>
          <VectorParam id="95"  name="shear">
           <InterpolatingParam id="96" interp="linr"  time="-9999999/1" value="0" leadInLength="0/1"  interpolater="leadin-linr"  />
           <InterpolatingParam id="97" interp="linr"  time="-9999999/1" value="0" leadInLength="0/1"  interpolater="leadin-linr"  />
           <InterpolatingParam id="98" interp="linr"  time="-9999999/1" value="0" leadInLength="0/1"  interpolater="leadin-linr"  />
          </VectorParam>
          <VectorParam id="99"  name="scale">
           <InterpolatingParam id="100" interp="linr"  time="-9999999/1" value="1" leadInLength="0/1"  interpolater="leadin-linr"  />
           <InterpolatingParam id="101" interp="linr"  time="-9999999/1" value="1" leadInLength="0/1"  interpolater="leadin-linr"  />
           <InterpolatingParam id="102" interp="linr"  time="-9999999/1" value="1" leadInLength="0/1"  interpolater="leadin-linr"  />
          </VectorParam>
          <VectorParam id="103"  name="anchor">
           <InterpolatingParam id="104" interp="linr"  time="0/1" value="0" leadInLength="0/1"  />
           <InterpolatingParam id="105" interp="linr"  time="0/1" value="0" leadInLength="0/1"  />
           <InterpolatingParam id="106" interp="linr"  time="0/1" value="0" leadInLength="0/1"  />
          </VectorParam>
         </Transformer>
         <Parameters>
          <VectorParam id="107"  name="sourceCrop">
           <InterpolatingParam id="108" interp="linr"  time="0/1" value="0" leadInLength="0/1"  />
           <InterpolatingParam id="109" interp="linr"  time="0/1" value="0" leadInLength="0/1"  />
           <InterpolatingParam id="110" interp="linr"  time="0/1" value="0" leadInLength="0/1"  />
           <InterpolatingParam id="111" interp="linr"  time="0/1" value="0" leadInLength="0/1"  />
          </VectorParam>
          <VectorParam id="112"  name="geometryCrop">
           <InterpolatingParam id="113" interp="linr"  time="-9999999/1" value="0" leadInLength="0/1"  interpolater="leadin-linr"  />
           <InterpolatingParam id="114" interp="linr"  time="-9999999/1" value="0" leadInLength="0/1"  interpolater="leadin-linr"  />
           <InterpolatingParam id="115" interp="linr"  time="-9999999/1" value="0" leadInLength="0/1"  interpolater="leadin-linr"  />
           <InterpolatingParam id="116" interp="linr"  time="-9999999/1" value="0" leadInLength="0/1"  interpolater="leadin-linr"  />
          </VectorParam>
          <InterpolatingParam id="117" interp="linr"  time="-9999999/1" value="1" leadInLength="0/1"  interpolater="leadin-linr"  name="opacity"/>
          <InterpolatingParam id="118" interp="linr"  time="0/1" value="1" leadInLength="0/1"  name="cursorOpacity"/>
          <InterpolatingParam id="119" interp="linr"  time="0/1" value="1" leadInLength="0/1"  name="cursorScale"/>
          <InterpolatingParam id="120" interp="linr"  time="0/1" value="1.5625" leadInLength="0/1"  name="volume"/>
          <Parameter id="121"  name="captions"/>
         </Parameters>
         <Effects>
          <GenericEffect id="122" name = "CursorBaseEffectName" >
           <Parameters>
           <InterpolatingParam id="123" interp="linr"  time="-9999999/1" value="1" leadInLength="0/1"   name="cursorSize"/>
           <InterpolatingParam id="124" interp="linr"  time="-9999999/1" value="0" leadInLength="0/1"   name="highlightBlurRadius"/>
           <InterpolatingParam id="125" interp="linr"  time="-9999999/1" value="0" leadInLength="0/1"   name="highlightColorBlue"/>
           <InterpolatingParam id="126" interp="linr"  time="-9999999/1" value="255" leadInLength="0/1"   name="highlightColorGreen"/>
           <InterpolatingParam id="127" interp="linr"  time="-9999999/1" value="255" leadInLength="0/1"   name="highlightColorRed"/>
           <InterpolatingParam id="128" interp="linr"  time="-9999999/1" value="5" leadInLength="0/1"   name="highlightFeatherSize"/>
           <InterpolatingParam id="129" interp="linr"  time="-9999999/1" value="2" leadInLength="0/1"   name="highlightMagnification"/>
           <InterpolatingParam id="130" interp="linr"  time="-9999999/1" value="1" leadInLength="0/1"   name="highlightOpacity"/>
           <InterpolatingParam id="131" interp="linr"  time="-9999999/1" value="45" leadInLength="0/1"   name="highlightSize"/>
           <Parameter id="132"   name="highlightType">
            <Keyframes>
            <Keyframe id="133"  time="-9999999/1" value="0" leadInLength="0/1"  />
            </Keyframes>
           </Parameter>
           <InterpolatingParam id="134" interp="linr"  time="-9999999/1" value="0" leadInLength="0/1"   name="leftClickColorBlue"/>
           <InterpolatingParam id="135" interp="linr"  time="-9999999/1" value="0" leadInLength="0/1"   name="leftClickColorGreen"/>
           <InterpolatingParam id="136" interp="linr"  time="-9999999/1" value="255" leadInLength="0/1"   name="leftClickColorRed"/>
           <InterpolatingParam id="137" interp="linr"  time="-9999999/1" value="0.80000000000000004" leadInLength="0/1"   name="leftClickDuration"/>
           <InterpolatingParam id="138" interp="linr"  time="-9999999/1" value="20" leadInLength="0/1"   name="leftClickSize"/>
           <Parameter id="139"   name="leftClickSoundFilename">
            <Keyframes>
            <Keyframe id="140"  time="-9999999/1" value="" leadInLength="0/1"  />
            </Keyframes>
           </Parameter>
           <InterpolatingParam id="141" interp="linr"  time="-9999999/1" value="1" leadInLength="0/1"   name="leftClickSoundVolume"/>
           <Parameter id="142"   name="leftClickType">
            <Keyframes>
            <Keyframe id="143"  time="-9999999/1" value="0" leadInLength="0/1"  />
            </Keyframes>
           </Parameter>
           <InterpolatingParam id="144" interp="linr"  time="-9999999/1" value="1" leadInLength="0/1"   name="opacity"/>
           <InterpolatingParam id="145" interp="linr"  time="-9999999/1" value="255" leadInLength="0/1"   name="rightClickColorBlue"/>
           <InterpolatingParam id="146" interp="linr"  time="-9999999/1" value="0" leadInLength="0/1"   name="rightClickColorGreen"/>
           <InterpolatingParam id="147" interp="linr"  time="-9999999/1" value="0" leadInLength="0/1"   name="rightClickColorRed"/>
           <InterpolatingParam id="148" interp="linr"  time="-9999999/1" value="0.80000000000000004" leadInLength="0/1"   name="rightClickDuration"/>
           <InterpolatingParam id="149" interp="linr"  time="-9999999/1" value="20" leadInLength="0/1"   name="rightClickSize"/>
           <Parameter id="150"   name="rightClickSoundFilename">
            <Keyframes>
            <Keyframe id="151"  time="-9999999/1" value="" leadInLength="0/1"  />
            </Keyframes>
           </Parameter>
           <InterpolatingParam id="152" interp="linr"  time="-9999999/1" value="1" leadInLength="0/1"   name="rightClickSoundVolume"/>
           <Parameter id="153"   name="rightClickType">
            <Keyframes>
            <Keyframe id="154"  time="-9999999/1" value="0" leadInLength="0/1"  />
            </Keyframes>
           </Parameter>
           </Parameters>
           <MetaData>
            <entry key="effectIndex" val="0"/>
           </MetaData>
          </GenericEffect>
          <GenericEffect id="155" name = "WinCompression" >
           <Parameters>
           <InterpolatingParam id="156" interp="linr"  time="0/1" value="0" leadInLength="0/1"   name="attack"/>
           <InterpolatingParam id="157" interp="linr"  time="0/1" value="9" leadInLength="0/1"   name="gain"/>
           <Parameter id="158"   name="preset">
            <Keyframes>
            <Keyframe id="159"  time="0/1" value="1" leadInLength="0/1"  />
            </Keyframes>
           </Parameter>
           <InterpolatingParam id="160" interp="linr"  time="0/1" value="10" leadInLength="0/1"   name="ratio"/>
           <InterpolatingParam id="161" interp="linr"  time="0/1" value="3500" leadInLength="0/1"   name="release"/>
           <InterpolatingParam id="162" interp="linr"  time="0/1" value="-20" leadInLength="0/1"   name="threshold"/>
           </Parameters>
           <MetaData>
            <entry key="effectIndex" val="1"/>
           </MetaData>
          </GenericEffect>
          <GenericEffect id="163" name = "NoiseReduction" >
           <Parameters>
           <InterpolatingParam id="164" interp="linr"  time="0/1" value="20" leadInLength="0/1"   name="denoiserAmount"/>
           <InterpolatingParam id="165" interp="linr"  time="0/1" value="0" leadInLength="0/1"   name="denoiserThreshold"/>
           <Parameter id="166"   name="noiseProfile">
            <Keyframes>
            <Keyframe id="167"  time="0/1" value="FBAAAAIAAABErAAAAQIAAMjqm8IStJLCsfmfwhjcpMLj453CvF6cwgvOq8JeorHCP5+4wgrxvsIS&#xD;&#xa;F8LCHJPDwqOvwMIEbrvCzpq4woesucJRfrrCDobBwvBfxMLMC8HCtHnDwvpQycLyLMrCTMvIwuFZ&#xD;&#xa;ysII48zCvpnNwvd50MJeiMzCIkfLwvrFzcKe283CFzTNwsSb0cKVO9XCxdfUwo4G08IoOtLCeMPR&#xD;&#xa;wj5x1MKYj9XCbX7TwthK1cJbc9TCwILSwqrn0cL4tNLCL4jTwpJx08KR5tTCQLbTwiSN0sKmWNfC&#xD;&#xa;WQXaws7V1cKPg9XCkmbVwiXs1cLbItfCRN/WwoTn1MLI79TCQ2rVwi9s1MIS9NXCtpDYwkCu2cJi&#xD;&#xa;ptnCM8vXwon91MKpZNTCx+fYwvjQ2sLME9rCW8fYwrwQ2cKYn9fCrXbbwhTm3sJcMt3CLOjbwjs+&#xD;&#xa;3sLght3CwmXbwgvY3MLgc9zCKAXawuaU2MLL09jC6DHcwgR93sIszN3CYqXZwjg02sL4l93CykXa&#xD;&#xa;wmlc2MKah9vCvRTdwnw028L2k9nC8+fawiyN38JW19/CLBncwufS2sKaPNrC9DvYwoj23MK9c+DC&#xD;&#xa;VV/fwsjV3MI6+9vCtebewsox4MLn593CmNvbwiCb38IMq9/CzODgwu5a4cLx1d7CMMfawi7F3cL+&#xD;&#xa;B+DCvKffwnKu3MKCMNzCftfcwsEH4MKg1t/CEeDewvi23cL+Rt/CcEbewrwm3sI86dzCNNXcwv7E&#xD;&#xa;3MLV5dvCninbwqiL3MLEgd7C0lDewnWo3cJM1d3CrJ3ewgCd3sLUkt7C3djfwjY94MLhCt7CkPnf&#xD;&#xa;wl6J4cIzIuHCZTXhwkRR38K21N/CY7zfwqCa3MJs7dvCZYzgwkbO38I7Dd7C78nfwlrH3sIOY9zC&#xD;&#xa;8/PbwhFy3sI41eDCgMjgwhBo4MLgdeTCezniwn5538J3tODCyUbfwkqO3sIo5d3CKArbwsCs3MIi&#xD;&#xa;Ld7Cu+zbwt/43MJHjeDCOOrgwqhb4MKQH9/C1tbewuBo38J0q9/ClYHhwoAA48ISj+LC2RzjwnpI&#xD;&#xa;4cLd1uDCOqHewhjw3cLA+d/CKnPgwqzu38Lew97CRgPfwsan3cJuAN/C99TfwoBO38LkEN7Ch07e&#xD;&#xa;wgU338KJst/CC6Dfwk5t38LideDCyfzkwoTi5MLxSOHCS8DfwjZH38IDud3CLpbewhbz3sIklt/C&#xD;&#xa;yN/fwqVh4MJnJd3CrA/bwjIT4cJVq+LClrDgwund3sIIsN7CdcnhwsY938KNy9/CAprewjR438J2&#xD;&#xa;BeDC+6/gwgeH4cJSNeXCsKLowsI06cISY+fCcU/nwo1K5sLrAOXCqnnmwvzf6cKMRerCn/TpwvBi&#xD;&#xa;6cIuP+bCnTvowg025cKwouDCOFvhwiK35MIic+bChmriwuZm4MK2AeLCWG3iwk5w5MJgl+XCEg/i&#xD;&#xa;wvJ+48LUkuPCf/bjwv4+5MJk2+LCdPvgwnO64cKoAeTCv2Djwilx48Io7eHCtwDewtnN3cJydePC&#xD;&#xa;ccXjwniT5cLRJuPCqmLiwtnL5cJCPuTCpL3lwrz+68JSofPCSr74wrDb9sLyavfCUpf4wvEL9sLC&#xD;&#xa;Y/fCti35wgL4+MIsrPnCGA/7wj6e+MIwBvzChkn8wrIj+sLmnPjCaEn5wqR7/cIA6vvC6Lv7wvkf&#xD;&#xa;+MICUvfCl2P1wnHA9cJizvfCvpP6wlw/+sJWPffCnFH3wmC09sLMPPfC8o30wv/+9MK+bfbCQrv1&#xD;&#xa;wgoU9sIAqvfCdK74whNa9sKeJvbCrDj1wvA29cLVkffCfU33wjwg+MIcLvnCIPP4wm6c+MIErfjC&#xD;&#xa;2Qn3wn469sJusPfCjiz3wlDH98KGXffC+hz0wv7c9MLGSfbCiKT5wo4F+MK+SvbCMDP3wjHi9cIm&#xD;&#xa;tvXC8EL2wsBL9sJM9PnCqrD6wnKp+MJ6OffCZLj3wuVM+MIjI/fCmHH2wlpN98JUoPXCpy34wl6K&#xD;&#xa;+MJS2PbCPNL2wkrG+cISHPrCNU74wlyv+MLCmPnC0Hf7wvik+8KG5/fCSIr3wiIA+MKEtPjC/gr5&#xD;&#xa;wgIL98LfovfC5O36wjqn/MLMHv3Ce1f4woYR9sK4BvfC1gf3wla4+MJ40vzCZrL5wh4w9sI08ffC&#xD;&#xa;TLP5wlgR+cIeJfnC9sT3wv1r9sJM3vXCsGb1wups9cI8jfnCdC37wqCC+cIitvjCZEv6wijC+8L8&#xD;&#xa;LPrCWDj4wk5v+cLUf/nCcCr3wkI++cJWNPfCARn2wg5898J2gffCisP4wiLG+MKKwvfCXBb2wjwB&#xD;&#xa;98LUHPbC3Hz3wmR49sIEs/nC8Hv4wkij98KR3PXCduL2wqGe9cJg4PbCQvX4wpi198JEyPfCfg77&#xD;&#xa;wuZN+8KQd/rCIr36wqqj+8JyTPzCmjD7wqDH+sLxGvjCaKP1wqZF9sKuePfC+Ov3wo42+cLcn/nC&#xD;&#xa;Gon5wpYC+MJSJfjCIhr4wlQS98K8PffCJEn5wi6x+MLg1PfCkFD5wuZS+8KevPnC2nf6wvzy+cJW&#xD;&#xa;HPjCMQ33wsTe9sK+u/XCmhL2wiwr98JcefnCSvH5wlhi+MLyL/rCJLH4wsDG9sJNI/fCiK31wiX5&#xD;&#xa;9sLGD/jC9I34wooJ98J0YPbCeBf1wpY598I/QvbC8mD1wkoy9cL81ffCvNL2wocQ9sLcVvbCXn32&#xD;&#xa;wpuj9sJvy/bCqvb3wqZP98IQ+PXCXhT3wsqU+cL0xfnCFHH4wnn79MLENfXCRE76wvTp+MJcPvfC&#xD;&#xa;EsL3wjzr9cKWPPbC0lwCw77lm8IcqJLCYuefwprVpMLg553CQGScwuThq8IuVLHCGSy4ws4Lv8KA&#xD;&#xa;58LCxmTDwgjjwMLUyrvCaG64wnOlucK6gLrCp0HBwsIpxMKCMcLCaWzEwu2QysKoY8nCXh/IwshQ&#xD;&#xa;y8IKC8zC+YrPwqBL1MI3yc3CTLLMwkBwz8KbZNDCzJLQwhEw08K0ZNXCBnjSwobP0cJpOtPCj9HU&#xD;&#xa;wu4o18KWgtbCeGTVwtAQ2sKo19bCeN7Uwtzg18LytNjCXgPZwmmb1sKQCdfCPPDVwlDG1MJwINfC&#xD;&#xa;/nfYwqSn1cIQZtXCNJLWwoeQ18JLJdjCVO/XwiTo1cL+HNXCPfPWwljd1cLY7NbCH33awusk28Jd&#xD;&#xa;DtvCRj3cwvii2cIniNnCiEDcwsLt28LSutvCGurZwmRe2sJR5dvC9Jfcwh9V3cJAAdzC3p/bwmWR&#xD;&#xa;28KiKd7CqMjfwi7H3cJOztvCL6ncwgIJ3cKbytrCPTfdwqQ/3cKlmNzCRwDcwtpL28LACN7CRE/b&#xD;&#xa;wvtr2cJkZdvCZrLdwtDP2cLGX9nCKsfbwt223cI+DN3C9A7cwnmR2sJ6y9rC6E7bwkYA3cKw2dzC&#xD;&#xa;8ynfwg693sKomtzCYJrewktk38JcdNvCA87bwoDr3sIE/9/CrPngwixb38IYp93Cqo3awnLw2sLt&#xD;&#xa;JtzCZsLdwq9W3cIT0d7CtHXdwma03sJXwt7C3uXfwkZe3cIsIdzC7Vjbwlcy3cJ5Ed7Cce/fwrZt&#xD;&#xa;28Le/tnCWmjbwgwN3sKku9zCbrDewqQ94cK5+9/CwKTfwvj04MIENt/CUdndwuzY3MJpK93CTg3e&#xD;&#xa;wuD33sKcLt/CPkvgwtn+38JXdd/CgyLdwlzh3sLqzt7C7ADfwmrV3MKO99zCsCnfwmKD4MJybuHC&#xD;&#xa;2tnhwpo04cISf9/CUJ7bwsvh3MKruuHCoojiwpcg3cKGRt3CmmLfwgIC3sL6+9rCxKzbwvCs38L0&#xD;&#xa;euDCKEfcwuTd2sJItN3CDnHgwggM4MKeZt7C9jzewo4e3MI6PdzCklbbwpA93sJm89/CD5/dwp80&#xD;&#xa;3cI8Sd7C0nnbwkKH28IEtdzCL43ewvoq3sJOn9rCj37ZwhCp28L+T9zCQjDcwgYu3MLaJ+DCAI3g&#xD;&#xa;wua54MKk1+DCEdTewjWA3sJoLd3CeHzdwpy/3sL/ytzCLhjcwgqx3MJUvdzCpXfdwifm28LtlNrC&#xD;&#xa;OnPawhJ93MJ0CdzCjmXbwoJv3MKYR9zC3kXawsTW2MI+ItrCsNzcwgD43cLswd7CONjbwhLr3sJ2&#xD;&#xa;sOHCc8TdwlcR3sKUyePC0GzowpA07MJ6EuvCOyjmwugm5MJkq+PCe7XlwhBS6cKOwOnC3obqwjKU&#xD;&#xa;6cLxhufCFBXpwsoo5cIil+HCTmrhwjCV48LcRubCakriwtV04cLSQOPCmh/iwlqp4sICd+TCdNjj&#xD;&#xa;wizK48JlvuTCpqzkwrhY5MLSDOTCHK/hwv5X4MJIceLCSwTjwp0H5MLYu+HCTA/fwvu33sK2rOTC&#xD;&#xa;lmTkwhaz5cL6c+TC+v7jwjtj5sKyc+XCFN/mwv5h6sLmxPLCnkH6whIe/MKe3fnCYKP3wuy2+MIk&#xD;&#xa;EPrClEf2wplQ9cIGRPTCJxD0wpgP9sKul/TCALb0wkKb+MKEsvnCsLP5woy8/MIKBvvC5Lf7wop7&#xD;&#xa;+MJS1/bCbFL3wjhc+sIMzfjCHmb3wpj188IOifXCMqn6wgiJ/cLQVfnCNn74wgSW+8KWn/rCWLr6&#xD;&#xa;wtTl+MKbBPbCmG33wlyP+MIU+vrCMkL7wr5e+cKEq/nC0DT5wrV398Jk7/nCyqb8wniM+cI0KPfC&#xD;&#xa;SpT3wtxy98KqQPnCqHX5wlmC9sJ2KPTCeHn0wgNX9sJSuvvCMDX9wg4H+sIuf/jClnv4wq6c+cIQ&#xD;&#xa;EPnCr6P3wsid98KXfvbCrmn1wgoq98L24fjC5k/5wh4B+cL2mPfCFr72wgrv+cKUUvjCaRr3wii6&#xD;&#xa;+MIAefnC3NX4wtAb+MJC8/fCAAv4wnu598KK8/jCGvT4wq6Y+MKijPrCFvT4wlpr+cK88/rCTpT7&#xD;&#xa;wrgU+sLiCfzCYI75wv6d+MI0RfjCQmv3woB798IZnPfC1Hf3wtCy+MJI/PjCnGv5woiJ+cLKSvrC&#xD;&#xa;omv3wh5N+MKCYPfCZrP2wojf+MIDXPfCavnzwnr19cL04/XCkG/1wnDX9sK8zvXCTOL1wooL+cL6&#xD;&#xa;QPrCkE34ws4O9cJTafbCa6L2wmxt+MKaSfnC/mn6wsoQ+sIDePbC4iv3wk579cI68fXCheH1wmam&#xD;&#xa;9cKA0/fCsvf2wigL9sJdAvfC3Av5wuKz+MLiFPrC3Lb6wngB+sK+1/nCYtT4woa7/MLab/rCRn/5&#xD;&#xa;wviX+MLg4/jCYmD7wgJO/cJ8XfjCnpf2wjjz+cI+j/nCJaX3wnAx+cL4MPvC0Ej7wg7e+sJqgvvC&#xD;&#xa;Tl78wlJ5+8IOEfvCSm/5what+cIoAvvCbKD5wsZG+cLYIffCRVT0wnoi9sJHefbC0BP3wmin98J4&#xD;&#xa;IPrCzET4wjCj+cIqv/jCIrX6wqJ0+cLOtffCsBL1woAJ9sKGTvbCJnP3wl7p+MKgG/nCxC74wkKh&#xD;&#xa;+ML6ZPvCsFD7wpp4+sJaK/nC0CD6wpZa+cKoXPfCQM71wtQV+MLOevvC5Yv3wsYu88JiD/bCkvD5&#xD;&#xa;wg8Y98KFzvfClvP4whKG9sIqbvTCtAn3woAx+sKe9fvCehX8wnJ8+sLQW/jCRyH3wiKO+MLGavnC&#xD;&#xa;6Of4wt4y+sIEU/rC9OEE" leadInLength="0/1"  />
            </Keyframes>
           </Parameter>
           </Parameters>
           <MetaData>
            <entry key="effectIndex" val="2"/>
           </MetaData>
          </GenericEffect>
         </Effects>
         <Attributes>
          <Attribute id="168" value="" name="ident"/>
          <Attribute id="169" value="0" name="mixToMono"/>
         </Attributes>
         <MetaData>
          <entry key="AutoAppliedSmartFocus" val="False"/>
          <entry key="WinSubProjectDisplayName" val=""/>
         </MetaData>
         <ExtraData>
          <Entry key="ZoomPanBin">
           <ZoomPanBin id="170"  >
            <ZoomPanKeyframes>
             <ZoomPanKeyframe id="171" timeRangeEnd="-9999999/1" timeRangeDuration="0/1" interpolaterName="linr"  />
            </ZoomPanKeyframes>
           </ZoomPanBin>
          </Entry>
          <Entry key="CursorEffectBin">
           <CursorEffectBin id="172"  >
            <CursorEffectKeyframes>
             <CursorEffectKeyframe id="173" timeRangeEnd="-9999999/1" timeRangeDuration="0/1" interpolaterName=""  />
            </CursorEffectKeyframes>
           </CursorEffectBin>
          </Entry>
         </ExtraData>
         <GenericTrack id="174"  >
          <Attributes>
           <Attribute id="175" value="" name="ident"/>
           <Attribute id="176" value="0" name="audioMuted"/>
           <Attribute id="177" value="0" name="videoHidden"/>
          </Attributes>
          <MetaData>
           <entry key="IsLocked" val="False"/>
           <entry key="WinTrackHeight" val="0"/>
          </MetaData>
          <Medias>
           <UnifiedMedia id="178"  >
            <AMFile id="179" start="0" duration="211" scalar="1/1" mediaStart="0/1" mediaDuration="211/1" trackNumber="1" src="4" channelNumber="0,1" >
             <Parameters>
              <InterpolatingParam id="180" interp="linr"  time="0/1" value="1" leadInLength="0/1"  name="volume"/>
              <Parameter id="181"  name="captions"/>
             </Parameters>
             <Attributes>
              <Attribute id="182" value="" name="ident"/>
              <Attribute id="183" value="44100" name="sampleRate"/>
              <Attribute id="184" value="16" name="bitDepth"/>
              <Attribute id="185" value="1" name="gain"/>
              <Attribute id="186" value="0" name="mixToMono"/>
             </Attributes>
            </AMFile>
            <ScreenVMFile id="187" start="0" duration="211" scalar="1/1" mediaStart="0/1" mediaDuration="211/1" trackNumber="0" src="4" >
             <Transformer>
              <VectorParam id="188"  name="translation">
               <InterpolatingParam id="189" interp="linr"  time="-9999999/1" value="0" leadInLength="0/1"  />
               <InterpolatingParam id="190" interp="linr"  time="-9999999/1" value="0" leadInLength="0/1"  />
               <InterpolatingParam id="191" interp="linr"  time="-9999999/1" value="0" leadInLength="0/1"  />
              </VectorParam>
              <VectorParam id="192"  name="rotation">
               <InterpolatingParam id="193" interp="linr"  time="-9999999/1" value="0" leadInLength="0/1"  />
               <InterpolatingParam id="194" interp="linr"  time="-9999999/1" value="0" leadInLength="0/1"  />
               <InterpolatingParam id="195" interp="linr"  time="-9999999/1" value="0" leadInLength="0/1"  />
              </VectorParam>
              <VectorParam id="196"  name="shear">
               <InterpolatingParam id="197" interp="linr"  time="-9999999/1" value="0" leadInLength="0/1"  />
               <InterpolatingParam id="198" interp="linr"  time="-9999999/1" value="0" leadInLength="0/1"  />
               <InterpolatingParam id="199" interp="linr"  time="-9999999/1" value="0" leadInLength="0/1"  />
              </VectorParam>
              <VectorParam id="200"  name="scale">
               <InterpolatingParam id="201" interp="linr"  time="-9999999/1" value="1" leadInLength="0/1"  />
               <InterpolatingParam id="202" interp="linr"  time="-9999999/1" value="1" leadInLength="0/1"  />
               <InterpolatingParam id="203" interp="linr"  time="-9999999/1" value="1" leadInLength="0/1"  />
              </VectorParam>
              <VectorParam id="204"  name="anchor">
               <InterpolatingParam id="205" interp="linr"  time="0/1" value="0" leadInLength="0/1"  />
               <InterpolatingParam id="206" interp="linr"  time="0/1" value="0" leadInLength="0/1"  />
               <InterpolatingParam id="207" interp="linr"  time="0/1" value="0" leadInLength="0/1"  />
              </VectorParam>
             </Transformer>
             <Parameters>
              <VectorParam id="208"  name="sourceCrop">
               <InterpolatingParam id="209" interp="linr"  time="0/1" value="0" leadInLength="0/1"  />
               <InterpolatingParam id="210" interp="linr"  time="0/1" value="0" leadInLength="0/1"  />
               <InterpolatingParam id="211" interp="linr"  time="0/1" value="0" leadInLength="0/1"  />
               <InterpolatingParam id="212" interp="linr"  time="0/1" value="0" leadInLength="0/1"  />
              </VectorParam>
              <VectorParam id="213"  name="geometryCrop">
               <InterpolatingParam id="214" interp="linr"  time="-9999999/1" value="0" leadInLength="0/1"  />
               <InterpolatingParam id="215" interp="linr"  time="-9999999/1" value="0" leadInLength="0/1"  />
               <InterpolatingParam id="216" interp="linr"  time="-9999999/1" value="0" leadInLength="0/1"  />
               <InterpolatingParam id="217" interp="linr"  time="-9999999/1" value="0" leadInLength="0/1"  />
              </VectorParam>
              <InterpolatingParam id="218" interp="linr"  time="-9999999/1" value="1" leadInLength="0/1"  name="opacity"/>
              <InterpolatingParam id="219" interp="linr"  time="0/1" value="0" leadInLength="0/1"  name="cursorOpacity"/>
              <InterpolatingParam id="220" interp="linr"  time="0/1" value="0" leadInLength="0/1"  name="cursorScale"/>
             </Parameters>
             <Attributes>
              <Attribute id="221" value="" name="ident"/>
             </Attributes>
             <ExtraData>
              <Entry key="ZoomPanBin">
               <ZoomPanBin id="222"  >
                <ZoomPanKeyframes>
                 <ZoomPanKeyframe id="223" timeRangeEnd="-9999999/1" timeRangeDuration="0/1" interpolaterName=""  />
                </ZoomPanKeyframes>
               </ZoomPanBin>
              </Entry>
              <Entry key="CursorEffectBin">
               <CursorEffectBin id="224"  >
                <CursorEffectKeyframes>
                </CursorEffectKeyframes>
               </CursorEffectBin>
              </Entry>
             </ExtraData>
            </ScreenVMFile>
            <MetaData>
             <entry key="AutoAppliedSmartFocus" val="False"/>
             <entry key="WinSubProjectDisplayName" val=""/>
            </MetaData>
           </UnifiedMedia>
           <UnifiedMedia id="225"  >
            <AMFile id="226" start="211" duration="17" scalar="1/1" mediaStart="224/1" mediaDuration="17/1" trackNumber="1" src="4" channelNumber="0,1" >
             <Parameters>
              <InterpolatingParam id="227" interp="linr"  time="0/1" value="1" leadInLength="0/1"  name="volume"/>
              <Parameter id="228"  name="captions"/>
             </Parameters>
             <Attributes>
              <Attribute id="229" value="" name="ident"/>
              <Attribute id="230" value="44100" name="sampleRate"/>
              <Attribute id="231" value="16" name="bitDepth"/>
              <Attribute id="232" value="1" name="gain"/>
              <Attribute id="233" value="0" name="mixToMono"/>
             </Attributes>
            </AMFile>
            <ScreenVMFile id="234" start="211" duration="17" scalar="1/1" mediaStart="224/1" mediaDuration="17/1" trackNumber="0" src="4" >
             <Transformer>
              <VectorParam id="235"  name="translation">
               <InterpolatingParam id="236" interp="linr"  time="-9999999/1" value="0" leadInLength="0/1"  />
               <InterpolatingParam id="237" interp="linr"  time="-9999999/1" value="0" leadInLength="0/1"  />
               <InterpolatingParam id="238" interp="linr"  time="-9999999/1" value="0" leadInLength="0/1"  />
              </VectorParam>
              <VectorParam id="239"  name="rotation">
               <InterpolatingParam id="240" interp="linr"  time="-9999999/1" value="0" leadInLength="0/1"  />
               <InterpolatingParam id="241" interp="linr"  time="-9999999/1" value="0" leadInLength="0/1"  />
               <InterpolatingParam id="242" interp="linr"  time="-9999999/1" value="0" leadInLength="0/1"  />
              </VectorParam>
              <VectorParam id="243"  name="shear">
               <InterpolatingParam id="244" interp="linr"  time="-9999999/1" value="0" leadInLength="0/1"  />
               <InterpolatingParam id="245" interp="linr"  time="-9999999/1" value="0" leadInLength="0/1"  />
               <InterpolatingParam id="246" interp="linr"  time="-9999999/1" value="0" leadInLength="0/1"  />
              </VectorParam>
              <VectorParam id="247"  name="scale">
               <InterpolatingParam id="248" interp="linr"  time="-9999999/1" value="1" leadInLength="0/1"  />
               <InterpolatingParam id="249" interp="linr"  time="-9999999/1" value="1" leadInLength="0/1"  />
               <InterpolatingParam id="250" interp="linr"  time="-9999999/1" value="1" leadInLength="0/1"  />
              </VectorParam>
              <VectorParam id="251"  name="anchor">
               <InterpolatingParam id="252" interp="linr"  time="0/1" value="0" leadInLength="0/1"  />
               <InterpolatingParam id="253" interp="linr"  time="0/1" value="0" leadInLength="0/1"  />
               <InterpolatingParam id="254" interp="linr"  time="0/1" value="0" leadInLength="0/1"  />
              </VectorParam>
             </Transformer>
             <Parameters>
              <VectorParam id="255"  name="sourceCrop">
               <InterpolatingParam id="256" interp="linr"  time="0/1" value="0" leadInLength="0/1"  />
               <InterpolatingParam id="257" interp="linr"  time="0/1" value="0" leadInLength="0/1"  />
               <InterpolatingParam id="258" interp="linr"  time="0/1" value="0" leadInLength="0/1"  />
               <InterpolatingParam id="259" interp="linr"  time="0/1" value="0" leadInLength="0/1"  />
              </VectorParam>
              <VectorParam id="260"  name="geometryCrop">
               <InterpolatingParam id="261" interp="linr"  time="-9999999/1" value="0" leadInLength="0/1"  />
               <InterpolatingParam id="262" interp="linr"  time="-9999999/1" value="0" leadInLength="0/1"  />
               <InterpolatingParam id="263" interp="linr"  time="-9999999/1" value="0" leadInLength="0/1"  />
               <InterpolatingParam id="264" interp="linr"  time="-9999999/1" value="0" leadInLength="0/1"  />
              </VectorParam>
              <InterpolatingParam id="265" interp="linr"  time="-9999999/1" value="1" leadInLength="0/1"  name="opacity"/>
              <InterpolatingParam id="266" interp="linr"  time="0/1" value="0" leadInLength="0/1"  name="cursorOpacity"/>
              <InterpolatingParam id="267" interp="linr"  time="0/1" value="0" leadInLength="0/1"  name="cursorScale"/>
             </Parameters>
             <Attributes>
              <Attribute id="268" value="" name="ident"/>
             </Attributes>
             <ExtraData>
              <Entry key="ZoomPanBin">
               <ZoomPanBin id="269"  >
                <ZoomPanKeyframes>
                 <ZoomPanKeyframe id="270" timeRangeEnd="-9999999/1" timeRangeDuration="0/1" interpolaterName=""  />
                </ZoomPanKeyframes>
               </ZoomPanBin>
              </Entry>
              <Entry key="CursorEffectBin">
               <CursorEffectBin id="271"  >
                <CursorEffectKeyframes>
                </CursorEffectKeyframes>
               </CursorEffectBin>
              </Entry>
             </ExtraData>
            </ScreenVMFile>
            <MetaData>
             <entry key="AutoAppliedSmartFocus" val="False"/>
             <entry key="WinSubProjectDisplayName" val=""/>
            </MetaData>
           </UnifiedMedia>
           <UnifiedMedia id="272"  >
            <AMFile id="273" start="228" duration="95" scalar="1/1" mediaStart="253/1" mediaDuration="95/1" trackNumber="1" src="4" channelNumber="0,1" >
             <Parameters>
              <InterpolatingParam id="274" interp="linr"  time="0/1" value="1" leadInLength="0/1"  name="volume"/>
              <Parameter id="275"  name="captions"/>
             </Parameters>
             <Attributes>
              <Attribute id="276" value="" name="ident"/>
              <Attribute id="277" value="44100" name="sampleRate"/>
              <Attribute id="278" value="16" name="bitDepth"/>
              <Attribute id="279" value="1" name="gain"/>
              <Attribute id="280" value="0" name="mixToMono"/>
             </Attributes>
            </AMFile>
            <ScreenVMFile id="281" start="228" duration="95" scalar="1/1" mediaStart="253/1" mediaDuration="95/1" trackNumber="0" src="4" >
             <Transformer>
              <VectorParam id="282"  name="translation">
               <InterpolatingParam id="283" interp="linr"  time="-9999999/1" value="0" leadInLength="0/1"  />
               <InterpolatingParam id="284" interp="linr"  time="-9999999/1" value="0" leadInLength="0/1"  />
               <InterpolatingParam id="285" interp="linr"  time="-9999999/1" value="0" leadInLength="0/1"  />
              </VectorParam>
              <VectorParam id="286"  name="rotation">
               <InterpolatingParam id="287" interp="linr"  time="-9999999/1" value="0" leadInLength="0/1"  />
               <InterpolatingParam id="288" interp="linr"  time="-9999999/1" value="0" leadInLength="0/1"  />
               <InterpolatingParam id="289" interp="linr"  time="-9999999/1" value="0" leadInLength="0/1"  />
              </VectorParam>
              <VectorParam id="290"  name="shear">
               <InterpolatingParam id="291" interp="linr"  time="-9999999/1" value="0" leadInLength="0/1"  />
               <InterpolatingParam id="292" interp="linr"  time="-9999999/1" value="0" leadInLength="0/1"  />
               <InterpolatingParam id="293" interp="linr"  time="-9999999/1" value="0" leadInLength="0/1"  />
              </VectorParam>
              <VectorParam id="294"  name="scale">
               <InterpolatingParam id="295" interp="linr"  time="-9999999/1" value="1" leadInLength="0/1"  />
               <InterpolatingParam id="296" interp="linr"  time="-9999999/1" value="1" leadInLength="0/1"  />
               <InterpolatingParam id="297" interp="linr"  time="-9999999/1" value="1" leadInLength="0/1"  />
              </VectorParam>
              <VectorParam id="298"  name="anchor">
               <InterpolatingParam id="299" interp="linr"  time="0/1" value="0" leadInLength="0/1"  />
               <InterpolatingParam id="300" interp="linr"  time="0/1" value="0" leadInLength="0/1"  />
               <InterpolatingParam id="301" interp="linr"  time="0/1" value="0" leadInLength="0/1"  />
              </VectorParam>
             </Transformer>
             <Parameters>
              <VectorParam id="302"  name="sourceCrop">
               <InterpolatingParam id="303" interp="linr"  time="0/1" value="0" leadInLength="0/1"  />
               <InterpolatingParam id="304" interp="linr"  time="0/1" value="0" leadInLength="0/1"  />
               <InterpolatingParam id="305" interp="linr"  time="0/1" value="0" leadInLength="0/1"  />
               <InterpolatingParam id="306" interp="linr"  time="0/1" value="0" leadInLength="0/1"  />
              </VectorParam>
              <VectorParam id="307"  name="geometryCrop">
               <InterpolatingParam id="308" interp="linr"  time="-9999999/1" value="0" leadInLength="0/1"  />
               <InterpolatingParam id="309" interp="linr"  time="-9999999/1" value="0" leadInLength="0/1"  />
               <InterpolatingParam id="310" interp="linr"  time="-9999999/1" value="0" leadInLength="0/1"  />
               <InterpolatingParam id="311" interp="linr"  time="-9999999/1" value="0" leadInLength="0/1"  />
              </VectorParam>
              <InterpolatingParam id="312" interp="linr"  time="-9999999/1" value="1" leadInLength="0/1"  name="opacity"/>
              <InterpolatingParam id="313" interp="linr"  time="0/1" value="0" leadInLength="0/1"  name="cursorOpacity"/>
              <InterpolatingParam id="314" interp="linr"  time="0/1" value="0" leadInLength="0/1"  name="cursorScale"/>
             </Parameters>
             <Attributes>
              <Attribute id="315" value="" name="ident"/>
             </Attributes>
             <ExtraData>
              <Entry key="ZoomPanBin">
               <ZoomPanBin id="316"  >
                <ZoomPanKeyframes>
                 <ZoomPanKeyframe id="317" timeRangeEnd="-9999999/1" timeRangeDuration="0/1" interpolaterName=""  />
                </ZoomPanKeyframes>
               </ZoomPanBin>
              </Entry>
              <Entry key="CursorEffectBin">
               <CursorEffectBin id="318"  >
                <CursorEffectKeyframes>
                </CursorEffectKeyframes>
               </CursorEffectBin>
              </Entry>
             </ExtraData>
            </ScreenVMFile>
            <MetaData>
             <entry key="AutoAppliedSmartFocus" val="False"/>
             <entry key="WinSubProjectDisplayName" val=""/>
            </MetaData>
           </UnifiedMedia>
           <UnifiedMedia id="319"  >
            <AMFile id="320" start="323" duration="68" scalar="1/1" mediaStart="358/1" mediaDuration="68/1" trackNumber="1" src="4" channelNumber="0,1" >
             <Parameters>
              <InterpolatingParam id="321" interp="linr"  time="0/1" value="1" leadInLength="0/1"  name="volume"/>
              <Parameter id="322"  name="captions"/>
             </Parameters>
             <Attributes>
              <Attribute id="323" value="" name="ident"/>
              <Attribute id="324" value="44100" name="sampleRate"/>
              <Attribute id="325" value="16" name="bitDepth"/>
              <Attribute id="326" value="1" name="gain"/>
              <Attribute id="327" value="0" name="mixToMono"/>
             </Attributes>
            </AMFile>
            <ScreenVMFile id="328" start="323" duration="68" scalar="1/1" mediaStart="358/1" mediaDuration="68/1" trackNumber="0" src="4" >
             <Transformer>
              <VectorParam id="329"  name="translation">
               <InterpolatingParam id="330" interp="linr"  time="-9999999/1" value="0" leadInLength="0/1"  />
               <InterpolatingParam id="331" interp="linr"  time="-9999999/1" value="0" leadInLength="0/1"  />
               <InterpolatingParam id="332" interp="linr"  time="-9999999/1" value="0" leadInLength="0/1"  />
              </VectorParam>
              <VectorParam id="333"  name="rotation">
               <InterpolatingParam id="334" interp="linr"  time="-9999999/1" value="0" leadInLength="0/1"  />
               <InterpolatingParam id="335" interp="linr"  time="-9999999/1" value="0" leadInLength="0/1"  />
               <InterpolatingParam id="336" interp="linr"  time="-9999999/1" value="0" leadInLength="0/1"  />
              </VectorParam>
              <VectorParam id="337"  name="shear">
               <InterpolatingParam id="338" interp="linr"  time="-9999999/1" value="0" leadInLength="0/1"  />
               <InterpolatingParam id="339" interp="linr"  time="-9999999/1" value="0" leadInLength="0/1"  />
               <InterpolatingParam id="340" interp="linr"  time="-9999999/1" value="0" leadInLength="0/1"  />
              </VectorParam>
              <VectorParam id="341"  name="scale">
               <InterpolatingParam id="342" interp="linr"  time="-9999999/1" value="1" leadInLength="0/1"  />
               <InterpolatingParam id="343" interp="linr"  time="-9999999/1" value="1" leadInLength="0/1"  />
               <InterpolatingParam id="344" interp="linr"  time="-9999999/1" value="1" leadInLength="0/1"  />
              </VectorParam>
              <VectorParam id="345"  name="anchor">
               <InterpolatingParam id="346" interp="linr"  time="0/1" value="0" leadInLength="0/1"  />
               <InterpolatingParam id="347" interp="linr"  time="0/1" value="0" leadInLength="0/1"  />
               <InterpolatingParam id="348" interp="linr"  time="0/1" value="0" leadInLength="0/1"  />
              </VectorParam>
             </Transformer>
             <Parameters>
              <VectorParam id="349"  name="sourceCrop">
               <InterpolatingParam id="350" interp="linr"  time="0/1" value="0" leadInLength="0/1"  />
               <InterpolatingParam id="351" interp="linr"  time="0/1" value="0" leadInLength="0/1"  />
               <InterpolatingParam id="352" interp="linr"  time="0/1" value="0" leadInLength="0/1"  />
               <InterpolatingParam id="353" interp="linr"  time="0/1" value="0" leadInLength="0/1"  />
              </VectorParam>
              <VectorParam id="354"  name="geometryCrop">
               <InterpolatingParam id="355" interp="linr"  time="-9999999/1" value="0" leadInLength="0/1"  />
               <InterpolatingParam id="356" interp="linr"  time="-9999999/1" value="0" leadInLength="0/1"  />
               <InterpolatingParam id="357" interp="linr"  time="-9999999/1" value="0" leadInLength="0/1"  />
               <InterpolatingParam id="358" interp="linr"  time="-9999999/1" value="0" leadInLength="0/1"  />
              </VectorParam>
              <InterpolatingParam id="359" interp="linr"  time="-9999999/1" value="1" leadInLength="0/1"  name="opacity"/>
              <InterpolatingParam id="360" interp="linr"  time="0/1" value="0" leadInLength="0/1"  name="cursorOpacity"/>
              <InterpolatingParam id="361" interp="linr"  time="0/1" value="0" leadInLength="0/1"  name="cursorScale"/>
             </Parameters>
             <Attributes>
              <Attribute id="362" value="" name="ident"/>
             </Attributes>
             <ExtraData>
              <Entry key="ZoomPanBin">
               <ZoomPanBin id="363"  >
                <ZoomPanKeyframes>
                 <ZoomPanKeyframe id="364" timeRangeEnd="-9999999/1" timeRangeDuration="0/1" interpolaterName=""  />
                </ZoomPanKeyframes>
               </ZoomPanBin>
              </Entry>
              <Entry key="CursorEffectBin">
               <CursorEffectBin id="365"  >
                <CursorEffectKeyframes>
                </CursorEffectKeyframes>
               </CursorEffectBin>
              </Entry>
             </ExtraData>
            </ScreenVMFile>
            <MetaData>
             <entry key="AutoAppliedSmartFocus" val="False"/>
             <entry key="WinSubProjectDisplayName" val=""/>
            </MetaData>
           </UnifiedMedia>
           <UnifiedMedia id="366"  >
            <AMFile id="367" start="391" duration="89" scalar="1/1" mediaStart="437/1" mediaDuration="89/1" trackNumber="1" src="4" channelNumber="0,1" >
             <Parameters>
              <InterpolatingParam id="368" interp="linr"  time="0/1" value="1" leadInLength="0/1"  name="volume"/>
              <Parameter id="369"  name="captions"/>
             </Parameters>
             <Attributes>
              <Attribute id="370" value="" name="ident"/>
              <Attribute id="371" value="44100" name="sampleRate"/>
              <Attribute id="372" value="16" name="bitDepth"/>
              <Attribute id="373" value="1" name="gain"/>
              <Attribute id="374" value="0" name="mixToMono"/>
             </Attributes>
            </AMFile>
            <ScreenVMFile id="375" start="391" duration="89" scalar="1/1" mediaStart="437/1" mediaDuration="89/1" trackNumber="0" src="4" >
             <Transformer>
              <VectorParam id="376"  name="translation">
               <InterpolatingParam id="377" interp="linr"  time="-9999999/1" value="0" leadInLength="0/1"  />
               <InterpolatingParam id="378" interp="linr"  time="-9999999/1" value="0" leadInLength="0/1"  />
               <InterpolatingParam id="379" interp="linr"  time="-9999999/1" value="0" leadInLength="0/1"  />
              </VectorParam>
              <VectorParam id="380"  name="rotation">
               <InterpolatingParam id="381" interp="linr"  time="-9999999/1" value="0" leadInLength="0/1"  />
               <InterpolatingParam id="382" interp="linr"  time="-9999999/1" value="0" leadInLength="0/1"  />
               <InterpolatingParam id="383" interp="linr"  time="-9999999/1" value="0" leadInLength="0/1"  />
              </VectorParam>
              <VectorParam id="384"  name="shear">
               <InterpolatingParam id="385" interp="linr"  time="-9999999/1" value="0" leadInLength="0/1"  />
               <InterpolatingParam id="386" interp="linr"  time="-9999999/1" value="0" leadInLength="0/1"  />
               <InterpolatingParam id="387" interp="linr"  time="-9999999/1" value="0" leadInLength="0/1"  />
              </VectorParam>
              <VectorParam id="388"  name="scale">
               <InterpolatingParam id="389" interp="linr"  time="-9999999/1" value="1" leadInLength="0/1"  />
               <InterpolatingParam id="390" interp="linr"  time="-9999999/1" value="1" leadInLength="0/1"  />
               <InterpolatingParam id="391" interp="linr"  time="-9999999/1" value="1" leadInLength="0/1"  />
              </VectorParam>
              <VectorParam id="392"  name="anchor">
               <InterpolatingParam id="393" interp="linr"  time="0/1" value="0" leadInLength="0/1"  />
               <InterpolatingParam id="394" interp="linr"  time="0/1" value="0" leadInLength="0/1"  />
               <InterpolatingParam id="395" interp="linr"  time="0/1" value="0" leadInLength="0/1"  />
              </VectorParam>
             </Transformer>
             <Parameters>
              <VectorParam id="396"  name="sourceCrop">
               <InterpolatingParam id="397" interp="linr"  time="0/1" value="0" leadInLength="0/1"  />
               <InterpolatingParam id="398" interp="linr"  time="0/1" value="0" leadInLength="0/1"  />
               <InterpolatingParam id="399" interp="linr"  time="0/1" value="0" leadInLength="0/1"  />
               <InterpolatingParam id="400" interp="linr"  time="0/1" value="0" leadInLength="0/1"  />
              </VectorParam>
              <VectorParam id="401"  name="geometryCrop">
               <InterpolatingParam id="402" interp="linr"  time="-9999999/1" value="0" leadInLength="0/1"  />
               <InterpolatingParam id="403" interp="linr"  time="-9999999/1" value="0" leadInLength="0/1"  />
               <InterpolatingParam id="404" interp="linr"  time="-9999999/1" value="0" leadInLength="0/1"  />
               <InterpolatingParam id="405" interp="linr"  time="-9999999/1" value="0" leadInLength="0/1"  />
              </VectorParam>
              <InterpolatingParam id="406" interp="linr"  time="-9999999/1" value="1" leadInLength="0/1"  name="opacity"/>
              <InterpolatingParam id="407" interp="linr"  time="0/1" value="0" leadInLength="0/1"  name="cursorOpacity"/>
              <InterpolatingParam id="408" interp="linr"  time="0/1" value="0" leadInLength="0/1"  name="cursorScale"/>
             </Parameters>
             <Attributes>
              <Attribute id="409" value="" name="ident"/>
             </Attributes>
             <ExtraData>
              <Entry key="ZoomPanBin">
               <ZoomPanBin id="410"  >
                <ZoomPanKeyframes>
                 <ZoomPanKeyframe id="411" timeRangeEnd="-9999999/1" timeRangeDuration="0/1" interpolaterName=""  />
                </ZoomPanKeyframes>
               </ZoomPanBin>
              </Entry>
              <Entry key="CursorEffectBin">
               <CursorEffectBin id="412"  >
                <CursorEffectKeyframes>
                </CursorEffectKeyframes>
               </CursorEffectBin>
              </Entry>
             </ExtraData>
            </ScreenVMFile>
            <MetaData>
             <entry key="AutoAppliedSmartFocus" val="False"/>
             <entry key="WinSubProjectDisplayName" val=""/>
            </MetaData>
           </UnifiedMedia>
           <UnifiedMedia id="413"  >
            <AMFile id="414" start="480" duration="115" scalar="1/1" mediaStart="537/1" mediaDuration="115/1" trackNumber="1" src="4" channelNumber="0,1" >
             <Parameters>
              <InterpolatingParam id="415" interp="linr"  time="0/1" value="1" leadInLength="0/1"  name="volume"/>
              <Parameter id="416"  name="captions"/>
             </Parameters>
             <Attributes>
              <Attribute id="417" value="" name="ident"/>
              <Attribute id="418" value="44100" name="sampleRate"/>
              <Attribute id="419" value="16" name="bitDepth"/>
              <Attribute id="420" value="1" name="gain"/>
              <Attribute id="421" value="0" name="mixToMono"/>
             </Attributes>
            </AMFile>
            <ScreenVMFile id="422" start="480" duration="115" scalar="1/1" mediaStart="537/1" mediaDuration="115/1" trackNumber="0" src="4" >
             <Transformer>
              <VectorParam id="423"  name="translation">
               <InterpolatingParam id="424" interp="linr"  time="-9999999/1" value="0" leadInLength="0/1"  />
               <InterpolatingParam id="425" interp="linr"  time="-9999999/1" value="0" leadInLength="0/1"  />
               <InterpolatingParam id="426" interp="linr"  time="-9999999/1" value="0" leadInLength="0/1"  />
              </VectorParam>
              <VectorParam id="427"  name="rotation">
               <InterpolatingParam id="428" interp="linr"  time="-9999999/1" value="0" leadInLength="0/1"  />
               <InterpolatingParam id="429" interp="linr"  time="-9999999/1" value="0" leadInLength="0/1"  />
               <InterpolatingParam id="430" interp="linr"  time="-9999999/1" value="0" leadInLength="0/1"  />
              </VectorParam>
              <VectorParam id="431"  name="shear">
               <InterpolatingParam id="432" interp="linr"  time="-9999999/1" value="0" leadInLength="0/1"  />
               <InterpolatingParam id="433" interp="linr"  time="-9999999/1" value="0" leadInLength="0/1"  />
               <InterpolatingParam id="434" interp="linr"  time="-9999999/1" value="0" leadInLength="0/1"  />
              </VectorParam>
              <VectorParam id="435"  name="scale">
               <InterpolatingParam id="436" interp="linr"  time="-9999999/1" value="1" leadInLength="0/1"  />
               <InterpolatingParam id="437" interp="linr"  time="-9999999/1" value="1" leadInLength="0/1"  />
               <InterpolatingParam id="438" interp="linr"  time="-9999999/1" value="1" leadInLength="0/1"  />
              </VectorParam>
              <VectorParam id="439"  name="anchor">
               <InterpolatingParam id="440" interp="linr"  time="0/1" value="0" leadInLength="0/1"  />
               <InterpolatingParam id="441" interp="linr"  time="0/1" value="0" leadInLength="0/1"  />
               <InterpolatingParam id="442" interp="linr"  time="0/1" value="0" leadInLength="0/1"  />
              </VectorParam>
             </Transformer>
             <Parameters>
              <VectorParam id="443"  name="sourceCrop">
               <InterpolatingParam id="444" interp="linr"  time="0/1" value="0" leadInLength="0/1"  />
               <InterpolatingParam id="445" interp="linr"  time="0/1" value="0" leadInLength="0/1"  />
               <InterpolatingParam id="446" interp="linr"  time="0/1" value="0" leadInLength="0/1"  />
               <InterpolatingParam id="447" interp="linr"  time="0/1" value="0" leadInLength="0/1"  />
              </VectorParam>
              <VectorParam id="448"  name="geometryCrop">
               <InterpolatingParam id="449" interp="linr"  time="-9999999/1" value="0" leadInLength="0/1"  />
               <InterpolatingParam id="450" interp="linr"  time="-9999999/1" value="0" leadInLength="0/1"  />
               <InterpolatingParam id="451" interp="linr"  time="-9999999/1" value="0" leadInLength="0/1"  />
               <InterpolatingParam id="452" interp="linr"  time="-9999999/1" value="0" leadInLength="0/1"  />
              </VectorParam>
              <InterpolatingParam id="453" interp="linr"  time="-9999999/1" value="1" leadInLength="0/1"  name="opacity"/>
              <InterpolatingParam id="454" interp="linr"  time="0/1" value="0" leadInLength="0/1"  name="cursorOpacity"/>
              <InterpolatingParam id="455" interp="linr"  time="0/1" value="0" leadInLength="0/1"  name="cursorScale"/>
             </Parameters>
             <Attributes>
              <Attribute id="456" value="" name="ident"/>
             </Attributes>
             <ExtraData>
              <Entry key="ZoomPanBin">
               <ZoomPanBin id="457"  >
                <ZoomPanKeyframes>
                 <ZoomPanKeyframe id="458" timeRangeEnd="-9999999/1" timeRangeDuration="0/1" interpolaterName=""  />
                </ZoomPanKeyframes>
               </ZoomPanBin>
              </Entry>
              <Entry key="CursorEffectBin">
               <CursorEffectBin id="459"  >
                <CursorEffectKeyframes>
                </CursorEffectKeyframes>
               </CursorEffectBin>
              </Entry>
             </ExtraData>
            </ScreenVMFile>
            <MetaData>
             <entry key="AutoAppliedSmartFocus" val="False"/>
             <entry key="WinSubProjectDisplayName" val=""/>
            </MetaData>
           </UnifiedMedia>
           <UnifiedMedia id="460"  >
            <AMFile id="461" start="595" duration="104" scalar="1/1" mediaStart="833/1" mediaDuration="104/1" trackNumber="1" src="4" channelNumber="0,1" >
             <Parameters>
              <InterpolatingParam id="462" interp="linr"  time="0/1" value="1" leadInLength="0/1"  name="volume"/>
              <Parameter id="463"  name="captions"/>
             </Parameters>
             <Attributes>
              <Attribute id="464" value="" name="ident"/>
              <Attribute id="465" value="44100" name="sampleRate"/>
              <Attribute id="466" value="16" name="bitDepth"/>
              <Attribute id="467" value="1" name="gain"/>
              <Attribute id="468" value="0" name="mixToMono"/>
             </Attributes>
            </AMFile>
            <ScreenVMFile id="469" start="595" duration="104" scalar="1/1" mediaStart="833/1" mediaDuration="104/1" trackNumber="0" src="4" >
             <Transformer>
              <VectorParam id="470"  name="translation">
               <InterpolatingParam id="471" interp="linr"  time="-9999999/1" value="0" leadInLength="0/1"  />
               <InterpolatingParam id="472" interp="linr"  time="-9999999/1" value="0" leadInLength="0/1"  />
               <InterpolatingParam id="473" interp="linr"  time="-9999999/1" value="0" leadInLength="0/1"  />
              </VectorParam>
              <VectorParam id="474"  name="rotation">
               <InterpolatingParam id="475" interp="linr"  time="-9999999/1" value="0" leadInLength="0/1"  />
               <InterpolatingParam id="476" interp="linr"  time="-9999999/1" value="0" leadInLength="0/1"  />
               <InterpolatingParam id="477" interp="linr"  time="-9999999/1" value="0" leadInLength="0/1"  />
              </VectorParam>
              <VectorParam id="478"  name="shear">
               <InterpolatingParam id="479" interp="linr"  time="-9999999/1" value="0" leadInLength="0/1"  />
               <InterpolatingParam id="480" interp="linr"  time="-9999999/1" value="0" leadInLength="0/1"  />
               <InterpolatingParam id="481" interp="linr"  time="-9999999/1" value="0" leadInLength="0/1"  />
              </VectorParam>
              <VectorParam id="482"  name="scale">
               <InterpolatingParam id="483" interp="linr"  time="-9999999/1" value="1" leadInLength="0/1"  />
               <InterpolatingParam id="484" interp="linr"  time="-9999999/1" value="1" leadInLength="0/1"  />
               <InterpolatingParam id="485" interp="linr"  time="-9999999/1" value="1" leadInLength="0/1"  />
              </VectorParam>
              <VectorParam id="486"  name="anchor">
               <InterpolatingParam id="487" interp="linr"  time="0/1" value="0" leadInLength="0/1"  />
               <InterpolatingParam id="488" interp="linr"  time="0/1" value="0" leadInLength="0/1"  />
               <InterpolatingParam id="489" interp="linr"  time="0/1" value="0" leadInLength="0/1"  />
              </VectorParam>
             </Transformer>
             <Parameters>
              <VectorParam id="490"  name="sourceCrop">
               <InterpolatingParam id="491" interp="linr"  time="0/1" value="0" leadInLength="0/1"  />
               <InterpolatingParam id="492" interp="linr"  time="0/1" value="0" leadInLength="0/1"  />
               <InterpolatingParam id="493" interp="linr"  time="0/1" value="0" leadInLength="0/1"  />
               <InterpolatingParam id="494" interp="linr"  time="0/1" value="0" leadInLength="0/1"  />
              </VectorParam>
              <VectorParam id="495"  name="geometryCrop">
               <InterpolatingParam id="496" interp="linr"  time="-9999999/1" value="0" leadInLength="0/1"  />
               <InterpolatingParam id="497" interp="linr"  time="-9999999/1" value="0" leadInLength="0/1"  />
               <InterpolatingParam id="498" interp="linr"  time="-9999999/1" value="0" leadInLength="0/1"  />
               <InterpolatingParam id="499" interp="linr"  time="-9999999/1" value="0" leadInLength="0/1"  />
              </VectorParam>
              <InterpolatingParam id="500" interp="linr"  time="-9999999/1" value="1" leadInLength="0/1"  name="opacity"/>
              <InterpolatingParam id="501" interp="linr"  time="0/1" value="0" leadInLength="0/1"  name="cursorOpacity"/>
              <InterpolatingParam id="502" interp="linr"  time="0/1" value="0" leadInLength="0/1"  name="cursorScale"/>
             </Parameters>
             <Attributes>
              <Attribute id="503" value="" name="ident"/>
             </Attributes>
             <ExtraData>
              <Entry key="ZoomPanBin">
               <ZoomPanBin id="504"  >
                <ZoomPanKeyframes>
                 <ZoomPanKeyframe id="505" timeRangeEnd="-9999999/1" timeRangeDuration="0/1" interpolaterName=""  />
                </ZoomPanKeyframes>
               </ZoomPanBin>
              </Entry>
              <Entry key="CursorEffectBin">
               <CursorEffectBin id="506"  >
                <CursorEffectKeyframes>
                </CursorEffectKeyframes>
               </CursorEffectBin>
              </Entry>
             </ExtraData>
            </ScreenVMFile>
            <MetaData>
             <entry key="AutoAppliedSmartFocus" val="False"/>
             <entry key="WinSubProjectDisplayName" val=""/>
            </MetaData>
           </UnifiedMedia>
           <UnifiedMedia id="507"  >
            <AMFile id="508" start="699" duration="48" scalar="1/1" mediaStart="942/1" mediaDuration="48/1" trackNumber="1" src="4" channelNumber="0,1" >
             <Parameters>
              <InterpolatingParam id="509" interp="linr"  time="0/1" value="1" leadInLength="0/1"  name="volume"/>
              <Parameter id="510"  name="captions"/>
             </Parameters>
             <Attributes>
              <Attribute id="511" value="" name="ident"/>
              <Attribute id="512" value="44100" name="sampleRate"/>
              <Attribute id="513" value="16" name="bitDepth"/>
              <Attribute id="514" value="1" name="gain"/>
              <Attribute id="515" value="0" name="mixToMono"/>
             </Attributes>
            </AMFile>
            <ScreenVMFile id="516" start="699" duration="48" scalar="1/1" mediaStart="942/1" mediaDuration="48/1" trackNumber="0" src="4" >
             <Transformer>
              <VectorParam id="517"  name="translation">
               <InterpolatingParam id="518" interp="linr"  time="-9999999/1" value="0" leadInLength="0/1"  />
               <InterpolatingParam id="519" interp="linr"  time="-9999999/1" value="0" leadInLength="0/1"  />
               <InterpolatingParam id="520" interp="linr"  time="-9999999/1" value="0" leadInLength="0/1"  />
              </VectorParam>
              <VectorParam id="521"  name="rotation">
               <InterpolatingParam id="522" interp="linr"  time="-9999999/1" value="0" leadInLength="0/1"  />
               <InterpolatingParam id="523" interp="linr"  time="-9999999/1" value="0" leadInLength="0/1"  />
               <InterpolatingParam id="524" interp="linr"  time="-9999999/1" value="0" leadInLength="0/1"  />
              </VectorParam>
              <VectorParam id="525"  name="shear">
               <InterpolatingParam id="526" interp="linr"  time="-9999999/1" value="0" leadInLength="0/1"  />
               <InterpolatingParam id="527" interp="linr"  time="-9999999/1" value="0" leadInLength="0/1"  />
               <InterpolatingParam id="528" interp="linr"  time="-9999999/1" value="0" leadInLength="0/1"  />
              </VectorParam>
              <VectorParam id="529"  name="scale">
               <InterpolatingParam id="530" interp="linr"  time="-9999999/1" value="1" leadInLength="0/1"  />
               <InterpolatingParam id="531" interp="linr"  time="-9999999/1" value="1" leadInLength="0/1"  />
               <InterpolatingParam id="532" interp="linr"  time="-9999999/1" value="1" leadInLength="0/1"  />
              </VectorParam>
              <VectorParam id="533"  name="anchor">
               <InterpolatingParam id="534" interp="linr"  time="0/1" value="0" leadInLength="0/1"  />
               <InterpolatingParam id="535" interp="linr"  time="0/1" value="0" leadInLength="0/1"  />
               <InterpolatingParam id="536" interp="linr"  time="0/1" value="0" leadInLength="0/1"  />
              </VectorParam>
             </Transformer>
             <Parameters>
              <VectorParam id="537"  name="sourceCrop">
               <InterpolatingParam id="538" interp="linr"  time="0/1" value="0" leadInLength="0/1"  />
               <InterpolatingParam id="539" interp="linr"  time="0/1" value="0" leadInLength="0/1"  />
               <InterpolatingParam id="540" interp="linr"  time="0/1" value="0" leadInLength="0/1"  />
               <InterpolatingParam id="541" interp="linr"  time="0/1" value="0" leadInLength="0/1"  />
              </VectorParam>
              <VectorParam id="542"  name="geometryCrop">
               <InterpolatingParam id="543" interp="linr"  time="-9999999/1" value="0" leadInLength="0/1"  />
               <InterpolatingParam id="544" interp="linr"  time="-9999999/1" value="0" leadInLength="0/1"  />
               <InterpolatingParam id="545" interp="linr"  time="-9999999/1" value="0" leadInLength="0/1"  />
               <InterpolatingParam id="546" interp="linr"  time="-9999999/1" value="0" leadInLength="0/1"  />
              </VectorParam>
              <InterpolatingParam id="547" interp="linr"  time="-9999999/1" value="1" leadInLength="0/1"  name="opacity"/>
              <InterpolatingParam id="548" interp="linr"  time="0/1" value="0" leadInLength="0/1"  name="cursorOpacity"/>
              <InterpolatingParam id="549" interp="linr"  time="0/1" value="0" leadInLength="0/1"  name="cursorScale"/>
             </Parameters>
             <Attributes>
              <Attribute id="550" value="" name="ident"/>
             </Attributes>
             <ExtraData>
              <Entry key="ZoomPanBin">
               <ZoomPanBin id="551"  >
                <ZoomPanKeyframes>
                 <ZoomPanKeyframe id="552" timeRangeEnd="-9999999/1" timeRangeDuration="0/1" interpolaterName=""  />
                </ZoomPanKeyframes>
               </ZoomPanBin>
              </Entry>
              <Entry key="CursorEffectBin">
               <CursorEffectBin id="553"  >
                <CursorEffectKeyframes>
                </CursorEffectKeyframes>
               </CursorEffectBin>
              </Entry>
             </ExtraData>
            </ScreenVMFile>
            <MetaData>
             <entry key="AutoAppliedSmartFocus" val="False"/>
             <entry key="WinSubProjectDisplayName" val=""/>
            </MetaData>
           </UnifiedMedia>
           <UnifiedMedia id="554"  >
            <AMFile id="555" start="747" duration="86" scalar="1/1" mediaStart="996/1" mediaDuration="86/1" trackNumber="1" src="4" channelNumber="0,1" >
             <Parameters>
              <InterpolatingParam id="556" interp="linr"  time="0/1" value="1" leadInLength="0/1"  name="volume"/>
              <Parameter id="557"  name="captions"/>
             </Parameters>
             <Attributes>
              <Attribute id="558" value="" name="ident"/>
              <Attribute id="559" value="44100" name="sampleRate"/>
              <Attribute id="560" value="16" name="bitDepth"/>
              <Attribute id="561" value="1" name="gain"/>
              <Attribute id="562" value="0" name="mixToMono"/>
             </Attributes>
            </AMFile>
            <ScreenVMFile id="563" start="747" duration="86" scalar="1/1" mediaStart="996/1" mediaDuration="86/1" trackNumber="0" src="4" >
             <Transformer>
              <VectorParam id="564"  name="translation">
               <InterpolatingParam id="565" interp="linr"  time="-9999999/1" value="0" leadInLength="0/1"  />
               <InterpolatingParam id="566" interp="linr"  time="-9999999/1" value="0" leadInLength="0/1"  />
               <InterpolatingParam id="567" interp="linr"  time="-9999999/1" value="0" leadInLength="0/1"  />
              </VectorParam>
              <VectorParam id="568"  name="rotation">
               <InterpolatingParam id="569" interp="linr"  time="-9999999/1" value="0" leadInLength="0/1"  />
               <InterpolatingParam id="570" interp="linr"  time="-9999999/1" value="0" leadInLength="0/1"  />
               <InterpolatingParam id="571" interp="linr"  time="-9999999/1" value="0" leadInLength="0/1"  />
              </VectorParam>
              <VectorParam id="572"  name="shear">
               <InterpolatingParam id="573" interp="linr"  time="-9999999/1" value="0" leadInLength="0/1"  />
               <InterpolatingParam id="574" interp="linr"  time="-9999999/1" value="0" leadInLength="0/1"  />
               <InterpolatingParam id="575" interp="linr"  time="-9999999/1" value="0" leadInLength="0/1"  />
              </VectorParam>
              <VectorParam id="576"  name="scale">
               <InterpolatingParam id="577" interp="linr"  time="-9999999/1" value="1" leadInLength="0/1"  />
               <InterpolatingParam id="578" interp="linr"  time="-9999999/1" value="1" leadInLength="0/1"  />
               <InterpolatingParam id="579" interp="linr"  time="-9999999/1" value="1" leadInLength="0/1"  />
              </VectorParam>
              <VectorParam id="580"  name="anchor">
               <InterpolatingParam id="581" interp="linr"  time="0/1" value="0" leadInLength="0/1"  />
               <InterpolatingParam id="582" interp="linr"  time="0/1" value="0" leadInLength="0/1"  />
               <InterpolatingParam id="583" interp="linr"  time="0/1" value="0" leadInLength="0/1"  />
              </VectorParam>
             </Transformer>
             <Parameters>
              <VectorParam id="584"  name="sourceCrop">
               <InterpolatingParam id="585" interp="linr"  time="0/1" value="0" leadInLength="0/1"  />
               <InterpolatingParam id="586" interp="linr"  time="0/1" value="0" leadInLength="0/1"  />
               <InterpolatingParam id="587" interp="linr"  time="0/1" value="0" leadInLength="0/1"  />
               <InterpolatingParam id="588" interp="linr"  time="0/1" value="0" leadInLength="0/1"  />
              </VectorParam>
              <VectorParam id="589"  name="geometryCrop">
               <InterpolatingParam id="590" interp="linr"  time="-9999999/1" value="0" leadInLength="0/1"  />
               <InterpolatingParam id="591" interp="linr"  time="-9999999/1" value="0" leadInLength="0/1"  />
               <InterpolatingParam id="592" interp="linr"  time="-9999999/1" value="0" leadInLength="0/1"  />
               <InterpolatingParam id="593" interp="linr"  time="-9999999/1" value="0" leadInLength="0/1"  />
              </VectorParam>
              <InterpolatingParam id="594" interp="linr"  time="-9999999/1" value="1" leadInLength="0/1"  name="opacity"/>
              <InterpolatingParam id="595" interp="linr"  time="0/1" value="0" leadInLength="0/1"  name="cursorOpacity"/>
              <InterpolatingParam id="596" interp="linr"  time="0/1" value="0" leadInLength="0/1"  name="cursorScale"/>
             </Parameters>
             <Attributes>
              <Attribute id="597" value="" name="ident"/>
             </Attributes>
             <ExtraData>
              <Entry key="ZoomPanBin">
               <ZoomPanBin id="598"  >
                <ZoomPanKeyframes>
                 <ZoomPanKeyframe id="599" timeRangeEnd="-9999999/1" timeRangeDuration="0/1" interpolaterName=""  />
                </ZoomPanKeyframes>
               </ZoomPanBin>
              </Entry>
              <Entry key="CursorEffectBin">
               <CursorEffectBin id="600"  >
                <CursorEffectKeyframes>
                </CursorEffectKeyframes>
               </CursorEffectBin>
              </Entry>
             </ExtraData>
            </ScreenVMFile>
            <MetaData>
             <entry key="AutoAppliedSmartFocus" val="False"/>
             <entry key="WinSubProjectDisplayName" val=""/>
            </MetaData>
           </UnifiedMedia>
           <UnifiedMedia id="601"  >
            <AMFile id="602" start="833" duration="42" scalar="1/1" mediaStart="1423/1" mediaDuration="42/1" trackNumber="1" src="4" channelNumber="0,1" >
             <Parameters>
              <InterpolatingParam id="603" interp="linr"  time="0/1" value="1" leadInLength="0/1"  name="volume"/>
              <Parameter id="604"  name="captions"/>
             </Parameters>
             <Attributes>
              <Attribute id="605" value="" name="ident"/>
              <Attribute id="606" value="44100" name="sampleRate"/>
              <Attribute id="607" value="16" name="bitDepth"/>
              <Attribute id="608" value="1" name="gain"/>
              <Attribute id="609" value="0" name="mixToMono"/>
             </Attributes>
            </AMFile>
            <ScreenVMFile id="610" start="833" duration="42" scalar="1/1" mediaStart="1423/1" mediaDuration="42/1" trackNumber="0" src="4" >
             <Transformer>
              <VectorParam id="611"  name="translation">
               <InterpolatingParam id="612" interp="linr"  time="-9999999/1" value="0" leadInLength="0/1"  />
               <InterpolatingParam id="613" interp="linr"  time="-9999999/1" value="0" leadInLength="0/1"  />
               <InterpolatingParam id="614" interp="linr"  time="-9999999/1" value="0" leadInLength="0/1"  />
              </VectorParam>
              <VectorParam id="615"  name="rotation">
               <InterpolatingParam id="616" interp="linr"  time="-9999999/1" value="0" leadInLength="0/1"  />
               <InterpolatingParam id="617" interp="linr"  time="-9999999/1" value="0" leadInLength="0/1"  />
               <InterpolatingParam id="618" interp="linr"  time="-9999999/1" value="0" leadInLength="0/1"  />
              </VectorParam>
              <VectorParam id="619"  name="shear">
               <InterpolatingParam id="620" interp="linr"  time="-9999999/1" value="0" leadInLength="0/1"  />
               <InterpolatingParam id="621" interp="linr"  time="-9999999/1" value="0" leadInLength="0/1"  />
               <InterpolatingParam id="622" interp="linr"  time="-9999999/1" value="0" leadInLength="0/1"  />
              </VectorParam>
              <VectorParam id="623"  name="scale">
               <InterpolatingParam id="624" interp="linr"  time="-9999999/1" value="1" leadInLength="0/1"  />
               <InterpolatingParam id="625" interp="linr"  time="-9999999/1" value="1" leadInLength="0/1"  />
               <InterpolatingParam id="626" interp="linr"  time="-9999999/1" value="1" leadInLength="0/1"  />
              </VectorParam>
              <VectorParam id="627"  name="anchor">
               <InterpolatingParam id="628" interp="linr"  time="0/1" value="0" leadInLength="0/1"  />
               <InterpolatingParam id="629" interp="linr"  time="0/1" value="0" leadInLength="0/1"  />
               <InterpolatingParam id="630" interp="linr"  time="0/1" value="0" leadInLength="0/1"  />
              </VectorParam>
             </Transformer>
             <Parameters>
              <VectorParam id="631"  name="sourceCrop">
               <InterpolatingParam id="632" interp="linr"  time="0/1" value="0" leadInLength="0/1"  />
               <InterpolatingParam id="633" interp="linr"  time="0/1" value="0" leadInLength="0/1"  />
               <InterpolatingParam id="634" interp="linr"  time="0/1" value="0" leadInLength="0/1"  />
               <InterpolatingParam id="635" interp="linr"  time="0/1" value="0" leadInLength="0/1"  />
              </VectorParam>
              <VectorParam id="636"  name="geometryCrop">
               <InterpolatingParam id="637" interp="linr"  time="-9999999/1" value="0" leadInLength="0/1"  />
               <InterpolatingParam id="638" interp="linr"  time="-9999999/1" value="0" leadInLength="0/1"  />
               <InterpolatingParam id="639" interp="linr"  time="-9999999/1" value="0" leadInLength="0/1"  />
               <InterpolatingParam id="640" interp="linr"  time="-9999999/1" value="0" leadInLength="0/1"  />
              </VectorParam>
              <InterpolatingParam id="641" interp="linr"  time="-9999999/1" value="1" leadInLength="0/1"  name="opacity"/>
              <InterpolatingParam id="642" interp="linr"  time="0/1" value="0" leadInLength="0/1"  name="cursorOpacity"/>
              <InterpolatingParam id="643" interp="linr"  time="0/1" value="0" leadInLength="0/1"  name="cursorScale"/>
             </Parameters>
             <Attributes>
              <Attribute id="644" value="" name="ident"/>
             </Attributes>
             <ExtraData>
              <Entry key="ZoomPanBin">
               <ZoomPanBin id="645"  >
                <ZoomPanKeyframes>
                 <ZoomPanKeyframe id="646" timeRangeEnd="-9999999/1" timeRangeDuration="0/1" interpolaterName=""  />
                </ZoomPanKeyframes>
               </ZoomPanBin>
              </Entry>
              <Entry key="CursorEffectBin">
               <CursorEffectBin id="647"  >
                <CursorEffectKeyframes>
                </CursorEffectKeyframes>
               </CursorEffectBin>
              </Entry>
             </ExtraData>
            </ScreenVMFile>
            <MetaData>
             <entry key="AutoAppliedSmartFocus" val="False"/>
             <entry key="WinSubProjectDisplayName" val=""/>
            </MetaData>
           </UnifiedMedia>
           <UnifiedMedia id="648"  >
            <AMFile id="649" start="875" duration="780" scalar="1/1" mediaStart="4382/1" mediaDuration="780/1" trackNumber="1" src="4" channelNumber="0,1" >
             <Parameters>
              <InterpolatingParam id="650" interp="linr"  time="0/1" value="1" leadInLength="0/1"  name="volume"/>
              <Parameter id="651"  name="captions"/>
             </Parameters>
             <Attributes>
              <Attribute id="652" value="" name="ident"/>
              <Attribute id="653" value="44100" name="sampleRate"/>
              <Attribute id="654" value="16" name="bitDepth"/>
              <Attribute id="655" value="1" name="gain"/>
              <Attribute id="656" value="0" name="mixToMono"/>
             </Attributes>
            </AMFile>
            <ScreenVMFile id="657" start="875" duration="780" scalar="1/1" mediaStart="4382/1" mediaDuration="780/1" trackNumber="0" src="4" >
             <Transformer>
              <VectorParam id="658"  name="translation">
               <InterpolatingParam id="659" interp="linr"  time="-9999999/1" value="0" leadInLength="0/1"  />
               <InterpolatingParam id="660" interp="linr"  time="-9999999/1" value="0" leadInLength="0/1"  />
               <InterpolatingParam id="661" interp="linr"  time="-9999999/1" value="0" leadInLength="0/1"  />
              </VectorParam>
              <VectorParam id="662"  name="rotation">
               <InterpolatingParam id="663" interp="linr"  time="-9999999/1" value="0" leadInLength="0/1"  />
               <InterpolatingParam id="664" interp="linr"  time="-9999999/1" value="0" leadInLength="0/1"  />
               <InterpolatingParam id="665" interp="linr"  time="-9999999/1" value="0" leadInLength="0/1"  />
              </VectorParam>
              <VectorParam id="666"  name="shear">
               <InterpolatingParam id="667" interp="linr"  time="-9999999/1" value="0" leadInLength="0/1"  />
               <InterpolatingParam id="668" interp="linr"  time="-9999999/1" value="0" leadInLength="0/1"  />
               <InterpolatingParam id="669" interp="linr"  time="-9999999/1" value="0" leadInLength="0/1"  />
              </VectorParam>
              <VectorParam id="670"  name="scale">
               <InterpolatingParam id="671" interp="linr"  time="-9999999/1" value="1" leadInLength="0/1"  />
               <InterpolatingParam id="672" interp="linr"  time="-9999999/1" value="1" leadInLength="0/1"  />
               <InterpolatingParam id="673" interp="linr"  time="-9999999/1" value="1" leadInLength="0/1"  />
              </VectorParam>
              <VectorParam id="674"  name="anchor">
               <InterpolatingParam id="675" interp="linr"  time="0/1" value="0" leadInLength="0/1"  />
               <InterpolatingParam id="676" interp="linr"  time="0/1" value="0" leadInLength="0/1"  />
               <InterpolatingParam id="677" interp="linr"  time="0/1" value="0" leadInLength="0/1"  />
              </VectorParam>
             </Transformer>
             <Parameters>
              <VectorParam id="678"  name="sourceCrop">
               <InterpolatingParam id="679" interp="linr"  time="0/1" value="0" leadInLength="0/1"  />
               <InterpolatingParam id="680" interp="linr"  time="0/1" value="0" leadInLength="0/1"  />
               <InterpolatingParam id="681" interp="linr"  time="0/1" value="0" leadInLength="0/1"  />
               <InterpolatingParam id="682" interp="linr"  time="0/1" value="0" leadInLength="0/1"  />
              </VectorParam>
              <VectorParam id="683"  name="geometryCrop">
               <InterpolatingParam id="684" interp="linr"  time="-9999999/1" value="0" leadInLength="0/1"  />
               <InterpolatingParam id="685" interp="linr"  time="-9999999/1" value="0" leadInLength="0/1"  />
               <InterpolatingParam id="686" interp="linr"  time="-9999999/1" value="0" leadInLength="0/1"  />
               <InterpolatingParam id="687" interp="linr"  time="-9999999/1" value="0" leadInLength="0/1"  />
              </VectorParam>
              <InterpolatingParam id="688" interp="linr"  time="-9999999/1" value="1" leadInLength="0/1"  name="opacity"/>
              <InterpolatingParam id="689" interp="linr"  time="0/1" value="0" leadInLength="0/1"  name="cursorOpacity"/>
              <InterpolatingParam id="690" interp="linr"  time="0/1" value="0" leadInLength="0/1"  name="cursorScale"/>
             </Parameters>
             <Attributes>
              <Attribute id="691" value="" name="ident"/>
             </Attributes>
             <ExtraData>
              <Entry key="ZoomPanBin">
               <ZoomPanBin id="692"  >
                <ZoomPanKeyframes>
                 <ZoomPanKeyframe id="693" timeRangeEnd="-9999999/1" timeRangeDuration="0/1" interpolaterName=""  />
                </ZoomPanKeyframes>
               </ZoomPanBin>
              </Entry>
              <Entry key="CursorEffectBin">
               <CursorEffectBin id="694"  >
                <CursorEffectKeyframes>
                </CursorEffectKeyframes>
               </CursorEffectBin>
              </Entry>
             </ExtraData>
            </ScreenVMFile>
            <MetaData>
             <entry key="AutoAppliedSmartFocus" val="False"/>
             <entry key="WinSubProjectDisplayName" val=""/>
            </MetaData>
           </UnifiedMedia>
           <UnifiedMedia id="695"  >
            <AMFile id="696" start="1655" duration="632" scalar="1/1" mediaStart="5173/1" mediaDuration="632/1" trackNumber="1" src="4" channelNumber="0,1" >
             <Parameters>
              <InterpolatingParam id="697" interp="linr"  time="0/1" value="1" leadInLength="0/1"  name="volume"/>
              <Parameter id="698"  name="captions"/>
             </Parameters>
             <Attributes>
              <Attribute id="699" value="" name="ident"/>
              <Attribute id="700" value="44100" name="sampleRate"/>
              <Attribute id="701" value="16" name="bitDepth"/>
              <Attribute id="702" value="1" name="gain"/>
              <Attribute id="703" value="0" name="mixToMono"/>
             </Attributes>
            </AMFile>
            <ScreenVMFile id="704" start="1655" duration="632" scalar="1/1" mediaStart="5173/1" mediaDuration="632/1" trackNumber="0" src="4" >
             <Transformer>
              <VectorParam id="705"  name="translation">
               <InterpolatingParam id="706" interp="linr"  time="-9999999/1" value="0" leadInLength="0/1"  />
               <InterpolatingParam id="707" interp="linr"  time="-9999999/1" value="0" leadInLength="0/1"  />
               <InterpolatingParam id="708" interp="linr"  time="-9999999/1" value="0" leadInLength="0/1"  />
              </VectorParam>
              <VectorParam id="709"  name="rotation">
               <InterpolatingParam id="710" interp="linr"  time="-9999999/1" value="0" leadInLength="0/1"  />
               <InterpolatingParam id="711" interp="linr"  time="-9999999/1" value="0" leadInLength="0/1"  />
               <InterpolatingParam id="712" interp="linr"  time="-9999999/1" value="0" leadInLength="0/1"  />
              </VectorParam>
              <VectorParam id="713"  name="shear">
               <InterpolatingParam id="714" interp="linr"  time="-9999999/1" value="0" leadInLength="0/1"  />
               <InterpolatingParam id="715" interp="linr"  time="-9999999/1" value="0" leadInLength="0/1"  />
               <InterpolatingParam id="716" interp="linr"  time="-9999999/1" value="0" leadInLength="0/1"  />
              </VectorParam>
              <VectorParam id="717"  name="scale">
               <InterpolatingParam id="718" interp="linr"  time="-9999999/1" value="1" leadInLength="0/1"  />
               <InterpolatingParam id="719" interp="linr"  time="-9999999/1" value="1" leadInLength="0/1"  />
               <InterpolatingParam id="720" interp="linr"  time="-9999999/1" value="1" leadInLength="0/1"  />
              </VectorParam>
              <VectorParam id="721"  name="anchor">
               <InterpolatingParam id="722" interp="linr"  time="0/1" value="0" leadInLength="0/1"  />
               <InterpolatingParam id="723" interp="linr"  time="0/1" value="0" leadInLength="0/1"  />
               <InterpolatingParam id="724" interp="linr"  time="0/1" value="0" leadInLength="0/1"  />
              </VectorParam>
             </Transformer>
             <Parameters>
              <VectorParam id="725"  name="sourceCrop">
               <InterpolatingParam id="726" interp="linr"  time="0/1" value="0" leadInLength="0/1"  />
               <InterpolatingParam id="727" interp="linr"  time="0/1" value="0" leadInLength="0/1"  />
               <InterpolatingParam id="728" interp="linr"  time="0/1" value="0" leadInLength="0/1"  />
               <InterpolatingParam id="729" interp="linr"  time="0/1" value="0" leadInLength="0/1"  />
              </VectorParam>
              <VectorParam id="730"  name="geometryCrop">
               <InterpolatingParam id="731" interp="linr"  time="-9999999/1" value="0" leadInLength="0/1"  />
               <InterpolatingParam id="732" interp="linr"  time="-9999999/1" value="0" leadInLength="0/1"  />
               <InterpolatingParam id="733" interp="linr"  time="-9999999/1" value="0" leadInLength="0/1"  />
               <InterpolatingParam id="734" interp="linr"  time="-9999999/1" value="0" leadInLength="0/1"  />
              </VectorParam>
              <InterpolatingParam id="735" interp="linr"  time="-9999999/1" value="1" leadInLength="0/1"  name="opacity"/>
              <InterpolatingParam id="736" interp="linr"  time="0/1" value="0" leadInLength="0/1"  name="cursorOpacity"/>
              <InterpolatingParam id="737" interp="linr"  time="0/1" value="0" leadInLength="0/1"  name="cursorScale"/>
             </Parameters>
             <Attributes>
              <Attribute id="738" value="" name="ident"/>
             </Attributes>
             <ExtraData>
              <Entry key="ZoomPanBin">
               <ZoomPanBin id="739"  >
                <ZoomPanKeyframes>
                 <ZoomPanKeyframe id="740" timeRangeEnd="-9999999/1" timeRangeDuration="0/1" interpolaterName=""  />
                </ZoomPanKeyframes>
               </ZoomPanBin>
              </Entry>
              <Entry key="CursorEffectBin">
               <CursorEffectBin id="741"  >
                <CursorEffectKeyframes>
                </CursorEffectKeyframes>
               </CursorEffectBin>
              </Entry>
             </ExtraData>
            </ScreenVMFile>
            <MetaData>
             <entry key="AutoAppliedSmartFocus" val="False"/>
             <entry key="WinSubProjectDisplayName" val=""/>
            </MetaData>
           </UnifiedMedia>
           <UnifiedMedia id="742"  >
            <AMFile id="743" start="2287" duration="108" scalar="1/1" mediaStart="6072/1" mediaDuration="108/1" trackNumber="1" src="4" channelNumber="0,1" >
             <Parameters>
              <InterpolatingParam id="744" interp="linr"  time="0/1" value="1" leadInLength="0/1"  name="volume"/>
              <Parameter id="745"  name="captions"/>
             </Parameters>
             <Attributes>
              <Attribute id="746" value="" name="ident"/>
              <Attribute id="747" value="44100" name="sampleRate"/>
              <Attribute id="748" value="16" name="bitDepth"/>
              <Attribute id="749" value="1" name="gain"/>
              <Attribute id="750" value="0" name="mixToMono"/>
             </Attributes>
            </AMFile>
            <ScreenVMFile id="751" start="2287" duration="108" scalar="1/1" mediaStart="6072/1" mediaDuration="108/1" trackNumber="0" src="4" >
             <Transformer>
              <VectorParam id="752"  name="translation">
               <InterpolatingParam id="753" interp="linr"  time="-9999999/1" value="0" leadInLength="0/1"  />
               <InterpolatingParam id="754" interp="linr"  time="-9999999/1" value="0" leadInLength="0/1"  />
               <InterpolatingParam id="755" interp="linr"  time="-9999999/1" value="0" leadInLength="0/1"  />
              </VectorParam>
              <VectorParam id="756"  name="rotation">
               <InterpolatingParam id="757" interp="linr"  time="-9999999/1" value="0" leadInLength="0/1"  />
               <InterpolatingParam id="758" interp="linr"  time="-9999999/1" value="0" leadInLength="0/1"  />
               <InterpolatingParam id="759" interp="linr"  time="-9999999/1" value="0" leadInLength="0/1"  />
              </VectorParam>
              <VectorParam id="760"  name="shear">
               <InterpolatingParam id="761" interp="linr"  time="-9999999/1" value="0" leadInLength="0/1"  />
               <InterpolatingParam id="762" interp="linr"  time="-9999999/1" value="0" leadInLength="0/1"  />
               <InterpolatingParam id="763" interp="linr"  time="-9999999/1" value="0" leadInLength="0/1"  />
              </VectorParam>
              <VectorParam id="764"  name="scale">
               <InterpolatingParam id="765" interp="linr"  time="-9999999/1" value="1" leadInLength="0/1"  />
               <InterpolatingParam id="766" interp="linr"  time="-9999999/1" value="1" leadInLength="0/1"  />
               <InterpolatingParam id="767" interp="linr"  time="-9999999/1" value="1" leadInLength="0/1"  />
              </VectorParam>
              <VectorParam id="768"  name="anchor">
               <InterpolatingParam id="769" interp="linr"  time="0/1" value="0" leadInLength="0/1"  />
               <InterpolatingParam id="770" interp="linr"  time="0/1" value="0" leadInLength="0/1"  />
               <InterpolatingParam id="771" interp="linr"  time="0/1" value="0" leadInLength="0/1"  />
              </VectorParam>
             </Transformer>
             <Parameters>
              <VectorParam id="772"  name="sourceCrop">
               <InterpolatingParam id="773" interp="linr"  time="0/1" value="0" leadInLength="0/1"  />
               <InterpolatingParam id="774" interp="linr"  time="0/1" value="0" leadInLength="0/1"  />
               <InterpolatingParam id="775" interp="linr"  time="0/1" value="0" leadInLength="0/1"  />
               <InterpolatingParam id="776" interp="linr"  time="0/1" value="0" leadInLength="0/1"  />
              </VectorParam>
              <VectorParam id="777"  name="geometryCrop">
               <InterpolatingParam id="778" interp="linr"  time="-9999999/1" value="0" leadInLength="0/1"  />
               <InterpolatingParam id="779" interp="linr"  time="-9999999/1" value="0" leadInLength="0/1"  />
               <InterpolatingParam id="780" interp="linr"  time="-9999999/1" value="0" leadInLength="0/1"  />
               <InterpolatingParam id="781" interp="linr"  time="-9999999/1" value="0" leadInLength="0/1"  />
              </VectorParam>
              <InterpolatingParam id="782" interp="linr"  time="-9999999/1" value="1" leadInLength="0/1"  name="opacity"/>
              <InterpolatingParam id="783" interp="linr"  time="0/1" value="0" leadInLength="0/1"  name="cursorOpacity"/>
              <InterpolatingParam id="784" interp="linr"  time="0/1" value="0" leadInLength="0/1"  name="cursorScale"/>
             </Parameters>
             <Attributes>
              <Attribute id="785" value="" name="ident"/>
             </Attributes>
             <ExtraData>
              <Entry key="ZoomPanBin">
               <ZoomPanBin id="786"  >
                <ZoomPanKeyframes>
                 <ZoomPanKeyframe id="787" timeRangeEnd="-9999999/1" timeRangeDuration="0/1" interpolaterName=""  />
                </ZoomPanKeyframes>
               </ZoomPanBin>
              </Entry>
              <Entry key="CursorEffectBin">
               <CursorEffectBin id="788"  >
                <CursorEffectKeyframes>
                </CursorEffectKeyframes>
               </CursorEffectBin>
              </Entry>
             </ExtraData>
            </ScreenVMFile>
            <MetaData>
             <entry key="AutoAppliedSmartFocus" val="False"/>
             <entry key="WinSubProjectDisplayName" val=""/>
            </MetaData>
           </UnifiedMedia>
           <UnifiedMedia id="789"  >
            <AMFile id="790" start="2395" duration="70" scalar="1/1" mediaStart="6193/1" mediaDuration="70/1" trackNumber="1" src="4" channelNumber="0,1" >
             <Parameters>
              <InterpolatingParam id="791" interp="linr"  time="0/1" value="1" leadInLength="0/1"  name="volume"/>
              <Parameter id="792"  name="captions"/>
             </Parameters>
             <Attributes>
              <Attribute id="793" value="" name="ident"/>
              <Attribute id="794" value="44100" name="sampleRate"/>
              <Attribute id="795" value="16" name="bitDepth"/>
              <Attribute id="796" value="1" name="gain"/>
              <Attribute id="797" value="0" name="mixToMono"/>
             </Attributes>
            </AMFile>
            <ScreenVMFile id="798" start="2395" duration="70" scalar="1/1" mediaStart="6193/1" mediaDuration="70/1" trackNumber="0" src="4" >
             <Transformer>
              <VectorParam id="799"  name="translation">
               <InterpolatingParam id="800" interp="linr"  time="-9999999/1" value="0" leadInLength="0/1"  />
               <InterpolatingParam id="801" interp="linr"  time="-9999999/1" value="0" leadInLength="0/1"  />
               <InterpolatingParam id="802" interp="linr"  time="-9999999/1" value="0" leadInLength="0/1"  />
              </VectorParam>
              <VectorParam id="803"  name="rotation">
               <InterpolatingParam id="804" interp="linr"  time="-9999999/1" value="0" leadInLength="0/1"  />
               <InterpolatingParam id="805" interp="linr"  time="-9999999/1" value="0" leadInLength="0/1"  />
               <InterpolatingParam id="806" interp="linr"  time="-9999999/1" value="0" leadInLength="0/1"  />
              </VectorParam>
              <VectorParam id="807"  name="shear">
               <InterpolatingParam id="808" interp="linr"  time="-9999999/1" value="0" leadInLength="0/1"  />
               <InterpolatingParam id="809" interp="linr"  time="-9999999/1" value="0" leadInLength="0/1"  />
               <InterpolatingParam id="810" interp="linr"  time="-9999999/1" value="0" leadInLength="0/1"  />
              </VectorParam>
              <VectorParam id="811"  name="scale">
               <InterpolatingParam id="812" interp="linr"  time="-9999999/1" value="1" leadInLength="0/1"  />
               <InterpolatingParam id="813" interp="linr"  time="-9999999/1" value="1" leadInLength="0/1"  />
               <InterpolatingParam id="814" interp="linr"  time="-9999999/1" value="1" leadInLength="0/1"  />
              </VectorParam>
              <VectorParam id="815"  name="anchor">
               <InterpolatingParam id="816" interp="linr"  time="0/1" value="0" leadInLength="0/1"  />
               <InterpolatingParam id="817" interp="linr"  time="0/1" value="0" leadInLength="0/1"  />
               <InterpolatingParam id="818" interp="linr"  time="0/1" value="0" leadInLength="0/1"  />
              </VectorParam>
             </Transformer>
             <Parameters>
              <VectorParam id="819"  name="sourceCrop">
               <InterpolatingParam id="820" interp="linr"  time="0/1" value="0" leadInLength="0/1"  />
               <InterpolatingParam id="821" interp="linr"  time="0/1" value="0" leadInLength="0/1"  />
               <InterpolatingParam id="822" interp="linr"  time="0/1" value="0" leadInLength="0/1"  />
               <InterpolatingParam id="823" interp="linr"  time="0/1" value="0" leadInLength="0/1"  />
              </VectorParam>
              <VectorParam id="824"  name="geometryCrop">
               <InterpolatingParam id="825" interp="linr"  time="-9999999/1" value="0" leadInLength="0/1"  />
               <InterpolatingParam id="826" interp="linr"  time="-9999999/1" value="0" leadInLength="0/1"  />
               <InterpolatingParam id="827" interp="linr"  time="-9999999/1" value="0" leadInLength="0/1"  />
               <InterpolatingParam id="828" interp="linr"  time="-9999999/1" value="0" leadInLength="0/1"  />
              </VectorParam>
              <InterpolatingParam id="829" interp="linr"  time="-9999999/1" value="1" leadInLength="0/1"  name="opacity"/>
              <InterpolatingParam id="830" interp="linr"  time="0/1" value="0" leadInLength="0/1"  name="cursorOpacity"/>
              <InterpolatingParam id="831" interp="linr"  time="0/1" value="0" leadInLength="0/1"  name="cursorScale"/>
             </Parameters>
             <Attributes>
              <Attribute id="832" value="" name="ident"/>
             </Attributes>
             <ExtraData>
              <Entry key="ZoomPanBin">
               <ZoomPanBin id="833"  >
                <ZoomPanKeyframes>
                 <ZoomPanKeyframe id="834" timeRangeEnd="-9999999/1" timeRangeDuration="0/1" interpolaterName=""  />
                </ZoomPanKeyframes>
               </ZoomPanBin>
              </Entry>
              <Entry key="CursorEffectBin">
               <CursorEffectBin id="835"  >
                <CursorEffectKeyframes>
                </CursorEffectKeyframes>
               </CursorEffectBin>
              </Entry>
             </ExtraData>
            </ScreenVMFile>
            <MetaData>
             <entry key="AutoAppliedSmartFocus" val="False"/>
             <entry key="WinSubProjectDisplayName" val=""/>
            </MetaData>
           </UnifiedMedia>
           <UnifiedMedia id="836"  >
            <AMFile id="837" start="2465" duration="292" scalar="1/1" mediaStart="6273/1" mediaDuration="292/1" trackNumber="1" src="4" channelNumber="0,1" >
             <Parameters>
              <InterpolatingParam id="838" interp="linr"  time="0/1" value="1" leadInLength="0/1"  name="volume"/>
              <Parameter id="839"  name="captions"/>
             </Parameters>
             <Attributes>
              <Attribute id="840" value="" name="ident"/>
              <Attribute id="841" value="44100" name="sampleRate"/>
              <Attribute id="842" value="16" name="bitDepth"/>
              <Attribute id="843" value="1" name="gain"/>
              <Attribute id="844" value="0" name="mixToMono"/>
             </Attributes>
            </AMFile>
            <ScreenVMFile id="845" start="2465" duration="292" scalar="1/1" mediaStart="6273/1" mediaDuration="292/1" trackNumber="0" src="4" >
             <Transformer>
              <VectorParam id="846"  name="translation">
               <InterpolatingParam id="847" interp="linr"  time="-9999999/1" value="0" leadInLength="0/1"  />
               <InterpolatingParam id="848" interp="linr"  time="-9999999/1" value="0" leadInLength="0/1"  />
               <InterpolatingParam id="849" interp="linr"  time="-9999999/1" value="0" leadInLength="0/1"  />
              </VectorParam>
              <VectorParam id="850"  name="rotation">
               <InterpolatingParam id="851" interp="linr"  time="-9999999/1" value="0" leadInLength="0/1"  />
               <InterpolatingParam id="852" interp="linr"  time="-9999999/1" value="0" leadInLength="0/1"  />
               <InterpolatingParam id="853" interp="linr"  time="-9999999/1" value="0" leadInLength="0/1"  />
              </VectorParam>
              <VectorParam id="854"  name="shear">
               <InterpolatingParam id="855" interp="linr"  time="-9999999/1" value="0" leadInLength="0/1"  />
               <InterpolatingParam id="856" interp="linr"  time="-9999999/1" value="0" leadInLength="0/1"  />
               <InterpolatingParam id="857" interp="linr"  time="-9999999/1" value="0" leadInLength="0/1"  />
              </VectorParam>
              <VectorParam id="858"  name="scale">
               <InterpolatingParam id="859" interp="linr"  time="-9999999/1" value="1" leadInLength="0/1"  />
               <InterpolatingParam id="860" interp="linr"  time="-9999999/1" value="1" leadInLength="0/1"  />
               <InterpolatingParam id="861" interp="linr"  time="-9999999/1" value="1" leadInLength="0/1"  />
              </VectorParam>
              <VectorParam id="862"  name="anchor">
               <InterpolatingParam id="863" interp="linr"  time="0/1" value="0" leadInLength="0/1"  />
               <InterpolatingParam id="864" interp="linr"  time="0/1" value="0" leadInLength="0/1"  />
               <InterpolatingParam id="865" interp="linr"  time="0/1" value="0" leadInLength="0/1"  />
              </VectorParam>
             </Transformer>
             <Parameters>
              <VectorParam id="866"  name="sourceCrop">
               <InterpolatingParam id="867" interp="linr"  time="0/1" value="0" leadInLength="0/1"  />
               <InterpolatingParam id="868" interp="linr"  time="0/1" value="0" leadInLength="0/1"  />
               <InterpolatingParam id="869" interp="linr"  time="0/1" value="0" leadInLength="0/1"  />
               <InterpolatingParam id="870" interp="linr"  time="0/1" value="0" leadInLength="0/1"  />
              </VectorParam>
              <VectorParam id="871"  name="geometryCrop">
               <InterpolatingParam id="872" interp="linr"  time="-9999999/1" value="0" leadInLength="0/1"  />
               <InterpolatingParam id="873" interp="linr"  time="-9999999/1" value="0" leadInLength="0/1"  />
               <InterpolatingParam id="874" interp="linr"  time="-9999999/1" value="0" leadInLength="0/1"  />
               <InterpolatingParam id="875" interp="linr"  time="-9999999/1" value="0" leadInLength="0/1"  />
              </VectorParam>
              <InterpolatingParam id="876" interp="linr"  time="-9999999/1" value="1" leadInLength="0/1"  name="opacity"/>
              <InterpolatingParam id="877" interp="linr"  time="0/1" value="0" leadInLength="0/1"  name="cursorOpacity"/>
              <InterpolatingParam id="878" interp="linr"  time="0/1" value="0" leadInLength="0/1"  name="cursorScale"/>
             </Parameters>
             <Attributes>
              <Attribute id="879" value="" name="ident"/>
             </Attributes>
             <ExtraData>
              <Entry key="ZoomPanBin">
               <ZoomPanBin id="880"  >
                <ZoomPanKeyframes>
                 <ZoomPanKeyframe id="881" timeRangeEnd="-9999999/1" timeRangeDuration="0/1" interpolaterName=""  />
                </ZoomPanKeyframes>
               </ZoomPanBin>
              </Entry>
              <Entry key="CursorEffectBin">
               <CursorEffectBin id="882"  >
                <CursorEffectKeyframes>
                </CursorEffectKeyframes>
               </CursorEffectBin>
              </Entry>
             </ExtraData>
            </ScreenVMFile>
            <MetaData>
             <entry key="AutoAppliedSmartFocus" val="False"/>
             <entry key="WinSubProjectDisplayName" val=""/>
            </MetaData>
           </UnifiedMedia>
           <UnifiedMedia id="883"  >
            <AMFile id="884" start="2757" duration="256" scalar="1/1" mediaStart="6695/1" mediaDuration="256/1" trackNumber="1" src="4" channelNumber="0,1" >
             <Parameters>
              <InterpolatingParam id="885" interp="linr"  time="0/1" value="1" leadInLength="0/1"  name="volume"/>
              <Parameter id="886"  name="captions"/>
             </Parameters>
             <Attributes>
              <Attribute id="887" value="" name="ident"/>
              <Attribute id="888" value="44100" name="sampleRate"/>
              <Attribute id="889" value="16" name="bitDepth"/>
              <Attribute id="890" value="1" name="gain"/>
              <Attribute id="891" value="0" name="mixToMono"/>
             </Attributes>
            </AMFile>
            <ScreenVMFile id="892" start="2757" duration="256" scalar="1/1" mediaStart="6695/1" mediaDuration="256/1" trackNumber="0" src="4" >
             <Transformer>
              <VectorParam id="893"  name="translation">
               <InterpolatingParam id="894" interp="linr"  time="-9999999/1" value="0" leadInLength="0/1"  />
               <InterpolatingParam id="895" interp="linr"  time="-9999999/1" value="0" leadInLength="0/1"  />
               <InterpolatingParam id="896" interp="linr"  time="-9999999/1" value="0" leadInLength="0/1"  />
              </VectorParam>
              <VectorParam id="897"  name="rotation">
               <InterpolatingParam id="898" interp="linr"  time="-9999999/1" value="0" leadInLength="0/1"  />
               <InterpolatingParam id="899" interp="linr"  time="-9999999/1" value="0" leadInLength="0/1"  />
               <InterpolatingParam id="900" interp="linr"  time="-9999999/1" value="0" leadInLength="0/1"  />
              </VectorParam>
              <VectorParam id="901"  name="shear">
               <InterpolatingParam id="902" interp="linr"  time="-9999999/1" value="0" leadInLength="0/1"  />
               <InterpolatingParam id="903" interp="linr"  time="-9999999/1" value="0" leadInLength="0/1"  />
               <InterpolatingParam id="904" interp="linr"  time="-9999999/1" value="0" leadInLength="0/1"  />
              </VectorParam>
              <VectorParam id="905"  name="scale">
               <InterpolatingParam id="906" interp="linr"  time="-9999999/1" value="1" leadInLength="0/1"  />
               <InterpolatingParam id="907" interp="linr"  time="-9999999/1" value="1" leadInLength="0/1"  />
               <InterpolatingParam id="908" interp="linr"  time="-9999999/1" value="1" leadInLength="0/1"  />
              </VectorParam>
              <VectorParam id="909"  name="anchor">
               <InterpolatingParam id="910" interp="linr"  time="0/1" value="0" leadInLength="0/1"  />
               <InterpolatingParam id="911" interp="linr"  time="0/1" value="0" leadInLength="0/1"  />
               <InterpolatingParam id="912" interp="linr"  time="0/1" value="0" leadInLength="0/1"  />
              </VectorParam>
             </Transformer>
             <Parameters>
              <VectorParam id="913"  name="sourceCrop">
               <InterpolatingParam id="914" interp="linr"  time="0/1" value="0" leadInLength="0/1"  />
               <InterpolatingParam id="915" interp="linr"  time="0/1" value="0" leadInLength="0/1"  />
               <InterpolatingParam id="916" interp="linr"  time="0/1" value="0" leadInLength="0/1"  />
               <InterpolatingParam id="917" interp="linr"  time="0/1" value="0" leadInLength="0/1"  />
              </VectorParam>
              <VectorParam id="918"  name="geometryCrop">
               <InterpolatingParam id="919" interp="linr"  time="-9999999/1" value="0" leadInLength="0/1"  />
               <InterpolatingParam id="920" interp="linr"  time="-9999999/1" value="0" leadInLength="0/1"  />
               <InterpolatingParam id="921" interp="linr"  time="-9999999/1" value="0" leadInLength="0/1"  />
               <InterpolatingParam id="922" interp="linr"  time="-9999999/1" value="0" leadInLength="0/1"  />
              </VectorParam>
              <InterpolatingParam id="923" interp="linr"  time="-9999999/1" value="1" leadInLength="0/1"  name="opacity"/>
              <InterpolatingParam id="924" interp="linr"  time="0/1" value="0" leadInLength="0/1"  name="cursorOpacity"/>
              <InterpolatingParam id="925" interp="linr"  time="0/1" value="0" leadInLength="0/1"  name="cursorScale"/>
             </Parameters>
             <Attributes>
              <Attribute id="926" value="" name="ident"/>
             </Attributes>
             <ExtraData>
              <Entry key="ZoomPanBin">
               <ZoomPanBin id="927"  >
                <ZoomPanKeyframes>
                 <ZoomPanKeyframe id="928" timeRangeEnd="-9999999/1" timeRangeDuration="0/1" interpolaterName=""  />
                </ZoomPanKeyframes>
               </ZoomPanBin>
              </Entry>
              <Entry key="CursorEffectBin">
               <CursorEffectBin id="929"  >
                <CursorEffectKeyframes>
                </CursorEffectKeyframes>
               </CursorEffectBin>
              </Entry>
             </ExtraData>
            </ScreenVMFile>
            <MetaData>
             <entry key="AutoAppliedSmartFocus" val="False"/>
             <entry key="WinSubProjectDisplayName" val=""/>
            </MetaData>
           </UnifiedMedia>
           <UnifiedMedia id="930"  >
            <AMFile id="931" start="3013" duration="84" scalar="1/1" mediaStart="6958/1" mediaDuration="84/1" trackNumber="1" src="4" channelNumber="0,1" >
             <Parameters>
              <InterpolatingParam id="932" interp="linr"  time="0/1" value="1" leadInLength="0/1"  name="volume"/>
              <Parameter id="933"  name="captions"/>
             </Parameters>
             <Attributes>
              <Attribute id="934" value="" name="ident"/>
              <Attribute id="935" value="44100" name="sampleRate"/>
              <Attribute id="936" value="16" name="bitDepth"/>
              <Attribute id="937" value="1" name="gain"/>
              <Attribute id="938" value="0" name="mixToMono"/>
             </Attributes>
            </AMFile>
            <ScreenVMFile id="939" start="3013" duration="84" scalar="1/1" mediaStart="6958/1" mediaDuration="84/1" trackNumber="0" src="4" >
             <Transformer>
              <VectorParam id="940"  name="translation">
               <InterpolatingParam id="941" interp="linr"  time="-9999999/1" value="0" leadInLength="0/1"  />
               <InterpolatingParam id="942" interp="linr"  time="-9999999/1" value="0" leadInLength="0/1"  />
               <InterpolatingParam id="943" interp="linr"  time="-9999999/1" value="0" leadInLength="0/1"  />
              </VectorParam>
              <VectorParam id="944"  name="rotation">
               <InterpolatingParam id="945" interp="linr"  time="-9999999/1" value="0" leadInLength="0/1"  />
               <InterpolatingParam id="946" interp="linr"  time="-9999999/1" value="0" leadInLength="0/1"  />
               <InterpolatingParam id="947" interp="linr"  time="-9999999/1" value="0" leadInLength="0/1"  />
              </VectorParam>
              <VectorParam id="948"  name="shear">
               <InterpolatingParam id="949" interp="linr"  time="-9999999/1" value="0" leadInLength="0/1"  />
               <InterpolatingParam id="950" interp="linr"  time="-9999999/1" value="0" leadInLength="0/1"  />
               <InterpolatingParam id="951" interp="linr"  time="-9999999/1" value="0" leadInLength="0/1"  />
              </VectorParam>
              <VectorParam id="952"  name="scale">
               <InterpolatingParam id="953" interp="linr"  time="-9999999/1" value="1" leadInLength="0/1"  />
               <InterpolatingParam id="954" interp="linr"  time="-9999999/1" value="1" leadInLength="0/1"  />
               <InterpolatingParam id="955" interp="linr"  time="-9999999/1" value="1" leadInLength="0/1"  />
              </VectorParam>
              <VectorParam id="956"  name="anchor">
               <InterpolatingParam id="957" interp="linr"  time="0/1" value="0" leadInLength="0/1"  />
               <InterpolatingParam id="958" interp="linr"  time="0/1" value="0" leadInLength="0/1"  />
               <InterpolatingParam id="959" interp="linr"  time="0/1" value="0" leadInLength="0/1"  />
              </VectorParam>
             </Transformer>
             <Parameters>
              <VectorParam id="960"  name="sourceCrop">
               <InterpolatingParam id="961" interp="linr"  time="0/1" value="0" leadInLength="0/1"  />
               <InterpolatingParam id="962" interp="linr"  time="0/1" value="0" leadInLength="0/1"  />
               <InterpolatingParam id="963" interp="linr"  time="0/1" value="0" leadInLength="0/1"  />
               <InterpolatingParam id="964" interp="linr"  time="0/1" value="0" leadInLength="0/1"  />
              </VectorParam>
              <VectorParam id="965"  name="geometryCrop">
               <InterpolatingParam id="966" interp="linr"  time="-9999999/1" value="0" leadInLength="0/1"  />
               <InterpolatingParam id="967" interp="linr"  time="-9999999/1" value="0" leadInLength="0/1"  />
               <InterpolatingParam id="968" interp="linr"  time="-9999999/1" value="0" leadInLength="0/1"  />
               <InterpolatingParam id="969" interp="linr"  time="-9999999/1" value="0" leadInLength="0/1"  />
              </VectorParam>
              <InterpolatingParam id="970" interp="linr"  time="-9999999/1" value="1" leadInLength="0/1"  name="opacity"/>
              <InterpolatingParam id="971" interp="linr"  time="0/1" value="0" leadInLength="0/1"  name="cursorOpacity"/>
              <InterpolatingParam id="972" interp="linr"  time="0/1" value="0" leadInLength="0/1"  name="cursorScale"/>
             </Parameters>
             <Attributes>
              <Attribute id="973" value="" name="ident"/>
             </Attributes>
             <ExtraData>
              <Entry key="ZoomPanBin">
               <ZoomPanBin id="974"  >
                <ZoomPanKeyframes>
                 <ZoomPanKeyframe id="975" timeRangeEnd="-9999999/1" timeRangeDuration="0/1" interpolaterName=""  />
                </ZoomPanKeyframes>
               </ZoomPanBin>
              </Entry>
              <Entry key="CursorEffectBin">
               <CursorEffectBin id="976"  >
                <CursorEffectKeyframes>
                </CursorEffectKeyframes>
               </CursorEffectBin>
              </Entry>
             </ExtraData>
            </ScreenVMFile>
            <MetaData>
             <entry key="AutoAppliedSmartFocus" val="False"/>
             <entry key="WinSubProjectDisplayName" val=""/>
            </MetaData>
           </UnifiedMedia>
           <UnifiedMedia id="977"  >
            <AMFile id="978" start="3097" duration="225" scalar="1/1" mediaStart="7050/1" mediaDuration="225/1" trackNumber="1" src="4" channelNumber="0,1" >
             <Parameters>
              <InterpolatingParam id="979" interp="linr"  time="0/1" value="1" leadInLength="0/1"  name="volume"/>
              <Parameter id="980"  name="captions"/>
             </Parameters>
             <Attributes>
              <Attribute id="981" value="" name="ident"/>
              <Attribute id="982" value="44100" name="sampleRate"/>
              <Attribute id="983" value="16" name="bitDepth"/>
              <Attribute id="984" value="1" name="gain"/>
              <Attribute id="985" value="0" name="mixToMono"/>
             </Attributes>
            </AMFile>
            <ScreenVMFile id="986" start="3097" duration="225" scalar="1/1" mediaStart="7050/1" mediaDuration="225/1" trackNumber="0" src="4" >
             <Transformer>
              <VectorParam id="987"  name="translation">
               <InterpolatingParam id="988" interp="linr"  time="-9999999/1" value="0" leadInLength="0/1"  />
               <InterpolatingParam id="989" interp="linr"  time="-9999999/1" value="0" leadInLength="0/1"  />
               <InterpolatingParam id="990" interp="linr"  time="-9999999/1" value="0" leadInLength="0/1"  />
              </VectorParam>
              <VectorParam id="991"  name="rotation">
               <InterpolatingParam id="992" interp="linr"  time="-9999999/1" value="0" leadInLength="0/1"  />
               <InterpolatingParam id="993" interp="linr"  time="-9999999/1" value="0" leadInLength="0/1"  />
               <InterpolatingParam id="994" interp="linr"  time="-9999999/1" value="0" leadInLength="0/1"  />
              </VectorParam>
              <VectorParam id="995"  name="shear">
               <InterpolatingParam id="996" interp="linr"  time="-9999999/1" value="0" leadInLength="0/1"  />
               <InterpolatingParam id="997" interp="linr"  time="-9999999/1" value="0" leadInLength="0/1"  />
               <InterpolatingParam id="998" interp="linr"  time="-9999999/1" value="0" leadInLength="0/1"  />
              </VectorParam>
              <VectorParam id="999"  name="scale">
               <InterpolatingParam id="1000" interp="linr"  time="-9999999/1" value="1" leadInLength="0/1"  />
               <InterpolatingParam id="1001" interp="linr"  time="-9999999/1" value="1" leadInLength="0/1"  />
               <InterpolatingParam id="1002" interp="linr"  time="-9999999/1" value="1" leadInLength="0/1"  />
              </VectorParam>
              <VectorParam id="1003"  name="anchor">
               <InterpolatingParam id="1004" interp="linr"  time="0/1" value="0" leadInLength="0/1"  />
               <InterpolatingParam id="1005" interp="linr"  time="0/1" value="0" leadInLength="0/1"  />
               <InterpolatingParam id="1006" interp="linr"  time="0/1" value="0" leadInLength="0/1"  />
              </VectorParam>
             </Transformer>
             <Parameters>
              <VectorParam id="1007"  name="sourceCrop">
               <InterpolatingParam id="1008" interp="linr"  time="0/1" value="0" leadInLength="0/1"  />
               <InterpolatingParam id="1009" interp="linr"  time="0/1" value="0" leadInLength="0/1"  />
               <InterpolatingParam id="1010" interp="linr"  time="0/1" value="0" leadInLength="0/1"  />
               <InterpolatingParam id="1011" interp="linr"  time="0/1" value="0" leadInLength="0/1"  />
              </VectorParam>
              <VectorParam id="1012"  name="geometryCrop">
               <InterpolatingParam id="1013" interp="linr"  time="-9999999/1" value="0" leadInLength="0/1"  />
               <InterpolatingParam id="1014" interp="linr"  time="-9999999/1" value="0" leadInLength="0/1"  />
               <InterpolatingParam id="1015" interp="linr"  time="-9999999/1" value="0" leadInLength="0/1"  />
               <InterpolatingParam id="1016" interp="linr"  time="-9999999/1" value="0" leadInLength="0/1"  />
              </VectorParam>
              <InterpolatingParam id="1017" interp="linr"  time="-9999999/1" value="1" leadInLength="0/1"  name="opacity"/>
              <InterpolatingParam id="1018" interp="linr"  time="0/1" value="0" leadInLength="0/1"  name="cursorOpacity"/>
              <InterpolatingParam id="1019" interp="linr"  time="0/1" value="0" leadInLength="0/1"  name="cursorScale"/>
             </Parameters>
             <Attributes>
              <Attribute id="1020" value="" name="ident"/>
             </Attributes>
             <ExtraData>
              <Entry key="ZoomPanBin">
               <ZoomPanBin id="1021"  >
                <ZoomPanKeyframes>
                 <ZoomPanKeyframe id="1022" timeRangeEnd="-9999999/1" timeRangeDuration="0/1" interpolaterName=""  />
                </ZoomPanKeyframes>
               </ZoomPanBin>
              </Entry>
              <Entry key="CursorEffectBin">
               <CursorEffectBin id="1023"  >
                <CursorEffectKeyframes>
                </CursorEffectKeyframes>
               </CursorEffectBin>
              </Entry>
             </ExtraData>
            </ScreenVMFile>
            <MetaData>
             <entry key="AutoAppliedSmartFocus" val="False"/>
             <entry key="WinSubProjectDisplayName" val=""/>
            </MetaData>
           </UnifiedMedia>
           <UnifiedMedia id="1024"  >
            <AMFile id="1025" start="3322" duration="84" scalar="1/1" mediaStart="7296/1" mediaDuration="84/1" trackNumber="1" src="4" channelNumber="0,1" >
             <Parameters>
              <InterpolatingParam id="1026" interp="linr"  time="0/1" value="1" leadInLength="0/1"  name="volume"/>
              <Parameter id="1027"  name="captions"/>
             </Parameters>
             <Attributes>
              <Attribute id="1028" value="" name="ident"/>
              <Attribute id="1029" value="44100" name="sampleRate"/>
              <Attribute id="1030" value="16" name="bitDepth"/>
              <Attribute id="1031" value="1" name="gain"/>
              <Attribute id="1032" value="0" name="mixToMono"/>
             </Attributes>
            </AMFile>
            <ScreenVMFile id="1033" start="3322" duration="84" scalar="1/1" mediaStart="7296/1" mediaDuration="84/1" trackNumber="0" src="4" >
             <Transformer>
              <VectorParam id="1034"  name="translation">
               <InterpolatingParam id="1035" interp="linr"  time="-9999999/1" value="0" leadInLength="0/1"  />
               <InterpolatingParam id="1036" interp="linr"  time="-9999999/1" value="0" leadInLength="0/1"  />
               <InterpolatingParam id="1037" interp="linr"  time="-9999999/1" value="0" leadInLength="0/1"  />
              </VectorParam>
              <VectorParam id="1038"  name="rotation">
               <InterpolatingParam id="1039" interp="linr"  time="-9999999/1" value="0" leadInLength="0/1"  />
               <InterpolatingParam id="1040" interp="linr"  time="-9999999/1" value="0" leadInLength="0/1"  />
               <InterpolatingParam id="1041" interp="linr"  time="-9999999/1" value="0" leadInLength="0/1"  />
              </VectorParam>
              <VectorParam id="1042"  name="shear">
               <InterpolatingParam id="1043" interp="linr"  time="-9999999/1" value="0" leadInLength="0/1"  />
               <InterpolatingParam id="1044" interp="linr"  time="-9999999/1" value="0" leadInLength="0/1"  />
               <InterpolatingParam id="1045" interp="linr"  time="-9999999/1" value="0" leadInLength="0/1"  />
              </VectorParam>
              <VectorParam id="1046"  name="scale">
               <InterpolatingParam id="1047" interp="linr"  time="-9999999/1" value="1" leadInLength="0/1"  />
               <InterpolatingParam id="1048" interp="linr"  time="-9999999/1" value="1" leadInLength="0/1"  />
               <InterpolatingParam id="1049" interp="linr"  time="-9999999/1" value="1" leadInLength="0/1"  />
              </VectorParam>
              <VectorParam id="1050"  name="anchor">
               <InterpolatingParam id="1051" interp="linr"  time="0/1" value="0" leadInLength="0/1"  />
               <InterpolatingParam id="1052" interp="linr"  time="0/1" value="0" leadInLength="0/1"  />
               <InterpolatingParam id="1053" interp="linr"  time="0/1" value="0" leadInLength="0/1"  />
              </VectorParam>
             </Transformer>
             <Parameters>
              <VectorParam id="1054"  name="sourceCrop">
               <InterpolatingParam id="1055" interp="linr"  time="0/1" value="0" leadInLength="0/1"  />
               <InterpolatingParam id="1056" interp="linr"  time="0/1" value="0" leadInLength="0/1"  />
               <InterpolatingParam id="1057" interp="linr"  time="0/1" value="0" leadInLength="0/1"  />
               <InterpolatingParam id="1058" interp="linr"  time="0/1" value="0" leadInLength="0/1"  />
              </VectorParam>
              <VectorParam id="1059"  name="geometryCrop">
               <InterpolatingParam id="1060" interp="linr"  time="-9999999/1" value="0" leadInLength="0/1"  />
               <InterpolatingParam id="1061" interp="linr"  time="-9999999/1" value="0" leadInLength="0/1"  />
               <InterpolatingParam id="1062" interp="linr"  time="-9999999/1" value="0" leadInLength="0/1"  />
               <InterpolatingParam id="1063" interp="linr"  time="-9999999/1" value="0" leadInLength="0/1"  />
              </VectorParam>
              <InterpolatingParam id="1064" interp="linr"  time="-9999999/1" value="1" leadInLength="0/1"  name="opacity"/>
              <InterpolatingParam id="1065" interp="linr"  time="0/1" value="0" leadInLength="0/1"  name="cursorOpacity"/>
              <InterpolatingParam id="1066" interp="linr"  time="0/1" value="0" leadInLength="0/1"  name="cursorScale"/>
             </Parameters>
             <Attributes>
              <Attribute id="1067" value="" name="ident"/>
             </Attributes>
             <ExtraData>
              <Entry key="ZoomPanBin">
               <ZoomPanBin id="1068"  >
                <ZoomPanKeyframes>
                 <ZoomPanKeyframe id="1069" timeRangeEnd="-9999999/1" timeRangeDuration="0/1" interpolaterName=""  />
                </ZoomPanKeyframes>
               </ZoomPanBin>
              </Entry>
              <Entry key="CursorEffectBin">
               <CursorEffectBin id="1070"  >
                <CursorEffectKeyframes>
                </CursorEffectKeyframes>
               </CursorEffectBin>
              </Entry>
             </ExtraData>
            </ScreenVMFile>
            <MetaData>
             <entry key="AutoAppliedSmartFocus" val="False"/>
             <entry key="WinSubProjectDisplayName" val=""/>
            </MetaData>
           </UnifiedMedia>
           <UnifiedMedia id="1071"  >
            <AMFile id="1072" start="3406" duration="341" scalar="1/1" mediaStart="7395/1" mediaDuration="341/1" trackNumber="1" src="4" channelNumber="0,1" >
             <Parameters>
              <InterpolatingParam id="1073" interp="linr"  time="0/1" value="1" leadInLength="0/1"  name="volume"/>
              <Parameter id="1074"  name="captions"/>
             </Parameters>
             <Attributes>
              <Attribute id="1075" value="" name="ident"/>
              <Attribute id="1076" value="44100" name="sampleRate"/>
              <Attribute id="1077" value="16" name="bitDepth"/>
              <Attribute id="1078" value="1" name="gain"/>
              <Attribute id="1079" value="0" name="mixToMono"/>
             </Attributes>
            </AMFile>
            <ScreenVMFile id="1080" start="3406" duration="341" scalar="1/1" mediaStart="7395/1" mediaDuration="341/1" trackNumber="0" src="4" >
             <Transformer>
              <VectorParam id="1081"  name="translation">
               <InterpolatingParam id="1082" interp="linr"  time="-9999999/1" value="0" leadInLength="0/1"  />
               <InterpolatingParam id="1083" interp="linr"  time="-9999999/1" value="0" leadInLength="0/1"  />
               <InterpolatingParam id="1084" interp="linr"  time="-9999999/1" value="0" leadInLength="0/1"  />
              </VectorParam>
              <VectorParam id="1085"  name="rotation">
               <InterpolatingParam id="1086" interp="linr"  time="-9999999/1" value="0" leadInLength="0/1"  />
               <InterpolatingParam id="1087" interp="linr"  time="-9999999/1" value="0" leadInLength="0/1"  />
               <InterpolatingParam id="1088" interp="linr"  time="-9999999/1" value="0" leadInLength="0/1"  />
              </VectorParam>
              <VectorParam id="1089"  name="shear">
               <InterpolatingParam id="1090" interp="linr"  time="-9999999/1" value="0" leadInLength="0/1"  />
               <InterpolatingParam id="1091" interp="linr"  time="-9999999/1" value="0" leadInLength="0/1"  />
               <InterpolatingParam id="1092" interp="linr"  time="-9999999/1" value="0" leadInLength="0/1"  />
              </VectorParam>
              <VectorParam id="1093"  name="scale">
               <InterpolatingParam id="1094" interp="linr"  time="-9999999/1" value="1" leadInLength="0/1"  />
               <InterpolatingParam id="1095" interp="linr"  time="-9999999/1" value="1" leadInLength="0/1"  />
               <InterpolatingParam id="1096" interp="linr"  time="-9999999/1" value="1" leadInLength="0/1"  />
              </VectorParam>
              <VectorParam id="1097"  name="anchor">
               <InterpolatingParam id="1098" interp="linr"  time="0/1" value="0" leadInLength="0/1"  />
               <InterpolatingParam id="1099" interp="linr"  time="0/1" value="0" leadInLength="0/1"  />
               <InterpolatingParam id="1100" interp="linr"  time="0/1" value="0" leadInLength="0/1"  />
              </VectorParam>
             </Transformer>
             <Parameters>
              <VectorParam id="1101"  name="sourceCrop">
               <InterpolatingParam id="1102" interp="linr"  time="0/1" value="0" leadInLength="0/1"  />
               <InterpolatingParam id="1103" interp="linr"  time="0/1" value="0" leadInLength="0/1"  />
               <InterpolatingParam id="1104" interp="linr"  time="0/1" value="0" leadInLength="0/1"  />
               <InterpolatingParam id="1105" interp="linr"  time="0/1" value="0" leadInLength="0/1"  />
              </VectorParam>
              <VectorParam id="1106"  name="geometryCrop">
               <InterpolatingParam id="1107" interp="linr"  time="-9999999/1" value="0" leadInLength="0/1"  />
               <InterpolatingParam id="1108" interp="linr"  time="-9999999/1" value="0" leadInLength="0/1"  />
               <InterpolatingParam id="1109" interp="linr"  time="-9999999/1" value="0" leadInLength="0/1"  />
               <InterpolatingParam id="1110" interp="linr"  time="-9999999/1" value="0" leadInLength="0/1"  />
              </VectorParam>
              <InterpolatingParam id="1111" interp="linr"  time="-9999999/1" value="1" leadInLength="0/1"  name="opacity"/>
              <InterpolatingParam id="1112" interp="linr"  time="0/1" value="0" leadInLength="0/1"  name="cursorOpacity"/>
              <InterpolatingParam id="1113" interp="linr"  time="0/1" value="0" leadInLength="0/1"  name="cursorScale"/>
             </Parameters>
             <Attributes>
              <Attribute id="1114" value="" name="ident"/>
             </Attributes>
             <ExtraData>
              <Entry key="ZoomPanBin">
               <ZoomPanBin id="1115"  >
                <ZoomPanKeyframes>
                 <ZoomPanKeyframe id="1116" timeRangeEnd="-9999999/1" timeRangeDuration="0/1" interpolaterName=""  />
                </ZoomPanKeyframes>
               </ZoomPanBin>
              </Entry>
              <Entry key="CursorEffectBin">
               <CursorEffectBin id="1117"  >
                <CursorEffectKeyframes>
                </CursorEffectKeyframes>
               </CursorEffectBin>
              </Entry>
             </ExtraData>
            </ScreenVMFile>
            <MetaData>
             <entry key="AutoAppliedSmartFocus" val="False"/>
             <entry key="WinSubProjectDisplayName" val=""/>
            </MetaData>
           </UnifiedMedia>
           <UnifiedMedia id="1118"  >
            <AMFile id="1119" start="3747" duration="104" scalar="1/1" mediaStart="7939/1" mediaDuration="104/1" trackNumber="1" src="4" channelNumber="0,1" >
             <Parameters>
              <InterpolatingParam id="1120" interp="linr"  time="0/1" value="1" leadInLength="0/1"  name="volume"/>
              <Parameter id="1121"  name="captions"/>
             </Parameters>
             <Attributes>
              <Attribute id="1122" value="" name="ident"/>
              <Attribute id="1123" value="44100" name="sampleRate"/>
              <Attribute id="1124" value="16" name="bitDepth"/>
              <Attribute id="1125" value="1" name="gain"/>
              <Attribute id="1126" value="0" name="mixToMono"/>
             </Attributes>
            </AMFile>
            <ScreenVMFile id="1127" start="3747" duration="104" scalar="1/1" mediaStart="7939/1" mediaDuration="104/1" trackNumber="0" src="4" >
             <Transformer>
              <VectorParam id="1128"  name="translation">
               <InterpolatingParam id="1129" interp="linr"  time="-9999999/1" value="0" leadInLength="0/1"  />
               <InterpolatingParam id="1130" interp="linr"  time="-9999999/1" value="0" leadInLength="0/1"  />
               <InterpolatingParam id="1131" interp="linr"  time="-9999999/1" value="0" leadInLength="0/1"  />
              </VectorParam>
              <VectorParam id="1132"  name="rotation">
               <InterpolatingParam id="1133" interp="linr"  time="-9999999/1" value="0" leadInLength="0/1"  />
               <InterpolatingParam id="1134" interp="linr"  time="-9999999/1" value="0" leadInLength="0/1"  />
               <InterpolatingParam id="1135" interp="linr"  time="-9999999/1" value="0" leadInLength="0/1"  />
              </VectorParam>
              <VectorParam id="1136"  name="shear">
               <InterpolatingParam id="1137" interp="linr"  time="-9999999/1" value="0" leadInLength="0/1"  />
               <InterpolatingParam id="1138" interp="linr"  time="-9999999/1" value="0" leadInLength="0/1"  />
               <InterpolatingParam id="1139" interp="linr"  time="-9999999/1" value="0" leadInLength="0/1"  />
              </VectorParam>
              <VectorParam id="1140"  name="scale">
               <InterpolatingParam id="1141" interp="linr"  time="-9999999/1" value="1" leadInLength="0/1"  />
               <InterpolatingParam id="1142" interp="linr"  time="-9999999/1" value="1" leadInLength="0/1"  />
               <InterpolatingParam id="1143" interp="linr"  time="-9999999/1" value="1" leadInLength="0/1"  />
              </VectorParam>
              <VectorParam id="1144"  name="anchor">
               <InterpolatingParam id="1145" interp="linr"  time="0/1" value="0" leadInLength="0/1"  />
               <InterpolatingParam id="1146" interp="linr"  time="0/1" value="0" leadInLength="0/1"  />
               <InterpolatingParam id="1147" interp="linr"  time="0/1" value="0" leadInLength="0/1"  />
              </VectorParam>
             </Transformer>
             <Parameters>
              <VectorParam id="1148"  name="sourceCrop">
               <InterpolatingParam id="1149" interp="linr"  time="0/1" value="0" leadInLength="0/1"  />
               <InterpolatingParam id="1150" interp="linr"  time="0/1" value="0" leadInLength="0/1"  />
               <InterpolatingParam id="1151" interp="linr"  time="0/1" value="0" leadInLength="0/1"  />
               <InterpolatingParam id="1152" interp="linr"  time="0/1" value="0" leadInLength="0/1"  />
              </VectorParam>
              <VectorParam id="1153"  name="geometryCrop">
               <InterpolatingParam id="1154" interp="linr"  time="-9999999/1" value="0" leadInLength="0/1"  />
               <InterpolatingParam id="1155" interp="linr"  time="-9999999/1" value="0" leadInLength="0/1"  />
               <InterpolatingParam id="1156" interp="linr"  time="-9999999/1" value="0" leadInLength="0/1"  />
               <InterpolatingParam id="1157" interp="linr"  time="-9999999/1" value="0" leadInLength="0/1"  />
              </VectorParam>
              <InterpolatingParam id="1158" interp="linr"  time="-9999999/1" value="1" leadInLength="0/1"  name="opacity"/>
              <InterpolatingParam id="1159" interp="linr"  time="0/1" value="0" leadInLength="0/1"  name="cursorOpacity"/>
              <InterpolatingParam id="1160" interp="linr"  time="0/1" value="0" leadInLength="0/1"  name="cursorScale"/>
             </Parameters>
             <Attributes>
              <Attribute id="1161" value="" name="ident"/>
             </Attributes>
             <ExtraData>
              <Entry key="ZoomPanBin">
               <ZoomPanBin id="1162"  >
                <ZoomPanKeyframes>
                 <ZoomPanKeyframe id="1163" timeRangeEnd="-9999999/1" timeRangeDuration="0/1" interpolaterName=""  />
                </ZoomPanKeyframes>
               </ZoomPanBin>
              </Entry>
              <Entry key="CursorEffectBin">
               <CursorEffectBin id="1164"  >
                <CursorEffectKeyframes>
                </CursorEffectKeyframes>
               </CursorEffectBin>
              </Entry>
             </ExtraData>
            </ScreenVMFile>
            <MetaData>
             <entry key="AutoAppliedSmartFocus" val="False"/>
             <entry key="WinSubProjectDisplayName" val=""/>
            </MetaData>
           </UnifiedMedia>
           <UnifiedMedia id="1165"  >
            <AMFile id="1166" start="3851" duration="91" scalar="1/1" mediaStart="8054/1" mediaDuration="91/1" trackNumber="1" src="4" channelNumber="0,1" >
             <Parameters>
              <InterpolatingParam id="1167" interp="linr"  time="0/1" value="1" leadInLength="0/1"  name="volume"/>
              <Parameter id="1168"  name="captions"/>
             </Parameters>
             <Attributes>
              <Attribute id="1169" value="" name="ident"/>
              <Attribute id="1170" value="44100" name="sampleRate"/>
              <Attribute id="1171" value="16" name="bitDepth"/>
              <Attribute id="1172" value="1" name="gain"/>
              <Attribute id="1173" value="0" name="mixToMono"/>
             </Attributes>
            </AMFile>
            <ScreenVMFile id="1174" start="3851" duration="91" scalar="1/1" mediaStart="8054/1" mediaDuration="91/1" trackNumber="0" src="4" >
             <Transformer>
              <VectorParam id="1175"  name="translation">
               <InterpolatingParam id="1176" interp="linr"  time="-9999999/1" value="0" leadInLength="0/1"  />
               <InterpolatingParam id="1177" interp="linr"  time="-9999999/1" value="0" leadInLength="0/1"  />
               <InterpolatingParam id="1178" interp="linr"  time="-9999999/1" value="0" leadInLength="0/1"  />
              </VectorParam>
              <VectorParam id="1179"  name="rotation">
               <InterpolatingParam id="1180" interp="linr"  time="-9999999/1" value="0" leadInLength="0/1"  />
               <InterpolatingParam id="1181" interp="linr"  time="-9999999/1" value="0" leadInLength="0/1"  />
               <InterpolatingParam id="1182" interp="linr"  time="-9999999/1" value="0" leadInLength="0/1"  />
              </VectorParam>
              <VectorParam id="1183"  name="shear">
               <InterpolatingParam id="1184" interp="linr"  time="-9999999/1" value="0" leadInLength="0/1"  />
               <InterpolatingParam id="1185" interp="linr"  time="-9999999/1" value="0" leadInLength="0/1"  />
               <InterpolatingParam id="1186" interp="linr"  time="-9999999/1" value="0" leadInLength="0/1"  />
              </VectorParam>
              <VectorParam id="1187"  name="scale">
               <InterpolatingParam id="1188" interp="linr"  time="-9999999/1" value="1" leadInLength="0/1"  />
               <InterpolatingParam id="1189" interp="linr"  time="-9999999/1" value="1" leadInLength="0/1"  />
               <InterpolatingParam id="1190" interp="linr"  time="-9999999/1" value="1" leadInLength="0/1"  />
              </VectorParam>
              <VectorParam id="1191"  name="anchor">
               <InterpolatingParam id="1192" interp="linr"  time="0/1" value="0" leadInLength="0/1"  />
               <InterpolatingParam id="1193" interp="linr"  time="0/1" value="0" leadInLength="0/1"  />
               <InterpolatingParam id="1194" interp="linr"  time="0/1" value="0" leadInLength="0/1"  />
              </VectorParam>
             </Transformer>
             <Parameters>
              <VectorParam id="1195"  name="sourceCrop">
               <InterpolatingParam id="1196" interp="linr"  time="0/1" value="0" leadInLength="0/1"  />
               <InterpolatingParam id="1197" interp="linr"  time="0/1" value="0" leadInLength="0/1"  />
               <InterpolatingParam id="1198" interp="linr"  time="0/1" value="0" leadInLength="0/1"  />
               <InterpolatingParam id="1199" interp="linr"  time="0/1" value="0" leadInLength="0/1"  />
              </VectorParam>
              <VectorParam id="1200"  name="geometryCrop">
               <InterpolatingParam id="1201" interp="linr"  time="-9999999/1" value="0" leadInLength="0/1"  />
               <InterpolatingParam id="1202" interp="linr"  time="-9999999/1" value="0" leadInLength="0/1"  />
               <InterpolatingParam id="1203" interp="linr"  time="-9999999/1" value="0" leadInLength="0/1"  />
               <InterpolatingParam id="1204" interp="linr"  time="-9999999/1" value="0" leadInLength="0/1"  />
              </VectorParam>
              <InterpolatingParam id="1205" interp="linr"  time="-9999999/1" value="1" leadInLength="0/1"  name="opacity"/>
              <InterpolatingParam id="1206" interp="linr"  time="0/1" value="0" leadInLength="0/1"  name="cursorOpacity"/>
              <InterpolatingParam id="1207" interp="linr"  time="0/1" value="0" leadInLength="0/1"  name="cursorScale"/>
             </Parameters>
             <Attributes>
              <Attribute id="1208" value="" name="ident"/>
             </Attributes>
             <ExtraData>
              <Entry key="ZoomPanBin">
               <ZoomPanBin id="1209"  >
                <ZoomPanKeyframes>
                 <ZoomPanKeyframe id="1210" timeRangeEnd="-9999999/1" timeRangeDuration="0/1" interpolaterName=""  />
                </ZoomPanKeyframes>
               </ZoomPanBin>
              </Entry>
              <Entry key="CursorEffectBin">
               <CursorEffectBin id="1211"  >
                <CursorEffectKeyframes>
                </CursorEffectKeyframes>
               </CursorEffectBin>
              </Entry>
             </ExtraData>
            </ScreenVMFile>
            <MetaData>
             <entry key="AutoAppliedSmartFocus" val="False"/>
             <entry key="WinSubProjectDisplayName" val=""/>
            </MetaData>
           </UnifiedMedia>
           <UnifiedMedia id="1212"  >
            <AMFile id="1213" start="3942" duration="129" scalar="1/1" mediaStart="8264/1" mediaDuration="129/1" trackNumber="1" src="4" channelNumber="0,1" >
             <Parameters>
              <InterpolatingParam id="1214" interp="linr"  time="0/1" value="1" leadInLength="0/1"  name="volume"/>
              <Parameter id="1215"  name="captions"/>
             </Parameters>
             <Attributes>
              <Attribute id="1216" value="" name="ident"/>
              <Attribute id="1217" value="44100" name="sampleRate"/>
              <Attribute id="1218" value="16" name="bitDepth"/>
              <Attribute id="1219" value="1" name="gain"/>
              <Attribute id="1220" value="0" name="mixToMono"/>
             </Attributes>
            </AMFile>
            <ScreenVMFile id="1221" start="3942" duration="129" scalar="1/1" mediaStart="8264/1" mediaDuration="129/1" trackNumber="0" src="4" >
             <Transformer>
              <VectorParam id="1222"  name="translation">
               <InterpolatingParam id="1223" interp="linr"  time="-9999999/1" value="0" leadInLength="0/1"  />
               <InterpolatingParam id="1224" interp="linr"  time="-9999999/1" value="0" leadInLength="0/1"  />
               <InterpolatingParam id="1225" interp="linr"  time="-9999999/1" value="0" leadInLength="0/1"  />
              </VectorParam>
              <VectorParam id="1226"  name="rotation">
               <InterpolatingParam id="1227" interp="linr"  time="-9999999/1" value="0" leadInLength="0/1"  />
               <InterpolatingParam id="1228" interp="linr"  time="-9999999/1" value="0" leadInLength="0/1"  />
               <InterpolatingParam id="1229" interp="linr"  time="-9999999/1" value="0" leadInLength="0/1"  />
              </VectorParam>
              <VectorParam id="1230"  name="shear">
               <InterpolatingParam id="1231" interp="linr"  time="-9999999/1" value="0" leadInLength="0/1"  />
               <InterpolatingParam id="1232" interp="linr"  time="-9999999/1" value="0" leadInLength="0/1"  />
               <InterpolatingParam id="1233" interp="linr"  time="-9999999/1" value="0" leadInLength="0/1"  />
              </VectorParam>
              <VectorParam id="1234"  name="scale">
               <InterpolatingParam id="1235" interp="linr"  time="-9999999/1" value="1" leadInLength="0/1"  />
               <InterpolatingParam id="1236" interp="linr"  time="-9999999/1" value="1" leadInLength="0/1"  />
               <InterpolatingParam id="1237" interp="linr"  time="-9999999/1" value="1" leadInLength="0/1"  />
              </VectorParam>
              <VectorParam id="1238"  name="anchor">
               <InterpolatingParam id="1239" interp="linr"  time="0/1" value="0" leadInLength="0/1"  />
               <InterpolatingParam id="1240" interp="linr"  time="0/1" value="0" leadInLength="0/1"  />
               <InterpolatingParam id="1241" interp="linr"  time="0/1" value="0" leadInLength="0/1"  />
              </VectorParam>
             </Transformer>
             <Parameters>
              <VectorParam id="1242"  name="sourceCrop">
               <InterpolatingParam id="1243" interp="linr"  time="0/1" value="0" leadInLength="0/1"  />
               <InterpolatingParam id="1244" interp="linr"  time="0/1" value="0" leadInLength="0/1"  />
               <InterpolatingParam id="1245" interp="linr"  time="0/1" value="0" leadInLength="0/1"  />
               <InterpolatingParam id="1246" interp="linr"  time="0/1" value="0" leadInLength="0/1"  />
              </VectorParam>
              <VectorParam id="1247"  name="geometryCrop">
               <InterpolatingParam id="1248" interp="linr"  time="-9999999/1" value="0" leadInLength="0/1"  />
               <InterpolatingParam id="1249" interp="linr"  time="-9999999/1" value="0" leadInLength="0/1"  />
               <InterpolatingParam id="1250" interp="linr"  time="-9999999/1" value="0" leadInLength="0/1"  />
               <InterpolatingParam id="1251" interp="linr"  time="-9999999/1" value="0" leadInLength="0/1"  />
              </VectorParam>
              <InterpolatingParam id="1252" interp="linr"  time="-9999999/1" value="1" leadInLength="0/1"  name="opacity"/>
              <InterpolatingParam id="1253" interp="linr"  time="0/1" value="0" leadInLength="0/1"  name="cursorOpacity"/>
              <InterpolatingParam id="1254" interp="linr"  time="0/1" value="0" leadInLength="0/1"  name="cursorScale"/>
             </Parameters>
             <Attributes>
              <Attribute id="1255" value="" name="ident"/>
             </Attributes>
             <ExtraData>
              <Entry key="ZoomPanBin">
               <ZoomPanBin id="1256"  >
                <ZoomPanKeyframes>
                 <ZoomPanKeyframe id="1257" timeRangeEnd="-9999999/1" timeRangeDuration="0/1" interpolaterName=""  />
                </ZoomPanKeyframes>
               </ZoomPanBin>
              </Entry>
              <Entry key="CursorEffectBin">
               <CursorEffectBin id="1258"  >
                <CursorEffectKeyframes>
                </CursorEffectKeyframes>
               </CursorEffectBin>
              </Entry>
             </ExtraData>
            </ScreenVMFile>
            <MetaData>
             <entry key="AutoAppliedSmartFocus" val="False"/>
             <entry key="WinSubProjectDisplayName" val=""/>
            </MetaData>
           </UnifiedMedia>
           <UnifiedMedia id="1259"  >
            <AMFile id="1260" start="4071" duration="48" scalar="1/1" mediaStart="8400/1" mediaDuration="48/1" trackNumber="1" src="4" channelNumber="0,1" >
             <Parameters>
              <InterpolatingParam id="1261" interp="linr"  time="0/1" value="1" leadInLength="0/1"  name="volume"/>
              <Parameter id="1262"  name="captions"/>
             </Parameters>
             <Attributes>
              <Attribute id="1263" value="" name="ident"/>
              <Attribute id="1264" value="44100" name="sampleRate"/>
              <Attribute id="1265" value="16" name="bitDepth"/>
              <Attribute id="1266" value="1" name="gain"/>
              <Attribute id="1267" value="0" name="mixToMono"/>
             </Attributes>
            </AMFile>
            <ScreenVMFile id="1268" start="4071" duration="48" scalar="1/1" mediaStart="8400/1" mediaDuration="48/1" trackNumber="0" src="4" >
             <Transformer>
              <VectorParam id="1269"  name="translation">
               <InterpolatingParam id="1270" interp="linr"  time="-9999999/1" value="0" leadInLength="0/1"  />
               <InterpolatingParam id="1271" interp="linr"  time="-9999999/1" value="0" leadInLength="0/1"  />
               <InterpolatingParam id="1272" interp="linr"  time="-9999999/1" value="0" leadInLength="0/1"  />
              </VectorParam>
              <VectorParam id="1273"  name="rotation">
               <InterpolatingParam id="1274" interp="linr"  time="-9999999/1" value="0" leadInLength="0/1"  />
               <InterpolatingParam id="1275" interp="linr"  time="-9999999/1" value="0" leadInLength="0/1"  />
               <InterpolatingParam id="1276" interp="linr"  time="-9999999/1" value="0" leadInLength="0/1"  />
              </VectorParam>
              <VectorParam id="1277"  name="shear">
               <InterpolatingParam id="1278" interp="linr"  time="-9999999/1" value="0" leadInLength="0/1"  />
               <InterpolatingParam id="1279" interp="linr"  time="-9999999/1" value="0" leadInLength="0/1"  />
               <InterpolatingParam id="1280" interp="linr"  time="-9999999/1" value="0" leadInLength="0/1"  />
              </VectorParam>
              <VectorParam id="1281"  name="scale">
               <InterpolatingParam id="1282" interp="linr"  time="-9999999/1" value="1" leadInLength="0/1"  />
               <InterpolatingParam id="1283" interp="linr"  time="-9999999/1" value="1" leadInLength="0/1"  />
               <InterpolatingParam id="1284" interp="linr"  time="-9999999/1" value="1" leadInLength="0/1"  />
              </VectorParam>
              <VectorParam id="1285"  name="anchor">
               <InterpolatingParam id="1286" interp="linr"  time="0/1" value="0" leadInLength="0/1"  />
               <InterpolatingParam id="1287" interp="linr"  time="0/1" value="0" leadInLength="0/1"  />
               <InterpolatingParam id="1288" interp="linr"  time="0/1" value="0" leadInLength="0/1"  />
              </VectorParam>
             </Transformer>
             <Parameters>
              <VectorParam id="1289"  name="sourceCrop">
               <InterpolatingParam id="1290" interp="linr"  time="0/1" value="0" leadInLength="0/1"  />
               <InterpolatingParam id="1291" interp="linr"  time="0/1" value="0" leadInLength="0/1"  />
               <InterpolatingParam id="1292" interp="linr"  time="0/1" value="0" leadInLength="0/1"  />
               <InterpolatingParam id="1293" interp="linr"  time="0/1" value="0" leadInLength="0/1"  />
              </VectorParam>
              <VectorParam id="1294"  name="geometryCrop">
               <InterpolatingParam id="1295" interp="linr"  time="-9999999/1" value="0" leadInLength="0/1"  />
               <InterpolatingParam id="1296" interp="linr"  time="-9999999/1" value="0" leadInLength="0/1"  />
               <InterpolatingParam id="1297" interp="linr"  time="-9999999/1" value="0" leadInLength="0/1"  />
               <InterpolatingParam id="1298" interp="linr"  time="-9999999/1" value="0" leadInLength="0/1"  />
              </VectorParam>
              <InterpolatingParam id="1299" interp="linr"  time="-9999999/1" value="1" leadInLength="0/1"  name="opacity"/>
              <InterpolatingParam id="1300" interp="linr"  time="0/1" value="0" leadInLength="0/1"  name="cursorOpacity"/>
              <InterpolatingParam id="1301" interp="linr"  time="0/1" value="0" leadInLength="0/1"  name="cursorScale"/>
             </Parameters>
             <Attributes>
              <Attribute id="1302" value="" name="ident"/>
             </Attributes>
             <ExtraData>
              <Entry key="ZoomPanBin">
               <ZoomPanBin id="1303"  >
                <ZoomPanKeyframes>
                 <ZoomPanKeyframe id="1304" timeRangeEnd="-9999999/1" timeRangeDuration="0/1" interpolaterName=""  />
                </ZoomPanKeyframes>
               </ZoomPanBin>
              </Entry>
              <Entry key="CursorEffectBin">
               <CursorEffectBin id="1305"  >
                <CursorEffectKeyframes>
                </CursorEffectKeyframes>
               </CursorEffectBin>
              </Entry>
             </ExtraData>
            </ScreenVMFile>
            <MetaData>
             <entry key="AutoAppliedSmartFocus" val="False"/>
             <entry key="WinSubProjectDisplayName" val=""/>
            </MetaData>
           </UnifiedMedia>
           <UnifiedMedia id="1306"  >
            <AMFile id="1307" start="4119" duration="41" scalar="1/1" mediaStart="8460/1" mediaDuration="41/1" trackNumber="1" src="4" channelNumber="0,1" >
             <Parameters>
              <InterpolatingParam id="1308" interp="linr"  time="0/1" value="1" leadInLength="0/1"  name="volume"/>
              <Parameter id="1309"  name="captions"/>
             </Parameters>
             <Attributes>
              <Attribute id="1310" value="" name="ident"/>
              <Attribute id="1311" value="44100" name="sampleRate"/>
              <Attribute id="1312" value="16" name="bitDepth"/>
              <Attribute id="1313" value="1" name="gain"/>
              <Attribute id="1314" value="0" name="mixToMono"/>
             </Attributes>
            </AMFile>
            <ScreenVMFile id="1315" start="4119" duration="41" scalar="1/1" mediaStart="8460/1" mediaDuration="41/1" trackNumber="0" src="4" >
             <Transformer>
              <VectorParam id="1316"  name="translation">
               <InterpolatingParam id="1317" interp="linr"  time="-9999999/1" value="0" leadInLength="0/1"  />
               <InterpolatingParam id="1318" interp="linr"  time="-9999999/1" value="0" leadInLength="0/1"  />
               <InterpolatingParam id="1319" interp="linr"  time="-9999999/1" value="0" leadInLength="0/1"  />
              </VectorParam>
              <VectorParam id="1320"  name="rotation">
               <InterpolatingParam id="1321" interp="linr"  time="-9999999/1" value="0" leadInLength="0/1"  />
               <InterpolatingParam id="1322" interp="linr"  time="-9999999/1" value="0" leadInLength="0/1"  />
               <InterpolatingParam id="1323" interp="linr"  time="-9999999/1" value="0" leadInLength="0/1"  />
              </VectorParam>
              <VectorParam id="1324"  name="shear">
               <InterpolatingParam id="1325" interp="linr"  time="-9999999/1" value="0" leadInLength="0/1"  />
               <InterpolatingParam id="1326" interp="linr"  time="-9999999/1" value="0" leadInLength="0/1"  />
               <InterpolatingParam id="1327" interp="linr"  time="-9999999/1" value="0" leadInLength="0/1"  />
              </VectorParam>
              <VectorParam id="1328"  name="scale">
               <InterpolatingParam id="1329" interp="linr"  time="-9999999/1" value="1" leadInLength="0/1"  />
               <InterpolatingParam id="1330" interp="linr"  time="-9999999/1" value="1" leadInLength="0/1"  />
               <InterpolatingParam id="1331" interp="linr"  time="-9999999/1" value="1" leadInLength="0/1"  />
              </VectorParam>
              <VectorParam id="1332"  name="anchor">
               <InterpolatingParam id="1333" interp="linr"  time="0/1" value="0" leadInLength="0/1"  />
               <InterpolatingParam id="1334" interp="linr"  time="0/1" value="0" leadInLength="0/1"  />
               <InterpolatingParam id="1335" interp="linr"  time="0/1" value="0" leadInLength="0/1"  />
              </VectorParam>
             </Transformer>
             <Parameters>
              <VectorParam id="1336"  name="sourceCrop">
               <InterpolatingParam id="1337" interp="linr"  time="0/1" value="0" leadInLength="0/1"  />
               <InterpolatingParam id="1338" interp="linr"  time="0/1" value="0" leadInLength="0/1"  />
               <InterpolatingParam id="1339" interp="linr"  time="0/1" value="0" leadInLength="0/1"  />
               <InterpolatingParam id="1340" interp="linr"  time="0/1" value="0" leadInLength="0/1"  />
              </VectorParam>
              <VectorParam id="1341"  name="geometryCrop">
               <InterpolatingParam id="1342" interp="linr"  time="-9999999/1" value="0" leadInLength="0/1"  />
               <InterpolatingParam id="1343" interp="linr"  time="-9999999/1" value="0" leadInLength="0/1"  />
               <InterpolatingParam id="1344" interp="linr"  time="-9999999/1" value="0" leadInLength="0/1"  />
               <InterpolatingParam id="1345" interp="linr"  time="-9999999/1" value="0" leadInLength="0/1"  />
              </VectorParam>
              <InterpolatingParam id="1346" interp="linr"  time="-9999999/1" value="1" leadInLength="0/1"  name="opacity"/>
              <InterpolatingParam id="1347" interp="linr"  time="0/1" value="0" leadInLength="0/1"  name="cursorOpacity"/>
              <InterpolatingParam id="1348" interp="linr"  time="0/1" value="0" leadInLength="0/1"  name="cursorScale"/>
             </Parameters>
             <Attributes>
              <Attribute id="1349" value="" name="ident"/>
             </Attributes>
             <ExtraData>
              <Entry key="ZoomPanBin">
               <ZoomPanBin id="1350"  >
                <ZoomPanKeyframes>
                 <ZoomPanKeyframe id="1351" timeRangeEnd="-9999999/1" timeRangeDuration="0/1" interpolaterName=""  />
                </ZoomPanKeyframes>
               </ZoomPanBin>
              </Entry>
              <Entry key="CursorEffectBin">
               <CursorEffectBin id="1352"  >
                <CursorEffectKeyframes>
                </CursorEffectKeyframes>
               </CursorEffectBin>
              </Entry>
             </ExtraData>
            </ScreenVMFile>
            <MetaData>
             <entry key="AutoAppliedSmartFocus" val="False"/>
             <entry key="WinSubProjectDisplayName" val=""/>
            </MetaData>
           </UnifiedMedia>
           <UnifiedMedia id="1353"  >
            <AMFile id="1354" start="4160" duration="547" scalar="1/1" mediaStart="8740/1" mediaDuration="547/1" trackNumber="1" src="4" channelNumber="0,1" >
             <Parameters>
              <InterpolatingParam id="1355" interp="linr"  time="0/1" value="1" leadInLength="0/1"  name="volume"/>
              <Parameter id="1356"  name="captions"/>
             </Parameters>
             <Attributes>
              <Attribute id="1357" value="" name="ident"/>
              <Attribute id="1358" value="44100" name="sampleRate"/>
              <Attribute id="1359" value="16" name="bitDepth"/>
              <Attribute id="1360" value="1" name="gain"/>
              <Attribute id="1361" value="0" name="mixToMono"/>
             </Attributes>
            </AMFile>
            <ScreenVMFile id="1362" start="4160" duration="547" scalar="1/1" mediaStart="8740/1" mediaDuration="547/1" trackNumber="0" src="4" >
             <Transformer>
              <VectorParam id="1363"  name="translation">
               <InterpolatingParam id="1364" interp="linr"  time="-9999999/1" value="0" leadInLength="0/1"  />
               <InterpolatingParam id="1365" interp="linr"  time="-9999999/1" value="0" leadInLength="0/1"  />
               <InterpolatingParam id="1366" interp="linr"  time="-9999999/1" value="0" leadInLength="0/1"  />
              </VectorParam>
              <VectorParam id="1367"  name="rotation">
               <InterpolatingParam id="1368" interp="linr"  time="-9999999/1" value="0" leadInLength="0/1"  />
               <InterpolatingParam id="1369" interp="linr"  time="-9999999/1" value="0" leadInLength="0/1"  />
               <InterpolatingParam id="1370" interp="linr"  time="-9999999/1" value="0" leadInLength="0/1"  />
              </VectorParam>
              <VectorParam id="1371"  name="shear">
               <InterpolatingParam id="1372" interp="linr"  time="-9999999/1" value="0" leadInLength="0/1"  />
               <InterpolatingParam id="1373" interp="linr"  time="-9999999/1" value="0" leadInLength="0/1"  />
               <InterpolatingParam id="1374" interp="linr"  time="-9999999/1" value="0" leadInLength="0/1"  />
              </VectorParam>
              <VectorParam id="1375"  name="scale">
               <InterpolatingParam id="1376" interp="linr"  time="-9999999/1" value="1" leadInLength="0/1"  />
               <InterpolatingParam id="1377" interp="linr"  time="-9999999/1" value="1" leadInLength="0/1"  />
               <InterpolatingParam id="1378" interp="linr"  time="-9999999/1" value="1" leadInLength="0/1"  />
              </VectorParam>
              <VectorParam id="1379"  name="anchor">
               <InterpolatingParam id="1380" interp="linr"  time="0/1" value="0" leadInLength="0/1"  />
               <InterpolatingParam id="1381" interp="linr"  time="0/1" value="0" leadInLength="0/1"  />
               <InterpolatingParam id="1382" interp="linr"  time="0/1" value="0" leadInLength="0/1"  />
              </VectorParam>
             </Transformer>
             <Parameters>
              <VectorParam id="1383"  name="sourceCrop">
               <InterpolatingParam id="1384" interp="linr"  time="0/1" value="0" leadInLength="0/1"  />
               <InterpolatingParam id="1385" interp="linr"  time="0/1" value="0" leadInLength="0/1"  />
               <InterpolatingParam id="1386" interp="linr"  time="0/1" value="0" leadInLength="0/1"  />
               <InterpolatingParam id="1387" interp="linr"  time="0/1" value="0" leadInLength="0/1"  />
              </VectorParam>
              <VectorParam id="1388"  name="geometryCrop">
               <InterpolatingParam id="1389" interp="linr"  time="-9999999/1" value="0" leadInLength="0/1"  />
               <InterpolatingParam id="1390" interp="linr"  time="-9999999/1" value="0" leadInLength="0/1"  />
               <InterpolatingParam id="1391" interp="linr"  time="-9999999/1" value="0" leadInLength="0/1"  />
               <InterpolatingParam id="1392" interp="linr"  time="-9999999/1" value="0" leadInLength="0/1"  />
              </VectorParam>
              <InterpolatingParam id="1393" interp="linr"  time="-9999999/1" value="1" leadInLength="0/1"  name="opacity"/>
              <InterpolatingParam id="1394" interp="linr"  time="0/1" value="0" leadInLength="0/1"  name="cursorOpacity"/>
              <InterpolatingParam id="1395" interp="linr"  time="0/1" value="0" leadInLength="0/1"  name="cursorScale"/>
             </Parameters>
             <Attributes>
              <Attribute id="1396" value="" name="ident"/>
             </Attributes>
             <ExtraData>
              <Entry key="ZoomPanBin">
               <ZoomPanBin id="1397"  >
                <ZoomPanKeyframes>
                 <ZoomPanKeyframe id="1398" timeRangeEnd="-9999999/1" timeRangeDuration="0/1" interpolaterName=""  />
                </ZoomPanKeyframes>
               </ZoomPanBin>
              </Entry>
              <Entry key="CursorEffectBin">
               <CursorEffectBin id="1399"  >
                <CursorEffectKeyframes>
                </CursorEffectKeyframes>
               </CursorEffectBin>
              </Entry>
             </ExtraData>
            </ScreenVMFile>
            <MetaData>
             <entry key="AutoAppliedSmartFocus" val="False"/>
             <entry key="WinSubProjectDisplayName" val=""/>
            </MetaData>
           </UnifiedMedia>
           <UnifiedMedia id="1400"  >
            <AMFile id="1401" start="4707" duration="111" scalar="1/1" mediaStart="9335/1" mediaDuration="111/1" trackNumber="1" src="4" channelNumber="0,1" >
             <Parameters>
              <InterpolatingParam id="1402" interp="linr"  time="0/1" value="1" leadInLength="0/1"  name="volume"/>
              <Parameter id="1403"  name="captions"/>
             </Parameters>
             <Attributes>
              <Attribute id="1404" value="" name="ident"/>
              <Attribute id="1405" value="44100" name="sampleRate"/>
              <Attribute id="1406" value="16" name="bitDepth"/>
              <Attribute id="1407" value="1" name="gain"/>
              <Attribute id="1408" value="0" name="mixToMono"/>
             </Attributes>
            </AMFile>
            <ScreenVMFile id="1409" start="4707" duration="111" scalar="1/1" mediaStart="9335/1" mediaDuration="111/1" trackNumber="0" src="4" >
             <Transformer>
              <VectorParam id="1410"  name="translation">
               <InterpolatingParam id="1411" interp="linr"  time="-9999999/1" value="0" leadInLength="0/1"  />
               <InterpolatingParam id="1412" interp="linr"  time="-9999999/1" value="0" leadInLength="0/1"  />
               <InterpolatingParam id="1413" interp="linr"  time="-9999999/1" value="0" leadInLength="0/1"  />
              </VectorParam>
              <VectorParam id="1414"  name="rotation">
               <InterpolatingParam id="1415" interp="linr"  time="-9999999/1" value="0" leadInLength="0/1"  />
               <InterpolatingParam id="1416" interp="linr"  time="-9999999/1" value="0" leadInLength="0/1"  />
               <InterpolatingParam id="1417" interp="linr"  time="-9999999/1" value="0" leadInLength="0/1"  />
              </VectorParam>
              <VectorParam id="1418"  name="shear">
               <InterpolatingParam id="1419" interp="linr"  time="-9999999/1" value="0" leadInLength="0/1"  />
               <InterpolatingParam id="1420" interp="linr"  time="-9999999/1" value="0" leadInLength="0/1"  />
               <InterpolatingParam id="1421" interp="linr"  time="-9999999/1" value="0" leadInLength="0/1"  />
              </VectorParam>
              <VectorParam id="1422"  name="scale">
               <InterpolatingParam id="1423" interp="linr"  time="-9999999/1" value="1" leadInLength="0/1"  />
               <InterpolatingParam id="1424" interp="linr"  time="-9999999/1" value="1" leadInLength="0/1"  />
               <InterpolatingParam id="1425" interp="linr"  time="-9999999/1" value="1" leadInLength="0/1"  />
              </VectorParam>
              <VectorParam id="1426"  name="anchor">
               <InterpolatingParam id="1427" interp="linr"  time="0/1" value="0" leadInLength="0/1"  />
               <InterpolatingParam id="1428" interp="linr"  time="0/1" value="0" leadInLength="0/1"  />
               <InterpolatingParam id="1429" interp="linr"  time="0/1" value="0" leadInLength="0/1"  />
              </VectorParam>
             </Transformer>
             <Parameters>
              <VectorParam id="1430"  name="sourceCrop">
               <InterpolatingParam id="1431" interp="linr"  time="0/1" value="0" leadInLength="0/1"  />
               <InterpolatingParam id="1432" interp="linr"  time="0/1" value="0" leadInLength="0/1"  />
               <InterpolatingParam id="1433" interp="linr"  time="0/1" value="0" leadInLength="0/1"  />
               <InterpolatingParam id="1434" interp="linr"  time="0/1" value="0" leadInLength="0/1"  />
              </VectorParam>
              <VectorParam id="1435"  name="geometryCrop">
               <InterpolatingParam id="1436" interp="linr"  time="-9999999/1" value="0" leadInLength="0/1"  />
               <InterpolatingParam id="1437" interp="linr"  time="-9999999/1" value="0" leadInLength="0/1"  />
               <InterpolatingParam id="1438" interp="linr"  time="-9999999/1" value="0" leadInLength="0/1"  />
               <InterpolatingParam id="1439" interp="linr"  time="-9999999/1" value="0" leadInLength="0/1"  />
              </VectorParam>
              <InterpolatingParam id="1440" interp="linr"  time="-9999999/1" value="1" leadInLength="0/1"  name="opacity"/>
              <InterpolatingParam id="1441" interp="linr"  time="0/1" value="0" leadInLength="0/1"  name="cursorOpacity"/>
              <InterpolatingParam id="1442" interp="linr"  time="0/1" value="0" leadInLength="0/1"  name="cursorScale"/>
             </Parameters>
             <Attributes>
              <Attribute id="1443" value="" name="ident"/>
             </Attributes>
             <ExtraData>
              <Entry key="ZoomPanBin">
               <ZoomPanBin id="1444"  >
                <ZoomPanKeyframes>
                 <ZoomPanKeyframe id="1445" timeRangeEnd="-9999999/1" timeRangeDuration="0/1" interpolaterName=""  />
                </ZoomPanKeyframes>
               </ZoomPanBin>
              </Entry>
              <Entry key="CursorEffectBin">
               <CursorEffectBin id="1446"  >
                <CursorEffectKeyframes>
                </CursorEffectKeyframes>
               </CursorEffectBin>
              </Entry>
             </ExtraData>
            </ScreenVMFile>
            <MetaData>
             <entry key="AutoAppliedSmartFocus" val="False"/>
             <entry key="WinSubProjectDisplayName" val=""/>
            </MetaData>
           </UnifiedMedia>
           <UnifiedMedia id="1447"  >
            <AMFile id="1448" start="4818" duration="252" scalar="1/1" mediaStart="9897/1" mediaDuration="252/1" trackNumber="1" src="4" channelNumber="0,1" >
             <Parameters>
              <InterpolatingParam id="1449" interp="linr"  time="0/1" value="1" leadInLength="0/1"  name="volume"/>
              <Parameter id="1450"  name="captions"/>
             </Parameters>
             <Attributes>
              <Attribute id="1451" value="" name="ident"/>
              <Attribute id="1452" value="44100" name="sampleRate"/>
              <Attribute id="1453" value="16" name="bitDepth"/>
              <Attribute id="1454" value="1" name="gain"/>
              <Attribute id="1455" value="0" name="mixToMono"/>
             </Attributes>
            </AMFile>
            <ScreenVMFile id="1456" start="4818" duration="252" scalar="1/1" mediaStart="9897/1" mediaDuration="252/1" trackNumber="0" src="4" >
             <Transformer>
              <VectorParam id="1457"  name="translation">
               <InterpolatingParam id="1458" interp="linr"  time="-9999999/1" value="0" leadInLength="0/1"  />
               <InterpolatingParam id="1459" interp="linr"  time="-9999999/1" value="0" leadInLength="0/1"  />
               <InterpolatingParam id="1460" interp="linr"  time="-9999999/1" value="0" leadInLength="0/1"  />
              </VectorParam>
              <VectorParam id="1461"  name="rotation">
               <InterpolatingParam id="1462" interp="linr"  time="-9999999/1" value="0" leadInLength="0/1"  />
               <InterpolatingParam id="1463" interp="linr"  time="-9999999/1" value="0" leadInLength="0/1"  />
               <InterpolatingParam id="1464" interp="linr"  time="-9999999/1" value="0" leadInLength="0/1"  />
              </VectorParam>
              <VectorParam id="1465"  name="shear">
               <InterpolatingParam id="1466" interp="linr"  time="-9999999/1" value="0" leadInLength="0/1"  />
               <InterpolatingParam id="1467" interp="linr"  time="-9999999/1" value="0" leadInLength="0/1"  />
               <InterpolatingParam id="1468" interp="linr"  time="-9999999/1" value="0" leadInLength="0/1"  />
              </VectorParam>
              <VectorParam id="1469"  name="scale">
               <InterpolatingParam id="1470" interp="linr"  time="-9999999/1" value="1" leadInLength="0/1"  />
               <InterpolatingParam id="1471" interp="linr"  time="-9999999/1" value="1" leadInLength="0/1"  />
               <InterpolatingParam id="1472" interp="linr"  time="-9999999/1" value="1" leadInLength="0/1"  />
              </VectorParam>
              <VectorParam id="1473"  name="anchor">
               <InterpolatingParam id="1474" interp="linr"  time="0/1" value="0" leadInLength="0/1"  />
               <InterpolatingParam id="1475" interp="linr"  time="0/1" value="0" leadInLength="0/1"  />
               <InterpolatingParam id="1476" interp="linr"  time="0/1" value="0" leadInLength="0/1"  />
              </VectorParam>
             </Transformer>
             <Parameters>
              <VectorParam id="1477"  name="sourceCrop">
               <InterpolatingParam id="1478" interp="linr"  time="0/1" value="0" leadInLength="0/1"  />
               <InterpolatingParam id="1479" interp="linr"  time="0/1" value="0" leadInLength="0/1"  />
               <InterpolatingParam id="1480" interp="linr"  time="0/1" value="0" leadInLength="0/1"  />
               <InterpolatingParam id="1481" interp="linr"  time="0/1" value="0" leadInLength="0/1"  />
              </VectorParam>
              <VectorParam id="1482"  name="geometryCrop">
               <InterpolatingParam id="1483" interp="linr"  time="-9999999/1" value="0" leadInLength="0/1"  />
               <InterpolatingParam id="1484" interp="linr"  time="-9999999/1" value="0" leadInLength="0/1"  />
               <InterpolatingParam id="1485" interp="linr"  time="-9999999/1" value="0" leadInLength="0/1"  />
               <InterpolatingParam id="1486" interp="linr"  time="-9999999/1" value="0" leadInLength="0/1"  />
              </VectorParam>
              <InterpolatingParam id="1487" interp="linr"  time="-9999999/1" value="1" leadInLength="0/1"  name="opacity"/>
              <InterpolatingParam id="1488" interp="linr"  time="0/1" value="0" leadInLength="0/1"  name="cursorOpacity"/>
              <InterpolatingParam id="1489" interp="linr"  time="0/1" value="0" leadInLength="0/1"  name="cursorScale"/>
             </Parameters>
             <Attributes>
              <Attribute id="1490" value="" name="ident"/>
             </Attributes>
             <ExtraData>
              <Entry key="ZoomPanBin">
               <ZoomPanBin id="1491"  >
                <ZoomPanKeyframes>
                 <ZoomPanKeyframe id="1492" timeRangeEnd="-9999999/1" timeRangeDuration="0/1" interpolaterName=""  />
                </ZoomPanKeyframes>
               </ZoomPanBin>
              </Entry>
              <Entry key="CursorEffectBin">
               <CursorEffectBin id="1493"  >
                <CursorEffectKeyframes>
                </CursorEffectKeyframes>
               </CursorEffectBin>
              </Entry>
             </ExtraData>
            </ScreenVMFile>
            <MetaData>
             <entry key="AutoAppliedSmartFocus" val="False"/>
             <entry key="WinSubProjectDisplayName" val=""/>
            </MetaData>
           </UnifiedMedia>
           <UnifiedMedia id="1494"  >
            <AMFile id="1495" start="5070" duration="773" scalar="1/1" mediaStart="10159/1" mediaDuration="773/1" trackNumber="1" src="4" channelNumber="0,1" >
             <Parameters>
              <InterpolatingParam id="1496" interp="linr"  time="0/1" value="1" leadInLength="0/1"  name="volume"/>
              <Parameter id="1497"  name="captions"/>
             </Parameters>
             <Attributes>
              <Attribute id="1498" value="" name="ident"/>
              <Attribute id="1499" value="44100" name="sampleRate"/>
              <Attribute id="1500" value="16" name="bitDepth"/>
              <Attribute id="1501" value="1" name="gain"/>
              <Attribute id="1502" value="0" name="mixToMono"/>
             </Attributes>
            </AMFile>
            <ScreenVMFile id="1503" start="5070" duration="773" scalar="1/1" mediaStart="10159/1" mediaDuration="773/1" trackNumber="0" src="4" >
             <Transformer>
              <VectorParam id="1504"  name="translation">
               <InterpolatingParam id="1505" interp="linr"  time="-9999999/1" value="0" leadInLength="0/1"  />
               <InterpolatingParam id="1506" interp="linr"  time="-9999999/1" value="0" leadInLength="0/1"  />
               <InterpolatingParam id="1507" interp="linr"  time="-9999999/1" value="0" leadInLength="0/1"  />
              </VectorParam>
              <VectorParam id="1508"  name="rotation">
               <InterpolatingParam id="1509" interp="linr"  time="-9999999/1" value="0" leadInLength="0/1"  />
               <InterpolatingParam id="1510" interp="linr"  time="-9999999/1" value="0" leadInLength="0/1"  />
               <InterpolatingParam id="1511" interp="linr"  time="-9999999/1" value="0" leadInLength="0/1"  />
              </VectorParam>
              <VectorParam id="1512"  name="shear">
               <InterpolatingParam id="1513" interp="linr"  time="-9999999/1" value="0" leadInLength="0/1"  />
               <InterpolatingParam id="1514" interp="linr"  time="-9999999/1" value="0" leadInLength="0/1"  />
               <InterpolatingParam id="1515" interp="linr"  time="-9999999/1" value="0" leadInLength="0/1"  />
              </VectorParam>
              <VectorParam id="1516"  name="scale">
               <InterpolatingParam id="1517" interp="linr"  time="-9999999/1" value="1" leadInLength="0/1"  />
               <InterpolatingParam id="1518" interp="linr"  time="-9999999/1" value="1" leadInLength="0/1"  />
               <InterpolatingParam id="1519" interp="linr"  time="-9999999/1" value="1" leadInLength="0/1"  />
              </VectorParam>
              <VectorParam id="1520"  name="anchor">
               <InterpolatingParam id="1521" interp="linr"  time="0/1" value="0" leadInLength="0/1"  />
               <InterpolatingParam id="1522" interp="linr"  time="0/1" value="0" leadInLength="0/1"  />
               <InterpolatingParam id="1523" interp="linr"  time="0/1" value="0" leadInLength="0/1"  />
              </VectorParam>
             </Transformer>
             <Parameters>
              <VectorParam id="1524"  name="sourceCrop">
               <InterpolatingParam id="1525" interp="linr"  time="0/1" value="0" leadInLength="0/1"  />
               <InterpolatingParam id="1526" interp="linr"  time="0/1" value="0" leadInLength="0/1"  />
               <InterpolatingParam id="1527" interp="linr"  time="0/1" value="0" leadInLength="0/1"  />
               <InterpolatingParam id="1528" interp="linr"  time="0/1" value="0" leadInLength="0/1"  />
              </VectorParam>
              <VectorParam id="1529"  name="geometryCrop">
               <InterpolatingParam id="1530" interp="linr"  time="-9999999/1" value="0" leadInLength="0/1"  />
               <InterpolatingParam id="1531" interp="linr"  time="-9999999/1" value="0" leadInLength="0/1"  />
               <InterpolatingParam id="1532" interp="linr"  time="-9999999/1" value="0" leadInLength="0/1"  />
               <InterpolatingParam id="1533" interp="linr"  time="-9999999/1" value="0" leadInLength="0/1"  />
              </VectorParam>
              <InterpolatingParam id="1534" interp="linr"  time="-9999999/1" value="1" leadInLength="0/1"  name="opacity"/>
              <InterpolatingParam id="1535" interp="linr"  time="0/1" value="0" leadInLength="0/1"  name="cursorOpacity"/>
              <InterpolatingParam id="1536" interp="linr"  time="0/1" value="0" leadInLength="0/1"  name="cursorScale"/>
             </Parameters>
             <Attributes>
              <Attribute id="1537" value="" name="ident"/>
             </Attributes>
             <ExtraData>
              <Entry key="ZoomPanBin">
               <ZoomPanBin id="1538"  >
                <ZoomPanKeyframes>
                 <ZoomPanKeyframe id="1539" timeRangeEnd="-9999999/1" timeRangeDuration="0/1" interpolaterName=""  />
                </ZoomPanKeyframes>
               </ZoomPanBin>
              </Entry>
              <Entry key="CursorEffectBin">
               <CursorEffectBin id="1540"  >
                <CursorEffectKeyframes>
                </CursorEffectKeyframes>
               </CursorEffectBin>
              </Entry>
             </ExtraData>
            </ScreenVMFile>
            <MetaData>
             <entry key="AutoAppliedSmartFocus" val="False"/>
             <entry key="WinSubProjectDisplayName" val=""/>
            </MetaData>
           </UnifiedMedia>
           <UnifiedMedia id="1541"  >
            <AMFile id="1542" start="5843" duration="458" scalar="1/1" mediaStart="10940/1" mediaDuration="458/1" trackNumber="1" src="4" channelNumber="0,1" >
             <Parameters>
              <InterpolatingParam id="1543" interp="linr"  time="0/1" value="1" leadInLength="0/1"  name="volume"/>
              <Parameter id="1544"  name="captions"/>
             </Parameters>
             <Attributes>
              <Attribute id="1545" value="" name="ident"/>
              <Attribute id="1546" value="44100" name="sampleRate"/>
              <Attribute id="1547" value="16" name="bitDepth"/>
              <Attribute id="1548" value="1" name="gain"/>
              <Attribute id="1549" value="0" name="mixToMono"/>
             </Attributes>
            </AMFile>
            <ScreenVMFile id="1550" start="5843" duration="458" scalar="1/1" mediaStart="10940/1" mediaDuration="458/1" trackNumber="0" src="4" >
             <Transformer>
              <VectorParam id="1551"  name="translation">
               <InterpolatingParam id="1552" interp="linr"  time="-9999999/1" value="0" leadInLength="0/1"  />
               <InterpolatingParam id="1553" interp="linr"  time="-9999999/1" value="0" leadInLength="0/1"  />
               <InterpolatingParam id="1554" interp="linr"  time="-9999999/1" value="0" leadInLength="0/1"  />
              </VectorParam>
              <VectorParam id="1555"  name="rotation">
               <InterpolatingParam id="1556" interp="linr"  time="-9999999/1" value="0" leadInLength="0/1"  />
               <InterpolatingParam id="1557" interp="linr"  time="-9999999/1" value="0" leadInLength="0/1"  />
               <InterpolatingParam id="1558" interp="linr"  time="-9999999/1" value="0" leadInLength="0/1"  />
              </VectorParam>
              <VectorParam id="1559"  name="shear">
               <InterpolatingParam id="1560" interp="linr"  time="-9999999/1" value="0" leadInLength="0/1"  />
               <InterpolatingParam id="1561" interp="linr"  time="-9999999/1" value="0" leadInLength="0/1"  />
               <InterpolatingParam id="1562" interp="linr"  time="-9999999/1" value="0" leadInLength="0/1"  />
              </VectorParam>
              <VectorParam id="1563"  name="scale">
               <InterpolatingParam id="1564" interp="linr"  time="-9999999/1" value="1" leadInLength="0/1"  />
               <InterpolatingParam id="1565" interp="linr"  time="-9999999/1" value="1" leadInLength="0/1"  />
               <InterpolatingParam id="1566" interp="linr"  time="-9999999/1" value="1" leadInLength="0/1"  />
              </VectorParam>
              <VectorParam id="1567"  name="anchor">
               <InterpolatingParam id="1568" interp="linr"  time="0/1" value="0" leadInLength="0/1"  />
               <InterpolatingParam id="1569" interp="linr"  time="0/1" value="0" leadInLength="0/1"  />
               <InterpolatingParam id="1570" interp="linr"  time="0/1" value="0" leadInLength="0/1"  />
              </VectorParam>
             </Transformer>
             <Parameters>
              <VectorParam id="1571"  name="sourceCrop">
               <InterpolatingParam id="1572" interp="linr"  time="0/1" value="0" leadInLength="0/1"  />
               <InterpolatingParam id="1573" interp="linr"  time="0/1" value="0" leadInLength="0/1"  />
               <InterpolatingParam id="1574" interp="linr"  time="0/1" value="0" leadInLength="0/1"  />
               <InterpolatingParam id="1575" interp="linr"  time="0/1" value="0" leadInLength="0/1"  />
              </VectorParam>
              <VectorParam id="1576"  name="geometryCrop">
               <InterpolatingParam id="1577" interp="linr"  time="-9999999/1" value="0" leadInLength="0/1"  />
               <InterpolatingParam id="1578" interp="linr"  time="-9999999/1" value="0" leadInLength="0/1"  />
               <InterpolatingParam id="1579" interp="linr"  time="-9999999/1" value="0" leadInLength="0/1"  />
               <InterpolatingParam id="1580" interp="linr"  time="-9999999/1" value="0" leadInLength="0/1"  />
              </VectorParam>
              <InterpolatingParam id="1581" interp="linr"  time="-9999999/1" value="1" leadInLength="0/1"  name="opacity"/>
              <InterpolatingParam id="1582" interp="linr"  time="0/1" value="0" leadInLength="0/1"  name="cursorOpacity"/>
              <InterpolatingParam id="1583" interp="linr"  time="0/1" value="0" leadInLength="0/1"  name="cursorScale"/>
             </Parameters>
             <Attributes>
              <Attribute id="1584" value="" name="ident"/>
             </Attributes>
             <ExtraData>
              <Entry key="ZoomPanBin">
               <ZoomPanBin id="1585"  >
                <ZoomPanKeyframes>
                 <ZoomPanKeyframe id="1586" timeRangeEnd="-9999999/1" timeRangeDuration="0/1" interpolaterName=""  />
                </ZoomPanKeyframes>
               </ZoomPanBin>
              </Entry>
              <Entry key="CursorEffectBin">
               <CursorEffectBin id="1587"  >
                <CursorEffectKeyframes>
                </CursorEffectKeyframes>
               </CursorEffectBin>
              </Entry>
             </ExtraData>
            </ScreenVMFile>
            <MetaData>
             <entry key="AutoAppliedSmartFocus" val="False"/>
             <entry key="WinSubProjectDisplayName" val=""/>
            </MetaData>
           </UnifiedMedia>
           <UnifiedMedia id="1588"  >
            <AMFile id="1589" start="6301" duration="157" scalar="1/1" mediaStart="11558/1" mediaDuration="157/1" trackNumber="1" src="4" channelNumber="0,1" >
             <Parameters>
              <InterpolatingParam id="1590" interp="linr"  time="0/1" value="1" leadInLength="0/1"  name="volume"/>
              <Parameter id="1591"  name="captions"/>
             </Parameters>
             <Attributes>
              <Attribute id="1592" value="" name="ident"/>
              <Attribute id="1593" value="44100" name="sampleRate"/>
              <Attribute id="1594" value="16" name="bitDepth"/>
              <Attribute id="1595" value="1" name="gain"/>
              <Attribute id="1596" value="0" name="mixToMono"/>
             </Attributes>
            </AMFile>
            <ScreenVMFile id="1597" start="6301" duration="157" scalar="1/1" mediaStart="11558/1" mediaDuration="157/1" trackNumber="0" src="4" >
             <Transformer>
              <VectorParam id="1598"  name="translation">
               <InterpolatingParam id="1599" interp="linr"  time="-9999999/1" value="0" leadInLength="0/1"  />
               <InterpolatingParam id="1600" interp="linr"  time="-9999999/1" value="0" leadInLength="0/1"  />
               <InterpolatingParam id="1601" interp="linr"  time="-9999999/1" value="0" leadInLength="0/1"  />
              </VectorParam>
              <VectorParam id="1602"  name="rotation">
               <InterpolatingParam id="1603" interp="linr"  time="-9999999/1" value="0" leadInLength="0/1"  />
               <InterpolatingParam id="1604" interp="linr"  time="-9999999/1" value="0" leadInLength="0/1"  />
               <InterpolatingParam id="1605" interp="linr"  time="-9999999/1" value="0" leadInLength="0/1"  />
              </VectorParam>
              <VectorParam id="1606"  name="shear">
               <InterpolatingParam id="1607" interp="linr"  time="-9999999/1" value="0" leadInLength="0/1"  />
               <InterpolatingParam id="1608" interp="linr"  time="-9999999/1" value="0" leadInLength="0/1"  />
               <InterpolatingParam id="1609" interp="linr"  time="-9999999/1" value="0" leadInLength="0/1"  />
              </VectorParam>
              <VectorParam id="1610"  name="scale">
               <InterpolatingParam id="1611" interp="linr"  time="-9999999/1" value="1" leadInLength="0/1"  />
               <InterpolatingParam id="1612" interp="linr"  time="-9999999/1" value="1" leadInLength="0/1"  />
               <InterpolatingParam id="1613" interp="linr"  time="-9999999/1" value="1" leadInLength="0/1"  />
              </VectorParam>
              <VectorParam id="1614"  name="anchor">
               <InterpolatingParam id="1615" interp="linr"  time="0/1" value="0" leadInLength="0/1"  />
               <InterpolatingParam id="1616" interp="linr"  time="0/1" value="0" leadInLength="0/1"  />
               <InterpolatingParam id="1617" interp="linr"  time="0/1" value="0" leadInLength="0/1"  />
              </VectorParam>
             </Transformer>
             <Parameters>
              <VectorParam id="1618"  name="sourceCrop">
               <InterpolatingParam id="1619" interp="linr"  time="0/1" value="0" leadInLength="0/1"  />
               <InterpolatingParam id="1620" interp="linr"  time="0/1" value="0" leadInLength="0/1"  />
               <InterpolatingParam id="1621" interp="linr"  time="0/1" value="0" leadInLength="0/1"  />
               <InterpolatingParam id="1622" interp="linr"  time="0/1" value="0" leadInLength="0/1"  />
              </VectorParam>
              <VectorParam id="1623"  name="geometryCrop">
               <InterpolatingParam id="1624" interp="linr"  time="-9999999/1" value="0" leadInLength="0/1"  />
               <InterpolatingParam id="1625" interp="linr"  time="-9999999/1" value="0" leadInLength="0/1"  />
               <InterpolatingParam id="1626" interp="linr"  time="-9999999/1" value="0" leadInLength="0/1"  />
               <InterpolatingParam id="1627" interp="linr"  time="-9999999/1" value="0" leadInLength="0/1"  />
              </VectorParam>
              <InterpolatingParam id="1628" interp="linr"  time="-9999999/1" value="1" leadInLength="0/1"  name="opacity"/>
              <InterpolatingParam id="1629" interp="linr"  time="0/1" value="0" leadInLength="0/1"  name="cursorOpacity"/>
              <InterpolatingParam id="1630" interp="linr"  time="0/1" value="0" leadInLength="0/1"  name="cursorScale"/>
             </Parameters>
             <Attributes>
              <Attribute id="1631" value="" name="ident"/>
             </Attributes>
             <ExtraData>
              <Entry key="ZoomPanBin">
               <ZoomPanBin id="1632"  >
                <ZoomPanKeyframes>
                 <ZoomPanKeyframe id="1633" timeRangeEnd="-9999999/1" timeRangeDuration="0/1" interpolaterName=""  />
                </ZoomPanKeyframes>
               </ZoomPanBin>
              </Entry>
              <Entry key="CursorEffectBin">
               <CursorEffectBin id="1634"  >
                <CursorEffectKeyframes>
                </CursorEffectKeyframes>
               </CursorEffectBin>
              </Entry>
             </ExtraData>
            </ScreenVMFile>
            <MetaData>
             <entry key="AutoAppliedSmartFocus" val="False"/>
             <entry key="WinSubProjectDisplayName" val=""/>
            </MetaData>
           </UnifiedMedia>
           <UnifiedMedia id="1635"  >
            <AMFile id="1636" start="6458" duration="140" scalar="1/1" mediaStart="11866/1" mediaDuration="140/1" trackNumber="1" src="4" channelNumber="0,1" >
             <Parameters>
              <InterpolatingParam id="1637" interp="linr"  time="0/1" value="1" leadInLength="0/1"  name="volume"/>
              <Parameter id="1638"  name="captions"/>
             </Parameters>
             <Attributes>
              <Attribute id="1639" value="" name="ident"/>
              <Attribute id="1640" value="44100" name="sampleRate"/>
              <Attribute id="1641" value="16" name="bitDepth"/>
              <Attribute id="1642" value="1" name="gain"/>
              <Attribute id="1643" value="0" name="mixToMono"/>
             </Attributes>
            </AMFile>
            <ScreenVMFile id="1644" start="6458" duration="140" scalar="1/1" mediaStart="11866/1" mediaDuration="140/1" trackNumber="0" src="4" >
             <Transformer>
              <VectorParam id="1645"  name="translation">
               <InterpolatingParam id="1646" interp="linr"  time="-9999999/1" value="0" leadInLength="0/1"  />
               <InterpolatingParam id="1647" interp="linr"  time="-9999999/1" value="0" leadInLength="0/1"  />
               <InterpolatingParam id="1648" interp="linr"  time="-9999999/1" value="0" leadInLength="0/1"  />
              </VectorParam>
              <VectorParam id="1649"  name="rotation">
               <InterpolatingParam id="1650" interp="linr"  time="-9999999/1" value="0" leadInLength="0/1"  />
               <InterpolatingParam id="1651" interp="linr"  time="-9999999/1" value="0" leadInLength="0/1"  />
               <InterpolatingParam id="1652" interp="linr"  time="-9999999/1" value="0" leadInLength="0/1"  />
              </VectorParam>
              <VectorParam id="1653"  name="shear">
               <InterpolatingParam id="1654" interp="linr"  time="-9999999/1" value="0" leadInLength="0/1"  />
               <InterpolatingParam id="1655" interp="linr"  time="-9999999/1" value="0" leadInLength="0/1"  />
               <InterpolatingParam id="1656" interp="linr"  time="-9999999/1" value="0" leadInLength="0/1"  />
              </VectorParam>
              <VectorParam id="1657"  name="scale">
               <InterpolatingParam id="1658" interp="linr"  time="-9999999/1" value="1" leadInLength="0/1"  />
               <InterpolatingParam id="1659" interp="linr"  time="-9999999/1" value="1" leadInLength="0/1"  />
               <InterpolatingParam id="1660" interp="linr"  time="-9999999/1" value="1" leadInLength="0/1"  />
              </VectorParam>
              <VectorParam id="1661"  name="anchor">
               <InterpolatingParam id="1662" interp="linr"  time="0/1" value="0" leadInLength="0/1"  />
               <InterpolatingParam id="1663" interp="linr"  time="0/1" value="0" leadInLength="0/1"  />
               <InterpolatingParam id="1664" interp="linr"  time="0/1" value="0" leadInLength="0/1"  />
              </VectorParam>
             </Transformer>
             <Parameters>
              <VectorParam id="1665"  name="sourceCrop">
               <InterpolatingParam id="1666" interp="linr"  time="0/1" value="0" leadInLength="0/1"  />
               <InterpolatingParam id="1667" interp="linr"  time="0/1" value="0" leadInLength="0/1"  />
               <InterpolatingParam id="1668" interp="linr"  time="0/1" value="0" leadInLength="0/1"  />
               <InterpolatingParam id="1669" interp="linr"  time="0/1" value="0" leadInLength="0/1"  />
              </VectorParam>
              <VectorParam id="1670"  name="geometryCrop">
               <InterpolatingParam id="1671" interp="linr"  time="-9999999/1" value="0" leadInLength="0/1"  />
               <InterpolatingParam id="1672" interp="linr"  time="-9999999/1" value="0" leadInLength="0/1"  />
               <InterpolatingParam id="1673" interp="linr"  time="-9999999/1" value="0" leadInLength="0/1"  />
               <InterpolatingParam id="1674" interp="linr"  time="-9999999/1" value="0" leadInLength="0/1"  />
              </VectorParam>
              <InterpolatingParam id="1675" interp="linr"  time="-9999999/1" value="1" leadInLength="0/1"  name="opacity"/>
              <InterpolatingParam id="1676" interp="linr"  time="0/1" value="0" leadInLength="0/1"  name="cursorOpacity"/>
              <InterpolatingParam id="1677" interp="linr"  time="0/1" value="0" leadInLength="0/1"  name="cursorScale"/>
             </Parameters>
             <Attributes>
              <Attribute id="1678" value="" name="ident"/>
             </Attributes>
             <ExtraData>
              <Entry key="ZoomPanBin">
               <ZoomPanBin id="1679"  >
                <ZoomPanKeyframes>
                 <ZoomPanKeyframe id="1680" timeRangeEnd="-9999999/1" timeRangeDuration="0/1" interpolaterName=""  />
                </ZoomPanKeyframes>
               </ZoomPanBin>
              </Entry>
              <Entry key="CursorEffectBin">
               <CursorEffectBin id="1681"  >
                <CursorEffectKeyframes>
                </CursorEffectKeyframes>
               </CursorEffectBin>
              </Entry>
             </ExtraData>
            </ScreenVMFile>
            <MetaData>
             <entry key="AutoAppliedSmartFocus" val="False"/>
             <entry key="WinSubProjectDisplayName" val=""/>
            </MetaData>
           </UnifiedMedia>
           <UnifiedMedia id="1682"  >
            <AMFile id="1683" start="6598" duration="163" scalar="1/1" mediaStart="12317/1" mediaDuration="163/1" trackNumber="1" src="4" channelNumber="0,1" >
             <Parameters>
              <InterpolatingParam id="1684" interp="linr"  time="0/1" value="1" leadInLength="0/1"  name="volume"/>
              <Parameter id="1685"  name="captions"/>
             </Parameters>
             <Attributes>
              <Attribute id="1686" value="" name="ident"/>
              <Attribute id="1687" value="44100" name="sampleRate"/>
              <Attribute id="1688" value="16" name="bitDepth"/>
              <Attribute id="1689" value="1" name="gain"/>
              <Attribute id="1690" value="0" name="mixToMono"/>
             </Attributes>
            </AMFile>
            <ScreenVMFile id="1691" start="6598" duration="163" scalar="1/1" mediaStart="12317/1" mediaDuration="163/1" trackNumber="0" src="4" >
             <Transformer>
              <VectorParam id="1692"  name="translation">
               <InterpolatingParam id="1693" interp="linr"  time="-9999999/1" value="0" leadInLength="0/1"  />
               <InterpolatingParam id="1694" interp="linr"  time="-9999999/1" value="0" leadInLength="0/1"  />
               <InterpolatingParam id="1695" interp="linr"  time="-9999999/1" value="0" leadInLength="0/1"  />
              </VectorParam>
              <VectorParam id="1696"  name="rotation">
               <InterpolatingParam id="1697" interp="linr"  time="-9999999/1" value="0" leadInLength="0/1"  />
               <InterpolatingParam id="1698" interp="linr"  time="-9999999/1" value="0" leadInLength="0/1"  />
               <InterpolatingParam id="1699" interp="linr"  time="-9999999/1" value="0" leadInLength="0/1"  />
              </VectorParam>
              <VectorParam id="1700"  name="shear">
               <InterpolatingParam id="1701" interp="linr"  time="-9999999/1" value="0" leadInLength="0/1"  />
               <InterpolatingParam id="1702" interp="linr"  time="-9999999/1" value="0" leadInLength="0/1"  />
               <InterpolatingParam id="1703" interp="linr"  time="-9999999/1" value="0" leadInLength="0/1"  />
              </VectorParam>
              <VectorParam id="1704"  name="scale">
               <InterpolatingParam id="1705" interp="linr"  time="-9999999/1" value="1" leadInLength="0/1"  />
               <InterpolatingParam id="1706" interp="linr"  time="-9999999/1" value="1" leadInLength="0/1"  />
               <InterpolatingParam id="1707" interp="linr"  time="-9999999/1" value="1" leadInLength="0/1"  />
              </VectorParam>
              <VectorParam id="1708"  name="anchor">
               <InterpolatingParam id="1709" interp="linr"  time="0/1" value="0" leadInLength="0/1"  />
               <InterpolatingParam id="1710" interp="linr"  time="0/1" value="0" leadInLength="0/1"  />
               <InterpolatingParam id="1711" interp="linr"  time="0/1" value="0" leadInLength="0/1"  />
              </VectorParam>
             </Transformer>
             <Parameters>
              <VectorParam id="1712"  name="sourceCrop">
               <InterpolatingParam id="1713" interp="linr"  time="0/1" value="0" leadInLength="0/1"  />
               <InterpolatingParam id="1714" interp="linr"  time="0/1" value="0" leadInLength="0/1"  />
               <InterpolatingParam id="1715" interp="linr"  time="0/1" value="0" leadInLength="0/1"  />
               <InterpolatingParam id="1716" interp="linr"  time="0/1" value="0" leadInLength="0/1"  />
              </VectorParam>
              <VectorParam id="1717"  name="geometryCrop">
               <InterpolatingParam id="1718" interp="linr"  time="-9999999/1" value="0" leadInLength="0/1"  />
               <InterpolatingParam id="1719" interp="linr"  time="-9999999/1" value="0" leadInLength="0/1"  />
               <InterpolatingParam id="1720" interp="linr"  time="-9999999/1" value="0" leadInLength="0/1"  />
               <InterpolatingParam id="1721" interp="linr"  time="-9999999/1" value="0" leadInLength="0/1"  />
              </VectorParam>
              <InterpolatingParam id="1722" interp="linr"  time="-9999999/1" value="1" leadInLength="0/1"  name="opacity"/>
              <InterpolatingParam id="1723" interp="linr"  time="0/1" value="0" leadInLength="0/1"  name="cursorOpacity"/>
              <InterpolatingParam id="1724" interp="linr"  time="0/1" value="0" leadInLength="0/1"  name="cursorScale"/>
             </Parameters>
             <Attributes>
              <Attribute id="1725" value="" name="ident"/>
             </Attributes>
             <ExtraData>
              <Entry key="ZoomPanBin">
               <ZoomPanBin id="1726"  >
                <ZoomPanKeyframes>
                 <ZoomPanKeyframe id="1727" timeRangeEnd="-9999999/1" timeRangeDuration="0/1" interpolaterName=""  />
                </ZoomPanKeyframes>
               </ZoomPanBin>
              </Entry>
              <Entry key="CursorEffectBin">
               <CursorEffectBin id="1728"  >
                <CursorEffectKeyframes>
                </CursorEffectKeyframes>
               </CursorEffectBin>
              </Entry>
             </ExtraData>
            </ScreenVMFile>
            <MetaData>
             <entry key="AutoAppliedSmartFocus" val="False"/>
             <entry key="WinSubProjectDisplayName" val=""/>
            </MetaData>
           </UnifiedMedia>
           <UnifiedMedia id="1729"  >
            <AMFile id="1730" start="6761" duration="121" scalar="1/1" mediaStart="12491/1" mediaDuration="121/1" trackNumber="1" src="4" channelNumber="0,1" >
             <Parameters>
              <InterpolatingParam id="1731" interp="linr"  time="0/1" value="1" leadInLength="0/1"  name="volume"/>
              <Parameter id="1732"  name="captions"/>
             </Parameters>
             <Attributes>
              <Attribute id="1733" value="" name="ident"/>
              <Attribute id="1734" value="44100" name="sampleRate"/>
              <Attribute id="1735" value="16" name="bitDepth"/>
              <Attribute id="1736" value="1" name="gain"/>
              <Attribute id="1737" value="0" name="mixToMono"/>
             </Attributes>
            </AMFile>
            <ScreenVMFile id="1738" start="6761" duration="121" scalar="1/1" mediaStart="12491/1" mediaDuration="121/1" trackNumber="0" src="4" >
             <Transformer>
              <VectorParam id="1739"  name="translation">
               <InterpolatingParam id="1740" interp="linr"  time="-9999999/1" value="0" leadInLength="0/1"  />
               <InterpolatingParam id="1741" interp="linr"  time="-9999999/1" value="0" leadInLength="0/1"  />
               <InterpolatingParam id="1742" interp="linr"  time="-9999999/1" value="0" leadInLength="0/1"  />
              </VectorParam>
              <VectorParam id="1743"  name="rotation">
               <InterpolatingParam id="1744" interp="linr"  time="-9999999/1" value="0" leadInLength="0/1"  />
               <InterpolatingParam id="1745" interp="linr"  time="-9999999/1" value="0" leadInLength="0/1"  />
               <InterpolatingParam id="1746" interp="linr"  time="-9999999/1" value="0" leadInLength="0/1"  />
              </VectorParam>
              <VectorParam id="1747"  name="shear">
               <InterpolatingParam id="1748" interp="linr"  time="-9999999/1" value="0" leadInLength="0/1"  />
               <InterpolatingParam id="1749" interp="linr"  time="-9999999/1" value="0" leadInLength="0/1"  />
               <InterpolatingParam id="1750" interp="linr"  time="-9999999/1" value="0" leadInLength="0/1"  />
              </VectorParam>
              <VectorParam id="1751"  name="scale">
               <InterpolatingParam id="1752" interp="linr"  time="-9999999/1" value="1" leadInLength="0/1"  />
               <InterpolatingParam id="1753" interp="linr"  time="-9999999/1" value="1" leadInLength="0/1"  />
               <InterpolatingParam id="1754" interp="linr"  time="-9999999/1" value="1" leadInLength="0/1"  />
              </VectorParam>
              <VectorParam id="1755"  name="anchor">
               <InterpolatingParam id="1756" interp="linr"  time="0/1" value="0" leadInLength="0/1"  />
               <InterpolatingParam id="1757" interp="linr"  time="0/1" value="0" leadInLength="0/1"  />
               <InterpolatingParam id="1758" interp="linr"  time="0/1" value="0" leadInLength="0/1"  />
              </VectorParam>
             </Transformer>
             <Parameters>
              <VectorParam id="1759"  name="sourceCrop">
               <InterpolatingParam id="1760" interp="linr"  time="0/1" value="0" leadInLength="0/1"  />
               <InterpolatingParam id="1761" interp="linr"  time="0/1" value="0" leadInLength="0/1"  />
               <InterpolatingParam id="1762" interp="linr"  time="0/1" value="0" leadInLength="0/1"  />
               <InterpolatingParam id="1763" interp="linr"  time="0/1" value="0" leadInLength="0/1"  />
              </VectorParam>
              <VectorParam id="1764"  name="geometryCrop">
               <InterpolatingParam id="1765" interp="linr"  time="-9999999/1" value="0" leadInLength="0/1"  />
               <InterpolatingParam id="1766" interp="linr"  time="-9999999/1" value="0" leadInLength="0/1"  />
               <InterpolatingParam id="1767" interp="linr"  time="-9999999/1" value="0" leadInLength="0/1"  />
               <InterpolatingParam id="1768" interp="linr"  time="-9999999/1" value="0" leadInLength="0/1"  />
              </VectorParam>
              <InterpolatingParam id="1769" interp="linr"  time="-9999999/1" value="1" leadInLength="0/1"  name="opacity"/>
              <InterpolatingParam id="1770" interp="linr"  time="0/1" value="0" leadInLength="0/1"  name="cursorOpacity"/>
              <InterpolatingParam id="1771" interp="linr"  time="0/1" value="0" leadInLength="0/1"  name="cursorScale"/>
             </Parameters>
             <Attributes>
              <Attribute id="1772" value="" name="ident"/>
             </Attributes>
             <ExtraData>
              <Entry key="ZoomPanBin">
               <ZoomPanBin id="1773"  >
                <ZoomPanKeyframes>
                 <ZoomPanKeyframe id="1774" timeRangeEnd="-9999999/1" timeRangeDuration="0/1" interpolaterName=""  />
                </ZoomPanKeyframes>
               </ZoomPanBin>
              </Entry>
              <Entry key="CursorEffectBin">
               <CursorEffectBin id="1775"  >
                <CursorEffectKeyframes>
                </CursorEffectKeyframes>
               </CursorEffectBin>
              </Entry>
             </ExtraData>
            </ScreenVMFile>
            <MetaData>
             <entry key="AutoAppliedSmartFocus" val="False"/>
             <entry key="WinSubProjectDisplayName" val=""/>
            </MetaData>
           </UnifiedMedia>
           <UnifiedMedia id="1776"  >
            <AMFile id="1777" start="6882" duration="171" scalar="1/1" mediaStart="12625/1" mediaDuration="171/1" trackNumber="1" src="4" channelNumber="0,1" >
             <Parameters>
              <InterpolatingParam id="1778" interp="linr"  time="0/1" value="1" leadInLength="0/1"  name="volume"/>
              <Parameter id="1779"  name="captions"/>
             </Parameters>
             <Attributes>
              <Attribute id="1780" value="" name="ident"/>
              <Attribute id="1781" value="44100" name="sampleRate"/>
              <Attribute id="1782" value="16" name="bitDepth"/>
              <Attribute id="1783" value="1" name="gain"/>
              <Attribute id="1784" value="0" name="mixToMono"/>
             </Attributes>
            </AMFile>
            <ScreenVMFile id="1785" start="6882" duration="171" scalar="1/1" mediaStart="12625/1" mediaDuration="171/1" trackNumber="0" src="4" >
             <Transformer>
              <VectorParam id="1786"  name="translation">
               <InterpolatingParam id="1787" interp="linr"  time="-9999999/1" value="0" leadInLength="0/1"  />
               <InterpolatingParam id="1788" interp="linr"  time="-9999999/1" value="0" leadInLength="0/1"  />
               <InterpolatingParam id="1789" interp="linr"  time="-9999999/1" value="0" leadInLength="0/1"  />
              </VectorParam>
              <VectorParam id="1790"  name="rotation">
               <InterpolatingParam id="1791" interp="linr"  time="-9999999/1" value="0" leadInLength="0/1"  />
               <InterpolatingParam id="1792" interp="linr"  time="-9999999/1" value="0" leadInLength="0/1"  />
               <InterpolatingParam id="1793" interp="linr"  time="-9999999/1" value="0" leadInLength="0/1"  />
              </VectorParam>
              <VectorParam id="1794"  name="shear">
               <InterpolatingParam id="1795" interp="linr"  time="-9999999/1" value="0" leadInLength="0/1"  />
               <InterpolatingParam id="1796" interp="linr"  time="-9999999/1" value="0" leadInLength="0/1"  />
               <InterpolatingParam id="1797" interp="linr"  time="-9999999/1" value="0" leadInLength="0/1"  />
              </VectorParam>
              <VectorParam id="1798"  name="scale">
               <InterpolatingParam id="1799" interp="linr"  time="-9999999/1" value="1" leadInLength="0/1"  />
               <InterpolatingParam id="1800" interp="linr"  time="-9999999/1" value="1" leadInLength="0/1"  />
               <InterpolatingParam id="1801" interp="linr"  time="-9999999/1" value="1" leadInLength="0/1"  />
              </VectorParam>
              <VectorParam id="1802"  name="anchor">
               <InterpolatingParam id="1803" interp="linr"  time="0/1" value="0" leadInLength="0/1"  />
               <InterpolatingParam id="1804" interp="linr"  time="0/1" value="0" leadInLength="0/1"  />
               <InterpolatingParam id="1805" interp="linr"  time="0/1" value="0" leadInLength="0/1"  />
              </VectorParam>
             </Transformer>
             <Parameters>
              <VectorParam id="1806"  name="sourceCrop">
               <InterpolatingParam id="1807" interp="linr"  time="0/1" value="0" leadInLength="0/1"  />
               <InterpolatingParam id="1808" interp="linr"  time="0/1" value="0" leadInLength="0/1"  />
               <InterpolatingParam id="1809" interp="linr"  time="0/1" value="0" leadInLength="0/1"  />
               <InterpolatingParam id="1810" interp="linr"  time="0/1" value="0" leadInLength="0/1"  />
              </VectorParam>
              <VectorParam id="1811"  name="geometryCrop">
               <InterpolatingParam id="1812" interp="linr"  time="-9999999/1" value="0" leadInLength="0/1"  />
               <InterpolatingParam id="1813" interp="linr"  time="-9999999/1" value="0" leadInLength="0/1"  />
               <InterpolatingParam id="1814" interp="linr"  time="-9999999/1" value="0" leadInLength="0/1"  />
               <InterpolatingParam id="1815" interp="linr"  time="-9999999/1" value="0" leadInLength="0/1"  />
              </VectorParam>
              <InterpolatingParam id="1816" interp="linr"  time="-9999999/1" value="1" leadInLength="0/1"  name="opacity"/>
              <InterpolatingParam id="1817" interp="linr"  time="0/1" value="0" leadInLength="0/1"  name="cursorOpacity"/>
              <InterpolatingParam id="1818" interp="linr"  time="0/1" value="0" leadInLength="0/1"  name="cursorScale"/>
             </Parameters>
             <Attributes>
              <Attribute id="1819" value="" name="ident"/>
             </Attributes>
             <ExtraData>
              <Entry key="ZoomPanBin">
               <ZoomPanBin id="1820"  >
                <ZoomPanKeyframes>
                 <ZoomPanKeyframe id="1821" timeRangeEnd="-9999999/1" timeRangeDuration="0/1" interpolaterName=""  />
                </ZoomPanKeyframes>
               </ZoomPanBin>
              </Entry>
              <Entry key="CursorEffectBin">
               <CursorEffectBin id="1822"  >
                <CursorEffectKeyframes>
                </CursorEffectKeyframes>
               </CursorEffectBin>
              </Entry>
             </ExtraData>
            </ScreenVMFile>
            <MetaData>
             <entry key="AutoAppliedSmartFocus" val="False"/>
             <entry key="WinSubProjectDisplayName" val=""/>
            </MetaData>
           </UnifiedMedia>
           <UnifiedMedia id="1823"  >
            <AMFile id="1824" start="7053" duration="73" scalar="1/1" mediaStart="12806/1" mediaDuration="73/1" trackNumber="1" src="4" channelNumber="0,1" >
             <Parameters>
              <InterpolatingParam id="1825" interp="linr"  time="0/1" value="1" leadInLength="0/1"  name="volume"/>
              <Parameter id="1826"  name="captions"/>
             </Parameters>
             <Attributes>
              <Attribute id="1827" value="" name="ident"/>
              <Attribute id="1828" value="44100" name="sampleRate"/>
              <Attribute id="1829" value="16" name="bitDepth"/>
              <Attribute id="1830" value="1" name="gain"/>
              <Attribute id="1831" value="0" name="mixToMono"/>
             </Attributes>
            </AMFile>
            <ScreenVMFile id="1832" start="7053" duration="73" scalar="1/1" mediaStart="12806/1" mediaDuration="73/1" trackNumber="0" src="4" >
             <Transformer>
              <VectorParam id="1833"  name="translation">
               <InterpolatingParam id="1834" interp="linr"  time="-9999999/1" value="0" leadInLength="0/1"  />
               <InterpolatingParam id="1835" interp="linr"  time="-9999999/1" value="0" leadInLength="0/1"  />
               <InterpolatingParam id="1836" interp="linr"  time="-9999999/1" value="0" leadInLength="0/1"  />
              </VectorParam>
              <VectorParam id="1837"  name="rotation">
               <InterpolatingParam id="1838" interp="linr"  time="-9999999/1" value="0" leadInLength="0/1"  />
               <InterpolatingParam id="1839" interp="linr"  time="-9999999/1" value="0" leadInLength="0/1"  />
               <InterpolatingParam id="1840" interp="linr"  time="-9999999/1" value="0" leadInLength="0/1"  />
              </VectorParam>
              <VectorParam id="1841"  name="shear">
               <InterpolatingParam id="1842" interp="linr"  time="-9999999/1" value="0" leadInLength="0/1"  />
               <InterpolatingParam id="1843" interp="linr"  time="-9999999/1" value="0" leadInLength="0/1"  />
               <InterpolatingParam id="1844" interp="linr"  time="-9999999/1" value="0" leadInLength="0/1"  />
              </VectorParam>
              <VectorParam id="1845"  name="scale">
               <InterpolatingParam id="1846" interp="linr"  time="-9999999/1" value="1" leadInLength="0/1"  />
               <InterpolatingParam id="1847" interp="linr"  time="-9999999/1" value="1" leadInLength="0/1"  />
               <InterpolatingParam id="1848" interp="linr"  time="-9999999/1" value="1" leadInLength="0/1"  />
              </VectorParam>
              <VectorParam id="1849"  name="anchor">
               <InterpolatingParam id="1850" interp="linr"  time="0/1" value="0" leadInLength="0/1"  />
               <InterpolatingParam id="1851" interp="linr"  time="0/1" value="0" leadInLength="0/1"  />
               <InterpolatingParam id="1852" interp="linr"  time="0/1" value="0" leadInLength="0/1"  />
              </VectorParam>
             </Transformer>
             <Parameters>
              <VectorParam id="1853"  name="sourceCrop">
               <InterpolatingParam id="1854" interp="linr"  time="0/1" value="0" leadInLength="0/1"  />
               <InterpolatingParam id="1855" interp="linr"  time="0/1" value="0" leadInLength="0/1"  />
               <InterpolatingParam id="1856" interp="linr"  time="0/1" value="0" leadInLength="0/1"  />
               <InterpolatingParam id="1857" interp="linr"  time="0/1" value="0" leadInLength="0/1"  />
              </VectorParam>
              <VectorParam id="1858"  name="geometryCrop">
               <InterpolatingParam id="1859" interp="linr"  time="-9999999/1" value="0" leadInLength="0/1"  />
               <InterpolatingParam id="1860" interp="linr"  time="-9999999/1" value="0" leadInLength="0/1"  />
               <InterpolatingParam id="1861" interp="linr"  time="-9999999/1" value="0" leadInLength="0/1"  />
               <InterpolatingParam id="1862" interp="linr"  time="-9999999/1" value="0" leadInLength="0/1"  />
              </VectorParam>
              <InterpolatingParam id="1863" interp="linr"  time="-9999999/1" value="1" leadInLength="0/1"  name="opacity"/>
              <InterpolatingParam id="1864" interp="linr"  time="0/1" value="0" leadInLength="0/1"  name="cursorOpacity"/>
              <InterpolatingParam id="1865" interp="linr"  time="0/1" value="0" leadInLength="0/1"  name="cursorScale"/>
             </Parameters>
             <Attributes>
              <Attribute id="1866" value="" name="ident"/>
             </Attributes>
             <ExtraData>
              <Entry key="ZoomPanBin">
               <ZoomPanBin id="1867"  >
                <ZoomPanKeyframes>
                 <ZoomPanKeyframe id="1868" timeRangeEnd="-9999999/1" timeRangeDuration="0/1" interpolaterName=""  />
                </ZoomPanKeyframes>
               </ZoomPanBin>
              </Entry>
              <Entry key="CursorEffectBin">
               <CursorEffectBin id="1869"  >
                <CursorEffectKeyframes>
                </CursorEffectKeyframes>
               </CursorEffectBin>
              </Entry>
             </ExtraData>
            </ScreenVMFile>
            <MetaData>
             <entry key="AutoAppliedSmartFocus" val="False"/>
             <entry key="WinSubProjectDisplayName" val=""/>
            </MetaData>
           </UnifiedMedia>
           <UnifiedMedia id="1870"  >
            <AMFile id="1871" start="7126" duration="46" scalar="1/1" mediaStart="12890/1" mediaDuration="46/1" trackNumber="1" src="4" channelNumber="0,1" >
             <Parameters>
              <InterpolatingParam id="1872" interp="linr"  time="0/1" value="1" leadInLength="0/1"  name="volume"/>
              <Parameter id="1873"  name="captions"/>
             </Parameters>
             <Attributes>
              <Attribute id="1874" value="" name="ident"/>
              <Attribute id="1875" value="44100" name="sampleRate"/>
              <Attribute id="1876" value="16" name="bitDepth"/>
              <Attribute id="1877" value="1" name="gain"/>
              <Attribute id="1878" value="0" name="mixToMono"/>
             </Attributes>
            </AMFile>
            <ScreenVMFile id="1879" start="7126" duration="46" scalar="1/1" mediaStart="12890/1" mediaDuration="46/1" trackNumber="0" src="4" >
             <Transformer>
              <VectorParam id="1880"  name="translation">
               <InterpolatingParam id="1881" interp="linr"  time="-9999999/1" value="0" leadInLength="0/1"  />
               <InterpolatingParam id="1882" interp="linr"  time="-9999999/1" value="0" leadInLength="0/1"  />
               <InterpolatingParam id="1883" interp="linr"  time="-9999999/1" value="0" leadInLength="0/1"  />
              </VectorParam>
              <VectorParam id="1884"  name="rotation">
               <InterpolatingParam id="1885" interp="linr"  time="-9999999/1" value="0" leadInLength="0/1"  />
               <InterpolatingParam id="1886" interp="linr"  time="-9999999/1" value="0" leadInLength="0/1"  />
               <InterpolatingParam id="1887" interp="linr"  time="-9999999/1" value="0" leadInLength="0/1"  />
              </VectorParam>
              <VectorParam id="1888"  name="shear">
               <InterpolatingParam id="1889" interp="linr"  time="-9999999/1" value="0" leadInLength="0/1"  />
               <InterpolatingParam id="1890" interp="linr"  time="-9999999/1" value="0" leadInLength="0/1"  />
               <InterpolatingParam id="1891" interp="linr"  time="-9999999/1" value="0" leadInLength="0/1"  />
              </VectorParam>
              <VectorParam id="1892"  name="scale">
               <InterpolatingParam id="1893" interp="linr"  time="-9999999/1" value="1" leadInLength="0/1"  />
               <InterpolatingParam id="1894" interp="linr"  time="-9999999/1" value="1" leadInLength="0/1"  />
               <InterpolatingParam id="1895" interp="linr"  time="-9999999/1" value="1" leadInLength="0/1"  />
              </VectorParam>
              <VectorParam id="1896"  name="anchor">
               <InterpolatingParam id="1897" interp="linr"  time="0/1" value="0" leadInLength="0/1"  />
               <InterpolatingParam id="1898" interp="linr"  time="0/1" value="0" leadInLength="0/1"  />
               <InterpolatingParam id="1899" interp="linr"  time="0/1" value="0" leadInLength="0/1"  />
              </VectorParam>
             </Transformer>
             <Parameters>
              <VectorParam id="1900"  name="sourceCrop">
               <InterpolatingParam id="1901" interp="linr"  time="0/1" value="0" leadInLength="0/1"  />
               <InterpolatingParam id="1902" interp="linr"  time="0/1" value="0" leadInLength="0/1"  />
               <InterpolatingParam id="1903" interp="linr"  time="0/1" value="0" leadInLength="0/1"  />
               <InterpolatingParam id="1904" interp="linr"  time="0/1" value="0" leadInLength="0/1"  />
              </VectorParam>
              <VectorParam id="1905"  name="geometryCrop">
               <InterpolatingParam id="1906" interp="linr"  time="-9999999/1" value="0" leadInLength="0/1"  />
               <InterpolatingParam id="1907" interp="linr"  time="-9999999/1" value="0" leadInLength="0/1"  />
               <InterpolatingParam id="1908" interp="linr"  time="-9999999/1" value="0" leadInLength="0/1"  />
               <InterpolatingParam id="1909" interp="linr"  time="-9999999/1" value="0" leadInLength="0/1"  />
              </VectorParam>
              <InterpolatingParam id="1910" interp="linr"  time="-9999999/1" value="1" leadInLength="0/1"  name="opacity"/>
              <InterpolatingParam id="1911" interp="linr"  time="0/1" value="0" leadInLength="0/1"  name="cursorOpacity"/>
              <InterpolatingParam id="1912" interp="linr"  time="0/1" value="0" leadInLength="0/1"  name="cursorScale"/>
             </Parameters>
             <Attributes>
              <Attribute id="1913" value="" name="ident"/>
             </Attributes>
             <ExtraData>
              <Entry key="ZoomPanBin">
               <ZoomPanBin id="1914"  >
                <ZoomPanKeyframes>
                 <ZoomPanKeyframe id="1915" timeRangeEnd="-9999999/1" timeRangeDuration="0/1" interpolaterName=""  />
                </ZoomPanKeyframes>
               </ZoomPanBin>
              </Entry>
              <Entry key="CursorEffectBin">
               <CursorEffectBin id="1916"  >
                <CursorEffectKeyframes>
                </CursorEffectKeyframes>
               </CursorEffectBin>
              </Entry>
             </ExtraData>
            </ScreenVMFile>
            <MetaData>
             <entry key="AutoAppliedSmartFocus" val="False"/>
             <entry key="WinSubProjectDisplayName" val=""/>
            </MetaData>
           </UnifiedMedia>
           <UnifiedMedia id="1917"  >
            <AMFile id="1918" start="7172" duration="204" scalar="1/1" mediaStart="13340/1" mediaDuration="204/1" trackNumber="1" src="4" channelNumber="0,1" >
             <Parameters>
              <InterpolatingParam id="1919" interp="linr"  time="0/1" value="1" leadInLength="0/1"  name="volume"/>
              <Parameter id="1920"  name="captions"/>
             </Parameters>
             <Attributes>
              <Attribute id="1921" value="" name="ident"/>
              <Attribute id="1922" value="44100" name="sampleRate"/>
              <Attribute id="1923" value="16" name="bitDepth"/>
              <Attribute id="1924" value="1" name="gain"/>
              <Attribute id="1925" value="0" name="mixToMono"/>
             </Attributes>
            </AMFile>
            <ScreenVMFile id="1926" start="7172" duration="204" scalar="1/1" mediaStart="13340/1" mediaDuration="204/1" trackNumber="0" src="4" >
             <Transformer>
              <VectorParam id="1927"  name="translation">
               <InterpolatingParam id="1928" interp="linr"  time="-9999999/1" value="0" leadInLength="0/1"  />
               <InterpolatingParam id="1929" interp="linr"  time="-9999999/1" value="0" leadInLength="0/1"  />
               <InterpolatingParam id="1930" interp="linr"  time="-9999999/1" value="0" leadInLength="0/1"  />
              </VectorParam>
              <VectorParam id="1931"  name="rotation">
               <InterpolatingParam id="1932" interp="linr"  time="-9999999/1" value="0" leadInLength="0/1"  />
               <InterpolatingParam id="1933" interp="linr"  time="-9999999/1" value="0" leadInLength="0/1"  />
               <InterpolatingParam id="1934" interp="linr"  time="-9999999/1" value="0" leadInLength="0/1"  />
              </VectorParam>
              <VectorParam id="1935"  name="shear">
               <InterpolatingParam id="1936" interp="linr"  time="-9999999/1" value="0" leadInLength="0/1"  />
               <InterpolatingParam id="1937" interp="linr"  time="-9999999/1" value="0" leadInLength="0/1"  />
               <InterpolatingParam id="1938" interp="linr"  time="-9999999/1" value="0" leadInLength="0/1"  />
              </VectorParam>
              <VectorParam id="1939"  name="scale">
               <InterpolatingParam id="1940" interp="linr"  time="-9999999/1" value="1" leadInLength="0/1"  />
               <InterpolatingParam id="1941" interp="linr"  time="-9999999/1" value="1" leadInLength="0/1"  />
               <InterpolatingParam id="1942" interp="linr"  time="-9999999/1" value="1" leadInLength="0/1"  />
              </VectorParam>
              <VectorParam id="1943"  name="anchor">
               <InterpolatingParam id="1944" interp="linr"  time="0/1" value="0" leadInLength="0/1"  />
               <InterpolatingParam id="1945" interp="linr"  time="0/1" value="0" leadInLength="0/1"  />
               <InterpolatingParam id="1946" interp="linr"  time="0/1" value="0" leadInLength="0/1"  />
              </VectorParam>
             </Transformer>
             <Parameters>
              <VectorParam id="1947"  name="sourceCrop">
               <InterpolatingParam id="1948" interp="linr"  time="0/1" value="0" leadInLength="0/1"  />
               <InterpolatingParam id="1949" interp="linr"  time="0/1" value="0" leadInLength="0/1"  />
               <InterpolatingParam id="1950" interp="linr"  time="0/1" value="0" leadInLength="0/1"  />
               <InterpolatingParam id="1951" interp="linr"  time="0/1" value="0" leadInLength="0/1"  />
              </VectorParam>
              <VectorParam id="1952"  name="geometryCrop">
               <InterpolatingParam id="1953" interp="linr"  time="-9999999/1" value="0" leadInLength="0/1"  />
               <InterpolatingParam id="1954" interp="linr"  time="-9999999/1" value="0" leadInLength="0/1"  />
               <InterpolatingParam id="1955" interp="linr"  time="-9999999/1" value="0" leadInLength="0/1"  />
               <InterpolatingParam id="1956" interp="linr"  time="-9999999/1" value="0" leadInLength="0/1"  />
              </VectorParam>
              <InterpolatingParam id="1957" interp="linr"  time="-9999999/1" value="1" leadInLength="0/1"  name="opacity"/>
              <InterpolatingParam id="1958" interp="linr"  time="0/1" value="0" leadInLength="0/1"  name="cursorOpacity"/>
              <InterpolatingParam id="1959" interp="linr"  time="0/1" value="0" leadInLength="0/1"  name="cursorScale"/>
             </Parameters>
             <Attributes>
              <Attribute id="1960" value="" name="ident"/>
             </Attributes>
             <ExtraData>
              <Entry key="ZoomPanBin">
               <ZoomPanBin id="1961"  >
                <ZoomPanKeyframes>
                 <ZoomPanKeyframe id="1962" timeRangeEnd="-9999999/1" timeRangeDuration="0/1" interpolaterName=""  />
                </ZoomPanKeyframes>
               </ZoomPanBin>
              </Entry>
              <Entry key="CursorEffectBin">
               <CursorEffectBin id="1963"  >
                <CursorEffectKeyframes>
                </CursorEffectKeyframes>
               </CursorEffectBin>
              </Entry>
             </ExtraData>
            </ScreenVMFile>
            <MetaData>
             <entry key="AutoAppliedSmartFocus" val="False"/>
             <entry key="WinSubProjectDisplayName" val=""/>
            </MetaData>
           </UnifiedMedia>
           <UnifiedMedia id="1964"  >
            <AMFile id="1965" start="7376" duration="128" scalar="1/1" mediaStart="13553/1" mediaDuration="128/1" trackNumber="1" src="4" channelNumber="0,1" >
             <Parameters>
              <InterpolatingParam id="1966" interp="linr"  time="0/1" value="1" leadInLength="0/1"  name="volume"/>
              <Parameter id="1967"  name="captions"/>
             </Parameters>
             <Attributes>
              <Attribute id="1968" value="" name="ident"/>
              <Attribute id="1969" value="44100" name="sampleRate"/>
              <Attribute id="1970" value="16" name="bitDepth"/>
              <Attribute id="1971" value="1" name="gain"/>
              <Attribute id="1972" value="0" name="mixToMono"/>
             </Attributes>
            </AMFile>
            <ScreenVMFile id="1973" start="7376" duration="128" scalar="1/1" mediaStart="13553/1" mediaDuration="128/1" trackNumber="0" src="4" >
             <Transformer>
              <VectorParam id="1974"  name="translation">
               <InterpolatingParam id="1975" interp="linr"  time="-9999999/1" value="0" leadInLength="0/1"  />
               <InterpolatingParam id="1976" interp="linr"  time="-9999999/1" value="0" leadInLength="0/1"  />
               <InterpolatingParam id="1977" interp="linr"  time="-9999999/1" value="0" leadInLength="0/1"  />
              </VectorParam>
              <VectorParam id="1978"  name="rotation">
               <InterpolatingParam id="1979" interp="linr"  time="-9999999/1" value="0" leadInLength="0/1"  />
               <InterpolatingParam id="1980" interp="linr"  time="-9999999/1" value="0" leadInLength="0/1"  />
               <InterpolatingParam id="1981" interp="linr"  time="-9999999/1" value="0" leadInLength="0/1"  />
              </VectorParam>
              <VectorParam id="1982"  name="shear">
               <InterpolatingParam id="1983" interp="linr"  time="-9999999/1" value="0" leadInLength="0/1"  />
               <InterpolatingParam id="1984" interp="linr"  time="-9999999/1" value="0" leadInLength="0/1"  />
               <InterpolatingParam id="1985" interp="linr"  time="-9999999/1" value="0" leadInLength="0/1"  />
              </VectorParam>
              <VectorParam id="1986"  name="scale">
               <InterpolatingParam id="1987" interp="linr"  time="-9999999/1" value="1" leadInLength="0/1"  />
               <InterpolatingParam id="1988" interp="linr"  time="-9999999/1" value="1" leadInLength="0/1"  />
               <InterpolatingParam id="1989" interp="linr"  time="-9999999/1" value="1" leadInLength="0/1"  />
              </VectorParam>
              <VectorParam id="1990"  name="anchor">
               <InterpolatingParam id="1991" interp="linr"  time="0/1" value="0" leadInLength="0/1"  />
               <InterpolatingParam id="1992" interp="linr"  time="0/1" value="0" leadInLength="0/1"  />
               <InterpolatingParam id="1993" interp="linr"  time="0/1" value="0" leadInLength="0/1"  />
              </VectorParam>
             </Transformer>
             <Parameters>
              <VectorParam id="1994"  name="sourceCrop">
               <InterpolatingParam id="1995" interp="linr"  time="0/1" value="0" leadInLength="0/1"  />
               <InterpolatingParam id="1996" interp="linr"  time="0/1" value="0" leadInLength="0/1"  />
               <InterpolatingParam id="1997" interp="linr"  time="0/1" value="0" leadInLength="0/1"  />
               <InterpolatingParam id="1998" interp="linr"  time="0/1" value="0" leadInLength="0/1"  />
              </VectorParam>
              <VectorParam id="1999"  name="geometryCrop">
               <InterpolatingParam id="2000" interp="linr"  time="-9999999/1" value="0" leadInLength="0/1"  />
               <InterpolatingParam id="2001" interp="linr"  time="-9999999/1" value="0" leadInLength="0/1"  />
               <InterpolatingParam id="2002" interp="linr"  time="-9999999/1" value="0" leadInLength="0/1"  />
               <InterpolatingParam id="2003" interp="linr"  time="-9999999/1" value="0" leadInLength="0/1"  />
              </VectorParam>
              <InterpolatingParam id="2004" interp="linr"  time="-9999999/1" value="1" leadInLength="0/1"  name="opacity"/>
              <InterpolatingParam id="2005" interp="linr"  time="0/1" value="0" leadInLength="0/1"  name="cursorOpacity"/>
              <InterpolatingParam id="2006" interp="linr"  time="0/1" value="0" leadInLength="0/1"  name="cursorScale"/>
             </Parameters>
             <Attributes>
              <Attribute id="2007" value="" name="ident"/>
             </Attributes>
             <ExtraData>
              <Entry key="ZoomPanBin">
               <ZoomPanBin id="2008"  >
                <ZoomPanKeyframes>
                 <ZoomPanKeyframe id="2009" timeRangeEnd="-9999999/1" timeRangeDuration="0/1" interpolaterName=""  />
                </ZoomPanKeyframes>
               </ZoomPanBin>
              </Entry>
              <Entry key="CursorEffectBin">
               <CursorEffectBin id="2010"  >
                <CursorEffectKeyframes>
                </CursorEffectKeyframes>
               </CursorEffectBin>
              </Entry>
             </ExtraData>
            </ScreenVMFile>
            <MetaData>
             <entry key="AutoAppliedSmartFocus" val="False"/>
             <entry key="WinSubProjectDisplayName" val=""/>
            </MetaData>
           </UnifiedMedia>
          </Medias>
         </GenericTrack>
        </StitchedMedia>
       </Medias>
      </GenericTrack>
      <GenericTrack id="2011"  >
       <Attributes>
        <Attribute id="2012" value="" name="ident"/>
        <Attribute id="2013" value="0" name="audioMuted"/>
        <Attribute id="2014" value="0" name="videoHidden"/>
       </Attributes>
       <MetaData>
        <entry key="IsLocked" val="False"/>
        <entry key="WinTrackHeight" val="62"/>
       </MetaData>
       <Medias>
       </Medias>
      </GenericTrack>
      <GenericTrack id="2015"  >
       <Attributes>
        <Attribute id="2016" value="" name="ident"/>
        <Attribute id="2017" value="0" name="audioMuted"/>
        <Attribute id="2018" value="0" name="videoHidden"/>
       </Attributes>
       <MetaData>
        <entry key="IsLocked" val="False"/>
        <entry key="WinTrackHeight" val="62"/>
       </MetaData>
       <Medias>
       </Medias>
      </GenericTrack>
     </Tracks>
    </GenericMixer>
   <CaptionAttributes id="2019"  >
    <Attribute id="2020" value="1" name="captionsEnabled"/>
    <Attribute id="2021" value="Arial" name="captionsFontName"/>
    <Attribute id="2022" value="36" name="captionsFontSize"/>
    <Attribute id="2023" value="(0,0,0,255)" name="captionsBackgroundColor"/>
    <Attribute id="2024" value="(255,255,255,255)" name="captionsForegroundColor"/>
    <Attribute id="2025" value="en" name="lang"/>
    <Attribute id="2026" value="0" name="captionsAlignment"/>
    <Attribute id="2027" value="1" name="captionsDefaultFontSize"/>
    <Attribute id="2028" value="0.5" name="captionsOpacity"/>
    <Attribute id="2029" value="1" name="captionsBackgroundEnabled"/>
    <Attribute id="2030" value="1" name="captionsBackgroundOnlyAroundText"/>
   </CaptionAttributes>
   <Parameters>
    <VectorParam id="2031"  name="eyePosition">
     <InterpolatingParam id="2032" interp="linr"  time="0/1" value="0" leadInLength="0/1"  />
     <InterpolatingParam id="2033" interp="linr"  time="0/1" value="0" leadInLength="0/1"  />
     <InterpolatingParam id="2034" interp="linr"  time="0/1" value="3000" leadInLength="0/1"  />
    </VectorParam>
    <VectorParam id="2035"  name="eyeLookAtPosition">
     <InterpolatingParam id="2036" interp="linr"  time="0/1" value="0" leadInLength="0/1"  />
     <InterpolatingParam id="2037" interp="linr"  time="0/1" value="0" leadInLength="0/1"  />
     <InterpolatingParam id="2038" interp="linr"  time="0/1" value="0" leadInLength="0/1"  />
    </VectorParam>
    <VectorParam id="2039"  name="eyeUpVector">
     <InterpolatingParam id="2040" interp="linr"  time="0/1" value="0" leadInLength="0/1"  />
     <InterpolatingParam id="2041" interp="linr"  time="0/1" value="1" leadInLength="0/1"  />
     <InterpolatingParam id="2042" interp="linr"  time="0/1" value="0" leadInLength="0/1"  />
    </VectorParam>
    <InterpolatingParam id="2043" interp="linr"  time="0/1" value="0.356185883" leadInLength="0/1"  name="fov"/>
    <InterpolatingParam id="2044" interp="linr"  time="0/1" value="1.5" leadInLength="0/1"  name="nearClipDistance"/>
    <InterpolatingParam id="2045" interp="linr"  time="0/1" value="6000" leadInLength="0/1"  name="farClipDistance"/>
   </Parameters>
  </Timeline>
 </Project>
</GoProject>
</CSMLData>

</Project_Data>
