<?xml version="1.0"?>
<Project_Data Version="8.00">
<Project_Settings>
<ProfileName></ProfileName>
<ProjectWidth>1920</ProjectWidth>
<ProjectHeight>1080</ProjectHeight>
<IsCustomProject>1</IsCustomProject>
<SavedProjectSettings>1</SavedProjectSettings>
<LastFlashTemplate>-1</LastFlashTemplate>
</Project_Settings>


<AutoSaveFile>C:\Users\Administrator\AppData\Local\TechSmith\Camtasia Studio\8.0\Auto-Saves\Align Selfe22178.autosave.camproj</AutoSaveFile>

<ProjectID>1EEE3A06-3B57-4FC9-92D2-59A553694415</ProjectID>

<PowerPointProject>0</PowerPointProject>

<PowerPointFilename></PowerPointFilename>


<Project_Notes>
</Project_Notes>

<Project_MetaData>
<Project_MetaData_Object>
<FieldArrayKey>8</FieldArrayKey>
<Value>Align Self</Value>
</Project_MetaData_Object>
<Project_MetaData_Object>
<FieldArrayKey>13</FieldArrayKey>
<Value>2017-02-16 08:29:02 PM</Value>
</Project_MetaData_Object>
<Project_MetaData_Object>
<FieldArrayKey>16</FieldArrayKey>
<Value>ENU</Value>
</Project_MetaData_Object>
</Project_MetaData>

<CSMLData>
<GoProject id="1" version="3.0" >
 <Project id="2" editRate="30/1" version="3.0" >
  <Author></Author>
  <Comment></Comment>
  <System></System>
  <SourceBin id="3"  >
    <Source id="4" src="D:\Peter Sommerhoff\Source Files\11.align-self.trec" lastMod="20170214T081538" rect="(0,0,1920,1080)" >
      <SourceTrack range="(0,31768)" type="0" editRate="60/1" trackRect="(0,0,1920,1080)" sampleRate="0/1" bitDepth="0" numChannels="0" filename="11.align-self.trec!Strack0.tsc2" metaData="11.align-self.trec;" />
      <SourceTrack range="(0,23352320)" type="2" editRate="44100/1" trackRect="(0,0,0,0)" sampleRate="44100/1" bitDepth="16" numChannels="2" filename="11.align-self.trec!Maudio1.mp4" metaData="" />
    </Source>
  </SourceBin>
  <Timeline id="5"  >
   <Attributes>
    <Attribute id="6" value="1920" name="width"/>
    <Attribute id="7" value="1080" name="height"/>
    <Attribute id="8" value="(0,0,0,255)" name="backgroundColor"/>
   </Attributes>
    <GenericMixer id="9"  name="Unified Mixer">
     <MetaData>
      <entry key="MixerType" val="TimelineMixer"/>
     </MetaData>
     <Tracks>
      <GenericTrack id="10"  >
       <Attributes>
        <Attribute id="11" value="" name="ident"/>
        <Attribute id="12" value="0" name="audioMuted"/>
        <Attribute id="13" value="0" name="videoHidden"/>
       </Attributes>
       <MetaData>
        <entry key="IsLocked" val="False"/>
        <entry key="WinTrackHeight" val="40"/>
       </MetaData>
       <Medias>
       </Medias>
      </GenericTrack>
      <GenericTrack id="14"  >
       <Attributes>
        <Attribute id="15" value="" name="ident"/>
        <Attribute id="16" value="0" name="audioMuted"/>
        <Attribute id="17" value="0" name="videoHidden"/>
       </Attributes>
       <MetaData>
        <entry key="IsLocked" val="False"/>
        <entry key="WinTrackHeight" val="124.40909090909091"/>
       </MetaData>
       <Medias>
        <UnifiedMedia id="18"  >
         <AudioTransition id="19" start="0" duration="30" >
          <Parameters>
           <InterpolatingParam id="20" interp="linr"  time="0/1" value="1" leadInLength="0/1"  name="volume"/>
           <Parameter id="21"  name="captions"/>
          </Parameters>
          <Effects>
           <GenericEffect id="22" name = "AudioTransition" >
            <Parameters>
            <Parameter id="23"   name="audioEdgeModType">
             <Keyframes>
             <Keyframe id="24"  time="0/1" value="0" leadInLength="0/1"  />
             </Keyframes>
            </Parameter>
            <Parameter id="25"   name="audioTransitionType">
             <Keyframes>
             <Keyframe id="26"  time="0/1" value="" leadInLength="0/1"  />
             </Keyframes>
            </Parameter>
            </Parameters>
            <MetaData>
            </MetaData>
           </GenericEffect>
          </Effects>
          <Attributes>
           <Attribute id="27" value="" name="ident"/>
           <Attribute id="28" value="0" name="sampleRate"/>
           <Attribute id="29" value="0" name="bitDepth"/>
           <Attribute id="30" value="1" name="gain"/>
           <Attribute id="31" value="0" name="mixToMono"/>
          </Attributes>
         </AudioTransition>
         <ImageTransition id="32" start="0" duration="30" >
          <Transformer>
           <VectorParam id="33"  name="translation">
            <InterpolatingParam id="34" interp="linr"  time="0/1" value="0" leadInLength="0/1"  />
            <InterpolatingParam id="35" interp="linr"  time="0/1" value="0" leadInLength="0/1"  />
            <InterpolatingParam id="36" interp="linr"  time="0/1" value="0" leadInLength="0/1"  />
           </VectorParam>
           <VectorParam id="37"  name="rotation">
            <InterpolatingParam id="38" interp="linr"  time="0/1" value="0" leadInLength="0/1"  />
            <InterpolatingParam id="39" interp="linr"  time="0/1" value="0" leadInLength="0/1"  />
            <InterpolatingParam id="40" interp="linr"  time="0/1" value="0" leadInLength="0/1"  />
           </VectorParam>
           <VectorParam id="41"  name="shear">
            <InterpolatingParam id="42" interp="linr"  time="0/1" value="0" leadInLength="0/1"  />
            <InterpolatingParam id="43" interp="linr"  time="0/1" value="0" leadInLength="0/1"  />
            <InterpolatingParam id="44" interp="linr"  time="0/1" value="0" leadInLength="0/1"  />
           </VectorParam>
           <VectorParam id="45"  name="scale">
            <InterpolatingParam id="46" interp="linr"  time="0/1" value="1" leadInLength="0/1"  />
            <InterpolatingParam id="47" interp="linr"  time="0/1" value="1" leadInLength="0/1"  />
            <InterpolatingParam id="48" interp="linr"  time="0/1" value="1" leadInLength="0/1"  />
           </VectorParam>
           <VectorParam id="49"  name="anchor">
            <InterpolatingParam id="50" interp="linr"  time="0/1" value="0" leadInLength="0/1"  />
            <InterpolatingParam id="51" interp="linr"  time="0/1" value="0" leadInLength="0/1"  />
            <InterpolatingParam id="52" interp="linr"  time="0/1" value="0" leadInLength="0/1"  />
           </VectorParam>
          </Transformer>
          <Parameters>
           <VectorParam id="53"  name="sourceCrop">
            <InterpolatingParam id="54" interp="linr"  time="0/1" value="0" leadInLength="0/1"  />
            <InterpolatingParam id="55" interp="linr"  time="0/1" value="0" leadInLength="0/1"  />
            <InterpolatingParam id="56" interp="linr"  time="0/1" value="0" leadInLength="0/1"  />
            <InterpolatingParam id="57" interp="linr"  time="0/1" value="0" leadInLength="0/1"  />
           </VectorParam>
           <VectorParam id="58"  name="geometryCrop">
            <InterpolatingParam id="59" interp="linr"  time="0/1" value="0" leadInLength="0/1"  />
            <InterpolatingParam id="60" interp="linr"  time="0/1" value="0" leadInLength="0/1"  />
            <InterpolatingParam id="61" interp="linr"  time="0/1" value="0" leadInLength="0/1"  />
            <InterpolatingParam id="62" interp="linr"  time="0/1" value="0" leadInLength="0/1"  />
           </VectorParam>
           <InterpolatingParam id="63" interp="linr"  time="0/1" value="1" leadInLength="0/1"  name="opacity"/>
          </Parameters>
          <Effects>
           <GenericEffect id="64" name = "VisualTransition" >
            <Parameters>
            <InterpolatingParam id="65" interp="linr"  time="0/1" value="0.5" leadInLength="0/1"   name="leftFramePercentage"/>
            <InterpolatingParam id="66" interp="linr"  time="0/1" value="0.5" leadInLength="0/1"   name="rightFramePercentage"/>
            <Parameter id="67"   name="visualEdgeModType">
             <Keyframes>
             <Keyframe id="68"  time="0/1" value="1" leadInLength="0/1"  />
             </Keyframes>
            </Parameter>
            <Parameter id="69"   name="visualTransitionType">
             <Keyframes>
             <Keyframe id="70"  time="0/1" value="Glow" leadInLength="0/1"  />
             </Keyframes>
            </Parameter>
            </Parameters>
            <MetaData>
            </MetaData>
           </GenericEffect>
          </Effects>
          <Attributes>
           <Attribute id="71" value="" name="ident"/>
          </Attributes>
          <ExtraData>
           <Entry key="ZoomPanBin">
            <ZoomPanBin id="72"  >
             <ZoomPanKeyframes>
             </ZoomPanKeyframes>
            </ZoomPanBin>
           </Entry>
          </ExtraData>
         </ImageTransition>
         <MetaData>
          <entry key="WinSubProjectDisplayName" val=""/>
         </MetaData>
        </UnifiedMedia>
        <StitchedMedia id="73" start="30" duration="4911" scalar="1/1" mediaStart="222/1" mediaDuration="4911/1" minMediaStart="0/1" >
         <Transformer>
          <VectorParam id="74"  name="translation">
           <InterpolatingParam id="75" interp="linr"  time="-9999999/1" value="0" leadInLength="0/1"  interpolater="leadin-linr"  />
           <InterpolatingParam id="76" interp="linr"  time="-9999999/1" value="0" leadInLength="0/1"  interpolater="leadin-linr"  />
           <InterpolatingParam id="77" interp="linr"  time="-9999999/1" value="0" leadInLength="0/1"  interpolater="leadin-linr"  />
          </VectorParam>
          <VectorParam id="78"  name="rotation">
           <InterpolatingParam id="79" interp="linr"  time="-9999999/1" value="0" leadInLength="0/1"  interpolater="leadin-linr"  />
           <InterpolatingParam id="80" interp="linr"  time="-9999999/1" value="0" leadInLength="0/1"  interpolater="leadin-linr"  />
           <InterpolatingParam id="81" interp="linr"  time="-9999999/1" value="0" leadInLength="0/1"  interpolater="leadin-linr"  />
          </VectorParam>
          <VectorParam id="82"  name="shear">
           <InterpolatingParam id="83" interp="linr"  time="-9999999/1" value="0" leadInLength="0/1"  interpolater="leadin-linr"  />
           <InterpolatingParam id="84" interp="linr"  time="-9999999/1" value="0" leadInLength="0/1"  interpolater="leadin-linr"  />
           <InterpolatingParam id="85" interp="linr"  time="-9999999/1" value="0" leadInLength="0/1"  interpolater="leadin-linr"  />
          </VectorParam>
          <VectorParam id="86"  name="scale">
           <InterpolatingParam id="87" interp="linr"  time="-9999999/1" value="1" leadInLength="0/1"  interpolater="leadin-linr"  />
           <InterpolatingParam id="88" interp="linr"  time="-9999999/1" value="1" leadInLength="0/1"  interpolater="leadin-linr"  />
           <InterpolatingParam id="89" interp="linr"  time="-9999999/1" value="1" leadInLength="0/1"  interpolater="leadin-linr"  />
          </VectorParam>
          <VectorParam id="90"  name="anchor">
           <InterpolatingParam id="91" interp="linr"  time="0/1" value="0" leadInLength="0/1"  />
           <InterpolatingParam id="92" interp="linr"  time="0/1" value="0" leadInLength="0/1"  />
           <InterpolatingParam id="93" interp="linr"  time="0/1" value="0" leadInLength="0/1"  />
          </VectorParam>
         </Transformer>
         <Parameters>
          <VectorParam id="94"  name="sourceCrop">
           <InterpolatingParam id="95" interp="linr"  time="0/1" value="0" leadInLength="0/1"  />
           <InterpolatingParam id="96" interp="linr"  time="0/1" value="0" leadInLength="0/1"  />
           <InterpolatingParam id="97" interp="linr"  time="0/1" value="0" leadInLength="0/1"  />
           <InterpolatingParam id="98" interp="linr"  time="0/1" value="0" leadInLength="0/1"  />
          </VectorParam>
          <VectorParam id="99"  name="geometryCrop">
           <InterpolatingParam id="100" interp="linr"  time="-9999999/1" value="0" leadInLength="0/1"  interpolater="leadin-linr"  />
           <InterpolatingParam id="101" interp="linr"  time="-9999999/1" value="0" leadInLength="0/1"  interpolater="leadin-linr"  />
           <InterpolatingParam id="102" interp="linr"  time="-9999999/1" value="0" leadInLength="0/1"  interpolater="leadin-linr"  />
           <InterpolatingParam id="103" interp="linr"  time="-9999999/1" value="0" leadInLength="0/1"  interpolater="leadin-linr"  />
          </VectorParam>
          <InterpolatingParam id="104" interp="linr"  time="-9999999/1" value="1" leadInLength="0/1"  interpolater="leadin-linr"  name="opacity"/>
          <InterpolatingParam id="105" interp="linr"  time="0/1" value="1" leadInLength="0/1"  name="cursorOpacity"/>
          <InterpolatingParam id="106" interp="linr"  time="0/1" value="1" leadInLength="0/1"  name="cursorScale"/>
          <InterpolatingParam id="107" interp="linr"  time="0/1" value="1.5625" leadInLength="0/1"  name="volume"/>
          <Parameter id="108"  name="captions"/>
         </Parameters>
         <Effects>
          <GenericEffect id="109" name = "CursorBaseEffectName" >
           <Parameters>
           <InterpolatingParam id="110" interp="linr"  time="-9999999/1" value="1" leadInLength="0/1"   name="cursorSize"/>
           <InterpolatingParam id="111" interp="linr"  time="-9999999/1" value="0" leadInLength="0/1"   name="highlightBlurRadius"/>
           <InterpolatingParam id="112" interp="linr"  time="-9999999/1" value="0" leadInLength="0/1"   name="highlightColorBlue"/>
           <InterpolatingParam id="113" interp="linr"  time="-9999999/1" value="255" leadInLength="0/1"   name="highlightColorGreen"/>
           <InterpolatingParam id="114" interp="linr"  time="-9999999/1" value="255" leadInLength="0/1"   name="highlightColorRed"/>
           <InterpolatingParam id="115" interp="linr"  time="-9999999/1" value="5" leadInLength="0/1"   name="highlightFeatherSize"/>
           <InterpolatingParam id="116" interp="linr"  time="-9999999/1" value="2" leadInLength="0/1"   name="highlightMagnification"/>
           <InterpolatingParam id="117" interp="linr"  time="-9999999/1" value="1" leadInLength="0/1"   name="highlightOpacity"/>
           <InterpolatingParam id="118" interp="linr"  time="-9999999/1" value="45" leadInLength="0/1"   name="highlightSize"/>
           <Parameter id="119"   name="highlightType">
            <Keyframes>
            <Keyframe id="120"  time="-9999999/1" value="0" leadInLength="0/1"  />
            </Keyframes>
           </Parameter>
           <InterpolatingParam id="121" interp="linr"  time="-9999999/1" value="0" leadInLength="0/1"   name="leftClickColorBlue"/>
           <InterpolatingParam id="122" interp="linr"  time="-9999999/1" value="0" leadInLength="0/1"   name="leftClickColorGreen"/>
           <InterpolatingParam id="123" interp="linr"  time="-9999999/1" value="255" leadInLength="0/1"   name="leftClickColorRed"/>
           <InterpolatingParam id="124" interp="linr"  time="-9999999/1" value="0.80000000000000004" leadInLength="0/1"   name="leftClickDuration"/>
           <InterpolatingParam id="125" interp="linr"  time="-9999999/1" value="20" leadInLength="0/1"   name="leftClickSize"/>
           <Parameter id="126"   name="leftClickSoundFilename">
            <Keyframes>
            <Keyframe id="127"  time="-9999999/1" value="" leadInLength="0/1"  />
            </Keyframes>
           </Parameter>
           <InterpolatingParam id="128" interp="linr"  time="-9999999/1" value="1" leadInLength="0/1"   name="leftClickSoundVolume"/>
           <Parameter id="129"   name="leftClickType">
            <Keyframes>
            <Keyframe id="130"  time="-9999999/1" value="0" leadInLength="0/1"  />
            </Keyframes>
           </Parameter>
           <InterpolatingParam id="131" interp="linr"  time="-9999999/1" value="1" leadInLength="0/1"   name="opacity"/>
           <InterpolatingParam id="132" interp="linr"  time="-9999999/1" value="255" leadInLength="0/1"   name="rightClickColorBlue"/>
           <InterpolatingParam id="133" interp="linr"  time="-9999999/1" value="0" leadInLength="0/1"   name="rightClickColorGreen"/>
           <InterpolatingParam id="134" interp="linr"  time="-9999999/1" value="0" leadInLength="0/1"   name="rightClickColorRed"/>
           <InterpolatingParam id="135" interp="linr"  time="-9999999/1" value="0.80000000000000004" leadInLength="0/1"   name="rightClickDuration"/>
           <InterpolatingParam id="136" interp="linr"  time="-9999999/1" value="20" leadInLength="0/1"   name="rightClickSize"/>
           <Parameter id="137"   name="rightClickSoundFilename">
            <Keyframes>
            <Keyframe id="138"  time="-9999999/1" value="" leadInLength="0/1"  />
            </Keyframes>
           </Parameter>
           <InterpolatingParam id="139" interp="linr"  time="-9999999/1" value="1" leadInLength="0/1"   name="rightClickSoundVolume"/>
           <Parameter id="140"   name="rightClickType">
            <Keyframes>
            <Keyframe id="141"  time="-9999999/1" value="0" leadInLength="0/1"  />
            </Keyframes>
           </Parameter>
           </Parameters>
           <MetaData>
            <entry key="effectIndex" val="0"/>
           </MetaData>
          </GenericEffect>
          <GenericEffect id="142" name = "WinCompression" >
           <Parameters>
           <InterpolatingParam id="143" interp="linr"  time="0/1" value="0" leadInLength="0/1"   name="attack"/>
           <InterpolatingParam id="144" interp="linr"  time="0/1" value="9" leadInLength="0/1"   name="gain"/>
           <Parameter id="145"   name="preset">
            <Keyframes>
            <Keyframe id="146"  time="0/1" value="1" leadInLength="0/1"  />
            </Keyframes>
           </Parameter>
           <InterpolatingParam id="147" interp="linr"  time="0/1" value="10" leadInLength="0/1"   name="ratio"/>
           <InterpolatingParam id="148" interp="linr"  time="0/1" value="3500" leadInLength="0/1"   name="release"/>
           <InterpolatingParam id="149" interp="linr"  time="0/1" value="-20" leadInLength="0/1"   name="threshold"/>
           </Parameters>
           <MetaData>
            <entry key="effectIndex" val="1"/>
           </MetaData>
          </GenericEffect>
          <GenericEffect id="150" name = "NoiseReduction" >
           <Parameters>
           <InterpolatingParam id="151" interp="linr"  time="0/1" value="20" leadInLength="0/1"   name="denoiserAmount"/>
           <InterpolatingParam id="152" interp="linr"  time="0/1" value="0" leadInLength="0/1"   name="denoiserThreshold"/>
           <Parameter id="153"   name="noiseProfile">
            <Keyframes>
            <Keyframe id="154"  time="0/1" value="FBAAAAIAAABErAAAAQIAAMzukMLslIjCUsSUwp8imcKH1ZTC/hiKwp12i8Lce5HC5hKcwlRlpsIf&#xD;&#xa;jajCYg2swnoFrMIEzqvCwgynwluMqcJOTK3CnjKqwjASr8KtBbTC8BG1wsxitsLKe7jCpdy2wqeL&#xD;&#xa;s8KCk7LC2b6wwnR2scJh7rHC+VqzwjNjucLgA77CEIy7wmiyt8Jj1LfCOjO7wuY+vsI8sr7CXKS8&#xD;&#xa;wlgru8KMGb3CyrXAwvCqvsK4BsDCQl/AwoTdwMK0Er/CDLzAwqBewsIUr8DCSS7AwjTjwcJSh8DC&#xD;&#xa;kAu9wvDovcLCAcTCJMzEwoY0xMLwH8TCRhfFwo5BxMIwUsLCTGTEwtLixMJqccbCYo/JwtaXyMIq&#xD;&#xa;HsXCbCrGwpQ8xcIqNcbCehLIwg6bxsLp9sjC9i3KwlD6ycJa9MjC/l3JwqwFyMKjK8nC1nDKwi7y&#xD;&#xa;x8JcacbCoQ7HwtxZycIARcrCrEHKwnX3x8Iw7sfCilfJwiutycLlccjCnD3FwqXbw8Ka28bCDXPG&#xD;&#xa;wm+wycIMGc3ChGbKwqAtxsJqOcjC+LLKwm4MzcI+NM3CHP7Mwuj3ysIVqsjCfh/LwniszsKDG8/C&#xD;&#xa;XibPwnPKzcJiN87CBnrOwggpzcJQ5MzCeGPHwlRUx8Ji5svCzjrPwvZkz8LaW83CznHOwkIIz8Je&#xD;&#xa;GNDCwT/PwupZzcLywc7CfPPPwmcm0cI0AM7CHDbKwnRFyMLoSsnCfSrLwnZly8JRn8rCB+TLwish&#xD;&#xa;zcKqYcvCjKTLwgcpy8LIP8zC9ELMwuMozMKRPs7CnCvQwkTVzcIMJc7C2K3PwiQHzMIqrczChi7S&#xD;&#xa;wlfp0MLdRM3CRNjMwsF3zcLAaM/CvqXOwroZzMJSzc7C+J/LwiV+ysKsAcvC0P/IwjT/x8LTvMnC&#xD;&#xa;lvDMwhy6z8IkUs3C1tzLwn4HzMK0u8rCsDbOwr75zsL4bs/C2CHMwlh3z8JGbdDCpSTPwmLJzsK/&#xD;&#xa;kM7CAg/QwtK8z8J6QNDCfPzPws7/zsIQSM/CpJ3RwqjI0cKynNHCqETTwnFa1MIghtDCbdzPwkq4&#xD;&#xa;0MK6EdPCyzPTwhf0z8IoDc/CeFnQwpw50MLQb9PCY83RwowH0cKHsdDC5H/Rwl7w0sL0BdbCwOHT&#xD;&#xa;wtzj0cIibtHCGmHRwlJj08LzLNPCiF7Pwkbk0cIUpNTCNqbVwsg61cJ5OtbCmPjVwoQO1MLWZdXC&#xD;&#xa;hZHVwkYq08JoENTCbsDWwubb1sJundfC7PXVwqlw1MJy4M7CuObPwmVp08LoX9XCyAfUwjAY08LS&#xD;&#xa;9NLCpvHRwkY/0sLmkNTCM4nUwqVr1sJqgdbC/j7VwsW71MK27NLCitvTwkGJ1MJbFtTCVO3RwkZI&#xD;&#xa;0sIsB9XCjOXTwoAlzcK4ls7CLlvTwjtv1cIAZtjCaoXZwitO2cJ0ENjCLPvUwjuj08Iko9PCN0/V&#xD;&#xa;wr8G1sK0AdfCMibYwuYa1cIC/dPCEc3Uwl8/08JI0NPCwAbUwiD91MJLN9XCACrQwjbWzsLcY9LC&#xD;&#xa;ZfTRwv3Y0sKmM9XCUNTUwvJm18IsRdbCSJ3Twor42sK2TO/ClKj4wo6W9MLMl/XCPkb4wnhc+MKC&#xD;&#xa;5/nC8Ar5wrwo+cL48vjCgmL4wjpv+MKatvnC4JP4wt9v98Io9/fCWJL5wjBg+cJMR/fCZA/4wp6G&#xD;&#xa;+MKUyvfC5of5woKx+sKIYfnC6un3wozp+MJyR/vCRNj+whb7+cJJkffCDtD2wvgB9cIwZ/jCvgf4&#xD;&#xa;wo7H9cJOBfbCZx/4wvoa+MLMTvnCjNT5wmPb98Lt8PbC1iv4wkin+MIoBfXCAnH1wsgO+cIgd/vC&#xD;&#xa;iGX8wj68+8Kgp/rCQsT2wt7H+MIo0vvCKk/4wkD09sKGZ/nCHpv4wjw398KPz/fCHsf4woBe+sLs&#xD;&#xa;IPrCXKj6wqwc+sLWxPrC5KX6wrZ1+cKo/vfCFnv3wnSS+cJ6yfnCXoT3whCq98I2nvnCJl34wrq6&#xD;&#xa;+MLkuPjCsnn3wvxs9sK0kfTC5Bnzwhtt9MJIl/TCrCj3wugs+cLGffjC6zz4wtRj9sJglvjCYhP5&#xD;&#xa;wio8+MJt1PbCwJ7zwm7M8sIIjPXCdv76wg5r+cIUfPnCUjz5wmkd98KSVPnCbs36wj7/+sK6I/fC&#xD;&#xa;8MH3wuIf/cI2evzCyNT5wiTT+cJ+E/vCyhr5wsqB+cIuk/rCaEH3wmxe9sIEUfXC2aj0whin9cKv&#xD;&#xa;lPTCIrPzwrjb9cI8k/jCvhb7wkCg+cLSLffCB2v2wr/59MITJvbCVkD3wrRk98ImEPrCglj5wnoW&#xD;&#xa;+cLEmvnCJNj5wmD4+8LqJ/zCSdD2wvhN9MJsHvjCKkX6wlBh+ML6DvbCKlv5wn4m+sJMHfrCLDr5&#xD;&#xa;wuzf9cLZpPTCJAL8wtqg+8JEcvfCzi/3wv7y98LEaPjCtNX5wnaI+MIVSfjCenT4wo7N+cIY7ffC&#xD;&#xa;ahT3wo8V+MIzGvfCVUf2wm1o9cJCd/XCo1f4wtx8/MJAGv3Cxrr7wmzb+sLyJ/jCbEj5wsrk+MLI&#xD;&#xa;2/fCZED4wmYj+cLKR/fCcmL3wnZR+sIkbvvCZEL6wqJR98I1avTCTkr2wipI9sLR7PbCPBn1wjRG&#xD;&#xa;9MIsGfXCeKP2wrYl9sJImfbCapj2wt6s9cLEf/bCcKz1wjBQ9MLI5vbCDCj5wrLH+MLKgffCf1X1&#xD;&#xa;wipG+sKQGvvCxgv5wk7k+ML6EvjCPO/3wshC9sLcN/fCQLP3wiQt+cJgdPjCqvL4wij0+cLKg/fC&#xD;&#xa;xjf2wroe98J8CPjCQ7IDwxjxkMKjmIjCHciUwpspmcK/4ZTCUh+Kwmd8i8KIdJHCUvubwqkzpsJz&#xD;&#xa;ZKjCWkOswoRlrMIsyqvCeOemwu+AqcJnBK3Cmw+qwroDr8JQKrTCprm0wnkStsK4jbjCfyG3wlHN&#xD;&#xa;s8K7krLCznawwpRfscKB4bHCMHCzwuoAucIqurzC48O7wn1XuMKqlbjCzo+7wotGvsKmc7/CIQ29&#xD;&#xa;wpL7u8K14r7CBPPAwjvnvsJaUcHC9nbAwhzkwMI8u7/CwnPBwsJBw8JtTsHCxCzAwnaewcLUNsHC&#xD;&#xa;pKe9wuYQvsIBQMPCMNrDwow9wsJMisTCJdHFwo7/xMIu/sHCZEbDwvXIxMLeRsbCFjzJwuiayMI1&#xD;&#xa;CMXCdurFwt+HxMJ2vcXC/7HHwtzyxcIsfsjCG67JwiBdysJ3zcrCuEjMwoSXycLCCcnCtsvKwoRd&#xD;&#xa;yMIjAsbCvjzGwhzwycKOtMnC21bIwq68x8IW2cjCApLKwv2ryMJoWcfCiIjFwjt0xMJVXcjCBU3I&#xD;&#xa;wquuysI5j8vCvh/JwijJxsKaucfCzIPJwldAzMKMnszCpRbNwjC1zMIo0sjCVnPKwtzpy8K558zC&#xD;&#xa;1hnQwlbJzsJHRdHConfRwrpRzsIOP8vCcqrHwjYtycJvgs3ClmbNwn4nzcI4XMvCjQ3Owg6/0MIY&#xD;&#xa;ZtDCgOvNwmprzMJEp83CbGnOwqSj0cKf8s/CGnjKwgosyMJIacnCpp3KwkDyy8Lvh8vC54PMwnbK&#xD;&#xa;zMK6b8zCrHzLwvG1ysLxtczCIXTNwv88zcKqX83ChpDPwmYFzsINjs7C/oLQwlDcy8Koy8vCDr3P&#xD;&#xa;woBT0cKS5tDCHj7Qwhzcz8LsXNDCFRPOwlKky8Kzl83CulzLwoqOycKDU8rCG6/IwlTEyMLW3cvC&#xD;&#xa;Hg7NwtcizsJstszCoI3KwiIny8Ks3MrCrEPOwrL9z8KYetDCSOLMwriTzsKWhNHClMTPwijTz8LG&#xD;&#xa;iNHC68bRws820MJW48/CCy/OwhTOzcL/IM/CtPzTwvkQ1cKeztPCYMXTwoDe08IO29DC9D/RwnFj&#xD;&#xa;0sKAndHC2zzRwuyDzsKh7c7C1iTSwuQf0cIGDNPCsCfRwnQ6z8KKxNHCzCXUwhAW1cJwOdbC0oPU&#xD;&#xa;wjiN0sIbwtHCIkjRwos50sI0KtHCOD7OwiAH0cKG+NXCjMvWwtvR1MJs09TCStvTwk+Y1MJledXC&#xD;&#xa;unXTwiTv08L4AtXC2jjUwvzs08IHCdfCurjUwiSy0cJUlM3CtMTOwiZa1MKaPdTCqTLUwgjQ1sKT&#xD;&#xa;ktfCQiXTwkCf08KugdTCN2XUwquv1sIMRdXCrZfUwvhi1cIyq9PCFZDTwtoN1cJwWtTCs2vSwg53&#xD;&#xa;0sLUW9TCaPbSwpwOzMKe+s3CJifTwnSz08I4rdbCfnnYwgyg2MIsVtfCFhnUwjwA0sKEJtPCkh3W&#xD;&#xa;wlKW1cICWtXCB/HWwtL608JnGNLCDP7Swrr50sIS19PCZjTUwsCz1cI2ZtXC1sLPwgCCzsKWi9LC&#xD;&#xa;wAXSwuqo0sJEatTChHLVwrCy18KSPNbCwZDTwrbf2sKtJ+7C3rb5wv6B+cKIf/XCrXf1wnoe+MJk&#xD;&#xa;Z/nCJID7wtyE+sI1w/fCw2D3wuLM98LEU/bCQL/1wquS98LURvfCDC/2wtzJ+cL2mffCag/2wgt4&#xD;&#xa;9sLYHfrCMAj7ws5n+sI0BPrCJBf6wpZH+ML8bPnCyBH7wsg5+cIEkvrCGCX7wqAA+sIOqPnCFHD4&#xD;&#xa;wiKi+cL6dvjCuND3wnld98LCI/jC6EL3whC/9sIsEfbCaPn4wtI2+MJ2ePfCo8T3wvIP+sI+ofnC&#xD;&#xa;ujf7wrLb+sK2QvnC3v75wi5/9sL3t/XCtRH3wkAO+cLquvfC4Lr2wiwq+MJ+ePjCQjX2wg48+sI6&#xD;&#xa;1frC2Hz6wlSj+cL+DfjCUA34wksc+MJg4PXCacj2whB++cLAEvvCANL4wsaa+cLuCPzCzET6wvpJ&#xD;&#xa;+cJ72ffC6fn1whbE9cJEC/jCzgL5wggu+MLclvjCXDz6wvIA+cI9hPbChlb2whwL+MKNvPXCGdH2&#xD;&#xa;wpZC+MLjUffC3O32wtTL98JwdfrC16/3wggu98L+LvnCthn8wlY4+cIYZfnCysz5wg6F+MK8fPnC&#xD;&#xa;2G/5wgzJ9sKkLffCplb5wuSn+MKOgvnC5Iv4wmBu+MIOt/fC4L/1wvPm98ImZfnCwKr3wnr19MLm&#xD;&#xa;APfCXjf5wpoc98IDePfC2D75wtwY+8L60ffCuiL3wrrI+cL6NfnCwm34wuYx98LLc/fCvrT1woi2&#xD;&#xa;9sK42PjCjOv6wjDO+cJOCvvCWI75wrjC+cLuIfjCSzH3wm9+98IYuPTCPiT1wjid98LesvnCig/3&#xD;&#xa;wqXF98JgpPjCPD/3whCG98KYkvrCejT5wupu+MKc7fbCrAL4wqgD+8I8d/rCPiz5wvbu+sLcIvjC&#xD;&#xa;whv3wm4698LEqPjCbPv3wpjE9sJdGPfCypf6wtCR+8KkUPrCzmH6wsRp+sJFHPbCptf4wsbT+sLu&#xD;&#xa;dfnC7+v2woY498IA5PnCxm34wjGy9cJejfXCZM73wu4d+MLWtPbCMMv4wvaH+8KTi/fCoJX2wloq&#xD;&#xa;+MJcd/XCuID0wjsa9sKme/jCyHH3wha/+MJYCPvCJv75wjYn98L3//XCJzT4wqSC+8L4L/nCPD31&#xD;&#xa;wlfQ88ImAPfCTKv6wtz8+sJgSPXC7Of1wpxD+MKz1ffCnD/7wlBi+MLk8/bCEsT3wjVs9MLV2/XC&#xD;&#xa;bOr6wgZl+cLe9PbCWZAC" leadInLength="0/1"  />
            </Keyframes>
           </Parameter>
           </Parameters>
           <MetaData>
            <entry key="effectIndex" val="2"/>
           </MetaData>
          </GenericEffect>
         </Effects>
         <Attributes>
          <Attribute id="155" value="" name="ident"/>
          <Attribute id="156" value="0" name="mixToMono"/>
         </Attributes>
         <MetaData>
          <entry key="AutoAppliedSmartFocus" val="False"/>
          <entry key="WinSubProjectDisplayName" val=""/>
         </MetaData>
         <ExtraData>
          <Entry key="ZoomPanBin">
           <ZoomPanBin id="157"  >
            <ZoomPanKeyframes>
             <ZoomPanKeyframe id="158" timeRangeEnd="-9999999/1" timeRangeDuration="0/1" interpolaterName="linr"  />
            </ZoomPanKeyframes>
           </ZoomPanBin>
          </Entry>
          <Entry key="CursorEffectBin">
           <CursorEffectBin id="159"  >
            <CursorEffectKeyframes>
             <CursorEffectKeyframe id="160" timeRangeEnd="-9999999/1" timeRangeDuration="0/1" interpolaterName=""  />
            </CursorEffectKeyframes>
           </CursorEffectBin>
          </Entry>
         </ExtraData>
         <GenericTrack id="161"  >
          <Attributes>
           <Attribute id="162" value="" name="ident"/>
           <Attribute id="163" value="0" name="audioMuted"/>
           <Attribute id="164" value="0" name="videoHidden"/>
          </Attributes>
          <MetaData>
           <entry key="IsLocked" val="False"/>
           <entry key="WinTrackHeight" val="0"/>
          </MetaData>
          <Medias>
           <UnifiedMedia id="165"  >
            <AMFile id="166" start="0" duration="317" scalar="1/1" mediaStart="0/1" mediaDuration="317/1" trackNumber="1" src="4" channelNumber="0,1" >
             <Parameters>
              <InterpolatingParam id="167" interp="linr"  time="0/1" value="1" leadInLength="0/1"  name="volume"/>
              <Parameter id="168"  name="captions"/>
             </Parameters>
             <Attributes>
              <Attribute id="169" value="" name="ident"/>
              <Attribute id="170" value="44100" name="sampleRate"/>
              <Attribute id="171" value="16" name="bitDepth"/>
              <Attribute id="172" value="1" name="gain"/>
              <Attribute id="173" value="0" name="mixToMono"/>
             </Attributes>
            </AMFile>
            <ScreenVMFile id="174" start="0" duration="317" scalar="1/1" mediaStart="0/1" mediaDuration="317/1" trackNumber="0" src="4" >
             <Transformer>
              <VectorParam id="175"  name="translation">
               <InterpolatingParam id="176" interp="linr"  time="-9999999/1" value="0" leadInLength="0/1"  />
               <InterpolatingParam id="177" interp="linr"  time="-9999999/1" value="0" leadInLength="0/1"  />
               <InterpolatingParam id="178" interp="linr"  time="-9999999/1" value="0" leadInLength="0/1"  />
              </VectorParam>
              <VectorParam id="179"  name="rotation">
               <InterpolatingParam id="180" interp="linr"  time="-9999999/1" value="0" leadInLength="0/1"  />
               <InterpolatingParam id="181" interp="linr"  time="-9999999/1" value="0" leadInLength="0/1"  />
               <InterpolatingParam id="182" interp="linr"  time="-9999999/1" value="0" leadInLength="0/1"  />
              </VectorParam>
              <VectorParam id="183"  name="shear">
               <InterpolatingParam id="184" interp="linr"  time="-9999999/1" value="0" leadInLength="0/1"  />
               <InterpolatingParam id="185" interp="linr"  time="-9999999/1" value="0" leadInLength="0/1"  />
               <InterpolatingParam id="186" interp="linr"  time="-9999999/1" value="0" leadInLength="0/1"  />
              </VectorParam>
              <VectorParam id="187"  name="scale">
               <InterpolatingParam id="188" interp="linr"  time="-9999999/1" value="1" leadInLength="0/1"  />
               <InterpolatingParam id="189" interp="linr"  time="-9999999/1" value="1" leadInLength="0/1"  />
               <InterpolatingParam id="190" interp="linr"  time="-9999999/1" value="1" leadInLength="0/1"  />
              </VectorParam>
              <VectorParam id="191"  name="anchor">
               <InterpolatingParam id="192" interp="linr"  time="0/1" value="0" leadInLength="0/1"  />
               <InterpolatingParam id="193" interp="linr"  time="0/1" value="0" leadInLength="0/1"  />
               <InterpolatingParam id="194" interp="linr"  time="0/1" value="0" leadInLength="0/1"  />
              </VectorParam>
             </Transformer>
             <Parameters>
              <VectorParam id="195"  name="sourceCrop">
               <InterpolatingParam id="196" interp="linr"  time="0/1" value="0" leadInLength="0/1"  />
               <InterpolatingParam id="197" interp="linr"  time="0/1" value="0" leadInLength="0/1"  />
               <InterpolatingParam id="198" interp="linr"  time="0/1" value="0" leadInLength="0/1"  />
               <InterpolatingParam id="199" interp="linr"  time="0/1" value="0" leadInLength="0/1"  />
              </VectorParam>
              <VectorParam id="200"  name="geometryCrop">
               <InterpolatingParam id="201" interp="linr"  time="-9999999/1" value="0" leadInLength="0/1"  />
               <InterpolatingParam id="202" interp="linr"  time="-9999999/1" value="0" leadInLength="0/1"  />
               <InterpolatingParam id="203" interp="linr"  time="-9999999/1" value="0" leadInLength="0/1"  />
               <InterpolatingParam id="204" interp="linr"  time="-9999999/1" value="0" leadInLength="0/1"  />
              </VectorParam>
              <InterpolatingParam id="205" interp="linr"  time="-9999999/1" value="1" leadInLength="0/1"  name="opacity"/>
              <InterpolatingParam id="206" interp="linr"  time="0/1" value="0" leadInLength="0/1"  name="cursorOpacity"/>
              <InterpolatingParam id="207" interp="linr"  time="0/1" value="0" leadInLength="0/1"  name="cursorScale"/>
             </Parameters>
             <Attributes>
              <Attribute id="208" value="" name="ident"/>
             </Attributes>
             <ExtraData>
              <Entry key="ZoomPanBin">
               <ZoomPanBin id="209"  >
                <ZoomPanKeyframes>
                 <ZoomPanKeyframe id="210" timeRangeEnd="-9999999/1" timeRangeDuration="0/1" interpolaterName=""  />
                </ZoomPanKeyframes>
               </ZoomPanBin>
              </Entry>
              <Entry key="CursorEffectBin">
               <CursorEffectBin id="211"  >
                <CursorEffectKeyframes>
                </CursorEffectKeyframes>
               </CursorEffectBin>
              </Entry>
             </ExtraData>
            </ScreenVMFile>
            <MetaData>
             <entry key="AutoAppliedSmartFocus" val="False"/>
             <entry key="WinSubProjectDisplayName" val=""/>
            </MetaData>
           </UnifiedMedia>
           <UnifiedMedia id="212"  >
            <AMFile id="213" start="317" duration="67" scalar="1/1" mediaStart="325/1" mediaDuration="67/1" trackNumber="1" src="4" channelNumber="0,1" >
             <Parameters>
              <InterpolatingParam id="214" interp="linr"  time="0/1" value="1" leadInLength="0/1"  name="volume"/>
              <Parameter id="215"  name="captions"/>
             </Parameters>
             <Attributes>
              <Attribute id="216" value="" name="ident"/>
              <Attribute id="217" value="44100" name="sampleRate"/>
              <Attribute id="218" value="16" name="bitDepth"/>
              <Attribute id="219" value="1" name="gain"/>
              <Attribute id="220" value="0" name="mixToMono"/>
             </Attributes>
            </AMFile>
            <ScreenVMFile id="221" start="317" duration="67" scalar="1/1" mediaStart="325/1" mediaDuration="67/1" trackNumber="0" src="4" >
             <Transformer>
              <VectorParam id="222"  name="translation">
               <InterpolatingParam id="223" interp="linr"  time="-9999999/1" value="0" leadInLength="0/1"  />
               <InterpolatingParam id="224" interp="linr"  time="-9999999/1" value="0" leadInLength="0/1"  />
               <InterpolatingParam id="225" interp="linr"  time="-9999999/1" value="0" leadInLength="0/1"  />
              </VectorParam>
              <VectorParam id="226"  name="rotation">
               <InterpolatingParam id="227" interp="linr"  time="-9999999/1" value="0" leadInLength="0/1"  />
               <InterpolatingParam id="228" interp="linr"  time="-9999999/1" value="0" leadInLength="0/1"  />
               <InterpolatingParam id="229" interp="linr"  time="-9999999/1" value="0" leadInLength="0/1"  />
              </VectorParam>
              <VectorParam id="230"  name="shear">
               <InterpolatingParam id="231" interp="linr"  time="-9999999/1" value="0" leadInLength="0/1"  />
               <InterpolatingParam id="232" interp="linr"  time="-9999999/1" value="0" leadInLength="0/1"  />
               <InterpolatingParam id="233" interp="linr"  time="-9999999/1" value="0" leadInLength="0/1"  />
              </VectorParam>
              <VectorParam id="234"  name="scale">
               <InterpolatingParam id="235" interp="linr"  time="-9999999/1" value="1" leadInLength="0/1"  />
               <InterpolatingParam id="236" interp="linr"  time="-9999999/1" value="1" leadInLength="0/1"  />
               <InterpolatingParam id="237" interp="linr"  time="-9999999/1" value="1" leadInLength="0/1"  />
              </VectorParam>
              <VectorParam id="238"  name="anchor">
               <InterpolatingParam id="239" interp="linr"  time="0/1" value="0" leadInLength="0/1"  />
               <InterpolatingParam id="240" interp="linr"  time="0/1" value="0" leadInLength="0/1"  />
               <InterpolatingParam id="241" interp="linr"  time="0/1" value="0" leadInLength="0/1"  />
              </VectorParam>
             </Transformer>
             <Parameters>
              <VectorParam id="242"  name="sourceCrop">
               <InterpolatingParam id="243" interp="linr"  time="0/1" value="0" leadInLength="0/1"  />
               <InterpolatingParam id="244" interp="linr"  time="0/1" value="0" leadInLength="0/1"  />
               <InterpolatingParam id="245" interp="linr"  time="0/1" value="0" leadInLength="0/1"  />
               <InterpolatingParam id="246" interp="linr"  time="0/1" value="0" leadInLength="0/1"  />
              </VectorParam>
              <VectorParam id="247"  name="geometryCrop">
               <InterpolatingParam id="248" interp="linr"  time="-9999999/1" value="0" leadInLength="0/1"  />
               <InterpolatingParam id="249" interp="linr"  time="-9999999/1" value="0" leadInLength="0/1"  />
               <InterpolatingParam id="250" interp="linr"  time="-9999999/1" value="0" leadInLength="0/1"  />
               <InterpolatingParam id="251" interp="linr"  time="-9999999/1" value="0" leadInLength="0/1"  />
              </VectorParam>
              <InterpolatingParam id="252" interp="linr"  time="-9999999/1" value="1" leadInLength="0/1"  name="opacity"/>
              <InterpolatingParam id="253" interp="linr"  time="0/1" value="0" leadInLength="0/1"  name="cursorOpacity"/>
              <InterpolatingParam id="254" interp="linr"  time="0/1" value="0" leadInLength="0/1"  name="cursorScale"/>
             </Parameters>
             <Attributes>
              <Attribute id="255" value="" name="ident"/>
             </Attributes>
             <ExtraData>
              <Entry key="ZoomPanBin">
               <ZoomPanBin id="256"  >
                <ZoomPanKeyframes>
                 <ZoomPanKeyframe id="257" timeRangeEnd="-9999999/1" timeRangeDuration="0/1" interpolaterName=""  />
                </ZoomPanKeyframes>
               </ZoomPanBin>
              </Entry>
              <Entry key="CursorEffectBin">
               <CursorEffectBin id="258"  >
                <CursorEffectKeyframes>
                </CursorEffectKeyframes>
               </CursorEffectBin>
              </Entry>
             </ExtraData>
            </ScreenVMFile>
            <MetaData>
             <entry key="AutoAppliedSmartFocus" val="False"/>
             <entry key="WinSubProjectDisplayName" val=""/>
            </MetaData>
           </UnifiedMedia>
           <UnifiedMedia id="259"  >
            <AMFile id="260" start="384" duration="60" scalar="1/1" mediaStart="398/1" mediaDuration="60/1" trackNumber="1" src="4" channelNumber="0,1" >
             <Parameters>
              <InterpolatingParam id="261" interp="linr"  time="0/1" value="1" leadInLength="0/1"  name="volume"/>
              <Parameter id="262"  name="captions"/>
             </Parameters>
             <Attributes>
              <Attribute id="263" value="" name="ident"/>
              <Attribute id="264" value="44100" name="sampleRate"/>
              <Attribute id="265" value="16" name="bitDepth"/>
              <Attribute id="266" value="1" name="gain"/>
              <Attribute id="267" value="0" name="mixToMono"/>
             </Attributes>
            </AMFile>
            <ScreenVMFile id="268" start="384" duration="60" scalar="1/1" mediaStart="398/1" mediaDuration="60/1" trackNumber="0" src="4" >
             <Transformer>
              <VectorParam id="269"  name="translation">
               <InterpolatingParam id="270" interp="linr"  time="-9999999/1" value="0" leadInLength="0/1"  />
               <InterpolatingParam id="271" interp="linr"  time="-9999999/1" value="0" leadInLength="0/1"  />
               <InterpolatingParam id="272" interp="linr"  time="-9999999/1" value="0" leadInLength="0/1"  />
              </VectorParam>
              <VectorParam id="273"  name="rotation">
               <InterpolatingParam id="274" interp="linr"  time="-9999999/1" value="0" leadInLength="0/1"  />
               <InterpolatingParam id="275" interp="linr"  time="-9999999/1" value="0" leadInLength="0/1"  />
               <InterpolatingParam id="276" interp="linr"  time="-9999999/1" value="0" leadInLength="0/1"  />
              </VectorParam>
              <VectorParam id="277"  name="shear">
               <InterpolatingParam id="278" interp="linr"  time="-9999999/1" value="0" leadInLength="0/1"  />
               <InterpolatingParam id="279" interp="linr"  time="-9999999/1" value="0" leadInLength="0/1"  />
               <InterpolatingParam id="280" interp="linr"  time="-9999999/1" value="0" leadInLength="0/1"  />
              </VectorParam>
              <VectorParam id="281"  name="scale">
               <InterpolatingParam id="282" interp="linr"  time="-9999999/1" value="1" leadInLength="0/1"  />
               <InterpolatingParam id="283" interp="linr"  time="-9999999/1" value="1" leadInLength="0/1"  />
               <InterpolatingParam id="284" interp="linr"  time="-9999999/1" value="1" leadInLength="0/1"  />
              </VectorParam>
              <VectorParam id="285"  name="anchor">
               <InterpolatingParam id="286" interp="linr"  time="0/1" value="0" leadInLength="0/1"  />
               <InterpolatingParam id="287" interp="linr"  time="0/1" value="0" leadInLength="0/1"  />
               <InterpolatingParam id="288" interp="linr"  time="0/1" value="0" leadInLength="0/1"  />
              </VectorParam>
             </Transformer>
             <Parameters>
              <VectorParam id="289"  name="sourceCrop">
               <InterpolatingParam id="290" interp="linr"  time="0/1" value="0" leadInLength="0/1"  />
               <InterpolatingParam id="291" interp="linr"  time="0/1" value="0" leadInLength="0/1"  />
               <InterpolatingParam id="292" interp="linr"  time="0/1" value="0" leadInLength="0/1"  />
               <InterpolatingParam id="293" interp="linr"  time="0/1" value="0" leadInLength="0/1"  />
              </VectorParam>
              <VectorParam id="294"  name="geometryCrop">
               <InterpolatingParam id="295" interp="linr"  time="-9999999/1" value="0" leadInLength="0/1"  />
               <InterpolatingParam id="296" interp="linr"  time="-9999999/1" value="0" leadInLength="0/1"  />
               <InterpolatingParam id="297" interp="linr"  time="-9999999/1" value="0" leadInLength="0/1"  />
               <InterpolatingParam id="298" interp="linr"  time="-9999999/1" value="0" leadInLength="0/1"  />
              </VectorParam>
              <InterpolatingParam id="299" interp="linr"  time="-9999999/1" value="1" leadInLength="0/1"  name="opacity"/>
              <InterpolatingParam id="300" interp="linr"  time="0/1" value="0" leadInLength="0/1"  name="cursorOpacity"/>
              <InterpolatingParam id="301" interp="linr"  time="0/1" value="0" leadInLength="0/1"  name="cursorScale"/>
             </Parameters>
             <Attributes>
              <Attribute id="302" value="" name="ident"/>
             </Attributes>
             <ExtraData>
              <Entry key="ZoomPanBin">
               <ZoomPanBin id="303"  >
                <ZoomPanKeyframes>
                 <ZoomPanKeyframe id="304" timeRangeEnd="-9999999/1" timeRangeDuration="0/1" interpolaterName=""  />
                </ZoomPanKeyframes>
               </ZoomPanBin>
              </Entry>
              <Entry key="CursorEffectBin">
               <CursorEffectBin id="305"  >
                <CursorEffectKeyframes>
                </CursorEffectKeyframes>
               </CursorEffectBin>
              </Entry>
             </ExtraData>
            </ScreenVMFile>
            <MetaData>
             <entry key="AutoAppliedSmartFocus" val="False"/>
             <entry key="WinSubProjectDisplayName" val=""/>
            </MetaData>
           </UnifiedMedia>
           <UnifiedMedia id="306"  >
            <AMFile id="307" start="444" duration="186" scalar="1/1" mediaStart="469/1" mediaDuration="186/1" trackNumber="1" src="4" channelNumber="0,1" >
             <Parameters>
              <InterpolatingParam id="308" interp="linr"  time="0/1" value="1" leadInLength="0/1"  name="volume"/>
              <Parameter id="309"  name="captions"/>
             </Parameters>
             <Attributes>
              <Attribute id="310" value="" name="ident"/>
              <Attribute id="311" value="44100" name="sampleRate"/>
              <Attribute id="312" value="16" name="bitDepth"/>
              <Attribute id="313" value="1" name="gain"/>
              <Attribute id="314" value="0" name="mixToMono"/>
             </Attributes>
            </AMFile>
            <ScreenVMFile id="315" start="444" duration="186" scalar="1/1" mediaStart="469/1" mediaDuration="186/1" trackNumber="0" src="4" >
             <Transformer>
              <VectorParam id="316"  name="translation">
               <InterpolatingParam id="317" interp="linr"  time="-9999999/1" value="0" leadInLength="0/1"  />
               <InterpolatingParam id="318" interp="linr"  time="-9999999/1" value="0" leadInLength="0/1"  />
               <InterpolatingParam id="319" interp="linr"  time="-9999999/1" value="0" leadInLength="0/1"  />
              </VectorParam>
              <VectorParam id="320"  name="rotation">
               <InterpolatingParam id="321" interp="linr"  time="-9999999/1" value="0" leadInLength="0/1"  />
               <InterpolatingParam id="322" interp="linr"  time="-9999999/1" value="0" leadInLength="0/1"  />
               <InterpolatingParam id="323" interp="linr"  time="-9999999/1" value="0" leadInLength="0/1"  />
              </VectorParam>
              <VectorParam id="324"  name="shear">
               <InterpolatingParam id="325" interp="linr"  time="-9999999/1" value="0" leadInLength="0/1"  />
               <InterpolatingParam id="326" interp="linr"  time="-9999999/1" value="0" leadInLength="0/1"  />
               <InterpolatingParam id="327" interp="linr"  time="-9999999/1" value="0" leadInLength="0/1"  />
              </VectorParam>
              <VectorParam id="328"  name="scale">
               <InterpolatingParam id="329" interp="linr"  time="-9999999/1" value="1" leadInLength="0/1"  />
               <InterpolatingParam id="330" interp="linr"  time="-9999999/1" value="1" leadInLength="0/1"  />
               <InterpolatingParam id="331" interp="linr"  time="-9999999/1" value="1" leadInLength="0/1"  />
              </VectorParam>
              <VectorParam id="332"  name="anchor">
               <InterpolatingParam id="333" interp="linr"  time="0/1" value="0" leadInLength="0/1"  />
               <InterpolatingParam id="334" interp="linr"  time="0/1" value="0" leadInLength="0/1"  />
               <InterpolatingParam id="335" interp="linr"  time="0/1" value="0" leadInLength="0/1"  />
              </VectorParam>
             </Transformer>
             <Parameters>
              <VectorParam id="336"  name="sourceCrop">
               <InterpolatingParam id="337" interp="linr"  time="0/1" value="0" leadInLength="0/1"  />
               <InterpolatingParam id="338" interp="linr"  time="0/1" value="0" leadInLength="0/1"  />
               <InterpolatingParam id="339" interp="linr"  time="0/1" value="0" leadInLength="0/1"  />
               <InterpolatingParam id="340" interp="linr"  time="0/1" value="0" leadInLength="0/1"  />
              </VectorParam>
              <VectorParam id="341"  name="geometryCrop">
               <InterpolatingParam id="342" interp="linr"  time="-9999999/1" value="0" leadInLength="0/1"  />
               <InterpolatingParam id="343" interp="linr"  time="-9999999/1" value="0" leadInLength="0/1"  />
               <InterpolatingParam id="344" interp="linr"  time="-9999999/1" value="0" leadInLength="0/1"  />
               <InterpolatingParam id="345" interp="linr"  time="-9999999/1" value="0" leadInLength="0/1"  />
              </VectorParam>
              <InterpolatingParam id="346" interp="linr"  time="-9999999/1" value="1" leadInLength="0/1"  name="opacity"/>
              <InterpolatingParam id="347" interp="linr"  time="0/1" value="0" leadInLength="0/1"  name="cursorOpacity"/>
              <InterpolatingParam id="348" interp="linr"  time="0/1" value="0" leadInLength="0/1"  name="cursorScale"/>
             </Parameters>
             <Attributes>
              <Attribute id="349" value="" name="ident"/>
             </Attributes>
             <ExtraData>
              <Entry key="ZoomPanBin">
               <ZoomPanBin id="350"  >
                <ZoomPanKeyframes>
                 <ZoomPanKeyframe id="351" timeRangeEnd="-9999999/1" timeRangeDuration="0/1" interpolaterName=""  />
                </ZoomPanKeyframes>
               </ZoomPanBin>
              </Entry>
              <Entry key="CursorEffectBin">
               <CursorEffectBin id="352"  >
                <CursorEffectKeyframes>
                </CursorEffectKeyframes>
               </CursorEffectBin>
              </Entry>
             </ExtraData>
            </ScreenVMFile>
            <MetaData>
             <entry key="AutoAppliedSmartFocus" val="False"/>
             <entry key="WinSubProjectDisplayName" val=""/>
            </MetaData>
           </UnifiedMedia>
           <UnifiedMedia id="353"  >
            <AMFile id="354" start="630" duration="102" scalar="1/1" mediaStart="748/1" mediaDuration="102/1" trackNumber="1" src="4" channelNumber="0,1" >
             <Parameters>
              <InterpolatingParam id="355" interp="linr"  time="0/1" value="1" leadInLength="0/1"  name="volume"/>
              <Parameter id="356"  name="captions"/>
             </Parameters>
             <Attributes>
              <Attribute id="357" value="" name="ident"/>
              <Attribute id="358" value="44100" name="sampleRate"/>
              <Attribute id="359" value="16" name="bitDepth"/>
              <Attribute id="360" value="1" name="gain"/>
              <Attribute id="361" value="0" name="mixToMono"/>
             </Attributes>
            </AMFile>
            <ScreenVMFile id="362" start="630" duration="102" scalar="1/1" mediaStart="748/1" mediaDuration="102/1" trackNumber="0" src="4" >
             <Transformer>
              <VectorParam id="363"  name="translation">
               <InterpolatingParam id="364" interp="linr"  time="-9999999/1" value="0" leadInLength="0/1"  />
               <InterpolatingParam id="365" interp="linr"  time="-9999999/1" value="0" leadInLength="0/1"  />
               <InterpolatingParam id="366" interp="linr"  time="-9999999/1" value="0" leadInLength="0/1"  />
              </VectorParam>
              <VectorParam id="367"  name="rotation">
               <InterpolatingParam id="368" interp="linr"  time="-9999999/1" value="0" leadInLength="0/1"  />
               <InterpolatingParam id="369" interp="linr"  time="-9999999/1" value="0" leadInLength="0/1"  />
               <InterpolatingParam id="370" interp="linr"  time="-9999999/1" value="0" leadInLength="0/1"  />
              </VectorParam>
              <VectorParam id="371"  name="shear">
               <InterpolatingParam id="372" interp="linr"  time="-9999999/1" value="0" leadInLength="0/1"  />
               <InterpolatingParam id="373" interp="linr"  time="-9999999/1" value="0" leadInLength="0/1"  />
               <InterpolatingParam id="374" interp="linr"  time="-9999999/1" value="0" leadInLength="0/1"  />
              </VectorParam>
              <VectorParam id="375"  name="scale">
               <InterpolatingParam id="376" interp="linr"  time="-9999999/1" value="1" leadInLength="0/1"  />
               <InterpolatingParam id="377" interp="linr"  time="-9999999/1" value="1" leadInLength="0/1"  />
               <InterpolatingParam id="378" interp="linr"  time="-9999999/1" value="1" leadInLength="0/1"  />
              </VectorParam>
              <VectorParam id="379"  name="anchor">
               <InterpolatingParam id="380" interp="linr"  time="0/1" value="0" leadInLength="0/1"  />
               <InterpolatingParam id="381" interp="linr"  time="0/1" value="0" leadInLength="0/1"  />
               <InterpolatingParam id="382" interp="linr"  time="0/1" value="0" leadInLength="0/1"  />
              </VectorParam>
             </Transformer>
             <Parameters>
              <VectorParam id="383"  name="sourceCrop">
               <InterpolatingParam id="384" interp="linr"  time="0/1" value="0" leadInLength="0/1"  />
               <InterpolatingParam id="385" interp="linr"  time="0/1" value="0" leadInLength="0/1"  />
               <InterpolatingParam id="386" interp="linr"  time="0/1" value="0" leadInLength="0/1"  />
               <InterpolatingParam id="387" interp="linr"  time="0/1" value="0" leadInLength="0/1"  />
              </VectorParam>
              <VectorParam id="388"  name="geometryCrop">
               <InterpolatingParam id="389" interp="linr"  time="-9999999/1" value="0" leadInLength="0/1"  />
               <InterpolatingParam id="390" interp="linr"  time="-9999999/1" value="0" leadInLength="0/1"  />
               <InterpolatingParam id="391" interp="linr"  time="-9999999/1" value="0" leadInLength="0/1"  />
               <InterpolatingParam id="392" interp="linr"  time="-9999999/1" value="0" leadInLength="0/1"  />
              </VectorParam>
              <InterpolatingParam id="393" interp="linr"  time="-9999999/1" value="1" leadInLength="0/1"  name="opacity"/>
              <InterpolatingParam id="394" interp="linr"  time="0/1" value="0" leadInLength="0/1"  name="cursorOpacity"/>
              <InterpolatingParam id="395" interp="linr"  time="0/1" value="0" leadInLength="0/1"  name="cursorScale"/>
             </Parameters>
             <Attributes>
              <Attribute id="396" value="" name="ident"/>
             </Attributes>
             <ExtraData>
              <Entry key="ZoomPanBin">
               <ZoomPanBin id="397"  >
                <ZoomPanKeyframes>
                 <ZoomPanKeyframe id="398" timeRangeEnd="-9999999/1" timeRangeDuration="0/1" interpolaterName=""  />
                </ZoomPanKeyframes>
               </ZoomPanBin>
              </Entry>
              <Entry key="CursorEffectBin">
               <CursorEffectBin id="399"  >
                <CursorEffectKeyframes>
                </CursorEffectKeyframes>
               </CursorEffectBin>
              </Entry>
             </ExtraData>
            </ScreenVMFile>
            <MetaData>
             <entry key="AutoAppliedSmartFocus" val="False"/>
             <entry key="WinSubProjectDisplayName" val=""/>
            </MetaData>
           </UnifiedMedia>
           <UnifiedMedia id="400"  >
            <AMFile id="401" start="732" duration="162" scalar="1/1" mediaStart="1362/1" mediaDuration="162/1" trackNumber="1" src="4" channelNumber="0,1" >
             <Parameters>
              <InterpolatingParam id="402" interp="linr"  time="0/1" value="1" leadInLength="0/1"  name="volume"/>
              <Parameter id="403"  name="captions"/>
             </Parameters>
             <Attributes>
              <Attribute id="404" value="" name="ident"/>
              <Attribute id="405" value="44100" name="sampleRate"/>
              <Attribute id="406" value="16" name="bitDepth"/>
              <Attribute id="407" value="1" name="gain"/>
              <Attribute id="408" value="0" name="mixToMono"/>
             </Attributes>
            </AMFile>
            <ScreenVMFile id="409" start="732" duration="162" scalar="1/1" mediaStart="1362/1" mediaDuration="162/1" trackNumber="0" src="4" >
             <Transformer>
              <VectorParam id="410"  name="translation">
               <InterpolatingParam id="411" interp="linr"  time="-9999999/1" value="0" leadInLength="0/1"  />
               <InterpolatingParam id="412" interp="linr"  time="-9999999/1" value="0" leadInLength="0/1"  />
               <InterpolatingParam id="413" interp="linr"  time="-9999999/1" value="0" leadInLength="0/1"  />
              </VectorParam>
              <VectorParam id="414"  name="rotation">
               <InterpolatingParam id="415" interp="linr"  time="-9999999/1" value="0" leadInLength="0/1"  />
               <InterpolatingParam id="416" interp="linr"  time="-9999999/1" value="0" leadInLength="0/1"  />
               <InterpolatingParam id="417" interp="linr"  time="-9999999/1" value="0" leadInLength="0/1"  />
              </VectorParam>
              <VectorParam id="418"  name="shear">
               <InterpolatingParam id="419" interp="linr"  time="-9999999/1" value="0" leadInLength="0/1"  />
               <InterpolatingParam id="420" interp="linr"  time="-9999999/1" value="0" leadInLength="0/1"  />
               <InterpolatingParam id="421" interp="linr"  time="-9999999/1" value="0" leadInLength="0/1"  />
              </VectorParam>
              <VectorParam id="422"  name="scale">
               <InterpolatingParam id="423" interp="linr"  time="-9999999/1" value="1" leadInLength="0/1"  />
               <InterpolatingParam id="424" interp="linr"  time="-9999999/1" value="1" leadInLength="0/1"  />
               <InterpolatingParam id="425" interp="linr"  time="-9999999/1" value="1" leadInLength="0/1"  />
              </VectorParam>
              <VectorParam id="426"  name="anchor">
               <InterpolatingParam id="427" interp="linr"  time="0/1" value="0" leadInLength="0/1"  />
               <InterpolatingParam id="428" interp="linr"  time="0/1" value="0" leadInLength="0/1"  />
               <InterpolatingParam id="429" interp="linr"  time="0/1" value="0" leadInLength="0/1"  />
              </VectorParam>
             </Transformer>
             <Parameters>
              <VectorParam id="430"  name="sourceCrop">
               <InterpolatingParam id="431" interp="linr"  time="0/1" value="0" leadInLength="0/1"  />
               <InterpolatingParam id="432" interp="linr"  time="0/1" value="0" leadInLength="0/1"  />
               <InterpolatingParam id="433" interp="linr"  time="0/1" value="0" leadInLength="0/1"  />
               <InterpolatingParam id="434" interp="linr"  time="0/1" value="0" leadInLength="0/1"  />
              </VectorParam>
              <VectorParam id="435"  name="geometryCrop">
               <InterpolatingParam id="436" interp="linr"  time="-9999999/1" value="0" leadInLength="0/1"  />
               <InterpolatingParam id="437" interp="linr"  time="-9999999/1" value="0" leadInLength="0/1"  />
               <InterpolatingParam id="438" interp="linr"  time="-9999999/1" value="0" leadInLength="0/1"  />
               <InterpolatingParam id="439" interp="linr"  time="-9999999/1" value="0" leadInLength="0/1"  />
              </VectorParam>
              <InterpolatingParam id="440" interp="linr"  time="-9999999/1" value="1" leadInLength="0/1"  name="opacity"/>
              <InterpolatingParam id="441" interp="linr"  time="0/1" value="0" leadInLength="0/1"  name="cursorOpacity"/>
              <InterpolatingParam id="442" interp="linr"  time="0/1" value="0" leadInLength="0/1"  name="cursorScale"/>
             </Parameters>
             <Attributes>
              <Attribute id="443" value="" name="ident"/>
             </Attributes>
             <ExtraData>
              <Entry key="ZoomPanBin">
               <ZoomPanBin id="444"  >
                <ZoomPanKeyframes>
                 <ZoomPanKeyframe id="445" timeRangeEnd="-9999999/1" timeRangeDuration="0/1" interpolaterName=""  />
                </ZoomPanKeyframes>
               </ZoomPanBin>
              </Entry>
              <Entry key="CursorEffectBin">
               <CursorEffectBin id="446"  >
                <CursorEffectKeyframes>
                </CursorEffectKeyframes>
               </CursorEffectBin>
              </Entry>
             </ExtraData>
            </ScreenVMFile>
            <MetaData>
             <entry key="AutoAppliedSmartFocus" val="False"/>
             <entry key="WinSubProjectDisplayName" val=""/>
            </MetaData>
           </UnifiedMedia>
           <UnifiedMedia id="447"  >
            <AMFile id="448" start="894" duration="121" scalar="1/1" mediaStart="1631/1" mediaDuration="121/1" trackNumber="1" src="4" channelNumber="0,1" >
             <Parameters>
              <InterpolatingParam id="449" interp="linr"  time="0/1" value="1" leadInLength="0/1"  name="volume"/>
              <Parameter id="450"  name="captions"/>
             </Parameters>
             <Attributes>
              <Attribute id="451" value="" name="ident"/>
              <Attribute id="452" value="44100" name="sampleRate"/>
              <Attribute id="453" value="16" name="bitDepth"/>
              <Attribute id="454" value="1" name="gain"/>
              <Attribute id="455" value="0" name="mixToMono"/>
             </Attributes>
            </AMFile>
            <ScreenVMFile id="456" start="894" duration="121" scalar="1/1" mediaStart="1631/1" mediaDuration="121/1" trackNumber="0" src="4" >
             <Transformer>
              <VectorParam id="457"  name="translation">
               <InterpolatingParam id="458" interp="linr"  time="-9999999/1" value="0" leadInLength="0/1"  />
               <InterpolatingParam id="459" interp="linr"  time="-9999999/1" value="0" leadInLength="0/1"  />
               <InterpolatingParam id="460" interp="linr"  time="-9999999/1" value="0" leadInLength="0/1"  />
              </VectorParam>
              <VectorParam id="461"  name="rotation">
               <InterpolatingParam id="462" interp="linr"  time="-9999999/1" value="0" leadInLength="0/1"  />
               <InterpolatingParam id="463" interp="linr"  time="-9999999/1" value="0" leadInLength="0/1"  />
               <InterpolatingParam id="464" interp="linr"  time="-9999999/1" value="0" leadInLength="0/1"  />
              </VectorParam>
              <VectorParam id="465"  name="shear">
               <InterpolatingParam id="466" interp="linr"  time="-9999999/1" value="0" leadInLength="0/1"  />
               <InterpolatingParam id="467" interp="linr"  time="-9999999/1" value="0" leadInLength="0/1"  />
               <InterpolatingParam id="468" interp="linr"  time="-9999999/1" value="0" leadInLength="0/1"  />
              </VectorParam>
              <VectorParam id="469"  name="scale">
               <InterpolatingParam id="470" interp="linr"  time="-9999999/1" value="1" leadInLength="0/1"  />
               <InterpolatingParam id="471" interp="linr"  time="-9999999/1" value="1" leadInLength="0/1"  />
               <InterpolatingParam id="472" interp="linr"  time="-9999999/1" value="1" leadInLength="0/1"  />
              </VectorParam>
              <VectorParam id="473"  name="anchor">
               <InterpolatingParam id="474" interp="linr"  time="0/1" value="0" leadInLength="0/1"  />
               <InterpolatingParam id="475" interp="linr"  time="0/1" value="0" leadInLength="0/1"  />
               <InterpolatingParam id="476" interp="linr"  time="0/1" value="0" leadInLength="0/1"  />
              </VectorParam>
             </Transformer>
             <Parameters>
              <VectorParam id="477"  name="sourceCrop">
               <InterpolatingParam id="478" interp="linr"  time="0/1" value="0" leadInLength="0/1"  />
               <InterpolatingParam id="479" interp="linr"  time="0/1" value="0" leadInLength="0/1"  />
               <InterpolatingParam id="480" interp="linr"  time="0/1" value="0" leadInLength="0/1"  />
               <InterpolatingParam id="481" interp="linr"  time="0/1" value="0" leadInLength="0/1"  />
              </VectorParam>
              <VectorParam id="482"  name="geometryCrop">
               <InterpolatingParam id="483" interp="linr"  time="-9999999/1" value="0" leadInLength="0/1"  />
               <InterpolatingParam id="484" interp="linr"  time="-9999999/1" value="0" leadInLength="0/1"  />
               <InterpolatingParam id="485" interp="linr"  time="-9999999/1" value="0" leadInLength="0/1"  />
               <InterpolatingParam id="486" interp="linr"  time="-9999999/1" value="0" leadInLength="0/1"  />
              </VectorParam>
              <InterpolatingParam id="487" interp="linr"  time="-9999999/1" value="1" leadInLength="0/1"  name="opacity"/>
              <InterpolatingParam id="488" interp="linr"  time="0/1" value="0" leadInLength="0/1"  name="cursorOpacity"/>
              <InterpolatingParam id="489" interp="linr"  time="0/1" value="0" leadInLength="0/1"  name="cursorScale"/>
             </Parameters>
             <Attributes>
              <Attribute id="490" value="" name="ident"/>
             </Attributes>
             <ExtraData>
              <Entry key="ZoomPanBin">
               <ZoomPanBin id="491"  >
                <ZoomPanKeyframes>
                 <ZoomPanKeyframe id="492" timeRangeEnd="-9999999/1" timeRangeDuration="0/1" interpolaterName=""  />
                </ZoomPanKeyframes>
               </ZoomPanBin>
              </Entry>
              <Entry key="CursorEffectBin">
               <CursorEffectBin id="493"  >
                <CursorEffectKeyframes>
                </CursorEffectKeyframes>
               </CursorEffectBin>
              </Entry>
             </ExtraData>
            </ScreenVMFile>
            <MetaData>
             <entry key="AutoAppliedSmartFocus" val="False"/>
             <entry key="WinSubProjectDisplayName" val=""/>
            </MetaData>
           </UnifiedMedia>
           <UnifiedMedia id="494"  >
            <AMFile id="495" start="1015" duration="85" scalar="1/1" mediaStart="1764/1" mediaDuration="85/1" trackNumber="1" src="4" channelNumber="0,1" >
             <Parameters>
              <InterpolatingParam id="496" interp="linr"  time="0/1" value="1" leadInLength="0/1"  name="volume"/>
              <Parameter id="497"  name="captions"/>
             </Parameters>
             <Attributes>
              <Attribute id="498" value="" name="ident"/>
              <Attribute id="499" value="44100" name="sampleRate"/>
              <Attribute id="500" value="16" name="bitDepth"/>
              <Attribute id="501" value="1" name="gain"/>
              <Attribute id="502" value="0" name="mixToMono"/>
             </Attributes>
            </AMFile>
            <ScreenVMFile id="503" start="1015" duration="85" scalar="1/1" mediaStart="1764/1" mediaDuration="85/1" trackNumber="0" src="4" >
             <Transformer>
              <VectorParam id="504"  name="translation">
               <InterpolatingParam id="505" interp="linr"  time="-9999999/1" value="0" leadInLength="0/1"  />
               <InterpolatingParam id="506" interp="linr"  time="-9999999/1" value="0" leadInLength="0/1"  />
               <InterpolatingParam id="507" interp="linr"  time="-9999999/1" value="0" leadInLength="0/1"  />
              </VectorParam>
              <VectorParam id="508"  name="rotation">
               <InterpolatingParam id="509" interp="linr"  time="-9999999/1" value="0" leadInLength="0/1"  />
               <InterpolatingParam id="510" interp="linr"  time="-9999999/1" value="0" leadInLength="0/1"  />
               <InterpolatingParam id="511" interp="linr"  time="-9999999/1" value="0" leadInLength="0/1"  />
              </VectorParam>
              <VectorParam id="512"  name="shear">
               <InterpolatingParam id="513" interp="linr"  time="-9999999/1" value="0" leadInLength="0/1"  />
               <InterpolatingParam id="514" interp="linr"  time="-9999999/1" value="0" leadInLength="0/1"  />
               <InterpolatingParam id="515" interp="linr"  time="-9999999/1" value="0" leadInLength="0/1"  />
              </VectorParam>
              <VectorParam id="516"  name="scale">
               <InterpolatingParam id="517" interp="linr"  time="-9999999/1" value="1" leadInLength="0/1"  />
               <InterpolatingParam id="518" interp="linr"  time="-9999999/1" value="1" leadInLength="0/1"  />
               <InterpolatingParam id="519" interp="linr"  time="-9999999/1" value="1" leadInLength="0/1"  />
              </VectorParam>
              <VectorParam id="520"  name="anchor">
               <InterpolatingParam id="521" interp="linr"  time="0/1" value="0" leadInLength="0/1"  />
               <InterpolatingParam id="522" interp="linr"  time="0/1" value="0" leadInLength="0/1"  />
               <InterpolatingParam id="523" interp="linr"  time="0/1" value="0" leadInLength="0/1"  />
              </VectorParam>
             </Transformer>
             <Parameters>
              <VectorParam id="524"  name="sourceCrop">
               <InterpolatingParam id="525" interp="linr"  time="0/1" value="0" leadInLength="0/1"  />
               <InterpolatingParam id="526" interp="linr"  time="0/1" value="0" leadInLength="0/1"  />
               <InterpolatingParam id="527" interp="linr"  time="0/1" value="0" leadInLength="0/1"  />
               <InterpolatingParam id="528" interp="linr"  time="0/1" value="0" leadInLength="0/1"  />
              </VectorParam>
              <VectorParam id="529"  name="geometryCrop">
               <InterpolatingParam id="530" interp="linr"  time="-9999999/1" value="0" leadInLength="0/1"  />
               <InterpolatingParam id="531" interp="linr"  time="-9999999/1" value="0" leadInLength="0/1"  />
               <InterpolatingParam id="532" interp="linr"  time="-9999999/1" value="0" leadInLength="0/1"  />
               <InterpolatingParam id="533" interp="linr"  time="-9999999/1" value="0" leadInLength="0/1"  />
              </VectorParam>
              <InterpolatingParam id="534" interp="linr"  time="-9999999/1" value="1" leadInLength="0/1"  name="opacity"/>
              <InterpolatingParam id="535" interp="linr"  time="0/1" value="0" leadInLength="0/1"  name="cursorOpacity"/>
              <InterpolatingParam id="536" interp="linr"  time="0/1" value="0" leadInLength="0/1"  name="cursorScale"/>
             </Parameters>
             <Attributes>
              <Attribute id="537" value="" name="ident"/>
             </Attributes>
             <ExtraData>
              <Entry key="ZoomPanBin">
               <ZoomPanBin id="538"  >
                <ZoomPanKeyframes>
                 <ZoomPanKeyframe id="539" timeRangeEnd="-9999999/1" timeRangeDuration="0/1" interpolaterName=""  />
                </ZoomPanKeyframes>
               </ZoomPanBin>
              </Entry>
              <Entry key="CursorEffectBin">
               <CursorEffectBin id="540"  >
                <CursorEffectKeyframes>
                </CursorEffectKeyframes>
               </CursorEffectBin>
              </Entry>
             </ExtraData>
            </ScreenVMFile>
            <MetaData>
             <entry key="AutoAppliedSmartFocus" val="False"/>
             <entry key="WinSubProjectDisplayName" val=""/>
            </MetaData>
           </UnifiedMedia>
           <UnifiedMedia id="541"  >
            <AMFile id="542" start="1100" duration="75" scalar="1/1" mediaStart="1856/1" mediaDuration="75/1" trackNumber="1" src="4" channelNumber="0,1" >
             <Parameters>
              <InterpolatingParam id="543" interp="linr"  time="0/1" value="1" leadInLength="0/1"  name="volume"/>
              <Parameter id="544"  name="captions"/>
             </Parameters>
             <Attributes>
              <Attribute id="545" value="" name="ident"/>
              <Attribute id="546" value="44100" name="sampleRate"/>
              <Attribute id="547" value="16" name="bitDepth"/>
              <Attribute id="548" value="1" name="gain"/>
              <Attribute id="549" value="0" name="mixToMono"/>
             </Attributes>
            </AMFile>
            <ScreenVMFile id="550" start="1100" duration="75" scalar="1/1" mediaStart="1856/1" mediaDuration="75/1" trackNumber="0" src="4" >
             <Transformer>
              <VectorParam id="551"  name="translation">
               <InterpolatingParam id="552" interp="linr"  time="-9999999/1" value="0" leadInLength="0/1"  />
               <InterpolatingParam id="553" interp="linr"  time="-9999999/1" value="0" leadInLength="0/1"  />
               <InterpolatingParam id="554" interp="linr"  time="-9999999/1" value="0" leadInLength="0/1"  />
              </VectorParam>
              <VectorParam id="555"  name="rotation">
               <InterpolatingParam id="556" interp="linr"  time="-9999999/1" value="0" leadInLength="0/1"  />
               <InterpolatingParam id="557" interp="linr"  time="-9999999/1" value="0" leadInLength="0/1"  />
               <InterpolatingParam id="558" interp="linr"  time="-9999999/1" value="0" leadInLength="0/1"  />
              </VectorParam>
              <VectorParam id="559"  name="shear">
               <InterpolatingParam id="560" interp="linr"  time="-9999999/1" value="0" leadInLength="0/1"  />
               <InterpolatingParam id="561" interp="linr"  time="-9999999/1" value="0" leadInLength="0/1"  />
               <InterpolatingParam id="562" interp="linr"  time="-9999999/1" value="0" leadInLength="0/1"  />
              </VectorParam>
              <VectorParam id="563"  name="scale">
               <InterpolatingParam id="564" interp="linr"  time="-9999999/1" value="1" leadInLength="0/1"  />
               <InterpolatingParam id="565" interp="linr"  time="-9999999/1" value="1" leadInLength="0/1"  />
               <InterpolatingParam id="566" interp="linr"  time="-9999999/1" value="1" leadInLength="0/1"  />
              </VectorParam>
              <VectorParam id="567"  name="anchor">
               <InterpolatingParam id="568" interp="linr"  time="0/1" value="0" leadInLength="0/1"  />
               <InterpolatingParam id="569" interp="linr"  time="0/1" value="0" leadInLength="0/1"  />
               <InterpolatingParam id="570" interp="linr"  time="0/1" value="0" leadInLength="0/1"  />
              </VectorParam>
             </Transformer>
             <Parameters>
              <VectorParam id="571"  name="sourceCrop">
               <InterpolatingParam id="572" interp="linr"  time="0/1" value="0" leadInLength="0/1"  />
               <InterpolatingParam id="573" interp="linr"  time="0/1" value="0" leadInLength="0/1"  />
               <InterpolatingParam id="574" interp="linr"  time="0/1" value="0" leadInLength="0/1"  />
               <InterpolatingParam id="575" interp="linr"  time="0/1" value="0" leadInLength="0/1"  />
              </VectorParam>
              <VectorParam id="576"  name="geometryCrop">
               <InterpolatingParam id="577" interp="linr"  time="-9999999/1" value="0" leadInLength="0/1"  />
               <InterpolatingParam id="578" interp="linr"  time="-9999999/1" value="0" leadInLength="0/1"  />
               <InterpolatingParam id="579" interp="linr"  time="-9999999/1" value="0" leadInLength="0/1"  />
               <InterpolatingParam id="580" interp="linr"  time="-9999999/1" value="0" leadInLength="0/1"  />
              </VectorParam>
              <InterpolatingParam id="581" interp="linr"  time="-9999999/1" value="1" leadInLength="0/1"  name="opacity"/>
              <InterpolatingParam id="582" interp="linr"  time="0/1" value="0" leadInLength="0/1"  name="cursorOpacity"/>
              <InterpolatingParam id="583" interp="linr"  time="0/1" value="0" leadInLength="0/1"  name="cursorScale"/>
             </Parameters>
             <Attributes>
              <Attribute id="584" value="" name="ident"/>
             </Attributes>
             <ExtraData>
              <Entry key="ZoomPanBin">
               <ZoomPanBin id="585"  >
                <ZoomPanKeyframes>
                 <ZoomPanKeyframe id="586" timeRangeEnd="-9999999/1" timeRangeDuration="0/1" interpolaterName=""  />
                </ZoomPanKeyframes>
               </ZoomPanBin>
              </Entry>
              <Entry key="CursorEffectBin">
               <CursorEffectBin id="587"  >
                <CursorEffectKeyframes>
                </CursorEffectKeyframes>
               </CursorEffectBin>
              </Entry>
             </ExtraData>
            </ScreenVMFile>
            <MetaData>
             <entry key="AutoAppliedSmartFocus" val="False"/>
             <entry key="WinSubProjectDisplayName" val=""/>
            </MetaData>
           </UnifiedMedia>
           <UnifiedMedia id="588"  >
            <AMFile id="589" start="1175" duration="147" scalar="1/1" mediaStart="4926/1" mediaDuration="147/1" trackNumber="1" src="4" channelNumber="0,1" >
             <Parameters>
              <InterpolatingParam id="590" interp="linr"  time="0/1" value="1" leadInLength="0/1"  name="volume"/>
              <Parameter id="591"  name="captions"/>
             </Parameters>
             <Attributes>
              <Attribute id="592" value="" name="ident"/>
              <Attribute id="593" value="44100" name="sampleRate"/>
              <Attribute id="594" value="16" name="bitDepth"/>
              <Attribute id="595" value="1" name="gain"/>
              <Attribute id="596" value="0" name="mixToMono"/>
             </Attributes>
            </AMFile>
            <ScreenVMFile id="597" start="1175" duration="147" scalar="1/1" mediaStart="4926/1" mediaDuration="147/1" trackNumber="0" src="4" >
             <Transformer>
              <VectorParam id="598"  name="translation">
               <InterpolatingParam id="599" interp="linr"  time="-9999999/1" value="0" leadInLength="0/1"  />
               <InterpolatingParam id="600" interp="linr"  time="-9999999/1" value="0" leadInLength="0/1"  />
               <InterpolatingParam id="601" interp="linr"  time="-9999999/1" value="0" leadInLength="0/1"  />
              </VectorParam>
              <VectorParam id="602"  name="rotation">
               <InterpolatingParam id="603" interp="linr"  time="-9999999/1" value="0" leadInLength="0/1"  />
               <InterpolatingParam id="604" interp="linr"  time="-9999999/1" value="0" leadInLength="0/1"  />
               <InterpolatingParam id="605" interp="linr"  time="-9999999/1" value="0" leadInLength="0/1"  />
              </VectorParam>
              <VectorParam id="606"  name="shear">
               <InterpolatingParam id="607" interp="linr"  time="-9999999/1" value="0" leadInLength="0/1"  />
               <InterpolatingParam id="608" interp="linr"  time="-9999999/1" value="0" leadInLength="0/1"  />
               <InterpolatingParam id="609" interp="linr"  time="-9999999/1" value="0" leadInLength="0/1"  />
              </VectorParam>
              <VectorParam id="610"  name="scale">
               <InterpolatingParam id="611" interp="linr"  time="-9999999/1" value="1" leadInLength="0/1"  />
               <InterpolatingParam id="612" interp="linr"  time="-9999999/1" value="1" leadInLength="0/1"  />
               <InterpolatingParam id="613" interp="linr"  time="-9999999/1" value="1" leadInLength="0/1"  />
              </VectorParam>
              <VectorParam id="614"  name="anchor">
               <InterpolatingParam id="615" interp="linr"  time="0/1" value="0" leadInLength="0/1"  />
               <InterpolatingParam id="616" interp="linr"  time="0/1" value="0" leadInLength="0/1"  />
               <InterpolatingParam id="617" interp="linr"  time="0/1" value="0" leadInLength="0/1"  />
              </VectorParam>
             </Transformer>
             <Parameters>
              <VectorParam id="618"  name="sourceCrop">
               <InterpolatingParam id="619" interp="linr"  time="0/1" value="0" leadInLength="0/1"  />
               <InterpolatingParam id="620" interp="linr"  time="0/1" value="0" leadInLength="0/1"  />
               <InterpolatingParam id="621" interp="linr"  time="0/1" value="0" leadInLength="0/1"  />
               <InterpolatingParam id="622" interp="linr"  time="0/1" value="0" leadInLength="0/1"  />
              </VectorParam>
              <VectorParam id="623"  name="geometryCrop">
               <InterpolatingParam id="624" interp="linr"  time="-9999999/1" value="0" leadInLength="0/1"  />
               <InterpolatingParam id="625" interp="linr"  time="-9999999/1" value="0" leadInLength="0/1"  />
               <InterpolatingParam id="626" interp="linr"  time="-9999999/1" value="0" leadInLength="0/1"  />
               <InterpolatingParam id="627" interp="linr"  time="-9999999/1" value="0" leadInLength="0/1"  />
              </VectorParam>
              <InterpolatingParam id="628" interp="linr"  time="-9999999/1" value="1" leadInLength="0/1"  name="opacity"/>
              <InterpolatingParam id="629" interp="linr"  time="0/1" value="0" leadInLength="0/1"  name="cursorOpacity"/>
              <InterpolatingParam id="630" interp="linr"  time="0/1" value="0" leadInLength="0/1"  name="cursorScale"/>
             </Parameters>
             <Attributes>
              <Attribute id="631" value="" name="ident"/>
             </Attributes>
             <ExtraData>
              <Entry key="ZoomPanBin">
               <ZoomPanBin id="632"  >
                <ZoomPanKeyframes>
                 <ZoomPanKeyframe id="633" timeRangeEnd="-9999999/1" timeRangeDuration="0/1" interpolaterName=""  />
                </ZoomPanKeyframes>
               </ZoomPanBin>
              </Entry>
              <Entry key="CursorEffectBin">
               <CursorEffectBin id="634"  >
                <CursorEffectKeyframes>
                </CursorEffectKeyframes>
               </CursorEffectBin>
              </Entry>
             </ExtraData>
            </ScreenVMFile>
            <MetaData>
             <entry key="AutoAppliedSmartFocus" val="False"/>
             <entry key="WinSubProjectDisplayName" val=""/>
            </MetaData>
           </UnifiedMedia>
           <UnifiedMedia id="635"  >
            <AMFile id="636" start="1322" duration="135" scalar="1/1" mediaStart="5081/1" mediaDuration="135/1" trackNumber="1" src="4" channelNumber="0,1" >
             <Parameters>
              <InterpolatingParam id="637" interp="linr"  time="0/1" value="1" leadInLength="0/1"  name="volume"/>
              <Parameter id="638"  name="captions"/>
             </Parameters>
             <Attributes>
              <Attribute id="639" value="" name="ident"/>
              <Attribute id="640" value="44100" name="sampleRate"/>
              <Attribute id="641" value="16" name="bitDepth"/>
              <Attribute id="642" value="1" name="gain"/>
              <Attribute id="643" value="0" name="mixToMono"/>
             </Attributes>
            </AMFile>
            <ScreenVMFile id="644" start="1322" duration="135" scalar="1/1" mediaStart="5081/1" mediaDuration="135/1" trackNumber="0" src="4" >
             <Transformer>
              <VectorParam id="645"  name="translation">
               <InterpolatingParam id="646" interp="linr"  time="-9999999/1" value="0" leadInLength="0/1"  />
               <InterpolatingParam id="647" interp="linr"  time="-9999999/1" value="0" leadInLength="0/1"  />
               <InterpolatingParam id="648" interp="linr"  time="-9999999/1" value="0" leadInLength="0/1"  />
              </VectorParam>
              <VectorParam id="649"  name="rotation">
               <InterpolatingParam id="650" interp="linr"  time="-9999999/1" value="0" leadInLength="0/1"  />
               <InterpolatingParam id="651" interp="linr"  time="-9999999/1" value="0" leadInLength="0/1"  />
               <InterpolatingParam id="652" interp="linr"  time="-9999999/1" value="0" leadInLength="0/1"  />
              </VectorParam>
              <VectorParam id="653"  name="shear">
               <InterpolatingParam id="654" interp="linr"  time="-9999999/1" value="0" leadInLength="0/1"  />
               <InterpolatingParam id="655" interp="linr"  time="-9999999/1" value="0" leadInLength="0/1"  />
               <InterpolatingParam id="656" interp="linr"  time="-9999999/1" value="0" leadInLength="0/1"  />
              </VectorParam>
              <VectorParam id="657"  name="scale">
               <InterpolatingParam id="658" interp="linr"  time="-9999999/1" value="1" leadInLength="0/1"  />
               <InterpolatingParam id="659" interp="linr"  time="-9999999/1" value="1" leadInLength="0/1"  />
               <InterpolatingParam id="660" interp="linr"  time="-9999999/1" value="1" leadInLength="0/1"  />
              </VectorParam>
              <VectorParam id="661"  name="anchor">
               <InterpolatingParam id="662" interp="linr"  time="0/1" value="0" leadInLength="0/1"  />
               <InterpolatingParam id="663" interp="linr"  time="0/1" value="0" leadInLength="0/1"  />
               <InterpolatingParam id="664" interp="linr"  time="0/1" value="0" leadInLength="0/1"  />
              </VectorParam>
             </Transformer>
             <Parameters>
              <VectorParam id="665"  name="sourceCrop">
               <InterpolatingParam id="666" interp="linr"  time="0/1" value="0" leadInLength="0/1"  />
               <InterpolatingParam id="667" interp="linr"  time="0/1" value="0" leadInLength="0/1"  />
               <InterpolatingParam id="668" interp="linr"  time="0/1" value="0" leadInLength="0/1"  />
               <InterpolatingParam id="669" interp="linr"  time="0/1" value="0" leadInLength="0/1"  />
              </VectorParam>
              <VectorParam id="670"  name="geometryCrop">
               <InterpolatingParam id="671" interp="linr"  time="-9999999/1" value="0" leadInLength="0/1"  />
               <InterpolatingParam id="672" interp="linr"  time="-9999999/1" value="0" leadInLength="0/1"  />
               <InterpolatingParam id="673" interp="linr"  time="-9999999/1" value="0" leadInLength="0/1"  />
               <InterpolatingParam id="674" interp="linr"  time="-9999999/1" value="0" leadInLength="0/1"  />
              </VectorParam>
              <InterpolatingParam id="675" interp="linr"  time="-9999999/1" value="1" leadInLength="0/1"  name="opacity"/>
              <InterpolatingParam id="676" interp="linr"  time="0/1" value="0" leadInLength="0/1"  name="cursorOpacity"/>
              <InterpolatingParam id="677" interp="linr"  time="0/1" value="0" leadInLength="0/1"  name="cursorScale"/>
             </Parameters>
             <Attributes>
              <Attribute id="678" value="" name="ident"/>
             </Attributes>
             <ExtraData>
              <Entry key="ZoomPanBin">
               <ZoomPanBin id="679"  >
                <ZoomPanKeyframes>
                 <ZoomPanKeyframe id="680" timeRangeEnd="-9999999/1" timeRangeDuration="0/1" interpolaterName=""  />
                </ZoomPanKeyframes>
               </ZoomPanBin>
              </Entry>
              <Entry key="CursorEffectBin">
               <CursorEffectBin id="681"  >
                <CursorEffectKeyframes>
                </CursorEffectKeyframes>
               </CursorEffectBin>
              </Entry>
             </ExtraData>
            </ScreenVMFile>
            <MetaData>
             <entry key="AutoAppliedSmartFocus" val="False"/>
             <entry key="WinSubProjectDisplayName" val=""/>
            </MetaData>
           </UnifiedMedia>
           <UnifiedMedia id="682"  >
            <AMFile id="683" start="1457" duration="113" scalar="1/1" mediaStart="5239/1" mediaDuration="113/1" trackNumber="1" src="4" channelNumber="0,1" >
             <Parameters>
              <InterpolatingParam id="684" interp="linr"  time="0/1" value="1" leadInLength="0/1"  name="volume"/>
              <Parameter id="685"  name="captions"/>
             </Parameters>
             <Attributes>
              <Attribute id="686" value="" name="ident"/>
              <Attribute id="687" value="44100" name="sampleRate"/>
              <Attribute id="688" value="16" name="bitDepth"/>
              <Attribute id="689" value="1" name="gain"/>
              <Attribute id="690" value="0" name="mixToMono"/>
             </Attributes>
            </AMFile>
            <ScreenVMFile id="691" start="1457" duration="113" scalar="1/1" mediaStart="5239/1" mediaDuration="113/1" trackNumber="0" src="4" >
             <Transformer>
              <VectorParam id="692"  name="translation">
               <InterpolatingParam id="693" interp="linr"  time="-9999999/1" value="0" leadInLength="0/1"  />
               <InterpolatingParam id="694" interp="linr"  time="-9999999/1" value="0" leadInLength="0/1"  />
               <InterpolatingParam id="695" interp="linr"  time="-9999999/1" value="0" leadInLength="0/1"  />
              </VectorParam>
              <VectorParam id="696"  name="rotation">
               <InterpolatingParam id="697" interp="linr"  time="-9999999/1" value="0" leadInLength="0/1"  />
               <InterpolatingParam id="698" interp="linr"  time="-9999999/1" value="0" leadInLength="0/1"  />
               <InterpolatingParam id="699" interp="linr"  time="-9999999/1" value="0" leadInLength="0/1"  />
              </VectorParam>
              <VectorParam id="700"  name="shear">
               <InterpolatingParam id="701" interp="linr"  time="-9999999/1" value="0" leadInLength="0/1"  />
               <InterpolatingParam id="702" interp="linr"  time="-9999999/1" value="0" leadInLength="0/1"  />
               <InterpolatingParam id="703" interp="linr"  time="-9999999/1" value="0" leadInLength="0/1"  />
              </VectorParam>
              <VectorParam id="704"  name="scale">
               <InterpolatingParam id="705" interp="linr"  time="-9999999/1" value="1" leadInLength="0/1"  />
               <InterpolatingParam id="706" interp="linr"  time="-9999999/1" value="1" leadInLength="0/1"  />
               <InterpolatingParam id="707" interp="linr"  time="-9999999/1" value="1" leadInLength="0/1"  />
              </VectorParam>
              <VectorParam id="708"  name="anchor">
               <InterpolatingParam id="709" interp="linr"  time="0/1" value="0" leadInLength="0/1"  />
               <InterpolatingParam id="710" interp="linr"  time="0/1" value="0" leadInLength="0/1"  />
               <InterpolatingParam id="711" interp="linr"  time="0/1" value="0" leadInLength="0/1"  />
              </VectorParam>
             </Transformer>
             <Parameters>
              <VectorParam id="712"  name="sourceCrop">
               <InterpolatingParam id="713" interp="linr"  time="0/1" value="0" leadInLength="0/1"  />
               <InterpolatingParam id="714" interp="linr"  time="0/1" value="0" leadInLength="0/1"  />
               <InterpolatingParam id="715" interp="linr"  time="0/1" value="0" leadInLength="0/1"  />
               <InterpolatingParam id="716" interp="linr"  time="0/1" value="0" leadInLength="0/1"  />
              </VectorParam>
              <VectorParam id="717"  name="geometryCrop">
               <InterpolatingParam id="718" interp="linr"  time="-9999999/1" value="0" leadInLength="0/1"  />
               <InterpolatingParam id="719" interp="linr"  time="-9999999/1" value="0" leadInLength="0/1"  />
               <InterpolatingParam id="720" interp="linr"  time="-9999999/1" value="0" leadInLength="0/1"  />
               <InterpolatingParam id="721" interp="linr"  time="-9999999/1" value="0" leadInLength="0/1"  />
              </VectorParam>
              <InterpolatingParam id="722" interp="linr"  time="-9999999/1" value="1" leadInLength="0/1"  name="opacity"/>
              <InterpolatingParam id="723" interp="linr"  time="0/1" value="0" leadInLength="0/1"  name="cursorOpacity"/>
              <InterpolatingParam id="724" interp="linr"  time="0/1" value="0" leadInLength="0/1"  name="cursorScale"/>
             </Parameters>
             <Attributes>
              <Attribute id="725" value="" name="ident"/>
             </Attributes>
             <ExtraData>
              <Entry key="ZoomPanBin">
               <ZoomPanBin id="726"  >
                <ZoomPanKeyframes>
                 <ZoomPanKeyframe id="727" timeRangeEnd="-9999999/1" timeRangeDuration="0/1" interpolaterName=""  />
                </ZoomPanKeyframes>
               </ZoomPanBin>
              </Entry>
              <Entry key="CursorEffectBin">
               <CursorEffectBin id="728"  >
                <CursorEffectKeyframes>
                </CursorEffectKeyframes>
               </CursorEffectBin>
              </Entry>
             </ExtraData>
            </ScreenVMFile>
            <MetaData>
             <entry key="AutoAppliedSmartFocus" val="False"/>
             <entry key="WinSubProjectDisplayName" val=""/>
            </MetaData>
           </UnifiedMedia>
           <UnifiedMedia id="729"  >
            <AMFile id="730" start="1570" duration="127" scalar="1/1" mediaStart="5361/1" mediaDuration="127/1" trackNumber="1" src="4" channelNumber="0,1" >
             <Parameters>
              <InterpolatingParam id="731" interp="linr"  time="0/1" value="1" leadInLength="0/1"  name="volume"/>
              <Parameter id="732"  name="captions"/>
             </Parameters>
             <Attributes>
              <Attribute id="733" value="" name="ident"/>
              <Attribute id="734" value="44100" name="sampleRate"/>
              <Attribute id="735" value="16" name="bitDepth"/>
              <Attribute id="736" value="1" name="gain"/>
              <Attribute id="737" value="0" name="mixToMono"/>
             </Attributes>
            </AMFile>
            <ScreenVMFile id="738" start="1570" duration="127" scalar="1/1" mediaStart="5361/1" mediaDuration="127/1" trackNumber="0" src="4" >
             <Transformer>
              <VectorParam id="739"  name="translation">
               <InterpolatingParam id="740" interp="linr"  time="-9999999/1" value="0" leadInLength="0/1"  />
               <InterpolatingParam id="741" interp="linr"  time="-9999999/1" value="0" leadInLength="0/1"  />
               <InterpolatingParam id="742" interp="linr"  time="-9999999/1" value="0" leadInLength="0/1"  />
              </VectorParam>
              <VectorParam id="743"  name="rotation">
               <InterpolatingParam id="744" interp="linr"  time="-9999999/1" value="0" leadInLength="0/1"  />
               <InterpolatingParam id="745" interp="linr"  time="-9999999/1" value="0" leadInLength="0/1"  />
               <InterpolatingParam id="746" interp="linr"  time="-9999999/1" value="0" leadInLength="0/1"  />
              </VectorParam>
              <VectorParam id="747"  name="shear">
               <InterpolatingParam id="748" interp="linr"  time="-9999999/1" value="0" leadInLength="0/1"  />
               <InterpolatingParam id="749" interp="linr"  time="-9999999/1" value="0" leadInLength="0/1"  />
               <InterpolatingParam id="750" interp="linr"  time="-9999999/1" value="0" leadInLength="0/1"  />
              </VectorParam>
              <VectorParam id="751"  name="scale">
               <InterpolatingParam id="752" interp="linr"  time="-9999999/1" value="1" leadInLength="0/1"  />
               <InterpolatingParam id="753" interp="linr"  time="-9999999/1" value="1" leadInLength="0/1"  />
               <InterpolatingParam id="754" interp="linr"  time="-9999999/1" value="1" leadInLength="0/1"  />
              </VectorParam>
              <VectorParam id="755"  name="anchor">
               <InterpolatingParam id="756" interp="linr"  time="0/1" value="0" leadInLength="0/1"  />
               <InterpolatingParam id="757" interp="linr"  time="0/1" value="0" leadInLength="0/1"  />
               <InterpolatingParam id="758" interp="linr"  time="0/1" value="0" leadInLength="0/1"  />
              </VectorParam>
             </Transformer>
             <Parameters>
              <VectorParam id="759"  name="sourceCrop">
               <InterpolatingParam id="760" interp="linr"  time="0/1" value="0" leadInLength="0/1"  />
               <InterpolatingParam id="761" interp="linr"  time="0/1" value="0" leadInLength="0/1"  />
               <InterpolatingParam id="762" interp="linr"  time="0/1" value="0" leadInLength="0/1"  />
               <InterpolatingParam id="763" interp="linr"  time="0/1" value="0" leadInLength="0/1"  />
              </VectorParam>
              <VectorParam id="764"  name="geometryCrop">
               <InterpolatingParam id="765" interp="linr"  time="-9999999/1" value="0" leadInLength="0/1"  />
               <InterpolatingParam id="766" interp="linr"  time="-9999999/1" value="0" leadInLength="0/1"  />
               <InterpolatingParam id="767" interp="linr"  time="-9999999/1" value="0" leadInLength="0/1"  />
               <InterpolatingParam id="768" interp="linr"  time="-9999999/1" value="0" leadInLength="0/1"  />
              </VectorParam>
              <InterpolatingParam id="769" interp="linr"  time="-9999999/1" value="1" leadInLength="0/1"  name="opacity"/>
              <InterpolatingParam id="770" interp="linr"  time="0/1" value="0" leadInLength="0/1"  name="cursorOpacity"/>
              <InterpolatingParam id="771" interp="linr"  time="0/1" value="0" leadInLength="0/1"  name="cursorScale"/>
             </Parameters>
             <Attributes>
              <Attribute id="772" value="" name="ident"/>
             </Attributes>
             <ExtraData>
              <Entry key="ZoomPanBin">
               <ZoomPanBin id="773"  >
                <ZoomPanKeyframes>
                 <ZoomPanKeyframe id="774" timeRangeEnd="-9999999/1" timeRangeDuration="0/1" interpolaterName=""  />
                </ZoomPanKeyframes>
               </ZoomPanBin>
              </Entry>
              <Entry key="CursorEffectBin">
               <CursorEffectBin id="775"  >
                <CursorEffectKeyframes>
                </CursorEffectKeyframes>
               </CursorEffectBin>
              </Entry>
             </ExtraData>
            </ScreenVMFile>
            <MetaData>
             <entry key="AutoAppliedSmartFocus" val="False"/>
             <entry key="WinSubProjectDisplayName" val=""/>
            </MetaData>
           </UnifiedMedia>
           <UnifiedMedia id="776"  >
            <AMFile id="777" start="1697" duration="320" scalar="1/1" mediaStart="7075/1" mediaDuration="320/1" trackNumber="1" src="4" channelNumber="0,1" >
             <Parameters>
              <InterpolatingParam id="778" interp="linr"  time="0/1" value="1" leadInLength="0/1"  name="volume"/>
              <Parameter id="779"  name="captions"/>
             </Parameters>
             <Attributes>
              <Attribute id="780" value="" name="ident"/>
              <Attribute id="781" value="44100" name="sampleRate"/>
              <Attribute id="782" value="16" name="bitDepth"/>
              <Attribute id="783" value="1" name="gain"/>
              <Attribute id="784" value="0" name="mixToMono"/>
             </Attributes>
            </AMFile>
            <ScreenVMFile id="785" start="1697" duration="320" scalar="1/1" mediaStart="7075/1" mediaDuration="320/1" trackNumber="0" src="4" >
             <Transformer>
              <VectorParam id="786"  name="translation">
               <InterpolatingParam id="787" interp="linr"  time="-9999999/1" value="0" leadInLength="0/1"  />
               <InterpolatingParam id="788" interp="linr"  time="-9999999/1" value="0" leadInLength="0/1"  />
               <InterpolatingParam id="789" interp="linr"  time="-9999999/1" value="0" leadInLength="0/1"  />
              </VectorParam>
              <VectorParam id="790"  name="rotation">
               <InterpolatingParam id="791" interp="linr"  time="-9999999/1" value="0" leadInLength="0/1"  />
               <InterpolatingParam id="792" interp="linr"  time="-9999999/1" value="0" leadInLength="0/1"  />
               <InterpolatingParam id="793" interp="linr"  time="-9999999/1" value="0" leadInLength="0/1"  />
              </VectorParam>
              <VectorParam id="794"  name="shear">
               <InterpolatingParam id="795" interp="linr"  time="-9999999/1" value="0" leadInLength="0/1"  />
               <InterpolatingParam id="796" interp="linr"  time="-9999999/1" value="0" leadInLength="0/1"  />
               <InterpolatingParam id="797" interp="linr"  time="-9999999/1" value="0" leadInLength="0/1"  />
              </VectorParam>
              <VectorParam id="798"  name="scale">
               <InterpolatingParam id="799" interp="linr"  time="-9999999/1" value="1" leadInLength="0/1"  />
               <InterpolatingParam id="800" interp="linr"  time="-9999999/1" value="1" leadInLength="0/1"  />
               <InterpolatingParam id="801" interp="linr"  time="-9999999/1" value="1" leadInLength="0/1"  />
              </VectorParam>
              <VectorParam id="802"  name="anchor">
               <InterpolatingParam id="803" interp="linr"  time="0/1" value="0" leadInLength="0/1"  />
               <InterpolatingParam id="804" interp="linr"  time="0/1" value="0" leadInLength="0/1"  />
               <InterpolatingParam id="805" interp="linr"  time="0/1" value="0" leadInLength="0/1"  />
              </VectorParam>
             </Transformer>
             <Parameters>
              <VectorParam id="806"  name="sourceCrop">
               <InterpolatingParam id="807" interp="linr"  time="0/1" value="0" leadInLength="0/1"  />
               <InterpolatingParam id="808" interp="linr"  time="0/1" value="0" leadInLength="0/1"  />
               <InterpolatingParam id="809" interp="linr"  time="0/1" value="0" leadInLength="0/1"  />
               <InterpolatingParam id="810" interp="linr"  time="0/1" value="0" leadInLength="0/1"  />
              </VectorParam>
              <VectorParam id="811"  name="geometryCrop">
               <InterpolatingParam id="812" interp="linr"  time="-9999999/1" value="0" leadInLength="0/1"  />
               <InterpolatingParam id="813" interp="linr"  time="-9999999/1" value="0" leadInLength="0/1"  />
               <InterpolatingParam id="814" interp="linr"  time="-9999999/1" value="0" leadInLength="0/1"  />
               <InterpolatingParam id="815" interp="linr"  time="-9999999/1" value="0" leadInLength="0/1"  />
              </VectorParam>
              <InterpolatingParam id="816" interp="linr"  time="-9999999/1" value="1" leadInLength="0/1"  name="opacity"/>
              <InterpolatingParam id="817" interp="linr"  time="0/1" value="0" leadInLength="0/1"  name="cursorOpacity"/>
              <InterpolatingParam id="818" interp="linr"  time="0/1" value="0" leadInLength="0/1"  name="cursorScale"/>
             </Parameters>
             <Attributes>
              <Attribute id="819" value="" name="ident"/>
             </Attributes>
             <ExtraData>
              <Entry key="ZoomPanBin">
               <ZoomPanBin id="820"  >
                <ZoomPanKeyframes>
                 <ZoomPanKeyframe id="821" timeRangeEnd="-9999999/1" timeRangeDuration="0/1" interpolaterName=""  />
                </ZoomPanKeyframes>
               </ZoomPanBin>
              </Entry>
              <Entry key="CursorEffectBin">
               <CursorEffectBin id="822"  >
                <CursorEffectKeyframes>
                </CursorEffectKeyframes>
               </CursorEffectBin>
              </Entry>
             </ExtraData>
            </ScreenVMFile>
            <MetaData>
             <entry key="AutoAppliedSmartFocus" val="False"/>
             <entry key="WinSubProjectDisplayName" val=""/>
            </MetaData>
           </UnifiedMedia>
           <UnifiedMedia id="823"  >
            <AMFile id="824" start="2017" duration="128" scalar="1/1" mediaStart="7405/1" mediaDuration="128/1" trackNumber="1" src="4" channelNumber="0,1" >
             <Parameters>
              <InterpolatingParam id="825" interp="linr"  time="0/1" value="1" leadInLength="0/1"  name="volume"/>
              <Parameter id="826"  name="captions"/>
             </Parameters>
             <Attributes>
              <Attribute id="827" value="" name="ident"/>
              <Attribute id="828" value="44100" name="sampleRate"/>
              <Attribute id="829" value="16" name="bitDepth"/>
              <Attribute id="830" value="1" name="gain"/>
              <Attribute id="831" value="0" name="mixToMono"/>
             </Attributes>
            </AMFile>
            <ScreenVMFile id="832" start="2017" duration="128" scalar="1/1" mediaStart="7405/1" mediaDuration="128/1" trackNumber="0" src="4" >
             <Transformer>
              <VectorParam id="833"  name="translation">
               <InterpolatingParam id="834" interp="linr"  time="-9999999/1" value="0" leadInLength="0/1"  />
               <InterpolatingParam id="835" interp="linr"  time="-9999999/1" value="0" leadInLength="0/1"  />
               <InterpolatingParam id="836" interp="linr"  time="-9999999/1" value="0" leadInLength="0/1"  />
              </VectorParam>
              <VectorParam id="837"  name="rotation">
               <InterpolatingParam id="838" interp="linr"  time="-9999999/1" value="0" leadInLength="0/1"  />
               <InterpolatingParam id="839" interp="linr"  time="-9999999/1" value="0" leadInLength="0/1"  />
               <InterpolatingParam id="840" interp="linr"  time="-9999999/1" value="0" leadInLength="0/1"  />
              </VectorParam>
              <VectorParam id="841"  name="shear">
               <InterpolatingParam id="842" interp="linr"  time="-9999999/1" value="0" leadInLength="0/1"  />
               <InterpolatingParam id="843" interp="linr"  time="-9999999/1" value="0" leadInLength="0/1"  />
               <InterpolatingParam id="844" interp="linr"  time="-9999999/1" value="0" leadInLength="0/1"  />
              </VectorParam>
              <VectorParam id="845"  name="scale">
               <InterpolatingParam id="846" interp="linr"  time="-9999999/1" value="1" leadInLength="0/1"  />
               <InterpolatingParam id="847" interp="linr"  time="-9999999/1" value="1" leadInLength="0/1"  />
               <InterpolatingParam id="848" interp="linr"  time="-9999999/1" value="1" leadInLength="0/1"  />
              </VectorParam>
              <VectorParam id="849"  name="anchor">
               <InterpolatingParam id="850" interp="linr"  time="0/1" value="0" leadInLength="0/1"  />
               <InterpolatingParam id="851" interp="linr"  time="0/1" value="0" leadInLength="0/1"  />
               <InterpolatingParam id="852" interp="linr"  time="0/1" value="0" leadInLength="0/1"  />
              </VectorParam>
             </Transformer>
             <Parameters>
              <VectorParam id="853"  name="sourceCrop">
               <InterpolatingParam id="854" interp="linr"  time="0/1" value="0" leadInLength="0/1"  />
               <InterpolatingParam id="855" interp="linr"  time="0/1" value="0" leadInLength="0/1"  />
               <InterpolatingParam id="856" interp="linr"  time="0/1" value="0" leadInLength="0/1"  />
               <InterpolatingParam id="857" interp="linr"  time="0/1" value="0" leadInLength="0/1"  />
              </VectorParam>
              <VectorParam id="858"  name="geometryCrop">
               <InterpolatingParam id="859" interp="linr"  time="-9999999/1" value="0" leadInLength="0/1"  />
               <InterpolatingParam id="860" interp="linr"  time="-9999999/1" value="0" leadInLength="0/1"  />
               <InterpolatingParam id="861" interp="linr"  time="-9999999/1" value="0" leadInLength="0/1"  />
               <InterpolatingParam id="862" interp="linr"  time="-9999999/1" value="0" leadInLength="0/1"  />
              </VectorParam>
              <InterpolatingParam id="863" interp="linr"  time="-9999999/1" value="1" leadInLength="0/1"  name="opacity"/>
              <InterpolatingParam id="864" interp="linr"  time="0/1" value="0" leadInLength="0/1"  name="cursorOpacity"/>
              <InterpolatingParam id="865" interp="linr"  time="0/1" value="0" leadInLength="0/1"  name="cursorScale"/>
             </Parameters>
             <Attributes>
              <Attribute id="866" value="" name="ident"/>
             </Attributes>
             <ExtraData>
              <Entry key="ZoomPanBin">
               <ZoomPanBin id="867"  >
                <ZoomPanKeyframes>
                 <ZoomPanKeyframe id="868" timeRangeEnd="-9999999/1" timeRangeDuration="0/1" interpolaterName=""  />
                </ZoomPanKeyframes>
               </ZoomPanBin>
              </Entry>
              <Entry key="CursorEffectBin">
               <CursorEffectBin id="869"  >
                <CursorEffectKeyframes>
                </CursorEffectKeyframes>
               </CursorEffectBin>
              </Entry>
             </ExtraData>
            </ScreenVMFile>
            <MetaData>
             <entry key="AutoAppliedSmartFocus" val="False"/>
             <entry key="WinSubProjectDisplayName" val=""/>
            </MetaData>
           </UnifiedMedia>
           <UnifiedMedia id="870"  >
            <AMFile id="871" start="2145" duration="52" scalar="1/1" mediaStart="7542/1" mediaDuration="52/1" trackNumber="1" src="4" channelNumber="0,1" >
             <Parameters>
              <InterpolatingParam id="872" interp="linr"  time="0/1" value="1" leadInLength="0/1"  name="volume"/>
              <Parameter id="873"  name="captions"/>
             </Parameters>
             <Attributes>
              <Attribute id="874" value="" name="ident"/>
              <Attribute id="875" value="44100" name="sampleRate"/>
              <Attribute id="876" value="16" name="bitDepth"/>
              <Attribute id="877" value="1" name="gain"/>
              <Attribute id="878" value="0" name="mixToMono"/>
             </Attributes>
            </AMFile>
            <ScreenVMFile id="879" start="2145" duration="52" scalar="1/1" mediaStart="7542/1" mediaDuration="52/1" trackNumber="0" src="4" >
             <Transformer>
              <VectorParam id="880"  name="translation">
               <InterpolatingParam id="881" interp="linr"  time="-9999999/1" value="0" leadInLength="0/1"  />
               <InterpolatingParam id="882" interp="linr"  time="-9999999/1" value="0" leadInLength="0/1"  />
               <InterpolatingParam id="883" interp="linr"  time="-9999999/1" value="0" leadInLength="0/1"  />
              </VectorParam>
              <VectorParam id="884"  name="rotation">
               <InterpolatingParam id="885" interp="linr"  time="-9999999/1" value="0" leadInLength="0/1"  />
               <InterpolatingParam id="886" interp="linr"  time="-9999999/1" value="0" leadInLength="0/1"  />
               <InterpolatingParam id="887" interp="linr"  time="-9999999/1" value="0" leadInLength="0/1"  />
              </VectorParam>
              <VectorParam id="888"  name="shear">
               <InterpolatingParam id="889" interp="linr"  time="-9999999/1" value="0" leadInLength="0/1"  />
               <InterpolatingParam id="890" interp="linr"  time="-9999999/1" value="0" leadInLength="0/1"  />
               <InterpolatingParam id="891" interp="linr"  time="-9999999/1" value="0" leadInLength="0/1"  />
              </VectorParam>
              <VectorParam id="892"  name="scale">
               <InterpolatingParam id="893" interp="linr"  time="-9999999/1" value="1" leadInLength="0/1"  />
               <InterpolatingParam id="894" interp="linr"  time="-9999999/1" value="1" leadInLength="0/1"  />
               <InterpolatingParam id="895" interp="linr"  time="-9999999/1" value="1" leadInLength="0/1"  />
              </VectorParam>
              <VectorParam id="896"  name="anchor">
               <InterpolatingParam id="897" interp="linr"  time="0/1" value="0" leadInLength="0/1"  />
               <InterpolatingParam id="898" interp="linr"  time="0/1" value="0" leadInLength="0/1"  />
               <InterpolatingParam id="899" interp="linr"  time="0/1" value="0" leadInLength="0/1"  />
              </VectorParam>
             </Transformer>
             <Parameters>
              <VectorParam id="900"  name="sourceCrop">
               <InterpolatingParam id="901" interp="linr"  time="0/1" value="0" leadInLength="0/1"  />
               <InterpolatingParam id="902" interp="linr"  time="0/1" value="0" leadInLength="0/1"  />
               <InterpolatingParam id="903" interp="linr"  time="0/1" value="0" leadInLength="0/1"  />
               <InterpolatingParam id="904" interp="linr"  time="0/1" value="0" leadInLength="0/1"  />
              </VectorParam>
              <VectorParam id="905"  name="geometryCrop">
               <InterpolatingParam id="906" interp="linr"  time="-9999999/1" value="0" leadInLength="0/1"  />
               <InterpolatingParam id="907" interp="linr"  time="-9999999/1" value="0" leadInLength="0/1"  />
               <InterpolatingParam id="908" interp="linr"  time="-9999999/1" value="0" leadInLength="0/1"  />
               <InterpolatingParam id="909" interp="linr"  time="-9999999/1" value="0" leadInLength="0/1"  />
              </VectorParam>
              <InterpolatingParam id="910" interp="linr"  time="-9999999/1" value="1" leadInLength="0/1"  name="opacity"/>
              <InterpolatingParam id="911" interp="linr"  time="0/1" value="0" leadInLength="0/1"  name="cursorOpacity"/>
              <InterpolatingParam id="912" interp="linr"  time="0/1" value="0" leadInLength="0/1"  name="cursorScale"/>
             </Parameters>
             <Attributes>
              <Attribute id="913" value="" name="ident"/>
             </Attributes>
             <ExtraData>
              <Entry key="ZoomPanBin">
               <ZoomPanBin id="914"  >
                <ZoomPanKeyframes>
                 <ZoomPanKeyframe id="915" timeRangeEnd="-9999999/1" timeRangeDuration="0/1" interpolaterName=""  />
                </ZoomPanKeyframes>
               </ZoomPanBin>
              </Entry>
              <Entry key="CursorEffectBin">
               <CursorEffectBin id="916"  >
                <CursorEffectKeyframes>
                </CursorEffectKeyframes>
               </CursorEffectBin>
              </Entry>
             </ExtraData>
            </ScreenVMFile>
            <MetaData>
             <entry key="AutoAppliedSmartFocus" val="False"/>
             <entry key="WinSubProjectDisplayName" val=""/>
            </MetaData>
           </UnifiedMedia>
           <UnifiedMedia id="917"  >
            <AMFile id="918" start="2197" duration="57" scalar="1/1" mediaStart="7603/1" mediaDuration="57/1" trackNumber="1" src="4" channelNumber="0,1" >
             <Parameters>
              <InterpolatingParam id="919" interp="linr"  time="0/1" value="1" leadInLength="0/1"  name="volume"/>
              <Parameter id="920"  name="captions"/>
             </Parameters>
             <Attributes>
              <Attribute id="921" value="" name="ident"/>
              <Attribute id="922" value="44100" name="sampleRate"/>
              <Attribute id="923" value="16" name="bitDepth"/>
              <Attribute id="924" value="1" name="gain"/>
              <Attribute id="925" value="0" name="mixToMono"/>
             </Attributes>
            </AMFile>
            <ScreenVMFile id="926" start="2197" duration="57" scalar="1/1" mediaStart="7603/1" mediaDuration="57/1" trackNumber="0" src="4" >
             <Transformer>
              <VectorParam id="927"  name="translation">
               <InterpolatingParam id="928" interp="linr"  time="-9999999/1" value="0" leadInLength="0/1"  />
               <InterpolatingParam id="929" interp="linr"  time="-9999999/1" value="0" leadInLength="0/1"  />
               <InterpolatingParam id="930" interp="linr"  time="-9999999/1" value="0" leadInLength="0/1"  />
              </VectorParam>
              <VectorParam id="931"  name="rotation">
               <InterpolatingParam id="932" interp="linr"  time="-9999999/1" value="0" leadInLength="0/1"  />
               <InterpolatingParam id="933" interp="linr"  time="-9999999/1" value="0" leadInLength="0/1"  />
               <InterpolatingParam id="934" interp="linr"  time="-9999999/1" value="0" leadInLength="0/1"  />
              </VectorParam>
              <VectorParam id="935"  name="shear">
               <InterpolatingParam id="936" interp="linr"  time="-9999999/1" value="0" leadInLength="0/1"  />
               <InterpolatingParam id="937" interp="linr"  time="-9999999/1" value="0" leadInLength="0/1"  />
               <InterpolatingParam id="938" interp="linr"  time="-9999999/1" value="0" leadInLength="0/1"  />
              </VectorParam>
              <VectorParam id="939"  name="scale">
               <InterpolatingParam id="940" interp="linr"  time="-9999999/1" value="1" leadInLength="0/1"  />
               <InterpolatingParam id="941" interp="linr"  time="-9999999/1" value="1" leadInLength="0/1"  />
               <InterpolatingParam id="942" interp="linr"  time="-9999999/1" value="1" leadInLength="0/1"  />
              </VectorParam>
              <VectorParam id="943"  name="anchor">
               <InterpolatingParam id="944" interp="linr"  time="0/1" value="0" leadInLength="0/1"  />
               <InterpolatingParam id="945" interp="linr"  time="0/1" value="0" leadInLength="0/1"  />
               <InterpolatingParam id="946" interp="linr"  time="0/1" value="0" leadInLength="0/1"  />
              </VectorParam>
             </Transformer>
             <Parameters>
              <VectorParam id="947"  name="sourceCrop">
               <InterpolatingParam id="948" interp="linr"  time="0/1" value="0" leadInLength="0/1"  />
               <InterpolatingParam id="949" interp="linr"  time="0/1" value="0" leadInLength="0/1"  />
               <InterpolatingParam id="950" interp="linr"  time="0/1" value="0" leadInLength="0/1"  />
               <InterpolatingParam id="951" interp="linr"  time="0/1" value="0" leadInLength="0/1"  />
              </VectorParam>
              <VectorParam id="952"  name="geometryCrop">
               <InterpolatingParam id="953" interp="linr"  time="-9999999/1" value="0" leadInLength="0/1"  />
               <InterpolatingParam id="954" interp="linr"  time="-9999999/1" value="0" leadInLength="0/1"  />
               <InterpolatingParam id="955" interp="linr"  time="-9999999/1" value="0" leadInLength="0/1"  />
               <InterpolatingParam id="956" interp="linr"  time="-9999999/1" value="0" leadInLength="0/1"  />
              </VectorParam>
              <InterpolatingParam id="957" interp="linr"  time="-9999999/1" value="1" leadInLength="0/1"  name="opacity"/>
              <InterpolatingParam id="958" interp="linr"  time="0/1" value="0" leadInLength="0/1"  name="cursorOpacity"/>
              <InterpolatingParam id="959" interp="linr"  time="0/1" value="0" leadInLength="0/1"  name="cursorScale"/>
             </Parameters>
             <Attributes>
              <Attribute id="960" value="" name="ident"/>
             </Attributes>
             <ExtraData>
              <Entry key="ZoomPanBin">
               <ZoomPanBin id="961"  >
                <ZoomPanKeyframes>
                 <ZoomPanKeyframe id="962" timeRangeEnd="-9999999/1" timeRangeDuration="0/1" interpolaterName=""  />
                </ZoomPanKeyframes>
               </ZoomPanBin>
              </Entry>
              <Entry key="CursorEffectBin">
               <CursorEffectBin id="963"  >
                <CursorEffectKeyframes>
                </CursorEffectKeyframes>
               </CursorEffectBin>
              </Entry>
             </ExtraData>
            </ScreenVMFile>
            <MetaData>
             <entry key="AutoAppliedSmartFocus" val="False"/>
             <entry key="WinSubProjectDisplayName" val=""/>
            </MetaData>
           </UnifiedMedia>
           <UnifiedMedia id="964"  >
            <AMFile id="965" start="2254" duration="64" scalar="1/1" mediaStart="7667/1" mediaDuration="64/1" trackNumber="1" src="4" channelNumber="0,1" >
             <Parameters>
              <InterpolatingParam id="966" interp="linr"  time="0/1" value="1" leadInLength="0/1"  name="volume"/>
              <Parameter id="967"  name="captions"/>
             </Parameters>
             <Attributes>
              <Attribute id="968" value="" name="ident"/>
              <Attribute id="969" value="44100" name="sampleRate"/>
              <Attribute id="970" value="16" name="bitDepth"/>
              <Attribute id="971" value="1" name="gain"/>
              <Attribute id="972" value="0" name="mixToMono"/>
             </Attributes>
            </AMFile>
            <ScreenVMFile id="973" start="2254" duration="64" scalar="1/1" mediaStart="7667/1" mediaDuration="64/1" trackNumber="0" src="4" >
             <Transformer>
              <VectorParam id="974"  name="translation">
               <InterpolatingParam id="975" interp="linr"  time="-9999999/1" value="0" leadInLength="0/1"  />
               <InterpolatingParam id="976" interp="linr"  time="-9999999/1" value="0" leadInLength="0/1"  />
               <InterpolatingParam id="977" interp="linr"  time="-9999999/1" value="0" leadInLength="0/1"  />
              </VectorParam>
              <VectorParam id="978"  name="rotation">
               <InterpolatingParam id="979" interp="linr"  time="-9999999/1" value="0" leadInLength="0/1"  />
               <InterpolatingParam id="980" interp="linr"  time="-9999999/1" value="0" leadInLength="0/1"  />
               <InterpolatingParam id="981" interp="linr"  time="-9999999/1" value="0" leadInLength="0/1"  />
              </VectorParam>
              <VectorParam id="982"  name="shear">
               <InterpolatingParam id="983" interp="linr"  time="-9999999/1" value="0" leadInLength="0/1"  />
               <InterpolatingParam id="984" interp="linr"  time="-9999999/1" value="0" leadInLength="0/1"  />
               <InterpolatingParam id="985" interp="linr"  time="-9999999/1" value="0" leadInLength="0/1"  />
              </VectorParam>
              <VectorParam id="986"  name="scale">
               <InterpolatingParam id="987" interp="linr"  time="-9999999/1" value="1" leadInLength="0/1"  />
               <InterpolatingParam id="988" interp="linr"  time="-9999999/1" value="1" leadInLength="0/1"  />
               <InterpolatingParam id="989" interp="linr"  time="-9999999/1" value="1" leadInLength="0/1"  />
              </VectorParam>
              <VectorParam id="990"  name="anchor">
               <InterpolatingParam id="991" interp="linr"  time="0/1" value="0" leadInLength="0/1"  />
               <InterpolatingParam id="992" interp="linr"  time="0/1" value="0" leadInLength="0/1"  />
               <InterpolatingParam id="993" interp="linr"  time="0/1" value="0" leadInLength="0/1"  />
              </VectorParam>
             </Transformer>
             <Parameters>
              <VectorParam id="994"  name="sourceCrop">
               <InterpolatingParam id="995" interp="linr"  time="0/1" value="0" leadInLength="0/1"  />
               <InterpolatingParam id="996" interp="linr"  time="0/1" value="0" leadInLength="0/1"  />
               <InterpolatingParam id="997" interp="linr"  time="0/1" value="0" leadInLength="0/1"  />
               <InterpolatingParam id="998" interp="linr"  time="0/1" value="0" leadInLength="0/1"  />
              </VectorParam>
              <VectorParam id="999"  name="geometryCrop">
               <InterpolatingParam id="1000" interp="linr"  time="-9999999/1" value="0" leadInLength="0/1"  />
               <InterpolatingParam id="1001" interp="linr"  time="-9999999/1" value="0" leadInLength="0/1"  />
               <InterpolatingParam id="1002" interp="linr"  time="-9999999/1" value="0" leadInLength="0/1"  />
               <InterpolatingParam id="1003" interp="linr"  time="-9999999/1" value="0" leadInLength="0/1"  />
              </VectorParam>
              <InterpolatingParam id="1004" interp="linr"  time="-9999999/1" value="1" leadInLength="0/1"  name="opacity"/>
              <InterpolatingParam id="1005" interp="linr"  time="0/1" value="0" leadInLength="0/1"  name="cursorOpacity"/>
              <InterpolatingParam id="1006" interp="linr"  time="0/1" value="0" leadInLength="0/1"  name="cursorScale"/>
             </Parameters>
             <Attributes>
              <Attribute id="1007" value="" name="ident"/>
             </Attributes>
             <ExtraData>
              <Entry key="ZoomPanBin">
               <ZoomPanBin id="1008"  >
                <ZoomPanKeyframes>
                 <ZoomPanKeyframe id="1009" timeRangeEnd="-9999999/1" timeRangeDuration="0/1" interpolaterName=""  />
                </ZoomPanKeyframes>
               </ZoomPanBin>
              </Entry>
              <Entry key="CursorEffectBin">
               <CursorEffectBin id="1010"  >
                <CursorEffectKeyframes>
                </CursorEffectKeyframes>
               </CursorEffectBin>
              </Entry>
             </ExtraData>
            </ScreenVMFile>
            <MetaData>
             <entry key="AutoAppliedSmartFocus" val="False"/>
             <entry key="WinSubProjectDisplayName" val=""/>
            </MetaData>
           </UnifiedMedia>
           <UnifiedMedia id="1011"  >
            <AMFile id="1012" start="2318" duration="120" scalar="1/1" mediaStart="7961/1" mediaDuration="120/1" trackNumber="1" src="4" channelNumber="0,1" >
             <Parameters>
              <InterpolatingParam id="1013" interp="linr"  time="0/1" value="1" leadInLength="0/1"  name="volume"/>
              <Parameter id="1014"  name="captions"/>
             </Parameters>
             <Attributes>
              <Attribute id="1015" value="" name="ident"/>
              <Attribute id="1016" value="44100" name="sampleRate"/>
              <Attribute id="1017" value="16" name="bitDepth"/>
              <Attribute id="1018" value="1" name="gain"/>
              <Attribute id="1019" value="0" name="mixToMono"/>
             </Attributes>
            </AMFile>
            <ScreenVMFile id="1020" start="2318" duration="120" scalar="1/1" mediaStart="7961/1" mediaDuration="120/1" trackNumber="0" src="4" >
             <Transformer>
              <VectorParam id="1021"  name="translation">
               <InterpolatingParam id="1022" interp="linr"  time="-9999999/1" value="0" leadInLength="0/1"  />
               <InterpolatingParam id="1023" interp="linr"  time="-9999999/1" value="0" leadInLength="0/1"  />
               <InterpolatingParam id="1024" interp="linr"  time="-9999999/1" value="0" leadInLength="0/1"  />
              </VectorParam>
              <VectorParam id="1025"  name="rotation">
               <InterpolatingParam id="1026" interp="linr"  time="-9999999/1" value="0" leadInLength="0/1"  />
               <InterpolatingParam id="1027" interp="linr"  time="-9999999/1" value="0" leadInLength="0/1"  />
               <InterpolatingParam id="1028" interp="linr"  time="-9999999/1" value="0" leadInLength="0/1"  />
              </VectorParam>
              <VectorParam id="1029"  name="shear">
               <InterpolatingParam id="1030" interp="linr"  time="-9999999/1" value="0" leadInLength="0/1"  />
               <InterpolatingParam id="1031" interp="linr"  time="-9999999/1" value="0" leadInLength="0/1"  />
               <InterpolatingParam id="1032" interp="linr"  time="-9999999/1" value="0" leadInLength="0/1"  />
              </VectorParam>
              <VectorParam id="1033"  name="scale">
               <InterpolatingParam id="1034" interp="linr"  time="-9999999/1" value="1" leadInLength="0/1"  />
               <InterpolatingParam id="1035" interp="linr"  time="-9999999/1" value="1" leadInLength="0/1"  />
               <InterpolatingParam id="1036" interp="linr"  time="-9999999/1" value="1" leadInLength="0/1"  />
              </VectorParam>
              <VectorParam id="1037"  name="anchor">
               <InterpolatingParam id="1038" interp="linr"  time="0/1" value="0" leadInLength="0/1"  />
               <InterpolatingParam id="1039" interp="linr"  time="0/1" value="0" leadInLength="0/1"  />
               <InterpolatingParam id="1040" interp="linr"  time="0/1" value="0" leadInLength="0/1"  />
              </VectorParam>
             </Transformer>
             <Parameters>
              <VectorParam id="1041"  name="sourceCrop">
               <InterpolatingParam id="1042" interp="linr"  time="0/1" value="0" leadInLength="0/1"  />
               <InterpolatingParam id="1043" interp="linr"  time="0/1" value="0" leadInLength="0/1"  />
               <InterpolatingParam id="1044" interp="linr"  time="0/1" value="0" leadInLength="0/1"  />
               <InterpolatingParam id="1045" interp="linr"  time="0/1" value="0" leadInLength="0/1"  />
              </VectorParam>
              <VectorParam id="1046"  name="geometryCrop">
               <InterpolatingParam id="1047" interp="linr"  time="-9999999/1" value="0" leadInLength="0/1"  />
               <InterpolatingParam id="1048" interp="linr"  time="-9999999/1" value="0" leadInLength="0/1"  />
               <InterpolatingParam id="1049" interp="linr"  time="-9999999/1" value="0" leadInLength="0/1"  />
               <InterpolatingParam id="1050" interp="linr"  time="-9999999/1" value="0" leadInLength="0/1"  />
              </VectorParam>
              <InterpolatingParam id="1051" interp="linr"  time="-9999999/1" value="1" leadInLength="0/1"  name="opacity"/>
              <InterpolatingParam id="1052" interp="linr"  time="0/1" value="0" leadInLength="0/1"  name="cursorOpacity"/>
              <InterpolatingParam id="1053" interp="linr"  time="0/1" value="0" leadInLength="0/1"  name="cursorScale"/>
             </Parameters>
             <Attributes>
              <Attribute id="1054" value="" name="ident"/>
             </Attributes>
             <ExtraData>
              <Entry key="ZoomPanBin">
               <ZoomPanBin id="1055"  >
                <ZoomPanKeyframes>
                 <ZoomPanKeyframe id="1056" timeRangeEnd="-9999999/1" timeRangeDuration="0/1" interpolaterName=""  />
                </ZoomPanKeyframes>
               </ZoomPanBin>
              </Entry>
              <Entry key="CursorEffectBin">
               <CursorEffectBin id="1057"  >
                <CursorEffectKeyframes>
                </CursorEffectKeyframes>
               </CursorEffectBin>
              </Entry>
             </ExtraData>
            </ScreenVMFile>
            <MetaData>
             <entry key="AutoAppliedSmartFocus" val="False"/>
             <entry key="WinSubProjectDisplayName" val=""/>
            </MetaData>
           </UnifiedMedia>
           <UnifiedMedia id="1058"  >
            <AMFile id="1059" start="2438" duration="173" scalar="1/1" mediaStart="9700/1" mediaDuration="173/1" trackNumber="1" src="4" channelNumber="0,1" >
             <Parameters>
              <InterpolatingParam id="1060" interp="linr"  time="0/1" value="1" leadInLength="0/1"  name="volume"/>
              <Parameter id="1061"  name="captions"/>
             </Parameters>
             <Attributes>
              <Attribute id="1062" value="" name="ident"/>
              <Attribute id="1063" value="44100" name="sampleRate"/>
              <Attribute id="1064" value="16" name="bitDepth"/>
              <Attribute id="1065" value="1" name="gain"/>
              <Attribute id="1066" value="0" name="mixToMono"/>
             </Attributes>
            </AMFile>
            <ScreenVMFile id="1067" start="2438" duration="173" scalar="1/1" mediaStart="9700/1" mediaDuration="173/1" trackNumber="0" src="4" >
             <Transformer>
              <VectorParam id="1068"  name="translation">
               <InterpolatingParam id="1069" interp="linr"  time="-9999999/1" value="0" leadInLength="0/1"  />
               <InterpolatingParam id="1070" interp="linr"  time="-9999999/1" value="0" leadInLength="0/1"  />
               <InterpolatingParam id="1071" interp="linr"  time="-9999999/1" value="0" leadInLength="0/1"  />
              </VectorParam>
              <VectorParam id="1072"  name="rotation">
               <InterpolatingParam id="1073" interp="linr"  time="-9999999/1" value="0" leadInLength="0/1"  />
               <InterpolatingParam id="1074" interp="linr"  time="-9999999/1" value="0" leadInLength="0/1"  />
               <InterpolatingParam id="1075" interp="linr"  time="-9999999/1" value="0" leadInLength="0/1"  />
              </VectorParam>
              <VectorParam id="1076"  name="shear">
               <InterpolatingParam id="1077" interp="linr"  time="-9999999/1" value="0" leadInLength="0/1"  />
               <InterpolatingParam id="1078" interp="linr"  time="-9999999/1" value="0" leadInLength="0/1"  />
               <InterpolatingParam id="1079" interp="linr"  time="-9999999/1" value="0" leadInLength="0/1"  />
              </VectorParam>
              <VectorParam id="1080"  name="scale">
               <InterpolatingParam id="1081" interp="linr"  time="-9999999/1" value="1" leadInLength="0/1"  />
               <InterpolatingParam id="1082" interp="linr"  time="-9999999/1" value="1" leadInLength="0/1"  />
               <InterpolatingParam id="1083" interp="linr"  time="-9999999/1" value="1" leadInLength="0/1"  />
              </VectorParam>
              <VectorParam id="1084"  name="anchor">
               <InterpolatingParam id="1085" interp="linr"  time="0/1" value="0" leadInLength="0/1"  />
               <InterpolatingParam id="1086" interp="linr"  time="0/1" value="0" leadInLength="0/1"  />
               <InterpolatingParam id="1087" interp="linr"  time="0/1" value="0" leadInLength="0/1"  />
              </VectorParam>
             </Transformer>
             <Parameters>
              <VectorParam id="1088"  name="sourceCrop">
               <InterpolatingParam id="1089" interp="linr"  time="0/1" value="0" leadInLength="0/1"  />
               <InterpolatingParam id="1090" interp="linr"  time="0/1" value="0" leadInLength="0/1"  />
               <InterpolatingParam id="1091" interp="linr"  time="0/1" value="0" leadInLength="0/1"  />
               <InterpolatingParam id="1092" interp="linr"  time="0/1" value="0" leadInLength="0/1"  />
              </VectorParam>
              <VectorParam id="1093"  name="geometryCrop">
               <InterpolatingParam id="1094" interp="linr"  time="-9999999/1" value="0" leadInLength="0/1"  />
               <InterpolatingParam id="1095" interp="linr"  time="-9999999/1" value="0" leadInLength="0/1"  />
               <InterpolatingParam id="1096" interp="linr"  time="-9999999/1" value="0" leadInLength="0/1"  />
               <InterpolatingParam id="1097" interp="linr"  time="-9999999/1" value="0" leadInLength="0/1"  />
              </VectorParam>
              <InterpolatingParam id="1098" interp="linr"  time="-9999999/1" value="1" leadInLength="0/1"  name="opacity"/>
              <InterpolatingParam id="1099" interp="linr"  time="0/1" value="0" leadInLength="0/1"  name="cursorOpacity"/>
              <InterpolatingParam id="1100" interp="linr"  time="0/1" value="0" leadInLength="0/1"  name="cursorScale"/>
             </Parameters>
             <Attributes>
              <Attribute id="1101" value="" name="ident"/>
             </Attributes>
             <ExtraData>
              <Entry key="ZoomPanBin">
               <ZoomPanBin id="1102"  >
                <ZoomPanKeyframes>
                 <ZoomPanKeyframe id="1103" timeRangeEnd="-9999999/1" timeRangeDuration="0/1" interpolaterName=""  />
                </ZoomPanKeyframes>
               </ZoomPanBin>
              </Entry>
              <Entry key="CursorEffectBin">
               <CursorEffectBin id="1104"  >
                <CursorEffectKeyframes>
                </CursorEffectKeyframes>
               </CursorEffectBin>
              </Entry>
             </ExtraData>
            </ScreenVMFile>
            <MetaData>
             <entry key="AutoAppliedSmartFocus" val="False"/>
             <entry key="WinSubProjectDisplayName" val=""/>
            </MetaData>
           </UnifiedMedia>
           <UnifiedMedia id="1105"  >
            <AMFile id="1106" start="2611" duration="57" scalar="1/1" mediaStart="9880/1" mediaDuration="57/1" trackNumber="1" src="4" channelNumber="0,1" >
             <Parameters>
              <InterpolatingParam id="1107" interp="linr"  time="0/1" value="1" leadInLength="0/1"  name="volume"/>
              <Parameter id="1108"  name="captions"/>
             </Parameters>
             <Attributes>
              <Attribute id="1109" value="" name="ident"/>
              <Attribute id="1110" value="44100" name="sampleRate"/>
              <Attribute id="1111" value="16" name="bitDepth"/>
              <Attribute id="1112" value="1" name="gain"/>
              <Attribute id="1113" value="0" name="mixToMono"/>
             </Attributes>
            </AMFile>
            <ScreenVMFile id="1114" start="2611" duration="57" scalar="1/1" mediaStart="9880/1" mediaDuration="57/1" trackNumber="0" src="4" >
             <Transformer>
              <VectorParam id="1115"  name="translation">
               <InterpolatingParam id="1116" interp="linr"  time="-9999999/1" value="0" leadInLength="0/1"  />
               <InterpolatingParam id="1117" interp="linr"  time="-9999999/1" value="0" leadInLength="0/1"  />
               <InterpolatingParam id="1118" interp="linr"  time="-9999999/1" value="0" leadInLength="0/1"  />
              </VectorParam>
              <VectorParam id="1119"  name="rotation">
               <InterpolatingParam id="1120" interp="linr"  time="-9999999/1" value="0" leadInLength="0/1"  />
               <InterpolatingParam id="1121" interp="linr"  time="-9999999/1" value="0" leadInLength="0/1"  />
               <InterpolatingParam id="1122" interp="linr"  time="-9999999/1" value="0" leadInLength="0/1"  />
              </VectorParam>
              <VectorParam id="1123"  name="shear">
               <InterpolatingParam id="1124" interp="linr"  time="-9999999/1" value="0" leadInLength="0/1"  />
               <InterpolatingParam id="1125" interp="linr"  time="-9999999/1" value="0" leadInLength="0/1"  />
               <InterpolatingParam id="1126" interp="linr"  time="-9999999/1" value="0" leadInLength="0/1"  />
              </VectorParam>
              <VectorParam id="1127"  name="scale">
               <InterpolatingParam id="1128" interp="linr"  time="-9999999/1" value="1" leadInLength="0/1"  />
               <InterpolatingParam id="1129" interp="linr"  time="-9999999/1" value="1" leadInLength="0/1"  />
               <InterpolatingParam id="1130" interp="linr"  time="-9999999/1" value="1" leadInLength="0/1"  />
              </VectorParam>
              <VectorParam id="1131"  name="anchor">
               <InterpolatingParam id="1132" interp="linr"  time="0/1" value="0" leadInLength="0/1"  />
               <InterpolatingParam id="1133" interp="linr"  time="0/1" value="0" leadInLength="0/1"  />
               <InterpolatingParam id="1134" interp="linr"  time="0/1" value="0" leadInLength="0/1"  />
              </VectorParam>
             </Transformer>
             <Parameters>
              <VectorParam id="1135"  name="sourceCrop">
               <InterpolatingParam id="1136" interp="linr"  time="0/1" value="0" leadInLength="0/1"  />
               <InterpolatingParam id="1137" interp="linr"  time="0/1" value="0" leadInLength="0/1"  />
               <InterpolatingParam id="1138" interp="linr"  time="0/1" value="0" leadInLength="0/1"  />
               <InterpolatingParam id="1139" interp="linr"  time="0/1" value="0" leadInLength="0/1"  />
              </VectorParam>
              <VectorParam id="1140"  name="geometryCrop">
               <InterpolatingParam id="1141" interp="linr"  time="-9999999/1" value="0" leadInLength="0/1"  />
               <InterpolatingParam id="1142" interp="linr"  time="-9999999/1" value="0" leadInLength="0/1"  />
               <InterpolatingParam id="1143" interp="linr"  time="-9999999/1" value="0" leadInLength="0/1"  />
               <InterpolatingParam id="1144" interp="linr"  time="-9999999/1" value="0" leadInLength="0/1"  />
              </VectorParam>
              <InterpolatingParam id="1145" interp="linr"  time="-9999999/1" value="1" leadInLength="0/1"  name="opacity"/>
              <InterpolatingParam id="1146" interp="linr"  time="0/1" value="0" leadInLength="0/1"  name="cursorOpacity"/>
              <InterpolatingParam id="1147" interp="linr"  time="0/1" value="0" leadInLength="0/1"  name="cursorScale"/>
             </Parameters>
             <Attributes>
              <Attribute id="1148" value="" name="ident"/>
             </Attributes>
             <ExtraData>
              <Entry key="ZoomPanBin">
               <ZoomPanBin id="1149"  >
                <ZoomPanKeyframes>
                 <ZoomPanKeyframe id="1150" timeRangeEnd="-9999999/1" timeRangeDuration="0/1" interpolaterName=""  />
                </ZoomPanKeyframes>
               </ZoomPanBin>
              </Entry>
              <Entry key="CursorEffectBin">
               <CursorEffectBin id="1151"  >
                <CursorEffectKeyframes>
                </CursorEffectKeyframes>
               </CursorEffectBin>
              </Entry>
             </ExtraData>
            </ScreenVMFile>
            <MetaData>
             <entry key="AutoAppliedSmartFocus" val="False"/>
             <entry key="WinSubProjectDisplayName" val=""/>
            </MetaData>
           </UnifiedMedia>
           <UnifiedMedia id="1152"  >
            <AMFile id="1153" start="2668" duration="169" scalar="1/1" mediaStart="9953/1" mediaDuration="169/1" trackNumber="1" src="4" channelNumber="0,1" >
             <Parameters>
              <InterpolatingParam id="1154" interp="linr"  time="0/1" value="1" leadInLength="0/1"  name="volume"/>
              <Parameter id="1155"  name="captions"/>
             </Parameters>
             <Attributes>
              <Attribute id="1156" value="" name="ident"/>
              <Attribute id="1157" value="44100" name="sampleRate"/>
              <Attribute id="1158" value="16" name="bitDepth"/>
              <Attribute id="1159" value="1" name="gain"/>
              <Attribute id="1160" value="0" name="mixToMono"/>
             </Attributes>
            </AMFile>
            <ScreenVMFile id="1161" start="2668" duration="169" scalar="1/1" mediaStart="9953/1" mediaDuration="169/1" trackNumber="0" src="4" >
             <Transformer>
              <VectorParam id="1162"  name="translation">
               <InterpolatingParam id="1163" interp="linr"  time="-9999999/1" value="0" leadInLength="0/1"  />
               <InterpolatingParam id="1164" interp="linr"  time="-9999999/1" value="0" leadInLength="0/1"  />
               <InterpolatingParam id="1165" interp="linr"  time="-9999999/1" value="0" leadInLength="0/1"  />
              </VectorParam>
              <VectorParam id="1166"  name="rotation">
               <InterpolatingParam id="1167" interp="linr"  time="-9999999/1" value="0" leadInLength="0/1"  />
               <InterpolatingParam id="1168" interp="linr"  time="-9999999/1" value="0" leadInLength="0/1"  />
               <InterpolatingParam id="1169" interp="linr"  time="-9999999/1" value="0" leadInLength="0/1"  />
              </VectorParam>
              <VectorParam id="1170"  name="shear">
               <InterpolatingParam id="1171" interp="linr"  time="-9999999/1" value="0" leadInLength="0/1"  />
               <InterpolatingParam id="1172" interp="linr"  time="-9999999/1" value="0" leadInLength="0/1"  />
               <InterpolatingParam id="1173" interp="linr"  time="-9999999/1" value="0" leadInLength="0/1"  />
              </VectorParam>
              <VectorParam id="1174"  name="scale">
               <InterpolatingParam id="1175" interp="linr"  time="-9999999/1" value="1" leadInLength="0/1"  />
               <InterpolatingParam id="1176" interp="linr"  time="-9999999/1" value="1" leadInLength="0/1"  />
               <InterpolatingParam id="1177" interp="linr"  time="-9999999/1" value="1" leadInLength="0/1"  />
              </VectorParam>
              <VectorParam id="1178"  name="anchor">
               <InterpolatingParam id="1179" interp="linr"  time="0/1" value="0" leadInLength="0/1"  />
               <InterpolatingParam id="1180" interp="linr"  time="0/1" value="0" leadInLength="0/1"  />
               <InterpolatingParam id="1181" interp="linr"  time="0/1" value="0" leadInLength="0/1"  />
              </VectorParam>
             </Transformer>
             <Parameters>
              <VectorParam id="1182"  name="sourceCrop">
               <InterpolatingParam id="1183" interp="linr"  time="0/1" value="0" leadInLength="0/1"  />
               <InterpolatingParam id="1184" interp="linr"  time="0/1" value="0" leadInLength="0/1"  />
               <InterpolatingParam id="1185" interp="linr"  time="0/1" value="0" leadInLength="0/1"  />
               <InterpolatingParam id="1186" interp="linr"  time="0/1" value="0" leadInLength="0/1"  />
              </VectorParam>
              <VectorParam id="1187"  name="geometryCrop">
               <InterpolatingParam id="1188" interp="linr"  time="-9999999/1" value="0" leadInLength="0/1"  />
               <InterpolatingParam id="1189" interp="linr"  time="-9999999/1" value="0" leadInLength="0/1"  />
               <InterpolatingParam id="1190" interp="linr"  time="-9999999/1" value="0" leadInLength="0/1"  />
               <InterpolatingParam id="1191" interp="linr"  time="-9999999/1" value="0" leadInLength="0/1"  />
              </VectorParam>
              <InterpolatingParam id="1192" interp="linr"  time="-9999999/1" value="1" leadInLength="0/1"  name="opacity"/>
              <InterpolatingParam id="1193" interp="linr"  time="0/1" value="0" leadInLength="0/1"  name="cursorOpacity"/>
              <InterpolatingParam id="1194" interp="linr"  time="0/1" value="0" leadInLength="0/1"  name="cursorScale"/>
             </Parameters>
             <Attributes>
              <Attribute id="1195" value="" name="ident"/>
             </Attributes>
             <ExtraData>
              <Entry key="ZoomPanBin">
               <ZoomPanBin id="1196"  >
                <ZoomPanKeyframes>
                 <ZoomPanKeyframe id="1197" timeRangeEnd="-9999999/1" timeRangeDuration="0/1" interpolaterName=""  />
                </ZoomPanKeyframes>
               </ZoomPanBin>
              </Entry>
              <Entry key="CursorEffectBin">
               <CursorEffectBin id="1198"  >
                <CursorEffectKeyframes>
                </CursorEffectKeyframes>
               </CursorEffectBin>
              </Entry>
             </ExtraData>
            </ScreenVMFile>
            <MetaData>
             <entry key="AutoAppliedSmartFocus" val="False"/>
             <entry key="WinSubProjectDisplayName" val=""/>
            </MetaData>
           </UnifiedMedia>
           <UnifiedMedia id="1199"  >
            <AMFile id="1200" start="2837" duration="158" scalar="1/1" mediaStart="10309/1" mediaDuration="158/1" trackNumber="1" src="4" channelNumber="0,1" >
             <Parameters>
              <InterpolatingParam id="1201" interp="linr"  time="0/1" value="1" leadInLength="0/1"  name="volume"/>
              <Parameter id="1202"  name="captions"/>
             </Parameters>
             <Attributes>
              <Attribute id="1203" value="" name="ident"/>
              <Attribute id="1204" value="44100" name="sampleRate"/>
              <Attribute id="1205" value="16" name="bitDepth"/>
              <Attribute id="1206" value="1" name="gain"/>
              <Attribute id="1207" value="0" name="mixToMono"/>
             </Attributes>
            </AMFile>
            <ScreenVMFile id="1208" start="2837" duration="158" scalar="1/1" mediaStart="10309/1" mediaDuration="158/1" trackNumber="0" src="4" >
             <Transformer>
              <VectorParam id="1209"  name="translation">
               <InterpolatingParam id="1210" interp="linr"  time="-9999999/1" value="0" leadInLength="0/1"  />
               <InterpolatingParam id="1211" interp="linr"  time="-9999999/1" value="0" leadInLength="0/1"  />
               <InterpolatingParam id="1212" interp="linr"  time="-9999999/1" value="0" leadInLength="0/1"  />
              </VectorParam>
              <VectorParam id="1213"  name="rotation">
               <InterpolatingParam id="1214" interp="linr"  time="-9999999/1" value="0" leadInLength="0/1"  />
               <InterpolatingParam id="1215" interp="linr"  time="-9999999/1" value="0" leadInLength="0/1"  />
               <InterpolatingParam id="1216" interp="linr"  time="-9999999/1" value="0" leadInLength="0/1"  />
              </VectorParam>
              <VectorParam id="1217"  name="shear">
               <InterpolatingParam id="1218" interp="linr"  time="-9999999/1" value="0" leadInLength="0/1"  />
               <InterpolatingParam id="1219" interp="linr"  time="-9999999/1" value="0" leadInLength="0/1"  />
               <InterpolatingParam id="1220" interp="linr"  time="-9999999/1" value="0" leadInLength="0/1"  />
              </VectorParam>
              <VectorParam id="1221"  name="scale">
               <InterpolatingParam id="1222" interp="linr"  time="-9999999/1" value="1" leadInLength="0/1"  />
               <InterpolatingParam id="1223" interp="linr"  time="-9999999/1" value="1" leadInLength="0/1"  />
               <InterpolatingParam id="1224" interp="linr"  time="-9999999/1" value="1" leadInLength="0/1"  />
              </VectorParam>
              <VectorParam id="1225"  name="anchor">
               <InterpolatingParam id="1226" interp="linr"  time="0/1" value="0" leadInLength="0/1"  />
               <InterpolatingParam id="1227" interp="linr"  time="0/1" value="0" leadInLength="0/1"  />
               <InterpolatingParam id="1228" interp="linr"  time="0/1" value="0" leadInLength="0/1"  />
              </VectorParam>
             </Transformer>
             <Parameters>
              <VectorParam id="1229"  name="sourceCrop">
               <InterpolatingParam id="1230" interp="linr"  time="0/1" value="0" leadInLength="0/1"  />
               <InterpolatingParam id="1231" interp="linr"  time="0/1" value="0" leadInLength="0/1"  />
               <InterpolatingParam id="1232" interp="linr"  time="0/1" value="0" leadInLength="0/1"  />
               <InterpolatingParam id="1233" interp="linr"  time="0/1" value="0" leadInLength="0/1"  />
              </VectorParam>
              <VectorParam id="1234"  name="geometryCrop">
               <InterpolatingParam id="1235" interp="linr"  time="-9999999/1" value="0" leadInLength="0/1"  />
               <InterpolatingParam id="1236" interp="linr"  time="-9999999/1" value="0" leadInLength="0/1"  />
               <InterpolatingParam id="1237" interp="linr"  time="-9999999/1" value="0" leadInLength="0/1"  />
               <InterpolatingParam id="1238" interp="linr"  time="-9999999/1" value="0" leadInLength="0/1"  />
              </VectorParam>
              <InterpolatingParam id="1239" interp="linr"  time="-9999999/1" value="1" leadInLength="0/1"  name="opacity"/>
              <InterpolatingParam id="1240" interp="linr"  time="0/1" value="0" leadInLength="0/1"  name="cursorOpacity"/>
              <InterpolatingParam id="1241" interp="linr"  time="0/1" value="0" leadInLength="0/1"  name="cursorScale"/>
             </Parameters>
             <Attributes>
              <Attribute id="1242" value="" name="ident"/>
             </Attributes>
             <ExtraData>
              <Entry key="ZoomPanBin">
               <ZoomPanBin id="1243"  >
                <ZoomPanKeyframes>
                 <ZoomPanKeyframe id="1244" timeRangeEnd="-9999999/1" timeRangeDuration="0/1" interpolaterName=""  />
                </ZoomPanKeyframes>
               </ZoomPanBin>
              </Entry>
              <Entry key="CursorEffectBin">
               <CursorEffectBin id="1245"  >
                <CursorEffectKeyframes>
                </CursorEffectKeyframes>
               </CursorEffectBin>
              </Entry>
             </ExtraData>
            </ScreenVMFile>
            <MetaData>
             <entry key="AutoAppliedSmartFocus" val="False"/>
             <entry key="WinSubProjectDisplayName" val=""/>
            </MetaData>
           </UnifiedMedia>
           <UnifiedMedia id="1246"  >
            <AMFile id="1247" start="2995" duration="128" scalar="1/1" mediaStart="11453/1" mediaDuration="128/1" trackNumber="1" src="4" channelNumber="0,1" >
             <Parameters>
              <InterpolatingParam id="1248" interp="linr"  time="0/1" value="1" leadInLength="0/1"  name="volume"/>
              <Parameter id="1249"  name="captions"/>
             </Parameters>
             <Attributes>
              <Attribute id="1250" value="" name="ident"/>
              <Attribute id="1251" value="44100" name="sampleRate"/>
              <Attribute id="1252" value="16" name="bitDepth"/>
              <Attribute id="1253" value="1" name="gain"/>
              <Attribute id="1254" value="0" name="mixToMono"/>
             </Attributes>
            </AMFile>
            <ScreenVMFile id="1255" start="2995" duration="128" scalar="1/1" mediaStart="11453/1" mediaDuration="128/1" trackNumber="0" src="4" >
             <Transformer>
              <VectorParam id="1256"  name="translation">
               <InterpolatingParam id="1257" interp="linr"  time="-9999999/1" value="0" leadInLength="0/1"  />
               <InterpolatingParam id="1258" interp="linr"  time="-9999999/1" value="0" leadInLength="0/1"  />
               <InterpolatingParam id="1259" interp="linr"  time="-9999999/1" value="0" leadInLength="0/1"  />
              </VectorParam>
              <VectorParam id="1260"  name="rotation">
               <InterpolatingParam id="1261" interp="linr"  time="-9999999/1" value="0" leadInLength="0/1"  />
               <InterpolatingParam id="1262" interp="linr"  time="-9999999/1" value="0" leadInLength="0/1"  />
               <InterpolatingParam id="1263" interp="linr"  time="-9999999/1" value="0" leadInLength="0/1"  />
              </VectorParam>
              <VectorParam id="1264"  name="shear">
               <InterpolatingParam id="1265" interp="linr"  time="-9999999/1" value="0" leadInLength="0/1"  />
               <InterpolatingParam id="1266" interp="linr"  time="-9999999/1" value="0" leadInLength="0/1"  />
               <InterpolatingParam id="1267" interp="linr"  time="-9999999/1" value="0" leadInLength="0/1"  />
              </VectorParam>
              <VectorParam id="1268"  name="scale">
               <InterpolatingParam id="1269" interp="linr"  time="-9999999/1" value="1" leadInLength="0/1"  />
               <InterpolatingParam id="1270" interp="linr"  time="-9999999/1" value="1" leadInLength="0/1"  />
               <InterpolatingParam id="1271" interp="linr"  time="-9999999/1" value="1" leadInLength="0/1"  />
              </VectorParam>
              <VectorParam id="1272"  name="anchor">
               <InterpolatingParam id="1273" interp="linr"  time="0/1" value="0" leadInLength="0/1"  />
               <InterpolatingParam id="1274" interp="linr"  time="0/1" value="0" leadInLength="0/1"  />
               <InterpolatingParam id="1275" interp="linr"  time="0/1" value="0" leadInLength="0/1"  />
              </VectorParam>
             </Transformer>
             <Parameters>
              <VectorParam id="1276"  name="sourceCrop">
               <InterpolatingParam id="1277" interp="linr"  time="0/1" value="0" leadInLength="0/1"  />
               <InterpolatingParam id="1278" interp="linr"  time="0/1" value="0" leadInLength="0/1"  />
               <InterpolatingParam id="1279" interp="linr"  time="0/1" value="0" leadInLength="0/1"  />
               <InterpolatingParam id="1280" interp="linr"  time="0/1" value="0" leadInLength="0/1"  />
              </VectorParam>
              <VectorParam id="1281"  name="geometryCrop">
               <InterpolatingParam id="1282" interp="linr"  time="-9999999/1" value="0" leadInLength="0/1"  />
               <InterpolatingParam id="1283" interp="linr"  time="-9999999/1" value="0" leadInLength="0/1"  />
               <InterpolatingParam id="1284" interp="linr"  time="-9999999/1" value="0" leadInLength="0/1"  />
               <InterpolatingParam id="1285" interp="linr"  time="-9999999/1" value="0" leadInLength="0/1"  />
              </VectorParam>
              <InterpolatingParam id="1286" interp="linr"  time="-9999999/1" value="1" leadInLength="0/1"  name="opacity"/>
              <InterpolatingParam id="1287" interp="linr"  time="0/1" value="0" leadInLength="0/1"  name="cursorOpacity"/>
              <InterpolatingParam id="1288" interp="linr"  time="0/1" value="0" leadInLength="0/1"  name="cursorScale"/>
             </Parameters>
             <Attributes>
              <Attribute id="1289" value="" name="ident"/>
             </Attributes>
             <ExtraData>
              <Entry key="ZoomPanBin">
               <ZoomPanBin id="1290"  >
                <ZoomPanKeyframes>
                 <ZoomPanKeyframe id="1291" timeRangeEnd="-9999999/1" timeRangeDuration="0/1" interpolaterName=""  />
                </ZoomPanKeyframes>
               </ZoomPanBin>
              </Entry>
              <Entry key="CursorEffectBin">
               <CursorEffectBin id="1292"  >
                <CursorEffectKeyframes>
                </CursorEffectKeyframes>
               </CursorEffectBin>
              </Entry>
             </ExtraData>
            </ScreenVMFile>
            <MetaData>
             <entry key="AutoAppliedSmartFocus" val="False"/>
             <entry key="WinSubProjectDisplayName" val=""/>
            </MetaData>
           </UnifiedMedia>
           <UnifiedMedia id="1293"  >
            <AMFile id="1294" start="3123" duration="62" scalar="1/1" mediaStart="11754/1" mediaDuration="62/1" trackNumber="1" src="4" channelNumber="0,1" >
             <Parameters>
              <InterpolatingParam id="1295" interp="linr"  time="0/1" value="1" leadInLength="0/1"  name="volume"/>
              <Parameter id="1296"  name="captions"/>
             </Parameters>
             <Attributes>
              <Attribute id="1297" value="" name="ident"/>
              <Attribute id="1298" value="44100" name="sampleRate"/>
              <Attribute id="1299" value="16" name="bitDepth"/>
              <Attribute id="1300" value="1" name="gain"/>
              <Attribute id="1301" value="0" name="mixToMono"/>
             </Attributes>
            </AMFile>
            <ScreenVMFile id="1302" start="3123" duration="62" scalar="1/1" mediaStart="11754/1" mediaDuration="62/1" trackNumber="0" src="4" >
             <Transformer>
              <VectorParam id="1303"  name="translation">
               <InterpolatingParam id="1304" interp="linr"  time="-9999999/1" value="0" leadInLength="0/1"  />
               <InterpolatingParam id="1305" interp="linr"  time="-9999999/1" value="0" leadInLength="0/1"  />
               <InterpolatingParam id="1306" interp="linr"  time="-9999999/1" value="0" leadInLength="0/1"  />
              </VectorParam>
              <VectorParam id="1307"  name="rotation">
               <InterpolatingParam id="1308" interp="linr"  time="-9999999/1" value="0" leadInLength="0/1"  />
               <InterpolatingParam id="1309" interp="linr"  time="-9999999/1" value="0" leadInLength="0/1"  />
               <InterpolatingParam id="1310" interp="linr"  time="-9999999/1" value="0" leadInLength="0/1"  />
              </VectorParam>
              <VectorParam id="1311"  name="shear">
               <InterpolatingParam id="1312" interp="linr"  time="-9999999/1" value="0" leadInLength="0/1"  />
               <InterpolatingParam id="1313" interp="linr"  time="-9999999/1" value="0" leadInLength="0/1"  />
               <InterpolatingParam id="1314" interp="linr"  time="-9999999/1" value="0" leadInLength="0/1"  />
              </VectorParam>
              <VectorParam id="1315"  name="scale">
               <InterpolatingParam id="1316" interp="linr"  time="-9999999/1" value="1" leadInLength="0/1"  />
               <InterpolatingParam id="1317" interp="linr"  time="-9999999/1" value="1" leadInLength="0/1"  />
               <InterpolatingParam id="1318" interp="linr"  time="-9999999/1" value="1" leadInLength="0/1"  />
              </VectorParam>
              <VectorParam id="1319"  name="anchor">
               <InterpolatingParam id="1320" interp="linr"  time="0/1" value="0" leadInLength="0/1"  />
               <InterpolatingParam id="1321" interp="linr"  time="0/1" value="0" leadInLength="0/1"  />
               <InterpolatingParam id="1322" interp="linr"  time="0/1" value="0" leadInLength="0/1"  />
              </VectorParam>
             </Transformer>
             <Parameters>
              <VectorParam id="1323"  name="sourceCrop">
               <InterpolatingParam id="1324" interp="linr"  time="0/1" value="0" leadInLength="0/1"  />
               <InterpolatingParam id="1325" interp="linr"  time="0/1" value="0" leadInLength="0/1"  />
               <InterpolatingParam id="1326" interp="linr"  time="0/1" value="0" leadInLength="0/1"  />
               <InterpolatingParam id="1327" interp="linr"  time="0/1" value="0" leadInLength="0/1"  />
              </VectorParam>
              <VectorParam id="1328"  name="geometryCrop">
               <InterpolatingParam id="1329" interp="linr"  time="-9999999/1" value="0" leadInLength="0/1"  />
               <InterpolatingParam id="1330" interp="linr"  time="-9999999/1" value="0" leadInLength="0/1"  />
               <InterpolatingParam id="1331" interp="linr"  time="-9999999/1" value="0" leadInLength="0/1"  />
               <InterpolatingParam id="1332" interp="linr"  time="-9999999/1" value="0" leadInLength="0/1"  />
              </VectorParam>
              <InterpolatingParam id="1333" interp="linr"  time="-9999999/1" value="1" leadInLength="0/1"  name="opacity"/>
              <InterpolatingParam id="1334" interp="linr"  time="0/1" value="0" leadInLength="0/1"  name="cursorOpacity"/>
              <InterpolatingParam id="1335" interp="linr"  time="0/1" value="0" leadInLength="0/1"  name="cursorScale"/>
             </Parameters>
             <Attributes>
              <Attribute id="1336" value="" name="ident"/>
             </Attributes>
             <ExtraData>
              <Entry key="ZoomPanBin">
               <ZoomPanBin id="1337"  >
                <ZoomPanKeyframes>
                 <ZoomPanKeyframe id="1338" timeRangeEnd="-9999999/1" timeRangeDuration="0/1" interpolaterName=""  />
                </ZoomPanKeyframes>
               </ZoomPanBin>
              </Entry>
              <Entry key="CursorEffectBin">
               <CursorEffectBin id="1339"  >
                <CursorEffectKeyframes>
                </CursorEffectKeyframes>
               </CursorEffectBin>
              </Entry>
             </ExtraData>
            </ScreenVMFile>
            <MetaData>
             <entry key="AutoAppliedSmartFocus" val="False"/>
             <entry key="WinSubProjectDisplayName" val=""/>
            </MetaData>
           </UnifiedMedia>
           <UnifiedMedia id="1340"  >
            <AMFile id="1341" start="3185" duration="75" scalar="1/1" mediaStart="11822/1" mediaDuration="75/1" trackNumber="1" src="4" channelNumber="0,1" >
             <Parameters>
              <InterpolatingParam id="1342" interp="linr"  time="0/1" value="1" leadInLength="0/1"  name="volume"/>
              <Parameter id="1343"  name="captions"/>
             </Parameters>
             <Attributes>
              <Attribute id="1344" value="" name="ident"/>
              <Attribute id="1345" value="44100" name="sampleRate"/>
              <Attribute id="1346" value="16" name="bitDepth"/>
              <Attribute id="1347" value="1" name="gain"/>
              <Attribute id="1348" value="0" name="mixToMono"/>
             </Attributes>
            </AMFile>
            <ScreenVMFile id="1349" start="3185" duration="75" scalar="1/1" mediaStart="11822/1" mediaDuration="75/1" trackNumber="0" src="4" >
             <Transformer>
              <VectorParam id="1350"  name="translation">
               <InterpolatingParam id="1351" interp="linr"  time="-9999999/1" value="0" leadInLength="0/1"  />
               <InterpolatingParam id="1352" interp="linr"  time="-9999999/1" value="0" leadInLength="0/1"  />
               <InterpolatingParam id="1353" interp="linr"  time="-9999999/1" value="0" leadInLength="0/1"  />
              </VectorParam>
              <VectorParam id="1354"  name="rotation">
               <InterpolatingParam id="1355" interp="linr"  time="-9999999/1" value="0" leadInLength="0/1"  />
               <InterpolatingParam id="1356" interp="linr"  time="-9999999/1" value="0" leadInLength="0/1"  />
               <InterpolatingParam id="1357" interp="linr"  time="-9999999/1" value="0" leadInLength="0/1"  />
              </VectorParam>
              <VectorParam id="1358"  name="shear">
               <InterpolatingParam id="1359" interp="linr"  time="-9999999/1" value="0" leadInLength="0/1"  />
               <InterpolatingParam id="1360" interp="linr"  time="-9999999/1" value="0" leadInLength="0/1"  />
               <InterpolatingParam id="1361" interp="linr"  time="-9999999/1" value="0" leadInLength="0/1"  />
              </VectorParam>
              <VectorParam id="1362"  name="scale">
               <InterpolatingParam id="1363" interp="linr"  time="-9999999/1" value="1" leadInLength="0/1"  />
               <InterpolatingParam id="1364" interp="linr"  time="-9999999/1" value="1" leadInLength="0/1"  />
               <InterpolatingParam id="1365" interp="linr"  time="-9999999/1" value="1" leadInLength="0/1"  />
              </VectorParam>
              <VectorParam id="1366"  name="anchor">
               <InterpolatingParam id="1367" interp="linr"  time="0/1" value="0" leadInLength="0/1"  />
               <InterpolatingParam id="1368" interp="linr"  time="0/1" value="0" leadInLength="0/1"  />
               <InterpolatingParam id="1369" interp="linr"  time="0/1" value="0" leadInLength="0/1"  />
              </VectorParam>
             </Transformer>
             <Parameters>
              <VectorParam id="1370"  name="sourceCrop">
               <InterpolatingParam id="1371" interp="linr"  time="0/1" value="0" leadInLength="0/1"  />
               <InterpolatingParam id="1372" interp="linr"  time="0/1" value="0" leadInLength="0/1"  />
               <InterpolatingParam id="1373" interp="linr"  time="0/1" value="0" leadInLength="0/1"  />
               <InterpolatingParam id="1374" interp="linr"  time="0/1" value="0" leadInLength="0/1"  />
              </VectorParam>
              <VectorParam id="1375"  name="geometryCrop">
               <InterpolatingParam id="1376" interp="linr"  time="-9999999/1" value="0" leadInLength="0/1"  />
               <InterpolatingParam id="1377" interp="linr"  time="-9999999/1" value="0" leadInLength="0/1"  />
               <InterpolatingParam id="1378" interp="linr"  time="-9999999/1" value="0" leadInLength="0/1"  />
               <InterpolatingParam id="1379" interp="linr"  time="-9999999/1" value="0" leadInLength="0/1"  />
              </VectorParam>
              <InterpolatingParam id="1380" interp="linr"  time="-9999999/1" value="1" leadInLength="0/1"  name="opacity"/>
              <InterpolatingParam id="1381" interp="linr"  time="0/1" value="0" leadInLength="0/1"  name="cursorOpacity"/>
              <InterpolatingParam id="1382" interp="linr"  time="0/1" value="0" leadInLength="0/1"  name="cursorScale"/>
             </Parameters>
             <Attributes>
              <Attribute id="1383" value="" name="ident"/>
             </Attributes>
             <ExtraData>
              <Entry key="ZoomPanBin">
               <ZoomPanBin id="1384"  >
                <ZoomPanKeyframes>
                 <ZoomPanKeyframe id="1385" timeRangeEnd="-9999999/1" timeRangeDuration="0/1" interpolaterName=""  />
                </ZoomPanKeyframes>
               </ZoomPanBin>
              </Entry>
              <Entry key="CursorEffectBin">
               <CursorEffectBin id="1386"  >
                <CursorEffectKeyframes>
                </CursorEffectKeyframes>
               </CursorEffectBin>
              </Entry>
             </ExtraData>
            </ScreenVMFile>
            <MetaData>
             <entry key="AutoAppliedSmartFocus" val="False"/>
             <entry key="WinSubProjectDisplayName" val=""/>
            </MetaData>
           </UnifiedMedia>
           <UnifiedMedia id="1387"  >
            <AMFile id="1388" start="3260" duration="121" scalar="1/1" mediaStart="12199/1" mediaDuration="121/1" trackNumber="1" src="4" channelNumber="0,1" >
             <Parameters>
              <InterpolatingParam id="1389" interp="linr"  time="0/1" value="1" leadInLength="0/1"  name="volume"/>
              <Parameter id="1390"  name="captions"/>
             </Parameters>
             <Attributes>
              <Attribute id="1391" value="" name="ident"/>
              <Attribute id="1392" value="44100" name="sampleRate"/>
              <Attribute id="1393" value="16" name="bitDepth"/>
              <Attribute id="1394" value="1" name="gain"/>
              <Attribute id="1395" value="0" name="mixToMono"/>
             </Attributes>
            </AMFile>
            <ScreenVMFile id="1396" start="3260" duration="121" scalar="1/1" mediaStart="12199/1" mediaDuration="121/1" trackNumber="0" src="4" >
             <Transformer>
              <VectorParam id="1397"  name="translation">
               <InterpolatingParam id="1398" interp="linr"  time="-9999999/1" value="0" leadInLength="0/1"  />
               <InterpolatingParam id="1399" interp="linr"  time="-9999999/1" value="0" leadInLength="0/1"  />
               <InterpolatingParam id="1400" interp="linr"  time="-9999999/1" value="0" leadInLength="0/1"  />
              </VectorParam>
              <VectorParam id="1401"  name="rotation">
               <InterpolatingParam id="1402" interp="linr"  time="-9999999/1" value="0" leadInLength="0/1"  />
               <InterpolatingParam id="1403" interp="linr"  time="-9999999/1" value="0" leadInLength="0/1"  />
               <InterpolatingParam id="1404" interp="linr"  time="-9999999/1" value="0" leadInLength="0/1"  />
              </VectorParam>
              <VectorParam id="1405"  name="shear">
               <InterpolatingParam id="1406" interp="linr"  time="-9999999/1" value="0" leadInLength="0/1"  />
               <InterpolatingParam id="1407" interp="linr"  time="-9999999/1" value="0" leadInLength="0/1"  />
               <InterpolatingParam id="1408" interp="linr"  time="-9999999/1" value="0" leadInLength="0/1"  />
              </VectorParam>
              <VectorParam id="1409"  name="scale">
               <InterpolatingParam id="1410" interp="linr"  time="-9999999/1" value="1" leadInLength="0/1"  />
               <InterpolatingParam id="1411" interp="linr"  time="-9999999/1" value="1" leadInLength="0/1"  />
               <InterpolatingParam id="1412" interp="linr"  time="-9999999/1" value="1" leadInLength="0/1"  />
              </VectorParam>
              <VectorParam id="1413"  name="anchor">
               <InterpolatingParam id="1414" interp="linr"  time="0/1" value="0" leadInLength="0/1"  />
               <InterpolatingParam id="1415" interp="linr"  time="0/1" value="0" leadInLength="0/1"  />
               <InterpolatingParam id="1416" interp="linr"  time="0/1" value="0" leadInLength="0/1"  />
              </VectorParam>
             </Transformer>
             <Parameters>
              <VectorParam id="1417"  name="sourceCrop">
               <InterpolatingParam id="1418" interp="linr"  time="0/1" value="0" leadInLength="0/1"  />
               <InterpolatingParam id="1419" interp="linr"  time="0/1" value="0" leadInLength="0/1"  />
               <InterpolatingParam id="1420" interp="linr"  time="0/1" value="0" leadInLength="0/1"  />
               <InterpolatingParam id="1421" interp="linr"  time="0/1" value="0" leadInLength="0/1"  />
              </VectorParam>
              <VectorParam id="1422"  name="geometryCrop">
               <InterpolatingParam id="1423" interp="linr"  time="-9999999/1" value="0" leadInLength="0/1"  />
               <InterpolatingParam id="1424" interp="linr"  time="-9999999/1" value="0" leadInLength="0/1"  />
               <InterpolatingParam id="1425" interp="linr"  time="-9999999/1" value="0" leadInLength="0/1"  />
               <InterpolatingParam id="1426" interp="linr"  time="-9999999/1" value="0" leadInLength="0/1"  />
              </VectorParam>
              <InterpolatingParam id="1427" interp="linr"  time="-9999999/1" value="1" leadInLength="0/1"  name="opacity"/>
              <InterpolatingParam id="1428" interp="linr"  time="0/1" value="0" leadInLength="0/1"  name="cursorOpacity"/>
              <InterpolatingParam id="1429" interp="linr"  time="0/1" value="0" leadInLength="0/1"  name="cursorScale"/>
             </Parameters>
             <Attributes>
              <Attribute id="1430" value="" name="ident"/>
             </Attributes>
             <ExtraData>
              <Entry key="ZoomPanBin">
               <ZoomPanBin id="1431"  >
                <ZoomPanKeyframes>
                 <ZoomPanKeyframe id="1432" timeRangeEnd="-9999999/1" timeRangeDuration="0/1" interpolaterName=""  />
                </ZoomPanKeyframes>
               </ZoomPanBin>
              </Entry>
              <Entry key="CursorEffectBin">
               <CursorEffectBin id="1433"  >
                <CursorEffectKeyframes>
                </CursorEffectKeyframes>
               </CursorEffectBin>
              </Entry>
             </ExtraData>
            </ScreenVMFile>
            <MetaData>
             <entry key="AutoAppliedSmartFocus" val="False"/>
             <entry key="WinSubProjectDisplayName" val=""/>
            </MetaData>
           </UnifiedMedia>
           <UnifiedMedia id="1434"  >
            <AMFile id="1435" start="3381" duration="181" scalar="1/1" mediaStart="12327/1" mediaDuration="181/1" trackNumber="1" src="4" channelNumber="0,1" >
             <Parameters>
              <InterpolatingParam id="1436" interp="linr"  time="0/1" value="1" leadInLength="0/1"  name="volume"/>
              <Parameter id="1437"  name="captions"/>
             </Parameters>
             <Attributes>
              <Attribute id="1438" value="" name="ident"/>
              <Attribute id="1439" value="44100" name="sampleRate"/>
              <Attribute id="1440" value="16" name="bitDepth"/>
              <Attribute id="1441" value="1" name="gain"/>
              <Attribute id="1442" value="0" name="mixToMono"/>
             </Attributes>
            </AMFile>
            <ScreenVMFile id="1443" start="3381" duration="181" scalar="1/1" mediaStart="12327/1" mediaDuration="181/1" trackNumber="0" src="4" >
             <Transformer>
              <VectorParam id="1444"  name="translation">
               <InterpolatingParam id="1445" interp="linr"  time="-9999999/1" value="0" leadInLength="0/1"  />
               <InterpolatingParam id="1446" interp="linr"  time="-9999999/1" value="0" leadInLength="0/1"  />
               <InterpolatingParam id="1447" interp="linr"  time="-9999999/1" value="0" leadInLength="0/1"  />
              </VectorParam>
              <VectorParam id="1448"  name="rotation">
               <InterpolatingParam id="1449" interp="linr"  time="-9999999/1" value="0" leadInLength="0/1"  />
               <InterpolatingParam id="1450" interp="linr"  time="-9999999/1" value="0" leadInLength="0/1"  />
               <InterpolatingParam id="1451" interp="linr"  time="-9999999/1" value="0" leadInLength="0/1"  />
              </VectorParam>
              <VectorParam id="1452"  name="shear">
               <InterpolatingParam id="1453" interp="linr"  time="-9999999/1" value="0" leadInLength="0/1"  />
               <InterpolatingParam id="1454" interp="linr"  time="-9999999/1" value="0" leadInLength="0/1"  />
               <InterpolatingParam id="1455" interp="linr"  time="-9999999/1" value="0" leadInLength="0/1"  />
              </VectorParam>
              <VectorParam id="1456"  name="scale">
               <InterpolatingParam id="1457" interp="linr"  time="-9999999/1" value="1" leadInLength="0/1"  />
               <InterpolatingParam id="1458" interp="linr"  time="-9999999/1" value="1" leadInLength="0/1"  />
               <InterpolatingParam id="1459" interp="linr"  time="-9999999/1" value="1" leadInLength="0/1"  />
              </VectorParam>
              <VectorParam id="1460"  name="anchor">
               <InterpolatingParam id="1461" interp="linr"  time="0/1" value="0" leadInLength="0/1"  />
               <InterpolatingParam id="1462" interp="linr"  time="0/1" value="0" leadInLength="0/1"  />
               <InterpolatingParam id="1463" interp="linr"  time="0/1" value="0" leadInLength="0/1"  />
              </VectorParam>
             </Transformer>
             <Parameters>
              <VectorParam id="1464"  name="sourceCrop">
               <InterpolatingParam id="1465" interp="linr"  time="0/1" value="0" leadInLength="0/1"  />
               <InterpolatingParam id="1466" interp="linr"  time="0/1" value="0" leadInLength="0/1"  />
               <InterpolatingParam id="1467" interp="linr"  time="0/1" value="0" leadInLength="0/1"  />
               <InterpolatingParam id="1468" interp="linr"  time="0/1" value="0" leadInLength="0/1"  />
              </VectorParam>
              <VectorParam id="1469"  name="geometryCrop">
               <InterpolatingParam id="1470" interp="linr"  time="-9999999/1" value="0" leadInLength="0/1"  />
               <InterpolatingParam id="1471" interp="linr"  time="-9999999/1" value="0" leadInLength="0/1"  />
               <InterpolatingParam id="1472" interp="linr"  time="-9999999/1" value="0" leadInLength="0/1"  />
               <InterpolatingParam id="1473" interp="linr"  time="-9999999/1" value="0" leadInLength="0/1"  />
              </VectorParam>
              <InterpolatingParam id="1474" interp="linr"  time="-9999999/1" value="1" leadInLength="0/1"  name="opacity"/>
              <InterpolatingParam id="1475" interp="linr"  time="0/1" value="0" leadInLength="0/1"  name="cursorOpacity"/>
              <InterpolatingParam id="1476" interp="linr"  time="0/1" value="0" leadInLength="0/1"  name="cursorScale"/>
             </Parameters>
             <Attributes>
              <Attribute id="1477" value="" name="ident"/>
             </Attributes>
             <ExtraData>
              <Entry key="ZoomPanBin">
               <ZoomPanBin id="1478"  >
                <ZoomPanKeyframes>
                 <ZoomPanKeyframe id="1479" timeRangeEnd="-9999999/1" timeRangeDuration="0/1" interpolaterName=""  />
                </ZoomPanKeyframes>
               </ZoomPanBin>
              </Entry>
              <Entry key="CursorEffectBin">
               <CursorEffectBin id="1480"  >
                <CursorEffectKeyframes>
                </CursorEffectKeyframes>
               </CursorEffectBin>
              </Entry>
             </ExtraData>
            </ScreenVMFile>
            <MetaData>
             <entry key="AutoAppliedSmartFocus" val="False"/>
             <entry key="WinSubProjectDisplayName" val=""/>
            </MetaData>
           </UnifiedMedia>
           <UnifiedMedia id="1481"  >
            <AMFile id="1482" start="3562" duration="49" scalar="1/1" mediaStart="12515/1" mediaDuration="49/1" trackNumber="1" src="4" channelNumber="0,1" >
             <Parameters>
              <InterpolatingParam id="1483" interp="linr"  time="0/1" value="1" leadInLength="0/1"  name="volume"/>
              <Parameter id="1484"  name="captions"/>
             </Parameters>
             <Attributes>
              <Attribute id="1485" value="" name="ident"/>
              <Attribute id="1486" value="44100" name="sampleRate"/>
              <Attribute id="1487" value="16" name="bitDepth"/>
              <Attribute id="1488" value="1" name="gain"/>
              <Attribute id="1489" value="0" name="mixToMono"/>
             </Attributes>
            </AMFile>
            <ScreenVMFile id="1490" start="3562" duration="49" scalar="1/1" mediaStart="12515/1" mediaDuration="49/1" trackNumber="0" src="4" >
             <Transformer>
              <VectorParam id="1491"  name="translation">
               <InterpolatingParam id="1492" interp="linr"  time="-9999999/1" value="0" leadInLength="0/1"  />
               <InterpolatingParam id="1493" interp="linr"  time="-9999999/1" value="0" leadInLength="0/1"  />
               <InterpolatingParam id="1494" interp="linr"  time="-9999999/1" value="0" leadInLength="0/1"  />
              </VectorParam>
              <VectorParam id="1495"  name="rotation">
               <InterpolatingParam id="1496" interp="linr"  time="-9999999/1" value="0" leadInLength="0/1"  />
               <InterpolatingParam id="1497" interp="linr"  time="-9999999/1" value="0" leadInLength="0/1"  />
               <InterpolatingParam id="1498" interp="linr"  time="-9999999/1" value="0" leadInLength="0/1"  />
              </VectorParam>
              <VectorParam id="1499"  name="shear">
               <InterpolatingParam id="1500" interp="linr"  time="-9999999/1" value="0" leadInLength="0/1"  />
               <InterpolatingParam id="1501" interp="linr"  time="-9999999/1" value="0" leadInLength="0/1"  />
               <InterpolatingParam id="1502" interp="linr"  time="-9999999/1" value="0" leadInLength="0/1"  />
              </VectorParam>
              <VectorParam id="1503"  name="scale">
               <InterpolatingParam id="1504" interp="linr"  time="-9999999/1" value="1" leadInLength="0/1"  />
               <InterpolatingParam id="1505" interp="linr"  time="-9999999/1" value="1" leadInLength="0/1"  />
               <InterpolatingParam id="1506" interp="linr"  time="-9999999/1" value="1" leadInLength="0/1"  />
              </VectorParam>
              <VectorParam id="1507"  name="anchor">
               <InterpolatingParam id="1508" interp="linr"  time="0/1" value="0" leadInLength="0/1"  />
               <InterpolatingParam id="1509" interp="linr"  time="0/1" value="0" leadInLength="0/1"  />
               <InterpolatingParam id="1510" interp="linr"  time="0/1" value="0" leadInLength="0/1"  />
              </VectorParam>
             </Transformer>
             <Parameters>
              <VectorParam id="1511"  name="sourceCrop">
               <InterpolatingParam id="1512" interp="linr"  time="0/1" value="0" leadInLength="0/1"  />
               <InterpolatingParam id="1513" interp="linr"  time="0/1" value="0" leadInLength="0/1"  />
               <InterpolatingParam id="1514" interp="linr"  time="0/1" value="0" leadInLength="0/1"  />
               <InterpolatingParam id="1515" interp="linr"  time="0/1" value="0" leadInLength="0/1"  />
              </VectorParam>
              <VectorParam id="1516"  name="geometryCrop">
               <InterpolatingParam id="1517" interp="linr"  time="-9999999/1" value="0" leadInLength="0/1"  />
               <InterpolatingParam id="1518" interp="linr"  time="-9999999/1" value="0" leadInLength="0/1"  />
               <InterpolatingParam id="1519" interp="linr"  time="-9999999/1" value="0" leadInLength="0/1"  />
               <InterpolatingParam id="1520" interp="linr"  time="-9999999/1" value="0" leadInLength="0/1"  />
              </VectorParam>
              <InterpolatingParam id="1521" interp="linr"  time="-9999999/1" value="1" leadInLength="0/1"  name="opacity"/>
              <InterpolatingParam id="1522" interp="linr"  time="0/1" value="0" leadInLength="0/1"  name="cursorOpacity"/>
              <InterpolatingParam id="1523" interp="linr"  time="0/1" value="0" leadInLength="0/1"  name="cursorScale"/>
             </Parameters>
             <Attributes>
              <Attribute id="1524" value="" name="ident"/>
             </Attributes>
             <ExtraData>
              <Entry key="ZoomPanBin">
               <ZoomPanBin id="1525"  >
                <ZoomPanKeyframes>
                 <ZoomPanKeyframe id="1526" timeRangeEnd="-9999999/1" timeRangeDuration="0/1" interpolaterName=""  />
                </ZoomPanKeyframes>
               </ZoomPanBin>
              </Entry>
              <Entry key="CursorEffectBin">
               <CursorEffectBin id="1527"  >
                <CursorEffectKeyframes>
                </CursorEffectKeyframes>
               </CursorEffectBin>
              </Entry>
             </ExtraData>
            </ScreenVMFile>
            <MetaData>
             <entry key="AutoAppliedSmartFocus" val="False"/>
             <entry key="WinSubProjectDisplayName" val=""/>
            </MetaData>
           </UnifiedMedia>
           <UnifiedMedia id="1528"  >
            <AMFile id="1529" start="3611" duration="110" scalar="1/1" mediaStart="12573/1" mediaDuration="110/1" trackNumber="1" src="4" channelNumber="0,1" >
             <Parameters>
              <InterpolatingParam id="1530" interp="linr"  time="0/1" value="1" leadInLength="0/1"  name="volume"/>
              <Parameter id="1531"  name="captions"/>
             </Parameters>
             <Attributes>
              <Attribute id="1532" value="" name="ident"/>
              <Attribute id="1533" value="44100" name="sampleRate"/>
              <Attribute id="1534" value="16" name="bitDepth"/>
              <Attribute id="1535" value="1" name="gain"/>
              <Attribute id="1536" value="0" name="mixToMono"/>
             </Attributes>
            </AMFile>
            <ScreenVMFile id="1537" start="3611" duration="110" scalar="1/1" mediaStart="12573/1" mediaDuration="110/1" trackNumber="0" src="4" >
             <Transformer>
              <VectorParam id="1538"  name="translation">
               <InterpolatingParam id="1539" interp="linr"  time="-9999999/1" value="0" leadInLength="0/1"  />
               <InterpolatingParam id="1540" interp="linr"  time="-9999999/1" value="0" leadInLength="0/1"  />
               <InterpolatingParam id="1541" interp="linr"  time="-9999999/1" value="0" leadInLength="0/1"  />
              </VectorParam>
              <VectorParam id="1542"  name="rotation">
               <InterpolatingParam id="1543" interp="linr"  time="-9999999/1" value="0" leadInLength="0/1"  />
               <InterpolatingParam id="1544" interp="linr"  time="-9999999/1" value="0" leadInLength="0/1"  />
               <InterpolatingParam id="1545" interp="linr"  time="-9999999/1" value="0" leadInLength="0/1"  />
              </VectorParam>
              <VectorParam id="1546"  name="shear">
               <InterpolatingParam id="1547" interp="linr"  time="-9999999/1" value="0" leadInLength="0/1"  />
               <InterpolatingParam id="1548" interp="linr"  time="-9999999/1" value="0" leadInLength="0/1"  />
               <InterpolatingParam id="1549" interp="linr"  time="-9999999/1" value="0" leadInLength="0/1"  />
              </VectorParam>
              <VectorParam id="1550"  name="scale">
               <InterpolatingParam id="1551" interp="linr"  time="-9999999/1" value="1" leadInLength="0/1"  />
               <InterpolatingParam id="1552" interp="linr"  time="-9999999/1" value="1" leadInLength="0/1"  />
               <InterpolatingParam id="1553" interp="linr"  time="-9999999/1" value="1" leadInLength="0/1"  />
              </VectorParam>
              <VectorParam id="1554"  name="anchor">
               <InterpolatingParam id="1555" interp="linr"  time="0/1" value="0" leadInLength="0/1"  />
               <InterpolatingParam id="1556" interp="linr"  time="0/1" value="0" leadInLength="0/1"  />
               <InterpolatingParam id="1557" interp="linr"  time="0/1" value="0" leadInLength="0/1"  />
              </VectorParam>
             </Transformer>
             <Parameters>
              <VectorParam id="1558"  name="sourceCrop">
               <InterpolatingParam id="1559" interp="linr"  time="0/1" value="0" leadInLength="0/1"  />
               <InterpolatingParam id="1560" interp="linr"  time="0/1" value="0" leadInLength="0/1"  />
               <InterpolatingParam id="1561" interp="linr"  time="0/1" value="0" leadInLength="0/1"  />
               <InterpolatingParam id="1562" interp="linr"  time="0/1" value="0" leadInLength="0/1"  />
              </VectorParam>
              <VectorParam id="1563"  name="geometryCrop">
               <InterpolatingParam id="1564" interp="linr"  time="-9999999/1" value="0" leadInLength="0/1"  />
               <InterpolatingParam id="1565" interp="linr"  time="-9999999/1" value="0" leadInLength="0/1"  />
               <InterpolatingParam id="1566" interp="linr"  time="-9999999/1" value="0" leadInLength="0/1"  />
               <InterpolatingParam id="1567" interp="linr"  time="-9999999/1" value="0" leadInLength="0/1"  />
              </VectorParam>
              <InterpolatingParam id="1568" interp="linr"  time="-9999999/1" value="1" leadInLength="0/1"  name="opacity"/>
              <InterpolatingParam id="1569" interp="linr"  time="0/1" value="0" leadInLength="0/1"  name="cursorOpacity"/>
              <InterpolatingParam id="1570" interp="linr"  time="0/1" value="0" leadInLength="0/1"  name="cursorScale"/>
             </Parameters>
             <Attributes>
              <Attribute id="1571" value="" name="ident"/>
             </Attributes>
             <ExtraData>
              <Entry key="ZoomPanBin">
               <ZoomPanBin id="1572"  >
                <ZoomPanKeyframes>
                 <ZoomPanKeyframe id="1573" timeRangeEnd="-9999999/1" timeRangeDuration="0/1" interpolaterName=""  />
                </ZoomPanKeyframes>
               </ZoomPanBin>
              </Entry>
              <Entry key="CursorEffectBin">
               <CursorEffectBin id="1574"  >
                <CursorEffectKeyframes>
                </CursorEffectKeyframes>
               </CursorEffectBin>
              </Entry>
             </ExtraData>
            </ScreenVMFile>
            <MetaData>
             <entry key="AutoAppliedSmartFocus" val="False"/>
             <entry key="WinSubProjectDisplayName" val=""/>
            </MetaData>
           </UnifiedMedia>
           <UnifiedMedia id="1575"  >
            <AMFile id="1576" start="3721" duration="163" scalar="1/1" mediaStart="12802/1" mediaDuration="163/1" trackNumber="1" src="4" channelNumber="0,1" >
             <Parameters>
              <InterpolatingParam id="1577" interp="linr"  time="0/1" value="1" leadInLength="0/1"  name="volume"/>
              <Parameter id="1578"  name="captions"/>
             </Parameters>
             <Attributes>
              <Attribute id="1579" value="" name="ident"/>
              <Attribute id="1580" value="44100" name="sampleRate"/>
              <Attribute id="1581" value="16" name="bitDepth"/>
              <Attribute id="1582" value="1" name="gain"/>
              <Attribute id="1583" value="0" name="mixToMono"/>
             </Attributes>
            </AMFile>
            <ScreenVMFile id="1584" start="3721" duration="163" scalar="1/1" mediaStart="12802/1" mediaDuration="163/1" trackNumber="0" src="4" >
             <Transformer>
              <VectorParam id="1585"  name="translation">
               <InterpolatingParam id="1586" interp="linr"  time="-9999999/1" value="0" leadInLength="0/1"  />
               <InterpolatingParam id="1587" interp="linr"  time="-9999999/1" value="0" leadInLength="0/1"  />
               <InterpolatingParam id="1588" interp="linr"  time="-9999999/1" value="0" leadInLength="0/1"  />
              </VectorParam>
              <VectorParam id="1589"  name="rotation">
               <InterpolatingParam id="1590" interp="linr"  time="-9999999/1" value="0" leadInLength="0/1"  />
               <InterpolatingParam id="1591" interp="linr"  time="-9999999/1" value="0" leadInLength="0/1"  />
               <InterpolatingParam id="1592" interp="linr"  time="-9999999/1" value="0" leadInLength="0/1"  />
              </VectorParam>
              <VectorParam id="1593"  name="shear">
               <InterpolatingParam id="1594" interp="linr"  time="-9999999/1" value="0" leadInLength="0/1"  />
               <InterpolatingParam id="1595" interp="linr"  time="-9999999/1" value="0" leadInLength="0/1"  />
               <InterpolatingParam id="1596" interp="linr"  time="-9999999/1" value="0" leadInLength="0/1"  />
              </VectorParam>
              <VectorParam id="1597"  name="scale">
               <InterpolatingParam id="1598" interp="linr"  time="-9999999/1" value="1" leadInLength="0/1"  />
               <InterpolatingParam id="1599" interp="linr"  time="-9999999/1" value="1" leadInLength="0/1"  />
               <InterpolatingParam id="1600" interp="linr"  time="-9999999/1" value="1" leadInLength="0/1"  />
              </VectorParam>
              <VectorParam id="1601"  name="anchor">
               <InterpolatingParam id="1602" interp="linr"  time="0/1" value="0" leadInLength="0/1"  />
               <InterpolatingParam id="1603" interp="linr"  time="0/1" value="0" leadInLength="0/1"  />
               <InterpolatingParam id="1604" interp="linr"  time="0/1" value="0" leadInLength="0/1"  />
              </VectorParam>
             </Transformer>
             <Parameters>
              <VectorParam id="1605"  name="sourceCrop">
               <InterpolatingParam id="1606" interp="linr"  time="0/1" value="0" leadInLength="0/1"  />
               <InterpolatingParam id="1607" interp="linr"  time="0/1" value="0" leadInLength="0/1"  />
               <InterpolatingParam id="1608" interp="linr"  time="0/1" value="0" leadInLength="0/1"  />
               <InterpolatingParam id="1609" interp="linr"  time="0/1" value="0" leadInLength="0/1"  />
              </VectorParam>
              <VectorParam id="1610"  name="geometryCrop">
               <InterpolatingParam id="1611" interp="linr"  time="-9999999/1" value="0" leadInLength="0/1"  />
               <InterpolatingParam id="1612" interp="linr"  time="-9999999/1" value="0" leadInLength="0/1"  />
               <InterpolatingParam id="1613" interp="linr"  time="-9999999/1" value="0" leadInLength="0/1"  />
               <InterpolatingParam id="1614" interp="linr"  time="-9999999/1" value="0" leadInLength="0/1"  />
              </VectorParam>
              <InterpolatingParam id="1615" interp="linr"  time="-9999999/1" value="1" leadInLength="0/1"  name="opacity"/>
              <InterpolatingParam id="1616" interp="linr"  time="0/1" value="0" leadInLength="0/1"  name="cursorOpacity"/>
              <InterpolatingParam id="1617" interp="linr"  time="0/1" value="0" leadInLength="0/1"  name="cursorScale"/>
             </Parameters>
             <Attributes>
              <Attribute id="1618" value="" name="ident"/>
             </Attributes>
             <ExtraData>
              <Entry key="ZoomPanBin">
               <ZoomPanBin id="1619"  >
                <ZoomPanKeyframes>
                 <ZoomPanKeyframe id="1620" timeRangeEnd="-9999999/1" timeRangeDuration="0/1" interpolaterName=""  />
                </ZoomPanKeyframes>
               </ZoomPanBin>
              </Entry>
              <Entry key="CursorEffectBin">
               <CursorEffectBin id="1621"  >
                <CursorEffectKeyframes>
                </CursorEffectKeyframes>
               </CursorEffectBin>
              </Entry>
             </ExtraData>
            </ScreenVMFile>
            <MetaData>
             <entry key="AutoAppliedSmartFocus" val="False"/>
             <entry key="WinSubProjectDisplayName" val=""/>
            </MetaData>
           </UnifiedMedia>
           <UnifiedMedia id="1622"  >
            <AMFile id="1623" start="3884" duration="128" scalar="1/1" mediaStart="12979/1" mediaDuration="128/1" trackNumber="1" src="4" channelNumber="0,1" >
             <Parameters>
              <InterpolatingParam id="1624" interp="linr"  time="0/1" value="1" leadInLength="0/1"  name="volume"/>
              <Parameter id="1625"  name="captions"/>
             </Parameters>
             <Attributes>
              <Attribute id="1626" value="" name="ident"/>
              <Attribute id="1627" value="44100" name="sampleRate"/>
              <Attribute id="1628" value="16" name="bitDepth"/>
              <Attribute id="1629" value="1" name="gain"/>
              <Attribute id="1630" value="0" name="mixToMono"/>
             </Attributes>
            </AMFile>
            <ScreenVMFile id="1631" start="3884" duration="128" scalar="1/1" mediaStart="12979/1" mediaDuration="128/1" trackNumber="0" src="4" >
             <Transformer>
              <VectorParam id="1632"  name="translation">
               <InterpolatingParam id="1633" interp="linr"  time="-9999999/1" value="0" leadInLength="0/1"  />
               <InterpolatingParam id="1634" interp="linr"  time="-9999999/1" value="0" leadInLength="0/1"  />
               <InterpolatingParam id="1635" interp="linr"  time="-9999999/1" value="0" leadInLength="0/1"  />
              </VectorParam>
              <VectorParam id="1636"  name="rotation">
               <InterpolatingParam id="1637" interp="linr"  time="-9999999/1" value="0" leadInLength="0/1"  />
               <InterpolatingParam id="1638" interp="linr"  time="-9999999/1" value="0" leadInLength="0/1"  />
               <InterpolatingParam id="1639" interp="linr"  time="-9999999/1" value="0" leadInLength="0/1"  />
              </VectorParam>
              <VectorParam id="1640"  name="shear">
               <InterpolatingParam id="1641" interp="linr"  time="-9999999/1" value="0" leadInLength="0/1"  />
               <InterpolatingParam id="1642" interp="linr"  time="-9999999/1" value="0" leadInLength="0/1"  />
               <InterpolatingParam id="1643" interp="linr"  time="-9999999/1" value="0" leadInLength="0/1"  />
              </VectorParam>
              <VectorParam id="1644"  name="scale">
               <InterpolatingParam id="1645" interp="linr"  time="-9999999/1" value="1" leadInLength="0/1"  />
               <InterpolatingParam id="1646" interp="linr"  time="-9999999/1" value="1" leadInLength="0/1"  />
               <InterpolatingParam id="1647" interp="linr"  time="-9999999/1" value="1" leadInLength="0/1"  />
              </VectorParam>
              <VectorParam id="1648"  name="anchor">
               <InterpolatingParam id="1649" interp="linr"  time="0/1" value="0" leadInLength="0/1"  />
               <InterpolatingParam id="1650" interp="linr"  time="0/1" value="0" leadInLength="0/1"  />
               <InterpolatingParam id="1651" interp="linr"  time="0/1" value="0" leadInLength="0/1"  />
              </VectorParam>
             </Transformer>
             <Parameters>
              <VectorParam id="1652"  name="sourceCrop">
               <InterpolatingParam id="1653" interp="linr"  time="0/1" value="0" leadInLength="0/1"  />
               <InterpolatingParam id="1654" interp="linr"  time="0/1" value="0" leadInLength="0/1"  />
               <InterpolatingParam id="1655" interp="linr"  time="0/1" value="0" leadInLength="0/1"  />
               <InterpolatingParam id="1656" interp="linr"  time="0/1" value="0" leadInLength="0/1"  />
              </VectorParam>
              <VectorParam id="1657"  name="geometryCrop">
               <InterpolatingParam id="1658" interp="linr"  time="-9999999/1" value="0" leadInLength="0/1"  />
               <InterpolatingParam id="1659" interp="linr"  time="-9999999/1" value="0" leadInLength="0/1"  />
               <InterpolatingParam id="1660" interp="linr"  time="-9999999/1" value="0" leadInLength="0/1"  />
               <InterpolatingParam id="1661" interp="linr"  time="-9999999/1" value="0" leadInLength="0/1"  />
              </VectorParam>
              <InterpolatingParam id="1662" interp="linr"  time="-9999999/1" value="1" leadInLength="0/1"  name="opacity"/>
              <InterpolatingParam id="1663" interp="linr"  time="0/1" value="0" leadInLength="0/1"  name="cursorOpacity"/>
              <InterpolatingParam id="1664" interp="linr"  time="0/1" value="0" leadInLength="0/1"  name="cursorScale"/>
             </Parameters>
             <Attributes>
              <Attribute id="1665" value="" name="ident"/>
             </Attributes>
             <ExtraData>
              <Entry key="ZoomPanBin">
               <ZoomPanBin id="1666"  >
                <ZoomPanKeyframes>
                 <ZoomPanKeyframe id="1667" timeRangeEnd="-9999999/1" timeRangeDuration="0/1" interpolaterName=""  />
                </ZoomPanKeyframes>
               </ZoomPanBin>
              </Entry>
              <Entry key="CursorEffectBin">
               <CursorEffectBin id="1668"  >
                <CursorEffectKeyframes>
                </CursorEffectKeyframes>
               </CursorEffectBin>
              </Entry>
             </ExtraData>
            </ScreenVMFile>
            <MetaData>
             <entry key="AutoAppliedSmartFocus" val="False"/>
             <entry key="WinSubProjectDisplayName" val=""/>
            </MetaData>
           </UnifiedMedia>
           <UnifiedMedia id="1669"  >
            <AMFile id="1670" start="4012" duration="164" scalar="1/1" mediaStart="13273/1" mediaDuration="164/1" trackNumber="1" src="4" channelNumber="0,1" >
             <Parameters>
              <InterpolatingParam id="1671" interp="linr"  time="0/1" value="1" leadInLength="0/1"  name="volume"/>
              <Parameter id="1672"  name="captions"/>
             </Parameters>
             <Attributes>
              <Attribute id="1673" value="" name="ident"/>
              <Attribute id="1674" value="44100" name="sampleRate"/>
              <Attribute id="1675" value="16" name="bitDepth"/>
              <Attribute id="1676" value="1" name="gain"/>
              <Attribute id="1677" value="0" name="mixToMono"/>
             </Attributes>
            </AMFile>
            <ScreenVMFile id="1678" start="4012" duration="164" scalar="1/1" mediaStart="13273/1" mediaDuration="164/1" trackNumber="0" src="4" >
             <Transformer>
              <VectorParam id="1679"  name="translation">
               <InterpolatingParam id="1680" interp="linr"  time="-9999999/1" value="0" leadInLength="0/1"  />
               <InterpolatingParam id="1681" interp="linr"  time="-9999999/1" value="0" leadInLength="0/1"  />
               <InterpolatingParam id="1682" interp="linr"  time="-9999999/1" value="0" leadInLength="0/1"  />
              </VectorParam>
              <VectorParam id="1683"  name="rotation">
               <InterpolatingParam id="1684" interp="linr"  time="-9999999/1" value="0" leadInLength="0/1"  />
               <InterpolatingParam id="1685" interp="linr"  time="-9999999/1" value="0" leadInLength="0/1"  />
               <InterpolatingParam id="1686" interp="linr"  time="-9999999/1" value="0" leadInLength="0/1"  />
              </VectorParam>
              <VectorParam id="1687"  name="shear">
               <InterpolatingParam id="1688" interp="linr"  time="-9999999/1" value="0" leadInLength="0/1"  />
               <InterpolatingParam id="1689" interp="linr"  time="-9999999/1" value="0" leadInLength="0/1"  />
               <InterpolatingParam id="1690" interp="linr"  time="-9999999/1" value="0" leadInLength="0/1"  />
              </VectorParam>
              <VectorParam id="1691"  name="scale">
               <InterpolatingParam id="1692" interp="linr"  time="-9999999/1" value="1" leadInLength="0/1"  />
               <InterpolatingParam id="1693" interp="linr"  time="-9999999/1" value="1" leadInLength="0/1"  />
               <InterpolatingParam id="1694" interp="linr"  time="-9999999/1" value="1" leadInLength="0/1"  />
              </VectorParam>
              <VectorParam id="1695"  name="anchor">
               <InterpolatingParam id="1696" interp="linr"  time="0/1" value="0" leadInLength="0/1"  />
               <InterpolatingParam id="1697" interp="linr"  time="0/1" value="0" leadInLength="0/1"  />
               <InterpolatingParam id="1698" interp="linr"  time="0/1" value="0" leadInLength="0/1"  />
              </VectorParam>
             </Transformer>
             <Parameters>
              <VectorParam id="1699"  name="sourceCrop">
               <InterpolatingParam id="1700" interp="linr"  time="0/1" value="0" leadInLength="0/1"  />
               <InterpolatingParam id="1701" interp="linr"  time="0/1" value="0" leadInLength="0/1"  />
               <InterpolatingParam id="1702" interp="linr"  time="0/1" value="0" leadInLength="0/1"  />
               <InterpolatingParam id="1703" interp="linr"  time="0/1" value="0" leadInLength="0/1"  />
              </VectorParam>
              <VectorParam id="1704"  name="geometryCrop">
               <InterpolatingParam id="1705" interp="linr"  time="-9999999/1" value="0" leadInLength="0/1"  />
               <InterpolatingParam id="1706" interp="linr"  time="-9999999/1" value="0" leadInLength="0/1"  />
               <InterpolatingParam id="1707" interp="linr"  time="-9999999/1" value="0" leadInLength="0/1"  />
               <InterpolatingParam id="1708" interp="linr"  time="-9999999/1" value="0" leadInLength="0/1"  />
              </VectorParam>
              <InterpolatingParam id="1709" interp="linr"  time="-9999999/1" value="1" leadInLength="0/1"  name="opacity"/>
              <InterpolatingParam id="1710" interp="linr"  time="0/1" value="0" leadInLength="0/1"  name="cursorOpacity"/>
              <InterpolatingParam id="1711" interp="linr"  time="0/1" value="0" leadInLength="0/1"  name="cursorScale"/>
             </Parameters>
             <Attributes>
              <Attribute id="1712" value="" name="ident"/>
             </Attributes>
             <ExtraData>
              <Entry key="ZoomPanBin">
               <ZoomPanBin id="1713"  >
                <ZoomPanKeyframes>
                 <ZoomPanKeyframe id="1714" timeRangeEnd="-9999999/1" timeRangeDuration="0/1" interpolaterName=""  />
                </ZoomPanKeyframes>
               </ZoomPanBin>
              </Entry>
              <Entry key="CursorEffectBin">
               <CursorEffectBin id="1715"  >
                <CursorEffectKeyframes>
                </CursorEffectKeyframes>
               </CursorEffectBin>
              </Entry>
             </ExtraData>
            </ScreenVMFile>
            <MetaData>
             <entry key="AutoAppliedSmartFocus" val="False"/>
             <entry key="WinSubProjectDisplayName" val=""/>
            </MetaData>
           </UnifiedMedia>
           <UnifiedMedia id="1716"  >
            <AMFile id="1717" start="4176" duration="79" scalar="1/1" mediaStart="13444/1" mediaDuration="79/1" trackNumber="1" src="4" channelNumber="0,1" >
             <Parameters>
              <InterpolatingParam id="1718" interp="linr"  time="0/1" value="1" leadInLength="0/1"  name="volume"/>
              <Parameter id="1719"  name="captions"/>
             </Parameters>
             <Attributes>
              <Attribute id="1720" value="" name="ident"/>
              <Attribute id="1721" value="44100" name="sampleRate"/>
              <Attribute id="1722" value="16" name="bitDepth"/>
              <Attribute id="1723" value="1" name="gain"/>
              <Attribute id="1724" value="0" name="mixToMono"/>
             </Attributes>
            </AMFile>
            <ScreenVMFile id="1725" start="4176" duration="79" scalar="1/1" mediaStart="13444/1" mediaDuration="79/1" trackNumber="0" src="4" >
             <Transformer>
              <VectorParam id="1726"  name="translation">
               <InterpolatingParam id="1727" interp="linr"  time="-9999999/1" value="0" leadInLength="0/1"  />
               <InterpolatingParam id="1728" interp="linr"  time="-9999999/1" value="0" leadInLength="0/1"  />
               <InterpolatingParam id="1729" interp="linr"  time="-9999999/1" value="0" leadInLength="0/1"  />
              </VectorParam>
              <VectorParam id="1730"  name="rotation">
               <InterpolatingParam id="1731" interp="linr"  time="-9999999/1" value="0" leadInLength="0/1"  />
               <InterpolatingParam id="1732" interp="linr"  time="-9999999/1" value="0" leadInLength="0/1"  />
               <InterpolatingParam id="1733" interp="linr"  time="-9999999/1" value="0" leadInLength="0/1"  />
              </VectorParam>
              <VectorParam id="1734"  name="shear">
               <InterpolatingParam id="1735" interp="linr"  time="-9999999/1" value="0" leadInLength="0/1"  />
               <InterpolatingParam id="1736" interp="linr"  time="-9999999/1" value="0" leadInLength="0/1"  />
               <InterpolatingParam id="1737" interp="linr"  time="-9999999/1" value="0" leadInLength="0/1"  />
              </VectorParam>
              <VectorParam id="1738"  name="scale">
               <InterpolatingParam id="1739" interp="linr"  time="-9999999/1" value="1" leadInLength="0/1"  />
               <InterpolatingParam id="1740" interp="linr"  time="-9999999/1" value="1" leadInLength="0/1"  />
               <InterpolatingParam id="1741" interp="linr"  time="-9999999/1" value="1" leadInLength="0/1"  />
              </VectorParam>
              <VectorParam id="1742"  name="anchor">
               <InterpolatingParam id="1743" interp="linr"  time="0/1" value="0" leadInLength="0/1"  />
               <InterpolatingParam id="1744" interp="linr"  time="0/1" value="0" leadInLength="0/1"  />
               <InterpolatingParam id="1745" interp="linr"  time="0/1" value="0" leadInLength="0/1"  />
              </VectorParam>
             </Transformer>
             <Parameters>
              <VectorParam id="1746"  name="sourceCrop">
               <InterpolatingParam id="1747" interp="linr"  time="0/1" value="0" leadInLength="0/1"  />
               <InterpolatingParam id="1748" interp="linr"  time="0/1" value="0" leadInLength="0/1"  />
               <InterpolatingParam id="1749" interp="linr"  time="0/1" value="0" leadInLength="0/1"  />
               <InterpolatingParam id="1750" interp="linr"  time="0/1" value="0" leadInLength="0/1"  />
              </VectorParam>
              <VectorParam id="1751"  name="geometryCrop">
               <InterpolatingParam id="1752" interp="linr"  time="-9999999/1" value="0" leadInLength="0/1"  />
               <InterpolatingParam id="1753" interp="linr"  time="-9999999/1" value="0" leadInLength="0/1"  />
               <InterpolatingParam id="1754" interp="linr"  time="-9999999/1" value="0" leadInLength="0/1"  />
               <InterpolatingParam id="1755" interp="linr"  time="-9999999/1" value="0" leadInLength="0/1"  />
              </VectorParam>
              <InterpolatingParam id="1756" interp="linr"  time="-9999999/1" value="1" leadInLength="0/1"  name="opacity"/>
              <InterpolatingParam id="1757" interp="linr"  time="0/1" value="0" leadInLength="0/1"  name="cursorOpacity"/>
              <InterpolatingParam id="1758" interp="linr"  time="0/1" value="0" leadInLength="0/1"  name="cursorScale"/>
             </Parameters>
             <Attributes>
              <Attribute id="1759" value="" name="ident"/>
             </Attributes>
             <ExtraData>
              <Entry key="ZoomPanBin">
               <ZoomPanBin id="1760"  >
                <ZoomPanKeyframes>
                 <ZoomPanKeyframe id="1761" timeRangeEnd="-9999999/1" timeRangeDuration="0/1" interpolaterName=""  />
                </ZoomPanKeyframes>
               </ZoomPanBin>
              </Entry>
              <Entry key="CursorEffectBin">
               <CursorEffectBin id="1762"  >
                <CursorEffectKeyframes>
                </CursorEffectKeyframes>
               </CursorEffectBin>
              </Entry>
             </ExtraData>
            </ScreenVMFile>
            <MetaData>
             <entry key="AutoAppliedSmartFocus" val="False"/>
             <entry key="WinSubProjectDisplayName" val=""/>
            </MetaData>
           </UnifiedMedia>
           <UnifiedMedia id="1763"  >
            <AMFile id="1764" start="4255" duration="240" scalar="1/1" mediaStart="13663/1" mediaDuration="240/1" trackNumber="1" src="4" channelNumber="0,1" >
             <Parameters>
              <InterpolatingParam id="1765" interp="linr"  time="0/1" value="1" leadInLength="0/1"  name="volume"/>
              <Parameter id="1766"  name="captions"/>
             </Parameters>
             <Attributes>
              <Attribute id="1767" value="" name="ident"/>
              <Attribute id="1768" value="44100" name="sampleRate"/>
              <Attribute id="1769" value="16" name="bitDepth"/>
              <Attribute id="1770" value="1" name="gain"/>
              <Attribute id="1771" value="0" name="mixToMono"/>
             </Attributes>
            </AMFile>
            <ScreenVMFile id="1772" start="4255" duration="240" scalar="1/1" mediaStart="13663/1" mediaDuration="240/1" trackNumber="0" src="4" >
             <Transformer>
              <VectorParam id="1773"  name="translation">
               <InterpolatingParam id="1774" interp="linr"  time="-9999999/1" value="0" leadInLength="0/1"  />
               <InterpolatingParam id="1775" interp="linr"  time="-9999999/1" value="0" leadInLength="0/1"  />
               <InterpolatingParam id="1776" interp="linr"  time="-9999999/1" value="0" leadInLength="0/1"  />
              </VectorParam>
              <VectorParam id="1777"  name="rotation">
               <InterpolatingParam id="1778" interp="linr"  time="-9999999/1" value="0" leadInLength="0/1"  />
               <InterpolatingParam id="1779" interp="linr"  time="-9999999/1" value="0" leadInLength="0/1"  />
               <InterpolatingParam id="1780" interp="linr"  time="-9999999/1" value="0" leadInLength="0/1"  />
              </VectorParam>
              <VectorParam id="1781"  name="shear">
               <InterpolatingParam id="1782" interp="linr"  time="-9999999/1" value="0" leadInLength="0/1"  />
               <InterpolatingParam id="1783" interp="linr"  time="-9999999/1" value="0" leadInLength="0/1"  />
               <InterpolatingParam id="1784" interp="linr"  time="-9999999/1" value="0" leadInLength="0/1"  />
              </VectorParam>
              <VectorParam id="1785"  name="scale">
               <InterpolatingParam id="1786" interp="linr"  time="-9999999/1" value="1" leadInLength="0/1"  />
               <InterpolatingParam id="1787" interp="linr"  time="-9999999/1" value="1" leadInLength="0/1"  />
               <InterpolatingParam id="1788" interp="linr"  time="-9999999/1" value="1" leadInLength="0/1"  />
              </VectorParam>
              <VectorParam id="1789"  name="anchor">
               <InterpolatingParam id="1790" interp="linr"  time="0/1" value="0" leadInLength="0/1"  />
               <InterpolatingParam id="1791" interp="linr"  time="0/1" value="0" leadInLength="0/1"  />
               <InterpolatingParam id="1792" interp="linr"  time="0/1" value="0" leadInLength="0/1"  />
              </VectorParam>
             </Transformer>
             <Parameters>
              <VectorParam id="1793"  name="sourceCrop">
               <InterpolatingParam id="1794" interp="linr"  time="0/1" value="0" leadInLength="0/1"  />
               <InterpolatingParam id="1795" interp="linr"  time="0/1" value="0" leadInLength="0/1"  />
               <InterpolatingParam id="1796" interp="linr"  time="0/1" value="0" leadInLength="0/1"  />
               <InterpolatingParam id="1797" interp="linr"  time="0/1" value="0" leadInLength="0/1"  />
              </VectorParam>
              <VectorParam id="1798"  name="geometryCrop">
               <InterpolatingParam id="1799" interp="linr"  time="-9999999/1" value="0" leadInLength="0/1"  />
               <InterpolatingParam id="1800" interp="linr"  time="-9999999/1" value="0" leadInLength="0/1"  />
               <InterpolatingParam id="1801" interp="linr"  time="-9999999/1" value="0" leadInLength="0/1"  />
               <InterpolatingParam id="1802" interp="linr"  time="-9999999/1" value="0" leadInLength="0/1"  />
              </VectorParam>
              <InterpolatingParam id="1803" interp="linr"  time="-9999999/1" value="1" leadInLength="0/1"  name="opacity"/>
              <InterpolatingParam id="1804" interp="linr"  time="0/1" value="0" leadInLength="0/1"  name="cursorOpacity"/>
              <InterpolatingParam id="1805" interp="linr"  time="0/1" value="0" leadInLength="0/1"  name="cursorScale"/>
             </Parameters>
             <Attributes>
              <Attribute id="1806" value="" name="ident"/>
             </Attributes>
             <ExtraData>
              <Entry key="ZoomPanBin">
               <ZoomPanBin id="1807"  >
                <ZoomPanKeyframes>
                 <ZoomPanKeyframe id="1808" timeRangeEnd="-9999999/1" timeRangeDuration="0/1" interpolaterName=""  />
                </ZoomPanKeyframes>
               </ZoomPanBin>
              </Entry>
              <Entry key="CursorEffectBin">
               <CursorEffectBin id="1809"  >
                <CursorEffectKeyframes>
                </CursorEffectKeyframes>
               </CursorEffectBin>
              </Entry>
             </ExtraData>
            </ScreenVMFile>
            <MetaData>
             <entry key="AutoAppliedSmartFocus" val="False"/>
             <entry key="WinSubProjectDisplayName" val=""/>
            </MetaData>
           </UnifiedMedia>
           <UnifiedMedia id="1810"  >
            <AMFile id="1811" start="4495" duration="81" scalar="1/1" mediaStart="13914/1" mediaDuration="81/1" trackNumber="1" src="4" channelNumber="0,1" >
             <Parameters>
              <InterpolatingParam id="1812" interp="linr"  time="0/1" value="1" leadInLength="0/1"  name="volume"/>
              <Parameter id="1813"  name="captions"/>
             </Parameters>
             <Attributes>
              <Attribute id="1814" value="" name="ident"/>
              <Attribute id="1815" value="44100" name="sampleRate"/>
              <Attribute id="1816" value="16" name="bitDepth"/>
              <Attribute id="1817" value="1" name="gain"/>
              <Attribute id="1818" value="0" name="mixToMono"/>
             </Attributes>
            </AMFile>
            <ScreenVMFile id="1819" start="4495" duration="81" scalar="1/1" mediaStart="13914/1" mediaDuration="81/1" trackNumber="0" src="4" >
             <Transformer>
              <VectorParam id="1820"  name="translation">
               <InterpolatingParam id="1821" interp="linr"  time="-9999999/1" value="0" leadInLength="0/1"  />
               <InterpolatingParam id="1822" interp="linr"  time="-9999999/1" value="0" leadInLength="0/1"  />
               <InterpolatingParam id="1823" interp="linr"  time="-9999999/1" value="0" leadInLength="0/1"  />
              </VectorParam>
              <VectorParam id="1824"  name="rotation">
               <InterpolatingParam id="1825" interp="linr"  time="-9999999/1" value="0" leadInLength="0/1"  />
               <InterpolatingParam id="1826" interp="linr"  time="-9999999/1" value="0" leadInLength="0/1"  />
               <InterpolatingParam id="1827" interp="linr"  time="-9999999/1" value="0" leadInLength="0/1"  />
              </VectorParam>
              <VectorParam id="1828"  name="shear">
               <InterpolatingParam id="1829" interp="linr"  time="-9999999/1" value="0" leadInLength="0/1"  />
               <InterpolatingParam id="1830" interp="linr"  time="-9999999/1" value="0" leadInLength="0/1"  />
               <InterpolatingParam id="1831" interp="linr"  time="-9999999/1" value="0" leadInLength="0/1"  />
              </VectorParam>
              <VectorParam id="1832"  name="scale">
               <InterpolatingParam id="1833" interp="linr"  time="-9999999/1" value="1" leadInLength="0/1"  />
               <InterpolatingParam id="1834" interp="linr"  time="-9999999/1" value="1" leadInLength="0/1"  />
               <InterpolatingParam id="1835" interp="linr"  time="-9999999/1" value="1" leadInLength="0/1"  />
              </VectorParam>
              <VectorParam id="1836"  name="anchor">
               <InterpolatingParam id="1837" interp="linr"  time="0/1" value="0" leadInLength="0/1"  />
               <InterpolatingParam id="1838" interp="linr"  time="0/1" value="0" leadInLength="0/1"  />
               <InterpolatingParam id="1839" interp="linr"  time="0/1" value="0" leadInLength="0/1"  />
              </VectorParam>
             </Transformer>
             <Parameters>
              <VectorParam id="1840"  name="sourceCrop">
               <InterpolatingParam id="1841" interp="linr"  time="0/1" value="0" leadInLength="0/1"  />
               <InterpolatingParam id="1842" interp="linr"  time="0/1" value="0" leadInLength="0/1"  />
               <InterpolatingParam id="1843" interp="linr"  time="0/1" value="0" leadInLength="0/1"  />
               <InterpolatingParam id="1844" interp="linr"  time="0/1" value="0" leadInLength="0/1"  />
              </VectorParam>
              <VectorParam id="1845"  name="geometryCrop">
               <InterpolatingParam id="1846" interp="linr"  time="-9999999/1" value="0" leadInLength="0/1"  />
               <InterpolatingParam id="1847" interp="linr"  time="-9999999/1" value="0" leadInLength="0/1"  />
               <InterpolatingParam id="1848" interp="linr"  time="-9999999/1" value="0" leadInLength="0/1"  />
               <InterpolatingParam id="1849" interp="linr"  time="-9999999/1" value="0" leadInLength="0/1"  />
              </VectorParam>
              <InterpolatingParam id="1850" interp="linr"  time="-9999999/1" value="1" leadInLength="0/1"  name="opacity"/>
              <InterpolatingParam id="1851" interp="linr"  time="0/1" value="0" leadInLength="0/1"  name="cursorOpacity"/>
              <InterpolatingParam id="1852" interp="linr"  time="0/1" value="0" leadInLength="0/1"  name="cursorScale"/>
             </Parameters>
             <Attributes>
              <Attribute id="1853" value="" name="ident"/>
             </Attributes>
             <ExtraData>
              <Entry key="ZoomPanBin">
               <ZoomPanBin id="1854"  >
                <ZoomPanKeyframes>
                 <ZoomPanKeyframe id="1855" timeRangeEnd="-9999999/1" timeRangeDuration="0/1" interpolaterName=""  />
                </ZoomPanKeyframes>
               </ZoomPanBin>
              </Entry>
              <Entry key="CursorEffectBin">
               <CursorEffectBin id="1856"  >
                <CursorEffectKeyframes>
                </CursorEffectKeyframes>
               </CursorEffectBin>
              </Entry>
             </ExtraData>
            </ScreenVMFile>
            <MetaData>
             <entry key="AutoAppliedSmartFocus" val="False"/>
             <entry key="WinSubProjectDisplayName" val=""/>
            </MetaData>
           </UnifiedMedia>
           <UnifiedMedia id="1857"  >
            <AMFile id="1858" start="4576" duration="92" scalar="1/1" mediaStart="14297/1" mediaDuration="92/1" trackNumber="1" src="4" channelNumber="0,1" >
             <Parameters>
              <InterpolatingParam id="1859" interp="linr"  time="0/1" value="1" leadInLength="0/1"  name="volume"/>
              <Parameter id="1860"  name="captions"/>
             </Parameters>
             <Attributes>
              <Attribute id="1861" value="" name="ident"/>
              <Attribute id="1862" value="44100" name="sampleRate"/>
              <Attribute id="1863" value="16" name="bitDepth"/>
              <Attribute id="1864" value="1" name="gain"/>
              <Attribute id="1865" value="0" name="mixToMono"/>
             </Attributes>
            </AMFile>
            <ScreenVMFile id="1866" start="4576" duration="92" scalar="1/1" mediaStart="14297/1" mediaDuration="92/1" trackNumber="0" src="4" >
             <Transformer>
              <VectorParam id="1867"  name="translation">
               <InterpolatingParam id="1868" interp="linr"  time="-9999999/1" value="0" leadInLength="0/1"  />
               <InterpolatingParam id="1869" interp="linr"  time="-9999999/1" value="0" leadInLength="0/1"  />
               <InterpolatingParam id="1870" interp="linr"  time="-9999999/1" value="0" leadInLength="0/1"  />
              </VectorParam>
              <VectorParam id="1871"  name="rotation">
               <InterpolatingParam id="1872" interp="linr"  time="-9999999/1" value="0" leadInLength="0/1"  />
               <InterpolatingParam id="1873" interp="linr"  time="-9999999/1" value="0" leadInLength="0/1"  />
               <InterpolatingParam id="1874" interp="linr"  time="-9999999/1" value="0" leadInLength="0/1"  />
              </VectorParam>
              <VectorParam id="1875"  name="shear">
               <InterpolatingParam id="1876" interp="linr"  time="-9999999/1" value="0" leadInLength="0/1"  />
               <InterpolatingParam id="1877" interp="linr"  time="-9999999/1" value="0" leadInLength="0/1"  />
               <InterpolatingParam id="1878" interp="linr"  time="-9999999/1" value="0" leadInLength="0/1"  />
              </VectorParam>
              <VectorParam id="1879"  name="scale">
               <InterpolatingParam id="1880" interp="linr"  time="-9999999/1" value="1" leadInLength="0/1"  />
               <InterpolatingParam id="1881" interp="linr"  time="-9999999/1" value="1" leadInLength="0/1"  />
               <InterpolatingParam id="1882" interp="linr"  time="-9999999/1" value="1" leadInLength="0/1"  />
              </VectorParam>
              <VectorParam id="1883"  name="anchor">
               <InterpolatingParam id="1884" interp="linr"  time="0/1" value="0" leadInLength="0/1"  />
               <InterpolatingParam id="1885" interp="linr"  time="0/1" value="0" leadInLength="0/1"  />
               <InterpolatingParam id="1886" interp="linr"  time="0/1" value="0" leadInLength="0/1"  />
              </VectorParam>
             </Transformer>
             <Parameters>
              <VectorParam id="1887"  name="sourceCrop">
               <InterpolatingParam id="1888" interp="linr"  time="0/1" value="0" leadInLength="0/1"  />
               <InterpolatingParam id="1889" interp="linr"  time="0/1" value="0" leadInLength="0/1"  />
               <InterpolatingParam id="1890" interp="linr"  time="0/1" value="0" leadInLength="0/1"  />
               <InterpolatingParam id="1891" interp="linr"  time="0/1" value="0" leadInLength="0/1"  />
              </VectorParam>
              <VectorParam id="1892"  name="geometryCrop">
               <InterpolatingParam id="1893" interp="linr"  time="-9999999/1" value="0" leadInLength="0/1"  />
               <InterpolatingParam id="1894" interp="linr"  time="-9999999/1" value="0" leadInLength="0/1"  />
               <InterpolatingParam id="1895" interp="linr"  time="-9999999/1" value="0" leadInLength="0/1"  />
               <InterpolatingParam id="1896" interp="linr"  time="-9999999/1" value="0" leadInLength="0/1"  />
              </VectorParam>
              <InterpolatingParam id="1897" interp="linr"  time="-9999999/1" value="1" leadInLength="0/1"  name="opacity"/>
              <InterpolatingParam id="1898" interp="linr"  time="0/1" value="0" leadInLength="0/1"  name="cursorOpacity"/>
              <InterpolatingParam id="1899" interp="linr"  time="0/1" value="0" leadInLength="0/1"  name="cursorScale"/>
             </Parameters>
             <Attributes>
              <Attribute id="1900" value="" name="ident"/>
             </Attributes>
             <ExtraData>
              <Entry key="ZoomPanBin">
               <ZoomPanBin id="1901"  >
                <ZoomPanKeyframes>
                 <ZoomPanKeyframe id="1902" timeRangeEnd="-9999999/1" timeRangeDuration="0/1" interpolaterName=""  />
                </ZoomPanKeyframes>
               </ZoomPanBin>
              </Entry>
              <Entry key="CursorEffectBin">
               <CursorEffectBin id="1903"  >
                <CursorEffectKeyframes>
                </CursorEffectKeyframes>
               </CursorEffectBin>
              </Entry>
             </ExtraData>
            </ScreenVMFile>
            <MetaData>
             <entry key="AutoAppliedSmartFocus" val="False"/>
             <entry key="WinSubProjectDisplayName" val=""/>
            </MetaData>
           </UnifiedMedia>
           <UnifiedMedia id="1904"  >
            <AMFile id="1905" start="4668" duration="223" scalar="1/1" mediaStart="14914/1" mediaDuration="223/1" trackNumber="1" src="4" channelNumber="0,1" >
             <Parameters>
              <InterpolatingParam id="1906" interp="linr"  time="0/1" value="1" leadInLength="0/1"  name="volume"/>
              <Parameter id="1907"  name="captions"/>
             </Parameters>
             <Attributes>
              <Attribute id="1908" value="" name="ident"/>
              <Attribute id="1909" value="44100" name="sampleRate"/>
              <Attribute id="1910" value="16" name="bitDepth"/>
              <Attribute id="1911" value="1" name="gain"/>
              <Attribute id="1912" value="0" name="mixToMono"/>
             </Attributes>
            </AMFile>
            <ScreenVMFile id="1913" start="4668" duration="223" scalar="1/1" mediaStart="14914/1" mediaDuration="223/1" trackNumber="0" src="4" >
             <Transformer>
              <VectorParam id="1914"  name="translation">
               <InterpolatingParam id="1915" interp="linr"  time="-9999999/1" value="0" leadInLength="0/1"  />
               <InterpolatingParam id="1916" interp="linr"  time="-9999999/1" value="0" leadInLength="0/1"  />
               <InterpolatingParam id="1917" interp="linr"  time="-9999999/1" value="0" leadInLength="0/1"  />
              </VectorParam>
              <VectorParam id="1918"  name="rotation">
               <InterpolatingParam id="1919" interp="linr"  time="-9999999/1" value="0" leadInLength="0/1"  />
               <InterpolatingParam id="1920" interp="linr"  time="-9999999/1" value="0" leadInLength="0/1"  />
               <InterpolatingParam id="1921" interp="linr"  time="-9999999/1" value="0" leadInLength="0/1"  />
              </VectorParam>
              <VectorParam id="1922"  name="shear">
               <InterpolatingParam id="1923" interp="linr"  time="-9999999/1" value="0" leadInLength="0/1"  />
               <InterpolatingParam id="1924" interp="linr"  time="-9999999/1" value="0" leadInLength="0/1"  />
               <InterpolatingParam id="1925" interp="linr"  time="-9999999/1" value="0" leadInLength="0/1"  />
              </VectorParam>
              <VectorParam id="1926"  name="scale">
               <InterpolatingParam id="1927" interp="linr"  time="-9999999/1" value="1" leadInLength="0/1"  />
               <InterpolatingParam id="1928" interp="linr"  time="-9999999/1" value="1" leadInLength="0/1"  />
               <InterpolatingParam id="1929" interp="linr"  time="-9999999/1" value="1" leadInLength="0/1"  />
              </VectorParam>
              <VectorParam id="1930"  name="anchor">
               <InterpolatingParam id="1931" interp="linr"  time="0/1" value="0" leadInLength="0/1"  />
               <InterpolatingParam id="1932" interp="linr"  time="0/1" value="0" leadInLength="0/1"  />
               <InterpolatingParam id="1933" interp="linr"  time="0/1" value="0" leadInLength="0/1"  />
              </VectorParam>
             </Transformer>
             <Parameters>
              <VectorParam id="1934"  name="sourceCrop">
               <InterpolatingParam id="1935" interp="linr"  time="0/1" value="0" leadInLength="0/1"  />
               <InterpolatingParam id="1936" interp="linr"  time="0/1" value="0" leadInLength="0/1"  />
               <InterpolatingParam id="1937" interp="linr"  time="0/1" value="0" leadInLength="0/1"  />
               <InterpolatingParam id="1938" interp="linr"  time="0/1" value="0" leadInLength="0/1"  />
              </VectorParam>
              <VectorParam id="1939"  name="geometryCrop">
               <InterpolatingParam id="1940" interp="linr"  time="-9999999/1" value="0" leadInLength="0/1"  />
               <InterpolatingParam id="1941" interp="linr"  time="-9999999/1" value="0" leadInLength="0/1"  />
               <InterpolatingParam id="1942" interp="linr"  time="-9999999/1" value="0" leadInLength="0/1"  />
               <InterpolatingParam id="1943" interp="linr"  time="-9999999/1" value="0" leadInLength="0/1"  />
              </VectorParam>
              <InterpolatingParam id="1944" interp="linr"  time="-9999999/1" value="1" leadInLength="0/1"  name="opacity"/>
              <InterpolatingParam id="1945" interp="linr"  time="0/1" value="0" leadInLength="0/1"  name="cursorOpacity"/>
              <InterpolatingParam id="1946" interp="linr"  time="0/1" value="0" leadInLength="0/1"  name="cursorScale"/>
             </Parameters>
             <Attributes>
              <Attribute id="1947" value="" name="ident"/>
             </Attributes>
             <ExtraData>
              <Entry key="ZoomPanBin">
               <ZoomPanBin id="1948"  >
                <ZoomPanKeyframes>
                 <ZoomPanKeyframe id="1949" timeRangeEnd="-9999999/1" timeRangeDuration="0/1" interpolaterName=""  />
                </ZoomPanKeyframes>
               </ZoomPanBin>
              </Entry>
              <Entry key="CursorEffectBin">
               <CursorEffectBin id="1950"  >
                <CursorEffectKeyframes>
                </CursorEffectKeyframes>
               </CursorEffectBin>
              </Entry>
             </ExtraData>
            </ScreenVMFile>
            <MetaData>
             <entry key="AutoAppliedSmartFocus" val="False"/>
             <entry key="WinSubProjectDisplayName" val=""/>
            </MetaData>
           </UnifiedMedia>
           <UnifiedMedia id="1951"  >
            <AMFile id="1952" start="4891" duration="62" scalar="1/1" mediaStart="15394/1" mediaDuration="62/1" trackNumber="1" src="4" channelNumber="0,1" >
             <Parameters>
              <InterpolatingParam id="1953" interp="linr"  time="0/1" value="1" leadInLength="0/1"  name="volume"/>
              <Parameter id="1954"  name="captions"/>
             </Parameters>
             <Attributes>
              <Attribute id="1955" value="" name="ident"/>
              <Attribute id="1956" value="44100" name="sampleRate"/>
              <Attribute id="1957" value="16" name="bitDepth"/>
              <Attribute id="1958" value="1" name="gain"/>
              <Attribute id="1959" value="0" name="mixToMono"/>
             </Attributes>
            </AMFile>
            <ScreenVMFile id="1960" start="4891" duration="62" scalar="1/1" mediaStart="15394/1" mediaDuration="62/1" trackNumber="0" src="4" >
             <Transformer>
              <VectorParam id="1961"  name="translation">
               <InterpolatingParam id="1962" interp="linr"  time="-9999999/1" value="0" leadInLength="0/1"  />
               <InterpolatingParam id="1963" interp="linr"  time="-9999999/1" value="0" leadInLength="0/1"  />
               <InterpolatingParam id="1964" interp="linr"  time="-9999999/1" value="0" leadInLength="0/1"  />
              </VectorParam>
              <VectorParam id="1965"  name="rotation">
               <InterpolatingParam id="1966" interp="linr"  time="-9999999/1" value="0" leadInLength="0/1"  />
               <InterpolatingParam id="1967" interp="linr"  time="-9999999/1" value="0" leadInLength="0/1"  />
               <InterpolatingParam id="1968" interp="linr"  time="-9999999/1" value="0" leadInLength="0/1"  />
              </VectorParam>
              <VectorParam id="1969"  name="shear">
               <InterpolatingParam id="1970" interp="linr"  time="-9999999/1" value="0" leadInLength="0/1"  />
               <InterpolatingParam id="1971" interp="linr"  time="-9999999/1" value="0" leadInLength="0/1"  />
               <InterpolatingParam id="1972" interp="linr"  time="-9999999/1" value="0" leadInLength="0/1"  />
              </VectorParam>
              <VectorParam id="1973"  name="scale">
               <InterpolatingParam id="1974" interp="linr"  time="-9999999/1" value="1" leadInLength="0/1"  />
               <InterpolatingParam id="1975" interp="linr"  time="-9999999/1" value="1" leadInLength="0/1"  />
               <InterpolatingParam id="1976" interp="linr"  time="-9999999/1" value="1" leadInLength="0/1"  />
              </VectorParam>
              <VectorParam id="1977"  name="anchor">
               <InterpolatingParam id="1978" interp="linr"  time="0/1" value="0" leadInLength="0/1"  />
               <InterpolatingParam id="1979" interp="linr"  time="0/1" value="0" leadInLength="0/1"  />
               <InterpolatingParam id="1980" interp="linr"  time="0/1" value="0" leadInLength="0/1"  />
              </VectorParam>
             </Transformer>
             <Parameters>
              <VectorParam id="1981"  name="sourceCrop">
               <InterpolatingParam id="1982" interp="linr"  time="0/1" value="0" leadInLength="0/1"  />
               <InterpolatingParam id="1983" interp="linr"  time="0/1" value="0" leadInLength="0/1"  />
               <InterpolatingParam id="1984" interp="linr"  time="0/1" value="0" leadInLength="0/1"  />
               <InterpolatingParam id="1985" interp="linr"  time="0/1" value="0" leadInLength="0/1"  />
              </VectorParam>
              <VectorParam id="1986"  name="geometryCrop">
               <InterpolatingParam id="1987" interp="linr"  time="-9999999/1" value="0" leadInLength="0/1"  />
               <InterpolatingParam id="1988" interp="linr"  time="-9999999/1" value="0" leadInLength="0/1"  />
               <InterpolatingParam id="1989" interp="linr"  time="-9999999/1" value="0" leadInLength="0/1"  />
               <InterpolatingParam id="1990" interp="linr"  time="-9999999/1" value="0" leadInLength="0/1"  />
              </VectorParam>
              <InterpolatingParam id="1991" interp="linr"  time="-9999999/1" value="1" leadInLength="0/1"  name="opacity"/>
              <InterpolatingParam id="1992" interp="linr"  time="0/1" value="0" leadInLength="0/1"  name="cursorOpacity"/>
              <InterpolatingParam id="1993" interp="linr"  time="0/1" value="0" leadInLength="0/1"  name="cursorScale"/>
             </Parameters>
             <Attributes>
              <Attribute id="1994" value="" name="ident"/>
             </Attributes>
             <ExtraData>
              <Entry key="ZoomPanBin">
               <ZoomPanBin id="1995"  >
                <ZoomPanKeyframes>
                 <ZoomPanKeyframe id="1996" timeRangeEnd="-9999999/1" timeRangeDuration="0/1" interpolaterName=""  />
                </ZoomPanKeyframes>
               </ZoomPanBin>
              </Entry>
              <Entry key="CursorEffectBin">
               <CursorEffectBin id="1997"  >
                <CursorEffectKeyframes>
                </CursorEffectKeyframes>
               </CursorEffectBin>
              </Entry>
             </ExtraData>
            </ScreenVMFile>
            <MetaData>
             <entry key="AutoAppliedSmartFocus" val="False"/>
             <entry key="WinSubProjectDisplayName" val=""/>
            </MetaData>
           </UnifiedMedia>
           <UnifiedMedia id="1998"  >
            <AMFile id="1999" start="4953" duration="87" scalar="1/1" mediaStart="15461/1" mediaDuration="87/1" trackNumber="1" src="4" channelNumber="0,1" >
             <Parameters>
              <InterpolatingParam id="2000" interp="linr"  time="0/1" value="1" leadInLength="0/1"  name="volume"/>
              <Parameter id="2001"  name="captions"/>
             </Parameters>
             <Attributes>
              <Attribute id="2002" value="" name="ident"/>
              <Attribute id="2003" value="44100" name="sampleRate"/>
              <Attribute id="2004" value="16" name="bitDepth"/>
              <Attribute id="2005" value="1" name="gain"/>
              <Attribute id="2006" value="0" name="mixToMono"/>
             </Attributes>
            </AMFile>
            <ScreenVMFile id="2007" start="4953" duration="87" scalar="1/1" mediaStart="15461/1" mediaDuration="87/1" trackNumber="0" src="4" >
             <Transformer>
              <VectorParam id="2008"  name="translation">
               <InterpolatingParam id="2009" interp="linr"  time="-9999999/1" value="0" leadInLength="0/1"  />
               <InterpolatingParam id="2010" interp="linr"  time="-9999999/1" value="0" leadInLength="0/1"  />
               <InterpolatingParam id="2011" interp="linr"  time="-9999999/1" value="0" leadInLength="0/1"  />
              </VectorParam>
              <VectorParam id="2012"  name="rotation">
               <InterpolatingParam id="2013" interp="linr"  time="-9999999/1" value="0" leadInLength="0/1"  />
               <InterpolatingParam id="2014" interp="linr"  time="-9999999/1" value="0" leadInLength="0/1"  />
               <InterpolatingParam id="2015" interp="linr"  time="-9999999/1" value="0" leadInLength="0/1"  />
              </VectorParam>
              <VectorParam id="2016"  name="shear">
               <InterpolatingParam id="2017" interp="linr"  time="-9999999/1" value="0" leadInLength="0/1"  />
               <InterpolatingParam id="2018" interp="linr"  time="-9999999/1" value="0" leadInLength="0/1"  />
               <InterpolatingParam id="2019" interp="linr"  time="-9999999/1" value="0" leadInLength="0/1"  />
              </VectorParam>
              <VectorParam id="2020"  name="scale">
               <InterpolatingParam id="2021" interp="linr"  time="-9999999/1" value="1" leadInLength="0/1"  />
               <InterpolatingParam id="2022" interp="linr"  time="-9999999/1" value="1" leadInLength="0/1"  />
               <InterpolatingParam id="2023" interp="linr"  time="-9999999/1" value="1" leadInLength="0/1"  />
              </VectorParam>
              <VectorParam id="2024"  name="anchor">
               <InterpolatingParam id="2025" interp="linr"  time="0/1" value="0" leadInLength="0/1"  />
               <InterpolatingParam id="2026" interp="linr"  time="0/1" value="0" leadInLength="0/1"  />
               <InterpolatingParam id="2027" interp="linr"  time="0/1" value="0" leadInLength="0/1"  />
              </VectorParam>
             </Transformer>
             <Parameters>
              <VectorParam id="2028"  name="sourceCrop">
               <InterpolatingParam id="2029" interp="linr"  time="0/1" value="0" leadInLength="0/1"  />
               <InterpolatingParam id="2030" interp="linr"  time="0/1" value="0" leadInLength="0/1"  />
               <InterpolatingParam id="2031" interp="linr"  time="0/1" value="0" leadInLength="0/1"  />
               <InterpolatingParam id="2032" interp="linr"  time="0/1" value="0" leadInLength="0/1"  />
              </VectorParam>
              <VectorParam id="2033"  name="geometryCrop">
               <InterpolatingParam id="2034" interp="linr"  time="-9999999/1" value="0" leadInLength="0/1"  />
               <InterpolatingParam id="2035" interp="linr"  time="-9999999/1" value="0" leadInLength="0/1"  />
               <InterpolatingParam id="2036" interp="linr"  time="-9999999/1" value="0" leadInLength="0/1"  />
               <InterpolatingParam id="2037" interp="linr"  time="-9999999/1" value="0" leadInLength="0/1"  />
              </VectorParam>
              <InterpolatingParam id="2038" interp="linr"  time="-9999999/1" value="1" leadInLength="0/1"  name="opacity"/>
              <InterpolatingParam id="2039" interp="linr"  time="0/1" value="0" leadInLength="0/1"  name="cursorOpacity"/>
              <InterpolatingParam id="2040" interp="linr"  time="0/1" value="0" leadInLength="0/1"  name="cursorScale"/>
             </Parameters>
             <Attributes>
              <Attribute id="2041" value="" name="ident"/>
             </Attributes>
             <ExtraData>
              <Entry key="ZoomPanBin">
               <ZoomPanBin id="2042"  >
                <ZoomPanKeyframes>
                 <ZoomPanKeyframe id="2043" timeRangeEnd="-9999999/1" timeRangeDuration="0/1" interpolaterName=""  />
                </ZoomPanKeyframes>
               </ZoomPanBin>
              </Entry>
              <Entry key="CursorEffectBin">
               <CursorEffectBin id="2044"  >
                <CursorEffectKeyframes>
                </CursorEffectKeyframes>
               </CursorEffectBin>
              </Entry>
             </ExtraData>
            </ScreenVMFile>
            <MetaData>
             <entry key="AutoAppliedSmartFocus" val="False"/>
             <entry key="WinSubProjectDisplayName" val=""/>
            </MetaData>
           </UnifiedMedia>
           <UnifiedMedia id="2045"  >
            <AMFile id="2046" start="5040" duration="163" scalar="1/1" mediaStart="15721/1" mediaDuration="163/1" trackNumber="1" src="4" channelNumber="0,1" >
             <Parameters>
              <InterpolatingParam id="2047" interp="linr"  time="0/1" value="1" leadInLength="0/1"  name="volume"/>
              <Parameter id="2048"  name="captions"/>
             </Parameters>
             <Attributes>
              <Attribute id="2049" value="" name="ident"/>
              <Attribute id="2050" value="44100" name="sampleRate"/>
              <Attribute id="2051" value="16" name="bitDepth"/>
              <Attribute id="2052" value="1" name="gain"/>
              <Attribute id="2053" value="0" name="mixToMono"/>
             </Attributes>
            </AMFile>
            <ScreenVMFile id="2054" start="5040" duration="163" scalar="1/1" mediaStart="15721/1" mediaDuration="163/1" trackNumber="0" src="4" >
             <Transformer>
              <VectorParam id="2055"  name="translation">
               <InterpolatingParam id="2056" interp="linr"  time="-9999999/1" value="0" leadInLength="0/1"  />
               <InterpolatingParam id="2057" interp="linr"  time="-9999999/1" value="0" leadInLength="0/1"  />
               <InterpolatingParam id="2058" interp="linr"  time="-9999999/1" value="0" leadInLength="0/1"  />
              </VectorParam>
              <VectorParam id="2059"  name="rotation">
               <InterpolatingParam id="2060" interp="linr"  time="-9999999/1" value="0" leadInLength="0/1"  />
               <InterpolatingParam id="2061" interp="linr"  time="-9999999/1" value="0" leadInLength="0/1"  />
               <InterpolatingParam id="2062" interp="linr"  time="-9999999/1" value="0" leadInLength="0/1"  />
              </VectorParam>
              <VectorParam id="2063"  name="shear">
               <InterpolatingParam id="2064" interp="linr"  time="-9999999/1" value="0" leadInLength="0/1"  />
               <InterpolatingParam id="2065" interp="linr"  time="-9999999/1" value="0" leadInLength="0/1"  />
               <InterpolatingParam id="2066" interp="linr"  time="-9999999/1" value="0" leadInLength="0/1"  />
              </VectorParam>
              <VectorParam id="2067"  name="scale">
               <InterpolatingParam id="2068" interp="linr"  time="-9999999/1" value="1" leadInLength="0/1"  />
               <InterpolatingParam id="2069" interp="linr"  time="-9999999/1" value="1" leadInLength="0/1"  />
               <InterpolatingParam id="2070" interp="linr"  time="-9999999/1" value="1" leadInLength="0/1"  />
              </VectorParam>
              <VectorParam id="2071"  name="anchor">
               <InterpolatingParam id="2072" interp="linr"  time="0/1" value="0" leadInLength="0/1"  />
               <InterpolatingParam id="2073" interp="linr"  time="0/1" value="0" leadInLength="0/1"  />
               <InterpolatingParam id="2074" interp="linr"  time="0/1" value="0" leadInLength="0/1"  />
              </VectorParam>
             </Transformer>
             <Parameters>
              <VectorParam id="2075"  name="sourceCrop">
               <InterpolatingParam id="2076" interp="linr"  time="0/1" value="0" leadInLength="0/1"  />
               <InterpolatingParam id="2077" interp="linr"  time="0/1" value="0" leadInLength="0/1"  />
               <InterpolatingParam id="2078" interp="linr"  time="0/1" value="0" leadInLength="0/1"  />
               <InterpolatingParam id="2079" interp="linr"  time="0/1" value="0" leadInLength="0/1"  />
              </VectorParam>
              <VectorParam id="2080"  name="geometryCrop">
               <InterpolatingParam id="2081" interp="linr"  time="-9999999/1" value="0" leadInLength="0/1"  />
               <InterpolatingParam id="2082" interp="linr"  time="-9999999/1" value="0" leadInLength="0/1"  />
               <InterpolatingParam id="2083" interp="linr"  time="-9999999/1" value="0" leadInLength="0/1"  />
               <InterpolatingParam id="2084" interp="linr"  time="-9999999/1" value="0" leadInLength="0/1"  />
              </VectorParam>
              <InterpolatingParam id="2085" interp="linr"  time="-9999999/1" value="1" leadInLength="0/1"  name="opacity"/>
              <InterpolatingParam id="2086" interp="linr"  time="0/1" value="0" leadInLength="0/1"  name="cursorOpacity"/>
              <InterpolatingParam id="2087" interp="linr"  time="0/1" value="0" leadInLength="0/1"  name="cursorScale"/>
             </Parameters>
             <Attributes>
              <Attribute id="2088" value="" name="ident"/>
             </Attributes>
             <ExtraData>
              <Entry key="ZoomPanBin">
               <ZoomPanBin id="2089"  >
                <ZoomPanKeyframes>
                 <ZoomPanKeyframe id="2090" timeRangeEnd="-9999999/1" timeRangeDuration="0/1" interpolaterName=""  />
                </ZoomPanKeyframes>
               </ZoomPanBin>
              </Entry>
              <Entry key="CursorEffectBin">
               <CursorEffectBin id="2091"  >
                <CursorEffectKeyframes>
                </CursorEffectKeyframes>
               </CursorEffectBin>
              </Entry>
             </ExtraData>
            </ScreenVMFile>
            <MetaData>
             <entry key="AutoAppliedSmartFocus" val="False"/>
             <entry key="WinSubProjectDisplayName" val=""/>
            </MetaData>
           </UnifiedMedia>
          </Medias>
         </GenericTrack>
        </StitchedMedia>
        <UnifiedMedia id="2092"  >
         <AudioTransition id="2093" start="4941" duration="30" >
          <Parameters>
           <InterpolatingParam id="2094" interp="linr"  time="0/1" value="1" leadInLength="0/1"  name="volume"/>
           <Parameter id="2095"  name="captions"/>
          </Parameters>
          <Effects>
           <GenericEffect id="2096" name = "AudioTransition" >
            <Parameters>
            <Parameter id="2097"   name="audioEdgeModType">
             <Keyframes>
             <Keyframe id="2098"  time="0/1" value="0" leadInLength="0/1"  />
             </Keyframes>
            </Parameter>
            <Parameter id="2099"   name="audioTransitionType">
             <Keyframes>
             <Keyframe id="2100"  time="0/1" value="" leadInLength="0/1"  />
             </Keyframes>
            </Parameter>
            </Parameters>
            <MetaData>
            </MetaData>
           </GenericEffect>
          </Effects>
          <Attributes>
           <Attribute id="2101" value="" name="ident"/>
           <Attribute id="2102" value="0" name="sampleRate"/>
           <Attribute id="2103" value="0" name="bitDepth"/>
           <Attribute id="2104" value="1" name="gain"/>
           <Attribute id="2105" value="0" name="mixToMono"/>
          </Attributes>
         </AudioTransition>
         <ImageTransition id="2106" start="4941" duration="30" >
          <Transformer>
           <VectorParam id="2107"  name="translation">
            <InterpolatingParam id="2108" interp="linr"  time="0/1" value="0" leadInLength="0/1"  />
            <InterpolatingParam id="2109" interp="linr"  time="0/1" value="0" leadInLength="0/1"  />
            <InterpolatingParam id="2110" interp="linr"  time="0/1" value="0" leadInLength="0/1"  />
           </VectorParam>
           <VectorParam id="2111"  name="rotation">
            <InterpolatingParam id="2112" interp="linr"  time="0/1" value="0" leadInLength="0/1"  />
            <InterpolatingParam id="2113" interp="linr"  time="0/1" value="0" leadInLength="0/1"  />
            <InterpolatingParam id="2114" interp="linr"  time="0/1" value="0" leadInLength="0/1"  />
           </VectorParam>
           <VectorParam id="2115"  name="shear">
            <InterpolatingParam id="2116" interp="linr"  time="0/1" value="0" leadInLength="0/1"  />
            <InterpolatingParam id="2117" interp="linr"  time="0/1" value="0" leadInLength="0/1"  />
            <InterpolatingParam id="2118" interp="linr"  time="0/1" value="0" leadInLength="0/1"  />
           </VectorParam>
           <VectorParam id="2119"  name="scale">
            <InterpolatingParam id="2120" interp="linr"  time="0/1" value="1" leadInLength="0/1"  />
            <InterpolatingParam id="2121" interp="linr"  time="0/1" value="1" leadInLength="0/1"  />
            <InterpolatingParam id="2122" interp="linr"  time="0/1" value="1" leadInLength="0/1"  />
           </VectorParam>
           <VectorParam id="2123"  name="anchor">
            <InterpolatingParam id="2124" interp="linr"  time="0/1" value="0" leadInLength="0/1"  />
            <InterpolatingParam id="2125" interp="linr"  time="0/1" value="0" leadInLength="0/1"  />
            <InterpolatingParam id="2126" interp="linr"  time="0/1" value="0" leadInLength="0/1"  />
           </VectorParam>
          </Transformer>
          <Parameters>
           <VectorParam id="2127"  name="sourceCrop">
            <InterpolatingParam id="2128" interp="linr"  time="0/1" value="0" leadInLength="0/1"  />
            <InterpolatingParam id="2129" interp="linr"  time="0/1" value="0" leadInLength="0/1"  />
            <InterpolatingParam id="2130" interp="linr"  time="0/1" value="0" leadInLength="0/1"  />
            <InterpolatingParam id="2131" interp="linr"  time="0/1" value="0" leadInLength="0/1"  />
           </VectorParam>
           <VectorParam id="2132"  name="geometryCrop">
            <InterpolatingParam id="2133" interp="linr"  time="0/1" value="0" leadInLength="0/1"  />
            <InterpolatingParam id="2134" interp="linr"  time="0/1" value="0" leadInLength="0/1"  />
            <InterpolatingParam id="2135" interp="linr"  time="0/1" value="0" leadInLength="0/1"  />
            <InterpolatingParam id="2136" interp="linr"  time="0/1" value="0" leadInLength="0/1"  />
           </VectorParam>
           <InterpolatingParam id="2137" interp="linr"  time="0/1" value="1" leadInLength="0/1"  name="opacity"/>
          </Parameters>
          <Effects>
           <GenericEffect id="2138" name = "VisualTransition" >
            <Parameters>
            <InterpolatingParam id="2139" interp="linr"  time="0/1" value="0.5" leadInLength="0/1"   name="leftFramePercentage"/>
            <InterpolatingParam id="2140" interp="linr"  time="0/1" value="0.5" leadInLength="0/1"   name="rightFramePercentage"/>
            <Parameter id="2141"   name="visualEdgeModType">
             <Keyframes>
             <Keyframe id="2142"  time="0/1" value="2" leadInLength="0/1"  />
             </Keyframes>
            </Parameter>
            <Parameter id="2143"   name="visualTransitionType">
             <Keyframes>
             <Keyframe id="2144"  time="0/1" value="Glow" leadInLength="0/1"  />
             </Keyframes>
            </Parameter>
            </Parameters>
            <MetaData>
            </MetaData>
           </GenericEffect>
          </Effects>
          <Attributes>
           <Attribute id="2145" value="" name="ident"/>
          </Attributes>
          <ExtraData>
           <Entry key="ZoomPanBin">
            <ZoomPanBin id="2146"  >
             <ZoomPanKeyframes>
             </ZoomPanKeyframes>
            </ZoomPanBin>
           </Entry>
          </ExtraData>
         </ImageTransition>
         <MetaData>
          <entry key="WinSubProjectDisplayName" val=""/>
         </MetaData>
        </UnifiedMedia>
       </Medias>
      </GenericTrack>
      <GenericTrack id="2147"  >
       <Attributes>
        <Attribute id="2148" value="" name="ident"/>
        <Attribute id="2149" value="0" name="audioMuted"/>
        <Attribute id="2150" value="0" name="videoHidden"/>
       </Attributes>
       <MetaData>
        <entry key="IsLocked" val="False"/>
        <entry key="WinTrackHeight" val="95.409090909090907"/>
       </MetaData>
       <Medias>
       </Medias>
      </GenericTrack>
     </Tracks>
    </GenericMixer>
   <CaptionAttributes id="2151"  >
    <Attribute id="2152" value="1" name="captionsEnabled"/>
    <Attribute id="2153" value="Arial" name="captionsFontName"/>
    <Attribute id="2154" value="36" name="captionsFontSize"/>
    <Attribute id="2155" value="(0,0,0,255)" name="captionsBackgroundColor"/>
    <Attribute id="2156" value="(255,255,255,255)" name="captionsForegroundColor"/>
    <Attribute id="2157" value="en" name="lang"/>
    <Attribute id="2158" value="0" name="captionsAlignment"/>
    <Attribute id="2159" value="1" name="captionsDefaultFontSize"/>
    <Attribute id="2160" value="0.5" name="captionsOpacity"/>
    <Attribute id="2161" value="1" name="captionsBackgroundEnabled"/>
    <Attribute id="2162" value="1" name="captionsBackgroundOnlyAroundText"/>
   </CaptionAttributes>
   <Parameters>
    <VectorParam id="2163"  name="eyePosition">
     <InterpolatingParam id="2164" interp="linr"  time="0/1" value="0" leadInLength="0/1"  />
     <InterpolatingParam id="2165" interp="linr"  time="0/1" value="0" leadInLength="0/1"  />
     <InterpolatingParam id="2166" interp="linr"  time="0/1" value="3000" leadInLength="0/1"  />
    </VectorParam>
    <VectorParam id="2167"  name="eyeLookAtPosition">
     <InterpolatingParam id="2168" interp="linr"  time="0/1" value="0" leadInLength="0/1"  />
     <InterpolatingParam id="2169" interp="linr"  time="0/1" value="0" leadInLength="0/1"  />
     <InterpolatingParam id="2170" interp="linr"  time="0/1" value="0" leadInLength="0/1"  />
    </VectorParam>
    <VectorParam id="2171"  name="eyeUpVector">
     <InterpolatingParam id="2172" interp="linr"  time="0/1" value="0" leadInLength="0/1"  />
     <InterpolatingParam id="2173" interp="linr"  time="0/1" value="1" leadInLength="0/1"  />
     <InterpolatingParam id="2174" interp="linr"  time="0/1" value="0" leadInLength="0/1"  />
    </VectorParam>
    <InterpolatingParam id="2175" interp="linr"  time="0/1" value="0.356185883" leadInLength="0/1"  name="fov"/>
    <InterpolatingParam id="2176" interp="linr"  time="0/1" value="1.5" leadInLength="0/1"  name="nearClipDistance"/>
    <InterpolatingParam id="2177" interp="linr"  time="0/1" value="6000" leadInLength="0/1"  name="farClipDistance"/>
   </Parameters>
  </Timeline>
 </Project>
</GoProject>
</CSMLData>

</Project_Data>
