<?xml version="1.0"?>
<Project_Data Version="8.00">
<Project_Settings>
<ProfileName>MP4 only (up to 1080p)</ProfileName>
<ProjectWidth>1920</ProjectWidth>
<ProjectHeight>1080</ProjectHeight>
<IsCustomProject>1</IsCustomProject>
<SavedProjectSettings>1</SavedProjectSettings>
<LastFlashTemplate>-1</LastFlashTemplate>
</Project_Settings>


<AutoSaveFile>C:\Users\Administrator\AppData\Local\TechSmith\Camtasia Studio\8.0\Auto-Saves\Flex Wrap645f60.autosave.camproj</AutoSaveFile>

<ProjectID>1BBC240F-4794-4CAD-A695-20DEF00BF5FE</ProjectID>

<PowerPointProject>0</PowerPointProject>

<PowerPointFilename></PowerPointFilename>


<Project_Notes>
</Project_Notes>

<Project_MetaData>
<Project_MetaData_Object>
<FieldArrayKey>8</FieldArrayKey>
<Value>Flex Wrap</Value>
</Project_MetaData_Object>
<Project_MetaData_Object>
<FieldArrayKey>13</FieldArrayKey>
<Value>2017-02-05 04:08:54 PM</Value>
</Project_MetaData_Object>
<Project_MetaData_Object>
<FieldArrayKey>16</FieldArrayKey>
<Value>ENU</Value>
</Project_MetaData_Object>
</Project_MetaData>

<CSMLData>
<GoProject id="1" version="3.0" >
 <Project id="2" editRate="30/1" version="3.0" >
  <Author></Author>
  <Comment></Comment>
  <System></System>
  <SourceBin id="3"  >
    <Source id="4" src="D:\Peter Sommerhoff.avi" lastMod="20170206T000747" rect="(0,0,1920,1080)" >
      <SourceTrack range="(0,33333333)" type="0" editRate="10000000/1" trackRect="(0,0,1920,1080)" sampleRate="5000000/166833" bitDepth="24" numChannels="0" filename="" metaData="" />
    </Source>
    <Source id="5" src="D:\Peter Sommerhoff\Source Files\08.flex-wrap.trec" lastMod="20170129T091748" rect="(0,0,1920,1080)" >
      <SourceTrack range="(0,13515)" type="0" editRate="30/1" trackRect="(0,0,1920,1080)" sampleRate="0/1" bitDepth="0" numChannels="0" filename="08.flex-wrap.trec!Strack0.tsc2" metaData="08.flex-wrap.trec;" />
      <SourceTrack range="(0,19868672)" type="2" editRate="44100/1" trackRect="(0,0,0,0)" sampleRate="44100/1" bitDepth="16" numChannels="2" filename="08.flex-wrap.trec!Maudio1.mp4" metaData="" />
    </Source>
    <Source id="6" src="D:\Music\AudioJungle\[Audiojungle] Bundle 2015 Vol. 1 [Fluck3r]\3D World Logo Reveal\3D World Logo Reveal.mp3" lastMod="20160405T185915" rect="(0,0,0,0)" >
      <SourceTrack range="(0,199000000)" type="2" editRate="10000000/1" trackRect="(0,0,0,0)" sampleRate="44100/1" bitDepth="0" numChannels="2" filename="" metaData="" />
    </Source>
  </SourceBin>
  <Timeline id="7"  >
   <Attributes>
    <Attribute id="8" value="1920" name="width"/>
    <Attribute id="9" value="1080" name="height"/>
    <Attribute id="10" value="(0,0,0,255)" name="backgroundColor"/>
   </Attributes>
    <GenericMixer id="11"  name="Unified Mixer">
     <MetaData>
      <entry key="MixerType" val="TimelineMixer"/>
     </MetaData>
     <Tracks>
      <GenericTrack id="12"  >
       <Attributes>
        <Attribute id="13" value="" name="ident"/>
        <Attribute id="14" value="0" name="audioMuted"/>
        <Attribute id="15" value="0" name="videoHidden"/>
       </Attributes>
       <MetaData>
        <entry key="IsLocked" val="False"/>
        <entry key="WinTrackHeight" val="40"/>
       </MetaData>
       <Medias>
        <AMFile id="16" start="0" duration="116" scalar="1/1" mediaStart="7/1" mediaDuration="116/1" trackNumber="0" src="6" channelNumber="0,1" >
         <Parameters>
          <InterpolatingParam id="17" interp="linr"  name="volume">
           <Keyframes>
           <Keyframe id="18"  time="0/1" value="1" leadInLength="0/1"  />
           <Keyframe id="19"  time="65/1" value="1" leadInLength="0/1"  />
           <Keyframe id="20"  time="123/1" value="0" leadInLength="0/1"  />
           <Keyframe id="21"  time="124/1" value="1" leadInLength="0/1"  />
           </Keyframes>
          </InterpolatingParam>
          <Parameter id="22"  name="captions"/>
         </Parameters>
         <Attributes>
          <Attribute id="23" value="" name="ident"/>
          <Attribute id="24" value="44100" name="sampleRate"/>
          <Attribute id="25" value="0" name="bitDepth"/>
          <Attribute id="26" value="1" name="gain"/>
          <Attribute id="27" value="0" name="mixToMono"/>
         </Attributes>
         <MetaData>
          <entry key="WinSubProjectDisplayName" val=""/>
         </MetaData>
        </AMFile>
       </Medias>
      </GenericTrack>
      <GenericTrack id="28"  >
       <Attributes>
        <Attribute id="29" value="" name="ident"/>
        <Attribute id="30" value="0" name="audioMuted"/>
        <Attribute id="31" value="0" name="videoHidden"/>
       </Attributes>
       <MetaData>
        <entry key="IsLocked" val="False"/>
        <entry key="WinTrackHeight" val="123"/>
       </MetaData>
       <Medias>
        <VMFile id="32" start="0" duration="85" scalar="1/1" mediaStart="0/1" mediaDuration="85/1" trackNumber="0" src="4" >
         <Transformer>
          <VectorParam id="33"  name="translation">
           <InterpolatingParam id="34" interp="linr"  time="-9999999/1" value="0" leadInLength="0/1"  />
           <InterpolatingParam id="35" interp="linr"  time="-9999999/1" value="0" leadInLength="0/1"  />
           <InterpolatingParam id="36" interp="linr"  time="-9999999/1" value="0" leadInLength="0/1"  />
          </VectorParam>
          <VectorParam id="37"  name="rotation">
           <InterpolatingParam id="38" interp="linr"  time="-9999999/1" value="0" leadInLength="0/1"  />
           <InterpolatingParam id="39" interp="linr"  time="-9999999/1" value="0" leadInLength="0/1"  />
           <InterpolatingParam id="40" interp="linr"  time="-9999999/1" value="0" leadInLength="0/1"  />
          </VectorParam>
          <VectorParam id="41"  name="shear">
           <InterpolatingParam id="42" interp="linr"  time="-9999999/1" value="0" leadInLength="0/1"  />
           <InterpolatingParam id="43" interp="linr"  time="-9999999/1" value="0" leadInLength="0/1"  />
           <InterpolatingParam id="44" interp="linr"  time="-9999999/1" value="0" leadInLength="0/1"  />
          </VectorParam>
          <VectorParam id="45"  name="scale">
           <InterpolatingParam id="46" interp="linr"  time="-9999999/1" value="1" leadInLength="0/1"  />
           <InterpolatingParam id="47" interp="linr"  time="-9999999/1" value="1" leadInLength="0/1"  />
           <InterpolatingParam id="48" interp="linr"  time="-9999999/1" value="1" leadInLength="0/1"  />
          </VectorParam>
          <VectorParam id="49"  name="anchor">
           <InterpolatingParam id="50" interp="linr"  time="0/1" value="0" leadInLength="0/1"  />
           <InterpolatingParam id="51" interp="linr"  time="0/1" value="0" leadInLength="0/1"  />
           <InterpolatingParam id="52" interp="linr"  time="0/1" value="0" leadInLength="0/1"  />
          </VectorParam>
         </Transformer>
         <Parameters>
          <VectorParam id="53"  name="sourceCrop">
           <InterpolatingParam id="54" interp="linr"  time="0/1" value="0" leadInLength="0/1"  />
           <InterpolatingParam id="55" interp="linr"  time="0/1" value="0" leadInLength="0/1"  />
           <InterpolatingParam id="56" interp="linr"  time="0/1" value="0" leadInLength="0/1"  />
           <InterpolatingParam id="57" interp="linr"  time="0/1" value="0" leadInLength="0/1"  />
          </VectorParam>
          <VectorParam id="58"  name="geometryCrop">
           <InterpolatingParam id="59" interp="linr"  time="-9999999/1" value="0" leadInLength="0/1"  />
           <InterpolatingParam id="60" interp="linr"  time="-9999999/1" value="0" leadInLength="0/1"  />
           <InterpolatingParam id="61" interp="linr"  time="-9999999/1" value="0" leadInLength="0/1"  />
           <InterpolatingParam id="62" interp="linr"  time="-9999999/1" value="0" leadInLength="0/1"  />
          </VectorParam>
          <InterpolatingParam id="63" interp="linr"  time="-9999999/1" value="1" leadInLength="0/1"  name="opacity"/>
         </Parameters>
         <Attributes>
          <Attribute id="64" value="" name="ident"/>
         </Attributes>
         <MetaData>
          <entry key="WinSubProjectDisplayName" val=""/>
         </MetaData>
         <ExtraData>
          <Entry key="ZoomPanBin">
           <ZoomPanBin id="65"  >
            <ZoomPanKeyframes>
             <ZoomPanKeyframe id="66" timeRangeEnd="-9999999/1" timeRangeDuration="0/1" interpolaterName="linr"  />
            </ZoomPanKeyframes>
           </ZoomPanBin>
          </Entry>
         </ExtraData>
        </VMFile>
        <UnifiedMedia id="67"  >
         <AudioTransition id="68" start="85" duration="28" >
          <Parameters>
           <InterpolatingParam id="69" interp="linr"  time="0/1" value="1" leadInLength="0/1"  name="volume"/>
           <Parameter id="70"  name="captions"/>
          </Parameters>
          <Effects>
           <GenericEffect id="71" name = "AudioTransition" >
            <Parameters>
            <Parameter id="72"   name="audioEdgeModType">
             <Keyframes>
             <Keyframe id="73"  time="0/1" value="0" leadInLength="0/1"  />
             </Keyframes>
            </Parameter>
            <Parameter id="74"   name="audioTransitionType">
             <Keyframes>
             <Keyframe id="75"  time="0/1" value="" leadInLength="0/1"  />
             </Keyframes>
            </Parameter>
            </Parameters>
            <MetaData>
            </MetaData>
           </GenericEffect>
          </Effects>
          <Attributes>
           <Attribute id="76" value="" name="ident"/>
           <Attribute id="77" value="0" name="sampleRate"/>
           <Attribute id="78" value="0" name="bitDepth"/>
           <Attribute id="79" value="1" name="gain"/>
           <Attribute id="80" value="0" name="mixToMono"/>
          </Attributes>
         </AudioTransition>
         <ImageTransition id="81" start="85" duration="28" >
          <Transformer>
           <VectorParam id="82"  name="translation">
            <InterpolatingParam id="83" interp="linr"  time="0/1" value="0" leadInLength="0/1"  />
            <InterpolatingParam id="84" interp="linr"  time="0/1" value="0" leadInLength="0/1"  />
            <InterpolatingParam id="85" interp="linr"  time="0/1" value="0" leadInLength="0/1"  />
           </VectorParam>
           <VectorParam id="86"  name="rotation">
            <InterpolatingParam id="87" interp="linr"  time="0/1" value="0" leadInLength="0/1"  />
            <InterpolatingParam id="88" interp="linr"  time="0/1" value="0" leadInLength="0/1"  />
            <InterpolatingParam id="89" interp="linr"  time="0/1" value="0" leadInLength="0/1"  />
           </VectorParam>
           <VectorParam id="90"  name="shear">
            <InterpolatingParam id="91" interp="linr"  time="0/1" value="0" leadInLength="0/1"  />
            <InterpolatingParam id="92" interp="linr"  time="0/1" value="0" leadInLength="0/1"  />
            <InterpolatingParam id="93" interp="linr"  time="0/1" value="0" leadInLength="0/1"  />
           </VectorParam>
           <VectorParam id="94"  name="scale">
            <InterpolatingParam id="95" interp="linr"  time="0/1" value="1" leadInLength="0/1"  />
            <InterpolatingParam id="96" interp="linr"  time="0/1" value="1" leadInLength="0/1"  />
            <InterpolatingParam id="97" interp="linr"  time="0/1" value="1" leadInLength="0/1"  />
           </VectorParam>
           <VectorParam id="98"  name="anchor">
            <InterpolatingParam id="99" interp="linr"  time="0/1" value="0" leadInLength="0/1"  />
            <InterpolatingParam id="100" interp="linr"  time="0/1" value="0" leadInLength="0/1"  />
            <InterpolatingParam id="101" interp="linr"  time="0/1" value="0" leadInLength="0/1"  />
           </VectorParam>
          </Transformer>
          <Parameters>
           <VectorParam id="102"  name="sourceCrop">
            <InterpolatingParam id="103" interp="linr"  time="0/1" value="0" leadInLength="0/1"  />
            <InterpolatingParam id="104" interp="linr"  time="0/1" value="0" leadInLength="0/1"  />
            <InterpolatingParam id="105" interp="linr"  time="0/1" value="0" leadInLength="0/1"  />
            <InterpolatingParam id="106" interp="linr"  time="0/1" value="0" leadInLength="0/1"  />
           </VectorParam>
           <VectorParam id="107"  name="geometryCrop">
            <InterpolatingParam id="108" interp="linr"  time="0/1" value="0" leadInLength="0/1"  />
            <InterpolatingParam id="109" interp="linr"  time="0/1" value="0" leadInLength="0/1"  />
            <InterpolatingParam id="110" interp="linr"  time="0/1" value="0" leadInLength="0/1"  />
            <InterpolatingParam id="111" interp="linr"  time="0/1" value="0" leadInLength="0/1"  />
           </VectorParam>
           <InterpolatingParam id="112" interp="linr"  time="0/1" value="1" leadInLength="0/1"  name="opacity"/>
          </Parameters>
          <Effects>
           <GenericEffect id="113" name = "VisualTransition" >
            <Parameters>
            <InterpolatingParam id="114" interp="linr"  time="0/1" value="1" leadInLength="0/1"   name="leftFramePercentage"/>
            <InterpolatingParam id="115" interp="linr"  time="0/1" value="1" leadInLength="0/1"   name="rightFramePercentage"/>
            <Parameter id="116"   name="visualEdgeModType">
             <Keyframes>
             <Keyframe id="117"  time="0/1" value="0" leadInLength="0/1"  />
             </Keyframes>
            </Parameter>
            <Parameter id="118"   name="visualTransitionType">
             <Keyframes>
             <Keyframe id="119"  time="0/1" value="Glow" leadInLength="0/1"  />
             </Keyframes>
            </Parameter>
            </Parameters>
            <MetaData>
            </MetaData>
           </GenericEffect>
          </Effects>
          <Attributes>
           <Attribute id="120" value="" name="ident"/>
          </Attributes>
          <ExtraData>
           <Entry key="ZoomPanBin">
            <ZoomPanBin id="121"  >
             <ZoomPanKeyframes>
             </ZoomPanKeyframes>
            </ZoomPanBin>
           </Entry>
          </ExtraData>
         </ImageTransition>
         <MetaData>
          <entry key="WinSubProjectDisplayName" val=""/>
         </MetaData>
        </UnifiedMedia>
        <StitchedMedia id="122" start="113" duration="8263" scalar="1/1" mediaStart="101/1" mediaDuration="8263/1" minMediaStart="0/1" >
         <Transformer>
          <VectorParam id="123"  name="translation">
           <InterpolatingParam id="124" interp="linr"  time="-9999999/1" value="0" leadInLength="0/1"  />
           <InterpolatingParam id="125" interp="linr"  time="-9999999/1" value="0" leadInLength="0/1"  />
           <InterpolatingParam id="126" interp="linr"  time="-9999999/1" value="0" leadInLength="0/1"  />
          </VectorParam>
          <VectorParam id="127"  name="rotation">
           <InterpolatingParam id="128" interp="linr"  time="-9999999/1" value="0" leadInLength="0/1"  />
           <InterpolatingParam id="129" interp="linr"  time="-9999999/1" value="0" leadInLength="0/1"  />
           <InterpolatingParam id="130" interp="linr"  time="-9999999/1" value="0" leadInLength="0/1"  />
          </VectorParam>
          <VectorParam id="131"  name="shear">
           <InterpolatingParam id="132" interp="linr"  time="-9999999/1" value="0" leadInLength="0/1"  />
           <InterpolatingParam id="133" interp="linr"  time="-9999999/1" value="0" leadInLength="0/1"  />
           <InterpolatingParam id="134" interp="linr"  time="-9999999/1" value="0" leadInLength="0/1"  />
          </VectorParam>
          <VectorParam id="135"  name="scale">
           <InterpolatingParam id="136" interp="linr"  time="-9999999/1" value="1" leadInLength="0/1"  />
           <InterpolatingParam id="137" interp="linr"  time="-9999999/1" value="1" leadInLength="0/1"  />
           <InterpolatingParam id="138" interp="linr"  time="-9999999/1" value="1" leadInLength="0/1"  />
          </VectorParam>
          <VectorParam id="139"  name="anchor">
           <InterpolatingParam id="140" interp="linr"  time="0/1" value="0" leadInLength="0/1"  />
           <InterpolatingParam id="141" interp="linr"  time="0/1" value="0" leadInLength="0/1"  />
           <InterpolatingParam id="142" interp="linr"  time="0/1" value="0" leadInLength="0/1"  />
          </VectorParam>
         </Transformer>
         <Parameters>
          <VectorParam id="143"  name="sourceCrop">
           <InterpolatingParam id="144" interp="linr"  time="0/1" value="0" leadInLength="0/1"  />
           <InterpolatingParam id="145" interp="linr"  time="0/1" value="0" leadInLength="0/1"  />
           <InterpolatingParam id="146" interp="linr"  time="0/1" value="0" leadInLength="0/1"  />
           <InterpolatingParam id="147" interp="linr"  time="0/1" value="0" leadInLength="0/1"  />
          </VectorParam>
          <VectorParam id="148"  name="geometryCrop">
           <InterpolatingParam id="149" interp="linr"  time="-9999999/1" value="0" leadInLength="0/1"  />
           <InterpolatingParam id="150" interp="linr"  time="-9999999/1" value="0" leadInLength="0/1"  />
           <InterpolatingParam id="151" interp="linr"  time="-9999999/1" value="0" leadInLength="0/1"  />
           <InterpolatingParam id="152" interp="linr"  time="-9999999/1" value="0" leadInLength="0/1"  />
          </VectorParam>
          <InterpolatingParam id="153" interp="linr"  time="-9999999/1" value="1" leadInLength="0/1"  name="opacity"/>
          <InterpolatingParam id="154" interp="linr"  time="0/1" value="1" leadInLength="0/1"  name="cursorOpacity"/>
          <InterpolatingParam id="155" interp="linr"  time="0/1" value="1" leadInLength="0/1"  name="cursorScale"/>
          <InterpolatingParam id="156" interp="linr"  time="0/1" value="1.5625" leadInLength="0/1"  name="volume"/>
          <Parameter id="157"  name="captions"/>
         </Parameters>
         <Effects>
          <GenericEffect id="158" name = "CursorBaseEffectName" >
           <Parameters>
           <InterpolatingParam id="159" interp="linr"  time="-9999999/1" value="1" leadInLength="0/1"   name="cursorSize"/>
           <InterpolatingParam id="160" interp="linr"  time="-9999999/1" value="0" leadInLength="0/1"   name="highlightBlurRadius"/>
           <InterpolatingParam id="161" interp="linr"  time="-9999999/1" value="0" leadInLength="0/1"   name="highlightColorBlue"/>
           <InterpolatingParam id="162" interp="linr"  time="-9999999/1" value="255" leadInLength="0/1"   name="highlightColorGreen"/>
           <InterpolatingParam id="163" interp="linr"  time="-9999999/1" value="255" leadInLength="0/1"   name="highlightColorRed"/>
           <InterpolatingParam id="164" interp="linr"  time="-9999999/1" value="5" leadInLength="0/1"   name="highlightFeatherSize"/>
           <InterpolatingParam id="165" interp="linr"  time="-9999999/1" value="2" leadInLength="0/1"   name="highlightMagnification"/>
           <InterpolatingParam id="166" interp="linr"  time="-9999999/1" value="1" leadInLength="0/1"   name="highlightOpacity"/>
           <InterpolatingParam id="167" interp="linr"  time="-9999999/1" value="45" leadInLength="0/1"   name="highlightSize"/>
           <Parameter id="168"   name="highlightType">
            <Keyframes>
            <Keyframe id="169"  time="-9999999/1" value="0" leadInLength="0/1"  />
            </Keyframes>
           </Parameter>
           <InterpolatingParam id="170" interp="linr"  time="-9999999/1" value="0" leadInLength="0/1"   name="leftClickColorBlue"/>
           <InterpolatingParam id="171" interp="linr"  time="-9999999/1" value="0" leadInLength="0/1"   name="leftClickColorGreen"/>
           <InterpolatingParam id="172" interp="linr"  time="-9999999/1" value="255" leadInLength="0/1"   name="leftClickColorRed"/>
           <InterpolatingParam id="173" interp="linr"  time="-9999999/1" value="0.80000000000000004" leadInLength="0/1"   name="leftClickDuration"/>
           <InterpolatingParam id="174" interp="linr"  time="-9999999/1" value="20" leadInLength="0/1"   name="leftClickSize"/>
           <Parameter id="175"   name="leftClickSoundFilename">
            <Keyframes>
            <Keyframe id="176"  time="-9999999/1" value="" leadInLength="0/1"  />
            </Keyframes>
           </Parameter>
           <InterpolatingParam id="177" interp="linr"  time="-9999999/1" value="1" leadInLength="0/1"   name="leftClickSoundVolume"/>
           <Parameter id="178"   name="leftClickType">
            <Keyframes>
            <Keyframe id="179"  time="-9999999/1" value="0" leadInLength="0/1"  />
            </Keyframes>
           </Parameter>
           <InterpolatingParam id="180" interp="linr"  time="-9999999/1" value="1" leadInLength="0/1"   name="opacity"/>
           <InterpolatingParam id="181" interp="linr"  time="-9999999/1" value="255" leadInLength="0/1"   name="rightClickColorBlue"/>
           <InterpolatingParam id="182" interp="linr"  time="-9999999/1" value="0" leadInLength="0/1"   name="rightClickColorGreen"/>
           <InterpolatingParam id="183" interp="linr"  time="-9999999/1" value="0" leadInLength="0/1"   name="rightClickColorRed"/>
           <InterpolatingParam id="184" interp="linr"  time="-9999999/1" value="0.80000000000000004" leadInLength="0/1"   name="rightClickDuration"/>
           <InterpolatingParam id="185" interp="linr"  time="-9999999/1" value="20" leadInLength="0/1"   name="rightClickSize"/>
           <Parameter id="186"   name="rightClickSoundFilename">
            <Keyframes>
            <Keyframe id="187"  time="-9999999/1" value="" leadInLength="0/1"  />
            </Keyframes>
           </Parameter>
           <InterpolatingParam id="188" interp="linr"  time="-9999999/1" value="1" leadInLength="0/1"   name="rightClickSoundVolume"/>
           <Parameter id="189"   name="rightClickType">
            <Keyframes>
            <Keyframe id="190"  time="-9999999/1" value="0" leadInLength="0/1"  />
            </Keyframes>
           </Parameter>
           </Parameters>
           <MetaData>
            <entry key="effectIndex" val="0"/>
           </MetaData>
          </GenericEffect>
          <GenericEffect id="191" name = "WinCompression" >
           <Parameters>
           <InterpolatingParam id="192" interp="linr"  time="0/1" value="0" leadInLength="0/1"   name="attack"/>
           <InterpolatingParam id="193" interp="linr"  time="0/1" value="9" leadInLength="0/1"   name="gain"/>
           <Parameter id="194"   name="preset">
            <Keyframes>
            <Keyframe id="195"  time="0/1" value="1" leadInLength="0/1"  />
            </Keyframes>
           </Parameter>
           <InterpolatingParam id="196" interp="linr"  time="0/1" value="10" leadInLength="0/1"   name="ratio"/>
           <InterpolatingParam id="197" interp="linr"  time="0/1" value="3500" leadInLength="0/1"   name="release"/>
           <InterpolatingParam id="198" interp="linr"  time="0/1" value="-20" leadInLength="0/1"   name="threshold"/>
           </Parameters>
           <MetaData>
            <entry key="effectIndex" val="1"/>
           </MetaData>
          </GenericEffect>
          <GenericEffect id="199" name = "NoiseReduction" >
           <Parameters>
           <InterpolatingParam id="200" interp="linr"  time="0/1" value="20" leadInLength="0/1"   name="denoiserAmount"/>
           <InterpolatingParam id="201" interp="linr"  time="0/1" value="0" leadInLength="0/1"   name="denoiserThreshold"/>
           <Parameter id="202"   name="noiseProfile">
            <Keyframes>
            <Keyframe id="203"  time="0/1" value="FBAAAAIAAABErAAAAQIAAFTcjMLUbYfC1G+bwlyYo8JMDZ/CyXuewhTQq8IoaK/CDp+1wlLZucJA&#xD;&#xa;DLvC0Ai+wvaZv8JArbvC7PG4wta/uMJcTLvCJiC/wpkJvsJeEr/CCmXCwg5uw8LmDMTCQlLEwqr4&#xD;&#xa;w8JeEMXCNJrJwt84y8Kj9sbCFhnGwh9zycIPN8rCKPbHwu4PxsILp8TC5HfGwoLhyMLNucnCJI3K&#xD;&#xa;whTxzMJED83C5lrMwnPTzsI3otDCutTQwoxu0MKTHNHCWmXSwrdW08L859HCby/Rwm6j0cJzotHC&#xD;&#xa;6n3RwpZe08K6I9PCAlzRwsgu08KupdTC6prUwmx21cIAGdXCr+vTwpwf1cKIYdXCIDTVwlb71cJ0&#xD;&#xa;i9fC4+zWwmxg1MJS1tPCSrrWwtpZ1sJY8tbC3qHWwjIK2MK8XtjCjpPXwtDi18INjNjCjBLXwvjn&#xD;&#xa;1cJ6UNjCMrDZwkR22cL4m9nC1+jZwuej2cIliNnCVA7awo7a2cIJR9nCjD7YwnCb1cKGUdfCggTa&#xD;&#xa;wqK12sJJQ9rCnyPZwm4K2sLYV9rC6FXawkgX28IeUNvCiyfcwuBe2sIo7NnCVpLbwsz828IF69vC&#xD;&#xa;4xnbwkn+28IG4NrCcDbbwu5g28JqgNrCwK/awquA2sI6cNzCqHTdwrzI28KNFNvCyO3awn6l3MK0&#xD;&#xa;ht3CbhncwuOz28IiatvC7+3YwuzB18KLstrCRlHcwqzu2sIK/dnCFmvawk7Q28JC2drCMMXZwvOv&#xD;&#xa;2sKuwNvCvSPcwvTI28KxvtvCL+3bwiVS3MJcB9vCIlPYwge32MJ20trCNbLcwqQa3MKkv9zCoE7d&#xD;&#xa;wq+S3cK0P97C9Qncwn8I28LTOtzC8pjcwrVN3sJ6tN7CS7XcwsAE28L8wNnCKO3ZwhBj28KYmN3C&#xD;&#xa;GNbcwv6x3MLaWt3Cwvvdwg/u3MIkP93CYkHdwkCo3MIu09zCEmfcwpQQ3sIyld7CkjrewooN3sJG&#xD;&#xa;jt7CqqfewpoR3sJhHNzC0vXbwlIz3sJRYd7C8mfdwrCV3cJrMd7CBQDfwqyu3sLbRN3ClgLdwoiN&#xD;&#xa;3cJuN97C3dHewg7Q3cKyhd3C2/rewpfk38JS4d/CIlDfwjrz3cISuN3CGg7fwurh3sIfBd3C4Cbd&#xD;&#xa;wtWO3cJu/t7CYFzgwhAq38Jodd7Cz/7dwlN03sKqHt/CHpnewqm038JyXODCXSjgwtAd38L0KuDC&#xD;&#xa;QoDfwr7Y3cLcvt7C01TewiR23MKr2N3C8ErdwsHx3MJ6Wd7C3JPgwrHA38Joit/C+H7fwrjG38Kd&#xD;&#xa;Wt/CzILfwsYj4cLIoOHCeL7hwnj34sJrguPCSAjjwihX4sKedePCKJzkwnT34sLYc+PCZWvkwlv2&#xD;&#xa;48L+suHC2JLiwkKg4cJlYODCx1niwkEm48J8vOTCtUzkwoSg4sL3kOTCKkjmwkAX58IkqOXC6Jzl&#xD;&#xa;wnd35MLyHuTCMwrmwjjm5cJBFeXC5M3kwiQJ5cJypOTCGpDmwsAI5sIVK+XCwc/jwnSb5MKzhOXC&#xD;&#xa;akXlwhSo4sJD6OHCkWrkwso748IDUeLCXJfkwgel68JWgvXCrnD4wlM9+MKFXffCSIr4wpiL+MJE&#xD;&#xa;GPfCvG/3wvP698LqY/fCHpb4wtis+MLN6vfCvGb4wmSZ+cLm7/nCWNb5wskg+ML4zvjCVpX2wuhx&#xD;&#xa;98JUqvfCh433wj2Z98J+l/fCaH/4wp4G+MKw0vXC6lf3wro1+cJUIvjCbvX2wjZb98ISLvfCqh32&#xD;&#xa;wm5e98Igy/jC5jb2wh5s9sJQn/fCRor2wu7m9cL6MvfCyvD3wiyx98KgOvnCMm/5woxy+cKIzPfC&#xD;&#xa;6OD3wjJG+sJYRvnCRI/4wiIF+MKGTffCUsP4wvy4+cLs0/nC2Nb4wrIr+MICxvjCqG74wn7h98Ja&#xD;&#xa;q/jC0On4wp6J+MJ02PfCuPf3whi0+MKe5/jC6nr4wvEN+MLsm/fCKsb3wsc0+MLqk/jC6JL3wgzf&#xD;&#xa;98KgMfnCVrH5whbn+MJ4TPjCEuv4wkjB+MLaIPjCqMP4wuk9+MJks/fCbJX3wmhg98KA+vbCROH2&#xD;&#xa;wvpO9sKy4vbCM/z3wtSW98L6YffCHiH4wpZC98IwxffCYrn3wthJ+MKIaPfC+sf2wnL+98LbHPjC&#xD;&#xa;LHr5wsfk98JQEvfCjPP3wli9+MJOkvnC1j/5wsiR+cJOj/rCCWH4woWI98KaOfjChhr4wsPW98LF&#xD;&#xa;qPfCBnj4wpPO98LTZvjCaU34wjrB9sJeofbCVLb3wrC1+MKANfnCJvf4wiBq+MIQePjCdK73wlcN&#xD;&#xa;98JkpffCKgX5wg4++sJS6ffClA33wlpw+MLWq/fCZ9v3wvhY+cJs1/rC9Ln5wpL098Je4/fC1GD5&#xD;&#xa;whQ/+MJ0hfbCSWj3wiCC+MIkw/nCxEH7whoT+8L86vnCKgn4wrrs98JgP/jCdi/3wgLO98JlPfjC&#xD;&#xa;bZT3wsR/+MLQGPnC6PT4wu5I+cKw0PnCHJf4wurm98IA2fjCsNr4wriK+MLs3PjCkhr5whCE+cLu&#xD;&#xa;7/jCOpb4wj7q+cLyIvjCA8D1wgtC98KgmPjCFiX2wg6d9cJLJffCIBj3whby98IK5vbCH6f2wrjf&#xD;&#xa;98KyYfjC/L34wmaU98KMUPjC4bf3wihn98JU3ffClV34wvy1+MIaofnCbo75wmIa+MJ9zfbCdEj2&#xD;&#xa;wtCM9sIEpfjC8i/5wmCE+cLAZfnCnLT5wvZ++cLqU/nCniv4wodS9sII7fbC53D2wjY+9sKEdvfC&#xD;&#xa;iH/3wriL98L+3PfCZgcDw5bcjMLkbYfC2G+bwgako8IgD5/CMnuewozjq8Lijq/C3LO1wqLoucIF&#xD;&#xa;OrvCGAy+wp5kv8Lqc7vCrtm4wre+uMI6GLvCa12/wnJIvsLyHb/CInbCwiwAxMIMxMTCkw/Ewhg5&#xD;&#xa;w8LZX8TCbtTIwlYgysJVJcbCCuTFwiLzycKfS8rCqm/Hwk2vxcKa6sTCcIrGwgiIyMJ6BcrCRozK&#xD;&#xa;wsgvzcJotM3C+unMwlglz8LcqdHCPNzSwt6n0cKPktHCDiXTwtkB1ML4UtLCclPRwjLs0cKNJNLC&#xD;&#xa;+u/RwsF808Liv9HCmh/RwpGC0sImwdTCUpPVwjA01sJuctbCShjWwvKC1sLs1dXCbIvUwqnq1cL0&#xD;&#xa;iNfCk8XXwqzz1MI4tNTC8DLYworq1sLiLtXCLNPVwl6J2MJEwNnCkmHawpzk2sJ6YNrCjiPZwjhV&#xD;&#xa;2MJUUtnC8R7awiZP28LU99rCKkvawpob28JyvNvCvAbcwnhM3MIzc9rC3D/XwiwT1cIlkNfCnN3Y&#xD;&#xa;wspA2cKX0dnCFqjZwv5Z2cLCgdnCkp3awkp93MKg6tzCgmjcwqhb2sKbotnCVNfZwvBh28Lyy9rC&#xD;&#xa;UqrZwge92sLKd9vCfuDawtGY3MKZQtvCgBvawkWB28IOK9zCeM3awi2d3MIPT9zCWzLbwsxn28LQ&#xD;&#xa;Cd7Cxt3dwgbT3MJeeNvCyuzZwiY02sJvRtvCMmXcws/v28JME9vCqO/awkPX2sL8ytrCdHrawrRy&#xD;&#xa;2sJUmtvCPGDcwg223MITvNvC+kLcwlzF28ImGNrCqkfZwoDb2sLchNzCwf/dwqSq3cI0+NvCK7La&#xD;&#xa;whyv2sImstvCjDjbwv8l28Iwh9vCIDDawga22sLp8NvCFI3cwkWB3MJUmtvCPfHawvCz2sJ+udvC&#xD;&#xa;W07bwqit2sKq6dvCe5Dcwuw53MJQXd3C6JfcwuMN3cLA2NvCNmzbwn6j3cKsb9/C7ILewlc+3sKP&#xD;&#xa;v93CFx3dwnz13MLMXd3CWI7cwv7V3MLi29vCmPrbwppj3MK6qNzCgNLcwrtJ3cKx+tvC9ZHdwt+U&#xD;&#xa;3sJSvt3C6hHdwu143MIaZ9zCwnHdwj4c3sKP7t7C+lLewjjB3MLKON3CYhjfwjIj3cJus9vCYBbb&#xD;&#xa;wpdN3MI8pt3Cb2fewo3a3sJAH+DCwK7dwjrY3cK4hN7C+qbdwriT3sL6u97C0PPdwh4T3cInCN7C&#xD;&#xa;HJbewphl3cKTHd3C3MXdwugV3MKhGNzCvKrdwhDD3MKEtdzClTrewoAb3cLLsd3ChJrewsDL3sIa&#xD;&#xa;J97C6Kbdwo5R38J8O+HCBmjhwlAM4sKujeLCSNHhwtJD4sL6euPCCATkwm+N4sIm3eLCdkjjwunC&#xD;&#xa;48LRBOLC78riwiAz4cKaG+DCU/fiwmtj5MKSrOTCoMrjwgkd4sLU4+PCok3mwkZA5sI9ruTCJnnk&#xD;&#xa;wqY25MJoluPC1i3mwpgh5sIJjeXCOgnlwlTN5cJ5zuXCRE7mwr1l5MIG9ePCO7Tjwklr5MLkJeXC&#xD;&#xa;DMbkwsCR4cISwODCnMfjwnRG48Kwi+HC1Crkwq6U6sLUofTCfK/4wr5b+MLKc/nCbm74wnok+MLQ&#xD;&#xa;c/fCFkX2wm+798LMnPfCGNn3wkgW+MIyFvjCYur3wgSB98KMrvjCvCT5wooq+sJkqPrCaH75woj2&#xD;&#xa;98LkxPfC4Gb2wgh79sJ87/fCrrv5wmCd+MK2HPfC+jH3wrQA+MJckvfCvjX4wr6I98LxD/fC/n/4&#xD;&#xa;wmya+MKsiPjCUEr4wndl+MKKk/bC69P3wuBA+MJEkPfCyrb4wlpL+cJMO/nC0un3wmDC+MJyK/nC&#xD;&#xa;ZnL4wjUk+MKCK/fCcj33wuAP+MLK0/XCrzT3whiA+MITQPbCFYv1wrS/9sJGuvjCQtr5wvzc+MJr&#xD;&#xa;jvfCFHz4wuoR+cLWL/jCAt74wpgn+cJg3/fCrlP4wnD9+cLS4ffC1ZH3wo78+cKIbPnCgCH4wnD2&#xD;&#xa;+MLc2ffCDuf3wkpD+cJ0QfnCk+H3wqQU98JOXvfCAKn2whRe98LcL/jCfGT4wjAO+cLyM/nClOP3&#xD;&#xa;wtpa98JEcvfC0JT4wrYw+MKUmvjCgUn4wgFY98IkHffC5vH3wjJp+MIo0vjC7GT4wh3s9sL4KfbC&#xD;&#xa;UID4woju+sKwIPvClFn6wqRq+MKExffCM233wsa09sKCufbC3r33woQv+MKaifrCVFX6wg6Z+MID&#xD;&#xa;OfjCfmD4wsLs+MIiN/nCxoX5wnyE+cJQ+PfCnP32wm5Q98Ke9/fCGHP4wmgD+cLyuPfCopT4wj5r&#xD;&#xa;+cKjLPjCmD32wg5J9cL1TffCzNr4wj9n98KiyffCVGD3whVY9cJDYPbCHCX4wv6j+MJklPnCfnL4&#xD;&#xa;wp6Y98LubPfCXLT4wliI+MKWG/jCfsP4wirE+cJU+/jCZpH3wqLg98L42vjC1PX4wlqc+MLmxPjC&#xD;&#xa;mzT3wuaT9sJFtPfCM8P3wsT89sIrpPfCjOn5wgZs+cJgcfjCesz3wtMM9sIoCPfCxBT4wn0d+MI0&#xD;&#xa;U/nCoH75wpA5+cKws/jCAHH3wqrB9sJrgPfCpkP5wkQK+cLD3vbCblH2woLQ98Jew/jCRvP4wtBj&#xD;&#xa;98KwOffCKnb3wuRh98IeNfjCFgb3wrwG+cKEh/nChAn5wnJ99sIkRvbCGI74wtgs+cJQv/fCcF32&#xD;&#xa;whA79sJpsffCXnX4wjIq+cLU1/jC4K/4wijE98JwRvjCABL6whw7+sKct/jCxEf3wtKm9sKed/fC&#xD;&#xa;Gev3wvo098KadPfClycC" leadInLength="0/1"  />
            </Keyframes>
           </Parameter>
           </Parameters>
           <MetaData>
            <entry key="effectIndex" val="2"/>
           </MetaData>
          </GenericEffect>
         </Effects>
         <Attributes>
          <Attribute id="204" value="" name="ident"/>
          <Attribute id="205" value="0" name="mixToMono"/>
         </Attributes>
         <MetaData>
          <entry key="AutoAppliedSmartFocus" val="False"/>
          <entry key="WinSubProjectDisplayName" val=""/>
         </MetaData>
         <ExtraData>
          <Entry key="ZoomPanBin">
           <ZoomPanBin id="206"  >
            <ZoomPanKeyframes>
             <ZoomPanKeyframe id="207" timeRangeEnd="-9999999/1" timeRangeDuration="0/1" interpolaterName=""  />
            </ZoomPanKeyframes>
           </ZoomPanBin>
          </Entry>
          <Entry key="CursorEffectBin">
           <CursorEffectBin id="208"  >
            <CursorEffectKeyframes>
             <CursorEffectKeyframe id="209" timeRangeEnd="-9999999/1" timeRangeDuration="0/1" interpolaterName=""  />
            </CursorEffectKeyframes>
           </CursorEffectBin>
          </Entry>
         </ExtraData>
         <GenericTrack id="210"  >
          <Attributes>
           <Attribute id="211" value="" name="ident"/>
           <Attribute id="212" value="0" name="audioMuted"/>
           <Attribute id="213" value="0" name="videoHidden"/>
          </Attributes>
          <MetaData>
           <entry key="IsLocked" val="False"/>
           <entry key="WinTrackHeight" val="0"/>
          </MetaData>
          <Medias>
           <UnifiedMedia id="214"  >
            <AMFile id="215" start="0" duration="275" scalar="1/1" mediaStart="0/1" mediaDuration="275/1" trackNumber="1" src="5" channelNumber="0,1" >
             <Parameters>
              <InterpolatingParam id="216" interp="linr"  time="0/1" value="1" leadInLength="0/1"  name="volume"/>
              <Parameter id="217"  name="captions"/>
             </Parameters>
             <Attributes>
              <Attribute id="218" value="" name="ident"/>
              <Attribute id="219" value="44100" name="sampleRate"/>
              <Attribute id="220" value="16" name="bitDepth"/>
              <Attribute id="221" value="1" name="gain"/>
              <Attribute id="222" value="0" name="mixToMono"/>
             </Attributes>
            </AMFile>
            <ScreenVMFile id="223" start="0" duration="275" scalar="1/1" mediaStart="0/1" mediaDuration="275/1" trackNumber="0" src="5" >
             <Transformer>
              <VectorParam id="224"  name="translation">
               <InterpolatingParam id="225" interp="linr"  time="-9999999/1" value="0" leadInLength="0/1"  />
               <InterpolatingParam id="226" interp="linr"  time="-9999999/1" value="0" leadInLength="0/1"  />
               <InterpolatingParam id="227" interp="linr"  time="-9999999/1" value="0" leadInLength="0/1"  />
              </VectorParam>
              <VectorParam id="228"  name="rotation">
               <InterpolatingParam id="229" interp="linr"  time="-9999999/1" value="0" leadInLength="0/1"  />
               <InterpolatingParam id="230" interp="linr"  time="-9999999/1" value="0" leadInLength="0/1"  />
               <InterpolatingParam id="231" interp="linr"  time="-9999999/1" value="0" leadInLength="0/1"  />
              </VectorParam>
              <VectorParam id="232"  name="shear">
               <InterpolatingParam id="233" interp="linr"  time="-9999999/1" value="0" leadInLength="0/1"  />
               <InterpolatingParam id="234" interp="linr"  time="-9999999/1" value="0" leadInLength="0/1"  />
               <InterpolatingParam id="235" interp="linr"  time="-9999999/1" value="0" leadInLength="0/1"  />
              </VectorParam>
              <VectorParam id="236"  name="scale">
               <InterpolatingParam id="237" interp="linr"  time="-9999999/1" value="1" leadInLength="0/1"  />
               <InterpolatingParam id="238" interp="linr"  time="-9999999/1" value="1" leadInLength="0/1"  />
               <InterpolatingParam id="239" interp="linr"  time="-9999999/1" value="1" leadInLength="0/1"  />
              </VectorParam>
              <VectorParam id="240"  name="anchor">
               <InterpolatingParam id="241" interp="linr"  time="0/1" value="0" leadInLength="0/1"  />
               <InterpolatingParam id="242" interp="linr"  time="0/1" value="0" leadInLength="0/1"  />
               <InterpolatingParam id="243" interp="linr"  time="0/1" value="0" leadInLength="0/1"  />
              </VectorParam>
             </Transformer>
             <Parameters>
              <VectorParam id="244"  name="sourceCrop">
               <InterpolatingParam id="245" interp="linr"  time="0/1" value="0" leadInLength="0/1"  />
               <InterpolatingParam id="246" interp="linr"  time="0/1" value="0" leadInLength="0/1"  />
               <InterpolatingParam id="247" interp="linr"  time="0/1" value="0" leadInLength="0/1"  />
               <InterpolatingParam id="248" interp="linr"  time="0/1" value="0" leadInLength="0/1"  />
              </VectorParam>
              <VectorParam id="249"  name="geometryCrop">
               <InterpolatingParam id="250" interp="linr"  time="-9999999/1" value="0" leadInLength="0/1"  />
               <InterpolatingParam id="251" interp="linr"  time="-9999999/1" value="0" leadInLength="0/1"  />
               <InterpolatingParam id="252" interp="linr"  time="-9999999/1" value="0" leadInLength="0/1"  />
               <InterpolatingParam id="253" interp="linr"  time="-9999999/1" value="0" leadInLength="0/1"  />
              </VectorParam>
              <InterpolatingParam id="254" interp="linr"  time="-9999999/1" value="1" leadInLength="0/1"  name="opacity"/>
              <InterpolatingParam id="255" interp="linr"  time="0/1" value="0" leadInLength="0/1"  name="cursorOpacity"/>
              <InterpolatingParam id="256" interp="linr"  time="0/1" value="0" leadInLength="0/1"  name="cursorScale"/>
             </Parameters>
             <Attributes>
              <Attribute id="257" value="" name="ident"/>
             </Attributes>
             <ExtraData>
              <Entry key="ZoomPanBin">
               <ZoomPanBin id="258"  >
                <ZoomPanKeyframes>
                 <ZoomPanKeyframe id="259" timeRangeEnd="-9999999/1" timeRangeDuration="0/1" interpolaterName=""  />
                </ZoomPanKeyframes>
               </ZoomPanBin>
              </Entry>
              <Entry key="CursorEffectBin">
               <CursorEffectBin id="260"  >
                <CursorEffectKeyframes>
                </CursorEffectKeyframes>
               </CursorEffectBin>
              </Entry>
             </ExtraData>
            </ScreenVMFile>
            <MetaData>
             <entry key="AutoAppliedSmartFocus" val="False"/>
             <entry key="WinSubProjectDisplayName" val=""/>
            </MetaData>
           </UnifiedMedia>
           <UnifiedMedia id="261"  >
            <AMFile id="262" start="275" duration="133" scalar="1/1" mediaStart="292/1" mediaDuration="133/1" trackNumber="1" src="5" channelNumber="0,1" >
             <Parameters>
              <InterpolatingParam id="263" interp="linr"  time="0/1" value="1" leadInLength="0/1"  name="volume"/>
              <Parameter id="264"  name="captions"/>
             </Parameters>
             <Attributes>
              <Attribute id="265" value="" name="ident"/>
              <Attribute id="266" value="44100" name="sampleRate"/>
              <Attribute id="267" value="16" name="bitDepth"/>
              <Attribute id="268" value="1" name="gain"/>
              <Attribute id="269" value="0" name="mixToMono"/>
             </Attributes>
            </AMFile>
            <ScreenVMFile id="270" start="275" duration="133" scalar="1/1" mediaStart="292/1" mediaDuration="133/1" trackNumber="0" src="5" >
             <Transformer>
              <VectorParam id="271"  name="translation">
               <InterpolatingParam id="272" interp="linr"  time="-9999999/1" value="0" leadInLength="0/1"  />
               <InterpolatingParam id="273" interp="linr"  time="-9999999/1" value="0" leadInLength="0/1"  />
               <InterpolatingParam id="274" interp="linr"  time="-9999999/1" value="0" leadInLength="0/1"  />
              </VectorParam>
              <VectorParam id="275"  name="rotation">
               <InterpolatingParam id="276" interp="linr"  time="-9999999/1" value="0" leadInLength="0/1"  />
               <InterpolatingParam id="277" interp="linr"  time="-9999999/1" value="0" leadInLength="0/1"  />
               <InterpolatingParam id="278" interp="linr"  time="-9999999/1" value="0" leadInLength="0/1"  />
              </VectorParam>
              <VectorParam id="279"  name="shear">
               <InterpolatingParam id="280" interp="linr"  time="-9999999/1" value="0" leadInLength="0/1"  />
               <InterpolatingParam id="281" interp="linr"  time="-9999999/1" value="0" leadInLength="0/1"  />
               <InterpolatingParam id="282" interp="linr"  time="-9999999/1" value="0" leadInLength="0/1"  />
              </VectorParam>
              <VectorParam id="283"  name="scale">
               <InterpolatingParam id="284" interp="linr"  time="-9999999/1" value="1" leadInLength="0/1"  />
               <InterpolatingParam id="285" interp="linr"  time="-9999999/1" value="1" leadInLength="0/1"  />
               <InterpolatingParam id="286" interp="linr"  time="-9999999/1" value="1" leadInLength="0/1"  />
              </VectorParam>
              <VectorParam id="287"  name="anchor">
               <InterpolatingParam id="288" interp="linr"  time="0/1" value="0" leadInLength="0/1"  />
               <InterpolatingParam id="289" interp="linr"  time="0/1" value="0" leadInLength="0/1"  />
               <InterpolatingParam id="290" interp="linr"  time="0/1" value="0" leadInLength="0/1"  />
              </VectorParam>
             </Transformer>
             <Parameters>
              <VectorParam id="291"  name="sourceCrop">
               <InterpolatingParam id="292" interp="linr"  time="0/1" value="0" leadInLength="0/1"  />
               <InterpolatingParam id="293" interp="linr"  time="0/1" value="0" leadInLength="0/1"  />
               <InterpolatingParam id="294" interp="linr"  time="0/1" value="0" leadInLength="0/1"  />
               <InterpolatingParam id="295" interp="linr"  time="0/1" value="0" leadInLength="0/1"  />
              </VectorParam>
              <VectorParam id="296"  name="geometryCrop">
               <InterpolatingParam id="297" interp="linr"  time="-9999999/1" value="0" leadInLength="0/1"  />
               <InterpolatingParam id="298" interp="linr"  time="-9999999/1" value="0" leadInLength="0/1"  />
               <InterpolatingParam id="299" interp="linr"  time="-9999999/1" value="0" leadInLength="0/1"  />
               <InterpolatingParam id="300" interp="linr"  time="-9999999/1" value="0" leadInLength="0/1"  />
              </VectorParam>
              <InterpolatingParam id="301" interp="linr"  time="-9999999/1" value="1" leadInLength="0/1"  name="opacity"/>
              <InterpolatingParam id="302" interp="linr"  time="0/1" value="0" leadInLength="0/1"  name="cursorOpacity"/>
              <InterpolatingParam id="303" interp="linr"  time="0/1" value="0" leadInLength="0/1"  name="cursorScale"/>
             </Parameters>
             <Attributes>
              <Attribute id="304" value="" name="ident"/>
             </Attributes>
             <ExtraData>
              <Entry key="ZoomPanBin">
               <ZoomPanBin id="305"  >
                <ZoomPanKeyframes>
                 <ZoomPanKeyframe id="306" timeRangeEnd="-9999999/1" timeRangeDuration="0/1" interpolaterName=""  />
                </ZoomPanKeyframes>
               </ZoomPanBin>
              </Entry>
              <Entry key="CursorEffectBin">
               <CursorEffectBin id="307"  >
                <CursorEffectKeyframes>
                </CursorEffectKeyframes>
               </CursorEffectBin>
              </Entry>
             </ExtraData>
            </ScreenVMFile>
            <MetaData>
             <entry key="AutoAppliedSmartFocus" val="False"/>
             <entry key="WinSubProjectDisplayName" val=""/>
            </MetaData>
           </UnifiedMedia>
           <UnifiedMedia id="308"  >
            <AMFile id="309" start="408" duration="62" scalar="1/1" mediaStart="437/1" mediaDuration="62/1" trackNumber="1" src="5" channelNumber="0,1" >
             <Parameters>
              <InterpolatingParam id="310" interp="linr"  time="0/1" value="1" leadInLength="0/1"  name="volume"/>
              <Parameter id="311"  name="captions"/>
             </Parameters>
             <Attributes>
              <Attribute id="312" value="" name="ident"/>
              <Attribute id="313" value="44100" name="sampleRate"/>
              <Attribute id="314" value="16" name="bitDepth"/>
              <Attribute id="315" value="1" name="gain"/>
              <Attribute id="316" value="0" name="mixToMono"/>
             </Attributes>
            </AMFile>
            <ScreenVMFile id="317" start="408" duration="62" scalar="1/1" mediaStart="437/1" mediaDuration="62/1" trackNumber="0" src="5" >
             <Transformer>
              <VectorParam id="318"  name="translation">
               <InterpolatingParam id="319" interp="linr"  time="-9999999/1" value="0" leadInLength="0/1"  />
               <InterpolatingParam id="320" interp="linr"  time="-9999999/1" value="0" leadInLength="0/1"  />
               <InterpolatingParam id="321" interp="linr"  time="-9999999/1" value="0" leadInLength="0/1"  />
              </VectorParam>
              <VectorParam id="322"  name="rotation">
               <InterpolatingParam id="323" interp="linr"  time="-9999999/1" value="0" leadInLength="0/1"  />
               <InterpolatingParam id="324" interp="linr"  time="-9999999/1" value="0" leadInLength="0/1"  />
               <InterpolatingParam id="325" interp="linr"  time="-9999999/1" value="0" leadInLength="0/1"  />
              </VectorParam>
              <VectorParam id="326"  name="shear">
               <InterpolatingParam id="327" interp="linr"  time="-9999999/1" value="0" leadInLength="0/1"  />
               <InterpolatingParam id="328" interp="linr"  time="-9999999/1" value="0" leadInLength="0/1"  />
               <InterpolatingParam id="329" interp="linr"  time="-9999999/1" value="0" leadInLength="0/1"  />
              </VectorParam>
              <VectorParam id="330"  name="scale">
               <InterpolatingParam id="331" interp="linr"  time="-9999999/1" value="1" leadInLength="0/1"  />
               <InterpolatingParam id="332" interp="linr"  time="-9999999/1" value="1" leadInLength="0/1"  />
               <InterpolatingParam id="333" interp="linr"  time="-9999999/1" value="1" leadInLength="0/1"  />
              </VectorParam>
              <VectorParam id="334"  name="anchor">
               <InterpolatingParam id="335" interp="linr"  time="0/1" value="0" leadInLength="0/1"  />
               <InterpolatingParam id="336" interp="linr"  time="0/1" value="0" leadInLength="0/1"  />
               <InterpolatingParam id="337" interp="linr"  time="0/1" value="0" leadInLength="0/1"  />
              </VectorParam>
             </Transformer>
             <Parameters>
              <VectorParam id="338"  name="sourceCrop">
               <InterpolatingParam id="339" interp="linr"  time="0/1" value="0" leadInLength="0/1"  />
               <InterpolatingParam id="340" interp="linr"  time="0/1" value="0" leadInLength="0/1"  />
               <InterpolatingParam id="341" interp="linr"  time="0/1" value="0" leadInLength="0/1"  />
               <InterpolatingParam id="342" interp="linr"  time="0/1" value="0" leadInLength="0/1"  />
              </VectorParam>
              <VectorParam id="343"  name="geometryCrop">
               <InterpolatingParam id="344" interp="linr"  time="-9999999/1" value="0" leadInLength="0/1"  />
               <InterpolatingParam id="345" interp="linr"  time="-9999999/1" value="0" leadInLength="0/1"  />
               <InterpolatingParam id="346" interp="linr"  time="-9999999/1" value="0" leadInLength="0/1"  />
               <InterpolatingParam id="347" interp="linr"  time="-9999999/1" value="0" leadInLength="0/1"  />
              </VectorParam>
              <InterpolatingParam id="348" interp="linr"  time="-9999999/1" value="1" leadInLength="0/1"  name="opacity"/>
              <InterpolatingParam id="349" interp="linr"  time="0/1" value="0" leadInLength="0/1"  name="cursorOpacity"/>
              <InterpolatingParam id="350" interp="linr"  time="0/1" value="0" leadInLength="0/1"  name="cursorScale"/>
             </Parameters>
             <Attributes>
              <Attribute id="351" value="" name="ident"/>
             </Attributes>
             <ExtraData>
              <Entry key="ZoomPanBin">
               <ZoomPanBin id="352"  >
                <ZoomPanKeyframes>
                 <ZoomPanKeyframe id="353" timeRangeEnd="-9999999/1" timeRangeDuration="0/1" interpolaterName=""  />
                </ZoomPanKeyframes>
               </ZoomPanBin>
              </Entry>
              <Entry key="CursorEffectBin">
               <CursorEffectBin id="354"  >
                <CursorEffectKeyframes>
                </CursorEffectKeyframes>
               </CursorEffectBin>
              </Entry>
             </ExtraData>
            </ScreenVMFile>
            <MetaData>
             <entry key="AutoAppliedSmartFocus" val="False"/>
             <entry key="WinSubProjectDisplayName" val=""/>
            </MetaData>
           </UnifiedMedia>
           <UnifiedMedia id="355"  >
            <AMFile id="356" start="470" duration="907" scalar="1/1" mediaStart="521/1" mediaDuration="907/1" trackNumber="1" src="5" channelNumber="0,1" >
             <Parameters>
              <InterpolatingParam id="357" interp="linr"  time="0/1" value="1" leadInLength="0/1"  name="volume"/>
              <Parameter id="358"  name="captions"/>
             </Parameters>
             <Attributes>
              <Attribute id="359" value="" name="ident"/>
              <Attribute id="360" value="44100" name="sampleRate"/>
              <Attribute id="361" value="16" name="bitDepth"/>
              <Attribute id="362" value="1" name="gain"/>
              <Attribute id="363" value="0" name="mixToMono"/>
             </Attributes>
            </AMFile>
            <ScreenVMFile id="364" start="470" duration="907" scalar="1/1" mediaStart="521/1" mediaDuration="907/1" trackNumber="0" src="5" >
             <Transformer>
              <VectorParam id="365"  name="translation">
               <InterpolatingParam id="366" interp="linr"  time="-9999999/1" value="0" leadInLength="0/1"  />
               <InterpolatingParam id="367" interp="linr"  time="-9999999/1" value="0" leadInLength="0/1"  />
               <InterpolatingParam id="368" interp="linr"  time="-9999999/1" value="0" leadInLength="0/1"  />
              </VectorParam>
              <VectorParam id="369"  name="rotation">
               <InterpolatingParam id="370" interp="linr"  time="-9999999/1" value="0" leadInLength="0/1"  />
               <InterpolatingParam id="371" interp="linr"  time="-9999999/1" value="0" leadInLength="0/1"  />
               <InterpolatingParam id="372" interp="linr"  time="-9999999/1" value="0" leadInLength="0/1"  />
              </VectorParam>
              <VectorParam id="373"  name="shear">
               <InterpolatingParam id="374" interp="linr"  time="-9999999/1" value="0" leadInLength="0/1"  />
               <InterpolatingParam id="375" interp="linr"  time="-9999999/1" value="0" leadInLength="0/1"  />
               <InterpolatingParam id="376" interp="linr"  time="-9999999/1" value="0" leadInLength="0/1"  />
              </VectorParam>
              <VectorParam id="377"  name="scale">
               <InterpolatingParam id="378" interp="linr"  time="-9999999/1" value="1" leadInLength="0/1"  />
               <InterpolatingParam id="379" interp="linr"  time="-9999999/1" value="1" leadInLength="0/1"  />
               <InterpolatingParam id="380" interp="linr"  time="-9999999/1" value="1" leadInLength="0/1"  />
              </VectorParam>
              <VectorParam id="381"  name="anchor">
               <InterpolatingParam id="382" interp="linr"  time="0/1" value="0" leadInLength="0/1"  />
               <InterpolatingParam id="383" interp="linr"  time="0/1" value="0" leadInLength="0/1"  />
               <InterpolatingParam id="384" interp="linr"  time="0/1" value="0" leadInLength="0/1"  />
              </VectorParam>
             </Transformer>
             <Parameters>
              <VectorParam id="385"  name="sourceCrop">
               <InterpolatingParam id="386" interp="linr"  time="0/1" value="0" leadInLength="0/1"  />
               <InterpolatingParam id="387" interp="linr"  time="0/1" value="0" leadInLength="0/1"  />
               <InterpolatingParam id="388" interp="linr"  time="0/1" value="0" leadInLength="0/1"  />
               <InterpolatingParam id="389" interp="linr"  time="0/1" value="0" leadInLength="0/1"  />
              </VectorParam>
              <VectorParam id="390"  name="geometryCrop">
               <InterpolatingParam id="391" interp="linr"  time="-9999999/1" value="0" leadInLength="0/1"  />
               <InterpolatingParam id="392" interp="linr"  time="-9999999/1" value="0" leadInLength="0/1"  />
               <InterpolatingParam id="393" interp="linr"  time="-9999999/1" value="0" leadInLength="0/1"  />
               <InterpolatingParam id="394" interp="linr"  time="-9999999/1" value="0" leadInLength="0/1"  />
              </VectorParam>
              <InterpolatingParam id="395" interp="linr"  time="-9999999/1" value="1" leadInLength="0/1"  name="opacity"/>
              <InterpolatingParam id="396" interp="linr"  time="0/1" value="0" leadInLength="0/1"  name="cursorOpacity"/>
              <InterpolatingParam id="397" interp="linr"  time="0/1" value="0" leadInLength="0/1"  name="cursorScale"/>
             </Parameters>
             <Attributes>
              <Attribute id="398" value="" name="ident"/>
             </Attributes>
             <ExtraData>
              <Entry key="ZoomPanBin">
               <ZoomPanBin id="399"  >
                <ZoomPanKeyframes>
                 <ZoomPanKeyframe id="400" timeRangeEnd="-9999999/1" timeRangeDuration="0/1" interpolaterName=""  />
                </ZoomPanKeyframes>
               </ZoomPanBin>
              </Entry>
              <Entry key="CursorEffectBin">
               <CursorEffectBin id="401"  >
                <CursorEffectKeyframes>
                </CursorEffectKeyframes>
               </CursorEffectBin>
              </Entry>
             </ExtraData>
            </ScreenVMFile>
            <MetaData>
             <entry key="AutoAppliedSmartFocus" val="False"/>
             <entry key="WinSubProjectDisplayName" val=""/>
            </MetaData>
           </UnifiedMedia>
           <UnifiedMedia id="402"  >
            <AMFile id="403" start="1377" duration="53" scalar="1/1" mediaStart="1442/1" mediaDuration="53/1" trackNumber="1" src="5" channelNumber="0,1" >
             <Parameters>
              <InterpolatingParam id="404" interp="linr"  time="0/1" value="1" leadInLength="0/1"  name="volume"/>
              <Parameter id="405"  name="captions"/>
             </Parameters>
             <Attributes>
              <Attribute id="406" value="" name="ident"/>
              <Attribute id="407" value="44100" name="sampleRate"/>
              <Attribute id="408" value="16" name="bitDepth"/>
              <Attribute id="409" value="1" name="gain"/>
              <Attribute id="410" value="0" name="mixToMono"/>
             </Attributes>
            </AMFile>
            <ScreenVMFile id="411" start="1377" duration="53" scalar="1/1" mediaStart="1442/1" mediaDuration="53/1" trackNumber="0" src="5" >
             <Transformer>
              <VectorParam id="412"  name="translation">
               <InterpolatingParam id="413" interp="linr"  time="-9999999/1" value="0" leadInLength="0/1"  />
               <InterpolatingParam id="414" interp="linr"  time="-9999999/1" value="0" leadInLength="0/1"  />
               <InterpolatingParam id="415" interp="linr"  time="-9999999/1" value="0" leadInLength="0/1"  />
              </VectorParam>
              <VectorParam id="416"  name="rotation">
               <InterpolatingParam id="417" interp="linr"  time="-9999999/1" value="0" leadInLength="0/1"  />
               <InterpolatingParam id="418" interp="linr"  time="-9999999/1" value="0" leadInLength="0/1"  />
               <InterpolatingParam id="419" interp="linr"  time="-9999999/1" value="0" leadInLength="0/1"  />
              </VectorParam>
              <VectorParam id="420"  name="shear">
               <InterpolatingParam id="421" interp="linr"  time="-9999999/1" value="0" leadInLength="0/1"  />
               <InterpolatingParam id="422" interp="linr"  time="-9999999/1" value="0" leadInLength="0/1"  />
               <InterpolatingParam id="423" interp="linr"  time="-9999999/1" value="0" leadInLength="0/1"  />
              </VectorParam>
              <VectorParam id="424"  name="scale">
               <InterpolatingParam id="425" interp="linr"  time="-9999999/1" value="1" leadInLength="0/1"  />
               <InterpolatingParam id="426" interp="linr"  time="-9999999/1" value="1" leadInLength="0/1"  />
               <InterpolatingParam id="427" interp="linr"  time="-9999999/1" value="1" leadInLength="0/1"  />
              </VectorParam>
              <VectorParam id="428"  name="anchor">
               <InterpolatingParam id="429" interp="linr"  time="0/1" value="0" leadInLength="0/1"  />
               <InterpolatingParam id="430" interp="linr"  time="0/1" value="0" leadInLength="0/1"  />
               <InterpolatingParam id="431" interp="linr"  time="0/1" value="0" leadInLength="0/1"  />
              </VectorParam>
             </Transformer>
             <Parameters>
              <VectorParam id="432"  name="sourceCrop">
               <InterpolatingParam id="433" interp="linr"  time="0/1" value="0" leadInLength="0/1"  />
               <InterpolatingParam id="434" interp="linr"  time="0/1" value="0" leadInLength="0/1"  />
               <InterpolatingParam id="435" interp="linr"  time="0/1" value="0" leadInLength="0/1"  />
               <InterpolatingParam id="436" interp="linr"  time="0/1" value="0" leadInLength="0/1"  />
              </VectorParam>
              <VectorParam id="437"  name="geometryCrop">
               <InterpolatingParam id="438" interp="linr"  time="-9999999/1" value="0" leadInLength="0/1"  />
               <InterpolatingParam id="439" interp="linr"  time="-9999999/1" value="0" leadInLength="0/1"  />
               <InterpolatingParam id="440" interp="linr"  time="-9999999/1" value="0" leadInLength="0/1"  />
               <InterpolatingParam id="441" interp="linr"  time="-9999999/1" value="0" leadInLength="0/1"  />
              </VectorParam>
              <InterpolatingParam id="442" interp="linr"  time="-9999999/1" value="1" leadInLength="0/1"  name="opacity"/>
              <InterpolatingParam id="443" interp="linr"  time="0/1" value="0" leadInLength="0/1"  name="cursorOpacity"/>
              <InterpolatingParam id="444" interp="linr"  time="0/1" value="0" leadInLength="0/1"  name="cursorScale"/>
             </Parameters>
             <Attributes>
              <Attribute id="445" value="" name="ident"/>
             </Attributes>
             <ExtraData>
              <Entry key="ZoomPanBin">
               <ZoomPanBin id="446"  >
                <ZoomPanKeyframes>
                 <ZoomPanKeyframe id="447" timeRangeEnd="-9999999/1" timeRangeDuration="0/1" interpolaterName=""  />
                </ZoomPanKeyframes>
               </ZoomPanBin>
              </Entry>
              <Entry key="CursorEffectBin">
               <CursorEffectBin id="448"  >
                <CursorEffectKeyframes>
                </CursorEffectKeyframes>
               </CursorEffectBin>
              </Entry>
             </ExtraData>
            </ScreenVMFile>
            <MetaData>
             <entry key="AutoAppliedSmartFocus" val="False"/>
             <entry key="WinSubProjectDisplayName" val=""/>
            </MetaData>
           </UnifiedMedia>
           <UnifiedMedia id="449"  >
            <AMFile id="450" start="1430" duration="50" scalar="1/1" mediaStart="1510/1" mediaDuration="50/1" trackNumber="1" src="5" channelNumber="0,1" >
             <Parameters>
              <InterpolatingParam id="451" interp="linr"  time="0/1" value="1" leadInLength="0/1"  name="volume"/>
              <Parameter id="452"  name="captions"/>
             </Parameters>
             <Attributes>
              <Attribute id="453" value="" name="ident"/>
              <Attribute id="454" value="44100" name="sampleRate"/>
              <Attribute id="455" value="16" name="bitDepth"/>
              <Attribute id="456" value="1" name="gain"/>
              <Attribute id="457" value="0" name="mixToMono"/>
             </Attributes>
            </AMFile>
            <ScreenVMFile id="458" start="1430" duration="50" scalar="1/1" mediaStart="1510/1" mediaDuration="50/1" trackNumber="0" src="5" >
             <Transformer>
              <VectorParam id="459"  name="translation">
               <InterpolatingParam id="460" interp="linr"  time="-9999999/1" value="0" leadInLength="0/1"  />
               <InterpolatingParam id="461" interp="linr"  time="-9999999/1" value="0" leadInLength="0/1"  />
               <InterpolatingParam id="462" interp="linr"  time="-9999999/1" value="0" leadInLength="0/1"  />
              </VectorParam>
              <VectorParam id="463"  name="rotation">
               <InterpolatingParam id="464" interp="linr"  time="-9999999/1" value="0" leadInLength="0/1"  />
               <InterpolatingParam id="465" interp="linr"  time="-9999999/1" value="0" leadInLength="0/1"  />
               <InterpolatingParam id="466" interp="linr"  time="-9999999/1" value="0" leadInLength="0/1"  />
              </VectorParam>
              <VectorParam id="467"  name="shear">
               <InterpolatingParam id="468" interp="linr"  time="-9999999/1" value="0" leadInLength="0/1"  />
               <InterpolatingParam id="469" interp="linr"  time="-9999999/1" value="0" leadInLength="0/1"  />
               <InterpolatingParam id="470" interp="linr"  time="-9999999/1" value="0" leadInLength="0/1"  />
              </VectorParam>
              <VectorParam id="471"  name="scale">
               <InterpolatingParam id="472" interp="linr"  time="-9999999/1" value="1" leadInLength="0/1"  />
               <InterpolatingParam id="473" interp="linr"  time="-9999999/1" value="1" leadInLength="0/1"  />
               <InterpolatingParam id="474" interp="linr"  time="-9999999/1" value="1" leadInLength="0/1"  />
              </VectorParam>
              <VectorParam id="475"  name="anchor">
               <InterpolatingParam id="476" interp="linr"  time="0/1" value="0" leadInLength="0/1"  />
               <InterpolatingParam id="477" interp="linr"  time="0/1" value="0" leadInLength="0/1"  />
               <InterpolatingParam id="478" interp="linr"  time="0/1" value="0" leadInLength="0/1"  />
              </VectorParam>
             </Transformer>
             <Parameters>
              <VectorParam id="479"  name="sourceCrop">
               <InterpolatingParam id="480" interp="linr"  time="0/1" value="0" leadInLength="0/1"  />
               <InterpolatingParam id="481" interp="linr"  time="0/1" value="0" leadInLength="0/1"  />
               <InterpolatingParam id="482" interp="linr"  time="0/1" value="0" leadInLength="0/1"  />
               <InterpolatingParam id="483" interp="linr"  time="0/1" value="0" leadInLength="0/1"  />
              </VectorParam>
              <VectorParam id="484"  name="geometryCrop">
               <InterpolatingParam id="485" interp="linr"  time="-9999999/1" value="0" leadInLength="0/1"  />
               <InterpolatingParam id="486" interp="linr"  time="-9999999/1" value="0" leadInLength="0/1"  />
               <InterpolatingParam id="487" interp="linr"  time="-9999999/1" value="0" leadInLength="0/1"  />
               <InterpolatingParam id="488" interp="linr"  time="-9999999/1" value="0" leadInLength="0/1"  />
              </VectorParam>
              <InterpolatingParam id="489" interp="linr"  time="-9999999/1" value="1" leadInLength="0/1"  name="opacity"/>
              <InterpolatingParam id="490" interp="linr"  time="0/1" value="0" leadInLength="0/1"  name="cursorOpacity"/>
              <InterpolatingParam id="491" interp="linr"  time="0/1" value="0" leadInLength="0/1"  name="cursorScale"/>
             </Parameters>
             <Attributes>
              <Attribute id="492" value="" name="ident"/>
             </Attributes>
             <ExtraData>
              <Entry key="ZoomPanBin">
               <ZoomPanBin id="493"  >
                <ZoomPanKeyframes>
                 <ZoomPanKeyframe id="494" timeRangeEnd="-9999999/1" timeRangeDuration="0/1" interpolaterName=""  />
                </ZoomPanKeyframes>
               </ZoomPanBin>
              </Entry>
              <Entry key="CursorEffectBin">
               <CursorEffectBin id="495"  >
                <CursorEffectKeyframes>
                </CursorEffectKeyframes>
               </CursorEffectBin>
              </Entry>
             </ExtraData>
            </ScreenVMFile>
            <MetaData>
             <entry key="AutoAppliedSmartFocus" val="False"/>
             <entry key="WinSubProjectDisplayName" val=""/>
            </MetaData>
           </UnifiedMedia>
           <UnifiedMedia id="496"  >
            <AMFile id="497" start="1480" duration="307" scalar="1/1" mediaStart="1571/1" mediaDuration="307/1" trackNumber="1" src="5" channelNumber="0,1" >
             <Parameters>
              <InterpolatingParam id="498" interp="linr"  time="0/1" value="1" leadInLength="0/1"  name="volume"/>
              <Parameter id="499"  name="captions"/>
             </Parameters>
             <Attributes>
              <Attribute id="500" value="" name="ident"/>
              <Attribute id="501" value="44100" name="sampleRate"/>
              <Attribute id="502" value="16" name="bitDepth"/>
              <Attribute id="503" value="1" name="gain"/>
              <Attribute id="504" value="0" name="mixToMono"/>
             </Attributes>
            </AMFile>
            <ScreenVMFile id="505" start="1480" duration="307" scalar="1/1" mediaStart="1571/1" mediaDuration="307/1" trackNumber="0" src="5" >
             <Transformer>
              <VectorParam id="506"  name="translation">
               <InterpolatingParam id="507" interp="linr"  time="-9999999/1" value="0" leadInLength="0/1"  />
               <InterpolatingParam id="508" interp="linr"  time="-9999999/1" value="0" leadInLength="0/1"  />
               <InterpolatingParam id="509" interp="linr"  time="-9999999/1" value="0" leadInLength="0/1"  />
              </VectorParam>
              <VectorParam id="510"  name="rotation">
               <InterpolatingParam id="511" interp="linr"  time="-9999999/1" value="0" leadInLength="0/1"  />
               <InterpolatingParam id="512" interp="linr"  time="-9999999/1" value="0" leadInLength="0/1"  />
               <InterpolatingParam id="513" interp="linr"  time="-9999999/1" value="0" leadInLength="0/1"  />
              </VectorParam>
              <VectorParam id="514"  name="shear">
               <InterpolatingParam id="515" interp="linr"  time="-9999999/1" value="0" leadInLength="0/1"  />
               <InterpolatingParam id="516" interp="linr"  time="-9999999/1" value="0" leadInLength="0/1"  />
               <InterpolatingParam id="517" interp="linr"  time="-9999999/1" value="0" leadInLength="0/1"  />
              </VectorParam>
              <VectorParam id="518"  name="scale">
               <InterpolatingParam id="519" interp="linr"  time="-9999999/1" value="1" leadInLength="0/1"  />
               <InterpolatingParam id="520" interp="linr"  time="-9999999/1" value="1" leadInLength="0/1"  />
               <InterpolatingParam id="521" interp="linr"  time="-9999999/1" value="1" leadInLength="0/1"  />
              </VectorParam>
              <VectorParam id="522"  name="anchor">
               <InterpolatingParam id="523" interp="linr"  time="0/1" value="0" leadInLength="0/1"  />
               <InterpolatingParam id="524" interp="linr"  time="0/1" value="0" leadInLength="0/1"  />
               <InterpolatingParam id="525" interp="linr"  time="0/1" value="0" leadInLength="0/1"  />
              </VectorParam>
             </Transformer>
             <Parameters>
              <VectorParam id="526"  name="sourceCrop">
               <InterpolatingParam id="527" interp="linr"  time="0/1" value="0" leadInLength="0/1"  />
               <InterpolatingParam id="528" interp="linr"  time="0/1" value="0" leadInLength="0/1"  />
               <InterpolatingParam id="529" interp="linr"  time="0/1" value="0" leadInLength="0/1"  />
               <InterpolatingParam id="530" interp="linr"  time="0/1" value="0" leadInLength="0/1"  />
              </VectorParam>
              <VectorParam id="531"  name="geometryCrop">
               <InterpolatingParam id="532" interp="linr"  time="-9999999/1" value="0" leadInLength="0/1"  />
               <InterpolatingParam id="533" interp="linr"  time="-9999999/1" value="0" leadInLength="0/1"  />
               <InterpolatingParam id="534" interp="linr"  time="-9999999/1" value="0" leadInLength="0/1"  />
               <InterpolatingParam id="535" interp="linr"  time="-9999999/1" value="0" leadInLength="0/1"  />
              </VectorParam>
              <InterpolatingParam id="536" interp="linr"  time="-9999999/1" value="1" leadInLength="0/1"  name="opacity"/>
              <InterpolatingParam id="537" interp="linr"  time="0/1" value="0" leadInLength="0/1"  name="cursorOpacity"/>
              <InterpolatingParam id="538" interp="linr"  time="0/1" value="0" leadInLength="0/1"  name="cursorScale"/>
             </Parameters>
             <Attributes>
              <Attribute id="539" value="" name="ident"/>
             </Attributes>
             <ExtraData>
              <Entry key="ZoomPanBin">
               <ZoomPanBin id="540"  >
                <ZoomPanKeyframes>
                 <ZoomPanKeyframe id="541" timeRangeEnd="-9999999/1" timeRangeDuration="0/1" interpolaterName=""  />
                </ZoomPanKeyframes>
               </ZoomPanBin>
              </Entry>
              <Entry key="CursorEffectBin">
               <CursorEffectBin id="542"  >
                <CursorEffectKeyframes>
                </CursorEffectKeyframes>
               </CursorEffectBin>
              </Entry>
             </ExtraData>
            </ScreenVMFile>
            <MetaData>
             <entry key="AutoAppliedSmartFocus" val="False"/>
             <entry key="WinSubProjectDisplayName" val=""/>
            </MetaData>
           </UnifiedMedia>
           <UnifiedMedia id="543"  >
            <AMFile id="544" start="1787" duration="281" scalar="1/1" mediaStart="2094/1" mediaDuration="281/1" trackNumber="1" src="5" channelNumber="0,1" >
             <Parameters>
              <InterpolatingParam id="545" interp="linr"  time="0/1" value="1" leadInLength="0/1"  name="volume"/>
              <Parameter id="546"  name="captions"/>
             </Parameters>
             <Attributes>
              <Attribute id="547" value="" name="ident"/>
              <Attribute id="548" value="44100" name="sampleRate"/>
              <Attribute id="549" value="16" name="bitDepth"/>
              <Attribute id="550" value="1" name="gain"/>
              <Attribute id="551" value="0" name="mixToMono"/>
             </Attributes>
            </AMFile>
            <ScreenVMFile id="552" start="1787" duration="281" scalar="1/1" mediaStart="2094/1" mediaDuration="281/1" trackNumber="0" src="5" >
             <Transformer>
              <VectorParam id="553"  name="translation">
               <InterpolatingParam id="554" interp="linr"  time="-9999999/1" value="0" leadInLength="0/1"  />
               <InterpolatingParam id="555" interp="linr"  time="-9999999/1" value="0" leadInLength="0/1"  />
               <InterpolatingParam id="556" interp="linr"  time="-9999999/1" value="0" leadInLength="0/1"  />
              </VectorParam>
              <VectorParam id="557"  name="rotation">
               <InterpolatingParam id="558" interp="linr"  time="-9999999/1" value="0" leadInLength="0/1"  />
               <InterpolatingParam id="559" interp="linr"  time="-9999999/1" value="0" leadInLength="0/1"  />
               <InterpolatingParam id="560" interp="linr"  time="-9999999/1" value="0" leadInLength="0/1"  />
              </VectorParam>
              <VectorParam id="561"  name="shear">
               <InterpolatingParam id="562" interp="linr"  time="-9999999/1" value="0" leadInLength="0/1"  />
               <InterpolatingParam id="563" interp="linr"  time="-9999999/1" value="0" leadInLength="0/1"  />
               <InterpolatingParam id="564" interp="linr"  time="-9999999/1" value="0" leadInLength="0/1"  />
              </VectorParam>
              <VectorParam id="565"  name="scale">
               <InterpolatingParam id="566" interp="linr"  time="-9999999/1" value="1" leadInLength="0/1"  />
               <InterpolatingParam id="567" interp="linr"  time="-9999999/1" value="1" leadInLength="0/1"  />
               <InterpolatingParam id="568" interp="linr"  time="-9999999/1" value="1" leadInLength="0/1"  />
              </VectorParam>
              <VectorParam id="569"  name="anchor">
               <InterpolatingParam id="570" interp="linr"  time="0/1" value="0" leadInLength="0/1"  />
               <InterpolatingParam id="571" interp="linr"  time="0/1" value="0" leadInLength="0/1"  />
               <InterpolatingParam id="572" interp="linr"  time="0/1" value="0" leadInLength="0/1"  />
              </VectorParam>
             </Transformer>
             <Parameters>
              <VectorParam id="573"  name="sourceCrop">
               <InterpolatingParam id="574" interp="linr"  time="0/1" value="0" leadInLength="0/1"  />
               <InterpolatingParam id="575" interp="linr"  time="0/1" value="0" leadInLength="0/1"  />
               <InterpolatingParam id="576" interp="linr"  time="0/1" value="0" leadInLength="0/1"  />
               <InterpolatingParam id="577" interp="linr"  time="0/1" value="0" leadInLength="0/1"  />
              </VectorParam>
              <VectorParam id="578"  name="geometryCrop">
               <InterpolatingParam id="579" interp="linr"  time="-9999999/1" value="0" leadInLength="0/1"  />
               <InterpolatingParam id="580" interp="linr"  time="-9999999/1" value="0" leadInLength="0/1"  />
               <InterpolatingParam id="581" interp="linr"  time="-9999999/1" value="0" leadInLength="0/1"  />
               <InterpolatingParam id="582" interp="linr"  time="-9999999/1" value="0" leadInLength="0/1"  />
              </VectorParam>
              <InterpolatingParam id="583" interp="linr"  time="-9999999/1" value="1" leadInLength="0/1"  name="opacity"/>
              <InterpolatingParam id="584" interp="linr"  time="0/1" value="0" leadInLength="0/1"  name="cursorOpacity"/>
              <InterpolatingParam id="585" interp="linr"  time="0/1" value="0" leadInLength="0/1"  name="cursorScale"/>
             </Parameters>
             <Attributes>
              <Attribute id="586" value="" name="ident"/>
             </Attributes>
             <ExtraData>
              <Entry key="ZoomPanBin">
               <ZoomPanBin id="587"  >
                <ZoomPanKeyframes>
                 <ZoomPanKeyframe id="588" timeRangeEnd="-9999999/1" timeRangeDuration="0/1" interpolaterName=""  />
                </ZoomPanKeyframes>
               </ZoomPanBin>
              </Entry>
              <Entry key="CursorEffectBin">
               <CursorEffectBin id="589"  >
                <CursorEffectKeyframes>
                </CursorEffectKeyframes>
               </CursorEffectBin>
              </Entry>
             </ExtraData>
            </ScreenVMFile>
            <MetaData>
             <entry key="AutoAppliedSmartFocus" val="False"/>
             <entry key="WinSubProjectDisplayName" val=""/>
            </MetaData>
           </UnifiedMedia>
           <UnifiedMedia id="590"  >
            <AMFile id="591" start="2068" duration="605" scalar="1/1" mediaStart="2396/1" mediaDuration="605/1" trackNumber="1" src="5" channelNumber="0,1" >
             <Parameters>
              <InterpolatingParam id="592" interp="linr"  time="0/1" value="1" leadInLength="0/1"  name="volume"/>
              <Parameter id="593"  name="captions"/>
             </Parameters>
             <Attributes>
              <Attribute id="594" value="" name="ident"/>
              <Attribute id="595" value="44100" name="sampleRate"/>
              <Attribute id="596" value="16" name="bitDepth"/>
              <Attribute id="597" value="1" name="gain"/>
              <Attribute id="598" value="0" name="mixToMono"/>
             </Attributes>
            </AMFile>
            <ScreenVMFile id="599" start="2068" duration="605" scalar="1/1" mediaStart="2396/1" mediaDuration="605/1" trackNumber="0" src="5" >
             <Transformer>
              <VectorParam id="600"  name="translation">
               <InterpolatingParam id="601" interp="linr"  time="-9999999/1" value="0" leadInLength="0/1"  />
               <InterpolatingParam id="602" interp="linr"  time="-9999999/1" value="0" leadInLength="0/1"  />
               <InterpolatingParam id="603" interp="linr"  time="-9999999/1" value="0" leadInLength="0/1"  />
              </VectorParam>
              <VectorParam id="604"  name="rotation">
               <InterpolatingParam id="605" interp="linr"  time="-9999999/1" value="0" leadInLength="0/1"  />
               <InterpolatingParam id="606" interp="linr"  time="-9999999/1" value="0" leadInLength="0/1"  />
               <InterpolatingParam id="607" interp="linr"  time="-9999999/1" value="0" leadInLength="0/1"  />
              </VectorParam>
              <VectorParam id="608"  name="shear">
               <InterpolatingParam id="609" interp="linr"  time="-9999999/1" value="0" leadInLength="0/1"  />
               <InterpolatingParam id="610" interp="linr"  time="-9999999/1" value="0" leadInLength="0/1"  />
               <InterpolatingParam id="611" interp="linr"  time="-9999999/1" value="0" leadInLength="0/1"  />
              </VectorParam>
              <VectorParam id="612"  name="scale">
               <InterpolatingParam id="613" interp="linr"  time="-9999999/1" value="1" leadInLength="0/1"  />
               <InterpolatingParam id="614" interp="linr"  time="-9999999/1" value="1" leadInLength="0/1"  />
               <InterpolatingParam id="615" interp="linr"  time="-9999999/1" value="1" leadInLength="0/1"  />
              </VectorParam>
              <VectorParam id="616"  name="anchor">
               <InterpolatingParam id="617" interp="linr"  time="0/1" value="0" leadInLength="0/1"  />
               <InterpolatingParam id="618" interp="linr"  time="0/1" value="0" leadInLength="0/1"  />
               <InterpolatingParam id="619" interp="linr"  time="0/1" value="0" leadInLength="0/1"  />
              </VectorParam>
             </Transformer>
             <Parameters>
              <VectorParam id="620"  name="sourceCrop">
               <InterpolatingParam id="621" interp="linr"  time="0/1" value="0" leadInLength="0/1"  />
               <InterpolatingParam id="622" interp="linr"  time="0/1" value="0" leadInLength="0/1"  />
               <InterpolatingParam id="623" interp="linr"  time="0/1" value="0" leadInLength="0/1"  />
               <InterpolatingParam id="624" interp="linr"  time="0/1" value="0" leadInLength="0/1"  />
              </VectorParam>
              <VectorParam id="625"  name="geometryCrop">
               <InterpolatingParam id="626" interp="linr"  time="-9999999/1" value="0" leadInLength="0/1"  />
               <InterpolatingParam id="627" interp="linr"  time="-9999999/1" value="0" leadInLength="0/1"  />
               <InterpolatingParam id="628" interp="linr"  time="-9999999/1" value="0" leadInLength="0/1"  />
               <InterpolatingParam id="629" interp="linr"  time="-9999999/1" value="0" leadInLength="0/1"  />
              </VectorParam>
              <InterpolatingParam id="630" interp="linr"  time="-9999999/1" value="1" leadInLength="0/1"  name="opacity"/>
              <InterpolatingParam id="631" interp="linr"  time="0/1" value="0" leadInLength="0/1"  name="cursorOpacity"/>
              <InterpolatingParam id="632" interp="linr"  time="0/1" value="0" leadInLength="0/1"  name="cursorScale"/>
             </Parameters>
             <Attributes>
              <Attribute id="633" value="" name="ident"/>
             </Attributes>
             <ExtraData>
              <Entry key="ZoomPanBin">
               <ZoomPanBin id="634"  >
                <ZoomPanKeyframes>
                 <ZoomPanKeyframe id="635" timeRangeEnd="-9999999/1" timeRangeDuration="0/1" interpolaterName=""  />
                </ZoomPanKeyframes>
               </ZoomPanBin>
              </Entry>
              <Entry key="CursorEffectBin">
               <CursorEffectBin id="636"  >
                <CursorEffectKeyframes>
                </CursorEffectKeyframes>
               </CursorEffectBin>
              </Entry>
             </ExtraData>
            </ScreenVMFile>
            <MetaData>
             <entry key="AutoAppliedSmartFocus" val="False"/>
             <entry key="WinSubProjectDisplayName" val=""/>
            </MetaData>
           </UnifiedMedia>
           <UnifiedMedia id="637"  >
            <AMFile id="638" start="2673" duration="201" scalar="1/1" mediaStart="3014/1" mediaDuration="201/1" trackNumber="1" src="5" channelNumber="0,1" >
             <Parameters>
              <InterpolatingParam id="639" interp="linr"  time="0/1" value="1" leadInLength="0/1"  name="volume"/>
              <Parameter id="640"  name="captions"/>
             </Parameters>
             <Attributes>
              <Attribute id="641" value="" name="ident"/>
              <Attribute id="642" value="44100" name="sampleRate"/>
              <Attribute id="643" value="16" name="bitDepth"/>
              <Attribute id="644" value="1" name="gain"/>
              <Attribute id="645" value="0" name="mixToMono"/>
             </Attributes>
            </AMFile>
            <ScreenVMFile id="646" start="2673" duration="201" scalar="1/1" mediaStart="3014/1" mediaDuration="201/1" trackNumber="0" src="5" >
             <Transformer>
              <VectorParam id="647"  name="translation">
               <InterpolatingParam id="648" interp="linr"  time="-9999999/1" value="0" leadInLength="0/1"  />
               <InterpolatingParam id="649" interp="linr"  time="-9999999/1" value="0" leadInLength="0/1"  />
               <InterpolatingParam id="650" interp="linr"  time="-9999999/1" value="0" leadInLength="0/1"  />
              </VectorParam>
              <VectorParam id="651"  name="rotation">
               <InterpolatingParam id="652" interp="linr"  time="-9999999/1" value="0" leadInLength="0/1"  />
               <InterpolatingParam id="653" interp="linr"  time="-9999999/1" value="0" leadInLength="0/1"  />
               <InterpolatingParam id="654" interp="linr"  time="-9999999/1" value="0" leadInLength="0/1"  />
              </VectorParam>
              <VectorParam id="655"  name="shear">
               <InterpolatingParam id="656" interp="linr"  time="-9999999/1" value="0" leadInLength="0/1"  />
               <InterpolatingParam id="657" interp="linr"  time="-9999999/1" value="0" leadInLength="0/1"  />
               <InterpolatingParam id="658" interp="linr"  time="-9999999/1" value="0" leadInLength="0/1"  />
              </VectorParam>
              <VectorParam id="659"  name="scale">
               <InterpolatingParam id="660" interp="linr"  time="-9999999/1" value="1" leadInLength="0/1"  />
               <InterpolatingParam id="661" interp="linr"  time="-9999999/1" value="1" leadInLength="0/1"  />
               <InterpolatingParam id="662" interp="linr"  time="-9999999/1" value="1" leadInLength="0/1"  />
              </VectorParam>
              <VectorParam id="663"  name="anchor">
               <InterpolatingParam id="664" interp="linr"  time="0/1" value="0" leadInLength="0/1"  />
               <InterpolatingParam id="665" interp="linr"  time="0/1" value="0" leadInLength="0/1"  />
               <InterpolatingParam id="666" interp="linr"  time="0/1" value="0" leadInLength="0/1"  />
              </VectorParam>
             </Transformer>
             <Parameters>
              <VectorParam id="667"  name="sourceCrop">
               <InterpolatingParam id="668" interp="linr"  time="0/1" value="0" leadInLength="0/1"  />
               <InterpolatingParam id="669" interp="linr"  time="0/1" value="0" leadInLength="0/1"  />
               <InterpolatingParam id="670" interp="linr"  time="0/1" value="0" leadInLength="0/1"  />
               <InterpolatingParam id="671" interp="linr"  time="0/1" value="0" leadInLength="0/1"  />
              </VectorParam>
              <VectorParam id="672"  name="geometryCrop">
               <InterpolatingParam id="673" interp="linr"  time="-9999999/1" value="0" leadInLength="0/1"  />
               <InterpolatingParam id="674" interp="linr"  time="-9999999/1" value="0" leadInLength="0/1"  />
               <InterpolatingParam id="675" interp="linr"  time="-9999999/1" value="0" leadInLength="0/1"  />
               <InterpolatingParam id="676" interp="linr"  time="-9999999/1" value="0" leadInLength="0/1"  />
              </VectorParam>
              <InterpolatingParam id="677" interp="linr"  time="-9999999/1" value="1" leadInLength="0/1"  name="opacity"/>
              <InterpolatingParam id="678" interp="linr"  time="0/1" value="0" leadInLength="0/1"  name="cursorOpacity"/>
              <InterpolatingParam id="679" interp="linr"  time="0/1" value="0" leadInLength="0/1"  name="cursorScale"/>
             </Parameters>
             <Attributes>
              <Attribute id="680" value="" name="ident"/>
             </Attributes>
             <ExtraData>
              <Entry key="ZoomPanBin">
               <ZoomPanBin id="681"  >
                <ZoomPanKeyframes>
                 <ZoomPanKeyframe id="682" timeRangeEnd="-9999999/1" timeRangeDuration="0/1" interpolaterName=""  />
                </ZoomPanKeyframes>
               </ZoomPanBin>
              </Entry>
              <Entry key="CursorEffectBin">
               <CursorEffectBin id="683"  >
                <CursorEffectKeyframes>
                </CursorEffectKeyframes>
               </CursorEffectBin>
              </Entry>
             </ExtraData>
            </ScreenVMFile>
            <MetaData>
             <entry key="AutoAppliedSmartFocus" val="False"/>
             <entry key="WinSubProjectDisplayName" val=""/>
            </MetaData>
           </UnifiedMedia>
           <UnifiedMedia id="684"  >
            <AMFile id="685" start="2874" duration="145" scalar="1/1" mediaStart="3230/1" mediaDuration="145/1" trackNumber="1" src="5" channelNumber="0,1" >
             <Parameters>
              <InterpolatingParam id="686" interp="linr"  time="0/1" value="1" leadInLength="0/1"  name="volume"/>
              <Parameter id="687"  name="captions"/>
             </Parameters>
             <Attributes>
              <Attribute id="688" value="" name="ident"/>
              <Attribute id="689" value="44100" name="sampleRate"/>
              <Attribute id="690" value="16" name="bitDepth"/>
              <Attribute id="691" value="1" name="gain"/>
              <Attribute id="692" value="0" name="mixToMono"/>
             </Attributes>
            </AMFile>
            <ScreenVMFile id="693" start="2874" duration="145" scalar="1/1" mediaStart="3230/1" mediaDuration="145/1" trackNumber="0" src="5" >
             <Transformer>
              <VectorParam id="694"  name="translation">
               <InterpolatingParam id="695" interp="linr"  time="-9999999/1" value="0" leadInLength="0/1"  />
               <InterpolatingParam id="696" interp="linr"  time="-9999999/1" value="0" leadInLength="0/1"  />
               <InterpolatingParam id="697" interp="linr"  time="-9999999/1" value="0" leadInLength="0/1"  />
              </VectorParam>
              <VectorParam id="698"  name="rotation">
               <InterpolatingParam id="699" interp="linr"  time="-9999999/1" value="0" leadInLength="0/1"  />
               <InterpolatingParam id="700" interp="linr"  time="-9999999/1" value="0" leadInLength="0/1"  />
               <InterpolatingParam id="701" interp="linr"  time="-9999999/1" value="0" leadInLength="0/1"  />
              </VectorParam>
              <VectorParam id="702"  name="shear">
               <InterpolatingParam id="703" interp="linr"  time="-9999999/1" value="0" leadInLength="0/1"  />
               <InterpolatingParam id="704" interp="linr"  time="-9999999/1" value="0" leadInLength="0/1"  />
               <InterpolatingParam id="705" interp="linr"  time="-9999999/1" value="0" leadInLength="0/1"  />
              </VectorParam>
              <VectorParam id="706"  name="scale">
               <InterpolatingParam id="707" interp="linr"  time="-9999999/1" value="1" leadInLength="0/1"  />
               <InterpolatingParam id="708" interp="linr"  time="-9999999/1" value="1" leadInLength="0/1"  />
               <InterpolatingParam id="709" interp="linr"  time="-9999999/1" value="1" leadInLength="0/1"  />
              </VectorParam>
              <VectorParam id="710"  name="anchor">
               <InterpolatingParam id="711" interp="linr"  time="0/1" value="0" leadInLength="0/1"  />
               <InterpolatingParam id="712" interp="linr"  time="0/1" value="0" leadInLength="0/1"  />
               <InterpolatingParam id="713" interp="linr"  time="0/1" value="0" leadInLength="0/1"  />
              </VectorParam>
             </Transformer>
             <Parameters>
              <VectorParam id="714"  name="sourceCrop">
               <InterpolatingParam id="715" interp="linr"  time="0/1" value="0" leadInLength="0/1"  />
               <InterpolatingParam id="716" interp="linr"  time="0/1" value="0" leadInLength="0/1"  />
               <InterpolatingParam id="717" interp="linr"  time="0/1" value="0" leadInLength="0/1"  />
               <InterpolatingParam id="718" interp="linr"  time="0/1" value="0" leadInLength="0/1"  />
              </VectorParam>
              <VectorParam id="719"  name="geometryCrop">
               <InterpolatingParam id="720" interp="linr"  time="-9999999/1" value="0" leadInLength="0/1"  />
               <InterpolatingParam id="721" interp="linr"  time="-9999999/1" value="0" leadInLength="0/1"  />
               <InterpolatingParam id="722" interp="linr"  time="-9999999/1" value="0" leadInLength="0/1"  />
               <InterpolatingParam id="723" interp="linr"  time="-9999999/1" value="0" leadInLength="0/1"  />
              </VectorParam>
              <InterpolatingParam id="724" interp="linr"  time="-9999999/1" value="1" leadInLength="0/1"  name="opacity"/>
              <InterpolatingParam id="725" interp="linr"  time="0/1" value="0" leadInLength="0/1"  name="cursorOpacity"/>
              <InterpolatingParam id="726" interp="linr"  time="0/1" value="0" leadInLength="0/1"  name="cursorScale"/>
             </Parameters>
             <Attributes>
              <Attribute id="727" value="" name="ident"/>
             </Attributes>
             <ExtraData>
              <Entry key="ZoomPanBin">
               <ZoomPanBin id="728"  >
                <ZoomPanKeyframes>
                 <ZoomPanKeyframe id="729" timeRangeEnd="-9999999/1" timeRangeDuration="0/1" interpolaterName=""  />
                </ZoomPanKeyframes>
               </ZoomPanBin>
              </Entry>
              <Entry key="CursorEffectBin">
               <CursorEffectBin id="730"  >
                <CursorEffectKeyframes>
                </CursorEffectKeyframes>
               </CursorEffectBin>
              </Entry>
             </ExtraData>
            </ScreenVMFile>
            <MetaData>
             <entry key="AutoAppliedSmartFocus" val="False"/>
             <entry key="WinSubProjectDisplayName" val=""/>
            </MetaData>
           </UnifiedMedia>
           <UnifiedMedia id="731"  >
            <AMFile id="732" start="3019" duration="114" scalar="1/1" mediaStart="3384/1" mediaDuration="114/1" trackNumber="1" src="5" channelNumber="0,1" >
             <Parameters>
              <InterpolatingParam id="733" interp="linr"  time="0/1" value="1" leadInLength="0/1"  name="volume"/>
              <Parameter id="734"  name="captions"/>
             </Parameters>
             <Attributes>
              <Attribute id="735" value="" name="ident"/>
              <Attribute id="736" value="44100" name="sampleRate"/>
              <Attribute id="737" value="16" name="bitDepth"/>
              <Attribute id="738" value="1" name="gain"/>
              <Attribute id="739" value="0" name="mixToMono"/>
             </Attributes>
            </AMFile>
            <ScreenVMFile id="740" start="3019" duration="114" scalar="1/1" mediaStart="3384/1" mediaDuration="114/1" trackNumber="0" src="5" >
             <Transformer>
              <VectorParam id="741"  name="translation">
               <InterpolatingParam id="742" interp="linr"  time="-9999999/1" value="0" leadInLength="0/1"  />
               <InterpolatingParam id="743" interp="linr"  time="-9999999/1" value="0" leadInLength="0/1"  />
               <InterpolatingParam id="744" interp="linr"  time="-9999999/1" value="0" leadInLength="0/1"  />
              </VectorParam>
              <VectorParam id="745"  name="rotation">
               <InterpolatingParam id="746" interp="linr"  time="-9999999/1" value="0" leadInLength="0/1"  />
               <InterpolatingParam id="747" interp="linr"  time="-9999999/1" value="0" leadInLength="0/1"  />
               <InterpolatingParam id="748" interp="linr"  time="-9999999/1" value="0" leadInLength="0/1"  />
              </VectorParam>
              <VectorParam id="749"  name="shear">
               <InterpolatingParam id="750" interp="linr"  time="-9999999/1" value="0" leadInLength="0/1"  />
               <InterpolatingParam id="751" interp="linr"  time="-9999999/1" value="0" leadInLength="0/1"  />
               <InterpolatingParam id="752" interp="linr"  time="-9999999/1" value="0" leadInLength="0/1"  />
              </VectorParam>
              <VectorParam id="753"  name="scale">
               <InterpolatingParam id="754" interp="linr"  time="-9999999/1" value="1" leadInLength="0/1"  />
               <InterpolatingParam id="755" interp="linr"  time="-9999999/1" value="1" leadInLength="0/1"  />
               <InterpolatingParam id="756" interp="linr"  time="-9999999/1" value="1" leadInLength="0/1"  />
              </VectorParam>
              <VectorParam id="757"  name="anchor">
               <InterpolatingParam id="758" interp="linr"  time="0/1" value="0" leadInLength="0/1"  />
               <InterpolatingParam id="759" interp="linr"  time="0/1" value="0" leadInLength="0/1"  />
               <InterpolatingParam id="760" interp="linr"  time="0/1" value="0" leadInLength="0/1"  />
              </VectorParam>
             </Transformer>
             <Parameters>
              <VectorParam id="761"  name="sourceCrop">
               <InterpolatingParam id="762" interp="linr"  time="0/1" value="0" leadInLength="0/1"  />
               <InterpolatingParam id="763" interp="linr"  time="0/1" value="0" leadInLength="0/1"  />
               <InterpolatingParam id="764" interp="linr"  time="0/1" value="0" leadInLength="0/1"  />
               <InterpolatingParam id="765" interp="linr"  time="0/1" value="0" leadInLength="0/1"  />
              </VectorParam>
              <VectorParam id="766"  name="geometryCrop">
               <InterpolatingParam id="767" interp="linr"  time="-9999999/1" value="0" leadInLength="0/1"  />
               <InterpolatingParam id="768" interp="linr"  time="-9999999/1" value="0" leadInLength="0/1"  />
               <InterpolatingParam id="769" interp="linr"  time="-9999999/1" value="0" leadInLength="0/1"  />
               <InterpolatingParam id="770" interp="linr"  time="-9999999/1" value="0" leadInLength="0/1"  />
              </VectorParam>
              <InterpolatingParam id="771" interp="linr"  time="-9999999/1" value="1" leadInLength="0/1"  name="opacity"/>
              <InterpolatingParam id="772" interp="linr"  time="0/1" value="0" leadInLength="0/1"  name="cursorOpacity"/>
              <InterpolatingParam id="773" interp="linr"  time="0/1" value="0" leadInLength="0/1"  name="cursorScale"/>
             </Parameters>
             <Attributes>
              <Attribute id="774" value="" name="ident"/>
             </Attributes>
             <ExtraData>
              <Entry key="ZoomPanBin">
               <ZoomPanBin id="775"  >
                <ZoomPanKeyframes>
                 <ZoomPanKeyframe id="776" timeRangeEnd="-9999999/1" timeRangeDuration="0/1" interpolaterName=""  />
                </ZoomPanKeyframes>
               </ZoomPanBin>
              </Entry>
              <Entry key="CursorEffectBin">
               <CursorEffectBin id="777"  >
                <CursorEffectKeyframes>
                </CursorEffectKeyframes>
               </CursorEffectBin>
              </Entry>
             </ExtraData>
            </ScreenVMFile>
            <MetaData>
             <entry key="AutoAppliedSmartFocus" val="False"/>
             <entry key="WinSubProjectDisplayName" val=""/>
            </MetaData>
           </UnifiedMedia>
           <UnifiedMedia id="778"  >
            <AMFile id="779" start="3133" duration="88" scalar="1/1" mediaStart="3512/1" mediaDuration="88/1" trackNumber="1" src="5" channelNumber="0,1" >
             <Parameters>
              <InterpolatingParam id="780" interp="linr"  time="0/1" value="1" leadInLength="0/1"  name="volume"/>
              <Parameter id="781"  name="captions"/>
             </Parameters>
             <Attributes>
              <Attribute id="782" value="" name="ident"/>
              <Attribute id="783" value="44100" name="sampleRate"/>
              <Attribute id="784" value="16" name="bitDepth"/>
              <Attribute id="785" value="1" name="gain"/>
              <Attribute id="786" value="0" name="mixToMono"/>
             </Attributes>
            </AMFile>
            <ScreenVMFile id="787" start="3133" duration="88" scalar="1/1" mediaStart="3512/1" mediaDuration="88/1" trackNumber="0" src="5" >
             <Transformer>
              <VectorParam id="788"  name="translation">
               <InterpolatingParam id="789" interp="linr"  time="-9999999/1" value="0" leadInLength="0/1"  />
               <InterpolatingParam id="790" interp="linr"  time="-9999999/1" value="0" leadInLength="0/1"  />
               <InterpolatingParam id="791" interp="linr"  time="-9999999/1" value="0" leadInLength="0/1"  />
              </VectorParam>
              <VectorParam id="792"  name="rotation">
               <InterpolatingParam id="793" interp="linr"  time="-9999999/1" value="0" leadInLength="0/1"  />
               <InterpolatingParam id="794" interp="linr"  time="-9999999/1" value="0" leadInLength="0/1"  />
               <InterpolatingParam id="795" interp="linr"  time="-9999999/1" value="0" leadInLength="0/1"  />
              </VectorParam>
              <VectorParam id="796"  name="shear">
               <InterpolatingParam id="797" interp="linr"  time="-9999999/1" value="0" leadInLength="0/1"  />
               <InterpolatingParam id="798" interp="linr"  time="-9999999/1" value="0" leadInLength="0/1"  />
               <InterpolatingParam id="799" interp="linr"  time="-9999999/1" value="0" leadInLength="0/1"  />
              </VectorParam>
              <VectorParam id="800"  name="scale">
               <InterpolatingParam id="801" interp="linr"  time="-9999999/1" value="1" leadInLength="0/1"  />
               <InterpolatingParam id="802" interp="linr"  time="-9999999/1" value="1" leadInLength="0/1"  />
               <InterpolatingParam id="803" interp="linr"  time="-9999999/1" value="1" leadInLength="0/1"  />
              </VectorParam>
              <VectorParam id="804"  name="anchor">
               <InterpolatingParam id="805" interp="linr"  time="0/1" value="0" leadInLength="0/1"  />
               <InterpolatingParam id="806" interp="linr"  time="0/1" value="0" leadInLength="0/1"  />
               <InterpolatingParam id="807" interp="linr"  time="0/1" value="0" leadInLength="0/1"  />
              </VectorParam>
             </Transformer>
             <Parameters>
              <VectorParam id="808"  name="sourceCrop">
               <InterpolatingParam id="809" interp="linr"  time="0/1" value="0" leadInLength="0/1"  />
               <InterpolatingParam id="810" interp="linr"  time="0/1" value="0" leadInLength="0/1"  />
               <InterpolatingParam id="811" interp="linr"  time="0/1" value="0" leadInLength="0/1"  />
               <InterpolatingParam id="812" interp="linr"  time="0/1" value="0" leadInLength="0/1"  />
              </VectorParam>
              <VectorParam id="813"  name="geometryCrop">
               <InterpolatingParam id="814" interp="linr"  time="-9999999/1" value="0" leadInLength="0/1"  />
               <InterpolatingParam id="815" interp="linr"  time="-9999999/1" value="0" leadInLength="0/1"  />
               <InterpolatingParam id="816" interp="linr"  time="-9999999/1" value="0" leadInLength="0/1"  />
               <InterpolatingParam id="817" interp="linr"  time="-9999999/1" value="0" leadInLength="0/1"  />
              </VectorParam>
              <InterpolatingParam id="818" interp="linr"  time="-9999999/1" value="1" leadInLength="0/1"  name="opacity"/>
              <InterpolatingParam id="819" interp="linr"  time="0/1" value="0" leadInLength="0/1"  name="cursorOpacity"/>
              <InterpolatingParam id="820" interp="linr"  time="0/1" value="0" leadInLength="0/1"  name="cursorScale"/>
             </Parameters>
             <Attributes>
              <Attribute id="821" value="" name="ident"/>
             </Attributes>
             <ExtraData>
              <Entry key="ZoomPanBin">
               <ZoomPanBin id="822"  >
                <ZoomPanKeyframes>
                 <ZoomPanKeyframe id="823" timeRangeEnd="-9999999/1" timeRangeDuration="0/1" interpolaterName=""  />
                </ZoomPanKeyframes>
               </ZoomPanBin>
              </Entry>
              <Entry key="CursorEffectBin">
               <CursorEffectBin id="824"  >
                <CursorEffectKeyframes>
                </CursorEffectKeyframes>
               </CursorEffectBin>
              </Entry>
             </ExtraData>
            </ScreenVMFile>
            <MetaData>
             <entry key="AutoAppliedSmartFocus" val="False"/>
             <entry key="WinSubProjectDisplayName" val=""/>
            </MetaData>
           </UnifiedMedia>
           <UnifiedMedia id="825"  >
            <AMFile id="826" start="3221" duration="531" scalar="1/1" mediaStart="3898/1" mediaDuration="531/1" trackNumber="1" src="5" channelNumber="0,1" >
             <Parameters>
              <InterpolatingParam id="827" interp="linr"  time="0/1" value="1" leadInLength="0/1"  name="volume"/>
              <Parameter id="828"  name="captions"/>
             </Parameters>
             <Attributes>
              <Attribute id="829" value="" name="ident"/>
              <Attribute id="830" value="44100" name="sampleRate"/>
              <Attribute id="831" value="16" name="bitDepth"/>
              <Attribute id="832" value="1" name="gain"/>
              <Attribute id="833" value="0" name="mixToMono"/>
             </Attributes>
            </AMFile>
            <ScreenVMFile id="834" start="3221" duration="531" scalar="1/1" mediaStart="3898/1" mediaDuration="531/1" trackNumber="0" src="5" >
             <Transformer>
              <VectorParam id="835"  name="translation">
               <InterpolatingParam id="836" interp="linr"  time="-9999999/1" value="0" leadInLength="0/1"  />
               <InterpolatingParam id="837" interp="linr"  time="-9999999/1" value="0" leadInLength="0/1"  />
               <InterpolatingParam id="838" interp="linr"  time="-9999999/1" value="0" leadInLength="0/1"  />
              </VectorParam>
              <VectorParam id="839"  name="rotation">
               <InterpolatingParam id="840" interp="linr"  time="-9999999/1" value="0" leadInLength="0/1"  />
               <InterpolatingParam id="841" interp="linr"  time="-9999999/1" value="0" leadInLength="0/1"  />
               <InterpolatingParam id="842" interp="linr"  time="-9999999/1" value="0" leadInLength="0/1"  />
              </VectorParam>
              <VectorParam id="843"  name="shear">
               <InterpolatingParam id="844" interp="linr"  time="-9999999/1" value="0" leadInLength="0/1"  />
               <InterpolatingParam id="845" interp="linr"  time="-9999999/1" value="0" leadInLength="0/1"  />
               <InterpolatingParam id="846" interp="linr"  time="-9999999/1" value="0" leadInLength="0/1"  />
              </VectorParam>
              <VectorParam id="847"  name="scale">
               <InterpolatingParam id="848" interp="linr"  time="-9999999/1" value="1" leadInLength="0/1"  />
               <InterpolatingParam id="849" interp="linr"  time="-9999999/1" value="1" leadInLength="0/1"  />
               <InterpolatingParam id="850" interp="linr"  time="-9999999/1" value="1" leadInLength="0/1"  />
              </VectorParam>
              <VectorParam id="851"  name="anchor">
               <InterpolatingParam id="852" interp="linr"  time="0/1" value="0" leadInLength="0/1"  />
               <InterpolatingParam id="853" interp="linr"  time="0/1" value="0" leadInLength="0/1"  />
               <InterpolatingParam id="854" interp="linr"  time="0/1" value="0" leadInLength="0/1"  />
              </VectorParam>
             </Transformer>
             <Parameters>
              <VectorParam id="855"  name="sourceCrop">
               <InterpolatingParam id="856" interp="linr"  time="0/1" value="0" leadInLength="0/1"  />
               <InterpolatingParam id="857" interp="linr"  time="0/1" value="0" leadInLength="0/1"  />
               <InterpolatingParam id="858" interp="linr"  time="0/1" value="0" leadInLength="0/1"  />
               <InterpolatingParam id="859" interp="linr"  time="0/1" value="0" leadInLength="0/1"  />
              </VectorParam>
              <VectorParam id="860"  name="geometryCrop">
               <InterpolatingParam id="861" interp="linr"  time="-9999999/1" value="0" leadInLength="0/1"  />
               <InterpolatingParam id="862" interp="linr"  time="-9999999/1" value="0" leadInLength="0/1"  />
               <InterpolatingParam id="863" interp="linr"  time="-9999999/1" value="0" leadInLength="0/1"  />
               <InterpolatingParam id="864" interp="linr"  time="-9999999/1" value="0" leadInLength="0/1"  />
              </VectorParam>
              <InterpolatingParam id="865" interp="linr"  time="-9999999/1" value="1" leadInLength="0/1"  name="opacity"/>
              <InterpolatingParam id="866" interp="linr"  time="0/1" value="0" leadInLength="0/1"  name="cursorOpacity"/>
              <InterpolatingParam id="867" interp="linr"  time="0/1" value="0" leadInLength="0/1"  name="cursorScale"/>
             </Parameters>
             <Attributes>
              <Attribute id="868" value="" name="ident"/>
             </Attributes>
             <ExtraData>
              <Entry key="ZoomPanBin">
               <ZoomPanBin id="869"  >
                <ZoomPanKeyframes>
                 <ZoomPanKeyframe id="870" timeRangeEnd="-9999999/1" timeRangeDuration="0/1" interpolaterName=""  />
                </ZoomPanKeyframes>
               </ZoomPanBin>
              </Entry>
              <Entry key="CursorEffectBin">
               <CursorEffectBin id="871"  >
                <CursorEffectKeyframes>
                </CursorEffectKeyframes>
               </CursorEffectBin>
              </Entry>
             </ExtraData>
            </ScreenVMFile>
            <MetaData>
             <entry key="AutoAppliedSmartFocus" val="False"/>
             <entry key="WinSubProjectDisplayName" val=""/>
            </MetaData>
           </UnifiedMedia>
           <UnifiedMedia id="872"  >
            <AMFile id="873" start="3752" duration="119" scalar="1/1" mediaStart="4959/1" mediaDuration="119/1" trackNumber="1" src="5" channelNumber="0,1" >
             <Parameters>
              <InterpolatingParam id="874" interp="linr"  time="0/1" value="1" leadInLength="0/1"  name="volume"/>
              <Parameter id="875"  name="captions"/>
             </Parameters>
             <Attributes>
              <Attribute id="876" value="" name="ident"/>
              <Attribute id="877" value="44100" name="sampleRate"/>
              <Attribute id="878" value="16" name="bitDepth"/>
              <Attribute id="879" value="1" name="gain"/>
              <Attribute id="880" value="0" name="mixToMono"/>
             </Attributes>
            </AMFile>
            <ScreenVMFile id="881" start="3752" duration="119" scalar="1/1" mediaStart="4959/1" mediaDuration="119/1" trackNumber="0" src="5" >
             <Transformer>
              <VectorParam id="882"  name="translation">
               <InterpolatingParam id="883" interp="linr"  time="-9999999/1" value="0" leadInLength="0/1"  />
               <InterpolatingParam id="884" interp="linr"  time="-9999999/1" value="0" leadInLength="0/1"  />
               <InterpolatingParam id="885" interp="linr"  time="-9999999/1" value="0" leadInLength="0/1"  />
              </VectorParam>
              <VectorParam id="886"  name="rotation">
               <InterpolatingParam id="887" interp="linr"  time="-9999999/1" value="0" leadInLength="0/1"  />
               <InterpolatingParam id="888" interp="linr"  time="-9999999/1" value="0" leadInLength="0/1"  />
               <InterpolatingParam id="889" interp="linr"  time="-9999999/1" value="0" leadInLength="0/1"  />
              </VectorParam>
              <VectorParam id="890"  name="shear">
               <InterpolatingParam id="891" interp="linr"  time="-9999999/1" value="0" leadInLength="0/1"  />
               <InterpolatingParam id="892" interp="linr"  time="-9999999/1" value="0" leadInLength="0/1"  />
               <InterpolatingParam id="893" interp="linr"  time="-9999999/1" value="0" leadInLength="0/1"  />
              </VectorParam>
              <VectorParam id="894"  name="scale">
               <InterpolatingParam id="895" interp="linr"  time="-9999999/1" value="1" leadInLength="0/1"  />
               <InterpolatingParam id="896" interp="linr"  time="-9999999/1" value="1" leadInLength="0/1"  />
               <InterpolatingParam id="897" interp="linr"  time="-9999999/1" value="1" leadInLength="0/1"  />
              </VectorParam>
              <VectorParam id="898"  name="anchor">
               <InterpolatingParam id="899" interp="linr"  time="0/1" value="0" leadInLength="0/1"  />
               <InterpolatingParam id="900" interp="linr"  time="0/1" value="0" leadInLength="0/1"  />
               <InterpolatingParam id="901" interp="linr"  time="0/1" value="0" leadInLength="0/1"  />
              </VectorParam>
             </Transformer>
             <Parameters>
              <VectorParam id="902"  name="sourceCrop">
               <InterpolatingParam id="903" interp="linr"  time="0/1" value="0" leadInLength="0/1"  />
               <InterpolatingParam id="904" interp="linr"  time="0/1" value="0" leadInLength="0/1"  />
               <InterpolatingParam id="905" interp="linr"  time="0/1" value="0" leadInLength="0/1"  />
               <InterpolatingParam id="906" interp="linr"  time="0/1" value="0" leadInLength="0/1"  />
              </VectorParam>
              <VectorParam id="907"  name="geometryCrop">
               <InterpolatingParam id="908" interp="linr"  time="-9999999/1" value="0" leadInLength="0/1"  />
               <InterpolatingParam id="909" interp="linr"  time="-9999999/1" value="0" leadInLength="0/1"  />
               <InterpolatingParam id="910" interp="linr"  time="-9999999/1" value="0" leadInLength="0/1"  />
               <InterpolatingParam id="911" interp="linr"  time="-9999999/1" value="0" leadInLength="0/1"  />
              </VectorParam>
              <InterpolatingParam id="912" interp="linr"  time="-9999999/1" value="1" leadInLength="0/1"  name="opacity"/>
              <InterpolatingParam id="913" interp="linr"  time="0/1" value="0" leadInLength="0/1"  name="cursorOpacity"/>
              <InterpolatingParam id="914" interp="linr"  time="0/1" value="0" leadInLength="0/1"  name="cursorScale"/>
             </Parameters>
             <Attributes>
              <Attribute id="915" value="" name="ident"/>
             </Attributes>
             <ExtraData>
              <Entry key="ZoomPanBin">
               <ZoomPanBin id="916"  >
                <ZoomPanKeyframes>
                 <ZoomPanKeyframe id="917" timeRangeEnd="-9999999/1" timeRangeDuration="0/1" interpolaterName=""  />
                </ZoomPanKeyframes>
               </ZoomPanBin>
              </Entry>
              <Entry key="CursorEffectBin">
               <CursorEffectBin id="918"  >
                <CursorEffectKeyframes>
                </CursorEffectKeyframes>
               </CursorEffectBin>
              </Entry>
             </ExtraData>
            </ScreenVMFile>
            <MetaData>
             <entry key="AutoAppliedSmartFocus" val="False"/>
             <entry key="WinSubProjectDisplayName" val=""/>
            </MetaData>
           </UnifiedMedia>
           <UnifiedMedia id="919"  >
            <AMFile id="920" start="3871" duration="321" scalar="1/1" mediaStart="5093/1" mediaDuration="321/1" trackNumber="1" src="5" channelNumber="0,1" >
             <Parameters>
              <InterpolatingParam id="921" interp="linr"  time="0/1" value="1" leadInLength="0/1"  name="volume"/>
              <Parameter id="922"  name="captions"/>
             </Parameters>
             <Attributes>
              <Attribute id="923" value="" name="ident"/>
              <Attribute id="924" value="44100" name="sampleRate"/>
              <Attribute id="925" value="16" name="bitDepth"/>
              <Attribute id="926" value="1" name="gain"/>
              <Attribute id="927" value="0" name="mixToMono"/>
             </Attributes>
            </AMFile>
            <ScreenVMFile id="928" start="3871" duration="321" scalar="1/1" mediaStart="5093/1" mediaDuration="321/1" trackNumber="0" src="5" >
             <Transformer>
              <VectorParam id="929"  name="translation">
               <InterpolatingParam id="930" interp="linr"  time="-9999999/1" value="0" leadInLength="0/1"  />
               <InterpolatingParam id="931" interp="linr"  time="-9999999/1" value="0" leadInLength="0/1"  />
               <InterpolatingParam id="932" interp="linr"  time="-9999999/1" value="0" leadInLength="0/1"  />
              </VectorParam>
              <VectorParam id="933"  name="rotation">
               <InterpolatingParam id="934" interp="linr"  time="-9999999/1" value="0" leadInLength="0/1"  />
               <InterpolatingParam id="935" interp="linr"  time="-9999999/1" value="0" leadInLength="0/1"  />
               <InterpolatingParam id="936" interp="linr"  time="-9999999/1" value="0" leadInLength="0/1"  />
              </VectorParam>
              <VectorParam id="937"  name="shear">
               <InterpolatingParam id="938" interp="linr"  time="-9999999/1" value="0" leadInLength="0/1"  />
               <InterpolatingParam id="939" interp="linr"  time="-9999999/1" value="0" leadInLength="0/1"  />
               <InterpolatingParam id="940" interp="linr"  time="-9999999/1" value="0" leadInLength="0/1"  />
              </VectorParam>
              <VectorParam id="941"  name="scale">
               <InterpolatingParam id="942" interp="linr"  time="-9999999/1" value="1" leadInLength="0/1"  />
               <InterpolatingParam id="943" interp="linr"  time="-9999999/1" value="1" leadInLength="0/1"  />
               <InterpolatingParam id="944" interp="linr"  time="-9999999/1" value="1" leadInLength="0/1"  />
              </VectorParam>
              <VectorParam id="945"  name="anchor">
               <InterpolatingParam id="946" interp="linr"  time="0/1" value="0" leadInLength="0/1"  />
               <InterpolatingParam id="947" interp="linr"  time="0/1" value="0" leadInLength="0/1"  />
               <InterpolatingParam id="948" interp="linr"  time="0/1" value="0" leadInLength="0/1"  />
              </VectorParam>
             </Transformer>
             <Parameters>
              <VectorParam id="949"  name="sourceCrop">
               <InterpolatingParam id="950" interp="linr"  time="0/1" value="0" leadInLength="0/1"  />
               <InterpolatingParam id="951" interp="linr"  time="0/1" value="0" leadInLength="0/1"  />
               <InterpolatingParam id="952" interp="linr"  time="0/1" value="0" leadInLength="0/1"  />
               <InterpolatingParam id="953" interp="linr"  time="0/1" value="0" leadInLength="0/1"  />
              </VectorParam>
              <VectorParam id="954"  name="geometryCrop">
               <InterpolatingParam id="955" interp="linr"  time="-9999999/1" value="0" leadInLength="0/1"  />
               <InterpolatingParam id="956" interp="linr"  time="-9999999/1" value="0" leadInLength="0/1"  />
               <InterpolatingParam id="957" interp="linr"  time="-9999999/1" value="0" leadInLength="0/1"  />
               <InterpolatingParam id="958" interp="linr"  time="-9999999/1" value="0" leadInLength="0/1"  />
              </VectorParam>
              <InterpolatingParam id="959" interp="linr"  time="-9999999/1" value="1" leadInLength="0/1"  name="opacity"/>
              <InterpolatingParam id="960" interp="linr"  time="0/1" value="0" leadInLength="0/1"  name="cursorOpacity"/>
              <InterpolatingParam id="961" interp="linr"  time="0/1" value="0" leadInLength="0/1"  name="cursorScale"/>
             </Parameters>
             <Attributes>
              <Attribute id="962" value="" name="ident"/>
             </Attributes>
             <ExtraData>
              <Entry key="ZoomPanBin">
               <ZoomPanBin id="963"  >
                <ZoomPanKeyframes>
                 <ZoomPanKeyframe id="964" timeRangeEnd="-9999999/1" timeRangeDuration="0/1" interpolaterName=""  />
                </ZoomPanKeyframes>
               </ZoomPanBin>
              </Entry>
              <Entry key="CursorEffectBin">
               <CursorEffectBin id="965"  >
                <CursorEffectKeyframes>
                </CursorEffectKeyframes>
               </CursorEffectBin>
              </Entry>
             </ExtraData>
            </ScreenVMFile>
            <MetaData>
             <entry key="AutoAppliedSmartFocus" val="False"/>
             <entry key="WinSubProjectDisplayName" val=""/>
            </MetaData>
           </UnifiedMedia>
           <UnifiedMedia id="966"  >
            <AMFile id="967" start="4192" duration="63" scalar="1/1" mediaStart="5596/1" mediaDuration="63/1" trackNumber="1" src="5" channelNumber="0,1" >
             <Parameters>
              <InterpolatingParam id="968" interp="linr"  time="0/1" value="1" leadInLength="0/1"  name="volume"/>
              <Parameter id="969"  name="captions"/>
             </Parameters>
             <Attributes>
              <Attribute id="970" value="" name="ident"/>
              <Attribute id="971" value="44100" name="sampleRate"/>
              <Attribute id="972" value="16" name="bitDepth"/>
              <Attribute id="973" value="1" name="gain"/>
              <Attribute id="974" value="0" name="mixToMono"/>
             </Attributes>
            </AMFile>
            <ScreenVMFile id="975" start="4192" duration="63" scalar="1/1" mediaStart="5596/1" mediaDuration="63/1" trackNumber="0" src="5" >
             <Transformer>
              <VectorParam id="976"  name="translation">
               <InterpolatingParam id="977" interp="linr"  time="-9999999/1" value="0" leadInLength="0/1"  />
               <InterpolatingParam id="978" interp="linr"  time="-9999999/1" value="0" leadInLength="0/1"  />
               <InterpolatingParam id="979" interp="linr"  time="-9999999/1" value="0" leadInLength="0/1"  />
              </VectorParam>
              <VectorParam id="980"  name="rotation">
               <InterpolatingParam id="981" interp="linr"  time="-9999999/1" value="0" leadInLength="0/1"  />
               <InterpolatingParam id="982" interp="linr"  time="-9999999/1" value="0" leadInLength="0/1"  />
               <InterpolatingParam id="983" interp="linr"  time="-9999999/1" value="0" leadInLength="0/1"  />
              </VectorParam>
              <VectorParam id="984"  name="shear">
               <InterpolatingParam id="985" interp="linr"  time="-9999999/1" value="0" leadInLength="0/1"  />
               <InterpolatingParam id="986" interp="linr"  time="-9999999/1" value="0" leadInLength="0/1"  />
               <InterpolatingParam id="987" interp="linr"  time="-9999999/1" value="0" leadInLength="0/1"  />
              </VectorParam>
              <VectorParam id="988"  name="scale">
               <InterpolatingParam id="989" interp="linr"  time="-9999999/1" value="1" leadInLength="0/1"  />
               <InterpolatingParam id="990" interp="linr"  time="-9999999/1" value="1" leadInLength="0/1"  />
               <InterpolatingParam id="991" interp="linr"  time="-9999999/1" value="1" leadInLength="0/1"  />
              </VectorParam>
              <VectorParam id="992"  name="anchor">
               <InterpolatingParam id="993" interp="linr"  time="0/1" value="0" leadInLength="0/1"  />
               <InterpolatingParam id="994" interp="linr"  time="0/1" value="0" leadInLength="0/1"  />
               <InterpolatingParam id="995" interp="linr"  time="0/1" value="0" leadInLength="0/1"  />
              </VectorParam>
             </Transformer>
             <Parameters>
              <VectorParam id="996"  name="sourceCrop">
               <InterpolatingParam id="997" interp="linr"  time="0/1" value="0" leadInLength="0/1"  />
               <InterpolatingParam id="998" interp="linr"  time="0/1" value="0" leadInLength="0/1"  />
               <InterpolatingParam id="999" interp="linr"  time="0/1" value="0" leadInLength="0/1"  />
               <InterpolatingParam id="1000" interp="linr"  time="0/1" value="0" leadInLength="0/1"  />
              </VectorParam>
              <VectorParam id="1001"  name="geometryCrop">
               <InterpolatingParam id="1002" interp="linr"  time="-9999999/1" value="0" leadInLength="0/1"  />
               <InterpolatingParam id="1003" interp="linr"  time="-9999999/1" value="0" leadInLength="0/1"  />
               <InterpolatingParam id="1004" interp="linr"  time="-9999999/1" value="0" leadInLength="0/1"  />
               <InterpolatingParam id="1005" interp="linr"  time="-9999999/1" value="0" leadInLength="0/1"  />
              </VectorParam>
              <InterpolatingParam id="1006" interp="linr"  time="-9999999/1" value="1" leadInLength="0/1"  name="opacity"/>
              <InterpolatingParam id="1007" interp="linr"  time="0/1" value="0" leadInLength="0/1"  name="cursorOpacity"/>
              <InterpolatingParam id="1008" interp="linr"  time="0/1" value="0" leadInLength="0/1"  name="cursorScale"/>
             </Parameters>
             <Attributes>
              <Attribute id="1009" value="" name="ident"/>
             </Attributes>
             <ExtraData>
              <Entry key="ZoomPanBin">
               <ZoomPanBin id="1010"  >
                <ZoomPanKeyframes>
                 <ZoomPanKeyframe id="1011" timeRangeEnd="-9999999/1" timeRangeDuration="0/1" interpolaterName=""  />
                </ZoomPanKeyframes>
               </ZoomPanBin>
              </Entry>
              <Entry key="CursorEffectBin">
               <CursorEffectBin id="1012"  >
                <CursorEffectKeyframes>
                </CursorEffectKeyframes>
               </CursorEffectBin>
              </Entry>
             </ExtraData>
            </ScreenVMFile>
            <MetaData>
             <entry key="AutoAppliedSmartFocus" val="False"/>
             <entry key="WinSubProjectDisplayName" val=""/>
            </MetaData>
           </UnifiedMedia>
           <UnifiedMedia id="1013"  >
            <AMFile id="1014" start="4255" duration="46" scalar="1/1" mediaStart="5669/1" mediaDuration="46/1" trackNumber="1" src="5" channelNumber="0,1" >
             <Parameters>
              <InterpolatingParam id="1015" interp="linr"  time="0/1" value="1" leadInLength="0/1"  name="volume"/>
              <Parameter id="1016"  name="captions"/>
             </Parameters>
             <Attributes>
              <Attribute id="1017" value="" name="ident"/>
              <Attribute id="1018" value="44100" name="sampleRate"/>
              <Attribute id="1019" value="16" name="bitDepth"/>
              <Attribute id="1020" value="1" name="gain"/>
              <Attribute id="1021" value="0" name="mixToMono"/>
             </Attributes>
            </AMFile>
            <ScreenVMFile id="1022" start="4255" duration="46" scalar="1/1" mediaStart="5669/1" mediaDuration="46/1" trackNumber="0" src="5" >
             <Transformer>
              <VectorParam id="1023"  name="translation">
               <InterpolatingParam id="1024" interp="linr"  time="-9999999/1" value="0" leadInLength="0/1"  />
               <InterpolatingParam id="1025" interp="linr"  time="-9999999/1" value="0" leadInLength="0/1"  />
               <InterpolatingParam id="1026" interp="linr"  time="-9999999/1" value="0" leadInLength="0/1"  />
              </VectorParam>
              <VectorParam id="1027"  name="rotation">
               <InterpolatingParam id="1028" interp="linr"  time="-9999999/1" value="0" leadInLength="0/1"  />
               <InterpolatingParam id="1029" interp="linr"  time="-9999999/1" value="0" leadInLength="0/1"  />
               <InterpolatingParam id="1030" interp="linr"  time="-9999999/1" value="0" leadInLength="0/1"  />
              </VectorParam>
              <VectorParam id="1031"  name="shear">
               <InterpolatingParam id="1032" interp="linr"  time="-9999999/1" value="0" leadInLength="0/1"  />
               <InterpolatingParam id="1033" interp="linr"  time="-9999999/1" value="0" leadInLength="0/1"  />
               <InterpolatingParam id="1034" interp="linr"  time="-9999999/1" value="0" leadInLength="0/1"  />
              </VectorParam>
              <VectorParam id="1035"  name="scale">
               <InterpolatingParam id="1036" interp="linr"  time="-9999999/1" value="1" leadInLength="0/1"  />
               <InterpolatingParam id="1037" interp="linr"  time="-9999999/1" value="1" leadInLength="0/1"  />
               <InterpolatingParam id="1038" interp="linr"  time="-9999999/1" value="1" leadInLength="0/1"  />
              </VectorParam>
              <VectorParam id="1039"  name="anchor">
               <InterpolatingParam id="1040" interp="linr"  time="0/1" value="0" leadInLength="0/1"  />
               <InterpolatingParam id="1041" interp="linr"  time="0/1" value="0" leadInLength="0/1"  />
               <InterpolatingParam id="1042" interp="linr"  time="0/1" value="0" leadInLength="0/1"  />
              </VectorParam>
             </Transformer>
             <Parameters>
              <VectorParam id="1043"  name="sourceCrop">
               <InterpolatingParam id="1044" interp="linr"  time="0/1" value="0" leadInLength="0/1"  />
               <InterpolatingParam id="1045" interp="linr"  time="0/1" value="0" leadInLength="0/1"  />
               <InterpolatingParam id="1046" interp="linr"  time="0/1" value="0" leadInLength="0/1"  />
               <InterpolatingParam id="1047" interp="linr"  time="0/1" value="0" leadInLength="0/1"  />
              </VectorParam>
              <VectorParam id="1048"  name="geometryCrop">
               <InterpolatingParam id="1049" interp="linr"  time="-9999999/1" value="0" leadInLength="0/1"  />
               <InterpolatingParam id="1050" interp="linr"  time="-9999999/1" value="0" leadInLength="0/1"  />
               <InterpolatingParam id="1051" interp="linr"  time="-9999999/1" value="0" leadInLength="0/1"  />
               <InterpolatingParam id="1052" interp="linr"  time="-9999999/1" value="0" leadInLength="0/1"  />
              </VectorParam>
              <InterpolatingParam id="1053" interp="linr"  time="-9999999/1" value="1" leadInLength="0/1"  name="opacity"/>
              <InterpolatingParam id="1054" interp="linr"  time="0/1" value="0" leadInLength="0/1"  name="cursorOpacity"/>
              <InterpolatingParam id="1055" interp="linr"  time="0/1" value="0" leadInLength="0/1"  name="cursorScale"/>
             </Parameters>
             <Attributes>
              <Attribute id="1056" value="" name="ident"/>
             </Attributes>
             <ExtraData>
              <Entry key="ZoomPanBin">
               <ZoomPanBin id="1057"  >
                <ZoomPanKeyframes>
                 <ZoomPanKeyframe id="1058" timeRangeEnd="-9999999/1" timeRangeDuration="0/1" interpolaterName=""  />
                </ZoomPanKeyframes>
               </ZoomPanBin>
              </Entry>
              <Entry key="CursorEffectBin">
               <CursorEffectBin id="1059"  >
                <CursorEffectKeyframes>
                </CursorEffectKeyframes>
               </CursorEffectBin>
              </Entry>
             </ExtraData>
            </ScreenVMFile>
            <MetaData>
             <entry key="AutoAppliedSmartFocus" val="False"/>
             <entry key="WinSubProjectDisplayName" val=""/>
            </MetaData>
           </UnifiedMedia>
           <UnifiedMedia id="1060"  >
            <AMFile id="1061" start="4301" duration="69" scalar="1/1" mediaStart="5729/1" mediaDuration="69/1" trackNumber="1" src="5" channelNumber="0,1" >
             <Parameters>
              <InterpolatingParam id="1062" interp="linr"  time="0/1" value="1" leadInLength="0/1"  name="volume"/>
              <Parameter id="1063"  name="captions"/>
             </Parameters>
             <Attributes>
              <Attribute id="1064" value="" name="ident"/>
              <Attribute id="1065" value="44100" name="sampleRate"/>
              <Attribute id="1066" value="16" name="bitDepth"/>
              <Attribute id="1067" value="1" name="gain"/>
              <Attribute id="1068" value="0" name="mixToMono"/>
             </Attributes>
            </AMFile>
            <ScreenVMFile id="1069" start="4301" duration="69" scalar="1/1" mediaStart="5729/1" mediaDuration="69/1" trackNumber="0" src="5" >
             <Transformer>
              <VectorParam id="1070"  name="translation">
               <InterpolatingParam id="1071" interp="linr"  time="-9999999/1" value="0" leadInLength="0/1"  />
               <InterpolatingParam id="1072" interp="linr"  time="-9999999/1" value="0" leadInLength="0/1"  />
               <InterpolatingParam id="1073" interp="linr"  time="-9999999/1" value="0" leadInLength="0/1"  />
              </VectorParam>
              <VectorParam id="1074"  name="rotation">
               <InterpolatingParam id="1075" interp="linr"  time="-9999999/1" value="0" leadInLength="0/1"  />
               <InterpolatingParam id="1076" interp="linr"  time="-9999999/1" value="0" leadInLength="0/1"  />
               <InterpolatingParam id="1077" interp="linr"  time="-9999999/1" value="0" leadInLength="0/1"  />
              </VectorParam>
              <VectorParam id="1078"  name="shear">
               <InterpolatingParam id="1079" interp="linr"  time="-9999999/1" value="0" leadInLength="0/1"  />
               <InterpolatingParam id="1080" interp="linr"  time="-9999999/1" value="0" leadInLength="0/1"  />
               <InterpolatingParam id="1081" interp="linr"  time="-9999999/1" value="0" leadInLength="0/1"  />
              </VectorParam>
              <VectorParam id="1082"  name="scale">
               <InterpolatingParam id="1083" interp="linr"  time="-9999999/1" value="1" leadInLength="0/1"  />
               <InterpolatingParam id="1084" interp="linr"  time="-9999999/1" value="1" leadInLength="0/1"  />
               <InterpolatingParam id="1085" interp="linr"  time="-9999999/1" value="1" leadInLength="0/1"  />
              </VectorParam>
              <VectorParam id="1086"  name="anchor">
               <InterpolatingParam id="1087" interp="linr"  time="0/1" value="0" leadInLength="0/1"  />
               <InterpolatingParam id="1088" interp="linr"  time="0/1" value="0" leadInLength="0/1"  />
               <InterpolatingParam id="1089" interp="linr"  time="0/1" value="0" leadInLength="0/1"  />
              </VectorParam>
             </Transformer>
             <Parameters>
              <VectorParam id="1090"  name="sourceCrop">
               <InterpolatingParam id="1091" interp="linr"  time="0/1" value="0" leadInLength="0/1"  />
               <InterpolatingParam id="1092" interp="linr"  time="0/1" value="0" leadInLength="0/1"  />
               <InterpolatingParam id="1093" interp="linr"  time="0/1" value="0" leadInLength="0/1"  />
               <InterpolatingParam id="1094" interp="linr"  time="0/1" value="0" leadInLength="0/1"  />
              </VectorParam>
              <VectorParam id="1095"  name="geometryCrop">
               <InterpolatingParam id="1096" interp="linr"  time="-9999999/1" value="0" leadInLength="0/1"  />
               <InterpolatingParam id="1097" interp="linr"  time="-9999999/1" value="0" leadInLength="0/1"  />
               <InterpolatingParam id="1098" interp="linr"  time="-9999999/1" value="0" leadInLength="0/1"  />
               <InterpolatingParam id="1099" interp="linr"  time="-9999999/1" value="0" leadInLength="0/1"  />
              </VectorParam>
              <InterpolatingParam id="1100" interp="linr"  time="-9999999/1" value="1" leadInLength="0/1"  name="opacity"/>
              <InterpolatingParam id="1101" interp="linr"  time="0/1" value="0" leadInLength="0/1"  name="cursorOpacity"/>
              <InterpolatingParam id="1102" interp="linr"  time="0/1" value="0" leadInLength="0/1"  name="cursorScale"/>
             </Parameters>
             <Attributes>
              <Attribute id="1103" value="" name="ident"/>
             </Attributes>
             <ExtraData>
              <Entry key="ZoomPanBin">
               <ZoomPanBin id="1104"  >
                <ZoomPanKeyframes>
                 <ZoomPanKeyframe id="1105" timeRangeEnd="-9999999/1" timeRangeDuration="0/1" interpolaterName=""  />
                </ZoomPanKeyframes>
               </ZoomPanBin>
              </Entry>
              <Entry key="CursorEffectBin">
               <CursorEffectBin id="1106"  >
                <CursorEffectKeyframes>
                </CursorEffectKeyframes>
               </CursorEffectBin>
              </Entry>
             </ExtraData>
            </ScreenVMFile>
            <MetaData>
             <entry key="AutoAppliedSmartFocus" val="False"/>
             <entry key="WinSubProjectDisplayName" val=""/>
            </MetaData>
           </UnifiedMedia>
           <UnifiedMedia id="1107"  >
            <AMFile id="1108" start="4370" duration="77" scalar="1/1" mediaStart="5803/1" mediaDuration="77/1" trackNumber="1" src="5" channelNumber="0,1" >
             <Parameters>
              <InterpolatingParam id="1109" interp="linr"  time="0/1" value="1" leadInLength="0/1"  name="volume"/>
              <Parameter id="1110"  name="captions"/>
             </Parameters>
             <Attributes>
              <Attribute id="1111" value="" name="ident"/>
              <Attribute id="1112" value="44100" name="sampleRate"/>
              <Attribute id="1113" value="16" name="bitDepth"/>
              <Attribute id="1114" value="1" name="gain"/>
              <Attribute id="1115" value="0" name="mixToMono"/>
             </Attributes>
            </AMFile>
            <ScreenVMFile id="1116" start="4370" duration="77" scalar="1/1" mediaStart="5803/1" mediaDuration="77/1" trackNumber="0" src="5" >
             <Transformer>
              <VectorParam id="1117"  name="translation">
               <InterpolatingParam id="1118" interp="linr"  time="-9999999/1" value="0" leadInLength="0/1"  />
               <InterpolatingParam id="1119" interp="linr"  time="-9999999/1" value="0" leadInLength="0/1"  />
               <InterpolatingParam id="1120" interp="linr"  time="-9999999/1" value="0" leadInLength="0/1"  />
              </VectorParam>
              <VectorParam id="1121"  name="rotation">
               <InterpolatingParam id="1122" interp="linr"  time="-9999999/1" value="0" leadInLength="0/1"  />
               <InterpolatingParam id="1123" interp="linr"  time="-9999999/1" value="0" leadInLength="0/1"  />
               <InterpolatingParam id="1124" interp="linr"  time="-9999999/1" value="0" leadInLength="0/1"  />
              </VectorParam>
              <VectorParam id="1125"  name="shear">
               <InterpolatingParam id="1126" interp="linr"  time="-9999999/1" value="0" leadInLength="0/1"  />
               <InterpolatingParam id="1127" interp="linr"  time="-9999999/1" value="0" leadInLength="0/1"  />
               <InterpolatingParam id="1128" interp="linr"  time="-9999999/1" value="0" leadInLength="0/1"  />
              </VectorParam>
              <VectorParam id="1129"  name="scale">
               <InterpolatingParam id="1130" interp="linr"  time="-9999999/1" value="1" leadInLength="0/1"  />
               <InterpolatingParam id="1131" interp="linr"  time="-9999999/1" value="1" leadInLength="0/1"  />
               <InterpolatingParam id="1132" interp="linr"  time="-9999999/1" value="1" leadInLength="0/1"  />
              </VectorParam>
              <VectorParam id="1133"  name="anchor">
               <InterpolatingParam id="1134" interp="linr"  time="0/1" value="0" leadInLength="0/1"  />
               <InterpolatingParam id="1135" interp="linr"  time="0/1" value="0" leadInLength="0/1"  />
               <InterpolatingParam id="1136" interp="linr"  time="0/1" value="0" leadInLength="0/1"  />
              </VectorParam>
             </Transformer>
             <Parameters>
              <VectorParam id="1137"  name="sourceCrop">
               <InterpolatingParam id="1138" interp="linr"  time="0/1" value="0" leadInLength="0/1"  />
               <InterpolatingParam id="1139" interp="linr"  time="0/1" value="0" leadInLength="0/1"  />
               <InterpolatingParam id="1140" interp="linr"  time="0/1" value="0" leadInLength="0/1"  />
               <InterpolatingParam id="1141" interp="linr"  time="0/1" value="0" leadInLength="0/1"  />
              </VectorParam>
              <VectorParam id="1142"  name="geometryCrop">
               <InterpolatingParam id="1143" interp="linr"  time="-9999999/1" value="0" leadInLength="0/1"  />
               <InterpolatingParam id="1144" interp="linr"  time="-9999999/1" value="0" leadInLength="0/1"  />
               <InterpolatingParam id="1145" interp="linr"  time="-9999999/1" value="0" leadInLength="0/1"  />
               <InterpolatingParam id="1146" interp="linr"  time="-9999999/1" value="0" leadInLength="0/1"  />
              </VectorParam>
              <InterpolatingParam id="1147" interp="linr"  time="-9999999/1" value="1" leadInLength="0/1"  name="opacity"/>
              <InterpolatingParam id="1148" interp="linr"  time="0/1" value="0" leadInLength="0/1"  name="cursorOpacity"/>
              <InterpolatingParam id="1149" interp="linr"  time="0/1" value="0" leadInLength="0/1"  name="cursorScale"/>
             </Parameters>
             <Attributes>
              <Attribute id="1150" value="" name="ident"/>
             </Attributes>
             <ExtraData>
              <Entry key="ZoomPanBin">
               <ZoomPanBin id="1151"  >
                <ZoomPanKeyframes>
                 <ZoomPanKeyframe id="1152" timeRangeEnd="-9999999/1" timeRangeDuration="0/1" interpolaterName=""  />
                </ZoomPanKeyframes>
               </ZoomPanBin>
              </Entry>
              <Entry key="CursorEffectBin">
               <CursorEffectBin id="1153"  >
                <CursorEffectKeyframes>
                </CursorEffectKeyframes>
               </CursorEffectBin>
              </Entry>
             </ExtraData>
            </ScreenVMFile>
            <MetaData>
             <entry key="AutoAppliedSmartFocus" val="False"/>
             <entry key="WinSubProjectDisplayName" val=""/>
            </MetaData>
           </UnifiedMedia>
           <UnifiedMedia id="1154"  >
            <AMFile id="1155" start="4447" duration="45" scalar="1/1" mediaStart="5893/1" mediaDuration="45/1" trackNumber="1" src="5" channelNumber="0,1" >
             <Parameters>
              <InterpolatingParam id="1156" interp="linr"  time="0/1" value="1" leadInLength="0/1"  name="volume"/>
              <Parameter id="1157"  name="captions"/>
             </Parameters>
             <Attributes>
              <Attribute id="1158" value="" name="ident"/>
              <Attribute id="1159" value="44100" name="sampleRate"/>
              <Attribute id="1160" value="16" name="bitDepth"/>
              <Attribute id="1161" value="1" name="gain"/>
              <Attribute id="1162" value="0" name="mixToMono"/>
             </Attributes>
            </AMFile>
            <ScreenVMFile id="1163" start="4447" duration="45" scalar="1/1" mediaStart="5893/1" mediaDuration="45/1" trackNumber="0" src="5" >
             <Transformer>
              <VectorParam id="1164"  name="translation">
               <InterpolatingParam id="1165" interp="linr"  time="-9999999/1" value="0" leadInLength="0/1"  />
               <InterpolatingParam id="1166" interp="linr"  time="-9999999/1" value="0" leadInLength="0/1"  />
               <InterpolatingParam id="1167" interp="linr"  time="-9999999/1" value="0" leadInLength="0/1"  />
              </VectorParam>
              <VectorParam id="1168"  name="rotation">
               <InterpolatingParam id="1169" interp="linr"  time="-9999999/1" value="0" leadInLength="0/1"  />
               <InterpolatingParam id="1170" interp="linr"  time="-9999999/1" value="0" leadInLength="0/1"  />
               <InterpolatingParam id="1171" interp="linr"  time="-9999999/1" value="0" leadInLength="0/1"  />
              </VectorParam>
              <VectorParam id="1172"  name="shear">
               <InterpolatingParam id="1173" interp="linr"  time="-9999999/1" value="0" leadInLength="0/1"  />
               <InterpolatingParam id="1174" interp="linr"  time="-9999999/1" value="0" leadInLength="0/1"  />
               <InterpolatingParam id="1175" interp="linr"  time="-9999999/1" value="0" leadInLength="0/1"  />
              </VectorParam>
              <VectorParam id="1176"  name="scale">
               <InterpolatingParam id="1177" interp="linr"  time="-9999999/1" value="1" leadInLength="0/1"  />
               <InterpolatingParam id="1178" interp="linr"  time="-9999999/1" value="1" leadInLength="0/1"  />
               <InterpolatingParam id="1179" interp="linr"  time="-9999999/1" value="1" leadInLength="0/1"  />
              </VectorParam>
              <VectorParam id="1180"  name="anchor">
               <InterpolatingParam id="1181" interp="linr"  time="0/1" value="0" leadInLength="0/1"  />
               <InterpolatingParam id="1182" interp="linr"  time="0/1" value="0" leadInLength="0/1"  />
               <InterpolatingParam id="1183" interp="linr"  time="0/1" value="0" leadInLength="0/1"  />
              </VectorParam>
             </Transformer>
             <Parameters>
              <VectorParam id="1184"  name="sourceCrop">
               <InterpolatingParam id="1185" interp="linr"  time="0/1" value="0" leadInLength="0/1"  />
               <InterpolatingParam id="1186" interp="linr"  time="0/1" value="0" leadInLength="0/1"  />
               <InterpolatingParam id="1187" interp="linr"  time="0/1" value="0" leadInLength="0/1"  />
               <InterpolatingParam id="1188" interp="linr"  time="0/1" value="0" leadInLength="0/1"  />
              </VectorParam>
              <VectorParam id="1189"  name="geometryCrop">
               <InterpolatingParam id="1190" interp="linr"  time="-9999999/1" value="0" leadInLength="0/1"  />
               <InterpolatingParam id="1191" interp="linr"  time="-9999999/1" value="0" leadInLength="0/1"  />
               <InterpolatingParam id="1192" interp="linr"  time="-9999999/1" value="0" leadInLength="0/1"  />
               <InterpolatingParam id="1193" interp="linr"  time="-9999999/1" value="0" leadInLength="0/1"  />
              </VectorParam>
              <InterpolatingParam id="1194" interp="linr"  time="-9999999/1" value="1" leadInLength="0/1"  name="opacity"/>
              <InterpolatingParam id="1195" interp="linr"  time="0/1" value="0" leadInLength="0/1"  name="cursorOpacity"/>
              <InterpolatingParam id="1196" interp="linr"  time="0/1" value="0" leadInLength="0/1"  name="cursorScale"/>
             </Parameters>
             <Attributes>
              <Attribute id="1197" value="" name="ident"/>
             </Attributes>
             <ExtraData>
              <Entry key="ZoomPanBin">
               <ZoomPanBin id="1198"  >
                <ZoomPanKeyframes>
                 <ZoomPanKeyframe id="1199" timeRangeEnd="-9999999/1" timeRangeDuration="0/1" interpolaterName=""  />
                </ZoomPanKeyframes>
               </ZoomPanBin>
              </Entry>
              <Entry key="CursorEffectBin">
               <CursorEffectBin id="1200"  >
                <CursorEffectKeyframes>
                </CursorEffectKeyframes>
               </CursorEffectBin>
              </Entry>
             </ExtraData>
            </ScreenVMFile>
            <MetaData>
             <entry key="AutoAppliedSmartFocus" val="False"/>
             <entry key="WinSubProjectDisplayName" val=""/>
            </MetaData>
           </UnifiedMedia>
           <UnifiedMedia id="1201"  >
            <AMFile id="1202" start="4492" duration="112" scalar="1/1" mediaStart="5946/1" mediaDuration="112/1" trackNumber="1" src="5" channelNumber="0,1" >
             <Parameters>
              <InterpolatingParam id="1203" interp="linr"  time="0/1" value="1" leadInLength="0/1"  name="volume"/>
              <Parameter id="1204"  name="captions"/>
             </Parameters>
             <Attributes>
              <Attribute id="1205" value="" name="ident"/>
              <Attribute id="1206" value="44100" name="sampleRate"/>
              <Attribute id="1207" value="16" name="bitDepth"/>
              <Attribute id="1208" value="1" name="gain"/>
              <Attribute id="1209" value="0" name="mixToMono"/>
             </Attributes>
            </AMFile>
            <ScreenVMFile id="1210" start="4492" duration="112" scalar="1/1" mediaStart="5946/1" mediaDuration="112/1" trackNumber="0" src="5" >
             <Transformer>
              <VectorParam id="1211"  name="translation">
               <InterpolatingParam id="1212" interp="linr"  time="-9999999/1" value="0" leadInLength="0/1"  />
               <InterpolatingParam id="1213" interp="linr"  time="-9999999/1" value="0" leadInLength="0/1"  />
               <InterpolatingParam id="1214" interp="linr"  time="-9999999/1" value="0" leadInLength="0/1"  />
              </VectorParam>
              <VectorParam id="1215"  name="rotation">
               <InterpolatingParam id="1216" interp="linr"  time="-9999999/1" value="0" leadInLength="0/1"  />
               <InterpolatingParam id="1217" interp="linr"  time="-9999999/1" value="0" leadInLength="0/1"  />
               <InterpolatingParam id="1218" interp="linr"  time="-9999999/1" value="0" leadInLength="0/1"  />
              </VectorParam>
              <VectorParam id="1219"  name="shear">
               <InterpolatingParam id="1220" interp="linr"  time="-9999999/1" value="0" leadInLength="0/1"  />
               <InterpolatingParam id="1221" interp="linr"  time="-9999999/1" value="0" leadInLength="0/1"  />
               <InterpolatingParam id="1222" interp="linr"  time="-9999999/1" value="0" leadInLength="0/1"  />
              </VectorParam>
              <VectorParam id="1223"  name="scale">
               <InterpolatingParam id="1224" interp="linr"  time="-9999999/1" value="1" leadInLength="0/1"  />
               <InterpolatingParam id="1225" interp="linr"  time="-9999999/1" value="1" leadInLength="0/1"  />
               <InterpolatingParam id="1226" interp="linr"  time="-9999999/1" value="1" leadInLength="0/1"  />
              </VectorParam>
              <VectorParam id="1227"  name="anchor">
               <InterpolatingParam id="1228" interp="linr"  time="0/1" value="0" leadInLength="0/1"  />
               <InterpolatingParam id="1229" interp="linr"  time="0/1" value="0" leadInLength="0/1"  />
               <InterpolatingParam id="1230" interp="linr"  time="0/1" value="0" leadInLength="0/1"  />
              </VectorParam>
             </Transformer>
             <Parameters>
              <VectorParam id="1231"  name="sourceCrop">
               <InterpolatingParam id="1232" interp="linr"  time="0/1" value="0" leadInLength="0/1"  />
               <InterpolatingParam id="1233" interp="linr"  time="0/1" value="0" leadInLength="0/1"  />
               <InterpolatingParam id="1234" interp="linr"  time="0/1" value="0" leadInLength="0/1"  />
               <InterpolatingParam id="1235" interp="linr"  time="0/1" value="0" leadInLength="0/1"  />
              </VectorParam>
              <VectorParam id="1236"  name="geometryCrop">
               <InterpolatingParam id="1237" interp="linr"  time="-9999999/1" value="0" leadInLength="0/1"  />
               <InterpolatingParam id="1238" interp="linr"  time="-9999999/1" value="0" leadInLength="0/1"  />
               <InterpolatingParam id="1239" interp="linr"  time="-9999999/1" value="0" leadInLength="0/1"  />
               <InterpolatingParam id="1240" interp="linr"  time="-9999999/1" value="0" leadInLength="0/1"  />
              </VectorParam>
              <InterpolatingParam id="1241" interp="linr"  time="-9999999/1" value="1" leadInLength="0/1"  name="opacity"/>
              <InterpolatingParam id="1242" interp="linr"  time="0/1" value="0" leadInLength="0/1"  name="cursorOpacity"/>
              <InterpolatingParam id="1243" interp="linr"  time="0/1" value="0" leadInLength="0/1"  name="cursorScale"/>
             </Parameters>
             <Attributes>
              <Attribute id="1244" value="" name="ident"/>
             </Attributes>
             <ExtraData>
              <Entry key="ZoomPanBin">
               <ZoomPanBin id="1245"  >
                <ZoomPanKeyframes>
                 <ZoomPanKeyframe id="1246" timeRangeEnd="-9999999/1" timeRangeDuration="0/1" interpolaterName=""  />
                </ZoomPanKeyframes>
               </ZoomPanBin>
              </Entry>
              <Entry key="CursorEffectBin">
               <CursorEffectBin id="1247"  >
                <CursorEffectKeyframes>
                </CursorEffectKeyframes>
               </CursorEffectBin>
              </Entry>
             </ExtraData>
            </ScreenVMFile>
            <MetaData>
             <entry key="AutoAppliedSmartFocus" val="False"/>
             <entry key="WinSubProjectDisplayName" val=""/>
            </MetaData>
           </UnifiedMedia>
           <UnifiedMedia id="1248"  >
            <AMFile id="1249" start="4604" duration="263" scalar="1/1" mediaStart="6280/1" mediaDuration="263/1" trackNumber="1" src="5" channelNumber="0,1" >
             <Parameters>
              <InterpolatingParam id="1250" interp="linr"  time="0/1" value="1" leadInLength="0/1"  name="volume"/>
              <Parameter id="1251"  name="captions"/>
             </Parameters>
             <Attributes>
              <Attribute id="1252" value="" name="ident"/>
              <Attribute id="1253" value="44100" name="sampleRate"/>
              <Attribute id="1254" value="16" name="bitDepth"/>
              <Attribute id="1255" value="1" name="gain"/>
              <Attribute id="1256" value="0" name="mixToMono"/>
             </Attributes>
            </AMFile>
            <ScreenVMFile id="1257" start="4604" duration="263" scalar="1/1" mediaStart="6280/1" mediaDuration="263/1" trackNumber="0" src="5" >
             <Transformer>
              <VectorParam id="1258"  name="translation">
               <InterpolatingParam id="1259" interp="linr"  time="-9999999/1" value="0" leadInLength="0/1"  />
               <InterpolatingParam id="1260" interp="linr"  time="-9999999/1" value="0" leadInLength="0/1"  />
               <InterpolatingParam id="1261" interp="linr"  time="-9999999/1" value="0" leadInLength="0/1"  />
              </VectorParam>
              <VectorParam id="1262"  name="rotation">
               <InterpolatingParam id="1263" interp="linr"  time="-9999999/1" value="0" leadInLength="0/1"  />
               <InterpolatingParam id="1264" interp="linr"  time="-9999999/1" value="0" leadInLength="0/1"  />
               <InterpolatingParam id="1265" interp="linr"  time="-9999999/1" value="0" leadInLength="0/1"  />
              </VectorParam>
              <VectorParam id="1266"  name="shear">
               <InterpolatingParam id="1267" interp="linr"  time="-9999999/1" value="0" leadInLength="0/1"  />
               <InterpolatingParam id="1268" interp="linr"  time="-9999999/1" value="0" leadInLength="0/1"  />
               <InterpolatingParam id="1269" interp="linr"  time="-9999999/1" value="0" leadInLength="0/1"  />
              </VectorParam>
              <VectorParam id="1270"  name="scale">
               <InterpolatingParam id="1271" interp="linr"  time="-9999999/1" value="1" leadInLength="0/1"  />
               <InterpolatingParam id="1272" interp="linr"  time="-9999999/1" value="1" leadInLength="0/1"  />
               <InterpolatingParam id="1273" interp="linr"  time="-9999999/1" value="1" leadInLength="0/1"  />
              </VectorParam>
              <VectorParam id="1274"  name="anchor">
               <InterpolatingParam id="1275" interp="linr"  time="0/1" value="0" leadInLength="0/1"  />
               <InterpolatingParam id="1276" interp="linr"  time="0/1" value="0" leadInLength="0/1"  />
               <InterpolatingParam id="1277" interp="linr"  time="0/1" value="0" leadInLength="0/1"  />
              </VectorParam>
             </Transformer>
             <Parameters>
              <VectorParam id="1278"  name="sourceCrop">
               <InterpolatingParam id="1279" interp="linr"  time="0/1" value="0" leadInLength="0/1"  />
               <InterpolatingParam id="1280" interp="linr"  time="0/1" value="0" leadInLength="0/1"  />
               <InterpolatingParam id="1281" interp="linr"  time="0/1" value="0" leadInLength="0/1"  />
               <InterpolatingParam id="1282" interp="linr"  time="0/1" value="0" leadInLength="0/1"  />
              </VectorParam>
              <VectorParam id="1283"  name="geometryCrop">
               <InterpolatingParam id="1284" interp="linr"  time="-9999999/1" value="0" leadInLength="0/1"  />
               <InterpolatingParam id="1285" interp="linr"  time="-9999999/1" value="0" leadInLength="0/1"  />
               <InterpolatingParam id="1286" interp="linr"  time="-9999999/1" value="0" leadInLength="0/1"  />
               <InterpolatingParam id="1287" interp="linr"  time="-9999999/1" value="0" leadInLength="0/1"  />
              </VectorParam>
              <InterpolatingParam id="1288" interp="linr"  time="-9999999/1" value="1" leadInLength="0/1"  name="opacity"/>
              <InterpolatingParam id="1289" interp="linr"  time="0/1" value="0" leadInLength="0/1"  name="cursorOpacity"/>
              <InterpolatingParam id="1290" interp="linr"  time="0/1" value="0" leadInLength="0/1"  name="cursorScale"/>
             </Parameters>
             <Attributes>
              <Attribute id="1291" value="" name="ident"/>
             </Attributes>
             <ExtraData>
              <Entry key="ZoomPanBin">
               <ZoomPanBin id="1292"  >
                <ZoomPanKeyframes>
                 <ZoomPanKeyframe id="1293" timeRangeEnd="-9999999/1" timeRangeDuration="0/1" interpolaterName=""  />
                </ZoomPanKeyframes>
               </ZoomPanBin>
              </Entry>
              <Entry key="CursorEffectBin">
               <CursorEffectBin id="1294"  >
                <CursorEffectKeyframes>
                </CursorEffectKeyframes>
               </CursorEffectBin>
              </Entry>
             </ExtraData>
            </ScreenVMFile>
            <MetaData>
             <entry key="AutoAppliedSmartFocus" val="False"/>
             <entry key="WinSubProjectDisplayName" val=""/>
            </MetaData>
           </UnifiedMedia>
           <UnifiedMedia id="1295"  >
            <AMFile id="1296" start="4867" duration="91" scalar="1/1" mediaStart="6786/1" mediaDuration="91/1" trackNumber="1" src="5" channelNumber="0,1" >
             <Parameters>
              <InterpolatingParam id="1297" interp="linr"  time="0/1" value="1" leadInLength="0/1"  name="volume"/>
              <Parameter id="1298"  name="captions"/>
             </Parameters>
             <Attributes>
              <Attribute id="1299" value="" name="ident"/>
              <Attribute id="1300" value="44100" name="sampleRate"/>
              <Attribute id="1301" value="16" name="bitDepth"/>
              <Attribute id="1302" value="1" name="gain"/>
              <Attribute id="1303" value="0" name="mixToMono"/>
             </Attributes>
            </AMFile>
            <ScreenVMFile id="1304" start="4867" duration="91" scalar="1/1" mediaStart="6786/1" mediaDuration="91/1" trackNumber="0" src="5" >
             <Transformer>
              <VectorParam id="1305"  name="translation">
               <InterpolatingParam id="1306" interp="linr"  time="-9999999/1" value="0" leadInLength="0/1"  />
               <InterpolatingParam id="1307" interp="linr"  time="-9999999/1" value="0" leadInLength="0/1"  />
               <InterpolatingParam id="1308" interp="linr"  time="-9999999/1" value="0" leadInLength="0/1"  />
              </VectorParam>
              <VectorParam id="1309"  name="rotation">
               <InterpolatingParam id="1310" interp="linr"  time="-9999999/1" value="0" leadInLength="0/1"  />
               <InterpolatingParam id="1311" interp="linr"  time="-9999999/1" value="0" leadInLength="0/1"  />
               <InterpolatingParam id="1312" interp="linr"  time="-9999999/1" value="0" leadInLength="0/1"  />
              </VectorParam>
              <VectorParam id="1313"  name="shear">
               <InterpolatingParam id="1314" interp="linr"  time="-9999999/1" value="0" leadInLength="0/1"  />
               <InterpolatingParam id="1315" interp="linr"  time="-9999999/1" value="0" leadInLength="0/1"  />
               <InterpolatingParam id="1316" interp="linr"  time="-9999999/1" value="0" leadInLength="0/1"  />
              </VectorParam>
              <VectorParam id="1317"  name="scale">
               <InterpolatingParam id="1318" interp="linr"  time="-9999999/1" value="1" leadInLength="0/1"  />
               <InterpolatingParam id="1319" interp="linr"  time="-9999999/1" value="1" leadInLength="0/1"  />
               <InterpolatingParam id="1320" interp="linr"  time="-9999999/1" value="1" leadInLength="0/1"  />
              </VectorParam>
              <VectorParam id="1321"  name="anchor">
               <InterpolatingParam id="1322" interp="linr"  time="0/1" value="0" leadInLength="0/1"  />
               <InterpolatingParam id="1323" interp="linr"  time="0/1" value="0" leadInLength="0/1"  />
               <InterpolatingParam id="1324" interp="linr"  time="0/1" value="0" leadInLength="0/1"  />
              </VectorParam>
             </Transformer>
             <Parameters>
              <VectorParam id="1325"  name="sourceCrop">
               <InterpolatingParam id="1326" interp="linr"  time="0/1" value="0" leadInLength="0/1"  />
               <InterpolatingParam id="1327" interp="linr"  time="0/1" value="0" leadInLength="0/1"  />
               <InterpolatingParam id="1328" interp="linr"  time="0/1" value="0" leadInLength="0/1"  />
               <InterpolatingParam id="1329" interp="linr"  time="0/1" value="0" leadInLength="0/1"  />
              </VectorParam>
              <VectorParam id="1330"  name="geometryCrop">
               <InterpolatingParam id="1331" interp="linr"  time="-9999999/1" value="0" leadInLength="0/1"  />
               <InterpolatingParam id="1332" interp="linr"  time="-9999999/1" value="0" leadInLength="0/1"  />
               <InterpolatingParam id="1333" interp="linr"  time="-9999999/1" value="0" leadInLength="0/1"  />
               <InterpolatingParam id="1334" interp="linr"  time="-9999999/1" value="0" leadInLength="0/1"  />
              </VectorParam>
              <InterpolatingParam id="1335" interp="linr"  time="-9999999/1" value="1" leadInLength="0/1"  name="opacity"/>
              <InterpolatingParam id="1336" interp="linr"  time="0/1" value="0" leadInLength="0/1"  name="cursorOpacity"/>
              <InterpolatingParam id="1337" interp="linr"  time="0/1" value="0" leadInLength="0/1"  name="cursorScale"/>
             </Parameters>
             <Attributes>
              <Attribute id="1338" value="" name="ident"/>
             </Attributes>
             <ExtraData>
              <Entry key="ZoomPanBin">
               <ZoomPanBin id="1339"  >
                <ZoomPanKeyframes>
                 <ZoomPanKeyframe id="1340" timeRangeEnd="-9999999/1" timeRangeDuration="0/1" interpolaterName=""  />
                </ZoomPanKeyframes>
               </ZoomPanBin>
              </Entry>
              <Entry key="CursorEffectBin">
               <CursorEffectBin id="1341"  >
                <CursorEffectKeyframes>
                </CursorEffectKeyframes>
               </CursorEffectBin>
              </Entry>
             </ExtraData>
            </ScreenVMFile>
            <MetaData>
             <entry key="AutoAppliedSmartFocus" val="False"/>
             <entry key="WinSubProjectDisplayName" val=""/>
            </MetaData>
           </UnifiedMedia>
           <UnifiedMedia id="1342"  >
            <AMFile id="1343" start="4958" duration="124" scalar="1/1" mediaStart="6886/1" mediaDuration="124/1" trackNumber="1" src="5" channelNumber="0,1" >
             <Parameters>
              <InterpolatingParam id="1344" interp="linr"  time="0/1" value="1" leadInLength="0/1"  name="volume"/>
              <Parameter id="1345"  name="captions"/>
             </Parameters>
             <Attributes>
              <Attribute id="1346" value="" name="ident"/>
              <Attribute id="1347" value="44100" name="sampleRate"/>
              <Attribute id="1348" value="16" name="bitDepth"/>
              <Attribute id="1349" value="1" name="gain"/>
              <Attribute id="1350" value="0" name="mixToMono"/>
             </Attributes>
            </AMFile>
            <ScreenVMFile id="1351" start="4958" duration="124" scalar="1/1" mediaStart="6886/1" mediaDuration="124/1" trackNumber="0" src="5" >
             <Transformer>
              <VectorParam id="1352"  name="translation">
               <InterpolatingParam id="1353" interp="linr"  time="-9999999/1" value="0" leadInLength="0/1"  />
               <InterpolatingParam id="1354" interp="linr"  time="-9999999/1" value="0" leadInLength="0/1"  />
               <InterpolatingParam id="1355" interp="linr"  time="-9999999/1" value="0" leadInLength="0/1"  />
              </VectorParam>
              <VectorParam id="1356"  name="rotation">
               <InterpolatingParam id="1357" interp="linr"  time="-9999999/1" value="0" leadInLength="0/1"  />
               <InterpolatingParam id="1358" interp="linr"  time="-9999999/1" value="0" leadInLength="0/1"  />
               <InterpolatingParam id="1359" interp="linr"  time="-9999999/1" value="0" leadInLength="0/1"  />
              </VectorParam>
              <VectorParam id="1360"  name="shear">
               <InterpolatingParam id="1361" interp="linr"  time="-9999999/1" value="0" leadInLength="0/1"  />
               <InterpolatingParam id="1362" interp="linr"  time="-9999999/1" value="0" leadInLength="0/1"  />
               <InterpolatingParam id="1363" interp="linr"  time="-9999999/1" value="0" leadInLength="0/1"  />
              </VectorParam>
              <VectorParam id="1364"  name="scale">
               <InterpolatingParam id="1365" interp="linr"  time="-9999999/1" value="1" leadInLength="0/1"  />
               <InterpolatingParam id="1366" interp="linr"  time="-9999999/1" value="1" leadInLength="0/1"  />
               <InterpolatingParam id="1367" interp="linr"  time="-9999999/1" value="1" leadInLength="0/1"  />
              </VectorParam>
              <VectorParam id="1368"  name="anchor">
               <InterpolatingParam id="1369" interp="linr"  time="0/1" value="0" leadInLength="0/1"  />
               <InterpolatingParam id="1370" interp="linr"  time="0/1" value="0" leadInLength="0/1"  />
               <InterpolatingParam id="1371" interp="linr"  time="0/1" value="0" leadInLength="0/1"  />
              </VectorParam>
             </Transformer>
             <Parameters>
              <VectorParam id="1372"  name="sourceCrop">
               <InterpolatingParam id="1373" interp="linr"  time="0/1" value="0" leadInLength="0/1"  />
               <InterpolatingParam id="1374" interp="linr"  time="0/1" value="0" leadInLength="0/1"  />
               <InterpolatingParam id="1375" interp="linr"  time="0/1" value="0" leadInLength="0/1"  />
               <InterpolatingParam id="1376" interp="linr"  time="0/1" value="0" leadInLength="0/1"  />
              </VectorParam>
              <VectorParam id="1377"  name="geometryCrop">
               <InterpolatingParam id="1378" interp="linr"  time="-9999999/1" value="0" leadInLength="0/1"  />
               <InterpolatingParam id="1379" interp="linr"  time="-9999999/1" value="0" leadInLength="0/1"  />
               <InterpolatingParam id="1380" interp="linr"  time="-9999999/1" value="0" leadInLength="0/1"  />
               <InterpolatingParam id="1381" interp="linr"  time="-9999999/1" value="0" leadInLength="0/1"  />
              </VectorParam>
              <InterpolatingParam id="1382" interp="linr"  time="-9999999/1" value="1" leadInLength="0/1"  name="opacity"/>
              <InterpolatingParam id="1383" interp="linr"  time="0/1" value="0" leadInLength="0/1"  name="cursorOpacity"/>
              <InterpolatingParam id="1384" interp="linr"  time="0/1" value="0" leadInLength="0/1"  name="cursorScale"/>
             </Parameters>
             <Attributes>
              <Attribute id="1385" value="" name="ident"/>
             </Attributes>
             <ExtraData>
              <Entry key="ZoomPanBin">
               <ZoomPanBin id="1386"  >
                <ZoomPanKeyframes>
                 <ZoomPanKeyframe id="1387" timeRangeEnd="-9999999/1" timeRangeDuration="0/1" interpolaterName=""  />
                </ZoomPanKeyframes>
               </ZoomPanBin>
              </Entry>
              <Entry key="CursorEffectBin">
               <CursorEffectBin id="1388"  >
                <CursorEffectKeyframes>
                </CursorEffectKeyframes>
               </CursorEffectBin>
              </Entry>
             </ExtraData>
            </ScreenVMFile>
            <MetaData>
             <entry key="AutoAppliedSmartFocus" val="False"/>
             <entry key="WinSubProjectDisplayName" val=""/>
            </MetaData>
           </UnifiedMedia>
           <UnifiedMedia id="1389"  >
            <AMFile id="1390" start="5082" duration="174" scalar="1/1" mediaStart="7174/1" mediaDuration="174/1" trackNumber="1" src="5" channelNumber="0,1" >
             <Parameters>
              <InterpolatingParam id="1391" interp="linr"  time="0/1" value="1" leadInLength="0/1"  name="volume"/>
              <Parameter id="1392"  name="captions"/>
             </Parameters>
             <Attributes>
              <Attribute id="1393" value="" name="ident"/>
              <Attribute id="1394" value="44100" name="sampleRate"/>
              <Attribute id="1395" value="16" name="bitDepth"/>
              <Attribute id="1396" value="1" name="gain"/>
              <Attribute id="1397" value="0" name="mixToMono"/>
             </Attributes>
            </AMFile>
            <ScreenVMFile id="1398" start="5082" duration="174" scalar="1/1" mediaStart="7174/1" mediaDuration="174/1" trackNumber="0" src="5" >
             <Transformer>
              <VectorParam id="1399"  name="translation">
               <InterpolatingParam id="1400" interp="linr"  time="-9999999/1" value="0" leadInLength="0/1"  />
               <InterpolatingParam id="1401" interp="linr"  time="-9999999/1" value="0" leadInLength="0/1"  />
               <InterpolatingParam id="1402" interp="linr"  time="-9999999/1" value="0" leadInLength="0/1"  />
              </VectorParam>
              <VectorParam id="1403"  name="rotation">
               <InterpolatingParam id="1404" interp="linr"  time="-9999999/1" value="0" leadInLength="0/1"  />
               <InterpolatingParam id="1405" interp="linr"  time="-9999999/1" value="0" leadInLength="0/1"  />
               <InterpolatingParam id="1406" interp="linr"  time="-9999999/1" value="0" leadInLength="0/1"  />
              </VectorParam>
              <VectorParam id="1407"  name="shear">
               <InterpolatingParam id="1408" interp="linr"  time="-9999999/1" value="0" leadInLength="0/1"  />
               <InterpolatingParam id="1409" interp="linr"  time="-9999999/1" value="0" leadInLength="0/1"  />
               <InterpolatingParam id="1410" interp="linr"  time="-9999999/1" value="0" leadInLength="0/1"  />
              </VectorParam>
              <VectorParam id="1411"  name="scale">
               <InterpolatingParam id="1412" interp="linr"  time="-9999999/1" value="1" leadInLength="0/1"  />
               <InterpolatingParam id="1413" interp="linr"  time="-9999999/1" value="1" leadInLength="0/1"  />
               <InterpolatingParam id="1414" interp="linr"  time="-9999999/1" value="1" leadInLength="0/1"  />
              </VectorParam>
              <VectorParam id="1415"  name="anchor">
               <InterpolatingParam id="1416" interp="linr"  time="0/1" value="0" leadInLength="0/1"  />
               <InterpolatingParam id="1417" interp="linr"  time="0/1" value="0" leadInLength="0/1"  />
               <InterpolatingParam id="1418" interp="linr"  time="0/1" value="0" leadInLength="0/1"  />
              </VectorParam>
             </Transformer>
             <Parameters>
              <VectorParam id="1419"  name="sourceCrop">
               <InterpolatingParam id="1420" interp="linr"  time="0/1" value="0" leadInLength="0/1"  />
               <InterpolatingParam id="1421" interp="linr"  time="0/1" value="0" leadInLength="0/1"  />
               <InterpolatingParam id="1422" interp="linr"  time="0/1" value="0" leadInLength="0/1"  />
               <InterpolatingParam id="1423" interp="linr"  time="0/1" value="0" leadInLength="0/1"  />
              </VectorParam>
              <VectorParam id="1424"  name="geometryCrop">
               <InterpolatingParam id="1425" interp="linr"  time="-9999999/1" value="0" leadInLength="0/1"  />
               <InterpolatingParam id="1426" interp="linr"  time="-9999999/1" value="0" leadInLength="0/1"  />
               <InterpolatingParam id="1427" interp="linr"  time="-9999999/1" value="0" leadInLength="0/1"  />
               <InterpolatingParam id="1428" interp="linr"  time="-9999999/1" value="0" leadInLength="0/1"  />
              </VectorParam>
              <InterpolatingParam id="1429" interp="linr"  time="-9999999/1" value="1" leadInLength="0/1"  name="opacity"/>
              <InterpolatingParam id="1430" interp="linr"  time="0/1" value="0" leadInLength="0/1"  name="cursorOpacity"/>
              <InterpolatingParam id="1431" interp="linr"  time="0/1" value="0" leadInLength="0/1"  name="cursorScale"/>
             </Parameters>
             <Attributes>
              <Attribute id="1432" value="" name="ident"/>
             </Attributes>
             <ExtraData>
              <Entry key="ZoomPanBin">
               <ZoomPanBin id="1433"  >
                <ZoomPanKeyframes>
                 <ZoomPanKeyframe id="1434" timeRangeEnd="-9999999/1" timeRangeDuration="0/1" interpolaterName=""  />
                </ZoomPanKeyframes>
               </ZoomPanBin>
              </Entry>
              <Entry key="CursorEffectBin">
               <CursorEffectBin id="1435"  >
                <CursorEffectKeyframes>
                </CursorEffectKeyframes>
               </CursorEffectBin>
              </Entry>
             </ExtraData>
            </ScreenVMFile>
            <MetaData>
             <entry key="AutoAppliedSmartFocus" val="False"/>
             <entry key="WinSubProjectDisplayName" val=""/>
            </MetaData>
           </UnifiedMedia>
           <UnifiedMedia id="1436"  >
            <AMFile id="1437" start="5256" duration="82" scalar="1/1" mediaStart="7680/1" mediaDuration="82/1" trackNumber="1" src="5" channelNumber="0,1" >
             <Parameters>
              <InterpolatingParam id="1438" interp="linr"  time="0/1" value="1" leadInLength="0/1"  name="volume"/>
              <Parameter id="1439"  name="captions"/>
             </Parameters>
             <Attributes>
              <Attribute id="1440" value="" name="ident"/>
              <Attribute id="1441" value="44100" name="sampleRate"/>
              <Attribute id="1442" value="16" name="bitDepth"/>
              <Attribute id="1443" value="1" name="gain"/>
              <Attribute id="1444" value="0" name="mixToMono"/>
             </Attributes>
            </AMFile>
            <ScreenVMFile id="1445" start="5256" duration="82" scalar="1/1" mediaStart="7680/1" mediaDuration="82/1" trackNumber="0" src="5" >
             <Transformer>
              <VectorParam id="1446"  name="translation">
               <InterpolatingParam id="1447" interp="linr"  time="-9999999/1" value="0" leadInLength="0/1"  />
               <InterpolatingParam id="1448" interp="linr"  time="-9999999/1" value="0" leadInLength="0/1"  />
               <InterpolatingParam id="1449" interp="linr"  time="-9999999/1" value="0" leadInLength="0/1"  />
              </VectorParam>
              <VectorParam id="1450"  name="rotation">
               <InterpolatingParam id="1451" interp="linr"  time="-9999999/1" value="0" leadInLength="0/1"  />
               <InterpolatingParam id="1452" interp="linr"  time="-9999999/1" value="0" leadInLength="0/1"  />
               <InterpolatingParam id="1453" interp="linr"  time="-9999999/1" value="0" leadInLength="0/1"  />
              </VectorParam>
              <VectorParam id="1454"  name="shear">
               <InterpolatingParam id="1455" interp="linr"  time="-9999999/1" value="0" leadInLength="0/1"  />
               <InterpolatingParam id="1456" interp="linr"  time="-9999999/1" value="0" leadInLength="0/1"  />
               <InterpolatingParam id="1457" interp="linr"  time="-9999999/1" value="0" leadInLength="0/1"  />
              </VectorParam>
              <VectorParam id="1458"  name="scale">
               <InterpolatingParam id="1459" interp="linr"  time="-9999999/1" value="1" leadInLength="0/1"  />
               <InterpolatingParam id="1460" interp="linr"  time="-9999999/1" value="1" leadInLength="0/1"  />
               <InterpolatingParam id="1461" interp="linr"  time="-9999999/1" value="1" leadInLength="0/1"  />
              </VectorParam>
              <VectorParam id="1462"  name="anchor">
               <InterpolatingParam id="1463" interp="linr"  time="0/1" value="0" leadInLength="0/1"  />
               <InterpolatingParam id="1464" interp="linr"  time="0/1" value="0" leadInLength="0/1"  />
               <InterpolatingParam id="1465" interp="linr"  time="0/1" value="0" leadInLength="0/1"  />
              </VectorParam>
             </Transformer>
             <Parameters>
              <VectorParam id="1466"  name="sourceCrop">
               <InterpolatingParam id="1467" interp="linr"  time="0/1" value="0" leadInLength="0/1"  />
               <InterpolatingParam id="1468" interp="linr"  time="0/1" value="0" leadInLength="0/1"  />
               <InterpolatingParam id="1469" interp="linr"  time="0/1" value="0" leadInLength="0/1"  />
               <InterpolatingParam id="1470" interp="linr"  time="0/1" value="0" leadInLength="0/1"  />
              </VectorParam>
              <VectorParam id="1471"  name="geometryCrop">
               <InterpolatingParam id="1472" interp="linr"  time="-9999999/1" value="0" leadInLength="0/1"  />
               <InterpolatingParam id="1473" interp="linr"  time="-9999999/1" value="0" leadInLength="0/1"  />
               <InterpolatingParam id="1474" interp="linr"  time="-9999999/1" value="0" leadInLength="0/1"  />
               <InterpolatingParam id="1475" interp="linr"  time="-9999999/1" value="0" leadInLength="0/1"  />
              </VectorParam>
              <InterpolatingParam id="1476" interp="linr"  time="-9999999/1" value="1" leadInLength="0/1"  name="opacity"/>
              <InterpolatingParam id="1477" interp="linr"  time="0/1" value="0" leadInLength="0/1"  name="cursorOpacity"/>
              <InterpolatingParam id="1478" interp="linr"  time="0/1" value="0" leadInLength="0/1"  name="cursorScale"/>
             </Parameters>
             <Attributes>
              <Attribute id="1479" value="" name="ident"/>
             </Attributes>
             <ExtraData>
              <Entry key="ZoomPanBin">
               <ZoomPanBin id="1480"  >
                <ZoomPanKeyframes>
                 <ZoomPanKeyframe id="1481" timeRangeEnd="-9999999/1" timeRangeDuration="0/1" interpolaterName=""  />
                </ZoomPanKeyframes>
               </ZoomPanBin>
              </Entry>
              <Entry key="CursorEffectBin">
               <CursorEffectBin id="1482"  >
                <CursorEffectKeyframes>
                </CursorEffectKeyframes>
               </CursorEffectBin>
              </Entry>
             </ExtraData>
            </ScreenVMFile>
            <MetaData>
             <entry key="AutoAppliedSmartFocus" val="False"/>
             <entry key="WinSubProjectDisplayName" val=""/>
            </MetaData>
           </UnifiedMedia>
           <UnifiedMedia id="1483"  >
            <AMFile id="1484" start="5338" duration="45" scalar="1/1" mediaStart="7772/1" mediaDuration="45/1" trackNumber="1" src="5" channelNumber="0,1" >
             <Parameters>
              <InterpolatingParam id="1485" interp="linr"  time="0/1" value="1" leadInLength="0/1"  name="volume"/>
              <Parameter id="1486"  name="captions"/>
             </Parameters>
             <Attributes>
              <Attribute id="1487" value="" name="ident"/>
              <Attribute id="1488" value="44100" name="sampleRate"/>
              <Attribute id="1489" value="16" name="bitDepth"/>
              <Attribute id="1490" value="1" name="gain"/>
              <Attribute id="1491" value="0" name="mixToMono"/>
             </Attributes>
            </AMFile>
            <ScreenVMFile id="1492" start="5338" duration="45" scalar="1/1" mediaStart="7772/1" mediaDuration="45/1" trackNumber="0" src="5" >
             <Transformer>
              <VectorParam id="1493"  name="translation">
               <InterpolatingParam id="1494" interp="linr"  time="-9999999/1" value="0" leadInLength="0/1"  />
               <InterpolatingParam id="1495" interp="linr"  time="-9999999/1" value="0" leadInLength="0/1"  />
               <InterpolatingParam id="1496" interp="linr"  time="-9999999/1" value="0" leadInLength="0/1"  />
              </VectorParam>
              <VectorParam id="1497"  name="rotation">
               <InterpolatingParam id="1498" interp="linr"  time="-9999999/1" value="0" leadInLength="0/1"  />
               <InterpolatingParam id="1499" interp="linr"  time="-9999999/1" value="0" leadInLength="0/1"  />
               <InterpolatingParam id="1500" interp="linr"  time="-9999999/1" value="0" leadInLength="0/1"  />
              </VectorParam>
              <VectorParam id="1501"  name="shear">
               <InterpolatingParam id="1502" interp="linr"  time="-9999999/1" value="0" leadInLength="0/1"  />
               <InterpolatingParam id="1503" interp="linr"  time="-9999999/1" value="0" leadInLength="0/1"  />
               <InterpolatingParam id="1504" interp="linr"  time="-9999999/1" value="0" leadInLength="0/1"  />
              </VectorParam>
              <VectorParam id="1505"  name="scale">
               <InterpolatingParam id="1506" interp="linr"  time="-9999999/1" value="1" leadInLength="0/1"  />
               <InterpolatingParam id="1507" interp="linr"  time="-9999999/1" value="1" leadInLength="0/1"  />
               <InterpolatingParam id="1508" interp="linr"  time="-9999999/1" value="1" leadInLength="0/1"  />
              </VectorParam>
              <VectorParam id="1509"  name="anchor">
               <InterpolatingParam id="1510" interp="linr"  time="0/1" value="0" leadInLength="0/1"  />
               <InterpolatingParam id="1511" interp="linr"  time="0/1" value="0" leadInLength="0/1"  />
               <InterpolatingParam id="1512" interp="linr"  time="0/1" value="0" leadInLength="0/1"  />
              </VectorParam>
             </Transformer>
             <Parameters>
              <VectorParam id="1513"  name="sourceCrop">
               <InterpolatingParam id="1514" interp="linr"  time="0/1" value="0" leadInLength="0/1"  />
               <InterpolatingParam id="1515" interp="linr"  time="0/1" value="0" leadInLength="0/1"  />
               <InterpolatingParam id="1516" interp="linr"  time="0/1" value="0" leadInLength="0/1"  />
               <InterpolatingParam id="1517" interp="linr"  time="0/1" value="0" leadInLength="0/1"  />
              </VectorParam>
              <VectorParam id="1518"  name="geometryCrop">
               <InterpolatingParam id="1519" interp="linr"  time="-9999999/1" value="0" leadInLength="0/1"  />
               <InterpolatingParam id="1520" interp="linr"  time="-9999999/1" value="0" leadInLength="0/1"  />
               <InterpolatingParam id="1521" interp="linr"  time="-9999999/1" value="0" leadInLength="0/1"  />
               <InterpolatingParam id="1522" interp="linr"  time="-9999999/1" value="0" leadInLength="0/1"  />
              </VectorParam>
              <InterpolatingParam id="1523" interp="linr"  time="-9999999/1" value="1" leadInLength="0/1"  name="opacity"/>
              <InterpolatingParam id="1524" interp="linr"  time="0/1" value="0" leadInLength="0/1"  name="cursorOpacity"/>
              <InterpolatingParam id="1525" interp="linr"  time="0/1" value="0" leadInLength="0/1"  name="cursorScale"/>
             </Parameters>
             <Attributes>
              <Attribute id="1526" value="" name="ident"/>
             </Attributes>
             <ExtraData>
              <Entry key="ZoomPanBin">
               <ZoomPanBin id="1527"  >
                <ZoomPanKeyframes>
                 <ZoomPanKeyframe id="1528" timeRangeEnd="-9999999/1" timeRangeDuration="0/1" interpolaterName=""  />
                </ZoomPanKeyframes>
               </ZoomPanBin>
              </Entry>
              <Entry key="CursorEffectBin">
               <CursorEffectBin id="1529"  >
                <CursorEffectKeyframes>
                </CursorEffectKeyframes>
               </CursorEffectBin>
              </Entry>
             </ExtraData>
            </ScreenVMFile>
            <MetaData>
             <entry key="AutoAppliedSmartFocus" val="False"/>
             <entry key="WinSubProjectDisplayName" val=""/>
            </MetaData>
           </UnifiedMedia>
           <UnifiedMedia id="1530"  >
            <AMFile id="1531" start="5383" duration="10" scalar="1/1" mediaStart="7825/1" mediaDuration="10/1" trackNumber="1" src="5" channelNumber="0,1" >
             <Parameters>
              <InterpolatingParam id="1532" interp="linr"  time="0/1" value="1" leadInLength="0/1"  name="volume"/>
              <Parameter id="1533"  name="captions"/>
             </Parameters>
             <Attributes>
              <Attribute id="1534" value="" name="ident"/>
              <Attribute id="1535" value="44100" name="sampleRate"/>
              <Attribute id="1536" value="16" name="bitDepth"/>
              <Attribute id="1537" value="1" name="gain"/>
              <Attribute id="1538" value="0" name="mixToMono"/>
             </Attributes>
            </AMFile>
            <ScreenVMFile id="1539" start="5383" duration="10" scalar="1/1" mediaStart="7825/1" mediaDuration="10/1" trackNumber="0" src="5" >
             <Transformer>
              <VectorParam id="1540"  name="translation">
               <InterpolatingParam id="1541" interp="linr"  time="-9999999/1" value="0" leadInLength="0/1"  />
               <InterpolatingParam id="1542" interp="linr"  time="-9999999/1" value="0" leadInLength="0/1"  />
               <InterpolatingParam id="1543" interp="linr"  time="-9999999/1" value="0" leadInLength="0/1"  />
              </VectorParam>
              <VectorParam id="1544"  name="rotation">
               <InterpolatingParam id="1545" interp="linr"  time="-9999999/1" value="0" leadInLength="0/1"  />
               <InterpolatingParam id="1546" interp="linr"  time="-9999999/1" value="0" leadInLength="0/1"  />
               <InterpolatingParam id="1547" interp="linr"  time="-9999999/1" value="0" leadInLength="0/1"  />
              </VectorParam>
              <VectorParam id="1548"  name="shear">
               <InterpolatingParam id="1549" interp="linr"  time="-9999999/1" value="0" leadInLength="0/1"  />
               <InterpolatingParam id="1550" interp="linr"  time="-9999999/1" value="0" leadInLength="0/1"  />
               <InterpolatingParam id="1551" interp="linr"  time="-9999999/1" value="0" leadInLength="0/1"  />
              </VectorParam>
              <VectorParam id="1552"  name="scale">
               <InterpolatingParam id="1553" interp="linr"  time="-9999999/1" value="1" leadInLength="0/1"  />
               <InterpolatingParam id="1554" interp="linr"  time="-9999999/1" value="1" leadInLength="0/1"  />
               <InterpolatingParam id="1555" interp="linr"  time="-9999999/1" value="1" leadInLength="0/1"  />
              </VectorParam>
              <VectorParam id="1556"  name="anchor">
               <InterpolatingParam id="1557" interp="linr"  time="0/1" value="0" leadInLength="0/1"  />
               <InterpolatingParam id="1558" interp="linr"  time="0/1" value="0" leadInLength="0/1"  />
               <InterpolatingParam id="1559" interp="linr"  time="0/1" value="0" leadInLength="0/1"  />
              </VectorParam>
             </Transformer>
             <Parameters>
              <VectorParam id="1560"  name="sourceCrop">
               <InterpolatingParam id="1561" interp="linr"  time="0/1" value="0" leadInLength="0/1"  />
               <InterpolatingParam id="1562" interp="linr"  time="0/1" value="0" leadInLength="0/1"  />
               <InterpolatingParam id="1563" interp="linr"  time="0/1" value="0" leadInLength="0/1"  />
               <InterpolatingParam id="1564" interp="linr"  time="0/1" value="0" leadInLength="0/1"  />
              </VectorParam>
              <VectorParam id="1565"  name="geometryCrop">
               <InterpolatingParam id="1566" interp="linr"  time="-9999999/1" value="0" leadInLength="0/1"  />
               <InterpolatingParam id="1567" interp="linr"  time="-9999999/1" value="0" leadInLength="0/1"  />
               <InterpolatingParam id="1568" interp="linr"  time="-9999999/1" value="0" leadInLength="0/1"  />
               <InterpolatingParam id="1569" interp="linr"  time="-9999999/1" value="0" leadInLength="0/1"  />
              </VectorParam>
              <InterpolatingParam id="1570" interp="linr"  time="-9999999/1" value="1" leadInLength="0/1"  name="opacity"/>
              <InterpolatingParam id="1571" interp="linr"  time="0/1" value="0" leadInLength="0/1"  name="cursorOpacity"/>
              <InterpolatingParam id="1572" interp="linr"  time="0/1" value="0" leadInLength="0/1"  name="cursorScale"/>
             </Parameters>
             <Attributes>
              <Attribute id="1573" value="" name="ident"/>
             </Attributes>
             <ExtraData>
              <Entry key="ZoomPanBin">
               <ZoomPanBin id="1574"  >
                <ZoomPanKeyframes>
                 <ZoomPanKeyframe id="1575" timeRangeEnd="-9999999/1" timeRangeDuration="0/1" interpolaterName=""  />
                </ZoomPanKeyframes>
               </ZoomPanBin>
              </Entry>
              <Entry key="CursorEffectBin">
               <CursorEffectBin id="1576"  >
                <CursorEffectKeyframes>
                </CursorEffectKeyframes>
               </CursorEffectBin>
              </Entry>
             </ExtraData>
            </ScreenVMFile>
            <MetaData>
             <entry key="AutoAppliedSmartFocus" val="False"/>
             <entry key="WinSubProjectDisplayName" val=""/>
            </MetaData>
           </UnifiedMedia>
           <UnifiedMedia id="1577"  >
            <AMFile id="1578" start="5393" duration="140" scalar="1/1" mediaStart="7847/1" mediaDuration="140/1" trackNumber="1" src="5" channelNumber="0,1" >
             <Parameters>
              <InterpolatingParam id="1579" interp="linr"  time="0/1" value="1" leadInLength="0/1"  name="volume"/>
              <Parameter id="1580"  name="captions"/>
             </Parameters>
             <Attributes>
              <Attribute id="1581" value="" name="ident"/>
              <Attribute id="1582" value="44100" name="sampleRate"/>
              <Attribute id="1583" value="16" name="bitDepth"/>
              <Attribute id="1584" value="1" name="gain"/>
              <Attribute id="1585" value="0" name="mixToMono"/>
             </Attributes>
            </AMFile>
            <ScreenVMFile id="1586" start="5393" duration="140" scalar="1/1" mediaStart="7847/1" mediaDuration="140/1" trackNumber="0" src="5" >
             <Transformer>
              <VectorParam id="1587"  name="translation">
               <InterpolatingParam id="1588" interp="linr"  time="-9999999/1" value="0" leadInLength="0/1"  />
               <InterpolatingParam id="1589" interp="linr"  time="-9999999/1" value="0" leadInLength="0/1"  />
               <InterpolatingParam id="1590" interp="linr"  time="-9999999/1" value="0" leadInLength="0/1"  />
              </VectorParam>
              <VectorParam id="1591"  name="rotation">
               <InterpolatingParam id="1592" interp="linr"  time="-9999999/1" value="0" leadInLength="0/1"  />
               <InterpolatingParam id="1593" interp="linr"  time="-9999999/1" value="0" leadInLength="0/1"  />
               <InterpolatingParam id="1594" interp="linr"  time="-9999999/1" value="0" leadInLength="0/1"  />
              </VectorParam>
              <VectorParam id="1595"  name="shear">
               <InterpolatingParam id="1596" interp="linr"  time="-9999999/1" value="0" leadInLength="0/1"  />
               <InterpolatingParam id="1597" interp="linr"  time="-9999999/1" value="0" leadInLength="0/1"  />
               <InterpolatingParam id="1598" interp="linr"  time="-9999999/1" value="0" leadInLength="0/1"  />
              </VectorParam>
              <VectorParam id="1599"  name="scale">
               <InterpolatingParam id="1600" interp="linr"  time="-9999999/1" value="1" leadInLength="0/1"  />
               <InterpolatingParam id="1601" interp="linr"  time="-9999999/1" value="1" leadInLength="0/1"  />
               <InterpolatingParam id="1602" interp="linr"  time="-9999999/1" value="1" leadInLength="0/1"  />
              </VectorParam>
              <VectorParam id="1603"  name="anchor">
               <InterpolatingParam id="1604" interp="linr"  time="0/1" value="0" leadInLength="0/1"  />
               <InterpolatingParam id="1605" interp="linr"  time="0/1" value="0" leadInLength="0/1"  />
               <InterpolatingParam id="1606" interp="linr"  time="0/1" value="0" leadInLength="0/1"  />
              </VectorParam>
             </Transformer>
             <Parameters>
              <VectorParam id="1607"  name="sourceCrop">
               <InterpolatingParam id="1608" interp="linr"  time="0/1" value="0" leadInLength="0/1"  />
               <InterpolatingParam id="1609" interp="linr"  time="0/1" value="0" leadInLength="0/1"  />
               <InterpolatingParam id="1610" interp="linr"  time="0/1" value="0" leadInLength="0/1"  />
               <InterpolatingParam id="1611" interp="linr"  time="0/1" value="0" leadInLength="0/1"  />
              </VectorParam>
              <VectorParam id="1612"  name="geometryCrop">
               <InterpolatingParam id="1613" interp="linr"  time="-9999999/1" value="0" leadInLength="0/1"  />
               <InterpolatingParam id="1614" interp="linr"  time="-9999999/1" value="0" leadInLength="0/1"  />
               <InterpolatingParam id="1615" interp="linr"  time="-9999999/1" value="0" leadInLength="0/1"  />
               <InterpolatingParam id="1616" interp="linr"  time="-9999999/1" value="0" leadInLength="0/1"  />
              </VectorParam>
              <InterpolatingParam id="1617" interp="linr"  time="-9999999/1" value="1" leadInLength="0/1"  name="opacity"/>
              <InterpolatingParam id="1618" interp="linr"  time="0/1" value="0" leadInLength="0/1"  name="cursorOpacity"/>
              <InterpolatingParam id="1619" interp="linr"  time="0/1" value="0" leadInLength="0/1"  name="cursorScale"/>
             </Parameters>
             <Attributes>
              <Attribute id="1620" value="" name="ident"/>
             </Attributes>
             <ExtraData>
              <Entry key="ZoomPanBin">
               <ZoomPanBin id="1621"  >
                <ZoomPanKeyframes>
                 <ZoomPanKeyframe id="1622" timeRangeEnd="-9999999/1" timeRangeDuration="0/1" interpolaterName=""  />
                </ZoomPanKeyframes>
               </ZoomPanBin>
              </Entry>
              <Entry key="CursorEffectBin">
               <CursorEffectBin id="1623"  >
                <CursorEffectKeyframes>
                </CursorEffectKeyframes>
               </CursorEffectBin>
              </Entry>
             </ExtraData>
            </ScreenVMFile>
            <MetaData>
             <entry key="AutoAppliedSmartFocus" val="False"/>
             <entry key="WinSubProjectDisplayName" val=""/>
            </MetaData>
           </UnifiedMedia>
           <UnifiedMedia id="1624"  >
            <AMFile id="1625" start="5533" duration="102" scalar="1/1" mediaStart="7999/1" mediaDuration="102/1" trackNumber="1" src="5" channelNumber="0,1" >
             <Parameters>
              <InterpolatingParam id="1626" interp="linr"  time="0/1" value="1" leadInLength="0/1"  name="volume"/>
              <Parameter id="1627"  name="captions"/>
             </Parameters>
             <Attributes>
              <Attribute id="1628" value="" name="ident"/>
              <Attribute id="1629" value="44100" name="sampleRate"/>
              <Attribute id="1630" value="16" name="bitDepth"/>
              <Attribute id="1631" value="1" name="gain"/>
              <Attribute id="1632" value="0" name="mixToMono"/>
             </Attributes>
            </AMFile>
            <ScreenVMFile id="1633" start="5533" duration="102" scalar="1/1" mediaStart="7999/1" mediaDuration="102/1" trackNumber="0" src="5" >
             <Transformer>
              <VectorParam id="1634"  name="translation">
               <InterpolatingParam id="1635" interp="linr"  time="-9999999/1" value="0" leadInLength="0/1"  />
               <InterpolatingParam id="1636" interp="linr"  time="-9999999/1" value="0" leadInLength="0/1"  />
               <InterpolatingParam id="1637" interp="linr"  time="-9999999/1" value="0" leadInLength="0/1"  />
              </VectorParam>
              <VectorParam id="1638"  name="rotation">
               <InterpolatingParam id="1639" interp="linr"  time="-9999999/1" value="0" leadInLength="0/1"  />
               <InterpolatingParam id="1640" interp="linr"  time="-9999999/1" value="0" leadInLength="0/1"  />
               <InterpolatingParam id="1641" interp="linr"  time="-9999999/1" value="0" leadInLength="0/1"  />
              </VectorParam>
              <VectorParam id="1642"  name="shear">
               <InterpolatingParam id="1643" interp="linr"  time="-9999999/1" value="0" leadInLength="0/1"  />
               <InterpolatingParam id="1644" interp="linr"  time="-9999999/1" value="0" leadInLength="0/1"  />
               <InterpolatingParam id="1645" interp="linr"  time="-9999999/1" value="0" leadInLength="0/1"  />
              </VectorParam>
              <VectorParam id="1646"  name="scale">
               <InterpolatingParam id="1647" interp="linr"  time="-9999999/1" value="1" leadInLength="0/1"  />
               <InterpolatingParam id="1648" interp="linr"  time="-9999999/1" value="1" leadInLength="0/1"  />
               <InterpolatingParam id="1649" interp="linr"  time="-9999999/1" value="1" leadInLength="0/1"  />
              </VectorParam>
              <VectorParam id="1650"  name="anchor">
               <InterpolatingParam id="1651" interp="linr"  time="0/1" value="0" leadInLength="0/1"  />
               <InterpolatingParam id="1652" interp="linr"  time="0/1" value="0" leadInLength="0/1"  />
               <InterpolatingParam id="1653" interp="linr"  time="0/1" value="0" leadInLength="0/1"  />
              </VectorParam>
             </Transformer>
             <Parameters>
              <VectorParam id="1654"  name="sourceCrop">
               <InterpolatingParam id="1655" interp="linr"  time="0/1" value="0" leadInLength="0/1"  />
               <InterpolatingParam id="1656" interp="linr"  time="0/1" value="0" leadInLength="0/1"  />
               <InterpolatingParam id="1657" interp="linr"  time="0/1" value="0" leadInLength="0/1"  />
               <InterpolatingParam id="1658" interp="linr"  time="0/1" value="0" leadInLength="0/1"  />
              </VectorParam>
              <VectorParam id="1659"  name="geometryCrop">
               <InterpolatingParam id="1660" interp="linr"  time="-9999999/1" value="0" leadInLength="0/1"  />
               <InterpolatingParam id="1661" interp="linr"  time="-9999999/1" value="0" leadInLength="0/1"  />
               <InterpolatingParam id="1662" interp="linr"  time="-9999999/1" value="0" leadInLength="0/1"  />
               <InterpolatingParam id="1663" interp="linr"  time="-9999999/1" value="0" leadInLength="0/1"  />
              </VectorParam>
              <InterpolatingParam id="1664" interp="linr"  time="-9999999/1" value="1" leadInLength="0/1"  name="opacity"/>
              <InterpolatingParam id="1665" interp="linr"  time="0/1" value="0" leadInLength="0/1"  name="cursorOpacity"/>
              <InterpolatingParam id="1666" interp="linr"  time="0/1" value="0" leadInLength="0/1"  name="cursorScale"/>
             </Parameters>
             <Attributes>
              <Attribute id="1667" value="" name="ident"/>
             </Attributes>
             <ExtraData>
              <Entry key="ZoomPanBin">
               <ZoomPanBin id="1668"  >
                <ZoomPanKeyframes>
                 <ZoomPanKeyframe id="1669" timeRangeEnd="-9999999/1" timeRangeDuration="0/1" interpolaterName=""  />
                </ZoomPanKeyframes>
               </ZoomPanBin>
              </Entry>
              <Entry key="CursorEffectBin">
               <CursorEffectBin id="1670"  >
                <CursorEffectKeyframes>
                </CursorEffectKeyframes>
               </CursorEffectBin>
              </Entry>
             </ExtraData>
            </ScreenVMFile>
            <MetaData>
             <entry key="AutoAppliedSmartFocus" val="False"/>
             <entry key="WinSubProjectDisplayName" val=""/>
            </MetaData>
           </UnifiedMedia>
           <UnifiedMedia id="1671"  >
            <AMFile id="1672" start="5635" duration="76" scalar="1/1" mediaStart="8113/1" mediaDuration="76/1" trackNumber="1" src="5" channelNumber="0,1" >
             <Parameters>
              <InterpolatingParam id="1673" interp="linr"  time="0/1" value="1" leadInLength="0/1"  name="volume"/>
              <Parameter id="1674"  name="captions"/>
             </Parameters>
             <Attributes>
              <Attribute id="1675" value="" name="ident"/>
              <Attribute id="1676" value="44100" name="sampleRate"/>
              <Attribute id="1677" value="16" name="bitDepth"/>
              <Attribute id="1678" value="1" name="gain"/>
              <Attribute id="1679" value="0" name="mixToMono"/>
             </Attributes>
            </AMFile>
            <ScreenVMFile id="1680" start="5635" duration="76" scalar="1/1" mediaStart="8113/1" mediaDuration="76/1" trackNumber="0" src="5" >
             <Transformer>
              <VectorParam id="1681"  name="translation">
               <InterpolatingParam id="1682" interp="linr"  time="-9999999/1" value="0" leadInLength="0/1"  />
               <InterpolatingParam id="1683" interp="linr"  time="-9999999/1" value="0" leadInLength="0/1"  />
               <InterpolatingParam id="1684" interp="linr"  time="-9999999/1" value="0" leadInLength="0/1"  />
              </VectorParam>
              <VectorParam id="1685"  name="rotation">
               <InterpolatingParam id="1686" interp="linr"  time="-9999999/1" value="0" leadInLength="0/1"  />
               <InterpolatingParam id="1687" interp="linr"  time="-9999999/1" value="0" leadInLength="0/1"  />
               <InterpolatingParam id="1688" interp="linr"  time="-9999999/1" value="0" leadInLength="0/1"  />
              </VectorParam>
              <VectorParam id="1689"  name="shear">
               <InterpolatingParam id="1690" interp="linr"  time="-9999999/1" value="0" leadInLength="0/1"  />
               <InterpolatingParam id="1691" interp="linr"  time="-9999999/1" value="0" leadInLength="0/1"  />
               <InterpolatingParam id="1692" interp="linr"  time="-9999999/1" value="0" leadInLength="0/1"  />
              </VectorParam>
              <VectorParam id="1693"  name="scale">
               <InterpolatingParam id="1694" interp="linr"  time="-9999999/1" value="1" leadInLength="0/1"  />
               <InterpolatingParam id="1695" interp="linr"  time="-9999999/1" value="1" leadInLength="0/1"  />
               <InterpolatingParam id="1696" interp="linr"  time="-9999999/1" value="1" leadInLength="0/1"  />
              </VectorParam>
              <VectorParam id="1697"  name="anchor">
               <InterpolatingParam id="1698" interp="linr"  time="0/1" value="0" leadInLength="0/1"  />
               <InterpolatingParam id="1699" interp="linr"  time="0/1" value="0" leadInLength="0/1"  />
               <InterpolatingParam id="1700" interp="linr"  time="0/1" value="0" leadInLength="0/1"  />
              </VectorParam>
             </Transformer>
             <Parameters>
              <VectorParam id="1701"  name="sourceCrop">
               <InterpolatingParam id="1702" interp="linr"  time="0/1" value="0" leadInLength="0/1"  />
               <InterpolatingParam id="1703" interp="linr"  time="0/1" value="0" leadInLength="0/1"  />
               <InterpolatingParam id="1704" interp="linr"  time="0/1" value="0" leadInLength="0/1"  />
               <InterpolatingParam id="1705" interp="linr"  time="0/1" value="0" leadInLength="0/1"  />
              </VectorParam>
              <VectorParam id="1706"  name="geometryCrop">
               <InterpolatingParam id="1707" interp="linr"  time="-9999999/1" value="0" leadInLength="0/1"  />
               <InterpolatingParam id="1708" interp="linr"  time="-9999999/1" value="0" leadInLength="0/1"  />
               <InterpolatingParam id="1709" interp="linr"  time="-9999999/1" value="0" leadInLength="0/1"  />
               <InterpolatingParam id="1710" interp="linr"  time="-9999999/1" value="0" leadInLength="0/1"  />
              </VectorParam>
              <InterpolatingParam id="1711" interp="linr"  time="-9999999/1" value="1" leadInLength="0/1"  name="opacity"/>
              <InterpolatingParam id="1712" interp="linr"  time="0/1" value="0" leadInLength="0/1"  name="cursorOpacity"/>
              <InterpolatingParam id="1713" interp="linr"  time="0/1" value="0" leadInLength="0/1"  name="cursorScale"/>
             </Parameters>
             <Attributes>
              <Attribute id="1714" value="" name="ident"/>
             </Attributes>
             <ExtraData>
              <Entry key="ZoomPanBin">
               <ZoomPanBin id="1715"  >
                <ZoomPanKeyframes>
                 <ZoomPanKeyframe id="1716" timeRangeEnd="-9999999/1" timeRangeDuration="0/1" interpolaterName=""  />
                </ZoomPanKeyframes>
               </ZoomPanBin>
              </Entry>
              <Entry key="CursorEffectBin">
               <CursorEffectBin id="1717"  >
                <CursorEffectKeyframes>
                </CursorEffectKeyframes>
               </CursorEffectBin>
              </Entry>
             </ExtraData>
            </ScreenVMFile>
            <MetaData>
             <entry key="AutoAppliedSmartFocus" val="False"/>
             <entry key="WinSubProjectDisplayName" val=""/>
            </MetaData>
           </UnifiedMedia>
           <UnifiedMedia id="1718"  >
            <AMFile id="1719" start="5711" duration="130" scalar="1/1" mediaStart="8200/1" mediaDuration="130/1" trackNumber="1" src="5" channelNumber="0,1" >
             <Parameters>
              <InterpolatingParam id="1720" interp="linr"  time="0/1" value="1" leadInLength="0/1"  name="volume"/>
              <Parameter id="1721"  name="captions"/>
             </Parameters>
             <Attributes>
              <Attribute id="1722" value="" name="ident"/>
              <Attribute id="1723" value="44100" name="sampleRate"/>
              <Attribute id="1724" value="16" name="bitDepth"/>
              <Attribute id="1725" value="1" name="gain"/>
              <Attribute id="1726" value="0" name="mixToMono"/>
             </Attributes>
            </AMFile>
            <ScreenVMFile id="1727" start="5711" duration="130" scalar="1/1" mediaStart="8200/1" mediaDuration="130/1" trackNumber="0" src="5" >
             <Transformer>
              <VectorParam id="1728"  name="translation">
               <InterpolatingParam id="1729" interp="linr"  time="-9999999/1" value="0" leadInLength="0/1"  />
               <InterpolatingParam id="1730" interp="linr"  time="-9999999/1" value="0" leadInLength="0/1"  />
               <InterpolatingParam id="1731" interp="linr"  time="-9999999/1" value="0" leadInLength="0/1"  />
              </VectorParam>
              <VectorParam id="1732"  name="rotation">
               <InterpolatingParam id="1733" interp="linr"  time="-9999999/1" value="0" leadInLength="0/1"  />
               <InterpolatingParam id="1734" interp="linr"  time="-9999999/1" value="0" leadInLength="0/1"  />
               <InterpolatingParam id="1735" interp="linr"  time="-9999999/1" value="0" leadInLength="0/1"  />
              </VectorParam>
              <VectorParam id="1736"  name="shear">
               <InterpolatingParam id="1737" interp="linr"  time="-9999999/1" value="0" leadInLength="0/1"  />
               <InterpolatingParam id="1738" interp="linr"  time="-9999999/1" value="0" leadInLength="0/1"  />
               <InterpolatingParam id="1739" interp="linr"  time="-9999999/1" value="0" leadInLength="0/1"  />
              </VectorParam>
              <VectorParam id="1740"  name="scale">
               <InterpolatingParam id="1741" interp="linr"  time="-9999999/1" value="1" leadInLength="0/1"  />
               <InterpolatingParam id="1742" interp="linr"  time="-9999999/1" value="1" leadInLength="0/1"  />
               <InterpolatingParam id="1743" interp="linr"  time="-9999999/1" value="1" leadInLength="0/1"  />
              </VectorParam>
              <VectorParam id="1744"  name="anchor">
               <InterpolatingParam id="1745" interp="linr"  time="0/1" value="0" leadInLength="0/1"  />
               <InterpolatingParam id="1746" interp="linr"  time="0/1" value="0" leadInLength="0/1"  />
               <InterpolatingParam id="1747" interp="linr"  time="0/1" value="0" leadInLength="0/1"  />
              </VectorParam>
             </Transformer>
             <Parameters>
              <VectorParam id="1748"  name="sourceCrop">
               <InterpolatingParam id="1749" interp="linr"  time="0/1" value="0" leadInLength="0/1"  />
               <InterpolatingParam id="1750" interp="linr"  time="0/1" value="0" leadInLength="0/1"  />
               <InterpolatingParam id="1751" interp="linr"  time="0/1" value="0" leadInLength="0/1"  />
               <InterpolatingParam id="1752" interp="linr"  time="0/1" value="0" leadInLength="0/1"  />
              </VectorParam>
              <VectorParam id="1753"  name="geometryCrop">
               <InterpolatingParam id="1754" interp="linr"  time="-9999999/1" value="0" leadInLength="0/1"  />
               <InterpolatingParam id="1755" interp="linr"  time="-9999999/1" value="0" leadInLength="0/1"  />
               <InterpolatingParam id="1756" interp="linr"  time="-9999999/1" value="0" leadInLength="0/1"  />
               <InterpolatingParam id="1757" interp="linr"  time="-9999999/1" value="0" leadInLength="0/1"  />
              </VectorParam>
              <InterpolatingParam id="1758" interp="linr"  time="-9999999/1" value="1" leadInLength="0/1"  name="opacity"/>
              <InterpolatingParam id="1759" interp="linr"  time="0/1" value="0" leadInLength="0/1"  name="cursorOpacity"/>
              <InterpolatingParam id="1760" interp="linr"  time="0/1" value="0" leadInLength="0/1"  name="cursorScale"/>
             </Parameters>
             <Attributes>
              <Attribute id="1761" value="" name="ident"/>
             </Attributes>
             <ExtraData>
              <Entry key="ZoomPanBin">
               <ZoomPanBin id="1762"  >
                <ZoomPanKeyframes>
                 <ZoomPanKeyframe id="1763" timeRangeEnd="-9999999/1" timeRangeDuration="0/1" interpolaterName=""  />
                </ZoomPanKeyframes>
               </ZoomPanBin>
              </Entry>
              <Entry key="CursorEffectBin">
               <CursorEffectBin id="1764"  >
                <CursorEffectKeyframes>
                </CursorEffectKeyframes>
               </CursorEffectBin>
              </Entry>
             </ExtraData>
            </ScreenVMFile>
            <MetaData>
             <entry key="AutoAppliedSmartFocus" val="False"/>
             <entry key="WinSubProjectDisplayName" val=""/>
            </MetaData>
           </UnifiedMedia>
           <UnifiedMedia id="1765"  >
            <AMFile id="1766" start="5841" duration="174" scalar="1/1" mediaStart="8784/1" mediaDuration="174/1" trackNumber="1" src="5" channelNumber="0,1" >
             <Parameters>
              <InterpolatingParam id="1767" interp="linr"  time="0/1" value="1" leadInLength="0/1"  name="volume"/>
              <Parameter id="1768"  name="captions"/>
             </Parameters>
             <Attributes>
              <Attribute id="1769" value="" name="ident"/>
              <Attribute id="1770" value="44100" name="sampleRate"/>
              <Attribute id="1771" value="16" name="bitDepth"/>
              <Attribute id="1772" value="1" name="gain"/>
              <Attribute id="1773" value="0" name="mixToMono"/>
             </Attributes>
            </AMFile>
            <ScreenVMFile id="1774" start="5841" duration="174" scalar="1/1" mediaStart="8784/1" mediaDuration="174/1" trackNumber="0" src="5" >
             <Transformer>
              <VectorParam id="1775"  name="translation">
               <InterpolatingParam id="1776" interp="linr"  time="-9999999/1" value="0" leadInLength="0/1"  />
               <InterpolatingParam id="1777" interp="linr"  time="-9999999/1" value="0" leadInLength="0/1"  />
               <InterpolatingParam id="1778" interp="linr"  time="-9999999/1" value="0" leadInLength="0/1"  />
              </VectorParam>
              <VectorParam id="1779"  name="rotation">
               <InterpolatingParam id="1780" interp="linr"  time="-9999999/1" value="0" leadInLength="0/1"  />
               <InterpolatingParam id="1781" interp="linr"  time="-9999999/1" value="0" leadInLength="0/1"  />
               <InterpolatingParam id="1782" interp="linr"  time="-9999999/1" value="0" leadInLength="0/1"  />
              </VectorParam>
              <VectorParam id="1783"  name="shear">
               <InterpolatingParam id="1784" interp="linr"  time="-9999999/1" value="0" leadInLength="0/1"  />
               <InterpolatingParam id="1785" interp="linr"  time="-9999999/1" value="0" leadInLength="0/1"  />
               <InterpolatingParam id="1786" interp="linr"  time="-9999999/1" value="0" leadInLength="0/1"  />
              </VectorParam>
              <VectorParam id="1787"  name="scale">
               <InterpolatingParam id="1788" interp="linr"  time="-9999999/1" value="1" leadInLength="0/1"  />
               <InterpolatingParam id="1789" interp="linr"  time="-9999999/1" value="1" leadInLength="0/1"  />
               <InterpolatingParam id="1790" interp="linr"  time="-9999999/1" value="1" leadInLength="0/1"  />
              </VectorParam>
              <VectorParam id="1791"  name="anchor">
               <InterpolatingParam id="1792" interp="linr"  time="0/1" value="0" leadInLength="0/1"  />
               <InterpolatingParam id="1793" interp="linr"  time="0/1" value="0" leadInLength="0/1"  />
               <InterpolatingParam id="1794" interp="linr"  time="0/1" value="0" leadInLength="0/1"  />
              </VectorParam>
             </Transformer>
             <Parameters>
              <VectorParam id="1795"  name="sourceCrop">
               <InterpolatingParam id="1796" interp="linr"  time="0/1" value="0" leadInLength="0/1"  />
               <InterpolatingParam id="1797" interp="linr"  time="0/1" value="0" leadInLength="0/1"  />
               <InterpolatingParam id="1798" interp="linr"  time="0/1" value="0" leadInLength="0/1"  />
               <InterpolatingParam id="1799" interp="linr"  time="0/1" value="0" leadInLength="0/1"  />
              </VectorParam>
              <VectorParam id="1800"  name="geometryCrop">
               <InterpolatingParam id="1801" interp="linr"  time="-9999999/1" value="0" leadInLength="0/1"  />
               <InterpolatingParam id="1802" interp="linr"  time="-9999999/1" value="0" leadInLength="0/1"  />
               <InterpolatingParam id="1803" interp="linr"  time="-9999999/1" value="0" leadInLength="0/1"  />
               <InterpolatingParam id="1804" interp="linr"  time="-9999999/1" value="0" leadInLength="0/1"  />
              </VectorParam>
              <InterpolatingParam id="1805" interp="linr"  time="-9999999/1" value="1" leadInLength="0/1"  name="opacity"/>
              <InterpolatingParam id="1806" interp="linr"  time="0/1" value="0" leadInLength="0/1"  name="cursorOpacity"/>
              <InterpolatingParam id="1807" interp="linr"  time="0/1" value="0" leadInLength="0/1"  name="cursorScale"/>
             </Parameters>
             <Attributes>
              <Attribute id="1808" value="" name="ident"/>
             </Attributes>
             <ExtraData>
              <Entry key="ZoomPanBin">
               <ZoomPanBin id="1809"  >
                <ZoomPanKeyframes>
                 <ZoomPanKeyframe id="1810" timeRangeEnd="-9999999/1" timeRangeDuration="0/1" interpolaterName=""  />
                </ZoomPanKeyframes>
               </ZoomPanBin>
              </Entry>
              <Entry key="CursorEffectBin">
               <CursorEffectBin id="1811"  >
                <CursorEffectKeyframes>
                </CursorEffectKeyframes>
               </CursorEffectBin>
              </Entry>
             </ExtraData>
            </ScreenVMFile>
            <MetaData>
             <entry key="AutoAppliedSmartFocus" val="False"/>
             <entry key="WinSubProjectDisplayName" val=""/>
            </MetaData>
           </UnifiedMedia>
           <UnifiedMedia id="1812"  >
            <AMFile id="1813" start="6015" duration="112" scalar="1/1" mediaStart="8968/1" mediaDuration="112/1" trackNumber="1" src="5" channelNumber="0,1" >
             <Parameters>
              <InterpolatingParam id="1814" interp="linr"  time="0/1" value="1" leadInLength="0/1"  name="volume"/>
              <Parameter id="1815"  name="captions"/>
             </Parameters>
             <Attributes>
              <Attribute id="1816" value="" name="ident"/>
              <Attribute id="1817" value="44100" name="sampleRate"/>
              <Attribute id="1818" value="16" name="bitDepth"/>
              <Attribute id="1819" value="1" name="gain"/>
              <Attribute id="1820" value="0" name="mixToMono"/>
             </Attributes>
            </AMFile>
            <ScreenVMFile id="1821" start="6015" duration="112" scalar="1/1" mediaStart="8968/1" mediaDuration="112/1" trackNumber="0" src="5" >
             <Transformer>
              <VectorParam id="1822"  name="translation">
               <InterpolatingParam id="1823" interp="linr"  time="-9999999/1" value="0" leadInLength="0/1"  />
               <InterpolatingParam id="1824" interp="linr"  time="-9999999/1" value="0" leadInLength="0/1"  />
               <InterpolatingParam id="1825" interp="linr"  time="-9999999/1" value="0" leadInLength="0/1"  />
              </VectorParam>
              <VectorParam id="1826"  name="rotation">
               <InterpolatingParam id="1827" interp="linr"  time="-9999999/1" value="0" leadInLength="0/1"  />
               <InterpolatingParam id="1828" interp="linr"  time="-9999999/1" value="0" leadInLength="0/1"  />
               <InterpolatingParam id="1829" interp="linr"  time="-9999999/1" value="0" leadInLength="0/1"  />
              </VectorParam>
              <VectorParam id="1830"  name="shear">
               <InterpolatingParam id="1831" interp="linr"  time="-9999999/1" value="0" leadInLength="0/1"  />
               <InterpolatingParam id="1832" interp="linr"  time="-9999999/1" value="0" leadInLength="0/1"  />
               <InterpolatingParam id="1833" interp="linr"  time="-9999999/1" value="0" leadInLength="0/1"  />
              </VectorParam>
              <VectorParam id="1834"  name="scale">
               <InterpolatingParam id="1835" interp="linr"  time="-9999999/1" value="1" leadInLength="0/1"  />
               <InterpolatingParam id="1836" interp="linr"  time="-9999999/1" value="1" leadInLength="0/1"  />
               <InterpolatingParam id="1837" interp="linr"  time="-9999999/1" value="1" leadInLength="0/1"  />
              </VectorParam>
              <VectorParam id="1838"  name="anchor">
               <InterpolatingParam id="1839" interp="linr"  time="0/1" value="0" leadInLength="0/1"  />
               <InterpolatingParam id="1840" interp="linr"  time="0/1" value="0" leadInLength="0/1"  />
               <InterpolatingParam id="1841" interp="linr"  time="0/1" value="0" leadInLength="0/1"  />
              </VectorParam>
             </Transformer>
             <Parameters>
              <VectorParam id="1842"  name="sourceCrop">
               <InterpolatingParam id="1843" interp="linr"  time="0/1" value="0" leadInLength="0/1"  />
               <InterpolatingParam id="1844" interp="linr"  time="0/1" value="0" leadInLength="0/1"  />
               <InterpolatingParam id="1845" interp="linr"  time="0/1" value="0" leadInLength="0/1"  />
               <InterpolatingParam id="1846" interp="linr"  time="0/1" value="0" leadInLength="0/1"  />
              </VectorParam>
              <VectorParam id="1847"  name="geometryCrop">
               <InterpolatingParam id="1848" interp="linr"  time="-9999999/1" value="0" leadInLength="0/1"  />
               <InterpolatingParam id="1849" interp="linr"  time="-9999999/1" value="0" leadInLength="0/1"  />
               <InterpolatingParam id="1850" interp="linr"  time="-9999999/1" value="0" leadInLength="0/1"  />
               <InterpolatingParam id="1851" interp="linr"  time="-9999999/1" value="0" leadInLength="0/1"  />
              </VectorParam>
              <InterpolatingParam id="1852" interp="linr"  time="-9999999/1" value="1" leadInLength="0/1"  name="opacity"/>
              <InterpolatingParam id="1853" interp="linr"  time="0/1" value="0" leadInLength="0/1"  name="cursorOpacity"/>
              <InterpolatingParam id="1854" interp="linr"  time="0/1" value="0" leadInLength="0/1"  name="cursorScale"/>
             </Parameters>
             <Attributes>
              <Attribute id="1855" value="" name="ident"/>
             </Attributes>
             <ExtraData>
              <Entry key="ZoomPanBin">
               <ZoomPanBin id="1856"  >
                <ZoomPanKeyframes>
                 <ZoomPanKeyframe id="1857" timeRangeEnd="-9999999/1" timeRangeDuration="0/1" interpolaterName=""  />
                </ZoomPanKeyframes>
               </ZoomPanBin>
              </Entry>
              <Entry key="CursorEffectBin">
               <CursorEffectBin id="1858"  >
                <CursorEffectKeyframes>
                </CursorEffectKeyframes>
               </CursorEffectBin>
              </Entry>
             </ExtraData>
            </ScreenVMFile>
            <MetaData>
             <entry key="AutoAppliedSmartFocus" val="False"/>
             <entry key="WinSubProjectDisplayName" val=""/>
            </MetaData>
           </UnifiedMedia>
           <UnifiedMedia id="1859"  >
            <AMFile id="1860" start="6127" duration="138" scalar="1/1" mediaStart="9094/1" mediaDuration="138/1" trackNumber="1" src="5" channelNumber="0,1" >
             <Parameters>
              <InterpolatingParam id="1861" interp="linr"  time="0/1" value="1" leadInLength="0/1"  name="volume"/>
              <Parameter id="1862"  name="captions"/>
             </Parameters>
             <Attributes>
              <Attribute id="1863" value="" name="ident"/>
              <Attribute id="1864" value="44100" name="sampleRate"/>
              <Attribute id="1865" value="16" name="bitDepth"/>
              <Attribute id="1866" value="1" name="gain"/>
              <Attribute id="1867" value="0" name="mixToMono"/>
             </Attributes>
            </AMFile>
            <ScreenVMFile id="1868" start="6127" duration="138" scalar="1/1" mediaStart="9094/1" mediaDuration="138/1" trackNumber="0" src="5" >
             <Transformer>
              <VectorParam id="1869"  name="translation">
               <InterpolatingParam id="1870" interp="linr"  time="-9999999/1" value="0" leadInLength="0/1"  />
               <InterpolatingParam id="1871" interp="linr"  time="-9999999/1" value="0" leadInLength="0/1"  />
               <InterpolatingParam id="1872" interp="linr"  time="-9999999/1" value="0" leadInLength="0/1"  />
              </VectorParam>
              <VectorParam id="1873"  name="rotation">
               <InterpolatingParam id="1874" interp="linr"  time="-9999999/1" value="0" leadInLength="0/1"  />
               <InterpolatingParam id="1875" interp="linr"  time="-9999999/1" value="0" leadInLength="0/1"  />
               <InterpolatingParam id="1876" interp="linr"  time="-9999999/1" value="0" leadInLength="0/1"  />
              </VectorParam>
              <VectorParam id="1877"  name="shear">
               <InterpolatingParam id="1878" interp="linr"  time="-9999999/1" value="0" leadInLength="0/1"  />
               <InterpolatingParam id="1879" interp="linr"  time="-9999999/1" value="0" leadInLength="0/1"  />
               <InterpolatingParam id="1880" interp="linr"  time="-9999999/1" value="0" leadInLength="0/1"  />
              </VectorParam>
              <VectorParam id="1881"  name="scale">
               <InterpolatingParam id="1882" interp="linr"  time="-9999999/1" value="1" leadInLength="0/1"  />
               <InterpolatingParam id="1883" interp="linr"  time="-9999999/1" value="1" leadInLength="0/1"  />
               <InterpolatingParam id="1884" interp="linr"  time="-9999999/1" value="1" leadInLength="0/1"  />
              </VectorParam>
              <VectorParam id="1885"  name="anchor">
               <InterpolatingParam id="1886" interp="linr"  time="0/1" value="0" leadInLength="0/1"  />
               <InterpolatingParam id="1887" interp="linr"  time="0/1" value="0" leadInLength="0/1"  />
               <InterpolatingParam id="1888" interp="linr"  time="0/1" value="0" leadInLength="0/1"  />
              </VectorParam>
             </Transformer>
             <Parameters>
              <VectorParam id="1889"  name="sourceCrop">
               <InterpolatingParam id="1890" interp="linr"  time="0/1" value="0" leadInLength="0/1"  />
               <InterpolatingParam id="1891" interp="linr"  time="0/1" value="0" leadInLength="0/1"  />
               <InterpolatingParam id="1892" interp="linr"  time="0/1" value="0" leadInLength="0/1"  />
               <InterpolatingParam id="1893" interp="linr"  time="0/1" value="0" leadInLength="0/1"  />
              </VectorParam>
              <VectorParam id="1894"  name="geometryCrop">
               <InterpolatingParam id="1895" interp="linr"  time="-9999999/1" value="0" leadInLength="0/1"  />
               <InterpolatingParam id="1896" interp="linr"  time="-9999999/1" value="0" leadInLength="0/1"  />
               <InterpolatingParam id="1897" interp="linr"  time="-9999999/1" value="0" leadInLength="0/1"  />
               <InterpolatingParam id="1898" interp="linr"  time="-9999999/1" value="0" leadInLength="0/1"  />
              </VectorParam>
              <InterpolatingParam id="1899" interp="linr"  time="-9999999/1" value="1" leadInLength="0/1"  name="opacity"/>
              <InterpolatingParam id="1900" interp="linr"  time="0/1" value="0" leadInLength="0/1"  name="cursorOpacity"/>
              <InterpolatingParam id="1901" interp="linr"  time="0/1" value="0" leadInLength="0/1"  name="cursorScale"/>
             </Parameters>
             <Attributes>
              <Attribute id="1902" value="" name="ident"/>
             </Attributes>
             <ExtraData>
              <Entry key="ZoomPanBin">
               <ZoomPanBin id="1903"  >
                <ZoomPanKeyframes>
                 <ZoomPanKeyframe id="1904" timeRangeEnd="-9999999/1" timeRangeDuration="0/1" interpolaterName=""  />
                </ZoomPanKeyframes>
               </ZoomPanBin>
              </Entry>
              <Entry key="CursorEffectBin">
               <CursorEffectBin id="1905"  >
                <CursorEffectKeyframes>
                </CursorEffectKeyframes>
               </CursorEffectBin>
              </Entry>
             </ExtraData>
            </ScreenVMFile>
            <MetaData>
             <entry key="AutoAppliedSmartFocus" val="False"/>
             <entry key="WinSubProjectDisplayName" val=""/>
            </MetaData>
           </UnifiedMedia>
           <UnifiedMedia id="1906"  >
            <AMFile id="1907" start="6265" duration="164" scalar="1/1" mediaStart="9402/1" mediaDuration="164/1" trackNumber="1" src="5" channelNumber="0,1" >
             <Parameters>
              <InterpolatingParam id="1908" interp="linr"  time="0/1" value="1" leadInLength="0/1"  name="volume"/>
              <Parameter id="1909"  name="captions"/>
             </Parameters>
             <Attributes>
              <Attribute id="1910" value="" name="ident"/>
              <Attribute id="1911" value="44100" name="sampleRate"/>
              <Attribute id="1912" value="16" name="bitDepth"/>
              <Attribute id="1913" value="1" name="gain"/>
              <Attribute id="1914" value="0" name="mixToMono"/>
             </Attributes>
            </AMFile>
            <ScreenVMFile id="1915" start="6265" duration="164" scalar="1/1" mediaStart="9402/1" mediaDuration="164/1" trackNumber="0" src="5" >
             <Transformer>
              <VectorParam id="1916"  name="translation">
               <InterpolatingParam id="1917" interp="linr"  time="-9999999/1" value="0" leadInLength="0/1"  />
               <InterpolatingParam id="1918" interp="linr"  time="-9999999/1" value="0" leadInLength="0/1"  />
               <InterpolatingParam id="1919" interp="linr"  time="-9999999/1" value="0" leadInLength="0/1"  />
              </VectorParam>
              <VectorParam id="1920"  name="rotation">
               <InterpolatingParam id="1921" interp="linr"  time="-9999999/1" value="0" leadInLength="0/1"  />
               <InterpolatingParam id="1922" interp="linr"  time="-9999999/1" value="0" leadInLength="0/1"  />
               <InterpolatingParam id="1923" interp="linr"  time="-9999999/1" value="0" leadInLength="0/1"  />
              </VectorParam>
              <VectorParam id="1924"  name="shear">
               <InterpolatingParam id="1925" interp="linr"  time="-9999999/1" value="0" leadInLength="0/1"  />
               <InterpolatingParam id="1926" interp="linr"  time="-9999999/1" value="0" leadInLength="0/1"  />
               <InterpolatingParam id="1927" interp="linr"  time="-9999999/1" value="0" leadInLength="0/1"  />
              </VectorParam>
              <VectorParam id="1928"  name="scale">
               <InterpolatingParam id="1929" interp="linr"  time="-9999999/1" value="1" leadInLength="0/1"  />
               <InterpolatingParam id="1930" interp="linr"  time="-9999999/1" value="1" leadInLength="0/1"  />
               <InterpolatingParam id="1931" interp="linr"  time="-9999999/1" value="1" leadInLength="0/1"  />
              </VectorParam>
              <VectorParam id="1932"  name="anchor">
               <InterpolatingParam id="1933" interp="linr"  time="0/1" value="0" leadInLength="0/1"  />
               <InterpolatingParam id="1934" interp="linr"  time="0/1" value="0" leadInLength="0/1"  />
               <InterpolatingParam id="1935" interp="linr"  time="0/1" value="0" leadInLength="0/1"  />
              </VectorParam>
             </Transformer>
             <Parameters>
              <VectorParam id="1936"  name="sourceCrop">
               <InterpolatingParam id="1937" interp="linr"  time="0/1" value="0" leadInLength="0/1"  />
               <InterpolatingParam id="1938" interp="linr"  time="0/1" value="0" leadInLength="0/1"  />
               <InterpolatingParam id="1939" interp="linr"  time="0/1" value="0" leadInLength="0/1"  />
               <InterpolatingParam id="1940" interp="linr"  time="0/1" value="0" leadInLength="0/1"  />
              </VectorParam>
              <VectorParam id="1941"  name="geometryCrop">
               <InterpolatingParam id="1942" interp="linr"  time="-9999999/1" value="0" leadInLength="0/1"  />
               <InterpolatingParam id="1943" interp="linr"  time="-9999999/1" value="0" leadInLength="0/1"  />
               <InterpolatingParam id="1944" interp="linr"  time="-9999999/1" value="0" leadInLength="0/1"  />
               <InterpolatingParam id="1945" interp="linr"  time="-9999999/1" value="0" leadInLength="0/1"  />
              </VectorParam>
              <InterpolatingParam id="1946" interp="linr"  time="-9999999/1" value="1" leadInLength="0/1"  name="opacity"/>
              <InterpolatingParam id="1947" interp="linr"  time="0/1" value="0" leadInLength="0/1"  name="cursorOpacity"/>
              <InterpolatingParam id="1948" interp="linr"  time="0/1" value="0" leadInLength="0/1"  name="cursorScale"/>
             </Parameters>
             <Attributes>
              <Attribute id="1949" value="" name="ident"/>
             </Attributes>
             <ExtraData>
              <Entry key="ZoomPanBin">
               <ZoomPanBin id="1950"  >
                <ZoomPanKeyframes>
                 <ZoomPanKeyframe id="1951" timeRangeEnd="-9999999/1" timeRangeDuration="0/1" interpolaterName=""  />
                </ZoomPanKeyframes>
               </ZoomPanBin>
              </Entry>
              <Entry key="CursorEffectBin">
               <CursorEffectBin id="1952"  >
                <CursorEffectKeyframes>
                </CursorEffectKeyframes>
               </CursorEffectBin>
              </Entry>
             </ExtraData>
            </ScreenVMFile>
            <MetaData>
             <entry key="AutoAppliedSmartFocus" val="False"/>
             <entry key="WinSubProjectDisplayName" val=""/>
            </MetaData>
           </UnifiedMedia>
           <UnifiedMedia id="1953"  >
            <AMFile id="1954" start="6429" duration="55" scalar="1/1" mediaStart="9774/1" mediaDuration="55/1" trackNumber="1" src="5" channelNumber="0,1" >
             <Parameters>
              <InterpolatingParam id="1955" interp="linr"  time="0/1" value="1" leadInLength="0/1"  name="volume"/>
              <Parameter id="1956"  name="captions"/>
             </Parameters>
             <Attributes>
              <Attribute id="1957" value="" name="ident"/>
              <Attribute id="1958" value="44100" name="sampleRate"/>
              <Attribute id="1959" value="16" name="bitDepth"/>
              <Attribute id="1960" value="1" name="gain"/>
              <Attribute id="1961" value="0" name="mixToMono"/>
             </Attributes>
            </AMFile>
            <ScreenVMFile id="1962" start="6429" duration="55" scalar="1/1" mediaStart="9774/1" mediaDuration="55/1" trackNumber="0" src="5" >
             <Transformer>
              <VectorParam id="1963"  name="translation">
               <InterpolatingParam id="1964" interp="linr"  time="-9999999/1" value="0" leadInLength="0/1"  />
               <InterpolatingParam id="1965" interp="linr"  time="-9999999/1" value="0" leadInLength="0/1"  />
               <InterpolatingParam id="1966" interp="linr"  time="-9999999/1" value="0" leadInLength="0/1"  />
              </VectorParam>
              <VectorParam id="1967"  name="rotation">
               <InterpolatingParam id="1968" interp="linr"  time="-9999999/1" value="0" leadInLength="0/1"  />
               <InterpolatingParam id="1969" interp="linr"  time="-9999999/1" value="0" leadInLength="0/1"  />
               <InterpolatingParam id="1970" interp="linr"  time="-9999999/1" value="0" leadInLength="0/1"  />
              </VectorParam>
              <VectorParam id="1971"  name="shear">
               <InterpolatingParam id="1972" interp="linr"  time="-9999999/1" value="0" leadInLength="0/1"  />
               <InterpolatingParam id="1973" interp="linr"  time="-9999999/1" value="0" leadInLength="0/1"  />
               <InterpolatingParam id="1974" interp="linr"  time="-9999999/1" value="0" leadInLength="0/1"  />
              </VectorParam>
              <VectorParam id="1975"  name="scale">
               <InterpolatingParam id="1976" interp="linr"  time="-9999999/1" value="1" leadInLength="0/1"  />
               <InterpolatingParam id="1977" interp="linr"  time="-9999999/1" value="1" leadInLength="0/1"  />
               <InterpolatingParam id="1978" interp="linr"  time="-9999999/1" value="1" leadInLength="0/1"  />
              </VectorParam>
              <VectorParam id="1979"  name="anchor">
               <InterpolatingParam id="1980" interp="linr"  time="0/1" value="0" leadInLength="0/1"  />
               <InterpolatingParam id="1981" interp="linr"  time="0/1" value="0" leadInLength="0/1"  />
               <InterpolatingParam id="1982" interp="linr"  time="0/1" value="0" leadInLength="0/1"  />
              </VectorParam>
             </Transformer>
             <Parameters>
              <VectorParam id="1983"  name="sourceCrop">
               <InterpolatingParam id="1984" interp="linr"  time="0/1" value="0" leadInLength="0/1"  />
               <InterpolatingParam id="1985" interp="linr"  time="0/1" value="0" leadInLength="0/1"  />
               <InterpolatingParam id="1986" interp="linr"  time="0/1" value="0" leadInLength="0/1"  />
               <InterpolatingParam id="1987" interp="linr"  time="0/1" value="0" leadInLength="0/1"  />
              </VectorParam>
              <VectorParam id="1988"  name="geometryCrop">
               <InterpolatingParam id="1989" interp="linr"  time="-9999999/1" value="0" leadInLength="0/1"  />
               <InterpolatingParam id="1990" interp="linr"  time="-9999999/1" value="0" leadInLength="0/1"  />
               <InterpolatingParam id="1991" interp="linr"  time="-9999999/1" value="0" leadInLength="0/1"  />
               <InterpolatingParam id="1992" interp="linr"  time="-9999999/1" value="0" leadInLength="0/1"  />
              </VectorParam>
              <InterpolatingParam id="1993" interp="linr"  time="-9999999/1" value="1" leadInLength="0/1"  name="opacity"/>
              <InterpolatingParam id="1994" interp="linr"  time="0/1" value="0" leadInLength="0/1"  name="cursorOpacity"/>
              <InterpolatingParam id="1995" interp="linr"  time="0/1" value="0" leadInLength="0/1"  name="cursorScale"/>
             </Parameters>
             <Attributes>
              <Attribute id="1996" value="" name="ident"/>
             </Attributes>
             <ExtraData>
              <Entry key="ZoomPanBin">
               <ZoomPanBin id="1997"  >
                <ZoomPanKeyframes>
                 <ZoomPanKeyframe id="1998" timeRangeEnd="-9999999/1" timeRangeDuration="0/1" interpolaterName=""  />
                </ZoomPanKeyframes>
               </ZoomPanBin>
              </Entry>
              <Entry key="CursorEffectBin">
               <CursorEffectBin id="1999"  >
                <CursorEffectKeyframes>
                </CursorEffectKeyframes>
               </CursorEffectBin>
              </Entry>
             </ExtraData>
            </ScreenVMFile>
            <MetaData>
             <entry key="AutoAppliedSmartFocus" val="False"/>
             <entry key="WinSubProjectDisplayName" val=""/>
            </MetaData>
           </UnifiedMedia>
           <UnifiedMedia id="2000"  >
            <AMFile id="2001" start="6484" duration="90" scalar="1/1" mediaStart="9844/1" mediaDuration="90/1" trackNumber="1" src="5" channelNumber="0,1" >
             <Parameters>
              <InterpolatingParam id="2002" interp="linr"  time="0/1" value="1" leadInLength="0/1"  name="volume"/>
              <Parameter id="2003"  name="captions"/>
             </Parameters>
             <Attributes>
              <Attribute id="2004" value="" name="ident"/>
              <Attribute id="2005" value="44100" name="sampleRate"/>
              <Attribute id="2006" value="16" name="bitDepth"/>
              <Attribute id="2007" value="1" name="gain"/>
              <Attribute id="2008" value="0" name="mixToMono"/>
             </Attributes>
            </AMFile>
            <ScreenVMFile id="2009" start="6484" duration="90" scalar="1/1" mediaStart="9844/1" mediaDuration="90/1" trackNumber="0" src="5" >
             <Transformer>
              <VectorParam id="2010"  name="translation">
               <InterpolatingParam id="2011" interp="linr"  time="-9999999/1" value="0" leadInLength="0/1"  />
               <InterpolatingParam id="2012" interp="linr"  time="-9999999/1" value="0" leadInLength="0/1"  />
               <InterpolatingParam id="2013" interp="linr"  time="-9999999/1" value="0" leadInLength="0/1"  />
              </VectorParam>
              <VectorParam id="2014"  name="rotation">
               <InterpolatingParam id="2015" interp="linr"  time="-9999999/1" value="0" leadInLength="0/1"  />
               <InterpolatingParam id="2016" interp="linr"  time="-9999999/1" value="0" leadInLength="0/1"  />
               <InterpolatingParam id="2017" interp="linr"  time="-9999999/1" value="0" leadInLength="0/1"  />
              </VectorParam>
              <VectorParam id="2018"  name="shear">
               <InterpolatingParam id="2019" interp="linr"  time="-9999999/1" value="0" leadInLength="0/1"  />
               <InterpolatingParam id="2020" interp="linr"  time="-9999999/1" value="0" leadInLength="0/1"  />
               <InterpolatingParam id="2021" interp="linr"  time="-9999999/1" value="0" leadInLength="0/1"  />
              </VectorParam>
              <VectorParam id="2022"  name="scale">
               <InterpolatingParam id="2023" interp="linr"  time="-9999999/1" value="1" leadInLength="0/1"  />
               <InterpolatingParam id="2024" interp="linr"  time="-9999999/1" value="1" leadInLength="0/1"  />
               <InterpolatingParam id="2025" interp="linr"  time="-9999999/1" value="1" leadInLength="0/1"  />
              </VectorParam>
              <VectorParam id="2026"  name="anchor">
               <InterpolatingParam id="2027" interp="linr"  time="0/1" value="0" leadInLength="0/1"  />
               <InterpolatingParam id="2028" interp="linr"  time="0/1" value="0" leadInLength="0/1"  />
               <InterpolatingParam id="2029" interp="linr"  time="0/1" value="0" leadInLength="0/1"  />
              </VectorParam>
             </Transformer>
             <Parameters>
              <VectorParam id="2030"  name="sourceCrop">
               <InterpolatingParam id="2031" interp="linr"  time="0/1" value="0" leadInLength="0/1"  />
               <InterpolatingParam id="2032" interp="linr"  time="0/1" value="0" leadInLength="0/1"  />
               <InterpolatingParam id="2033" interp="linr"  time="0/1" value="0" leadInLength="0/1"  />
               <InterpolatingParam id="2034" interp="linr"  time="0/1" value="0" leadInLength="0/1"  />
              </VectorParam>
              <VectorParam id="2035"  name="geometryCrop">
               <InterpolatingParam id="2036" interp="linr"  time="-9999999/1" value="0" leadInLength="0/1"  />
               <InterpolatingParam id="2037" interp="linr"  time="-9999999/1" value="0" leadInLength="0/1"  />
               <InterpolatingParam id="2038" interp="linr"  time="-9999999/1" value="0" leadInLength="0/1"  />
               <InterpolatingParam id="2039" interp="linr"  time="-9999999/1" value="0" leadInLength="0/1"  />
              </VectorParam>
              <InterpolatingParam id="2040" interp="linr"  time="-9999999/1" value="1" leadInLength="0/1"  name="opacity"/>
              <InterpolatingParam id="2041" interp="linr"  time="0/1" value="0" leadInLength="0/1"  name="cursorOpacity"/>
              <InterpolatingParam id="2042" interp="linr"  time="0/1" value="0" leadInLength="0/1"  name="cursorScale"/>
             </Parameters>
             <Attributes>
              <Attribute id="2043" value="" name="ident"/>
             </Attributes>
             <ExtraData>
              <Entry key="ZoomPanBin">
               <ZoomPanBin id="2044"  >
                <ZoomPanKeyframes>
                 <ZoomPanKeyframe id="2045" timeRangeEnd="-9999999/1" timeRangeDuration="0/1" interpolaterName=""  />
                </ZoomPanKeyframes>
               </ZoomPanBin>
              </Entry>
              <Entry key="CursorEffectBin">
               <CursorEffectBin id="2046"  >
                <CursorEffectKeyframes>
                </CursorEffectKeyframes>
               </CursorEffectBin>
              </Entry>
             </ExtraData>
            </ScreenVMFile>
            <MetaData>
             <entry key="AutoAppliedSmartFocus" val="False"/>
             <entry key="WinSubProjectDisplayName" val=""/>
            </MetaData>
           </UnifiedMedia>
           <UnifiedMedia id="2047"  >
            <AMFile id="2048" start="6574" duration="325" scalar="1/1" mediaStart="9951/1" mediaDuration="325/1" trackNumber="1" src="5" channelNumber="0,1" >
             <Parameters>
              <InterpolatingParam id="2049" interp="linr"  time="0/1" value="1" leadInLength="0/1"  name="volume"/>
              <Parameter id="2050"  name="captions"/>
             </Parameters>
             <Attributes>
              <Attribute id="2051" value="" name="ident"/>
              <Attribute id="2052" value="44100" name="sampleRate"/>
              <Attribute id="2053" value="16" name="bitDepth"/>
              <Attribute id="2054" value="1" name="gain"/>
              <Attribute id="2055" value="0" name="mixToMono"/>
             </Attributes>
            </AMFile>
            <ScreenVMFile id="2056" start="6574" duration="325" scalar="1/1" mediaStart="9951/1" mediaDuration="325/1" trackNumber="0" src="5" >
             <Transformer>
              <VectorParam id="2057"  name="translation">
               <InterpolatingParam id="2058" interp="linr"  time="-9999999/1" value="0" leadInLength="0/1"  />
               <InterpolatingParam id="2059" interp="linr"  time="-9999999/1" value="0" leadInLength="0/1"  />
               <InterpolatingParam id="2060" interp="linr"  time="-9999999/1" value="0" leadInLength="0/1"  />
              </VectorParam>
              <VectorParam id="2061"  name="rotation">
               <InterpolatingParam id="2062" interp="linr"  time="-9999999/1" value="0" leadInLength="0/1"  />
               <InterpolatingParam id="2063" interp="linr"  time="-9999999/1" value="0" leadInLength="0/1"  />
               <InterpolatingParam id="2064" interp="linr"  time="-9999999/1" value="0" leadInLength="0/1"  />
              </VectorParam>
              <VectorParam id="2065"  name="shear">
               <InterpolatingParam id="2066" interp="linr"  time="-9999999/1" value="0" leadInLength="0/1"  />
               <InterpolatingParam id="2067" interp="linr"  time="-9999999/1" value="0" leadInLength="0/1"  />
               <InterpolatingParam id="2068" interp="linr"  time="-9999999/1" value="0" leadInLength="0/1"  />
              </VectorParam>
              <VectorParam id="2069"  name="scale">
               <InterpolatingParam id="2070" interp="linr"  time="-9999999/1" value="1" leadInLength="0/1"  />
               <InterpolatingParam id="2071" interp="linr"  time="-9999999/1" value="1" leadInLength="0/1"  />
               <InterpolatingParam id="2072" interp="linr"  time="-9999999/1" value="1" leadInLength="0/1"  />
              </VectorParam>
              <VectorParam id="2073"  name="anchor">
               <InterpolatingParam id="2074" interp="linr"  time="0/1" value="0" leadInLength="0/1"  />
               <InterpolatingParam id="2075" interp="linr"  time="0/1" value="0" leadInLength="0/1"  />
               <InterpolatingParam id="2076" interp="linr"  time="0/1" value="0" leadInLength="0/1"  />
              </VectorParam>
             </Transformer>
             <Parameters>
              <VectorParam id="2077"  name="sourceCrop">
               <InterpolatingParam id="2078" interp="linr"  time="0/1" value="0" leadInLength="0/1"  />
               <InterpolatingParam id="2079" interp="linr"  time="0/1" value="0" leadInLength="0/1"  />
               <InterpolatingParam id="2080" interp="linr"  time="0/1" value="0" leadInLength="0/1"  />
               <InterpolatingParam id="2081" interp="linr"  time="0/1" value="0" leadInLength="0/1"  />
              </VectorParam>
              <VectorParam id="2082"  name="geometryCrop">
               <InterpolatingParam id="2083" interp="linr"  time="-9999999/1" value="0" leadInLength="0/1"  />
               <InterpolatingParam id="2084" interp="linr"  time="-9999999/1" value="0" leadInLength="0/1"  />
               <InterpolatingParam id="2085" interp="linr"  time="-9999999/1" value="0" leadInLength="0/1"  />
               <InterpolatingParam id="2086" interp="linr"  time="-9999999/1" value="0" leadInLength="0/1"  />
              </VectorParam>
              <InterpolatingParam id="2087" interp="linr"  time="-9999999/1" value="1" leadInLength="0/1"  name="opacity"/>
              <InterpolatingParam id="2088" interp="linr"  time="0/1" value="0" leadInLength="0/1"  name="cursorOpacity"/>
              <InterpolatingParam id="2089" interp="linr"  time="0/1" value="0" leadInLength="0/1"  name="cursorScale"/>
             </Parameters>
             <Attributes>
              <Attribute id="2090" value="" name="ident"/>
             </Attributes>
             <ExtraData>
              <Entry key="ZoomPanBin">
               <ZoomPanBin id="2091"  >
                <ZoomPanKeyframes>
                 <ZoomPanKeyframe id="2092" timeRangeEnd="-9999999/1" timeRangeDuration="0/1" interpolaterName=""  />
                </ZoomPanKeyframes>
               </ZoomPanBin>
              </Entry>
              <Entry key="CursorEffectBin">
               <CursorEffectBin id="2093"  >
                <CursorEffectKeyframes>
                </CursorEffectKeyframes>
               </CursorEffectBin>
              </Entry>
             </ExtraData>
            </ScreenVMFile>
            <MetaData>
             <entry key="AutoAppliedSmartFocus" val="False"/>
             <entry key="WinSubProjectDisplayName" val=""/>
            </MetaData>
           </UnifiedMedia>
           <UnifiedMedia id="2094"  >
            <AMFile id="2095" start="6899" duration="375" scalar="1/1" mediaStart="10736/1" mediaDuration="375/1" trackNumber="1" src="5" channelNumber="0,1" >
             <Parameters>
              <InterpolatingParam id="2096" interp="linr"  time="0/1" value="1" leadInLength="0/1"  name="volume"/>
              <Parameter id="2097"  name="captions"/>
             </Parameters>
             <Attributes>
              <Attribute id="2098" value="" name="ident"/>
              <Attribute id="2099" value="44100" name="sampleRate"/>
              <Attribute id="2100" value="16" name="bitDepth"/>
              <Attribute id="2101" value="1" name="gain"/>
              <Attribute id="2102" value="0" name="mixToMono"/>
             </Attributes>
            </AMFile>
            <ScreenVMFile id="2103" start="6899" duration="375" scalar="1/1" mediaStart="10736/1" mediaDuration="375/1" trackNumber="0" src="5" >
             <Transformer>
              <VectorParam id="2104"  name="translation">
               <InterpolatingParam id="2105" interp="linr"  time="-9999999/1" value="0" leadInLength="0/1"  />
               <InterpolatingParam id="2106" interp="linr"  time="-9999999/1" value="0" leadInLength="0/1"  />
               <InterpolatingParam id="2107" interp="linr"  time="-9999999/1" value="0" leadInLength="0/1"  />
              </VectorParam>
              <VectorParam id="2108"  name="rotation">
               <InterpolatingParam id="2109" interp="linr"  time="-9999999/1" value="0" leadInLength="0/1"  />
               <InterpolatingParam id="2110" interp="linr"  time="-9999999/1" value="0" leadInLength="0/1"  />
               <InterpolatingParam id="2111" interp="linr"  time="-9999999/1" value="0" leadInLength="0/1"  />
              </VectorParam>
              <VectorParam id="2112"  name="shear">
               <InterpolatingParam id="2113" interp="linr"  time="-9999999/1" value="0" leadInLength="0/1"  />
               <InterpolatingParam id="2114" interp="linr"  time="-9999999/1" value="0" leadInLength="0/1"  />
               <InterpolatingParam id="2115" interp="linr"  time="-9999999/1" value="0" leadInLength="0/1"  />
              </VectorParam>
              <VectorParam id="2116"  name="scale">
               <InterpolatingParam id="2117" interp="linr"  time="-9999999/1" value="1" leadInLength="0/1"  />
               <InterpolatingParam id="2118" interp="linr"  time="-9999999/1" value="1" leadInLength="0/1"  />
               <InterpolatingParam id="2119" interp="linr"  time="-9999999/1" value="1" leadInLength="0/1"  />
              </VectorParam>
              <VectorParam id="2120"  name="anchor">
               <InterpolatingParam id="2121" interp="linr"  time="0/1" value="0" leadInLength="0/1"  />
               <InterpolatingParam id="2122" interp="linr"  time="0/1" value="0" leadInLength="0/1"  />
               <InterpolatingParam id="2123" interp="linr"  time="0/1" value="0" leadInLength="0/1"  />
              </VectorParam>
             </Transformer>
             <Parameters>
              <VectorParam id="2124"  name="sourceCrop">
               <InterpolatingParam id="2125" interp="linr"  time="0/1" value="0" leadInLength="0/1"  />
               <InterpolatingParam id="2126" interp="linr"  time="0/1" value="0" leadInLength="0/1"  />
               <InterpolatingParam id="2127" interp="linr"  time="0/1" value="0" leadInLength="0/1"  />
               <InterpolatingParam id="2128" interp="linr"  time="0/1" value="0" leadInLength="0/1"  />
              </VectorParam>
              <VectorParam id="2129"  name="geometryCrop">
               <InterpolatingParam id="2130" interp="linr"  time="-9999999/1" value="0" leadInLength="0/1"  />
               <InterpolatingParam id="2131" interp="linr"  time="-9999999/1" value="0" leadInLength="0/1"  />
               <InterpolatingParam id="2132" interp="linr"  time="-9999999/1" value="0" leadInLength="0/1"  />
               <InterpolatingParam id="2133" interp="linr"  time="-9999999/1" value="0" leadInLength="0/1"  />
              </VectorParam>
              <InterpolatingParam id="2134" interp="linr"  time="-9999999/1" value="1" leadInLength="0/1"  name="opacity"/>
              <InterpolatingParam id="2135" interp="linr"  time="0/1" value="0" leadInLength="0/1"  name="cursorOpacity"/>
              <InterpolatingParam id="2136" interp="linr"  time="0/1" value="0" leadInLength="0/1"  name="cursorScale"/>
             </Parameters>
             <Attributes>
              <Attribute id="2137" value="" name="ident"/>
             </Attributes>
             <ExtraData>
              <Entry key="ZoomPanBin">
               <ZoomPanBin id="2138"  >
                <ZoomPanKeyframes>
                 <ZoomPanKeyframe id="2139" timeRangeEnd="-9999999/1" timeRangeDuration="0/1" interpolaterName=""  />
                </ZoomPanKeyframes>
               </ZoomPanBin>
              </Entry>
              <Entry key="CursorEffectBin">
               <CursorEffectBin id="2140"  >
                <CursorEffectKeyframes>
                </CursorEffectKeyframes>
               </CursorEffectBin>
              </Entry>
             </ExtraData>
            </ScreenVMFile>
            <MetaData>
             <entry key="AutoAppliedSmartFocus" val="False"/>
             <entry key="WinSubProjectDisplayName" val=""/>
            </MetaData>
           </UnifiedMedia>
           <UnifiedMedia id="2141"  >
            <AMFile id="2142" start="7274" duration="420" scalar="1/1" mediaStart="11423/1" mediaDuration="420/1" trackNumber="1" src="5" channelNumber="0,1" >
             <Parameters>
              <InterpolatingParam id="2143" interp="linr"  time="0/1" value="1" leadInLength="0/1"  name="volume"/>
              <Parameter id="2144"  name="captions"/>
             </Parameters>
             <Attributes>
              <Attribute id="2145" value="" name="ident"/>
              <Attribute id="2146" value="44100" name="sampleRate"/>
              <Attribute id="2147" value="16" name="bitDepth"/>
              <Attribute id="2148" value="1" name="gain"/>
              <Attribute id="2149" value="0" name="mixToMono"/>
             </Attributes>
            </AMFile>
            <ScreenVMFile id="2150" start="7274" duration="420" scalar="1/1" mediaStart="11423/1" mediaDuration="420/1" trackNumber="0" src="5" >
             <Transformer>
              <VectorParam id="2151"  name="translation">
               <InterpolatingParam id="2152" interp="linr"  time="-9999999/1" value="0" leadInLength="0/1"  />
               <InterpolatingParam id="2153" interp="linr"  time="-9999999/1" value="0" leadInLength="0/1"  />
               <InterpolatingParam id="2154" interp="linr"  time="-9999999/1" value="0" leadInLength="0/1"  />
              </VectorParam>
              <VectorParam id="2155"  name="rotation">
               <InterpolatingParam id="2156" interp="linr"  time="-9999999/1" value="0" leadInLength="0/1"  />
               <InterpolatingParam id="2157" interp="linr"  time="-9999999/1" value="0" leadInLength="0/1"  />
               <InterpolatingParam id="2158" interp="linr"  time="-9999999/1" value="0" leadInLength="0/1"  />
              </VectorParam>
              <VectorParam id="2159"  name="shear">
               <InterpolatingParam id="2160" interp="linr"  time="-9999999/1" value="0" leadInLength="0/1"  />
               <InterpolatingParam id="2161" interp="linr"  time="-9999999/1" value="0" leadInLength="0/1"  />
               <InterpolatingParam id="2162" interp="linr"  time="-9999999/1" value="0" leadInLength="0/1"  />
              </VectorParam>
              <VectorParam id="2163"  name="scale">
               <InterpolatingParam id="2164" interp="linr"  time="-9999999/1" value="1" leadInLength="0/1"  />
               <InterpolatingParam id="2165" interp="linr"  time="-9999999/1" value="1" leadInLength="0/1"  />
               <InterpolatingParam id="2166" interp="linr"  time="-9999999/1" value="1" leadInLength="0/1"  />
              </VectorParam>
              <VectorParam id="2167"  name="anchor">
               <InterpolatingParam id="2168" interp="linr"  time="0/1" value="0" leadInLength="0/1"  />
               <InterpolatingParam id="2169" interp="linr"  time="0/1" value="0" leadInLength="0/1"  />
               <InterpolatingParam id="2170" interp="linr"  time="0/1" value="0" leadInLength="0/1"  />
              </VectorParam>
             </Transformer>
             <Parameters>
              <VectorParam id="2171"  name="sourceCrop">
               <InterpolatingParam id="2172" interp="linr"  time="0/1" value="0" leadInLength="0/1"  />
               <InterpolatingParam id="2173" interp="linr"  time="0/1" value="0" leadInLength="0/1"  />
               <InterpolatingParam id="2174" interp="linr"  time="0/1" value="0" leadInLength="0/1"  />
               <InterpolatingParam id="2175" interp="linr"  time="0/1" value="0" leadInLength="0/1"  />
              </VectorParam>
              <VectorParam id="2176"  name="geometryCrop">
               <InterpolatingParam id="2177" interp="linr"  time="-9999999/1" value="0" leadInLength="0/1"  />
               <InterpolatingParam id="2178" interp="linr"  time="-9999999/1" value="0" leadInLength="0/1"  />
               <InterpolatingParam id="2179" interp="linr"  time="-9999999/1" value="0" leadInLength="0/1"  />
               <InterpolatingParam id="2180" interp="linr"  time="-9999999/1" value="0" leadInLength="0/1"  />
              </VectorParam>
              <InterpolatingParam id="2181" interp="linr"  time="-9999999/1" value="1" leadInLength="0/1"  name="opacity"/>
              <InterpolatingParam id="2182" interp="linr"  time="0/1" value="0" leadInLength="0/1"  name="cursorOpacity"/>
              <InterpolatingParam id="2183" interp="linr"  time="0/1" value="0" leadInLength="0/1"  name="cursorScale"/>
             </Parameters>
             <Attributes>
              <Attribute id="2184" value="" name="ident"/>
             </Attributes>
             <ExtraData>
              <Entry key="ZoomPanBin">
               <ZoomPanBin id="2185"  >
                <ZoomPanKeyframes>
                 <ZoomPanKeyframe id="2186" timeRangeEnd="-9999999/1" timeRangeDuration="0/1" interpolaterName=""  />
                </ZoomPanKeyframes>
               </ZoomPanBin>
              </Entry>
              <Entry key="CursorEffectBin">
               <CursorEffectBin id="2187"  >
                <CursorEffectKeyframes>
                </CursorEffectKeyframes>
               </CursorEffectBin>
              </Entry>
             </ExtraData>
            </ScreenVMFile>
            <MetaData>
             <entry key="AutoAppliedSmartFocus" val="False"/>
             <entry key="WinSubProjectDisplayName" val=""/>
            </MetaData>
           </UnifiedMedia>
           <UnifiedMedia id="2188"  >
            <AMFile id="2189" start="7694" duration="38" scalar="1/1" mediaStart="11857/1" mediaDuration="38/1" trackNumber="1" src="5" channelNumber="0,1" >
             <Parameters>
              <InterpolatingParam id="2190" interp="linr"  time="0/1" value="1" leadInLength="0/1"  name="volume"/>
              <Parameter id="2191"  name="captions"/>
             </Parameters>
             <Attributes>
              <Attribute id="2192" value="" name="ident"/>
              <Attribute id="2193" value="44100" name="sampleRate"/>
              <Attribute id="2194" value="16" name="bitDepth"/>
              <Attribute id="2195" value="1" name="gain"/>
              <Attribute id="2196" value="0" name="mixToMono"/>
             </Attributes>
            </AMFile>
            <ScreenVMFile id="2197" start="7694" duration="38" scalar="1/1" mediaStart="11857/1" mediaDuration="38/1" trackNumber="0" src="5" >
             <Transformer>
              <VectorParam id="2198"  name="translation">
               <InterpolatingParam id="2199" interp="linr"  time="-9999999/1" value="0" leadInLength="0/1"  />
               <InterpolatingParam id="2200" interp="linr"  time="-9999999/1" value="0" leadInLength="0/1"  />
               <InterpolatingParam id="2201" interp="linr"  time="-9999999/1" value="0" leadInLength="0/1"  />
              </VectorParam>
              <VectorParam id="2202"  name="rotation">
               <InterpolatingParam id="2203" interp="linr"  time="-9999999/1" value="0" leadInLength="0/1"  />
               <InterpolatingParam id="2204" interp="linr"  time="-9999999/1" value="0" leadInLength="0/1"  />
               <InterpolatingParam id="2205" interp="linr"  time="-9999999/1" value="0" leadInLength="0/1"  />
              </VectorParam>
              <VectorParam id="2206"  name="shear">
               <InterpolatingParam id="2207" interp="linr"  time="-9999999/1" value="0" leadInLength="0/1"  />
               <InterpolatingParam id="2208" interp="linr"  time="-9999999/1" value="0" leadInLength="0/1"  />
               <InterpolatingParam id="2209" interp="linr"  time="-9999999/1" value="0" leadInLength="0/1"  />
              </VectorParam>
              <VectorParam id="2210"  name="scale">
               <InterpolatingParam id="2211" interp="linr"  time="-9999999/1" value="1" leadInLength="0/1"  />
               <InterpolatingParam id="2212" interp="linr"  time="-9999999/1" value="1" leadInLength="0/1"  />
               <InterpolatingParam id="2213" interp="linr"  time="-9999999/1" value="1" leadInLength="0/1"  />
              </VectorParam>
              <VectorParam id="2214"  name="anchor">
               <InterpolatingParam id="2215" interp="linr"  time="0/1" value="0" leadInLength="0/1"  />
               <InterpolatingParam id="2216" interp="linr"  time="0/1" value="0" leadInLength="0/1"  />
               <InterpolatingParam id="2217" interp="linr"  time="0/1" value="0" leadInLength="0/1"  />
              </VectorParam>
             </Transformer>
             <Parameters>
              <VectorParam id="2218"  name="sourceCrop">
               <InterpolatingParam id="2219" interp="linr"  time="0/1" value="0" leadInLength="0/1"  />
               <InterpolatingParam id="2220" interp="linr"  time="0/1" value="0" leadInLength="0/1"  />
               <InterpolatingParam id="2221" interp="linr"  time="0/1" value="0" leadInLength="0/1"  />
               <InterpolatingParam id="2222" interp="linr"  time="0/1" value="0" leadInLength="0/1"  />
              </VectorParam>
              <VectorParam id="2223"  name="geometryCrop">
               <InterpolatingParam id="2224" interp="linr"  time="-9999999/1" value="0" leadInLength="0/1"  />
               <InterpolatingParam id="2225" interp="linr"  time="-9999999/1" value="0" leadInLength="0/1"  />
               <InterpolatingParam id="2226" interp="linr"  time="-9999999/1" value="0" leadInLength="0/1"  />
               <InterpolatingParam id="2227" interp="linr"  time="-9999999/1" value="0" leadInLength="0/1"  />
              </VectorParam>
              <InterpolatingParam id="2228" interp="linr"  time="-9999999/1" value="1" leadInLength="0/1"  name="opacity"/>
              <InterpolatingParam id="2229" interp="linr"  time="0/1" value="0" leadInLength="0/1"  name="cursorOpacity"/>
              <InterpolatingParam id="2230" interp="linr"  time="0/1" value="0" leadInLength="0/1"  name="cursorScale"/>
             </Parameters>
             <Attributes>
              <Attribute id="2231" value="" name="ident"/>
             </Attributes>
             <ExtraData>
              <Entry key="ZoomPanBin">
               <ZoomPanBin id="2232"  >
                <ZoomPanKeyframes>
                 <ZoomPanKeyframe id="2233" timeRangeEnd="-9999999/1" timeRangeDuration="0/1" interpolaterName=""  />
                </ZoomPanKeyframes>
               </ZoomPanBin>
              </Entry>
              <Entry key="CursorEffectBin">
               <CursorEffectBin id="2234"  >
                <CursorEffectKeyframes>
                </CursorEffectKeyframes>
               </CursorEffectBin>
              </Entry>
             </ExtraData>
            </ScreenVMFile>
            <MetaData>
             <entry key="AutoAppliedSmartFocus" val="False"/>
             <entry key="WinSubProjectDisplayName" val=""/>
            </MetaData>
           </UnifiedMedia>
           <UnifiedMedia id="2235"  >
            <AMFile id="2236" start="7732" duration="99" scalar="1/1" mediaStart="11906/1" mediaDuration="99/1" trackNumber="1" src="5" channelNumber="0,1" >
             <Parameters>
              <InterpolatingParam id="2237" interp="linr"  time="0/1" value="1" leadInLength="0/1"  name="volume"/>
              <Parameter id="2238"  name="captions"/>
             </Parameters>
             <Attributes>
              <Attribute id="2239" value="" name="ident"/>
              <Attribute id="2240" value="44100" name="sampleRate"/>
              <Attribute id="2241" value="16" name="bitDepth"/>
              <Attribute id="2242" value="1" name="gain"/>
              <Attribute id="2243" value="0" name="mixToMono"/>
             </Attributes>
            </AMFile>
            <ScreenVMFile id="2244" start="7732" duration="99" scalar="1/1" mediaStart="11906/1" mediaDuration="99/1" trackNumber="0" src="5" >
             <Transformer>
              <VectorParam id="2245"  name="translation">
               <InterpolatingParam id="2246" interp="linr"  time="-9999999/1" value="0" leadInLength="0/1"  />
               <InterpolatingParam id="2247" interp="linr"  time="-9999999/1" value="0" leadInLength="0/1"  />
               <InterpolatingParam id="2248" interp="linr"  time="-9999999/1" value="0" leadInLength="0/1"  />
              </VectorParam>
              <VectorParam id="2249"  name="rotation">
               <InterpolatingParam id="2250" interp="linr"  time="-9999999/1" value="0" leadInLength="0/1"  />
               <InterpolatingParam id="2251" interp="linr"  time="-9999999/1" value="0" leadInLength="0/1"  />
               <InterpolatingParam id="2252" interp="linr"  time="-9999999/1" value="0" leadInLength="0/1"  />
              </VectorParam>
              <VectorParam id="2253"  name="shear">
               <InterpolatingParam id="2254" interp="linr"  time="-9999999/1" value="0" leadInLength="0/1"  />
               <InterpolatingParam id="2255" interp="linr"  time="-9999999/1" value="0" leadInLength="0/1"  />
               <InterpolatingParam id="2256" interp="linr"  time="-9999999/1" value="0" leadInLength="0/1"  />
              </VectorParam>
              <VectorParam id="2257"  name="scale">
               <InterpolatingParam id="2258" interp="linr"  time="-9999999/1" value="1" leadInLength="0/1"  />
               <InterpolatingParam id="2259" interp="linr"  time="-9999999/1" value="1" leadInLength="0/1"  />
               <InterpolatingParam id="2260" interp="linr"  time="-9999999/1" value="1" leadInLength="0/1"  />
              </VectorParam>
              <VectorParam id="2261"  name="anchor">
               <InterpolatingParam id="2262" interp="linr"  time="0/1" value="0" leadInLength="0/1"  />
               <InterpolatingParam id="2263" interp="linr"  time="0/1" value="0" leadInLength="0/1"  />
               <InterpolatingParam id="2264" interp="linr"  time="0/1" value="0" leadInLength="0/1"  />
              </VectorParam>
             </Transformer>
             <Parameters>
              <VectorParam id="2265"  name="sourceCrop">
               <InterpolatingParam id="2266" interp="linr"  time="0/1" value="0" leadInLength="0/1"  />
               <InterpolatingParam id="2267" interp="linr"  time="0/1" value="0" leadInLength="0/1"  />
               <InterpolatingParam id="2268" interp="linr"  time="0/1" value="0" leadInLength="0/1"  />
               <InterpolatingParam id="2269" interp="linr"  time="0/1" value="0" leadInLength="0/1"  />
              </VectorParam>
              <VectorParam id="2270"  name="geometryCrop">
               <InterpolatingParam id="2271" interp="linr"  time="-9999999/1" value="0" leadInLength="0/1"  />
               <InterpolatingParam id="2272" interp="linr"  time="-9999999/1" value="0" leadInLength="0/1"  />
               <InterpolatingParam id="2273" interp="linr"  time="-9999999/1" value="0" leadInLength="0/1"  />
               <InterpolatingParam id="2274" interp="linr"  time="-9999999/1" value="0" leadInLength="0/1"  />
              </VectorParam>
              <InterpolatingParam id="2275" interp="linr"  time="-9999999/1" value="1" leadInLength="0/1"  name="opacity"/>
              <InterpolatingParam id="2276" interp="linr"  time="0/1" value="0" leadInLength="0/1"  name="cursorOpacity"/>
              <InterpolatingParam id="2277" interp="linr"  time="0/1" value="0" leadInLength="0/1"  name="cursorScale"/>
             </Parameters>
             <Attributes>
              <Attribute id="2278" value="" name="ident"/>
             </Attributes>
             <ExtraData>
              <Entry key="ZoomPanBin">
               <ZoomPanBin id="2279"  >
                <ZoomPanKeyframes>
                 <ZoomPanKeyframe id="2280" timeRangeEnd="-9999999/1" timeRangeDuration="0/1" interpolaterName=""  />
                </ZoomPanKeyframes>
               </ZoomPanBin>
              </Entry>
              <Entry key="CursorEffectBin">
               <CursorEffectBin id="2281"  >
                <CursorEffectKeyframes>
                </CursorEffectKeyframes>
               </CursorEffectBin>
              </Entry>
             </ExtraData>
            </ScreenVMFile>
            <MetaData>
             <entry key="AutoAppliedSmartFocus" val="False"/>
             <entry key="WinSubProjectDisplayName" val=""/>
            </MetaData>
           </UnifiedMedia>
           <UnifiedMedia id="2282"  >
            <AMFile id="2283" start="7831" duration="46" scalar="1/1" mediaStart="12022/1" mediaDuration="46/1" trackNumber="1" src="5" channelNumber="0,1" >
             <Parameters>
              <InterpolatingParam id="2284" interp="linr"  time="0/1" value="1" leadInLength="0/1"  name="volume"/>
              <Parameter id="2285"  name="captions"/>
             </Parameters>
             <Attributes>
              <Attribute id="2286" value="" name="ident"/>
              <Attribute id="2287" value="44100" name="sampleRate"/>
              <Attribute id="2288" value="16" name="bitDepth"/>
              <Attribute id="2289" value="1" name="gain"/>
              <Attribute id="2290" value="0" name="mixToMono"/>
             </Attributes>
            </AMFile>
            <ScreenVMFile id="2291" start="7831" duration="46" scalar="1/1" mediaStart="12022/1" mediaDuration="46/1" trackNumber="0" src="5" >
             <Transformer>
              <VectorParam id="2292"  name="translation">
               <InterpolatingParam id="2293" interp="linr"  time="-9999999/1" value="0" leadInLength="0/1"  />
               <InterpolatingParam id="2294" interp="linr"  time="-9999999/1" value="0" leadInLength="0/1"  />
               <InterpolatingParam id="2295" interp="linr"  time="-9999999/1" value="0" leadInLength="0/1"  />
              </VectorParam>
              <VectorParam id="2296"  name="rotation">
               <InterpolatingParam id="2297" interp="linr"  time="-9999999/1" value="0" leadInLength="0/1"  />
               <InterpolatingParam id="2298" interp="linr"  time="-9999999/1" value="0" leadInLength="0/1"  />
               <InterpolatingParam id="2299" interp="linr"  time="-9999999/1" value="0" leadInLength="0/1"  />
              </VectorParam>
              <VectorParam id="2300"  name="shear">
               <InterpolatingParam id="2301" interp="linr"  time="-9999999/1" value="0" leadInLength="0/1"  />
               <InterpolatingParam id="2302" interp="linr"  time="-9999999/1" value="0" leadInLength="0/1"  />
               <InterpolatingParam id="2303" interp="linr"  time="-9999999/1" value="0" leadInLength="0/1"  />
              </VectorParam>
              <VectorParam id="2304"  name="scale">
               <InterpolatingParam id="2305" interp="linr"  time="-9999999/1" value="1" leadInLength="0/1"  />
               <InterpolatingParam id="2306" interp="linr"  time="-9999999/1" value="1" leadInLength="0/1"  />
               <InterpolatingParam id="2307" interp="linr"  time="-9999999/1" value="1" leadInLength="0/1"  />
              </VectorParam>
              <VectorParam id="2308"  name="anchor">
               <InterpolatingParam id="2309" interp="linr"  time="0/1" value="0" leadInLength="0/1"  />
               <InterpolatingParam id="2310" interp="linr"  time="0/1" value="0" leadInLength="0/1"  />
               <InterpolatingParam id="2311" interp="linr"  time="0/1" value="0" leadInLength="0/1"  />
              </VectorParam>
             </Transformer>
             <Parameters>
              <VectorParam id="2312"  name="sourceCrop">
               <InterpolatingParam id="2313" interp="linr"  time="0/1" value="0" leadInLength="0/1"  />
               <InterpolatingParam id="2314" interp="linr"  time="0/1" value="0" leadInLength="0/1"  />
               <InterpolatingParam id="2315" interp="linr"  time="0/1" value="0" leadInLength="0/1"  />
               <InterpolatingParam id="2316" interp="linr"  time="0/1" value="0" leadInLength="0/1"  />
              </VectorParam>
              <VectorParam id="2317"  name="geometryCrop">
               <InterpolatingParam id="2318" interp="linr"  time="-9999999/1" value="0" leadInLength="0/1"  />
               <InterpolatingParam id="2319" interp="linr"  time="-9999999/1" value="0" leadInLength="0/1"  />
               <InterpolatingParam id="2320" interp="linr"  time="-9999999/1" value="0" leadInLength="0/1"  />
               <InterpolatingParam id="2321" interp="linr"  time="-9999999/1" value="0" leadInLength="0/1"  />
              </VectorParam>
              <InterpolatingParam id="2322" interp="linr"  time="-9999999/1" value="1" leadInLength="0/1"  name="opacity"/>
              <InterpolatingParam id="2323" interp="linr"  time="0/1" value="0" leadInLength="0/1"  name="cursorOpacity"/>
              <InterpolatingParam id="2324" interp="linr"  time="0/1" value="0" leadInLength="0/1"  name="cursorScale"/>
             </Parameters>
             <Attributes>
              <Attribute id="2325" value="" name="ident"/>
             </Attributes>
             <ExtraData>
              <Entry key="ZoomPanBin">
               <ZoomPanBin id="2326"  >
                <ZoomPanKeyframes>
                 <ZoomPanKeyframe id="2327" timeRangeEnd="-9999999/1" timeRangeDuration="0/1" interpolaterName=""  />
                </ZoomPanKeyframes>
               </ZoomPanBin>
              </Entry>
              <Entry key="CursorEffectBin">
               <CursorEffectBin id="2328"  >
                <CursorEffectKeyframes>
                </CursorEffectKeyframes>
               </CursorEffectBin>
              </Entry>
             </ExtraData>
            </ScreenVMFile>
            <MetaData>
             <entry key="AutoAppliedSmartFocus" val="False"/>
             <entry key="WinSubProjectDisplayName" val=""/>
            </MetaData>
           </UnifiedMedia>
           <UnifiedMedia id="2329"  >
            <AMFile id="2330" start="7877" duration="74" scalar="1/1" mediaStart="12906/1" mediaDuration="74/1" trackNumber="1" src="5" channelNumber="0,1" >
             <Parameters>
              <InterpolatingParam id="2331" interp="linr"  time="0/1" value="1" leadInLength="0/1"  name="volume"/>
              <Parameter id="2332"  name="captions"/>
             </Parameters>
             <Attributes>
              <Attribute id="2333" value="" name="ident"/>
              <Attribute id="2334" value="44100" name="sampleRate"/>
              <Attribute id="2335" value="16" name="bitDepth"/>
              <Attribute id="2336" value="1" name="gain"/>
              <Attribute id="2337" value="0" name="mixToMono"/>
             </Attributes>
            </AMFile>
            <ScreenVMFile id="2338" start="7877" duration="74" scalar="1/1" mediaStart="12906/1" mediaDuration="74/1" trackNumber="0" src="5" >
             <Transformer>
              <VectorParam id="2339"  name="translation">
               <InterpolatingParam id="2340" interp="linr"  time="-9999999/1" value="0" leadInLength="0/1"  />
               <InterpolatingParam id="2341" interp="linr"  time="-9999999/1" value="0" leadInLength="0/1"  />
               <InterpolatingParam id="2342" interp="linr"  time="-9999999/1" value="0" leadInLength="0/1"  />
              </VectorParam>
              <VectorParam id="2343"  name="rotation">
               <InterpolatingParam id="2344" interp="linr"  time="-9999999/1" value="0" leadInLength="0/1"  />
               <InterpolatingParam id="2345" interp="linr"  time="-9999999/1" value="0" leadInLength="0/1"  />
               <InterpolatingParam id="2346" interp="linr"  time="-9999999/1" value="0" leadInLength="0/1"  />
              </VectorParam>
              <VectorParam id="2347"  name="shear">
               <InterpolatingParam id="2348" interp="linr"  time="-9999999/1" value="0" leadInLength="0/1"  />
               <InterpolatingParam id="2349" interp="linr"  time="-9999999/1" value="0" leadInLength="0/1"  />
               <InterpolatingParam id="2350" interp="linr"  time="-9999999/1" value="0" leadInLength="0/1"  />
              </VectorParam>
              <VectorParam id="2351"  name="scale">
               <InterpolatingParam id="2352" interp="linr"  time="-9999999/1" value="1" leadInLength="0/1"  />
               <InterpolatingParam id="2353" interp="linr"  time="-9999999/1" value="1" leadInLength="0/1"  />
               <InterpolatingParam id="2354" interp="linr"  time="-9999999/1" value="1" leadInLength="0/1"  />
              </VectorParam>
              <VectorParam id="2355"  name="anchor">
               <InterpolatingParam id="2356" interp="linr"  time="0/1" value="0" leadInLength="0/1"  />
               <InterpolatingParam id="2357" interp="linr"  time="0/1" value="0" leadInLength="0/1"  />
               <InterpolatingParam id="2358" interp="linr"  time="0/1" value="0" leadInLength="0/1"  />
              </VectorParam>
             </Transformer>
             <Parameters>
              <VectorParam id="2359"  name="sourceCrop">
               <InterpolatingParam id="2360" interp="linr"  time="0/1" value="0" leadInLength="0/1"  />
               <InterpolatingParam id="2361" interp="linr"  time="0/1" value="0" leadInLength="0/1"  />
               <InterpolatingParam id="2362" interp="linr"  time="0/1" value="0" leadInLength="0/1"  />
               <InterpolatingParam id="2363" interp="linr"  time="0/1" value="0" leadInLength="0/1"  />
              </VectorParam>
              <VectorParam id="2364"  name="geometryCrop">
               <InterpolatingParam id="2365" interp="linr"  time="-9999999/1" value="0" leadInLength="0/1"  />
               <InterpolatingParam id="2366" interp="linr"  time="-9999999/1" value="0" leadInLength="0/1"  />
               <InterpolatingParam id="2367" interp="linr"  time="-9999999/1" value="0" leadInLength="0/1"  />
               <InterpolatingParam id="2368" interp="linr"  time="-9999999/1" value="0" leadInLength="0/1"  />
              </VectorParam>
              <InterpolatingParam id="2369" interp="linr"  time="-9999999/1" value="1" leadInLength="0/1"  name="opacity"/>
              <InterpolatingParam id="2370" interp="linr"  time="0/1" value="0" leadInLength="0/1"  name="cursorOpacity"/>
              <InterpolatingParam id="2371" interp="linr"  time="0/1" value="0" leadInLength="0/1"  name="cursorScale"/>
             </Parameters>
             <Attributes>
              <Attribute id="2372" value="" name="ident"/>
             </Attributes>
             <ExtraData>
              <Entry key="ZoomPanBin">
               <ZoomPanBin id="2373"  >
                <ZoomPanKeyframes>
                 <ZoomPanKeyframe id="2374" timeRangeEnd="-9999999/1" timeRangeDuration="0/1" interpolaterName=""  />
                </ZoomPanKeyframes>
               </ZoomPanBin>
              </Entry>
              <Entry key="CursorEffectBin">
               <CursorEffectBin id="2375"  >
                <CursorEffectKeyframes>
                </CursorEffectKeyframes>
               </CursorEffectBin>
              </Entry>
             </ExtraData>
            </ScreenVMFile>
            <MetaData>
             <entry key="AutoAppliedSmartFocus" val="False"/>
             <entry key="WinSubProjectDisplayName" val=""/>
            </MetaData>
           </UnifiedMedia>
           <UnifiedMedia id="2376"  >
            <AMFile id="2377" start="7951" duration="74" scalar="1/1" mediaStart="12988/1" mediaDuration="74/1" trackNumber="1" src="5" channelNumber="0,1" >
             <Parameters>
              <InterpolatingParam id="2378" interp="linr"  time="0/1" value="1" leadInLength="0/1"  name="volume"/>
              <Parameter id="2379"  name="captions"/>
             </Parameters>
             <Attributes>
              <Attribute id="2380" value="" name="ident"/>
              <Attribute id="2381" value="44100" name="sampleRate"/>
              <Attribute id="2382" value="16" name="bitDepth"/>
              <Attribute id="2383" value="1" name="gain"/>
              <Attribute id="2384" value="0" name="mixToMono"/>
             </Attributes>
            </AMFile>
            <ScreenVMFile id="2385" start="7951" duration="74" scalar="1/1" mediaStart="12988/1" mediaDuration="74/1" trackNumber="0" src="5" >
             <Transformer>
              <VectorParam id="2386"  name="translation">
               <InterpolatingParam id="2387" interp="linr"  time="-9999999/1" value="0" leadInLength="0/1"  />
               <InterpolatingParam id="2388" interp="linr"  time="-9999999/1" value="0" leadInLength="0/1"  />
               <InterpolatingParam id="2389" interp="linr"  time="-9999999/1" value="0" leadInLength="0/1"  />
              </VectorParam>
              <VectorParam id="2390"  name="rotation">
               <InterpolatingParam id="2391" interp="linr"  time="-9999999/1" value="0" leadInLength="0/1"  />
               <InterpolatingParam id="2392" interp="linr"  time="-9999999/1" value="0" leadInLength="0/1"  />
               <InterpolatingParam id="2393" interp="linr"  time="-9999999/1" value="0" leadInLength="0/1"  />
              </VectorParam>
              <VectorParam id="2394"  name="shear">
               <InterpolatingParam id="2395" interp="linr"  time="-9999999/1" value="0" leadInLength="0/1"  />
               <InterpolatingParam id="2396" interp="linr"  time="-9999999/1" value="0" leadInLength="0/1"  />
               <InterpolatingParam id="2397" interp="linr"  time="-9999999/1" value="0" leadInLength="0/1"  />
              </VectorParam>
              <VectorParam id="2398"  name="scale">
               <InterpolatingParam id="2399" interp="linr"  time="-9999999/1" value="1" leadInLength="0/1"  />
               <InterpolatingParam id="2400" interp="linr"  time="-9999999/1" value="1" leadInLength="0/1"  />
               <InterpolatingParam id="2401" interp="linr"  time="-9999999/1" value="1" leadInLength="0/1"  />
              </VectorParam>
              <VectorParam id="2402"  name="anchor">
               <InterpolatingParam id="2403" interp="linr"  time="0/1" value="0" leadInLength="0/1"  />
               <InterpolatingParam id="2404" interp="linr"  time="0/1" value="0" leadInLength="0/1"  />
               <InterpolatingParam id="2405" interp="linr"  time="0/1" value="0" leadInLength="0/1"  />
              </VectorParam>
             </Transformer>
             <Parameters>
              <VectorParam id="2406"  name="sourceCrop">
               <InterpolatingParam id="2407" interp="linr"  time="0/1" value="0" leadInLength="0/1"  />
               <InterpolatingParam id="2408" interp="linr"  time="0/1" value="0" leadInLength="0/1"  />
               <InterpolatingParam id="2409" interp="linr"  time="0/1" value="0" leadInLength="0/1"  />
               <InterpolatingParam id="2410" interp="linr"  time="0/1" value="0" leadInLength="0/1"  />
              </VectorParam>
              <VectorParam id="2411"  name="geometryCrop">
               <InterpolatingParam id="2412" interp="linr"  time="-9999999/1" value="0" leadInLength="0/1"  />
               <InterpolatingParam id="2413" interp="linr"  time="-9999999/1" value="0" leadInLength="0/1"  />
               <InterpolatingParam id="2414" interp="linr"  time="-9999999/1" value="0" leadInLength="0/1"  />
               <InterpolatingParam id="2415" interp="linr"  time="-9999999/1" value="0" leadInLength="0/1"  />
              </VectorParam>
              <InterpolatingParam id="2416" interp="linr"  time="-9999999/1" value="1" leadInLength="0/1"  name="opacity"/>
              <InterpolatingParam id="2417" interp="linr"  time="0/1" value="0" leadInLength="0/1"  name="cursorOpacity"/>
              <InterpolatingParam id="2418" interp="linr"  time="0/1" value="0" leadInLength="0/1"  name="cursorScale"/>
             </Parameters>
             <Attributes>
              <Attribute id="2419" value="" name="ident"/>
             </Attributes>
             <ExtraData>
              <Entry key="ZoomPanBin">
               <ZoomPanBin id="2420"  >
                <ZoomPanKeyframes>
                 <ZoomPanKeyframe id="2421" timeRangeEnd="-9999999/1" timeRangeDuration="0/1" interpolaterName=""  />
                </ZoomPanKeyframes>
               </ZoomPanBin>
              </Entry>
              <Entry key="CursorEffectBin">
               <CursorEffectBin id="2422"  >
                <CursorEffectKeyframes>
                </CursorEffectKeyframes>
               </CursorEffectBin>
              </Entry>
             </ExtraData>
            </ScreenVMFile>
            <MetaData>
             <entry key="AutoAppliedSmartFocus" val="False"/>
             <entry key="WinSubProjectDisplayName" val=""/>
            </MetaData>
           </UnifiedMedia>
           <UnifiedMedia id="2423"  >
            <AMFile id="2424" start="8025" duration="58" scalar="1/1" mediaStart="13075/1" mediaDuration="58/1" trackNumber="1" src="5" channelNumber="0,1" >
             <Parameters>
              <InterpolatingParam id="2425" interp="linr"  time="0/1" value="1" leadInLength="0/1"  name="volume"/>
              <Parameter id="2426"  name="captions"/>
             </Parameters>
             <Attributes>
              <Attribute id="2427" value="" name="ident"/>
              <Attribute id="2428" value="44100" name="sampleRate"/>
              <Attribute id="2429" value="16" name="bitDepth"/>
              <Attribute id="2430" value="1" name="gain"/>
              <Attribute id="2431" value="0" name="mixToMono"/>
             </Attributes>
            </AMFile>
            <ScreenVMFile id="2432" start="8025" duration="58" scalar="1/1" mediaStart="13075/1" mediaDuration="58/1" trackNumber="0" src="5" >
             <Transformer>
              <VectorParam id="2433"  name="translation">
               <InterpolatingParam id="2434" interp="linr"  time="-9999999/1" value="0" leadInLength="0/1"  />
               <InterpolatingParam id="2435" interp="linr"  time="-9999999/1" value="0" leadInLength="0/1"  />
               <InterpolatingParam id="2436" interp="linr"  time="-9999999/1" value="0" leadInLength="0/1"  />
              </VectorParam>
              <VectorParam id="2437"  name="rotation">
               <InterpolatingParam id="2438" interp="linr"  time="-9999999/1" value="0" leadInLength="0/1"  />
               <InterpolatingParam id="2439" interp="linr"  time="-9999999/1" value="0" leadInLength="0/1"  />
               <InterpolatingParam id="2440" interp="linr"  time="-9999999/1" value="0" leadInLength="0/1"  />
              </VectorParam>
              <VectorParam id="2441"  name="shear">
               <InterpolatingParam id="2442" interp="linr"  time="-9999999/1" value="0" leadInLength="0/1"  />
               <InterpolatingParam id="2443" interp="linr"  time="-9999999/1" value="0" leadInLength="0/1"  />
               <InterpolatingParam id="2444" interp="linr"  time="-9999999/1" value="0" leadInLength="0/1"  />
              </VectorParam>
              <VectorParam id="2445"  name="scale">
               <InterpolatingParam id="2446" interp="linr"  time="-9999999/1" value="1" leadInLength="0/1"  />
               <InterpolatingParam id="2447" interp="linr"  time="-9999999/1" value="1" leadInLength="0/1"  />
               <InterpolatingParam id="2448" interp="linr"  time="-9999999/1" value="1" leadInLength="0/1"  />
              </VectorParam>
              <VectorParam id="2449"  name="anchor">
               <InterpolatingParam id="2450" interp="linr"  time="0/1" value="0" leadInLength="0/1"  />
               <InterpolatingParam id="2451" interp="linr"  time="0/1" value="0" leadInLength="0/1"  />
               <InterpolatingParam id="2452" interp="linr"  time="0/1" value="0" leadInLength="0/1"  />
              </VectorParam>
             </Transformer>
             <Parameters>
              <VectorParam id="2453"  name="sourceCrop">
               <InterpolatingParam id="2454" interp="linr"  time="0/1" value="0" leadInLength="0/1"  />
               <InterpolatingParam id="2455" interp="linr"  time="0/1" value="0" leadInLength="0/1"  />
               <InterpolatingParam id="2456" interp="linr"  time="0/1" value="0" leadInLength="0/1"  />
               <InterpolatingParam id="2457" interp="linr"  time="0/1" value="0" leadInLength="0/1"  />
              </VectorParam>
              <VectorParam id="2458"  name="geometryCrop">
               <InterpolatingParam id="2459" interp="linr"  time="-9999999/1" value="0" leadInLength="0/1"  />
               <InterpolatingParam id="2460" interp="linr"  time="-9999999/1" value="0" leadInLength="0/1"  />
               <InterpolatingParam id="2461" interp="linr"  time="-9999999/1" value="0" leadInLength="0/1"  />
               <InterpolatingParam id="2462" interp="linr"  time="-9999999/1" value="0" leadInLength="0/1"  />
              </VectorParam>
              <InterpolatingParam id="2463" interp="linr"  time="-9999999/1" value="1" leadInLength="0/1"  name="opacity"/>
              <InterpolatingParam id="2464" interp="linr"  time="0/1" value="0" leadInLength="0/1"  name="cursorOpacity"/>
              <InterpolatingParam id="2465" interp="linr"  time="0/1" value="0" leadInLength="0/1"  name="cursorScale"/>
             </Parameters>
             <Attributes>
              <Attribute id="2466" value="" name="ident"/>
             </Attributes>
             <ExtraData>
              <Entry key="ZoomPanBin">
               <ZoomPanBin id="2467"  >
                <ZoomPanKeyframes>
                 <ZoomPanKeyframe id="2468" timeRangeEnd="-9999999/1" timeRangeDuration="0/1" interpolaterName=""  />
                </ZoomPanKeyframes>
               </ZoomPanBin>
              </Entry>
              <Entry key="CursorEffectBin">
               <CursorEffectBin id="2469"  >
                <CursorEffectKeyframes>
                </CursorEffectKeyframes>
               </CursorEffectBin>
              </Entry>
             </ExtraData>
            </ScreenVMFile>
            <MetaData>
             <entry key="AutoAppliedSmartFocus" val="False"/>
             <entry key="WinSubProjectDisplayName" val=""/>
            </MetaData>
           </UnifiedMedia>
           <UnifiedMedia id="2470"  >
            <AMFile id="2471" start="8083" duration="49" scalar="1/1" mediaStart="13140/1" mediaDuration="49/1" trackNumber="1" src="5" channelNumber="0,1" >
             <Parameters>
              <InterpolatingParam id="2472" interp="linr"  time="0/1" value="1" leadInLength="0/1"  name="volume"/>
              <Parameter id="2473"  name="captions"/>
             </Parameters>
             <Attributes>
              <Attribute id="2474" value="" name="ident"/>
              <Attribute id="2475" value="44100" name="sampleRate"/>
              <Attribute id="2476" value="16" name="bitDepth"/>
              <Attribute id="2477" value="1" name="gain"/>
              <Attribute id="2478" value="0" name="mixToMono"/>
             </Attributes>
            </AMFile>
            <ScreenVMFile id="2479" start="8083" duration="49" scalar="1/1" mediaStart="13140/1" mediaDuration="49/1" trackNumber="0" src="5" >
             <Transformer>
              <VectorParam id="2480"  name="translation">
               <InterpolatingParam id="2481" interp="linr"  time="-9999999/1" value="0" leadInLength="0/1"  />
               <InterpolatingParam id="2482" interp="linr"  time="-9999999/1" value="0" leadInLength="0/1"  />
               <InterpolatingParam id="2483" interp="linr"  time="-9999999/1" value="0" leadInLength="0/1"  />
              </VectorParam>
              <VectorParam id="2484"  name="rotation">
               <InterpolatingParam id="2485" interp="linr"  time="-9999999/1" value="0" leadInLength="0/1"  />
               <InterpolatingParam id="2486" interp="linr"  time="-9999999/1" value="0" leadInLength="0/1"  />
               <InterpolatingParam id="2487" interp="linr"  time="-9999999/1" value="0" leadInLength="0/1"  />
              </VectorParam>
              <VectorParam id="2488"  name="shear">
               <InterpolatingParam id="2489" interp="linr"  time="-9999999/1" value="0" leadInLength="0/1"  />
               <InterpolatingParam id="2490" interp="linr"  time="-9999999/1" value="0" leadInLength="0/1"  />
               <InterpolatingParam id="2491" interp="linr"  time="-9999999/1" value="0" leadInLength="0/1"  />
              </VectorParam>
              <VectorParam id="2492"  name="scale">
               <InterpolatingParam id="2493" interp="linr"  time="-9999999/1" value="1" leadInLength="0/1"  />
               <InterpolatingParam id="2494" interp="linr"  time="-9999999/1" value="1" leadInLength="0/1"  />
               <InterpolatingParam id="2495" interp="linr"  time="-9999999/1" value="1" leadInLength="0/1"  />
              </VectorParam>
              <VectorParam id="2496"  name="anchor">
               <InterpolatingParam id="2497" interp="linr"  time="0/1" value="0" leadInLength="0/1"  />
               <InterpolatingParam id="2498" interp="linr"  time="0/1" value="0" leadInLength="0/1"  />
               <InterpolatingParam id="2499" interp="linr"  time="0/1" value="0" leadInLength="0/1"  />
              </VectorParam>
             </Transformer>
             <Parameters>
              <VectorParam id="2500"  name="sourceCrop">
               <InterpolatingParam id="2501" interp="linr"  time="0/1" value="0" leadInLength="0/1"  />
               <InterpolatingParam id="2502" interp="linr"  time="0/1" value="0" leadInLength="0/1"  />
               <InterpolatingParam id="2503" interp="linr"  time="0/1" value="0" leadInLength="0/1"  />
               <InterpolatingParam id="2504" interp="linr"  time="0/1" value="0" leadInLength="0/1"  />
              </VectorParam>
              <VectorParam id="2505"  name="geometryCrop">
               <InterpolatingParam id="2506" interp="linr"  time="-9999999/1" value="0" leadInLength="0/1"  />
               <InterpolatingParam id="2507" interp="linr"  time="-9999999/1" value="0" leadInLength="0/1"  />
               <InterpolatingParam id="2508" interp="linr"  time="-9999999/1" value="0" leadInLength="0/1"  />
               <InterpolatingParam id="2509" interp="linr"  time="-9999999/1" value="0" leadInLength="0/1"  />
              </VectorParam>
              <InterpolatingParam id="2510" interp="linr"  time="-9999999/1" value="1" leadInLength="0/1"  name="opacity"/>
              <InterpolatingParam id="2511" interp="linr"  time="0/1" value="0" leadInLength="0/1"  name="cursorOpacity"/>
              <InterpolatingParam id="2512" interp="linr"  time="0/1" value="0" leadInLength="0/1"  name="cursorScale"/>
             </Parameters>
             <Attributes>
              <Attribute id="2513" value="" name="ident"/>
             </Attributes>
             <ExtraData>
              <Entry key="ZoomPanBin">
               <ZoomPanBin id="2514"  >
                <ZoomPanKeyframes>
                 <ZoomPanKeyframe id="2515" timeRangeEnd="-9999999/1" timeRangeDuration="0/1" interpolaterName=""  />
                </ZoomPanKeyframes>
               </ZoomPanBin>
              </Entry>
              <Entry key="CursorEffectBin">
               <CursorEffectBin id="2516"  >
                <CursorEffectKeyframes>
                </CursorEffectKeyframes>
               </CursorEffectBin>
              </Entry>
             </ExtraData>
            </ScreenVMFile>
            <MetaData>
             <entry key="AutoAppliedSmartFocus" val="False"/>
             <entry key="WinSubProjectDisplayName" val=""/>
            </MetaData>
           </UnifiedMedia>
           <UnifiedMedia id="2517"  >
            <AMFile id="2518" start="8132" duration="174" scalar="1/1" mediaStart="13195/1" mediaDuration="174/1" trackNumber="1" src="5" channelNumber="0,1" >
             <Parameters>
              <InterpolatingParam id="2519" interp="linr"  time="0/1" value="1" leadInLength="0/1"  name="volume"/>
              <Parameter id="2520"  name="captions"/>
             </Parameters>
             <Attributes>
              <Attribute id="2521" value="" name="ident"/>
              <Attribute id="2522" value="44100" name="sampleRate"/>
              <Attribute id="2523" value="16" name="bitDepth"/>
              <Attribute id="2524" value="1" name="gain"/>
              <Attribute id="2525" value="0" name="mixToMono"/>
             </Attributes>
            </AMFile>
            <ScreenVMFile id="2526" start="8132" duration="174" scalar="1/1" mediaStart="13195/1" mediaDuration="174/1" trackNumber="0" src="5" >
             <Transformer>
              <VectorParam id="2527"  name="translation">
               <InterpolatingParam id="2528" interp="linr"  time="-9999999/1" value="0" leadInLength="0/1"  />
               <InterpolatingParam id="2529" interp="linr"  time="-9999999/1" value="0" leadInLength="0/1"  />
               <InterpolatingParam id="2530" interp="linr"  time="-9999999/1" value="0" leadInLength="0/1"  />
              </VectorParam>
              <VectorParam id="2531"  name="rotation">
               <InterpolatingParam id="2532" interp="linr"  time="-9999999/1" value="0" leadInLength="0/1"  />
               <InterpolatingParam id="2533" interp="linr"  time="-9999999/1" value="0" leadInLength="0/1"  />
               <InterpolatingParam id="2534" interp="linr"  time="-9999999/1" value="0" leadInLength="0/1"  />
              </VectorParam>
              <VectorParam id="2535"  name="shear">
               <InterpolatingParam id="2536" interp="linr"  time="-9999999/1" value="0" leadInLength="0/1"  />
               <InterpolatingParam id="2537" interp="linr"  time="-9999999/1" value="0" leadInLength="0/1"  />
               <InterpolatingParam id="2538" interp="linr"  time="-9999999/1" value="0" leadInLength="0/1"  />
              </VectorParam>
              <VectorParam id="2539"  name="scale">
               <InterpolatingParam id="2540" interp="linr"  time="-9999999/1" value="1" leadInLength="0/1"  />
               <InterpolatingParam id="2541" interp="linr"  time="-9999999/1" value="1" leadInLength="0/1"  />
               <InterpolatingParam id="2542" interp="linr"  time="-9999999/1" value="1" leadInLength="0/1"  />
              </VectorParam>
              <VectorParam id="2543"  name="anchor">
               <InterpolatingParam id="2544" interp="linr"  time="0/1" value="0" leadInLength="0/1"  />
               <InterpolatingParam id="2545" interp="linr"  time="0/1" value="0" leadInLength="0/1"  />
               <InterpolatingParam id="2546" interp="linr"  time="0/1" value="0" leadInLength="0/1"  />
              </VectorParam>
             </Transformer>
             <Parameters>
              <VectorParam id="2547"  name="sourceCrop">
               <InterpolatingParam id="2548" interp="linr"  time="0/1" value="0" leadInLength="0/1"  />
               <InterpolatingParam id="2549" interp="linr"  time="0/1" value="0" leadInLength="0/1"  />
               <InterpolatingParam id="2550" interp="linr"  time="0/1" value="0" leadInLength="0/1"  />
               <InterpolatingParam id="2551" interp="linr"  time="0/1" value="0" leadInLength="0/1"  />
              </VectorParam>
              <VectorParam id="2552"  name="geometryCrop">
               <InterpolatingParam id="2553" interp="linr"  time="-9999999/1" value="0" leadInLength="0/1"  />
               <InterpolatingParam id="2554" interp="linr"  time="-9999999/1" value="0" leadInLength="0/1"  />
               <InterpolatingParam id="2555" interp="linr"  time="-9999999/1" value="0" leadInLength="0/1"  />
               <InterpolatingParam id="2556" interp="linr"  time="-9999999/1" value="0" leadInLength="0/1"  />
              </VectorParam>
              <InterpolatingParam id="2557" interp="linr"  time="-9999999/1" value="1" leadInLength="0/1"  name="opacity"/>
              <InterpolatingParam id="2558" interp="linr"  time="0/1" value="0" leadInLength="0/1"  name="cursorOpacity"/>
              <InterpolatingParam id="2559" interp="linr"  time="0/1" value="0" leadInLength="0/1"  name="cursorScale"/>
             </Parameters>
             <Attributes>
              <Attribute id="2560" value="" name="ident"/>
             </Attributes>
             <ExtraData>
              <Entry key="ZoomPanBin">
               <ZoomPanBin id="2561"  >
                <ZoomPanKeyframes>
                 <ZoomPanKeyframe id="2562" timeRangeEnd="-9999999/1" timeRangeDuration="0/1" interpolaterName=""  />
                </ZoomPanKeyframes>
               </ZoomPanBin>
              </Entry>
              <Entry key="CursorEffectBin">
               <CursorEffectBin id="2563"  >
                <CursorEffectKeyframes>
                </CursorEffectKeyframes>
               </CursorEffectBin>
              </Entry>
             </ExtraData>
            </ScreenVMFile>
            <MetaData>
             <entry key="AutoAppliedSmartFocus" val="False"/>
             <entry key="WinSubProjectDisplayName" val=""/>
            </MetaData>
           </UnifiedMedia>
           <UnifiedMedia id="2564"  >
            <AMFile id="2565" start="8306" duration="132" scalar="1/1" mediaStart="13383/1" mediaDuration="132/1" trackNumber="1" src="5" channelNumber="0,1" >
             <Parameters>
              <InterpolatingParam id="2566" interp="linr"  time="0/1" value="1" leadInLength="0/1"  name="volume"/>
              <Parameter id="2567"  name="captions"/>
             </Parameters>
             <Attributes>
              <Attribute id="2568" value="" name="ident"/>
              <Attribute id="2569" value="44100" name="sampleRate"/>
              <Attribute id="2570" value="16" name="bitDepth"/>
              <Attribute id="2571" value="1" name="gain"/>
              <Attribute id="2572" value="0" name="mixToMono"/>
             </Attributes>
            </AMFile>
            <ScreenVMFile id="2573" start="8306" duration="132" scalar="1/1" mediaStart="13383/1" mediaDuration="132/1" trackNumber="0" src="5" >
             <Transformer>
              <VectorParam id="2574"  name="translation">
               <InterpolatingParam id="2575" interp="linr"  time="-9999999/1" value="0" leadInLength="0/1"  />
               <InterpolatingParam id="2576" interp="linr"  time="-9999999/1" value="0" leadInLength="0/1"  />
               <InterpolatingParam id="2577" interp="linr"  time="-9999999/1" value="0" leadInLength="0/1"  />
              </VectorParam>
              <VectorParam id="2578"  name="rotation">
               <InterpolatingParam id="2579" interp="linr"  time="-9999999/1" value="0" leadInLength="0/1"  />
               <InterpolatingParam id="2580" interp="linr"  time="-9999999/1" value="0" leadInLength="0/1"  />
               <InterpolatingParam id="2581" interp="linr"  time="-9999999/1" value="0" leadInLength="0/1"  />
              </VectorParam>
              <VectorParam id="2582"  name="shear">
               <InterpolatingParam id="2583" interp="linr"  time="-9999999/1" value="0" leadInLength="0/1"  />
               <InterpolatingParam id="2584" interp="linr"  time="-9999999/1" value="0" leadInLength="0/1"  />
               <InterpolatingParam id="2585" interp="linr"  time="-9999999/1" value="0" leadInLength="0/1"  />
              </VectorParam>
              <VectorParam id="2586"  name="scale">
               <InterpolatingParam id="2587" interp="linr"  time="-9999999/1" value="1" leadInLength="0/1"  />
               <InterpolatingParam id="2588" interp="linr"  time="-9999999/1" value="1" leadInLength="0/1"  />
               <InterpolatingParam id="2589" interp="linr"  time="-9999999/1" value="1" leadInLength="0/1"  />
              </VectorParam>
              <VectorParam id="2590"  name="anchor">
               <InterpolatingParam id="2591" interp="linr"  time="0/1" value="0" leadInLength="0/1"  />
               <InterpolatingParam id="2592" interp="linr"  time="0/1" value="0" leadInLength="0/1"  />
               <InterpolatingParam id="2593" interp="linr"  time="0/1" value="0" leadInLength="0/1"  />
              </VectorParam>
             </Transformer>
             <Parameters>
              <VectorParam id="2594"  name="sourceCrop">
               <InterpolatingParam id="2595" interp="linr"  time="0/1" value="0" leadInLength="0/1"  />
               <InterpolatingParam id="2596" interp="linr"  time="0/1" value="0" leadInLength="0/1"  />
               <InterpolatingParam id="2597" interp="linr"  time="0/1" value="0" leadInLength="0/1"  />
               <InterpolatingParam id="2598" interp="linr"  time="0/1" value="0" leadInLength="0/1"  />
              </VectorParam>
              <VectorParam id="2599"  name="geometryCrop">
               <InterpolatingParam id="2600" interp="linr"  time="-9999999/1" value="0" leadInLength="0/1"  />
               <InterpolatingParam id="2601" interp="linr"  time="-9999999/1" value="0" leadInLength="0/1"  />
               <InterpolatingParam id="2602" interp="linr"  time="-9999999/1" value="0" leadInLength="0/1"  />
               <InterpolatingParam id="2603" interp="linr"  time="-9999999/1" value="0" leadInLength="0/1"  />
              </VectorParam>
              <InterpolatingParam id="2604" interp="linr"  time="-9999999/1" value="1" leadInLength="0/1"  name="opacity"/>
              <InterpolatingParam id="2605" interp="linr"  time="0/1" value="0" leadInLength="0/1"  name="cursorOpacity"/>
              <InterpolatingParam id="2606" interp="linr"  time="0/1" value="0" leadInLength="0/1"  name="cursorScale"/>
             </Parameters>
             <Attributes>
              <Attribute id="2607" value="" name="ident"/>
             </Attributes>
             <ExtraData>
              <Entry key="ZoomPanBin">
               <ZoomPanBin id="2608"  >
                <ZoomPanKeyframes>
                 <ZoomPanKeyframe id="2609" timeRangeEnd="-9999999/1" timeRangeDuration="0/1" interpolaterName=""  />
                </ZoomPanKeyframes>
               </ZoomPanBin>
              </Entry>
              <Entry key="CursorEffectBin">
               <CursorEffectBin id="2610"  >
                <CursorEffectKeyframes>
                </CursorEffectKeyframes>
               </CursorEffectBin>
              </Entry>
             </ExtraData>
            </ScreenVMFile>
            <MetaData>
             <entry key="AutoAppliedSmartFocus" val="False"/>
             <entry key="WinSubProjectDisplayName" val=""/>
            </MetaData>
           </UnifiedMedia>
          </Medias>
         </GenericTrack>
        </StitchedMedia>
       </Medias>
      </GenericTrack>
      <GenericTrack id="2611"  >
       <Attributes>
        <Attribute id="2612" value="" name="ident"/>
        <Attribute id="2613" value="0" name="audioMuted"/>
        <Attribute id="2614" value="0" name="videoHidden"/>
       </Attributes>
       <MetaData>
        <entry key="IsLocked" val="False"/>
        <entry key="WinTrackHeight" val="62"/>
       </MetaData>
       <Medias>
       </Medias>
      </GenericTrack>
     </Tracks>
    </GenericMixer>
   <CaptionAttributes id="2615"  >
    <Attribute id="2616" value="1" name="captionsEnabled"/>
    <Attribute id="2617" value="Arial" name="captionsFontName"/>
    <Attribute id="2618" value="36" name="captionsFontSize"/>
    <Attribute id="2619" value="(0,0,0,255)" name="captionsBackgroundColor"/>
    <Attribute id="2620" value="(255,255,255,255)" name="captionsForegroundColor"/>
    <Attribute id="2621" value="en" name="lang"/>
    <Attribute id="2622" value="0" name="captionsAlignment"/>
    <Attribute id="2623" value="1" name="captionsDefaultFontSize"/>
    <Attribute id="2624" value="0.5" name="captionsOpacity"/>
    <Attribute id="2625" value="1" name="captionsBackgroundEnabled"/>
    <Attribute id="2626" value="1" name="captionsBackgroundOnlyAroundText"/>
   </CaptionAttributes>
   <Parameters>
    <VectorParam id="2627"  name="eyePosition">
     <InterpolatingParam id="2628" interp="linr"  time="0/1" value="0" leadInLength="0/1"  />
     <InterpolatingParam id="2629" interp="linr"  time="0/1" value="0" leadInLength="0/1"  />
     <InterpolatingParam id="2630" interp="linr"  time="0/1" value="3000" leadInLength="0/1"  />
    </VectorParam>
    <VectorParam id="2631"  name="eyeLookAtPosition">
     <InterpolatingParam id="2632" interp="linr"  time="0/1" value="0" leadInLength="0/1"  />
     <InterpolatingParam id="2633" interp="linr"  time="0/1" value="0" leadInLength="0/1"  />
     <InterpolatingParam id="2634" interp="linr"  time="0/1" value="0" leadInLength="0/1"  />
    </VectorParam>
    <VectorParam id="2635"  name="eyeUpVector">
     <InterpolatingParam id="2636" interp="linr"  time="0/1" value="0" leadInLength="0/1"  />
     <InterpolatingParam id="2637" interp="linr"  time="0/1" value="1" leadInLength="0/1"  />
     <InterpolatingParam id="2638" interp="linr"  time="0/1" value="0" leadInLength="0/1"  />
    </VectorParam>
    <InterpolatingParam id="2639" interp="linr"  time="0/1" value="0.356185883" leadInLength="0/1"  name="fov"/>
    <InterpolatingParam id="2640" interp="linr"  time="0/1" value="1.5" leadInLength="0/1"  name="nearClipDistance"/>
    <InterpolatingParam id="2641" interp="linr"  time="0/1" value="6000" leadInLength="0/1"  name="farClipDistance"/>
   </Parameters>
  </Timeline>
 </Project>
</GoProject>
</CSMLData>

</Project_Data>
