<?xml version="1.0"?>
<Project_Data Version="8.00">
<Project_Settings>
<ProfileName>MP4 only (up to 1080p)</ProfileName>
<ProjectWidth>1920</ProjectWidth>
<ProjectHeight>1080</ProjectHeight>
<IsCustomProject>1</IsCustomProject>
<SavedProjectSettings>1</SavedProjectSettings>
<LastFlashTemplate>-1</LastFlashTemplate>
</Project_Settings>


<AutoSaveFile>C:\Users\Administrator\AppData\Local\TechSmith\Camtasia Studio\8.0\Auto-Saves\Flex Direction Corrected18cfd0b.autosave.camproj</AutoSaveFile>

<ProjectID>68074CF4-0E09-4C51-99B6-32269ACE3708</ProjectID>

<PowerPointProject>0</PowerPointProject>

<PowerPointFilename></PowerPointFilename>


<Project_Notes>
</Project_Notes>

<Project_MetaData>
<Project_MetaData_Object>
<FieldArrayKey>8</FieldArrayKey>
<Value>Flex Direction Corrected</Value>
</Project_MetaData_Object>
<Project_MetaData_Object>
<FieldArrayKey>13</FieldArrayKey>
<Value>2017-01-31 05:36:34 PM</Value>
</Project_MetaData_Object>
<Project_MetaData_Object>
<FieldArrayKey>16</FieldArrayKey>
<Value>ENU</Value>
</Project_MetaData_Object>
</Project_MetaData>

<CSMLData>
<GoProject id="1" version="3.0" >
 <Project id="2" editRate="30/1" version="3.0" >
  <Author></Author>
  <Comment></Comment>
  <System></System>
  <SourceBin id="3"  >
    <Source id="4" src="D:\Peter Sommerhoff\Source Files\05.flex-direction.trec" lastMod="20170128T172452" rect="(0,0,1920,1080)" >
      <SourceTrack range="(0,28181)" type="0" editRate="30/1" trackRect="(0,0,1920,1080)" sampleRate="0/1" bitDepth="0" numChannels="0" filename="05.flex-direction.trec!Strack0.tsc2" metaData="05.flex-direction.trec;" />
      <SourceTrack range="(0,41433088)" type="2" editRate="44100/1" trackRect="(0,0,0,0)" sampleRate="44100/1" bitDepth="16" numChannels="2" filename="05.flex-direction.trec!Maudio1.mp4" metaData="" />
    </Source>
  </SourceBin>
  <Timeline id="5"  >
   <Attributes>
    <Attribute id="6" value="1920" name="width"/>
    <Attribute id="7" value="1080" name="height"/>
    <Attribute id="8" value="(0,0,0,255)" name="backgroundColor"/>
   </Attributes>
    <GenericMixer id="9"  name="Unified Mixer">
     <MetaData>
      <entry key="MixerType" val="TimelineMixer"/>
     </MetaData>
     <Tracks>
      <GenericTrack id="10"  >
       <Attributes>
        <Attribute id="11" value="" name="ident"/>
        <Attribute id="12" value="0" name="audioMuted"/>
        <Attribute id="13" value="0" name="videoHidden"/>
       </Attributes>
       <MetaData>
        <entry key="IsLocked" val="False"/>
        <entry key="WinTrackHeight" val="40"/>
       </MetaData>
       <Medias>
       </Medias>
      </GenericTrack>
      <GenericTrack id="14"  >
       <Attributes>
        <Attribute id="15" value="" name="ident"/>
        <Attribute id="16" value="0" name="audioMuted"/>
        <Attribute id="17" value="0" name="videoHidden"/>
       </Attributes>
       <MetaData>
        <entry key="IsLocked" val="False"/>
        <entry key="WinTrackHeight" val="114"/>
       </MetaData>
       <Medias>
        <UnifiedMedia id="18"  >
         <AudioTransition id="19" start="0" duration="30" >
          <Parameters>
           <InterpolatingParam id="20" interp="linr"  time="0/1" value="1" leadInLength="0/1"  name="volume"/>
           <Parameter id="21"  name="captions"/>
          </Parameters>
          <Effects>
           <GenericEffect id="22" name = "AudioTransition" >
            <Parameters>
            <Parameter id="23"   name="audioEdgeModType">
             <Keyframes>
             <Keyframe id="24"  time="0/1" value="0" leadInLength="0/1"  />
             </Keyframes>
            </Parameter>
            <Parameter id="25"   name="audioTransitionType">
             <Keyframes>
             <Keyframe id="26"  time="0/1" value="" leadInLength="0/1"  />
             </Keyframes>
            </Parameter>
            </Parameters>
            <MetaData>
            </MetaData>
           </GenericEffect>
          </Effects>
          <Attributes>
           <Attribute id="27" value="" name="ident"/>
           <Attribute id="28" value="0" name="sampleRate"/>
           <Attribute id="29" value="0" name="bitDepth"/>
           <Attribute id="30" value="1" name="gain"/>
           <Attribute id="31" value="0" name="mixToMono"/>
          </Attributes>
         </AudioTransition>
         <ImageTransition id="32" start="0" duration="30" >
          <Transformer>
           <VectorParam id="33"  name="translation">
            <InterpolatingParam id="34" interp="linr"  time="0/1" value="0" leadInLength="0/1"  />
            <InterpolatingParam id="35" interp="linr"  time="0/1" value="0" leadInLength="0/1"  />
            <InterpolatingParam id="36" interp="linr"  time="0/1" value="0" leadInLength="0/1"  />
           </VectorParam>
           <VectorParam id="37"  name="rotation">
            <InterpolatingParam id="38" interp="linr"  time="0/1" value="0" leadInLength="0/1"  />
            <InterpolatingParam id="39" interp="linr"  time="0/1" value="0" leadInLength="0/1"  />
            <InterpolatingParam id="40" interp="linr"  time="0/1" value="0" leadInLength="0/1"  />
           </VectorParam>
           <VectorParam id="41"  name="shear">
            <InterpolatingParam id="42" interp="linr"  time="0/1" value="0" leadInLength="0/1"  />
            <InterpolatingParam id="43" interp="linr"  time="0/1" value="0" leadInLength="0/1"  />
            <InterpolatingParam id="44" interp="linr"  time="0/1" value="0" leadInLength="0/1"  />
           </VectorParam>
           <VectorParam id="45"  name="scale">
            <InterpolatingParam id="46" interp="linr"  time="0/1" value="1" leadInLength="0/1"  />
            <InterpolatingParam id="47" interp="linr"  time="0/1" value="1" leadInLength="0/1"  />
            <InterpolatingParam id="48" interp="linr"  time="0/1" value="1" leadInLength="0/1"  />
           </VectorParam>
           <VectorParam id="49"  name="anchor">
            <InterpolatingParam id="50" interp="linr"  time="0/1" value="0" leadInLength="0/1"  />
            <InterpolatingParam id="51" interp="linr"  time="0/1" value="0" leadInLength="0/1"  />
            <InterpolatingParam id="52" interp="linr"  time="0/1" value="0" leadInLength="0/1"  />
           </VectorParam>
          </Transformer>
          <Parameters>
           <VectorParam id="53"  name="sourceCrop">
            <InterpolatingParam id="54" interp="linr"  time="0/1" value="0" leadInLength="0/1"  />
            <InterpolatingParam id="55" interp="linr"  time="0/1" value="0" leadInLength="0/1"  />
            <InterpolatingParam id="56" interp="linr"  time="0/1" value="0" leadInLength="0/1"  />
            <InterpolatingParam id="57" interp="linr"  time="0/1" value="0" leadInLength="0/1"  />
           </VectorParam>
           <VectorParam id="58"  name="geometryCrop">
            <InterpolatingParam id="59" interp="linr"  time="0/1" value="0" leadInLength="0/1"  />
            <InterpolatingParam id="60" interp="linr"  time="0/1" value="0" leadInLength="0/1"  />
            <InterpolatingParam id="61" interp="linr"  time="0/1" value="0" leadInLength="0/1"  />
            <InterpolatingParam id="62" interp="linr"  time="0/1" value="0" leadInLength="0/1"  />
           </VectorParam>
           <InterpolatingParam id="63" interp="linr"  time="0/1" value="1" leadInLength="0/1"  name="opacity"/>
          </Parameters>
          <Effects>
           <GenericEffect id="64" name = "VisualTransition" >
            <Parameters>
            <InterpolatingParam id="65" interp="linr"  time="0/1" value="0.5" leadInLength="0/1"   name="leftFramePercentage"/>
            <InterpolatingParam id="66" interp="linr"  time="0/1" value="0.5" leadInLength="0/1"   name="rightFramePercentage"/>
            <Parameter id="67"   name="visualEdgeModType">
             <Keyframes>
             <Keyframe id="68"  time="0/1" value="1" leadInLength="0/1"  />
             </Keyframes>
            </Parameter>
            <Parameter id="69"   name="visualTransitionType">
             <Keyframes>
             <Keyframe id="70"  time="0/1" value="Glow" leadInLength="0/1"  />
             </Keyframes>
            </Parameter>
            </Parameters>
            <MetaData>
            </MetaData>
           </GenericEffect>
          </Effects>
          <Attributes>
           <Attribute id="71" value="" name="ident"/>
          </Attributes>
          <ExtraData>
           <Entry key="ZoomPanBin">
            <ZoomPanBin id="72"  >
             <ZoomPanKeyframes>
             </ZoomPanKeyframes>
            </ZoomPanBin>
           </Entry>
          </ExtraData>
         </ImageTransition>
         <MetaData>
          <entry key="WinSubProjectDisplayName" val=""/>
         </MetaData>
        </UnifiedMedia>
        <StitchedMedia id="73" start="30" duration="12637" scalar="1/1" mediaStart="513/1" mediaDuration="12637/1" minMediaStart="0/1" >
         <Transformer>
          <VectorParam id="74"  name="translation">
           <InterpolatingParam id="75" interp="linr"  time="-9999999/1" value="-2.1645973902195692e-010" leadInLength="0/1"  interpolater="leadin-linr"  />
           <InterpolatingParam id="76" interp="linr"  time="-9999999/1" value="4.8657966544851661e-011" leadInLength="0/1"  interpolater="leadin-linr"  />
           <InterpolatingParam id="77" interp="linr"  time="-9999999/1" value="0" leadInLength="0/1"  interpolater="leadin-linr"  />
          </VectorParam>
          <VectorParam id="78"  name="rotation">
           <InterpolatingParam id="79" interp="linr"  time="-9999999/1" value="0" leadInLength="0/1"  interpolater="leadin-linr"  />
           <InterpolatingParam id="80" interp="linr"  time="-9999999/1" value="0" leadInLength="0/1"  interpolater="leadin-linr"  />
           <InterpolatingParam id="81" interp="linr"  time="-9999999/1" value="0" leadInLength="0/1"  interpolater="leadin-linr"  />
          </VectorParam>
          <VectorParam id="82"  name="shear">
           <InterpolatingParam id="83" interp="linr"  time="-9999999/1" value="0" leadInLength="0/1"  interpolater="leadin-linr"  />
           <InterpolatingParam id="84" interp="linr"  time="-9999999/1" value="0" leadInLength="0/1"  interpolater="leadin-linr"  />
           <InterpolatingParam id="85" interp="linr"  time="-9999999/1" value="0" leadInLength="0/1"  interpolater="leadin-linr"  />
          </VectorParam>
          <VectorParam id="86"  name="scale">
           <InterpolatingParam id="87" interp="linr"  time="-9999999/1" value="1" leadInLength="0/1"  interpolater="leadin-linr"  />
           <InterpolatingParam id="88" interp="linr"  time="-9999999/1" value="1" leadInLength="0/1"  interpolater="leadin-linr"  />
           <InterpolatingParam id="89" interp="linr"  time="-9999999/1" value="1" leadInLength="0/1"  interpolater="leadin-linr"  />
          </VectorParam>
          <VectorParam id="90"  name="anchor">
           <InterpolatingParam id="91" interp="linr"  time="0/1" value="0" leadInLength="0/1"  />
           <InterpolatingParam id="92" interp="linr"  time="0/1" value="0" leadInLength="0/1"  />
           <InterpolatingParam id="93" interp="linr"  time="0/1" value="0" leadInLength="0/1"  />
          </VectorParam>
         </Transformer>
         <Parameters>
          <VectorParam id="94"  name="sourceCrop">
           <InterpolatingParam id="95" interp="linr"  time="0/1" value="0" leadInLength="0/1"  />
           <InterpolatingParam id="96" interp="linr"  time="0/1" value="0" leadInLength="0/1"  />
           <InterpolatingParam id="97" interp="linr"  time="0/1" value="0" leadInLength="0/1"  />
           <InterpolatingParam id="98" interp="linr"  time="0/1" value="0" leadInLength="0/1"  />
          </VectorParam>
          <VectorParam id="99"  name="geometryCrop">
           <InterpolatingParam id="100" interp="linr"  time="-9999999/1" value="0" leadInLength="0/1"  interpolater="leadin-linr"  />
           <InterpolatingParam id="101" interp="linr"  time="-9999999/1" value="0" leadInLength="0/1"  interpolater="leadin-linr"  />
           <InterpolatingParam id="102" interp="linr"  time="-9999999/1" value="0" leadInLength="0/1"  interpolater="leadin-linr"  />
           <InterpolatingParam id="103" interp="linr"  time="-9999999/1" value="0" leadInLength="0/1"  interpolater="leadin-linr"  />
          </VectorParam>
          <InterpolatingParam id="104" interp="linr"  time="-9999999/1" value="1" leadInLength="0/1"  interpolater="leadin-linr"  name="opacity"/>
          <InterpolatingParam id="105" interp="linr"  time="0/1" value="1" leadInLength="0/1"  name="cursorOpacity"/>
          <InterpolatingParam id="106" interp="linr"  time="0/1" value="1" leadInLength="0/1"  name="cursorScale"/>
          <InterpolatingParam id="107" interp="linr"  time="0/1" value="1.5625" leadInLength="0/1"  name="volume"/>
          <Parameter id="108"  name="captions"/>
         </Parameters>
         <Effects>
          <GenericEffect id="109" name = "CursorBaseEffectName" >
           <Parameters>
           <InterpolatingParam id="110" interp="linr"  time="-9999999/1" value="1" leadInLength="0/1"   name="cursorSize"/>
           <InterpolatingParam id="111" interp="linr"  time="-9999999/1" value="0" leadInLength="0/1"   name="highlightBlurRadius"/>
           <InterpolatingParam id="112" interp="linr"  time="-9999999/1" value="0" leadInLength="0/1"   name="highlightColorBlue"/>
           <InterpolatingParam id="113" interp="linr"  time="-9999999/1" value="255" leadInLength="0/1"   name="highlightColorGreen"/>
           <InterpolatingParam id="114" interp="linr"  time="-9999999/1" value="255" leadInLength="0/1"   name="highlightColorRed"/>
           <InterpolatingParam id="115" interp="linr"  time="-9999999/1" value="5" leadInLength="0/1"   name="highlightFeatherSize"/>
           <InterpolatingParam id="116" interp="linr"  time="-9999999/1" value="2" leadInLength="0/1"   name="highlightMagnification"/>
           <InterpolatingParam id="117" interp="linr"  time="-9999999/1" value="1" leadInLength="0/1"   name="highlightOpacity"/>
           <InterpolatingParam id="118" interp="linr"  time="-9999999/1" value="45" leadInLength="0/1"   name="highlightSize"/>
           <Parameter id="119"   name="highlightType">
            <Keyframes>
            <Keyframe id="120"  time="-9999999/1" value="0" leadInLength="0/1"  />
            </Keyframes>
           </Parameter>
           <InterpolatingParam id="121" interp="linr"  time="-9999999/1" value="0" leadInLength="0/1"   name="leftClickColorBlue"/>
           <InterpolatingParam id="122" interp="linr"  time="-9999999/1" value="0" leadInLength="0/1"   name="leftClickColorGreen"/>
           <InterpolatingParam id="123" interp="linr"  time="-9999999/1" value="255" leadInLength="0/1"   name="leftClickColorRed"/>
           <InterpolatingParam id="124" interp="linr"  time="-9999999/1" value="0.80000000000000004" leadInLength="0/1"   name="leftClickDuration"/>
           <InterpolatingParam id="125" interp="linr"  time="-9999999/1" value="20" leadInLength="0/1"   name="leftClickSize"/>
           <Parameter id="126"   name="leftClickSoundFilename">
            <Keyframes>
            <Keyframe id="127"  time="-9999999/1" value="" leadInLength="0/1"  />
            </Keyframes>
           </Parameter>
           <InterpolatingParam id="128" interp="linr"  time="-9999999/1" value="1" leadInLength="0/1"   name="leftClickSoundVolume"/>
           <Parameter id="129"   name="leftClickType">
            <Keyframes>
            <Keyframe id="130"  time="-9999999/1" value="0" leadInLength="0/1"  />
            </Keyframes>
           </Parameter>
           <InterpolatingParam id="131" interp="linr"  time="-9999999/1" value="1" leadInLength="0/1"   name="opacity"/>
           <InterpolatingParam id="132" interp="linr"  time="-9999999/1" value="255" leadInLength="0/1"   name="rightClickColorBlue"/>
           <InterpolatingParam id="133" interp="linr"  time="-9999999/1" value="0" leadInLength="0/1"   name="rightClickColorGreen"/>
           <InterpolatingParam id="134" interp="linr"  time="-9999999/1" value="0" leadInLength="0/1"   name="rightClickColorRed"/>
           <InterpolatingParam id="135" interp="linr"  time="-9999999/1" value="0.80000000000000004" leadInLength="0/1"   name="rightClickDuration"/>
           <InterpolatingParam id="136" interp="linr"  time="-9999999/1" value="20" leadInLength="0/1"   name="rightClickSize"/>
           <Parameter id="137"   name="rightClickSoundFilename">
            <Keyframes>
            <Keyframe id="138"  time="-9999999/1" value="" leadInLength="0/1"  />
            </Keyframes>
           </Parameter>
           <InterpolatingParam id="139" interp="linr"  time="-9999999/1" value="1" leadInLength="0/1"   name="rightClickSoundVolume"/>
           <Parameter id="140"   name="rightClickType">
            <Keyframes>
            <Keyframe id="141"  time="-9999999/1" value="0" leadInLength="0/1"  />
            </Keyframes>
           </Parameter>
           </Parameters>
           <MetaData>
            <entry key="effectIndex" val="0"/>
           </MetaData>
          </GenericEffect>
          <GenericEffect id="142" name = "WinCompression" >
           <Parameters>
           <InterpolatingParam id="143" interp="linr"  time="0/1" value="0" leadInLength="0/1"   name="attack"/>
           <InterpolatingParam id="144" interp="linr"  time="0/1" value="9" leadInLength="0/1"   name="gain"/>
           <Parameter id="145"   name="preset">
            <Keyframes>
            <Keyframe id="146"  time="0/1" value="1" leadInLength="0/1"  />
            </Keyframes>
           </Parameter>
           <InterpolatingParam id="147" interp="linr"  time="0/1" value="10" leadInLength="0/1"   name="ratio"/>
           <InterpolatingParam id="148" interp="linr"  time="0/1" value="3500" leadInLength="0/1"   name="release"/>
           <InterpolatingParam id="149" interp="linr"  time="0/1" value="-20" leadInLength="0/1"   name="threshold"/>
           </Parameters>
           <MetaData>
            <entry key="effectIndex" val="1"/>
           </MetaData>
          </GenericEffect>
         </Effects>
         <Attributes>
          <Attribute id="150" value="" name="ident"/>
          <Attribute id="151" value="0" name="mixToMono"/>
         </Attributes>
         <MetaData>
          <entry key="AutoAppliedSmartFocus" val="False"/>
          <entry key="WinSubProjectDisplayName" val=""/>
         </MetaData>
         <ExtraData>
          <Entry key="ZoomPanBin">
           <ZoomPanBin id="152"  >
            <ZoomPanKeyframes>
             <ZoomPanKeyframe id="153" timeRangeEnd="-9999999/1" timeRangeDuration="0/1" interpolaterName="linr"  />
            </ZoomPanKeyframes>
           </ZoomPanBin>
          </Entry>
          <Entry key="CursorEffectBin">
           <CursorEffectBin id="154"  >
            <CursorEffectKeyframes>
             <CursorEffectKeyframe id="155" timeRangeEnd="-9999999/1" timeRangeDuration="0/1" interpolaterName=""  />
            </CursorEffectKeyframes>
           </CursorEffectBin>
          </Entry>
         </ExtraData>
         <GenericTrack id="156"  >
          <Attributes>
           <Attribute id="157" value="" name="ident"/>
           <Attribute id="158" value="0" name="audioMuted"/>
           <Attribute id="159" value="0" name="videoHidden"/>
          </Attributes>
          <MetaData>
           <entry key="IsLocked" val="False"/>
           <entry key="WinTrackHeight" val="0"/>
          </MetaData>
          <Medias>
           <UnifiedMedia id="160"  >
            <AMFile id="161" start="0" duration="842" scalar="1/1" mediaStart="0/1" mediaDuration="842/1" trackNumber="1" src="4" channelNumber="0,1" >
             <Parameters>
              <InterpolatingParam id="162" interp="linr"  time="0/1" value="1" leadInLength="0/1"  name="volume"/>
              <Parameter id="163"  name="captions"/>
             </Parameters>
             <Attributes>
              <Attribute id="164" value="" name="ident"/>
              <Attribute id="165" value="44100" name="sampleRate"/>
              <Attribute id="166" value="16" name="bitDepth"/>
              <Attribute id="167" value="1" name="gain"/>
              <Attribute id="168" value="0" name="mixToMono"/>
             </Attributes>
            </AMFile>
            <ScreenVMFile id="169" start="0" duration="842" scalar="1/1" mediaStart="0/1" mediaDuration="842/1" trackNumber="0" src="4" >
             <Transformer>
              <VectorParam id="170"  name="translation">
               <InterpolatingParam id="171" interp="linr"  time="-9999999/1" value="0" leadInLength="0/1"  />
               <InterpolatingParam id="172" interp="linr"  time="-9999999/1" value="0" leadInLength="0/1"  />
               <InterpolatingParam id="173" interp="linr"  time="-9999999/1" value="0" leadInLength="0/1"  />
              </VectorParam>
              <VectorParam id="174"  name="rotation">
               <InterpolatingParam id="175" interp="linr"  time="-9999999/1" value="0" leadInLength="0/1"  />
               <InterpolatingParam id="176" interp="linr"  time="-9999999/1" value="0" leadInLength="0/1"  />
               <InterpolatingParam id="177" interp="linr"  time="-9999999/1" value="0" leadInLength="0/1"  />
              </VectorParam>
              <VectorParam id="178"  name="shear">
               <InterpolatingParam id="179" interp="linr"  time="-9999999/1" value="0" leadInLength="0/1"  />
               <InterpolatingParam id="180" interp="linr"  time="-9999999/1" value="0" leadInLength="0/1"  />
               <InterpolatingParam id="181" interp="linr"  time="-9999999/1" value="0" leadInLength="0/1"  />
              </VectorParam>
              <VectorParam id="182"  name="scale">
               <InterpolatingParam id="183" interp="linr"  time="-9999999/1" value="1" leadInLength="0/1"  />
               <InterpolatingParam id="184" interp="linr"  time="-9999999/1" value="1" leadInLength="0/1"  />
               <InterpolatingParam id="185" interp="linr"  time="-9999999/1" value="1" leadInLength="0/1"  />
              </VectorParam>
              <VectorParam id="186"  name="anchor">
               <InterpolatingParam id="187" interp="linr"  time="0/1" value="0" leadInLength="0/1"  />
               <InterpolatingParam id="188" interp="linr"  time="0/1" value="0" leadInLength="0/1"  />
               <InterpolatingParam id="189" interp="linr"  time="0/1" value="0" leadInLength="0/1"  />
              </VectorParam>
             </Transformer>
             <Parameters>
              <VectorParam id="190"  name="sourceCrop">
               <InterpolatingParam id="191" interp="linr"  time="0/1" value="0" leadInLength="0/1"  />
               <InterpolatingParam id="192" interp="linr"  time="0/1" value="0" leadInLength="0/1"  />
               <InterpolatingParam id="193" interp="linr"  time="0/1" value="0" leadInLength="0/1"  />
               <InterpolatingParam id="194" interp="linr"  time="0/1" value="0" leadInLength="0/1"  />
              </VectorParam>
              <VectorParam id="195"  name="geometryCrop">
               <InterpolatingParam id="196" interp="linr"  time="-9999999/1" value="0" leadInLength="0/1"  />
               <InterpolatingParam id="197" interp="linr"  time="-9999999/1" value="0" leadInLength="0/1"  />
               <InterpolatingParam id="198" interp="linr"  time="-9999999/1" value="0" leadInLength="0/1"  />
               <InterpolatingParam id="199" interp="linr"  time="-9999999/1" value="0" leadInLength="0/1"  />
              </VectorParam>
              <InterpolatingParam id="200" interp="linr"  time="-9999999/1" value="1" leadInLength="0/1"  name="opacity"/>
              <InterpolatingParam id="201" interp="linr"  time="0/1" value="0" leadInLength="0/1"  name="cursorOpacity"/>
              <InterpolatingParam id="202" interp="linr"  time="0/1" value="0" leadInLength="0/1"  name="cursorScale"/>
             </Parameters>
             <Attributes>
              <Attribute id="203" value="" name="ident"/>
             </Attributes>
             <ExtraData>
              <Entry key="ZoomPanBin">
               <ZoomPanBin id="204"  >
                <ZoomPanKeyframes>
                 <ZoomPanKeyframe id="205" timeRangeEnd="-9999999/1" timeRangeDuration="0/1" interpolaterName=""  />
                </ZoomPanKeyframes>
               </ZoomPanBin>
              </Entry>
              <Entry key="CursorEffectBin">
               <CursorEffectBin id="206"  >
                <CursorEffectKeyframes>
                </CursorEffectKeyframes>
               </CursorEffectBin>
              </Entry>
             </ExtraData>
            </ScreenVMFile>
            <MetaData>
             <entry key="AutoAppliedSmartFocus" val="False"/>
             <entry key="WinSubProjectDisplayName" val=""/>
            </MetaData>
           </UnifiedMedia>
           <UnifiedMedia id="207"  >
            <AMFile id="208" start="842" duration="9" scalar="1/1" mediaStart="886/1" mediaDuration="9/1" trackNumber="1" src="4" channelNumber="0,1" >
             <Parameters>
              <InterpolatingParam id="209" interp="linr"  time="0/1" value="1" leadInLength="0/1"  name="volume"/>
              <Parameter id="210"  name="captions"/>
             </Parameters>
             <Attributes>
              <Attribute id="211" value="" name="ident"/>
              <Attribute id="212" value="44100" name="sampleRate"/>
              <Attribute id="213" value="16" name="bitDepth"/>
              <Attribute id="214" value="1" name="gain"/>
              <Attribute id="215" value="0" name="mixToMono"/>
             </Attributes>
            </AMFile>
            <ScreenVMFile id="216" start="842" duration="9" scalar="1/1" mediaStart="886/1" mediaDuration="9/1" trackNumber="0" src="4" >
             <Transformer>
              <VectorParam id="217"  name="translation">
               <InterpolatingParam id="218" interp="linr"  time="-9999999/1" value="0" leadInLength="0/1"  />
               <InterpolatingParam id="219" interp="linr"  time="-9999999/1" value="0" leadInLength="0/1"  />
               <InterpolatingParam id="220" interp="linr"  time="-9999999/1" value="0" leadInLength="0/1"  />
              </VectorParam>
              <VectorParam id="221"  name="rotation">
               <InterpolatingParam id="222" interp="linr"  time="-9999999/1" value="0" leadInLength="0/1"  />
               <InterpolatingParam id="223" interp="linr"  time="-9999999/1" value="0" leadInLength="0/1"  />
               <InterpolatingParam id="224" interp="linr"  time="-9999999/1" value="0" leadInLength="0/1"  />
              </VectorParam>
              <VectorParam id="225"  name="shear">
               <InterpolatingParam id="226" interp="linr"  time="-9999999/1" value="0" leadInLength="0/1"  />
               <InterpolatingParam id="227" interp="linr"  time="-9999999/1" value="0" leadInLength="0/1"  />
               <InterpolatingParam id="228" interp="linr"  time="-9999999/1" value="0" leadInLength="0/1"  />
              </VectorParam>
              <VectorParam id="229"  name="scale">
               <InterpolatingParam id="230" interp="linr"  time="-9999999/1" value="1" leadInLength="0/1"  />
               <InterpolatingParam id="231" interp="linr"  time="-9999999/1" value="1" leadInLength="0/1"  />
               <InterpolatingParam id="232" interp="linr"  time="-9999999/1" value="1" leadInLength="0/1"  />
              </VectorParam>
              <VectorParam id="233"  name="anchor">
               <InterpolatingParam id="234" interp="linr"  time="0/1" value="0" leadInLength="0/1"  />
               <InterpolatingParam id="235" interp="linr"  time="0/1" value="0" leadInLength="0/1"  />
               <InterpolatingParam id="236" interp="linr"  time="0/1" value="0" leadInLength="0/1"  />
              </VectorParam>
             </Transformer>
             <Parameters>
              <VectorParam id="237"  name="sourceCrop">
               <InterpolatingParam id="238" interp="linr"  time="0/1" value="0" leadInLength="0/1"  />
               <InterpolatingParam id="239" interp="linr"  time="0/1" value="0" leadInLength="0/1"  />
               <InterpolatingParam id="240" interp="linr"  time="0/1" value="0" leadInLength="0/1"  />
               <InterpolatingParam id="241" interp="linr"  time="0/1" value="0" leadInLength="0/1"  />
              </VectorParam>
              <VectorParam id="242"  name="geometryCrop">
               <InterpolatingParam id="243" interp="linr"  time="-9999999/1" value="0" leadInLength="0/1"  />
               <InterpolatingParam id="244" interp="linr"  time="-9999999/1" value="0" leadInLength="0/1"  />
               <InterpolatingParam id="245" interp="linr"  time="-9999999/1" value="0" leadInLength="0/1"  />
               <InterpolatingParam id="246" interp="linr"  time="-9999999/1" value="0" leadInLength="0/1"  />
              </VectorParam>
              <InterpolatingParam id="247" interp="linr"  time="-9999999/1" value="1" leadInLength="0/1"  name="opacity"/>
              <InterpolatingParam id="248" interp="linr"  time="0/1" value="0" leadInLength="0/1"  name="cursorOpacity"/>
              <InterpolatingParam id="249" interp="linr"  time="0/1" value="0" leadInLength="0/1"  name="cursorScale"/>
             </Parameters>
             <Attributes>
              <Attribute id="250" value="" name="ident"/>
             </Attributes>
             <ExtraData>
              <Entry key="ZoomPanBin">
               <ZoomPanBin id="251"  >
                <ZoomPanKeyframes>
                 <ZoomPanKeyframe id="252" timeRangeEnd="-9999999/1" timeRangeDuration="0/1" interpolaterName=""  />
                </ZoomPanKeyframes>
               </ZoomPanBin>
              </Entry>
              <Entry key="CursorEffectBin">
               <CursorEffectBin id="253"  >
                <CursorEffectKeyframes>
                </CursorEffectKeyframes>
               </CursorEffectBin>
              </Entry>
             </ExtraData>
            </ScreenVMFile>
            <MetaData>
             <entry key="AutoAppliedSmartFocus" val="False"/>
             <entry key="WinSubProjectDisplayName" val=""/>
            </MetaData>
           </UnifiedMedia>
           <UnifiedMedia id="254"  >
            <AMFile id="255" start="851" duration="109" scalar="1/1" mediaStart="1216/1" mediaDuration="109/1" trackNumber="1" src="4" channelNumber="0,1" >
             <Parameters>
              <InterpolatingParam id="256" interp="linr"  time="0/1" value="1" leadInLength="0/1"  name="volume"/>
              <Parameter id="257"  name="captions"/>
             </Parameters>
             <Attributes>
              <Attribute id="258" value="" name="ident"/>
              <Attribute id="259" value="44100" name="sampleRate"/>
              <Attribute id="260" value="16" name="bitDepth"/>
              <Attribute id="261" value="1" name="gain"/>
              <Attribute id="262" value="0" name="mixToMono"/>
             </Attributes>
            </AMFile>
            <ScreenVMFile id="263" start="851" duration="109" scalar="1/1" mediaStart="1216/1" mediaDuration="109/1" trackNumber="0" src="4" >
             <Transformer>
              <VectorParam id="264"  name="translation">
               <InterpolatingParam id="265" interp="linr"  time="-9999999/1" value="0" leadInLength="0/1"  />
               <InterpolatingParam id="266" interp="linr"  time="-9999999/1" value="0" leadInLength="0/1"  />
               <InterpolatingParam id="267" interp="linr"  time="-9999999/1" value="0" leadInLength="0/1"  />
              </VectorParam>
              <VectorParam id="268"  name="rotation">
               <InterpolatingParam id="269" interp="linr"  time="-9999999/1" value="0" leadInLength="0/1"  />
               <InterpolatingParam id="270" interp="linr"  time="-9999999/1" value="0" leadInLength="0/1"  />
               <InterpolatingParam id="271" interp="linr"  time="-9999999/1" value="0" leadInLength="0/1"  />
              </VectorParam>
              <VectorParam id="272"  name="shear">
               <InterpolatingParam id="273" interp="linr"  time="-9999999/1" value="0" leadInLength="0/1"  />
               <InterpolatingParam id="274" interp="linr"  time="-9999999/1" value="0" leadInLength="0/1"  />
               <InterpolatingParam id="275" interp="linr"  time="-9999999/1" value="0" leadInLength="0/1"  />
              </VectorParam>
              <VectorParam id="276"  name="scale">
               <InterpolatingParam id="277" interp="linr"  time="-9999999/1" value="1" leadInLength="0/1"  />
               <InterpolatingParam id="278" interp="linr"  time="-9999999/1" value="1" leadInLength="0/1"  />
               <InterpolatingParam id="279" interp="linr"  time="-9999999/1" value="1" leadInLength="0/1"  />
              </VectorParam>
              <VectorParam id="280"  name="anchor">
               <InterpolatingParam id="281" interp="linr"  time="0/1" value="0" leadInLength="0/1"  />
               <InterpolatingParam id="282" interp="linr"  time="0/1" value="0" leadInLength="0/1"  />
               <InterpolatingParam id="283" interp="linr"  time="0/1" value="0" leadInLength="0/1"  />
              </VectorParam>
             </Transformer>
             <Parameters>
              <VectorParam id="284"  name="sourceCrop">
               <InterpolatingParam id="285" interp="linr"  time="0/1" value="0" leadInLength="0/1"  />
               <InterpolatingParam id="286" interp="linr"  time="0/1" value="0" leadInLength="0/1"  />
               <InterpolatingParam id="287" interp="linr"  time="0/1" value="0" leadInLength="0/1"  />
               <InterpolatingParam id="288" interp="linr"  time="0/1" value="0" leadInLength="0/1"  />
              </VectorParam>
              <VectorParam id="289"  name="geometryCrop">
               <InterpolatingParam id="290" interp="linr"  time="-9999999/1" value="0" leadInLength="0/1"  />
               <InterpolatingParam id="291" interp="linr"  time="-9999999/1" value="0" leadInLength="0/1"  />
               <InterpolatingParam id="292" interp="linr"  time="-9999999/1" value="0" leadInLength="0/1"  />
               <InterpolatingParam id="293" interp="linr"  time="-9999999/1" value="0" leadInLength="0/1"  />
              </VectorParam>
              <InterpolatingParam id="294" interp="linr"  time="-9999999/1" value="1" leadInLength="0/1"  name="opacity"/>
              <InterpolatingParam id="295" interp="linr"  time="0/1" value="0" leadInLength="0/1"  name="cursorOpacity"/>
              <InterpolatingParam id="296" interp="linr"  time="0/1" value="0" leadInLength="0/1"  name="cursorScale"/>
             </Parameters>
             <Attributes>
              <Attribute id="297" value="" name="ident"/>
             </Attributes>
             <ExtraData>
              <Entry key="ZoomPanBin">
               <ZoomPanBin id="298"  >
                <ZoomPanKeyframes>
                 <ZoomPanKeyframe id="299" timeRangeEnd="-9999999/1" timeRangeDuration="0/1" interpolaterName=""  />
                </ZoomPanKeyframes>
               </ZoomPanBin>
              </Entry>
              <Entry key="CursorEffectBin">
               <CursorEffectBin id="300"  >
                <CursorEffectKeyframes>
                </CursorEffectKeyframes>
               </CursorEffectBin>
              </Entry>
             </ExtraData>
            </ScreenVMFile>
            <MetaData>
             <entry key="AutoAppliedSmartFocus" val="False"/>
             <entry key="WinSubProjectDisplayName" val=""/>
            </MetaData>
           </UnifiedMedia>
           <UnifiedMedia id="301"  >
            <AMFile id="302" start="960" duration="72" scalar="1/1" mediaStart="1337/1" mediaDuration="72/1" trackNumber="1" src="4" channelNumber="0,1" >
             <Parameters>
              <InterpolatingParam id="303" interp="linr"  time="0/1" value="1" leadInLength="0/1"  name="volume"/>
              <Parameter id="304"  name="captions"/>
             </Parameters>
             <Attributes>
              <Attribute id="305" value="" name="ident"/>
              <Attribute id="306" value="44100" name="sampleRate"/>
              <Attribute id="307" value="16" name="bitDepth"/>
              <Attribute id="308" value="1" name="gain"/>
              <Attribute id="309" value="0" name="mixToMono"/>
             </Attributes>
            </AMFile>
            <ScreenVMFile id="310" start="960" duration="72" scalar="1/1" mediaStart="1337/1" mediaDuration="72/1" trackNumber="0" src="4" >
             <Transformer>
              <VectorParam id="311"  name="translation">
               <InterpolatingParam id="312" interp="linr"  time="-9999999/1" value="0" leadInLength="0/1"  />
               <InterpolatingParam id="313" interp="linr"  time="-9999999/1" value="0" leadInLength="0/1"  />
               <InterpolatingParam id="314" interp="linr"  time="-9999999/1" value="0" leadInLength="0/1"  />
              </VectorParam>
              <VectorParam id="315"  name="rotation">
               <InterpolatingParam id="316" interp="linr"  time="-9999999/1" value="0" leadInLength="0/1"  />
               <InterpolatingParam id="317" interp="linr"  time="-9999999/1" value="0" leadInLength="0/1"  />
               <InterpolatingParam id="318" interp="linr"  time="-9999999/1" value="0" leadInLength="0/1"  />
              </VectorParam>
              <VectorParam id="319"  name="shear">
               <InterpolatingParam id="320" interp="linr"  time="-9999999/1" value="0" leadInLength="0/1"  />
               <InterpolatingParam id="321" interp="linr"  time="-9999999/1" value="0" leadInLength="0/1"  />
               <InterpolatingParam id="322" interp="linr"  time="-9999999/1" value="0" leadInLength="0/1"  />
              </VectorParam>
              <VectorParam id="323"  name="scale">
               <InterpolatingParam id="324" interp="linr"  time="-9999999/1" value="1" leadInLength="0/1"  />
               <InterpolatingParam id="325" interp="linr"  time="-9999999/1" value="1" leadInLength="0/1"  />
               <InterpolatingParam id="326" interp="linr"  time="-9999999/1" value="1" leadInLength="0/1"  />
              </VectorParam>
              <VectorParam id="327"  name="anchor">
               <InterpolatingParam id="328" interp="linr"  time="0/1" value="0" leadInLength="0/1"  />
               <InterpolatingParam id="329" interp="linr"  time="0/1" value="0" leadInLength="0/1"  />
               <InterpolatingParam id="330" interp="linr"  time="0/1" value="0" leadInLength="0/1"  />
              </VectorParam>
             </Transformer>
             <Parameters>
              <VectorParam id="331"  name="sourceCrop">
               <InterpolatingParam id="332" interp="linr"  time="0/1" value="0" leadInLength="0/1"  />
               <InterpolatingParam id="333" interp="linr"  time="0/1" value="0" leadInLength="0/1"  />
               <InterpolatingParam id="334" interp="linr"  time="0/1" value="0" leadInLength="0/1"  />
               <InterpolatingParam id="335" interp="linr"  time="0/1" value="0" leadInLength="0/1"  />
              </VectorParam>
              <VectorParam id="336"  name="geometryCrop">
               <InterpolatingParam id="337" interp="linr"  time="-9999999/1" value="0" leadInLength="0/1"  />
               <InterpolatingParam id="338" interp="linr"  time="-9999999/1" value="0" leadInLength="0/1"  />
               <InterpolatingParam id="339" interp="linr"  time="-9999999/1" value="0" leadInLength="0/1"  />
               <InterpolatingParam id="340" interp="linr"  time="-9999999/1" value="0" leadInLength="0/1"  />
              </VectorParam>
              <InterpolatingParam id="341" interp="linr"  time="-9999999/1" value="1" leadInLength="0/1"  name="opacity"/>
              <InterpolatingParam id="342" interp="linr"  time="0/1" value="0" leadInLength="0/1"  name="cursorOpacity"/>
              <InterpolatingParam id="343" interp="linr"  time="0/1" value="0" leadInLength="0/1"  name="cursorScale"/>
             </Parameters>
             <Attributes>
              <Attribute id="344" value="" name="ident"/>
             </Attributes>
             <ExtraData>
              <Entry key="ZoomPanBin">
               <ZoomPanBin id="345"  >
                <ZoomPanKeyframes>
                 <ZoomPanKeyframe id="346" timeRangeEnd="-9999999/1" timeRangeDuration="0/1" interpolaterName=""  />
                </ZoomPanKeyframes>
               </ZoomPanBin>
              </Entry>
              <Entry key="CursorEffectBin">
               <CursorEffectBin id="347"  >
                <CursorEffectKeyframes>
                </CursorEffectKeyframes>
               </CursorEffectBin>
              </Entry>
             </ExtraData>
            </ScreenVMFile>
            <MetaData>
             <entry key="AutoAppliedSmartFocus" val="False"/>
             <entry key="WinSubProjectDisplayName" val=""/>
            </MetaData>
           </UnifiedMedia>
           <UnifiedMedia id="348"  >
            <AMFile id="349" start="1032" duration="127" scalar="1/1" mediaStart="1489/1" mediaDuration="127/1" trackNumber="1" src="4" channelNumber="0,1" >
             <Parameters>
              <InterpolatingParam id="350" interp="linr"  time="0/1" value="1" leadInLength="0/1"  name="volume"/>
              <Parameter id="351"  name="captions"/>
             </Parameters>
             <Attributes>
              <Attribute id="352" value="" name="ident"/>
              <Attribute id="353" value="44100" name="sampleRate"/>
              <Attribute id="354" value="16" name="bitDepth"/>
              <Attribute id="355" value="1" name="gain"/>
              <Attribute id="356" value="0" name="mixToMono"/>
             </Attributes>
            </AMFile>
            <ScreenVMFile id="357" start="1032" duration="127" scalar="1/1" mediaStart="1489/1" mediaDuration="127/1" trackNumber="0" src="4" >
             <Transformer>
              <VectorParam id="358"  name="translation">
               <InterpolatingParam id="359" interp="linr"  time="-9999999/1" value="0" leadInLength="0/1"  />
               <InterpolatingParam id="360" interp="linr"  time="-9999999/1" value="0" leadInLength="0/1"  />
               <InterpolatingParam id="361" interp="linr"  time="-9999999/1" value="0" leadInLength="0/1"  />
              </VectorParam>
              <VectorParam id="362"  name="rotation">
               <InterpolatingParam id="363" interp="linr"  time="-9999999/1" value="0" leadInLength="0/1"  />
               <InterpolatingParam id="364" interp="linr"  time="-9999999/1" value="0" leadInLength="0/1"  />
               <InterpolatingParam id="365" interp="linr"  time="-9999999/1" value="0" leadInLength="0/1"  />
              </VectorParam>
              <VectorParam id="366"  name="shear">
               <InterpolatingParam id="367" interp="linr"  time="-9999999/1" value="0" leadInLength="0/1"  />
               <InterpolatingParam id="368" interp="linr"  time="-9999999/1" value="0" leadInLength="0/1"  />
               <InterpolatingParam id="369" interp="linr"  time="-9999999/1" value="0" leadInLength="0/1"  />
              </VectorParam>
              <VectorParam id="370"  name="scale">
               <InterpolatingParam id="371" interp="linr"  time="-9999999/1" value="1" leadInLength="0/1"  />
               <InterpolatingParam id="372" interp="linr"  time="-9999999/1" value="1" leadInLength="0/1"  />
               <InterpolatingParam id="373" interp="linr"  time="-9999999/1" value="1" leadInLength="0/1"  />
              </VectorParam>
              <VectorParam id="374"  name="anchor">
               <InterpolatingParam id="375" interp="linr"  time="0/1" value="0" leadInLength="0/1"  />
               <InterpolatingParam id="376" interp="linr"  time="0/1" value="0" leadInLength="0/1"  />
               <InterpolatingParam id="377" interp="linr"  time="0/1" value="0" leadInLength="0/1"  />
              </VectorParam>
             </Transformer>
             <Parameters>
              <VectorParam id="378"  name="sourceCrop">
               <InterpolatingParam id="379" interp="linr"  time="0/1" value="0" leadInLength="0/1"  />
               <InterpolatingParam id="380" interp="linr"  time="0/1" value="0" leadInLength="0/1"  />
               <InterpolatingParam id="381" interp="linr"  time="0/1" value="0" leadInLength="0/1"  />
               <InterpolatingParam id="382" interp="linr"  time="0/1" value="0" leadInLength="0/1"  />
              </VectorParam>
              <VectorParam id="383"  name="geometryCrop">
               <InterpolatingParam id="384" interp="linr"  time="-9999999/1" value="0" leadInLength="0/1"  />
               <InterpolatingParam id="385" interp="linr"  time="-9999999/1" value="0" leadInLength="0/1"  />
               <InterpolatingParam id="386" interp="linr"  time="-9999999/1" value="0" leadInLength="0/1"  />
               <InterpolatingParam id="387" interp="linr"  time="-9999999/1" value="0" leadInLength="0/1"  />
              </VectorParam>
              <InterpolatingParam id="388" interp="linr"  time="-9999999/1" value="1" leadInLength="0/1"  name="opacity"/>
              <InterpolatingParam id="389" interp="linr"  time="0/1" value="0" leadInLength="0/1"  name="cursorOpacity"/>
              <InterpolatingParam id="390" interp="linr"  time="0/1" value="0" leadInLength="0/1"  name="cursorScale"/>
             </Parameters>
             <Attributes>
              <Attribute id="391" value="" name="ident"/>
             </Attributes>
             <ExtraData>
              <Entry key="ZoomPanBin">
               <ZoomPanBin id="392"  >
                <ZoomPanKeyframes>
                 <ZoomPanKeyframe id="393" timeRangeEnd="-9999999/1" timeRangeDuration="0/1" interpolaterName=""  />
                </ZoomPanKeyframes>
               </ZoomPanBin>
              </Entry>
              <Entry key="CursorEffectBin">
               <CursorEffectBin id="394"  >
                <CursorEffectKeyframes>
                </CursorEffectKeyframes>
               </CursorEffectBin>
              </Entry>
             </ExtraData>
            </ScreenVMFile>
            <MetaData>
             <entry key="AutoAppliedSmartFocus" val="False"/>
             <entry key="WinSubProjectDisplayName" val=""/>
            </MetaData>
           </UnifiedMedia>
           <UnifiedMedia id="395"  >
            <AMFile id="396" start="1159" duration="262" scalar="1/1" mediaStart="1846/1" mediaDuration="262/1" trackNumber="1" src="4" channelNumber="0,1" >
             <Parameters>
              <InterpolatingParam id="397" interp="linr"  time="0/1" value="1" leadInLength="0/1"  name="volume"/>
              <Parameter id="398"  name="captions"/>
             </Parameters>
             <Attributes>
              <Attribute id="399" value="" name="ident"/>
              <Attribute id="400" value="44100" name="sampleRate"/>
              <Attribute id="401" value="16" name="bitDepth"/>
              <Attribute id="402" value="1" name="gain"/>
              <Attribute id="403" value="0" name="mixToMono"/>
             </Attributes>
            </AMFile>
            <ScreenVMFile id="404" start="1159" duration="262" scalar="1/1" mediaStart="1846/1" mediaDuration="262/1" trackNumber="0" src="4" >
             <Transformer>
              <VectorParam id="405"  name="translation">
               <InterpolatingParam id="406" interp="linr"  time="-9999999/1" value="0" leadInLength="0/1"  />
               <InterpolatingParam id="407" interp="linr"  time="-9999999/1" value="0" leadInLength="0/1"  />
               <InterpolatingParam id="408" interp="linr"  time="-9999999/1" value="0" leadInLength="0/1"  />
              </VectorParam>
              <VectorParam id="409"  name="rotation">
               <InterpolatingParam id="410" interp="linr"  time="-9999999/1" value="0" leadInLength="0/1"  />
               <InterpolatingParam id="411" interp="linr"  time="-9999999/1" value="0" leadInLength="0/1"  />
               <InterpolatingParam id="412" interp="linr"  time="-9999999/1" value="0" leadInLength="0/1"  />
              </VectorParam>
              <VectorParam id="413"  name="shear">
               <InterpolatingParam id="414" interp="linr"  time="-9999999/1" value="0" leadInLength="0/1"  />
               <InterpolatingParam id="415" interp="linr"  time="-9999999/1" value="0" leadInLength="0/1"  />
               <InterpolatingParam id="416" interp="linr"  time="-9999999/1" value="0" leadInLength="0/1"  />
              </VectorParam>
              <VectorParam id="417"  name="scale">
               <InterpolatingParam id="418" interp="linr"  time="-9999999/1" value="1" leadInLength="0/1"  />
               <InterpolatingParam id="419" interp="linr"  time="-9999999/1" value="1" leadInLength="0/1"  />
               <InterpolatingParam id="420" interp="linr"  time="-9999999/1" value="1" leadInLength="0/1"  />
              </VectorParam>
              <VectorParam id="421"  name="anchor">
               <InterpolatingParam id="422" interp="linr"  time="0/1" value="0" leadInLength="0/1"  />
               <InterpolatingParam id="423" interp="linr"  time="0/1" value="0" leadInLength="0/1"  />
               <InterpolatingParam id="424" interp="linr"  time="0/1" value="0" leadInLength="0/1"  />
              </VectorParam>
             </Transformer>
             <Parameters>
              <VectorParam id="425"  name="sourceCrop">
               <InterpolatingParam id="426" interp="linr"  time="0/1" value="0" leadInLength="0/1"  />
               <InterpolatingParam id="427" interp="linr"  time="0/1" value="0" leadInLength="0/1"  />
               <InterpolatingParam id="428" interp="linr"  time="0/1" value="0" leadInLength="0/1"  />
               <InterpolatingParam id="429" interp="linr"  time="0/1" value="0" leadInLength="0/1"  />
              </VectorParam>
              <VectorParam id="430"  name="geometryCrop">
               <InterpolatingParam id="431" interp="linr"  time="-9999999/1" value="0" leadInLength="0/1"  />
               <InterpolatingParam id="432" interp="linr"  time="-9999999/1" value="0" leadInLength="0/1"  />
               <InterpolatingParam id="433" interp="linr"  time="-9999999/1" value="0" leadInLength="0/1"  />
               <InterpolatingParam id="434" interp="linr"  time="-9999999/1" value="0" leadInLength="0/1"  />
              </VectorParam>
              <InterpolatingParam id="435" interp="linr"  time="-9999999/1" value="1" leadInLength="0/1"  name="opacity"/>
              <InterpolatingParam id="436" interp="linr"  time="0/1" value="0" leadInLength="0/1"  name="cursorOpacity"/>
              <InterpolatingParam id="437" interp="linr"  time="0/1" value="0" leadInLength="0/1"  name="cursorScale"/>
             </Parameters>
             <Attributes>
              <Attribute id="438" value="" name="ident"/>
             </Attributes>
             <ExtraData>
              <Entry key="ZoomPanBin">
               <ZoomPanBin id="439"  >
                <ZoomPanKeyframes>
                 <ZoomPanKeyframe id="440" timeRangeEnd="-9999999/1" timeRangeDuration="0/1" interpolaterName=""  />
                </ZoomPanKeyframes>
               </ZoomPanBin>
              </Entry>
              <Entry key="CursorEffectBin">
               <CursorEffectBin id="441"  >
                <CursorEffectKeyframes>
                </CursorEffectKeyframes>
               </CursorEffectBin>
              </Entry>
             </ExtraData>
            </ScreenVMFile>
            <MetaData>
             <entry key="AutoAppliedSmartFocus" val="False"/>
             <entry key="WinSubProjectDisplayName" val=""/>
            </MetaData>
           </UnifiedMedia>
           <UnifiedMedia id="442"  >
            <AMFile id="443" start="1421" duration="98" scalar="1/1" mediaStart="2115/1" mediaDuration="98/1" trackNumber="1" src="4" channelNumber="0,1" >
             <Parameters>
              <InterpolatingParam id="444" interp="linr"  time="0/1" value="1" leadInLength="0/1"  name="volume"/>
              <Parameter id="445"  name="captions"/>
             </Parameters>
             <Attributes>
              <Attribute id="446" value="" name="ident"/>
              <Attribute id="447" value="44100" name="sampleRate"/>
              <Attribute id="448" value="16" name="bitDepth"/>
              <Attribute id="449" value="1" name="gain"/>
              <Attribute id="450" value="0" name="mixToMono"/>
             </Attributes>
            </AMFile>
            <ScreenVMFile id="451" start="1421" duration="98" scalar="1/1" mediaStart="2115/1" mediaDuration="98/1" trackNumber="0" src="4" >
             <Transformer>
              <VectorParam id="452"  name="translation">
               <InterpolatingParam id="453" interp="linr"  time="-9999999/1" value="0" leadInLength="0/1"  />
               <InterpolatingParam id="454" interp="linr"  time="-9999999/1" value="0" leadInLength="0/1"  />
               <InterpolatingParam id="455" interp="linr"  time="-9999999/1" value="0" leadInLength="0/1"  />
              </VectorParam>
              <VectorParam id="456"  name="rotation">
               <InterpolatingParam id="457" interp="linr"  time="-9999999/1" value="0" leadInLength="0/1"  />
               <InterpolatingParam id="458" interp="linr"  time="-9999999/1" value="0" leadInLength="0/1"  />
               <InterpolatingParam id="459" interp="linr"  time="-9999999/1" value="0" leadInLength="0/1"  />
              </VectorParam>
              <VectorParam id="460"  name="shear">
               <InterpolatingParam id="461" interp="linr"  time="-9999999/1" value="0" leadInLength="0/1"  />
               <InterpolatingParam id="462" interp="linr"  time="-9999999/1" value="0" leadInLength="0/1"  />
               <InterpolatingParam id="463" interp="linr"  time="-9999999/1" value="0" leadInLength="0/1"  />
              </VectorParam>
              <VectorParam id="464"  name="scale">
               <InterpolatingParam id="465" interp="linr"  time="-9999999/1" value="1" leadInLength="0/1"  />
               <InterpolatingParam id="466" interp="linr"  time="-9999999/1" value="1" leadInLength="0/1"  />
               <InterpolatingParam id="467" interp="linr"  time="-9999999/1" value="1" leadInLength="0/1"  />
              </VectorParam>
              <VectorParam id="468"  name="anchor">
               <InterpolatingParam id="469" interp="linr"  time="0/1" value="0" leadInLength="0/1"  />
               <InterpolatingParam id="470" interp="linr"  time="0/1" value="0" leadInLength="0/1"  />
               <InterpolatingParam id="471" interp="linr"  time="0/1" value="0" leadInLength="0/1"  />
              </VectorParam>
             </Transformer>
             <Parameters>
              <VectorParam id="472"  name="sourceCrop">
               <InterpolatingParam id="473" interp="linr"  time="0/1" value="0" leadInLength="0/1"  />
               <InterpolatingParam id="474" interp="linr"  time="0/1" value="0" leadInLength="0/1"  />
               <InterpolatingParam id="475" interp="linr"  time="0/1" value="0" leadInLength="0/1"  />
               <InterpolatingParam id="476" interp="linr"  time="0/1" value="0" leadInLength="0/1"  />
              </VectorParam>
              <VectorParam id="477"  name="geometryCrop">
               <InterpolatingParam id="478" interp="linr"  time="-9999999/1" value="0" leadInLength="0/1"  />
               <InterpolatingParam id="479" interp="linr"  time="-9999999/1" value="0" leadInLength="0/1"  />
               <InterpolatingParam id="480" interp="linr"  time="-9999999/1" value="0" leadInLength="0/1"  />
               <InterpolatingParam id="481" interp="linr"  time="-9999999/1" value="0" leadInLength="0/1"  />
              </VectorParam>
              <InterpolatingParam id="482" interp="linr"  time="-9999999/1" value="1" leadInLength="0/1"  name="opacity"/>
              <InterpolatingParam id="483" interp="linr"  time="0/1" value="0" leadInLength="0/1"  name="cursorOpacity"/>
              <InterpolatingParam id="484" interp="linr"  time="0/1" value="0" leadInLength="0/1"  name="cursorScale"/>
             </Parameters>
             <Attributes>
              <Attribute id="485" value="" name="ident"/>
             </Attributes>
             <ExtraData>
              <Entry key="ZoomPanBin">
               <ZoomPanBin id="486"  >
                <ZoomPanKeyframes>
                 <ZoomPanKeyframe id="487" timeRangeEnd="-9999999/1" timeRangeDuration="0/1" interpolaterName=""  />
                </ZoomPanKeyframes>
               </ZoomPanBin>
              </Entry>
              <Entry key="CursorEffectBin">
               <CursorEffectBin id="488"  >
                <CursorEffectKeyframes>
                </CursorEffectKeyframes>
               </CursorEffectBin>
              </Entry>
             </ExtraData>
            </ScreenVMFile>
            <MetaData>
             <entry key="AutoAppliedSmartFocus" val="False"/>
             <entry key="WinSubProjectDisplayName" val=""/>
            </MetaData>
           </UnifiedMedia>
           <UnifiedMedia id="489"  >
            <AMFile id="490" start="1519" duration="169" scalar="1/1" mediaStart="2222/1" mediaDuration="169/1" trackNumber="1" src="4" channelNumber="0,1" >
             <Parameters>
              <InterpolatingParam id="491" interp="linr"  time="0/1" value="1" leadInLength="0/1"  name="volume"/>
              <Parameter id="492"  name="captions"/>
             </Parameters>
             <Attributes>
              <Attribute id="493" value="" name="ident"/>
              <Attribute id="494" value="44100" name="sampleRate"/>
              <Attribute id="495" value="16" name="bitDepth"/>
              <Attribute id="496" value="1" name="gain"/>
              <Attribute id="497" value="0" name="mixToMono"/>
             </Attributes>
            </AMFile>
            <ScreenVMFile id="498" start="1519" duration="169" scalar="1/1" mediaStart="2222/1" mediaDuration="169/1" trackNumber="0" src="4" >
             <Transformer>
              <VectorParam id="499"  name="translation">
               <InterpolatingParam id="500" interp="linr"  time="-9999999/1" value="0" leadInLength="0/1"  />
               <InterpolatingParam id="501" interp="linr"  time="-9999999/1" value="0" leadInLength="0/1"  />
               <InterpolatingParam id="502" interp="linr"  time="-9999999/1" value="0" leadInLength="0/1"  />
              </VectorParam>
              <VectorParam id="503"  name="rotation">
               <InterpolatingParam id="504" interp="linr"  time="-9999999/1" value="0" leadInLength="0/1"  />
               <InterpolatingParam id="505" interp="linr"  time="-9999999/1" value="0" leadInLength="0/1"  />
               <InterpolatingParam id="506" interp="linr"  time="-9999999/1" value="0" leadInLength="0/1"  />
              </VectorParam>
              <VectorParam id="507"  name="shear">
               <InterpolatingParam id="508" interp="linr"  time="-9999999/1" value="0" leadInLength="0/1"  />
               <InterpolatingParam id="509" interp="linr"  time="-9999999/1" value="0" leadInLength="0/1"  />
               <InterpolatingParam id="510" interp="linr"  time="-9999999/1" value="0" leadInLength="0/1"  />
              </VectorParam>
              <VectorParam id="511"  name="scale">
               <InterpolatingParam id="512" interp="linr"  time="-9999999/1" value="1" leadInLength="0/1"  />
               <InterpolatingParam id="513" interp="linr"  time="-9999999/1" value="1" leadInLength="0/1"  />
               <InterpolatingParam id="514" interp="linr"  time="-9999999/1" value="1" leadInLength="0/1"  />
              </VectorParam>
              <VectorParam id="515"  name="anchor">
               <InterpolatingParam id="516" interp="linr"  time="0/1" value="0" leadInLength="0/1"  />
               <InterpolatingParam id="517" interp="linr"  time="0/1" value="0" leadInLength="0/1"  />
               <InterpolatingParam id="518" interp="linr"  time="0/1" value="0" leadInLength="0/1"  />
              </VectorParam>
             </Transformer>
             <Parameters>
              <VectorParam id="519"  name="sourceCrop">
               <InterpolatingParam id="520" interp="linr"  time="0/1" value="0" leadInLength="0/1"  />
               <InterpolatingParam id="521" interp="linr"  time="0/1" value="0" leadInLength="0/1"  />
               <InterpolatingParam id="522" interp="linr"  time="0/1" value="0" leadInLength="0/1"  />
               <InterpolatingParam id="523" interp="linr"  time="0/1" value="0" leadInLength="0/1"  />
              </VectorParam>
              <VectorParam id="524"  name="geometryCrop">
               <InterpolatingParam id="525" interp="linr"  time="-9999999/1" value="0" leadInLength="0/1"  />
               <InterpolatingParam id="526" interp="linr"  time="-9999999/1" value="0" leadInLength="0/1"  />
               <InterpolatingParam id="527" interp="linr"  time="-9999999/1" value="0" leadInLength="0/1"  />
               <InterpolatingParam id="528" interp="linr"  time="-9999999/1" value="0" leadInLength="0/1"  />
              </VectorParam>
              <InterpolatingParam id="529" interp="linr"  time="-9999999/1" value="1" leadInLength="0/1"  name="opacity"/>
              <InterpolatingParam id="530" interp="linr"  time="0/1" value="0" leadInLength="0/1"  name="cursorOpacity"/>
              <InterpolatingParam id="531" interp="linr"  time="0/1" value="0" leadInLength="0/1"  name="cursorScale"/>
             </Parameters>
             <Attributes>
              <Attribute id="532" value="" name="ident"/>
             </Attributes>
             <ExtraData>
              <Entry key="ZoomPanBin">
               <ZoomPanBin id="533"  >
                <ZoomPanKeyframes>
                 <ZoomPanKeyframe id="534" timeRangeEnd="-9999999/1" timeRangeDuration="0/1" interpolaterName=""  />
                </ZoomPanKeyframes>
               </ZoomPanBin>
              </Entry>
              <Entry key="CursorEffectBin">
               <CursorEffectBin id="535"  >
                <CursorEffectKeyframes>
                </CursorEffectKeyframes>
               </CursorEffectBin>
              </Entry>
             </ExtraData>
            </ScreenVMFile>
            <MetaData>
             <entry key="AutoAppliedSmartFocus" val="False"/>
             <entry key="WinSubProjectDisplayName" val=""/>
            </MetaData>
           </UnifiedMedia>
           <UnifiedMedia id="536"  >
            <AMFile id="537" start="1688" duration="118" scalar="1/1" mediaStart="2924/1" mediaDuration="118/1" trackNumber="1" src="4" channelNumber="0,1" >
             <Parameters>
              <InterpolatingParam id="538" interp="linr"  time="0/1" value="1" leadInLength="0/1"  name="volume"/>
              <Parameter id="539"  name="captions"/>
             </Parameters>
             <Attributes>
              <Attribute id="540" value="" name="ident"/>
              <Attribute id="541" value="44100" name="sampleRate"/>
              <Attribute id="542" value="16" name="bitDepth"/>
              <Attribute id="543" value="1" name="gain"/>
              <Attribute id="544" value="0" name="mixToMono"/>
             </Attributes>
            </AMFile>
            <ScreenVMFile id="545" start="1688" duration="118" scalar="1/1" mediaStart="2924/1" mediaDuration="118/1" trackNumber="0" src="4" >
             <Transformer>
              <VectorParam id="546"  name="translation">
               <InterpolatingParam id="547" interp="linr"  time="-9999999/1" value="0" leadInLength="0/1"  />
               <InterpolatingParam id="548" interp="linr"  time="-9999999/1" value="0" leadInLength="0/1"  />
               <InterpolatingParam id="549" interp="linr"  time="-9999999/1" value="0" leadInLength="0/1"  />
              </VectorParam>
              <VectorParam id="550"  name="rotation">
               <InterpolatingParam id="551" interp="linr"  time="-9999999/1" value="0" leadInLength="0/1"  />
               <InterpolatingParam id="552" interp="linr"  time="-9999999/1" value="0" leadInLength="0/1"  />
               <InterpolatingParam id="553" interp="linr"  time="-9999999/1" value="0" leadInLength="0/1"  />
              </VectorParam>
              <VectorParam id="554"  name="shear">
               <InterpolatingParam id="555" interp="linr"  time="-9999999/1" value="0" leadInLength="0/1"  />
               <InterpolatingParam id="556" interp="linr"  time="-9999999/1" value="0" leadInLength="0/1"  />
               <InterpolatingParam id="557" interp="linr"  time="-9999999/1" value="0" leadInLength="0/1"  />
              </VectorParam>
              <VectorParam id="558"  name="scale">
               <InterpolatingParam id="559" interp="linr"  time="-9999999/1" value="1" leadInLength="0/1"  />
               <InterpolatingParam id="560" interp="linr"  time="-9999999/1" value="1" leadInLength="0/1"  />
               <InterpolatingParam id="561" interp="linr"  time="-9999999/1" value="1" leadInLength="0/1"  />
              </VectorParam>
              <VectorParam id="562"  name="anchor">
               <InterpolatingParam id="563" interp="linr"  time="0/1" value="0" leadInLength="0/1"  />
               <InterpolatingParam id="564" interp="linr"  time="0/1" value="0" leadInLength="0/1"  />
               <InterpolatingParam id="565" interp="linr"  time="0/1" value="0" leadInLength="0/1"  />
              </VectorParam>
             </Transformer>
             <Parameters>
              <VectorParam id="566"  name="sourceCrop">
               <InterpolatingParam id="567" interp="linr"  time="0/1" value="0" leadInLength="0/1"  />
               <InterpolatingParam id="568" interp="linr"  time="0/1" value="0" leadInLength="0/1"  />
               <InterpolatingParam id="569" interp="linr"  time="0/1" value="0" leadInLength="0/1"  />
               <InterpolatingParam id="570" interp="linr"  time="0/1" value="0" leadInLength="0/1"  />
              </VectorParam>
              <VectorParam id="571"  name="geometryCrop">
               <InterpolatingParam id="572" interp="linr"  time="-9999999/1" value="0" leadInLength="0/1"  />
               <InterpolatingParam id="573" interp="linr"  time="-9999999/1" value="0" leadInLength="0/1"  />
               <InterpolatingParam id="574" interp="linr"  time="-9999999/1" value="0" leadInLength="0/1"  />
               <InterpolatingParam id="575" interp="linr"  time="-9999999/1" value="0" leadInLength="0/1"  />
              </VectorParam>
              <InterpolatingParam id="576" interp="linr"  time="-9999999/1" value="1" leadInLength="0/1"  name="opacity"/>
              <InterpolatingParam id="577" interp="linr"  time="0/1" value="0" leadInLength="0/1"  name="cursorOpacity"/>
              <InterpolatingParam id="578" interp="linr"  time="0/1" value="0" leadInLength="0/1"  name="cursorScale"/>
             </Parameters>
             <Attributes>
              <Attribute id="579" value="" name="ident"/>
             </Attributes>
             <ExtraData>
              <Entry key="ZoomPanBin">
               <ZoomPanBin id="580"  >
                <ZoomPanKeyframes>
                 <ZoomPanKeyframe id="581" timeRangeEnd="-9999999/1" timeRangeDuration="0/1" interpolaterName=""  />
                </ZoomPanKeyframes>
               </ZoomPanBin>
              </Entry>
              <Entry key="CursorEffectBin">
               <CursorEffectBin id="582"  >
                <CursorEffectKeyframes>
                </CursorEffectKeyframes>
               </CursorEffectBin>
              </Entry>
             </ExtraData>
            </ScreenVMFile>
            <MetaData>
             <entry key="AutoAppliedSmartFocus" val="False"/>
             <entry key="WinSubProjectDisplayName" val=""/>
            </MetaData>
           </UnifiedMedia>
           <UnifiedMedia id="583"  >
            <AMFile id="584" start="1806" duration="97" scalar="1/1" mediaStart="3053/1" mediaDuration="97/1" trackNumber="1" src="4" channelNumber="0,1" >
             <Parameters>
              <InterpolatingParam id="585" interp="linr"  time="0/1" value="1" leadInLength="0/1"  name="volume"/>
              <Parameter id="586"  name="captions"/>
             </Parameters>
             <Attributes>
              <Attribute id="587" value="" name="ident"/>
              <Attribute id="588" value="44100" name="sampleRate"/>
              <Attribute id="589" value="16" name="bitDepth"/>
              <Attribute id="590" value="1" name="gain"/>
              <Attribute id="591" value="0" name="mixToMono"/>
             </Attributes>
            </AMFile>
            <ScreenVMFile id="592" start="1806" duration="97" scalar="1/1" mediaStart="3053/1" mediaDuration="97/1" trackNumber="0" src="4" >
             <Transformer>
              <VectorParam id="593"  name="translation">
               <InterpolatingParam id="594" interp="linr"  time="-9999999/1" value="0" leadInLength="0/1"  />
               <InterpolatingParam id="595" interp="linr"  time="-9999999/1" value="0" leadInLength="0/1"  />
               <InterpolatingParam id="596" interp="linr"  time="-9999999/1" value="0" leadInLength="0/1"  />
              </VectorParam>
              <VectorParam id="597"  name="rotation">
               <InterpolatingParam id="598" interp="linr"  time="-9999999/1" value="0" leadInLength="0/1"  />
               <InterpolatingParam id="599" interp="linr"  time="-9999999/1" value="0" leadInLength="0/1"  />
               <InterpolatingParam id="600" interp="linr"  time="-9999999/1" value="0" leadInLength="0/1"  />
              </VectorParam>
              <VectorParam id="601"  name="shear">
               <InterpolatingParam id="602" interp="linr"  time="-9999999/1" value="0" leadInLength="0/1"  />
               <InterpolatingParam id="603" interp="linr"  time="-9999999/1" value="0" leadInLength="0/1"  />
               <InterpolatingParam id="604" interp="linr"  time="-9999999/1" value="0" leadInLength="0/1"  />
              </VectorParam>
              <VectorParam id="605"  name="scale">
               <InterpolatingParam id="606" interp="linr"  time="-9999999/1" value="1" leadInLength="0/1"  />
               <InterpolatingParam id="607" interp="linr"  time="-9999999/1" value="1" leadInLength="0/1"  />
               <InterpolatingParam id="608" interp="linr"  time="-9999999/1" value="1" leadInLength="0/1"  />
              </VectorParam>
              <VectorParam id="609"  name="anchor">
               <InterpolatingParam id="610" interp="linr"  time="0/1" value="0" leadInLength="0/1"  />
               <InterpolatingParam id="611" interp="linr"  time="0/1" value="0" leadInLength="0/1"  />
               <InterpolatingParam id="612" interp="linr"  time="0/1" value="0" leadInLength="0/1"  />
              </VectorParam>
             </Transformer>
             <Parameters>
              <VectorParam id="613"  name="sourceCrop">
               <InterpolatingParam id="614" interp="linr"  time="0/1" value="0" leadInLength="0/1"  />
               <InterpolatingParam id="615" interp="linr"  time="0/1" value="0" leadInLength="0/1"  />
               <InterpolatingParam id="616" interp="linr"  time="0/1" value="0" leadInLength="0/1"  />
               <InterpolatingParam id="617" interp="linr"  time="0/1" value="0" leadInLength="0/1"  />
              </VectorParam>
              <VectorParam id="618"  name="geometryCrop">
               <InterpolatingParam id="619" interp="linr"  time="-9999999/1" value="0" leadInLength="0/1"  />
               <InterpolatingParam id="620" interp="linr"  time="-9999999/1" value="0" leadInLength="0/1"  />
               <InterpolatingParam id="621" interp="linr"  time="-9999999/1" value="0" leadInLength="0/1"  />
               <InterpolatingParam id="622" interp="linr"  time="-9999999/1" value="0" leadInLength="0/1"  />
              </VectorParam>
              <InterpolatingParam id="623" interp="linr"  time="-9999999/1" value="1" leadInLength="0/1"  name="opacity"/>
              <InterpolatingParam id="624" interp="linr"  time="0/1" value="0" leadInLength="0/1"  name="cursorOpacity"/>
              <InterpolatingParam id="625" interp="linr"  time="0/1" value="0" leadInLength="0/1"  name="cursorScale"/>
             </Parameters>
             <Attributes>
              <Attribute id="626" value="" name="ident"/>
             </Attributes>
             <ExtraData>
              <Entry key="ZoomPanBin">
               <ZoomPanBin id="627"  >
                <ZoomPanKeyframes>
                 <ZoomPanKeyframe id="628" timeRangeEnd="-9999999/1" timeRangeDuration="0/1" interpolaterName=""  />
                </ZoomPanKeyframes>
               </ZoomPanBin>
              </Entry>
              <Entry key="CursorEffectBin">
               <CursorEffectBin id="629"  >
                <CursorEffectKeyframes>
                </CursorEffectKeyframes>
               </CursorEffectBin>
              </Entry>
             </ExtraData>
            </ScreenVMFile>
            <MetaData>
             <entry key="AutoAppliedSmartFocus" val="False"/>
             <entry key="WinSubProjectDisplayName" val=""/>
            </MetaData>
           </UnifiedMedia>
           <UnifiedMedia id="630"  >
            <AMFile id="631" start="1903" duration="119" scalar="1/1" mediaStart="4029/1" mediaDuration="119/1" trackNumber="1" src="4" channelNumber="0,1" >
             <Parameters>
              <InterpolatingParam id="632" interp="linr"  time="0/1" value="1" leadInLength="0/1"  name="volume"/>
              <Parameter id="633"  name="captions"/>
             </Parameters>
             <Attributes>
              <Attribute id="634" value="" name="ident"/>
              <Attribute id="635" value="44100" name="sampleRate"/>
              <Attribute id="636" value="16" name="bitDepth"/>
              <Attribute id="637" value="1" name="gain"/>
              <Attribute id="638" value="0" name="mixToMono"/>
             </Attributes>
            </AMFile>
            <ScreenVMFile id="639" start="1903" duration="119" scalar="1/1" mediaStart="4029/1" mediaDuration="119/1" trackNumber="0" src="4" >
             <Transformer>
              <VectorParam id="640"  name="translation">
               <InterpolatingParam id="641" interp="linr"  time="-9999999/1" value="0" leadInLength="0/1"  />
               <InterpolatingParam id="642" interp="linr"  time="-9999999/1" value="0" leadInLength="0/1"  />
               <InterpolatingParam id="643" interp="linr"  time="-9999999/1" value="0" leadInLength="0/1"  />
              </VectorParam>
              <VectorParam id="644"  name="rotation">
               <InterpolatingParam id="645" interp="linr"  time="-9999999/1" value="0" leadInLength="0/1"  />
               <InterpolatingParam id="646" interp="linr"  time="-9999999/1" value="0" leadInLength="0/1"  />
               <InterpolatingParam id="647" interp="linr"  time="-9999999/1" value="0" leadInLength="0/1"  />
              </VectorParam>
              <VectorParam id="648"  name="shear">
               <InterpolatingParam id="649" interp="linr"  time="-9999999/1" value="0" leadInLength="0/1"  />
               <InterpolatingParam id="650" interp="linr"  time="-9999999/1" value="0" leadInLength="0/1"  />
               <InterpolatingParam id="651" interp="linr"  time="-9999999/1" value="0" leadInLength="0/1"  />
              </VectorParam>
              <VectorParam id="652"  name="scale">
               <InterpolatingParam id="653" interp="linr"  time="-9999999/1" value="1" leadInLength="0/1"  />
               <InterpolatingParam id="654" interp="linr"  time="-9999999/1" value="1" leadInLength="0/1"  />
               <InterpolatingParam id="655" interp="linr"  time="-9999999/1" value="1" leadInLength="0/1"  />
              </VectorParam>
              <VectorParam id="656"  name="anchor">
               <InterpolatingParam id="657" interp="linr"  time="0/1" value="0" leadInLength="0/1"  />
               <InterpolatingParam id="658" interp="linr"  time="0/1" value="0" leadInLength="0/1"  />
               <InterpolatingParam id="659" interp="linr"  time="0/1" value="0" leadInLength="0/1"  />
              </VectorParam>
             </Transformer>
             <Parameters>
              <VectorParam id="660"  name="sourceCrop">
               <InterpolatingParam id="661" interp="linr"  time="0/1" value="0" leadInLength="0/1"  />
               <InterpolatingParam id="662" interp="linr"  time="0/1" value="0" leadInLength="0/1"  />
               <InterpolatingParam id="663" interp="linr"  time="0/1" value="0" leadInLength="0/1"  />
               <InterpolatingParam id="664" interp="linr"  time="0/1" value="0" leadInLength="0/1"  />
              </VectorParam>
              <VectorParam id="665"  name="geometryCrop">
               <InterpolatingParam id="666" interp="linr"  time="-9999999/1" value="0" leadInLength="0/1"  />
               <InterpolatingParam id="667" interp="linr"  time="-9999999/1" value="0" leadInLength="0/1"  />
               <InterpolatingParam id="668" interp="linr"  time="-9999999/1" value="0" leadInLength="0/1"  />
               <InterpolatingParam id="669" interp="linr"  time="-9999999/1" value="0" leadInLength="0/1"  />
              </VectorParam>
              <InterpolatingParam id="670" interp="linr"  time="-9999999/1" value="1" leadInLength="0/1"  name="opacity"/>
              <InterpolatingParam id="671" interp="linr"  time="0/1" value="0" leadInLength="0/1"  name="cursorOpacity"/>
              <InterpolatingParam id="672" interp="linr"  time="0/1" value="0" leadInLength="0/1"  name="cursorScale"/>
             </Parameters>
             <Attributes>
              <Attribute id="673" value="" name="ident"/>
             </Attributes>
             <ExtraData>
              <Entry key="ZoomPanBin">
               <ZoomPanBin id="674"  >
                <ZoomPanKeyframes>
                 <ZoomPanKeyframe id="675" timeRangeEnd="-9999999/1" timeRangeDuration="0/1" interpolaterName=""  />
                </ZoomPanKeyframes>
               </ZoomPanBin>
              </Entry>
              <Entry key="CursorEffectBin">
               <CursorEffectBin id="676"  >
                <CursorEffectKeyframes>
                </CursorEffectKeyframes>
               </CursorEffectBin>
              </Entry>
             </ExtraData>
            </ScreenVMFile>
            <MetaData>
             <entry key="AutoAppliedSmartFocus" val="False"/>
             <entry key="WinSubProjectDisplayName" val=""/>
            </MetaData>
           </UnifiedMedia>
           <UnifiedMedia id="677"  >
            <AMFile id="678" start="2022" duration="175" scalar="1/1" mediaStart="4388/1" mediaDuration="175/1" trackNumber="1" src="4" channelNumber="0,1" >
             <Parameters>
              <InterpolatingParam id="679" interp="linr"  time="0/1" value="1" leadInLength="0/1"  name="volume"/>
              <Parameter id="680"  name="captions"/>
             </Parameters>
             <Attributes>
              <Attribute id="681" value="" name="ident"/>
              <Attribute id="682" value="44100" name="sampleRate"/>
              <Attribute id="683" value="16" name="bitDepth"/>
              <Attribute id="684" value="1" name="gain"/>
              <Attribute id="685" value="0" name="mixToMono"/>
             </Attributes>
            </AMFile>
            <ScreenVMFile id="686" start="2022" duration="175" scalar="1/1" mediaStart="4388/1" mediaDuration="175/1" trackNumber="0" src="4" >
             <Transformer>
              <VectorParam id="687"  name="translation">
               <InterpolatingParam id="688" interp="linr"  time="-9999999/1" value="0" leadInLength="0/1"  />
               <InterpolatingParam id="689" interp="linr"  time="-9999999/1" value="0" leadInLength="0/1"  />
               <InterpolatingParam id="690" interp="linr"  time="-9999999/1" value="0" leadInLength="0/1"  />
              </VectorParam>
              <VectorParam id="691"  name="rotation">
               <InterpolatingParam id="692" interp="linr"  time="-9999999/1" value="0" leadInLength="0/1"  />
               <InterpolatingParam id="693" interp="linr"  time="-9999999/1" value="0" leadInLength="0/1"  />
               <InterpolatingParam id="694" interp="linr"  time="-9999999/1" value="0" leadInLength="0/1"  />
              </VectorParam>
              <VectorParam id="695"  name="shear">
               <InterpolatingParam id="696" interp="linr"  time="-9999999/1" value="0" leadInLength="0/1"  />
               <InterpolatingParam id="697" interp="linr"  time="-9999999/1" value="0" leadInLength="0/1"  />
               <InterpolatingParam id="698" interp="linr"  time="-9999999/1" value="0" leadInLength="0/1"  />
              </VectorParam>
              <VectorParam id="699"  name="scale">
               <InterpolatingParam id="700" interp="linr"  time="-9999999/1" value="1" leadInLength="0/1"  />
               <InterpolatingParam id="701" interp="linr"  time="-9999999/1" value="1" leadInLength="0/1"  />
               <InterpolatingParam id="702" interp="linr"  time="-9999999/1" value="1" leadInLength="0/1"  />
              </VectorParam>
              <VectorParam id="703"  name="anchor">
               <InterpolatingParam id="704" interp="linr"  time="0/1" value="0" leadInLength="0/1"  />
               <InterpolatingParam id="705" interp="linr"  time="0/1" value="0" leadInLength="0/1"  />
               <InterpolatingParam id="706" interp="linr"  time="0/1" value="0" leadInLength="0/1"  />
              </VectorParam>
             </Transformer>
             <Parameters>
              <VectorParam id="707"  name="sourceCrop">
               <InterpolatingParam id="708" interp="linr"  time="0/1" value="0" leadInLength="0/1"  />
               <InterpolatingParam id="709" interp="linr"  time="0/1" value="0" leadInLength="0/1"  />
               <InterpolatingParam id="710" interp="linr"  time="0/1" value="0" leadInLength="0/1"  />
               <InterpolatingParam id="711" interp="linr"  time="0/1" value="0" leadInLength="0/1"  />
              </VectorParam>
              <VectorParam id="712"  name="geometryCrop">
               <InterpolatingParam id="713" interp="linr"  time="-9999999/1" value="0" leadInLength="0/1"  />
               <InterpolatingParam id="714" interp="linr"  time="-9999999/1" value="0" leadInLength="0/1"  />
               <InterpolatingParam id="715" interp="linr"  time="-9999999/1" value="0" leadInLength="0/1"  />
               <InterpolatingParam id="716" interp="linr"  time="-9999999/1" value="0" leadInLength="0/1"  />
              </VectorParam>
              <InterpolatingParam id="717" interp="linr"  time="-9999999/1" value="1" leadInLength="0/1"  name="opacity"/>
              <InterpolatingParam id="718" interp="linr"  time="0/1" value="0" leadInLength="0/1"  name="cursorOpacity"/>
              <InterpolatingParam id="719" interp="linr"  time="0/1" value="0" leadInLength="0/1"  name="cursorScale"/>
             </Parameters>
             <Attributes>
              <Attribute id="720" value="" name="ident"/>
             </Attributes>
             <ExtraData>
              <Entry key="ZoomPanBin">
               <ZoomPanBin id="721"  >
                <ZoomPanKeyframes>
                 <ZoomPanKeyframe id="722" timeRangeEnd="-9999999/1" timeRangeDuration="0/1" interpolaterName=""  />
                </ZoomPanKeyframes>
               </ZoomPanBin>
              </Entry>
              <Entry key="CursorEffectBin">
               <CursorEffectBin id="723"  >
                <CursorEffectKeyframes>
                </CursorEffectKeyframes>
               </CursorEffectBin>
              </Entry>
             </ExtraData>
            </ScreenVMFile>
            <MetaData>
             <entry key="AutoAppliedSmartFocus" val="False"/>
             <entry key="WinSubProjectDisplayName" val=""/>
            </MetaData>
           </UnifiedMedia>
           <UnifiedMedia id="724"  >
            <AMFile id="725" start="2197" duration="122" scalar="1/1" mediaStart="4576/1" mediaDuration="122/1" trackNumber="1" src="4" channelNumber="0,1" >
             <Parameters>
              <InterpolatingParam id="726" interp="linr"  time="0/1" value="1" leadInLength="0/1"  name="volume"/>
              <Parameter id="727"  name="captions"/>
             </Parameters>
             <Attributes>
              <Attribute id="728" value="" name="ident"/>
              <Attribute id="729" value="44100" name="sampleRate"/>
              <Attribute id="730" value="16" name="bitDepth"/>
              <Attribute id="731" value="1" name="gain"/>
              <Attribute id="732" value="0" name="mixToMono"/>
             </Attributes>
            </AMFile>
            <ScreenVMFile id="733" start="2197" duration="122" scalar="1/1" mediaStart="4576/1" mediaDuration="122/1" trackNumber="0" src="4" >
             <Transformer>
              <VectorParam id="734"  name="translation">
               <InterpolatingParam id="735" interp="linr"  time="-9999999/1" value="0" leadInLength="0/1"  />
               <InterpolatingParam id="736" interp="linr"  time="-9999999/1" value="0" leadInLength="0/1"  />
               <InterpolatingParam id="737" interp="linr"  time="-9999999/1" value="0" leadInLength="0/1"  />
              </VectorParam>
              <VectorParam id="738"  name="rotation">
               <InterpolatingParam id="739" interp="linr"  time="-9999999/1" value="0" leadInLength="0/1"  />
               <InterpolatingParam id="740" interp="linr"  time="-9999999/1" value="0" leadInLength="0/1"  />
               <InterpolatingParam id="741" interp="linr"  time="-9999999/1" value="0" leadInLength="0/1"  />
              </VectorParam>
              <VectorParam id="742"  name="shear">
               <InterpolatingParam id="743" interp="linr"  time="-9999999/1" value="0" leadInLength="0/1"  />
               <InterpolatingParam id="744" interp="linr"  time="-9999999/1" value="0" leadInLength="0/1"  />
               <InterpolatingParam id="745" interp="linr"  time="-9999999/1" value="0" leadInLength="0/1"  />
              </VectorParam>
              <VectorParam id="746"  name="scale">
               <InterpolatingParam id="747" interp="linr"  time="-9999999/1" value="1" leadInLength="0/1"  />
               <InterpolatingParam id="748" interp="linr"  time="-9999999/1" value="1" leadInLength="0/1"  />
               <InterpolatingParam id="749" interp="linr"  time="-9999999/1" value="1" leadInLength="0/1"  />
              </VectorParam>
              <VectorParam id="750"  name="anchor">
               <InterpolatingParam id="751" interp="linr"  time="0/1" value="0" leadInLength="0/1"  />
               <InterpolatingParam id="752" interp="linr"  time="0/1" value="0" leadInLength="0/1"  />
               <InterpolatingParam id="753" interp="linr"  time="0/1" value="0" leadInLength="0/1"  />
              </VectorParam>
             </Transformer>
             <Parameters>
              <VectorParam id="754"  name="sourceCrop">
               <InterpolatingParam id="755" interp="linr"  time="0/1" value="0" leadInLength="0/1"  />
               <InterpolatingParam id="756" interp="linr"  time="0/1" value="0" leadInLength="0/1"  />
               <InterpolatingParam id="757" interp="linr"  time="0/1" value="0" leadInLength="0/1"  />
               <InterpolatingParam id="758" interp="linr"  time="0/1" value="0" leadInLength="0/1"  />
              </VectorParam>
              <VectorParam id="759"  name="geometryCrop">
               <InterpolatingParam id="760" interp="linr"  time="-9999999/1" value="0" leadInLength="0/1"  />
               <InterpolatingParam id="761" interp="linr"  time="-9999999/1" value="0" leadInLength="0/1"  />
               <InterpolatingParam id="762" interp="linr"  time="-9999999/1" value="0" leadInLength="0/1"  />
               <InterpolatingParam id="763" interp="linr"  time="-9999999/1" value="0" leadInLength="0/1"  />
              </VectorParam>
              <InterpolatingParam id="764" interp="linr"  time="-9999999/1" value="1" leadInLength="0/1"  name="opacity"/>
              <InterpolatingParam id="765" interp="linr"  time="0/1" value="0" leadInLength="0/1"  name="cursorOpacity"/>
              <InterpolatingParam id="766" interp="linr"  time="0/1" value="0" leadInLength="0/1"  name="cursorScale"/>
             </Parameters>
             <Attributes>
              <Attribute id="767" value="" name="ident"/>
             </Attributes>
             <ExtraData>
              <Entry key="ZoomPanBin">
               <ZoomPanBin id="768"  >
                <ZoomPanKeyframes>
                 <ZoomPanKeyframe id="769" timeRangeEnd="-9999999/1" timeRangeDuration="0/1" interpolaterName=""  />
                </ZoomPanKeyframes>
               </ZoomPanBin>
              </Entry>
              <Entry key="CursorEffectBin">
               <CursorEffectBin id="770"  >
                <CursorEffectKeyframes>
                </CursorEffectKeyframes>
               </CursorEffectBin>
              </Entry>
             </ExtraData>
            </ScreenVMFile>
            <MetaData>
             <entry key="AutoAppliedSmartFocus" val="False"/>
             <entry key="WinSubProjectDisplayName" val=""/>
            </MetaData>
           </UnifiedMedia>
           <UnifiedMedia id="771"  >
            <AMFile id="772" start="2319" duration="213" scalar="1/1" mediaStart="4712/1" mediaDuration="213/1" trackNumber="1" src="4" channelNumber="0,1" >
             <Parameters>
              <InterpolatingParam id="773" interp="linr"  time="0/1" value="1" leadInLength="0/1"  name="volume"/>
              <Parameter id="774"  name="captions"/>
             </Parameters>
             <Attributes>
              <Attribute id="775" value="" name="ident"/>
              <Attribute id="776" value="44100" name="sampleRate"/>
              <Attribute id="777" value="16" name="bitDepth"/>
              <Attribute id="778" value="1" name="gain"/>
              <Attribute id="779" value="0" name="mixToMono"/>
             </Attributes>
            </AMFile>
            <ScreenVMFile id="780" start="2319" duration="213" scalar="1/1" mediaStart="4712/1" mediaDuration="213/1" trackNumber="0" src="4" >
             <Transformer>
              <VectorParam id="781"  name="translation">
               <InterpolatingParam id="782" interp="linr"  time="-9999999/1" value="0" leadInLength="0/1"  />
               <InterpolatingParam id="783" interp="linr"  time="-9999999/1" value="0" leadInLength="0/1"  />
               <InterpolatingParam id="784" interp="linr"  time="-9999999/1" value="0" leadInLength="0/1"  />
              </VectorParam>
              <VectorParam id="785"  name="rotation">
               <InterpolatingParam id="786" interp="linr"  time="-9999999/1" value="0" leadInLength="0/1"  />
               <InterpolatingParam id="787" interp="linr"  time="-9999999/1" value="0" leadInLength="0/1"  />
               <InterpolatingParam id="788" interp="linr"  time="-9999999/1" value="0" leadInLength="0/1"  />
              </VectorParam>
              <VectorParam id="789"  name="shear">
               <InterpolatingParam id="790" interp="linr"  time="-9999999/1" value="0" leadInLength="0/1"  />
               <InterpolatingParam id="791" interp="linr"  time="-9999999/1" value="0" leadInLength="0/1"  />
               <InterpolatingParam id="792" interp="linr"  time="-9999999/1" value="0" leadInLength="0/1"  />
              </VectorParam>
              <VectorParam id="793"  name="scale">
               <InterpolatingParam id="794" interp="linr"  time="-9999999/1" value="1" leadInLength="0/1"  />
               <InterpolatingParam id="795" interp="linr"  time="-9999999/1" value="1" leadInLength="0/1"  />
               <InterpolatingParam id="796" interp="linr"  time="-9999999/1" value="1" leadInLength="0/1"  />
              </VectorParam>
              <VectorParam id="797"  name="anchor">
               <InterpolatingParam id="798" interp="linr"  time="0/1" value="0" leadInLength="0/1"  />
               <InterpolatingParam id="799" interp="linr"  time="0/1" value="0" leadInLength="0/1"  />
               <InterpolatingParam id="800" interp="linr"  time="0/1" value="0" leadInLength="0/1"  />
              </VectorParam>
             </Transformer>
             <Parameters>
              <VectorParam id="801"  name="sourceCrop">
               <InterpolatingParam id="802" interp="linr"  time="0/1" value="0" leadInLength="0/1"  />
               <InterpolatingParam id="803" interp="linr"  time="0/1" value="0" leadInLength="0/1"  />
               <InterpolatingParam id="804" interp="linr"  time="0/1" value="0" leadInLength="0/1"  />
               <InterpolatingParam id="805" interp="linr"  time="0/1" value="0" leadInLength="0/1"  />
              </VectorParam>
              <VectorParam id="806"  name="geometryCrop">
               <InterpolatingParam id="807" interp="linr"  time="-9999999/1" value="0" leadInLength="0/1"  />
               <InterpolatingParam id="808" interp="linr"  time="-9999999/1" value="0" leadInLength="0/1"  />
               <InterpolatingParam id="809" interp="linr"  time="-9999999/1" value="0" leadInLength="0/1"  />
               <InterpolatingParam id="810" interp="linr"  time="-9999999/1" value="0" leadInLength="0/1"  />
              </VectorParam>
              <InterpolatingParam id="811" interp="linr"  time="-9999999/1" value="1" leadInLength="0/1"  name="opacity"/>
              <InterpolatingParam id="812" interp="linr"  time="0/1" value="0" leadInLength="0/1"  name="cursorOpacity"/>
              <InterpolatingParam id="813" interp="linr"  time="0/1" value="0" leadInLength="0/1"  name="cursorScale"/>
             </Parameters>
             <Attributes>
              <Attribute id="814" value="" name="ident"/>
             </Attributes>
             <ExtraData>
              <Entry key="ZoomPanBin">
               <ZoomPanBin id="815"  >
                <ZoomPanKeyframes>
                 <ZoomPanKeyframe id="816" timeRangeEnd="-9999999/1" timeRangeDuration="0/1" interpolaterName=""  />
                </ZoomPanKeyframes>
               </ZoomPanBin>
              </Entry>
              <Entry key="CursorEffectBin">
               <CursorEffectBin id="817"  >
                <CursorEffectKeyframes>
                </CursorEffectKeyframes>
               </CursorEffectBin>
              </Entry>
             </ExtraData>
            </ScreenVMFile>
            <MetaData>
             <entry key="AutoAppliedSmartFocus" val="False"/>
             <entry key="WinSubProjectDisplayName" val=""/>
            </MetaData>
           </UnifiedMedia>
           <UnifiedMedia id="818"  >
            <AMFile id="819" start="2532" duration="131" scalar="1/1" mediaStart="4939/1" mediaDuration="131/1" trackNumber="1" src="4" channelNumber="0,1" >
             <Parameters>
              <InterpolatingParam id="820" interp="linr"  time="0/1" value="1" leadInLength="0/1"  name="volume"/>
              <Parameter id="821"  name="captions"/>
             </Parameters>
             <Attributes>
              <Attribute id="822" value="" name="ident"/>
              <Attribute id="823" value="44100" name="sampleRate"/>
              <Attribute id="824" value="16" name="bitDepth"/>
              <Attribute id="825" value="1" name="gain"/>
              <Attribute id="826" value="0" name="mixToMono"/>
             </Attributes>
            </AMFile>
            <ScreenVMFile id="827" start="2532" duration="131" scalar="1/1" mediaStart="4939/1" mediaDuration="131/1" trackNumber="0" src="4" >
             <Transformer>
              <VectorParam id="828"  name="translation">
               <InterpolatingParam id="829" interp="linr"  time="-9999999/1" value="0" leadInLength="0/1"  />
               <InterpolatingParam id="830" interp="linr"  time="-9999999/1" value="0" leadInLength="0/1"  />
               <InterpolatingParam id="831" interp="linr"  time="-9999999/1" value="0" leadInLength="0/1"  />
              </VectorParam>
              <VectorParam id="832"  name="rotation">
               <InterpolatingParam id="833" interp="linr"  time="-9999999/1" value="0" leadInLength="0/1"  />
               <InterpolatingParam id="834" interp="linr"  time="-9999999/1" value="0" leadInLength="0/1"  />
               <InterpolatingParam id="835" interp="linr"  time="-9999999/1" value="0" leadInLength="0/1"  />
              </VectorParam>
              <VectorParam id="836"  name="shear">
               <InterpolatingParam id="837" interp="linr"  time="-9999999/1" value="0" leadInLength="0/1"  />
               <InterpolatingParam id="838" interp="linr"  time="-9999999/1" value="0" leadInLength="0/1"  />
               <InterpolatingParam id="839" interp="linr"  time="-9999999/1" value="0" leadInLength="0/1"  />
              </VectorParam>
              <VectorParam id="840"  name="scale">
               <InterpolatingParam id="841" interp="linr"  time="-9999999/1" value="1" leadInLength="0/1"  />
               <InterpolatingParam id="842" interp="linr"  time="-9999999/1" value="1" leadInLength="0/1"  />
               <InterpolatingParam id="843" interp="linr"  time="-9999999/1" value="1" leadInLength="0/1"  />
              </VectorParam>
              <VectorParam id="844"  name="anchor">
               <InterpolatingParam id="845" interp="linr"  time="0/1" value="0" leadInLength="0/1"  />
               <InterpolatingParam id="846" interp="linr"  time="0/1" value="0" leadInLength="0/1"  />
               <InterpolatingParam id="847" interp="linr"  time="0/1" value="0" leadInLength="0/1"  />
              </VectorParam>
             </Transformer>
             <Parameters>
              <VectorParam id="848"  name="sourceCrop">
               <InterpolatingParam id="849" interp="linr"  time="0/1" value="0" leadInLength="0/1"  />
               <InterpolatingParam id="850" interp="linr"  time="0/1" value="0" leadInLength="0/1"  />
               <InterpolatingParam id="851" interp="linr"  time="0/1" value="0" leadInLength="0/1"  />
               <InterpolatingParam id="852" interp="linr"  time="0/1" value="0" leadInLength="0/1"  />
              </VectorParam>
              <VectorParam id="853"  name="geometryCrop">
               <InterpolatingParam id="854" interp="linr"  time="-9999999/1" value="0" leadInLength="0/1"  />
               <InterpolatingParam id="855" interp="linr"  time="-9999999/1" value="0" leadInLength="0/1"  />
               <InterpolatingParam id="856" interp="linr"  time="-9999999/1" value="0" leadInLength="0/1"  />
               <InterpolatingParam id="857" interp="linr"  time="-9999999/1" value="0" leadInLength="0/1"  />
              </VectorParam>
              <InterpolatingParam id="858" interp="linr"  time="-9999999/1" value="1" leadInLength="0/1"  name="opacity"/>
              <InterpolatingParam id="859" interp="linr"  time="0/1" value="0" leadInLength="0/1"  name="cursorOpacity"/>
              <InterpolatingParam id="860" interp="linr"  time="0/1" value="0" leadInLength="0/1"  name="cursorScale"/>
             </Parameters>
             <Attributes>
              <Attribute id="861" value="" name="ident"/>
             </Attributes>
             <ExtraData>
              <Entry key="ZoomPanBin">
               <ZoomPanBin id="862"  >
                <ZoomPanKeyframes>
                 <ZoomPanKeyframe id="863" timeRangeEnd="-9999999/1" timeRangeDuration="0/1" interpolaterName=""  />
                </ZoomPanKeyframes>
               </ZoomPanBin>
              </Entry>
              <Entry key="CursorEffectBin">
               <CursorEffectBin id="864"  >
                <CursorEffectKeyframes>
                </CursorEffectKeyframes>
               </CursorEffectBin>
              </Entry>
             </ExtraData>
            </ScreenVMFile>
            <MetaData>
             <entry key="AutoAppliedSmartFocus" val="False"/>
             <entry key="WinSubProjectDisplayName" val=""/>
            </MetaData>
           </UnifiedMedia>
           <UnifiedMedia id="865"  >
            <AMFile id="866" start="2663" duration="72" scalar="1/1" mediaStart="5076/1" mediaDuration="72/1" trackNumber="1" src="4" channelNumber="0,1" >
             <Parameters>
              <InterpolatingParam id="867" interp="linr"  time="0/1" value="1" leadInLength="0/1"  name="volume"/>
              <Parameter id="868"  name="captions"/>
             </Parameters>
             <Attributes>
              <Attribute id="869" value="" name="ident"/>
              <Attribute id="870" value="44100" name="sampleRate"/>
              <Attribute id="871" value="16" name="bitDepth"/>
              <Attribute id="872" value="1" name="gain"/>
              <Attribute id="873" value="0" name="mixToMono"/>
             </Attributes>
            </AMFile>
            <ScreenVMFile id="874" start="2663" duration="72" scalar="1/1" mediaStart="5076/1" mediaDuration="72/1" trackNumber="0" src="4" >
             <Transformer>
              <VectorParam id="875"  name="translation">
               <InterpolatingParam id="876" interp="linr"  time="-9999999/1" value="0" leadInLength="0/1"  />
               <InterpolatingParam id="877" interp="linr"  time="-9999999/1" value="0" leadInLength="0/1"  />
               <InterpolatingParam id="878" interp="linr"  time="-9999999/1" value="0" leadInLength="0/1"  />
              </VectorParam>
              <VectorParam id="879"  name="rotation">
               <InterpolatingParam id="880" interp="linr"  time="-9999999/1" value="0" leadInLength="0/1"  />
               <InterpolatingParam id="881" interp="linr"  time="-9999999/1" value="0" leadInLength="0/1"  />
               <InterpolatingParam id="882" interp="linr"  time="-9999999/1" value="0" leadInLength="0/1"  />
              </VectorParam>
              <VectorParam id="883"  name="shear">
               <InterpolatingParam id="884" interp="linr"  time="-9999999/1" value="0" leadInLength="0/1"  />
               <InterpolatingParam id="885" interp="linr"  time="-9999999/1" value="0" leadInLength="0/1"  />
               <InterpolatingParam id="886" interp="linr"  time="-9999999/1" value="0" leadInLength="0/1"  />
              </VectorParam>
              <VectorParam id="887"  name="scale">
               <InterpolatingParam id="888" interp="linr"  time="-9999999/1" value="1" leadInLength="0/1"  />
               <InterpolatingParam id="889" interp="linr"  time="-9999999/1" value="1" leadInLength="0/1"  />
               <InterpolatingParam id="890" interp="linr"  time="-9999999/1" value="1" leadInLength="0/1"  />
              </VectorParam>
              <VectorParam id="891"  name="anchor">
               <InterpolatingParam id="892" interp="linr"  time="0/1" value="0" leadInLength="0/1"  />
               <InterpolatingParam id="893" interp="linr"  time="0/1" value="0" leadInLength="0/1"  />
               <InterpolatingParam id="894" interp="linr"  time="0/1" value="0" leadInLength="0/1"  />
              </VectorParam>
             </Transformer>
             <Parameters>
              <VectorParam id="895"  name="sourceCrop">
               <InterpolatingParam id="896" interp="linr"  time="0/1" value="0" leadInLength="0/1"  />
               <InterpolatingParam id="897" interp="linr"  time="0/1" value="0" leadInLength="0/1"  />
               <InterpolatingParam id="898" interp="linr"  time="0/1" value="0" leadInLength="0/1"  />
               <InterpolatingParam id="899" interp="linr"  time="0/1" value="0" leadInLength="0/1"  />
              </VectorParam>
              <VectorParam id="900"  name="geometryCrop">
               <InterpolatingParam id="901" interp="linr"  time="-9999999/1" value="0" leadInLength="0/1"  />
               <InterpolatingParam id="902" interp="linr"  time="-9999999/1" value="0" leadInLength="0/1"  />
               <InterpolatingParam id="903" interp="linr"  time="-9999999/1" value="0" leadInLength="0/1"  />
               <InterpolatingParam id="904" interp="linr"  time="-9999999/1" value="0" leadInLength="0/1"  />
              </VectorParam>
              <InterpolatingParam id="905" interp="linr"  time="-9999999/1" value="1" leadInLength="0/1"  name="opacity"/>
              <InterpolatingParam id="906" interp="linr"  time="0/1" value="0" leadInLength="0/1"  name="cursorOpacity"/>
              <InterpolatingParam id="907" interp="linr"  time="0/1" value="0" leadInLength="0/1"  name="cursorScale"/>
             </Parameters>
             <Attributes>
              <Attribute id="908" value="" name="ident"/>
             </Attributes>
             <ExtraData>
              <Entry key="ZoomPanBin">
               <ZoomPanBin id="909"  >
                <ZoomPanKeyframes>
                 <ZoomPanKeyframe id="910" timeRangeEnd="-9999999/1" timeRangeDuration="0/1" interpolaterName=""  />
                </ZoomPanKeyframes>
               </ZoomPanBin>
              </Entry>
              <Entry key="CursorEffectBin">
               <CursorEffectBin id="911"  >
                <CursorEffectKeyframes>
                </CursorEffectKeyframes>
               </CursorEffectBin>
              </Entry>
             </ExtraData>
            </ScreenVMFile>
            <MetaData>
             <entry key="AutoAppliedSmartFocus" val="False"/>
             <entry key="WinSubProjectDisplayName" val=""/>
            </MetaData>
           </UnifiedMedia>
           <UnifiedMedia id="912"  >
            <AMFile id="913" start="2735" duration="85" scalar="1/1" mediaStart="5414/1" mediaDuration="85/1" trackNumber="1" src="4" channelNumber="0,1" >
             <Parameters>
              <InterpolatingParam id="914" interp="linr"  time="0/1" value="1" leadInLength="0/1"  name="volume"/>
              <Parameter id="915"  name="captions"/>
             </Parameters>
             <Attributes>
              <Attribute id="916" value="" name="ident"/>
              <Attribute id="917" value="44100" name="sampleRate"/>
              <Attribute id="918" value="16" name="bitDepth"/>
              <Attribute id="919" value="1" name="gain"/>
              <Attribute id="920" value="0" name="mixToMono"/>
             </Attributes>
            </AMFile>
            <ScreenVMFile id="921" start="2735" duration="85" scalar="1/1" mediaStart="5414/1" mediaDuration="85/1" trackNumber="0" src="4" >
             <Transformer>
              <VectorParam id="922"  name="translation">
               <InterpolatingParam id="923" interp="linr"  time="-9999999/1" value="0" leadInLength="0/1"  />
               <InterpolatingParam id="924" interp="linr"  time="-9999999/1" value="0" leadInLength="0/1"  />
               <InterpolatingParam id="925" interp="linr"  time="-9999999/1" value="0" leadInLength="0/1"  />
              </VectorParam>
              <VectorParam id="926"  name="rotation">
               <InterpolatingParam id="927" interp="linr"  time="-9999999/1" value="0" leadInLength="0/1"  />
               <InterpolatingParam id="928" interp="linr"  time="-9999999/1" value="0" leadInLength="0/1"  />
               <InterpolatingParam id="929" interp="linr"  time="-9999999/1" value="0" leadInLength="0/1"  />
              </VectorParam>
              <VectorParam id="930"  name="shear">
               <InterpolatingParam id="931" interp="linr"  time="-9999999/1" value="0" leadInLength="0/1"  />
               <InterpolatingParam id="932" interp="linr"  time="-9999999/1" value="0" leadInLength="0/1"  />
               <InterpolatingParam id="933" interp="linr"  time="-9999999/1" value="0" leadInLength="0/1"  />
              </VectorParam>
              <VectorParam id="934"  name="scale">
               <InterpolatingParam id="935" interp="linr"  time="-9999999/1" value="1" leadInLength="0/1"  />
               <InterpolatingParam id="936" interp="linr"  time="-9999999/1" value="1" leadInLength="0/1"  />
               <InterpolatingParam id="937" interp="linr"  time="-9999999/1" value="1" leadInLength="0/1"  />
              </VectorParam>
              <VectorParam id="938"  name="anchor">
               <InterpolatingParam id="939" interp="linr"  time="0/1" value="0" leadInLength="0/1"  />
               <InterpolatingParam id="940" interp="linr"  time="0/1" value="0" leadInLength="0/1"  />
               <InterpolatingParam id="941" interp="linr"  time="0/1" value="0" leadInLength="0/1"  />
              </VectorParam>
             </Transformer>
             <Parameters>
              <VectorParam id="942"  name="sourceCrop">
               <InterpolatingParam id="943" interp="linr"  time="0/1" value="0" leadInLength="0/1"  />
               <InterpolatingParam id="944" interp="linr"  time="0/1" value="0" leadInLength="0/1"  />
               <InterpolatingParam id="945" interp="linr"  time="0/1" value="0" leadInLength="0/1"  />
               <InterpolatingParam id="946" interp="linr"  time="0/1" value="0" leadInLength="0/1"  />
              </VectorParam>
              <VectorParam id="947"  name="geometryCrop">
               <InterpolatingParam id="948" interp="linr"  time="-9999999/1" value="0" leadInLength="0/1"  />
               <InterpolatingParam id="949" interp="linr"  time="-9999999/1" value="0" leadInLength="0/1"  />
               <InterpolatingParam id="950" interp="linr"  time="-9999999/1" value="0" leadInLength="0/1"  />
               <InterpolatingParam id="951" interp="linr"  time="-9999999/1" value="0" leadInLength="0/1"  />
              </VectorParam>
              <InterpolatingParam id="952" interp="linr"  time="-9999999/1" value="1" leadInLength="0/1"  name="opacity"/>
              <InterpolatingParam id="953" interp="linr"  time="0/1" value="0" leadInLength="0/1"  name="cursorOpacity"/>
              <InterpolatingParam id="954" interp="linr"  time="0/1" value="0" leadInLength="0/1"  name="cursorScale"/>
             </Parameters>
             <Attributes>
              <Attribute id="955" value="" name="ident"/>
             </Attributes>
             <ExtraData>
              <Entry key="ZoomPanBin">
               <ZoomPanBin id="956"  >
                <ZoomPanKeyframes>
                 <ZoomPanKeyframe id="957" timeRangeEnd="-9999999/1" timeRangeDuration="0/1" interpolaterName=""  />
                </ZoomPanKeyframes>
               </ZoomPanBin>
              </Entry>
              <Entry key="CursorEffectBin">
               <CursorEffectBin id="958"  >
                <CursorEffectKeyframes>
                </CursorEffectKeyframes>
               </CursorEffectBin>
              </Entry>
             </ExtraData>
            </ScreenVMFile>
            <MetaData>
             <entry key="AutoAppliedSmartFocus" val="False"/>
             <entry key="WinSubProjectDisplayName" val=""/>
            </MetaData>
           </UnifiedMedia>
           <UnifiedMedia id="959"  >
            <AMFile id="960" start="2820" duration="163" scalar="1/1" mediaStart="5507/1" mediaDuration="163/1" trackNumber="1" src="4" channelNumber="0,1" >
             <Parameters>
              <InterpolatingParam id="961" interp="linr"  time="0/1" value="1" leadInLength="0/1"  name="volume"/>
              <Parameter id="962"  name="captions"/>
             </Parameters>
             <Attributes>
              <Attribute id="963" value="" name="ident"/>
              <Attribute id="964" value="44100" name="sampleRate"/>
              <Attribute id="965" value="16" name="bitDepth"/>
              <Attribute id="966" value="1" name="gain"/>
              <Attribute id="967" value="0" name="mixToMono"/>
             </Attributes>
            </AMFile>
            <ScreenVMFile id="968" start="2820" duration="163" scalar="1/1" mediaStart="5507/1" mediaDuration="163/1" trackNumber="0" src="4" >
             <Transformer>
              <VectorParam id="969"  name="translation">
               <InterpolatingParam id="970" interp="linr"  time="-9999999/1" value="0" leadInLength="0/1"  />
               <InterpolatingParam id="971" interp="linr"  time="-9999999/1" value="0" leadInLength="0/1"  />
               <InterpolatingParam id="972" interp="linr"  time="-9999999/1" value="0" leadInLength="0/1"  />
              </VectorParam>
              <VectorParam id="973"  name="rotation">
               <InterpolatingParam id="974" interp="linr"  time="-9999999/1" value="0" leadInLength="0/1"  />
               <InterpolatingParam id="975" interp="linr"  time="-9999999/1" value="0" leadInLength="0/1"  />
               <InterpolatingParam id="976" interp="linr"  time="-9999999/1" value="0" leadInLength="0/1"  />
              </VectorParam>
              <VectorParam id="977"  name="shear">
               <InterpolatingParam id="978" interp="linr"  time="-9999999/1" value="0" leadInLength="0/1"  />
               <InterpolatingParam id="979" interp="linr"  time="-9999999/1" value="0" leadInLength="0/1"  />
               <InterpolatingParam id="980" interp="linr"  time="-9999999/1" value="0" leadInLength="0/1"  />
              </VectorParam>
              <VectorParam id="981"  name="scale">
               <InterpolatingParam id="982" interp="linr"  time="-9999999/1" value="1" leadInLength="0/1"  />
               <InterpolatingParam id="983" interp="linr"  time="-9999999/1" value="1" leadInLength="0/1"  />
               <InterpolatingParam id="984" interp="linr"  time="-9999999/1" value="1" leadInLength="0/1"  />
              </VectorParam>
              <VectorParam id="985"  name="anchor">
               <InterpolatingParam id="986" interp="linr"  time="0/1" value="0" leadInLength="0/1"  />
               <InterpolatingParam id="987" interp="linr"  time="0/1" value="0" leadInLength="0/1"  />
               <InterpolatingParam id="988" interp="linr"  time="0/1" value="0" leadInLength="0/1"  />
              </VectorParam>
             </Transformer>
             <Parameters>
              <VectorParam id="989"  name="sourceCrop">
               <InterpolatingParam id="990" interp="linr"  time="0/1" value="0" leadInLength="0/1"  />
               <InterpolatingParam id="991" interp="linr"  time="0/1" value="0" leadInLength="0/1"  />
               <InterpolatingParam id="992" interp="linr"  time="0/1" value="0" leadInLength="0/1"  />
               <InterpolatingParam id="993" interp="linr"  time="0/1" value="0" leadInLength="0/1"  />
              </VectorParam>
              <VectorParam id="994"  name="geometryCrop">
               <InterpolatingParam id="995" interp="linr"  time="-9999999/1" value="0" leadInLength="0/1"  />
               <InterpolatingParam id="996" interp="linr"  time="-9999999/1" value="0" leadInLength="0/1"  />
               <InterpolatingParam id="997" interp="linr"  time="-9999999/1" value="0" leadInLength="0/1"  />
               <InterpolatingParam id="998" interp="linr"  time="-9999999/1" value="0" leadInLength="0/1"  />
              </VectorParam>
              <InterpolatingParam id="999" interp="linr"  time="-9999999/1" value="1" leadInLength="0/1"  name="opacity"/>
              <InterpolatingParam id="1000" interp="linr"  time="0/1" value="0" leadInLength="0/1"  name="cursorOpacity"/>
              <InterpolatingParam id="1001" interp="linr"  time="0/1" value="0" leadInLength="0/1"  name="cursorScale"/>
             </Parameters>
             <Attributes>
              <Attribute id="1002" value="" name="ident"/>
             </Attributes>
             <ExtraData>
              <Entry key="ZoomPanBin">
               <ZoomPanBin id="1003"  >
                <ZoomPanKeyframes>
                 <ZoomPanKeyframe id="1004" timeRangeEnd="-9999999/1" timeRangeDuration="0/1" interpolaterName=""  />
                </ZoomPanKeyframes>
               </ZoomPanBin>
              </Entry>
              <Entry key="CursorEffectBin">
               <CursorEffectBin id="1005"  >
                <CursorEffectKeyframes>
                </CursorEffectKeyframes>
               </CursorEffectBin>
              </Entry>
             </ExtraData>
            </ScreenVMFile>
            <MetaData>
             <entry key="AutoAppliedSmartFocus" val="False"/>
             <entry key="WinSubProjectDisplayName" val=""/>
            </MetaData>
           </UnifiedMedia>
           <UnifiedMedia id="1006"  >
            <AMFile id="1007" start="2983" duration="93" scalar="1/1" mediaStart="5675/1" mediaDuration="93/1" trackNumber="1" src="4" channelNumber="0,1" >
             <Parameters>
              <InterpolatingParam id="1008" interp="linr"  time="0/1" value="1" leadInLength="0/1"  name="volume"/>
              <Parameter id="1009"  name="captions"/>
             </Parameters>
             <Attributes>
              <Attribute id="1010" value="" name="ident"/>
              <Attribute id="1011" value="44100" name="sampleRate"/>
              <Attribute id="1012" value="16" name="bitDepth"/>
              <Attribute id="1013" value="1" name="gain"/>
              <Attribute id="1014" value="0" name="mixToMono"/>
             </Attributes>
            </AMFile>
            <ScreenVMFile id="1015" start="2983" duration="93" scalar="1/1" mediaStart="5675/1" mediaDuration="93/1" trackNumber="0" src="4" >
             <Transformer>
              <VectorParam id="1016"  name="translation">
               <InterpolatingParam id="1017" interp="linr"  time="-9999999/1" value="0" leadInLength="0/1"  />
               <InterpolatingParam id="1018" interp="linr"  time="-9999999/1" value="0" leadInLength="0/1"  />
               <InterpolatingParam id="1019" interp="linr"  time="-9999999/1" value="0" leadInLength="0/1"  />
              </VectorParam>
              <VectorParam id="1020"  name="rotation">
               <InterpolatingParam id="1021" interp="linr"  time="-9999999/1" value="0" leadInLength="0/1"  />
               <InterpolatingParam id="1022" interp="linr"  time="-9999999/1" value="0" leadInLength="0/1"  />
               <InterpolatingParam id="1023" interp="linr"  time="-9999999/1" value="0" leadInLength="0/1"  />
              </VectorParam>
              <VectorParam id="1024"  name="shear">
               <InterpolatingParam id="1025" interp="linr"  time="-9999999/1" value="0" leadInLength="0/1"  />
               <InterpolatingParam id="1026" interp="linr"  time="-9999999/1" value="0" leadInLength="0/1"  />
               <InterpolatingParam id="1027" interp="linr"  time="-9999999/1" value="0" leadInLength="0/1"  />
              </VectorParam>
              <VectorParam id="1028"  name="scale">
               <InterpolatingParam id="1029" interp="linr"  time="-9999999/1" value="1" leadInLength="0/1"  />
               <InterpolatingParam id="1030" interp="linr"  time="-9999999/1" value="1" leadInLength="0/1"  />
               <InterpolatingParam id="1031" interp="linr"  time="-9999999/1" value="1" leadInLength="0/1"  />
              </VectorParam>
              <VectorParam id="1032"  name="anchor">
               <InterpolatingParam id="1033" interp="linr"  time="0/1" value="0" leadInLength="0/1"  />
               <InterpolatingParam id="1034" interp="linr"  time="0/1" value="0" leadInLength="0/1"  />
               <InterpolatingParam id="1035" interp="linr"  time="0/1" value="0" leadInLength="0/1"  />
              </VectorParam>
             </Transformer>
             <Parameters>
              <VectorParam id="1036"  name="sourceCrop">
               <InterpolatingParam id="1037" interp="linr"  time="0/1" value="0" leadInLength="0/1"  />
               <InterpolatingParam id="1038" interp="linr"  time="0/1" value="0" leadInLength="0/1"  />
               <InterpolatingParam id="1039" interp="linr"  time="0/1" value="0" leadInLength="0/1"  />
               <InterpolatingParam id="1040" interp="linr"  time="0/1" value="0" leadInLength="0/1"  />
              </VectorParam>
              <VectorParam id="1041"  name="geometryCrop">
               <InterpolatingParam id="1042" interp="linr"  time="-9999999/1" value="0" leadInLength="0/1"  />
               <InterpolatingParam id="1043" interp="linr"  time="-9999999/1" value="0" leadInLength="0/1"  />
               <InterpolatingParam id="1044" interp="linr"  time="-9999999/1" value="0" leadInLength="0/1"  />
               <InterpolatingParam id="1045" interp="linr"  time="-9999999/1" value="0" leadInLength="0/1"  />
              </VectorParam>
              <InterpolatingParam id="1046" interp="linr"  time="-9999999/1" value="1" leadInLength="0/1"  name="opacity"/>
              <InterpolatingParam id="1047" interp="linr"  time="0/1" value="0" leadInLength="0/1"  name="cursorOpacity"/>
              <InterpolatingParam id="1048" interp="linr"  time="0/1" value="0" leadInLength="0/1"  name="cursorScale"/>
             </Parameters>
             <Attributes>
              <Attribute id="1049" value="" name="ident"/>
             </Attributes>
             <ExtraData>
              <Entry key="ZoomPanBin">
               <ZoomPanBin id="1050"  >
                <ZoomPanKeyframes>
                 <ZoomPanKeyframe id="1051" timeRangeEnd="-9999999/1" timeRangeDuration="0/1" interpolaterName=""  />
                </ZoomPanKeyframes>
               </ZoomPanBin>
              </Entry>
              <Entry key="CursorEffectBin">
               <CursorEffectBin id="1052"  >
                <CursorEffectKeyframes>
                </CursorEffectKeyframes>
               </CursorEffectBin>
              </Entry>
             </ExtraData>
            </ScreenVMFile>
            <MetaData>
             <entry key="AutoAppliedSmartFocus" val="False"/>
             <entry key="WinSubProjectDisplayName" val=""/>
            </MetaData>
           </UnifiedMedia>
           <UnifiedMedia id="1053"  >
            <AMFile id="1054" start="3076" duration="105" scalar="1/1" mediaStart="5775/1" mediaDuration="105/1" trackNumber="1" src="4" channelNumber="0,1" >
             <Parameters>
              <InterpolatingParam id="1055" interp="linr"  time="0/1" value="1" leadInLength="0/1"  name="volume"/>
              <Parameter id="1056"  name="captions"/>
             </Parameters>
             <Attributes>
              <Attribute id="1057" value="" name="ident"/>
              <Attribute id="1058" value="44100" name="sampleRate"/>
              <Attribute id="1059" value="16" name="bitDepth"/>
              <Attribute id="1060" value="1" name="gain"/>
              <Attribute id="1061" value="0" name="mixToMono"/>
             </Attributes>
            </AMFile>
            <ScreenVMFile id="1062" start="3076" duration="105" scalar="1/1" mediaStart="5775/1" mediaDuration="105/1" trackNumber="0" src="4" >
             <Transformer>
              <VectorParam id="1063"  name="translation">
               <InterpolatingParam id="1064" interp="linr"  time="-9999999/1" value="0" leadInLength="0/1"  />
               <InterpolatingParam id="1065" interp="linr"  time="-9999999/1" value="0" leadInLength="0/1"  />
               <InterpolatingParam id="1066" interp="linr"  time="-9999999/1" value="0" leadInLength="0/1"  />
              </VectorParam>
              <VectorParam id="1067"  name="rotation">
               <InterpolatingParam id="1068" interp="linr"  time="-9999999/1" value="0" leadInLength="0/1"  />
               <InterpolatingParam id="1069" interp="linr"  time="-9999999/1" value="0" leadInLength="0/1"  />
               <InterpolatingParam id="1070" interp="linr"  time="-9999999/1" value="0" leadInLength="0/1"  />
              </VectorParam>
              <VectorParam id="1071"  name="shear">
               <InterpolatingParam id="1072" interp="linr"  time="-9999999/1" value="0" leadInLength="0/1"  />
               <InterpolatingParam id="1073" interp="linr"  time="-9999999/1" value="0" leadInLength="0/1"  />
               <InterpolatingParam id="1074" interp="linr"  time="-9999999/1" value="0" leadInLength="0/1"  />
              </VectorParam>
              <VectorParam id="1075"  name="scale">
               <InterpolatingParam id="1076" interp="linr"  time="-9999999/1" value="1" leadInLength="0/1"  />
               <InterpolatingParam id="1077" interp="linr"  time="-9999999/1" value="1" leadInLength="0/1"  />
               <InterpolatingParam id="1078" interp="linr"  time="-9999999/1" value="1" leadInLength="0/1"  />
              </VectorParam>
              <VectorParam id="1079"  name="anchor">
               <InterpolatingParam id="1080" interp="linr"  time="0/1" value="0" leadInLength="0/1"  />
               <InterpolatingParam id="1081" interp="linr"  time="0/1" value="0" leadInLength="0/1"  />
               <InterpolatingParam id="1082" interp="linr"  time="0/1" value="0" leadInLength="0/1"  />
              </VectorParam>
             </Transformer>
             <Parameters>
              <VectorParam id="1083"  name="sourceCrop">
               <InterpolatingParam id="1084" interp="linr"  time="0/1" value="0" leadInLength="0/1"  />
               <InterpolatingParam id="1085" interp="linr"  time="0/1" value="0" leadInLength="0/1"  />
               <InterpolatingParam id="1086" interp="linr"  time="0/1" value="0" leadInLength="0/1"  />
               <InterpolatingParam id="1087" interp="linr"  time="0/1" value="0" leadInLength="0/1"  />
              </VectorParam>
              <VectorParam id="1088"  name="geometryCrop">
               <InterpolatingParam id="1089" interp="linr"  time="-9999999/1" value="0" leadInLength="0/1"  />
               <InterpolatingParam id="1090" interp="linr"  time="-9999999/1" value="0" leadInLength="0/1"  />
               <InterpolatingParam id="1091" interp="linr"  time="-9999999/1" value="0" leadInLength="0/1"  />
               <InterpolatingParam id="1092" interp="linr"  time="-9999999/1" value="0" leadInLength="0/1"  />
              </VectorParam>
              <InterpolatingParam id="1093" interp="linr"  time="-9999999/1" value="1" leadInLength="0/1"  name="opacity"/>
              <InterpolatingParam id="1094" interp="linr"  time="0/1" value="0" leadInLength="0/1"  name="cursorOpacity"/>
              <InterpolatingParam id="1095" interp="linr"  time="0/1" value="0" leadInLength="0/1"  name="cursorScale"/>
             </Parameters>
             <Attributes>
              <Attribute id="1096" value="" name="ident"/>
             </Attributes>
             <ExtraData>
              <Entry key="ZoomPanBin">
               <ZoomPanBin id="1097"  >
                <ZoomPanKeyframes>
                 <ZoomPanKeyframe id="1098" timeRangeEnd="-9999999/1" timeRangeDuration="0/1" interpolaterName=""  />
                </ZoomPanKeyframes>
               </ZoomPanBin>
              </Entry>
              <Entry key="CursorEffectBin">
               <CursorEffectBin id="1099"  >
                <CursorEffectKeyframes>
                </CursorEffectKeyframes>
               </CursorEffectBin>
              </Entry>
             </ExtraData>
            </ScreenVMFile>
            <MetaData>
             <entry key="AutoAppliedSmartFocus" val="False"/>
             <entry key="WinSubProjectDisplayName" val=""/>
            </MetaData>
           </UnifiedMedia>
           <UnifiedMedia id="1100"  >
            <AMFile id="1101" start="3181" duration="94" scalar="1/1" mediaStart="5895/1" mediaDuration="94/1" trackNumber="1" src="4" channelNumber="0,1" >
             <Parameters>
              <InterpolatingParam id="1102" interp="linr"  time="0/1" value="1" leadInLength="0/1"  name="volume"/>
              <Parameter id="1103"  name="captions"/>
             </Parameters>
             <Attributes>
              <Attribute id="1104" value="" name="ident"/>
              <Attribute id="1105" value="44100" name="sampleRate"/>
              <Attribute id="1106" value="16" name="bitDepth"/>
              <Attribute id="1107" value="1" name="gain"/>
              <Attribute id="1108" value="0" name="mixToMono"/>
             </Attributes>
            </AMFile>
            <ScreenVMFile id="1109" start="3181" duration="94" scalar="1/1" mediaStart="5895/1" mediaDuration="94/1" trackNumber="0" src="4" >
             <Transformer>
              <VectorParam id="1110"  name="translation">
               <InterpolatingParam id="1111" interp="linr"  time="-9999999/1" value="0" leadInLength="0/1"  />
               <InterpolatingParam id="1112" interp="linr"  time="-9999999/1" value="0" leadInLength="0/1"  />
               <InterpolatingParam id="1113" interp="linr"  time="-9999999/1" value="0" leadInLength="0/1"  />
              </VectorParam>
              <VectorParam id="1114"  name="rotation">
               <InterpolatingParam id="1115" interp="linr"  time="-9999999/1" value="0" leadInLength="0/1"  />
               <InterpolatingParam id="1116" interp="linr"  time="-9999999/1" value="0" leadInLength="0/1"  />
               <InterpolatingParam id="1117" interp="linr"  time="-9999999/1" value="0" leadInLength="0/1"  />
              </VectorParam>
              <VectorParam id="1118"  name="shear">
               <InterpolatingParam id="1119" interp="linr"  time="-9999999/1" value="0" leadInLength="0/1"  />
               <InterpolatingParam id="1120" interp="linr"  time="-9999999/1" value="0" leadInLength="0/1"  />
               <InterpolatingParam id="1121" interp="linr"  time="-9999999/1" value="0" leadInLength="0/1"  />
              </VectorParam>
              <VectorParam id="1122"  name="scale">
               <InterpolatingParam id="1123" interp="linr"  time="-9999999/1" value="1" leadInLength="0/1"  />
               <InterpolatingParam id="1124" interp="linr"  time="-9999999/1" value="1" leadInLength="0/1"  />
               <InterpolatingParam id="1125" interp="linr"  time="-9999999/1" value="1" leadInLength="0/1"  />
              </VectorParam>
              <VectorParam id="1126"  name="anchor">
               <InterpolatingParam id="1127" interp="linr"  time="0/1" value="0" leadInLength="0/1"  />
               <InterpolatingParam id="1128" interp="linr"  time="0/1" value="0" leadInLength="0/1"  />
               <InterpolatingParam id="1129" interp="linr"  time="0/1" value="0" leadInLength="0/1"  />
              </VectorParam>
             </Transformer>
             <Parameters>
              <VectorParam id="1130"  name="sourceCrop">
               <InterpolatingParam id="1131" interp="linr"  time="0/1" value="0" leadInLength="0/1"  />
               <InterpolatingParam id="1132" interp="linr"  time="0/1" value="0" leadInLength="0/1"  />
               <InterpolatingParam id="1133" interp="linr"  time="0/1" value="0" leadInLength="0/1"  />
               <InterpolatingParam id="1134" interp="linr"  time="0/1" value="0" leadInLength="0/1"  />
              </VectorParam>
              <VectorParam id="1135"  name="geometryCrop">
               <InterpolatingParam id="1136" interp="linr"  time="-9999999/1" value="0" leadInLength="0/1"  />
               <InterpolatingParam id="1137" interp="linr"  time="-9999999/1" value="0" leadInLength="0/1"  />
               <InterpolatingParam id="1138" interp="linr"  time="-9999999/1" value="0" leadInLength="0/1"  />
               <InterpolatingParam id="1139" interp="linr"  time="-9999999/1" value="0" leadInLength="0/1"  />
              </VectorParam>
              <InterpolatingParam id="1140" interp="linr"  time="-9999999/1" value="1" leadInLength="0/1"  name="opacity"/>
              <InterpolatingParam id="1141" interp="linr"  time="0/1" value="0" leadInLength="0/1"  name="cursorOpacity"/>
              <InterpolatingParam id="1142" interp="linr"  time="0/1" value="0" leadInLength="0/1"  name="cursorScale"/>
             </Parameters>
             <Attributes>
              <Attribute id="1143" value="" name="ident"/>
             </Attributes>
             <ExtraData>
              <Entry key="ZoomPanBin">
               <ZoomPanBin id="1144"  >
                <ZoomPanKeyframes>
                 <ZoomPanKeyframe id="1145" timeRangeEnd="-9999999/1" timeRangeDuration="0/1" interpolaterName=""  />
                </ZoomPanKeyframes>
               </ZoomPanBin>
              </Entry>
              <Entry key="CursorEffectBin">
               <CursorEffectBin id="1146"  >
                <CursorEffectKeyframes>
                </CursorEffectKeyframes>
               </CursorEffectBin>
              </Entry>
             </ExtraData>
            </ScreenVMFile>
            <MetaData>
             <entry key="AutoAppliedSmartFocus" val="False"/>
             <entry key="WinSubProjectDisplayName" val=""/>
            </MetaData>
           </UnifiedMedia>
           <UnifiedMedia id="1147"  >
            <AMFile id="1148" start="3275" duration="89" scalar="1/1" mediaStart="5997/1" mediaDuration="89/1" trackNumber="1" src="4" channelNumber="0,1" >
             <Parameters>
              <InterpolatingParam id="1149" interp="linr"  time="0/1" value="1" leadInLength="0/1"  name="volume"/>
              <Parameter id="1150"  name="captions"/>
             </Parameters>
             <Attributes>
              <Attribute id="1151" value="" name="ident"/>
              <Attribute id="1152" value="44100" name="sampleRate"/>
              <Attribute id="1153" value="16" name="bitDepth"/>
              <Attribute id="1154" value="1" name="gain"/>
              <Attribute id="1155" value="0" name="mixToMono"/>
             </Attributes>
            </AMFile>
            <ScreenVMFile id="1156" start="3275" duration="89" scalar="1/1" mediaStart="5997/1" mediaDuration="89/1" trackNumber="0" src="4" >
             <Transformer>
              <VectorParam id="1157"  name="translation">
               <InterpolatingParam id="1158" interp="linr"  time="-9999999/1" value="0" leadInLength="0/1"  />
               <InterpolatingParam id="1159" interp="linr"  time="-9999999/1" value="0" leadInLength="0/1"  />
               <InterpolatingParam id="1160" interp="linr"  time="-9999999/1" value="0" leadInLength="0/1"  />
              </VectorParam>
              <VectorParam id="1161"  name="rotation">
               <InterpolatingParam id="1162" interp="linr"  time="-9999999/1" value="0" leadInLength="0/1"  />
               <InterpolatingParam id="1163" interp="linr"  time="-9999999/1" value="0" leadInLength="0/1"  />
               <InterpolatingParam id="1164" interp="linr"  time="-9999999/1" value="0" leadInLength="0/1"  />
              </VectorParam>
              <VectorParam id="1165"  name="shear">
               <InterpolatingParam id="1166" interp="linr"  time="-9999999/1" value="0" leadInLength="0/1"  />
               <InterpolatingParam id="1167" interp="linr"  time="-9999999/1" value="0" leadInLength="0/1"  />
               <InterpolatingParam id="1168" interp="linr"  time="-9999999/1" value="0" leadInLength="0/1"  />
              </VectorParam>
              <VectorParam id="1169"  name="scale">
               <InterpolatingParam id="1170" interp="linr"  time="-9999999/1" value="1" leadInLength="0/1"  />
               <InterpolatingParam id="1171" interp="linr"  time="-9999999/1" value="1" leadInLength="0/1"  />
               <InterpolatingParam id="1172" interp="linr"  time="-9999999/1" value="1" leadInLength="0/1"  />
              </VectorParam>
              <VectorParam id="1173"  name="anchor">
               <InterpolatingParam id="1174" interp="linr"  time="0/1" value="0" leadInLength="0/1"  />
               <InterpolatingParam id="1175" interp="linr"  time="0/1" value="0" leadInLength="0/1"  />
               <InterpolatingParam id="1176" interp="linr"  time="0/1" value="0" leadInLength="0/1"  />
              </VectorParam>
             </Transformer>
             <Parameters>
              <VectorParam id="1177"  name="sourceCrop">
               <InterpolatingParam id="1178" interp="linr"  time="0/1" value="0" leadInLength="0/1"  />
               <InterpolatingParam id="1179" interp="linr"  time="0/1" value="0" leadInLength="0/1"  />
               <InterpolatingParam id="1180" interp="linr"  time="0/1" value="0" leadInLength="0/1"  />
               <InterpolatingParam id="1181" interp="linr"  time="0/1" value="0" leadInLength="0/1"  />
              </VectorParam>
              <VectorParam id="1182"  name="geometryCrop">
               <InterpolatingParam id="1183" interp="linr"  time="-9999999/1" value="0" leadInLength="0/1"  />
               <InterpolatingParam id="1184" interp="linr"  time="-9999999/1" value="0" leadInLength="0/1"  />
               <InterpolatingParam id="1185" interp="linr"  time="-9999999/1" value="0" leadInLength="0/1"  />
               <InterpolatingParam id="1186" interp="linr"  time="-9999999/1" value="0" leadInLength="0/1"  />
              </VectorParam>
              <InterpolatingParam id="1187" interp="linr"  time="-9999999/1" value="1" leadInLength="0/1"  name="opacity"/>
              <InterpolatingParam id="1188" interp="linr"  time="0/1" value="0" leadInLength="0/1"  name="cursorOpacity"/>
              <InterpolatingParam id="1189" interp="linr"  time="0/1" value="0" leadInLength="0/1"  name="cursorScale"/>
             </Parameters>
             <Attributes>
              <Attribute id="1190" value="" name="ident"/>
             </Attributes>
             <ExtraData>
              <Entry key="ZoomPanBin">
               <ZoomPanBin id="1191"  >
                <ZoomPanKeyframes>
                 <ZoomPanKeyframe id="1192" timeRangeEnd="-9999999/1" timeRangeDuration="0/1" interpolaterName=""  />
                </ZoomPanKeyframes>
               </ZoomPanBin>
              </Entry>
              <Entry key="CursorEffectBin">
               <CursorEffectBin id="1193"  >
                <CursorEffectKeyframes>
                </CursorEffectKeyframes>
               </CursorEffectBin>
              </Entry>
             </ExtraData>
            </ScreenVMFile>
            <MetaData>
             <entry key="AutoAppliedSmartFocus" val="False"/>
             <entry key="WinSubProjectDisplayName" val=""/>
            </MetaData>
           </UnifiedMedia>
           <UnifiedMedia id="1194"  >
            <AMFile id="1195" start="3364" duration="351" scalar="1/1" mediaStart="8050/1" mediaDuration="351/1" trackNumber="1" src="4" channelNumber="0,1" >
             <Parameters>
              <InterpolatingParam id="1196" interp="linr"  time="0/1" value="1" leadInLength="0/1"  name="volume"/>
              <Parameter id="1197"  name="captions"/>
             </Parameters>
             <Attributes>
              <Attribute id="1198" value="" name="ident"/>
              <Attribute id="1199" value="44100" name="sampleRate"/>
              <Attribute id="1200" value="16" name="bitDepth"/>
              <Attribute id="1201" value="1" name="gain"/>
              <Attribute id="1202" value="0" name="mixToMono"/>
             </Attributes>
            </AMFile>
            <ScreenVMFile id="1203" start="3364" duration="351" scalar="1/1" mediaStart="8050/1" mediaDuration="351/1" trackNumber="0" src="4" >
             <Transformer>
              <VectorParam id="1204"  name="translation">
               <InterpolatingParam id="1205" interp="linr"  time="-9999999/1" value="0" leadInLength="0/1"  />
               <InterpolatingParam id="1206" interp="linr"  time="-9999999/1" value="0" leadInLength="0/1"  />
               <InterpolatingParam id="1207" interp="linr"  time="-9999999/1" value="0" leadInLength="0/1"  />
              </VectorParam>
              <VectorParam id="1208"  name="rotation">
               <InterpolatingParam id="1209" interp="linr"  time="-9999999/1" value="0" leadInLength="0/1"  />
               <InterpolatingParam id="1210" interp="linr"  time="-9999999/1" value="0" leadInLength="0/1"  />
               <InterpolatingParam id="1211" interp="linr"  time="-9999999/1" value="0" leadInLength="0/1"  />
              </VectorParam>
              <VectorParam id="1212"  name="shear">
               <InterpolatingParam id="1213" interp="linr"  time="-9999999/1" value="0" leadInLength="0/1"  />
               <InterpolatingParam id="1214" interp="linr"  time="-9999999/1" value="0" leadInLength="0/1"  />
               <InterpolatingParam id="1215" interp="linr"  time="-9999999/1" value="0" leadInLength="0/1"  />
              </VectorParam>
              <VectorParam id="1216"  name="scale">
               <InterpolatingParam id="1217" interp="linr"  time="-9999999/1" value="1" leadInLength="0/1"  />
               <InterpolatingParam id="1218" interp="linr"  time="-9999999/1" value="1" leadInLength="0/1"  />
               <InterpolatingParam id="1219" interp="linr"  time="-9999999/1" value="1" leadInLength="0/1"  />
              </VectorParam>
              <VectorParam id="1220"  name="anchor">
               <InterpolatingParam id="1221" interp="linr"  time="0/1" value="0" leadInLength="0/1"  />
               <InterpolatingParam id="1222" interp="linr"  time="0/1" value="0" leadInLength="0/1"  />
               <InterpolatingParam id="1223" interp="linr"  time="0/1" value="0" leadInLength="0/1"  />
              </VectorParam>
             </Transformer>
             <Parameters>
              <VectorParam id="1224"  name="sourceCrop">
               <InterpolatingParam id="1225" interp="linr"  time="0/1" value="0" leadInLength="0/1"  />
               <InterpolatingParam id="1226" interp="linr"  time="0/1" value="0" leadInLength="0/1"  />
               <InterpolatingParam id="1227" interp="linr"  time="0/1" value="0" leadInLength="0/1"  />
               <InterpolatingParam id="1228" interp="linr"  time="0/1" value="0" leadInLength="0/1"  />
              </VectorParam>
              <VectorParam id="1229"  name="geometryCrop">
               <InterpolatingParam id="1230" interp="linr"  time="-9999999/1" value="0" leadInLength="0/1"  />
               <InterpolatingParam id="1231" interp="linr"  time="-9999999/1" value="0" leadInLength="0/1"  />
               <InterpolatingParam id="1232" interp="linr"  time="-9999999/1" value="0" leadInLength="0/1"  />
               <InterpolatingParam id="1233" interp="linr"  time="-9999999/1" value="0" leadInLength="0/1"  />
              </VectorParam>
              <InterpolatingParam id="1234" interp="linr"  time="-9999999/1" value="1" leadInLength="0/1"  name="opacity"/>
              <InterpolatingParam id="1235" interp="linr"  time="0/1" value="0" leadInLength="0/1"  name="cursorOpacity"/>
              <InterpolatingParam id="1236" interp="linr"  time="0/1" value="0" leadInLength="0/1"  name="cursorScale"/>
             </Parameters>
             <Attributes>
              <Attribute id="1237" value="" name="ident"/>
             </Attributes>
             <ExtraData>
              <Entry key="ZoomPanBin">
               <ZoomPanBin id="1238"  >
                <ZoomPanKeyframes>
                 <ZoomPanKeyframe id="1239" timeRangeEnd="-9999999/1" timeRangeDuration="0/1" interpolaterName=""  />
                </ZoomPanKeyframes>
               </ZoomPanBin>
              </Entry>
              <Entry key="CursorEffectBin">
               <CursorEffectBin id="1240"  >
                <CursorEffectKeyframes>
                </CursorEffectKeyframes>
               </CursorEffectBin>
              </Entry>
             </ExtraData>
            </ScreenVMFile>
            <MetaData>
             <entry key="AutoAppliedSmartFocus" val="False"/>
             <entry key="WinSubProjectDisplayName" val=""/>
            </MetaData>
           </UnifiedMedia>
           <UnifiedMedia id="1241"  >
            <AMFile id="1242" start="3715" duration="337" scalar="1/1" mediaStart="8417/1" mediaDuration="337/1" trackNumber="1" src="4" channelNumber="0,1" >
             <Parameters>
              <InterpolatingParam id="1243" interp="linr"  time="0/1" value="1" leadInLength="0/1"  name="volume"/>
              <Parameter id="1244"  name="captions"/>
             </Parameters>
             <Attributes>
              <Attribute id="1245" value="" name="ident"/>
              <Attribute id="1246" value="44100" name="sampleRate"/>
              <Attribute id="1247" value="16" name="bitDepth"/>
              <Attribute id="1248" value="1" name="gain"/>
              <Attribute id="1249" value="0" name="mixToMono"/>
             </Attributes>
            </AMFile>
            <ScreenVMFile id="1250" start="3715" duration="337" scalar="1/1" mediaStart="8417/1" mediaDuration="337/1" trackNumber="0" src="4" >
             <Transformer>
              <VectorParam id="1251"  name="translation">
               <InterpolatingParam id="1252" interp="linr"  time="-9999999/1" value="0" leadInLength="0/1"  />
               <InterpolatingParam id="1253" interp="linr"  time="-9999999/1" value="0" leadInLength="0/1"  />
               <InterpolatingParam id="1254" interp="linr"  time="-9999999/1" value="0" leadInLength="0/1"  />
              </VectorParam>
              <VectorParam id="1255"  name="rotation">
               <InterpolatingParam id="1256" interp="linr"  time="-9999999/1" value="0" leadInLength="0/1"  />
               <InterpolatingParam id="1257" interp="linr"  time="-9999999/1" value="0" leadInLength="0/1"  />
               <InterpolatingParam id="1258" interp="linr"  time="-9999999/1" value="0" leadInLength="0/1"  />
              </VectorParam>
              <VectorParam id="1259"  name="shear">
               <InterpolatingParam id="1260" interp="linr"  time="-9999999/1" value="0" leadInLength="0/1"  />
               <InterpolatingParam id="1261" interp="linr"  time="-9999999/1" value="0" leadInLength="0/1"  />
               <InterpolatingParam id="1262" interp="linr"  time="-9999999/1" value="0" leadInLength="0/1"  />
              </VectorParam>
              <VectorParam id="1263"  name="scale">
               <InterpolatingParam id="1264" interp="linr"  time="-9999999/1" value="1" leadInLength="0/1"  />
               <InterpolatingParam id="1265" interp="linr"  time="-9999999/1" value="1" leadInLength="0/1"  />
               <InterpolatingParam id="1266" interp="linr"  time="-9999999/1" value="1" leadInLength="0/1"  />
              </VectorParam>
              <VectorParam id="1267"  name="anchor">
               <InterpolatingParam id="1268" interp="linr"  time="0/1" value="0" leadInLength="0/1"  />
               <InterpolatingParam id="1269" interp="linr"  time="0/1" value="0" leadInLength="0/1"  />
               <InterpolatingParam id="1270" interp="linr"  time="0/1" value="0" leadInLength="0/1"  />
              </VectorParam>
             </Transformer>
             <Parameters>
              <VectorParam id="1271"  name="sourceCrop">
               <InterpolatingParam id="1272" interp="linr"  time="0/1" value="0" leadInLength="0/1"  />
               <InterpolatingParam id="1273" interp="linr"  time="0/1" value="0" leadInLength="0/1"  />
               <InterpolatingParam id="1274" interp="linr"  time="0/1" value="0" leadInLength="0/1"  />
               <InterpolatingParam id="1275" interp="linr"  time="0/1" value="0" leadInLength="0/1"  />
              </VectorParam>
              <VectorParam id="1276"  name="geometryCrop">
               <InterpolatingParam id="1277" interp="linr"  time="-9999999/1" value="0" leadInLength="0/1"  />
               <InterpolatingParam id="1278" interp="linr"  time="-9999999/1" value="0" leadInLength="0/1"  />
               <InterpolatingParam id="1279" interp="linr"  time="-9999999/1" value="0" leadInLength="0/1"  />
               <InterpolatingParam id="1280" interp="linr"  time="-9999999/1" value="0" leadInLength="0/1"  />
              </VectorParam>
              <InterpolatingParam id="1281" interp="linr"  time="-9999999/1" value="1" leadInLength="0/1"  name="opacity"/>
              <InterpolatingParam id="1282" interp="linr"  time="0/1" value="0" leadInLength="0/1"  name="cursorOpacity"/>
              <InterpolatingParam id="1283" interp="linr"  time="0/1" value="0" leadInLength="0/1"  name="cursorScale"/>
             </Parameters>
             <Attributes>
              <Attribute id="1284" value="" name="ident"/>
             </Attributes>
             <ExtraData>
              <Entry key="ZoomPanBin">
               <ZoomPanBin id="1285"  >
                <ZoomPanKeyframes>
                 <ZoomPanKeyframe id="1286" timeRangeEnd="-9999999/1" timeRangeDuration="0/1" interpolaterName=""  />
                </ZoomPanKeyframes>
               </ZoomPanBin>
              </Entry>
              <Entry key="CursorEffectBin">
               <CursorEffectBin id="1287"  >
                <CursorEffectKeyframes>
                </CursorEffectKeyframes>
               </CursorEffectBin>
              </Entry>
             </ExtraData>
            </ScreenVMFile>
            <MetaData>
             <entry key="AutoAppliedSmartFocus" val="False"/>
             <entry key="WinSubProjectDisplayName" val=""/>
            </MetaData>
           </UnifiedMedia>
           <UnifiedMedia id="1288"  >
            <AMFile id="1289" start="4052" duration="304" scalar="1/1" mediaStart="8765/1" mediaDuration="304/1" trackNumber="1" src="4" channelNumber="0,1" >
             <Parameters>
              <InterpolatingParam id="1290" interp="linr"  time="0/1" value="1" leadInLength="0/1"  name="volume"/>
              <Parameter id="1291"  name="captions"/>
             </Parameters>
             <Attributes>
              <Attribute id="1292" value="" name="ident"/>
              <Attribute id="1293" value="44100" name="sampleRate"/>
              <Attribute id="1294" value="16" name="bitDepth"/>
              <Attribute id="1295" value="1" name="gain"/>
              <Attribute id="1296" value="0" name="mixToMono"/>
             </Attributes>
            </AMFile>
            <ScreenVMFile id="1297" start="4052" duration="304" scalar="1/1" mediaStart="8765/1" mediaDuration="304/1" trackNumber="0" src="4" >
             <Transformer>
              <VectorParam id="1298"  name="translation">
               <InterpolatingParam id="1299" interp="linr"  time="-9999999/1" value="0" leadInLength="0/1"  />
               <InterpolatingParam id="1300" interp="linr"  time="-9999999/1" value="0" leadInLength="0/1"  />
               <InterpolatingParam id="1301" interp="linr"  time="-9999999/1" value="0" leadInLength="0/1"  />
              </VectorParam>
              <VectorParam id="1302"  name="rotation">
               <InterpolatingParam id="1303" interp="linr"  time="-9999999/1" value="0" leadInLength="0/1"  />
               <InterpolatingParam id="1304" interp="linr"  time="-9999999/1" value="0" leadInLength="0/1"  />
               <InterpolatingParam id="1305" interp="linr"  time="-9999999/1" value="0" leadInLength="0/1"  />
              </VectorParam>
              <VectorParam id="1306"  name="shear">
               <InterpolatingParam id="1307" interp="linr"  time="-9999999/1" value="0" leadInLength="0/1"  />
               <InterpolatingParam id="1308" interp="linr"  time="-9999999/1" value="0" leadInLength="0/1"  />
               <InterpolatingParam id="1309" interp="linr"  time="-9999999/1" value="0" leadInLength="0/1"  />
              </VectorParam>
              <VectorParam id="1310"  name="scale">
               <InterpolatingParam id="1311" interp="linr"  time="-9999999/1" value="1" leadInLength="0/1"  />
               <InterpolatingParam id="1312" interp="linr"  time="-9999999/1" value="1" leadInLength="0/1"  />
               <InterpolatingParam id="1313" interp="linr"  time="-9999999/1" value="1" leadInLength="0/1"  />
              </VectorParam>
              <VectorParam id="1314"  name="anchor">
               <InterpolatingParam id="1315" interp="linr"  time="0/1" value="0" leadInLength="0/1"  />
               <InterpolatingParam id="1316" interp="linr"  time="0/1" value="0" leadInLength="0/1"  />
               <InterpolatingParam id="1317" interp="linr"  time="0/1" value="0" leadInLength="0/1"  />
              </VectorParam>
             </Transformer>
             <Parameters>
              <VectorParam id="1318"  name="sourceCrop">
               <InterpolatingParam id="1319" interp="linr"  time="0/1" value="0" leadInLength="0/1"  />
               <InterpolatingParam id="1320" interp="linr"  time="0/1" value="0" leadInLength="0/1"  />
               <InterpolatingParam id="1321" interp="linr"  time="0/1" value="0" leadInLength="0/1"  />
               <InterpolatingParam id="1322" interp="linr"  time="0/1" value="0" leadInLength="0/1"  />
              </VectorParam>
              <VectorParam id="1323"  name="geometryCrop">
               <InterpolatingParam id="1324" interp="linr"  time="-9999999/1" value="0" leadInLength="0/1"  />
               <InterpolatingParam id="1325" interp="linr"  time="-9999999/1" value="0" leadInLength="0/1"  />
               <InterpolatingParam id="1326" interp="linr"  time="-9999999/1" value="0" leadInLength="0/1"  />
               <InterpolatingParam id="1327" interp="linr"  time="-9999999/1" value="0" leadInLength="0/1"  />
              </VectorParam>
              <InterpolatingParam id="1328" interp="linr"  time="-9999999/1" value="1" leadInLength="0/1"  name="opacity"/>
              <InterpolatingParam id="1329" interp="linr"  time="0/1" value="0" leadInLength="0/1"  name="cursorOpacity"/>
              <InterpolatingParam id="1330" interp="linr"  time="0/1" value="0" leadInLength="0/1"  name="cursorScale"/>
             </Parameters>
             <Attributes>
              <Attribute id="1331" value="" name="ident"/>
             </Attributes>
             <ExtraData>
              <Entry key="ZoomPanBin">
               <ZoomPanBin id="1332"  >
                <ZoomPanKeyframes>
                 <ZoomPanKeyframe id="1333" timeRangeEnd="-9999999/1" timeRangeDuration="0/1" interpolaterName=""  />
                </ZoomPanKeyframes>
               </ZoomPanBin>
              </Entry>
              <Entry key="CursorEffectBin">
               <CursorEffectBin id="1334"  >
                <CursorEffectKeyframes>
                </CursorEffectKeyframes>
               </CursorEffectBin>
              </Entry>
             </ExtraData>
            </ScreenVMFile>
            <MetaData>
             <entry key="AutoAppliedSmartFocus" val="False"/>
             <entry key="WinSubProjectDisplayName" val=""/>
            </MetaData>
           </UnifiedMedia>
           <UnifiedMedia id="1335"  >
            <AMFile id="1336" start="4356" duration="54" scalar="1/1" mediaStart="9079/1" mediaDuration="54/1" trackNumber="1" src="4" channelNumber="0,1" >
             <Parameters>
              <InterpolatingParam id="1337" interp="linr"  time="0/1" value="1" leadInLength="0/1"  name="volume"/>
              <Parameter id="1338"  name="captions"/>
             </Parameters>
             <Attributes>
              <Attribute id="1339" value="" name="ident"/>
              <Attribute id="1340" value="44100" name="sampleRate"/>
              <Attribute id="1341" value="16" name="bitDepth"/>
              <Attribute id="1342" value="1" name="gain"/>
              <Attribute id="1343" value="0" name="mixToMono"/>
             </Attributes>
            </AMFile>
            <ScreenVMFile id="1344" start="4356" duration="54" scalar="1/1" mediaStart="9079/1" mediaDuration="54/1" trackNumber="0" src="4" >
             <Transformer>
              <VectorParam id="1345"  name="translation">
               <InterpolatingParam id="1346" interp="linr"  time="-9999999/1" value="0" leadInLength="0/1"  />
               <InterpolatingParam id="1347" interp="linr"  time="-9999999/1" value="0" leadInLength="0/1"  />
               <InterpolatingParam id="1348" interp="linr"  time="-9999999/1" value="0" leadInLength="0/1"  />
              </VectorParam>
              <VectorParam id="1349"  name="rotation">
               <InterpolatingParam id="1350" interp="linr"  time="-9999999/1" value="0" leadInLength="0/1"  />
               <InterpolatingParam id="1351" interp="linr"  time="-9999999/1" value="0" leadInLength="0/1"  />
               <InterpolatingParam id="1352" interp="linr"  time="-9999999/1" value="0" leadInLength="0/1"  />
              </VectorParam>
              <VectorParam id="1353"  name="shear">
               <InterpolatingParam id="1354" interp="linr"  time="-9999999/1" value="0" leadInLength="0/1"  />
               <InterpolatingParam id="1355" interp="linr"  time="-9999999/1" value="0" leadInLength="0/1"  />
               <InterpolatingParam id="1356" interp="linr"  time="-9999999/1" value="0" leadInLength="0/1"  />
              </VectorParam>
              <VectorParam id="1357"  name="scale">
               <InterpolatingParam id="1358" interp="linr"  time="-9999999/1" value="1" leadInLength="0/1"  />
               <InterpolatingParam id="1359" interp="linr"  time="-9999999/1" value="1" leadInLength="0/1"  />
               <InterpolatingParam id="1360" interp="linr"  time="-9999999/1" value="1" leadInLength="0/1"  />
              </VectorParam>
              <VectorParam id="1361"  name="anchor">
               <InterpolatingParam id="1362" interp="linr"  time="0/1" value="0" leadInLength="0/1"  />
               <InterpolatingParam id="1363" interp="linr"  time="0/1" value="0" leadInLength="0/1"  />
               <InterpolatingParam id="1364" interp="linr"  time="0/1" value="0" leadInLength="0/1"  />
              </VectorParam>
             </Transformer>
             <Parameters>
              <VectorParam id="1365"  name="sourceCrop">
               <InterpolatingParam id="1366" interp="linr"  time="0/1" value="0" leadInLength="0/1"  />
               <InterpolatingParam id="1367" interp="linr"  time="0/1" value="0" leadInLength="0/1"  />
               <InterpolatingParam id="1368" interp="linr"  time="0/1" value="0" leadInLength="0/1"  />
               <InterpolatingParam id="1369" interp="linr"  time="0/1" value="0" leadInLength="0/1"  />
              </VectorParam>
              <VectorParam id="1370"  name="geometryCrop">
               <InterpolatingParam id="1371" interp="linr"  time="-9999999/1" value="0" leadInLength="0/1"  />
               <InterpolatingParam id="1372" interp="linr"  time="-9999999/1" value="0" leadInLength="0/1"  />
               <InterpolatingParam id="1373" interp="linr"  time="-9999999/1" value="0" leadInLength="0/1"  />
               <InterpolatingParam id="1374" interp="linr"  time="-9999999/1" value="0" leadInLength="0/1"  />
              </VectorParam>
              <InterpolatingParam id="1375" interp="linr"  time="-9999999/1" value="1" leadInLength="0/1"  name="opacity"/>
              <InterpolatingParam id="1376" interp="linr"  time="0/1" value="0" leadInLength="0/1"  name="cursorOpacity"/>
              <InterpolatingParam id="1377" interp="linr"  time="0/1" value="0" leadInLength="0/1"  name="cursorScale"/>
             </Parameters>
             <Attributes>
              <Attribute id="1378" value="" name="ident"/>
             </Attributes>
             <ExtraData>
              <Entry key="ZoomPanBin">
               <ZoomPanBin id="1379"  >
                <ZoomPanKeyframes>
                 <ZoomPanKeyframe id="1380" timeRangeEnd="-9999999/1" timeRangeDuration="0/1" interpolaterName=""  />
                </ZoomPanKeyframes>
               </ZoomPanBin>
              </Entry>
              <Entry key="CursorEffectBin">
               <CursorEffectBin id="1381"  >
                <CursorEffectKeyframes>
                </CursorEffectKeyframes>
               </CursorEffectBin>
              </Entry>
             </ExtraData>
            </ScreenVMFile>
            <MetaData>
             <entry key="AutoAppliedSmartFocus" val="False"/>
             <entry key="WinSubProjectDisplayName" val=""/>
            </MetaData>
           </UnifiedMedia>
           <UnifiedMedia id="1382"  >
            <AMFile id="1383" start="4410" duration="56" scalar="1/1" mediaStart="9147/1" mediaDuration="56/1" trackNumber="1" src="4" channelNumber="0,1" >
             <Parameters>
              <InterpolatingParam id="1384" interp="linr"  time="0/1" value="1" leadInLength="0/1"  name="volume"/>
              <Parameter id="1385"  name="captions"/>
             </Parameters>
             <Attributes>
              <Attribute id="1386" value="" name="ident"/>
              <Attribute id="1387" value="44100" name="sampleRate"/>
              <Attribute id="1388" value="16" name="bitDepth"/>
              <Attribute id="1389" value="1" name="gain"/>
              <Attribute id="1390" value="0" name="mixToMono"/>
             </Attributes>
            </AMFile>
            <ScreenVMFile id="1391" start="4410" duration="56" scalar="1/1" mediaStart="9147/1" mediaDuration="56/1" trackNumber="0" src="4" >
             <Transformer>
              <VectorParam id="1392"  name="translation">
               <InterpolatingParam id="1393" interp="linr"  time="-9999999/1" value="0" leadInLength="0/1"  />
               <InterpolatingParam id="1394" interp="linr"  time="-9999999/1" value="0" leadInLength="0/1"  />
               <InterpolatingParam id="1395" interp="linr"  time="-9999999/1" value="0" leadInLength="0/1"  />
              </VectorParam>
              <VectorParam id="1396"  name="rotation">
               <InterpolatingParam id="1397" interp="linr"  time="-9999999/1" value="0" leadInLength="0/1"  />
               <InterpolatingParam id="1398" interp="linr"  time="-9999999/1" value="0" leadInLength="0/1"  />
               <InterpolatingParam id="1399" interp="linr"  time="-9999999/1" value="0" leadInLength="0/1"  />
              </VectorParam>
              <VectorParam id="1400"  name="shear">
               <InterpolatingParam id="1401" interp="linr"  time="-9999999/1" value="0" leadInLength="0/1"  />
               <InterpolatingParam id="1402" interp="linr"  time="-9999999/1" value="0" leadInLength="0/1"  />
               <InterpolatingParam id="1403" interp="linr"  time="-9999999/1" value="0" leadInLength="0/1"  />
              </VectorParam>
              <VectorParam id="1404"  name="scale">
               <InterpolatingParam id="1405" interp="linr"  time="-9999999/1" value="1" leadInLength="0/1"  />
               <InterpolatingParam id="1406" interp="linr"  time="-9999999/1" value="1" leadInLength="0/1"  />
               <InterpolatingParam id="1407" interp="linr"  time="-9999999/1" value="1" leadInLength="0/1"  />
              </VectorParam>
              <VectorParam id="1408"  name="anchor">
               <InterpolatingParam id="1409" interp="linr"  time="0/1" value="0" leadInLength="0/1"  />
               <InterpolatingParam id="1410" interp="linr"  time="0/1" value="0" leadInLength="0/1"  />
               <InterpolatingParam id="1411" interp="linr"  time="0/1" value="0" leadInLength="0/1"  />
              </VectorParam>
             </Transformer>
             <Parameters>
              <VectorParam id="1412"  name="sourceCrop">
               <InterpolatingParam id="1413" interp="linr"  time="0/1" value="0" leadInLength="0/1"  />
               <InterpolatingParam id="1414" interp="linr"  time="0/1" value="0" leadInLength="0/1"  />
               <InterpolatingParam id="1415" interp="linr"  time="0/1" value="0" leadInLength="0/1"  />
               <InterpolatingParam id="1416" interp="linr"  time="0/1" value="0" leadInLength="0/1"  />
              </VectorParam>
              <VectorParam id="1417"  name="geometryCrop">
               <InterpolatingParam id="1418" interp="linr"  time="-9999999/1" value="0" leadInLength="0/1"  />
               <InterpolatingParam id="1419" interp="linr"  time="-9999999/1" value="0" leadInLength="0/1"  />
               <InterpolatingParam id="1420" interp="linr"  time="-9999999/1" value="0" leadInLength="0/1"  />
               <InterpolatingParam id="1421" interp="linr"  time="-9999999/1" value="0" leadInLength="0/1"  />
              </VectorParam>
              <InterpolatingParam id="1422" interp="linr"  time="-9999999/1" value="1" leadInLength="0/1"  name="opacity"/>
              <InterpolatingParam id="1423" interp="linr"  time="0/1" value="0" leadInLength="0/1"  name="cursorOpacity"/>
              <InterpolatingParam id="1424" interp="linr"  time="0/1" value="0" leadInLength="0/1"  name="cursorScale"/>
             </Parameters>
             <Attributes>
              <Attribute id="1425" value="" name="ident"/>
             </Attributes>
             <ExtraData>
              <Entry key="ZoomPanBin">
               <ZoomPanBin id="1426"  >
                <ZoomPanKeyframes>
                 <ZoomPanKeyframe id="1427" timeRangeEnd="-9999999/1" timeRangeDuration="0/1" interpolaterName=""  />
                </ZoomPanKeyframes>
               </ZoomPanBin>
              </Entry>
              <Entry key="CursorEffectBin">
               <CursorEffectBin id="1428"  >
                <CursorEffectKeyframes>
                </CursorEffectKeyframes>
               </CursorEffectBin>
              </Entry>
             </ExtraData>
            </ScreenVMFile>
            <MetaData>
             <entry key="AutoAppliedSmartFocus" val="False"/>
             <entry key="WinSubProjectDisplayName" val=""/>
            </MetaData>
           </UnifiedMedia>
           <UnifiedMedia id="1429"  >
            <AMFile id="1430" start="4466" duration="318" scalar="1/1" mediaStart="9228/1" mediaDuration="318/1" trackNumber="1" src="4" channelNumber="0,1" >
             <Parameters>
              <InterpolatingParam id="1431" interp="linr"  time="0/1" value="1" leadInLength="0/1"  name="volume"/>
              <Parameter id="1432"  name="captions"/>
             </Parameters>
             <Attributes>
              <Attribute id="1433" value="" name="ident"/>
              <Attribute id="1434" value="44100" name="sampleRate"/>
              <Attribute id="1435" value="16" name="bitDepth"/>
              <Attribute id="1436" value="1" name="gain"/>
              <Attribute id="1437" value="0" name="mixToMono"/>
             </Attributes>
            </AMFile>
            <ScreenVMFile id="1438" start="4466" duration="318" scalar="1/1" mediaStart="9228/1" mediaDuration="318/1" trackNumber="0" src="4" >
             <Transformer>
              <VectorParam id="1439"  name="translation">
               <InterpolatingParam id="1440" interp="linr"  time="-9999999/1" value="0" leadInLength="0/1"  />
               <InterpolatingParam id="1441" interp="linr"  time="-9999999/1" value="0" leadInLength="0/1"  />
               <InterpolatingParam id="1442" interp="linr"  time="-9999999/1" value="0" leadInLength="0/1"  />
              </VectorParam>
              <VectorParam id="1443"  name="rotation">
               <InterpolatingParam id="1444" interp="linr"  time="-9999999/1" value="0" leadInLength="0/1"  />
               <InterpolatingParam id="1445" interp="linr"  time="-9999999/1" value="0" leadInLength="0/1"  />
               <InterpolatingParam id="1446" interp="linr"  time="-9999999/1" value="0" leadInLength="0/1"  />
              </VectorParam>
              <VectorParam id="1447"  name="shear">
               <InterpolatingParam id="1448" interp="linr"  time="-9999999/1" value="0" leadInLength="0/1"  />
               <InterpolatingParam id="1449" interp="linr"  time="-9999999/1" value="0" leadInLength="0/1"  />
               <InterpolatingParam id="1450" interp="linr"  time="-9999999/1" value="0" leadInLength="0/1"  />
              </VectorParam>
              <VectorParam id="1451"  name="scale">
               <InterpolatingParam id="1452" interp="linr"  time="-9999999/1" value="1" leadInLength="0/1"  />
               <InterpolatingParam id="1453" interp="linr"  time="-9999999/1" value="1" leadInLength="0/1"  />
               <InterpolatingParam id="1454" interp="linr"  time="-9999999/1" value="1" leadInLength="0/1"  />
              </VectorParam>
              <VectorParam id="1455"  name="anchor">
               <InterpolatingParam id="1456" interp="linr"  time="0/1" value="0" leadInLength="0/1"  />
               <InterpolatingParam id="1457" interp="linr"  time="0/1" value="0" leadInLength="0/1"  />
               <InterpolatingParam id="1458" interp="linr"  time="0/1" value="0" leadInLength="0/1"  />
              </VectorParam>
             </Transformer>
             <Parameters>
              <VectorParam id="1459"  name="sourceCrop">
               <InterpolatingParam id="1460" interp="linr"  time="0/1" value="0" leadInLength="0/1"  />
               <InterpolatingParam id="1461" interp="linr"  time="0/1" value="0" leadInLength="0/1"  />
               <InterpolatingParam id="1462" interp="linr"  time="0/1" value="0" leadInLength="0/1"  />
               <InterpolatingParam id="1463" interp="linr"  time="0/1" value="0" leadInLength="0/1"  />
              </VectorParam>
              <VectorParam id="1464"  name="geometryCrop">
               <InterpolatingParam id="1465" interp="linr"  time="-9999999/1" value="0" leadInLength="0/1"  />
               <InterpolatingParam id="1466" interp="linr"  time="-9999999/1" value="0" leadInLength="0/1"  />
               <InterpolatingParam id="1467" interp="linr"  time="-9999999/1" value="0" leadInLength="0/1"  />
               <InterpolatingParam id="1468" interp="linr"  time="-9999999/1" value="0" leadInLength="0/1"  />
              </VectorParam>
              <InterpolatingParam id="1469" interp="linr"  time="-9999999/1" value="1" leadInLength="0/1"  name="opacity"/>
              <InterpolatingParam id="1470" interp="linr"  time="0/1" value="0" leadInLength="0/1"  name="cursorOpacity"/>
              <InterpolatingParam id="1471" interp="linr"  time="0/1" value="0" leadInLength="0/1"  name="cursorScale"/>
             </Parameters>
             <Attributes>
              <Attribute id="1472" value="" name="ident"/>
             </Attributes>
             <ExtraData>
              <Entry key="ZoomPanBin">
               <ZoomPanBin id="1473"  >
                <ZoomPanKeyframes>
                 <ZoomPanKeyframe id="1474" timeRangeEnd="-9999999/1" timeRangeDuration="0/1" interpolaterName=""  />
                </ZoomPanKeyframes>
               </ZoomPanBin>
              </Entry>
              <Entry key="CursorEffectBin">
               <CursorEffectBin id="1475"  >
                <CursorEffectKeyframes>
                </CursorEffectKeyframes>
               </CursorEffectBin>
              </Entry>
             </ExtraData>
            </ScreenVMFile>
            <MetaData>
             <entry key="AutoAppliedSmartFocus" val="False"/>
             <entry key="WinSubProjectDisplayName" val=""/>
            </MetaData>
           </UnifiedMedia>
           <UnifiedMedia id="1476"  >
            <AMFile id="1477" start="4784" duration="99" scalar="1/1" mediaStart="9556/1" mediaDuration="99/1" trackNumber="1" src="4" channelNumber="0,1" >
             <Parameters>
              <InterpolatingParam id="1478" interp="linr"  time="0/1" value="1" leadInLength="0/1"  name="volume"/>
              <Parameter id="1479"  name="captions"/>
             </Parameters>
             <Attributes>
              <Attribute id="1480" value="" name="ident"/>
              <Attribute id="1481" value="44100" name="sampleRate"/>
              <Attribute id="1482" value="16" name="bitDepth"/>
              <Attribute id="1483" value="1" name="gain"/>
              <Attribute id="1484" value="0" name="mixToMono"/>
             </Attributes>
            </AMFile>
            <ScreenVMFile id="1485" start="4784" duration="99" scalar="1/1" mediaStart="9556/1" mediaDuration="99/1" trackNumber="0" src="4" >
             <Transformer>
              <VectorParam id="1486"  name="translation">
               <InterpolatingParam id="1487" interp="linr"  time="-9999999/1" value="0" leadInLength="0/1"  />
               <InterpolatingParam id="1488" interp="linr"  time="-9999999/1" value="0" leadInLength="0/1"  />
               <InterpolatingParam id="1489" interp="linr"  time="-9999999/1" value="0" leadInLength="0/1"  />
              </VectorParam>
              <VectorParam id="1490"  name="rotation">
               <InterpolatingParam id="1491" interp="linr"  time="-9999999/1" value="0" leadInLength="0/1"  />
               <InterpolatingParam id="1492" interp="linr"  time="-9999999/1" value="0" leadInLength="0/1"  />
               <InterpolatingParam id="1493" interp="linr"  time="-9999999/1" value="0" leadInLength="0/1"  />
              </VectorParam>
              <VectorParam id="1494"  name="shear">
               <InterpolatingParam id="1495" interp="linr"  time="-9999999/1" value="0" leadInLength="0/1"  />
               <InterpolatingParam id="1496" interp="linr"  time="-9999999/1" value="0" leadInLength="0/1"  />
               <InterpolatingParam id="1497" interp="linr"  time="-9999999/1" value="0" leadInLength="0/1"  />
              </VectorParam>
              <VectorParam id="1498"  name="scale">
               <InterpolatingParam id="1499" interp="linr"  time="-9999999/1" value="1" leadInLength="0/1"  />
               <InterpolatingParam id="1500" interp="linr"  time="-9999999/1" value="1" leadInLength="0/1"  />
               <InterpolatingParam id="1501" interp="linr"  time="-9999999/1" value="1" leadInLength="0/1"  />
              </VectorParam>
              <VectorParam id="1502"  name="anchor">
               <InterpolatingParam id="1503" interp="linr"  time="0/1" value="0" leadInLength="0/1"  />
               <InterpolatingParam id="1504" interp="linr"  time="0/1" value="0" leadInLength="0/1"  />
               <InterpolatingParam id="1505" interp="linr"  time="0/1" value="0" leadInLength="0/1"  />
              </VectorParam>
             </Transformer>
             <Parameters>
              <VectorParam id="1506"  name="sourceCrop">
               <InterpolatingParam id="1507" interp="linr"  time="0/1" value="0" leadInLength="0/1"  />
               <InterpolatingParam id="1508" interp="linr"  time="0/1" value="0" leadInLength="0/1"  />
               <InterpolatingParam id="1509" interp="linr"  time="0/1" value="0" leadInLength="0/1"  />
               <InterpolatingParam id="1510" interp="linr"  time="0/1" value="0" leadInLength="0/1"  />
              </VectorParam>
              <VectorParam id="1511"  name="geometryCrop">
               <InterpolatingParam id="1512" interp="linr"  time="-9999999/1" value="0" leadInLength="0/1"  />
               <InterpolatingParam id="1513" interp="linr"  time="-9999999/1" value="0" leadInLength="0/1"  />
               <InterpolatingParam id="1514" interp="linr"  time="-9999999/1" value="0" leadInLength="0/1"  />
               <InterpolatingParam id="1515" interp="linr"  time="-9999999/1" value="0" leadInLength="0/1"  />
              </VectorParam>
              <InterpolatingParam id="1516" interp="linr"  time="-9999999/1" value="1" leadInLength="0/1"  name="opacity"/>
              <InterpolatingParam id="1517" interp="linr"  time="0/1" value="0" leadInLength="0/1"  name="cursorOpacity"/>
              <InterpolatingParam id="1518" interp="linr"  time="0/1" value="0" leadInLength="0/1"  name="cursorScale"/>
             </Parameters>
             <Attributes>
              <Attribute id="1519" value="" name="ident"/>
             </Attributes>
             <ExtraData>
              <Entry key="ZoomPanBin">
               <ZoomPanBin id="1520"  >
                <ZoomPanKeyframes>
                 <ZoomPanKeyframe id="1521" timeRangeEnd="-9999999/1" timeRangeDuration="0/1" interpolaterName=""  />
                </ZoomPanKeyframes>
               </ZoomPanBin>
              </Entry>
              <Entry key="CursorEffectBin">
               <CursorEffectBin id="1522"  >
                <CursorEffectKeyframes>
                </CursorEffectKeyframes>
               </CursorEffectBin>
              </Entry>
             </ExtraData>
            </ScreenVMFile>
            <MetaData>
             <entry key="AutoAppliedSmartFocus" val="False"/>
             <entry key="WinSubProjectDisplayName" val=""/>
            </MetaData>
           </UnifiedMedia>
           <UnifiedMedia id="1523"  >
            <AMFile id="1524" start="4883" duration="46" scalar="1/1" mediaStart="9875/1" mediaDuration="46/1" trackNumber="1" src="4" channelNumber="0,1" >
             <Parameters>
              <InterpolatingParam id="1525" interp="linr"  time="0/1" value="1" leadInLength="0/1"  name="volume"/>
              <Parameter id="1526"  name="captions"/>
             </Parameters>
             <Attributes>
              <Attribute id="1527" value="" name="ident"/>
              <Attribute id="1528" value="44100" name="sampleRate"/>
              <Attribute id="1529" value="16" name="bitDepth"/>
              <Attribute id="1530" value="1" name="gain"/>
              <Attribute id="1531" value="0" name="mixToMono"/>
             </Attributes>
            </AMFile>
            <ScreenVMFile id="1532" start="4883" duration="46" scalar="1/1" mediaStart="9875/1" mediaDuration="46/1" trackNumber="0" src="4" >
             <Transformer>
              <VectorParam id="1533"  name="translation">
               <InterpolatingParam id="1534" interp="linr"  time="-9999999/1" value="0" leadInLength="0/1"  />
               <InterpolatingParam id="1535" interp="linr"  time="-9999999/1" value="0" leadInLength="0/1"  />
               <InterpolatingParam id="1536" interp="linr"  time="-9999999/1" value="0" leadInLength="0/1"  />
              </VectorParam>
              <VectorParam id="1537"  name="rotation">
               <InterpolatingParam id="1538" interp="linr"  time="-9999999/1" value="0" leadInLength="0/1"  />
               <InterpolatingParam id="1539" interp="linr"  time="-9999999/1" value="0" leadInLength="0/1"  />
               <InterpolatingParam id="1540" interp="linr"  time="-9999999/1" value="0" leadInLength="0/1"  />
              </VectorParam>
              <VectorParam id="1541"  name="shear">
               <InterpolatingParam id="1542" interp="linr"  time="-9999999/1" value="0" leadInLength="0/1"  />
               <InterpolatingParam id="1543" interp="linr"  time="-9999999/1" value="0" leadInLength="0/1"  />
               <InterpolatingParam id="1544" interp="linr"  time="-9999999/1" value="0" leadInLength="0/1"  />
              </VectorParam>
              <VectorParam id="1545"  name="scale">
               <InterpolatingParam id="1546" interp="linr"  time="-9999999/1" value="1" leadInLength="0/1"  />
               <InterpolatingParam id="1547" interp="linr"  time="-9999999/1" value="1" leadInLength="0/1"  />
               <InterpolatingParam id="1548" interp="linr"  time="-9999999/1" value="1" leadInLength="0/1"  />
              </VectorParam>
              <VectorParam id="1549"  name="anchor">
               <InterpolatingParam id="1550" interp="linr"  time="0/1" value="0" leadInLength="0/1"  />
               <InterpolatingParam id="1551" interp="linr"  time="0/1" value="0" leadInLength="0/1"  />
               <InterpolatingParam id="1552" interp="linr"  time="0/1" value="0" leadInLength="0/1"  />
              </VectorParam>
             </Transformer>
             <Parameters>
              <VectorParam id="1553"  name="sourceCrop">
               <InterpolatingParam id="1554" interp="linr"  time="0/1" value="0" leadInLength="0/1"  />
               <InterpolatingParam id="1555" interp="linr"  time="0/1" value="0" leadInLength="0/1"  />
               <InterpolatingParam id="1556" interp="linr"  time="0/1" value="0" leadInLength="0/1"  />
               <InterpolatingParam id="1557" interp="linr"  time="0/1" value="0" leadInLength="0/1"  />
              </VectorParam>
              <VectorParam id="1558"  name="geometryCrop">
               <InterpolatingParam id="1559" interp="linr"  time="-9999999/1" value="0" leadInLength="0/1"  />
               <InterpolatingParam id="1560" interp="linr"  time="-9999999/1" value="0" leadInLength="0/1"  />
               <InterpolatingParam id="1561" interp="linr"  time="-9999999/1" value="0" leadInLength="0/1"  />
               <InterpolatingParam id="1562" interp="linr"  time="-9999999/1" value="0" leadInLength="0/1"  />
              </VectorParam>
              <InterpolatingParam id="1563" interp="linr"  time="-9999999/1" value="1" leadInLength="0/1"  name="opacity"/>
              <InterpolatingParam id="1564" interp="linr"  time="0/1" value="0" leadInLength="0/1"  name="cursorOpacity"/>
              <InterpolatingParam id="1565" interp="linr"  time="0/1" value="0" leadInLength="0/1"  name="cursorScale"/>
             </Parameters>
             <Attributes>
              <Attribute id="1566" value="" name="ident"/>
             </Attributes>
             <ExtraData>
              <Entry key="ZoomPanBin">
               <ZoomPanBin id="1567"  >
                <ZoomPanKeyframes>
                 <ZoomPanKeyframe id="1568" timeRangeEnd="-9999999/1" timeRangeDuration="0/1" interpolaterName=""  />
                </ZoomPanKeyframes>
               </ZoomPanBin>
              </Entry>
              <Entry key="CursorEffectBin">
               <CursorEffectBin id="1569"  >
                <CursorEffectKeyframes>
                </CursorEffectKeyframes>
               </CursorEffectBin>
              </Entry>
             </ExtraData>
            </ScreenVMFile>
            <MetaData>
             <entry key="AutoAppliedSmartFocus" val="False"/>
             <entry key="WinSubProjectDisplayName" val=""/>
            </MetaData>
           </UnifiedMedia>
           <UnifiedMedia id="1570"  >
            <AMFile id="1571" start="4929" duration="156" scalar="1/1" mediaStart="9929/1" mediaDuration="156/1" trackNumber="1" src="4" channelNumber="0,1" >
             <Parameters>
              <InterpolatingParam id="1572" interp="linr"  time="0/1" value="1" leadInLength="0/1"  name="volume"/>
              <Parameter id="1573"  name="captions"/>
             </Parameters>
             <Attributes>
              <Attribute id="1574" value="" name="ident"/>
              <Attribute id="1575" value="44100" name="sampleRate"/>
              <Attribute id="1576" value="16" name="bitDepth"/>
              <Attribute id="1577" value="1" name="gain"/>
              <Attribute id="1578" value="0" name="mixToMono"/>
             </Attributes>
            </AMFile>
            <ScreenVMFile id="1579" start="4929" duration="156" scalar="1/1" mediaStart="9929/1" mediaDuration="156/1" trackNumber="0" src="4" >
             <Transformer>
              <VectorParam id="1580"  name="translation">
               <InterpolatingParam id="1581" interp="linr"  time="-9999999/1" value="0" leadInLength="0/1"  />
               <InterpolatingParam id="1582" interp="linr"  time="-9999999/1" value="0" leadInLength="0/1"  />
               <InterpolatingParam id="1583" interp="linr"  time="-9999999/1" value="0" leadInLength="0/1"  />
              </VectorParam>
              <VectorParam id="1584"  name="rotation">
               <InterpolatingParam id="1585" interp="linr"  time="-9999999/1" value="0" leadInLength="0/1"  />
               <InterpolatingParam id="1586" interp="linr"  time="-9999999/1" value="0" leadInLength="0/1"  />
               <InterpolatingParam id="1587" interp="linr"  time="-9999999/1" value="0" leadInLength="0/1"  />
              </VectorParam>
              <VectorParam id="1588"  name="shear">
               <InterpolatingParam id="1589" interp="linr"  time="-9999999/1" value="0" leadInLength="0/1"  />
               <InterpolatingParam id="1590" interp="linr"  time="-9999999/1" value="0" leadInLength="0/1"  />
               <InterpolatingParam id="1591" interp="linr"  time="-9999999/1" value="0" leadInLength="0/1"  />
              </VectorParam>
              <VectorParam id="1592"  name="scale">
               <InterpolatingParam id="1593" interp="linr"  time="-9999999/1" value="1" leadInLength="0/1"  />
               <InterpolatingParam id="1594" interp="linr"  time="-9999999/1" value="1" leadInLength="0/1"  />
               <InterpolatingParam id="1595" interp="linr"  time="-9999999/1" value="1" leadInLength="0/1"  />
              </VectorParam>
              <VectorParam id="1596"  name="anchor">
               <InterpolatingParam id="1597" interp="linr"  time="0/1" value="0" leadInLength="0/1"  />
               <InterpolatingParam id="1598" interp="linr"  time="0/1" value="0" leadInLength="0/1"  />
               <InterpolatingParam id="1599" interp="linr"  time="0/1" value="0" leadInLength="0/1"  />
              </VectorParam>
             </Transformer>
             <Parameters>
              <VectorParam id="1600"  name="sourceCrop">
               <InterpolatingParam id="1601" interp="linr"  time="0/1" value="0" leadInLength="0/1"  />
               <InterpolatingParam id="1602" interp="linr"  time="0/1" value="0" leadInLength="0/1"  />
               <InterpolatingParam id="1603" interp="linr"  time="0/1" value="0" leadInLength="0/1"  />
               <InterpolatingParam id="1604" interp="linr"  time="0/1" value="0" leadInLength="0/1"  />
              </VectorParam>
              <VectorParam id="1605"  name="geometryCrop">
               <InterpolatingParam id="1606" interp="linr"  time="-9999999/1" value="0" leadInLength="0/1"  />
               <InterpolatingParam id="1607" interp="linr"  time="-9999999/1" value="0" leadInLength="0/1"  />
               <InterpolatingParam id="1608" interp="linr"  time="-9999999/1" value="0" leadInLength="0/1"  />
               <InterpolatingParam id="1609" interp="linr"  time="-9999999/1" value="0" leadInLength="0/1"  />
              </VectorParam>
              <InterpolatingParam id="1610" interp="linr"  time="-9999999/1" value="1" leadInLength="0/1"  name="opacity"/>
              <InterpolatingParam id="1611" interp="linr"  time="0/1" value="0" leadInLength="0/1"  name="cursorOpacity"/>
              <InterpolatingParam id="1612" interp="linr"  time="0/1" value="0" leadInLength="0/1"  name="cursorScale"/>
             </Parameters>
             <Attributes>
              <Attribute id="1613" value="" name="ident"/>
             </Attributes>
             <ExtraData>
              <Entry key="ZoomPanBin">
               <ZoomPanBin id="1614"  >
                <ZoomPanKeyframes>
                 <ZoomPanKeyframe id="1615" timeRangeEnd="-9999999/1" timeRangeDuration="0/1" interpolaterName=""  />
                </ZoomPanKeyframes>
               </ZoomPanBin>
              </Entry>
              <Entry key="CursorEffectBin">
               <CursorEffectBin id="1616"  >
                <CursorEffectKeyframes>
                </CursorEffectKeyframes>
               </CursorEffectBin>
              </Entry>
             </ExtraData>
            </ScreenVMFile>
            <MetaData>
             <entry key="AutoAppliedSmartFocus" val="False"/>
             <entry key="WinSubProjectDisplayName" val=""/>
            </MetaData>
           </UnifiedMedia>
           <UnifiedMedia id="1617"  >
            <AMFile id="1618" start="5085" duration="163" scalar="1/1" mediaStart="10094/1" mediaDuration="163/1" trackNumber="1" src="4" channelNumber="0,1" >
             <Parameters>
              <InterpolatingParam id="1619" interp="linr"  time="0/1" value="1" leadInLength="0/1"  name="volume"/>
              <Parameter id="1620"  name="captions"/>
             </Parameters>
             <Attributes>
              <Attribute id="1621" value="" name="ident"/>
              <Attribute id="1622" value="44100" name="sampleRate"/>
              <Attribute id="1623" value="16" name="bitDepth"/>
              <Attribute id="1624" value="1" name="gain"/>
              <Attribute id="1625" value="0" name="mixToMono"/>
             </Attributes>
            </AMFile>
            <ScreenVMFile id="1626" start="5085" duration="163" scalar="1/1" mediaStart="10094/1" mediaDuration="163/1" trackNumber="0" src="4" >
             <Transformer>
              <VectorParam id="1627"  name="translation">
               <InterpolatingParam id="1628" interp="linr"  time="-9999999/1" value="0" leadInLength="0/1"  />
               <InterpolatingParam id="1629" interp="linr"  time="-9999999/1" value="0" leadInLength="0/1"  />
               <InterpolatingParam id="1630" interp="linr"  time="-9999999/1" value="0" leadInLength="0/1"  />
              </VectorParam>
              <VectorParam id="1631"  name="rotation">
               <InterpolatingParam id="1632" interp="linr"  time="-9999999/1" value="0" leadInLength="0/1"  />
               <InterpolatingParam id="1633" interp="linr"  time="-9999999/1" value="0" leadInLength="0/1"  />
               <InterpolatingParam id="1634" interp="linr"  time="-9999999/1" value="0" leadInLength="0/1"  />
              </VectorParam>
              <VectorParam id="1635"  name="shear">
               <InterpolatingParam id="1636" interp="linr"  time="-9999999/1" value="0" leadInLength="0/1"  />
               <InterpolatingParam id="1637" interp="linr"  time="-9999999/1" value="0" leadInLength="0/1"  />
               <InterpolatingParam id="1638" interp="linr"  time="-9999999/1" value="0" leadInLength="0/1"  />
              </VectorParam>
              <VectorParam id="1639"  name="scale">
               <InterpolatingParam id="1640" interp="linr"  time="-9999999/1" value="1" leadInLength="0/1"  />
               <InterpolatingParam id="1641" interp="linr"  time="-9999999/1" value="1" leadInLength="0/1"  />
               <InterpolatingParam id="1642" interp="linr"  time="-9999999/1" value="1" leadInLength="0/1"  />
              </VectorParam>
              <VectorParam id="1643"  name="anchor">
               <InterpolatingParam id="1644" interp="linr"  time="0/1" value="0" leadInLength="0/1"  />
               <InterpolatingParam id="1645" interp="linr"  time="0/1" value="0" leadInLength="0/1"  />
               <InterpolatingParam id="1646" interp="linr"  time="0/1" value="0" leadInLength="0/1"  />
              </VectorParam>
             </Transformer>
             <Parameters>
              <VectorParam id="1647"  name="sourceCrop">
               <InterpolatingParam id="1648" interp="linr"  time="0/1" value="0" leadInLength="0/1"  />
               <InterpolatingParam id="1649" interp="linr"  time="0/1" value="0" leadInLength="0/1"  />
               <InterpolatingParam id="1650" interp="linr"  time="0/1" value="0" leadInLength="0/1"  />
               <InterpolatingParam id="1651" interp="linr"  time="0/1" value="0" leadInLength="0/1"  />
              </VectorParam>
              <VectorParam id="1652"  name="geometryCrop">
               <InterpolatingParam id="1653" interp="linr"  time="-9999999/1" value="0" leadInLength="0/1"  />
               <InterpolatingParam id="1654" interp="linr"  time="-9999999/1" value="0" leadInLength="0/1"  />
               <InterpolatingParam id="1655" interp="linr"  time="-9999999/1" value="0" leadInLength="0/1"  />
               <InterpolatingParam id="1656" interp="linr"  time="-9999999/1" value="0" leadInLength="0/1"  />
              </VectorParam>
              <InterpolatingParam id="1657" interp="linr"  time="-9999999/1" value="1" leadInLength="0/1"  name="opacity"/>
              <InterpolatingParam id="1658" interp="linr"  time="0/1" value="0" leadInLength="0/1"  name="cursorOpacity"/>
              <InterpolatingParam id="1659" interp="linr"  time="0/1" value="0" leadInLength="0/1"  name="cursorScale"/>
             </Parameters>
             <Attributes>
              <Attribute id="1660" value="" name="ident"/>
             </Attributes>
             <ExtraData>
              <Entry key="ZoomPanBin">
               <ZoomPanBin id="1661"  >
                <ZoomPanKeyframes>
                 <ZoomPanKeyframe id="1662" timeRangeEnd="-9999999/1" timeRangeDuration="0/1" interpolaterName=""  />
                </ZoomPanKeyframes>
               </ZoomPanBin>
              </Entry>
              <Entry key="CursorEffectBin">
               <CursorEffectBin id="1663"  >
                <CursorEffectKeyframes>
                </CursorEffectKeyframes>
               </CursorEffectBin>
              </Entry>
             </ExtraData>
            </ScreenVMFile>
            <MetaData>
             <entry key="AutoAppliedSmartFocus" val="False"/>
             <entry key="WinSubProjectDisplayName" val=""/>
            </MetaData>
           </UnifiedMedia>
           <UnifiedMedia id="1664"  >
            <AMFile id="1665" start="5248" duration="95" scalar="1/1" mediaStart="10338/1" mediaDuration="95/1" trackNumber="1" src="4" channelNumber="0,1" >
             <Parameters>
              <InterpolatingParam id="1666" interp="linr"  time="0/1" value="1" leadInLength="0/1"  name="volume"/>
              <Parameter id="1667"  name="captions"/>
             </Parameters>
             <Attributes>
              <Attribute id="1668" value="" name="ident"/>
              <Attribute id="1669" value="44100" name="sampleRate"/>
              <Attribute id="1670" value="16" name="bitDepth"/>
              <Attribute id="1671" value="1" name="gain"/>
              <Attribute id="1672" value="0" name="mixToMono"/>
             </Attributes>
            </AMFile>
            <ScreenVMFile id="1673" start="5248" duration="95" scalar="1/1" mediaStart="10338/1" mediaDuration="95/1" trackNumber="0" src="4" >
             <Transformer>
              <VectorParam id="1674"  name="translation">
               <InterpolatingParam id="1675" interp="linr"  time="-9999999/1" value="0" leadInLength="0/1"  />
               <InterpolatingParam id="1676" interp="linr"  time="-9999999/1" value="0" leadInLength="0/1"  />
               <InterpolatingParam id="1677" interp="linr"  time="-9999999/1" value="0" leadInLength="0/1"  />
              </VectorParam>
              <VectorParam id="1678"  name="rotation">
               <InterpolatingParam id="1679" interp="linr"  time="-9999999/1" value="0" leadInLength="0/1"  />
               <InterpolatingParam id="1680" interp="linr"  time="-9999999/1" value="0" leadInLength="0/1"  />
               <InterpolatingParam id="1681" interp="linr"  time="-9999999/1" value="0" leadInLength="0/1"  />
              </VectorParam>
              <VectorParam id="1682"  name="shear">
               <InterpolatingParam id="1683" interp="linr"  time="-9999999/1" value="0" leadInLength="0/1"  />
               <InterpolatingParam id="1684" interp="linr"  time="-9999999/1" value="0" leadInLength="0/1"  />
               <InterpolatingParam id="1685" interp="linr"  time="-9999999/1" value="0" leadInLength="0/1"  />
              </VectorParam>
              <VectorParam id="1686"  name="scale">
               <InterpolatingParam id="1687" interp="linr"  time="-9999999/1" value="1" leadInLength="0/1"  />
               <InterpolatingParam id="1688" interp="linr"  time="-9999999/1" value="1" leadInLength="0/1"  />
               <InterpolatingParam id="1689" interp="linr"  time="-9999999/1" value="1" leadInLength="0/1"  />
              </VectorParam>
              <VectorParam id="1690"  name="anchor">
               <InterpolatingParam id="1691" interp="linr"  time="0/1" value="0" leadInLength="0/1"  />
               <InterpolatingParam id="1692" interp="linr"  time="0/1" value="0" leadInLength="0/1"  />
               <InterpolatingParam id="1693" interp="linr"  time="0/1" value="0" leadInLength="0/1"  />
              </VectorParam>
             </Transformer>
             <Parameters>
              <VectorParam id="1694"  name="sourceCrop">
               <InterpolatingParam id="1695" interp="linr"  time="0/1" value="0" leadInLength="0/1"  />
               <InterpolatingParam id="1696" interp="linr"  time="0/1" value="0" leadInLength="0/1"  />
               <InterpolatingParam id="1697" interp="linr"  time="0/1" value="0" leadInLength="0/1"  />
               <InterpolatingParam id="1698" interp="linr"  time="0/1" value="0" leadInLength="0/1"  />
              </VectorParam>
              <VectorParam id="1699"  name="geometryCrop">
               <InterpolatingParam id="1700" interp="linr"  time="-9999999/1" value="0" leadInLength="0/1"  />
               <InterpolatingParam id="1701" interp="linr"  time="-9999999/1" value="0" leadInLength="0/1"  />
               <InterpolatingParam id="1702" interp="linr"  time="-9999999/1" value="0" leadInLength="0/1"  />
               <InterpolatingParam id="1703" interp="linr"  time="-9999999/1" value="0" leadInLength="0/1"  />
              </VectorParam>
              <InterpolatingParam id="1704" interp="linr"  time="-9999999/1" value="1" leadInLength="0/1"  name="opacity"/>
              <InterpolatingParam id="1705" interp="linr"  time="0/1" value="0" leadInLength="0/1"  name="cursorOpacity"/>
              <InterpolatingParam id="1706" interp="linr"  time="0/1" value="0" leadInLength="0/1"  name="cursorScale"/>
             </Parameters>
             <Attributes>
              <Attribute id="1707" value="" name="ident"/>
             </Attributes>
             <ExtraData>
              <Entry key="ZoomPanBin">
               <ZoomPanBin id="1708"  >
                <ZoomPanKeyframes>
                 <ZoomPanKeyframe id="1709" timeRangeEnd="-9999999/1" timeRangeDuration="0/1" interpolaterName=""  />
                </ZoomPanKeyframes>
               </ZoomPanBin>
              </Entry>
              <Entry key="CursorEffectBin">
               <CursorEffectBin id="1710"  >
                <CursorEffectKeyframes>
                </CursorEffectKeyframes>
               </CursorEffectBin>
              </Entry>
             </ExtraData>
            </ScreenVMFile>
            <MetaData>
             <entry key="AutoAppliedSmartFocus" val="False"/>
             <entry key="WinSubProjectDisplayName" val=""/>
            </MetaData>
           </UnifiedMedia>
           <UnifiedMedia id="1711"  >
            <AMFile id="1712" start="5343" duration="77" scalar="1/1" mediaStart="10439/1" mediaDuration="77/1" trackNumber="1" src="4" channelNumber="0,1" >
             <Parameters>
              <InterpolatingParam id="1713" interp="linr"  time="0/1" value="1" leadInLength="0/1"  name="volume"/>
              <Parameter id="1714"  name="captions"/>
             </Parameters>
             <Attributes>
              <Attribute id="1715" value="" name="ident"/>
              <Attribute id="1716" value="44100" name="sampleRate"/>
              <Attribute id="1717" value="16" name="bitDepth"/>
              <Attribute id="1718" value="1" name="gain"/>
              <Attribute id="1719" value="0" name="mixToMono"/>
             </Attributes>
            </AMFile>
            <ScreenVMFile id="1720" start="5343" duration="77" scalar="1/1" mediaStart="10439/1" mediaDuration="77/1" trackNumber="0" src="4" >
             <Transformer>
              <VectorParam id="1721"  name="translation">
               <InterpolatingParam id="1722" interp="linr"  time="-9999999/1" value="0" leadInLength="0/1"  />
               <InterpolatingParam id="1723" interp="linr"  time="-9999999/1" value="0" leadInLength="0/1"  />
               <InterpolatingParam id="1724" interp="linr"  time="-9999999/1" value="0" leadInLength="0/1"  />
              </VectorParam>
              <VectorParam id="1725"  name="rotation">
               <InterpolatingParam id="1726" interp="linr"  time="-9999999/1" value="0" leadInLength="0/1"  />
               <InterpolatingParam id="1727" interp="linr"  time="-9999999/1" value="0" leadInLength="0/1"  />
               <InterpolatingParam id="1728" interp="linr"  time="-9999999/1" value="0" leadInLength="0/1"  />
              </VectorParam>
              <VectorParam id="1729"  name="shear">
               <InterpolatingParam id="1730" interp="linr"  time="-9999999/1" value="0" leadInLength="0/1"  />
               <InterpolatingParam id="1731" interp="linr"  time="-9999999/1" value="0" leadInLength="0/1"  />
               <InterpolatingParam id="1732" interp="linr"  time="-9999999/1" value="0" leadInLength="0/1"  />
              </VectorParam>
              <VectorParam id="1733"  name="scale">
               <InterpolatingParam id="1734" interp="linr"  time="-9999999/1" value="1" leadInLength="0/1"  />
               <InterpolatingParam id="1735" interp="linr"  time="-9999999/1" value="1" leadInLength="0/1"  />
               <InterpolatingParam id="1736" interp="linr"  time="-9999999/1" value="1" leadInLength="0/1"  />
              </VectorParam>
              <VectorParam id="1737"  name="anchor">
               <InterpolatingParam id="1738" interp="linr"  time="0/1" value="0" leadInLength="0/1"  />
               <InterpolatingParam id="1739" interp="linr"  time="0/1" value="0" leadInLength="0/1"  />
               <InterpolatingParam id="1740" interp="linr"  time="0/1" value="0" leadInLength="0/1"  />
              </VectorParam>
             </Transformer>
             <Parameters>
              <VectorParam id="1741"  name="sourceCrop">
               <InterpolatingParam id="1742" interp="linr"  time="0/1" value="0" leadInLength="0/1"  />
               <InterpolatingParam id="1743" interp="linr"  time="0/1" value="0" leadInLength="0/1"  />
               <InterpolatingParam id="1744" interp="linr"  time="0/1" value="0" leadInLength="0/1"  />
               <InterpolatingParam id="1745" interp="linr"  time="0/1" value="0" leadInLength="0/1"  />
              </VectorParam>
              <VectorParam id="1746"  name="geometryCrop">
               <InterpolatingParam id="1747" interp="linr"  time="-9999999/1" value="0" leadInLength="0/1"  />
               <InterpolatingParam id="1748" interp="linr"  time="-9999999/1" value="0" leadInLength="0/1"  />
               <InterpolatingParam id="1749" interp="linr"  time="-9999999/1" value="0" leadInLength="0/1"  />
               <InterpolatingParam id="1750" interp="linr"  time="-9999999/1" value="0" leadInLength="0/1"  />
              </VectorParam>
              <InterpolatingParam id="1751" interp="linr"  time="-9999999/1" value="1" leadInLength="0/1"  name="opacity"/>
              <InterpolatingParam id="1752" interp="linr"  time="0/1" value="0" leadInLength="0/1"  name="cursorOpacity"/>
              <InterpolatingParam id="1753" interp="linr"  time="0/1" value="0" leadInLength="0/1"  name="cursorScale"/>
             </Parameters>
             <Attributes>
              <Attribute id="1754" value="" name="ident"/>
             </Attributes>
             <ExtraData>
              <Entry key="ZoomPanBin">
               <ZoomPanBin id="1755"  >
                <ZoomPanKeyframes>
                 <ZoomPanKeyframe id="1756" timeRangeEnd="-9999999/1" timeRangeDuration="0/1" interpolaterName=""  />
                </ZoomPanKeyframes>
               </ZoomPanBin>
              </Entry>
              <Entry key="CursorEffectBin">
               <CursorEffectBin id="1757"  >
                <CursorEffectKeyframes>
                </CursorEffectKeyframes>
               </CursorEffectBin>
              </Entry>
             </ExtraData>
            </ScreenVMFile>
            <MetaData>
             <entry key="AutoAppliedSmartFocus" val="False"/>
             <entry key="WinSubProjectDisplayName" val=""/>
            </MetaData>
           </UnifiedMedia>
           <UnifiedMedia id="1758"  >
            <AMFile id="1759" start="5420" duration="153" scalar="1/1" mediaStart="10530/1" mediaDuration="153/1" trackNumber="1" src="4" channelNumber="0,1" >
             <Parameters>
              <InterpolatingParam id="1760" interp="linr"  time="0/1" value="1" leadInLength="0/1"  name="volume"/>
              <Parameter id="1761"  name="captions"/>
             </Parameters>
             <Attributes>
              <Attribute id="1762" value="" name="ident"/>
              <Attribute id="1763" value="44100" name="sampleRate"/>
              <Attribute id="1764" value="16" name="bitDepth"/>
              <Attribute id="1765" value="1" name="gain"/>
              <Attribute id="1766" value="0" name="mixToMono"/>
             </Attributes>
            </AMFile>
            <ScreenVMFile id="1767" start="5420" duration="153" scalar="1/1" mediaStart="10530/1" mediaDuration="153/1" trackNumber="0" src="4" >
             <Transformer>
              <VectorParam id="1768"  name="translation">
               <InterpolatingParam id="1769" interp="linr"  time="-9999999/1" value="0" leadInLength="0/1"  />
               <InterpolatingParam id="1770" interp="linr"  time="-9999999/1" value="0" leadInLength="0/1"  />
               <InterpolatingParam id="1771" interp="linr"  time="-9999999/1" value="0" leadInLength="0/1"  />
              </VectorParam>
              <VectorParam id="1772"  name="rotation">
               <InterpolatingParam id="1773" interp="linr"  time="-9999999/1" value="0" leadInLength="0/1"  />
               <InterpolatingParam id="1774" interp="linr"  time="-9999999/1" value="0" leadInLength="0/1"  />
               <InterpolatingParam id="1775" interp="linr"  time="-9999999/1" value="0" leadInLength="0/1"  />
              </VectorParam>
              <VectorParam id="1776"  name="shear">
               <InterpolatingParam id="1777" interp="linr"  time="-9999999/1" value="0" leadInLength="0/1"  />
               <InterpolatingParam id="1778" interp="linr"  time="-9999999/1" value="0" leadInLength="0/1"  />
               <InterpolatingParam id="1779" interp="linr"  time="-9999999/1" value="0" leadInLength="0/1"  />
              </VectorParam>
              <VectorParam id="1780"  name="scale">
               <InterpolatingParam id="1781" interp="linr"  time="-9999999/1" value="1" leadInLength="0/1"  />
               <InterpolatingParam id="1782" interp="linr"  time="-9999999/1" value="1" leadInLength="0/1"  />
               <InterpolatingParam id="1783" interp="linr"  time="-9999999/1" value="1" leadInLength="0/1"  />
              </VectorParam>
              <VectorParam id="1784"  name="anchor">
               <InterpolatingParam id="1785" interp="linr"  time="0/1" value="0" leadInLength="0/1"  />
               <InterpolatingParam id="1786" interp="linr"  time="0/1" value="0" leadInLength="0/1"  />
               <InterpolatingParam id="1787" interp="linr"  time="0/1" value="0" leadInLength="0/1"  />
              </VectorParam>
             </Transformer>
             <Parameters>
              <VectorParam id="1788"  name="sourceCrop">
               <InterpolatingParam id="1789" interp="linr"  time="0/1" value="0" leadInLength="0/1"  />
               <InterpolatingParam id="1790" interp="linr"  time="0/1" value="0" leadInLength="0/1"  />
               <InterpolatingParam id="1791" interp="linr"  time="0/1" value="0" leadInLength="0/1"  />
               <InterpolatingParam id="1792" interp="linr"  time="0/1" value="0" leadInLength="0/1"  />
              </VectorParam>
              <VectorParam id="1793"  name="geometryCrop">
               <InterpolatingParam id="1794" interp="linr"  time="-9999999/1" value="0" leadInLength="0/1"  />
               <InterpolatingParam id="1795" interp="linr"  time="-9999999/1" value="0" leadInLength="0/1"  />
               <InterpolatingParam id="1796" interp="linr"  time="-9999999/1" value="0" leadInLength="0/1"  />
               <InterpolatingParam id="1797" interp="linr"  time="-9999999/1" value="0" leadInLength="0/1"  />
              </VectorParam>
              <InterpolatingParam id="1798" interp="linr"  time="-9999999/1" value="1" leadInLength="0/1"  name="opacity"/>
              <InterpolatingParam id="1799" interp="linr"  time="0/1" value="0" leadInLength="0/1"  name="cursorOpacity"/>
              <InterpolatingParam id="1800" interp="linr"  time="0/1" value="0" leadInLength="0/1"  name="cursorScale"/>
             </Parameters>
             <Attributes>
              <Attribute id="1801" value="" name="ident"/>
             </Attributes>
             <ExtraData>
              <Entry key="ZoomPanBin">
               <ZoomPanBin id="1802"  >
                <ZoomPanKeyframes>
                 <ZoomPanKeyframe id="1803" timeRangeEnd="-9999999/1" timeRangeDuration="0/1" interpolaterName=""  />
                </ZoomPanKeyframes>
               </ZoomPanBin>
              </Entry>
              <Entry key="CursorEffectBin">
               <CursorEffectBin id="1804"  >
                <CursorEffectKeyframes>
                </CursorEffectKeyframes>
               </CursorEffectBin>
              </Entry>
             </ExtraData>
            </ScreenVMFile>
            <MetaData>
             <entry key="AutoAppliedSmartFocus" val="False"/>
             <entry key="WinSubProjectDisplayName" val=""/>
            </MetaData>
           </UnifiedMedia>
           <UnifiedMedia id="1805"  >
            <AMFile id="1806" start="5573" duration="158" scalar="1/1" mediaStart="13645/1" mediaDuration="158/1" trackNumber="1" src="4" channelNumber="0,1" >
             <Parameters>
              <InterpolatingParam id="1807" interp="linr"  time="0/1" value="1" leadInLength="0/1"  name="volume"/>
              <Parameter id="1808"  name="captions"/>
             </Parameters>
             <Attributes>
              <Attribute id="1809" value="" name="ident"/>
              <Attribute id="1810" value="44100" name="sampleRate"/>
              <Attribute id="1811" value="16" name="bitDepth"/>
              <Attribute id="1812" value="1" name="gain"/>
              <Attribute id="1813" value="0" name="mixToMono"/>
             </Attributes>
            </AMFile>
            <ScreenVMFile id="1814" start="5573" duration="158" scalar="1/1" mediaStart="13645/1" mediaDuration="158/1" trackNumber="0" src="4" >
             <Transformer>
              <VectorParam id="1815"  name="translation">
               <InterpolatingParam id="1816" interp="linr"  time="-9999999/1" value="0" leadInLength="0/1"  />
               <InterpolatingParam id="1817" interp="linr"  time="-9999999/1" value="0" leadInLength="0/1"  />
               <InterpolatingParam id="1818" interp="linr"  time="-9999999/1" value="0" leadInLength="0/1"  />
              </VectorParam>
              <VectorParam id="1819"  name="rotation">
               <InterpolatingParam id="1820" interp="linr"  time="-9999999/1" value="0" leadInLength="0/1"  />
               <InterpolatingParam id="1821" interp="linr"  time="-9999999/1" value="0" leadInLength="0/1"  />
               <InterpolatingParam id="1822" interp="linr"  time="-9999999/1" value="0" leadInLength="0/1"  />
              </VectorParam>
              <VectorParam id="1823"  name="shear">
               <InterpolatingParam id="1824" interp="linr"  time="-9999999/1" value="0" leadInLength="0/1"  />
               <InterpolatingParam id="1825" interp="linr"  time="-9999999/1" value="0" leadInLength="0/1"  />
               <InterpolatingParam id="1826" interp="linr"  time="-9999999/1" value="0" leadInLength="0/1"  />
              </VectorParam>
              <VectorParam id="1827"  name="scale">
               <InterpolatingParam id="1828" interp="linr"  time="-9999999/1" value="1" leadInLength="0/1"  />
               <InterpolatingParam id="1829" interp="linr"  time="-9999999/1" value="1" leadInLength="0/1"  />
               <InterpolatingParam id="1830" interp="linr"  time="-9999999/1" value="1" leadInLength="0/1"  />
              </VectorParam>
              <VectorParam id="1831"  name="anchor">
               <InterpolatingParam id="1832" interp="linr"  time="0/1" value="0" leadInLength="0/1"  />
               <InterpolatingParam id="1833" interp="linr"  time="0/1" value="0" leadInLength="0/1"  />
               <InterpolatingParam id="1834" interp="linr"  time="0/1" value="0" leadInLength="0/1"  />
              </VectorParam>
             </Transformer>
             <Parameters>
              <VectorParam id="1835"  name="sourceCrop">
               <InterpolatingParam id="1836" interp="linr"  time="0/1" value="0" leadInLength="0/1"  />
               <InterpolatingParam id="1837" interp="linr"  time="0/1" value="0" leadInLength="0/1"  />
               <InterpolatingParam id="1838" interp="linr"  time="0/1" value="0" leadInLength="0/1"  />
               <InterpolatingParam id="1839" interp="linr"  time="0/1" value="0" leadInLength="0/1"  />
              </VectorParam>
              <VectorParam id="1840"  name="geometryCrop">
               <InterpolatingParam id="1841" interp="linr"  time="-9999999/1" value="0" leadInLength="0/1"  />
               <InterpolatingParam id="1842" interp="linr"  time="-9999999/1" value="0" leadInLength="0/1"  />
               <InterpolatingParam id="1843" interp="linr"  time="-9999999/1" value="0" leadInLength="0/1"  />
               <InterpolatingParam id="1844" interp="linr"  time="-9999999/1" value="0" leadInLength="0/1"  />
              </VectorParam>
              <InterpolatingParam id="1845" interp="linr"  time="-9999999/1" value="1" leadInLength="0/1"  name="opacity"/>
              <InterpolatingParam id="1846" interp="linr"  time="0/1" value="0" leadInLength="0/1"  name="cursorOpacity"/>
              <InterpolatingParam id="1847" interp="linr"  time="0/1" value="0" leadInLength="0/1"  name="cursorScale"/>
             </Parameters>
             <Attributes>
              <Attribute id="1848" value="" name="ident"/>
             </Attributes>
             <ExtraData>
              <Entry key="ZoomPanBin">
               <ZoomPanBin id="1849"  >
                <ZoomPanKeyframes>
                 <ZoomPanKeyframe id="1850" timeRangeEnd="-9999999/1" timeRangeDuration="0/1" interpolaterName=""  />
                </ZoomPanKeyframes>
               </ZoomPanBin>
              </Entry>
              <Entry key="CursorEffectBin">
               <CursorEffectBin id="1851"  >
                <CursorEffectKeyframes>
                </CursorEffectKeyframes>
               </CursorEffectBin>
              </Entry>
             </ExtraData>
            </ScreenVMFile>
            <MetaData>
             <entry key="AutoAppliedSmartFocus" val="False"/>
             <entry key="WinSubProjectDisplayName" val=""/>
            </MetaData>
           </UnifiedMedia>
           <UnifiedMedia id="1852"  >
            <AMFile id="1853" start="5731" duration="45" scalar="1/1" mediaStart="13811/1" mediaDuration="45/1" trackNumber="1" src="4" channelNumber="0,1" >
             <Parameters>
              <InterpolatingParam id="1854" interp="linr"  time="0/1" value="1" leadInLength="0/1"  name="volume"/>
              <Parameter id="1855"  name="captions"/>
             </Parameters>
             <Attributes>
              <Attribute id="1856" value="" name="ident"/>
              <Attribute id="1857" value="44100" name="sampleRate"/>
              <Attribute id="1858" value="16" name="bitDepth"/>
              <Attribute id="1859" value="1" name="gain"/>
              <Attribute id="1860" value="0" name="mixToMono"/>
             </Attributes>
            </AMFile>
            <ScreenVMFile id="1861" start="5731" duration="45" scalar="1/1" mediaStart="13811/1" mediaDuration="45/1" trackNumber="0" src="4" >
             <Transformer>
              <VectorParam id="1862"  name="translation">
               <InterpolatingParam id="1863" interp="linr"  time="-9999999/1" value="0" leadInLength="0/1"  />
               <InterpolatingParam id="1864" interp="linr"  time="-9999999/1" value="0" leadInLength="0/1"  />
               <InterpolatingParam id="1865" interp="linr"  time="-9999999/1" value="0" leadInLength="0/1"  />
              </VectorParam>
              <VectorParam id="1866"  name="rotation">
               <InterpolatingParam id="1867" interp="linr"  time="-9999999/1" value="0" leadInLength="0/1"  />
               <InterpolatingParam id="1868" interp="linr"  time="-9999999/1" value="0" leadInLength="0/1"  />
               <InterpolatingParam id="1869" interp="linr"  time="-9999999/1" value="0" leadInLength="0/1"  />
              </VectorParam>
              <VectorParam id="1870"  name="shear">
               <InterpolatingParam id="1871" interp="linr"  time="-9999999/1" value="0" leadInLength="0/1"  />
               <InterpolatingParam id="1872" interp="linr"  time="-9999999/1" value="0" leadInLength="0/1"  />
               <InterpolatingParam id="1873" interp="linr"  time="-9999999/1" value="0" leadInLength="0/1"  />
              </VectorParam>
              <VectorParam id="1874"  name="scale">
               <InterpolatingParam id="1875" interp="linr"  time="-9999999/1" value="1" leadInLength="0/1"  />
               <InterpolatingParam id="1876" interp="linr"  time="-9999999/1" value="1" leadInLength="0/1"  />
               <InterpolatingParam id="1877" interp="linr"  time="-9999999/1" value="1" leadInLength="0/1"  />
              </VectorParam>
              <VectorParam id="1878"  name="anchor">
               <InterpolatingParam id="1879" interp="linr"  time="0/1" value="0" leadInLength="0/1"  />
               <InterpolatingParam id="1880" interp="linr"  time="0/1" value="0" leadInLength="0/1"  />
               <InterpolatingParam id="1881" interp="linr"  time="0/1" value="0" leadInLength="0/1"  />
              </VectorParam>
             </Transformer>
             <Parameters>
              <VectorParam id="1882"  name="sourceCrop">
               <InterpolatingParam id="1883" interp="linr"  time="0/1" value="0" leadInLength="0/1"  />
               <InterpolatingParam id="1884" interp="linr"  time="0/1" value="0" leadInLength="0/1"  />
               <InterpolatingParam id="1885" interp="linr"  time="0/1" value="0" leadInLength="0/1"  />
               <InterpolatingParam id="1886" interp="linr"  time="0/1" value="0" leadInLength="0/1"  />
              </VectorParam>
              <VectorParam id="1887"  name="geometryCrop">
               <InterpolatingParam id="1888" interp="linr"  time="-9999999/1" value="0" leadInLength="0/1"  />
               <InterpolatingParam id="1889" interp="linr"  time="-9999999/1" value="0" leadInLength="0/1"  />
               <InterpolatingParam id="1890" interp="linr"  time="-9999999/1" value="0" leadInLength="0/1"  />
               <InterpolatingParam id="1891" interp="linr"  time="-9999999/1" value="0" leadInLength="0/1"  />
              </VectorParam>
              <InterpolatingParam id="1892" interp="linr"  time="-9999999/1" value="1" leadInLength="0/1"  name="opacity"/>
              <InterpolatingParam id="1893" interp="linr"  time="0/1" value="0" leadInLength="0/1"  name="cursorOpacity"/>
              <InterpolatingParam id="1894" interp="linr"  time="0/1" value="0" leadInLength="0/1"  name="cursorScale"/>
             </Parameters>
             <Attributes>
              <Attribute id="1895" value="" name="ident"/>
             </Attributes>
             <ExtraData>
              <Entry key="ZoomPanBin">
               <ZoomPanBin id="1896"  >
                <ZoomPanKeyframes>
                 <ZoomPanKeyframe id="1897" timeRangeEnd="-9999999/1" timeRangeDuration="0/1" interpolaterName=""  />
                </ZoomPanKeyframes>
               </ZoomPanBin>
              </Entry>
              <Entry key="CursorEffectBin">
               <CursorEffectBin id="1898"  >
                <CursorEffectKeyframes>
                </CursorEffectKeyframes>
               </CursorEffectBin>
              </Entry>
             </ExtraData>
            </ScreenVMFile>
            <MetaData>
             <entry key="AutoAppliedSmartFocus" val="False"/>
             <entry key="WinSubProjectDisplayName" val=""/>
            </MetaData>
           </UnifiedMedia>
           <UnifiedMedia id="1899"  >
            <AMFile id="1900" start="5776" duration="67" scalar="1/1" mediaStart="13861/1" mediaDuration="67/1" trackNumber="1" src="4" channelNumber="0,1" >
             <Parameters>
              <InterpolatingParam id="1901" interp="linr"  time="0/1" value="1" leadInLength="0/1"  name="volume"/>
              <Parameter id="1902"  name="captions"/>
             </Parameters>
             <Attributes>
              <Attribute id="1903" value="" name="ident"/>
              <Attribute id="1904" value="44100" name="sampleRate"/>
              <Attribute id="1905" value="16" name="bitDepth"/>
              <Attribute id="1906" value="1" name="gain"/>
              <Attribute id="1907" value="0" name="mixToMono"/>
             </Attributes>
            </AMFile>
            <ScreenVMFile id="1908" start="5776" duration="67" scalar="1/1" mediaStart="13861/1" mediaDuration="67/1" trackNumber="0" src="4" >
             <Transformer>
              <VectorParam id="1909"  name="translation">
               <InterpolatingParam id="1910" interp="linr"  time="-9999999/1" value="0" leadInLength="0/1"  />
               <InterpolatingParam id="1911" interp="linr"  time="-9999999/1" value="0" leadInLength="0/1"  />
               <InterpolatingParam id="1912" interp="linr"  time="-9999999/1" value="0" leadInLength="0/1"  />
              </VectorParam>
              <VectorParam id="1913"  name="rotation">
               <InterpolatingParam id="1914" interp="linr"  time="-9999999/1" value="0" leadInLength="0/1"  />
               <InterpolatingParam id="1915" interp="linr"  time="-9999999/1" value="0" leadInLength="0/1"  />
               <InterpolatingParam id="1916" interp="linr"  time="-9999999/1" value="0" leadInLength="0/1"  />
              </VectorParam>
              <VectorParam id="1917"  name="shear">
               <InterpolatingParam id="1918" interp="linr"  time="-9999999/1" value="0" leadInLength="0/1"  />
               <InterpolatingParam id="1919" interp="linr"  time="-9999999/1" value="0" leadInLength="0/1"  />
               <InterpolatingParam id="1920" interp="linr"  time="-9999999/1" value="0" leadInLength="0/1"  />
              </VectorParam>
              <VectorParam id="1921"  name="scale">
               <InterpolatingParam id="1922" interp="linr"  time="-9999999/1" value="1" leadInLength="0/1"  />
               <InterpolatingParam id="1923" interp="linr"  time="-9999999/1" value="1" leadInLength="0/1"  />
               <InterpolatingParam id="1924" interp="linr"  time="-9999999/1" value="1" leadInLength="0/1"  />
              </VectorParam>
              <VectorParam id="1925"  name="anchor">
               <InterpolatingParam id="1926" interp="linr"  time="0/1" value="0" leadInLength="0/1"  />
               <InterpolatingParam id="1927" interp="linr"  time="0/1" value="0" leadInLength="0/1"  />
               <InterpolatingParam id="1928" interp="linr"  time="0/1" value="0" leadInLength="0/1"  />
              </VectorParam>
             </Transformer>
             <Parameters>
              <VectorParam id="1929"  name="sourceCrop">
               <InterpolatingParam id="1930" interp="linr"  time="0/1" value="0" leadInLength="0/1"  />
               <InterpolatingParam id="1931" interp="linr"  time="0/1" value="0" leadInLength="0/1"  />
               <InterpolatingParam id="1932" interp="linr"  time="0/1" value="0" leadInLength="0/1"  />
               <InterpolatingParam id="1933" interp="linr"  time="0/1" value="0" leadInLength="0/1"  />
              </VectorParam>
              <VectorParam id="1934"  name="geometryCrop">
               <InterpolatingParam id="1935" interp="linr"  time="-9999999/1" value="0" leadInLength="0/1"  />
               <InterpolatingParam id="1936" interp="linr"  time="-9999999/1" value="0" leadInLength="0/1"  />
               <InterpolatingParam id="1937" interp="linr"  time="-9999999/1" value="0" leadInLength="0/1"  />
               <InterpolatingParam id="1938" interp="linr"  time="-9999999/1" value="0" leadInLength="0/1"  />
              </VectorParam>
              <InterpolatingParam id="1939" interp="linr"  time="-9999999/1" value="1" leadInLength="0/1"  name="opacity"/>
              <InterpolatingParam id="1940" interp="linr"  time="0/1" value="0" leadInLength="0/1"  name="cursorOpacity"/>
              <InterpolatingParam id="1941" interp="linr"  time="0/1" value="0" leadInLength="0/1"  name="cursorScale"/>
             </Parameters>
             <Attributes>
              <Attribute id="1942" value="" name="ident"/>
             </Attributes>
             <ExtraData>
              <Entry key="ZoomPanBin">
               <ZoomPanBin id="1943"  >
                <ZoomPanKeyframes>
                 <ZoomPanKeyframe id="1944" timeRangeEnd="-9999999/1" timeRangeDuration="0/1" interpolaterName=""  />
                </ZoomPanKeyframes>
               </ZoomPanBin>
              </Entry>
              <Entry key="CursorEffectBin">
               <CursorEffectBin id="1945"  >
                <CursorEffectKeyframes>
                </CursorEffectKeyframes>
               </CursorEffectBin>
              </Entry>
             </ExtraData>
            </ScreenVMFile>
            <MetaData>
             <entry key="AutoAppliedSmartFocus" val="False"/>
             <entry key="WinSubProjectDisplayName" val=""/>
            </MetaData>
           </UnifiedMedia>
           <UnifiedMedia id="1946"  >
            <AMFile id="1947" start="5843" duration="122" scalar="1/1" mediaStart="14167/1" mediaDuration="122/1" trackNumber="1" src="4" channelNumber="0,1" >
             <Parameters>
              <InterpolatingParam id="1948" interp="linr"  time="0/1" value="1" leadInLength="0/1"  name="volume"/>
              <Parameter id="1949"  name="captions"/>
             </Parameters>
             <Attributes>
              <Attribute id="1950" value="" name="ident"/>
              <Attribute id="1951" value="44100" name="sampleRate"/>
              <Attribute id="1952" value="16" name="bitDepth"/>
              <Attribute id="1953" value="1" name="gain"/>
              <Attribute id="1954" value="0" name="mixToMono"/>
             </Attributes>
            </AMFile>
            <ScreenVMFile id="1955" start="5843" duration="122" scalar="1/1" mediaStart="14167/1" mediaDuration="122/1" trackNumber="0" src="4" >
             <Transformer>
              <VectorParam id="1956"  name="translation">
               <InterpolatingParam id="1957" interp="linr"  time="-9999999/1" value="0" leadInLength="0/1"  />
               <InterpolatingParam id="1958" interp="linr"  time="-9999999/1" value="0" leadInLength="0/1"  />
               <InterpolatingParam id="1959" interp="linr"  time="-9999999/1" value="0" leadInLength="0/1"  />
              </VectorParam>
              <VectorParam id="1960"  name="rotation">
               <InterpolatingParam id="1961" interp="linr"  time="-9999999/1" value="0" leadInLength="0/1"  />
               <InterpolatingParam id="1962" interp="linr"  time="-9999999/1" value="0" leadInLength="0/1"  />
               <InterpolatingParam id="1963" interp="linr"  time="-9999999/1" value="0" leadInLength="0/1"  />
              </VectorParam>
              <VectorParam id="1964"  name="shear">
               <InterpolatingParam id="1965" interp="linr"  time="-9999999/1" value="0" leadInLength="0/1"  />
               <InterpolatingParam id="1966" interp="linr"  time="-9999999/1" value="0" leadInLength="0/1"  />
               <InterpolatingParam id="1967" interp="linr"  time="-9999999/1" value="0" leadInLength="0/1"  />
              </VectorParam>
              <VectorParam id="1968"  name="scale">
               <InterpolatingParam id="1969" interp="linr"  time="-9999999/1" value="1" leadInLength="0/1"  />
               <InterpolatingParam id="1970" interp="linr"  time="-9999999/1" value="1" leadInLength="0/1"  />
               <InterpolatingParam id="1971" interp="linr"  time="-9999999/1" value="1" leadInLength="0/1"  />
              </VectorParam>
              <VectorParam id="1972"  name="anchor">
               <InterpolatingParam id="1973" interp="linr"  time="0/1" value="0" leadInLength="0/1"  />
               <InterpolatingParam id="1974" interp="linr"  time="0/1" value="0" leadInLength="0/1"  />
               <InterpolatingParam id="1975" interp="linr"  time="0/1" value="0" leadInLength="0/1"  />
              </VectorParam>
             </Transformer>
             <Parameters>
              <VectorParam id="1976"  name="sourceCrop">
               <InterpolatingParam id="1977" interp="linr"  time="0/1" value="0" leadInLength="0/1"  />
               <InterpolatingParam id="1978" interp="linr"  time="0/1" value="0" leadInLength="0/1"  />
               <InterpolatingParam id="1979" interp="linr"  time="0/1" value="0" leadInLength="0/1"  />
               <InterpolatingParam id="1980" interp="linr"  time="0/1" value="0" leadInLength="0/1"  />
              </VectorParam>
              <VectorParam id="1981"  name="geometryCrop">
               <InterpolatingParam id="1982" interp="linr"  time="-9999999/1" value="0" leadInLength="0/1"  />
               <InterpolatingParam id="1983" interp="linr"  time="-9999999/1" value="0" leadInLength="0/1"  />
               <InterpolatingParam id="1984" interp="linr"  time="-9999999/1" value="0" leadInLength="0/1"  />
               <InterpolatingParam id="1985" interp="linr"  time="-9999999/1" value="0" leadInLength="0/1"  />
              </VectorParam>
              <InterpolatingParam id="1986" interp="linr"  time="-9999999/1" value="1" leadInLength="0/1"  name="opacity"/>
              <InterpolatingParam id="1987" interp="linr"  time="0/1" value="0" leadInLength="0/1"  name="cursorOpacity"/>
              <InterpolatingParam id="1988" interp="linr"  time="0/1" value="0" leadInLength="0/1"  name="cursorScale"/>
             </Parameters>
             <Attributes>
              <Attribute id="1989" value="" name="ident"/>
             </Attributes>
             <ExtraData>
              <Entry key="ZoomPanBin">
               <ZoomPanBin id="1990"  >
                <ZoomPanKeyframes>
                 <ZoomPanKeyframe id="1991" timeRangeEnd="-9999999/1" timeRangeDuration="0/1" interpolaterName=""  />
                </ZoomPanKeyframes>
               </ZoomPanBin>
              </Entry>
              <Entry key="CursorEffectBin">
               <CursorEffectBin id="1992"  >
                <CursorEffectKeyframes>
                </CursorEffectKeyframes>
               </CursorEffectBin>
              </Entry>
             </ExtraData>
            </ScreenVMFile>
            <MetaData>
             <entry key="AutoAppliedSmartFocus" val="False"/>
             <entry key="WinSubProjectDisplayName" val=""/>
            </MetaData>
           </UnifiedMedia>
           <UnifiedMedia id="1993"  >
            <AMFile id="1994" start="5965" duration="162" scalar="1/1" mediaStart="14301/1" mediaDuration="162/1" trackNumber="1" src="4" channelNumber="0,1" >
             <Parameters>
              <InterpolatingParam id="1995" interp="linr"  time="0/1" value="1" leadInLength="0/1"  name="volume"/>
              <Parameter id="1996"  name="captions"/>
             </Parameters>
             <Attributes>
              <Attribute id="1997" value="" name="ident"/>
              <Attribute id="1998" value="44100" name="sampleRate"/>
              <Attribute id="1999" value="16" name="bitDepth"/>
              <Attribute id="2000" value="1" name="gain"/>
              <Attribute id="2001" value="0" name="mixToMono"/>
             </Attributes>
            </AMFile>
            <ScreenVMFile id="2002" start="5965" duration="162" scalar="1/1" mediaStart="14301/1" mediaDuration="162/1" trackNumber="0" src="4" >
             <Transformer>
              <VectorParam id="2003"  name="translation">
               <InterpolatingParam id="2004" interp="linr"  time="-9999999/1" value="0" leadInLength="0/1"  />
               <InterpolatingParam id="2005" interp="linr"  time="-9999999/1" value="0" leadInLength="0/1"  />
               <InterpolatingParam id="2006" interp="linr"  time="-9999999/1" value="0" leadInLength="0/1"  />
              </VectorParam>
              <VectorParam id="2007"  name="rotation">
               <InterpolatingParam id="2008" interp="linr"  time="-9999999/1" value="0" leadInLength="0/1"  />
               <InterpolatingParam id="2009" interp="linr"  time="-9999999/1" value="0" leadInLength="0/1"  />
               <InterpolatingParam id="2010" interp="linr"  time="-9999999/1" value="0" leadInLength="0/1"  />
              </VectorParam>
              <VectorParam id="2011"  name="shear">
               <InterpolatingParam id="2012" interp="linr"  time="-9999999/1" value="0" leadInLength="0/1"  />
               <InterpolatingParam id="2013" interp="linr"  time="-9999999/1" value="0" leadInLength="0/1"  />
               <InterpolatingParam id="2014" interp="linr"  time="-9999999/1" value="0" leadInLength="0/1"  />
              </VectorParam>
              <VectorParam id="2015"  name="scale">
               <InterpolatingParam id="2016" interp="linr"  time="-9999999/1" value="1" leadInLength="0/1"  />
               <InterpolatingParam id="2017" interp="linr"  time="-9999999/1" value="1" leadInLength="0/1"  />
               <InterpolatingParam id="2018" interp="linr"  time="-9999999/1" value="1" leadInLength="0/1"  />
              </VectorParam>
              <VectorParam id="2019"  name="anchor">
               <InterpolatingParam id="2020" interp="linr"  time="0/1" value="0" leadInLength="0/1"  />
               <InterpolatingParam id="2021" interp="linr"  time="0/1" value="0" leadInLength="0/1"  />
               <InterpolatingParam id="2022" interp="linr"  time="0/1" value="0" leadInLength="0/1"  />
              </VectorParam>
             </Transformer>
             <Parameters>
              <VectorParam id="2023"  name="sourceCrop">
               <InterpolatingParam id="2024" interp="linr"  time="0/1" value="0" leadInLength="0/1"  />
               <InterpolatingParam id="2025" interp="linr"  time="0/1" value="0" leadInLength="0/1"  />
               <InterpolatingParam id="2026" interp="linr"  time="0/1" value="0" leadInLength="0/1"  />
               <InterpolatingParam id="2027" interp="linr"  time="0/1" value="0" leadInLength="0/1"  />
              </VectorParam>
              <VectorParam id="2028"  name="geometryCrop">
               <InterpolatingParam id="2029" interp="linr"  time="-9999999/1" value="0" leadInLength="0/1"  />
               <InterpolatingParam id="2030" interp="linr"  time="-9999999/1" value="0" leadInLength="0/1"  />
               <InterpolatingParam id="2031" interp="linr"  time="-9999999/1" value="0" leadInLength="0/1"  />
               <InterpolatingParam id="2032" interp="linr"  time="-9999999/1" value="0" leadInLength="0/1"  />
              </VectorParam>
              <InterpolatingParam id="2033" interp="linr"  time="-9999999/1" value="1" leadInLength="0/1"  name="opacity"/>
              <InterpolatingParam id="2034" interp="linr"  time="0/1" value="0" leadInLength="0/1"  name="cursorOpacity"/>
              <InterpolatingParam id="2035" interp="linr"  time="0/1" value="0" leadInLength="0/1"  name="cursorScale"/>
             </Parameters>
             <Attributes>
              <Attribute id="2036" value="" name="ident"/>
             </Attributes>
             <ExtraData>
              <Entry key="ZoomPanBin">
               <ZoomPanBin id="2037"  >
                <ZoomPanKeyframes>
                 <ZoomPanKeyframe id="2038" timeRangeEnd="-9999999/1" timeRangeDuration="0/1" interpolaterName=""  />
                </ZoomPanKeyframes>
               </ZoomPanBin>
              </Entry>
              <Entry key="CursorEffectBin">
               <CursorEffectBin id="2039"  >
                <CursorEffectKeyframes>
                </CursorEffectKeyframes>
               </CursorEffectBin>
              </Entry>
             </ExtraData>
            </ScreenVMFile>
            <MetaData>
             <entry key="AutoAppliedSmartFocus" val="False"/>
             <entry key="WinSubProjectDisplayName" val=""/>
            </MetaData>
           </UnifiedMedia>
           <UnifiedMedia id="2040"  >
            <AMFile id="2041" start="6127" duration="166" scalar="1/1" mediaStart="14471/1" mediaDuration="166/1" trackNumber="1" src="4" channelNumber="0,1" >
             <Parameters>
              <InterpolatingParam id="2042" interp="linr"  time="0/1" value="1" leadInLength="0/1"  name="volume"/>
              <Parameter id="2043"  name="captions"/>
             </Parameters>
             <Attributes>
              <Attribute id="2044" value="" name="ident"/>
              <Attribute id="2045" value="44100" name="sampleRate"/>
              <Attribute id="2046" value="16" name="bitDepth"/>
              <Attribute id="2047" value="1" name="gain"/>
              <Attribute id="2048" value="0" name="mixToMono"/>
             </Attributes>
            </AMFile>
            <ScreenVMFile id="2049" start="6127" duration="166" scalar="1/1" mediaStart="14471/1" mediaDuration="166/1" trackNumber="0" src="4" >
             <Transformer>
              <VectorParam id="2050"  name="translation">
               <InterpolatingParam id="2051" interp="linr"  time="-9999999/1" value="0" leadInLength="0/1"  />
               <InterpolatingParam id="2052" interp="linr"  time="-9999999/1" value="0" leadInLength="0/1"  />
               <InterpolatingParam id="2053" interp="linr"  time="-9999999/1" value="0" leadInLength="0/1"  />
              </VectorParam>
              <VectorParam id="2054"  name="rotation">
               <InterpolatingParam id="2055" interp="linr"  time="-9999999/1" value="0" leadInLength="0/1"  />
               <InterpolatingParam id="2056" interp="linr"  time="-9999999/1" value="0" leadInLength="0/1"  />
               <InterpolatingParam id="2057" interp="linr"  time="-9999999/1" value="0" leadInLength="0/1"  />
              </VectorParam>
              <VectorParam id="2058"  name="shear">
               <InterpolatingParam id="2059" interp="linr"  time="-9999999/1" value="0" leadInLength="0/1"  />
               <InterpolatingParam id="2060" interp="linr"  time="-9999999/1" value="0" leadInLength="0/1"  />
               <InterpolatingParam id="2061" interp="linr"  time="-9999999/1" value="0" leadInLength="0/1"  />
              </VectorParam>
              <VectorParam id="2062"  name="scale">
               <InterpolatingParam id="2063" interp="linr"  time="-9999999/1" value="1" leadInLength="0/1"  />
               <InterpolatingParam id="2064" interp="linr"  time="-9999999/1" value="1" leadInLength="0/1"  />
               <InterpolatingParam id="2065" interp="linr"  time="-9999999/1" value="1" leadInLength="0/1"  />
              </VectorParam>
              <VectorParam id="2066"  name="anchor">
               <InterpolatingParam id="2067" interp="linr"  time="0/1" value="0" leadInLength="0/1"  />
               <InterpolatingParam id="2068" interp="linr"  time="0/1" value="0" leadInLength="0/1"  />
               <InterpolatingParam id="2069" interp="linr"  time="0/1" value="0" leadInLength="0/1"  />
              </VectorParam>
             </Transformer>
             <Parameters>
              <VectorParam id="2070"  name="sourceCrop">
               <InterpolatingParam id="2071" interp="linr"  time="0/1" value="0" leadInLength="0/1"  />
               <InterpolatingParam id="2072" interp="linr"  time="0/1" value="0" leadInLength="0/1"  />
               <InterpolatingParam id="2073" interp="linr"  time="0/1" value="0" leadInLength="0/1"  />
               <InterpolatingParam id="2074" interp="linr"  time="0/1" value="0" leadInLength="0/1"  />
              </VectorParam>
              <VectorParam id="2075"  name="geometryCrop">
               <InterpolatingParam id="2076" interp="linr"  time="-9999999/1" value="0" leadInLength="0/1"  />
               <InterpolatingParam id="2077" interp="linr"  time="-9999999/1" value="0" leadInLength="0/1"  />
               <InterpolatingParam id="2078" interp="linr"  time="-9999999/1" value="0" leadInLength="0/1"  />
               <InterpolatingParam id="2079" interp="linr"  time="-9999999/1" value="0" leadInLength="0/1"  />
              </VectorParam>
              <InterpolatingParam id="2080" interp="linr"  time="-9999999/1" value="1" leadInLength="0/1"  name="opacity"/>
              <InterpolatingParam id="2081" interp="linr"  time="0/1" value="0" leadInLength="0/1"  name="cursorOpacity"/>
              <InterpolatingParam id="2082" interp="linr"  time="0/1" value="0" leadInLength="0/1"  name="cursorScale"/>
             </Parameters>
             <Attributes>
              <Attribute id="2083" value="" name="ident"/>
             </Attributes>
             <ExtraData>
              <Entry key="ZoomPanBin">
               <ZoomPanBin id="2084"  >
                <ZoomPanKeyframes>
                 <ZoomPanKeyframe id="2085" timeRangeEnd="-9999999/1" timeRangeDuration="0/1" interpolaterName=""  />
                </ZoomPanKeyframes>
               </ZoomPanBin>
              </Entry>
              <Entry key="CursorEffectBin">
               <CursorEffectBin id="2086"  >
                <CursorEffectKeyframes>
                </CursorEffectKeyframes>
               </CursorEffectBin>
              </Entry>
             </ExtraData>
            </ScreenVMFile>
            <MetaData>
             <entry key="AutoAppliedSmartFocus" val="False"/>
             <entry key="WinSubProjectDisplayName" val=""/>
            </MetaData>
           </UnifiedMedia>
           <UnifiedMedia id="2087"  >
            <AMFile id="2088" start="6293" duration="202" scalar="1/1" mediaStart="14645/1" mediaDuration="202/1" trackNumber="1" src="4" channelNumber="0,1" >
             <Parameters>
              <InterpolatingParam id="2089" interp="linr"  time="0/1" value="1" leadInLength="0/1"  name="volume"/>
              <Parameter id="2090"  name="captions"/>
             </Parameters>
             <Attributes>
              <Attribute id="2091" value="" name="ident"/>
              <Attribute id="2092" value="44100" name="sampleRate"/>
              <Attribute id="2093" value="16" name="bitDepth"/>
              <Attribute id="2094" value="1" name="gain"/>
              <Attribute id="2095" value="0" name="mixToMono"/>
             </Attributes>
            </AMFile>
            <ScreenVMFile id="2096" start="6293" duration="202" scalar="1/1" mediaStart="14645/1" mediaDuration="202/1" trackNumber="0" src="4" >
             <Transformer>
              <VectorParam id="2097"  name="translation">
               <InterpolatingParam id="2098" interp="linr"  time="-9999999/1" value="0" leadInLength="0/1"  />
               <InterpolatingParam id="2099" interp="linr"  time="-9999999/1" value="0" leadInLength="0/1"  />
               <InterpolatingParam id="2100" interp="linr"  time="-9999999/1" value="0" leadInLength="0/1"  />
              </VectorParam>
              <VectorParam id="2101"  name="rotation">
               <InterpolatingParam id="2102" interp="linr"  time="-9999999/1" value="0" leadInLength="0/1"  />
               <InterpolatingParam id="2103" interp="linr"  time="-9999999/1" value="0" leadInLength="0/1"  />
               <InterpolatingParam id="2104" interp="linr"  time="-9999999/1" value="0" leadInLength="0/1"  />
              </VectorParam>
              <VectorParam id="2105"  name="shear">
               <InterpolatingParam id="2106" interp="linr"  time="-9999999/1" value="0" leadInLength="0/1"  />
               <InterpolatingParam id="2107" interp="linr"  time="-9999999/1" value="0" leadInLength="0/1"  />
               <InterpolatingParam id="2108" interp="linr"  time="-9999999/1" value="0" leadInLength="0/1"  />
              </VectorParam>
              <VectorParam id="2109"  name="scale">
               <InterpolatingParam id="2110" interp="linr"  time="-9999999/1" value="1" leadInLength="0/1"  />
               <InterpolatingParam id="2111" interp="linr"  time="-9999999/1" value="1" leadInLength="0/1"  />
               <InterpolatingParam id="2112" interp="linr"  time="-9999999/1" value="1" leadInLength="0/1"  />
              </VectorParam>
              <VectorParam id="2113"  name="anchor">
               <InterpolatingParam id="2114" interp="linr"  time="0/1" value="0" leadInLength="0/1"  />
               <InterpolatingParam id="2115" interp="linr"  time="0/1" value="0" leadInLength="0/1"  />
               <InterpolatingParam id="2116" interp="linr"  time="0/1" value="0" leadInLength="0/1"  />
              </VectorParam>
             </Transformer>
             <Parameters>
              <VectorParam id="2117"  name="sourceCrop">
               <InterpolatingParam id="2118" interp="linr"  time="0/1" value="0" leadInLength="0/1"  />
               <InterpolatingParam id="2119" interp="linr"  time="0/1" value="0" leadInLength="0/1"  />
               <InterpolatingParam id="2120" interp="linr"  time="0/1" value="0" leadInLength="0/1"  />
               <InterpolatingParam id="2121" interp="linr"  time="0/1" value="0" leadInLength="0/1"  />
              </VectorParam>
              <VectorParam id="2122"  name="geometryCrop">
               <InterpolatingParam id="2123" interp="linr"  time="-9999999/1" value="0" leadInLength="0/1"  />
               <InterpolatingParam id="2124" interp="linr"  time="-9999999/1" value="0" leadInLength="0/1"  />
               <InterpolatingParam id="2125" interp="linr"  time="-9999999/1" value="0" leadInLength="0/1"  />
               <InterpolatingParam id="2126" interp="linr"  time="-9999999/1" value="0" leadInLength="0/1"  />
              </VectorParam>
              <InterpolatingParam id="2127" interp="linr"  time="-9999999/1" value="1" leadInLength="0/1"  name="opacity"/>
              <InterpolatingParam id="2128" interp="linr"  time="0/1" value="0" leadInLength="0/1"  name="cursorOpacity"/>
              <InterpolatingParam id="2129" interp="linr"  time="0/1" value="0" leadInLength="0/1"  name="cursorScale"/>
             </Parameters>
             <Attributes>
              <Attribute id="2130" value="" name="ident"/>
             </Attributes>
             <ExtraData>
              <Entry key="ZoomPanBin">
               <ZoomPanBin id="2131"  >
                <ZoomPanKeyframes>
                 <ZoomPanKeyframe id="2132" timeRangeEnd="-9999999/1" timeRangeDuration="0/1" interpolaterName=""  />
                </ZoomPanKeyframes>
               </ZoomPanBin>
              </Entry>
              <Entry key="CursorEffectBin">
               <CursorEffectBin id="2133"  >
                <CursorEffectKeyframes>
                </CursorEffectKeyframes>
               </CursorEffectBin>
              </Entry>
             </ExtraData>
            </ScreenVMFile>
            <MetaData>
             <entry key="AutoAppliedSmartFocus" val="False"/>
             <entry key="WinSubProjectDisplayName" val=""/>
            </MetaData>
           </UnifiedMedia>
           <UnifiedMedia id="2134"  >
            <AMFile id="2135" start="6495" duration="190" scalar="1/1" mediaStart="15055/1" mediaDuration="190/1" trackNumber="1" src="4" channelNumber="0,1" >
             <Parameters>
              <InterpolatingParam id="2136" interp="linr"  time="0/1" value="1" leadInLength="0/1"  name="volume"/>
              <Parameter id="2137"  name="captions"/>
             </Parameters>
             <Attributes>
              <Attribute id="2138" value="" name="ident"/>
              <Attribute id="2139" value="44100" name="sampleRate"/>
              <Attribute id="2140" value="16" name="bitDepth"/>
              <Attribute id="2141" value="1" name="gain"/>
              <Attribute id="2142" value="0" name="mixToMono"/>
             </Attributes>
            </AMFile>
            <ScreenVMFile id="2143" start="6495" duration="190" scalar="1/1" mediaStart="15055/1" mediaDuration="190/1" trackNumber="0" src="4" >
             <Transformer>
              <VectorParam id="2144"  name="translation">
               <InterpolatingParam id="2145" interp="linr"  time="-9999999/1" value="0" leadInLength="0/1"  />
               <InterpolatingParam id="2146" interp="linr"  time="-9999999/1" value="0" leadInLength="0/1"  />
               <InterpolatingParam id="2147" interp="linr"  time="-9999999/1" value="0" leadInLength="0/1"  />
              </VectorParam>
              <VectorParam id="2148"  name="rotation">
               <InterpolatingParam id="2149" interp="linr"  time="-9999999/1" value="0" leadInLength="0/1"  />
               <InterpolatingParam id="2150" interp="linr"  time="-9999999/1" value="0" leadInLength="0/1"  />
               <InterpolatingParam id="2151" interp="linr"  time="-9999999/1" value="0" leadInLength="0/1"  />
              </VectorParam>
              <VectorParam id="2152"  name="shear">
               <InterpolatingParam id="2153" interp="linr"  time="-9999999/1" value="0" leadInLength="0/1"  />
               <InterpolatingParam id="2154" interp="linr"  time="-9999999/1" value="0" leadInLength="0/1"  />
               <InterpolatingParam id="2155" interp="linr"  time="-9999999/1" value="0" leadInLength="0/1"  />
              </VectorParam>
              <VectorParam id="2156"  name="scale">
               <InterpolatingParam id="2157" interp="linr"  time="-9999999/1" value="1" leadInLength="0/1"  />
               <InterpolatingParam id="2158" interp="linr"  time="-9999999/1" value="1" leadInLength="0/1"  />
               <InterpolatingParam id="2159" interp="linr"  time="-9999999/1" value="1" leadInLength="0/1"  />
              </VectorParam>
              <VectorParam id="2160"  name="anchor">
               <InterpolatingParam id="2161" interp="linr"  time="0/1" value="0" leadInLength="0/1"  />
               <InterpolatingParam id="2162" interp="linr"  time="0/1" value="0" leadInLength="0/1"  />
               <InterpolatingParam id="2163" interp="linr"  time="0/1" value="0" leadInLength="0/1"  />
              </VectorParam>
             </Transformer>
             <Parameters>
              <VectorParam id="2164"  name="sourceCrop">
               <InterpolatingParam id="2165" interp="linr"  time="0/1" value="0" leadInLength="0/1"  />
               <InterpolatingParam id="2166" interp="linr"  time="0/1" value="0" leadInLength="0/1"  />
               <InterpolatingParam id="2167" interp="linr"  time="0/1" value="0" leadInLength="0/1"  />
               <InterpolatingParam id="2168" interp="linr"  time="0/1" value="0" leadInLength="0/1"  />
              </VectorParam>
              <VectorParam id="2169"  name="geometryCrop">
               <InterpolatingParam id="2170" interp="linr"  time="-9999999/1" value="0" leadInLength="0/1"  />
               <InterpolatingParam id="2171" interp="linr"  time="-9999999/1" value="0" leadInLength="0/1"  />
               <InterpolatingParam id="2172" interp="linr"  time="-9999999/1" value="0" leadInLength="0/1"  />
               <InterpolatingParam id="2173" interp="linr"  time="-9999999/1" value="0" leadInLength="0/1"  />
              </VectorParam>
              <InterpolatingParam id="2174" interp="linr"  time="-9999999/1" value="1" leadInLength="0/1"  name="opacity"/>
              <InterpolatingParam id="2175" interp="linr"  time="0/1" value="0" leadInLength="0/1"  name="cursorOpacity"/>
              <InterpolatingParam id="2176" interp="linr"  time="0/1" value="0" leadInLength="0/1"  name="cursorScale"/>
             </Parameters>
             <Attributes>
              <Attribute id="2177" value="" name="ident"/>
             </Attributes>
             <ExtraData>
              <Entry key="ZoomPanBin">
               <ZoomPanBin id="2178"  >
                <ZoomPanKeyframes>
                 <ZoomPanKeyframe id="2179" timeRangeEnd="-9999999/1" timeRangeDuration="0/1" interpolaterName=""  />
                </ZoomPanKeyframes>
               </ZoomPanBin>
              </Entry>
              <Entry key="CursorEffectBin">
               <CursorEffectBin id="2180"  >
                <CursorEffectKeyframes>
                </CursorEffectKeyframes>
               </CursorEffectBin>
              </Entry>
             </ExtraData>
            </ScreenVMFile>
            <MetaData>
             <entry key="AutoAppliedSmartFocus" val="False"/>
             <entry key="WinSubProjectDisplayName" val=""/>
            </MetaData>
           </UnifiedMedia>
           <UnifiedMedia id="2181"  >
            <AMFile id="2182" start="6685" duration="296" scalar="1/1" mediaStart="15259/1" mediaDuration="296/1" trackNumber="1" src="4" channelNumber="0,1" >
             <Parameters>
              <InterpolatingParam id="2183" interp="linr"  time="0/1" value="1" leadInLength="0/1"  name="volume"/>
              <Parameter id="2184"  name="captions"/>
             </Parameters>
             <Attributes>
              <Attribute id="2185" value="" name="ident"/>
              <Attribute id="2186" value="44100" name="sampleRate"/>
              <Attribute id="2187" value="16" name="bitDepth"/>
              <Attribute id="2188" value="1" name="gain"/>
              <Attribute id="2189" value="0" name="mixToMono"/>
             </Attributes>
            </AMFile>
            <ScreenVMFile id="2190" start="6685" duration="296" scalar="1/1" mediaStart="15259/1" mediaDuration="296/1" trackNumber="0" src="4" >
             <Transformer>
              <VectorParam id="2191"  name="translation">
               <InterpolatingParam id="2192" interp="linr"  time="-9999999/1" value="0" leadInLength="0/1"  />
               <InterpolatingParam id="2193" interp="linr"  time="-9999999/1" value="0" leadInLength="0/1"  />
               <InterpolatingParam id="2194" interp="linr"  time="-9999999/1" value="0" leadInLength="0/1"  />
              </VectorParam>
              <VectorParam id="2195"  name="rotation">
               <InterpolatingParam id="2196" interp="linr"  time="-9999999/1" value="0" leadInLength="0/1"  />
               <InterpolatingParam id="2197" interp="linr"  time="-9999999/1" value="0" leadInLength="0/1"  />
               <InterpolatingParam id="2198" interp="linr"  time="-9999999/1" value="0" leadInLength="0/1"  />
              </VectorParam>
              <VectorParam id="2199"  name="shear">
               <InterpolatingParam id="2200" interp="linr"  time="-9999999/1" value="0" leadInLength="0/1"  />
               <InterpolatingParam id="2201" interp="linr"  time="-9999999/1" value="0" leadInLength="0/1"  />
               <InterpolatingParam id="2202" interp="linr"  time="-9999999/1" value="0" leadInLength="0/1"  />
              </VectorParam>
              <VectorParam id="2203"  name="scale">
               <InterpolatingParam id="2204" interp="linr"  time="-9999999/1" value="1" leadInLength="0/1"  />
               <InterpolatingParam id="2205" interp="linr"  time="-9999999/1" value="1" leadInLength="0/1"  />
               <InterpolatingParam id="2206" interp="linr"  time="-9999999/1" value="1" leadInLength="0/1"  />
              </VectorParam>
              <VectorParam id="2207"  name="anchor">
               <InterpolatingParam id="2208" interp="linr"  time="0/1" value="0" leadInLength="0/1"  />
               <InterpolatingParam id="2209" interp="linr"  time="0/1" value="0" leadInLength="0/1"  />
               <InterpolatingParam id="2210" interp="linr"  time="0/1" value="0" leadInLength="0/1"  />
              </VectorParam>
             </Transformer>
             <Parameters>
              <VectorParam id="2211"  name="sourceCrop">
               <InterpolatingParam id="2212" interp="linr"  time="0/1" value="0" leadInLength="0/1"  />
               <InterpolatingParam id="2213" interp="linr"  time="0/1" value="0" leadInLength="0/1"  />
               <InterpolatingParam id="2214" interp="linr"  time="0/1" value="0" leadInLength="0/1"  />
               <InterpolatingParam id="2215" interp="linr"  time="0/1" value="0" leadInLength="0/1"  />
              </VectorParam>
              <VectorParam id="2216"  name="geometryCrop">
               <InterpolatingParam id="2217" interp="linr"  time="-9999999/1" value="0" leadInLength="0/1"  />
               <InterpolatingParam id="2218" interp="linr"  time="-9999999/1" value="0" leadInLength="0/1"  />
               <InterpolatingParam id="2219" interp="linr"  time="-9999999/1" value="0" leadInLength="0/1"  />
               <InterpolatingParam id="2220" interp="linr"  time="-9999999/1" value="0" leadInLength="0/1"  />
              </VectorParam>
              <InterpolatingParam id="2221" interp="linr"  time="-9999999/1" value="1" leadInLength="0/1"  name="opacity"/>
              <InterpolatingParam id="2222" interp="linr"  time="0/1" value="0" leadInLength="0/1"  name="cursorOpacity"/>
              <InterpolatingParam id="2223" interp="linr"  time="0/1" value="0" leadInLength="0/1"  name="cursorScale"/>
             </Parameters>
             <Attributes>
              <Attribute id="2224" value="" name="ident"/>
             </Attributes>
             <ExtraData>
              <Entry key="ZoomPanBin">
               <ZoomPanBin id="2225"  >
                <ZoomPanKeyframes>
                 <ZoomPanKeyframe id="2226" timeRangeEnd="-9999999/1" timeRangeDuration="0/1" interpolaterName=""  />
                </ZoomPanKeyframes>
               </ZoomPanBin>
              </Entry>
              <Entry key="CursorEffectBin">
               <CursorEffectBin id="2227"  >
                <CursorEffectKeyframes>
                </CursorEffectKeyframes>
               </CursorEffectBin>
              </Entry>
             </ExtraData>
            </ScreenVMFile>
            <MetaData>
             <entry key="AutoAppliedSmartFocus" val="False"/>
             <entry key="WinSubProjectDisplayName" val=""/>
            </MetaData>
           </UnifiedMedia>
           <UnifiedMedia id="2228"  >
            <AMFile id="2229" start="6981" duration="155" scalar="1/1" mediaStart="15568/1" mediaDuration="155/1" trackNumber="1" src="4" channelNumber="0,1" >
             <Parameters>
              <InterpolatingParam id="2230" interp="linr"  time="0/1" value="1" leadInLength="0/1"  name="volume"/>
              <Parameter id="2231"  name="captions"/>
             </Parameters>
             <Attributes>
              <Attribute id="2232" value="" name="ident"/>
              <Attribute id="2233" value="44100" name="sampleRate"/>
              <Attribute id="2234" value="16" name="bitDepth"/>
              <Attribute id="2235" value="1" name="gain"/>
              <Attribute id="2236" value="0" name="mixToMono"/>
             </Attributes>
            </AMFile>
            <ScreenVMFile id="2237" start="6981" duration="155" scalar="1/1" mediaStart="15568/1" mediaDuration="155/1" trackNumber="0" src="4" >
             <Transformer>
              <VectorParam id="2238"  name="translation">
               <InterpolatingParam id="2239" interp="linr"  time="-9999999/1" value="0" leadInLength="0/1"  />
               <InterpolatingParam id="2240" interp="linr"  time="-9999999/1" value="0" leadInLength="0/1"  />
               <InterpolatingParam id="2241" interp="linr"  time="-9999999/1" value="0" leadInLength="0/1"  />
              </VectorParam>
              <VectorParam id="2242"  name="rotation">
               <InterpolatingParam id="2243" interp="linr"  time="-9999999/1" value="0" leadInLength="0/1"  />
               <InterpolatingParam id="2244" interp="linr"  time="-9999999/1" value="0" leadInLength="0/1"  />
               <InterpolatingParam id="2245" interp="linr"  time="-9999999/1" value="0" leadInLength="0/1"  />
              </VectorParam>
              <VectorParam id="2246"  name="shear">
               <InterpolatingParam id="2247" interp="linr"  time="-9999999/1" value="0" leadInLength="0/1"  />
               <InterpolatingParam id="2248" interp="linr"  time="-9999999/1" value="0" leadInLength="0/1"  />
               <InterpolatingParam id="2249" interp="linr"  time="-9999999/1" value="0" leadInLength="0/1"  />
              </VectorParam>
              <VectorParam id="2250"  name="scale">
               <InterpolatingParam id="2251" interp="linr"  time="-9999999/1" value="1" leadInLength="0/1"  />
               <InterpolatingParam id="2252" interp="linr"  time="-9999999/1" value="1" leadInLength="0/1"  />
               <InterpolatingParam id="2253" interp="linr"  time="-9999999/1" value="1" leadInLength="0/1"  />
              </VectorParam>
              <VectorParam id="2254"  name="anchor">
               <InterpolatingParam id="2255" interp="linr"  time="0/1" value="0" leadInLength="0/1"  />
               <InterpolatingParam id="2256" interp="linr"  time="0/1" value="0" leadInLength="0/1"  />
               <InterpolatingParam id="2257" interp="linr"  time="0/1" value="0" leadInLength="0/1"  />
              </VectorParam>
             </Transformer>
             <Parameters>
              <VectorParam id="2258"  name="sourceCrop">
               <InterpolatingParam id="2259" interp="linr"  time="0/1" value="0" leadInLength="0/1"  />
               <InterpolatingParam id="2260" interp="linr"  time="0/1" value="0" leadInLength="0/1"  />
               <InterpolatingParam id="2261" interp="linr"  time="0/1" value="0" leadInLength="0/1"  />
               <InterpolatingParam id="2262" interp="linr"  time="0/1" value="0" leadInLength="0/1"  />
              </VectorParam>
              <VectorParam id="2263"  name="geometryCrop">
               <InterpolatingParam id="2264" interp="linr"  time="-9999999/1" value="0" leadInLength="0/1"  />
               <InterpolatingParam id="2265" interp="linr"  time="-9999999/1" value="0" leadInLength="0/1"  />
               <InterpolatingParam id="2266" interp="linr"  time="-9999999/1" value="0" leadInLength="0/1"  />
               <InterpolatingParam id="2267" interp="linr"  time="-9999999/1" value="0" leadInLength="0/1"  />
              </VectorParam>
              <InterpolatingParam id="2268" interp="linr"  time="-9999999/1" value="1" leadInLength="0/1"  name="opacity"/>
              <InterpolatingParam id="2269" interp="linr"  time="0/1" value="0" leadInLength="0/1"  name="cursorOpacity"/>
              <InterpolatingParam id="2270" interp="linr"  time="0/1" value="0" leadInLength="0/1"  name="cursorScale"/>
             </Parameters>
             <Attributes>
              <Attribute id="2271" value="" name="ident"/>
             </Attributes>
             <ExtraData>
              <Entry key="ZoomPanBin">
               <ZoomPanBin id="2272"  >
                <ZoomPanKeyframes>
                 <ZoomPanKeyframe id="2273" timeRangeEnd="-9999999/1" timeRangeDuration="0/1" interpolaterName=""  />
                </ZoomPanKeyframes>
               </ZoomPanBin>
              </Entry>
              <Entry key="CursorEffectBin">
               <CursorEffectBin id="2274"  >
                <CursorEffectKeyframes>
                </CursorEffectKeyframes>
               </CursorEffectBin>
              </Entry>
             </ExtraData>
            </ScreenVMFile>
            <MetaData>
             <entry key="AutoAppliedSmartFocus" val="False"/>
             <entry key="WinSubProjectDisplayName" val=""/>
            </MetaData>
           </UnifiedMedia>
           <UnifiedMedia id="2275"  >
            <AMFile id="2276" start="7136" duration="397" scalar="1/1" mediaStart="15979/1" mediaDuration="397/1" trackNumber="1" src="4" channelNumber="0,1" >
             <Parameters>
              <InterpolatingParam id="2277" interp="linr"  time="0/1" value="1" leadInLength="0/1"  name="volume"/>
              <Parameter id="2278"  name="captions"/>
             </Parameters>
             <Attributes>
              <Attribute id="2279" value="" name="ident"/>
              <Attribute id="2280" value="44100" name="sampleRate"/>
              <Attribute id="2281" value="16" name="bitDepth"/>
              <Attribute id="2282" value="1" name="gain"/>
              <Attribute id="2283" value="0" name="mixToMono"/>
             </Attributes>
            </AMFile>
            <ScreenVMFile id="2284" start="7136" duration="397" scalar="1/1" mediaStart="15979/1" mediaDuration="397/1" trackNumber="0" src="4" >
             <Transformer>
              <VectorParam id="2285"  name="translation">
               <InterpolatingParam id="2286" interp="linr"  time="-9999999/1" value="0" leadInLength="0/1"  />
               <InterpolatingParam id="2287" interp="linr"  time="-9999999/1" value="0" leadInLength="0/1"  />
               <InterpolatingParam id="2288" interp="linr"  time="-9999999/1" value="0" leadInLength="0/1"  />
              </VectorParam>
              <VectorParam id="2289"  name="rotation">
               <InterpolatingParam id="2290" interp="linr"  time="-9999999/1" value="0" leadInLength="0/1"  />
               <InterpolatingParam id="2291" interp="linr"  time="-9999999/1" value="0" leadInLength="0/1"  />
               <InterpolatingParam id="2292" interp="linr"  time="-9999999/1" value="0" leadInLength="0/1"  />
              </VectorParam>
              <VectorParam id="2293"  name="shear">
               <InterpolatingParam id="2294" interp="linr"  time="-9999999/1" value="0" leadInLength="0/1"  />
               <InterpolatingParam id="2295" interp="linr"  time="-9999999/1" value="0" leadInLength="0/1"  />
               <InterpolatingParam id="2296" interp="linr"  time="-9999999/1" value="0" leadInLength="0/1"  />
              </VectorParam>
              <VectorParam id="2297"  name="scale">
               <InterpolatingParam id="2298" interp="linr"  time="-9999999/1" value="1" leadInLength="0/1"  />
               <InterpolatingParam id="2299" interp="linr"  time="-9999999/1" value="1" leadInLength="0/1"  />
               <InterpolatingParam id="2300" interp="linr"  time="-9999999/1" value="1" leadInLength="0/1"  />
              </VectorParam>
              <VectorParam id="2301"  name="anchor">
               <InterpolatingParam id="2302" interp="linr"  time="0/1" value="0" leadInLength="0/1"  />
               <InterpolatingParam id="2303" interp="linr"  time="0/1" value="0" leadInLength="0/1"  />
               <InterpolatingParam id="2304" interp="linr"  time="0/1" value="0" leadInLength="0/1"  />
              </VectorParam>
             </Transformer>
             <Parameters>
              <VectorParam id="2305"  name="sourceCrop">
               <InterpolatingParam id="2306" interp="linr"  time="0/1" value="0" leadInLength="0/1"  />
               <InterpolatingParam id="2307" interp="linr"  time="0/1" value="0" leadInLength="0/1"  />
               <InterpolatingParam id="2308" interp="linr"  time="0/1" value="0" leadInLength="0/1"  />
               <InterpolatingParam id="2309" interp="linr"  time="0/1" value="0" leadInLength="0/1"  />
              </VectorParam>
              <VectorParam id="2310"  name="geometryCrop">
               <InterpolatingParam id="2311" interp="linr"  time="-9999999/1" value="0" leadInLength="0/1"  />
               <InterpolatingParam id="2312" interp="linr"  time="-9999999/1" value="0" leadInLength="0/1"  />
               <InterpolatingParam id="2313" interp="linr"  time="-9999999/1" value="0" leadInLength="0/1"  />
               <InterpolatingParam id="2314" interp="linr"  time="-9999999/1" value="0" leadInLength="0/1"  />
              </VectorParam>
              <InterpolatingParam id="2315" interp="linr"  time="-9999999/1" value="1" leadInLength="0/1"  name="opacity"/>
              <InterpolatingParam id="2316" interp="linr"  time="0/1" value="0" leadInLength="0/1"  name="cursorOpacity"/>
              <InterpolatingParam id="2317" interp="linr"  time="0/1" value="0" leadInLength="0/1"  name="cursorScale"/>
             </Parameters>
             <Attributes>
              <Attribute id="2318" value="" name="ident"/>
             </Attributes>
             <ExtraData>
              <Entry key="ZoomPanBin">
               <ZoomPanBin id="2319"  >
                <ZoomPanKeyframes>
                 <ZoomPanKeyframe id="2320" timeRangeEnd="-9999999/1" timeRangeDuration="0/1" interpolaterName=""  />
                </ZoomPanKeyframes>
               </ZoomPanBin>
              </Entry>
              <Entry key="CursorEffectBin">
               <CursorEffectBin id="2321"  >
                <CursorEffectKeyframes>
                </CursorEffectKeyframes>
               </CursorEffectBin>
              </Entry>
             </ExtraData>
            </ScreenVMFile>
            <MetaData>
             <entry key="AutoAppliedSmartFocus" val="False"/>
             <entry key="WinSubProjectDisplayName" val=""/>
            </MetaData>
           </UnifiedMedia>
           <UnifiedMedia id="2322"  >
            <AMFile id="2323" start="7533" duration="79" scalar="1/1" mediaStart="16647/1" mediaDuration="79/1" trackNumber="1" src="4" channelNumber="0,1" >
             <Parameters>
              <InterpolatingParam id="2324" interp="linr"  time="0/1" value="1" leadInLength="0/1"  name="volume"/>
              <Parameter id="2325"  name="captions"/>
             </Parameters>
             <Attributes>
              <Attribute id="2326" value="" name="ident"/>
              <Attribute id="2327" value="44100" name="sampleRate"/>
              <Attribute id="2328" value="16" name="bitDepth"/>
              <Attribute id="2329" value="1" name="gain"/>
              <Attribute id="2330" value="0" name="mixToMono"/>
             </Attributes>
            </AMFile>
            <ScreenVMFile id="2331" start="7533" duration="79" scalar="1/1" mediaStart="16647/1" mediaDuration="79/1" trackNumber="0" src="4" >
             <Transformer>
              <VectorParam id="2332"  name="translation">
               <InterpolatingParam id="2333" interp="linr"  time="-9999999/1" value="0" leadInLength="0/1"  />
               <InterpolatingParam id="2334" interp="linr"  time="-9999999/1" value="0" leadInLength="0/1"  />
               <InterpolatingParam id="2335" interp="linr"  time="-9999999/1" value="0" leadInLength="0/1"  />
              </VectorParam>
              <VectorParam id="2336"  name="rotation">
               <InterpolatingParam id="2337" interp="linr"  time="-9999999/1" value="0" leadInLength="0/1"  />
               <InterpolatingParam id="2338" interp="linr"  time="-9999999/1" value="0" leadInLength="0/1"  />
               <InterpolatingParam id="2339" interp="linr"  time="-9999999/1" value="0" leadInLength="0/1"  />
              </VectorParam>
              <VectorParam id="2340"  name="shear">
               <InterpolatingParam id="2341" interp="linr"  time="-9999999/1" value="0" leadInLength="0/1"  />
               <InterpolatingParam id="2342" interp="linr"  time="-9999999/1" value="0" leadInLength="0/1"  />
               <InterpolatingParam id="2343" interp="linr"  time="-9999999/1" value="0" leadInLength="0/1"  />
              </VectorParam>
              <VectorParam id="2344"  name="scale">
               <InterpolatingParam id="2345" interp="linr"  time="-9999999/1" value="1" leadInLength="0/1"  />
               <InterpolatingParam id="2346" interp="linr"  time="-9999999/1" value="1" leadInLength="0/1"  />
               <InterpolatingParam id="2347" interp="linr"  time="-9999999/1" value="1" leadInLength="0/1"  />
              </VectorParam>
              <VectorParam id="2348"  name="anchor">
               <InterpolatingParam id="2349" interp="linr"  time="0/1" value="0" leadInLength="0/1"  />
               <InterpolatingParam id="2350" interp="linr"  time="0/1" value="0" leadInLength="0/1"  />
               <InterpolatingParam id="2351" interp="linr"  time="0/1" value="0" leadInLength="0/1"  />
              </VectorParam>
             </Transformer>
             <Parameters>
              <VectorParam id="2352"  name="sourceCrop">
               <InterpolatingParam id="2353" interp="linr"  time="0/1" value="0" leadInLength="0/1"  />
               <InterpolatingParam id="2354" interp="linr"  time="0/1" value="0" leadInLength="0/1"  />
               <InterpolatingParam id="2355" interp="linr"  time="0/1" value="0" leadInLength="0/1"  />
               <InterpolatingParam id="2356" interp="linr"  time="0/1" value="0" leadInLength="0/1"  />
              </VectorParam>
              <VectorParam id="2357"  name="geometryCrop">
               <InterpolatingParam id="2358" interp="linr"  time="-9999999/1" value="0" leadInLength="0/1"  />
               <InterpolatingParam id="2359" interp="linr"  time="-9999999/1" value="0" leadInLength="0/1"  />
               <InterpolatingParam id="2360" interp="linr"  time="-9999999/1" value="0" leadInLength="0/1"  />
               <InterpolatingParam id="2361" interp="linr"  time="-9999999/1" value="0" leadInLength="0/1"  />
              </VectorParam>
              <InterpolatingParam id="2362" interp="linr"  time="-9999999/1" value="1" leadInLength="0/1"  name="opacity"/>
              <InterpolatingParam id="2363" interp="linr"  time="0/1" value="0" leadInLength="0/1"  name="cursorOpacity"/>
              <InterpolatingParam id="2364" interp="linr"  time="0/1" value="0" leadInLength="0/1"  name="cursorScale"/>
             </Parameters>
             <Attributes>
              <Attribute id="2365" value="" name="ident"/>
             </Attributes>
             <ExtraData>
              <Entry key="ZoomPanBin">
               <ZoomPanBin id="2366"  >
                <ZoomPanKeyframes>
                 <ZoomPanKeyframe id="2367" timeRangeEnd="-9999999/1" timeRangeDuration="0/1" interpolaterName=""  />
                </ZoomPanKeyframes>
               </ZoomPanBin>
              </Entry>
              <Entry key="CursorEffectBin">
               <CursorEffectBin id="2368"  >
                <CursorEffectKeyframes>
                </CursorEffectKeyframes>
               </CursorEffectBin>
              </Entry>
             </ExtraData>
            </ScreenVMFile>
            <MetaData>
             <entry key="AutoAppliedSmartFocus" val="False"/>
             <entry key="WinSubProjectDisplayName" val=""/>
            </MetaData>
           </UnifiedMedia>
           <UnifiedMedia id="2369"  >
            <AMFile id="2370" start="7612" duration="193" scalar="1/1" mediaStart="17639/1" mediaDuration="193/1" trackNumber="1" src="4" channelNumber="0,1" >
             <Parameters>
              <InterpolatingParam id="2371" interp="linr"  time="0/1" value="1" leadInLength="0/1"  name="volume"/>
              <Parameter id="2372"  name="captions"/>
             </Parameters>
             <Attributes>
              <Attribute id="2373" value="" name="ident"/>
              <Attribute id="2374" value="44100" name="sampleRate"/>
              <Attribute id="2375" value="16" name="bitDepth"/>
              <Attribute id="2376" value="1" name="gain"/>
              <Attribute id="2377" value="0" name="mixToMono"/>
             </Attributes>
            </AMFile>
            <ScreenVMFile id="2378" start="7612" duration="193" scalar="1/1" mediaStart="17639/1" mediaDuration="193/1" trackNumber="0" src="4" >
             <Transformer>
              <VectorParam id="2379"  name="translation">
               <InterpolatingParam id="2380" interp="linr"  time="-9999999/1" value="0" leadInLength="0/1"  />
               <InterpolatingParam id="2381" interp="linr"  time="-9999999/1" value="0" leadInLength="0/1"  />
               <InterpolatingParam id="2382" interp="linr"  time="-9999999/1" value="0" leadInLength="0/1"  />
              </VectorParam>
              <VectorParam id="2383"  name="rotation">
               <InterpolatingParam id="2384" interp="linr"  time="-9999999/1" value="0" leadInLength="0/1"  />
               <InterpolatingParam id="2385" interp="linr"  time="-9999999/1" value="0" leadInLength="0/1"  />
               <InterpolatingParam id="2386" interp="linr"  time="-9999999/1" value="0" leadInLength="0/1"  />
              </VectorParam>
              <VectorParam id="2387"  name="shear">
               <InterpolatingParam id="2388" interp="linr"  time="-9999999/1" value="0" leadInLength="0/1"  />
               <InterpolatingParam id="2389" interp="linr"  time="-9999999/1" value="0" leadInLength="0/1"  />
               <InterpolatingParam id="2390" interp="linr"  time="-9999999/1" value="0" leadInLength="0/1"  />
              </VectorParam>
              <VectorParam id="2391"  name="scale">
               <InterpolatingParam id="2392" interp="linr"  time="-9999999/1" value="1" leadInLength="0/1"  />
               <InterpolatingParam id="2393" interp="linr"  time="-9999999/1" value="1" leadInLength="0/1"  />
               <InterpolatingParam id="2394" interp="linr"  time="-9999999/1" value="1" leadInLength="0/1"  />
              </VectorParam>
              <VectorParam id="2395"  name="anchor">
               <InterpolatingParam id="2396" interp="linr"  time="0/1" value="0" leadInLength="0/1"  />
               <InterpolatingParam id="2397" interp="linr"  time="0/1" value="0" leadInLength="0/1"  />
               <InterpolatingParam id="2398" interp="linr"  time="0/1" value="0" leadInLength="0/1"  />
              </VectorParam>
             </Transformer>
             <Parameters>
              <VectorParam id="2399"  name="sourceCrop">
               <InterpolatingParam id="2400" interp="linr"  time="0/1" value="0" leadInLength="0/1"  />
               <InterpolatingParam id="2401" interp="linr"  time="0/1" value="0" leadInLength="0/1"  />
               <InterpolatingParam id="2402" interp="linr"  time="0/1" value="0" leadInLength="0/1"  />
               <InterpolatingParam id="2403" interp="linr"  time="0/1" value="0" leadInLength="0/1"  />
              </VectorParam>
              <VectorParam id="2404"  name="geometryCrop">
               <InterpolatingParam id="2405" interp="linr"  time="-9999999/1" value="0" leadInLength="0/1"  />
               <InterpolatingParam id="2406" interp="linr"  time="-9999999/1" value="0" leadInLength="0/1"  />
               <InterpolatingParam id="2407" interp="linr"  time="-9999999/1" value="0" leadInLength="0/1"  />
               <InterpolatingParam id="2408" interp="linr"  time="-9999999/1" value="0" leadInLength="0/1"  />
              </VectorParam>
              <InterpolatingParam id="2409" interp="linr"  time="-9999999/1" value="1" leadInLength="0/1"  name="opacity"/>
              <InterpolatingParam id="2410" interp="linr"  time="0/1" value="0" leadInLength="0/1"  name="cursorOpacity"/>
              <InterpolatingParam id="2411" interp="linr"  time="0/1" value="0" leadInLength="0/1"  name="cursorScale"/>
             </Parameters>
             <Attributes>
              <Attribute id="2412" value="" name="ident"/>
             </Attributes>
             <ExtraData>
              <Entry key="ZoomPanBin">
               <ZoomPanBin id="2413"  >
                <ZoomPanKeyframes>
                 <ZoomPanKeyframe id="2414" timeRangeEnd="-9999999/1" timeRangeDuration="0/1" interpolaterName=""  />
                </ZoomPanKeyframes>
               </ZoomPanBin>
              </Entry>
              <Entry key="CursorEffectBin">
               <CursorEffectBin id="2415"  >
                <CursorEffectKeyframes>
                </CursorEffectKeyframes>
               </CursorEffectBin>
              </Entry>
             </ExtraData>
            </ScreenVMFile>
            <MetaData>
             <entry key="AutoAppliedSmartFocus" val="False"/>
             <entry key="WinSubProjectDisplayName" val=""/>
            </MetaData>
           </UnifiedMedia>
           <UnifiedMedia id="2416"  >
            <AMFile id="2417" start="7805" duration="231" scalar="1/1" mediaStart="17855/1" mediaDuration="231/1" trackNumber="1" src="4" channelNumber="0,1" >
             <Parameters>
              <InterpolatingParam id="2418" interp="linr"  time="0/1" value="1" leadInLength="0/1"  name="volume"/>
              <Parameter id="2419"  name="captions"/>
             </Parameters>
             <Attributes>
              <Attribute id="2420" value="" name="ident"/>
              <Attribute id="2421" value="44100" name="sampleRate"/>
              <Attribute id="2422" value="16" name="bitDepth"/>
              <Attribute id="2423" value="1" name="gain"/>
              <Attribute id="2424" value="0" name="mixToMono"/>
             </Attributes>
            </AMFile>
            <ScreenVMFile id="2425" start="7805" duration="231" scalar="1/1" mediaStart="17855/1" mediaDuration="231/1" trackNumber="0" src="4" >
             <Transformer>
              <VectorParam id="2426"  name="translation">
               <InterpolatingParam id="2427" interp="linr"  time="-9999999/1" value="0" leadInLength="0/1"  />
               <InterpolatingParam id="2428" interp="linr"  time="-9999999/1" value="0" leadInLength="0/1"  />
               <InterpolatingParam id="2429" interp="linr"  time="-9999999/1" value="0" leadInLength="0/1"  />
              </VectorParam>
              <VectorParam id="2430"  name="rotation">
               <InterpolatingParam id="2431" interp="linr"  time="-9999999/1" value="0" leadInLength="0/1"  />
               <InterpolatingParam id="2432" interp="linr"  time="-9999999/1" value="0" leadInLength="0/1"  />
               <InterpolatingParam id="2433" interp="linr"  time="-9999999/1" value="0" leadInLength="0/1"  />
              </VectorParam>
              <VectorParam id="2434"  name="shear">
               <InterpolatingParam id="2435" interp="linr"  time="-9999999/1" value="0" leadInLength="0/1"  />
               <InterpolatingParam id="2436" interp="linr"  time="-9999999/1" value="0" leadInLength="0/1"  />
               <InterpolatingParam id="2437" interp="linr"  time="-9999999/1" value="0" leadInLength="0/1"  />
              </VectorParam>
              <VectorParam id="2438"  name="scale">
               <InterpolatingParam id="2439" interp="linr"  time="-9999999/1" value="1" leadInLength="0/1"  />
               <InterpolatingParam id="2440" interp="linr"  time="-9999999/1" value="1" leadInLength="0/1"  />
               <InterpolatingParam id="2441" interp="linr"  time="-9999999/1" value="1" leadInLength="0/1"  />
              </VectorParam>
              <VectorParam id="2442"  name="anchor">
               <InterpolatingParam id="2443" interp="linr"  time="0/1" value="0" leadInLength="0/1"  />
               <InterpolatingParam id="2444" interp="linr"  time="0/1" value="0" leadInLength="0/1"  />
               <InterpolatingParam id="2445" interp="linr"  time="0/1" value="0" leadInLength="0/1"  />
              </VectorParam>
             </Transformer>
             <Parameters>
              <VectorParam id="2446"  name="sourceCrop">
               <InterpolatingParam id="2447" interp="linr"  time="0/1" value="0" leadInLength="0/1"  />
               <InterpolatingParam id="2448" interp="linr"  time="0/1" value="0" leadInLength="0/1"  />
               <InterpolatingParam id="2449" interp="linr"  time="0/1" value="0" leadInLength="0/1"  />
               <InterpolatingParam id="2450" interp="linr"  time="0/1" value="0" leadInLength="0/1"  />
              </VectorParam>
              <VectorParam id="2451"  name="geometryCrop">
               <InterpolatingParam id="2452" interp="linr"  time="-9999999/1" value="0" leadInLength="0/1"  />
               <InterpolatingParam id="2453" interp="linr"  time="-9999999/1" value="0" leadInLength="0/1"  />
               <InterpolatingParam id="2454" interp="linr"  time="-9999999/1" value="0" leadInLength="0/1"  />
               <InterpolatingParam id="2455" interp="linr"  time="-9999999/1" value="0" leadInLength="0/1"  />
              </VectorParam>
              <InterpolatingParam id="2456" interp="linr"  time="-9999999/1" value="1" leadInLength="0/1"  name="opacity"/>
              <InterpolatingParam id="2457" interp="linr"  time="0/1" value="0" leadInLength="0/1"  name="cursorOpacity"/>
              <InterpolatingParam id="2458" interp="linr"  time="0/1" value="0" leadInLength="0/1"  name="cursorScale"/>
             </Parameters>
             <Attributes>
              <Attribute id="2459" value="" name="ident"/>
             </Attributes>
             <ExtraData>
              <Entry key="ZoomPanBin">
               <ZoomPanBin id="2460"  >
                <ZoomPanKeyframes>
                 <ZoomPanKeyframe id="2461" timeRangeEnd="-9999999/1" timeRangeDuration="0/1" interpolaterName=""  />
                </ZoomPanKeyframes>
               </ZoomPanBin>
              </Entry>
              <Entry key="CursorEffectBin">
               <CursorEffectBin id="2462"  >
                <CursorEffectKeyframes>
                </CursorEffectKeyframes>
               </CursorEffectBin>
              </Entry>
             </ExtraData>
            </ScreenVMFile>
            <MetaData>
             <entry key="AutoAppliedSmartFocus" val="False"/>
             <entry key="WinSubProjectDisplayName" val=""/>
            </MetaData>
           </UnifiedMedia>
           <UnifiedMedia id="2463"  >
            <AMFile id="2464" start="8036" duration="225" scalar="1/1" mediaStart="18471/1" mediaDuration="225/1" trackNumber="1" src="4" channelNumber="0,1" >
             <Parameters>
              <InterpolatingParam id="2465" interp="linr"  time="0/1" value="1" leadInLength="0/1"  name="volume"/>
              <Parameter id="2466"  name="captions"/>
             </Parameters>
             <Attributes>
              <Attribute id="2467" value="" name="ident"/>
              <Attribute id="2468" value="44100" name="sampleRate"/>
              <Attribute id="2469" value="16" name="bitDepth"/>
              <Attribute id="2470" value="1" name="gain"/>
              <Attribute id="2471" value="0" name="mixToMono"/>
             </Attributes>
            </AMFile>
            <ScreenVMFile id="2472" start="8036" duration="225" scalar="1/1" mediaStart="18471/1" mediaDuration="225/1" trackNumber="0" src="4" >
             <Transformer>
              <VectorParam id="2473"  name="translation">
               <InterpolatingParam id="2474" interp="linr"  time="-9999999/1" value="0" leadInLength="0/1"  />
               <InterpolatingParam id="2475" interp="linr"  time="-9999999/1" value="0" leadInLength="0/1"  />
               <InterpolatingParam id="2476" interp="linr"  time="-9999999/1" value="0" leadInLength="0/1"  />
              </VectorParam>
              <VectorParam id="2477"  name="rotation">
               <InterpolatingParam id="2478" interp="linr"  time="-9999999/1" value="0" leadInLength="0/1"  />
               <InterpolatingParam id="2479" interp="linr"  time="-9999999/1" value="0" leadInLength="0/1"  />
               <InterpolatingParam id="2480" interp="linr"  time="-9999999/1" value="0" leadInLength="0/1"  />
              </VectorParam>
              <VectorParam id="2481"  name="shear">
               <InterpolatingParam id="2482" interp="linr"  time="-9999999/1" value="0" leadInLength="0/1"  />
               <InterpolatingParam id="2483" interp="linr"  time="-9999999/1" value="0" leadInLength="0/1"  />
               <InterpolatingParam id="2484" interp="linr"  time="-9999999/1" value="0" leadInLength="0/1"  />
              </VectorParam>
              <VectorParam id="2485"  name="scale">
               <InterpolatingParam id="2486" interp="linr"  time="-9999999/1" value="1" leadInLength="0/1"  />
               <InterpolatingParam id="2487" interp="linr"  time="-9999999/1" value="1" leadInLength="0/1"  />
               <InterpolatingParam id="2488" interp="linr"  time="-9999999/1" value="1" leadInLength="0/1"  />
              </VectorParam>
              <VectorParam id="2489"  name="anchor">
               <InterpolatingParam id="2490" interp="linr"  time="0/1" value="0" leadInLength="0/1"  />
               <InterpolatingParam id="2491" interp="linr"  time="0/1" value="0" leadInLength="0/1"  />
               <InterpolatingParam id="2492" interp="linr"  time="0/1" value="0" leadInLength="0/1"  />
              </VectorParam>
             </Transformer>
             <Parameters>
              <VectorParam id="2493"  name="sourceCrop">
               <InterpolatingParam id="2494" interp="linr"  time="0/1" value="0" leadInLength="0/1"  />
               <InterpolatingParam id="2495" interp="linr"  time="0/1" value="0" leadInLength="0/1"  />
               <InterpolatingParam id="2496" interp="linr"  time="0/1" value="0" leadInLength="0/1"  />
               <InterpolatingParam id="2497" interp="linr"  time="0/1" value="0" leadInLength="0/1"  />
              </VectorParam>
              <VectorParam id="2498"  name="geometryCrop">
               <InterpolatingParam id="2499" interp="linr"  time="-9999999/1" value="0" leadInLength="0/1"  />
               <InterpolatingParam id="2500" interp="linr"  time="-9999999/1" value="0" leadInLength="0/1"  />
               <InterpolatingParam id="2501" interp="linr"  time="-9999999/1" value="0" leadInLength="0/1"  />
               <InterpolatingParam id="2502" interp="linr"  time="-9999999/1" value="0" leadInLength="0/1"  />
              </VectorParam>
              <InterpolatingParam id="2503" interp="linr"  time="-9999999/1" value="1" leadInLength="0/1"  name="opacity"/>
              <InterpolatingParam id="2504" interp="linr"  time="0/1" value="0" leadInLength="0/1"  name="cursorOpacity"/>
              <InterpolatingParam id="2505" interp="linr"  time="0/1" value="0" leadInLength="0/1"  name="cursorScale"/>
             </Parameters>
             <Attributes>
              <Attribute id="2506" value="" name="ident"/>
             </Attributes>
             <ExtraData>
              <Entry key="ZoomPanBin">
               <ZoomPanBin id="2507"  >
                <ZoomPanKeyframes>
                 <ZoomPanKeyframe id="2508" timeRangeEnd="-9999999/1" timeRangeDuration="0/1" interpolaterName=""  />
                </ZoomPanKeyframes>
               </ZoomPanBin>
              </Entry>
              <Entry key="CursorEffectBin">
               <CursorEffectBin id="2509"  >
                <CursorEffectKeyframes>
                </CursorEffectKeyframes>
               </CursorEffectBin>
              </Entry>
             </ExtraData>
            </ScreenVMFile>
            <MetaData>
             <entry key="AutoAppliedSmartFocus" val="False"/>
             <entry key="WinSubProjectDisplayName" val=""/>
            </MetaData>
           </UnifiedMedia>
           <UnifiedMedia id="2510"  >
            <AMFile id="2511" start="8261" duration="64" scalar="1/1" mediaStart="19118/1" mediaDuration="64/1" trackNumber="1" src="4" channelNumber="0,1" >
             <Parameters>
              <InterpolatingParam id="2512" interp="linr"  time="0/1" value="1" leadInLength="0/1"  name="volume"/>
              <Parameter id="2513"  name="captions"/>
             </Parameters>
             <Attributes>
              <Attribute id="2514" value="" name="ident"/>
              <Attribute id="2515" value="44100" name="sampleRate"/>
              <Attribute id="2516" value="16" name="bitDepth"/>
              <Attribute id="2517" value="1" name="gain"/>
              <Attribute id="2518" value="0" name="mixToMono"/>
             </Attributes>
            </AMFile>
            <ScreenVMFile id="2519" start="8261" duration="64" scalar="1/1" mediaStart="19118/1" mediaDuration="64/1" trackNumber="0" src="4" >
             <Transformer>
              <VectorParam id="2520"  name="translation">
               <InterpolatingParam id="2521" interp="linr"  time="-9999999/1" value="0" leadInLength="0/1"  />
               <InterpolatingParam id="2522" interp="linr"  time="-9999999/1" value="0" leadInLength="0/1"  />
               <InterpolatingParam id="2523" interp="linr"  time="-9999999/1" value="0" leadInLength="0/1"  />
              </VectorParam>
              <VectorParam id="2524"  name="rotation">
               <InterpolatingParam id="2525" interp="linr"  time="-9999999/1" value="0" leadInLength="0/1"  />
               <InterpolatingParam id="2526" interp="linr"  time="-9999999/1" value="0" leadInLength="0/1"  />
               <InterpolatingParam id="2527" interp="linr"  time="-9999999/1" value="0" leadInLength="0/1"  />
              </VectorParam>
              <VectorParam id="2528"  name="shear">
               <InterpolatingParam id="2529" interp="linr"  time="-9999999/1" value="0" leadInLength="0/1"  />
               <InterpolatingParam id="2530" interp="linr"  time="-9999999/1" value="0" leadInLength="0/1"  />
               <InterpolatingParam id="2531" interp="linr"  time="-9999999/1" value="0" leadInLength="0/1"  />
              </VectorParam>
              <VectorParam id="2532"  name="scale">
               <InterpolatingParam id="2533" interp="linr"  time="-9999999/1" value="1" leadInLength="0/1"  />
               <InterpolatingParam id="2534" interp="linr"  time="-9999999/1" value="1" leadInLength="0/1"  />
               <InterpolatingParam id="2535" interp="linr"  time="-9999999/1" value="1" leadInLength="0/1"  />
              </VectorParam>
              <VectorParam id="2536"  name="anchor">
               <InterpolatingParam id="2537" interp="linr"  time="0/1" value="0" leadInLength="0/1"  />
               <InterpolatingParam id="2538" interp="linr"  time="0/1" value="0" leadInLength="0/1"  />
               <InterpolatingParam id="2539" interp="linr"  time="0/1" value="0" leadInLength="0/1"  />
              </VectorParam>
             </Transformer>
             <Parameters>
              <VectorParam id="2540"  name="sourceCrop">
               <InterpolatingParam id="2541" interp="linr"  time="0/1" value="0" leadInLength="0/1"  />
               <InterpolatingParam id="2542" interp="linr"  time="0/1" value="0" leadInLength="0/1"  />
               <InterpolatingParam id="2543" interp="linr"  time="0/1" value="0" leadInLength="0/1"  />
               <InterpolatingParam id="2544" interp="linr"  time="0/1" value="0" leadInLength="0/1"  />
              </VectorParam>
              <VectorParam id="2545"  name="geometryCrop">
               <InterpolatingParam id="2546" interp="linr"  time="-9999999/1" value="0" leadInLength="0/1"  />
               <InterpolatingParam id="2547" interp="linr"  time="-9999999/1" value="0" leadInLength="0/1"  />
               <InterpolatingParam id="2548" interp="linr"  time="-9999999/1" value="0" leadInLength="0/1"  />
               <InterpolatingParam id="2549" interp="linr"  time="-9999999/1" value="0" leadInLength="0/1"  />
              </VectorParam>
              <InterpolatingParam id="2550" interp="linr"  time="-9999999/1" value="1" leadInLength="0/1"  name="opacity"/>
              <InterpolatingParam id="2551" interp="linr"  time="0/1" value="0" leadInLength="0/1"  name="cursorOpacity"/>
              <InterpolatingParam id="2552" interp="linr"  time="0/1" value="0" leadInLength="0/1"  name="cursorScale"/>
             </Parameters>
             <Attributes>
              <Attribute id="2553" value="" name="ident"/>
             </Attributes>
             <ExtraData>
              <Entry key="ZoomPanBin">
               <ZoomPanBin id="2554"  >
                <ZoomPanKeyframes>
                 <ZoomPanKeyframe id="2555" timeRangeEnd="-9999999/1" timeRangeDuration="0/1" interpolaterName=""  />
                </ZoomPanKeyframes>
               </ZoomPanBin>
              </Entry>
              <Entry key="CursorEffectBin">
               <CursorEffectBin id="2556"  >
                <CursorEffectKeyframes>
                </CursorEffectKeyframes>
               </CursorEffectBin>
              </Entry>
             </ExtraData>
            </ScreenVMFile>
            <MetaData>
             <entry key="AutoAppliedSmartFocus" val="False"/>
             <entry key="WinSubProjectDisplayName" val=""/>
            </MetaData>
           </UnifiedMedia>
           <UnifiedMedia id="2557"  >
            <AMFile id="2558" start="8325" duration="160" scalar="1/1" mediaStart="19188/1" mediaDuration="160/1" trackNumber="1" src="4" channelNumber="0,1" >
             <Parameters>
              <InterpolatingParam id="2559" interp="linr"  time="0/1" value="1" leadInLength="0/1"  name="volume"/>
              <Parameter id="2560"  name="captions"/>
             </Parameters>
             <Attributes>
              <Attribute id="2561" value="" name="ident"/>
              <Attribute id="2562" value="44100" name="sampleRate"/>
              <Attribute id="2563" value="16" name="bitDepth"/>
              <Attribute id="2564" value="1" name="gain"/>
              <Attribute id="2565" value="0" name="mixToMono"/>
             </Attributes>
            </AMFile>
            <ScreenVMFile id="2566" start="8325" duration="160" scalar="1/1" mediaStart="19188/1" mediaDuration="160/1" trackNumber="0" src="4" >
             <Transformer>
              <VectorParam id="2567"  name="translation">
               <InterpolatingParam id="2568" interp="linr"  time="-9999999/1" value="0" leadInLength="0/1"  />
               <InterpolatingParam id="2569" interp="linr"  time="-9999999/1" value="0" leadInLength="0/1"  />
               <InterpolatingParam id="2570" interp="linr"  time="-9999999/1" value="0" leadInLength="0/1"  />
              </VectorParam>
              <VectorParam id="2571"  name="rotation">
               <InterpolatingParam id="2572" interp="linr"  time="-9999999/1" value="0" leadInLength="0/1"  />
               <InterpolatingParam id="2573" interp="linr"  time="-9999999/1" value="0" leadInLength="0/1"  />
               <InterpolatingParam id="2574" interp="linr"  time="-9999999/1" value="0" leadInLength="0/1"  />
              </VectorParam>
              <VectorParam id="2575"  name="shear">
               <InterpolatingParam id="2576" interp="linr"  time="-9999999/1" value="0" leadInLength="0/1"  />
               <InterpolatingParam id="2577" interp="linr"  time="-9999999/1" value="0" leadInLength="0/1"  />
               <InterpolatingParam id="2578" interp="linr"  time="-9999999/1" value="0" leadInLength="0/1"  />
              </VectorParam>
              <VectorParam id="2579"  name="scale">
               <InterpolatingParam id="2580" interp="linr"  time="-9999999/1" value="1" leadInLength="0/1"  />
               <InterpolatingParam id="2581" interp="linr"  time="-9999999/1" value="1" leadInLength="0/1"  />
               <InterpolatingParam id="2582" interp="linr"  time="-9999999/1" value="1" leadInLength="0/1"  />
              </VectorParam>
              <VectorParam id="2583"  name="anchor">
               <InterpolatingParam id="2584" interp="linr"  time="0/1" value="0" leadInLength="0/1"  />
               <InterpolatingParam id="2585" interp="linr"  time="0/1" value="0" leadInLength="0/1"  />
               <InterpolatingParam id="2586" interp="linr"  time="0/1" value="0" leadInLength="0/1"  />
              </VectorParam>
             </Transformer>
             <Parameters>
              <VectorParam id="2587"  name="sourceCrop">
               <InterpolatingParam id="2588" interp="linr"  time="0/1" value="0" leadInLength="0/1"  />
               <InterpolatingParam id="2589" interp="linr"  time="0/1" value="0" leadInLength="0/1"  />
               <InterpolatingParam id="2590" interp="linr"  time="0/1" value="0" leadInLength="0/1"  />
               <InterpolatingParam id="2591" interp="linr"  time="0/1" value="0" leadInLength="0/1"  />
              </VectorParam>
              <VectorParam id="2592"  name="geometryCrop">
               <InterpolatingParam id="2593" interp="linr"  time="-9999999/1" value="0" leadInLength="0/1"  />
               <InterpolatingParam id="2594" interp="linr"  time="-9999999/1" value="0" leadInLength="0/1"  />
               <InterpolatingParam id="2595" interp="linr"  time="-9999999/1" value="0" leadInLength="0/1"  />
               <InterpolatingParam id="2596" interp="linr"  time="-9999999/1" value="0" leadInLength="0/1"  />
              </VectorParam>
              <InterpolatingParam id="2597" interp="linr"  time="-9999999/1" value="1" leadInLength="0/1"  name="opacity"/>
              <InterpolatingParam id="2598" interp="linr"  time="0/1" value="0" leadInLength="0/1"  name="cursorOpacity"/>
              <InterpolatingParam id="2599" interp="linr"  time="0/1" value="0" leadInLength="0/1"  name="cursorScale"/>
             </Parameters>
             <Attributes>
              <Attribute id="2600" value="" name="ident"/>
             </Attributes>
             <ExtraData>
              <Entry key="ZoomPanBin">
               <ZoomPanBin id="2601"  >
                <ZoomPanKeyframes>
                 <ZoomPanKeyframe id="2602" timeRangeEnd="-9999999/1" timeRangeDuration="0/1" interpolaterName=""  />
                </ZoomPanKeyframes>
               </ZoomPanBin>
              </Entry>
              <Entry key="CursorEffectBin">
               <CursorEffectBin id="2603"  >
                <CursorEffectKeyframes>
                </CursorEffectKeyframes>
               </CursorEffectBin>
              </Entry>
             </ExtraData>
            </ScreenVMFile>
            <MetaData>
             <entry key="AutoAppliedSmartFocus" val="False"/>
             <entry key="WinSubProjectDisplayName" val=""/>
            </MetaData>
           </UnifiedMedia>
           <UnifiedMedia id="2604"  >
            <AMFile id="2605" start="8485" duration="3" scalar="1/1" mediaStart="19354/1" mediaDuration="3/1" trackNumber="1" src="4" channelNumber="0,1" >
             <Parameters>
              <InterpolatingParam id="2606" interp="linr"  time="0/1" value="1" leadInLength="0/1"  name="volume"/>
              <Parameter id="2607"  name="captions"/>
             </Parameters>
             <Attributes>
              <Attribute id="2608" value="" name="ident"/>
              <Attribute id="2609" value="44100" name="sampleRate"/>
              <Attribute id="2610" value="16" name="bitDepth"/>
              <Attribute id="2611" value="1" name="gain"/>
              <Attribute id="2612" value="0" name="mixToMono"/>
             </Attributes>
            </AMFile>
            <ScreenVMFile id="2613" start="8485" duration="3" scalar="1/1" mediaStart="19354/1" mediaDuration="3/1" trackNumber="0" src="4" >
             <Transformer>
              <VectorParam id="2614"  name="translation">
               <InterpolatingParam id="2615" interp="linr"  time="-9999999/1" value="0" leadInLength="0/1"  />
               <InterpolatingParam id="2616" interp="linr"  time="-9999999/1" value="0" leadInLength="0/1"  />
               <InterpolatingParam id="2617" interp="linr"  time="-9999999/1" value="0" leadInLength="0/1"  />
              </VectorParam>
              <VectorParam id="2618"  name="rotation">
               <InterpolatingParam id="2619" interp="linr"  time="-9999999/1" value="0" leadInLength="0/1"  />
               <InterpolatingParam id="2620" interp="linr"  time="-9999999/1" value="0" leadInLength="0/1"  />
               <InterpolatingParam id="2621" interp="linr"  time="-9999999/1" value="0" leadInLength="0/1"  />
              </VectorParam>
              <VectorParam id="2622"  name="shear">
               <InterpolatingParam id="2623" interp="linr"  time="-9999999/1" value="0" leadInLength="0/1"  />
               <InterpolatingParam id="2624" interp="linr"  time="-9999999/1" value="0" leadInLength="0/1"  />
               <InterpolatingParam id="2625" interp="linr"  time="-9999999/1" value="0" leadInLength="0/1"  />
              </VectorParam>
              <VectorParam id="2626"  name="scale">
               <InterpolatingParam id="2627" interp="linr"  time="-9999999/1" value="1" leadInLength="0/1"  />
               <InterpolatingParam id="2628" interp="linr"  time="-9999999/1" value="1" leadInLength="0/1"  />
               <InterpolatingParam id="2629" interp="linr"  time="-9999999/1" value="1" leadInLength="0/1"  />
              </VectorParam>
              <VectorParam id="2630"  name="anchor">
               <InterpolatingParam id="2631" interp="linr"  time="0/1" value="0" leadInLength="0/1"  />
               <InterpolatingParam id="2632" interp="linr"  time="0/1" value="0" leadInLength="0/1"  />
               <InterpolatingParam id="2633" interp="linr"  time="0/1" value="0" leadInLength="0/1"  />
              </VectorParam>
             </Transformer>
             <Parameters>
              <VectorParam id="2634"  name="sourceCrop">
               <InterpolatingParam id="2635" interp="linr"  time="0/1" value="0" leadInLength="0/1"  />
               <InterpolatingParam id="2636" interp="linr"  time="0/1" value="0" leadInLength="0/1"  />
               <InterpolatingParam id="2637" interp="linr"  time="0/1" value="0" leadInLength="0/1"  />
               <InterpolatingParam id="2638" interp="linr"  time="0/1" value="0" leadInLength="0/1"  />
              </VectorParam>
              <VectorParam id="2639"  name="geometryCrop">
               <InterpolatingParam id="2640" interp="linr"  time="-9999999/1" value="0" leadInLength="0/1"  />
               <InterpolatingParam id="2641" interp="linr"  time="-9999999/1" value="0" leadInLength="0/1"  />
               <InterpolatingParam id="2642" interp="linr"  time="-9999999/1" value="0" leadInLength="0/1"  />
               <InterpolatingParam id="2643" interp="linr"  time="-9999999/1" value="0" leadInLength="0/1"  />
              </VectorParam>
              <InterpolatingParam id="2644" interp="linr"  time="-9999999/1" value="1" leadInLength="0/1"  name="opacity"/>
              <InterpolatingParam id="2645" interp="linr"  time="0/1" value="0" leadInLength="0/1"  name="cursorOpacity"/>
              <InterpolatingParam id="2646" interp="linr"  time="0/1" value="0" leadInLength="0/1"  name="cursorScale"/>
             </Parameters>
             <Attributes>
              <Attribute id="2647" value="" name="ident"/>
             </Attributes>
             <ExtraData>
              <Entry key="ZoomPanBin">
               <ZoomPanBin id="2648"  >
                <ZoomPanKeyframes>
                 <ZoomPanKeyframe id="2649" timeRangeEnd="-9999999/1" timeRangeDuration="0/1" interpolaterName=""  />
                </ZoomPanKeyframes>
               </ZoomPanBin>
              </Entry>
              <Entry key="CursorEffectBin">
               <CursorEffectBin id="2650"  >
                <CursorEffectKeyframes>
                </CursorEffectKeyframes>
               </CursorEffectBin>
              </Entry>
             </ExtraData>
            </ScreenVMFile>
            <MetaData>
             <entry key="AutoAppliedSmartFocus" val="False"/>
             <entry key="WinSubProjectDisplayName" val=""/>
            </MetaData>
           </UnifiedMedia>
           <UnifiedMedia id="2651"  >
            <AMFile id="2652" start="8488" duration="56" scalar="1/1" mediaStart="19826/1" mediaDuration="56/1" trackNumber="1" src="4" channelNumber="0,1" >
             <Parameters>
              <InterpolatingParam id="2653" interp="linr"  time="0/1" value="1" leadInLength="0/1"  name="volume"/>
              <Parameter id="2654"  name="captions"/>
             </Parameters>
             <Attributes>
              <Attribute id="2655" value="" name="ident"/>
              <Attribute id="2656" value="44100" name="sampleRate"/>
              <Attribute id="2657" value="16" name="bitDepth"/>
              <Attribute id="2658" value="1" name="gain"/>
              <Attribute id="2659" value="0" name="mixToMono"/>
             </Attributes>
            </AMFile>
            <ScreenVMFile id="2660" start="8488" duration="56" scalar="1/1" mediaStart="19826/1" mediaDuration="56/1" trackNumber="0" src="4" >
             <Transformer>
              <VectorParam id="2661"  name="translation">
               <InterpolatingParam id="2662" interp="linr"  time="-9999999/1" value="0" leadInLength="0/1"  />
               <InterpolatingParam id="2663" interp="linr"  time="-9999999/1" value="0" leadInLength="0/1"  />
               <InterpolatingParam id="2664" interp="linr"  time="-9999999/1" value="0" leadInLength="0/1"  />
              </VectorParam>
              <VectorParam id="2665"  name="rotation">
               <InterpolatingParam id="2666" interp="linr"  time="-9999999/1" value="0" leadInLength="0/1"  />
               <InterpolatingParam id="2667" interp="linr"  time="-9999999/1" value="0" leadInLength="0/1"  />
               <InterpolatingParam id="2668" interp="linr"  time="-9999999/1" value="0" leadInLength="0/1"  />
              </VectorParam>
              <VectorParam id="2669"  name="shear">
               <InterpolatingParam id="2670" interp="linr"  time="-9999999/1" value="0" leadInLength="0/1"  />
               <InterpolatingParam id="2671" interp="linr"  time="-9999999/1" value="0" leadInLength="0/1"  />
               <InterpolatingParam id="2672" interp="linr"  time="-9999999/1" value="0" leadInLength="0/1"  />
              </VectorParam>
              <VectorParam id="2673"  name="scale">
               <InterpolatingParam id="2674" interp="linr"  time="-9999999/1" value="1" leadInLength="0/1"  />
               <InterpolatingParam id="2675" interp="linr"  time="-9999999/1" value="1" leadInLength="0/1"  />
               <InterpolatingParam id="2676" interp="linr"  time="-9999999/1" value="1" leadInLength="0/1"  />
              </VectorParam>
              <VectorParam id="2677"  name="anchor">
               <InterpolatingParam id="2678" interp="linr"  time="0/1" value="0" leadInLength="0/1"  />
               <InterpolatingParam id="2679" interp="linr"  time="0/1" value="0" leadInLength="0/1"  />
               <InterpolatingParam id="2680" interp="linr"  time="0/1" value="0" leadInLength="0/1"  />
              </VectorParam>
             </Transformer>
             <Parameters>
              <VectorParam id="2681"  name="sourceCrop">
               <InterpolatingParam id="2682" interp="linr"  time="0/1" value="0" leadInLength="0/1"  />
               <InterpolatingParam id="2683" interp="linr"  time="0/1" value="0" leadInLength="0/1"  />
               <InterpolatingParam id="2684" interp="linr"  time="0/1" value="0" leadInLength="0/1"  />
               <InterpolatingParam id="2685" interp="linr"  time="0/1" value="0" leadInLength="0/1"  />
              </VectorParam>
              <VectorParam id="2686"  name="geometryCrop">
               <InterpolatingParam id="2687" interp="linr"  time="-9999999/1" value="0" leadInLength="0/1"  />
               <InterpolatingParam id="2688" interp="linr"  time="-9999999/1" value="0" leadInLength="0/1"  />
               <InterpolatingParam id="2689" interp="linr"  time="-9999999/1" value="0" leadInLength="0/1"  />
               <InterpolatingParam id="2690" interp="linr"  time="-9999999/1" value="0" leadInLength="0/1"  />
              </VectorParam>
              <InterpolatingParam id="2691" interp="linr"  time="-9999999/1" value="1" leadInLength="0/1"  name="opacity"/>
              <InterpolatingParam id="2692" interp="linr"  time="0/1" value="0" leadInLength="0/1"  name="cursorOpacity"/>
              <InterpolatingParam id="2693" interp="linr"  time="0/1" value="0" leadInLength="0/1"  name="cursorScale"/>
             </Parameters>
             <Attributes>
              <Attribute id="2694" value="" name="ident"/>
             </Attributes>
             <ExtraData>
              <Entry key="ZoomPanBin">
               <ZoomPanBin id="2695"  >
                <ZoomPanKeyframes>
                 <ZoomPanKeyframe id="2696" timeRangeEnd="-9999999/1" timeRangeDuration="0/1" interpolaterName=""  />
                </ZoomPanKeyframes>
               </ZoomPanBin>
              </Entry>
              <Entry key="CursorEffectBin">
               <CursorEffectBin id="2697"  >
                <CursorEffectKeyframes>
                </CursorEffectKeyframes>
               </CursorEffectBin>
              </Entry>
             </ExtraData>
            </ScreenVMFile>
            <MetaData>
             <entry key="AutoAppliedSmartFocus" val="False"/>
             <entry key="WinSubProjectDisplayName" val=""/>
            </MetaData>
           </UnifiedMedia>
           <UnifiedMedia id="2698"  >
            <AMFile id="2699" start="8544" duration="318" scalar="1/1" mediaStart="20059/1" mediaDuration="318/1" trackNumber="1" src="4" channelNumber="0,1" >
             <Parameters>
              <InterpolatingParam id="2700" interp="linr"  time="0/1" value="1" leadInLength="0/1"  name="volume"/>
              <Parameter id="2701"  name="captions"/>
             </Parameters>
             <Attributes>
              <Attribute id="2702" value="" name="ident"/>
              <Attribute id="2703" value="44100" name="sampleRate"/>
              <Attribute id="2704" value="16" name="bitDepth"/>
              <Attribute id="2705" value="1" name="gain"/>
              <Attribute id="2706" value="0" name="mixToMono"/>
             </Attributes>
            </AMFile>
            <ScreenVMFile id="2707" start="8544" duration="318" scalar="1/1" mediaStart="20059/1" mediaDuration="318/1" trackNumber="0" src="4" >
             <Transformer>
              <VectorParam id="2708"  name="translation">
               <InterpolatingParam id="2709" interp="linr"  time="-9999999/1" value="0" leadInLength="0/1"  />
               <InterpolatingParam id="2710" interp="linr"  time="-9999999/1" value="0" leadInLength="0/1"  />
               <InterpolatingParam id="2711" interp="linr"  time="-9999999/1" value="0" leadInLength="0/1"  />
              </VectorParam>
              <VectorParam id="2712"  name="rotation">
               <InterpolatingParam id="2713" interp="linr"  time="-9999999/1" value="0" leadInLength="0/1"  />
               <InterpolatingParam id="2714" interp="linr"  time="-9999999/1" value="0" leadInLength="0/1"  />
               <InterpolatingParam id="2715" interp="linr"  time="-9999999/1" value="0" leadInLength="0/1"  />
              </VectorParam>
              <VectorParam id="2716"  name="shear">
               <InterpolatingParam id="2717" interp="linr"  time="-9999999/1" value="0" leadInLength="0/1"  />
               <InterpolatingParam id="2718" interp="linr"  time="-9999999/1" value="0" leadInLength="0/1"  />
               <InterpolatingParam id="2719" interp="linr"  time="-9999999/1" value="0" leadInLength="0/1"  />
              </VectorParam>
              <VectorParam id="2720"  name="scale">
               <InterpolatingParam id="2721" interp="linr"  time="-9999999/1" value="1" leadInLength="0/1"  />
               <InterpolatingParam id="2722" interp="linr"  time="-9999999/1" value="1" leadInLength="0/1"  />
               <InterpolatingParam id="2723" interp="linr"  time="-9999999/1" value="1" leadInLength="0/1"  />
              </VectorParam>
              <VectorParam id="2724"  name="anchor">
               <InterpolatingParam id="2725" interp="linr"  time="0/1" value="0" leadInLength="0/1"  />
               <InterpolatingParam id="2726" interp="linr"  time="0/1" value="0" leadInLength="0/1"  />
               <InterpolatingParam id="2727" interp="linr"  time="0/1" value="0" leadInLength="0/1"  />
              </VectorParam>
             </Transformer>
             <Parameters>
              <VectorParam id="2728"  name="sourceCrop">
               <InterpolatingParam id="2729" interp="linr"  time="0/1" value="0" leadInLength="0/1"  />
               <InterpolatingParam id="2730" interp="linr"  time="0/1" value="0" leadInLength="0/1"  />
               <InterpolatingParam id="2731" interp="linr"  time="0/1" value="0" leadInLength="0/1"  />
               <InterpolatingParam id="2732" interp="linr"  time="0/1" value="0" leadInLength="0/1"  />
              </VectorParam>
              <VectorParam id="2733"  name="geometryCrop">
               <InterpolatingParam id="2734" interp="linr"  time="-9999999/1" value="0" leadInLength="0/1"  />
               <InterpolatingParam id="2735" interp="linr"  time="-9999999/1" value="0" leadInLength="0/1"  />
               <InterpolatingParam id="2736" interp="linr"  time="-9999999/1" value="0" leadInLength="0/1"  />
               <InterpolatingParam id="2737" interp="linr"  time="-9999999/1" value="0" leadInLength="0/1"  />
              </VectorParam>
              <InterpolatingParam id="2738" interp="linr"  time="-9999999/1" value="1" leadInLength="0/1"  name="opacity"/>
              <InterpolatingParam id="2739" interp="linr"  time="0/1" value="0" leadInLength="0/1"  name="cursorOpacity"/>
              <InterpolatingParam id="2740" interp="linr"  time="0/1" value="0" leadInLength="0/1"  name="cursorScale"/>
             </Parameters>
             <Attributes>
              <Attribute id="2741" value="" name="ident"/>
             </Attributes>
             <ExtraData>
              <Entry key="ZoomPanBin">
               <ZoomPanBin id="2742"  >
                <ZoomPanKeyframes>
                 <ZoomPanKeyframe id="2743" timeRangeEnd="-9999999/1" timeRangeDuration="0/1" interpolaterName=""  />
                </ZoomPanKeyframes>
               </ZoomPanBin>
              </Entry>
              <Entry key="CursorEffectBin">
               <CursorEffectBin id="2744"  >
                <CursorEffectKeyframes>
                </CursorEffectKeyframes>
               </CursorEffectBin>
              </Entry>
             </ExtraData>
            </ScreenVMFile>
            <MetaData>
             <entry key="AutoAppliedSmartFocus" val="False"/>
             <entry key="WinSubProjectDisplayName" val=""/>
            </MetaData>
           </UnifiedMedia>
           <UnifiedMedia id="2745"  >
            <AMFile id="2746" start="8862" duration="255" scalar="1/1" mediaStart="20391/1" mediaDuration="255/1" trackNumber="1" src="4" channelNumber="0,1" >
             <Parameters>
              <InterpolatingParam id="2747" interp="linr"  time="0/1" value="1" leadInLength="0/1"  name="volume"/>
              <Parameter id="2748"  name="captions"/>
             </Parameters>
             <Attributes>
              <Attribute id="2749" value="" name="ident"/>
              <Attribute id="2750" value="44100" name="sampleRate"/>
              <Attribute id="2751" value="16" name="bitDepth"/>
              <Attribute id="2752" value="1" name="gain"/>
              <Attribute id="2753" value="0" name="mixToMono"/>
             </Attributes>
            </AMFile>
            <ScreenVMFile id="2754" start="8862" duration="255" scalar="1/1" mediaStart="20391/1" mediaDuration="255/1" trackNumber="0" src="4" >
             <Transformer>
              <VectorParam id="2755"  name="translation">
               <InterpolatingParam id="2756" interp="linr"  time="-9999999/1" value="0" leadInLength="0/1"  />
               <InterpolatingParam id="2757" interp="linr"  time="-9999999/1" value="0" leadInLength="0/1"  />
               <InterpolatingParam id="2758" interp="linr"  time="-9999999/1" value="0" leadInLength="0/1"  />
              </VectorParam>
              <VectorParam id="2759"  name="rotation">
               <InterpolatingParam id="2760" interp="linr"  time="-9999999/1" value="0" leadInLength="0/1"  />
               <InterpolatingParam id="2761" interp="linr"  time="-9999999/1" value="0" leadInLength="0/1"  />
               <InterpolatingParam id="2762" interp="linr"  time="-9999999/1" value="0" leadInLength="0/1"  />
              </VectorParam>
              <VectorParam id="2763"  name="shear">
               <InterpolatingParam id="2764" interp="linr"  time="-9999999/1" value="0" leadInLength="0/1"  />
               <InterpolatingParam id="2765" interp="linr"  time="-9999999/1" value="0" leadInLength="0/1"  />
               <InterpolatingParam id="2766" interp="linr"  time="-9999999/1" value="0" leadInLength="0/1"  />
              </VectorParam>
              <VectorParam id="2767"  name="scale">
               <InterpolatingParam id="2768" interp="linr"  time="-9999999/1" value="1" leadInLength="0/1"  />
               <InterpolatingParam id="2769" interp="linr"  time="-9999999/1" value="1" leadInLength="0/1"  />
               <InterpolatingParam id="2770" interp="linr"  time="-9999999/1" value="1" leadInLength="0/1"  />
              </VectorParam>
              <VectorParam id="2771"  name="anchor">
               <InterpolatingParam id="2772" interp="linr"  time="0/1" value="0" leadInLength="0/1"  />
               <InterpolatingParam id="2773" interp="linr"  time="0/1" value="0" leadInLength="0/1"  />
               <InterpolatingParam id="2774" interp="linr"  time="0/1" value="0" leadInLength="0/1"  />
              </VectorParam>
             </Transformer>
             <Parameters>
              <VectorParam id="2775"  name="sourceCrop">
               <InterpolatingParam id="2776" interp="linr"  time="0/1" value="0" leadInLength="0/1"  />
               <InterpolatingParam id="2777" interp="linr"  time="0/1" value="0" leadInLength="0/1"  />
               <InterpolatingParam id="2778" interp="linr"  time="0/1" value="0" leadInLength="0/1"  />
               <InterpolatingParam id="2779" interp="linr"  time="0/1" value="0" leadInLength="0/1"  />
              </VectorParam>
              <VectorParam id="2780"  name="geometryCrop">
               <InterpolatingParam id="2781" interp="linr"  time="-9999999/1" value="0" leadInLength="0/1"  />
               <InterpolatingParam id="2782" interp="linr"  time="-9999999/1" value="0" leadInLength="0/1"  />
               <InterpolatingParam id="2783" interp="linr"  time="-9999999/1" value="0" leadInLength="0/1"  />
               <InterpolatingParam id="2784" interp="linr"  time="-9999999/1" value="0" leadInLength="0/1"  />
              </VectorParam>
              <InterpolatingParam id="2785" interp="linr"  time="-9999999/1" value="1" leadInLength="0/1"  name="opacity"/>
              <InterpolatingParam id="2786" interp="linr"  time="0/1" value="0" leadInLength="0/1"  name="cursorOpacity"/>
              <InterpolatingParam id="2787" interp="linr"  time="0/1" value="0" leadInLength="0/1"  name="cursorScale"/>
             </Parameters>
             <Attributes>
              <Attribute id="2788" value="" name="ident"/>
             </Attributes>
             <ExtraData>
              <Entry key="ZoomPanBin">
               <ZoomPanBin id="2789"  >
                <ZoomPanKeyframes>
                 <ZoomPanKeyframe id="2790" timeRangeEnd="-9999999/1" timeRangeDuration="0/1" interpolaterName=""  />
                </ZoomPanKeyframes>
               </ZoomPanBin>
              </Entry>
              <Entry key="CursorEffectBin">
               <CursorEffectBin id="2791"  >
                <CursorEffectKeyframes>
                </CursorEffectKeyframes>
               </CursorEffectBin>
              </Entry>
             </ExtraData>
            </ScreenVMFile>
            <MetaData>
             <entry key="AutoAppliedSmartFocus" val="False"/>
             <entry key="WinSubProjectDisplayName" val=""/>
            </MetaData>
           </UnifiedMedia>
           <UnifiedMedia id="2792"  >
            <AMFile id="2793" start="9117" duration="552" scalar="1/1" mediaStart="20849/1" mediaDuration="552/1" trackNumber="1" src="4" channelNumber="0,1" >
             <Parameters>
              <InterpolatingParam id="2794" interp="linr"  time="0/1" value="1" leadInLength="0/1"  name="volume"/>
              <Parameter id="2795"  name="captions"/>
             </Parameters>
             <Attributes>
              <Attribute id="2796" value="" name="ident"/>
              <Attribute id="2797" value="44100" name="sampleRate"/>
              <Attribute id="2798" value="16" name="bitDepth"/>
              <Attribute id="2799" value="1" name="gain"/>
              <Attribute id="2800" value="0" name="mixToMono"/>
             </Attributes>
            </AMFile>
            <ScreenVMFile id="2801" start="9117" duration="552" scalar="1/1" mediaStart="20849/1" mediaDuration="552/1" trackNumber="0" src="4" >
             <Transformer>
              <VectorParam id="2802"  name="translation">
               <InterpolatingParam id="2803" interp="linr"  time="-9999999/1" value="0" leadInLength="0/1"  />
               <InterpolatingParam id="2804" interp="linr"  time="-9999999/1" value="0" leadInLength="0/1"  />
               <InterpolatingParam id="2805" interp="linr"  time="-9999999/1" value="0" leadInLength="0/1"  />
              </VectorParam>
              <VectorParam id="2806"  name="rotation">
               <InterpolatingParam id="2807" interp="linr"  time="-9999999/1" value="0" leadInLength="0/1"  />
               <InterpolatingParam id="2808" interp="linr"  time="-9999999/1" value="0" leadInLength="0/1"  />
               <InterpolatingParam id="2809" interp="linr"  time="-9999999/1" value="0" leadInLength="0/1"  />
              </VectorParam>
              <VectorParam id="2810"  name="shear">
               <InterpolatingParam id="2811" interp="linr"  time="-9999999/1" value="0" leadInLength="0/1"  />
               <InterpolatingParam id="2812" interp="linr"  time="-9999999/1" value="0" leadInLength="0/1"  />
               <InterpolatingParam id="2813" interp="linr"  time="-9999999/1" value="0" leadInLength="0/1"  />
              </VectorParam>
              <VectorParam id="2814"  name="scale">
               <InterpolatingParam id="2815" interp="linr"  time="-9999999/1" value="1" leadInLength="0/1"  />
               <InterpolatingParam id="2816" interp="linr"  time="-9999999/1" value="1" leadInLength="0/1"  />
               <InterpolatingParam id="2817" interp="linr"  time="-9999999/1" value="1" leadInLength="0/1"  />
              </VectorParam>
              <VectorParam id="2818"  name="anchor">
               <InterpolatingParam id="2819" interp="linr"  time="0/1" value="0" leadInLength="0/1"  />
               <InterpolatingParam id="2820" interp="linr"  time="0/1" value="0" leadInLength="0/1"  />
               <InterpolatingParam id="2821" interp="linr"  time="0/1" value="0" leadInLength="0/1"  />
              </VectorParam>
             </Transformer>
             <Parameters>
              <VectorParam id="2822"  name="sourceCrop">
               <InterpolatingParam id="2823" interp="linr"  time="0/1" value="0" leadInLength="0/1"  />
               <InterpolatingParam id="2824" interp="linr"  time="0/1" value="0" leadInLength="0/1"  />
               <InterpolatingParam id="2825" interp="linr"  time="0/1" value="0" leadInLength="0/1"  />
               <InterpolatingParam id="2826" interp="linr"  time="0/1" value="0" leadInLength="0/1"  />
              </VectorParam>
              <VectorParam id="2827"  name="geometryCrop">
               <InterpolatingParam id="2828" interp="linr"  time="-9999999/1" value="0" leadInLength="0/1"  />
               <InterpolatingParam id="2829" interp="linr"  time="-9999999/1" value="0" leadInLength="0/1"  />
               <InterpolatingParam id="2830" interp="linr"  time="-9999999/1" value="0" leadInLength="0/1"  />
               <InterpolatingParam id="2831" interp="linr"  time="-9999999/1" value="0" leadInLength="0/1"  />
              </VectorParam>
              <InterpolatingParam id="2832" interp="linr"  time="-9999999/1" value="1" leadInLength="0/1"  name="opacity"/>
              <InterpolatingParam id="2833" interp="linr"  time="0/1" value="0" leadInLength="0/1"  name="cursorOpacity"/>
              <InterpolatingParam id="2834" interp="linr"  time="0/1" value="0" leadInLength="0/1"  name="cursorScale"/>
             </Parameters>
             <Attributes>
              <Attribute id="2835" value="" name="ident"/>
             </Attributes>
             <ExtraData>
              <Entry key="ZoomPanBin">
               <ZoomPanBin id="2836"  >
                <ZoomPanKeyframes>
                 <ZoomPanKeyframe id="2837" timeRangeEnd="-9999999/1" timeRangeDuration="0/1" interpolaterName=""  />
                </ZoomPanKeyframes>
               </ZoomPanBin>
              </Entry>
              <Entry key="CursorEffectBin">
               <CursorEffectBin id="2838"  >
                <CursorEffectKeyframes>
                </CursorEffectKeyframes>
               </CursorEffectBin>
              </Entry>
             </ExtraData>
            </ScreenVMFile>
            <MetaData>
             <entry key="AutoAppliedSmartFocus" val="False"/>
             <entry key="WinSubProjectDisplayName" val=""/>
            </MetaData>
           </UnifiedMedia>
           <UnifiedMedia id="2839"  >
            <AMFile id="2840" start="9669" duration="99" scalar="1/1" mediaStart="21410/1" mediaDuration="99/1" trackNumber="1" src="4" channelNumber="0,1" >
             <Parameters>
              <InterpolatingParam id="2841" interp="linr"  time="0/1" value="1" leadInLength="0/1"  name="volume"/>
              <Parameter id="2842"  name="captions"/>
             </Parameters>
             <Attributes>
              <Attribute id="2843" value="" name="ident"/>
              <Attribute id="2844" value="44100" name="sampleRate"/>
              <Attribute id="2845" value="16" name="bitDepth"/>
              <Attribute id="2846" value="1" name="gain"/>
              <Attribute id="2847" value="0" name="mixToMono"/>
             </Attributes>
            </AMFile>
            <ScreenVMFile id="2848" start="9669" duration="99" scalar="1/1" mediaStart="21410/1" mediaDuration="99/1" trackNumber="0" src="4" >
             <Transformer>
              <VectorParam id="2849"  name="translation">
               <InterpolatingParam id="2850" interp="linr"  time="-9999999/1" value="0" leadInLength="0/1"  />
               <InterpolatingParam id="2851" interp="linr"  time="-9999999/1" value="0" leadInLength="0/1"  />
               <InterpolatingParam id="2852" interp="linr"  time="-9999999/1" value="0" leadInLength="0/1"  />
              </VectorParam>
              <VectorParam id="2853"  name="rotation">
               <InterpolatingParam id="2854" interp="linr"  time="-9999999/1" value="0" leadInLength="0/1"  />
               <InterpolatingParam id="2855" interp="linr"  time="-9999999/1" value="0" leadInLength="0/1"  />
               <InterpolatingParam id="2856" interp="linr"  time="-9999999/1" value="0" leadInLength="0/1"  />
              </VectorParam>
              <VectorParam id="2857"  name="shear">
               <InterpolatingParam id="2858" interp="linr"  time="-9999999/1" value="0" leadInLength="0/1"  />
               <InterpolatingParam id="2859" interp="linr"  time="-9999999/1" value="0" leadInLength="0/1"  />
               <InterpolatingParam id="2860" interp="linr"  time="-9999999/1" value="0" leadInLength="0/1"  />
              </VectorParam>
              <VectorParam id="2861"  name="scale">
               <InterpolatingParam id="2862" interp="linr"  time="-9999999/1" value="1" leadInLength="0/1"  />
               <InterpolatingParam id="2863" interp="linr"  time="-9999999/1" value="1" leadInLength="0/1"  />
               <InterpolatingParam id="2864" interp="linr"  time="-9999999/1" value="1" leadInLength="0/1"  />
              </VectorParam>
              <VectorParam id="2865"  name="anchor">
               <InterpolatingParam id="2866" interp="linr"  time="0/1" value="0" leadInLength="0/1"  />
               <InterpolatingParam id="2867" interp="linr"  time="0/1" value="0" leadInLength="0/1"  />
               <InterpolatingParam id="2868" interp="linr"  time="0/1" value="0" leadInLength="0/1"  />
              </VectorParam>
             </Transformer>
             <Parameters>
              <VectorParam id="2869"  name="sourceCrop">
               <InterpolatingParam id="2870" interp="linr"  time="0/1" value="0" leadInLength="0/1"  />
               <InterpolatingParam id="2871" interp="linr"  time="0/1" value="0" leadInLength="0/1"  />
               <InterpolatingParam id="2872" interp="linr"  time="0/1" value="0" leadInLength="0/1"  />
               <InterpolatingParam id="2873" interp="linr"  time="0/1" value="0" leadInLength="0/1"  />
              </VectorParam>
              <VectorParam id="2874"  name="geometryCrop">
               <InterpolatingParam id="2875" interp="linr"  time="-9999999/1" value="0" leadInLength="0/1"  />
               <InterpolatingParam id="2876" interp="linr"  time="-9999999/1" value="0" leadInLength="0/1"  />
               <InterpolatingParam id="2877" interp="linr"  time="-9999999/1" value="0" leadInLength="0/1"  />
               <InterpolatingParam id="2878" interp="linr"  time="-9999999/1" value="0" leadInLength="0/1"  />
              </VectorParam>
              <InterpolatingParam id="2879" interp="linr"  time="-9999999/1" value="1" leadInLength="0/1"  name="opacity"/>
              <InterpolatingParam id="2880" interp="linr"  time="0/1" value="0" leadInLength="0/1"  name="cursorOpacity"/>
              <InterpolatingParam id="2881" interp="linr"  time="0/1" value="0" leadInLength="0/1"  name="cursorScale"/>
             </Parameters>
             <Attributes>
              <Attribute id="2882" value="" name="ident"/>
             </Attributes>
             <ExtraData>
              <Entry key="ZoomPanBin">
               <ZoomPanBin id="2883"  >
                <ZoomPanKeyframes>
                 <ZoomPanKeyframe id="2884" timeRangeEnd="-9999999/1" timeRangeDuration="0/1" interpolaterName=""  />
                </ZoomPanKeyframes>
               </ZoomPanBin>
              </Entry>
              <Entry key="CursorEffectBin">
               <CursorEffectBin id="2885"  >
                <CursorEffectKeyframes>
                </CursorEffectKeyframes>
               </CursorEffectBin>
              </Entry>
             </ExtraData>
            </ScreenVMFile>
            <MetaData>
             <entry key="AutoAppliedSmartFocus" val="False"/>
             <entry key="WinSubProjectDisplayName" val=""/>
            </MetaData>
           </UnifiedMedia>
           <UnifiedMedia id="2886"  >
            <AMFile id="2887" start="9768" duration="77" scalar="1/1" mediaStart="21792/1" mediaDuration="77/1" trackNumber="1" src="4" channelNumber="0,1" >
             <Parameters>
              <InterpolatingParam id="2888" interp="linr"  time="0/1" value="1" leadInLength="0/1"  name="volume"/>
              <Parameter id="2889"  name="captions"/>
             </Parameters>
             <Attributes>
              <Attribute id="2890" value="" name="ident"/>
              <Attribute id="2891" value="44100" name="sampleRate"/>
              <Attribute id="2892" value="16" name="bitDepth"/>
              <Attribute id="2893" value="1" name="gain"/>
              <Attribute id="2894" value="0" name="mixToMono"/>
             </Attributes>
            </AMFile>
            <ScreenVMFile id="2895" start="9768" duration="77" scalar="1/1" mediaStart="21792/1" mediaDuration="77/1" trackNumber="0" src="4" >
             <Transformer>
              <VectorParam id="2896"  name="translation">
               <InterpolatingParam id="2897" interp="linr"  time="-9999999/1" value="0" leadInLength="0/1"  />
               <InterpolatingParam id="2898" interp="linr"  time="-9999999/1" value="0" leadInLength="0/1"  />
               <InterpolatingParam id="2899" interp="linr"  time="-9999999/1" value="0" leadInLength="0/1"  />
              </VectorParam>
              <VectorParam id="2900"  name="rotation">
               <InterpolatingParam id="2901" interp="linr"  time="-9999999/1" value="0" leadInLength="0/1"  />
               <InterpolatingParam id="2902" interp="linr"  time="-9999999/1" value="0" leadInLength="0/1"  />
               <InterpolatingParam id="2903" interp="linr"  time="-9999999/1" value="0" leadInLength="0/1"  />
              </VectorParam>
              <VectorParam id="2904"  name="shear">
               <InterpolatingParam id="2905" interp="linr"  time="-9999999/1" value="0" leadInLength="0/1"  />
               <InterpolatingParam id="2906" interp="linr"  time="-9999999/1" value="0" leadInLength="0/1"  />
               <InterpolatingParam id="2907" interp="linr"  time="-9999999/1" value="0" leadInLength="0/1"  />
              </VectorParam>
              <VectorParam id="2908"  name="scale">
               <InterpolatingParam id="2909" interp="linr"  time="-9999999/1" value="1" leadInLength="0/1"  />
               <InterpolatingParam id="2910" interp="linr"  time="-9999999/1" value="1" leadInLength="0/1"  />
               <InterpolatingParam id="2911" interp="linr"  time="-9999999/1" value="1" leadInLength="0/1"  />
              </VectorParam>
              <VectorParam id="2912"  name="anchor">
               <InterpolatingParam id="2913" interp="linr"  time="0/1" value="0" leadInLength="0/1"  />
               <InterpolatingParam id="2914" interp="linr"  time="0/1" value="0" leadInLength="0/1"  />
               <InterpolatingParam id="2915" interp="linr"  time="0/1" value="0" leadInLength="0/1"  />
              </VectorParam>
             </Transformer>
             <Parameters>
              <VectorParam id="2916"  name="sourceCrop">
               <InterpolatingParam id="2917" interp="linr"  time="0/1" value="0" leadInLength="0/1"  />
               <InterpolatingParam id="2918" interp="linr"  time="0/1" value="0" leadInLength="0/1"  />
               <InterpolatingParam id="2919" interp="linr"  time="0/1" value="0" leadInLength="0/1"  />
               <InterpolatingParam id="2920" interp="linr"  time="0/1" value="0" leadInLength="0/1"  />
              </VectorParam>
              <VectorParam id="2921"  name="geometryCrop">
               <InterpolatingParam id="2922" interp="linr"  time="-9999999/1" value="0" leadInLength="0/1"  />
               <InterpolatingParam id="2923" interp="linr"  time="-9999999/1" value="0" leadInLength="0/1"  />
               <InterpolatingParam id="2924" interp="linr"  time="-9999999/1" value="0" leadInLength="0/1"  />
               <InterpolatingParam id="2925" interp="linr"  time="-9999999/1" value="0" leadInLength="0/1"  />
              </VectorParam>
              <InterpolatingParam id="2926" interp="linr"  time="-9999999/1" value="1" leadInLength="0/1"  name="opacity"/>
              <InterpolatingParam id="2927" interp="linr"  time="0/1" value="0" leadInLength="0/1"  name="cursorOpacity"/>
              <InterpolatingParam id="2928" interp="linr"  time="0/1" value="0" leadInLength="0/1"  name="cursorScale"/>
             </Parameters>
             <Attributes>
              <Attribute id="2929" value="" name="ident"/>
             </Attributes>
             <ExtraData>
              <Entry key="ZoomPanBin">
               <ZoomPanBin id="2930"  >
                <ZoomPanKeyframes>
                 <ZoomPanKeyframe id="2931" timeRangeEnd="-9999999/1" timeRangeDuration="0/1" interpolaterName=""  />
                </ZoomPanKeyframes>
               </ZoomPanBin>
              </Entry>
              <Entry key="CursorEffectBin">
               <CursorEffectBin id="2932"  >
                <CursorEffectKeyframes>
                </CursorEffectKeyframes>
               </CursorEffectBin>
              </Entry>
             </ExtraData>
            </ScreenVMFile>
            <MetaData>
             <entry key="AutoAppliedSmartFocus" val="False"/>
             <entry key="WinSubProjectDisplayName" val=""/>
            </MetaData>
           </UnifiedMedia>
           <UnifiedMedia id="2933"  >
            <AMFile id="2934" start="9845" duration="146" scalar="1/1" mediaStart="21878/1" mediaDuration="146/1" trackNumber="1" src="4" channelNumber="0,1" >
             <Parameters>
              <InterpolatingParam id="2935" interp="linr"  time="0/1" value="1" leadInLength="0/1"  name="volume"/>
              <Parameter id="2936"  name="captions"/>
             </Parameters>
             <Attributes>
              <Attribute id="2937" value="" name="ident"/>
              <Attribute id="2938" value="44100" name="sampleRate"/>
              <Attribute id="2939" value="16" name="bitDepth"/>
              <Attribute id="2940" value="1" name="gain"/>
              <Attribute id="2941" value="0" name="mixToMono"/>
             </Attributes>
            </AMFile>
            <ScreenVMFile id="2942" start="9845" duration="146" scalar="1/1" mediaStart="21878/1" mediaDuration="146/1" trackNumber="0" src="4" >
             <Transformer>
              <VectorParam id="2943"  name="translation">
               <InterpolatingParam id="2944" interp="linr"  time="-9999999/1" value="0" leadInLength="0/1"  />
               <InterpolatingParam id="2945" interp="linr"  time="-9999999/1" value="0" leadInLength="0/1"  />
               <InterpolatingParam id="2946" interp="linr"  time="-9999999/1" value="0" leadInLength="0/1"  />
              </VectorParam>
              <VectorParam id="2947"  name="rotation">
               <InterpolatingParam id="2948" interp="linr"  time="-9999999/1" value="0" leadInLength="0/1"  />
               <InterpolatingParam id="2949" interp="linr"  time="-9999999/1" value="0" leadInLength="0/1"  />
               <InterpolatingParam id="2950" interp="linr"  time="-9999999/1" value="0" leadInLength="0/1"  />
              </VectorParam>
              <VectorParam id="2951"  name="shear">
               <InterpolatingParam id="2952" interp="linr"  time="-9999999/1" value="0" leadInLength="0/1"  />
               <InterpolatingParam id="2953" interp="linr"  time="-9999999/1" value="0" leadInLength="0/1"  />
               <InterpolatingParam id="2954" interp="linr"  time="-9999999/1" value="0" leadInLength="0/1"  />
              </VectorParam>
              <VectorParam id="2955"  name="scale">
               <InterpolatingParam id="2956" interp="linr"  time="-9999999/1" value="1" leadInLength="0/1"  />
               <InterpolatingParam id="2957" interp="linr"  time="-9999999/1" value="1" leadInLength="0/1"  />
               <InterpolatingParam id="2958" interp="linr"  time="-9999999/1" value="1" leadInLength="0/1"  />
              </VectorParam>
              <VectorParam id="2959"  name="anchor">
               <InterpolatingParam id="2960" interp="linr"  time="0/1" value="0" leadInLength="0/1"  />
               <InterpolatingParam id="2961" interp="linr"  time="0/1" value="0" leadInLength="0/1"  />
               <InterpolatingParam id="2962" interp="linr"  time="0/1" value="0" leadInLength="0/1"  />
              </VectorParam>
             </Transformer>
             <Parameters>
              <VectorParam id="2963"  name="sourceCrop">
               <InterpolatingParam id="2964" interp="linr"  time="0/1" value="0" leadInLength="0/1"  />
               <InterpolatingParam id="2965" interp="linr"  time="0/1" value="0" leadInLength="0/1"  />
               <InterpolatingParam id="2966" interp="linr"  time="0/1" value="0" leadInLength="0/1"  />
               <InterpolatingParam id="2967" interp="linr"  time="0/1" value="0" leadInLength="0/1"  />
              </VectorParam>
              <VectorParam id="2968"  name="geometryCrop">
               <InterpolatingParam id="2969" interp="linr"  time="-9999999/1" value="0" leadInLength="0/1"  />
               <InterpolatingParam id="2970" interp="linr"  time="-9999999/1" value="0" leadInLength="0/1"  />
               <InterpolatingParam id="2971" interp="linr"  time="-9999999/1" value="0" leadInLength="0/1"  />
               <InterpolatingParam id="2972" interp="linr"  time="-9999999/1" value="0" leadInLength="0/1"  />
              </VectorParam>
              <InterpolatingParam id="2973" interp="linr"  time="-9999999/1" value="1" leadInLength="0/1"  name="opacity"/>
              <InterpolatingParam id="2974" interp="linr"  time="0/1" value="0" leadInLength="0/1"  name="cursorOpacity"/>
              <InterpolatingParam id="2975" interp="linr"  time="0/1" value="0" leadInLength="0/1"  name="cursorScale"/>
             </Parameters>
             <Attributes>
              <Attribute id="2976" value="" name="ident"/>
             </Attributes>
             <ExtraData>
              <Entry key="ZoomPanBin">
               <ZoomPanBin id="2977"  >
                <ZoomPanKeyframes>
                 <ZoomPanKeyframe id="2978" timeRangeEnd="-9999999/1" timeRangeDuration="0/1" interpolaterName=""  />
                </ZoomPanKeyframes>
               </ZoomPanBin>
              </Entry>
              <Entry key="CursorEffectBin">
               <CursorEffectBin id="2979"  >
                <CursorEffectKeyframes>
                </CursorEffectKeyframes>
               </CursorEffectBin>
              </Entry>
             </ExtraData>
            </ScreenVMFile>
            <MetaData>
             <entry key="AutoAppliedSmartFocus" val="False"/>
             <entry key="WinSubProjectDisplayName" val=""/>
            </MetaData>
           </UnifiedMedia>
           <UnifiedMedia id="2980"  >
            <AMFile id="2981" start="9991" duration="142" scalar="1/1" mediaStart="22640/1" mediaDuration="142/1" trackNumber="1" src="4" channelNumber="0,1" >
             <Parameters>
              <InterpolatingParam id="2982" interp="linr"  time="0/1" value="1" leadInLength="0/1"  name="volume"/>
              <Parameter id="2983"  name="captions"/>
             </Parameters>
             <Attributes>
              <Attribute id="2984" value="" name="ident"/>
              <Attribute id="2985" value="44100" name="sampleRate"/>
              <Attribute id="2986" value="16" name="bitDepth"/>
              <Attribute id="2987" value="1" name="gain"/>
              <Attribute id="2988" value="0" name="mixToMono"/>
             </Attributes>
            </AMFile>
            <ScreenVMFile id="2989" start="9991" duration="142" scalar="1/1" mediaStart="22640/1" mediaDuration="142/1" trackNumber="0" src="4" >
             <Transformer>
              <VectorParam id="2990"  name="translation">
               <InterpolatingParam id="2991" interp="linr"  time="-9999999/1" value="0" leadInLength="0/1"  />
               <InterpolatingParam id="2992" interp="linr"  time="-9999999/1" value="0" leadInLength="0/1"  />
               <InterpolatingParam id="2993" interp="linr"  time="-9999999/1" value="0" leadInLength="0/1"  />
              </VectorParam>
              <VectorParam id="2994"  name="rotation">
               <InterpolatingParam id="2995" interp="linr"  time="-9999999/1" value="0" leadInLength="0/1"  />
               <InterpolatingParam id="2996" interp="linr"  time="-9999999/1" value="0" leadInLength="0/1"  />
               <InterpolatingParam id="2997" interp="linr"  time="-9999999/1" value="0" leadInLength="0/1"  />
              </VectorParam>
              <VectorParam id="2998"  name="shear">
               <InterpolatingParam id="2999" interp="linr"  time="-9999999/1" value="0" leadInLength="0/1"  />
               <InterpolatingParam id="3000" interp="linr"  time="-9999999/1" value="0" leadInLength="0/1"  />
               <InterpolatingParam id="3001" interp="linr"  time="-9999999/1" value="0" leadInLength="0/1"  />
              </VectorParam>
              <VectorParam id="3002"  name="scale">
               <InterpolatingParam id="3003" interp="linr"  time="-9999999/1" value="1" leadInLength="0/1"  />
               <InterpolatingParam id="3004" interp="linr"  time="-9999999/1" value="1" leadInLength="0/1"  />
               <InterpolatingParam id="3005" interp="linr"  time="-9999999/1" value="1" leadInLength="0/1"  />
              </VectorParam>
              <VectorParam id="3006"  name="anchor">
               <InterpolatingParam id="3007" interp="linr"  time="0/1" value="0" leadInLength="0/1"  />
               <InterpolatingParam id="3008" interp="linr"  time="0/1" value="0" leadInLength="0/1"  />
               <InterpolatingParam id="3009" interp="linr"  time="0/1" value="0" leadInLength="0/1"  />
              </VectorParam>
             </Transformer>
             <Parameters>
              <VectorParam id="3010"  name="sourceCrop">
               <InterpolatingParam id="3011" interp="linr"  time="0/1" value="0" leadInLength="0/1"  />
               <InterpolatingParam id="3012" interp="linr"  time="0/1" value="0" leadInLength="0/1"  />
               <InterpolatingParam id="3013" interp="linr"  time="0/1" value="0" leadInLength="0/1"  />
               <InterpolatingParam id="3014" interp="linr"  time="0/1" value="0" leadInLength="0/1"  />
              </VectorParam>
              <VectorParam id="3015"  name="geometryCrop">
               <InterpolatingParam id="3016" interp="linr"  time="-9999999/1" value="0" leadInLength="0/1"  />
               <InterpolatingParam id="3017" interp="linr"  time="-9999999/1" value="0" leadInLength="0/1"  />
               <InterpolatingParam id="3018" interp="linr"  time="-9999999/1" value="0" leadInLength="0/1"  />
               <InterpolatingParam id="3019" interp="linr"  time="-9999999/1" value="0" leadInLength="0/1"  />
              </VectorParam>
              <InterpolatingParam id="3020" interp="linr"  time="-9999999/1" value="1" leadInLength="0/1"  name="opacity"/>
              <InterpolatingParam id="3021" interp="linr"  time="0/1" value="0" leadInLength="0/1"  name="cursorOpacity"/>
              <InterpolatingParam id="3022" interp="linr"  time="0/1" value="0" leadInLength="0/1"  name="cursorScale"/>
             </Parameters>
             <Attributes>
              <Attribute id="3023" value="" name="ident"/>
             </Attributes>
             <ExtraData>
              <Entry key="ZoomPanBin">
               <ZoomPanBin id="3024"  >
                <ZoomPanKeyframes>
                 <ZoomPanKeyframe id="3025" timeRangeEnd="-9999999/1" timeRangeDuration="0/1" interpolaterName=""  />
                </ZoomPanKeyframes>
               </ZoomPanBin>
              </Entry>
              <Entry key="CursorEffectBin">
               <CursorEffectBin id="3026"  >
                <CursorEffectKeyframes>
                </CursorEffectKeyframes>
               </CursorEffectBin>
              </Entry>
             </ExtraData>
            </ScreenVMFile>
            <MetaData>
             <entry key="AutoAppliedSmartFocus" val="False"/>
             <entry key="WinSubProjectDisplayName" val=""/>
            </MetaData>
           </UnifiedMedia>
           <UnifiedMedia id="3027"  >
            <AMFile id="3028" start="10133" duration="71" scalar="1/1" mediaStart="22796/1" mediaDuration="71/1" trackNumber="1" src="4" channelNumber="0,1" >
             <Parameters>
              <InterpolatingParam id="3029" interp="linr"  time="0/1" value="1" leadInLength="0/1"  name="volume"/>
              <Parameter id="3030"  name="captions"/>
             </Parameters>
             <Attributes>
              <Attribute id="3031" value="" name="ident"/>
              <Attribute id="3032" value="44100" name="sampleRate"/>
              <Attribute id="3033" value="16" name="bitDepth"/>
              <Attribute id="3034" value="1" name="gain"/>
              <Attribute id="3035" value="0" name="mixToMono"/>
             </Attributes>
            </AMFile>
            <ScreenVMFile id="3036" start="10133" duration="71" scalar="1/1" mediaStart="22796/1" mediaDuration="71/1" trackNumber="0" src="4" >
             <Transformer>
              <VectorParam id="3037"  name="translation">
               <InterpolatingParam id="3038" interp="linr"  time="-9999999/1" value="0" leadInLength="0/1"  />
               <InterpolatingParam id="3039" interp="linr"  time="-9999999/1" value="0" leadInLength="0/1"  />
               <InterpolatingParam id="3040" interp="linr"  time="-9999999/1" value="0" leadInLength="0/1"  />
              </VectorParam>
              <VectorParam id="3041"  name="rotation">
               <InterpolatingParam id="3042" interp="linr"  time="-9999999/1" value="0" leadInLength="0/1"  />
               <InterpolatingParam id="3043" interp="linr"  time="-9999999/1" value="0" leadInLength="0/1"  />
               <InterpolatingParam id="3044" interp="linr"  time="-9999999/1" value="0" leadInLength="0/1"  />
              </VectorParam>
              <VectorParam id="3045"  name="shear">
               <InterpolatingParam id="3046" interp="linr"  time="-9999999/1" value="0" leadInLength="0/1"  />
               <InterpolatingParam id="3047" interp="linr"  time="-9999999/1" value="0" leadInLength="0/1"  />
               <InterpolatingParam id="3048" interp="linr"  time="-9999999/1" value="0" leadInLength="0/1"  />
              </VectorParam>
              <VectorParam id="3049"  name="scale">
               <InterpolatingParam id="3050" interp="linr"  time="-9999999/1" value="1" leadInLength="0/1"  />
               <InterpolatingParam id="3051" interp="linr"  time="-9999999/1" value="1" leadInLength="0/1"  />
               <InterpolatingParam id="3052" interp="linr"  time="-9999999/1" value="1" leadInLength="0/1"  />
              </VectorParam>
              <VectorParam id="3053"  name="anchor">
               <InterpolatingParam id="3054" interp="linr"  time="0/1" value="0" leadInLength="0/1"  />
               <InterpolatingParam id="3055" interp="linr"  time="0/1" value="0" leadInLength="0/1"  />
               <InterpolatingParam id="3056" interp="linr"  time="0/1" value="0" leadInLength="0/1"  />
              </VectorParam>
             </Transformer>
             <Parameters>
              <VectorParam id="3057"  name="sourceCrop">
               <InterpolatingParam id="3058" interp="linr"  time="0/1" value="0" leadInLength="0/1"  />
               <InterpolatingParam id="3059" interp="linr"  time="0/1" value="0" leadInLength="0/1"  />
               <InterpolatingParam id="3060" interp="linr"  time="0/1" value="0" leadInLength="0/1"  />
               <InterpolatingParam id="3061" interp="linr"  time="0/1" value="0" leadInLength="0/1"  />
              </VectorParam>
              <VectorParam id="3062"  name="geometryCrop">
               <InterpolatingParam id="3063" interp="linr"  time="-9999999/1" value="0" leadInLength="0/1"  />
               <InterpolatingParam id="3064" interp="linr"  time="-9999999/1" value="0" leadInLength="0/1"  />
               <InterpolatingParam id="3065" interp="linr"  time="-9999999/1" value="0" leadInLength="0/1"  />
               <InterpolatingParam id="3066" interp="linr"  time="-9999999/1" value="0" leadInLength="0/1"  />
              </VectorParam>
              <InterpolatingParam id="3067" interp="linr"  time="-9999999/1" value="1" leadInLength="0/1"  name="opacity"/>
              <InterpolatingParam id="3068" interp="linr"  time="0/1" value="0" leadInLength="0/1"  name="cursorOpacity"/>
              <InterpolatingParam id="3069" interp="linr"  time="0/1" value="0" leadInLength="0/1"  name="cursorScale"/>
             </Parameters>
             <Attributes>
              <Attribute id="3070" value="" name="ident"/>
             </Attributes>
             <ExtraData>
              <Entry key="ZoomPanBin">
               <ZoomPanBin id="3071"  >
                <ZoomPanKeyframes>
                 <ZoomPanKeyframe id="3072" timeRangeEnd="-9999999/1" timeRangeDuration="0/1" interpolaterName=""  />
                </ZoomPanKeyframes>
               </ZoomPanBin>
              </Entry>
              <Entry key="CursorEffectBin">
               <CursorEffectBin id="3073"  >
                <CursorEffectKeyframes>
                </CursorEffectKeyframes>
               </CursorEffectBin>
              </Entry>
             </ExtraData>
            </ScreenVMFile>
            <MetaData>
             <entry key="AutoAppliedSmartFocus" val="False"/>
             <entry key="WinSubProjectDisplayName" val=""/>
            </MetaData>
           </UnifiedMedia>
           <UnifiedMedia id="3074"  >
            <AMFile id="3075" start="10204" duration="64" scalar="1/1" mediaStart="22875/1" mediaDuration="64/1" trackNumber="1" src="4" channelNumber="0,1" >
             <Parameters>
              <InterpolatingParam id="3076" interp="linr"  time="0/1" value="1" leadInLength="0/1"  name="volume"/>
              <Parameter id="3077"  name="captions"/>
             </Parameters>
             <Attributes>
              <Attribute id="3078" value="" name="ident"/>
              <Attribute id="3079" value="44100" name="sampleRate"/>
              <Attribute id="3080" value="16" name="bitDepth"/>
              <Attribute id="3081" value="1" name="gain"/>
              <Attribute id="3082" value="0" name="mixToMono"/>
             </Attributes>
            </AMFile>
            <ScreenVMFile id="3083" start="10204" duration="64" scalar="1/1" mediaStart="22875/1" mediaDuration="64/1" trackNumber="0" src="4" >
             <Transformer>
              <VectorParam id="3084"  name="translation">
               <InterpolatingParam id="3085" interp="linr"  time="-9999999/1" value="0" leadInLength="0/1"  />
               <InterpolatingParam id="3086" interp="linr"  time="-9999999/1" value="0" leadInLength="0/1"  />
               <InterpolatingParam id="3087" interp="linr"  time="-9999999/1" value="0" leadInLength="0/1"  />
              </VectorParam>
              <VectorParam id="3088"  name="rotation">
               <InterpolatingParam id="3089" interp="linr"  time="-9999999/1" value="0" leadInLength="0/1"  />
               <InterpolatingParam id="3090" interp="linr"  time="-9999999/1" value="0" leadInLength="0/1"  />
               <InterpolatingParam id="3091" interp="linr"  time="-9999999/1" value="0" leadInLength="0/1"  />
              </VectorParam>
              <VectorParam id="3092"  name="shear">
               <InterpolatingParam id="3093" interp="linr"  time="-9999999/1" value="0" leadInLength="0/1"  />
               <InterpolatingParam id="3094" interp="linr"  time="-9999999/1" value="0" leadInLength="0/1"  />
               <InterpolatingParam id="3095" interp="linr"  time="-9999999/1" value="0" leadInLength="0/1"  />
              </VectorParam>
              <VectorParam id="3096"  name="scale">
               <InterpolatingParam id="3097" interp="linr"  time="-9999999/1" value="1" leadInLength="0/1"  />
               <InterpolatingParam id="3098" interp="linr"  time="-9999999/1" value="1" leadInLength="0/1"  />
               <InterpolatingParam id="3099" interp="linr"  time="-9999999/1" value="1" leadInLength="0/1"  />
              </VectorParam>
              <VectorParam id="3100"  name="anchor">
               <InterpolatingParam id="3101" interp="linr"  time="0/1" value="0" leadInLength="0/1"  />
               <InterpolatingParam id="3102" interp="linr"  time="0/1" value="0" leadInLength="0/1"  />
               <InterpolatingParam id="3103" interp="linr"  time="0/1" value="0" leadInLength="0/1"  />
              </VectorParam>
             </Transformer>
             <Parameters>
              <VectorParam id="3104"  name="sourceCrop">
               <InterpolatingParam id="3105" interp="linr"  time="0/1" value="0" leadInLength="0/1"  />
               <InterpolatingParam id="3106" interp="linr"  time="0/1" value="0" leadInLength="0/1"  />
               <InterpolatingParam id="3107" interp="linr"  time="0/1" value="0" leadInLength="0/1"  />
               <InterpolatingParam id="3108" interp="linr"  time="0/1" value="0" leadInLength="0/1"  />
              </VectorParam>
              <VectorParam id="3109"  name="geometryCrop">
               <InterpolatingParam id="3110" interp="linr"  time="-9999999/1" value="0" leadInLength="0/1"  />
               <InterpolatingParam id="3111" interp="linr"  time="-9999999/1" value="0" leadInLength="0/1"  />
               <InterpolatingParam id="3112" interp="linr"  time="-9999999/1" value="0" leadInLength="0/1"  />
               <InterpolatingParam id="3113" interp="linr"  time="-9999999/1" value="0" leadInLength="0/1"  />
              </VectorParam>
              <InterpolatingParam id="3114" interp="linr"  time="-9999999/1" value="1" leadInLength="0/1"  name="opacity"/>
              <InterpolatingParam id="3115" interp="linr"  time="0/1" value="0" leadInLength="0/1"  name="cursorOpacity"/>
              <InterpolatingParam id="3116" interp="linr"  time="0/1" value="0" leadInLength="0/1"  name="cursorScale"/>
             </Parameters>
             <Attributes>
              <Attribute id="3117" value="" name="ident"/>
             </Attributes>
             <ExtraData>
              <Entry key="ZoomPanBin">
               <ZoomPanBin id="3118"  >
                <ZoomPanKeyframes>
                 <ZoomPanKeyframe id="3119" timeRangeEnd="-9999999/1" timeRangeDuration="0/1" interpolaterName=""  />
                </ZoomPanKeyframes>
               </ZoomPanBin>
              </Entry>
              <Entry key="CursorEffectBin">
               <CursorEffectBin id="3120"  >
                <CursorEffectKeyframes>
                </CursorEffectKeyframes>
               </CursorEffectBin>
              </Entry>
             </ExtraData>
            </ScreenVMFile>
            <MetaData>
             <entry key="AutoAppliedSmartFocus" val="False"/>
             <entry key="WinSubProjectDisplayName" val=""/>
            </MetaData>
           </UnifiedMedia>
           <UnifiedMedia id="3121"  >
            <AMFile id="3122" start="10268" duration="26" scalar="1/1" mediaStart="22945/1" mediaDuration="26/1" trackNumber="1" src="4" channelNumber="0,1" >
             <Parameters>
              <InterpolatingParam id="3123" interp="linr"  time="0/1" value="1" leadInLength="0/1"  name="volume"/>
              <Parameter id="3124"  name="captions"/>
             </Parameters>
             <Attributes>
              <Attribute id="3125" value="" name="ident"/>
              <Attribute id="3126" value="44100" name="sampleRate"/>
              <Attribute id="3127" value="16" name="bitDepth"/>
              <Attribute id="3128" value="1" name="gain"/>
              <Attribute id="3129" value="0" name="mixToMono"/>
             </Attributes>
            </AMFile>
            <ScreenVMFile id="3130" start="10268" duration="26" scalar="1/1" mediaStart="22945/1" mediaDuration="26/1" trackNumber="0" src="4" >
             <Transformer>
              <VectorParam id="3131"  name="translation">
               <InterpolatingParam id="3132" interp="linr"  time="-9999999/1" value="0" leadInLength="0/1"  />
               <InterpolatingParam id="3133" interp="linr"  time="-9999999/1" value="0" leadInLength="0/1"  />
               <InterpolatingParam id="3134" interp="linr"  time="-9999999/1" value="0" leadInLength="0/1"  />
              </VectorParam>
              <VectorParam id="3135"  name="rotation">
               <InterpolatingParam id="3136" interp="linr"  time="-9999999/1" value="0" leadInLength="0/1"  />
               <InterpolatingParam id="3137" interp="linr"  time="-9999999/1" value="0" leadInLength="0/1"  />
               <InterpolatingParam id="3138" interp="linr"  time="-9999999/1" value="0" leadInLength="0/1"  />
              </VectorParam>
              <VectorParam id="3139"  name="shear">
               <InterpolatingParam id="3140" interp="linr"  time="-9999999/1" value="0" leadInLength="0/1"  />
               <InterpolatingParam id="3141" interp="linr"  time="-9999999/1" value="0" leadInLength="0/1"  />
               <InterpolatingParam id="3142" interp="linr"  time="-9999999/1" value="0" leadInLength="0/1"  />
              </VectorParam>
              <VectorParam id="3143"  name="scale">
               <InterpolatingParam id="3144" interp="linr"  time="-9999999/1" value="1" leadInLength="0/1"  />
               <InterpolatingParam id="3145" interp="linr"  time="-9999999/1" value="1" leadInLength="0/1"  />
               <InterpolatingParam id="3146" interp="linr"  time="-9999999/1" value="1" leadInLength="0/1"  />
              </VectorParam>
              <VectorParam id="3147"  name="anchor">
               <InterpolatingParam id="3148" interp="linr"  time="0/1" value="0" leadInLength="0/1"  />
               <InterpolatingParam id="3149" interp="linr"  time="0/1" value="0" leadInLength="0/1"  />
               <InterpolatingParam id="3150" interp="linr"  time="0/1" value="0" leadInLength="0/1"  />
              </VectorParam>
             </Transformer>
             <Parameters>
              <VectorParam id="3151"  name="sourceCrop">
               <InterpolatingParam id="3152" interp="linr"  time="0/1" value="0" leadInLength="0/1"  />
               <InterpolatingParam id="3153" interp="linr"  time="0/1" value="0" leadInLength="0/1"  />
               <InterpolatingParam id="3154" interp="linr"  time="0/1" value="0" leadInLength="0/1"  />
               <InterpolatingParam id="3155" interp="linr"  time="0/1" value="0" leadInLength="0/1"  />
              </VectorParam>
              <VectorParam id="3156"  name="geometryCrop">
               <InterpolatingParam id="3157" interp="linr"  time="-9999999/1" value="0" leadInLength="0/1"  />
               <InterpolatingParam id="3158" interp="linr"  time="-9999999/1" value="0" leadInLength="0/1"  />
               <InterpolatingParam id="3159" interp="linr"  time="-9999999/1" value="0" leadInLength="0/1"  />
               <InterpolatingParam id="3160" interp="linr"  time="-9999999/1" value="0" leadInLength="0/1"  />
              </VectorParam>
              <InterpolatingParam id="3161" interp="linr"  time="-9999999/1" value="1" leadInLength="0/1"  name="opacity"/>
              <InterpolatingParam id="3162" interp="linr"  time="0/1" value="0" leadInLength="0/1"  name="cursorOpacity"/>
              <InterpolatingParam id="3163" interp="linr"  time="0/1" value="0" leadInLength="0/1"  name="cursorScale"/>
             </Parameters>
             <Attributes>
              <Attribute id="3164" value="" name="ident"/>
             </Attributes>
             <ExtraData>
              <Entry key="ZoomPanBin">
               <ZoomPanBin id="3165"  >
                <ZoomPanKeyframes>
                 <ZoomPanKeyframe id="3166" timeRangeEnd="-9999999/1" timeRangeDuration="0/1" interpolaterName=""  />
                </ZoomPanKeyframes>
               </ZoomPanBin>
              </Entry>
              <Entry key="CursorEffectBin">
               <CursorEffectBin id="3167"  >
                <CursorEffectKeyframes>
                </CursorEffectKeyframes>
               </CursorEffectBin>
              </Entry>
             </ExtraData>
            </ScreenVMFile>
            <MetaData>
             <entry key="AutoAppliedSmartFocus" val="False"/>
             <entry key="WinSubProjectDisplayName" val=""/>
            </MetaData>
           </UnifiedMedia>
           <UnifiedMedia id="3168"  >
            <AMFile id="3169" start="10294" duration="366" scalar="1/1" mediaStart="22983/1" mediaDuration="366/1" trackNumber="1" src="4" channelNumber="0,1" >
             <Parameters>
              <InterpolatingParam id="3170" interp="linr"  time="0/1" value="1" leadInLength="0/1"  name="volume"/>
              <Parameter id="3171"  name="captions"/>
             </Parameters>
             <Attributes>
              <Attribute id="3172" value="" name="ident"/>
              <Attribute id="3173" value="44100" name="sampleRate"/>
              <Attribute id="3174" value="16" name="bitDepth"/>
              <Attribute id="3175" value="1" name="gain"/>
              <Attribute id="3176" value="0" name="mixToMono"/>
             </Attributes>
            </AMFile>
            <ScreenVMFile id="3177" start="10294" duration="366" scalar="1/1" mediaStart="22983/1" mediaDuration="366/1" trackNumber="0" src="4" >
             <Transformer>
              <VectorParam id="3178"  name="translation">
               <InterpolatingParam id="3179" interp="linr"  time="-9999999/1" value="0" leadInLength="0/1"  />
               <InterpolatingParam id="3180" interp="linr"  time="-9999999/1" value="0" leadInLength="0/1"  />
               <InterpolatingParam id="3181" interp="linr"  time="-9999999/1" value="0" leadInLength="0/1"  />
              </VectorParam>
              <VectorParam id="3182"  name="rotation">
               <InterpolatingParam id="3183" interp="linr"  time="-9999999/1" value="0" leadInLength="0/1"  />
               <InterpolatingParam id="3184" interp="linr"  time="-9999999/1" value="0" leadInLength="0/1"  />
               <InterpolatingParam id="3185" interp="linr"  time="-9999999/1" value="0" leadInLength="0/1"  />
              </VectorParam>
              <VectorParam id="3186"  name="shear">
               <InterpolatingParam id="3187" interp="linr"  time="-9999999/1" value="0" leadInLength="0/1"  />
               <InterpolatingParam id="3188" interp="linr"  time="-9999999/1" value="0" leadInLength="0/1"  />
               <InterpolatingParam id="3189" interp="linr"  time="-9999999/1" value="0" leadInLength="0/1"  />
              </VectorParam>
              <VectorParam id="3190"  name="scale">
               <InterpolatingParam id="3191" interp="linr"  time="-9999999/1" value="1" leadInLength="0/1"  />
               <InterpolatingParam id="3192" interp="linr"  time="-9999999/1" value="1" leadInLength="0/1"  />
               <InterpolatingParam id="3193" interp="linr"  time="-9999999/1" value="1" leadInLength="0/1"  />
              </VectorParam>
              <VectorParam id="3194"  name="anchor">
               <InterpolatingParam id="3195" interp="linr"  time="0/1" value="0" leadInLength="0/1"  />
               <InterpolatingParam id="3196" interp="linr"  time="0/1" value="0" leadInLength="0/1"  />
               <InterpolatingParam id="3197" interp="linr"  time="0/1" value="0" leadInLength="0/1"  />
              </VectorParam>
             </Transformer>
             <Parameters>
              <VectorParam id="3198"  name="sourceCrop">
               <InterpolatingParam id="3199" interp="linr"  time="0/1" value="0" leadInLength="0/1"  />
               <InterpolatingParam id="3200" interp="linr"  time="0/1" value="0" leadInLength="0/1"  />
               <InterpolatingParam id="3201" interp="linr"  time="0/1" value="0" leadInLength="0/1"  />
               <InterpolatingParam id="3202" interp="linr"  time="0/1" value="0" leadInLength="0/1"  />
              </VectorParam>
              <VectorParam id="3203"  name="geometryCrop">
               <InterpolatingParam id="3204" interp="linr"  time="-9999999/1" value="0" leadInLength="0/1"  />
               <InterpolatingParam id="3205" interp="linr"  time="-9999999/1" value="0" leadInLength="0/1"  />
               <InterpolatingParam id="3206" interp="linr"  time="-9999999/1" value="0" leadInLength="0/1"  />
               <InterpolatingParam id="3207" interp="linr"  time="-9999999/1" value="0" leadInLength="0/1"  />
              </VectorParam>
              <InterpolatingParam id="3208" interp="linr"  time="-9999999/1" value="1" leadInLength="0/1"  name="opacity"/>
              <InterpolatingParam id="3209" interp="linr"  time="0/1" value="0" leadInLength="0/1"  name="cursorOpacity"/>
              <InterpolatingParam id="3210" interp="linr"  time="0/1" value="0" leadInLength="0/1"  name="cursorScale"/>
             </Parameters>
             <Attributes>
              <Attribute id="3211" value="" name="ident"/>
             </Attributes>
             <ExtraData>
              <Entry key="ZoomPanBin">
               <ZoomPanBin id="3212"  >
                <ZoomPanKeyframes>
                 <ZoomPanKeyframe id="3213" timeRangeEnd="-9999999/1" timeRangeDuration="0/1" interpolaterName=""  />
                </ZoomPanKeyframes>
               </ZoomPanBin>
              </Entry>
              <Entry key="CursorEffectBin">
               <CursorEffectBin id="3214"  >
                <CursorEffectKeyframes>
                </CursorEffectKeyframes>
               </CursorEffectBin>
              </Entry>
             </ExtraData>
            </ScreenVMFile>
            <MetaData>
             <entry key="AutoAppliedSmartFocus" val="False"/>
             <entry key="WinSubProjectDisplayName" val=""/>
            </MetaData>
           </UnifiedMedia>
           <UnifiedMedia id="3215"  >
            <AMFile id="3216" start="10660" duration="43" scalar="1/1" mediaStart="23360/1" mediaDuration="43/1" trackNumber="1" src="4" channelNumber="0,1" >
             <Parameters>
              <InterpolatingParam id="3217" interp="linr"  time="0/1" value="1" leadInLength="0/1"  name="volume"/>
              <Parameter id="3218"  name="captions"/>
             </Parameters>
             <Attributes>
              <Attribute id="3219" value="" name="ident"/>
              <Attribute id="3220" value="44100" name="sampleRate"/>
              <Attribute id="3221" value="16" name="bitDepth"/>
              <Attribute id="3222" value="1" name="gain"/>
              <Attribute id="3223" value="0" name="mixToMono"/>
             </Attributes>
            </AMFile>
            <ScreenVMFile id="3224" start="10660" duration="43" scalar="1/1" mediaStart="23360/1" mediaDuration="43/1" trackNumber="0" src="4" >
             <Transformer>
              <VectorParam id="3225"  name="translation">
               <InterpolatingParam id="3226" interp="linr"  time="-9999999/1" value="0" leadInLength="0/1"  />
               <InterpolatingParam id="3227" interp="linr"  time="-9999999/1" value="0" leadInLength="0/1"  />
               <InterpolatingParam id="3228" interp="linr"  time="-9999999/1" value="0" leadInLength="0/1"  />
              </VectorParam>
              <VectorParam id="3229"  name="rotation">
               <InterpolatingParam id="3230" interp="linr"  time="-9999999/1" value="0" leadInLength="0/1"  />
               <InterpolatingParam id="3231" interp="linr"  time="-9999999/1" value="0" leadInLength="0/1"  />
               <InterpolatingParam id="3232" interp="linr"  time="-9999999/1" value="0" leadInLength="0/1"  />
              </VectorParam>
              <VectorParam id="3233"  name="shear">
               <InterpolatingParam id="3234" interp="linr"  time="-9999999/1" value="0" leadInLength="0/1"  />
               <InterpolatingParam id="3235" interp="linr"  time="-9999999/1" value="0" leadInLength="0/1"  />
               <InterpolatingParam id="3236" interp="linr"  time="-9999999/1" value="0" leadInLength="0/1"  />
              </VectorParam>
              <VectorParam id="3237"  name="scale">
               <InterpolatingParam id="3238" interp="linr"  time="-9999999/1" value="1" leadInLength="0/1"  />
               <InterpolatingParam id="3239" interp="linr"  time="-9999999/1" value="1" leadInLength="0/1"  />
               <InterpolatingParam id="3240" interp="linr"  time="-9999999/1" value="1" leadInLength="0/1"  />
              </VectorParam>
              <VectorParam id="3241"  name="anchor">
               <InterpolatingParam id="3242" interp="linr"  time="0/1" value="0" leadInLength="0/1"  />
               <InterpolatingParam id="3243" interp="linr"  time="0/1" value="0" leadInLength="0/1"  />
               <InterpolatingParam id="3244" interp="linr"  time="0/1" value="0" leadInLength="0/1"  />
              </VectorParam>
             </Transformer>
             <Parameters>
              <VectorParam id="3245"  name="sourceCrop">
               <InterpolatingParam id="3246" interp="linr"  time="0/1" value="0" leadInLength="0/1"  />
               <InterpolatingParam id="3247" interp="linr"  time="0/1" value="0" leadInLength="0/1"  />
               <InterpolatingParam id="3248" interp="linr"  time="0/1" value="0" leadInLength="0/1"  />
               <InterpolatingParam id="3249" interp="linr"  time="0/1" value="0" leadInLength="0/1"  />
              </VectorParam>
              <VectorParam id="3250"  name="geometryCrop">
               <InterpolatingParam id="3251" interp="linr"  time="-9999999/1" value="0" leadInLength="0/1"  />
               <InterpolatingParam id="3252" interp="linr"  time="-9999999/1" value="0" leadInLength="0/1"  />
               <InterpolatingParam id="3253" interp="linr"  time="-9999999/1" value="0" leadInLength="0/1"  />
               <InterpolatingParam id="3254" interp="linr"  time="-9999999/1" value="0" leadInLength="0/1"  />
              </VectorParam>
              <InterpolatingParam id="3255" interp="linr"  time="-9999999/1" value="1" leadInLength="0/1"  name="opacity"/>
              <InterpolatingParam id="3256" interp="linr"  time="0/1" value="0" leadInLength="0/1"  name="cursorOpacity"/>
              <InterpolatingParam id="3257" interp="linr"  time="0/1" value="0" leadInLength="0/1"  name="cursorScale"/>
             </Parameters>
             <Attributes>
              <Attribute id="3258" value="" name="ident"/>
             </Attributes>
             <ExtraData>
              <Entry key="ZoomPanBin">
               <ZoomPanBin id="3259"  >
                <ZoomPanKeyframes>
                 <ZoomPanKeyframe id="3260" timeRangeEnd="-9999999/1" timeRangeDuration="0/1" interpolaterName=""  />
                </ZoomPanKeyframes>
               </ZoomPanBin>
              </Entry>
              <Entry key="CursorEffectBin">
               <CursorEffectBin id="3261"  >
                <CursorEffectKeyframes>
                </CursorEffectKeyframes>
               </CursorEffectBin>
              </Entry>
             </ExtraData>
            </ScreenVMFile>
            <MetaData>
             <entry key="AutoAppliedSmartFocus" val="False"/>
             <entry key="WinSubProjectDisplayName" val=""/>
            </MetaData>
           </UnifiedMedia>
           <UnifiedMedia id="3262"  >
            <AMFile id="3263" start="10703" duration="73" scalar="1/1" mediaStart="23417/1" mediaDuration="73/1" trackNumber="1" src="4" channelNumber="0,1" >
             <Parameters>
              <InterpolatingParam id="3264" interp="linr"  time="0/1" value="1" leadInLength="0/1"  name="volume"/>
              <Parameter id="3265"  name="captions"/>
             </Parameters>
             <Attributes>
              <Attribute id="3266" value="" name="ident"/>
              <Attribute id="3267" value="44100" name="sampleRate"/>
              <Attribute id="3268" value="16" name="bitDepth"/>
              <Attribute id="3269" value="1" name="gain"/>
              <Attribute id="3270" value="0" name="mixToMono"/>
             </Attributes>
            </AMFile>
            <ScreenVMFile id="3271" start="10703" duration="73" scalar="1/1" mediaStart="23417/1" mediaDuration="73/1" trackNumber="0" src="4" >
             <Transformer>
              <VectorParam id="3272"  name="translation">
               <InterpolatingParam id="3273" interp="linr"  time="-9999999/1" value="0" leadInLength="0/1"  />
               <InterpolatingParam id="3274" interp="linr"  time="-9999999/1" value="0" leadInLength="0/1"  />
               <InterpolatingParam id="3275" interp="linr"  time="-9999999/1" value="0" leadInLength="0/1"  />
              </VectorParam>
              <VectorParam id="3276"  name="rotation">
               <InterpolatingParam id="3277" interp="linr"  time="-9999999/1" value="0" leadInLength="0/1"  />
               <InterpolatingParam id="3278" interp="linr"  time="-9999999/1" value="0" leadInLength="0/1"  />
               <InterpolatingParam id="3279" interp="linr"  time="-9999999/1" value="0" leadInLength="0/1"  />
              </VectorParam>
              <VectorParam id="3280"  name="shear">
               <InterpolatingParam id="3281" interp="linr"  time="-9999999/1" value="0" leadInLength="0/1"  />
               <InterpolatingParam id="3282" interp="linr"  time="-9999999/1" value="0" leadInLength="0/1"  />
               <InterpolatingParam id="3283" interp="linr"  time="-9999999/1" value="0" leadInLength="0/1"  />
              </VectorParam>
              <VectorParam id="3284"  name="scale">
               <InterpolatingParam id="3285" interp="linr"  time="-9999999/1" value="1" leadInLength="0/1"  />
               <InterpolatingParam id="3286" interp="linr"  time="-9999999/1" value="1" leadInLength="0/1"  />
               <InterpolatingParam id="3287" interp="linr"  time="-9999999/1" value="1" leadInLength="0/1"  />
              </VectorParam>
              <VectorParam id="3288"  name="anchor">
               <InterpolatingParam id="3289" interp="linr"  time="0/1" value="0" leadInLength="0/1"  />
               <InterpolatingParam id="3290" interp="linr"  time="0/1" value="0" leadInLength="0/1"  />
               <InterpolatingParam id="3291" interp="linr"  time="0/1" value="0" leadInLength="0/1"  />
              </VectorParam>
             </Transformer>
             <Parameters>
              <VectorParam id="3292"  name="sourceCrop">
               <InterpolatingParam id="3293" interp="linr"  time="0/1" value="0" leadInLength="0/1"  />
               <InterpolatingParam id="3294" interp="linr"  time="0/1" value="0" leadInLength="0/1"  />
               <InterpolatingParam id="3295" interp="linr"  time="0/1" value="0" leadInLength="0/1"  />
               <InterpolatingParam id="3296" interp="linr"  time="0/1" value="0" leadInLength="0/1"  />
              </VectorParam>
              <VectorParam id="3297"  name="geometryCrop">
               <InterpolatingParam id="3298" interp="linr"  time="-9999999/1" value="0" leadInLength="0/1"  />
               <InterpolatingParam id="3299" interp="linr"  time="-9999999/1" value="0" leadInLength="0/1"  />
               <InterpolatingParam id="3300" interp="linr"  time="-9999999/1" value="0" leadInLength="0/1"  />
               <InterpolatingParam id="3301" interp="linr"  time="-9999999/1" value="0" leadInLength="0/1"  />
              </VectorParam>
              <InterpolatingParam id="3302" interp="linr"  time="-9999999/1" value="1" leadInLength="0/1"  name="opacity"/>
              <InterpolatingParam id="3303" interp="linr"  time="0/1" value="0" leadInLength="0/1"  name="cursorOpacity"/>
              <InterpolatingParam id="3304" interp="linr"  time="0/1" value="0" leadInLength="0/1"  name="cursorScale"/>
             </Parameters>
             <Attributes>
              <Attribute id="3305" value="" name="ident"/>
             </Attributes>
             <ExtraData>
              <Entry key="ZoomPanBin">
               <ZoomPanBin id="3306"  >
                <ZoomPanKeyframes>
                 <ZoomPanKeyframe id="3307" timeRangeEnd="-9999999/1" timeRangeDuration="0/1" interpolaterName=""  />
                </ZoomPanKeyframes>
               </ZoomPanBin>
              </Entry>
              <Entry key="CursorEffectBin">
               <CursorEffectBin id="3308"  >
                <CursorEffectKeyframes>
                </CursorEffectKeyframes>
               </CursorEffectBin>
              </Entry>
             </ExtraData>
            </ScreenVMFile>
            <MetaData>
             <entry key="AutoAppliedSmartFocus" val="False"/>
             <entry key="WinSubProjectDisplayName" val=""/>
            </MetaData>
           </UnifiedMedia>
           <UnifiedMedia id="3309"  >
            <AMFile id="3310" start="10776" duration="58" scalar="1/1" mediaStart="23611/1" mediaDuration="58/1" trackNumber="1" src="4" channelNumber="0,1" >
             <Parameters>
              <InterpolatingParam id="3311" interp="linr"  time="0/1" value="1" leadInLength="0/1"  name="volume"/>
              <Parameter id="3312"  name="captions"/>
             </Parameters>
             <Attributes>
              <Attribute id="3313" value="" name="ident"/>
              <Attribute id="3314" value="44100" name="sampleRate"/>
              <Attribute id="3315" value="16" name="bitDepth"/>
              <Attribute id="3316" value="1" name="gain"/>
              <Attribute id="3317" value="0" name="mixToMono"/>
             </Attributes>
            </AMFile>
            <ScreenVMFile id="3318" start="10776" duration="58" scalar="1/1" mediaStart="23611/1" mediaDuration="58/1" trackNumber="0" src="4" >
             <Transformer>
              <VectorParam id="3319"  name="translation">
               <InterpolatingParam id="3320" interp="linr"  time="-9999999/1" value="0" leadInLength="0/1"  />
               <InterpolatingParam id="3321" interp="linr"  time="-9999999/1" value="0" leadInLength="0/1"  />
               <InterpolatingParam id="3322" interp="linr"  time="-9999999/1" value="0" leadInLength="0/1"  />
              </VectorParam>
              <VectorParam id="3323"  name="rotation">
               <InterpolatingParam id="3324" interp="linr"  time="-9999999/1" value="0" leadInLength="0/1"  />
               <InterpolatingParam id="3325" interp="linr"  time="-9999999/1" value="0" leadInLength="0/1"  />
               <InterpolatingParam id="3326" interp="linr"  time="-9999999/1" value="0" leadInLength="0/1"  />
              </VectorParam>
              <VectorParam id="3327"  name="shear">
               <InterpolatingParam id="3328" interp="linr"  time="-9999999/1" value="0" leadInLength="0/1"  />
               <InterpolatingParam id="3329" interp="linr"  time="-9999999/1" value="0" leadInLength="0/1"  />
               <InterpolatingParam id="3330" interp="linr"  time="-9999999/1" value="0" leadInLength="0/1"  />
              </VectorParam>
              <VectorParam id="3331"  name="scale">
               <InterpolatingParam id="3332" interp="linr"  time="-9999999/1" value="1" leadInLength="0/1"  />
               <InterpolatingParam id="3333" interp="linr"  time="-9999999/1" value="1" leadInLength="0/1"  />
               <InterpolatingParam id="3334" interp="linr"  time="-9999999/1" value="1" leadInLength="0/1"  />
              </VectorParam>
              <VectorParam id="3335"  name="anchor">
               <InterpolatingParam id="3336" interp="linr"  time="0/1" value="0" leadInLength="0/1"  />
               <InterpolatingParam id="3337" interp="linr"  time="0/1" value="0" leadInLength="0/1"  />
               <InterpolatingParam id="3338" interp="linr"  time="0/1" value="0" leadInLength="0/1"  />
              </VectorParam>
             </Transformer>
             <Parameters>
              <VectorParam id="3339"  name="sourceCrop">
               <InterpolatingParam id="3340" interp="linr"  time="0/1" value="0" leadInLength="0/1"  />
               <InterpolatingParam id="3341" interp="linr"  time="0/1" value="0" leadInLength="0/1"  />
               <InterpolatingParam id="3342" interp="linr"  time="0/1" value="0" leadInLength="0/1"  />
               <InterpolatingParam id="3343" interp="linr"  time="0/1" value="0" leadInLength="0/1"  />
              </VectorParam>
              <VectorParam id="3344"  name="geometryCrop">
               <InterpolatingParam id="3345" interp="linr"  time="-9999999/1" value="0" leadInLength="0/1"  />
               <InterpolatingParam id="3346" interp="linr"  time="-9999999/1" value="0" leadInLength="0/1"  />
               <InterpolatingParam id="3347" interp="linr"  time="-9999999/1" value="0" leadInLength="0/1"  />
               <InterpolatingParam id="3348" interp="linr"  time="-9999999/1" value="0" leadInLength="0/1"  />
              </VectorParam>
              <InterpolatingParam id="3349" interp="linr"  time="-9999999/1" value="1" leadInLength="0/1"  name="opacity"/>
              <InterpolatingParam id="3350" interp="linr"  time="0/1" value="0" leadInLength="0/1"  name="cursorOpacity"/>
              <InterpolatingParam id="3351" interp="linr"  time="0/1" value="0" leadInLength="0/1"  name="cursorScale"/>
             </Parameters>
             <Attributes>
              <Attribute id="3352" value="" name="ident"/>
             </Attributes>
             <ExtraData>
              <Entry key="ZoomPanBin">
               <ZoomPanBin id="3353"  >
                <ZoomPanKeyframes>
                 <ZoomPanKeyframe id="3354" timeRangeEnd="-9999999/1" timeRangeDuration="0/1" interpolaterName=""  />
                </ZoomPanKeyframes>
               </ZoomPanBin>
              </Entry>
              <Entry key="CursorEffectBin">
               <CursorEffectBin id="3355"  >
                <CursorEffectKeyframes>
                </CursorEffectKeyframes>
               </CursorEffectBin>
              </Entry>
             </ExtraData>
            </ScreenVMFile>
            <MetaData>
             <entry key="AutoAppliedSmartFocus" val="False"/>
             <entry key="WinSubProjectDisplayName" val=""/>
            </MetaData>
           </UnifiedMedia>
           <UnifiedMedia id="3356"  >
            <AMFile id="3357" start="10834" duration="15" scalar="1/1" mediaStart="23679/1" mediaDuration="15/1" trackNumber="1" src="4" channelNumber="0,1" >
             <Parameters>
              <InterpolatingParam id="3358" interp="linr"  time="0/1" value="1" leadInLength="0/1"  name="volume"/>
              <Parameter id="3359"  name="captions"/>
             </Parameters>
             <Attributes>
              <Attribute id="3360" value="" name="ident"/>
              <Attribute id="3361" value="44100" name="sampleRate"/>
              <Attribute id="3362" value="16" name="bitDepth"/>
              <Attribute id="3363" value="1" name="gain"/>
              <Attribute id="3364" value="0" name="mixToMono"/>
             </Attributes>
            </AMFile>
            <ScreenVMFile id="3365" start="10834" duration="15" scalar="1/1" mediaStart="23679/1" mediaDuration="15/1" trackNumber="0" src="4" >
             <Transformer>
              <VectorParam id="3366"  name="translation">
               <InterpolatingParam id="3367" interp="linr"  time="-9999999/1" value="0" leadInLength="0/1"  />
               <InterpolatingParam id="3368" interp="linr"  time="-9999999/1" value="0" leadInLength="0/1"  />
               <InterpolatingParam id="3369" interp="linr"  time="-9999999/1" value="0" leadInLength="0/1"  />
              </VectorParam>
              <VectorParam id="3370"  name="rotation">
               <InterpolatingParam id="3371" interp="linr"  time="-9999999/1" value="0" leadInLength="0/1"  />
               <InterpolatingParam id="3372" interp="linr"  time="-9999999/1" value="0" leadInLength="0/1"  />
               <InterpolatingParam id="3373" interp="linr"  time="-9999999/1" value="0" leadInLength="0/1"  />
              </VectorParam>
              <VectorParam id="3374"  name="shear">
               <InterpolatingParam id="3375" interp="linr"  time="-9999999/1" value="0" leadInLength="0/1"  />
               <InterpolatingParam id="3376" interp="linr"  time="-9999999/1" value="0" leadInLength="0/1"  />
               <InterpolatingParam id="3377" interp="linr"  time="-9999999/1" value="0" leadInLength="0/1"  />
              </VectorParam>
              <VectorParam id="3378"  name="scale">
               <InterpolatingParam id="3379" interp="linr"  time="-9999999/1" value="1" leadInLength="0/1"  />
               <InterpolatingParam id="3380" interp="linr"  time="-9999999/1" value="1" leadInLength="0/1"  />
               <InterpolatingParam id="3381" interp="linr"  time="-9999999/1" value="1" leadInLength="0/1"  />
              </VectorParam>
              <VectorParam id="3382"  name="anchor">
               <InterpolatingParam id="3383" interp="linr"  time="0/1" value="0" leadInLength="0/1"  />
               <InterpolatingParam id="3384" interp="linr"  time="0/1" value="0" leadInLength="0/1"  />
               <InterpolatingParam id="3385" interp="linr"  time="0/1" value="0" leadInLength="0/1"  />
              </VectorParam>
             </Transformer>
             <Parameters>
              <VectorParam id="3386"  name="sourceCrop">
               <InterpolatingParam id="3387" interp="linr"  time="0/1" value="0" leadInLength="0/1"  />
               <InterpolatingParam id="3388" interp="linr"  time="0/1" value="0" leadInLength="0/1"  />
               <InterpolatingParam id="3389" interp="linr"  time="0/1" value="0" leadInLength="0/1"  />
               <InterpolatingParam id="3390" interp="linr"  time="0/1" value="0" leadInLength="0/1"  />
              </VectorParam>
              <VectorParam id="3391"  name="geometryCrop">
               <InterpolatingParam id="3392" interp="linr"  time="-9999999/1" value="0" leadInLength="0/1"  />
               <InterpolatingParam id="3393" interp="linr"  time="-9999999/1" value="0" leadInLength="0/1"  />
               <InterpolatingParam id="3394" interp="linr"  time="-9999999/1" value="0" leadInLength="0/1"  />
               <InterpolatingParam id="3395" interp="linr"  time="-9999999/1" value="0" leadInLength="0/1"  />
              </VectorParam>
              <InterpolatingParam id="3396" interp="linr"  time="-9999999/1" value="1" leadInLength="0/1"  name="opacity"/>
              <InterpolatingParam id="3397" interp="linr"  time="0/1" value="0" leadInLength="0/1"  name="cursorOpacity"/>
              <InterpolatingParam id="3398" interp="linr"  time="0/1" value="0" leadInLength="0/1"  name="cursorScale"/>
             </Parameters>
             <Attributes>
              <Attribute id="3399" value="" name="ident"/>
             </Attributes>
             <ExtraData>
              <Entry key="ZoomPanBin">
               <ZoomPanBin id="3400"  >
                <ZoomPanKeyframes>
                 <ZoomPanKeyframe id="3401" timeRangeEnd="-9999999/1" timeRangeDuration="0/1" interpolaterName=""  />
                </ZoomPanKeyframes>
               </ZoomPanBin>
              </Entry>
              <Entry key="CursorEffectBin">
               <CursorEffectBin id="3402"  >
                <CursorEffectKeyframes>
                </CursorEffectKeyframes>
               </CursorEffectBin>
              </Entry>
             </ExtraData>
            </ScreenVMFile>
            <MetaData>
             <entry key="AutoAppliedSmartFocus" val="False"/>
             <entry key="WinSubProjectDisplayName" val=""/>
            </MetaData>
           </UnifiedMedia>
           <UnifiedMedia id="3403"  >
            <AMFile id="3404" start="10849" duration="42" scalar="1/1" mediaStart="23708/1" mediaDuration="42/1" trackNumber="1" src="4" channelNumber="0,1" >
             <Parameters>
              <InterpolatingParam id="3405" interp="linr"  time="0/1" value="1" leadInLength="0/1"  name="volume"/>
              <Parameter id="3406"  name="captions"/>
             </Parameters>
             <Attributes>
              <Attribute id="3407" value="" name="ident"/>
              <Attribute id="3408" value="44100" name="sampleRate"/>
              <Attribute id="3409" value="16" name="bitDepth"/>
              <Attribute id="3410" value="1" name="gain"/>
              <Attribute id="3411" value="0" name="mixToMono"/>
             </Attributes>
            </AMFile>
            <ScreenVMFile id="3412" start="10849" duration="42" scalar="1/1" mediaStart="23708/1" mediaDuration="42/1" trackNumber="0" src="4" >
             <Transformer>
              <VectorParam id="3413"  name="translation">
               <InterpolatingParam id="3414" interp="linr"  time="-9999999/1" value="0" leadInLength="0/1"  />
               <InterpolatingParam id="3415" interp="linr"  time="-9999999/1" value="0" leadInLength="0/1"  />
               <InterpolatingParam id="3416" interp="linr"  time="-9999999/1" value="0" leadInLength="0/1"  />
              </VectorParam>
              <VectorParam id="3417"  name="rotation">
               <InterpolatingParam id="3418" interp="linr"  time="-9999999/1" value="0" leadInLength="0/1"  />
               <InterpolatingParam id="3419" interp="linr"  time="-9999999/1" value="0" leadInLength="0/1"  />
               <InterpolatingParam id="3420" interp="linr"  time="-9999999/1" value="0" leadInLength="0/1"  />
              </VectorParam>
              <VectorParam id="3421"  name="shear">
               <InterpolatingParam id="3422" interp="linr"  time="-9999999/1" value="0" leadInLength="0/1"  />
               <InterpolatingParam id="3423" interp="linr"  time="-9999999/1" value="0" leadInLength="0/1"  />
               <InterpolatingParam id="3424" interp="linr"  time="-9999999/1" value="0" leadInLength="0/1"  />
              </VectorParam>
              <VectorParam id="3425"  name="scale">
               <InterpolatingParam id="3426" interp="linr"  time="-9999999/1" value="1" leadInLength="0/1"  />
               <InterpolatingParam id="3427" interp="linr"  time="-9999999/1" value="1" leadInLength="0/1"  />
               <InterpolatingParam id="3428" interp="linr"  time="-9999999/1" value="1" leadInLength="0/1"  />
              </VectorParam>
              <VectorParam id="3429"  name="anchor">
               <InterpolatingParam id="3430" interp="linr"  time="0/1" value="0" leadInLength="0/1"  />
               <InterpolatingParam id="3431" interp="linr"  time="0/1" value="0" leadInLength="0/1"  />
               <InterpolatingParam id="3432" interp="linr"  time="0/1" value="0" leadInLength="0/1"  />
              </VectorParam>
             </Transformer>
             <Parameters>
              <VectorParam id="3433"  name="sourceCrop">
               <InterpolatingParam id="3434" interp="linr"  time="0/1" value="0" leadInLength="0/1"  />
               <InterpolatingParam id="3435" interp="linr"  time="0/1" value="0" leadInLength="0/1"  />
               <InterpolatingParam id="3436" interp="linr"  time="0/1" value="0" leadInLength="0/1"  />
               <InterpolatingParam id="3437" interp="linr"  time="0/1" value="0" leadInLength="0/1"  />
              </VectorParam>
              <VectorParam id="3438"  name="geometryCrop">
               <InterpolatingParam id="3439" interp="linr"  time="-9999999/1" value="0" leadInLength="0/1"  />
               <InterpolatingParam id="3440" interp="linr"  time="-9999999/1" value="0" leadInLength="0/1"  />
               <InterpolatingParam id="3441" interp="linr"  time="-9999999/1" value="0" leadInLength="0/1"  />
               <InterpolatingParam id="3442" interp="linr"  time="-9999999/1" value="0" leadInLength="0/1"  />
              </VectorParam>
              <InterpolatingParam id="3443" interp="linr"  time="-9999999/1" value="1" leadInLength="0/1"  name="opacity"/>
              <InterpolatingParam id="3444" interp="linr"  time="0/1" value="0" leadInLength="0/1"  name="cursorOpacity"/>
              <InterpolatingParam id="3445" interp="linr"  time="0/1" value="0" leadInLength="0/1"  name="cursorScale"/>
             </Parameters>
             <Attributes>
              <Attribute id="3446" value="" name="ident"/>
             </Attributes>
             <ExtraData>
              <Entry key="ZoomPanBin">
               <ZoomPanBin id="3447"  >
                <ZoomPanKeyframes>
                 <ZoomPanKeyframe id="3448" timeRangeEnd="-9999999/1" timeRangeDuration="0/1" interpolaterName=""  />
                </ZoomPanKeyframes>
               </ZoomPanBin>
              </Entry>
              <Entry key="CursorEffectBin">
               <CursorEffectBin id="3449"  >
                <CursorEffectKeyframes>
                </CursorEffectKeyframes>
               </CursorEffectBin>
              </Entry>
             </ExtraData>
            </ScreenVMFile>
            <MetaData>
             <entry key="AutoAppliedSmartFocus" val="False"/>
             <entry key="WinSubProjectDisplayName" val=""/>
            </MetaData>
           </UnifiedMedia>
           <UnifiedMedia id="3450"  >
            <AMFile id="3451" start="10891" duration="173" scalar="1/1" mediaStart="23882/1" mediaDuration="173/1" trackNumber="1" src="4" channelNumber="0,1" >
             <Parameters>
              <InterpolatingParam id="3452" interp="linr"  time="0/1" value="1" leadInLength="0/1"  name="volume"/>
              <Parameter id="3453"  name="captions"/>
             </Parameters>
             <Attributes>
              <Attribute id="3454" value="" name="ident"/>
              <Attribute id="3455" value="44100" name="sampleRate"/>
              <Attribute id="3456" value="16" name="bitDepth"/>
              <Attribute id="3457" value="1" name="gain"/>
              <Attribute id="3458" value="0" name="mixToMono"/>
             </Attributes>
            </AMFile>
            <ScreenVMFile id="3459" start="10891" duration="173" scalar="1/1" mediaStart="23882/1" mediaDuration="173/1" trackNumber="0" src="4" >
             <Transformer>
              <VectorParam id="3460"  name="translation">
               <InterpolatingParam id="3461" interp="linr"  time="-9999999/1" value="0" leadInLength="0/1"  />
               <InterpolatingParam id="3462" interp="linr"  time="-9999999/1" value="0" leadInLength="0/1"  />
               <InterpolatingParam id="3463" interp="linr"  time="-9999999/1" value="0" leadInLength="0/1"  />
              </VectorParam>
              <VectorParam id="3464"  name="rotation">
               <InterpolatingParam id="3465" interp="linr"  time="-9999999/1" value="0" leadInLength="0/1"  />
               <InterpolatingParam id="3466" interp="linr"  time="-9999999/1" value="0" leadInLength="0/1"  />
               <InterpolatingParam id="3467" interp="linr"  time="-9999999/1" value="0" leadInLength="0/1"  />
              </VectorParam>
              <VectorParam id="3468"  name="shear">
               <InterpolatingParam id="3469" interp="linr"  time="-9999999/1" value="0" leadInLength="0/1"  />
               <InterpolatingParam id="3470" interp="linr"  time="-9999999/1" value="0" leadInLength="0/1"  />
               <InterpolatingParam id="3471" interp="linr"  time="-9999999/1" value="0" leadInLength="0/1"  />
              </VectorParam>
              <VectorParam id="3472"  name="scale">
               <InterpolatingParam id="3473" interp="linr"  time="-9999999/1" value="1" leadInLength="0/1"  />
               <InterpolatingParam id="3474" interp="linr"  time="-9999999/1" value="1" leadInLength="0/1"  />
               <InterpolatingParam id="3475" interp="linr"  time="-9999999/1" value="1" leadInLength="0/1"  />
              </VectorParam>
              <VectorParam id="3476"  name="anchor">
               <InterpolatingParam id="3477" interp="linr"  time="0/1" value="0" leadInLength="0/1"  />
               <InterpolatingParam id="3478" interp="linr"  time="0/1" value="0" leadInLength="0/1"  />
               <InterpolatingParam id="3479" interp="linr"  time="0/1" value="0" leadInLength="0/1"  />
              </VectorParam>
             </Transformer>
             <Parameters>
              <VectorParam id="3480"  name="sourceCrop">
               <InterpolatingParam id="3481" interp="linr"  time="0/1" value="0" leadInLength="0/1"  />
               <InterpolatingParam id="3482" interp="linr"  time="0/1" value="0" leadInLength="0/1"  />
               <InterpolatingParam id="3483" interp="linr"  time="0/1" value="0" leadInLength="0/1"  />
               <InterpolatingParam id="3484" interp="linr"  time="0/1" value="0" leadInLength="0/1"  />
              </VectorParam>
              <VectorParam id="3485"  name="geometryCrop">
               <InterpolatingParam id="3486" interp="linr"  time="-9999999/1" value="0" leadInLength="0/1"  />
               <InterpolatingParam id="3487" interp="linr"  time="-9999999/1" value="0" leadInLength="0/1"  />
               <InterpolatingParam id="3488" interp="linr"  time="-9999999/1" value="0" leadInLength="0/1"  />
               <InterpolatingParam id="3489" interp="linr"  time="-9999999/1" value="0" leadInLength="0/1"  />
              </VectorParam>
              <InterpolatingParam id="3490" interp="linr"  time="-9999999/1" value="1" leadInLength="0/1"  name="opacity"/>
              <InterpolatingParam id="3491" interp="linr"  time="0/1" value="0" leadInLength="0/1"  name="cursorOpacity"/>
              <InterpolatingParam id="3492" interp="linr"  time="0/1" value="0" leadInLength="0/1"  name="cursorScale"/>
             </Parameters>
             <Attributes>
              <Attribute id="3493" value="" name="ident"/>
             </Attributes>
             <ExtraData>
              <Entry key="ZoomPanBin">
               <ZoomPanBin id="3494"  >
                <ZoomPanKeyframes>
                 <ZoomPanKeyframe id="3495" timeRangeEnd="-9999999/1" timeRangeDuration="0/1" interpolaterName=""  />
                </ZoomPanKeyframes>
               </ZoomPanBin>
              </Entry>
              <Entry key="CursorEffectBin">
               <CursorEffectBin id="3496"  >
                <CursorEffectKeyframes>
                </CursorEffectKeyframes>
               </CursorEffectBin>
              </Entry>
             </ExtraData>
            </ScreenVMFile>
            <MetaData>
             <entry key="AutoAppliedSmartFocus" val="False"/>
             <entry key="WinSubProjectDisplayName" val=""/>
            </MetaData>
           </UnifiedMedia>
           <UnifiedMedia id="3497"  >
            <AMFile id="3498" start="11064" duration="209" scalar="1/1" mediaStart="24065/1" mediaDuration="209/1" trackNumber="1" src="4" channelNumber="0,1" >
             <Parameters>
              <InterpolatingParam id="3499" interp="linr"  time="0/1" value="1" leadInLength="0/1"  name="volume"/>
              <Parameter id="3500"  name="captions"/>
             </Parameters>
             <Attributes>
              <Attribute id="3501" value="" name="ident"/>
              <Attribute id="3502" value="44100" name="sampleRate"/>
              <Attribute id="3503" value="16" name="bitDepth"/>
              <Attribute id="3504" value="1" name="gain"/>
              <Attribute id="3505" value="0" name="mixToMono"/>
             </Attributes>
            </AMFile>
            <ScreenVMFile id="3506" start="11064" duration="209" scalar="1/1" mediaStart="24065/1" mediaDuration="209/1" trackNumber="0" src="4" >
             <Transformer>
              <VectorParam id="3507"  name="translation">
               <InterpolatingParam id="3508" interp="linr"  time="-9999999/1" value="0" leadInLength="0/1"  />
               <InterpolatingParam id="3509" interp="linr"  time="-9999999/1" value="0" leadInLength="0/1"  />
               <InterpolatingParam id="3510" interp="linr"  time="-9999999/1" value="0" leadInLength="0/1"  />
              </VectorParam>
              <VectorParam id="3511"  name="rotation">
               <InterpolatingParam id="3512" interp="linr"  time="-9999999/1" value="0" leadInLength="0/1"  />
               <InterpolatingParam id="3513" interp="linr"  time="-9999999/1" value="0" leadInLength="0/1"  />
               <InterpolatingParam id="3514" interp="linr"  time="-9999999/1" value="0" leadInLength="0/1"  />
              </VectorParam>
              <VectorParam id="3515"  name="shear">
               <InterpolatingParam id="3516" interp="linr"  time="-9999999/1" value="0" leadInLength="0/1"  />
               <InterpolatingParam id="3517" interp="linr"  time="-9999999/1" value="0" leadInLength="0/1"  />
               <InterpolatingParam id="3518" interp="linr"  time="-9999999/1" value="0" leadInLength="0/1"  />
              </VectorParam>
              <VectorParam id="3519"  name="scale">
               <InterpolatingParam id="3520" interp="linr"  time="-9999999/1" value="1" leadInLength="0/1"  />
               <InterpolatingParam id="3521" interp="linr"  time="-9999999/1" value="1" leadInLength="0/1"  />
               <InterpolatingParam id="3522" interp="linr"  time="-9999999/1" value="1" leadInLength="0/1"  />
              </VectorParam>
              <VectorParam id="3523"  name="anchor">
               <InterpolatingParam id="3524" interp="linr"  time="0/1" value="0" leadInLength="0/1"  />
               <InterpolatingParam id="3525" interp="linr"  time="0/1" value="0" leadInLength="0/1"  />
               <InterpolatingParam id="3526" interp="linr"  time="0/1" value="0" leadInLength="0/1"  />
              </VectorParam>
             </Transformer>
             <Parameters>
              <VectorParam id="3527"  name="sourceCrop">
               <InterpolatingParam id="3528" interp="linr"  time="0/1" value="0" leadInLength="0/1"  />
               <InterpolatingParam id="3529" interp="linr"  time="0/1" value="0" leadInLength="0/1"  />
               <InterpolatingParam id="3530" interp="linr"  time="0/1" value="0" leadInLength="0/1"  />
               <InterpolatingParam id="3531" interp="linr"  time="0/1" value="0" leadInLength="0/1"  />
              </VectorParam>
              <VectorParam id="3532"  name="geometryCrop">
               <InterpolatingParam id="3533" interp="linr"  time="-9999999/1" value="0" leadInLength="0/1"  />
               <InterpolatingParam id="3534" interp="linr"  time="-9999999/1" value="0" leadInLength="0/1"  />
               <InterpolatingParam id="3535" interp="linr"  time="-9999999/1" value="0" leadInLength="0/1"  />
               <InterpolatingParam id="3536" interp="linr"  time="-9999999/1" value="0" leadInLength="0/1"  />
              </VectorParam>
              <InterpolatingParam id="3537" interp="linr"  time="-9999999/1" value="1" leadInLength="0/1"  name="opacity"/>
              <InterpolatingParam id="3538" interp="linr"  time="0/1" value="0" leadInLength="0/1"  name="cursorOpacity"/>
              <InterpolatingParam id="3539" interp="linr"  time="0/1" value="0" leadInLength="0/1"  name="cursorScale"/>
             </Parameters>
             <Attributes>
              <Attribute id="3540" value="" name="ident"/>
             </Attributes>
             <ExtraData>
              <Entry key="ZoomPanBin">
               <ZoomPanBin id="3541"  >
                <ZoomPanKeyframes>
                 <ZoomPanKeyframe id="3542" timeRangeEnd="-9999999/1" timeRangeDuration="0/1" interpolaterName=""  />
                </ZoomPanKeyframes>
               </ZoomPanBin>
              </Entry>
              <Entry key="CursorEffectBin">
               <CursorEffectBin id="3543"  >
                <CursorEffectKeyframes>
                </CursorEffectKeyframes>
               </CursorEffectBin>
              </Entry>
             </ExtraData>
            </ScreenVMFile>
            <MetaData>
             <entry key="AutoAppliedSmartFocus" val="False"/>
             <entry key="WinSubProjectDisplayName" val=""/>
            </MetaData>
           </UnifiedMedia>
           <UnifiedMedia id="3544"  >
            <AMFile id="3545" start="11273" duration="128" scalar="1/1" mediaStart="24552/1" mediaDuration="128/1" trackNumber="1" src="4" channelNumber="0,1" >
             <Parameters>
              <InterpolatingParam id="3546" interp="linr"  time="0/1" value="1" leadInLength="0/1"  name="volume"/>
              <Parameter id="3547"  name="captions"/>
             </Parameters>
             <Attributes>
              <Attribute id="3548" value="" name="ident"/>
              <Attribute id="3549" value="44100" name="sampleRate"/>
              <Attribute id="3550" value="16" name="bitDepth"/>
              <Attribute id="3551" value="1" name="gain"/>
              <Attribute id="3552" value="0" name="mixToMono"/>
             </Attributes>
            </AMFile>
            <ScreenVMFile id="3553" start="11273" duration="128" scalar="1/1" mediaStart="24552/1" mediaDuration="128/1" trackNumber="0" src="4" >
             <Transformer>
              <VectorParam id="3554"  name="translation">
               <InterpolatingParam id="3555" interp="linr"  time="-9999999/1" value="0" leadInLength="0/1"  />
               <InterpolatingParam id="3556" interp="linr"  time="-9999999/1" value="0" leadInLength="0/1"  />
               <InterpolatingParam id="3557" interp="linr"  time="-9999999/1" value="0" leadInLength="0/1"  />
              </VectorParam>
              <VectorParam id="3558"  name="rotation">
               <InterpolatingParam id="3559" interp="linr"  time="-9999999/1" value="0" leadInLength="0/1"  />
               <InterpolatingParam id="3560" interp="linr"  time="-9999999/1" value="0" leadInLength="0/1"  />
               <InterpolatingParam id="3561" interp="linr"  time="-9999999/1" value="0" leadInLength="0/1"  />
              </VectorParam>
              <VectorParam id="3562"  name="shear">
               <InterpolatingParam id="3563" interp="linr"  time="-9999999/1" value="0" leadInLength="0/1"  />
               <InterpolatingParam id="3564" interp="linr"  time="-9999999/1" value="0" leadInLength="0/1"  />
               <InterpolatingParam id="3565" interp="linr"  time="-9999999/1" value="0" leadInLength="0/1"  />
              </VectorParam>
              <VectorParam id="3566"  name="scale">
               <InterpolatingParam id="3567" interp="linr"  time="-9999999/1" value="1" leadInLength="0/1"  />
               <InterpolatingParam id="3568" interp="linr"  time="-9999999/1" value="1" leadInLength="0/1"  />
               <InterpolatingParam id="3569" interp="linr"  time="-9999999/1" value="1" leadInLength="0/1"  />
              </VectorParam>
              <VectorParam id="3570"  name="anchor">
               <InterpolatingParam id="3571" interp="linr"  time="0/1" value="0" leadInLength="0/1"  />
               <InterpolatingParam id="3572" interp="linr"  time="0/1" value="0" leadInLength="0/1"  />
               <InterpolatingParam id="3573" interp="linr"  time="0/1" value="0" leadInLength="0/1"  />
              </VectorParam>
             </Transformer>
             <Parameters>
              <VectorParam id="3574"  name="sourceCrop">
               <InterpolatingParam id="3575" interp="linr"  time="0/1" value="0" leadInLength="0/1"  />
               <InterpolatingParam id="3576" interp="linr"  time="0/1" value="0" leadInLength="0/1"  />
               <InterpolatingParam id="3577" interp="linr"  time="0/1" value="0" leadInLength="0/1"  />
               <InterpolatingParam id="3578" interp="linr"  time="0/1" value="0" leadInLength="0/1"  />
              </VectorParam>
              <VectorParam id="3579"  name="geometryCrop">
               <InterpolatingParam id="3580" interp="linr"  time="-9999999/1" value="0" leadInLength="0/1"  />
               <InterpolatingParam id="3581" interp="linr"  time="-9999999/1" value="0" leadInLength="0/1"  />
               <InterpolatingParam id="3582" interp="linr"  time="-9999999/1" value="0" leadInLength="0/1"  />
               <InterpolatingParam id="3583" interp="linr"  time="-9999999/1" value="0" leadInLength="0/1"  />
              </VectorParam>
              <InterpolatingParam id="3584" interp="linr"  time="-9999999/1" value="1" leadInLength="0/1"  name="opacity"/>
              <InterpolatingParam id="3585" interp="linr"  time="0/1" value="0" leadInLength="0/1"  name="cursorOpacity"/>
              <InterpolatingParam id="3586" interp="linr"  time="0/1" value="0" leadInLength="0/1"  name="cursorScale"/>
             </Parameters>
             <Attributes>
              <Attribute id="3587" value="" name="ident"/>
             </Attributes>
             <ExtraData>
              <Entry key="ZoomPanBin">
               <ZoomPanBin id="3588"  >
                <ZoomPanKeyframes>
                 <ZoomPanKeyframe id="3589" timeRangeEnd="-9999999/1" timeRangeDuration="0/1" interpolaterName=""  />
                </ZoomPanKeyframes>
               </ZoomPanBin>
              </Entry>
              <Entry key="CursorEffectBin">
               <CursorEffectBin id="3590"  >
                <CursorEffectKeyframes>
                </CursorEffectKeyframes>
               </CursorEffectBin>
              </Entry>
             </ExtraData>
            </ScreenVMFile>
            <MetaData>
             <entry key="AutoAppliedSmartFocus" val="False"/>
             <entry key="WinSubProjectDisplayName" val=""/>
            </MetaData>
           </UnifiedMedia>
           <UnifiedMedia id="3591"  >
            <AMFile id="3592" start="11401" duration="84" scalar="1/1" mediaStart="24689/1" mediaDuration="84/1" trackNumber="1" src="4" channelNumber="0,1" >
             <Parameters>
              <InterpolatingParam id="3593" interp="linr"  time="0/1" value="1" leadInLength="0/1"  name="volume"/>
              <Parameter id="3594"  name="captions"/>
             </Parameters>
             <Attributes>
              <Attribute id="3595" value="" name="ident"/>
              <Attribute id="3596" value="44100" name="sampleRate"/>
              <Attribute id="3597" value="16" name="bitDepth"/>
              <Attribute id="3598" value="1" name="gain"/>
              <Attribute id="3599" value="0" name="mixToMono"/>
             </Attributes>
            </AMFile>
            <ScreenVMFile id="3600" start="11401" duration="84" scalar="1/1" mediaStart="24689/1" mediaDuration="84/1" trackNumber="0" src="4" >
             <Transformer>
              <VectorParam id="3601"  name="translation">
               <InterpolatingParam id="3602" interp="linr"  time="-9999999/1" value="0" leadInLength="0/1"  />
               <InterpolatingParam id="3603" interp="linr"  time="-9999999/1" value="0" leadInLength="0/1"  />
               <InterpolatingParam id="3604" interp="linr"  time="-9999999/1" value="0" leadInLength="0/1"  />
              </VectorParam>
              <VectorParam id="3605"  name="rotation">
               <InterpolatingParam id="3606" interp="linr"  time="-9999999/1" value="0" leadInLength="0/1"  />
               <InterpolatingParam id="3607" interp="linr"  time="-9999999/1" value="0" leadInLength="0/1"  />
               <InterpolatingParam id="3608" interp="linr"  time="-9999999/1" value="0" leadInLength="0/1"  />
              </VectorParam>
              <VectorParam id="3609"  name="shear">
               <InterpolatingParam id="3610" interp="linr"  time="-9999999/1" value="0" leadInLength="0/1"  />
               <InterpolatingParam id="3611" interp="linr"  time="-9999999/1" value="0" leadInLength="0/1"  />
               <InterpolatingParam id="3612" interp="linr"  time="-9999999/1" value="0" leadInLength="0/1"  />
              </VectorParam>
              <VectorParam id="3613"  name="scale">
               <InterpolatingParam id="3614" interp="linr"  time="-9999999/1" value="1" leadInLength="0/1"  />
               <InterpolatingParam id="3615" interp="linr"  time="-9999999/1" value="1" leadInLength="0/1"  />
               <InterpolatingParam id="3616" interp="linr"  time="-9999999/1" value="1" leadInLength="0/1"  />
              </VectorParam>
              <VectorParam id="3617"  name="anchor">
               <InterpolatingParam id="3618" interp="linr"  time="0/1" value="0" leadInLength="0/1"  />
               <InterpolatingParam id="3619" interp="linr"  time="0/1" value="0" leadInLength="0/1"  />
               <InterpolatingParam id="3620" interp="linr"  time="0/1" value="0" leadInLength="0/1"  />
              </VectorParam>
             </Transformer>
             <Parameters>
              <VectorParam id="3621"  name="sourceCrop">
               <InterpolatingParam id="3622" interp="linr"  time="0/1" value="0" leadInLength="0/1"  />
               <InterpolatingParam id="3623" interp="linr"  time="0/1" value="0" leadInLength="0/1"  />
               <InterpolatingParam id="3624" interp="linr"  time="0/1" value="0" leadInLength="0/1"  />
               <InterpolatingParam id="3625" interp="linr"  time="0/1" value="0" leadInLength="0/1"  />
              </VectorParam>
              <VectorParam id="3626"  name="geometryCrop">
               <InterpolatingParam id="3627" interp="linr"  time="-9999999/1" value="0" leadInLength="0/1"  />
               <InterpolatingParam id="3628" interp="linr"  time="-9999999/1" value="0" leadInLength="0/1"  />
               <InterpolatingParam id="3629" interp="linr"  time="-9999999/1" value="0" leadInLength="0/1"  />
               <InterpolatingParam id="3630" interp="linr"  time="-9999999/1" value="0" leadInLength="0/1"  />
              </VectorParam>
              <InterpolatingParam id="3631" interp="linr"  time="-9999999/1" value="1" leadInLength="0/1"  name="opacity"/>
              <InterpolatingParam id="3632" interp="linr"  time="0/1" value="0" leadInLength="0/1"  name="cursorOpacity"/>
              <InterpolatingParam id="3633" interp="linr"  time="0/1" value="0" leadInLength="0/1"  name="cursorScale"/>
             </Parameters>
             <Attributes>
              <Attribute id="3634" value="" name="ident"/>
             </Attributes>
             <ExtraData>
              <Entry key="ZoomPanBin">
               <ZoomPanBin id="3635"  >
                <ZoomPanKeyframes>
                 <ZoomPanKeyframe id="3636" timeRangeEnd="-9999999/1" timeRangeDuration="0/1" interpolaterName=""  />
                </ZoomPanKeyframes>
               </ZoomPanBin>
              </Entry>
              <Entry key="CursorEffectBin">
               <CursorEffectBin id="3637"  >
                <CursorEffectKeyframes>
                </CursorEffectKeyframes>
               </CursorEffectBin>
              </Entry>
             </ExtraData>
            </ScreenVMFile>
            <MetaData>
             <entry key="AutoAppliedSmartFocus" val="False"/>
             <entry key="WinSubProjectDisplayName" val=""/>
            </MetaData>
           </UnifiedMedia>
           <UnifiedMedia id="3638"  >
            <AMFile id="3639" start="11485" duration="173" scalar="1/1" mediaStart="25327/1" mediaDuration="173/1" trackNumber="1" src="4" channelNumber="0,1" >
             <Parameters>
              <InterpolatingParam id="3640" interp="linr"  time="0/1" value="1" leadInLength="0/1"  name="volume"/>
              <Parameter id="3641"  name="captions"/>
             </Parameters>
             <Attributes>
              <Attribute id="3642" value="" name="ident"/>
              <Attribute id="3643" value="44100" name="sampleRate"/>
              <Attribute id="3644" value="16" name="bitDepth"/>
              <Attribute id="3645" value="1" name="gain"/>
              <Attribute id="3646" value="0" name="mixToMono"/>
             </Attributes>
            </AMFile>
            <ScreenVMFile id="3647" start="11485" duration="173" scalar="1/1" mediaStart="25327/1" mediaDuration="173/1" trackNumber="0" src="4" >
             <Transformer>
              <VectorParam id="3648"  name="translation">
               <InterpolatingParam id="3649" interp="linr"  time="-9999999/1" value="0" leadInLength="0/1"  />
               <InterpolatingParam id="3650" interp="linr"  time="-9999999/1" value="0" leadInLength="0/1"  />
               <InterpolatingParam id="3651" interp="linr"  time="-9999999/1" value="0" leadInLength="0/1"  />
              </VectorParam>
              <VectorParam id="3652"  name="rotation">
               <InterpolatingParam id="3653" interp="linr"  time="-9999999/1" value="0" leadInLength="0/1"  />
               <InterpolatingParam id="3654" interp="linr"  time="-9999999/1" value="0" leadInLength="0/1"  />
               <InterpolatingParam id="3655" interp="linr"  time="-9999999/1" value="0" leadInLength="0/1"  />
              </VectorParam>
              <VectorParam id="3656"  name="shear">
               <InterpolatingParam id="3657" interp="linr"  time="-9999999/1" value="0" leadInLength="0/1"  />
               <InterpolatingParam id="3658" interp="linr"  time="-9999999/1" value="0" leadInLength="0/1"  />
               <InterpolatingParam id="3659" interp="linr"  time="-9999999/1" value="0" leadInLength="0/1"  />
              </VectorParam>
              <VectorParam id="3660"  name="scale">
               <InterpolatingParam id="3661" interp="linr"  time="-9999999/1" value="1" leadInLength="0/1"  />
               <InterpolatingParam id="3662" interp="linr"  time="-9999999/1" value="1" leadInLength="0/1"  />
               <InterpolatingParam id="3663" interp="linr"  time="-9999999/1" value="1" leadInLength="0/1"  />
              </VectorParam>
              <VectorParam id="3664"  name="anchor">
               <InterpolatingParam id="3665" interp="linr"  time="0/1" value="0" leadInLength="0/1"  />
               <InterpolatingParam id="3666" interp="linr"  time="0/1" value="0" leadInLength="0/1"  />
               <InterpolatingParam id="3667" interp="linr"  time="0/1" value="0" leadInLength="0/1"  />
              </VectorParam>
             </Transformer>
             <Parameters>
              <VectorParam id="3668"  name="sourceCrop">
               <InterpolatingParam id="3669" interp="linr"  time="0/1" value="0" leadInLength="0/1"  />
               <InterpolatingParam id="3670" interp="linr"  time="0/1" value="0" leadInLength="0/1"  />
               <InterpolatingParam id="3671" interp="linr"  time="0/1" value="0" leadInLength="0/1"  />
               <InterpolatingParam id="3672" interp="linr"  time="0/1" value="0" leadInLength="0/1"  />
              </VectorParam>
              <VectorParam id="3673"  name="geometryCrop">
               <InterpolatingParam id="3674" interp="linr"  time="-9999999/1" value="0" leadInLength="0/1"  />
               <InterpolatingParam id="3675" interp="linr"  time="-9999999/1" value="0" leadInLength="0/1"  />
               <InterpolatingParam id="3676" interp="linr"  time="-9999999/1" value="0" leadInLength="0/1"  />
               <InterpolatingParam id="3677" interp="linr"  time="-9999999/1" value="0" leadInLength="0/1"  />
              </VectorParam>
              <InterpolatingParam id="3678" interp="linr"  time="-9999999/1" value="1" leadInLength="0/1"  name="opacity"/>
              <InterpolatingParam id="3679" interp="linr"  time="0/1" value="0" leadInLength="0/1"  name="cursorOpacity"/>
              <InterpolatingParam id="3680" interp="linr"  time="0/1" value="0" leadInLength="0/1"  name="cursorScale"/>
             </Parameters>
             <Attributes>
              <Attribute id="3681" value="" name="ident"/>
             </Attributes>
             <ExtraData>
              <Entry key="ZoomPanBin">
               <ZoomPanBin id="3682"  >
                <ZoomPanKeyframes>
                 <ZoomPanKeyframe id="3683" timeRangeEnd="-9999999/1" timeRangeDuration="0/1" interpolaterName=""  />
                </ZoomPanKeyframes>
               </ZoomPanBin>
              </Entry>
              <Entry key="CursorEffectBin">
               <CursorEffectBin id="3684"  >
                <CursorEffectKeyframes>
                </CursorEffectKeyframes>
               </CursorEffectBin>
              </Entry>
             </ExtraData>
            </ScreenVMFile>
            <MetaData>
             <entry key="AutoAppliedSmartFocus" val="False"/>
             <entry key="WinSubProjectDisplayName" val=""/>
            </MetaData>
           </UnifiedMedia>
           <UnifiedMedia id="3685"  >
            <AMFile id="3686" start="11658" duration="228" scalar="1/1" mediaStart="25514/1" mediaDuration="228/1" trackNumber="1" src="4" channelNumber="0,1" >
             <Parameters>
              <InterpolatingParam id="3687" interp="linr"  time="0/1" value="1" leadInLength="0/1"  name="volume"/>
              <Parameter id="3688"  name="captions"/>
             </Parameters>
             <Attributes>
              <Attribute id="3689" value="" name="ident"/>
              <Attribute id="3690" value="44100" name="sampleRate"/>
              <Attribute id="3691" value="16" name="bitDepth"/>
              <Attribute id="3692" value="1" name="gain"/>
              <Attribute id="3693" value="0" name="mixToMono"/>
             </Attributes>
            </AMFile>
            <ScreenVMFile id="3694" start="11658" duration="228" scalar="1/1" mediaStart="25514/1" mediaDuration="228/1" trackNumber="0" src="4" >
             <Transformer>
              <VectorParam id="3695"  name="translation">
               <InterpolatingParam id="3696" interp="linr"  time="-9999999/1" value="0" leadInLength="0/1"  />
               <InterpolatingParam id="3697" interp="linr"  time="-9999999/1" value="0" leadInLength="0/1"  />
               <InterpolatingParam id="3698" interp="linr"  time="-9999999/1" value="0" leadInLength="0/1"  />
              </VectorParam>
              <VectorParam id="3699"  name="rotation">
               <InterpolatingParam id="3700" interp="linr"  time="-9999999/1" value="0" leadInLength="0/1"  />
               <InterpolatingParam id="3701" interp="linr"  time="-9999999/1" value="0" leadInLength="0/1"  />
               <InterpolatingParam id="3702" interp="linr"  time="-9999999/1" value="0" leadInLength="0/1"  />
              </VectorParam>
              <VectorParam id="3703"  name="shear">
               <InterpolatingParam id="3704" interp="linr"  time="-9999999/1" value="0" leadInLength="0/1"  />
               <InterpolatingParam id="3705" interp="linr"  time="-9999999/1" value="0" leadInLength="0/1"  />
               <InterpolatingParam id="3706" interp="linr"  time="-9999999/1" value="0" leadInLength="0/1"  />
              </VectorParam>
              <VectorParam id="3707"  name="scale">
               <InterpolatingParam id="3708" interp="linr"  time="-9999999/1" value="1" leadInLength="0/1"  />
               <InterpolatingParam id="3709" interp="linr"  time="-9999999/1" value="1" leadInLength="0/1"  />
               <InterpolatingParam id="3710" interp="linr"  time="-9999999/1" value="1" leadInLength="0/1"  />
              </VectorParam>
              <VectorParam id="3711"  name="anchor">
               <InterpolatingParam id="3712" interp="linr"  time="0/1" value="0" leadInLength="0/1"  />
               <InterpolatingParam id="3713" interp="linr"  time="0/1" value="0" leadInLength="0/1"  />
               <InterpolatingParam id="3714" interp="linr"  time="0/1" value="0" leadInLength="0/1"  />
              </VectorParam>
             </Transformer>
             <Parameters>
              <VectorParam id="3715"  name="sourceCrop">
               <InterpolatingParam id="3716" interp="linr"  time="0/1" value="0" leadInLength="0/1"  />
               <InterpolatingParam id="3717" interp="linr"  time="0/1" value="0" leadInLength="0/1"  />
               <InterpolatingParam id="3718" interp="linr"  time="0/1" value="0" leadInLength="0/1"  />
               <InterpolatingParam id="3719" interp="linr"  time="0/1" value="0" leadInLength="0/1"  />
              </VectorParam>
              <VectorParam id="3720"  name="geometryCrop">
               <InterpolatingParam id="3721" interp="linr"  time="-9999999/1" value="0" leadInLength="0/1"  />
               <InterpolatingParam id="3722" interp="linr"  time="-9999999/1" value="0" leadInLength="0/1"  />
               <InterpolatingParam id="3723" interp="linr"  time="-9999999/1" value="0" leadInLength="0/1"  />
               <InterpolatingParam id="3724" interp="linr"  time="-9999999/1" value="0" leadInLength="0/1"  />
              </VectorParam>
              <InterpolatingParam id="3725" interp="linr"  time="-9999999/1" value="1" leadInLength="0/1"  name="opacity"/>
              <InterpolatingParam id="3726" interp="linr"  time="0/1" value="0" leadInLength="0/1"  name="cursorOpacity"/>
              <InterpolatingParam id="3727" interp="linr"  time="0/1" value="0" leadInLength="0/1"  name="cursorScale"/>
             </Parameters>
             <Attributes>
              <Attribute id="3728" value="" name="ident"/>
             </Attributes>
             <ExtraData>
              <Entry key="ZoomPanBin">
               <ZoomPanBin id="3729"  >
                <ZoomPanKeyframes>
                 <ZoomPanKeyframe id="3730" timeRangeEnd="-9999999/1" timeRangeDuration="0/1" interpolaterName=""  />
                </ZoomPanKeyframes>
               </ZoomPanBin>
              </Entry>
              <Entry key="CursorEffectBin">
               <CursorEffectBin id="3731"  >
                <CursorEffectKeyframes>
                </CursorEffectKeyframes>
               </CursorEffectBin>
              </Entry>
             </ExtraData>
            </ScreenVMFile>
            <MetaData>
             <entry key="AutoAppliedSmartFocus" val="False"/>
             <entry key="WinSubProjectDisplayName" val=""/>
            </MetaData>
           </UnifiedMedia>
           <UnifiedMedia id="3732"  >
            <AMFile id="3733" start="11886" duration="11" scalar="1/1" mediaStart="25752/1" mediaDuration="11/1" trackNumber="1" src="4" channelNumber="0,1" >
             <Parameters>
              <InterpolatingParam id="3734" interp="linr"  time="0/1" value="1" leadInLength="0/1"  name="volume"/>
              <Parameter id="3735"  name="captions"/>
             </Parameters>
             <Attributes>
              <Attribute id="3736" value="" name="ident"/>
              <Attribute id="3737" value="44100" name="sampleRate"/>
              <Attribute id="3738" value="16" name="bitDepth"/>
              <Attribute id="3739" value="1" name="gain"/>
              <Attribute id="3740" value="0" name="mixToMono"/>
             </Attributes>
            </AMFile>
            <ScreenVMFile id="3741" start="11886" duration="11" scalar="1/1" mediaStart="25752/1" mediaDuration="11/1" trackNumber="0" src="4" >
             <Transformer>
              <VectorParam id="3742"  name="translation">
               <InterpolatingParam id="3743" interp="linr"  time="-9999999/1" value="0" leadInLength="0/1"  />
               <InterpolatingParam id="3744" interp="linr"  time="-9999999/1" value="0" leadInLength="0/1"  />
               <InterpolatingParam id="3745" interp="linr"  time="-9999999/1" value="0" leadInLength="0/1"  />
              </VectorParam>
              <VectorParam id="3746"  name="rotation">
               <InterpolatingParam id="3747" interp="linr"  time="-9999999/1" value="0" leadInLength="0/1"  />
               <InterpolatingParam id="3748" interp="linr"  time="-9999999/1" value="0" leadInLength="0/1"  />
               <InterpolatingParam id="3749" interp="linr"  time="-9999999/1" value="0" leadInLength="0/1"  />
              </VectorParam>
              <VectorParam id="3750"  name="shear">
               <InterpolatingParam id="3751" interp="linr"  time="-9999999/1" value="0" leadInLength="0/1"  />
               <InterpolatingParam id="3752" interp="linr"  time="-9999999/1" value="0" leadInLength="0/1"  />
               <InterpolatingParam id="3753" interp="linr"  time="-9999999/1" value="0" leadInLength="0/1"  />
              </VectorParam>
              <VectorParam id="3754"  name="scale">
               <InterpolatingParam id="3755" interp="linr"  time="-9999999/1" value="1" leadInLength="0/1"  />
               <InterpolatingParam id="3756" interp="linr"  time="-9999999/1" value="1" leadInLength="0/1"  />
               <InterpolatingParam id="3757" interp="linr"  time="-9999999/1" value="1" leadInLength="0/1"  />
              </VectorParam>
              <VectorParam id="3758"  name="anchor">
               <InterpolatingParam id="3759" interp="linr"  time="0/1" value="0" leadInLength="0/1"  />
               <InterpolatingParam id="3760" interp="linr"  time="0/1" value="0" leadInLength="0/1"  />
               <InterpolatingParam id="3761" interp="linr"  time="0/1" value="0" leadInLength="0/1"  />
              </VectorParam>
             </Transformer>
             <Parameters>
              <VectorParam id="3762"  name="sourceCrop">
               <InterpolatingParam id="3763" interp="linr"  time="0/1" value="0" leadInLength="0/1"  />
               <InterpolatingParam id="3764" interp="linr"  time="0/1" value="0" leadInLength="0/1"  />
               <InterpolatingParam id="3765" interp="linr"  time="0/1" value="0" leadInLength="0/1"  />
               <InterpolatingParam id="3766" interp="linr"  time="0/1" value="0" leadInLength="0/1"  />
              </VectorParam>
              <VectorParam id="3767"  name="geometryCrop">
               <InterpolatingParam id="3768" interp="linr"  time="-9999999/1" value="0" leadInLength="0/1"  />
               <InterpolatingParam id="3769" interp="linr"  time="-9999999/1" value="0" leadInLength="0/1"  />
               <InterpolatingParam id="3770" interp="linr"  time="-9999999/1" value="0" leadInLength="0/1"  />
               <InterpolatingParam id="3771" interp="linr"  time="-9999999/1" value="0" leadInLength="0/1"  />
              </VectorParam>
              <InterpolatingParam id="3772" interp="linr"  time="-9999999/1" value="1" leadInLength="0/1"  name="opacity"/>
              <InterpolatingParam id="3773" interp="linr"  time="0/1" value="0" leadInLength="0/1"  name="cursorOpacity"/>
              <InterpolatingParam id="3774" interp="linr"  time="0/1" value="0" leadInLength="0/1"  name="cursorScale"/>
             </Parameters>
             <Attributes>
              <Attribute id="3775" value="" name="ident"/>
             </Attributes>
             <ExtraData>
              <Entry key="ZoomPanBin">
               <ZoomPanBin id="3776"  >
                <ZoomPanKeyframes>
                 <ZoomPanKeyframe id="3777" timeRangeEnd="-9999999/1" timeRangeDuration="0/1" interpolaterName=""  />
                </ZoomPanKeyframes>
               </ZoomPanBin>
              </Entry>
              <Entry key="CursorEffectBin">
               <CursorEffectBin id="3778"  >
                <CursorEffectKeyframes>
                </CursorEffectKeyframes>
               </CursorEffectBin>
              </Entry>
             </ExtraData>
            </ScreenVMFile>
            <MetaData>
             <entry key="AutoAppliedSmartFocus" val="False"/>
             <entry key="WinSubProjectDisplayName" val=""/>
            </MetaData>
           </UnifiedMedia>
           <UnifiedMedia id="3779"  >
            <AMFile id="3780" start="11897" duration="45" scalar="1/1" mediaStart="25772/1" mediaDuration="45/1" trackNumber="1" src="4" channelNumber="0,1" >
             <Parameters>
              <InterpolatingParam id="3781" interp="linr"  time="0/1" value="1" leadInLength="0/1"  name="volume"/>
              <Parameter id="3782"  name="captions"/>
             </Parameters>
             <Attributes>
              <Attribute id="3783" value="" name="ident"/>
              <Attribute id="3784" value="44100" name="sampleRate"/>
              <Attribute id="3785" value="16" name="bitDepth"/>
              <Attribute id="3786" value="1" name="gain"/>
              <Attribute id="3787" value="0" name="mixToMono"/>
             </Attributes>
            </AMFile>
            <ScreenVMFile id="3788" start="11897" duration="45" scalar="1/1" mediaStart="25772/1" mediaDuration="45/1" trackNumber="0" src="4" >
             <Transformer>
              <VectorParam id="3789"  name="translation">
               <InterpolatingParam id="3790" interp="linr"  time="-9999999/1" value="0" leadInLength="0/1"  />
               <InterpolatingParam id="3791" interp="linr"  time="-9999999/1" value="0" leadInLength="0/1"  />
               <InterpolatingParam id="3792" interp="linr"  time="-9999999/1" value="0" leadInLength="0/1"  />
              </VectorParam>
              <VectorParam id="3793"  name="rotation">
               <InterpolatingParam id="3794" interp="linr"  time="-9999999/1" value="0" leadInLength="0/1"  />
               <InterpolatingParam id="3795" interp="linr"  time="-9999999/1" value="0" leadInLength="0/1"  />
               <InterpolatingParam id="3796" interp="linr"  time="-9999999/1" value="0" leadInLength="0/1"  />
              </VectorParam>
              <VectorParam id="3797"  name="shear">
               <InterpolatingParam id="3798" interp="linr"  time="-9999999/1" value="0" leadInLength="0/1"  />
               <InterpolatingParam id="3799" interp="linr"  time="-9999999/1" value="0" leadInLength="0/1"  />
               <InterpolatingParam id="3800" interp="linr"  time="-9999999/1" value="0" leadInLength="0/1"  />
              </VectorParam>
              <VectorParam id="3801"  name="scale">
               <InterpolatingParam id="3802" interp="linr"  time="-9999999/1" value="1" leadInLength="0/1"  />
               <InterpolatingParam id="3803" interp="linr"  time="-9999999/1" value="1" leadInLength="0/1"  />
               <InterpolatingParam id="3804" interp="linr"  time="-9999999/1" value="1" leadInLength="0/1"  />
              </VectorParam>
              <VectorParam id="3805"  name="anchor">
               <InterpolatingParam id="3806" interp="linr"  time="0/1" value="0" leadInLength="0/1"  />
               <InterpolatingParam id="3807" interp="linr"  time="0/1" value="0" leadInLength="0/1"  />
               <InterpolatingParam id="3808" interp="linr"  time="0/1" value="0" leadInLength="0/1"  />
              </VectorParam>
             </Transformer>
             <Parameters>
              <VectorParam id="3809"  name="sourceCrop">
               <InterpolatingParam id="3810" interp="linr"  time="0/1" value="0" leadInLength="0/1"  />
               <InterpolatingParam id="3811" interp="linr"  time="0/1" value="0" leadInLength="0/1"  />
               <InterpolatingParam id="3812" interp="linr"  time="0/1" value="0" leadInLength="0/1"  />
               <InterpolatingParam id="3813" interp="linr"  time="0/1" value="0" leadInLength="0/1"  />
              </VectorParam>
              <VectorParam id="3814"  name="geometryCrop">
               <InterpolatingParam id="3815" interp="linr"  time="-9999999/1" value="0" leadInLength="0/1"  />
               <InterpolatingParam id="3816" interp="linr"  time="-9999999/1" value="0" leadInLength="0/1"  />
               <InterpolatingParam id="3817" interp="linr"  time="-9999999/1" value="0" leadInLength="0/1"  />
               <InterpolatingParam id="3818" interp="linr"  time="-9999999/1" value="0" leadInLength="0/1"  />
              </VectorParam>
              <InterpolatingParam id="3819" interp="linr"  time="-9999999/1" value="1" leadInLength="0/1"  name="opacity"/>
              <InterpolatingParam id="3820" interp="linr"  time="0/1" value="0" leadInLength="0/1"  name="cursorOpacity"/>
              <InterpolatingParam id="3821" interp="linr"  time="0/1" value="0" leadInLength="0/1"  name="cursorScale"/>
             </Parameters>
             <Attributes>
              <Attribute id="3822" value="" name="ident"/>
             </Attributes>
             <ExtraData>
              <Entry key="ZoomPanBin">
               <ZoomPanBin id="3823"  >
                <ZoomPanKeyframes>
                 <ZoomPanKeyframe id="3824" timeRangeEnd="-9999999/1" timeRangeDuration="0/1" interpolaterName=""  />
                </ZoomPanKeyframes>
               </ZoomPanBin>
              </Entry>
              <Entry key="CursorEffectBin">
               <CursorEffectBin id="3825"  >
                <CursorEffectKeyframes>
                </CursorEffectKeyframes>
               </CursorEffectBin>
              </Entry>
             </ExtraData>
            </ScreenVMFile>
            <MetaData>
             <entry key="AutoAppliedSmartFocus" val="False"/>
             <entry key="WinSubProjectDisplayName" val=""/>
            </MetaData>
           </UnifiedMedia>
           <UnifiedMedia id="3826"  >
            <AMFile id="3827" start="11942" duration="19" scalar="1/1" mediaStart="25826/1" mediaDuration="19/1" trackNumber="1" src="4" channelNumber="0,1" >
             <Parameters>
              <InterpolatingParam id="3828" interp="linr"  time="0/1" value="1" leadInLength="0/1"  name="volume"/>
              <Parameter id="3829"  name="captions"/>
             </Parameters>
             <Attributes>
              <Attribute id="3830" value="" name="ident"/>
              <Attribute id="3831" value="44100" name="sampleRate"/>
              <Attribute id="3832" value="16" name="bitDepth"/>
              <Attribute id="3833" value="1" name="gain"/>
              <Attribute id="3834" value="0" name="mixToMono"/>
             </Attributes>
            </AMFile>
            <ScreenVMFile id="3835" start="11942" duration="19" scalar="1/1" mediaStart="25826/1" mediaDuration="19/1" trackNumber="0" src="4" >
             <Transformer>
              <VectorParam id="3836"  name="translation">
               <InterpolatingParam id="3837" interp="linr"  time="-9999999/1" value="0" leadInLength="0/1"  />
               <InterpolatingParam id="3838" interp="linr"  time="-9999999/1" value="0" leadInLength="0/1"  />
               <InterpolatingParam id="3839" interp="linr"  time="-9999999/1" value="0" leadInLength="0/1"  />
              </VectorParam>
              <VectorParam id="3840"  name="rotation">
               <InterpolatingParam id="3841" interp="linr"  time="-9999999/1" value="0" leadInLength="0/1"  />
               <InterpolatingParam id="3842" interp="linr"  time="-9999999/1" value="0" leadInLength="0/1"  />
               <InterpolatingParam id="3843" interp="linr"  time="-9999999/1" value="0" leadInLength="0/1"  />
              </VectorParam>
              <VectorParam id="3844"  name="shear">
               <InterpolatingParam id="3845" interp="linr"  time="-9999999/1" value="0" leadInLength="0/1"  />
               <InterpolatingParam id="3846" interp="linr"  time="-9999999/1" value="0" leadInLength="0/1"  />
               <InterpolatingParam id="3847" interp="linr"  time="-9999999/1" value="0" leadInLength="0/1"  />
              </VectorParam>
              <VectorParam id="3848"  name="scale">
               <InterpolatingParam id="3849" interp="linr"  time="-9999999/1" value="1" leadInLength="0/1"  />
               <InterpolatingParam id="3850" interp="linr"  time="-9999999/1" value="1" leadInLength="0/1"  />
               <InterpolatingParam id="3851" interp="linr"  time="-9999999/1" value="1" leadInLength="0/1"  />
              </VectorParam>
              <VectorParam id="3852"  name="anchor">
               <InterpolatingParam id="3853" interp="linr"  time="0/1" value="0" leadInLength="0/1"  />
               <InterpolatingParam id="3854" interp="linr"  time="0/1" value="0" leadInLength="0/1"  />
               <InterpolatingParam id="3855" interp="linr"  time="0/1" value="0" leadInLength="0/1"  />
              </VectorParam>
             </Transformer>
             <Parameters>
              <VectorParam id="3856"  name="sourceCrop">
               <InterpolatingParam id="3857" interp="linr"  time="0/1" value="0" leadInLength="0/1"  />
               <InterpolatingParam id="3858" interp="linr"  time="0/1" value="0" leadInLength="0/1"  />
               <InterpolatingParam id="3859" interp="linr"  time="0/1" value="0" leadInLength="0/1"  />
               <InterpolatingParam id="3860" interp="linr"  time="0/1" value="0" leadInLength="0/1"  />
              </VectorParam>
              <VectorParam id="3861"  name="geometryCrop">
               <InterpolatingParam id="3862" interp="linr"  time="-9999999/1" value="0" leadInLength="0/1"  />
               <InterpolatingParam id="3863" interp="linr"  time="-9999999/1" value="0" leadInLength="0/1"  />
               <InterpolatingParam id="3864" interp="linr"  time="-9999999/1" value="0" leadInLength="0/1"  />
               <InterpolatingParam id="3865" interp="linr"  time="-9999999/1" value="0" leadInLength="0/1"  />
              </VectorParam>
              <InterpolatingParam id="3866" interp="linr"  time="-9999999/1" value="1" leadInLength="0/1"  name="opacity"/>
              <InterpolatingParam id="3867" interp="linr"  time="0/1" value="0" leadInLength="0/1"  name="cursorOpacity"/>
              <InterpolatingParam id="3868" interp="linr"  time="0/1" value="0" leadInLength="0/1"  name="cursorScale"/>
             </Parameters>
             <Attributes>
              <Attribute id="3869" value="" name="ident"/>
             </Attributes>
             <ExtraData>
              <Entry key="ZoomPanBin">
               <ZoomPanBin id="3870"  >
                <ZoomPanKeyframes>
                 <ZoomPanKeyframe id="3871" timeRangeEnd="-9999999/1" timeRangeDuration="0/1" interpolaterName=""  />
                </ZoomPanKeyframes>
               </ZoomPanBin>
              </Entry>
              <Entry key="CursorEffectBin">
               <CursorEffectBin id="3872"  >
                <CursorEffectKeyframes>
                </CursorEffectKeyframes>
               </CursorEffectBin>
              </Entry>
             </ExtraData>
            </ScreenVMFile>
            <MetaData>
             <entry key="AutoAppliedSmartFocus" val="False"/>
             <entry key="WinSubProjectDisplayName" val=""/>
            </MetaData>
           </UnifiedMedia>
           <UnifiedMedia id="3873"  >
            <AMFile id="3874" start="11961" duration="82" scalar="1/1" mediaStart="25863/1" mediaDuration="82/1" trackNumber="1" src="4" channelNumber="0,1" >
             <Parameters>
              <InterpolatingParam id="3875" interp="linr"  time="0/1" value="1" leadInLength="0/1"  name="volume"/>
              <Parameter id="3876"  name="captions"/>
             </Parameters>
             <Attributes>
              <Attribute id="3877" value="" name="ident"/>
              <Attribute id="3878" value="44100" name="sampleRate"/>
              <Attribute id="3879" value="16" name="bitDepth"/>
              <Attribute id="3880" value="1" name="gain"/>
              <Attribute id="3881" value="0" name="mixToMono"/>
             </Attributes>
            </AMFile>
            <ScreenVMFile id="3882" start="11961" duration="82" scalar="1/1" mediaStart="25863/1" mediaDuration="82/1" trackNumber="0" src="4" >
             <Transformer>
              <VectorParam id="3883"  name="translation">
               <InterpolatingParam id="3884" interp="linr"  time="-9999999/1" value="0" leadInLength="0/1"  />
               <InterpolatingParam id="3885" interp="linr"  time="-9999999/1" value="0" leadInLength="0/1"  />
               <InterpolatingParam id="3886" interp="linr"  time="-9999999/1" value="0" leadInLength="0/1"  />
              </VectorParam>
              <VectorParam id="3887"  name="rotation">
               <InterpolatingParam id="3888" interp="linr"  time="-9999999/1" value="0" leadInLength="0/1"  />
               <InterpolatingParam id="3889" interp="linr"  time="-9999999/1" value="0" leadInLength="0/1"  />
               <InterpolatingParam id="3890" interp="linr"  time="-9999999/1" value="0" leadInLength="0/1"  />
              </VectorParam>
              <VectorParam id="3891"  name="shear">
               <InterpolatingParam id="3892" interp="linr"  time="-9999999/1" value="0" leadInLength="0/1"  />
               <InterpolatingParam id="3893" interp="linr"  time="-9999999/1" value="0" leadInLength="0/1"  />
               <InterpolatingParam id="3894" interp="linr"  time="-9999999/1" value="0" leadInLength="0/1"  />
              </VectorParam>
              <VectorParam id="3895"  name="scale">
               <InterpolatingParam id="3896" interp="linr"  time="-9999999/1" value="1" leadInLength="0/1"  />
               <InterpolatingParam id="3897" interp="linr"  time="-9999999/1" value="1" leadInLength="0/1"  />
               <InterpolatingParam id="3898" interp="linr"  time="-9999999/1" value="1" leadInLength="0/1"  />
              </VectorParam>
              <VectorParam id="3899"  name="anchor">
               <InterpolatingParam id="3900" interp="linr"  time="0/1" value="0" leadInLength="0/1"  />
               <InterpolatingParam id="3901" interp="linr"  time="0/1" value="0" leadInLength="0/1"  />
               <InterpolatingParam id="3902" interp="linr"  time="0/1" value="0" leadInLength="0/1"  />
              </VectorParam>
             </Transformer>
             <Parameters>
              <VectorParam id="3903"  name="sourceCrop">
               <InterpolatingParam id="3904" interp="linr"  time="0/1" value="0" leadInLength="0/1"  />
               <InterpolatingParam id="3905" interp="linr"  time="0/1" value="0" leadInLength="0/1"  />
               <InterpolatingParam id="3906" interp="linr"  time="0/1" value="0" leadInLength="0/1"  />
               <InterpolatingParam id="3907" interp="linr"  time="0/1" value="0" leadInLength="0/1"  />
              </VectorParam>
              <VectorParam id="3908"  name="geometryCrop">
               <InterpolatingParam id="3909" interp="linr"  time="-9999999/1" value="0" leadInLength="0/1"  />
               <InterpolatingParam id="3910" interp="linr"  time="-9999999/1" value="0" leadInLength="0/1"  />
               <InterpolatingParam id="3911" interp="linr"  time="-9999999/1" value="0" leadInLength="0/1"  />
               <InterpolatingParam id="3912" interp="linr"  time="-9999999/1" value="0" leadInLength="0/1"  />
              </VectorParam>
              <InterpolatingParam id="3913" interp="linr"  time="-9999999/1" value="1" leadInLength="0/1"  name="opacity"/>
              <InterpolatingParam id="3914" interp="linr"  time="0/1" value="0" leadInLength="0/1"  name="cursorOpacity"/>
              <InterpolatingParam id="3915" interp="linr"  time="0/1" value="0" leadInLength="0/1"  name="cursorScale"/>
             </Parameters>
             <Attributes>
              <Attribute id="3916" value="" name="ident"/>
             </Attributes>
             <ExtraData>
              <Entry key="ZoomPanBin">
               <ZoomPanBin id="3917"  >
                <ZoomPanKeyframes>
                 <ZoomPanKeyframe id="3918" timeRangeEnd="-9999999/1" timeRangeDuration="0/1" interpolaterName=""  />
                </ZoomPanKeyframes>
               </ZoomPanBin>
              </Entry>
              <Entry key="CursorEffectBin">
               <CursorEffectBin id="3919"  >
                <CursorEffectKeyframes>
                </CursorEffectKeyframes>
               </CursorEffectBin>
              </Entry>
             </ExtraData>
            </ScreenVMFile>
            <MetaData>
             <entry key="AutoAppliedSmartFocus" val="False"/>
             <entry key="WinSubProjectDisplayName" val=""/>
            </MetaData>
           </UnifiedMedia>
           <UnifiedMedia id="3920"  >
            <AMFile id="3921" start="12043" duration="64" scalar="1/1" mediaStart="26261/1" mediaDuration="64/1" trackNumber="1" src="4" channelNumber="0,1" >
             <Parameters>
              <InterpolatingParam id="3922" interp="linr"  time="0/1" value="1" leadInLength="0/1"  name="volume"/>
              <Parameter id="3923"  name="captions"/>
             </Parameters>
             <Attributes>
              <Attribute id="3924" value="" name="ident"/>
              <Attribute id="3925" value="44100" name="sampleRate"/>
              <Attribute id="3926" value="16" name="bitDepth"/>
              <Attribute id="3927" value="1" name="gain"/>
              <Attribute id="3928" value="0" name="mixToMono"/>
             </Attributes>
            </AMFile>
            <ScreenVMFile id="3929" start="12043" duration="64" scalar="1/1" mediaStart="26261/1" mediaDuration="64/1" trackNumber="0" src="4" >
             <Transformer>
              <VectorParam id="3930"  name="translation">
               <InterpolatingParam id="3931" interp="linr"  time="-9999999/1" value="0" leadInLength="0/1"  />
               <InterpolatingParam id="3932" interp="linr"  time="-9999999/1" value="0" leadInLength="0/1"  />
               <InterpolatingParam id="3933" interp="linr"  time="-9999999/1" value="0" leadInLength="0/1"  />
              </VectorParam>
              <VectorParam id="3934"  name="rotation">
               <InterpolatingParam id="3935" interp="linr"  time="-9999999/1" value="0" leadInLength="0/1"  />
               <InterpolatingParam id="3936" interp="linr"  time="-9999999/1" value="0" leadInLength="0/1"  />
               <InterpolatingParam id="3937" interp="linr"  time="-9999999/1" value="0" leadInLength="0/1"  />
              </VectorParam>
              <VectorParam id="3938"  name="shear">
               <InterpolatingParam id="3939" interp="linr"  time="-9999999/1" value="0" leadInLength="0/1"  />
               <InterpolatingParam id="3940" interp="linr"  time="-9999999/1" value="0" leadInLength="0/1"  />
               <InterpolatingParam id="3941" interp="linr"  time="-9999999/1" value="0" leadInLength="0/1"  />
              </VectorParam>
              <VectorParam id="3942"  name="scale">
               <InterpolatingParam id="3943" interp="linr"  time="-9999999/1" value="1" leadInLength="0/1"  />
               <InterpolatingParam id="3944" interp="linr"  time="-9999999/1" value="1" leadInLength="0/1"  />
               <InterpolatingParam id="3945" interp="linr"  time="-9999999/1" value="1" leadInLength="0/1"  />
              </VectorParam>
              <VectorParam id="3946"  name="anchor">
               <InterpolatingParam id="3947" interp="linr"  time="0/1" value="0" leadInLength="0/1"  />
               <InterpolatingParam id="3948" interp="linr"  time="0/1" value="0" leadInLength="0/1"  />
               <InterpolatingParam id="3949" interp="linr"  time="0/1" value="0" leadInLength="0/1"  />
              </VectorParam>
             </Transformer>
             <Parameters>
              <VectorParam id="3950"  name="sourceCrop">
               <InterpolatingParam id="3951" interp="linr"  time="0/1" value="0" leadInLength="0/1"  />
               <InterpolatingParam id="3952" interp="linr"  time="0/1" value="0" leadInLength="0/1"  />
               <InterpolatingParam id="3953" interp="linr"  time="0/1" value="0" leadInLength="0/1"  />
               <InterpolatingParam id="3954" interp="linr"  time="0/1" value="0" leadInLength="0/1"  />
              </VectorParam>
              <VectorParam id="3955"  name="geometryCrop">
               <InterpolatingParam id="3956" interp="linr"  time="-9999999/1" value="0" leadInLength="0/1"  />
               <InterpolatingParam id="3957" interp="linr"  time="-9999999/1" value="0" leadInLength="0/1"  />
               <InterpolatingParam id="3958" interp="linr"  time="-9999999/1" value="0" leadInLength="0/1"  />
               <InterpolatingParam id="3959" interp="linr"  time="-9999999/1" value="0" leadInLength="0/1"  />
              </VectorParam>
              <InterpolatingParam id="3960" interp="linr"  time="-9999999/1" value="1" leadInLength="0/1"  name="opacity"/>
              <InterpolatingParam id="3961" interp="linr"  time="0/1" value="0" leadInLength="0/1"  name="cursorOpacity"/>
              <InterpolatingParam id="3962" interp="linr"  time="0/1" value="0" leadInLength="0/1"  name="cursorScale"/>
             </Parameters>
             <Attributes>
              <Attribute id="3963" value="" name="ident"/>
             </Attributes>
             <ExtraData>
              <Entry key="ZoomPanBin">
               <ZoomPanBin id="3964"  >
                <ZoomPanKeyframes>
                 <ZoomPanKeyframe id="3965" timeRangeEnd="-9999999/1" timeRangeDuration="0/1" interpolaterName=""  />
                </ZoomPanKeyframes>
               </ZoomPanBin>
              </Entry>
              <Entry key="CursorEffectBin">
               <CursorEffectBin id="3966"  >
                <CursorEffectKeyframes>
                </CursorEffectKeyframes>
               </CursorEffectBin>
              </Entry>
             </ExtraData>
            </ScreenVMFile>
            <MetaData>
             <entry key="AutoAppliedSmartFocus" val="False"/>
             <entry key="WinSubProjectDisplayName" val=""/>
            </MetaData>
           </UnifiedMedia>
           <UnifiedMedia id="3967"  >
            <AMFile id="3968" start="12107" duration="142" scalar="1/1" mediaStart="26337/1" mediaDuration="142/1" trackNumber="1" src="4" channelNumber="0,1" >
             <Parameters>
              <InterpolatingParam id="3969" interp="linr"  time="0/1" value="1" leadInLength="0/1"  name="volume"/>
              <Parameter id="3970"  name="captions"/>
             </Parameters>
             <Attributes>
              <Attribute id="3971" value="" name="ident"/>
              <Attribute id="3972" value="44100" name="sampleRate"/>
              <Attribute id="3973" value="16" name="bitDepth"/>
              <Attribute id="3974" value="1" name="gain"/>
              <Attribute id="3975" value="0" name="mixToMono"/>
             </Attributes>
            </AMFile>
            <ScreenVMFile id="3976" start="12107" duration="142" scalar="1/1" mediaStart="26337/1" mediaDuration="142/1" trackNumber="0" src="4" >
             <Transformer>
              <VectorParam id="3977"  name="translation">
               <InterpolatingParam id="3978" interp="linr"  time="-9999999/1" value="0" leadInLength="0/1"  />
               <InterpolatingParam id="3979" interp="linr"  time="-9999999/1" value="0" leadInLength="0/1"  />
               <InterpolatingParam id="3980" interp="linr"  time="-9999999/1" value="0" leadInLength="0/1"  />
              </VectorParam>
              <VectorParam id="3981"  name="rotation">
               <InterpolatingParam id="3982" interp="linr"  time="-9999999/1" value="0" leadInLength="0/1"  />
               <InterpolatingParam id="3983" interp="linr"  time="-9999999/1" value="0" leadInLength="0/1"  />
               <InterpolatingParam id="3984" interp="linr"  time="-9999999/1" value="0" leadInLength="0/1"  />
              </VectorParam>
              <VectorParam id="3985"  name="shear">
               <InterpolatingParam id="3986" interp="linr"  time="-9999999/1" value="0" leadInLength="0/1"  />
               <InterpolatingParam id="3987" interp="linr"  time="-9999999/1" value="0" leadInLength="0/1"  />
               <InterpolatingParam id="3988" interp="linr"  time="-9999999/1" value="0" leadInLength="0/1"  />
              </VectorParam>
              <VectorParam id="3989"  name="scale">
               <InterpolatingParam id="3990" interp="linr"  time="-9999999/1" value="1" leadInLength="0/1"  />
               <InterpolatingParam id="3991" interp="linr"  time="-9999999/1" value="1" leadInLength="0/1"  />
               <InterpolatingParam id="3992" interp="linr"  time="-9999999/1" value="1" leadInLength="0/1"  />
              </VectorParam>
              <VectorParam id="3993"  name="anchor">
               <InterpolatingParam id="3994" interp="linr"  time="0/1" value="0" leadInLength="0/1"  />
               <InterpolatingParam id="3995" interp="linr"  time="0/1" value="0" leadInLength="0/1"  />
               <InterpolatingParam id="3996" interp="linr"  time="0/1" value="0" leadInLength="0/1"  />
              </VectorParam>
             </Transformer>
             <Parameters>
              <VectorParam id="3997"  name="sourceCrop">
               <InterpolatingParam id="3998" interp="linr"  time="0/1" value="0" leadInLength="0/1"  />
               <InterpolatingParam id="3999" interp="linr"  time="0/1" value="0" leadInLength="0/1"  />
               <InterpolatingParam id="4000" interp="linr"  time="0/1" value="0" leadInLength="0/1"  />
               <InterpolatingParam id="4001" interp="linr"  time="0/1" value="0" leadInLength="0/1"  />
              </VectorParam>
              <VectorParam id="4002"  name="geometryCrop">
               <InterpolatingParam id="4003" interp="linr"  time="-9999999/1" value="0" leadInLength="0/1"  />
               <InterpolatingParam id="4004" interp="linr"  time="-9999999/1" value="0" leadInLength="0/1"  />
               <InterpolatingParam id="4005" interp="linr"  time="-9999999/1" value="0" leadInLength="0/1"  />
               <InterpolatingParam id="4006" interp="linr"  time="-9999999/1" value="0" leadInLength="0/1"  />
              </VectorParam>
              <InterpolatingParam id="4007" interp="linr"  time="-9999999/1" value="1" leadInLength="0/1"  name="opacity"/>
              <InterpolatingParam id="4008" interp="linr"  time="0/1" value="0" leadInLength="0/1"  name="cursorOpacity"/>
              <InterpolatingParam id="4009" interp="linr"  time="0/1" value="0" leadInLength="0/1"  name="cursorScale"/>
             </Parameters>
             <Attributes>
              <Attribute id="4010" value="" name="ident"/>
             </Attributes>
             <ExtraData>
              <Entry key="ZoomPanBin">
               <ZoomPanBin id="4011"  >
                <ZoomPanKeyframes>
                 <ZoomPanKeyframe id="4012" timeRangeEnd="-9999999/1" timeRangeDuration="0/1" interpolaterName=""  />
                </ZoomPanKeyframes>
               </ZoomPanBin>
              </Entry>
              <Entry key="CursorEffectBin">
               <CursorEffectBin id="4013"  >
                <CursorEffectKeyframes>
                </CursorEffectKeyframes>
               </CursorEffectBin>
              </Entry>
             </ExtraData>
            </ScreenVMFile>
            <MetaData>
             <entry key="AutoAppliedSmartFocus" val="False"/>
             <entry key="WinSubProjectDisplayName" val=""/>
            </MetaData>
           </UnifiedMedia>
           <UnifiedMedia id="4014"  >
            <AMFile id="4015" start="12249" duration="62" scalar="1/1" mediaStart="26495/1" mediaDuration="62/1" trackNumber="1" src="4" channelNumber="0,1" >
             <Parameters>
              <InterpolatingParam id="4016" interp="linr"  time="0/1" value="1" leadInLength="0/1"  name="volume"/>
              <Parameter id="4017"  name="captions"/>
             </Parameters>
             <Attributes>
              <Attribute id="4018" value="" name="ident"/>
              <Attribute id="4019" value="44100" name="sampleRate"/>
              <Attribute id="4020" value="16" name="bitDepth"/>
              <Attribute id="4021" value="1" name="gain"/>
              <Attribute id="4022" value="0" name="mixToMono"/>
             </Attributes>
            </AMFile>
            <ScreenVMFile id="4023" start="12249" duration="62" scalar="1/1" mediaStart="26495/1" mediaDuration="62/1" trackNumber="0" src="4" >
             <Transformer>
              <VectorParam id="4024"  name="translation">
               <InterpolatingParam id="4025" interp="linr"  time="-9999999/1" value="0" leadInLength="0/1"  />
               <InterpolatingParam id="4026" interp="linr"  time="-9999999/1" value="0" leadInLength="0/1"  />
               <InterpolatingParam id="4027" interp="linr"  time="-9999999/1" value="0" leadInLength="0/1"  />
              </VectorParam>
              <VectorParam id="4028"  name="rotation">
               <InterpolatingParam id="4029" interp="linr"  time="-9999999/1" value="0" leadInLength="0/1"  />
               <InterpolatingParam id="4030" interp="linr"  time="-9999999/1" value="0" leadInLength="0/1"  />
               <InterpolatingParam id="4031" interp="linr"  time="-9999999/1" value="0" leadInLength="0/1"  />
              </VectorParam>
              <VectorParam id="4032"  name="shear">
               <InterpolatingParam id="4033" interp="linr"  time="-9999999/1" value="0" leadInLength="0/1"  />
               <InterpolatingParam id="4034" interp="linr"  time="-9999999/1" value="0" leadInLength="0/1"  />
               <InterpolatingParam id="4035" interp="linr"  time="-9999999/1" value="0" leadInLength="0/1"  />
              </VectorParam>
              <VectorParam id="4036"  name="scale">
               <InterpolatingParam id="4037" interp="linr"  time="-9999999/1" value="1" leadInLength="0/1"  />
               <InterpolatingParam id="4038" interp="linr"  time="-9999999/1" value="1" leadInLength="0/1"  />
               <InterpolatingParam id="4039" interp="linr"  time="-9999999/1" value="1" leadInLength="0/1"  />
              </VectorParam>
              <VectorParam id="4040"  name="anchor">
               <InterpolatingParam id="4041" interp="linr"  time="0/1" value="0" leadInLength="0/1"  />
               <InterpolatingParam id="4042" interp="linr"  time="0/1" value="0" leadInLength="0/1"  />
               <InterpolatingParam id="4043" interp="linr"  time="0/1" value="0" leadInLength="0/1"  />
              </VectorParam>
             </Transformer>
             <Parameters>
              <VectorParam id="4044"  name="sourceCrop">
               <InterpolatingParam id="4045" interp="linr"  time="0/1" value="0" leadInLength="0/1"  />
               <InterpolatingParam id="4046" interp="linr"  time="0/1" value="0" leadInLength="0/1"  />
               <InterpolatingParam id="4047" interp="linr"  time="0/1" value="0" leadInLength="0/1"  />
               <InterpolatingParam id="4048" interp="linr"  time="0/1" value="0" leadInLength="0/1"  />
              </VectorParam>
              <VectorParam id="4049"  name="geometryCrop">
               <InterpolatingParam id="4050" interp="linr"  time="-9999999/1" value="0" leadInLength="0/1"  />
               <InterpolatingParam id="4051" interp="linr"  time="-9999999/1" value="0" leadInLength="0/1"  />
               <InterpolatingParam id="4052" interp="linr"  time="-9999999/1" value="0" leadInLength="0/1"  />
               <InterpolatingParam id="4053" interp="linr"  time="-9999999/1" value="0" leadInLength="0/1"  />
              </VectorParam>
              <InterpolatingParam id="4054" interp="linr"  time="-9999999/1" value="1" leadInLength="0/1"  name="opacity"/>
              <InterpolatingParam id="4055" interp="linr"  time="0/1" value="0" leadInLength="0/1"  name="cursorOpacity"/>
              <InterpolatingParam id="4056" interp="linr"  time="0/1" value="0" leadInLength="0/1"  name="cursorScale"/>
             </Parameters>
             <Attributes>
              <Attribute id="4057" value="" name="ident"/>
             </Attributes>
             <ExtraData>
              <Entry key="ZoomPanBin">
               <ZoomPanBin id="4058"  >
                <ZoomPanKeyframes>
                 <ZoomPanKeyframe id="4059" timeRangeEnd="-9999999/1" timeRangeDuration="0/1" interpolaterName=""  />
                </ZoomPanKeyframes>
               </ZoomPanBin>
              </Entry>
              <Entry key="CursorEffectBin">
               <CursorEffectBin id="4060"  >
                <CursorEffectKeyframes>
                </CursorEffectKeyframes>
               </CursorEffectBin>
              </Entry>
             </ExtraData>
            </ScreenVMFile>
            <MetaData>
             <entry key="AutoAppliedSmartFocus" val="False"/>
             <entry key="WinSubProjectDisplayName" val=""/>
            </MetaData>
           </UnifiedMedia>
           <UnifiedMedia id="4061"  >
            <AMFile id="4062" start="12311" duration="131" scalar="1/1" mediaStart="26566/1" mediaDuration="131/1" trackNumber="1" src="4" channelNumber="0,1" >
             <Parameters>
              <InterpolatingParam id="4063" interp="linr"  time="0/1" value="1" leadInLength="0/1"  name="volume"/>
              <Parameter id="4064"  name="captions"/>
             </Parameters>
             <Attributes>
              <Attribute id="4065" value="" name="ident"/>
              <Attribute id="4066" value="44100" name="sampleRate"/>
              <Attribute id="4067" value="16" name="bitDepth"/>
              <Attribute id="4068" value="1" name="gain"/>
              <Attribute id="4069" value="0" name="mixToMono"/>
             </Attributes>
            </AMFile>
            <ScreenVMFile id="4070" start="12311" duration="131" scalar="1/1" mediaStart="26566/1" mediaDuration="131/1" trackNumber="0" src="4" >
             <Transformer>
              <VectorParam id="4071"  name="translation">
               <InterpolatingParam id="4072" interp="linr"  time="-9999999/1" value="0" leadInLength="0/1"  />
               <InterpolatingParam id="4073" interp="linr"  time="-9999999/1" value="0" leadInLength="0/1"  />
               <InterpolatingParam id="4074" interp="linr"  time="-9999999/1" value="0" leadInLength="0/1"  />
              </VectorParam>
              <VectorParam id="4075"  name="rotation">
               <InterpolatingParam id="4076" interp="linr"  time="-9999999/1" value="0" leadInLength="0/1"  />
               <InterpolatingParam id="4077" interp="linr"  time="-9999999/1" value="0" leadInLength="0/1"  />
               <InterpolatingParam id="4078" interp="linr"  time="-9999999/1" value="0" leadInLength="0/1"  />
              </VectorParam>
              <VectorParam id="4079"  name="shear">
               <InterpolatingParam id="4080" interp="linr"  time="-9999999/1" value="0" leadInLength="0/1"  />
               <InterpolatingParam id="4081" interp="linr"  time="-9999999/1" value="0" leadInLength="0/1"  />
               <InterpolatingParam id="4082" interp="linr"  time="-9999999/1" value="0" leadInLength="0/1"  />
              </VectorParam>
              <VectorParam id="4083"  name="scale">
               <InterpolatingParam id="4084" interp="linr"  time="-9999999/1" value="1" leadInLength="0/1"  />
               <InterpolatingParam id="4085" interp="linr"  time="-9999999/1" value="1" leadInLength="0/1"  />
               <InterpolatingParam id="4086" interp="linr"  time="-9999999/1" value="1" leadInLength="0/1"  />
              </VectorParam>
              <VectorParam id="4087"  name="anchor">
               <InterpolatingParam id="4088" interp="linr"  time="0/1" value="0" leadInLength="0/1"  />
               <InterpolatingParam id="4089" interp="linr"  time="0/1" value="0" leadInLength="0/1"  />
               <InterpolatingParam id="4090" interp="linr"  time="0/1" value="0" leadInLength="0/1"  />
              </VectorParam>
             </Transformer>
             <Parameters>
              <VectorParam id="4091"  name="sourceCrop">
               <InterpolatingParam id="4092" interp="linr"  time="0/1" value="0" leadInLength="0/1"  />
               <InterpolatingParam id="4093" interp="linr"  time="0/1" value="0" leadInLength="0/1"  />
               <InterpolatingParam id="4094" interp="linr"  time="0/1" value="0" leadInLength="0/1"  />
               <InterpolatingParam id="4095" interp="linr"  time="0/1" value="0" leadInLength="0/1"  />
              </VectorParam>
              <VectorParam id="4096"  name="geometryCrop">
               <InterpolatingParam id="4097" interp="linr"  time="-9999999/1" value="0" leadInLength="0/1"  />
               <InterpolatingParam id="4098" interp="linr"  time="-9999999/1" value="0" leadInLength="0/1"  />
               <InterpolatingParam id="4099" interp="linr"  time="-9999999/1" value="0" leadInLength="0/1"  />
               <InterpolatingParam id="4100" interp="linr"  time="-9999999/1" value="0" leadInLength="0/1"  />
              </VectorParam>
              <InterpolatingParam id="4101" interp="linr"  time="-9999999/1" value="1" leadInLength="0/1"  name="opacity"/>
              <InterpolatingParam id="4102" interp="linr"  time="0/1" value="0" leadInLength="0/1"  name="cursorOpacity"/>
              <InterpolatingParam id="4103" interp="linr"  time="0/1" value="0" leadInLength="0/1"  name="cursorScale"/>
             </Parameters>
             <Attributes>
              <Attribute id="4104" value="" name="ident"/>
             </Attributes>
             <ExtraData>
              <Entry key="ZoomPanBin">
               <ZoomPanBin id="4105"  >
                <ZoomPanKeyframes>
                 <ZoomPanKeyframe id="4106" timeRangeEnd="-9999999/1" timeRangeDuration="0/1" interpolaterName=""  />
                </ZoomPanKeyframes>
               </ZoomPanBin>
              </Entry>
              <Entry key="CursorEffectBin">
               <CursorEffectBin id="4107"  >
                <CursorEffectKeyframes>
                </CursorEffectKeyframes>
               </CursorEffectBin>
              </Entry>
             </ExtraData>
            </ScreenVMFile>
            <MetaData>
             <entry key="AutoAppliedSmartFocus" val="False"/>
             <entry key="WinSubProjectDisplayName" val=""/>
            </MetaData>
           </UnifiedMedia>
           <UnifiedMedia id="4108"  >
            <AMFile id="4109" start="12442" duration="38" scalar="1/1" mediaStart="27213/1" mediaDuration="38/1" trackNumber="1" src="4" channelNumber="0,1" >
             <Parameters>
              <InterpolatingParam id="4110" interp="linr"  time="0/1" value="1" leadInLength="0/1"  name="volume"/>
              <Parameter id="4111"  name="captions"/>
             </Parameters>
             <Attributes>
              <Attribute id="4112" value="" name="ident"/>
              <Attribute id="4113" value="44100" name="sampleRate"/>
              <Attribute id="4114" value="16" name="bitDepth"/>
              <Attribute id="4115" value="1" name="gain"/>
              <Attribute id="4116" value="0" name="mixToMono"/>
             </Attributes>
            </AMFile>
            <ScreenVMFile id="4117" start="12442" duration="38" scalar="1/1" mediaStart="27213/1" mediaDuration="38/1" trackNumber="0" src="4" >
             <Transformer>
              <VectorParam id="4118"  name="translation">
               <InterpolatingParam id="4119" interp="linr"  time="-9999999/1" value="0" leadInLength="0/1"  />
               <InterpolatingParam id="4120" interp="linr"  time="-9999999/1" value="0" leadInLength="0/1"  />
               <InterpolatingParam id="4121" interp="linr"  time="-9999999/1" value="0" leadInLength="0/1"  />
              </VectorParam>
              <VectorParam id="4122"  name="rotation">
               <InterpolatingParam id="4123" interp="linr"  time="-9999999/1" value="0" leadInLength="0/1"  />
               <InterpolatingParam id="4124" interp="linr"  time="-9999999/1" value="0" leadInLength="0/1"  />
               <InterpolatingParam id="4125" interp="linr"  time="-9999999/1" value="0" leadInLength="0/1"  />
              </VectorParam>
              <VectorParam id="4126"  name="shear">
               <InterpolatingParam id="4127" interp="linr"  time="-9999999/1" value="0" leadInLength="0/1"  />
               <InterpolatingParam id="4128" interp="linr"  time="-9999999/1" value="0" leadInLength="0/1"  />
               <InterpolatingParam id="4129" interp="linr"  time="-9999999/1" value="0" leadInLength="0/1"  />
              </VectorParam>
              <VectorParam id="4130"  name="scale">
               <InterpolatingParam id="4131" interp="linr"  time="-9999999/1" value="1" leadInLength="0/1"  />
               <InterpolatingParam id="4132" interp="linr"  time="-9999999/1" value="1" leadInLength="0/1"  />
               <InterpolatingParam id="4133" interp="linr"  time="-9999999/1" value="1" leadInLength="0/1"  />
              </VectorParam>
              <VectorParam id="4134"  name="anchor">
               <InterpolatingParam id="4135" interp="linr"  time="0/1" value="0" leadInLength="0/1"  />
               <InterpolatingParam id="4136" interp="linr"  time="0/1" value="0" leadInLength="0/1"  />
               <InterpolatingParam id="4137" interp="linr"  time="0/1" value="0" leadInLength="0/1"  />
              </VectorParam>
             </Transformer>
             <Parameters>
              <VectorParam id="4138"  name="sourceCrop">
               <InterpolatingParam id="4139" interp="linr"  time="0/1" value="0" leadInLength="0/1"  />
               <InterpolatingParam id="4140" interp="linr"  time="0/1" value="0" leadInLength="0/1"  />
               <InterpolatingParam id="4141" interp="linr"  time="0/1" value="0" leadInLength="0/1"  />
               <InterpolatingParam id="4142" interp="linr"  time="0/1" value="0" leadInLength="0/1"  />
              </VectorParam>
              <VectorParam id="4143"  name="geometryCrop">
               <InterpolatingParam id="4144" interp="linr"  time="-9999999/1" value="0" leadInLength="0/1"  />
               <InterpolatingParam id="4145" interp="linr"  time="-9999999/1" value="0" leadInLength="0/1"  />
               <InterpolatingParam id="4146" interp="linr"  time="-9999999/1" value="0" leadInLength="0/1"  />
               <InterpolatingParam id="4147" interp="linr"  time="-9999999/1" value="0" leadInLength="0/1"  />
              </VectorParam>
              <InterpolatingParam id="4148" interp="linr"  time="-9999999/1" value="1" leadInLength="0/1"  name="opacity"/>
              <InterpolatingParam id="4149" interp="linr"  time="0/1" value="0" leadInLength="0/1"  name="cursorOpacity"/>
              <InterpolatingParam id="4150" interp="linr"  time="0/1" value="0" leadInLength="0/1"  name="cursorScale"/>
             </Parameters>
             <Attributes>
              <Attribute id="4151" value="" name="ident"/>
             </Attributes>
             <ExtraData>
              <Entry key="ZoomPanBin">
               <ZoomPanBin id="4152"  >
                <ZoomPanKeyframes>
                 <ZoomPanKeyframe id="4153" timeRangeEnd="-9999999/1" timeRangeDuration="0/1" interpolaterName=""  />
                </ZoomPanKeyframes>
               </ZoomPanBin>
              </Entry>
              <Entry key="CursorEffectBin">
               <CursorEffectBin id="4154"  >
                <CursorEffectKeyframes>
                </CursorEffectKeyframes>
               </CursorEffectBin>
              </Entry>
             </ExtraData>
            </ScreenVMFile>
            <MetaData>
             <entry key="AutoAppliedSmartFocus" val="False"/>
             <entry key="WinSubProjectDisplayName" val=""/>
            </MetaData>
           </UnifiedMedia>
           <UnifiedMedia id="4155"  >
            <AMFile id="4156" start="12480" duration="50" scalar="1/1" mediaStart="27261/1" mediaDuration="50/1" trackNumber="1" src="4" channelNumber="0,1" >
             <Parameters>
              <InterpolatingParam id="4157" interp="linr"  time="0/1" value="1" leadInLength="0/1"  name="volume"/>
              <Parameter id="4158"  name="captions"/>
             </Parameters>
             <Attributes>
              <Attribute id="4159" value="" name="ident"/>
              <Attribute id="4160" value="44100" name="sampleRate"/>
              <Attribute id="4161" value="16" name="bitDepth"/>
              <Attribute id="4162" value="1" name="gain"/>
              <Attribute id="4163" value="0" name="mixToMono"/>
             </Attributes>
            </AMFile>
            <ScreenVMFile id="4164" start="12480" duration="50" scalar="1/1" mediaStart="27261/1" mediaDuration="50/1" trackNumber="0" src="4" >
             <Transformer>
              <VectorParam id="4165"  name="translation">
               <InterpolatingParam id="4166" interp="linr"  time="-9999999/1" value="0" leadInLength="0/1"  />
               <InterpolatingParam id="4167" interp="linr"  time="-9999999/1" value="0" leadInLength="0/1"  />
               <InterpolatingParam id="4168" interp="linr"  time="-9999999/1" value="0" leadInLength="0/1"  />
              </VectorParam>
              <VectorParam id="4169"  name="rotation">
               <InterpolatingParam id="4170" interp="linr"  time="-9999999/1" value="0" leadInLength="0/1"  />
               <InterpolatingParam id="4171" interp="linr"  time="-9999999/1" value="0" leadInLength="0/1"  />
               <InterpolatingParam id="4172" interp="linr"  time="-9999999/1" value="0" leadInLength="0/1"  />
              </VectorParam>
              <VectorParam id="4173"  name="shear">
               <InterpolatingParam id="4174" interp="linr"  time="-9999999/1" value="0" leadInLength="0/1"  />
               <InterpolatingParam id="4175" interp="linr"  time="-9999999/1" value="0" leadInLength="0/1"  />
               <InterpolatingParam id="4176" interp="linr"  time="-9999999/1" value="0" leadInLength="0/1"  />
              </VectorParam>
              <VectorParam id="4177"  name="scale">
               <InterpolatingParam id="4178" interp="linr"  time="-9999999/1" value="1" leadInLength="0/1"  />
               <InterpolatingParam id="4179" interp="linr"  time="-9999999/1" value="1" leadInLength="0/1"  />
               <InterpolatingParam id="4180" interp="linr"  time="-9999999/1" value="1" leadInLength="0/1"  />
              </VectorParam>
              <VectorParam id="4181"  name="anchor">
               <InterpolatingParam id="4182" interp="linr"  time="0/1" value="0" leadInLength="0/1"  />
               <InterpolatingParam id="4183" interp="linr"  time="0/1" value="0" leadInLength="0/1"  />
               <InterpolatingParam id="4184" interp="linr"  time="0/1" value="0" leadInLength="0/1"  />
              </VectorParam>
             </Transformer>
             <Parameters>
              <VectorParam id="4185"  name="sourceCrop">
               <InterpolatingParam id="4186" interp="linr"  time="0/1" value="0" leadInLength="0/1"  />
               <InterpolatingParam id="4187" interp="linr"  time="0/1" value="0" leadInLength="0/1"  />
               <InterpolatingParam id="4188" interp="linr"  time="0/1" value="0" leadInLength="0/1"  />
               <InterpolatingParam id="4189" interp="linr"  time="0/1" value="0" leadInLength="0/1"  />
              </VectorParam>
              <VectorParam id="4190"  name="geometryCrop">
               <InterpolatingParam id="4191" interp="linr"  time="-9999999/1" value="0" leadInLength="0/1"  />
               <InterpolatingParam id="4192" interp="linr"  time="-9999999/1" value="0" leadInLength="0/1"  />
               <InterpolatingParam id="4193" interp="linr"  time="-9999999/1" value="0" leadInLength="0/1"  />
               <InterpolatingParam id="4194" interp="linr"  time="-9999999/1" value="0" leadInLength="0/1"  />
              </VectorParam>
              <InterpolatingParam id="4195" interp="linr"  time="-9999999/1" value="1" leadInLength="0/1"  name="opacity"/>
              <InterpolatingParam id="4196" interp="linr"  time="0/1" value="0" leadInLength="0/1"  name="cursorOpacity"/>
              <InterpolatingParam id="4197" interp="linr"  time="0/1" value="0" leadInLength="0/1"  name="cursorScale"/>
             </Parameters>
             <Attributes>
              <Attribute id="4198" value="" name="ident"/>
             </Attributes>
             <ExtraData>
              <Entry key="ZoomPanBin">
               <ZoomPanBin id="4199"  >
                <ZoomPanKeyframes>
                 <ZoomPanKeyframe id="4200" timeRangeEnd="-9999999/1" timeRangeDuration="0/1" interpolaterName=""  />
                </ZoomPanKeyframes>
               </ZoomPanBin>
              </Entry>
              <Entry key="CursorEffectBin">
               <CursorEffectBin id="4201"  >
                <CursorEffectKeyframes>
                </CursorEffectKeyframes>
               </CursorEffectBin>
              </Entry>
             </ExtraData>
            </ScreenVMFile>
            <MetaData>
             <entry key="AutoAppliedSmartFocus" val="False"/>
             <entry key="WinSubProjectDisplayName" val=""/>
            </MetaData>
           </UnifiedMedia>
           <UnifiedMedia id="4202"  >
            <AMFile id="4203" start="12530" duration="73" scalar="1/1" mediaStart="27320/1" mediaDuration="73/1" trackNumber="1" src="4" channelNumber="0,1" >
             <Parameters>
              <InterpolatingParam id="4204" interp="linr"  time="0/1" value="1" leadInLength="0/1"  name="volume"/>
              <Parameter id="4205"  name="captions"/>
             </Parameters>
             <Attributes>
              <Attribute id="4206" value="" name="ident"/>
              <Attribute id="4207" value="44100" name="sampleRate"/>
              <Attribute id="4208" value="16" name="bitDepth"/>
              <Attribute id="4209" value="1" name="gain"/>
              <Attribute id="4210" value="0" name="mixToMono"/>
             </Attributes>
            </AMFile>
            <ScreenVMFile id="4211" start="12530" duration="73" scalar="1/1" mediaStart="27320/1" mediaDuration="73/1" trackNumber="0" src="4" >
             <Transformer>
              <VectorParam id="4212"  name="translation">
               <InterpolatingParam id="4213" interp="linr"  time="-9999999/1" value="0" leadInLength="0/1"  />
               <InterpolatingParam id="4214" interp="linr"  time="-9999999/1" value="0" leadInLength="0/1"  />
               <InterpolatingParam id="4215" interp="linr"  time="-9999999/1" value="0" leadInLength="0/1"  />
              </VectorParam>
              <VectorParam id="4216"  name="rotation">
               <InterpolatingParam id="4217" interp="linr"  time="-9999999/1" value="0" leadInLength="0/1"  />
               <InterpolatingParam id="4218" interp="linr"  time="-9999999/1" value="0" leadInLength="0/1"  />
               <InterpolatingParam id="4219" interp="linr"  time="-9999999/1" value="0" leadInLength="0/1"  />
              </VectorParam>
              <VectorParam id="4220"  name="shear">
               <InterpolatingParam id="4221" interp="linr"  time="-9999999/1" value="0" leadInLength="0/1"  />
               <InterpolatingParam id="4222" interp="linr"  time="-9999999/1" value="0" leadInLength="0/1"  />
               <InterpolatingParam id="4223" interp="linr"  time="-9999999/1" value="0" leadInLength="0/1"  />
              </VectorParam>
              <VectorParam id="4224"  name="scale">
               <InterpolatingParam id="4225" interp="linr"  time="-9999999/1" value="1" leadInLength="0/1"  />
               <InterpolatingParam id="4226" interp="linr"  time="-9999999/1" value="1" leadInLength="0/1"  />
               <InterpolatingParam id="4227" interp="linr"  time="-9999999/1" value="1" leadInLength="0/1"  />
              </VectorParam>
              <VectorParam id="4228"  name="anchor">
               <InterpolatingParam id="4229" interp="linr"  time="0/1" value="0" leadInLength="0/1"  />
               <InterpolatingParam id="4230" interp="linr"  time="0/1" value="0" leadInLength="0/1"  />
               <InterpolatingParam id="4231" interp="linr"  time="0/1" value="0" leadInLength="0/1"  />
              </VectorParam>
             </Transformer>
             <Parameters>
              <VectorParam id="4232"  name="sourceCrop">
               <InterpolatingParam id="4233" interp="linr"  time="0/1" value="0" leadInLength="0/1"  />
               <InterpolatingParam id="4234" interp="linr"  time="0/1" value="0" leadInLength="0/1"  />
               <InterpolatingParam id="4235" interp="linr"  time="0/1" value="0" leadInLength="0/1"  />
               <InterpolatingParam id="4236" interp="linr"  time="0/1" value="0" leadInLength="0/1"  />
              </VectorParam>
              <VectorParam id="4237"  name="geometryCrop">
               <InterpolatingParam id="4238" interp="linr"  time="-9999999/1" value="0" leadInLength="0/1"  />
               <InterpolatingParam id="4239" interp="linr"  time="-9999999/1" value="0" leadInLength="0/1"  />
               <InterpolatingParam id="4240" interp="linr"  time="-9999999/1" value="0" leadInLength="0/1"  />
               <InterpolatingParam id="4241" interp="linr"  time="-9999999/1" value="0" leadInLength="0/1"  />
              </VectorParam>
              <InterpolatingParam id="4242" interp="linr"  time="-9999999/1" value="1" leadInLength="0/1"  name="opacity"/>
              <InterpolatingParam id="4243" interp="linr"  time="0/1" value="0" leadInLength="0/1"  name="cursorOpacity"/>
              <InterpolatingParam id="4244" interp="linr"  time="0/1" value="0" leadInLength="0/1"  name="cursorScale"/>
             </Parameters>
             <Attributes>
              <Attribute id="4245" value="" name="ident"/>
             </Attributes>
             <ExtraData>
              <Entry key="ZoomPanBin">
               <ZoomPanBin id="4246"  >
                <ZoomPanKeyframes>
                 <ZoomPanKeyframe id="4247" timeRangeEnd="-9999999/1" timeRangeDuration="0/1" interpolaterName=""  />
                </ZoomPanKeyframes>
               </ZoomPanBin>
              </Entry>
              <Entry key="CursorEffectBin">
               <CursorEffectBin id="4248"  >
                <CursorEffectKeyframes>
                </CursorEffectKeyframes>
               </CursorEffectBin>
              </Entry>
             </ExtraData>
            </ScreenVMFile>
            <MetaData>
             <entry key="AutoAppliedSmartFocus" val="False"/>
             <entry key="WinSubProjectDisplayName" val=""/>
            </MetaData>
           </UnifiedMedia>
           <UnifiedMedia id="4249"  >
            <AMFile id="4250" start="12603" duration="102" scalar="1/1" mediaStart="27401/1" mediaDuration="102/1" trackNumber="1" src="4" channelNumber="0,1" >
             <Parameters>
              <InterpolatingParam id="4251" interp="linr"  time="0/1" value="1" leadInLength="0/1"  name="volume"/>
              <Parameter id="4252"  name="captions"/>
             </Parameters>
             <Attributes>
              <Attribute id="4253" value="" name="ident"/>
              <Attribute id="4254" value="44100" name="sampleRate"/>
              <Attribute id="4255" value="16" name="bitDepth"/>
              <Attribute id="4256" value="1" name="gain"/>
              <Attribute id="4257" value="0" name="mixToMono"/>
             </Attributes>
            </AMFile>
            <ScreenVMFile id="4258" start="12603" duration="102" scalar="1/1" mediaStart="27401/1" mediaDuration="102/1" trackNumber="0" src="4" >
             <Transformer>
              <VectorParam id="4259"  name="translation">
               <InterpolatingParam id="4260" interp="linr"  time="-9999999/1" value="0" leadInLength="0/1"  />
               <InterpolatingParam id="4261" interp="linr"  time="-9999999/1" value="0" leadInLength="0/1"  />
               <InterpolatingParam id="4262" interp="linr"  time="-9999999/1" value="0" leadInLength="0/1"  />
              </VectorParam>
              <VectorParam id="4263"  name="rotation">
               <InterpolatingParam id="4264" interp="linr"  time="-9999999/1" value="0" leadInLength="0/1"  />
               <InterpolatingParam id="4265" interp="linr"  time="-9999999/1" value="0" leadInLength="0/1"  />
               <InterpolatingParam id="4266" interp="linr"  time="-9999999/1" value="0" leadInLength="0/1"  />
              </VectorParam>
              <VectorParam id="4267"  name="shear">
               <InterpolatingParam id="4268" interp="linr"  time="-9999999/1" value="0" leadInLength="0/1"  />
               <InterpolatingParam id="4269" interp="linr"  time="-9999999/1" value="0" leadInLength="0/1"  />
               <InterpolatingParam id="4270" interp="linr"  time="-9999999/1" value="0" leadInLength="0/1"  />
              </VectorParam>
              <VectorParam id="4271"  name="scale">
               <InterpolatingParam id="4272" interp="linr"  time="-9999999/1" value="1" leadInLength="0/1"  />
               <InterpolatingParam id="4273" interp="linr"  time="-9999999/1" value="1" leadInLength="0/1"  />
               <InterpolatingParam id="4274" interp="linr"  time="-9999999/1" value="1" leadInLength="0/1"  />
              </VectorParam>
              <VectorParam id="4275"  name="anchor">
               <InterpolatingParam id="4276" interp="linr"  time="0/1" value="0" leadInLength="0/1"  />
               <InterpolatingParam id="4277" interp="linr"  time="0/1" value="0" leadInLength="0/1"  />
               <InterpolatingParam id="4278" interp="linr"  time="0/1" value="0" leadInLength="0/1"  />
              </VectorParam>
             </Transformer>
             <Parameters>
              <VectorParam id="4279"  name="sourceCrop">
               <InterpolatingParam id="4280" interp="linr"  time="0/1" value="0" leadInLength="0/1"  />
               <InterpolatingParam id="4281" interp="linr"  time="0/1" value="0" leadInLength="0/1"  />
               <InterpolatingParam id="4282" interp="linr"  time="0/1" value="0" leadInLength="0/1"  />
               <InterpolatingParam id="4283" interp="linr"  time="0/1" value="0" leadInLength="0/1"  />
              </VectorParam>
              <VectorParam id="4284"  name="geometryCrop">
               <InterpolatingParam id="4285" interp="linr"  time="-9999999/1" value="0" leadInLength="0/1"  />
               <InterpolatingParam id="4286" interp="linr"  time="-9999999/1" value="0" leadInLength="0/1"  />
               <InterpolatingParam id="4287" interp="linr"  time="-9999999/1" value="0" leadInLength="0/1"  />
               <InterpolatingParam id="4288" interp="linr"  time="-9999999/1" value="0" leadInLength="0/1"  />
              </VectorParam>
              <InterpolatingParam id="4289" interp="linr"  time="-9999999/1" value="1" leadInLength="0/1"  name="opacity"/>
              <InterpolatingParam id="4290" interp="linr"  time="0/1" value="0" leadInLength="0/1"  name="cursorOpacity"/>
              <InterpolatingParam id="4291" interp="linr"  time="0/1" value="0" leadInLength="0/1"  name="cursorScale"/>
             </Parameters>
             <Attributes>
              <Attribute id="4292" value="" name="ident"/>
             </Attributes>
             <ExtraData>
              <Entry key="ZoomPanBin">
               <ZoomPanBin id="4293"  >
                <ZoomPanKeyframes>
                 <ZoomPanKeyframe id="4294" timeRangeEnd="-9999999/1" timeRangeDuration="0/1" interpolaterName=""  />
                </ZoomPanKeyframes>
               </ZoomPanBin>
              </Entry>
              <Entry key="CursorEffectBin">
               <CursorEffectBin id="4295"  >
                <CursorEffectKeyframes>
                </CursorEffectKeyframes>
               </CursorEffectBin>
              </Entry>
             </ExtraData>
            </ScreenVMFile>
            <MetaData>
             <entry key="AutoAppliedSmartFocus" val="False"/>
             <entry key="WinSubProjectDisplayName" val=""/>
            </MetaData>
           </UnifiedMedia>
           <UnifiedMedia id="4296"  >
            <AMFile id="4297" start="12705" duration="55" scalar="1/1" mediaStart="27514/1" mediaDuration="55/1" trackNumber="1" src="4" channelNumber="0,1" >
             <Parameters>
              <InterpolatingParam id="4298" interp="linr"  time="0/1" value="1" leadInLength="0/1"  name="volume"/>
              <Parameter id="4299"  name="captions"/>
             </Parameters>
             <Attributes>
              <Attribute id="4300" value="" name="ident"/>
              <Attribute id="4301" value="44100" name="sampleRate"/>
              <Attribute id="4302" value="16" name="bitDepth"/>
              <Attribute id="4303" value="1" name="gain"/>
              <Attribute id="4304" value="0" name="mixToMono"/>
             </Attributes>
            </AMFile>
            <ScreenVMFile id="4305" start="12705" duration="55" scalar="1/1" mediaStart="27514/1" mediaDuration="55/1" trackNumber="0" src="4" >
             <Transformer>
              <VectorParam id="4306"  name="translation">
               <InterpolatingParam id="4307" interp="linr"  time="-9999999/1" value="0" leadInLength="0/1"  />
               <InterpolatingParam id="4308" interp="linr"  time="-9999999/1" value="0" leadInLength="0/1"  />
               <InterpolatingParam id="4309" interp="linr"  time="-9999999/1" value="0" leadInLength="0/1"  />
              </VectorParam>
              <VectorParam id="4310"  name="rotation">
               <InterpolatingParam id="4311" interp="linr"  time="-9999999/1" value="0" leadInLength="0/1"  />
               <InterpolatingParam id="4312" interp="linr"  time="-9999999/1" value="0" leadInLength="0/1"  />
               <InterpolatingParam id="4313" interp="linr"  time="-9999999/1" value="0" leadInLength="0/1"  />
              </VectorParam>
              <VectorParam id="4314"  name="shear">
               <InterpolatingParam id="4315" interp="linr"  time="-9999999/1" value="0" leadInLength="0/1"  />
               <InterpolatingParam id="4316" interp="linr"  time="-9999999/1" value="0" leadInLength="0/1"  />
               <InterpolatingParam id="4317" interp="linr"  time="-9999999/1" value="0" leadInLength="0/1"  />
              </VectorParam>
              <VectorParam id="4318"  name="scale">
               <InterpolatingParam id="4319" interp="linr"  time="-9999999/1" value="1" leadInLength="0/1"  />
               <InterpolatingParam id="4320" interp="linr"  time="-9999999/1" value="1" leadInLength="0/1"  />
               <InterpolatingParam id="4321" interp="linr"  time="-9999999/1" value="1" leadInLength="0/1"  />
              </VectorParam>
              <VectorParam id="4322"  name="anchor">
               <InterpolatingParam id="4323" interp="linr"  time="0/1" value="0" leadInLength="0/1"  />
               <InterpolatingParam id="4324" interp="linr"  time="0/1" value="0" leadInLength="0/1"  />
               <InterpolatingParam id="4325" interp="linr"  time="0/1" value="0" leadInLength="0/1"  />
              </VectorParam>
             </Transformer>
             <Parameters>
              <VectorParam id="4326"  name="sourceCrop">
               <InterpolatingParam id="4327" interp="linr"  time="0/1" value="0" leadInLength="0/1"  />
               <InterpolatingParam id="4328" interp="linr"  time="0/1" value="0" leadInLength="0/1"  />
               <InterpolatingParam id="4329" interp="linr"  time="0/1" value="0" leadInLength="0/1"  />
               <InterpolatingParam id="4330" interp="linr"  time="0/1" value="0" leadInLength="0/1"  />
              </VectorParam>
              <VectorParam id="4331"  name="geometryCrop">
               <InterpolatingParam id="4332" interp="linr"  time="-9999999/1" value="0" leadInLength="0/1"  />
               <InterpolatingParam id="4333" interp="linr"  time="-9999999/1" value="0" leadInLength="0/1"  />
               <InterpolatingParam id="4334" interp="linr"  time="-9999999/1" value="0" leadInLength="0/1"  />
               <InterpolatingParam id="4335" interp="linr"  time="-9999999/1" value="0" leadInLength="0/1"  />
              </VectorParam>
              <InterpolatingParam id="4336" interp="linr"  time="-9999999/1" value="1" leadInLength="0/1"  name="opacity"/>
              <InterpolatingParam id="4337" interp="linr"  time="0/1" value="0" leadInLength="0/1"  name="cursorOpacity"/>
              <InterpolatingParam id="4338" interp="linr"  time="0/1" value="0" leadInLength="0/1"  name="cursorScale"/>
             </Parameters>
             <Attributes>
              <Attribute id="4339" value="" name="ident"/>
             </Attributes>
             <ExtraData>
              <Entry key="ZoomPanBin">
               <ZoomPanBin id="4340"  >
                <ZoomPanKeyframes>
                 <ZoomPanKeyframe id="4341" timeRangeEnd="-9999999/1" timeRangeDuration="0/1" interpolaterName=""  />
                </ZoomPanKeyframes>
               </ZoomPanBin>
              </Entry>
              <Entry key="CursorEffectBin">
               <CursorEffectBin id="4342"  >
                <CursorEffectKeyframes>
                </CursorEffectKeyframes>
               </CursorEffectBin>
              </Entry>
             </ExtraData>
            </ScreenVMFile>
            <MetaData>
             <entry key="AutoAppliedSmartFocus" val="False"/>
             <entry key="WinSubProjectDisplayName" val=""/>
            </MetaData>
           </UnifiedMedia>
           <UnifiedMedia id="4343"  >
            <AMFile id="4344" start="12760" duration="42" scalar="1/1" mediaStart="27579/1" mediaDuration="42/1" trackNumber="1" src="4" channelNumber="0,1" >
             <Parameters>
              <InterpolatingParam id="4345" interp="linr"  time="0/1" value="1" leadInLength="0/1"  name="volume"/>
              <Parameter id="4346"  name="captions"/>
             </Parameters>
             <Attributes>
              <Attribute id="4347" value="" name="ident"/>
              <Attribute id="4348" value="44100" name="sampleRate"/>
              <Attribute id="4349" value="16" name="bitDepth"/>
              <Attribute id="4350" value="1" name="gain"/>
              <Attribute id="4351" value="0" name="mixToMono"/>
             </Attributes>
            </AMFile>
            <ScreenVMFile id="4352" start="12760" duration="42" scalar="1/1" mediaStart="27579/1" mediaDuration="42/1" trackNumber="0" src="4" >
             <Transformer>
              <VectorParam id="4353"  name="translation">
               <InterpolatingParam id="4354" interp="linr"  time="-9999999/1" value="0" leadInLength="0/1"  />
               <InterpolatingParam id="4355" interp="linr"  time="-9999999/1" value="0" leadInLength="0/1"  />
               <InterpolatingParam id="4356" interp="linr"  time="-9999999/1" value="0" leadInLength="0/1"  />
              </VectorParam>
              <VectorParam id="4357"  name="rotation">
               <InterpolatingParam id="4358" interp="linr"  time="-9999999/1" value="0" leadInLength="0/1"  />
               <InterpolatingParam id="4359" interp="linr"  time="-9999999/1" value="0" leadInLength="0/1"  />
               <InterpolatingParam id="4360" interp="linr"  time="-9999999/1" value="0" leadInLength="0/1"  />
              </VectorParam>
              <VectorParam id="4361"  name="shear">
               <InterpolatingParam id="4362" interp="linr"  time="-9999999/1" value="0" leadInLength="0/1"  />
               <InterpolatingParam id="4363" interp="linr"  time="-9999999/1" value="0" leadInLength="0/1"  />
               <InterpolatingParam id="4364" interp="linr"  time="-9999999/1" value="0" leadInLength="0/1"  />
              </VectorParam>
              <VectorParam id="4365"  name="scale">
               <InterpolatingParam id="4366" interp="linr"  time="-9999999/1" value="1" leadInLength="0/1"  />
               <InterpolatingParam id="4367" interp="linr"  time="-9999999/1" value="1" leadInLength="0/1"  />
               <InterpolatingParam id="4368" interp="linr"  time="-9999999/1" value="1" leadInLength="0/1"  />
              </VectorParam>
              <VectorParam id="4369"  name="anchor">
               <InterpolatingParam id="4370" interp="linr"  time="0/1" value="0" leadInLength="0/1"  />
               <InterpolatingParam id="4371" interp="linr"  time="0/1" value="0" leadInLength="0/1"  />
               <InterpolatingParam id="4372" interp="linr"  time="0/1" value="0" leadInLength="0/1"  />
              </VectorParam>
             </Transformer>
             <Parameters>
              <VectorParam id="4373"  name="sourceCrop">
               <InterpolatingParam id="4374" interp="linr"  time="0/1" value="0" leadInLength="0/1"  />
               <InterpolatingParam id="4375" interp="linr"  time="0/1" value="0" leadInLength="0/1"  />
               <InterpolatingParam id="4376" interp="linr"  time="0/1" value="0" leadInLength="0/1"  />
               <InterpolatingParam id="4377" interp="linr"  time="0/1" value="0" leadInLength="0/1"  />
              </VectorParam>
              <VectorParam id="4378"  name="geometryCrop">
               <InterpolatingParam id="4379" interp="linr"  time="-9999999/1" value="0" leadInLength="0/1"  />
               <InterpolatingParam id="4380" interp="linr"  time="-9999999/1" value="0" leadInLength="0/1"  />
               <InterpolatingParam id="4381" interp="linr"  time="-9999999/1" value="0" leadInLength="0/1"  />
               <InterpolatingParam id="4382" interp="linr"  time="-9999999/1" value="0" leadInLength="0/1"  />
              </VectorParam>
              <InterpolatingParam id="4383" interp="linr"  time="-9999999/1" value="1" leadInLength="0/1"  name="opacity"/>
              <InterpolatingParam id="4384" interp="linr"  time="0/1" value="0" leadInLength="0/1"  name="cursorOpacity"/>
              <InterpolatingParam id="4385" interp="linr"  time="0/1" value="0" leadInLength="0/1"  name="cursorScale"/>
             </Parameters>
             <Attributes>
              <Attribute id="4386" value="" name="ident"/>
             </Attributes>
             <ExtraData>
              <Entry key="ZoomPanBin">
               <ZoomPanBin id="4387"  >
                <ZoomPanKeyframes>
                 <ZoomPanKeyframe id="4388" timeRangeEnd="-9999999/1" timeRangeDuration="0/1" interpolaterName=""  />
                </ZoomPanKeyframes>
               </ZoomPanBin>
              </Entry>
              <Entry key="CursorEffectBin">
               <CursorEffectBin id="4389"  >
                <CursorEffectKeyframes>
                </CursorEffectKeyframes>
               </CursorEffectBin>
              </Entry>
             </ExtraData>
            </ScreenVMFile>
            <MetaData>
             <entry key="AutoAppliedSmartFocus" val="False"/>
             <entry key="WinSubProjectDisplayName" val=""/>
            </MetaData>
           </UnifiedMedia>
           <UnifiedMedia id="4390"  >
            <AMFile id="4391" start="12802" duration="26" scalar="1/1" mediaStart="27634/1" mediaDuration="26/1" trackNumber="1" src="4" channelNumber="0,1" >
             <Parameters>
              <InterpolatingParam id="4392" interp="linr"  time="0/1" value="1" leadInLength="0/1"  name="volume"/>
              <Parameter id="4393"  name="captions"/>
             </Parameters>
             <Attributes>
              <Attribute id="4394" value="" name="ident"/>
              <Attribute id="4395" value="44100" name="sampleRate"/>
              <Attribute id="4396" value="16" name="bitDepth"/>
              <Attribute id="4397" value="1" name="gain"/>
              <Attribute id="4398" value="0" name="mixToMono"/>
             </Attributes>
            </AMFile>
            <ScreenVMFile id="4399" start="12802" duration="26" scalar="1/1" mediaStart="27634/1" mediaDuration="26/1" trackNumber="0" src="4" >
             <Transformer>
              <VectorParam id="4400"  name="translation">
               <InterpolatingParam id="4401" interp="linr"  time="-9999999/1" value="0" leadInLength="0/1"  />
               <InterpolatingParam id="4402" interp="linr"  time="-9999999/1" value="0" leadInLength="0/1"  />
               <InterpolatingParam id="4403" interp="linr"  time="-9999999/1" value="0" leadInLength="0/1"  />
              </VectorParam>
              <VectorParam id="4404"  name="rotation">
               <InterpolatingParam id="4405" interp="linr"  time="-9999999/1" value="0" leadInLength="0/1"  />
               <InterpolatingParam id="4406" interp="linr"  time="-9999999/1" value="0" leadInLength="0/1"  />
               <InterpolatingParam id="4407" interp="linr"  time="-9999999/1" value="0" leadInLength="0/1"  />
              </VectorParam>
              <VectorParam id="4408"  name="shear">
               <InterpolatingParam id="4409" interp="linr"  time="-9999999/1" value="0" leadInLength="0/1"  />
               <InterpolatingParam id="4410" interp="linr"  time="-9999999/1" value="0" leadInLength="0/1"  />
               <InterpolatingParam id="4411" interp="linr"  time="-9999999/1" value="0" leadInLength="0/1"  />
              </VectorParam>
              <VectorParam id="4412"  name="scale">
               <InterpolatingParam id="4413" interp="linr"  time="-9999999/1" value="1" leadInLength="0/1"  />
               <InterpolatingParam id="4414" interp="linr"  time="-9999999/1" value="1" leadInLength="0/1"  />
               <InterpolatingParam id="4415" interp="linr"  time="-9999999/1" value="1" leadInLength="0/1"  />
              </VectorParam>
              <VectorParam id="4416"  name="anchor">
               <InterpolatingParam id="4417" interp="linr"  time="0/1" value="0" leadInLength="0/1"  />
               <InterpolatingParam id="4418" interp="linr"  time="0/1" value="0" leadInLength="0/1"  />
               <InterpolatingParam id="4419" interp="linr"  time="0/1" value="0" leadInLength="0/1"  />
              </VectorParam>
             </Transformer>
             <Parameters>
              <VectorParam id="4420"  name="sourceCrop">
               <InterpolatingParam id="4421" interp="linr"  time="0/1" value="0" leadInLength="0/1"  />
               <InterpolatingParam id="4422" interp="linr"  time="0/1" value="0" leadInLength="0/1"  />
               <InterpolatingParam id="4423" interp="linr"  time="0/1" value="0" leadInLength="0/1"  />
               <InterpolatingParam id="4424" interp="linr"  time="0/1" value="0" leadInLength="0/1"  />
              </VectorParam>
              <VectorParam id="4425"  name="geometryCrop">
               <InterpolatingParam id="4426" interp="linr"  time="-9999999/1" value="0" leadInLength="0/1"  />
               <InterpolatingParam id="4427" interp="linr"  time="-9999999/1" value="0" leadInLength="0/1"  />
               <InterpolatingParam id="4428" interp="linr"  time="-9999999/1" value="0" leadInLength="0/1"  />
               <InterpolatingParam id="4429" interp="linr"  time="-9999999/1" value="0" leadInLength="0/1"  />
              </VectorParam>
              <InterpolatingParam id="4430" interp="linr"  time="-9999999/1" value="1" leadInLength="0/1"  name="opacity"/>
              <InterpolatingParam id="4431" interp="linr"  time="0/1" value="0" leadInLength="0/1"  name="cursorOpacity"/>
              <InterpolatingParam id="4432" interp="linr"  time="0/1" value="0" leadInLength="0/1"  name="cursorScale"/>
             </Parameters>
             <Attributes>
              <Attribute id="4433" value="" name="ident"/>
             </Attributes>
             <ExtraData>
              <Entry key="ZoomPanBin">
               <ZoomPanBin id="4434"  >
                <ZoomPanKeyframes>
                 <ZoomPanKeyframe id="4435" timeRangeEnd="-9999999/1" timeRangeDuration="0/1" interpolaterName=""  />
                </ZoomPanKeyframes>
               </ZoomPanBin>
              </Entry>
              <Entry key="CursorEffectBin">
               <CursorEffectBin id="4436"  >
                <CursorEffectKeyframes>
                </CursorEffectKeyframes>
               </CursorEffectBin>
              </Entry>
             </ExtraData>
            </ScreenVMFile>
            <MetaData>
             <entry key="AutoAppliedSmartFocus" val="False"/>
             <entry key="WinSubProjectDisplayName" val=""/>
            </MetaData>
           </UnifiedMedia>
           <UnifiedMedia id="4437"  >
            <AMFile id="4438" start="12828" duration="66" scalar="1/1" mediaStart="27671/1" mediaDuration="66/1" trackNumber="1" src="4" channelNumber="0,1" >
             <Parameters>
              <InterpolatingParam id="4439" interp="linr"  time="0/1" value="1" leadInLength="0/1"  name="volume"/>
              <Parameter id="4440"  name="captions"/>
             </Parameters>
             <Attributes>
              <Attribute id="4441" value="" name="ident"/>
              <Attribute id="4442" value="44100" name="sampleRate"/>
              <Attribute id="4443" value="16" name="bitDepth"/>
              <Attribute id="4444" value="1" name="gain"/>
              <Attribute id="4445" value="0" name="mixToMono"/>
             </Attributes>
            </AMFile>
            <ScreenVMFile id="4446" start="12828" duration="66" scalar="1/1" mediaStart="27671/1" mediaDuration="66/1" trackNumber="0" src="4" >
             <Transformer>
              <VectorParam id="4447"  name="translation">
               <InterpolatingParam id="4448" interp="linr"  time="-9999999/1" value="0" leadInLength="0/1"  />
               <InterpolatingParam id="4449" interp="linr"  time="-9999999/1" value="0" leadInLength="0/1"  />
               <InterpolatingParam id="4450" interp="linr"  time="-9999999/1" value="0" leadInLength="0/1"  />
              </VectorParam>
              <VectorParam id="4451"  name="rotation">
               <InterpolatingParam id="4452" interp="linr"  time="-9999999/1" value="0" leadInLength="0/1"  />
               <InterpolatingParam id="4453" interp="linr"  time="-9999999/1" value="0" leadInLength="0/1"  />
               <InterpolatingParam id="4454" interp="linr"  time="-9999999/1" value="0" leadInLength="0/1"  />
              </VectorParam>
              <VectorParam id="4455"  name="shear">
               <InterpolatingParam id="4456" interp="linr"  time="-9999999/1" value="0" leadInLength="0/1"  />
               <InterpolatingParam id="4457" interp="linr"  time="-9999999/1" value="0" leadInLength="0/1"  />
               <InterpolatingParam id="4458" interp="linr"  time="-9999999/1" value="0" leadInLength="0/1"  />
              </VectorParam>
              <VectorParam id="4459"  name="scale">
               <InterpolatingParam id="4460" interp="linr"  time="-9999999/1" value="1" leadInLength="0/1"  />
               <InterpolatingParam id="4461" interp="linr"  time="-9999999/1" value="1" leadInLength="0/1"  />
               <InterpolatingParam id="4462" interp="linr"  time="-9999999/1" value="1" leadInLength="0/1"  />
              </VectorParam>
              <VectorParam id="4463"  name="anchor">
               <InterpolatingParam id="4464" interp="linr"  time="0/1" value="0" leadInLength="0/1"  />
               <InterpolatingParam id="4465" interp="linr"  time="0/1" value="0" leadInLength="0/1"  />
               <InterpolatingParam id="4466" interp="linr"  time="0/1" value="0" leadInLength="0/1"  />
              </VectorParam>
             </Transformer>
             <Parameters>
              <VectorParam id="4467"  name="sourceCrop">
               <InterpolatingParam id="4468" interp="linr"  time="0/1" value="0" leadInLength="0/1"  />
               <InterpolatingParam id="4469" interp="linr"  time="0/1" value="0" leadInLength="0/1"  />
               <InterpolatingParam id="4470" interp="linr"  time="0/1" value="0" leadInLength="0/1"  />
               <InterpolatingParam id="4471" interp="linr"  time="0/1" value="0" leadInLength="0/1"  />
              </VectorParam>
              <VectorParam id="4472"  name="geometryCrop">
               <InterpolatingParam id="4473" interp="linr"  time="-9999999/1" value="0" leadInLength="0/1"  />
               <InterpolatingParam id="4474" interp="linr"  time="-9999999/1" value="0" leadInLength="0/1"  />
               <InterpolatingParam id="4475" interp="linr"  time="-9999999/1" value="0" leadInLength="0/1"  />
               <InterpolatingParam id="4476" interp="linr"  time="-9999999/1" value="0" leadInLength="0/1"  />
              </VectorParam>
              <InterpolatingParam id="4477" interp="linr"  time="-9999999/1" value="1" leadInLength="0/1"  name="opacity"/>
              <InterpolatingParam id="4478" interp="linr"  time="0/1" value="0" leadInLength="0/1"  name="cursorOpacity"/>
              <InterpolatingParam id="4479" interp="linr"  time="0/1" value="0" leadInLength="0/1"  name="cursorScale"/>
             </Parameters>
             <Attributes>
              <Attribute id="4480" value="" name="ident"/>
             </Attributes>
             <ExtraData>
              <Entry key="ZoomPanBin">
               <ZoomPanBin id="4481"  >
                <ZoomPanKeyframes>
                 <ZoomPanKeyframe id="4482" timeRangeEnd="-9999999/1" timeRangeDuration="0/1" interpolaterName=""  />
                </ZoomPanKeyframes>
               </ZoomPanBin>
              </Entry>
              <Entry key="CursorEffectBin">
               <CursorEffectBin id="4483"  >
                <CursorEffectKeyframes>
                </CursorEffectKeyframes>
               </CursorEffectBin>
              </Entry>
             </ExtraData>
            </ScreenVMFile>
            <MetaData>
             <entry key="AutoAppliedSmartFocus" val="False"/>
             <entry key="WinSubProjectDisplayName" val=""/>
            </MetaData>
           </UnifiedMedia>
           <UnifiedMedia id="4484"  >
            <AMFile id="4485" start="12894" duration="107" scalar="1/1" mediaStart="27753/1" mediaDuration="107/1" trackNumber="1" src="4" channelNumber="0,1" >
             <Parameters>
              <InterpolatingParam id="4486" interp="linr"  time="0/1" value="1" leadInLength="0/1"  name="volume"/>
              <Parameter id="4487"  name="captions"/>
             </Parameters>
             <Attributes>
              <Attribute id="4488" value="" name="ident"/>
              <Attribute id="4489" value="44100" name="sampleRate"/>
              <Attribute id="4490" value="16" name="bitDepth"/>
              <Attribute id="4491" value="1" name="gain"/>
              <Attribute id="4492" value="0" name="mixToMono"/>
             </Attributes>
            </AMFile>
            <ScreenVMFile id="4493" start="12894" duration="107" scalar="1/1" mediaStart="27753/1" mediaDuration="107/1" trackNumber="0" src="4" >
             <Transformer>
              <VectorParam id="4494"  name="translation">
               <InterpolatingParam id="4495" interp="linr"  time="-9999999/1" value="0" leadInLength="0/1"  />
               <InterpolatingParam id="4496" interp="linr"  time="-9999999/1" value="0" leadInLength="0/1"  />
               <InterpolatingParam id="4497" interp="linr"  time="-9999999/1" value="0" leadInLength="0/1"  />
              </VectorParam>
              <VectorParam id="4498"  name="rotation">
               <InterpolatingParam id="4499" interp="linr"  time="-9999999/1" value="0" leadInLength="0/1"  />
               <InterpolatingParam id="4500" interp="linr"  time="-9999999/1" value="0" leadInLength="0/1"  />
               <InterpolatingParam id="4501" interp="linr"  time="-9999999/1" value="0" leadInLength="0/1"  />
              </VectorParam>
              <VectorParam id="4502"  name="shear">
               <InterpolatingParam id="4503" interp="linr"  time="-9999999/1" value="0" leadInLength="0/1"  />
               <InterpolatingParam id="4504" interp="linr"  time="-9999999/1" value="0" leadInLength="0/1"  />
               <InterpolatingParam id="4505" interp="linr"  time="-9999999/1" value="0" leadInLength="0/1"  />
              </VectorParam>
              <VectorParam id="4506"  name="scale">
               <InterpolatingParam id="4507" interp="linr"  time="-9999999/1" value="1" leadInLength="0/1"  />
               <InterpolatingParam id="4508" interp="linr"  time="-9999999/1" value="1" leadInLength="0/1"  />
               <InterpolatingParam id="4509" interp="linr"  time="-9999999/1" value="1" leadInLength="0/1"  />
              </VectorParam>
              <VectorParam id="4510"  name="anchor">
               <InterpolatingParam id="4511" interp="linr"  time="0/1" value="0" leadInLength="0/1"  />
               <InterpolatingParam id="4512" interp="linr"  time="0/1" value="0" leadInLength="0/1"  />
               <InterpolatingParam id="4513" interp="linr"  time="0/1" value="0" leadInLength="0/1"  />
              </VectorParam>
             </Transformer>
             <Parameters>
              <VectorParam id="4514"  name="sourceCrop">
               <InterpolatingParam id="4515" interp="linr"  time="0/1" value="0" leadInLength="0/1"  />
               <InterpolatingParam id="4516" interp="linr"  time="0/1" value="0" leadInLength="0/1"  />
               <InterpolatingParam id="4517" interp="linr"  time="0/1" value="0" leadInLength="0/1"  />
               <InterpolatingParam id="4518" interp="linr"  time="0/1" value="0" leadInLength="0/1"  />
              </VectorParam>
              <VectorParam id="4519"  name="geometryCrop">
               <InterpolatingParam id="4520" interp="linr"  time="-9999999/1" value="0" leadInLength="0/1"  />
               <InterpolatingParam id="4521" interp="linr"  time="-9999999/1" value="0" leadInLength="0/1"  />
               <InterpolatingParam id="4522" interp="linr"  time="-9999999/1" value="0" leadInLength="0/1"  />
               <InterpolatingParam id="4523" interp="linr"  time="-9999999/1" value="0" leadInLength="0/1"  />
              </VectorParam>
              <InterpolatingParam id="4524" interp="linr"  time="-9999999/1" value="1" leadInLength="0/1"  name="opacity"/>
              <InterpolatingParam id="4525" interp="linr"  time="0/1" value="0" leadInLength="0/1"  name="cursorOpacity"/>
              <InterpolatingParam id="4526" interp="linr"  time="0/1" value="0" leadInLength="0/1"  name="cursorScale"/>
             </Parameters>
             <Attributes>
              <Attribute id="4527" value="" name="ident"/>
             </Attributes>
             <ExtraData>
              <Entry key="ZoomPanBin">
               <ZoomPanBin id="4528"  >
                <ZoomPanKeyframes>
                 <ZoomPanKeyframe id="4529" timeRangeEnd="-9999999/1" timeRangeDuration="0/1" interpolaterName=""  />
                </ZoomPanKeyframes>
               </ZoomPanBin>
              </Entry>
              <Entry key="CursorEffectBin">
               <CursorEffectBin id="4530"  >
                <CursorEffectKeyframes>
                </CursorEffectKeyframes>
               </CursorEffectBin>
              </Entry>
             </ExtraData>
            </ScreenVMFile>
            <MetaData>
             <entry key="AutoAppliedSmartFocus" val="False"/>
             <entry key="WinSubProjectDisplayName" val=""/>
            </MetaData>
           </UnifiedMedia>
           <UnifiedMedia id="4531"  >
            <AMFile id="4532" start="13001" duration="98" scalar="1/1" mediaStart="27965/1" mediaDuration="98/1" trackNumber="1" src="4" channelNumber="0,1" >
             <Parameters>
              <InterpolatingParam id="4533" interp="linr"  time="0/1" value="1" leadInLength="0/1"  name="volume"/>
              <Parameter id="4534"  name="captions"/>
             </Parameters>
             <Attributes>
              <Attribute id="4535" value="" name="ident"/>
              <Attribute id="4536" value="44100" name="sampleRate"/>
              <Attribute id="4537" value="16" name="bitDepth"/>
              <Attribute id="4538" value="1" name="gain"/>
              <Attribute id="4539" value="0" name="mixToMono"/>
             </Attributes>
            </AMFile>
            <ScreenVMFile id="4540" start="13001" duration="98" scalar="1/1" mediaStart="27965/1" mediaDuration="98/1" trackNumber="0" src="4" >
             <Transformer>
              <VectorParam id="4541"  name="translation">
               <InterpolatingParam id="4542" interp="linr"  time="-9999999/1" value="0" leadInLength="0/1"  />
               <InterpolatingParam id="4543" interp="linr"  time="-9999999/1" value="0" leadInLength="0/1"  />
               <InterpolatingParam id="4544" interp="linr"  time="-9999999/1" value="0" leadInLength="0/1"  />
              </VectorParam>
              <VectorParam id="4545"  name="rotation">
               <InterpolatingParam id="4546" interp="linr"  time="-9999999/1" value="0" leadInLength="0/1"  />
               <InterpolatingParam id="4547" interp="linr"  time="-9999999/1" value="0" leadInLength="0/1"  />
               <InterpolatingParam id="4548" interp="linr"  time="-9999999/1" value="0" leadInLength="0/1"  />
              </VectorParam>
              <VectorParam id="4549"  name="shear">
               <InterpolatingParam id="4550" interp="linr"  time="-9999999/1" value="0" leadInLength="0/1"  />
               <InterpolatingParam id="4551" interp="linr"  time="-9999999/1" value="0" leadInLength="0/1"  />
               <InterpolatingParam id="4552" interp="linr"  time="-9999999/1" value="0" leadInLength="0/1"  />
              </VectorParam>
              <VectorParam id="4553"  name="scale">
               <InterpolatingParam id="4554" interp="linr"  time="-9999999/1" value="1" leadInLength="0/1"  />
               <InterpolatingParam id="4555" interp="linr"  time="-9999999/1" value="1" leadInLength="0/1"  />
               <InterpolatingParam id="4556" interp="linr"  time="-9999999/1" value="1" leadInLength="0/1"  />
              </VectorParam>
              <VectorParam id="4557"  name="anchor">
               <InterpolatingParam id="4558" interp="linr"  time="0/1" value="0" leadInLength="0/1"  />
               <InterpolatingParam id="4559" interp="linr"  time="0/1" value="0" leadInLength="0/1"  />
               <InterpolatingParam id="4560" interp="linr"  time="0/1" value="0" leadInLength="0/1"  />
              </VectorParam>
             </Transformer>
             <Parameters>
              <VectorParam id="4561"  name="sourceCrop">
               <InterpolatingParam id="4562" interp="linr"  time="0/1" value="0" leadInLength="0/1"  />
               <InterpolatingParam id="4563" interp="linr"  time="0/1" value="0" leadInLength="0/1"  />
               <InterpolatingParam id="4564" interp="linr"  time="0/1" value="0" leadInLength="0/1"  />
               <InterpolatingParam id="4565" interp="linr"  time="0/1" value="0" leadInLength="0/1"  />
              </VectorParam>
              <VectorParam id="4566"  name="geometryCrop">
               <InterpolatingParam id="4567" interp="linr"  time="-9999999/1" value="0" leadInLength="0/1"  />
               <InterpolatingParam id="4568" interp="linr"  time="-9999999/1" value="0" leadInLength="0/1"  />
               <InterpolatingParam id="4569" interp="linr"  time="-9999999/1" value="0" leadInLength="0/1"  />
               <InterpolatingParam id="4570" interp="linr"  time="-9999999/1" value="0" leadInLength="0/1"  />
              </VectorParam>
              <InterpolatingParam id="4571" interp="linr"  time="-9999999/1" value="1" leadInLength="0/1"  name="opacity"/>
              <InterpolatingParam id="4572" interp="linr"  time="0/1" value="0" leadInLength="0/1"  name="cursorOpacity"/>
              <InterpolatingParam id="4573" interp="linr"  time="0/1" value="0" leadInLength="0/1"  name="cursorScale"/>
             </Parameters>
             <Attributes>
              <Attribute id="4574" value="" name="ident"/>
             </Attributes>
             <ExtraData>
              <Entry key="ZoomPanBin">
               <ZoomPanBin id="4575"  >
                <ZoomPanKeyframes>
                 <ZoomPanKeyframe id="4576" timeRangeEnd="-9999999/1" timeRangeDuration="0/1" interpolaterName=""  />
                </ZoomPanKeyframes>
               </ZoomPanBin>
              </Entry>
              <Entry key="CursorEffectBin">
               <CursorEffectBin id="4577"  >
                <CursorEffectKeyframes>
                </CursorEffectKeyframes>
               </CursorEffectBin>
              </Entry>
             </ExtraData>
            </ScreenVMFile>
            <MetaData>
             <entry key="AutoAppliedSmartFocus" val="False"/>
             <entry key="WinSubProjectDisplayName" val=""/>
            </MetaData>
           </UnifiedMedia>
           <UnifiedMedia id="4578"  >
            <AMFile id="4579" start="13099" duration="102" scalar="1/1" mediaStart="28079/1" mediaDuration="102/1" trackNumber="1" src="4" channelNumber="0,1" >
             <Parameters>
              <InterpolatingParam id="4580" interp="linr"  time="0/1" value="1" leadInLength="0/1"  name="volume"/>
              <Parameter id="4581"  name="captions"/>
             </Parameters>
             <Attributes>
              <Attribute id="4582" value="" name="ident"/>
              <Attribute id="4583" value="44100" name="sampleRate"/>
              <Attribute id="4584" value="16" name="bitDepth"/>
              <Attribute id="4585" value="1" name="gain"/>
              <Attribute id="4586" value="0" name="mixToMono"/>
             </Attributes>
            </AMFile>
            <ScreenVMFile id="4587" start="13099" duration="102" scalar="1/1" mediaStart="28079/1" mediaDuration="102/1" trackNumber="0" src="4" >
             <Transformer>
              <VectorParam id="4588"  name="translation">
               <InterpolatingParam id="4589" interp="linr"  time="-9999999/1" value="0" leadInLength="0/1"  />
               <InterpolatingParam id="4590" interp="linr"  time="-9999999/1" value="0" leadInLength="0/1"  />
               <InterpolatingParam id="4591" interp="linr"  time="-9999999/1" value="0" leadInLength="0/1"  />
              </VectorParam>
              <VectorParam id="4592"  name="rotation">
               <InterpolatingParam id="4593" interp="linr"  time="-9999999/1" value="0" leadInLength="0/1"  />
               <InterpolatingParam id="4594" interp="linr"  time="-9999999/1" value="0" leadInLength="0/1"  />
               <InterpolatingParam id="4595" interp="linr"  time="-9999999/1" value="0" leadInLength="0/1"  />
              </VectorParam>
              <VectorParam id="4596"  name="shear">
               <InterpolatingParam id="4597" interp="linr"  time="-9999999/1" value="0" leadInLength="0/1"  />
               <InterpolatingParam id="4598" interp="linr"  time="-9999999/1" value="0" leadInLength="0/1"  />
               <InterpolatingParam id="4599" interp="linr"  time="-9999999/1" value="0" leadInLength="0/1"  />
              </VectorParam>
              <VectorParam id="4600"  name="scale">
               <InterpolatingParam id="4601" interp="linr"  time="-9999999/1" value="1" leadInLength="0/1"  />
               <InterpolatingParam id="4602" interp="linr"  time="-9999999/1" value="1" leadInLength="0/1"  />
               <InterpolatingParam id="4603" interp="linr"  time="-9999999/1" value="1" leadInLength="0/1"  />
              </VectorParam>
              <VectorParam id="4604"  name="anchor">
               <InterpolatingParam id="4605" interp="linr"  time="0/1" value="0" leadInLength="0/1"  />
               <InterpolatingParam id="4606" interp="linr"  time="0/1" value="0" leadInLength="0/1"  />
               <InterpolatingParam id="4607" interp="linr"  time="0/1" value="0" leadInLength="0/1"  />
              </VectorParam>
             </Transformer>
             <Parameters>
              <VectorParam id="4608"  name="sourceCrop">
               <InterpolatingParam id="4609" interp="linr"  time="0/1" value="0" leadInLength="0/1"  />
               <InterpolatingParam id="4610" interp="linr"  time="0/1" value="0" leadInLength="0/1"  />
               <InterpolatingParam id="4611" interp="linr"  time="0/1" value="0" leadInLength="0/1"  />
               <InterpolatingParam id="4612" interp="linr"  time="0/1" value="0" leadInLength="0/1"  />
              </VectorParam>
              <VectorParam id="4613"  name="geometryCrop">
               <InterpolatingParam id="4614" interp="linr"  time="-9999999/1" value="0" leadInLength="0/1"  />
               <InterpolatingParam id="4615" interp="linr"  time="-9999999/1" value="0" leadInLength="0/1"  />
               <InterpolatingParam id="4616" interp="linr"  time="-9999999/1" value="0" leadInLength="0/1"  />
               <InterpolatingParam id="4617" interp="linr"  time="-9999999/1" value="0" leadInLength="0/1"  />
              </VectorParam>
              <InterpolatingParam id="4618" interp="linr"  time="-9999999/1" value="1" leadInLength="0/1"  name="opacity"/>
              <InterpolatingParam id="4619" interp="linr"  time="0/1" value="0" leadInLength="0/1"  name="cursorOpacity"/>
              <InterpolatingParam id="4620" interp="linr"  time="0/1" value="0" leadInLength="0/1"  name="cursorScale"/>
             </Parameters>
             <Attributes>
              <Attribute id="4621" value="" name="ident"/>
             </Attributes>
             <ExtraData>
              <Entry key="ZoomPanBin">
               <ZoomPanBin id="4622"  >
                <ZoomPanKeyframes>
                 <ZoomPanKeyframe id="4623" timeRangeEnd="-9999999/1" timeRangeDuration="0/1" interpolaterName=""  />
                </ZoomPanKeyframes>
               </ZoomPanBin>
              </Entry>
              <Entry key="CursorEffectBin">
               <CursorEffectBin id="4624"  >
                <CursorEffectKeyframes>
                </CursorEffectKeyframes>
               </CursorEffectBin>
              </Entry>
             </ExtraData>
            </ScreenVMFile>
            <MetaData>
             <entry key="AutoAppliedSmartFocus" val="False"/>
             <entry key="WinSubProjectDisplayName" val=""/>
            </MetaData>
           </UnifiedMedia>
          </Medias>
         </GenericTrack>
        </StitchedMedia>
       </Medias>
      </GenericTrack>
      <GenericTrack id="4625"  >
       <Attributes>
        <Attribute id="4626" value="" name="ident"/>
        <Attribute id="4627" value="0" name="audioMuted"/>
        <Attribute id="4628" value="0" name="videoHidden"/>
       </Attributes>
       <MetaData>
        <entry key="IsLocked" val="False"/>
        <entry key="WinTrackHeight" val="62"/>
       </MetaData>
       <Medias>
       </Medias>
      </GenericTrack>
      <GenericTrack id="4629"  >
       <Attributes>
        <Attribute id="4630" value="" name="ident"/>
        <Attribute id="4631" value="0" name="audioMuted"/>
        <Attribute id="4632" value="0" name="videoHidden"/>
       </Attributes>
       <MetaData>
        <entry key="IsLocked" val="False"/>
        <entry key="WinTrackHeight" val="62"/>
       </MetaData>
       <Medias>
       </Medias>
      </GenericTrack>
     </Tracks>
    </GenericMixer>
   <CaptionAttributes id="4633"  >
    <Attribute id="4634" value="1" name="captionsEnabled"/>
    <Attribute id="4635" value="Arial" name="captionsFontName"/>
    <Attribute id="4636" value="36" name="captionsFontSize"/>
    <Attribute id="4637" value="(0,0,0,255)" name="captionsBackgroundColor"/>
    <Attribute id="4638" value="(255,255,255,255)" name="captionsForegroundColor"/>
    <Attribute id="4639" value="en" name="lang"/>
    <Attribute id="4640" value="0" name="captionsAlignment"/>
    <Attribute id="4641" value="1" name="captionsDefaultFontSize"/>
    <Attribute id="4642" value="0.5" name="captionsOpacity"/>
    <Attribute id="4643" value="1" name="captionsBackgroundEnabled"/>
    <Attribute id="4644" value="1" name="captionsBackgroundOnlyAroundText"/>
   </CaptionAttributes>
   <Parameters>
    <VectorParam id="4645"  name="eyePosition">
     <InterpolatingParam id="4646" interp="linr"  time="0/1" value="0" leadInLength="0/1"  />
     <InterpolatingParam id="4647" interp="linr"  time="0/1" value="0" leadInLength="0/1"  />
     <InterpolatingParam id="4648" interp="linr"  time="0/1" value="3000" leadInLength="0/1"  />
    </VectorParam>
    <VectorParam id="4649"  name="eyeLookAtPosition">
     <InterpolatingParam id="4650" interp="linr"  time="0/1" value="0" leadInLength="0/1"  />
     <InterpolatingParam id="4651" interp="linr"  time="0/1" value="0" leadInLength="0/1"  />
     <InterpolatingParam id="4652" interp="linr"  time="0/1" value="0" leadInLength="0/1"  />
    </VectorParam>
    <VectorParam id="4653"  name="eyeUpVector">
     <InterpolatingParam id="4654" interp="linr"  time="0/1" value="0" leadInLength="0/1"  />
     <InterpolatingParam id="4655" interp="linr"  time="0/1" value="1" leadInLength="0/1"  />
     <InterpolatingParam id="4656" interp="linr"  time="0/1" value="0" leadInLength="0/1"  />
    </VectorParam>
    <InterpolatingParam id="4657" interp="linr"  time="0/1" value="0.356185883" leadInLength="0/1"  name="fov"/>
    <InterpolatingParam id="4658" interp="linr"  time="0/1" value="1.5" leadInLength="0/1"  name="nearClipDistance"/>
    <InterpolatingParam id="4659" interp="linr"  time="0/1" value="6000" leadInLength="0/1"  name="farClipDistance"/>
   </Parameters>
  </Timeline>
 </Project>
</GoProject>
</CSMLData>

</Project_Data>
