<?xml version="1.0"?>
<Project_Data Version="8.00">
<Project_Settings>
<ProfileName>MP4 only (up to 1080p)</ProfileName>
<ProjectWidth>1920</ProjectWidth>
<ProjectHeight>1080</ProjectHeight>
<IsCustomProject>1</IsCustomProject>
<SavedProjectSettings>1</SavedProjectSettings>
<LastFlashTemplate>-1</LastFlashTemplate>
</Project_Settings>


<AutoSaveFile>C:\Users\Administrator\AppData\Local\TechSmith\Camtasia Studio\8.0\Auto-Saves\Principles Structure8e32c5.autosave.camproj</AutoSaveFile>

<ProjectID>C69C90BD-29BC-4345-A8C5-972076A92196</ProjectID>

<PowerPointProject>0</PowerPointProject>

<PowerPointFilename></PowerPointFilename>


<Project_Notes>
</Project_Notes>

<Project_MetaData>
<Project_MetaData_Object>
<FieldArrayKey>8</FieldArrayKey>
<Value>Principles Structure</Value>
</Project_MetaData_Object>
<Project_MetaData_Object>
<FieldArrayKey>13</FieldArrayKey>
<Value>2017-01-30 09:14:00 AM</Value>
</Project_MetaData_Object>
<Project_MetaData_Object>
<FieldArrayKey>16</FieldArrayKey>
<Value>ENU</Value>
</Project_MetaData_Object>
</Project_MetaData>

<CSMLData>
<GoProject id="1" version="3.0" >
 <Project id="2" editRate="30/1" version="3.0" >
  <Author></Author>
  <Comment></Comment>
  <System></System>
  <SourceBin id="3"  >
    <Source id="4" src="D:\Peter Sommerhoff\Source Files\04.principles-structure-01.trec" lastMod="20170128T162604" rect="(0,0,1920,1080)" >
      <SourceTrack range="(0,11759)" type="0" editRate="30/1" trackRect="(0,0,1920,1080)" sampleRate="0/1" bitDepth="0" numChannels="0" filename="04.principles-structure-01.trec!Strack0.tsc2" metaData="04.principles-structure-01.trec;" />
      <SourceTrack range="(0,17289216)" type="2" editRate="44100/1" trackRect="(0,0,0,0)" sampleRate="44100/1" bitDepth="16" numChannels="2" filename="04.principles-structure-01.trec!Maudio1.mp4" metaData="" />
    </Source>
    <Source id="5" src="D:\Peter Sommerhoff\Source Files\04.principles-structure-02.trec" lastMod="20170128T163050" rect="(0,0,1920,1080)" >
      <SourceTrack range="(0,12420)" type="0" editRate="30/1" trackRect="(0,0,1920,1080)" sampleRate="0/1" bitDepth="0" numChannels="0" filename="04.principles-structure-02.trec!Strack0.tsc2" metaData="04.principles-structure-02.trec;" />
      <SourceTrack range="(0,18258944)" type="2" editRate="44100/1" trackRect="(0,0,0,0)" sampleRate="44100/1" bitDepth="16" numChannels="2" filename="04.principles-structure-02.trec!Maudio1.mp4" metaData="" />
    </Source>
  </SourceBin>
  <Timeline id="6"  >
   <Attributes>
    <Attribute id="7" value="1920" name="width"/>
    <Attribute id="8" value="1080" name="height"/>
    <Attribute id="9" value="(0,0,0,255)" name="backgroundColor"/>
   </Attributes>
    <GenericMixer id="10"  name="Unified Mixer">
     <MetaData>
      <entry key="MixerType" val="TimelineMixer"/>
     </MetaData>
     <Tracks>
      <GenericTrack id="11"  >
       <Attributes>
        <Attribute id="12" value="" name="ident"/>
        <Attribute id="13" value="0" name="audioMuted"/>
        <Attribute id="14" value="0" name="videoHidden"/>
       </Attributes>
       <MetaData>
        <entry key="IsLocked" val="False"/>
        <entry key="WinTrackHeight" val="159"/>
       </MetaData>
       <Medias>
        <UnifiedMedia id="15"  >
         <AudioTransition id="16" start="0" duration="30" >
          <Parameters>
           <InterpolatingParam id="17" interp="linr"  time="0/1" value="1" leadInLength="0/1"  name="volume"/>
           <Parameter id="18"  name="captions"/>
          </Parameters>
          <Effects>
           <GenericEffect id="19" name = "AudioTransition" >
            <Parameters>
            <Parameter id="20"   name="audioEdgeModType">
             <Keyframes>
             <Keyframe id="21"  time="0/1" value="0" leadInLength="0/1"  />
             </Keyframes>
            </Parameter>
            <Parameter id="22"   name="audioTransitionType">
             <Keyframes>
             <Keyframe id="23"  time="0/1" value="" leadInLength="0/1"  />
             </Keyframes>
            </Parameter>
            </Parameters>
            <MetaData>
            </MetaData>
           </GenericEffect>
          </Effects>
          <Attributes>
           <Attribute id="24" value="" name="ident"/>
           <Attribute id="25" value="0" name="sampleRate"/>
           <Attribute id="26" value="0" name="bitDepth"/>
           <Attribute id="27" value="1" name="gain"/>
           <Attribute id="28" value="0" name="mixToMono"/>
          </Attributes>
         </AudioTransition>
         <ImageTransition id="29" start="0" duration="30" >
          <Transformer>
           <VectorParam id="30"  name="translation">
            <InterpolatingParam id="31" interp="linr"  time="0/1" value="0" leadInLength="0/1"  />
            <InterpolatingParam id="32" interp="linr"  time="0/1" value="0" leadInLength="0/1"  />
            <InterpolatingParam id="33" interp="linr"  time="0/1" value="0" leadInLength="0/1"  />
           </VectorParam>
           <VectorParam id="34"  name="rotation">
            <InterpolatingParam id="35" interp="linr"  time="0/1" value="0" leadInLength="0/1"  />
            <InterpolatingParam id="36" interp="linr"  time="0/1" value="0" leadInLength="0/1"  />
            <InterpolatingParam id="37" interp="linr"  time="0/1" value="0" leadInLength="0/1"  />
           </VectorParam>
           <VectorParam id="38"  name="shear">
            <InterpolatingParam id="39" interp="linr"  time="0/1" value="0" leadInLength="0/1"  />
            <InterpolatingParam id="40" interp="linr"  time="0/1" value="0" leadInLength="0/1"  />
            <InterpolatingParam id="41" interp="linr"  time="0/1" value="0" leadInLength="0/1"  />
           </VectorParam>
           <VectorParam id="42"  name="scale">
            <InterpolatingParam id="43" interp="linr"  time="0/1" value="1" leadInLength="0/1"  />
            <InterpolatingParam id="44" interp="linr"  time="0/1" value="1" leadInLength="0/1"  />
            <InterpolatingParam id="45" interp="linr"  time="0/1" value="1" leadInLength="0/1"  />
           </VectorParam>
           <VectorParam id="46"  name="anchor">
            <InterpolatingParam id="47" interp="linr"  time="0/1" value="0" leadInLength="0/1"  />
            <InterpolatingParam id="48" interp="linr"  time="0/1" value="0" leadInLength="0/1"  />
            <InterpolatingParam id="49" interp="linr"  time="0/1" value="0" leadInLength="0/1"  />
           </VectorParam>
          </Transformer>
          <Parameters>
           <VectorParam id="50"  name="sourceCrop">
            <InterpolatingParam id="51" interp="linr"  time="0/1" value="0" leadInLength="0/1"  />
            <InterpolatingParam id="52" interp="linr"  time="0/1" value="0" leadInLength="0/1"  />
            <InterpolatingParam id="53" interp="linr"  time="0/1" value="0" leadInLength="0/1"  />
            <InterpolatingParam id="54" interp="linr"  time="0/1" value="0" leadInLength="0/1"  />
           </VectorParam>
           <VectorParam id="55"  name="geometryCrop">
            <InterpolatingParam id="56" interp="linr"  time="0/1" value="0" leadInLength="0/1"  />
            <InterpolatingParam id="57" interp="linr"  time="0/1" value="0" leadInLength="0/1"  />
            <InterpolatingParam id="58" interp="linr"  time="0/1" value="0" leadInLength="0/1"  />
            <InterpolatingParam id="59" interp="linr"  time="0/1" value="0" leadInLength="0/1"  />
           </VectorParam>
           <InterpolatingParam id="60" interp="linr"  time="0/1" value="1" leadInLength="0/1"  name="opacity"/>
          </Parameters>
          <Effects>
           <GenericEffect id="61" name = "VisualTransition" >
            <Parameters>
            <InterpolatingParam id="62" interp="linr"  time="0/1" value="0.5" leadInLength="0/1"   name="leftFramePercentage"/>
            <InterpolatingParam id="63" interp="linr"  time="0/1" value="0.5" leadInLength="0/1"   name="rightFramePercentage"/>
            <Parameter id="64"   name="visualEdgeModType">
             <Keyframes>
             <Keyframe id="65"  time="0/1" value="1" leadInLength="0/1"  />
             </Keyframes>
            </Parameter>
            <Parameter id="66"   name="visualTransitionType">
             <Keyframes>
             <Keyframe id="67"  time="0/1" value="Glow" leadInLength="0/1"  />
             </Keyframes>
            </Parameter>
            </Parameters>
            <MetaData>
            </MetaData>
           </GenericEffect>
          </Effects>
          <Attributes>
           <Attribute id="68" value="" name="ident"/>
          </Attributes>
          <ExtraData>
           <Entry key="ZoomPanBin">
            <ZoomPanBin id="69"  >
             <ZoomPanKeyframes>
             </ZoomPanKeyframes>
            </ZoomPanBin>
           </Entry>
          </ExtraData>
         </ImageTransition>
         <MetaData>
          <entry key="WinSubProjectDisplayName" val=""/>
         </MetaData>
        </UnifiedMedia>
        <StitchedMedia id="70" start="30" duration="1198" scalar="1/1" mediaStart="141/1" mediaDuration="1198/1" minMediaStart="0/1" >
         <Transformer>
          <VectorParam id="71"  name="translation">
           <InterpolatingParam id="72" interp="linr"  time="-9999999/1" value="0" leadInLength="0/1"  interpolater="leadin-linr"  />
           <InterpolatingParam id="73" interp="linr"  time="-9999999/1" value="0" leadInLength="0/1"  interpolater="leadin-linr"  />
           <InterpolatingParam id="74" interp="linr"  time="-9999999/1" value="0" leadInLength="0/1"  interpolater="leadin-linr"  />
          </VectorParam>
          <VectorParam id="75"  name="rotation">
           <InterpolatingParam id="76" interp="linr"  time="-9999999/1" value="0" leadInLength="0/1"  interpolater="leadin-linr"  />
           <InterpolatingParam id="77" interp="linr"  time="-9999999/1" value="0" leadInLength="0/1"  interpolater="leadin-linr"  />
           <InterpolatingParam id="78" interp="linr"  time="-9999999/1" value="0" leadInLength="0/1"  interpolater="leadin-linr"  />
          </VectorParam>
          <VectorParam id="79"  name="shear">
           <InterpolatingParam id="80" interp="linr"  time="-9999999/1" value="0" leadInLength="0/1"  interpolater="leadin-linr"  />
           <InterpolatingParam id="81" interp="linr"  time="-9999999/1" value="0" leadInLength="0/1"  interpolater="leadin-linr"  />
           <InterpolatingParam id="82" interp="linr"  time="-9999999/1" value="0" leadInLength="0/1"  interpolater="leadin-linr"  />
          </VectorParam>
          <VectorParam id="83"  name="scale">
           <InterpolatingParam id="84" interp="linr"  time="-9999999/1" value="1" leadInLength="0/1"  interpolater="leadin-linr"  />
           <InterpolatingParam id="85" interp="linr"  time="-9999999/1" value="1" leadInLength="0/1"  interpolater="leadin-linr"  />
           <InterpolatingParam id="86" interp="linr"  time="-9999999/1" value="1" leadInLength="0/1"  interpolater="leadin-linr"  />
          </VectorParam>
          <VectorParam id="87"  name="anchor">
           <InterpolatingParam id="88" interp="linr"  time="0/1" value="0" leadInLength="0/1"  />
           <InterpolatingParam id="89" interp="linr"  time="0/1" value="0" leadInLength="0/1"  />
           <InterpolatingParam id="90" interp="linr"  time="0/1" value="0" leadInLength="0/1"  />
          </VectorParam>
         </Transformer>
         <Parameters>
          <VectorParam id="91"  name="sourceCrop">
           <InterpolatingParam id="92" interp="linr"  time="0/1" value="0" leadInLength="0/1"  />
           <InterpolatingParam id="93" interp="linr"  time="0/1" value="0" leadInLength="0/1"  />
           <InterpolatingParam id="94" interp="linr"  time="0/1" value="0" leadInLength="0/1"  />
           <InterpolatingParam id="95" interp="linr"  time="0/1" value="0" leadInLength="0/1"  />
          </VectorParam>
          <VectorParam id="96"  name="geometryCrop">
           <InterpolatingParam id="97" interp="linr"  time="-9999999/1" value="0" leadInLength="0/1"  interpolater="leadin-linr"  />
           <InterpolatingParam id="98" interp="linr"  time="-9999999/1" value="0" leadInLength="0/1"  interpolater="leadin-linr"  />
           <InterpolatingParam id="99" interp="linr"  time="-9999999/1" value="0" leadInLength="0/1"  interpolater="leadin-linr"  />
           <InterpolatingParam id="100" interp="linr"  time="-9999999/1" value="0" leadInLength="0/1"  interpolater="leadin-linr"  />
          </VectorParam>
          <InterpolatingParam id="101" interp="linr"  time="-9999999/1" value="1" leadInLength="0/1"  interpolater="leadin-linr"  name="opacity"/>
          <InterpolatingParam id="102" interp="linr"  time="0/1" value="1" leadInLength="0/1"  name="cursorOpacity"/>
          <InterpolatingParam id="103" interp="linr"  time="0/1" value="1" leadInLength="0/1"  name="cursorScale"/>
          <InterpolatingParam id="104" interp="linr"  time="0/1" value="1.5625" leadInLength="0/1"  name="volume"/>
          <Parameter id="105"  name="captions"/>
         </Parameters>
         <Effects>
          <GenericEffect id="106" name = "CursorBaseEffectName" >
           <Parameters>
           <InterpolatingParam id="107" interp="linr"  time="-9999999/1" value="1" leadInLength="0/1"   name="cursorSize"/>
           <InterpolatingParam id="108" interp="linr"  time="-9999999/1" value="0" leadInLength="0/1"   name="highlightBlurRadius"/>
           <InterpolatingParam id="109" interp="linr"  time="-9999999/1" value="0" leadInLength="0/1"   name="highlightColorBlue"/>
           <InterpolatingParam id="110" interp="linr"  time="-9999999/1" value="255" leadInLength="0/1"   name="highlightColorGreen"/>
           <InterpolatingParam id="111" interp="linr"  time="-9999999/1" value="255" leadInLength="0/1"   name="highlightColorRed"/>
           <InterpolatingParam id="112" interp="linr"  time="-9999999/1" value="5" leadInLength="0/1"   name="highlightFeatherSize"/>
           <InterpolatingParam id="113" interp="linr"  time="-9999999/1" value="2" leadInLength="0/1"   name="highlightMagnification"/>
           <InterpolatingParam id="114" interp="linr"  time="-9999999/1" value="1" leadInLength="0/1"   name="highlightOpacity"/>
           <InterpolatingParam id="115" interp="linr"  time="-9999999/1" value="45" leadInLength="0/1"   name="highlightSize"/>
           <Parameter id="116"   name="highlightType">
            <Keyframes>
            <Keyframe id="117"  time="-9999999/1" value="0" leadInLength="0/1"  />
            </Keyframes>
           </Parameter>
           <InterpolatingParam id="118" interp="linr"  time="-9999999/1" value="0" leadInLength="0/1"   name="leftClickColorBlue"/>
           <InterpolatingParam id="119" interp="linr"  time="-9999999/1" value="0" leadInLength="0/1"   name="leftClickColorGreen"/>
           <InterpolatingParam id="120" interp="linr"  time="-9999999/1" value="255" leadInLength="0/1"   name="leftClickColorRed"/>
           <InterpolatingParam id="121" interp="linr"  time="-9999999/1" value="0.80000000000000004" leadInLength="0/1"   name="leftClickDuration"/>
           <InterpolatingParam id="122" interp="linr"  time="-9999999/1" value="20" leadInLength="0/1"   name="leftClickSize"/>
           <Parameter id="123"   name="leftClickSoundFilename">
            <Keyframes>
            <Keyframe id="124"  time="-9999999/1" value="" leadInLength="0/1"  />
            </Keyframes>
           </Parameter>
           <InterpolatingParam id="125" interp="linr"  time="-9999999/1" value="1" leadInLength="0/1"   name="leftClickSoundVolume"/>
           <Parameter id="126"   name="leftClickType">
            <Keyframes>
            <Keyframe id="127"  time="-9999999/1" value="0" leadInLength="0/1"  />
            </Keyframes>
           </Parameter>
           <InterpolatingParam id="128" interp="linr"  time="-9999999/1" value="1" leadInLength="0/1"   name="opacity"/>
           <InterpolatingParam id="129" interp="linr"  time="-9999999/1" value="255" leadInLength="0/1"   name="rightClickColorBlue"/>
           <InterpolatingParam id="130" interp="linr"  time="-9999999/1" value="0" leadInLength="0/1"   name="rightClickColorGreen"/>
           <InterpolatingParam id="131" interp="linr"  time="-9999999/1" value="0" leadInLength="0/1"   name="rightClickColorRed"/>
           <InterpolatingParam id="132" interp="linr"  time="-9999999/1" value="0.80000000000000004" leadInLength="0/1"   name="rightClickDuration"/>
           <InterpolatingParam id="133" interp="linr"  time="-9999999/1" value="20" leadInLength="0/1"   name="rightClickSize"/>
           <Parameter id="134"   name="rightClickSoundFilename">
            <Keyframes>
            <Keyframe id="135"  time="-9999999/1" value="" leadInLength="0/1"  />
            </Keyframes>
           </Parameter>
           <InterpolatingParam id="136" interp="linr"  time="-9999999/1" value="1" leadInLength="0/1"   name="rightClickSoundVolume"/>
           <Parameter id="137"   name="rightClickType">
            <Keyframes>
            <Keyframe id="138"  time="-9999999/1" value="0" leadInLength="0/1"  />
            </Keyframes>
           </Parameter>
           </Parameters>
           <MetaData>
            <entry key="effectIndex" val="0"/>
           </MetaData>
          </GenericEffect>
          <GenericEffect id="139" name = "WinCompression" >
           <Parameters>
           <InterpolatingParam id="140" interp="linr"  time="0/1" value="0" leadInLength="0/1"   name="attack"/>
           <InterpolatingParam id="141" interp="linr"  time="0/1" value="9" leadInLength="0/1"   name="gain"/>
           <Parameter id="142"   name="preset">
            <Keyframes>
            <Keyframe id="143"  time="0/1" value="1" leadInLength="0/1"  />
            </Keyframes>
           </Parameter>
           <InterpolatingParam id="144" interp="linr"  time="0/1" value="10" leadInLength="0/1"   name="ratio"/>
           <InterpolatingParam id="145" interp="linr"  time="0/1" value="3500" leadInLength="0/1"   name="release"/>
           <InterpolatingParam id="146" interp="linr"  time="0/1" value="-20" leadInLength="0/1"   name="threshold"/>
           </Parameters>
           <MetaData>
            <entry key="effectIndex" val="1"/>
           </MetaData>
          </GenericEffect>
          <GenericEffect id="147" name = "NoiseReduction" >
           <Parameters>
           <InterpolatingParam id="148" interp="linr"  time="0/1" value="20" leadInLength="0/1"   name="denoiserAmount"/>
           <InterpolatingParam id="149" interp="linr"  time="0/1" value="0" leadInLength="0/1"   name="denoiserThreshold"/>
           <Parameter id="150"   name="noiseProfile">
            <Keyframes>
            <Keyframe id="151"  time="0/1" value="FBAAAAIAAABErAAAAQIAAF2ukcIyR4rCESeawuB+n8IwOprCQUacwmT9qsKWprHCihe0wnoFssLb&#xD;&#xa;3q3Cslqywp7OtcIsUrHChuetwnRKscJPybPCs6+4wvZmusKgdLvCDOXAwl4KwcLsCsDC3pO/wmGv&#xD;&#xa;v8KEm73CJO+9wu0avcJCmrrCZLe9wjeavsIQ77zCtDS+wqERwML07L7CXAW/wioQv8Li9cDCevDD&#xD;&#xa;wkS1wcLbncLCru7DwsyfxMLg+8bCPOHGwok3xMK068XCpZ3Iwl6ox8KB9cbCJ9vEwnlGxcKGXMfC&#xD;&#xa;1JXHwvrYxsIV9cfCDMrHwp25yMKYEsnCTFbHwvBbxsJsicnCgD3LwidvzMLkesjClGfGwhzNxcKC&#xD;&#xa;VsXC/SnHwvaBxcJsecTCosjEwn7tx8Ji2MfCwLbHwgGTycId8MjCGEvJwmOwysJ2MczCAhPNwhiu&#xD;&#xa;zMKC5czC9LDMwtLzycK7xcjC1ZXOwupwz8LDwszCUG3NwtJcy8JuW8vC2wTOwvDMzsKZ883C1r3M&#xD;&#xa;wny2zcIIt8zCJ2bKwkuYzMLjpM7C3NrNwjyzzsL8fdDCRTfQwjwFzsK0787CloLPwqGl0sJkrdLC&#xD;&#xa;LvrPwh4fz8JOAtDC1hDRwsW/z8IiVNDCZlrQwloX0cLeiM/CNvzNwlZCzcIIeczCMtDNwtfUzcLI&#xD;&#xa;287CuJ7PwslPzsKgAdHCH4zRwghsz8KpG87CCtbOwkjRzsKYzszCnEHNwgbCzcIqNdDC23DQwhB3&#xD;&#xa;zsJStdDCuqTPwpavz8IQgNHCHsDSwlSO0cIswdHCbh7SwhS40MJGLNLCzoPPwiidz8JWpdDCQArR&#xD;&#xa;wgyi0MIVjdDCaj3Rwtzx0MJeR9DCh/bOwgK/zcJoAtHCJl3TwnW308IaSNLCNODPwiLmz8KoFtDC&#xD;&#xa;YxbQwq0p0MJhhNHCwFTRwiYh0sJj29LCMlXRwnRh0MK/dNLCaEDVwiJz08K7mNLCHFHUwneI0sK6&#xD;&#xa;yNLCEmrVwkbI1MKKqNTCpB3TwqxV1cK8LtXCviDTwgka0sLO99PCqtLUwprF1cJImNXC6N7Uwp6F&#xD;&#xa;1cI0ktbCAi7WwqEy18K8cdbCihvVwouq08IFm9bCijjWwo4G18Ie4NfCTJDXwvf71sK4fNbC4q7W&#xD;&#xa;wuZ11sKVh9fC/gbZwgPY2sJeutrChpPZwmU128JVN9nCzALawq5Z3MJyp9rCRMvZwnB828JC0dzC&#xD;&#xa;um/bwi6o3ML++dzCJKzbwk222sLYx9rC4bLdwtvu3cJy1tzCV97ZwtJO2cLDf9zCNEPcwodJ28Jp&#xD;&#xa;2drCgC7ZwqLM28Ii89zCmEbbwhIM3cJMFN/ChznewlpT3sK4Ud7CiKPewkRX38K4/d7C8/vewixe&#xD;&#xa;4MI859/CF2/fwhrr38KbkN3CGZvbwrIP3cJ2L97Cvj/ewoW43sKCPN/C8drewgfn3cIvOt7CYKbe&#xD;&#xa;wgT93sJMDt3CmtPdwnhY3sLsNd3CCtLcwk572sIk8drCerDdwmO538JCAd7CDo7ewqzU38LgwN7C&#xD;&#xa;bO7dwpzp3MIIo9zC2J7cwshE3cL3mNzCM0zfwqdP5cJJZfLCOAH6woCY+MKk/ffCXL74wrZ9+cL8&#xD;&#xa;5PjCxF37wngB+cJ8pvjCZrH4wiT+9sIQFvfC1vb4wiZ5+MLYxPjCvun5wqKX+cKebvjCqrH4wu7i&#xD;&#xa;98Ket/bCGmH2wu9T+MKuv/nCfkP4wvp2+cIzSvfC0Qn4wi5V+sIKKfrCiL/4wqq3+MLQxfjChLz4&#xD;&#xa;wgZl98KI3PfC9JT6wvp6+sIRsPfCzBv0wntu9cL4NvbCign3ws52+MKyB/nCXpP4whw+98I+//bC&#xD;&#xa;MaX2wgDb98J8W/rC8Ev5wtha98ICbPjC6Lv4wkLq+MI6ivnCgsz4wp4E+MJrJvjChTL3wr6k+MKS&#xD;&#xa;xPbC2R31wi1f9sKgwfbCyNb2wj9H+MKg3ffCFyn3wrYw98LEwfjCMv35wtpR+cISIPjCjCL3woWD&#xD;&#xa;9cJI6vbCtkP2wtqt98J39vbC4sn1wp1+9sKE/vXCdkX2wuRK98JFdvfCWtv2wjaJ98KgdfnCuKr4&#xD;&#xa;wunm9sLWD/nCskT5wr649sL5u/XCxv/3wg0w98JuOPbCGhT3wvrV9sKqXPfCMvn2wkSl98IM//nC&#xD;&#xa;Xrv5woLK98IayPjCtuH3wrEu98IUM/fC2mH3wqK79sLH6PXCDQD3wgD598I8Y/bCTKj3wuYy+cLE&#xD;&#xa;JfnCbAf6wlLE98Ihe/fCtnj4ws8g+MLcM/jChO73wt5V+sLIefjCsc72wmIU+ML9bffCDB/3wvI4&#xD;&#xa;+cKcG/zCKgz7wjzN9cJuevXCt/72wn4p+MK2hPnCkFv4wvTK98ItJffC7Dj4whjX+8Im5vvCvnr6&#xD;&#xa;wqTy+cKOYvrCEGT5wuKr98I48/fClDn4wt7w98LCDfnCSWn4wkgv+MJuIPrCKnj6wruo98JELPfC&#xD;&#xa;Wqz3wh5Y+cIWP/vCHvf6wlDE+cKcrPfCFsX5wv6y+cKzYfbCdhb3wmhN9cJE7PTCqTz4wg7y+sLs&#xD;&#xa;m/rCZsz5wrJN+MLCTvbCEs/1wu8698JWX/jCzjj4wqXV98KBoPbCYJ73woya+cKSffjC0rj3wm8N&#xD;&#xa;+MIssvjCep/4wkhQ+cIcoPnCQo76wtLd+MIwjfnC+mr4wrKA+cLdZ/jCP/72whSN+MJkgffCGfD3&#xD;&#xa;wrZL+cKYvvnCxuj3wja0+MJ8UPnChAT7wuDE+MKpPfjCQKT6wjQa+cKsS/nC/l33whKQ9sK2mfjC&#xD;&#xa;AgL6wjwI+8IObvrCd0AEw1WukcIqSIrCMieawrOGn8IkO5rCKkicwgb0qsJCoLHC7im0wi0SssLk&#xD;&#xa;5K3CnnqywpX3tcJeVbHCdNqtwvlrscJm9rPC0964wngkusIhMrvCm3XAwjrXwMKT+L/C5HK/wgZe&#xD;&#xa;v8IInr3CKiS+whxwvcKNuLrCpum9woDYvsJPlr3CEMG+wtEqwMJY0b7Cqyq/wiRlv8IkGsHCu1bD&#xD;&#xa;whJJwcKXicLCVODDwoLjxMKX9MbCItvGwisLxMJ0pcXClvHIwtrex8Lz+sbCCWTFwtilxcJ1RsfC&#xD;&#xa;+MnHwjhmx8JiK8jCwzTIwrUkycLob8nCnUbHwsITx8KpqcnCStfKwgCQzMLF68jCwbvGwnTzxcK2&#xD;&#xa;k8XCg+PGwvx/xML/88PCBEHEwjrEx8JcpMfCqtnHwmnkycLCg8nCkqzJwsmiysKIssvClgvNwg+d&#xD;&#xa;zMICtMzCLF/MwooMysJszsjCMm/OwoSJz8ISMMzC6LDMwo71ysJmVczCfb/PwvJp0ML6Hs/C0U/N&#xD;&#xa;wu41zcL+/8vCtpHKwnvNzcLVEtDCzKrOwgYAzsLMbM/CVBfQwuwdz8Lzw9DCAMXQwpxI1MKKS9PC&#xD;&#xa;5q7QwnYoz8IsQNDCPETRwhA60MLS9NDCyNLQwmjx0MIeaM/CCNTOwk8gzsIW1MzCHMLNwpjZzcLg&#xD;&#xa;1s/CpaLPwoLKzcKOWtHCvGnRwjzSzsJy783C1A/Pwt/Vz8ILO83CFiHNwtEKzsJXt9DCFF7QwgNt&#xD;&#xa;zsKOKNHCau7PwmX9zsJbudDCsIrRwkXn0MKck9LChHnTwuFa0cKf19HCjV7Pwt+fz8ICyc/CXOXP&#xD;&#xa;wuW6z8KhstDCL/zRwmxoz8IWTM/CkznPwvuFzsKD9dDCIJjSwiBg0sJuodDCQMrPwtdT0MIqss/C&#xD;&#xa;nqTPwnrGzsLCDtHCye3RwoR308I8+9PCvQ7RwvH8z8KmI9LCrlLVwn6w08KmqdLCxYfUwiGE08Ii&#xD;&#xa;u9LCejbUwpgn1MJMotXCv9TTwip61MKKl9TCWmfTwub/0sKkhdTC0iHVwrBu1sIsZtXCDtrUwtzR&#xD;&#xa;1cITsNbCwpDWwhPJ18LWKNfCQy7VwkLV08IuS9bC8IrVwtjX1sLGHNjCUtfYwkhq18I7lNbCek3W&#xD;&#xa;wjz31sK1E9jCTNrYwo762cLkytnCeMLZwg8J2sLwrtjC8zfZwhs02sL6z9nCslnZwhHn2sLCRdzC&#xD;&#xa;Av3awhOA3MKYmN7CgKHdwpIV28Jii9rCMuzcwoQn3cImvdvC1pLZwmC/2cKSAN3Cx9vcwmgh3MJY&#xD;&#xa;d9vCPPbZwkBQ3MKBJd3CIi7bwnY33MIzvN7Cl/Xewujk38JPOt/C1V/ewlIx3sL8qt7CJrnewpoD&#xD;&#xa;4MJXUuDC8NfewkqX3sK67NzChbLawvbX28Llht3CuNXdwkyX3sIoc97CCpfdwhIr3cLh7d3CjWre&#xD;&#xa;wvIR38Jm4N3CEJHdwinX3sK4XN3C3OTcwhVu28J989vCVlfewppC4MJKCN7CEInewqh238KC0N7C&#xD;&#xa;BMLdwmx03cLJ9dzCA6HcwpRQ3cKojd3CJjjfwkak48LnkO/CwIn4wpKW+MLgG/jCLBD4wjIq+cL6&#xD;&#xa;8ffCRJb2wlxC98KXXPfCrLz0wpT+9cL3bvfCusf2wlh798IQy/bCWu/2wsrF98K0SvjCSj77wpAR&#xD;&#xa;+8L4V/vCtAz7whil+cKlBPfCwNT1wgIx98IE1/jCksf6wgrm+MIQjfjCKlX4wrrT+MKy0PjCktL5&#xD;&#xa;wvKZ+sICkvrCMIf4wqDF9sJIefjCMuL5wl4B+MLpB/jCNvL5wnTL+8J+APvC4cP1wsbQ9MLO3ffC&#xD;&#xa;2HL4wgDB+MIKw/nCMmz3wqTI9sI+ifrCfl/6wjjU98K/zfbC/hr1wuXw9cLoVPbC0hr2wi7r9sJc&#xD;&#xa;6vjC6nf4wg9X98J6yPrCYAr5wox89sIM7fXCzND2wo5w98JTAvjCuEX3wjR4+MI6XvvCYGX7wizB&#xD;&#xa;+MIskvXCtjr2whXD98KZ9PfCjTz4wrbV+cLQiPjCcJb3wvZR+MJKcfnCZE34wot99cIU1/XCAl/2&#xD;&#xa;whDF9cI6H/bCanv4wjjL+MJtTvjC2tP3wt/298Lu3PXC8vb2wnAn98IvvfbCArL2wizn+MKGEPnC&#xD;&#xa;Zgz6whic+sLKjfjCyOv1wvCE9sIe3vnCJrf8woah+8L4D/nCW1j4wgQy+MKEj/jCukX6wkpf+8J0&#xD;&#xa;wfnCfo34wsif+cI0YPnClDH3wtwT+cJWnfrC2Kz3wgEh+MIwHvbCVkH2wtOL9sJa7fjCXOX3wpKd&#xD;&#xa;98L2TPfCCEj1wpKs98L7n/fCqvT2wvBV98LeyvfCAMD4wrXV98JmDvfCVPD2wrB29sLm0vbCSE75&#xD;&#xa;wke/9sJs8PXCh5f3wgbt+cKSZvvCajT6wuTi+ML0hPbCZqr2wrb8+MJm3/nCoIL6wo49+cLuhPjC&#xD;&#xa;qpP2wsjK9sLQafjCNAb5wo0598JN0PbCaFr3wg6R9sKExffC9gL5wi7x98JlxfbCJjD5wsh5+MIY&#xD;&#xa;k/jCsu35wrrh+cLkEPnCajH3wizp9sI7N/fCi8j2wgh0+MJR8/fCIHL2wpyF+cJSUvnC/FH4wrC2&#xD;&#xa;+cKeaffChjv4wqhK+cJWZvjCg7P3wmDB98KqCPjCCvf4wixW+cKWGfjCYE33wjx0+ML4mPfC6GP4&#xD;&#xa;wsp+98JAqffC8vz2wtnP9sJGpffCj072wgCH98LgMvnCuhH6wrTl+sLM/vnCSpr3wvB198J2/fjC&#xD;&#xa;rGH6wjLG+cKaLPvCbrAE" leadInLength="0/1"  />
            </Keyframes>
           </Parameter>
           </Parameters>
           <MetaData>
            <entry key="effectIndex" val="2"/>
           </MetaData>
          </GenericEffect>
         </Effects>
         <Attributes>
          <Attribute id="152" value="" name="ident"/>
          <Attribute id="153" value="0" name="mixToMono"/>
         </Attributes>
         <MetaData>
          <entry key="AutoAppliedSmartFocus" val="False"/>
          <entry key="WinSubProjectDisplayName" val=""/>
         </MetaData>
         <ExtraData>
          <Entry key="ZoomPanBin">
           <ZoomPanBin id="154"  >
            <ZoomPanKeyframes>
             <ZoomPanKeyframe id="155" timeRangeEnd="-9999999/1" timeRangeDuration="0/1" interpolaterName="linr"  />
            </ZoomPanKeyframes>
           </ZoomPanBin>
          </Entry>
          <Entry key="CursorEffectBin">
           <CursorEffectBin id="156"  >
            <CursorEffectKeyframes>
             <CursorEffectKeyframe id="157" timeRangeEnd="-9999999/1" timeRangeDuration="0/1" interpolaterName=""  />
            </CursorEffectKeyframes>
           </CursorEffectBin>
          </Entry>
         </ExtraData>
         <GenericTrack id="158"  >
          <Attributes>
           <Attribute id="159" value="" name="ident"/>
           <Attribute id="160" value="0" name="audioMuted"/>
           <Attribute id="161" value="0" name="videoHidden"/>
          </Attributes>
          <MetaData>
           <entry key="IsLocked" val="False"/>
           <entry key="WinTrackHeight" val="0"/>
          </MetaData>
          <Medias>
           <UnifiedMedia id="162"  >
            <AMFile id="163" start="0" duration="214" scalar="1/1" mediaStart="0/1" mediaDuration="214/1" trackNumber="1" src="4" channelNumber="0,1" >
             <Parameters>
              <InterpolatingParam id="164" interp="linr"  time="0/1" value="1" leadInLength="0/1"  name="volume"/>
              <Parameter id="165"  name="captions"/>
             </Parameters>
             <Attributes>
              <Attribute id="166" value="" name="ident"/>
              <Attribute id="167" value="44100" name="sampleRate"/>
              <Attribute id="168" value="16" name="bitDepth"/>
              <Attribute id="169" value="1" name="gain"/>
              <Attribute id="170" value="0" name="mixToMono"/>
             </Attributes>
            </AMFile>
            <ScreenVMFile id="171" start="0" duration="214" scalar="1/1" mediaStart="0/1" mediaDuration="214/1" trackNumber="0" src="4" >
             <Transformer>
              <VectorParam id="172"  name="translation">
               <InterpolatingParam id="173" interp="linr"  time="-9999999/1" value="0" leadInLength="0/1"  />
               <InterpolatingParam id="174" interp="linr"  time="-9999999/1" value="0" leadInLength="0/1"  />
               <InterpolatingParam id="175" interp="linr"  time="-9999999/1" value="0" leadInLength="0/1"  />
              </VectorParam>
              <VectorParam id="176"  name="rotation">
               <InterpolatingParam id="177" interp="linr"  time="-9999999/1" value="0" leadInLength="0/1"  />
               <InterpolatingParam id="178" interp="linr"  time="-9999999/1" value="0" leadInLength="0/1"  />
               <InterpolatingParam id="179" interp="linr"  time="-9999999/1" value="0" leadInLength="0/1"  />
              </VectorParam>
              <VectorParam id="180"  name="shear">
               <InterpolatingParam id="181" interp="linr"  time="-9999999/1" value="0" leadInLength="0/1"  />
               <InterpolatingParam id="182" interp="linr"  time="-9999999/1" value="0" leadInLength="0/1"  />
               <InterpolatingParam id="183" interp="linr"  time="-9999999/1" value="0" leadInLength="0/1"  />
              </VectorParam>
              <VectorParam id="184"  name="scale">
               <InterpolatingParam id="185" interp="linr"  time="-9999999/1" value="1" leadInLength="0/1"  />
               <InterpolatingParam id="186" interp="linr"  time="-9999999/1" value="1" leadInLength="0/1"  />
               <InterpolatingParam id="187" interp="linr"  time="-9999999/1" value="1" leadInLength="0/1"  />
              </VectorParam>
              <VectorParam id="188"  name="anchor">
               <InterpolatingParam id="189" interp="linr"  time="0/1" value="0" leadInLength="0/1"  />
               <InterpolatingParam id="190" interp="linr"  time="0/1" value="0" leadInLength="0/1"  />
               <InterpolatingParam id="191" interp="linr"  time="0/1" value="0" leadInLength="0/1"  />
              </VectorParam>
             </Transformer>
             <Parameters>
              <VectorParam id="192"  name="sourceCrop">
               <InterpolatingParam id="193" interp="linr"  time="0/1" value="0" leadInLength="0/1"  />
               <InterpolatingParam id="194" interp="linr"  time="0/1" value="0" leadInLength="0/1"  />
               <InterpolatingParam id="195" interp="linr"  time="0/1" value="0" leadInLength="0/1"  />
               <InterpolatingParam id="196" interp="linr"  time="0/1" value="0" leadInLength="0/1"  />
              </VectorParam>
              <VectorParam id="197"  name="geometryCrop">
               <InterpolatingParam id="198" interp="linr"  time="-9999999/1" value="0" leadInLength="0/1"  />
               <InterpolatingParam id="199" interp="linr"  time="-9999999/1" value="0" leadInLength="0/1"  />
               <InterpolatingParam id="200" interp="linr"  time="-9999999/1" value="0" leadInLength="0/1"  />
               <InterpolatingParam id="201" interp="linr"  time="-9999999/1" value="0" leadInLength="0/1"  />
              </VectorParam>
              <InterpolatingParam id="202" interp="linr"  time="-9999999/1" value="1" leadInLength="0/1"  name="opacity"/>
              <InterpolatingParam id="203" interp="linr"  time="0/1" value="0" leadInLength="0/1"  name="cursorOpacity"/>
              <InterpolatingParam id="204" interp="linr"  time="0/1" value="0" leadInLength="0/1"  name="cursorScale"/>
             </Parameters>
             <Attributes>
              <Attribute id="205" value="" name="ident"/>
             </Attributes>
             <ExtraData>
              <Entry key="ZoomPanBin">
               <ZoomPanBin id="206"  >
                <ZoomPanKeyframes>
                 <ZoomPanKeyframe id="207" timeRangeEnd="-9999999/1" timeRangeDuration="0/1" interpolaterName=""  />
                </ZoomPanKeyframes>
               </ZoomPanBin>
              </Entry>
              <Entry key="CursorEffectBin">
               <CursorEffectBin id="208"  >
                <CursorEffectKeyframes>
                </CursorEffectKeyframes>
               </CursorEffectBin>
              </Entry>
             </ExtraData>
            </ScreenVMFile>
            <MetaData>
             <entry key="AutoAppliedSmartFocus" val="False"/>
             <entry key="WinSubProjectDisplayName" val=""/>
            </MetaData>
           </UnifiedMedia>
           <UnifiedMedia id="209"  >
            <AMFile id="210" start="214" duration="51" scalar="1/1" mediaStart="554/1" mediaDuration="51/1" trackNumber="1" src="4" channelNumber="0,1" >
             <Parameters>
              <InterpolatingParam id="211" interp="linr"  time="0/1" value="1" leadInLength="0/1"  name="volume"/>
              <Parameter id="212"  name="captions"/>
             </Parameters>
             <Attributes>
              <Attribute id="213" value="" name="ident"/>
              <Attribute id="214" value="44100" name="sampleRate"/>
              <Attribute id="215" value="16" name="bitDepth"/>
              <Attribute id="216" value="1" name="gain"/>
              <Attribute id="217" value="0" name="mixToMono"/>
             </Attributes>
            </AMFile>
            <ScreenVMFile id="218" start="214" duration="51" scalar="1/1" mediaStart="554/1" mediaDuration="51/1" trackNumber="0" src="4" >
             <Transformer>
              <VectorParam id="219"  name="translation">
               <InterpolatingParam id="220" interp="linr"  time="-9999999/1" value="0" leadInLength="0/1"  />
               <InterpolatingParam id="221" interp="linr"  time="-9999999/1" value="0" leadInLength="0/1"  />
               <InterpolatingParam id="222" interp="linr"  time="-9999999/1" value="0" leadInLength="0/1"  />
              </VectorParam>
              <VectorParam id="223"  name="rotation">
               <InterpolatingParam id="224" interp="linr"  time="-9999999/1" value="0" leadInLength="0/1"  />
               <InterpolatingParam id="225" interp="linr"  time="-9999999/1" value="0" leadInLength="0/1"  />
               <InterpolatingParam id="226" interp="linr"  time="-9999999/1" value="0" leadInLength="0/1"  />
              </VectorParam>
              <VectorParam id="227"  name="shear">
               <InterpolatingParam id="228" interp="linr"  time="-9999999/1" value="0" leadInLength="0/1"  />
               <InterpolatingParam id="229" interp="linr"  time="-9999999/1" value="0" leadInLength="0/1"  />
               <InterpolatingParam id="230" interp="linr"  time="-9999999/1" value="0" leadInLength="0/1"  />
              </VectorParam>
              <VectorParam id="231"  name="scale">
               <InterpolatingParam id="232" interp="linr"  time="-9999999/1" value="1" leadInLength="0/1"  />
               <InterpolatingParam id="233" interp="linr"  time="-9999999/1" value="1" leadInLength="0/1"  />
               <InterpolatingParam id="234" interp="linr"  time="-9999999/1" value="1" leadInLength="0/1"  />
              </VectorParam>
              <VectorParam id="235"  name="anchor">
               <InterpolatingParam id="236" interp="linr"  time="0/1" value="0" leadInLength="0/1"  />
               <InterpolatingParam id="237" interp="linr"  time="0/1" value="0" leadInLength="0/1"  />
               <InterpolatingParam id="238" interp="linr"  time="0/1" value="0" leadInLength="0/1"  />
              </VectorParam>
             </Transformer>
             <Parameters>
              <VectorParam id="239"  name="sourceCrop">
               <InterpolatingParam id="240" interp="linr"  time="0/1" value="0" leadInLength="0/1"  />
               <InterpolatingParam id="241" interp="linr"  time="0/1" value="0" leadInLength="0/1"  />
               <InterpolatingParam id="242" interp="linr"  time="0/1" value="0" leadInLength="0/1"  />
               <InterpolatingParam id="243" interp="linr"  time="0/1" value="0" leadInLength="0/1"  />
              </VectorParam>
              <VectorParam id="244"  name="geometryCrop">
               <InterpolatingParam id="245" interp="linr"  time="-9999999/1" value="0" leadInLength="0/1"  />
               <InterpolatingParam id="246" interp="linr"  time="-9999999/1" value="0" leadInLength="0/1"  />
               <InterpolatingParam id="247" interp="linr"  time="-9999999/1" value="0" leadInLength="0/1"  />
               <InterpolatingParam id="248" interp="linr"  time="-9999999/1" value="0" leadInLength="0/1"  />
              </VectorParam>
              <InterpolatingParam id="249" interp="linr"  time="-9999999/1" value="1" leadInLength="0/1"  name="opacity"/>
              <InterpolatingParam id="250" interp="linr"  time="0/1" value="0" leadInLength="0/1"  name="cursorOpacity"/>
              <InterpolatingParam id="251" interp="linr"  time="0/1" value="0" leadInLength="0/1"  name="cursorScale"/>
             </Parameters>
             <Attributes>
              <Attribute id="252" value="" name="ident"/>
             </Attributes>
             <ExtraData>
              <Entry key="ZoomPanBin">
               <ZoomPanBin id="253"  >
                <ZoomPanKeyframes>
                 <ZoomPanKeyframe id="254" timeRangeEnd="-9999999/1" timeRangeDuration="0/1" interpolaterName=""  />
                </ZoomPanKeyframes>
               </ZoomPanBin>
              </Entry>
              <Entry key="CursorEffectBin">
               <CursorEffectBin id="255"  >
                <CursorEffectKeyframes>
                </CursorEffectKeyframes>
               </CursorEffectBin>
              </Entry>
             </ExtraData>
            </ScreenVMFile>
            <MetaData>
             <entry key="AutoAppliedSmartFocus" val="False"/>
             <entry key="WinSubProjectDisplayName" val=""/>
            </MetaData>
           </UnifiedMedia>
           <UnifiedMedia id="256"  >
            <AMFile id="257" start="265" duration="11" scalar="1/1" mediaStart="613/1" mediaDuration="11/1" trackNumber="1" src="4" channelNumber="0,1" >
             <Parameters>
              <InterpolatingParam id="258" interp="linr"  time="0/1" value="1" leadInLength="0/1"  name="volume"/>
              <Parameter id="259"  name="captions"/>
             </Parameters>
             <Attributes>
              <Attribute id="260" value="" name="ident"/>
              <Attribute id="261" value="44100" name="sampleRate"/>
              <Attribute id="262" value="16" name="bitDepth"/>
              <Attribute id="263" value="1" name="gain"/>
              <Attribute id="264" value="0" name="mixToMono"/>
             </Attributes>
            </AMFile>
            <ScreenVMFile id="265" start="265" duration="11" scalar="1/1" mediaStart="613/1" mediaDuration="11/1" trackNumber="0" src="4" >
             <Transformer>
              <VectorParam id="266"  name="translation">
               <InterpolatingParam id="267" interp="linr"  time="-9999999/1" value="0" leadInLength="0/1"  />
               <InterpolatingParam id="268" interp="linr"  time="-9999999/1" value="0" leadInLength="0/1"  />
               <InterpolatingParam id="269" interp="linr"  time="-9999999/1" value="0" leadInLength="0/1"  />
              </VectorParam>
              <VectorParam id="270"  name="rotation">
               <InterpolatingParam id="271" interp="linr"  time="-9999999/1" value="0" leadInLength="0/1"  />
               <InterpolatingParam id="272" interp="linr"  time="-9999999/1" value="0" leadInLength="0/1"  />
               <InterpolatingParam id="273" interp="linr"  time="-9999999/1" value="0" leadInLength="0/1"  />
              </VectorParam>
              <VectorParam id="274"  name="shear">
               <InterpolatingParam id="275" interp="linr"  time="-9999999/1" value="0" leadInLength="0/1"  />
               <InterpolatingParam id="276" interp="linr"  time="-9999999/1" value="0" leadInLength="0/1"  />
               <InterpolatingParam id="277" interp="linr"  time="-9999999/1" value="0" leadInLength="0/1"  />
              </VectorParam>
              <VectorParam id="278"  name="scale">
               <InterpolatingParam id="279" interp="linr"  time="-9999999/1" value="1" leadInLength="0/1"  />
               <InterpolatingParam id="280" interp="linr"  time="-9999999/1" value="1" leadInLength="0/1"  />
               <InterpolatingParam id="281" interp="linr"  time="-9999999/1" value="1" leadInLength="0/1"  />
              </VectorParam>
              <VectorParam id="282"  name="anchor">
               <InterpolatingParam id="283" interp="linr"  time="0/1" value="0" leadInLength="0/1"  />
               <InterpolatingParam id="284" interp="linr"  time="0/1" value="0" leadInLength="0/1"  />
               <InterpolatingParam id="285" interp="linr"  time="0/1" value="0" leadInLength="0/1"  />
              </VectorParam>
             </Transformer>
             <Parameters>
              <VectorParam id="286"  name="sourceCrop">
               <InterpolatingParam id="287" interp="linr"  time="0/1" value="0" leadInLength="0/1"  />
               <InterpolatingParam id="288" interp="linr"  time="0/1" value="0" leadInLength="0/1"  />
               <InterpolatingParam id="289" interp="linr"  time="0/1" value="0" leadInLength="0/1"  />
               <InterpolatingParam id="290" interp="linr"  time="0/1" value="0" leadInLength="0/1"  />
              </VectorParam>
              <VectorParam id="291"  name="geometryCrop">
               <InterpolatingParam id="292" interp="linr"  time="-9999999/1" value="0" leadInLength="0/1"  />
               <InterpolatingParam id="293" interp="linr"  time="-9999999/1" value="0" leadInLength="0/1"  />
               <InterpolatingParam id="294" interp="linr"  time="-9999999/1" value="0" leadInLength="0/1"  />
               <InterpolatingParam id="295" interp="linr"  time="-9999999/1" value="0" leadInLength="0/1"  />
              </VectorParam>
              <InterpolatingParam id="296" interp="linr"  time="-9999999/1" value="1" leadInLength="0/1"  name="opacity"/>
              <InterpolatingParam id="297" interp="linr"  time="0/1" value="0" leadInLength="0/1"  name="cursorOpacity"/>
              <InterpolatingParam id="298" interp="linr"  time="0/1" value="0" leadInLength="0/1"  name="cursorScale"/>
             </Parameters>
             <Attributes>
              <Attribute id="299" value="" name="ident"/>
             </Attributes>
             <ExtraData>
              <Entry key="ZoomPanBin">
               <ZoomPanBin id="300"  >
                <ZoomPanKeyframes>
                 <ZoomPanKeyframe id="301" timeRangeEnd="-9999999/1" timeRangeDuration="0/1" interpolaterName=""  />
                </ZoomPanKeyframes>
               </ZoomPanBin>
              </Entry>
              <Entry key="CursorEffectBin">
               <CursorEffectBin id="302"  >
                <CursorEffectKeyframes>
                </CursorEffectKeyframes>
               </CursorEffectBin>
              </Entry>
             </ExtraData>
            </ScreenVMFile>
            <MetaData>
             <entry key="AutoAppliedSmartFocus" val="False"/>
             <entry key="WinSubProjectDisplayName" val=""/>
            </MetaData>
           </UnifiedMedia>
           <UnifiedMedia id="303"  >
            <AMFile id="304" start="276" duration="159" scalar="1/1" mediaStart="631/1" mediaDuration="159/1" trackNumber="1" src="4" channelNumber="0,1" >
             <Parameters>
              <InterpolatingParam id="305" interp="linr"  time="0/1" value="1" leadInLength="0/1"  name="volume"/>
              <Parameter id="306"  name="captions"/>
             </Parameters>
             <Attributes>
              <Attribute id="307" value="" name="ident"/>
              <Attribute id="308" value="44100" name="sampleRate"/>
              <Attribute id="309" value="16" name="bitDepth"/>
              <Attribute id="310" value="1" name="gain"/>
              <Attribute id="311" value="0" name="mixToMono"/>
             </Attributes>
            </AMFile>
            <ScreenVMFile id="312" start="276" duration="159" scalar="1/1" mediaStart="631/1" mediaDuration="159/1" trackNumber="0" src="4" >
             <Transformer>
              <VectorParam id="313"  name="translation">
               <InterpolatingParam id="314" interp="linr"  time="-9999999/1" value="0" leadInLength="0/1"  />
               <InterpolatingParam id="315" interp="linr"  time="-9999999/1" value="0" leadInLength="0/1"  />
               <InterpolatingParam id="316" interp="linr"  time="-9999999/1" value="0" leadInLength="0/1"  />
              </VectorParam>
              <VectorParam id="317"  name="rotation">
               <InterpolatingParam id="318" interp="linr"  time="-9999999/1" value="0" leadInLength="0/1"  />
               <InterpolatingParam id="319" interp="linr"  time="-9999999/1" value="0" leadInLength="0/1"  />
               <InterpolatingParam id="320" interp="linr"  time="-9999999/1" value="0" leadInLength="0/1"  />
              </VectorParam>
              <VectorParam id="321"  name="shear">
               <InterpolatingParam id="322" interp="linr"  time="-9999999/1" value="0" leadInLength="0/1"  />
               <InterpolatingParam id="323" interp="linr"  time="-9999999/1" value="0" leadInLength="0/1"  />
               <InterpolatingParam id="324" interp="linr"  time="-9999999/1" value="0" leadInLength="0/1"  />
              </VectorParam>
              <VectorParam id="325"  name="scale">
               <InterpolatingParam id="326" interp="linr"  time="-9999999/1" value="1" leadInLength="0/1"  />
               <InterpolatingParam id="327" interp="linr"  time="-9999999/1" value="1" leadInLength="0/1"  />
               <InterpolatingParam id="328" interp="linr"  time="-9999999/1" value="1" leadInLength="0/1"  />
              </VectorParam>
              <VectorParam id="329"  name="anchor">
               <InterpolatingParam id="330" interp="linr"  time="0/1" value="0" leadInLength="0/1"  />
               <InterpolatingParam id="331" interp="linr"  time="0/1" value="0" leadInLength="0/1"  />
               <InterpolatingParam id="332" interp="linr"  time="0/1" value="0" leadInLength="0/1"  />
              </VectorParam>
             </Transformer>
             <Parameters>
              <VectorParam id="333"  name="sourceCrop">
               <InterpolatingParam id="334" interp="linr"  time="0/1" value="0" leadInLength="0/1"  />
               <InterpolatingParam id="335" interp="linr"  time="0/1" value="0" leadInLength="0/1"  />
               <InterpolatingParam id="336" interp="linr"  time="0/1" value="0" leadInLength="0/1"  />
               <InterpolatingParam id="337" interp="linr"  time="0/1" value="0" leadInLength="0/1"  />
              </VectorParam>
              <VectorParam id="338"  name="geometryCrop">
               <InterpolatingParam id="339" interp="linr"  time="-9999999/1" value="0" leadInLength="0/1"  />
               <InterpolatingParam id="340" interp="linr"  time="-9999999/1" value="0" leadInLength="0/1"  />
               <InterpolatingParam id="341" interp="linr"  time="-9999999/1" value="0" leadInLength="0/1"  />
               <InterpolatingParam id="342" interp="linr"  time="-9999999/1" value="0" leadInLength="0/1"  />
              </VectorParam>
              <InterpolatingParam id="343" interp="linr"  time="-9999999/1" value="1" leadInLength="0/1"  name="opacity"/>
              <InterpolatingParam id="344" interp="linr"  time="0/1" value="0" leadInLength="0/1"  name="cursorOpacity"/>
              <InterpolatingParam id="345" interp="linr"  time="0/1" value="0" leadInLength="0/1"  name="cursorScale"/>
             </Parameters>
             <Attributes>
              <Attribute id="346" value="" name="ident"/>
             </Attributes>
             <ExtraData>
              <Entry key="ZoomPanBin">
               <ZoomPanBin id="347"  >
                <ZoomPanKeyframes>
                 <ZoomPanKeyframe id="348" timeRangeEnd="-9999999/1" timeRangeDuration="0/1" interpolaterName=""  />
                </ZoomPanKeyframes>
               </ZoomPanBin>
              </Entry>
              <Entry key="CursorEffectBin">
               <CursorEffectBin id="349"  >
                <CursorEffectKeyframes>
                </CursorEffectKeyframes>
               </CursorEffectBin>
              </Entry>
             </ExtraData>
            </ScreenVMFile>
            <MetaData>
             <entry key="AutoAppliedSmartFocus" val="False"/>
             <entry key="WinSubProjectDisplayName" val=""/>
            </MetaData>
           </UnifiedMedia>
           <UnifiedMedia id="350"  >
            <AMFile id="351" start="435" duration="66" scalar="1/1" mediaStart="797/1" mediaDuration="66/1" trackNumber="1" src="4" channelNumber="0,1" >
             <Parameters>
              <InterpolatingParam id="352" interp="linr"  time="0/1" value="1" leadInLength="0/1"  name="volume"/>
              <Parameter id="353"  name="captions"/>
             </Parameters>
             <Attributes>
              <Attribute id="354" value="" name="ident"/>
              <Attribute id="355" value="44100" name="sampleRate"/>
              <Attribute id="356" value="16" name="bitDepth"/>
              <Attribute id="357" value="1" name="gain"/>
              <Attribute id="358" value="0" name="mixToMono"/>
             </Attributes>
            </AMFile>
            <ScreenVMFile id="359" start="435" duration="66" scalar="1/1" mediaStart="797/1" mediaDuration="66/1" trackNumber="0" src="4" >
             <Transformer>
              <VectorParam id="360"  name="translation">
               <InterpolatingParam id="361" interp="linr"  time="-9999999/1" value="0" leadInLength="0/1"  />
               <InterpolatingParam id="362" interp="linr"  time="-9999999/1" value="0" leadInLength="0/1"  />
               <InterpolatingParam id="363" interp="linr"  time="-9999999/1" value="0" leadInLength="0/1"  />
              </VectorParam>
              <VectorParam id="364"  name="rotation">
               <InterpolatingParam id="365" interp="linr"  time="-9999999/1" value="0" leadInLength="0/1"  />
               <InterpolatingParam id="366" interp="linr"  time="-9999999/1" value="0" leadInLength="0/1"  />
               <InterpolatingParam id="367" interp="linr"  time="-9999999/1" value="0" leadInLength="0/1"  />
              </VectorParam>
              <VectorParam id="368"  name="shear">
               <InterpolatingParam id="369" interp="linr"  time="-9999999/1" value="0" leadInLength="0/1"  />
               <InterpolatingParam id="370" interp="linr"  time="-9999999/1" value="0" leadInLength="0/1"  />
               <InterpolatingParam id="371" interp="linr"  time="-9999999/1" value="0" leadInLength="0/1"  />
              </VectorParam>
              <VectorParam id="372"  name="scale">
               <InterpolatingParam id="373" interp="linr"  time="-9999999/1" value="1" leadInLength="0/1"  />
               <InterpolatingParam id="374" interp="linr"  time="-9999999/1" value="1" leadInLength="0/1"  />
               <InterpolatingParam id="375" interp="linr"  time="-9999999/1" value="1" leadInLength="0/1"  />
              </VectorParam>
              <VectorParam id="376"  name="anchor">
               <InterpolatingParam id="377" interp="linr"  time="0/1" value="0" leadInLength="0/1"  />
               <InterpolatingParam id="378" interp="linr"  time="0/1" value="0" leadInLength="0/1"  />
               <InterpolatingParam id="379" interp="linr"  time="0/1" value="0" leadInLength="0/1"  />
              </VectorParam>
             </Transformer>
             <Parameters>
              <VectorParam id="380"  name="sourceCrop">
               <InterpolatingParam id="381" interp="linr"  time="0/1" value="0" leadInLength="0/1"  />
               <InterpolatingParam id="382" interp="linr"  time="0/1" value="0" leadInLength="0/1"  />
               <InterpolatingParam id="383" interp="linr"  time="0/1" value="0" leadInLength="0/1"  />
               <InterpolatingParam id="384" interp="linr"  time="0/1" value="0" leadInLength="0/1"  />
              </VectorParam>
              <VectorParam id="385"  name="geometryCrop">
               <InterpolatingParam id="386" interp="linr"  time="-9999999/1" value="0" leadInLength="0/1"  />
               <InterpolatingParam id="387" interp="linr"  time="-9999999/1" value="0" leadInLength="0/1"  />
               <InterpolatingParam id="388" interp="linr"  time="-9999999/1" value="0" leadInLength="0/1"  />
               <InterpolatingParam id="389" interp="linr"  time="-9999999/1" value="0" leadInLength="0/1"  />
              </VectorParam>
              <InterpolatingParam id="390" interp="linr"  time="-9999999/1" value="1" leadInLength="0/1"  name="opacity"/>
              <InterpolatingParam id="391" interp="linr"  time="0/1" value="0" leadInLength="0/1"  name="cursorOpacity"/>
              <InterpolatingParam id="392" interp="linr"  time="0/1" value="0" leadInLength="0/1"  name="cursorScale"/>
             </Parameters>
             <Attributes>
              <Attribute id="393" value="" name="ident"/>
             </Attributes>
             <ExtraData>
              <Entry key="ZoomPanBin">
               <ZoomPanBin id="394"  >
                <ZoomPanKeyframes>
                 <ZoomPanKeyframe id="395" timeRangeEnd="-9999999/1" timeRangeDuration="0/1" interpolaterName=""  />
                </ZoomPanKeyframes>
               </ZoomPanBin>
              </Entry>
              <Entry key="CursorEffectBin">
               <CursorEffectBin id="396"  >
                <CursorEffectKeyframes>
                </CursorEffectKeyframes>
               </CursorEffectBin>
              </Entry>
             </ExtraData>
            </ScreenVMFile>
            <MetaData>
             <entry key="AutoAppliedSmartFocus" val="False"/>
             <entry key="WinSubProjectDisplayName" val=""/>
            </MetaData>
           </UnifiedMedia>
           <UnifiedMedia id="397"  >
            <AMFile id="398" start="501" duration="138" scalar="1/1" mediaStart="1214/1" mediaDuration="138/1" trackNumber="1" src="4" channelNumber="0,1" >
             <Parameters>
              <InterpolatingParam id="399" interp="linr"  time="0/1" value="1" leadInLength="0/1"  name="volume"/>
              <Parameter id="400"  name="captions"/>
             </Parameters>
             <Attributes>
              <Attribute id="401" value="" name="ident"/>
              <Attribute id="402" value="44100" name="sampleRate"/>
              <Attribute id="403" value="16" name="bitDepth"/>
              <Attribute id="404" value="1" name="gain"/>
              <Attribute id="405" value="0" name="mixToMono"/>
             </Attributes>
            </AMFile>
            <ScreenVMFile id="406" start="501" duration="138" scalar="1/1" mediaStart="1214/1" mediaDuration="138/1" trackNumber="0" src="4" >
             <Transformer>
              <VectorParam id="407"  name="translation">
               <InterpolatingParam id="408" interp="linr"  time="-9999999/1" value="0" leadInLength="0/1"  />
               <InterpolatingParam id="409" interp="linr"  time="-9999999/1" value="0" leadInLength="0/1"  />
               <InterpolatingParam id="410" interp="linr"  time="-9999999/1" value="0" leadInLength="0/1"  />
              </VectorParam>
              <VectorParam id="411"  name="rotation">
               <InterpolatingParam id="412" interp="linr"  time="-9999999/1" value="0" leadInLength="0/1"  />
               <InterpolatingParam id="413" interp="linr"  time="-9999999/1" value="0" leadInLength="0/1"  />
               <InterpolatingParam id="414" interp="linr"  time="-9999999/1" value="0" leadInLength="0/1"  />
              </VectorParam>
              <VectorParam id="415"  name="shear">
               <InterpolatingParam id="416" interp="linr"  time="-9999999/1" value="0" leadInLength="0/1"  />
               <InterpolatingParam id="417" interp="linr"  time="-9999999/1" value="0" leadInLength="0/1"  />
               <InterpolatingParam id="418" interp="linr"  time="-9999999/1" value="0" leadInLength="0/1"  />
              </VectorParam>
              <VectorParam id="419"  name="scale">
               <InterpolatingParam id="420" interp="linr"  time="-9999999/1" value="1" leadInLength="0/1"  />
               <InterpolatingParam id="421" interp="linr"  time="-9999999/1" value="1" leadInLength="0/1"  />
               <InterpolatingParam id="422" interp="linr"  time="-9999999/1" value="1" leadInLength="0/1"  />
              </VectorParam>
              <VectorParam id="423"  name="anchor">
               <InterpolatingParam id="424" interp="linr"  time="0/1" value="0" leadInLength="0/1"  />
               <InterpolatingParam id="425" interp="linr"  time="0/1" value="0" leadInLength="0/1"  />
               <InterpolatingParam id="426" interp="linr"  time="0/1" value="0" leadInLength="0/1"  />
              </VectorParam>
             </Transformer>
             <Parameters>
              <VectorParam id="427"  name="sourceCrop">
               <InterpolatingParam id="428" interp="linr"  time="0/1" value="0" leadInLength="0/1"  />
               <InterpolatingParam id="429" interp="linr"  time="0/1" value="0" leadInLength="0/1"  />
               <InterpolatingParam id="430" interp="linr"  time="0/1" value="0" leadInLength="0/1"  />
               <InterpolatingParam id="431" interp="linr"  time="0/1" value="0" leadInLength="0/1"  />
              </VectorParam>
              <VectorParam id="432"  name="geometryCrop">
               <InterpolatingParam id="433" interp="linr"  time="-9999999/1" value="0" leadInLength="0/1"  />
               <InterpolatingParam id="434" interp="linr"  time="-9999999/1" value="0" leadInLength="0/1"  />
               <InterpolatingParam id="435" interp="linr"  time="-9999999/1" value="0" leadInLength="0/1"  />
               <InterpolatingParam id="436" interp="linr"  time="-9999999/1" value="0" leadInLength="0/1"  />
              </VectorParam>
              <InterpolatingParam id="437" interp="linr"  time="-9999999/1" value="1" leadInLength="0/1"  name="opacity"/>
              <InterpolatingParam id="438" interp="linr"  time="0/1" value="0" leadInLength="0/1"  name="cursorOpacity"/>
              <InterpolatingParam id="439" interp="linr"  time="0/1" value="0" leadInLength="0/1"  name="cursorScale"/>
             </Parameters>
             <Attributes>
              <Attribute id="440" value="" name="ident"/>
             </Attributes>
             <ExtraData>
              <Entry key="ZoomPanBin">
               <ZoomPanBin id="441"  >
                <ZoomPanKeyframes>
                 <ZoomPanKeyframe id="442" timeRangeEnd="-9999999/1" timeRangeDuration="0/1" interpolaterName=""  />
                </ZoomPanKeyframes>
               </ZoomPanBin>
              </Entry>
              <Entry key="CursorEffectBin">
               <CursorEffectBin id="443"  >
                <CursorEffectKeyframes>
                </CursorEffectKeyframes>
               </CursorEffectBin>
              </Entry>
             </ExtraData>
            </ScreenVMFile>
            <MetaData>
             <entry key="AutoAppliedSmartFocus" val="False"/>
             <entry key="WinSubProjectDisplayName" val=""/>
            </MetaData>
           </UnifiedMedia>
           <UnifiedMedia id="444"  >
            <AMFile id="445" start="639" duration="112" scalar="1/1" mediaStart="1362/1" mediaDuration="112/1" trackNumber="1" src="4" channelNumber="0,1" >
             <Parameters>
              <InterpolatingParam id="446" interp="linr"  time="0/1" value="1" leadInLength="0/1"  name="volume"/>
              <Parameter id="447"  name="captions"/>
             </Parameters>
             <Attributes>
              <Attribute id="448" value="" name="ident"/>
              <Attribute id="449" value="44100" name="sampleRate"/>
              <Attribute id="450" value="16" name="bitDepth"/>
              <Attribute id="451" value="1" name="gain"/>
              <Attribute id="452" value="0" name="mixToMono"/>
             </Attributes>
            </AMFile>
            <ScreenVMFile id="453" start="639" duration="112" scalar="1/1" mediaStart="1362/1" mediaDuration="112/1" trackNumber="0" src="4" >
             <Transformer>
              <VectorParam id="454"  name="translation">
               <InterpolatingParam id="455" interp="linr"  time="-9999999/1" value="0" leadInLength="0/1"  />
               <InterpolatingParam id="456" interp="linr"  time="-9999999/1" value="0" leadInLength="0/1"  />
               <InterpolatingParam id="457" interp="linr"  time="-9999999/1" value="0" leadInLength="0/1"  />
              </VectorParam>
              <VectorParam id="458"  name="rotation">
               <InterpolatingParam id="459" interp="linr"  time="-9999999/1" value="0" leadInLength="0/1"  />
               <InterpolatingParam id="460" interp="linr"  time="-9999999/1" value="0" leadInLength="0/1"  />
               <InterpolatingParam id="461" interp="linr"  time="-9999999/1" value="0" leadInLength="0/1"  />
              </VectorParam>
              <VectorParam id="462"  name="shear">
               <InterpolatingParam id="463" interp="linr"  time="-9999999/1" value="0" leadInLength="0/1"  />
               <InterpolatingParam id="464" interp="linr"  time="-9999999/1" value="0" leadInLength="0/1"  />
               <InterpolatingParam id="465" interp="linr"  time="-9999999/1" value="0" leadInLength="0/1"  />
              </VectorParam>
              <VectorParam id="466"  name="scale">
               <InterpolatingParam id="467" interp="linr"  time="-9999999/1" value="1" leadInLength="0/1"  />
               <InterpolatingParam id="468" interp="linr"  time="-9999999/1" value="1" leadInLength="0/1"  />
               <InterpolatingParam id="469" interp="linr"  time="-9999999/1" value="1" leadInLength="0/1"  />
              </VectorParam>
              <VectorParam id="470"  name="anchor">
               <InterpolatingParam id="471" interp="linr"  time="0/1" value="0" leadInLength="0/1"  />
               <InterpolatingParam id="472" interp="linr"  time="0/1" value="0" leadInLength="0/1"  />
               <InterpolatingParam id="473" interp="linr"  time="0/1" value="0" leadInLength="0/1"  />
              </VectorParam>
             </Transformer>
             <Parameters>
              <VectorParam id="474"  name="sourceCrop">
               <InterpolatingParam id="475" interp="linr"  time="0/1" value="0" leadInLength="0/1"  />
               <InterpolatingParam id="476" interp="linr"  time="0/1" value="0" leadInLength="0/1"  />
               <InterpolatingParam id="477" interp="linr"  time="0/1" value="0" leadInLength="0/1"  />
               <InterpolatingParam id="478" interp="linr"  time="0/1" value="0" leadInLength="0/1"  />
              </VectorParam>
              <VectorParam id="479"  name="geometryCrop">
               <InterpolatingParam id="480" interp="linr"  time="-9999999/1" value="0" leadInLength="0/1"  />
               <InterpolatingParam id="481" interp="linr"  time="-9999999/1" value="0" leadInLength="0/1"  />
               <InterpolatingParam id="482" interp="linr"  time="-9999999/1" value="0" leadInLength="0/1"  />
               <InterpolatingParam id="483" interp="linr"  time="-9999999/1" value="0" leadInLength="0/1"  />
              </VectorParam>
              <InterpolatingParam id="484" interp="linr"  time="-9999999/1" value="1" leadInLength="0/1"  name="opacity"/>
              <InterpolatingParam id="485" interp="linr"  time="0/1" value="0" leadInLength="0/1"  name="cursorOpacity"/>
              <InterpolatingParam id="486" interp="linr"  time="0/1" value="0" leadInLength="0/1"  name="cursorScale"/>
             </Parameters>
             <Attributes>
              <Attribute id="487" value="" name="ident"/>
             </Attributes>
             <ExtraData>
              <Entry key="ZoomPanBin">
               <ZoomPanBin id="488"  >
                <ZoomPanKeyframes>
                 <ZoomPanKeyframe id="489" timeRangeEnd="-9999999/1" timeRangeDuration="0/1" interpolaterName=""  />
                </ZoomPanKeyframes>
               </ZoomPanBin>
              </Entry>
              <Entry key="CursorEffectBin">
               <CursorEffectBin id="490"  >
                <CursorEffectKeyframes>
                </CursorEffectKeyframes>
               </CursorEffectBin>
              </Entry>
             </ExtraData>
            </ScreenVMFile>
            <MetaData>
             <entry key="AutoAppliedSmartFocus" val="False"/>
             <entry key="WinSubProjectDisplayName" val=""/>
            </MetaData>
           </UnifiedMedia>
           <UnifiedMedia id="491"  >
            <AMFile id="492" start="751" duration="197" scalar="1/1" mediaStart="2344/1" mediaDuration="197/1" trackNumber="1" src="4" channelNumber="0,1" >
             <Parameters>
              <InterpolatingParam id="493" interp="linr"  time="0/1" value="1" leadInLength="0/1"  name="volume"/>
              <Parameter id="494"  name="captions"/>
             </Parameters>
             <Attributes>
              <Attribute id="495" value="" name="ident"/>
              <Attribute id="496" value="44100" name="sampleRate"/>
              <Attribute id="497" value="16" name="bitDepth"/>
              <Attribute id="498" value="1" name="gain"/>
              <Attribute id="499" value="0" name="mixToMono"/>
             </Attributes>
            </AMFile>
            <ScreenVMFile id="500" start="751" duration="197" scalar="1/1" mediaStart="2344/1" mediaDuration="197/1" trackNumber="0" src="4" >
             <Transformer>
              <VectorParam id="501"  name="translation">
               <InterpolatingParam id="502" interp="linr"  time="-9999999/1" value="0" leadInLength="0/1"  />
               <InterpolatingParam id="503" interp="linr"  time="-9999999/1" value="0" leadInLength="0/1"  />
               <InterpolatingParam id="504" interp="linr"  time="-9999999/1" value="0" leadInLength="0/1"  />
              </VectorParam>
              <VectorParam id="505"  name="rotation">
               <InterpolatingParam id="506" interp="linr"  time="-9999999/1" value="0" leadInLength="0/1"  />
               <InterpolatingParam id="507" interp="linr"  time="-9999999/1" value="0" leadInLength="0/1"  />
               <InterpolatingParam id="508" interp="linr"  time="-9999999/1" value="0" leadInLength="0/1"  />
              </VectorParam>
              <VectorParam id="509"  name="shear">
               <InterpolatingParam id="510" interp="linr"  time="-9999999/1" value="0" leadInLength="0/1"  />
               <InterpolatingParam id="511" interp="linr"  time="-9999999/1" value="0" leadInLength="0/1"  />
               <InterpolatingParam id="512" interp="linr"  time="-9999999/1" value="0" leadInLength="0/1"  />
              </VectorParam>
              <VectorParam id="513"  name="scale">
               <InterpolatingParam id="514" interp="linr"  time="-9999999/1" value="1" leadInLength="0/1"  />
               <InterpolatingParam id="515" interp="linr"  time="-9999999/1" value="1" leadInLength="0/1"  />
               <InterpolatingParam id="516" interp="linr"  time="-9999999/1" value="1" leadInLength="0/1"  />
              </VectorParam>
              <VectorParam id="517"  name="anchor">
               <InterpolatingParam id="518" interp="linr"  time="0/1" value="0" leadInLength="0/1"  />
               <InterpolatingParam id="519" interp="linr"  time="0/1" value="0" leadInLength="0/1"  />
               <InterpolatingParam id="520" interp="linr"  time="0/1" value="0" leadInLength="0/1"  />
              </VectorParam>
             </Transformer>
             <Parameters>
              <VectorParam id="521"  name="sourceCrop">
               <InterpolatingParam id="522" interp="linr"  time="0/1" value="0" leadInLength="0/1"  />
               <InterpolatingParam id="523" interp="linr"  time="0/1" value="0" leadInLength="0/1"  />
               <InterpolatingParam id="524" interp="linr"  time="0/1" value="0" leadInLength="0/1"  />
               <InterpolatingParam id="525" interp="linr"  time="0/1" value="0" leadInLength="0/1"  />
              </VectorParam>
              <VectorParam id="526"  name="geometryCrop">
               <InterpolatingParam id="527" interp="linr"  time="-9999999/1" value="0" leadInLength="0/1"  />
               <InterpolatingParam id="528" interp="linr"  time="-9999999/1" value="0" leadInLength="0/1"  />
               <InterpolatingParam id="529" interp="linr"  time="-9999999/1" value="0" leadInLength="0/1"  />
               <InterpolatingParam id="530" interp="linr"  time="-9999999/1" value="0" leadInLength="0/1"  />
              </VectorParam>
              <InterpolatingParam id="531" interp="linr"  time="-9999999/1" value="1" leadInLength="0/1"  name="opacity"/>
              <InterpolatingParam id="532" interp="linr"  time="0/1" value="0" leadInLength="0/1"  name="cursorOpacity"/>
              <InterpolatingParam id="533" interp="linr"  time="0/1" value="0" leadInLength="0/1"  name="cursorScale"/>
             </Parameters>
             <Attributes>
              <Attribute id="534" value="" name="ident"/>
             </Attributes>
             <ExtraData>
              <Entry key="ZoomPanBin">
               <ZoomPanBin id="535"  >
                <ZoomPanKeyframes>
                 <ZoomPanKeyframe id="536" timeRangeEnd="-9999999/1" timeRangeDuration="0/1" interpolaterName=""  />
                </ZoomPanKeyframes>
               </ZoomPanBin>
              </Entry>
              <Entry key="CursorEffectBin">
               <CursorEffectBin id="537"  >
                <CursorEffectKeyframes>
                </CursorEffectKeyframes>
               </CursorEffectBin>
              </Entry>
             </ExtraData>
            </ScreenVMFile>
            <MetaData>
             <entry key="AutoAppliedSmartFocus" val="False"/>
             <entry key="WinSubProjectDisplayName" val=""/>
            </MetaData>
           </UnifiedMedia>
           <UnifiedMedia id="538"  >
            <AMFile id="539" start="948" duration="78" scalar="1/1" mediaStart="2704/1" mediaDuration="78/1" trackNumber="1" src="4" channelNumber="0,1" >
             <Parameters>
              <InterpolatingParam id="540" interp="linr"  time="0/1" value="1" leadInLength="0/1"  name="volume"/>
              <Parameter id="541"  name="captions"/>
             </Parameters>
             <Attributes>
              <Attribute id="542" value="" name="ident"/>
              <Attribute id="543" value="44100" name="sampleRate"/>
              <Attribute id="544" value="16" name="bitDepth"/>
              <Attribute id="545" value="1" name="gain"/>
              <Attribute id="546" value="0" name="mixToMono"/>
             </Attributes>
            </AMFile>
            <ScreenVMFile id="547" start="948" duration="78" scalar="1/1" mediaStart="2704/1" mediaDuration="78/1" trackNumber="0" src="4" >
             <Transformer>
              <VectorParam id="548"  name="translation">
               <InterpolatingParam id="549" interp="linr"  time="-9999999/1" value="0" leadInLength="0/1"  />
               <InterpolatingParam id="550" interp="linr"  time="-9999999/1" value="0" leadInLength="0/1"  />
               <InterpolatingParam id="551" interp="linr"  time="-9999999/1" value="0" leadInLength="0/1"  />
              </VectorParam>
              <VectorParam id="552"  name="rotation">
               <InterpolatingParam id="553" interp="linr"  time="-9999999/1" value="0" leadInLength="0/1"  />
               <InterpolatingParam id="554" interp="linr"  time="-9999999/1" value="0" leadInLength="0/1"  />
               <InterpolatingParam id="555" interp="linr"  time="-9999999/1" value="0" leadInLength="0/1"  />
              </VectorParam>
              <VectorParam id="556"  name="shear">
               <InterpolatingParam id="557" interp="linr"  time="-9999999/1" value="0" leadInLength="0/1"  />
               <InterpolatingParam id="558" interp="linr"  time="-9999999/1" value="0" leadInLength="0/1"  />
               <InterpolatingParam id="559" interp="linr"  time="-9999999/1" value="0" leadInLength="0/1"  />
              </VectorParam>
              <VectorParam id="560"  name="scale">
               <InterpolatingParam id="561" interp="linr"  time="-9999999/1" value="1" leadInLength="0/1"  />
               <InterpolatingParam id="562" interp="linr"  time="-9999999/1" value="1" leadInLength="0/1"  />
               <InterpolatingParam id="563" interp="linr"  time="-9999999/1" value="1" leadInLength="0/1"  />
              </VectorParam>
              <VectorParam id="564"  name="anchor">
               <InterpolatingParam id="565" interp="linr"  time="0/1" value="0" leadInLength="0/1"  />
               <InterpolatingParam id="566" interp="linr"  time="0/1" value="0" leadInLength="0/1"  />
               <InterpolatingParam id="567" interp="linr"  time="0/1" value="0" leadInLength="0/1"  />
              </VectorParam>
             </Transformer>
             <Parameters>
              <VectorParam id="568"  name="sourceCrop">
               <InterpolatingParam id="569" interp="linr"  time="0/1" value="0" leadInLength="0/1"  />
               <InterpolatingParam id="570" interp="linr"  time="0/1" value="0" leadInLength="0/1"  />
               <InterpolatingParam id="571" interp="linr"  time="0/1" value="0" leadInLength="0/1"  />
               <InterpolatingParam id="572" interp="linr"  time="0/1" value="0" leadInLength="0/1"  />
              </VectorParam>
              <VectorParam id="573"  name="geometryCrop">
               <InterpolatingParam id="574" interp="linr"  time="-9999999/1" value="0" leadInLength="0/1"  />
               <InterpolatingParam id="575" interp="linr"  time="-9999999/1" value="0" leadInLength="0/1"  />
               <InterpolatingParam id="576" interp="linr"  time="-9999999/1" value="0" leadInLength="0/1"  />
               <InterpolatingParam id="577" interp="linr"  time="-9999999/1" value="0" leadInLength="0/1"  />
              </VectorParam>
              <InterpolatingParam id="578" interp="linr"  time="-9999999/1" value="1" leadInLength="0/1"  name="opacity"/>
              <InterpolatingParam id="579" interp="linr"  time="0/1" value="0" leadInLength="0/1"  name="cursorOpacity"/>
              <InterpolatingParam id="580" interp="linr"  time="0/1" value="0" leadInLength="0/1"  name="cursorScale"/>
             </Parameters>
             <Attributes>
              <Attribute id="581" value="" name="ident"/>
             </Attributes>
             <ExtraData>
              <Entry key="ZoomPanBin">
               <ZoomPanBin id="582"  >
                <ZoomPanKeyframes>
                 <ZoomPanKeyframe id="583" timeRangeEnd="-9999999/1" timeRangeDuration="0/1" interpolaterName=""  />
                </ZoomPanKeyframes>
               </ZoomPanBin>
              </Entry>
              <Entry key="CursorEffectBin">
               <CursorEffectBin id="584"  >
                <CursorEffectKeyframes>
                </CursorEffectKeyframes>
               </CursorEffectBin>
              </Entry>
             </ExtraData>
            </ScreenVMFile>
            <MetaData>
             <entry key="AutoAppliedSmartFocus" val="False"/>
             <entry key="WinSubProjectDisplayName" val=""/>
            </MetaData>
           </UnifiedMedia>
           <UnifiedMedia id="585"  >
            <AMFile id="586" start="1026" duration="134" scalar="1/1" mediaStart="2791/1" mediaDuration="134/1" trackNumber="1" src="4" channelNumber="0,1" >
             <Parameters>
              <InterpolatingParam id="587" interp="linr"  time="0/1" value="1" leadInLength="0/1"  name="volume"/>
              <Parameter id="588"  name="captions"/>
             </Parameters>
             <Attributes>
              <Attribute id="589" value="" name="ident"/>
              <Attribute id="590" value="44100" name="sampleRate"/>
              <Attribute id="591" value="16" name="bitDepth"/>
              <Attribute id="592" value="1" name="gain"/>
              <Attribute id="593" value="0" name="mixToMono"/>
             </Attributes>
            </AMFile>
            <ScreenVMFile id="594" start="1026" duration="134" scalar="1/1" mediaStart="2791/1" mediaDuration="134/1" trackNumber="0" src="4" >
             <Transformer>
              <VectorParam id="595"  name="translation">
               <InterpolatingParam id="596" interp="linr"  time="-9999999/1" value="0" leadInLength="0/1"  />
               <InterpolatingParam id="597" interp="linr"  time="-9999999/1" value="0" leadInLength="0/1"  />
               <InterpolatingParam id="598" interp="linr"  time="-9999999/1" value="0" leadInLength="0/1"  />
              </VectorParam>
              <VectorParam id="599"  name="rotation">
               <InterpolatingParam id="600" interp="linr"  time="-9999999/1" value="0" leadInLength="0/1"  />
               <InterpolatingParam id="601" interp="linr"  time="-9999999/1" value="0" leadInLength="0/1"  />
               <InterpolatingParam id="602" interp="linr"  time="-9999999/1" value="0" leadInLength="0/1"  />
              </VectorParam>
              <VectorParam id="603"  name="shear">
               <InterpolatingParam id="604" interp="linr"  time="-9999999/1" value="0" leadInLength="0/1"  />
               <InterpolatingParam id="605" interp="linr"  time="-9999999/1" value="0" leadInLength="0/1"  />
               <InterpolatingParam id="606" interp="linr"  time="-9999999/1" value="0" leadInLength="0/1"  />
              </VectorParam>
              <VectorParam id="607"  name="scale">
               <InterpolatingParam id="608" interp="linr"  time="-9999999/1" value="1" leadInLength="0/1"  />
               <InterpolatingParam id="609" interp="linr"  time="-9999999/1" value="1" leadInLength="0/1"  />
               <InterpolatingParam id="610" interp="linr"  time="-9999999/1" value="1" leadInLength="0/1"  />
              </VectorParam>
              <VectorParam id="611"  name="anchor">
               <InterpolatingParam id="612" interp="linr"  time="0/1" value="0" leadInLength="0/1"  />
               <InterpolatingParam id="613" interp="linr"  time="0/1" value="0" leadInLength="0/1"  />
               <InterpolatingParam id="614" interp="linr"  time="0/1" value="0" leadInLength="0/1"  />
              </VectorParam>
             </Transformer>
             <Parameters>
              <VectorParam id="615"  name="sourceCrop">
               <InterpolatingParam id="616" interp="linr"  time="0/1" value="0" leadInLength="0/1"  />
               <InterpolatingParam id="617" interp="linr"  time="0/1" value="0" leadInLength="0/1"  />
               <InterpolatingParam id="618" interp="linr"  time="0/1" value="0" leadInLength="0/1"  />
               <InterpolatingParam id="619" interp="linr"  time="0/1" value="0" leadInLength="0/1"  />
              </VectorParam>
              <VectorParam id="620"  name="geometryCrop">
               <InterpolatingParam id="621" interp="linr"  time="-9999999/1" value="0" leadInLength="0/1"  />
               <InterpolatingParam id="622" interp="linr"  time="-9999999/1" value="0" leadInLength="0/1"  />
               <InterpolatingParam id="623" interp="linr"  time="-9999999/1" value="0" leadInLength="0/1"  />
               <InterpolatingParam id="624" interp="linr"  time="-9999999/1" value="0" leadInLength="0/1"  />
              </VectorParam>
              <InterpolatingParam id="625" interp="linr"  time="-9999999/1" value="1" leadInLength="0/1"  name="opacity"/>
              <InterpolatingParam id="626" interp="linr"  time="0/1" value="0" leadInLength="0/1"  name="cursorOpacity"/>
              <InterpolatingParam id="627" interp="linr"  time="0/1" value="0" leadInLength="0/1"  name="cursorScale"/>
             </Parameters>
             <Attributes>
              <Attribute id="628" value="" name="ident"/>
             </Attributes>
             <ExtraData>
              <Entry key="ZoomPanBin">
               <ZoomPanBin id="629"  >
                <ZoomPanKeyframes>
                 <ZoomPanKeyframe id="630" timeRangeEnd="-9999999/1" timeRangeDuration="0/1" interpolaterName=""  />
                </ZoomPanKeyframes>
               </ZoomPanBin>
              </Entry>
              <Entry key="CursorEffectBin">
               <CursorEffectBin id="631"  >
                <CursorEffectKeyframes>
                </CursorEffectKeyframes>
               </CursorEffectBin>
              </Entry>
             </ExtraData>
            </ScreenVMFile>
            <MetaData>
             <entry key="AutoAppliedSmartFocus" val="False"/>
             <entry key="WinSubProjectDisplayName" val=""/>
            </MetaData>
           </UnifiedMedia>
           <UnifiedMedia id="632"  >
            <AMFile id="633" start="1160" duration="8822" scalar="1/1" mediaStart="2937/1" mediaDuration="8822/1" trackNumber="1" src="4" channelNumber="0,1" >
             <Parameters>
              <InterpolatingParam id="634" interp="linr"  time="0/1" value="1" leadInLength="0/1"  name="volume"/>
              <Parameter id="635"  name="captions"/>
             </Parameters>
             <Attributes>
              <Attribute id="636" value="" name="ident"/>
              <Attribute id="637" value="44100" name="sampleRate"/>
              <Attribute id="638" value="16" name="bitDepth"/>
              <Attribute id="639" value="1" name="gain"/>
              <Attribute id="640" value="0" name="mixToMono"/>
             </Attributes>
            </AMFile>
            <ScreenVMFile id="641" start="1160" duration="8822" scalar="1/1" mediaStart="2937/1" mediaDuration="8822/1" trackNumber="0" src="4" >
             <Transformer>
              <VectorParam id="642"  name="translation">
               <InterpolatingParam id="643" interp="linr"  time="-9999999/1" value="0" leadInLength="0/1"  />
               <InterpolatingParam id="644" interp="linr"  time="-9999999/1" value="0" leadInLength="0/1"  />
               <InterpolatingParam id="645" interp="linr"  time="-9999999/1" value="0" leadInLength="0/1"  />
              </VectorParam>
              <VectorParam id="646"  name="rotation">
               <InterpolatingParam id="647" interp="linr"  time="-9999999/1" value="0" leadInLength="0/1"  />
               <InterpolatingParam id="648" interp="linr"  time="-9999999/1" value="0" leadInLength="0/1"  />
               <InterpolatingParam id="649" interp="linr"  time="-9999999/1" value="0" leadInLength="0/1"  />
              </VectorParam>
              <VectorParam id="650"  name="shear">
               <InterpolatingParam id="651" interp="linr"  time="-9999999/1" value="0" leadInLength="0/1"  />
               <InterpolatingParam id="652" interp="linr"  time="-9999999/1" value="0" leadInLength="0/1"  />
               <InterpolatingParam id="653" interp="linr"  time="-9999999/1" value="0" leadInLength="0/1"  />
              </VectorParam>
              <VectorParam id="654"  name="scale">
               <InterpolatingParam id="655" interp="linr"  time="-9999999/1" value="1" leadInLength="0/1"  />
               <InterpolatingParam id="656" interp="linr"  time="-9999999/1" value="1" leadInLength="0/1"  />
               <InterpolatingParam id="657" interp="linr"  time="-9999999/1" value="1" leadInLength="0/1"  />
              </VectorParam>
              <VectorParam id="658"  name="anchor">
               <InterpolatingParam id="659" interp="linr"  time="0/1" value="0" leadInLength="0/1"  />
               <InterpolatingParam id="660" interp="linr"  time="0/1" value="0" leadInLength="0/1"  />
               <InterpolatingParam id="661" interp="linr"  time="0/1" value="0" leadInLength="0/1"  />
              </VectorParam>
             </Transformer>
             <Parameters>
              <VectorParam id="662"  name="sourceCrop">
               <InterpolatingParam id="663" interp="linr"  time="0/1" value="0" leadInLength="0/1"  />
               <InterpolatingParam id="664" interp="linr"  time="0/1" value="0" leadInLength="0/1"  />
               <InterpolatingParam id="665" interp="linr"  time="0/1" value="0" leadInLength="0/1"  />
               <InterpolatingParam id="666" interp="linr"  time="0/1" value="0" leadInLength="0/1"  />
              </VectorParam>
              <VectorParam id="667"  name="geometryCrop">
               <InterpolatingParam id="668" interp="linr"  time="-9999999/1" value="0" leadInLength="0/1"  />
               <InterpolatingParam id="669" interp="linr"  time="-9999999/1" value="0" leadInLength="0/1"  />
               <InterpolatingParam id="670" interp="linr"  time="-9999999/1" value="0" leadInLength="0/1"  />
               <InterpolatingParam id="671" interp="linr"  time="-9999999/1" value="0" leadInLength="0/1"  />
              </VectorParam>
              <InterpolatingParam id="672" interp="linr"  time="-9999999/1" value="1" leadInLength="0/1"  name="opacity"/>
              <InterpolatingParam id="673" interp="linr"  time="0/1" value="0" leadInLength="0/1"  name="cursorOpacity"/>
              <InterpolatingParam id="674" interp="linr"  time="0/1" value="0" leadInLength="0/1"  name="cursorScale"/>
             </Parameters>
             <Attributes>
              <Attribute id="675" value="" name="ident"/>
             </Attributes>
             <ExtraData>
              <Entry key="ZoomPanBin">
               <ZoomPanBin id="676"  >
                <ZoomPanKeyframes>
                 <ZoomPanKeyframe id="677" timeRangeEnd="-9999999/1" timeRangeDuration="0/1" interpolaterName=""  />
                </ZoomPanKeyframes>
               </ZoomPanBin>
              </Entry>
              <Entry key="CursorEffectBin">
               <CursorEffectBin id="678"  >
                <CursorEffectKeyframes>
                </CursorEffectKeyframes>
               </CursorEffectBin>
              </Entry>
             </ExtraData>
            </ScreenVMFile>
            <MetaData>
             <entry key="AutoAppliedSmartFocus" val="False"/>
             <entry key="WinSubProjectDisplayName" val=""/>
            </MetaData>
           </UnifiedMedia>
          </Medias>
         </GenericTrack>
        </StitchedMedia>
        <StitchedMedia id="679" start="1228" duration="2114" scalar="1/1" mediaStart="1345/1" mediaDuration="2114/1" minMediaStart="0/1" >
         <Transformer>
          <VectorParam id="680"  name="translation">
           <InterpolatingParam id="681" interp="linr"  time="-9999999/1" value="0" leadInLength="0/1"  interpolater="leadin-linr"  />
           <InterpolatingParam id="682" interp="linr"  time="-9999999/1" value="0" leadInLength="0/1"  interpolater="leadin-linr"  />
           <InterpolatingParam id="683" interp="linr"  time="-9999999/1" value="0" leadInLength="0/1"  interpolater="leadin-linr"  />
          </VectorParam>
          <VectorParam id="684"  name="rotation">
           <InterpolatingParam id="685" interp="linr"  time="-9999999/1" value="0" leadInLength="0/1"  interpolater="leadin-linr"  />
           <InterpolatingParam id="686" interp="linr"  time="-9999999/1" value="0" leadInLength="0/1"  interpolater="leadin-linr"  />
           <InterpolatingParam id="687" interp="linr"  time="-9999999/1" value="0" leadInLength="0/1"  interpolater="leadin-linr"  />
          </VectorParam>
          <VectorParam id="688"  name="shear">
           <InterpolatingParam id="689" interp="linr"  time="-9999999/1" value="0" leadInLength="0/1"  interpolater="leadin-linr"  />
           <InterpolatingParam id="690" interp="linr"  time="-9999999/1" value="0" leadInLength="0/1"  interpolater="leadin-linr"  />
           <InterpolatingParam id="691" interp="linr"  time="-9999999/1" value="0" leadInLength="0/1"  interpolater="leadin-linr"  />
          </VectorParam>
          <VectorParam id="692"  name="scale">
           <InterpolatingParam id="693" interp="linr"  time="-9999999/1" value="1" leadInLength="0/1"  interpolater="leadin-linr"  />
           <InterpolatingParam id="694" interp="linr"  time="-9999999/1" value="1" leadInLength="0/1"  interpolater="leadin-linr"  />
           <InterpolatingParam id="695" interp="linr"  time="-9999999/1" value="1" leadInLength="0/1"  interpolater="leadin-linr"  />
          </VectorParam>
          <VectorParam id="696"  name="anchor">
           <InterpolatingParam id="697" interp="linr"  time="0/1" value="0" leadInLength="0/1"  />
           <InterpolatingParam id="698" interp="linr"  time="0/1" value="0" leadInLength="0/1"  />
           <InterpolatingParam id="699" interp="linr"  time="0/1" value="0" leadInLength="0/1"  />
          </VectorParam>
         </Transformer>
         <Parameters>
          <VectorParam id="700"  name="sourceCrop">
           <InterpolatingParam id="701" interp="linr"  time="0/1" value="0" leadInLength="0/1"  />
           <InterpolatingParam id="702" interp="linr"  time="0/1" value="0" leadInLength="0/1"  />
           <InterpolatingParam id="703" interp="linr"  time="0/1" value="0" leadInLength="0/1"  />
           <InterpolatingParam id="704" interp="linr"  time="0/1" value="0" leadInLength="0/1"  />
          </VectorParam>
          <VectorParam id="705"  name="geometryCrop">
           <InterpolatingParam id="706" interp="linr"  time="-9999999/1" value="0" leadInLength="0/1"  interpolater="leadin-linr"  />
           <InterpolatingParam id="707" interp="linr"  time="-9999999/1" value="0" leadInLength="0/1"  interpolater="leadin-linr"  />
           <InterpolatingParam id="708" interp="linr"  time="-9999999/1" value="0" leadInLength="0/1"  interpolater="leadin-linr"  />
           <InterpolatingParam id="709" interp="linr"  time="-9999999/1" value="0" leadInLength="0/1"  interpolater="leadin-linr"  />
          </VectorParam>
          <InterpolatingParam id="710" interp="linr"  time="-9999999/1" value="1" leadInLength="0/1"  interpolater="leadin-linr"  name="opacity"/>
          <InterpolatingParam id="711" interp="linr"  time="0/1" value="1" leadInLength="0/1"  name="cursorOpacity"/>
          <InterpolatingParam id="712" interp="linr"  time="0/1" value="1" leadInLength="0/1"  name="cursorScale"/>
          <InterpolatingParam id="713" interp="linr"  time="0/1" value="1.5625" leadInLength="0/1"  name="volume"/>
          <Parameter id="714"  name="captions"/>
         </Parameters>
         <Effects>
          <GenericEffect id="715" name = "CursorBaseEffectName" >
           <Parameters>
           <InterpolatingParam id="716" interp="linr"  time="-9999999/1" value="1" leadInLength="0/1"   name="cursorSize"/>
           <InterpolatingParam id="717" interp="linr"  time="-9999999/1" value="0" leadInLength="0/1"   name="highlightBlurRadius"/>
           <InterpolatingParam id="718" interp="linr"  time="-9999999/1" value="0" leadInLength="0/1"   name="highlightColorBlue"/>
           <InterpolatingParam id="719" interp="linr"  time="-9999999/1" value="255" leadInLength="0/1"   name="highlightColorGreen"/>
           <InterpolatingParam id="720" interp="linr"  time="-9999999/1" value="255" leadInLength="0/1"   name="highlightColorRed"/>
           <InterpolatingParam id="721" interp="linr"  time="-9999999/1" value="5" leadInLength="0/1"   name="highlightFeatherSize"/>
           <InterpolatingParam id="722" interp="linr"  time="-9999999/1" value="2" leadInLength="0/1"   name="highlightMagnification"/>
           <InterpolatingParam id="723" interp="linr"  time="-9999999/1" value="1" leadInLength="0/1"   name="highlightOpacity"/>
           <InterpolatingParam id="724" interp="linr"  time="-9999999/1" value="45" leadInLength="0/1"   name="highlightSize"/>
           <Parameter id="725"   name="highlightType">
            <Keyframes>
            <Keyframe id="726"  time="-9999999/1" value="0" leadInLength="0/1"  />
            </Keyframes>
           </Parameter>
           <InterpolatingParam id="727" interp="linr"  time="-9999999/1" value="0" leadInLength="0/1"   name="leftClickColorBlue"/>
           <InterpolatingParam id="728" interp="linr"  time="-9999999/1" value="0" leadInLength="0/1"   name="leftClickColorGreen"/>
           <InterpolatingParam id="729" interp="linr"  time="-9999999/1" value="255" leadInLength="0/1"   name="leftClickColorRed"/>
           <InterpolatingParam id="730" interp="linr"  time="-9999999/1" value="0.80000000000000004" leadInLength="0/1"   name="leftClickDuration"/>
           <InterpolatingParam id="731" interp="linr"  time="-9999999/1" value="20" leadInLength="0/1"   name="leftClickSize"/>
           <Parameter id="732"   name="leftClickSoundFilename">
            <Keyframes>
            <Keyframe id="733"  time="-9999999/1" value="" leadInLength="0/1"  />
            </Keyframes>
           </Parameter>
           <InterpolatingParam id="734" interp="linr"  time="-9999999/1" value="1" leadInLength="0/1"   name="leftClickSoundVolume"/>
           <Parameter id="735"   name="leftClickType">
            <Keyframes>
            <Keyframe id="736"  time="-9999999/1" value="0" leadInLength="0/1"  />
            </Keyframes>
           </Parameter>
           <InterpolatingParam id="737" interp="linr"  time="-9999999/1" value="1" leadInLength="0/1"   name="opacity"/>
           <InterpolatingParam id="738" interp="linr"  time="-9999999/1" value="255" leadInLength="0/1"   name="rightClickColorBlue"/>
           <InterpolatingParam id="739" interp="linr"  time="-9999999/1" value="0" leadInLength="0/1"   name="rightClickColorGreen"/>
           <InterpolatingParam id="740" interp="linr"  time="-9999999/1" value="0" leadInLength="0/1"   name="rightClickColorRed"/>
           <InterpolatingParam id="741" interp="linr"  time="-9999999/1" value="0.80000000000000004" leadInLength="0/1"   name="rightClickDuration"/>
           <InterpolatingParam id="742" interp="linr"  time="-9999999/1" value="20" leadInLength="0/1"   name="rightClickSize"/>
           <Parameter id="743"   name="rightClickSoundFilename">
            <Keyframes>
            <Keyframe id="744"  time="-9999999/1" value="" leadInLength="0/1"  />
            </Keyframes>
           </Parameter>
           <InterpolatingParam id="745" interp="linr"  time="-9999999/1" value="1" leadInLength="0/1"   name="rightClickSoundVolume"/>
           <Parameter id="746"   name="rightClickType">
            <Keyframes>
            <Keyframe id="747"  time="-9999999/1" value="0" leadInLength="0/1"  />
            </Keyframes>
           </Parameter>
           </Parameters>
           <MetaData>
            <entry key="effectIndex" val="0"/>
           </MetaData>
          </GenericEffect>
          <GenericEffect id="748" name = "WinCompression" >
           <Parameters>
           <InterpolatingParam id="749" interp="linr"  time="0/1" value="0" leadInLength="0/1"   name="attack"/>
           <InterpolatingParam id="750" interp="linr"  time="0/1" value="9" leadInLength="0/1"   name="gain"/>
           <Parameter id="751"   name="preset">
            <Keyframes>
            <Keyframe id="752"  time="0/1" value="1" leadInLength="0/1"  />
            </Keyframes>
           </Parameter>
           <InterpolatingParam id="753" interp="linr"  time="0/1" value="10" leadInLength="0/1"   name="ratio"/>
           <InterpolatingParam id="754" interp="linr"  time="0/1" value="3500" leadInLength="0/1"   name="release"/>
           <InterpolatingParam id="755" interp="linr"  time="0/1" value="-20" leadInLength="0/1"   name="threshold"/>
           </Parameters>
           <MetaData>
            <entry key="effectIndex" val="1"/>
           </MetaData>
          </GenericEffect>
          <GenericEffect id="756" name = "NoiseReduction" >
           <Parameters>
           <InterpolatingParam id="757" interp="linr"  time="0/1" value="20" leadInLength="0/1"   name="denoiserAmount"/>
           <InterpolatingParam id="758" interp="linr"  time="0/1" value="0" leadInLength="0/1"   name="denoiserThreshold"/>
           <Parameter id="759"   name="noiseProfile">
            <Keyframes>
            <Keyframe id="760"  time="0/1" value="FBAAAAIAAABErAAAAQIAAF2ukcIyR4rCESeawuB+n8IwOprCQUacwmT9qsKWprHCihe0wnoFssLb&#xD;&#xa;3q3Cslqywp7OtcIsUrHChuetwnRKscJPybPCs6+4wvZmusKgdLvCDOXAwl4KwcLsCsDC3pO/wmGv&#xD;&#xa;v8KEm73CJO+9wu0avcJCmrrCZLe9wjeavsIQ77zCtDS+wqERwML07L7CXAW/wioQv8Li9cDCevDD&#xD;&#xa;wkS1wcLbncLCru7DwsyfxMLg+8bCPOHGwok3xMK068XCpZ3Iwl6ox8KB9cbCJ9vEwnlGxcKGXMfC&#xD;&#xa;1JXHwvrYxsIV9cfCDMrHwp25yMKYEsnCTFbHwvBbxsJsicnCgD3LwidvzMLkesjClGfGwhzNxcKC&#xD;&#xa;VsXC/SnHwvaBxcJsecTCosjEwn7tx8Ji2MfCwLbHwgGTycId8MjCGEvJwmOwysJ2MczCAhPNwhiu&#xD;&#xa;zMKC5czC9LDMwtLzycK7xcjC1ZXOwupwz8LDwszCUG3NwtJcy8JuW8vC2wTOwvDMzsKZ883C1r3M&#xD;&#xa;wny2zcIIt8zCJ2bKwkuYzMLjpM7C3NrNwjyzzsL8fdDCRTfQwjwFzsK0787CloLPwqGl0sJkrdLC&#xD;&#xa;LvrPwh4fz8JOAtDC1hDRwsW/z8IiVNDCZlrQwloX0cLeiM/CNvzNwlZCzcIIeczCMtDNwtfUzcLI&#xD;&#xa;287CuJ7PwslPzsKgAdHCH4zRwghsz8KpG87CCtbOwkjRzsKYzszCnEHNwgbCzcIqNdDC23DQwhB3&#xD;&#xa;zsJStdDCuqTPwpavz8IQgNHCHsDSwlSO0cIswdHCbh7SwhS40MJGLNLCzoPPwiidz8JWpdDCQArR&#xD;&#xa;wgyi0MIVjdDCaj3Rwtzx0MJeR9DCh/bOwgK/zcJoAtHCJl3TwnW308IaSNLCNODPwiLmz8KoFtDC&#xD;&#xa;YxbQwq0p0MJhhNHCwFTRwiYh0sJj29LCMlXRwnRh0MK/dNLCaEDVwiJz08K7mNLCHFHUwneI0sK6&#xD;&#xa;yNLCEmrVwkbI1MKKqNTCpB3TwqxV1cK8LtXCviDTwgka0sLO99PCqtLUwprF1cJImNXC6N7Uwp6F&#xD;&#xa;1cI0ktbCAi7WwqEy18K8cdbCihvVwouq08IFm9bCijjWwo4G18Ie4NfCTJDXwvf71sK4fNbC4q7W&#xD;&#xa;wuZ11sKVh9fC/gbZwgPY2sJeutrChpPZwmU128JVN9nCzALawq5Z3MJyp9rCRMvZwnB828JC0dzC&#xD;&#xa;um/bwi6o3ML++dzCJKzbwk222sLYx9rC4bLdwtvu3cJy1tzCV97ZwtJO2cLDf9zCNEPcwodJ28Jp&#xD;&#xa;2drCgC7ZwqLM28Ii89zCmEbbwhIM3cJMFN/ChznewlpT3sK4Ud7CiKPewkRX38K4/d7C8/vewixe&#xD;&#xa;4MI859/CF2/fwhrr38KbkN3CGZvbwrIP3cJ2L97Cvj/ewoW43sKCPN/C8drewgfn3cIvOt7CYKbe&#xD;&#xa;wgT93sJMDt3CmtPdwnhY3sLsNd3CCtLcwk572sIk8drCerDdwmO538JCAd7CDo7ewqzU38LgwN7C&#xD;&#xa;bO7dwpzp3MIIo9zC2J7cwshE3cL3mNzCM0zfwqdP5cJJZfLCOAH6woCY+MKk/ffCXL74wrZ9+cL8&#xD;&#xa;5PjCxF37wngB+cJ8pvjCZrH4wiT+9sIQFvfC1vb4wiZ5+MLYxPjCvun5wqKX+cKebvjCqrH4wu7i&#xD;&#xa;98Ket/bCGmH2wu9T+MKuv/nCfkP4wvp2+cIzSvfC0Qn4wi5V+sIKKfrCiL/4wqq3+MLQxfjChLz4&#xD;&#xa;wgZl98KI3PfC9JT6wvp6+sIRsPfCzBv0wntu9cL4NvbCign3ws52+MKyB/nCXpP4whw+98I+//bC&#xD;&#xa;MaX2wgDb98J8W/rC8Ev5wtha98ICbPjC6Lv4wkLq+MI6ivnCgsz4wp4E+MJrJvjChTL3wr6k+MKS&#xD;&#xa;xPbC2R31wi1f9sKgwfbCyNb2wj9H+MKg3ffCFyn3wrYw98LEwfjCMv35wtpR+cISIPjCjCL3woWD&#xD;&#xa;9cJI6vbCtkP2wtqt98J39vbC4sn1wp1+9sKE/vXCdkX2wuRK98JFdvfCWtv2wjaJ98KgdfnCuKr4&#xD;&#xa;wunm9sLWD/nCskT5wr649sL5u/XCxv/3wg0w98JuOPbCGhT3wvrV9sKqXPfCMvn2wkSl98IM//nC&#xD;&#xa;Xrv5woLK98IayPjCtuH3wrEu98IUM/fC2mH3wqK79sLH6PXCDQD3wgD598I8Y/bCTKj3wuYy+cLE&#xD;&#xa;JfnCbAf6wlLE98Ihe/fCtnj4ws8g+MLcM/jChO73wt5V+sLIefjCsc72wmIU+ML9bffCDB/3wvI4&#xD;&#xa;+cKcG/zCKgz7wjzN9cJuevXCt/72wn4p+MK2hPnCkFv4wvTK98ItJffC7Dj4whjX+8Im5vvCvnr6&#xD;&#xa;wqTy+cKOYvrCEGT5wuKr98I48/fClDn4wt7w98LCDfnCSWn4wkgv+MJuIPrCKnj6wruo98JELPfC&#xD;&#xa;Wqz3wh5Y+cIWP/vCHvf6wlDE+cKcrPfCFsX5wv6y+cKzYfbCdhb3wmhN9cJE7PTCqTz4wg7y+sLs&#xD;&#xa;m/rCZsz5wrJN+MLCTvbCEs/1wu8698JWX/jCzjj4wqXV98KBoPbCYJ73woya+cKSffjC0rj3wm8N&#xD;&#xa;+MIssvjCep/4wkhQ+cIcoPnCQo76wtLd+MIwjfnC+mr4wrKA+cLdZ/jCP/72whSN+MJkgffCGfD3&#xD;&#xa;wrZL+cKYvvnCxuj3wja0+MJ8UPnChAT7wuDE+MKpPfjCQKT6wjQa+cKsS/nC/l33whKQ9sK2mfjC&#xD;&#xa;AgL6wjwI+8IObvrCd0AEw1WukcIqSIrCMieawrOGn8IkO5rCKkicwgb0qsJCoLHC7im0wi0SssLk&#xD;&#xa;5K3CnnqywpX3tcJeVbHCdNqtwvlrscJm9rPC0964wngkusIhMrvCm3XAwjrXwMKT+L/C5HK/wgZe&#xD;&#xa;v8IInr3CKiS+whxwvcKNuLrCpum9woDYvsJPlr3CEMG+wtEqwMJY0b7Cqyq/wiRlv8IkGsHCu1bD&#xD;&#xa;whJJwcKXicLCVODDwoLjxMKX9MbCItvGwisLxMJ0pcXClvHIwtrex8Lz+sbCCWTFwtilxcJ1RsfC&#xD;&#xa;+MnHwjhmx8JiK8jCwzTIwrUkycLob8nCnUbHwsITx8KpqcnCStfKwgCQzMLF68jCwbvGwnTzxcK2&#xD;&#xa;k8XCg+PGwvx/xML/88PCBEHEwjrEx8JcpMfCqtnHwmnkycLCg8nCkqzJwsmiysKIssvClgvNwg+d&#xD;&#xa;zMICtMzCLF/MwooMysJszsjCMm/OwoSJz8ISMMzC6LDMwo71ysJmVczCfb/PwvJp0ML6Hs/C0U/N&#xD;&#xa;wu41zcL+/8vCtpHKwnvNzcLVEtDCzKrOwgYAzsLMbM/CVBfQwuwdz8Lzw9DCAMXQwpxI1MKKS9PC&#xD;&#xa;5q7QwnYoz8IsQNDCPETRwhA60MLS9NDCyNLQwmjx0MIeaM/CCNTOwk8gzsIW1MzCHMLNwpjZzcLg&#xD;&#xa;1s/CpaLPwoLKzcKOWtHCvGnRwjzSzsJy783C1A/Pwt/Vz8ILO83CFiHNwtEKzsJXt9DCFF7QwgNt&#xD;&#xa;zsKOKNHCau7PwmX9zsJbudDCsIrRwkXn0MKck9LChHnTwuFa0cKf19HCjV7Pwt+fz8ICyc/CXOXP&#xD;&#xa;wuW6z8KhstDCL/zRwmxoz8IWTM/CkznPwvuFzsKD9dDCIJjSwiBg0sJuodDCQMrPwtdT0MIqss/C&#xD;&#xa;nqTPwnrGzsLCDtHCye3RwoR308I8+9PCvQ7RwvH8z8KmI9LCrlLVwn6w08KmqdLCxYfUwiGE08Ii&#xD;&#xa;u9LCejbUwpgn1MJMotXCv9TTwip61MKKl9TCWmfTwub/0sKkhdTC0iHVwrBu1sIsZtXCDtrUwtzR&#xD;&#xa;1cITsNbCwpDWwhPJ18LWKNfCQy7VwkLV08IuS9bC8IrVwtjX1sLGHNjCUtfYwkhq18I7lNbCek3W&#xD;&#xa;wjz31sK1E9jCTNrYwo762cLkytnCeMLZwg8J2sLwrtjC8zfZwhs02sL6z9nCslnZwhHn2sLCRdzC&#xD;&#xa;Av3awhOA3MKYmN7CgKHdwpIV28Jii9rCMuzcwoQn3cImvdvC1pLZwmC/2cKSAN3Cx9vcwmgh3MJY&#xD;&#xa;d9vCPPbZwkBQ3MKBJd3CIi7bwnY33MIzvN7Cl/Xewujk38JPOt/C1V/ewlIx3sL8qt7CJrnewpoD&#xD;&#xa;4MJXUuDC8NfewkqX3sK67NzChbLawvbX28Llht3CuNXdwkyX3sIoc97CCpfdwhIr3cLh7d3CjWre&#xD;&#xa;wvIR38Jm4N3CEJHdwinX3sK4XN3C3OTcwhVu28J989vCVlfewppC4MJKCN7CEInewqh238KC0N7C&#xD;&#xa;BMLdwmx03cLJ9dzCA6HcwpRQ3cKojd3CJjjfwkak48LnkO/CwIn4wpKW+MLgG/jCLBD4wjIq+cL6&#xD;&#xa;8ffCRJb2wlxC98KXXPfCrLz0wpT+9cL3bvfCusf2wlh798IQy/bCWu/2wsrF98K0SvjCSj77wpAR&#xD;&#xa;+8L4V/vCtAz7whil+cKlBPfCwNT1wgIx98IE1/jCksf6wgrm+MIQjfjCKlX4wrrT+MKy0PjCktL5&#xD;&#xa;wvKZ+sICkvrCMIf4wqDF9sJIefjCMuL5wl4B+MLpB/jCNvL5wnTL+8J+APvC4cP1wsbQ9MLO3ffC&#xD;&#xa;2HL4wgDB+MIKw/nCMmz3wqTI9sI+ifrCfl/6wjjU98K/zfbC/hr1wuXw9cLoVPbC0hr2wi7r9sJc&#xD;&#xa;6vjC6nf4wg9X98J6yPrCYAr5wox89sIM7fXCzND2wo5w98JTAvjCuEX3wjR4+MI6XvvCYGX7wizB&#xD;&#xa;+MIskvXCtjr2whXD98KZ9PfCjTz4wrbV+cLQiPjCcJb3wvZR+MJKcfnCZE34wot99cIU1/XCAl/2&#xD;&#xa;whDF9cI6H/bCanv4wjjL+MJtTvjC2tP3wt/298Lu3PXC8vb2wnAn98IvvfbCArL2wizn+MKGEPnC&#xD;&#xa;Zgz6whic+sLKjfjCyOv1wvCE9sIe3vnCJrf8woah+8L4D/nCW1j4wgQy+MKEj/jCukX6wkpf+8J0&#xD;&#xa;wfnCfo34wsif+cI0YPnClDH3wtwT+cJWnfrC2Kz3wgEh+MIwHvbCVkH2wtOL9sJa7fjCXOX3wpKd&#xD;&#xa;98L2TPfCCEj1wpKs98L7n/fCqvT2wvBV98LeyvfCAMD4wrXV98JmDvfCVPD2wrB29sLm0vbCSE75&#xD;&#xa;wke/9sJs8PXCh5f3wgbt+cKSZvvCajT6wuTi+ML0hPbCZqr2wrb8+MJm3/nCoIL6wo49+cLuhPjC&#xD;&#xa;qpP2wsjK9sLQafjCNAb5wo0598JN0PbCaFr3wg6R9sKExffC9gL5wi7x98JlxfbCJjD5wsh5+MIY&#xD;&#xa;k/jCsu35wrrh+cLkEPnCajH3wizp9sI7N/fCi8j2wgh0+MJR8/fCIHL2wpyF+cJSUvnC/FH4wrC2&#xD;&#xa;+cKeaffChjv4wqhK+cJWZvjCg7P3wmDB98KqCPjCCvf4wixW+cKWGfjCYE33wjx0+ML4mPfC6GP4&#xD;&#xa;wsp+98JAqffC8vz2wtnP9sJGpffCj072wgCH98LgMvnCuhH6wrTl+sLM/vnCSpr3wvB198J2/fjC&#xD;&#xa;rGH6wjLG+cKaLPvCbrAE" leadInLength="0/1"  />
            </Keyframes>
           </Parameter>
           </Parameters>
           <MetaData>
            <entry key="effectIndex" val="2"/>
           </MetaData>
          </GenericEffect>
         </Effects>
         <Attributes>
          <Attribute id="761" value="" name="ident"/>
          <Attribute id="762" value="0" name="mixToMono"/>
         </Attributes>
         <MetaData>
          <entry key="AutoAppliedSmartFocus" val="False"/>
          <entry key="WinSubProjectDisplayName" val=""/>
         </MetaData>
         <ExtraData>
          <Entry key="ZoomPanBin">
           <ZoomPanBin id="763"  >
            <ZoomPanKeyframes>
             <ZoomPanKeyframe id="764" timeRangeEnd="-9999999/1" timeRangeDuration="0/1" interpolaterName="linr"  />
            </ZoomPanKeyframes>
           </ZoomPanBin>
          </Entry>
          <Entry key="CursorEffectBin">
           <CursorEffectBin id="765"  >
            <CursorEffectKeyframes>
             <CursorEffectKeyframe id="766" timeRangeEnd="-9999999/1" timeRangeDuration="0/1" interpolaterName=""  />
            </CursorEffectKeyframes>
           </CursorEffectBin>
          </Entry>
         </ExtraData>
         <GenericTrack id="767"  >
          <Attributes>
           <Attribute id="768" value="" name="ident"/>
           <Attribute id="769" value="0" name="audioMuted"/>
           <Attribute id="770" value="0" name="videoHidden"/>
          </Attributes>
          <MetaData>
           <entry key="IsLocked" val="False"/>
           <entry key="WinTrackHeight" val="0"/>
          </MetaData>
          <Medias>
           <UnifiedMedia id="771"  >
            <AMFile id="772" start="0" duration="214" scalar="1/1" mediaStart="0/1" mediaDuration="214/1" trackNumber="1" src="4" channelNumber="0,1" >
             <Parameters>
              <InterpolatingParam id="773" interp="linr"  time="0/1" value="1" leadInLength="0/1"  name="volume"/>
              <Parameter id="774"  name="captions"/>
             </Parameters>
             <Attributes>
              <Attribute id="775" value="" name="ident"/>
              <Attribute id="776" value="44100" name="sampleRate"/>
              <Attribute id="777" value="16" name="bitDepth"/>
              <Attribute id="778" value="1" name="gain"/>
              <Attribute id="779" value="0" name="mixToMono"/>
             </Attributes>
            </AMFile>
            <ScreenVMFile id="780" start="0" duration="214" scalar="1/1" mediaStart="0/1" mediaDuration="214/1" trackNumber="0" src="4" >
             <Transformer>
              <VectorParam id="781"  name="translation">
               <InterpolatingParam id="782" interp="linr"  time="-9999999/1" value="0" leadInLength="0/1"  />
               <InterpolatingParam id="783" interp="linr"  time="-9999999/1" value="0" leadInLength="0/1"  />
               <InterpolatingParam id="784" interp="linr"  time="-9999999/1" value="0" leadInLength="0/1"  />
              </VectorParam>
              <VectorParam id="785"  name="rotation">
               <InterpolatingParam id="786" interp="linr"  time="-9999999/1" value="0" leadInLength="0/1"  />
               <InterpolatingParam id="787" interp="linr"  time="-9999999/1" value="0" leadInLength="0/1"  />
               <InterpolatingParam id="788" interp="linr"  time="-9999999/1" value="0" leadInLength="0/1"  />
              </VectorParam>
              <VectorParam id="789"  name="shear">
               <InterpolatingParam id="790" interp="linr"  time="-9999999/1" value="0" leadInLength="0/1"  />
               <InterpolatingParam id="791" interp="linr"  time="-9999999/1" value="0" leadInLength="0/1"  />
               <InterpolatingParam id="792" interp="linr"  time="-9999999/1" value="0" leadInLength="0/1"  />
              </VectorParam>
              <VectorParam id="793"  name="scale">
               <InterpolatingParam id="794" interp="linr"  time="-9999999/1" value="1" leadInLength="0/1"  />
               <InterpolatingParam id="795" interp="linr"  time="-9999999/1" value="1" leadInLength="0/1"  />
               <InterpolatingParam id="796" interp="linr"  time="-9999999/1" value="1" leadInLength="0/1"  />
              </VectorParam>
              <VectorParam id="797"  name="anchor">
               <InterpolatingParam id="798" interp="linr"  time="0/1" value="0" leadInLength="0/1"  />
               <InterpolatingParam id="799" interp="linr"  time="0/1" value="0" leadInLength="0/1"  />
               <InterpolatingParam id="800" interp="linr"  time="0/1" value="0" leadInLength="0/1"  />
              </VectorParam>
             </Transformer>
             <Parameters>
              <VectorParam id="801"  name="sourceCrop">
               <InterpolatingParam id="802" interp="linr"  time="0/1" value="0" leadInLength="0/1"  />
               <InterpolatingParam id="803" interp="linr"  time="0/1" value="0" leadInLength="0/1"  />
               <InterpolatingParam id="804" interp="linr"  time="0/1" value="0" leadInLength="0/1"  />
               <InterpolatingParam id="805" interp="linr"  time="0/1" value="0" leadInLength="0/1"  />
              </VectorParam>
              <VectorParam id="806"  name="geometryCrop">
               <InterpolatingParam id="807" interp="linr"  time="-9999999/1" value="0" leadInLength="0/1"  />
               <InterpolatingParam id="808" interp="linr"  time="-9999999/1" value="0" leadInLength="0/1"  />
               <InterpolatingParam id="809" interp="linr"  time="-9999999/1" value="0" leadInLength="0/1"  />
               <InterpolatingParam id="810" interp="linr"  time="-9999999/1" value="0" leadInLength="0/1"  />
              </VectorParam>
              <InterpolatingParam id="811" interp="linr"  time="-9999999/1" value="1" leadInLength="0/1"  name="opacity"/>
              <InterpolatingParam id="812" interp="linr"  time="0/1" value="0" leadInLength="0/1"  name="cursorOpacity"/>
              <InterpolatingParam id="813" interp="linr"  time="0/1" value="0" leadInLength="0/1"  name="cursorScale"/>
             </Parameters>
             <Attributes>
              <Attribute id="814" value="" name="ident"/>
             </Attributes>
             <ExtraData>
              <Entry key="ZoomPanBin">
               <ZoomPanBin id="815"  >
                <ZoomPanKeyframes>
                 <ZoomPanKeyframe id="816" timeRangeEnd="-9999999/1" timeRangeDuration="0/1" interpolaterName=""  />
                </ZoomPanKeyframes>
               </ZoomPanBin>
              </Entry>
              <Entry key="CursorEffectBin">
               <CursorEffectBin id="817"  >
                <CursorEffectKeyframes>
                </CursorEffectKeyframes>
               </CursorEffectBin>
              </Entry>
             </ExtraData>
            </ScreenVMFile>
            <MetaData>
             <entry key="AutoAppliedSmartFocus" val="False"/>
             <entry key="WinSubProjectDisplayName" val=""/>
            </MetaData>
           </UnifiedMedia>
           <UnifiedMedia id="818"  >
            <AMFile id="819" start="214" duration="51" scalar="1/1" mediaStart="554/1" mediaDuration="51/1" trackNumber="1" src="4" channelNumber="0,1" >
             <Parameters>
              <InterpolatingParam id="820" interp="linr"  time="0/1" value="1" leadInLength="0/1"  name="volume"/>
              <Parameter id="821"  name="captions"/>
             </Parameters>
             <Attributes>
              <Attribute id="822" value="" name="ident"/>
              <Attribute id="823" value="44100" name="sampleRate"/>
              <Attribute id="824" value="16" name="bitDepth"/>
              <Attribute id="825" value="1" name="gain"/>
              <Attribute id="826" value="0" name="mixToMono"/>
             </Attributes>
            </AMFile>
            <ScreenVMFile id="827" start="214" duration="51" scalar="1/1" mediaStart="554/1" mediaDuration="51/1" trackNumber="0" src="4" >
             <Transformer>
              <VectorParam id="828"  name="translation">
               <InterpolatingParam id="829" interp="linr"  time="-9999999/1" value="0" leadInLength="0/1"  />
               <InterpolatingParam id="830" interp="linr"  time="-9999999/1" value="0" leadInLength="0/1"  />
               <InterpolatingParam id="831" interp="linr"  time="-9999999/1" value="0" leadInLength="0/1"  />
              </VectorParam>
              <VectorParam id="832"  name="rotation">
               <InterpolatingParam id="833" interp="linr"  time="-9999999/1" value="0" leadInLength="0/1"  />
               <InterpolatingParam id="834" interp="linr"  time="-9999999/1" value="0" leadInLength="0/1"  />
               <InterpolatingParam id="835" interp="linr"  time="-9999999/1" value="0" leadInLength="0/1"  />
              </VectorParam>
              <VectorParam id="836"  name="shear">
               <InterpolatingParam id="837" interp="linr"  time="-9999999/1" value="0" leadInLength="0/1"  />
               <InterpolatingParam id="838" interp="linr"  time="-9999999/1" value="0" leadInLength="0/1"  />
               <InterpolatingParam id="839" interp="linr"  time="-9999999/1" value="0" leadInLength="0/1"  />
              </VectorParam>
              <VectorParam id="840"  name="scale">
               <InterpolatingParam id="841" interp="linr"  time="-9999999/1" value="1" leadInLength="0/1"  />
               <InterpolatingParam id="842" interp="linr"  time="-9999999/1" value="1" leadInLength="0/1"  />
               <InterpolatingParam id="843" interp="linr"  time="-9999999/1" value="1" leadInLength="0/1"  />
              </VectorParam>
              <VectorParam id="844"  name="anchor">
               <InterpolatingParam id="845" interp="linr"  time="0/1" value="0" leadInLength="0/1"  />
               <InterpolatingParam id="846" interp="linr"  time="0/1" value="0" leadInLength="0/1"  />
               <InterpolatingParam id="847" interp="linr"  time="0/1" value="0" leadInLength="0/1"  />
              </VectorParam>
             </Transformer>
             <Parameters>
              <VectorParam id="848"  name="sourceCrop">
               <InterpolatingParam id="849" interp="linr"  time="0/1" value="0" leadInLength="0/1"  />
               <InterpolatingParam id="850" interp="linr"  time="0/1" value="0" leadInLength="0/1"  />
               <InterpolatingParam id="851" interp="linr"  time="0/1" value="0" leadInLength="0/1"  />
               <InterpolatingParam id="852" interp="linr"  time="0/1" value="0" leadInLength="0/1"  />
              </VectorParam>
              <VectorParam id="853"  name="geometryCrop">
               <InterpolatingParam id="854" interp="linr"  time="-9999999/1" value="0" leadInLength="0/1"  />
               <InterpolatingParam id="855" interp="linr"  time="-9999999/1" value="0" leadInLength="0/1"  />
               <InterpolatingParam id="856" interp="linr"  time="-9999999/1" value="0" leadInLength="0/1"  />
               <InterpolatingParam id="857" interp="linr"  time="-9999999/1" value="0" leadInLength="0/1"  />
              </VectorParam>
              <InterpolatingParam id="858" interp="linr"  time="-9999999/1" value="1" leadInLength="0/1"  name="opacity"/>
              <InterpolatingParam id="859" interp="linr"  time="0/1" value="0" leadInLength="0/1"  name="cursorOpacity"/>
              <InterpolatingParam id="860" interp="linr"  time="0/1" value="0" leadInLength="0/1"  name="cursorScale"/>
             </Parameters>
             <Attributes>
              <Attribute id="861" value="" name="ident"/>
             </Attributes>
             <ExtraData>
              <Entry key="ZoomPanBin">
               <ZoomPanBin id="862"  >
                <ZoomPanKeyframes>
                 <ZoomPanKeyframe id="863" timeRangeEnd="-9999999/1" timeRangeDuration="0/1" interpolaterName=""  />
                </ZoomPanKeyframes>
               </ZoomPanBin>
              </Entry>
              <Entry key="CursorEffectBin">
               <CursorEffectBin id="864"  >
                <CursorEffectKeyframes>
                </CursorEffectKeyframes>
               </CursorEffectBin>
              </Entry>
             </ExtraData>
            </ScreenVMFile>
            <MetaData>
             <entry key="AutoAppliedSmartFocus" val="False"/>
             <entry key="WinSubProjectDisplayName" val=""/>
            </MetaData>
           </UnifiedMedia>
           <UnifiedMedia id="865"  >
            <AMFile id="866" start="265" duration="11" scalar="1/1" mediaStart="613/1" mediaDuration="11/1" trackNumber="1" src="4" channelNumber="0,1" >
             <Parameters>
              <InterpolatingParam id="867" interp="linr"  time="0/1" value="1" leadInLength="0/1"  name="volume"/>
              <Parameter id="868"  name="captions"/>
             </Parameters>
             <Attributes>
              <Attribute id="869" value="" name="ident"/>
              <Attribute id="870" value="44100" name="sampleRate"/>
              <Attribute id="871" value="16" name="bitDepth"/>
              <Attribute id="872" value="1" name="gain"/>
              <Attribute id="873" value="0" name="mixToMono"/>
             </Attributes>
            </AMFile>
            <ScreenVMFile id="874" start="265" duration="11" scalar="1/1" mediaStart="613/1" mediaDuration="11/1" trackNumber="0" src="4" >
             <Transformer>
              <VectorParam id="875"  name="translation">
               <InterpolatingParam id="876" interp="linr"  time="-9999999/1" value="0" leadInLength="0/1"  />
               <InterpolatingParam id="877" interp="linr"  time="-9999999/1" value="0" leadInLength="0/1"  />
               <InterpolatingParam id="878" interp="linr"  time="-9999999/1" value="0" leadInLength="0/1"  />
              </VectorParam>
              <VectorParam id="879"  name="rotation">
               <InterpolatingParam id="880" interp="linr"  time="-9999999/1" value="0" leadInLength="0/1"  />
               <InterpolatingParam id="881" interp="linr"  time="-9999999/1" value="0" leadInLength="0/1"  />
               <InterpolatingParam id="882" interp="linr"  time="-9999999/1" value="0" leadInLength="0/1"  />
              </VectorParam>
              <VectorParam id="883"  name="shear">
               <InterpolatingParam id="884" interp="linr"  time="-9999999/1" value="0" leadInLength="0/1"  />
               <InterpolatingParam id="885" interp="linr"  time="-9999999/1" value="0" leadInLength="0/1"  />
               <InterpolatingParam id="886" interp="linr"  time="-9999999/1" value="0" leadInLength="0/1"  />
              </VectorParam>
              <VectorParam id="887"  name="scale">
               <InterpolatingParam id="888" interp="linr"  time="-9999999/1" value="1" leadInLength="0/1"  />
               <InterpolatingParam id="889" interp="linr"  time="-9999999/1" value="1" leadInLength="0/1"  />
               <InterpolatingParam id="890" interp="linr"  time="-9999999/1" value="1" leadInLength="0/1"  />
              </VectorParam>
              <VectorParam id="891"  name="anchor">
               <InterpolatingParam id="892" interp="linr"  time="0/1" value="0" leadInLength="0/1"  />
               <InterpolatingParam id="893" interp="linr"  time="0/1" value="0" leadInLength="0/1"  />
               <InterpolatingParam id="894" interp="linr"  time="0/1" value="0" leadInLength="0/1"  />
              </VectorParam>
             </Transformer>
             <Parameters>
              <VectorParam id="895"  name="sourceCrop">
               <InterpolatingParam id="896" interp="linr"  time="0/1" value="0" leadInLength="0/1"  />
               <InterpolatingParam id="897" interp="linr"  time="0/1" value="0" leadInLength="0/1"  />
               <InterpolatingParam id="898" interp="linr"  time="0/1" value="0" leadInLength="0/1"  />
               <InterpolatingParam id="899" interp="linr"  time="0/1" value="0" leadInLength="0/1"  />
              </VectorParam>
              <VectorParam id="900"  name="geometryCrop">
               <InterpolatingParam id="901" interp="linr"  time="-9999999/1" value="0" leadInLength="0/1"  />
               <InterpolatingParam id="902" interp="linr"  time="-9999999/1" value="0" leadInLength="0/1"  />
               <InterpolatingParam id="903" interp="linr"  time="-9999999/1" value="0" leadInLength="0/1"  />
               <InterpolatingParam id="904" interp="linr"  time="-9999999/1" value="0" leadInLength="0/1"  />
              </VectorParam>
              <InterpolatingParam id="905" interp="linr"  time="-9999999/1" value="1" leadInLength="0/1"  name="opacity"/>
              <InterpolatingParam id="906" interp="linr"  time="0/1" value="0" leadInLength="0/1"  name="cursorOpacity"/>
              <InterpolatingParam id="907" interp="linr"  time="0/1" value="0" leadInLength="0/1"  name="cursorScale"/>
             </Parameters>
             <Attributes>
              <Attribute id="908" value="" name="ident"/>
             </Attributes>
             <ExtraData>
              <Entry key="ZoomPanBin">
               <ZoomPanBin id="909"  >
                <ZoomPanKeyframes>
                 <ZoomPanKeyframe id="910" timeRangeEnd="-9999999/1" timeRangeDuration="0/1" interpolaterName=""  />
                </ZoomPanKeyframes>
               </ZoomPanBin>
              </Entry>
              <Entry key="CursorEffectBin">
               <CursorEffectBin id="911"  >
                <CursorEffectKeyframes>
                </CursorEffectKeyframes>
               </CursorEffectBin>
              </Entry>
             </ExtraData>
            </ScreenVMFile>
            <MetaData>
             <entry key="AutoAppliedSmartFocus" val="False"/>
             <entry key="WinSubProjectDisplayName" val=""/>
            </MetaData>
           </UnifiedMedia>
           <UnifiedMedia id="912"  >
            <AMFile id="913" start="276" duration="159" scalar="1/1" mediaStart="631/1" mediaDuration="159/1" trackNumber="1" src="4" channelNumber="0,1" >
             <Parameters>
              <InterpolatingParam id="914" interp="linr"  time="0/1" value="1" leadInLength="0/1"  name="volume"/>
              <Parameter id="915"  name="captions"/>
             </Parameters>
             <Attributes>
              <Attribute id="916" value="" name="ident"/>
              <Attribute id="917" value="44100" name="sampleRate"/>
              <Attribute id="918" value="16" name="bitDepth"/>
              <Attribute id="919" value="1" name="gain"/>
              <Attribute id="920" value="0" name="mixToMono"/>
             </Attributes>
            </AMFile>
            <ScreenVMFile id="921" start="276" duration="159" scalar="1/1" mediaStart="631/1" mediaDuration="159/1" trackNumber="0" src="4" >
             <Transformer>
              <VectorParam id="922"  name="translation">
               <InterpolatingParam id="923" interp="linr"  time="-9999999/1" value="0" leadInLength="0/1"  />
               <InterpolatingParam id="924" interp="linr"  time="-9999999/1" value="0" leadInLength="0/1"  />
               <InterpolatingParam id="925" interp="linr"  time="-9999999/1" value="0" leadInLength="0/1"  />
              </VectorParam>
              <VectorParam id="926"  name="rotation">
               <InterpolatingParam id="927" interp="linr"  time="-9999999/1" value="0" leadInLength="0/1"  />
               <InterpolatingParam id="928" interp="linr"  time="-9999999/1" value="0" leadInLength="0/1"  />
               <InterpolatingParam id="929" interp="linr"  time="-9999999/1" value="0" leadInLength="0/1"  />
              </VectorParam>
              <VectorParam id="930"  name="shear">
               <InterpolatingParam id="931" interp="linr"  time="-9999999/1" value="0" leadInLength="0/1"  />
               <InterpolatingParam id="932" interp="linr"  time="-9999999/1" value="0" leadInLength="0/1"  />
               <InterpolatingParam id="933" interp="linr"  time="-9999999/1" value="0" leadInLength="0/1"  />
              </VectorParam>
              <VectorParam id="934"  name="scale">
               <InterpolatingParam id="935" interp="linr"  time="-9999999/1" value="1" leadInLength="0/1"  />
               <InterpolatingParam id="936" interp="linr"  time="-9999999/1" value="1" leadInLength="0/1"  />
               <InterpolatingParam id="937" interp="linr"  time="-9999999/1" value="1" leadInLength="0/1"  />
              </VectorParam>
              <VectorParam id="938"  name="anchor">
               <InterpolatingParam id="939" interp="linr"  time="0/1" value="0" leadInLength="0/1"  />
               <InterpolatingParam id="940" interp="linr"  time="0/1" value="0" leadInLength="0/1"  />
               <InterpolatingParam id="941" interp="linr"  time="0/1" value="0" leadInLength="0/1"  />
              </VectorParam>
             </Transformer>
             <Parameters>
              <VectorParam id="942"  name="sourceCrop">
               <InterpolatingParam id="943" interp="linr"  time="0/1" value="0" leadInLength="0/1"  />
               <InterpolatingParam id="944" interp="linr"  time="0/1" value="0" leadInLength="0/1"  />
               <InterpolatingParam id="945" interp="linr"  time="0/1" value="0" leadInLength="0/1"  />
               <InterpolatingParam id="946" interp="linr"  time="0/1" value="0" leadInLength="0/1"  />
              </VectorParam>
              <VectorParam id="947"  name="geometryCrop">
               <InterpolatingParam id="948" interp="linr"  time="-9999999/1" value="0" leadInLength="0/1"  />
               <InterpolatingParam id="949" interp="linr"  time="-9999999/1" value="0" leadInLength="0/1"  />
               <InterpolatingParam id="950" interp="linr"  time="-9999999/1" value="0" leadInLength="0/1"  />
               <InterpolatingParam id="951" interp="linr"  time="-9999999/1" value="0" leadInLength="0/1"  />
              </VectorParam>
              <InterpolatingParam id="952" interp="linr"  time="-9999999/1" value="1" leadInLength="0/1"  name="opacity"/>
              <InterpolatingParam id="953" interp="linr"  time="0/1" value="0" leadInLength="0/1"  name="cursorOpacity"/>
              <InterpolatingParam id="954" interp="linr"  time="0/1" value="0" leadInLength="0/1"  name="cursorScale"/>
             </Parameters>
             <Attributes>
              <Attribute id="955" value="" name="ident"/>
             </Attributes>
             <ExtraData>
              <Entry key="ZoomPanBin">
               <ZoomPanBin id="956"  >
                <ZoomPanKeyframes>
                 <ZoomPanKeyframe id="957" timeRangeEnd="-9999999/1" timeRangeDuration="0/1" interpolaterName=""  />
                </ZoomPanKeyframes>
               </ZoomPanBin>
              </Entry>
              <Entry key="CursorEffectBin">
               <CursorEffectBin id="958"  >
                <CursorEffectKeyframes>
                </CursorEffectKeyframes>
               </CursorEffectBin>
              </Entry>
             </ExtraData>
            </ScreenVMFile>
            <MetaData>
             <entry key="AutoAppliedSmartFocus" val="False"/>
             <entry key="WinSubProjectDisplayName" val=""/>
            </MetaData>
           </UnifiedMedia>
           <UnifiedMedia id="959"  >
            <AMFile id="960" start="435" duration="66" scalar="1/1" mediaStart="797/1" mediaDuration="66/1" trackNumber="1" src="4" channelNumber="0,1" >
             <Parameters>
              <InterpolatingParam id="961" interp="linr"  time="0/1" value="1" leadInLength="0/1"  name="volume"/>
              <Parameter id="962"  name="captions"/>
             </Parameters>
             <Attributes>
              <Attribute id="963" value="" name="ident"/>
              <Attribute id="964" value="44100" name="sampleRate"/>
              <Attribute id="965" value="16" name="bitDepth"/>
              <Attribute id="966" value="1" name="gain"/>
              <Attribute id="967" value="0" name="mixToMono"/>
             </Attributes>
            </AMFile>
            <ScreenVMFile id="968" start="435" duration="66" scalar="1/1" mediaStart="797/1" mediaDuration="66/1" trackNumber="0" src="4" >
             <Transformer>
              <VectorParam id="969"  name="translation">
               <InterpolatingParam id="970" interp="linr"  time="-9999999/1" value="0" leadInLength="0/1"  />
               <InterpolatingParam id="971" interp="linr"  time="-9999999/1" value="0" leadInLength="0/1"  />
               <InterpolatingParam id="972" interp="linr"  time="-9999999/1" value="0" leadInLength="0/1"  />
              </VectorParam>
              <VectorParam id="973"  name="rotation">
               <InterpolatingParam id="974" interp="linr"  time="-9999999/1" value="0" leadInLength="0/1"  />
               <InterpolatingParam id="975" interp="linr"  time="-9999999/1" value="0" leadInLength="0/1"  />
               <InterpolatingParam id="976" interp="linr"  time="-9999999/1" value="0" leadInLength="0/1"  />
              </VectorParam>
              <VectorParam id="977"  name="shear">
               <InterpolatingParam id="978" interp="linr"  time="-9999999/1" value="0" leadInLength="0/1"  />
               <InterpolatingParam id="979" interp="linr"  time="-9999999/1" value="0" leadInLength="0/1"  />
               <InterpolatingParam id="980" interp="linr"  time="-9999999/1" value="0" leadInLength="0/1"  />
              </VectorParam>
              <VectorParam id="981"  name="scale">
               <InterpolatingParam id="982" interp="linr"  time="-9999999/1" value="1" leadInLength="0/1"  />
               <InterpolatingParam id="983" interp="linr"  time="-9999999/1" value="1" leadInLength="0/1"  />
               <InterpolatingParam id="984" interp="linr"  time="-9999999/1" value="1" leadInLength="0/1"  />
              </VectorParam>
              <VectorParam id="985"  name="anchor">
               <InterpolatingParam id="986" interp="linr"  time="0/1" value="0" leadInLength="0/1"  />
               <InterpolatingParam id="987" interp="linr"  time="0/1" value="0" leadInLength="0/1"  />
               <InterpolatingParam id="988" interp="linr"  time="0/1" value="0" leadInLength="0/1"  />
              </VectorParam>
             </Transformer>
             <Parameters>
              <VectorParam id="989"  name="sourceCrop">
               <InterpolatingParam id="990" interp="linr"  time="0/1" value="0" leadInLength="0/1"  />
               <InterpolatingParam id="991" interp="linr"  time="0/1" value="0" leadInLength="0/1"  />
               <InterpolatingParam id="992" interp="linr"  time="0/1" value="0" leadInLength="0/1"  />
               <InterpolatingParam id="993" interp="linr"  time="0/1" value="0" leadInLength="0/1"  />
              </VectorParam>
              <VectorParam id="994"  name="geometryCrop">
               <InterpolatingParam id="995" interp="linr"  time="-9999999/1" value="0" leadInLength="0/1"  />
               <InterpolatingParam id="996" interp="linr"  time="-9999999/1" value="0" leadInLength="0/1"  />
               <InterpolatingParam id="997" interp="linr"  time="-9999999/1" value="0" leadInLength="0/1"  />
               <InterpolatingParam id="998" interp="linr"  time="-9999999/1" value="0" leadInLength="0/1"  />
              </VectorParam>
              <InterpolatingParam id="999" interp="linr"  time="-9999999/1" value="1" leadInLength="0/1"  name="opacity"/>
              <InterpolatingParam id="1000" interp="linr"  time="0/1" value="0" leadInLength="0/1"  name="cursorOpacity"/>
              <InterpolatingParam id="1001" interp="linr"  time="0/1" value="0" leadInLength="0/1"  name="cursorScale"/>
             </Parameters>
             <Attributes>
              <Attribute id="1002" value="" name="ident"/>
             </Attributes>
             <ExtraData>
              <Entry key="ZoomPanBin">
               <ZoomPanBin id="1003"  >
                <ZoomPanKeyframes>
                 <ZoomPanKeyframe id="1004" timeRangeEnd="-9999999/1" timeRangeDuration="0/1" interpolaterName=""  />
                </ZoomPanKeyframes>
               </ZoomPanBin>
              </Entry>
              <Entry key="CursorEffectBin">
               <CursorEffectBin id="1005"  >
                <CursorEffectKeyframes>
                </CursorEffectKeyframes>
               </CursorEffectBin>
              </Entry>
             </ExtraData>
            </ScreenVMFile>
            <MetaData>
             <entry key="AutoAppliedSmartFocus" val="False"/>
             <entry key="WinSubProjectDisplayName" val=""/>
            </MetaData>
           </UnifiedMedia>
           <UnifiedMedia id="1006"  >
            <AMFile id="1007" start="501" duration="138" scalar="1/1" mediaStart="1214/1" mediaDuration="138/1" trackNumber="1" src="4" channelNumber="0,1" >
             <Parameters>
              <InterpolatingParam id="1008" interp="linr"  time="0/1" value="1" leadInLength="0/1"  name="volume"/>
              <Parameter id="1009"  name="captions"/>
             </Parameters>
             <Attributes>
              <Attribute id="1010" value="" name="ident"/>
              <Attribute id="1011" value="44100" name="sampleRate"/>
              <Attribute id="1012" value="16" name="bitDepth"/>
              <Attribute id="1013" value="1" name="gain"/>
              <Attribute id="1014" value="0" name="mixToMono"/>
             </Attributes>
            </AMFile>
            <ScreenVMFile id="1015" start="501" duration="138" scalar="1/1" mediaStart="1214/1" mediaDuration="138/1" trackNumber="0" src="4" >
             <Transformer>
              <VectorParam id="1016"  name="translation">
               <InterpolatingParam id="1017" interp="linr"  time="-9999999/1" value="0" leadInLength="0/1"  />
               <InterpolatingParam id="1018" interp="linr"  time="-9999999/1" value="0" leadInLength="0/1"  />
               <InterpolatingParam id="1019" interp="linr"  time="-9999999/1" value="0" leadInLength="0/1"  />
              </VectorParam>
              <VectorParam id="1020"  name="rotation">
               <InterpolatingParam id="1021" interp="linr"  time="-9999999/1" value="0" leadInLength="0/1"  />
               <InterpolatingParam id="1022" interp="linr"  time="-9999999/1" value="0" leadInLength="0/1"  />
               <InterpolatingParam id="1023" interp="linr"  time="-9999999/1" value="0" leadInLength="0/1"  />
              </VectorParam>
              <VectorParam id="1024"  name="shear">
               <InterpolatingParam id="1025" interp="linr"  time="-9999999/1" value="0" leadInLength="0/1"  />
               <InterpolatingParam id="1026" interp="linr"  time="-9999999/1" value="0" leadInLength="0/1"  />
               <InterpolatingParam id="1027" interp="linr"  time="-9999999/1" value="0" leadInLength="0/1"  />
              </VectorParam>
              <VectorParam id="1028"  name="scale">
               <InterpolatingParam id="1029" interp="linr"  time="-9999999/1" value="1" leadInLength="0/1"  />
               <InterpolatingParam id="1030" interp="linr"  time="-9999999/1" value="1" leadInLength="0/1"  />
               <InterpolatingParam id="1031" interp="linr"  time="-9999999/1" value="1" leadInLength="0/1"  />
              </VectorParam>
              <VectorParam id="1032"  name="anchor">
               <InterpolatingParam id="1033" interp="linr"  time="0/1" value="0" leadInLength="0/1"  />
               <InterpolatingParam id="1034" interp="linr"  time="0/1" value="0" leadInLength="0/1"  />
               <InterpolatingParam id="1035" interp="linr"  time="0/1" value="0" leadInLength="0/1"  />
              </VectorParam>
             </Transformer>
             <Parameters>
              <VectorParam id="1036"  name="sourceCrop">
               <InterpolatingParam id="1037" interp="linr"  time="0/1" value="0" leadInLength="0/1"  />
               <InterpolatingParam id="1038" interp="linr"  time="0/1" value="0" leadInLength="0/1"  />
               <InterpolatingParam id="1039" interp="linr"  time="0/1" value="0" leadInLength="0/1"  />
               <InterpolatingParam id="1040" interp="linr"  time="0/1" value="0" leadInLength="0/1"  />
              </VectorParam>
              <VectorParam id="1041"  name="geometryCrop">
               <InterpolatingParam id="1042" interp="linr"  time="-9999999/1" value="0" leadInLength="0/1"  />
               <InterpolatingParam id="1043" interp="linr"  time="-9999999/1" value="0" leadInLength="0/1"  />
               <InterpolatingParam id="1044" interp="linr"  time="-9999999/1" value="0" leadInLength="0/1"  />
               <InterpolatingParam id="1045" interp="linr"  time="-9999999/1" value="0" leadInLength="0/1"  />
              </VectorParam>
              <InterpolatingParam id="1046" interp="linr"  time="-9999999/1" value="1" leadInLength="0/1"  name="opacity"/>
              <InterpolatingParam id="1047" interp="linr"  time="0/1" value="0" leadInLength="0/1"  name="cursorOpacity"/>
              <InterpolatingParam id="1048" interp="linr"  time="0/1" value="0" leadInLength="0/1"  name="cursorScale"/>
             </Parameters>
             <Attributes>
              <Attribute id="1049" value="" name="ident"/>
             </Attributes>
             <ExtraData>
              <Entry key="ZoomPanBin">
               <ZoomPanBin id="1050"  >
                <ZoomPanKeyframes>
                 <ZoomPanKeyframe id="1051" timeRangeEnd="-9999999/1" timeRangeDuration="0/1" interpolaterName=""  />
                </ZoomPanKeyframes>
               </ZoomPanBin>
              </Entry>
              <Entry key="CursorEffectBin">
               <CursorEffectBin id="1052"  >
                <CursorEffectKeyframes>
                </CursorEffectKeyframes>
               </CursorEffectBin>
              </Entry>
             </ExtraData>
            </ScreenVMFile>
            <MetaData>
             <entry key="AutoAppliedSmartFocus" val="False"/>
             <entry key="WinSubProjectDisplayName" val=""/>
            </MetaData>
           </UnifiedMedia>
           <UnifiedMedia id="1053"  >
            <AMFile id="1054" start="639" duration="112" scalar="1/1" mediaStart="1362/1" mediaDuration="112/1" trackNumber="1" src="4" channelNumber="0,1" >
             <Parameters>
              <InterpolatingParam id="1055" interp="linr"  time="0/1" value="1" leadInLength="0/1"  name="volume"/>
              <Parameter id="1056"  name="captions"/>
             </Parameters>
             <Attributes>
              <Attribute id="1057" value="" name="ident"/>
              <Attribute id="1058" value="44100" name="sampleRate"/>
              <Attribute id="1059" value="16" name="bitDepth"/>
              <Attribute id="1060" value="1" name="gain"/>
              <Attribute id="1061" value="0" name="mixToMono"/>
             </Attributes>
            </AMFile>
            <ScreenVMFile id="1062" start="639" duration="112" scalar="1/1" mediaStart="1362/1" mediaDuration="112/1" trackNumber="0" src="4" >
             <Transformer>
              <VectorParam id="1063"  name="translation">
               <InterpolatingParam id="1064" interp="linr"  time="-9999999/1" value="0" leadInLength="0/1"  />
               <InterpolatingParam id="1065" interp="linr"  time="-9999999/1" value="0" leadInLength="0/1"  />
               <InterpolatingParam id="1066" interp="linr"  time="-9999999/1" value="0" leadInLength="0/1"  />
              </VectorParam>
              <VectorParam id="1067"  name="rotation">
               <InterpolatingParam id="1068" interp="linr"  time="-9999999/1" value="0" leadInLength="0/1"  />
               <InterpolatingParam id="1069" interp="linr"  time="-9999999/1" value="0" leadInLength="0/1"  />
               <InterpolatingParam id="1070" interp="linr"  time="-9999999/1" value="0" leadInLength="0/1"  />
              </VectorParam>
              <VectorParam id="1071"  name="shear">
               <InterpolatingParam id="1072" interp="linr"  time="-9999999/1" value="0" leadInLength="0/1"  />
               <InterpolatingParam id="1073" interp="linr"  time="-9999999/1" value="0" leadInLength="0/1"  />
               <InterpolatingParam id="1074" interp="linr"  time="-9999999/1" value="0" leadInLength="0/1"  />
              </VectorParam>
              <VectorParam id="1075"  name="scale">
               <InterpolatingParam id="1076" interp="linr"  time="-9999999/1" value="1" leadInLength="0/1"  />
               <InterpolatingParam id="1077" interp="linr"  time="-9999999/1" value="1" leadInLength="0/1"  />
               <InterpolatingParam id="1078" interp="linr"  time="-9999999/1" value="1" leadInLength="0/1"  />
              </VectorParam>
              <VectorParam id="1079"  name="anchor">
               <InterpolatingParam id="1080" interp="linr"  time="0/1" value="0" leadInLength="0/1"  />
               <InterpolatingParam id="1081" interp="linr"  time="0/1" value="0" leadInLength="0/1"  />
               <InterpolatingParam id="1082" interp="linr"  time="0/1" value="0" leadInLength="0/1"  />
              </VectorParam>
             </Transformer>
             <Parameters>
              <VectorParam id="1083"  name="sourceCrop">
               <InterpolatingParam id="1084" interp="linr"  time="0/1" value="0" leadInLength="0/1"  />
               <InterpolatingParam id="1085" interp="linr"  time="0/1" value="0" leadInLength="0/1"  />
               <InterpolatingParam id="1086" interp="linr"  time="0/1" value="0" leadInLength="0/1"  />
               <InterpolatingParam id="1087" interp="linr"  time="0/1" value="0" leadInLength="0/1"  />
              </VectorParam>
              <VectorParam id="1088"  name="geometryCrop">
               <InterpolatingParam id="1089" interp="linr"  time="-9999999/1" value="0" leadInLength="0/1"  />
               <InterpolatingParam id="1090" interp="linr"  time="-9999999/1" value="0" leadInLength="0/1"  />
               <InterpolatingParam id="1091" interp="linr"  time="-9999999/1" value="0" leadInLength="0/1"  />
               <InterpolatingParam id="1092" interp="linr"  time="-9999999/1" value="0" leadInLength="0/1"  />
              </VectorParam>
              <InterpolatingParam id="1093" interp="linr"  time="-9999999/1" value="1" leadInLength="0/1"  name="opacity"/>
              <InterpolatingParam id="1094" interp="linr"  time="0/1" value="0" leadInLength="0/1"  name="cursorOpacity"/>
              <InterpolatingParam id="1095" interp="linr"  time="0/1" value="0" leadInLength="0/1"  name="cursorScale"/>
             </Parameters>
             <Attributes>
              <Attribute id="1096" value="" name="ident"/>
             </Attributes>
             <ExtraData>
              <Entry key="ZoomPanBin">
               <ZoomPanBin id="1097"  >
                <ZoomPanKeyframes>
                 <ZoomPanKeyframe id="1098" timeRangeEnd="-9999999/1" timeRangeDuration="0/1" interpolaterName=""  />
                </ZoomPanKeyframes>
               </ZoomPanBin>
              </Entry>
              <Entry key="CursorEffectBin">
               <CursorEffectBin id="1099"  >
                <CursorEffectKeyframes>
                </CursorEffectKeyframes>
               </CursorEffectBin>
              </Entry>
             </ExtraData>
            </ScreenVMFile>
            <MetaData>
             <entry key="AutoAppliedSmartFocus" val="False"/>
             <entry key="WinSubProjectDisplayName" val=""/>
            </MetaData>
           </UnifiedMedia>
           <UnifiedMedia id="1100"  >
            <AMFile id="1101" start="751" duration="197" scalar="1/1" mediaStart="2344/1" mediaDuration="197/1" trackNumber="1" src="4" channelNumber="0,1" >
             <Parameters>
              <InterpolatingParam id="1102" interp="linr"  time="0/1" value="1" leadInLength="0/1"  name="volume"/>
              <Parameter id="1103"  name="captions"/>
             </Parameters>
             <Attributes>
              <Attribute id="1104" value="" name="ident"/>
              <Attribute id="1105" value="44100" name="sampleRate"/>
              <Attribute id="1106" value="16" name="bitDepth"/>
              <Attribute id="1107" value="1" name="gain"/>
              <Attribute id="1108" value="0" name="mixToMono"/>
             </Attributes>
            </AMFile>
            <ScreenVMFile id="1109" start="751" duration="197" scalar="1/1" mediaStart="2344/1" mediaDuration="197/1" trackNumber="0" src="4" >
             <Transformer>
              <VectorParam id="1110"  name="translation">
               <InterpolatingParam id="1111" interp="linr"  time="-9999999/1" value="0" leadInLength="0/1"  />
               <InterpolatingParam id="1112" interp="linr"  time="-9999999/1" value="0" leadInLength="0/1"  />
               <InterpolatingParam id="1113" interp="linr"  time="-9999999/1" value="0" leadInLength="0/1"  />
              </VectorParam>
              <VectorParam id="1114"  name="rotation">
               <InterpolatingParam id="1115" interp="linr"  time="-9999999/1" value="0" leadInLength="0/1"  />
               <InterpolatingParam id="1116" interp="linr"  time="-9999999/1" value="0" leadInLength="0/1"  />
               <InterpolatingParam id="1117" interp="linr"  time="-9999999/1" value="0" leadInLength="0/1"  />
              </VectorParam>
              <VectorParam id="1118"  name="shear">
               <InterpolatingParam id="1119" interp="linr"  time="-9999999/1" value="0" leadInLength="0/1"  />
               <InterpolatingParam id="1120" interp="linr"  time="-9999999/1" value="0" leadInLength="0/1"  />
               <InterpolatingParam id="1121" interp="linr"  time="-9999999/1" value="0" leadInLength="0/1"  />
              </VectorParam>
              <VectorParam id="1122"  name="scale">
               <InterpolatingParam id="1123" interp="linr"  time="-9999999/1" value="1" leadInLength="0/1"  />
               <InterpolatingParam id="1124" interp="linr"  time="-9999999/1" value="1" leadInLength="0/1"  />
               <InterpolatingParam id="1125" interp="linr"  time="-9999999/1" value="1" leadInLength="0/1"  />
              </VectorParam>
              <VectorParam id="1126"  name="anchor">
               <InterpolatingParam id="1127" interp="linr"  time="0/1" value="0" leadInLength="0/1"  />
               <InterpolatingParam id="1128" interp="linr"  time="0/1" value="0" leadInLength="0/1"  />
               <InterpolatingParam id="1129" interp="linr"  time="0/1" value="0" leadInLength="0/1"  />
              </VectorParam>
             </Transformer>
             <Parameters>
              <VectorParam id="1130"  name="sourceCrop">
               <InterpolatingParam id="1131" interp="linr"  time="0/1" value="0" leadInLength="0/1"  />
               <InterpolatingParam id="1132" interp="linr"  time="0/1" value="0" leadInLength="0/1"  />
               <InterpolatingParam id="1133" interp="linr"  time="0/1" value="0" leadInLength="0/1"  />
               <InterpolatingParam id="1134" interp="linr"  time="0/1" value="0" leadInLength="0/1"  />
              </VectorParam>
              <VectorParam id="1135"  name="geometryCrop">
               <InterpolatingParam id="1136" interp="linr"  time="-9999999/1" value="0" leadInLength="0/1"  />
               <InterpolatingParam id="1137" interp="linr"  time="-9999999/1" value="0" leadInLength="0/1"  />
               <InterpolatingParam id="1138" interp="linr"  time="-9999999/1" value="0" leadInLength="0/1"  />
               <InterpolatingParam id="1139" interp="linr"  time="-9999999/1" value="0" leadInLength="0/1"  />
              </VectorParam>
              <InterpolatingParam id="1140" interp="linr"  time="-9999999/1" value="1" leadInLength="0/1"  name="opacity"/>
              <InterpolatingParam id="1141" interp="linr"  time="0/1" value="0" leadInLength="0/1"  name="cursorOpacity"/>
              <InterpolatingParam id="1142" interp="linr"  time="0/1" value="0" leadInLength="0/1"  name="cursorScale"/>
             </Parameters>
             <Attributes>
              <Attribute id="1143" value="" name="ident"/>
             </Attributes>
             <ExtraData>
              <Entry key="ZoomPanBin">
               <ZoomPanBin id="1144"  >
                <ZoomPanKeyframes>
                 <ZoomPanKeyframe id="1145" timeRangeEnd="-9999999/1" timeRangeDuration="0/1" interpolaterName=""  />
                </ZoomPanKeyframes>
               </ZoomPanBin>
              </Entry>
              <Entry key="CursorEffectBin">
               <CursorEffectBin id="1146"  >
                <CursorEffectKeyframes>
                </CursorEffectKeyframes>
               </CursorEffectBin>
              </Entry>
             </ExtraData>
            </ScreenVMFile>
            <MetaData>
             <entry key="AutoAppliedSmartFocus" val="False"/>
             <entry key="WinSubProjectDisplayName" val=""/>
            </MetaData>
           </UnifiedMedia>
           <UnifiedMedia id="1147"  >
            <AMFile id="1148" start="948" duration="78" scalar="1/1" mediaStart="2704/1" mediaDuration="78/1" trackNumber="1" src="4" channelNumber="0,1" >
             <Parameters>
              <InterpolatingParam id="1149" interp="linr"  time="0/1" value="1" leadInLength="0/1"  name="volume"/>
              <Parameter id="1150"  name="captions"/>
             </Parameters>
             <Attributes>
              <Attribute id="1151" value="" name="ident"/>
              <Attribute id="1152" value="44100" name="sampleRate"/>
              <Attribute id="1153" value="16" name="bitDepth"/>
              <Attribute id="1154" value="1" name="gain"/>
              <Attribute id="1155" value="0" name="mixToMono"/>
             </Attributes>
            </AMFile>
            <ScreenVMFile id="1156" start="948" duration="78" scalar="1/1" mediaStart="2704/1" mediaDuration="78/1" trackNumber="0" src="4" >
             <Transformer>
              <VectorParam id="1157"  name="translation">
               <InterpolatingParam id="1158" interp="linr"  time="-9999999/1" value="0" leadInLength="0/1"  />
               <InterpolatingParam id="1159" interp="linr"  time="-9999999/1" value="0" leadInLength="0/1"  />
               <InterpolatingParam id="1160" interp="linr"  time="-9999999/1" value="0" leadInLength="0/1"  />
              </VectorParam>
              <VectorParam id="1161"  name="rotation">
               <InterpolatingParam id="1162" interp="linr"  time="-9999999/1" value="0" leadInLength="0/1"  />
               <InterpolatingParam id="1163" interp="linr"  time="-9999999/1" value="0" leadInLength="0/1"  />
               <InterpolatingParam id="1164" interp="linr"  time="-9999999/1" value="0" leadInLength="0/1"  />
              </VectorParam>
              <VectorParam id="1165"  name="shear">
               <InterpolatingParam id="1166" interp="linr"  time="-9999999/1" value="0" leadInLength="0/1"  />
               <InterpolatingParam id="1167" interp="linr"  time="-9999999/1" value="0" leadInLength="0/1"  />
               <InterpolatingParam id="1168" interp="linr"  time="-9999999/1" value="0" leadInLength="0/1"  />
              </VectorParam>
              <VectorParam id="1169"  name="scale">
               <InterpolatingParam id="1170" interp="linr"  time="-9999999/1" value="1" leadInLength="0/1"  />
               <InterpolatingParam id="1171" interp="linr"  time="-9999999/1" value="1" leadInLength="0/1"  />
               <InterpolatingParam id="1172" interp="linr"  time="-9999999/1" value="1" leadInLength="0/1"  />
              </VectorParam>
              <VectorParam id="1173"  name="anchor">
               <InterpolatingParam id="1174" interp="linr"  time="0/1" value="0" leadInLength="0/1"  />
               <InterpolatingParam id="1175" interp="linr"  time="0/1" value="0" leadInLength="0/1"  />
               <InterpolatingParam id="1176" interp="linr"  time="0/1" value="0" leadInLength="0/1"  />
              </VectorParam>
             </Transformer>
             <Parameters>
              <VectorParam id="1177"  name="sourceCrop">
               <InterpolatingParam id="1178" interp="linr"  time="0/1" value="0" leadInLength="0/1"  />
               <InterpolatingParam id="1179" interp="linr"  time="0/1" value="0" leadInLength="0/1"  />
               <InterpolatingParam id="1180" interp="linr"  time="0/1" value="0" leadInLength="0/1"  />
               <InterpolatingParam id="1181" interp="linr"  time="0/1" value="0" leadInLength="0/1"  />
              </VectorParam>
              <VectorParam id="1182"  name="geometryCrop">
               <InterpolatingParam id="1183" interp="linr"  time="-9999999/1" value="0" leadInLength="0/1"  />
               <InterpolatingParam id="1184" interp="linr"  time="-9999999/1" value="0" leadInLength="0/1"  />
               <InterpolatingParam id="1185" interp="linr"  time="-9999999/1" value="0" leadInLength="0/1"  />
               <InterpolatingParam id="1186" interp="linr"  time="-9999999/1" value="0" leadInLength="0/1"  />
              </VectorParam>
              <InterpolatingParam id="1187" interp="linr"  time="-9999999/1" value="1" leadInLength="0/1"  name="opacity"/>
              <InterpolatingParam id="1188" interp="linr"  time="0/1" value="0" leadInLength="0/1"  name="cursorOpacity"/>
              <InterpolatingParam id="1189" interp="linr"  time="0/1" value="0" leadInLength="0/1"  name="cursorScale"/>
             </Parameters>
             <Attributes>
              <Attribute id="1190" value="" name="ident"/>
             </Attributes>
             <ExtraData>
              <Entry key="ZoomPanBin">
               <ZoomPanBin id="1191"  >
                <ZoomPanKeyframes>
                 <ZoomPanKeyframe id="1192" timeRangeEnd="-9999999/1" timeRangeDuration="0/1" interpolaterName=""  />
                </ZoomPanKeyframes>
               </ZoomPanBin>
              </Entry>
              <Entry key="CursorEffectBin">
               <CursorEffectBin id="1193"  >
                <CursorEffectKeyframes>
                </CursorEffectKeyframes>
               </CursorEffectBin>
              </Entry>
             </ExtraData>
            </ScreenVMFile>
            <MetaData>
             <entry key="AutoAppliedSmartFocus" val="False"/>
             <entry key="WinSubProjectDisplayName" val=""/>
            </MetaData>
           </UnifiedMedia>
           <UnifiedMedia id="1194"  >
            <AMFile id="1195" start="1026" duration="134" scalar="1/1" mediaStart="2791/1" mediaDuration="134/1" trackNumber="1" src="4" channelNumber="0,1" >
             <Parameters>
              <InterpolatingParam id="1196" interp="linr"  time="0/1" value="1" leadInLength="0/1"  name="volume"/>
              <Parameter id="1197"  name="captions"/>
             </Parameters>
             <Attributes>
              <Attribute id="1198" value="" name="ident"/>
              <Attribute id="1199" value="44100" name="sampleRate"/>
              <Attribute id="1200" value="16" name="bitDepth"/>
              <Attribute id="1201" value="1" name="gain"/>
              <Attribute id="1202" value="0" name="mixToMono"/>
             </Attributes>
            </AMFile>
            <ScreenVMFile id="1203" start="1026" duration="134" scalar="1/1" mediaStart="2791/1" mediaDuration="134/1" trackNumber="0" src="4" >
             <Transformer>
              <VectorParam id="1204"  name="translation">
               <InterpolatingParam id="1205" interp="linr"  time="-9999999/1" value="0" leadInLength="0/1"  />
               <InterpolatingParam id="1206" interp="linr"  time="-9999999/1" value="0" leadInLength="0/1"  />
               <InterpolatingParam id="1207" interp="linr"  time="-9999999/1" value="0" leadInLength="0/1"  />
              </VectorParam>
              <VectorParam id="1208"  name="rotation">
               <InterpolatingParam id="1209" interp="linr"  time="-9999999/1" value="0" leadInLength="0/1"  />
               <InterpolatingParam id="1210" interp="linr"  time="-9999999/1" value="0" leadInLength="0/1"  />
               <InterpolatingParam id="1211" interp="linr"  time="-9999999/1" value="0" leadInLength="0/1"  />
              </VectorParam>
              <VectorParam id="1212"  name="shear">
               <InterpolatingParam id="1213" interp="linr"  time="-9999999/1" value="0" leadInLength="0/1"  />
               <InterpolatingParam id="1214" interp="linr"  time="-9999999/1" value="0" leadInLength="0/1"  />
               <InterpolatingParam id="1215" interp="linr"  time="-9999999/1" value="0" leadInLength="0/1"  />
              </VectorParam>
              <VectorParam id="1216"  name="scale">
               <InterpolatingParam id="1217" interp="linr"  time="-9999999/1" value="1" leadInLength="0/1"  />
               <InterpolatingParam id="1218" interp="linr"  time="-9999999/1" value="1" leadInLength="0/1"  />
               <InterpolatingParam id="1219" interp="linr"  time="-9999999/1" value="1" leadInLength="0/1"  />
              </VectorParam>
              <VectorParam id="1220"  name="anchor">
               <InterpolatingParam id="1221" interp="linr"  time="0/1" value="0" leadInLength="0/1"  />
               <InterpolatingParam id="1222" interp="linr"  time="0/1" value="0" leadInLength="0/1"  />
               <InterpolatingParam id="1223" interp="linr"  time="0/1" value="0" leadInLength="0/1"  />
              </VectorParam>
             </Transformer>
             <Parameters>
              <VectorParam id="1224"  name="sourceCrop">
               <InterpolatingParam id="1225" interp="linr"  time="0/1" value="0" leadInLength="0/1"  />
               <InterpolatingParam id="1226" interp="linr"  time="0/1" value="0" leadInLength="0/1"  />
               <InterpolatingParam id="1227" interp="linr"  time="0/1" value="0" leadInLength="0/1"  />
               <InterpolatingParam id="1228" interp="linr"  time="0/1" value="0" leadInLength="0/1"  />
              </VectorParam>
              <VectorParam id="1229"  name="geometryCrop">
               <InterpolatingParam id="1230" interp="linr"  time="-9999999/1" value="0" leadInLength="0/1"  />
               <InterpolatingParam id="1231" interp="linr"  time="-9999999/1" value="0" leadInLength="0/1"  />
               <InterpolatingParam id="1232" interp="linr"  time="-9999999/1" value="0" leadInLength="0/1"  />
               <InterpolatingParam id="1233" interp="linr"  time="-9999999/1" value="0" leadInLength="0/1"  />
              </VectorParam>
              <InterpolatingParam id="1234" interp="linr"  time="-9999999/1" value="1" leadInLength="0/1"  name="opacity"/>
              <InterpolatingParam id="1235" interp="linr"  time="0/1" value="0" leadInLength="0/1"  name="cursorOpacity"/>
              <InterpolatingParam id="1236" interp="linr"  time="0/1" value="0" leadInLength="0/1"  name="cursorScale"/>
             </Parameters>
             <Attributes>
              <Attribute id="1237" value="" name="ident"/>
             </Attributes>
             <ExtraData>
              <Entry key="ZoomPanBin">
               <ZoomPanBin id="1238"  >
                <ZoomPanKeyframes>
                 <ZoomPanKeyframe id="1239" timeRangeEnd="-9999999/1" timeRangeDuration="0/1" interpolaterName=""  />
                </ZoomPanKeyframes>
               </ZoomPanBin>
              </Entry>
              <Entry key="CursorEffectBin">
               <CursorEffectBin id="1240"  >
                <CursorEffectKeyframes>
                </CursorEffectKeyframes>
               </CursorEffectBin>
              </Entry>
             </ExtraData>
            </ScreenVMFile>
            <MetaData>
             <entry key="AutoAppliedSmartFocus" val="False"/>
             <entry key="WinSubProjectDisplayName" val=""/>
            </MetaData>
           </UnifiedMedia>
           <UnifiedMedia id="1241"  >
            <AMFile id="1242" start="1160" duration="208" scalar="1/1" mediaStart="2937/1" mediaDuration="208/1" trackNumber="1" src="4" channelNumber="0,1" >
             <Parameters>
              <InterpolatingParam id="1243" interp="linr"  time="0/1" value="1" leadInLength="0/1"  name="volume"/>
              <Parameter id="1244"  name="captions"/>
             </Parameters>
             <Attributes>
              <Attribute id="1245" value="" name="ident"/>
              <Attribute id="1246" value="44100" name="sampleRate"/>
              <Attribute id="1247" value="16" name="bitDepth"/>
              <Attribute id="1248" value="1" name="gain"/>
              <Attribute id="1249" value="0" name="mixToMono"/>
             </Attributes>
            </AMFile>
            <ScreenVMFile id="1250" start="1160" duration="208" scalar="1/1" mediaStart="2937/1" mediaDuration="208/1" trackNumber="0" src="4" >
             <Transformer>
              <VectorParam id="1251"  name="translation">
               <InterpolatingParam id="1252" interp="linr"  time="-9999999/1" value="0" leadInLength="0/1"  />
               <InterpolatingParam id="1253" interp="linr"  time="-9999999/1" value="0" leadInLength="0/1"  />
               <InterpolatingParam id="1254" interp="linr"  time="-9999999/1" value="0" leadInLength="0/1"  />
              </VectorParam>
              <VectorParam id="1255"  name="rotation">
               <InterpolatingParam id="1256" interp="linr"  time="-9999999/1" value="0" leadInLength="0/1"  />
               <InterpolatingParam id="1257" interp="linr"  time="-9999999/1" value="0" leadInLength="0/1"  />
               <InterpolatingParam id="1258" interp="linr"  time="-9999999/1" value="0" leadInLength="0/1"  />
              </VectorParam>
              <VectorParam id="1259"  name="shear">
               <InterpolatingParam id="1260" interp="linr"  time="-9999999/1" value="0" leadInLength="0/1"  />
               <InterpolatingParam id="1261" interp="linr"  time="-9999999/1" value="0" leadInLength="0/1"  />
               <InterpolatingParam id="1262" interp="linr"  time="-9999999/1" value="0" leadInLength="0/1"  />
              </VectorParam>
              <VectorParam id="1263"  name="scale">
               <InterpolatingParam id="1264" interp="linr"  time="-9999999/1" value="1" leadInLength="0/1"  />
               <InterpolatingParam id="1265" interp="linr"  time="-9999999/1" value="1" leadInLength="0/1"  />
               <InterpolatingParam id="1266" interp="linr"  time="-9999999/1" value="1" leadInLength="0/1"  />
              </VectorParam>
              <VectorParam id="1267"  name="anchor">
               <InterpolatingParam id="1268" interp="linr"  time="0/1" value="0" leadInLength="0/1"  />
               <InterpolatingParam id="1269" interp="linr"  time="0/1" value="0" leadInLength="0/1"  />
               <InterpolatingParam id="1270" interp="linr"  time="0/1" value="0" leadInLength="0/1"  />
              </VectorParam>
             </Transformer>
             <Parameters>
              <VectorParam id="1271"  name="sourceCrop">
               <InterpolatingParam id="1272" interp="linr"  time="0/1" value="0" leadInLength="0/1"  />
               <InterpolatingParam id="1273" interp="linr"  time="0/1" value="0" leadInLength="0/1"  />
               <InterpolatingParam id="1274" interp="linr"  time="0/1" value="0" leadInLength="0/1"  />
               <InterpolatingParam id="1275" interp="linr"  time="0/1" value="0" leadInLength="0/1"  />
              </VectorParam>
              <VectorParam id="1276"  name="geometryCrop">
               <InterpolatingParam id="1277" interp="linr"  time="-9999999/1" value="0" leadInLength="0/1"  />
               <InterpolatingParam id="1278" interp="linr"  time="-9999999/1" value="0" leadInLength="0/1"  />
               <InterpolatingParam id="1279" interp="linr"  time="-9999999/1" value="0" leadInLength="0/1"  />
               <InterpolatingParam id="1280" interp="linr"  time="-9999999/1" value="0" leadInLength="0/1"  />
              </VectorParam>
              <InterpolatingParam id="1281" interp="linr"  time="-9999999/1" value="1" leadInLength="0/1"  name="opacity"/>
              <InterpolatingParam id="1282" interp="linr"  time="0/1" value="0" leadInLength="0/1"  name="cursorOpacity"/>
              <InterpolatingParam id="1283" interp="linr"  time="0/1" value="0" leadInLength="0/1"  name="cursorScale"/>
             </Parameters>
             <Attributes>
              <Attribute id="1284" value="" name="ident"/>
             </Attributes>
             <ExtraData>
              <Entry key="ZoomPanBin">
               <ZoomPanBin id="1285"  >
                <ZoomPanKeyframes>
                 <ZoomPanKeyframe id="1286" timeRangeEnd="-9999999/1" timeRangeDuration="0/1" interpolaterName=""  />
                </ZoomPanKeyframes>
               </ZoomPanBin>
              </Entry>
              <Entry key="CursorEffectBin">
               <CursorEffectBin id="1287"  >
                <CursorEffectKeyframes>
                </CursorEffectKeyframes>
               </CursorEffectBin>
              </Entry>
             </ExtraData>
            </ScreenVMFile>
            <MetaData>
             <entry key="AutoAppliedSmartFocus" val="False"/>
             <entry key="WinSubProjectDisplayName" val=""/>
            </MetaData>
           </UnifiedMedia>
           <UnifiedMedia id="1288"  >
            <AMFile id="1289" start="1368" duration="74" scalar="1/1" mediaStart="3308/1" mediaDuration="74/1" trackNumber="1" src="4" channelNumber="0,1" >
             <Parameters>
              <InterpolatingParam id="1290" interp="linr"  time="0/1" value="1" leadInLength="0/1"  name="volume"/>
              <Parameter id="1291"  name="captions"/>
             </Parameters>
             <Attributes>
              <Attribute id="1292" value="" name="ident"/>
              <Attribute id="1293" value="44100" name="sampleRate"/>
              <Attribute id="1294" value="16" name="bitDepth"/>
              <Attribute id="1295" value="1" name="gain"/>
              <Attribute id="1296" value="0" name="mixToMono"/>
             </Attributes>
            </AMFile>
            <ScreenVMFile id="1297" start="1368" duration="74" scalar="1/1" mediaStart="3308/1" mediaDuration="74/1" trackNumber="0" src="4" >
             <Transformer>
              <VectorParam id="1298"  name="translation">
               <InterpolatingParam id="1299" interp="linr"  time="-9999999/1" value="0" leadInLength="0/1"  />
               <InterpolatingParam id="1300" interp="linr"  time="-9999999/1" value="0" leadInLength="0/1"  />
               <InterpolatingParam id="1301" interp="linr"  time="-9999999/1" value="0" leadInLength="0/1"  />
              </VectorParam>
              <VectorParam id="1302"  name="rotation">
               <InterpolatingParam id="1303" interp="linr"  time="-9999999/1" value="0" leadInLength="0/1"  />
               <InterpolatingParam id="1304" interp="linr"  time="-9999999/1" value="0" leadInLength="0/1"  />
               <InterpolatingParam id="1305" interp="linr"  time="-9999999/1" value="0" leadInLength="0/1"  />
              </VectorParam>
              <VectorParam id="1306"  name="shear">
               <InterpolatingParam id="1307" interp="linr"  time="-9999999/1" value="0" leadInLength="0/1"  />
               <InterpolatingParam id="1308" interp="linr"  time="-9999999/1" value="0" leadInLength="0/1"  />
               <InterpolatingParam id="1309" interp="linr"  time="-9999999/1" value="0" leadInLength="0/1"  />
              </VectorParam>
              <VectorParam id="1310"  name="scale">
               <InterpolatingParam id="1311" interp="linr"  time="-9999999/1" value="1" leadInLength="0/1"  />
               <InterpolatingParam id="1312" interp="linr"  time="-9999999/1" value="1" leadInLength="0/1"  />
               <InterpolatingParam id="1313" interp="linr"  time="-9999999/1" value="1" leadInLength="0/1"  />
              </VectorParam>
              <VectorParam id="1314"  name="anchor">
               <InterpolatingParam id="1315" interp="linr"  time="0/1" value="0" leadInLength="0/1"  />
               <InterpolatingParam id="1316" interp="linr"  time="0/1" value="0" leadInLength="0/1"  />
               <InterpolatingParam id="1317" interp="linr"  time="0/1" value="0" leadInLength="0/1"  />
              </VectorParam>
             </Transformer>
             <Parameters>
              <VectorParam id="1318"  name="sourceCrop">
               <InterpolatingParam id="1319" interp="linr"  time="0/1" value="0" leadInLength="0/1"  />
               <InterpolatingParam id="1320" interp="linr"  time="0/1" value="0" leadInLength="0/1"  />
               <InterpolatingParam id="1321" interp="linr"  time="0/1" value="0" leadInLength="0/1"  />
               <InterpolatingParam id="1322" interp="linr"  time="0/1" value="0" leadInLength="0/1"  />
              </VectorParam>
              <VectorParam id="1323"  name="geometryCrop">
               <InterpolatingParam id="1324" interp="linr"  time="-9999999/1" value="0" leadInLength="0/1"  />
               <InterpolatingParam id="1325" interp="linr"  time="-9999999/1" value="0" leadInLength="0/1"  />
               <InterpolatingParam id="1326" interp="linr"  time="-9999999/1" value="0" leadInLength="0/1"  />
               <InterpolatingParam id="1327" interp="linr"  time="-9999999/1" value="0" leadInLength="0/1"  />
              </VectorParam>
              <InterpolatingParam id="1328" interp="linr"  time="-9999999/1" value="1" leadInLength="0/1"  name="opacity"/>
              <InterpolatingParam id="1329" interp="linr"  time="0/1" value="0" leadInLength="0/1"  name="cursorOpacity"/>
              <InterpolatingParam id="1330" interp="linr"  time="0/1" value="0" leadInLength="0/1"  name="cursorScale"/>
             </Parameters>
             <Attributes>
              <Attribute id="1331" value="" name="ident"/>
             </Attributes>
             <ExtraData>
              <Entry key="ZoomPanBin">
               <ZoomPanBin id="1332"  >
                <ZoomPanKeyframes>
                 <ZoomPanKeyframe id="1333" timeRangeEnd="-9999999/1" timeRangeDuration="0/1" interpolaterName=""  />
                </ZoomPanKeyframes>
               </ZoomPanBin>
              </Entry>
              <Entry key="CursorEffectBin">
               <CursorEffectBin id="1334"  >
                <CursorEffectKeyframes>
                </CursorEffectKeyframes>
               </CursorEffectBin>
              </Entry>
             </ExtraData>
            </ScreenVMFile>
            <MetaData>
             <entry key="AutoAppliedSmartFocus" val="False"/>
             <entry key="WinSubProjectDisplayName" val=""/>
            </MetaData>
           </UnifiedMedia>
           <UnifiedMedia id="1335"  >
            <AMFile id="1336" start="1442" duration="33" scalar="1/1" mediaStart="3391/1" mediaDuration="33/1" trackNumber="1" src="4" channelNumber="0,1" >
             <Parameters>
              <InterpolatingParam id="1337" interp="linr"  time="0/1" value="1" leadInLength="0/1"  name="volume"/>
              <Parameter id="1338"  name="captions"/>
             </Parameters>
             <Attributes>
              <Attribute id="1339" value="" name="ident"/>
              <Attribute id="1340" value="44100" name="sampleRate"/>
              <Attribute id="1341" value="16" name="bitDepth"/>
              <Attribute id="1342" value="1" name="gain"/>
              <Attribute id="1343" value="0" name="mixToMono"/>
             </Attributes>
            </AMFile>
            <ScreenVMFile id="1344" start="1442" duration="33" scalar="1/1" mediaStart="3391/1" mediaDuration="33/1" trackNumber="0" src="4" >
             <Transformer>
              <VectorParam id="1345"  name="translation">
               <InterpolatingParam id="1346" interp="linr"  time="-9999999/1" value="0" leadInLength="0/1"  />
               <InterpolatingParam id="1347" interp="linr"  time="-9999999/1" value="0" leadInLength="0/1"  />
               <InterpolatingParam id="1348" interp="linr"  time="-9999999/1" value="0" leadInLength="0/1"  />
              </VectorParam>
              <VectorParam id="1349"  name="rotation">
               <InterpolatingParam id="1350" interp="linr"  time="-9999999/1" value="0" leadInLength="0/1"  />
               <InterpolatingParam id="1351" interp="linr"  time="-9999999/1" value="0" leadInLength="0/1"  />
               <InterpolatingParam id="1352" interp="linr"  time="-9999999/1" value="0" leadInLength="0/1"  />
              </VectorParam>
              <VectorParam id="1353"  name="shear">
               <InterpolatingParam id="1354" interp="linr"  time="-9999999/1" value="0" leadInLength="0/1"  />
               <InterpolatingParam id="1355" interp="linr"  time="-9999999/1" value="0" leadInLength="0/1"  />
               <InterpolatingParam id="1356" interp="linr"  time="-9999999/1" value="0" leadInLength="0/1"  />
              </VectorParam>
              <VectorParam id="1357"  name="scale">
               <InterpolatingParam id="1358" interp="linr"  time="-9999999/1" value="1" leadInLength="0/1"  />
               <InterpolatingParam id="1359" interp="linr"  time="-9999999/1" value="1" leadInLength="0/1"  />
               <InterpolatingParam id="1360" interp="linr"  time="-9999999/1" value="1" leadInLength="0/1"  />
              </VectorParam>
              <VectorParam id="1361"  name="anchor">
               <InterpolatingParam id="1362" interp="linr"  time="0/1" value="0" leadInLength="0/1"  />
               <InterpolatingParam id="1363" interp="linr"  time="0/1" value="0" leadInLength="0/1"  />
               <InterpolatingParam id="1364" interp="linr"  time="0/1" value="0" leadInLength="0/1"  />
              </VectorParam>
             </Transformer>
             <Parameters>
              <VectorParam id="1365"  name="sourceCrop">
               <InterpolatingParam id="1366" interp="linr"  time="0/1" value="0" leadInLength="0/1"  />
               <InterpolatingParam id="1367" interp="linr"  time="0/1" value="0" leadInLength="0/1"  />
               <InterpolatingParam id="1368" interp="linr"  time="0/1" value="0" leadInLength="0/1"  />
               <InterpolatingParam id="1369" interp="linr"  time="0/1" value="0" leadInLength="0/1"  />
              </VectorParam>
              <VectorParam id="1370"  name="geometryCrop">
               <InterpolatingParam id="1371" interp="linr"  time="-9999999/1" value="0" leadInLength="0/1"  />
               <InterpolatingParam id="1372" interp="linr"  time="-9999999/1" value="0" leadInLength="0/1"  />
               <InterpolatingParam id="1373" interp="linr"  time="-9999999/1" value="0" leadInLength="0/1"  />
               <InterpolatingParam id="1374" interp="linr"  time="-9999999/1" value="0" leadInLength="0/1"  />
              </VectorParam>
              <InterpolatingParam id="1375" interp="linr"  time="-9999999/1" value="1" leadInLength="0/1"  name="opacity"/>
              <InterpolatingParam id="1376" interp="linr"  time="0/1" value="0" leadInLength="0/1"  name="cursorOpacity"/>
              <InterpolatingParam id="1377" interp="linr"  time="0/1" value="0" leadInLength="0/1"  name="cursorScale"/>
             </Parameters>
             <Attributes>
              <Attribute id="1378" value="" name="ident"/>
             </Attributes>
             <ExtraData>
              <Entry key="ZoomPanBin">
               <ZoomPanBin id="1379"  >
                <ZoomPanKeyframes>
                 <ZoomPanKeyframe id="1380" timeRangeEnd="-9999999/1" timeRangeDuration="0/1" interpolaterName=""  />
                </ZoomPanKeyframes>
               </ZoomPanBin>
              </Entry>
              <Entry key="CursorEffectBin">
               <CursorEffectBin id="1381"  >
                <CursorEffectKeyframes>
                </CursorEffectKeyframes>
               </CursorEffectBin>
              </Entry>
             </ExtraData>
            </ScreenVMFile>
            <MetaData>
             <entry key="AutoAppliedSmartFocus" val="False"/>
             <entry key="WinSubProjectDisplayName" val=""/>
            </MetaData>
           </UnifiedMedia>
           <UnifiedMedia id="1382"  >
            <AMFile id="1383" start="1475" duration="183" scalar="1/1" mediaStart="3433/1" mediaDuration="183/1" trackNumber="1" src="4" channelNumber="0,1" >
             <Parameters>
              <InterpolatingParam id="1384" interp="linr"  time="0/1" value="1" leadInLength="0/1"  name="volume"/>
              <Parameter id="1385"  name="captions"/>
             </Parameters>
             <Attributes>
              <Attribute id="1386" value="" name="ident"/>
              <Attribute id="1387" value="44100" name="sampleRate"/>
              <Attribute id="1388" value="16" name="bitDepth"/>
              <Attribute id="1389" value="1" name="gain"/>
              <Attribute id="1390" value="0" name="mixToMono"/>
             </Attributes>
            </AMFile>
            <ScreenVMFile id="1391" start="1475" duration="183" scalar="1/1" mediaStart="3433/1" mediaDuration="183/1" trackNumber="0" src="4" >
             <Transformer>
              <VectorParam id="1392"  name="translation">
               <InterpolatingParam id="1393" interp="linr"  time="-9999999/1" value="0" leadInLength="0/1"  />
               <InterpolatingParam id="1394" interp="linr"  time="-9999999/1" value="0" leadInLength="0/1"  />
               <InterpolatingParam id="1395" interp="linr"  time="-9999999/1" value="0" leadInLength="0/1"  />
              </VectorParam>
              <VectorParam id="1396"  name="rotation">
               <InterpolatingParam id="1397" interp="linr"  time="-9999999/1" value="0" leadInLength="0/1"  />
               <InterpolatingParam id="1398" interp="linr"  time="-9999999/1" value="0" leadInLength="0/1"  />
               <InterpolatingParam id="1399" interp="linr"  time="-9999999/1" value="0" leadInLength="0/1"  />
              </VectorParam>
              <VectorParam id="1400"  name="shear">
               <InterpolatingParam id="1401" interp="linr"  time="-9999999/1" value="0" leadInLength="0/1"  />
               <InterpolatingParam id="1402" interp="linr"  time="-9999999/1" value="0" leadInLength="0/1"  />
               <InterpolatingParam id="1403" interp="linr"  time="-9999999/1" value="0" leadInLength="0/1"  />
              </VectorParam>
              <VectorParam id="1404"  name="scale">
               <InterpolatingParam id="1405" interp="linr"  time="-9999999/1" value="1" leadInLength="0/1"  />
               <InterpolatingParam id="1406" interp="linr"  time="-9999999/1" value="1" leadInLength="0/1"  />
               <InterpolatingParam id="1407" interp="linr"  time="-9999999/1" value="1" leadInLength="0/1"  />
              </VectorParam>
              <VectorParam id="1408"  name="anchor">
               <InterpolatingParam id="1409" interp="linr"  time="0/1" value="0" leadInLength="0/1"  />
               <InterpolatingParam id="1410" interp="linr"  time="0/1" value="0" leadInLength="0/1"  />
               <InterpolatingParam id="1411" interp="linr"  time="0/1" value="0" leadInLength="0/1"  />
              </VectorParam>
             </Transformer>
             <Parameters>
              <VectorParam id="1412"  name="sourceCrop">
               <InterpolatingParam id="1413" interp="linr"  time="0/1" value="0" leadInLength="0/1"  />
               <InterpolatingParam id="1414" interp="linr"  time="0/1" value="0" leadInLength="0/1"  />
               <InterpolatingParam id="1415" interp="linr"  time="0/1" value="0" leadInLength="0/1"  />
               <InterpolatingParam id="1416" interp="linr"  time="0/1" value="0" leadInLength="0/1"  />
              </VectorParam>
              <VectorParam id="1417"  name="geometryCrop">
               <InterpolatingParam id="1418" interp="linr"  time="-9999999/1" value="0" leadInLength="0/1"  />
               <InterpolatingParam id="1419" interp="linr"  time="-9999999/1" value="0" leadInLength="0/1"  />
               <InterpolatingParam id="1420" interp="linr"  time="-9999999/1" value="0" leadInLength="0/1"  />
               <InterpolatingParam id="1421" interp="linr"  time="-9999999/1" value="0" leadInLength="0/1"  />
              </VectorParam>
              <InterpolatingParam id="1422" interp="linr"  time="-9999999/1" value="1" leadInLength="0/1"  name="opacity"/>
              <InterpolatingParam id="1423" interp="linr"  time="0/1" value="0" leadInLength="0/1"  name="cursorOpacity"/>
              <InterpolatingParam id="1424" interp="linr"  time="0/1" value="0" leadInLength="0/1"  name="cursorScale"/>
             </Parameters>
             <Attributes>
              <Attribute id="1425" value="" name="ident"/>
             </Attributes>
             <ExtraData>
              <Entry key="ZoomPanBin">
               <ZoomPanBin id="1426"  >
                <ZoomPanKeyframes>
                 <ZoomPanKeyframe id="1427" timeRangeEnd="-9999999/1" timeRangeDuration="0/1" interpolaterName=""  />
                </ZoomPanKeyframes>
               </ZoomPanBin>
              </Entry>
              <Entry key="CursorEffectBin">
               <CursorEffectBin id="1428"  >
                <CursorEffectKeyframes>
                </CursorEffectKeyframes>
               </CursorEffectBin>
              </Entry>
             </ExtraData>
            </ScreenVMFile>
            <MetaData>
             <entry key="AutoAppliedSmartFocus" val="False"/>
             <entry key="WinSubProjectDisplayName" val=""/>
            </MetaData>
           </UnifiedMedia>
           <UnifiedMedia id="1429"  >
            <AMFile id="1430" start="1658" duration="131" scalar="1/1" mediaStart="3677/1" mediaDuration="131/1" trackNumber="1" src="4" channelNumber="0,1" >
             <Parameters>
              <InterpolatingParam id="1431" interp="linr"  time="0/1" value="1" leadInLength="0/1"  name="volume"/>
              <Parameter id="1432"  name="captions"/>
             </Parameters>
             <Attributes>
              <Attribute id="1433" value="" name="ident"/>
              <Attribute id="1434" value="44100" name="sampleRate"/>
              <Attribute id="1435" value="16" name="bitDepth"/>
              <Attribute id="1436" value="1" name="gain"/>
              <Attribute id="1437" value="0" name="mixToMono"/>
             </Attributes>
            </AMFile>
            <ScreenVMFile id="1438" start="1658" duration="131" scalar="1/1" mediaStart="3677/1" mediaDuration="131/1" trackNumber="0" src="4" >
             <Transformer>
              <VectorParam id="1439"  name="translation">
               <InterpolatingParam id="1440" interp="linr"  time="-9999999/1" value="0" leadInLength="0/1"  />
               <InterpolatingParam id="1441" interp="linr"  time="-9999999/1" value="0" leadInLength="0/1"  />
               <InterpolatingParam id="1442" interp="linr"  time="-9999999/1" value="0" leadInLength="0/1"  />
              </VectorParam>
              <VectorParam id="1443"  name="rotation">
               <InterpolatingParam id="1444" interp="linr"  time="-9999999/1" value="0" leadInLength="0/1"  />
               <InterpolatingParam id="1445" interp="linr"  time="-9999999/1" value="0" leadInLength="0/1"  />
               <InterpolatingParam id="1446" interp="linr"  time="-9999999/1" value="0" leadInLength="0/1"  />
              </VectorParam>
              <VectorParam id="1447"  name="shear">
               <InterpolatingParam id="1448" interp="linr"  time="-9999999/1" value="0" leadInLength="0/1"  />
               <InterpolatingParam id="1449" interp="linr"  time="-9999999/1" value="0" leadInLength="0/1"  />
               <InterpolatingParam id="1450" interp="linr"  time="-9999999/1" value="0" leadInLength="0/1"  />
              </VectorParam>
              <VectorParam id="1451"  name="scale">
               <InterpolatingParam id="1452" interp="linr"  time="-9999999/1" value="1" leadInLength="0/1"  />
               <InterpolatingParam id="1453" interp="linr"  time="-9999999/1" value="1" leadInLength="0/1"  />
               <InterpolatingParam id="1454" interp="linr"  time="-9999999/1" value="1" leadInLength="0/1"  />
              </VectorParam>
              <VectorParam id="1455"  name="anchor">
               <InterpolatingParam id="1456" interp="linr"  time="0/1" value="0" leadInLength="0/1"  />
               <InterpolatingParam id="1457" interp="linr"  time="0/1" value="0" leadInLength="0/1"  />
               <InterpolatingParam id="1458" interp="linr"  time="0/1" value="0" leadInLength="0/1"  />
              </VectorParam>
             </Transformer>
             <Parameters>
              <VectorParam id="1459"  name="sourceCrop">
               <InterpolatingParam id="1460" interp="linr"  time="0/1" value="0" leadInLength="0/1"  />
               <InterpolatingParam id="1461" interp="linr"  time="0/1" value="0" leadInLength="0/1"  />
               <InterpolatingParam id="1462" interp="linr"  time="0/1" value="0" leadInLength="0/1"  />
               <InterpolatingParam id="1463" interp="linr"  time="0/1" value="0" leadInLength="0/1"  />
              </VectorParam>
              <VectorParam id="1464"  name="geometryCrop">
               <InterpolatingParam id="1465" interp="linr"  time="-9999999/1" value="0" leadInLength="0/1"  />
               <InterpolatingParam id="1466" interp="linr"  time="-9999999/1" value="0" leadInLength="0/1"  />
               <InterpolatingParam id="1467" interp="linr"  time="-9999999/1" value="0" leadInLength="0/1"  />
               <InterpolatingParam id="1468" interp="linr"  time="-9999999/1" value="0" leadInLength="0/1"  />
              </VectorParam>
              <InterpolatingParam id="1469" interp="linr"  time="-9999999/1" value="1" leadInLength="0/1"  name="opacity"/>
              <InterpolatingParam id="1470" interp="linr"  time="0/1" value="0" leadInLength="0/1"  name="cursorOpacity"/>
              <InterpolatingParam id="1471" interp="linr"  time="0/1" value="0" leadInLength="0/1"  name="cursorScale"/>
             </Parameters>
             <Attributes>
              <Attribute id="1472" value="" name="ident"/>
             </Attributes>
             <ExtraData>
              <Entry key="ZoomPanBin">
               <ZoomPanBin id="1473"  >
                <ZoomPanKeyframes>
                 <ZoomPanKeyframe id="1474" timeRangeEnd="-9999999/1" timeRangeDuration="0/1" interpolaterName=""  />
                </ZoomPanKeyframes>
               </ZoomPanBin>
              </Entry>
              <Entry key="CursorEffectBin">
               <CursorEffectBin id="1475"  >
                <CursorEffectKeyframes>
                </CursorEffectKeyframes>
               </CursorEffectBin>
              </Entry>
             </ExtraData>
            </ScreenVMFile>
            <MetaData>
             <entry key="AutoAppliedSmartFocus" val="False"/>
             <entry key="WinSubProjectDisplayName" val=""/>
            </MetaData>
           </UnifiedMedia>
           <UnifiedMedia id="1476"  >
            <AMFile id="1477" start="1789" duration="117" scalar="1/1" mediaStart="3821/1" mediaDuration="117/1" trackNumber="1" src="4" channelNumber="0,1" >
             <Parameters>
              <InterpolatingParam id="1478" interp="linr"  time="0/1" value="1" leadInLength="0/1"  name="volume"/>
              <Parameter id="1479"  name="captions"/>
             </Parameters>
             <Attributes>
              <Attribute id="1480" value="" name="ident"/>
              <Attribute id="1481" value="44100" name="sampleRate"/>
              <Attribute id="1482" value="16" name="bitDepth"/>
              <Attribute id="1483" value="1" name="gain"/>
              <Attribute id="1484" value="0" name="mixToMono"/>
             </Attributes>
            </AMFile>
            <ScreenVMFile id="1485" start="1789" duration="117" scalar="1/1" mediaStart="3821/1" mediaDuration="117/1" trackNumber="0" src="4" >
             <Transformer>
              <VectorParam id="1486"  name="translation">
               <InterpolatingParam id="1487" interp="linr"  time="-9999999/1" value="0" leadInLength="0/1"  />
               <InterpolatingParam id="1488" interp="linr"  time="-9999999/1" value="0" leadInLength="0/1"  />
               <InterpolatingParam id="1489" interp="linr"  time="-9999999/1" value="0" leadInLength="0/1"  />
              </VectorParam>
              <VectorParam id="1490"  name="rotation">
               <InterpolatingParam id="1491" interp="linr"  time="-9999999/1" value="0" leadInLength="0/1"  />
               <InterpolatingParam id="1492" interp="linr"  time="-9999999/1" value="0" leadInLength="0/1"  />
               <InterpolatingParam id="1493" interp="linr"  time="-9999999/1" value="0" leadInLength="0/1"  />
              </VectorParam>
              <VectorParam id="1494"  name="shear">
               <InterpolatingParam id="1495" interp="linr"  time="-9999999/1" value="0" leadInLength="0/1"  />
               <InterpolatingParam id="1496" interp="linr"  time="-9999999/1" value="0" leadInLength="0/1"  />
               <InterpolatingParam id="1497" interp="linr"  time="-9999999/1" value="0" leadInLength="0/1"  />
              </VectorParam>
              <VectorParam id="1498"  name="scale">
               <InterpolatingParam id="1499" interp="linr"  time="-9999999/1" value="1" leadInLength="0/1"  />
               <InterpolatingParam id="1500" interp="linr"  time="-9999999/1" value="1" leadInLength="0/1"  />
               <InterpolatingParam id="1501" interp="linr"  time="-9999999/1" value="1" leadInLength="0/1"  />
              </VectorParam>
              <VectorParam id="1502"  name="anchor">
               <InterpolatingParam id="1503" interp="linr"  time="0/1" value="0" leadInLength="0/1"  />
               <InterpolatingParam id="1504" interp="linr"  time="0/1" value="0" leadInLength="0/1"  />
               <InterpolatingParam id="1505" interp="linr"  time="0/1" value="0" leadInLength="0/1"  />
              </VectorParam>
             </Transformer>
             <Parameters>
              <VectorParam id="1506"  name="sourceCrop">
               <InterpolatingParam id="1507" interp="linr"  time="0/1" value="0" leadInLength="0/1"  />
               <InterpolatingParam id="1508" interp="linr"  time="0/1" value="0" leadInLength="0/1"  />
               <InterpolatingParam id="1509" interp="linr"  time="0/1" value="0" leadInLength="0/1"  />
               <InterpolatingParam id="1510" interp="linr"  time="0/1" value="0" leadInLength="0/1"  />
              </VectorParam>
              <VectorParam id="1511"  name="geometryCrop">
               <InterpolatingParam id="1512" interp="linr"  time="-9999999/1" value="0" leadInLength="0/1"  />
               <InterpolatingParam id="1513" interp="linr"  time="-9999999/1" value="0" leadInLength="0/1"  />
               <InterpolatingParam id="1514" interp="linr"  time="-9999999/1" value="0" leadInLength="0/1"  />
               <InterpolatingParam id="1515" interp="linr"  time="-9999999/1" value="0" leadInLength="0/1"  />
              </VectorParam>
              <InterpolatingParam id="1516" interp="linr"  time="-9999999/1" value="1" leadInLength="0/1"  name="opacity"/>
              <InterpolatingParam id="1517" interp="linr"  time="0/1" value="0" leadInLength="0/1"  name="cursorOpacity"/>
              <InterpolatingParam id="1518" interp="linr"  time="0/1" value="0" leadInLength="0/1"  name="cursorScale"/>
             </Parameters>
             <Attributes>
              <Attribute id="1519" value="" name="ident"/>
             </Attributes>
             <ExtraData>
              <Entry key="ZoomPanBin">
               <ZoomPanBin id="1520"  >
                <ZoomPanKeyframes>
                 <ZoomPanKeyframe id="1521" timeRangeEnd="-9999999/1" timeRangeDuration="0/1" interpolaterName=""  />
                </ZoomPanKeyframes>
               </ZoomPanBin>
              </Entry>
              <Entry key="CursorEffectBin">
               <CursorEffectBin id="1522"  >
                <CursorEffectKeyframes>
                </CursorEffectKeyframes>
               </CursorEffectBin>
              </Entry>
             </ExtraData>
            </ScreenVMFile>
            <MetaData>
             <entry key="AutoAppliedSmartFocus" val="False"/>
             <entry key="WinSubProjectDisplayName" val=""/>
            </MetaData>
           </UnifiedMedia>
           <UnifiedMedia id="1523"  >
            <AMFile id="1524" start="1906" duration="515" scalar="1/1" mediaStart="4106/1" mediaDuration="515/1" trackNumber="1" src="4" channelNumber="0,1" >
             <Parameters>
              <InterpolatingParam id="1525" interp="linr"  time="0/1" value="1" leadInLength="0/1"  name="volume"/>
              <Parameter id="1526"  name="captions"/>
             </Parameters>
             <Attributes>
              <Attribute id="1527" value="" name="ident"/>
              <Attribute id="1528" value="44100" name="sampleRate"/>
              <Attribute id="1529" value="16" name="bitDepth"/>
              <Attribute id="1530" value="1" name="gain"/>
              <Attribute id="1531" value="0" name="mixToMono"/>
             </Attributes>
            </AMFile>
            <ScreenVMFile id="1532" start="1906" duration="515" scalar="1/1" mediaStart="4106/1" mediaDuration="515/1" trackNumber="0" src="4" >
             <Transformer>
              <VectorParam id="1533"  name="translation">
               <InterpolatingParam id="1534" interp="linr"  time="-9999999/1" value="0" leadInLength="0/1"  />
               <InterpolatingParam id="1535" interp="linr"  time="-9999999/1" value="0" leadInLength="0/1"  />
               <InterpolatingParam id="1536" interp="linr"  time="-9999999/1" value="0" leadInLength="0/1"  />
              </VectorParam>
              <VectorParam id="1537"  name="rotation">
               <InterpolatingParam id="1538" interp="linr"  time="-9999999/1" value="0" leadInLength="0/1"  />
               <InterpolatingParam id="1539" interp="linr"  time="-9999999/1" value="0" leadInLength="0/1"  />
               <InterpolatingParam id="1540" interp="linr"  time="-9999999/1" value="0" leadInLength="0/1"  />
              </VectorParam>
              <VectorParam id="1541"  name="shear">
               <InterpolatingParam id="1542" interp="linr"  time="-9999999/1" value="0" leadInLength="0/1"  />
               <InterpolatingParam id="1543" interp="linr"  time="-9999999/1" value="0" leadInLength="0/1"  />
               <InterpolatingParam id="1544" interp="linr"  time="-9999999/1" value="0" leadInLength="0/1"  />
              </VectorParam>
              <VectorParam id="1545"  name="scale">
               <InterpolatingParam id="1546" interp="linr"  time="-9999999/1" value="1" leadInLength="0/1"  />
               <InterpolatingParam id="1547" interp="linr"  time="-9999999/1" value="1" leadInLength="0/1"  />
               <InterpolatingParam id="1548" interp="linr"  time="-9999999/1" value="1" leadInLength="0/1"  />
              </VectorParam>
              <VectorParam id="1549"  name="anchor">
               <InterpolatingParam id="1550" interp="linr"  time="0/1" value="0" leadInLength="0/1"  />
               <InterpolatingParam id="1551" interp="linr"  time="0/1" value="0" leadInLength="0/1"  />
               <InterpolatingParam id="1552" interp="linr"  time="0/1" value="0" leadInLength="0/1"  />
              </VectorParam>
             </Transformer>
             <Parameters>
              <VectorParam id="1553"  name="sourceCrop">
               <InterpolatingParam id="1554" interp="linr"  time="0/1" value="0" leadInLength="0/1"  />
               <InterpolatingParam id="1555" interp="linr"  time="0/1" value="0" leadInLength="0/1"  />
               <InterpolatingParam id="1556" interp="linr"  time="0/1" value="0" leadInLength="0/1"  />
               <InterpolatingParam id="1557" interp="linr"  time="0/1" value="0" leadInLength="0/1"  />
              </VectorParam>
              <VectorParam id="1558"  name="geometryCrop">
               <InterpolatingParam id="1559" interp="linr"  time="-9999999/1" value="0" leadInLength="0/1"  />
               <InterpolatingParam id="1560" interp="linr"  time="-9999999/1" value="0" leadInLength="0/1"  />
               <InterpolatingParam id="1561" interp="linr"  time="-9999999/1" value="0" leadInLength="0/1"  />
               <InterpolatingParam id="1562" interp="linr"  time="-9999999/1" value="0" leadInLength="0/1"  />
              </VectorParam>
              <InterpolatingParam id="1563" interp="linr"  time="-9999999/1" value="1" leadInLength="0/1"  name="opacity"/>
              <InterpolatingParam id="1564" interp="linr"  time="0/1" value="0" leadInLength="0/1"  name="cursorOpacity"/>
              <InterpolatingParam id="1565" interp="linr"  time="0/1" value="0" leadInLength="0/1"  name="cursorScale"/>
             </Parameters>
             <Attributes>
              <Attribute id="1566" value="" name="ident"/>
             </Attributes>
             <ExtraData>
              <Entry key="ZoomPanBin">
               <ZoomPanBin id="1567"  >
                <ZoomPanKeyframes>
                 <ZoomPanKeyframe id="1568" timeRangeEnd="-9999999/1" timeRangeDuration="0/1" interpolaterName=""  />
                </ZoomPanKeyframes>
               </ZoomPanBin>
              </Entry>
              <Entry key="CursorEffectBin">
               <CursorEffectBin id="1569"  >
                <CursorEffectKeyframes>
                </CursorEffectKeyframes>
               </CursorEffectBin>
              </Entry>
             </ExtraData>
            </ScreenVMFile>
            <MetaData>
             <entry key="AutoAppliedSmartFocus" val="False"/>
             <entry key="WinSubProjectDisplayName" val=""/>
            </MetaData>
           </UnifiedMedia>
           <UnifiedMedia id="1570"  >
            <AMFile id="1571" start="2421" duration="384" scalar="1/1" mediaStart="5002/1" mediaDuration="384/1" trackNumber="1" src="4" channelNumber="0,1" >
             <Parameters>
              <InterpolatingParam id="1572" interp="linr"  time="0/1" value="1" leadInLength="0/1"  name="volume"/>
              <Parameter id="1573"  name="captions"/>
             </Parameters>
             <Attributes>
              <Attribute id="1574" value="" name="ident"/>
              <Attribute id="1575" value="44100" name="sampleRate"/>
              <Attribute id="1576" value="16" name="bitDepth"/>
              <Attribute id="1577" value="1" name="gain"/>
              <Attribute id="1578" value="0" name="mixToMono"/>
             </Attributes>
            </AMFile>
            <ScreenVMFile id="1579" start="2421" duration="384" scalar="1/1" mediaStart="5002/1" mediaDuration="384/1" trackNumber="0" src="4" >
             <Transformer>
              <VectorParam id="1580"  name="translation">
               <InterpolatingParam id="1581" interp="linr"  time="-9999999/1" value="0" leadInLength="0/1"  />
               <InterpolatingParam id="1582" interp="linr"  time="-9999999/1" value="0" leadInLength="0/1"  />
               <InterpolatingParam id="1583" interp="linr"  time="-9999999/1" value="0" leadInLength="0/1"  />
              </VectorParam>
              <VectorParam id="1584"  name="rotation">
               <InterpolatingParam id="1585" interp="linr"  time="-9999999/1" value="0" leadInLength="0/1"  />
               <InterpolatingParam id="1586" interp="linr"  time="-9999999/1" value="0" leadInLength="0/1"  />
               <InterpolatingParam id="1587" interp="linr"  time="-9999999/1" value="0" leadInLength="0/1"  />
              </VectorParam>
              <VectorParam id="1588"  name="shear">
               <InterpolatingParam id="1589" interp="linr"  time="-9999999/1" value="0" leadInLength="0/1"  />
               <InterpolatingParam id="1590" interp="linr"  time="-9999999/1" value="0" leadInLength="0/1"  />
               <InterpolatingParam id="1591" interp="linr"  time="-9999999/1" value="0" leadInLength="0/1"  />
              </VectorParam>
              <VectorParam id="1592"  name="scale">
               <InterpolatingParam id="1593" interp="linr"  time="-9999999/1" value="1" leadInLength="0/1"  />
               <InterpolatingParam id="1594" interp="linr"  time="-9999999/1" value="1" leadInLength="0/1"  />
               <InterpolatingParam id="1595" interp="linr"  time="-9999999/1" value="1" leadInLength="0/1"  />
              </VectorParam>
              <VectorParam id="1596"  name="anchor">
               <InterpolatingParam id="1597" interp="linr"  time="0/1" value="0" leadInLength="0/1"  />
               <InterpolatingParam id="1598" interp="linr"  time="0/1" value="0" leadInLength="0/1"  />
               <InterpolatingParam id="1599" interp="linr"  time="0/1" value="0" leadInLength="0/1"  />
              </VectorParam>
             </Transformer>
             <Parameters>
              <VectorParam id="1600"  name="sourceCrop">
               <InterpolatingParam id="1601" interp="linr"  time="0/1" value="0" leadInLength="0/1"  />
               <InterpolatingParam id="1602" interp="linr"  time="0/1" value="0" leadInLength="0/1"  />
               <InterpolatingParam id="1603" interp="linr"  time="0/1" value="0" leadInLength="0/1"  />
               <InterpolatingParam id="1604" interp="linr"  time="0/1" value="0" leadInLength="0/1"  />
              </VectorParam>
              <VectorParam id="1605"  name="geometryCrop">
               <InterpolatingParam id="1606" interp="linr"  time="-9999999/1" value="0" leadInLength="0/1"  />
               <InterpolatingParam id="1607" interp="linr"  time="-9999999/1" value="0" leadInLength="0/1"  />
               <InterpolatingParam id="1608" interp="linr"  time="-9999999/1" value="0" leadInLength="0/1"  />
               <InterpolatingParam id="1609" interp="linr"  time="-9999999/1" value="0" leadInLength="0/1"  />
              </VectorParam>
              <InterpolatingParam id="1610" interp="linr"  time="-9999999/1" value="1" leadInLength="0/1"  name="opacity"/>
              <InterpolatingParam id="1611" interp="linr"  time="0/1" value="0" leadInLength="0/1"  name="cursorOpacity"/>
              <InterpolatingParam id="1612" interp="linr"  time="0/1" value="0" leadInLength="0/1"  name="cursorScale"/>
             </Parameters>
             <Attributes>
              <Attribute id="1613" value="" name="ident"/>
             </Attributes>
             <ExtraData>
              <Entry key="ZoomPanBin">
               <ZoomPanBin id="1614"  >
                <ZoomPanKeyframes>
                 <ZoomPanKeyframe id="1615" timeRangeEnd="-9999999/1" timeRangeDuration="0/1" interpolaterName=""  />
                </ZoomPanKeyframes>
               </ZoomPanBin>
              </Entry>
              <Entry key="CursorEffectBin">
               <CursorEffectBin id="1616"  >
                <CursorEffectKeyframes>
                </CursorEffectKeyframes>
               </CursorEffectBin>
              </Entry>
             </ExtraData>
            </ScreenVMFile>
            <MetaData>
             <entry key="AutoAppliedSmartFocus" val="False"/>
             <entry key="WinSubProjectDisplayName" val=""/>
            </MetaData>
           </UnifiedMedia>
           <UnifiedMedia id="1617"  >
            <AMFile id="1618" start="2805" duration="122" scalar="1/1" mediaStart="5790/1" mediaDuration="122/1" trackNumber="1" src="4" channelNumber="0,1" >
             <Parameters>
              <InterpolatingParam id="1619" interp="linr"  time="0/1" value="1" leadInLength="0/1"  name="volume"/>
              <Parameter id="1620"  name="captions"/>
             </Parameters>
             <Attributes>
              <Attribute id="1621" value="" name="ident"/>
              <Attribute id="1622" value="44100" name="sampleRate"/>
              <Attribute id="1623" value="16" name="bitDepth"/>
              <Attribute id="1624" value="1" name="gain"/>
              <Attribute id="1625" value="0" name="mixToMono"/>
             </Attributes>
            </AMFile>
            <ScreenVMFile id="1626" start="2805" duration="122" scalar="1/1" mediaStart="5790/1" mediaDuration="122/1" trackNumber="0" src="4" >
             <Transformer>
              <VectorParam id="1627"  name="translation">
               <InterpolatingParam id="1628" interp="linr"  time="-9999999/1" value="0" leadInLength="0/1"  />
               <InterpolatingParam id="1629" interp="linr"  time="-9999999/1" value="0" leadInLength="0/1"  />
               <InterpolatingParam id="1630" interp="linr"  time="-9999999/1" value="0" leadInLength="0/1"  />
              </VectorParam>
              <VectorParam id="1631"  name="rotation">
               <InterpolatingParam id="1632" interp="linr"  time="-9999999/1" value="0" leadInLength="0/1"  />
               <InterpolatingParam id="1633" interp="linr"  time="-9999999/1" value="0" leadInLength="0/1"  />
               <InterpolatingParam id="1634" interp="linr"  time="-9999999/1" value="0" leadInLength="0/1"  />
              </VectorParam>
              <VectorParam id="1635"  name="shear">
               <InterpolatingParam id="1636" interp="linr"  time="-9999999/1" value="0" leadInLength="0/1"  />
               <InterpolatingParam id="1637" interp="linr"  time="-9999999/1" value="0" leadInLength="0/1"  />
               <InterpolatingParam id="1638" interp="linr"  time="-9999999/1" value="0" leadInLength="0/1"  />
              </VectorParam>
              <VectorParam id="1639"  name="scale">
               <InterpolatingParam id="1640" interp="linr"  time="-9999999/1" value="1" leadInLength="0/1"  />
               <InterpolatingParam id="1641" interp="linr"  time="-9999999/1" value="1" leadInLength="0/1"  />
               <InterpolatingParam id="1642" interp="linr"  time="-9999999/1" value="1" leadInLength="0/1"  />
              </VectorParam>
              <VectorParam id="1643"  name="anchor">
               <InterpolatingParam id="1644" interp="linr"  time="0/1" value="0" leadInLength="0/1"  />
               <InterpolatingParam id="1645" interp="linr"  time="0/1" value="0" leadInLength="0/1"  />
               <InterpolatingParam id="1646" interp="linr"  time="0/1" value="0" leadInLength="0/1"  />
              </VectorParam>
             </Transformer>
             <Parameters>
              <VectorParam id="1647"  name="sourceCrop">
               <InterpolatingParam id="1648" interp="linr"  time="0/1" value="0" leadInLength="0/1"  />
               <InterpolatingParam id="1649" interp="linr"  time="0/1" value="0" leadInLength="0/1"  />
               <InterpolatingParam id="1650" interp="linr"  time="0/1" value="0" leadInLength="0/1"  />
               <InterpolatingParam id="1651" interp="linr"  time="0/1" value="0" leadInLength="0/1"  />
              </VectorParam>
              <VectorParam id="1652"  name="geometryCrop">
               <InterpolatingParam id="1653" interp="linr"  time="-9999999/1" value="0" leadInLength="0/1"  />
               <InterpolatingParam id="1654" interp="linr"  time="-9999999/1" value="0" leadInLength="0/1"  />
               <InterpolatingParam id="1655" interp="linr"  time="-9999999/1" value="0" leadInLength="0/1"  />
               <InterpolatingParam id="1656" interp="linr"  time="-9999999/1" value="0" leadInLength="0/1"  />
              </VectorParam>
              <InterpolatingParam id="1657" interp="linr"  time="-9999999/1" value="1" leadInLength="0/1"  name="opacity"/>
              <InterpolatingParam id="1658" interp="linr"  time="0/1" value="0" leadInLength="0/1"  name="cursorOpacity"/>
              <InterpolatingParam id="1659" interp="linr"  time="0/1" value="0" leadInLength="0/1"  name="cursorScale"/>
             </Parameters>
             <Attributes>
              <Attribute id="1660" value="" name="ident"/>
             </Attributes>
             <ExtraData>
              <Entry key="ZoomPanBin">
               <ZoomPanBin id="1661"  >
                <ZoomPanKeyframes>
                 <ZoomPanKeyframe id="1662" timeRangeEnd="-9999999/1" timeRangeDuration="0/1" interpolaterName=""  />
                </ZoomPanKeyframes>
               </ZoomPanBin>
              </Entry>
              <Entry key="CursorEffectBin">
               <CursorEffectBin id="1663"  >
                <CursorEffectKeyframes>
                </CursorEffectKeyframes>
               </CursorEffectBin>
              </Entry>
             </ExtraData>
            </ScreenVMFile>
            <MetaData>
             <entry key="AutoAppliedSmartFocus" val="False"/>
             <entry key="WinSubProjectDisplayName" val=""/>
            </MetaData>
           </UnifiedMedia>
           <UnifiedMedia id="1664"  >
            <AMFile id="1665" start="2927" duration="128" scalar="1/1" mediaStart="5991/1" mediaDuration="128/1" trackNumber="1" src="4" channelNumber="0,1" >
             <Parameters>
              <InterpolatingParam id="1666" interp="linr"  time="0/1" value="1" leadInLength="0/1"  name="volume"/>
              <Parameter id="1667"  name="captions"/>
             </Parameters>
             <Attributes>
              <Attribute id="1668" value="" name="ident"/>
              <Attribute id="1669" value="44100" name="sampleRate"/>
              <Attribute id="1670" value="16" name="bitDepth"/>
              <Attribute id="1671" value="1" name="gain"/>
              <Attribute id="1672" value="0" name="mixToMono"/>
             </Attributes>
            </AMFile>
            <ScreenVMFile id="1673" start="2927" duration="128" scalar="1/1" mediaStart="5991/1" mediaDuration="128/1" trackNumber="0" src="4" >
             <Transformer>
              <VectorParam id="1674"  name="translation">
               <InterpolatingParam id="1675" interp="linr"  time="-9999999/1" value="0" leadInLength="0/1"  />
               <InterpolatingParam id="1676" interp="linr"  time="-9999999/1" value="0" leadInLength="0/1"  />
               <InterpolatingParam id="1677" interp="linr"  time="-9999999/1" value="0" leadInLength="0/1"  />
              </VectorParam>
              <VectorParam id="1678"  name="rotation">
               <InterpolatingParam id="1679" interp="linr"  time="-9999999/1" value="0" leadInLength="0/1"  />
               <InterpolatingParam id="1680" interp="linr"  time="-9999999/1" value="0" leadInLength="0/1"  />
               <InterpolatingParam id="1681" interp="linr"  time="-9999999/1" value="0" leadInLength="0/1"  />
              </VectorParam>
              <VectorParam id="1682"  name="shear">
               <InterpolatingParam id="1683" interp="linr"  time="-9999999/1" value="0" leadInLength="0/1"  />
               <InterpolatingParam id="1684" interp="linr"  time="-9999999/1" value="0" leadInLength="0/1"  />
               <InterpolatingParam id="1685" interp="linr"  time="-9999999/1" value="0" leadInLength="0/1"  />
              </VectorParam>
              <VectorParam id="1686"  name="scale">
               <InterpolatingParam id="1687" interp="linr"  time="-9999999/1" value="1" leadInLength="0/1"  />
               <InterpolatingParam id="1688" interp="linr"  time="-9999999/1" value="1" leadInLength="0/1"  />
               <InterpolatingParam id="1689" interp="linr"  time="-9999999/1" value="1" leadInLength="0/1"  />
              </VectorParam>
              <VectorParam id="1690"  name="anchor">
               <InterpolatingParam id="1691" interp="linr"  time="0/1" value="0" leadInLength="0/1"  />
               <InterpolatingParam id="1692" interp="linr"  time="0/1" value="0" leadInLength="0/1"  />
               <InterpolatingParam id="1693" interp="linr"  time="0/1" value="0" leadInLength="0/1"  />
              </VectorParam>
             </Transformer>
             <Parameters>
              <VectorParam id="1694"  name="sourceCrop">
               <InterpolatingParam id="1695" interp="linr"  time="0/1" value="0" leadInLength="0/1"  />
               <InterpolatingParam id="1696" interp="linr"  time="0/1" value="0" leadInLength="0/1"  />
               <InterpolatingParam id="1697" interp="linr"  time="0/1" value="0" leadInLength="0/1"  />
               <InterpolatingParam id="1698" interp="linr"  time="0/1" value="0" leadInLength="0/1"  />
              </VectorParam>
              <VectorParam id="1699"  name="geometryCrop">
               <InterpolatingParam id="1700" interp="linr"  time="-9999999/1" value="0" leadInLength="0/1"  />
               <InterpolatingParam id="1701" interp="linr"  time="-9999999/1" value="0" leadInLength="0/1"  />
               <InterpolatingParam id="1702" interp="linr"  time="-9999999/1" value="0" leadInLength="0/1"  />
               <InterpolatingParam id="1703" interp="linr"  time="-9999999/1" value="0" leadInLength="0/1"  />
              </VectorParam>
              <InterpolatingParam id="1704" interp="linr"  time="-9999999/1" value="1" leadInLength="0/1"  name="opacity"/>
              <InterpolatingParam id="1705" interp="linr"  time="0/1" value="0" leadInLength="0/1"  name="cursorOpacity"/>
              <InterpolatingParam id="1706" interp="linr"  time="0/1" value="0" leadInLength="0/1"  name="cursorScale"/>
             </Parameters>
             <Attributes>
              <Attribute id="1707" value="" name="ident"/>
             </Attributes>
             <ExtraData>
              <Entry key="ZoomPanBin">
               <ZoomPanBin id="1708"  >
                <ZoomPanKeyframes>
                 <ZoomPanKeyframe id="1709" timeRangeEnd="-9999999/1" timeRangeDuration="0/1" interpolaterName=""  />
                </ZoomPanKeyframes>
               </ZoomPanBin>
              </Entry>
              <Entry key="CursorEffectBin">
               <CursorEffectBin id="1710"  >
                <CursorEffectKeyframes>
                </CursorEffectKeyframes>
               </CursorEffectBin>
              </Entry>
             </ExtraData>
            </ScreenVMFile>
            <MetaData>
             <entry key="AutoAppliedSmartFocus" val="False"/>
             <entry key="WinSubProjectDisplayName" val=""/>
            </MetaData>
           </UnifiedMedia>
           <UnifiedMedia id="1711"  >
            <AMFile id="1712" start="3055" duration="119" scalar="1/1" mediaStart="6242/1" mediaDuration="119/1" trackNumber="1" src="4" channelNumber="0,1" >
             <Parameters>
              <InterpolatingParam id="1713" interp="linr"  time="0/1" value="1" leadInLength="0/1"  name="volume"/>
              <Parameter id="1714"  name="captions"/>
             </Parameters>
             <Attributes>
              <Attribute id="1715" value="" name="ident"/>
              <Attribute id="1716" value="44100" name="sampleRate"/>
              <Attribute id="1717" value="16" name="bitDepth"/>
              <Attribute id="1718" value="1" name="gain"/>
              <Attribute id="1719" value="0" name="mixToMono"/>
             </Attributes>
            </AMFile>
            <ScreenVMFile id="1720" start="3055" duration="119" scalar="1/1" mediaStart="6242/1" mediaDuration="119/1" trackNumber="0" src="4" >
             <Transformer>
              <VectorParam id="1721"  name="translation">
               <InterpolatingParam id="1722" interp="linr"  time="-9999999/1" value="0" leadInLength="0/1"  />
               <InterpolatingParam id="1723" interp="linr"  time="-9999999/1" value="0" leadInLength="0/1"  />
               <InterpolatingParam id="1724" interp="linr"  time="-9999999/1" value="0" leadInLength="0/1"  />
              </VectorParam>
              <VectorParam id="1725"  name="rotation">
               <InterpolatingParam id="1726" interp="linr"  time="-9999999/1" value="0" leadInLength="0/1"  />
               <InterpolatingParam id="1727" interp="linr"  time="-9999999/1" value="0" leadInLength="0/1"  />
               <InterpolatingParam id="1728" interp="linr"  time="-9999999/1" value="0" leadInLength="0/1"  />
              </VectorParam>
              <VectorParam id="1729"  name="shear">
               <InterpolatingParam id="1730" interp="linr"  time="-9999999/1" value="0" leadInLength="0/1"  />
               <InterpolatingParam id="1731" interp="linr"  time="-9999999/1" value="0" leadInLength="0/1"  />
               <InterpolatingParam id="1732" interp="linr"  time="-9999999/1" value="0" leadInLength="0/1"  />
              </VectorParam>
              <VectorParam id="1733"  name="scale">
               <InterpolatingParam id="1734" interp="linr"  time="-9999999/1" value="1" leadInLength="0/1"  />
               <InterpolatingParam id="1735" interp="linr"  time="-9999999/1" value="1" leadInLength="0/1"  />
               <InterpolatingParam id="1736" interp="linr"  time="-9999999/1" value="1" leadInLength="0/1"  />
              </VectorParam>
              <VectorParam id="1737"  name="anchor">
               <InterpolatingParam id="1738" interp="linr"  time="0/1" value="0" leadInLength="0/1"  />
               <InterpolatingParam id="1739" interp="linr"  time="0/1" value="0" leadInLength="0/1"  />
               <InterpolatingParam id="1740" interp="linr"  time="0/1" value="0" leadInLength="0/1"  />
              </VectorParam>
             </Transformer>
             <Parameters>
              <VectorParam id="1741"  name="sourceCrop">
               <InterpolatingParam id="1742" interp="linr"  time="0/1" value="0" leadInLength="0/1"  />
               <InterpolatingParam id="1743" interp="linr"  time="0/1" value="0" leadInLength="0/1"  />
               <InterpolatingParam id="1744" interp="linr"  time="0/1" value="0" leadInLength="0/1"  />
               <InterpolatingParam id="1745" interp="linr"  time="0/1" value="0" leadInLength="0/1"  />
              </VectorParam>
              <VectorParam id="1746"  name="geometryCrop">
               <InterpolatingParam id="1747" interp="linr"  time="-9999999/1" value="0" leadInLength="0/1"  />
               <InterpolatingParam id="1748" interp="linr"  time="-9999999/1" value="0" leadInLength="0/1"  />
               <InterpolatingParam id="1749" interp="linr"  time="-9999999/1" value="0" leadInLength="0/1"  />
               <InterpolatingParam id="1750" interp="linr"  time="-9999999/1" value="0" leadInLength="0/1"  />
              </VectorParam>
              <InterpolatingParam id="1751" interp="linr"  time="-9999999/1" value="1" leadInLength="0/1"  name="opacity"/>
              <InterpolatingParam id="1752" interp="linr"  time="0/1" value="0" leadInLength="0/1"  name="cursorOpacity"/>
              <InterpolatingParam id="1753" interp="linr"  time="0/1" value="0" leadInLength="0/1"  name="cursorScale"/>
             </Parameters>
             <Attributes>
              <Attribute id="1754" value="" name="ident"/>
             </Attributes>
             <ExtraData>
              <Entry key="ZoomPanBin">
               <ZoomPanBin id="1755"  >
                <ZoomPanKeyframes>
                 <ZoomPanKeyframe id="1756" timeRangeEnd="-9999999/1" timeRangeDuration="0/1" interpolaterName=""  />
                </ZoomPanKeyframes>
               </ZoomPanBin>
              </Entry>
              <Entry key="CursorEffectBin">
               <CursorEffectBin id="1757"  >
                <CursorEffectKeyframes>
                </CursorEffectKeyframes>
               </CursorEffectBin>
              </Entry>
             </ExtraData>
            </ScreenVMFile>
            <MetaData>
             <entry key="AutoAppliedSmartFocus" val="False"/>
             <entry key="WinSubProjectDisplayName" val=""/>
            </MetaData>
           </UnifiedMedia>
           <UnifiedMedia id="1758"  >
            <AMFile id="1759" start="3174" duration="25" scalar="1/1" mediaStart="6370/1" mediaDuration="25/1" trackNumber="1" src="4" channelNumber="0,1" >
             <Parameters>
              <InterpolatingParam id="1760" interp="linr"  time="0/1" value="1" leadInLength="0/1"  name="volume"/>
              <Parameter id="1761"  name="captions"/>
             </Parameters>
             <Attributes>
              <Attribute id="1762" value="" name="ident"/>
              <Attribute id="1763" value="44100" name="sampleRate"/>
              <Attribute id="1764" value="16" name="bitDepth"/>
              <Attribute id="1765" value="1" name="gain"/>
              <Attribute id="1766" value="0" name="mixToMono"/>
             </Attributes>
            </AMFile>
            <ScreenVMFile id="1767" start="3174" duration="25" scalar="1/1" mediaStart="6370/1" mediaDuration="25/1" trackNumber="0" src="4" >
             <Transformer>
              <VectorParam id="1768"  name="translation">
               <InterpolatingParam id="1769" interp="linr"  time="-9999999/1" value="0" leadInLength="0/1"  />
               <InterpolatingParam id="1770" interp="linr"  time="-9999999/1" value="0" leadInLength="0/1"  />
               <InterpolatingParam id="1771" interp="linr"  time="-9999999/1" value="0" leadInLength="0/1"  />
              </VectorParam>
              <VectorParam id="1772"  name="rotation">
               <InterpolatingParam id="1773" interp="linr"  time="-9999999/1" value="0" leadInLength="0/1"  />
               <InterpolatingParam id="1774" interp="linr"  time="-9999999/1" value="0" leadInLength="0/1"  />
               <InterpolatingParam id="1775" interp="linr"  time="-9999999/1" value="0" leadInLength="0/1"  />
              </VectorParam>
              <VectorParam id="1776"  name="shear">
               <InterpolatingParam id="1777" interp="linr"  time="-9999999/1" value="0" leadInLength="0/1"  />
               <InterpolatingParam id="1778" interp="linr"  time="-9999999/1" value="0" leadInLength="0/1"  />
               <InterpolatingParam id="1779" interp="linr"  time="-9999999/1" value="0" leadInLength="0/1"  />
              </VectorParam>
              <VectorParam id="1780"  name="scale">
               <InterpolatingParam id="1781" interp="linr"  time="-9999999/1" value="1" leadInLength="0/1"  />
               <InterpolatingParam id="1782" interp="linr"  time="-9999999/1" value="1" leadInLength="0/1"  />
               <InterpolatingParam id="1783" interp="linr"  time="-9999999/1" value="1" leadInLength="0/1"  />
              </VectorParam>
              <VectorParam id="1784"  name="anchor">
               <InterpolatingParam id="1785" interp="linr"  time="0/1" value="0" leadInLength="0/1"  />
               <InterpolatingParam id="1786" interp="linr"  time="0/1" value="0" leadInLength="0/1"  />
               <InterpolatingParam id="1787" interp="linr"  time="0/1" value="0" leadInLength="0/1"  />
              </VectorParam>
             </Transformer>
             <Parameters>
              <VectorParam id="1788"  name="sourceCrop">
               <InterpolatingParam id="1789" interp="linr"  time="0/1" value="0" leadInLength="0/1"  />
               <InterpolatingParam id="1790" interp="linr"  time="0/1" value="0" leadInLength="0/1"  />
               <InterpolatingParam id="1791" interp="linr"  time="0/1" value="0" leadInLength="0/1"  />
               <InterpolatingParam id="1792" interp="linr"  time="0/1" value="0" leadInLength="0/1"  />
              </VectorParam>
              <VectorParam id="1793"  name="geometryCrop">
               <InterpolatingParam id="1794" interp="linr"  time="-9999999/1" value="0" leadInLength="0/1"  />
               <InterpolatingParam id="1795" interp="linr"  time="-9999999/1" value="0" leadInLength="0/1"  />
               <InterpolatingParam id="1796" interp="linr"  time="-9999999/1" value="0" leadInLength="0/1"  />
               <InterpolatingParam id="1797" interp="linr"  time="-9999999/1" value="0" leadInLength="0/1"  />
              </VectorParam>
              <InterpolatingParam id="1798" interp="linr"  time="-9999999/1" value="1" leadInLength="0/1"  name="opacity"/>
              <InterpolatingParam id="1799" interp="linr"  time="0/1" value="0" leadInLength="0/1"  name="cursorOpacity"/>
              <InterpolatingParam id="1800" interp="linr"  time="0/1" value="0" leadInLength="0/1"  name="cursorScale"/>
             </Parameters>
             <Attributes>
              <Attribute id="1801" value="" name="ident"/>
             </Attributes>
             <ExtraData>
              <Entry key="ZoomPanBin">
               <ZoomPanBin id="1802"  >
                <ZoomPanKeyframes>
                 <ZoomPanKeyframe id="1803" timeRangeEnd="-9999999/1" timeRangeDuration="0/1" interpolaterName=""  />
                </ZoomPanKeyframes>
               </ZoomPanBin>
              </Entry>
              <Entry key="CursorEffectBin">
               <CursorEffectBin id="1804"  >
                <CursorEffectKeyframes>
                </CursorEffectKeyframes>
               </CursorEffectBin>
              </Entry>
             </ExtraData>
            </ScreenVMFile>
            <MetaData>
             <entry key="AutoAppliedSmartFocus" val="False"/>
             <entry key="WinSubProjectDisplayName" val=""/>
            </MetaData>
           </UnifiedMedia>
           <UnifiedMedia id="1805"  >
            <AMFile id="1806" start="3199" duration="142" scalar="1/1" mediaStart="6884/1" mediaDuration="142/1" trackNumber="1" src="4" channelNumber="0,1" >
             <Parameters>
              <InterpolatingParam id="1807" interp="linr"  time="0/1" value="1" leadInLength="0/1"  name="volume"/>
              <Parameter id="1808"  name="captions"/>
             </Parameters>
             <Attributes>
              <Attribute id="1809" value="" name="ident"/>
              <Attribute id="1810" value="44100" name="sampleRate"/>
              <Attribute id="1811" value="16" name="bitDepth"/>
              <Attribute id="1812" value="1" name="gain"/>
              <Attribute id="1813" value="0" name="mixToMono"/>
             </Attributes>
            </AMFile>
            <ScreenVMFile id="1814" start="3199" duration="142" scalar="1/1" mediaStart="6884/1" mediaDuration="142/1" trackNumber="0" src="4" >
             <Transformer>
              <VectorParam id="1815"  name="translation">
               <InterpolatingParam id="1816" interp="linr"  time="-9999999/1" value="0" leadInLength="0/1"  />
               <InterpolatingParam id="1817" interp="linr"  time="-9999999/1" value="0" leadInLength="0/1"  />
               <InterpolatingParam id="1818" interp="linr"  time="-9999999/1" value="0" leadInLength="0/1"  />
              </VectorParam>
              <VectorParam id="1819"  name="rotation">
               <InterpolatingParam id="1820" interp="linr"  time="-9999999/1" value="0" leadInLength="0/1"  />
               <InterpolatingParam id="1821" interp="linr"  time="-9999999/1" value="0" leadInLength="0/1"  />
               <InterpolatingParam id="1822" interp="linr"  time="-9999999/1" value="0" leadInLength="0/1"  />
              </VectorParam>
              <VectorParam id="1823"  name="shear">
               <InterpolatingParam id="1824" interp="linr"  time="-9999999/1" value="0" leadInLength="0/1"  />
               <InterpolatingParam id="1825" interp="linr"  time="-9999999/1" value="0" leadInLength="0/1"  />
               <InterpolatingParam id="1826" interp="linr"  time="-9999999/1" value="0" leadInLength="0/1"  />
              </VectorParam>
              <VectorParam id="1827"  name="scale">
               <InterpolatingParam id="1828" interp="linr"  time="-9999999/1" value="1" leadInLength="0/1"  />
               <InterpolatingParam id="1829" interp="linr"  time="-9999999/1" value="1" leadInLength="0/1"  />
               <InterpolatingParam id="1830" interp="linr"  time="-9999999/1" value="1" leadInLength="0/1"  />
              </VectorParam>
              <VectorParam id="1831"  name="anchor">
               <InterpolatingParam id="1832" interp="linr"  time="0/1" value="0" leadInLength="0/1"  />
               <InterpolatingParam id="1833" interp="linr"  time="0/1" value="0" leadInLength="0/1"  />
               <InterpolatingParam id="1834" interp="linr"  time="0/1" value="0" leadInLength="0/1"  />
              </VectorParam>
             </Transformer>
             <Parameters>
              <VectorParam id="1835"  name="sourceCrop">
               <InterpolatingParam id="1836" interp="linr"  time="0/1" value="0" leadInLength="0/1"  />
               <InterpolatingParam id="1837" interp="linr"  time="0/1" value="0" leadInLength="0/1"  />
               <InterpolatingParam id="1838" interp="linr"  time="0/1" value="0" leadInLength="0/1"  />
               <InterpolatingParam id="1839" interp="linr"  time="0/1" value="0" leadInLength="0/1"  />
              </VectorParam>
              <VectorParam id="1840"  name="geometryCrop">
               <InterpolatingParam id="1841" interp="linr"  time="-9999999/1" value="0" leadInLength="0/1"  />
               <InterpolatingParam id="1842" interp="linr"  time="-9999999/1" value="0" leadInLength="0/1"  />
               <InterpolatingParam id="1843" interp="linr"  time="-9999999/1" value="0" leadInLength="0/1"  />
               <InterpolatingParam id="1844" interp="linr"  time="-9999999/1" value="0" leadInLength="0/1"  />
              </VectorParam>
              <InterpolatingParam id="1845" interp="linr"  time="-9999999/1" value="1" leadInLength="0/1"  name="opacity"/>
              <InterpolatingParam id="1846" interp="linr"  time="0/1" value="0" leadInLength="0/1"  name="cursorOpacity"/>
              <InterpolatingParam id="1847" interp="linr"  time="0/1" value="0" leadInLength="0/1"  name="cursorScale"/>
             </Parameters>
             <Attributes>
              <Attribute id="1848" value="" name="ident"/>
             </Attributes>
             <ExtraData>
              <Entry key="ZoomPanBin">
               <ZoomPanBin id="1849"  >
                <ZoomPanKeyframes>
                 <ZoomPanKeyframe id="1850" timeRangeEnd="-9999999/1" timeRangeDuration="0/1" interpolaterName=""  />
                </ZoomPanKeyframes>
               </ZoomPanBin>
              </Entry>
              <Entry key="CursorEffectBin">
               <CursorEffectBin id="1851"  >
                <CursorEffectKeyframes>
                </CursorEffectKeyframes>
               </CursorEffectBin>
              </Entry>
             </ExtraData>
            </ScreenVMFile>
            <MetaData>
             <entry key="AutoAppliedSmartFocus" val="False"/>
             <entry key="WinSubProjectDisplayName" val=""/>
            </MetaData>
           </UnifiedMedia>
           <UnifiedMedia id="1852"  >
            <AMFile id="1853" start="3341" duration="74" scalar="1/1" mediaStart="7037/1" mediaDuration="74/1" trackNumber="1" src="4" channelNumber="0,1" >
             <Parameters>
              <InterpolatingParam id="1854" interp="linr"  time="0/1" value="1" leadInLength="0/1"  name="volume"/>
              <Parameter id="1855"  name="captions"/>
             </Parameters>
             <Attributes>
              <Attribute id="1856" value="" name="ident"/>
              <Attribute id="1857" value="44100" name="sampleRate"/>
              <Attribute id="1858" value="16" name="bitDepth"/>
              <Attribute id="1859" value="1" name="gain"/>
              <Attribute id="1860" value="0" name="mixToMono"/>
             </Attributes>
            </AMFile>
            <ScreenVMFile id="1861" start="3341" duration="74" scalar="1/1" mediaStart="7037/1" mediaDuration="74/1" trackNumber="0" src="4" >
             <Transformer>
              <VectorParam id="1862"  name="translation">
               <InterpolatingParam id="1863" interp="linr"  time="-9999999/1" value="0" leadInLength="0/1"  />
               <InterpolatingParam id="1864" interp="linr"  time="-9999999/1" value="0" leadInLength="0/1"  />
               <InterpolatingParam id="1865" interp="linr"  time="-9999999/1" value="0" leadInLength="0/1"  />
              </VectorParam>
              <VectorParam id="1866"  name="rotation">
               <InterpolatingParam id="1867" interp="linr"  time="-9999999/1" value="0" leadInLength="0/1"  />
               <InterpolatingParam id="1868" interp="linr"  time="-9999999/1" value="0" leadInLength="0/1"  />
               <InterpolatingParam id="1869" interp="linr"  time="-9999999/1" value="0" leadInLength="0/1"  />
              </VectorParam>
              <VectorParam id="1870"  name="shear">
               <InterpolatingParam id="1871" interp="linr"  time="-9999999/1" value="0" leadInLength="0/1"  />
               <InterpolatingParam id="1872" interp="linr"  time="-9999999/1" value="0" leadInLength="0/1"  />
               <InterpolatingParam id="1873" interp="linr"  time="-9999999/1" value="0" leadInLength="0/1"  />
              </VectorParam>
              <VectorParam id="1874"  name="scale">
               <InterpolatingParam id="1875" interp="linr"  time="-9999999/1" value="1" leadInLength="0/1"  />
               <InterpolatingParam id="1876" interp="linr"  time="-9999999/1" value="1" leadInLength="0/1"  />
               <InterpolatingParam id="1877" interp="linr"  time="-9999999/1" value="1" leadInLength="0/1"  />
              </VectorParam>
              <VectorParam id="1878"  name="anchor">
               <InterpolatingParam id="1879" interp="linr"  time="0/1" value="0" leadInLength="0/1"  />
               <InterpolatingParam id="1880" interp="linr"  time="0/1" value="0" leadInLength="0/1"  />
               <InterpolatingParam id="1881" interp="linr"  time="0/1" value="0" leadInLength="0/1"  />
              </VectorParam>
             </Transformer>
             <Parameters>
              <VectorParam id="1882"  name="sourceCrop">
               <InterpolatingParam id="1883" interp="linr"  time="0/1" value="0" leadInLength="0/1"  />
               <InterpolatingParam id="1884" interp="linr"  time="0/1" value="0" leadInLength="0/1"  />
               <InterpolatingParam id="1885" interp="linr"  time="0/1" value="0" leadInLength="0/1"  />
               <InterpolatingParam id="1886" interp="linr"  time="0/1" value="0" leadInLength="0/1"  />
              </VectorParam>
              <VectorParam id="1887"  name="geometryCrop">
               <InterpolatingParam id="1888" interp="linr"  time="-9999999/1" value="0" leadInLength="0/1"  />
               <InterpolatingParam id="1889" interp="linr"  time="-9999999/1" value="0" leadInLength="0/1"  />
               <InterpolatingParam id="1890" interp="linr"  time="-9999999/1" value="0" leadInLength="0/1"  />
               <InterpolatingParam id="1891" interp="linr"  time="-9999999/1" value="0" leadInLength="0/1"  />
              </VectorParam>
              <InterpolatingParam id="1892" interp="linr"  time="-9999999/1" value="1" leadInLength="0/1"  name="opacity"/>
              <InterpolatingParam id="1893" interp="linr"  time="0/1" value="0" leadInLength="0/1"  name="cursorOpacity"/>
              <InterpolatingParam id="1894" interp="linr"  time="0/1" value="0" leadInLength="0/1"  name="cursorScale"/>
             </Parameters>
             <Attributes>
              <Attribute id="1895" value="" name="ident"/>
             </Attributes>
             <ExtraData>
              <Entry key="ZoomPanBin">
               <ZoomPanBin id="1896"  >
                <ZoomPanKeyframes>
                 <ZoomPanKeyframe id="1897" timeRangeEnd="-9999999/1" timeRangeDuration="0/1" interpolaterName=""  />
                </ZoomPanKeyframes>
               </ZoomPanBin>
              </Entry>
              <Entry key="CursorEffectBin">
               <CursorEffectBin id="1898"  >
                <CursorEffectKeyframes>
                </CursorEffectKeyframes>
               </CursorEffectBin>
              </Entry>
             </ExtraData>
            </ScreenVMFile>
            <MetaData>
             <entry key="AutoAppliedSmartFocus" val="False"/>
             <entry key="WinSubProjectDisplayName" val=""/>
            </MetaData>
           </UnifiedMedia>
           <UnifiedMedia id="1899"  >
            <AMFile id="1900" start="3415" duration="44" scalar="1/1" mediaStart="7117/1" mediaDuration="44/1" trackNumber="1" src="4" channelNumber="0,1" >
             <Parameters>
              <InterpolatingParam id="1901" interp="linr"  time="0/1" value="1" leadInLength="0/1"  name="volume"/>
              <Parameter id="1902"  name="captions"/>
             </Parameters>
             <Attributes>
              <Attribute id="1903" value="" name="ident"/>
              <Attribute id="1904" value="44100" name="sampleRate"/>
              <Attribute id="1905" value="16" name="bitDepth"/>
              <Attribute id="1906" value="1" name="gain"/>
              <Attribute id="1907" value="0" name="mixToMono"/>
             </Attributes>
            </AMFile>
            <ScreenVMFile id="1908" start="3415" duration="44" scalar="1/1" mediaStart="7117/1" mediaDuration="44/1" trackNumber="0" src="4" >
             <Transformer>
              <VectorParam id="1909"  name="translation">
               <InterpolatingParam id="1910" interp="linr"  time="-9999999/1" value="0" leadInLength="0/1"  />
               <InterpolatingParam id="1911" interp="linr"  time="-9999999/1" value="0" leadInLength="0/1"  />
               <InterpolatingParam id="1912" interp="linr"  time="-9999999/1" value="0" leadInLength="0/1"  />
              </VectorParam>
              <VectorParam id="1913"  name="rotation">
               <InterpolatingParam id="1914" interp="linr"  time="-9999999/1" value="0" leadInLength="0/1"  />
               <InterpolatingParam id="1915" interp="linr"  time="-9999999/1" value="0" leadInLength="0/1"  />
               <InterpolatingParam id="1916" interp="linr"  time="-9999999/1" value="0" leadInLength="0/1"  />
              </VectorParam>
              <VectorParam id="1917"  name="shear">
               <InterpolatingParam id="1918" interp="linr"  time="-9999999/1" value="0" leadInLength="0/1"  />
               <InterpolatingParam id="1919" interp="linr"  time="-9999999/1" value="0" leadInLength="0/1"  />
               <InterpolatingParam id="1920" interp="linr"  time="-9999999/1" value="0" leadInLength="0/1"  />
              </VectorParam>
              <VectorParam id="1921"  name="scale">
               <InterpolatingParam id="1922" interp="linr"  time="-9999999/1" value="1" leadInLength="0/1"  />
               <InterpolatingParam id="1923" interp="linr"  time="-9999999/1" value="1" leadInLength="0/1"  />
               <InterpolatingParam id="1924" interp="linr"  time="-9999999/1" value="1" leadInLength="0/1"  />
              </VectorParam>
              <VectorParam id="1925"  name="anchor">
               <InterpolatingParam id="1926" interp="linr"  time="0/1" value="0" leadInLength="0/1"  />
               <InterpolatingParam id="1927" interp="linr"  time="0/1" value="0" leadInLength="0/1"  />
               <InterpolatingParam id="1928" interp="linr"  time="0/1" value="0" leadInLength="0/1"  />
              </VectorParam>
             </Transformer>
             <Parameters>
              <VectorParam id="1929"  name="sourceCrop">
               <InterpolatingParam id="1930" interp="linr"  time="0/1" value="0" leadInLength="0/1"  />
               <InterpolatingParam id="1931" interp="linr"  time="0/1" value="0" leadInLength="0/1"  />
               <InterpolatingParam id="1932" interp="linr"  time="0/1" value="0" leadInLength="0/1"  />
               <InterpolatingParam id="1933" interp="linr"  time="0/1" value="0" leadInLength="0/1"  />
              </VectorParam>
              <VectorParam id="1934"  name="geometryCrop">
               <InterpolatingParam id="1935" interp="linr"  time="-9999999/1" value="0" leadInLength="0/1"  />
               <InterpolatingParam id="1936" interp="linr"  time="-9999999/1" value="0" leadInLength="0/1"  />
               <InterpolatingParam id="1937" interp="linr"  time="-9999999/1" value="0" leadInLength="0/1"  />
               <InterpolatingParam id="1938" interp="linr"  time="-9999999/1" value="0" leadInLength="0/1"  />
              </VectorParam>
              <InterpolatingParam id="1939" interp="linr"  time="-9999999/1" value="1" leadInLength="0/1"  name="opacity"/>
              <InterpolatingParam id="1940" interp="linr"  time="0/1" value="0" leadInLength="0/1"  name="cursorOpacity"/>
              <InterpolatingParam id="1941" interp="linr"  time="0/1" value="0" leadInLength="0/1"  name="cursorScale"/>
             </Parameters>
             <Attributes>
              <Attribute id="1942" value="" name="ident"/>
             </Attributes>
             <ExtraData>
              <Entry key="ZoomPanBin">
               <ZoomPanBin id="1943"  >
                <ZoomPanKeyframes>
                 <ZoomPanKeyframe id="1944" timeRangeEnd="-9999999/1" timeRangeDuration="0/1" interpolaterName=""  />
                </ZoomPanKeyframes>
               </ZoomPanBin>
              </Entry>
              <Entry key="CursorEffectBin">
               <CursorEffectBin id="1945"  >
                <CursorEffectKeyframes>
                </CursorEffectKeyframes>
               </CursorEffectBin>
              </Entry>
             </ExtraData>
            </ScreenVMFile>
            <MetaData>
             <entry key="AutoAppliedSmartFocus" val="False"/>
             <entry key="WinSubProjectDisplayName" val=""/>
            </MetaData>
           </UnifiedMedia>
           <UnifiedMedia id="1946"  >
            <AMFile id="1947" start="3459" duration="4588" scalar="1/1" mediaStart="7171/1" mediaDuration="4588/1" trackNumber="1" src="4" channelNumber="0,1" >
             <Parameters>
              <InterpolatingParam id="1948" interp="linr"  time="0/1" value="1" leadInLength="0/1"  name="volume"/>
              <Parameter id="1949"  name="captions"/>
             </Parameters>
             <Attributes>
              <Attribute id="1950" value="" name="ident"/>
              <Attribute id="1951" value="44100" name="sampleRate"/>
              <Attribute id="1952" value="16" name="bitDepth"/>
              <Attribute id="1953" value="1" name="gain"/>
              <Attribute id="1954" value="0" name="mixToMono"/>
             </Attributes>
            </AMFile>
            <ScreenVMFile id="1955" start="3459" duration="4588" scalar="1/1" mediaStart="7171/1" mediaDuration="4588/1" trackNumber="0" src="4" >
             <Transformer>
              <VectorParam id="1956"  name="translation">
               <InterpolatingParam id="1957" interp="linr"  time="-9999999/1" value="0" leadInLength="0/1"  />
               <InterpolatingParam id="1958" interp="linr"  time="-9999999/1" value="0" leadInLength="0/1"  />
               <InterpolatingParam id="1959" interp="linr"  time="-9999999/1" value="0" leadInLength="0/1"  />
              </VectorParam>
              <VectorParam id="1960"  name="rotation">
               <InterpolatingParam id="1961" interp="linr"  time="-9999999/1" value="0" leadInLength="0/1"  />
               <InterpolatingParam id="1962" interp="linr"  time="-9999999/1" value="0" leadInLength="0/1"  />
               <InterpolatingParam id="1963" interp="linr"  time="-9999999/1" value="0" leadInLength="0/1"  />
              </VectorParam>
              <VectorParam id="1964"  name="shear">
               <InterpolatingParam id="1965" interp="linr"  time="-9999999/1" value="0" leadInLength="0/1"  />
               <InterpolatingParam id="1966" interp="linr"  time="-9999999/1" value="0" leadInLength="0/1"  />
               <InterpolatingParam id="1967" interp="linr"  time="-9999999/1" value="0" leadInLength="0/1"  />
              </VectorParam>
              <VectorParam id="1968"  name="scale">
               <InterpolatingParam id="1969" interp="linr"  time="-9999999/1" value="1" leadInLength="0/1"  />
               <InterpolatingParam id="1970" interp="linr"  time="-9999999/1" value="1" leadInLength="0/1"  />
               <InterpolatingParam id="1971" interp="linr"  time="-9999999/1" value="1" leadInLength="0/1"  />
              </VectorParam>
              <VectorParam id="1972"  name="anchor">
               <InterpolatingParam id="1973" interp="linr"  time="0/1" value="0" leadInLength="0/1"  />
               <InterpolatingParam id="1974" interp="linr"  time="0/1" value="0" leadInLength="0/1"  />
               <InterpolatingParam id="1975" interp="linr"  time="0/1" value="0" leadInLength="0/1"  />
              </VectorParam>
             </Transformer>
             <Parameters>
              <VectorParam id="1976"  name="sourceCrop">
               <InterpolatingParam id="1977" interp="linr"  time="0/1" value="0" leadInLength="0/1"  />
               <InterpolatingParam id="1978" interp="linr"  time="0/1" value="0" leadInLength="0/1"  />
               <InterpolatingParam id="1979" interp="linr"  time="0/1" value="0" leadInLength="0/1"  />
               <InterpolatingParam id="1980" interp="linr"  time="0/1" value="0" leadInLength="0/1"  />
              </VectorParam>
              <VectorParam id="1981"  name="geometryCrop">
               <InterpolatingParam id="1982" interp="linr"  time="-9999999/1" value="0" leadInLength="0/1"  />
               <InterpolatingParam id="1983" interp="linr"  time="-9999999/1" value="0" leadInLength="0/1"  />
               <InterpolatingParam id="1984" interp="linr"  time="-9999999/1" value="0" leadInLength="0/1"  />
               <InterpolatingParam id="1985" interp="linr"  time="-9999999/1" value="0" leadInLength="0/1"  />
              </VectorParam>
              <InterpolatingParam id="1986" interp="linr"  time="-9999999/1" value="1" leadInLength="0/1"  name="opacity"/>
              <InterpolatingParam id="1987" interp="linr"  time="0/1" value="0" leadInLength="0/1"  name="cursorOpacity"/>
              <InterpolatingParam id="1988" interp="linr"  time="0/1" value="0" leadInLength="0/1"  name="cursorScale"/>
             </Parameters>
             <Attributes>
              <Attribute id="1989" value="" name="ident"/>
             </Attributes>
             <ExtraData>
              <Entry key="ZoomPanBin">
               <ZoomPanBin id="1990"  >
                <ZoomPanKeyframes>
                 <ZoomPanKeyframe id="1991" timeRangeEnd="-9999999/1" timeRangeDuration="0/1" interpolaterName=""  />
                </ZoomPanKeyframes>
               </ZoomPanBin>
              </Entry>
              <Entry key="CursorEffectBin">
               <CursorEffectBin id="1992"  >
                <CursorEffectKeyframes>
                </CursorEffectKeyframes>
               </CursorEffectBin>
              </Entry>
             </ExtraData>
            </ScreenVMFile>
            <MetaData>
             <entry key="AutoAppliedSmartFocus" val="False"/>
             <entry key="WinSubProjectDisplayName" val=""/>
            </MetaData>
           </UnifiedMedia>
          </Medias>
         </GenericTrack>
        </StitchedMedia>
        <StitchedMedia id="1993" start="3342" duration="5478" scalar="1/1" mediaStart="135/1" mediaDuration="5478/1" minMediaStart="0/1" >
         <Transformer>
          <VectorParam id="1994"  name="translation">
           <InterpolatingParam id="1995" interp="linr"  time="-9999999/1" value="0" leadInLength="0/1"  />
           <InterpolatingParam id="1996" interp="linr"  time="-9999999/1" value="0" leadInLength="0/1"  />
           <InterpolatingParam id="1997" interp="linr"  time="-9999999/1" value="0" leadInLength="0/1"  />
          </VectorParam>
          <VectorParam id="1998"  name="rotation">
           <InterpolatingParam id="1999" interp="linr"  time="-9999999/1" value="0" leadInLength="0/1"  />
           <InterpolatingParam id="2000" interp="linr"  time="-9999999/1" value="0" leadInLength="0/1"  />
           <InterpolatingParam id="2001" interp="linr"  time="-9999999/1" value="0" leadInLength="0/1"  />
          </VectorParam>
          <VectorParam id="2002"  name="shear">
           <InterpolatingParam id="2003" interp="linr"  time="-9999999/1" value="0" leadInLength="0/1"  />
           <InterpolatingParam id="2004" interp="linr"  time="-9999999/1" value="0" leadInLength="0/1"  />
           <InterpolatingParam id="2005" interp="linr"  time="-9999999/1" value="0" leadInLength="0/1"  />
          </VectorParam>
          <VectorParam id="2006"  name="scale">
           <InterpolatingParam id="2007" interp="linr"  time="-9999999/1" value="1" leadInLength="0/1"  />
           <InterpolatingParam id="2008" interp="linr"  time="-9999999/1" value="1" leadInLength="0/1"  />
           <InterpolatingParam id="2009" interp="linr"  time="-9999999/1" value="1" leadInLength="0/1"  />
          </VectorParam>
          <VectorParam id="2010"  name="anchor">
           <InterpolatingParam id="2011" interp="linr"  time="0/1" value="0" leadInLength="0/1"  />
           <InterpolatingParam id="2012" interp="linr"  time="0/1" value="0" leadInLength="0/1"  />
           <InterpolatingParam id="2013" interp="linr"  time="0/1" value="0" leadInLength="0/1"  />
          </VectorParam>
         </Transformer>
         <Parameters>
          <VectorParam id="2014"  name="sourceCrop">
           <InterpolatingParam id="2015" interp="linr"  time="0/1" value="0" leadInLength="0/1"  />
           <InterpolatingParam id="2016" interp="linr"  time="0/1" value="0" leadInLength="0/1"  />
           <InterpolatingParam id="2017" interp="linr"  time="0/1" value="0" leadInLength="0/1"  />
           <InterpolatingParam id="2018" interp="linr"  time="0/1" value="0" leadInLength="0/1"  />
          </VectorParam>
          <VectorParam id="2019"  name="geometryCrop">
           <InterpolatingParam id="2020" interp="linr"  time="-9999999/1" value="0" leadInLength="0/1"  />
           <InterpolatingParam id="2021" interp="linr"  time="-9999999/1" value="0" leadInLength="0/1"  />
           <InterpolatingParam id="2022" interp="linr"  time="-9999999/1" value="0" leadInLength="0/1"  />
           <InterpolatingParam id="2023" interp="linr"  time="-9999999/1" value="0" leadInLength="0/1"  />
          </VectorParam>
          <InterpolatingParam id="2024" interp="linr"  time="-9999999/1" value="1" leadInLength="0/1"  name="opacity"/>
          <InterpolatingParam id="2025" interp="linr"  time="0/1" value="1" leadInLength="0/1"  name="cursorOpacity"/>
          <InterpolatingParam id="2026" interp="linr"  time="0/1" value="1" leadInLength="0/1"  name="cursorScale"/>
          <InterpolatingParam id="2027" interp="linr"  time="0/1" value="1.5625" leadInLength="0/1"  name="volume"/>
          <Parameter id="2028"  name="captions"/>
         </Parameters>
         <Effects>
          <GenericEffect id="2029" name = "CursorBaseEffectName" >
           <Parameters>
           <InterpolatingParam id="2030" interp="linr"  time="-9999999/1" value="1" leadInLength="0/1"   name="cursorSize"/>
           <InterpolatingParam id="2031" interp="linr"  time="-9999999/1" value="0" leadInLength="0/1"   name="highlightBlurRadius"/>
           <InterpolatingParam id="2032" interp="linr"  time="-9999999/1" value="0" leadInLength="0/1"   name="highlightColorBlue"/>
           <InterpolatingParam id="2033" interp="linr"  time="-9999999/1" value="255" leadInLength="0/1"   name="highlightColorGreen"/>
           <InterpolatingParam id="2034" interp="linr"  time="-9999999/1" value="255" leadInLength="0/1"   name="highlightColorRed"/>
           <InterpolatingParam id="2035" interp="linr"  time="-9999999/1" value="5" leadInLength="0/1"   name="highlightFeatherSize"/>
           <InterpolatingParam id="2036" interp="linr"  time="-9999999/1" value="2" leadInLength="0/1"   name="highlightMagnification"/>
           <InterpolatingParam id="2037" interp="linr"  time="-9999999/1" value="1" leadInLength="0/1"   name="highlightOpacity"/>
           <InterpolatingParam id="2038" interp="linr"  time="-9999999/1" value="45" leadInLength="0/1"   name="highlightSize"/>
           <Parameter id="2039"   name="highlightType">
            <Keyframes>
            <Keyframe id="2040"  time="-9999999/1" value="0" leadInLength="0/1"  />
            </Keyframes>
           </Parameter>
           <InterpolatingParam id="2041" interp="linr"  time="-9999999/1" value="0" leadInLength="0/1"   name="leftClickColorBlue"/>
           <InterpolatingParam id="2042" interp="linr"  time="-9999999/1" value="0" leadInLength="0/1"   name="leftClickColorGreen"/>
           <InterpolatingParam id="2043" interp="linr"  time="-9999999/1" value="255" leadInLength="0/1"   name="leftClickColorRed"/>
           <InterpolatingParam id="2044" interp="linr"  time="-9999999/1" value="0.80000000000000004" leadInLength="0/1"   name="leftClickDuration"/>
           <InterpolatingParam id="2045" interp="linr"  time="-9999999/1" value="20" leadInLength="0/1"   name="leftClickSize"/>
           <Parameter id="2046"   name="leftClickSoundFilename">
            <Keyframes>
            <Keyframe id="2047"  time="-9999999/1" value="" leadInLength="0/1"  />
            </Keyframes>
           </Parameter>
           <InterpolatingParam id="2048" interp="linr"  time="-9999999/1" value="1" leadInLength="0/1"   name="leftClickSoundVolume"/>
           <Parameter id="2049"   name="leftClickType">
            <Keyframes>
            <Keyframe id="2050"  time="-9999999/1" value="0" leadInLength="0/1"  />
            </Keyframes>
           </Parameter>
           <InterpolatingParam id="2051" interp="linr"  time="-9999999/1" value="1" leadInLength="0/1"   name="opacity"/>
           <InterpolatingParam id="2052" interp="linr"  time="-9999999/1" value="255" leadInLength="0/1"   name="rightClickColorBlue"/>
           <InterpolatingParam id="2053" interp="linr"  time="-9999999/1" value="0" leadInLength="0/1"   name="rightClickColorGreen"/>
           <InterpolatingParam id="2054" interp="linr"  time="-9999999/1" value="0" leadInLength="0/1"   name="rightClickColorRed"/>
           <InterpolatingParam id="2055" interp="linr"  time="-9999999/1" value="0.80000000000000004" leadInLength="0/1"   name="rightClickDuration"/>
           <InterpolatingParam id="2056" interp="linr"  time="-9999999/1" value="20" leadInLength="0/1"   name="rightClickSize"/>
           <Parameter id="2057"   name="rightClickSoundFilename">
            <Keyframes>
            <Keyframe id="2058"  time="-9999999/1" value="" leadInLength="0/1"  />
            </Keyframes>
           </Parameter>
           <InterpolatingParam id="2059" interp="linr"  time="-9999999/1" value="1" leadInLength="0/1"   name="rightClickSoundVolume"/>
           <Parameter id="2060"   name="rightClickType">
            <Keyframes>
            <Keyframe id="2061"  time="-9999999/1" value="0" leadInLength="0/1"  />
            </Keyframes>
           </Parameter>
           </Parameters>
           <MetaData>
            <entry key="effectIndex" val="0"/>
           </MetaData>
          </GenericEffect>
          <GenericEffect id="2062" name = "WinCompression" >
           <Parameters>
           <InterpolatingParam id="2063" interp="linr"  time="0/1" value="0" leadInLength="0/1"   name="attack"/>
           <InterpolatingParam id="2064" interp="linr"  time="0/1" value="9" leadInLength="0/1"   name="gain"/>
           <Parameter id="2065"   name="preset">
            <Keyframes>
            <Keyframe id="2066"  time="0/1" value="1" leadInLength="0/1"  />
            </Keyframes>
           </Parameter>
           <InterpolatingParam id="2067" interp="linr"  time="0/1" value="10" leadInLength="0/1"   name="ratio"/>
           <InterpolatingParam id="2068" interp="linr"  time="0/1" value="3500" leadInLength="0/1"   name="release"/>
           <InterpolatingParam id="2069" interp="linr"  time="0/1" value="-20" leadInLength="0/1"   name="threshold"/>
           </Parameters>
           <MetaData>
            <entry key="effectIndex" val="1"/>
           </MetaData>
          </GenericEffect>
          <GenericEffect id="2070" name = "NoiseReduction" >
           <Parameters>
           <InterpolatingParam id="2071" interp="linr"  time="0/1" value="20" leadInLength="0/1"   name="denoiserAmount"/>
           <InterpolatingParam id="2072" interp="linr"  time="0/1" value="0" leadInLength="0/1"   name="denoiserThreshold"/>
           <Parameter id="2073"   name="noiseProfile">
            <Keyframes>
            <Keyframe id="2074"  time="0/1" value="FBAAAAIAAABErAAAAQIAAE0ClsJgA43Cpuubwgo4pcKYbJ/CRD+fwoUQrMI8XbDCwjG3wiaPucJ3&#xD;&#xa;mrrCSHW7wsaRu8KjQbnChPW3wtW+tMIubbPC4iK6wgK6vsKIpL7CK7S/wgo0wsKri8fCUATFwqJa&#xD;&#xa;xcLiZMTCMRDDwthvxsIyksbCsEbIwsKTxsJscMbCWDvIwtaBx8KwY8nCJHnKwptrysLwH83CrNvL&#xD;&#xa;wtlGzMKkjMzCfNjMwoOWzMLed87C2qvOwnQ6zsJm88/C5pXPwrgP0MKtStHCIi/QwgzlzsJxOtDC&#xD;&#xa;wM7OwlK4zMI+/czCmZPNwtC8z8Jwc9DCbCbSwm1izsLJac7CRMvMwiSSzsKZ/tHC7GvQwm4hzsJy&#xD;&#xa;rs7C+ZLPwjYD0cI1vtLCijrUwr4o08KNCNPCPIHUwmBy1cJM2dLCQhHUwqae1MLGnNPCyBnTwoSb&#xD;&#xa;08KiOdTC3JnUwvBj1cJtqdXCYP3SwiQp08LoGdLCkh3UwvrK08J4ddLCtg7Swhgy0cKn2dHCr6PR&#xD;&#xa;wtYx0sJ6mtHCyufTwt4C1MLOYdPCH6/VwrSP1ML/uNXCUqHWwgqV1MLSjtTCnhXVwoSb1sJAMdbC&#xD;&#xa;36XUwoRB1MJxkdPCyVzVwjCM1MKgr9XCDN/VwoCQ18JxZtbCUtzUwnUv1cJGJ9fCSvHXwjrc1sK8&#xD;&#xa;m9PCjnXTwuP91MKcWNXCqFvWwrRD18IB/tTCT/7UwgFU1MKertPCctTTwtxW08KUE9PC8Z/Swt2N&#xD;&#xa;1MLaYtTCmKjQwvsG0cJMPtXCzx/Wwrn11MIs39LCpwfTwjx408JV89PCgk7UwuW31cIKw9HCIJPV&#xD;&#xa;wgiQ18Ju/tbCZorWwp941sKNEtPCZO/Swsgv08KHnNLC/i7Uwuod1cLABNPCJlHTwgDr08L4TtbC&#xD;&#xa;ChrUwjHc0cKsGdLCKd/Twsbq1sJSodbC1D7Uwjis1cIMLtXCpl7WwnYh1cIJjtPC8PTSwghl08IT&#xD;&#xa;ENTCDvrTws5g0sIsbdPCID3Vwqxs1MLaTdXCWA/Wwhys1sLoUdbCYX3WwkBs08K8h9TCi7PVwh9P&#xD;&#xa;1cIB8dXCIXTYwjxH2cIcKtjC1y/Ywjgi18J+LtfC5/zYwgZD2cIB9tvCTIrbwk012cLDptfCGAHZ&#xD;&#xa;wuy+2MJc59XCibjYwoda2cKQX9nCn8LawjzT2sIzjNrC6gLZwiq02MLOdtzCHmDbwmRF2cJTONnC&#xD;&#xa;F9vcwrRq3ML0odrC7Gvawlp128Iu09nCkCnbwn6Y3MIMgtrCqOLawkye3MKc0+DCXXndwpY128J0&#xD;&#xa;XdrC5p3bwhwA3cKof9/CyFrfwo6t4MJsnt3CwnjbwiQD3sIiWd3CBS/dwioK3sKJqd7C3W3dwuhn&#xD;&#xa;3cJ+Xt/C3zfhwlr83sKEKd7CUM/hwlZk4MKasd7C8t7awnbQ28JB4N7C/FTiwrIg4MI8Ad3ClKvd&#xD;&#xa;wohZ3cJ9O9vClGzcwnf128JWdNnCUFnbwn873cLCCt3Cf9jbwgqY28J1J93CbgXdwhH+28If+d3C&#xD;&#xa;dK7cwgqZ28LNMN7CO8Ldwg7G2sLcOtrChhfcwtbd4cIZJu7CdRr2woQJ9cI4u/bCkBr2wjES9sLO&#xD;&#xa;F/fCoAT5wmaZ+MLKwPnCgA/6wpI0+8KuvvnCuIj5wiqr+sJysfnCp/b2wmBk98J65vjCww74whL6&#xD;&#xa;9sIo2PXCDPT0whPO9MIEW/fCrVb4wo8d9sLk0vbCHKz2whoV98JLTvfCak/5wryY+sKcLfnC+gn9&#xD;&#xa;wrrO+8LIS/jC3rP3wmA598IaPfjC7IX5wqT+9sIPJ/bCXnL4wkLH9cJoGPjCOHX5wszY+cLyDvfC&#xD;&#xa;hHnzwhmU88K83/XC6ir2wtaH98L2H/nC0lL6wnib+sK0afvCSjD5wuar+MKmFvvCj0/4woDD9cKy&#xD;&#xa;BPfCPOb3wjC898Ik4vjC3Ij3wsBT+MKkm/jCEEH5wj6Q98KueffCsMb5whxk98J0afXC41v3woM7&#xD;&#xa;98IQVvbC6i75wj7k+MJK6PbC4qf3wtxS+sIOEvbCDCX3whjK9sLejPXCZrL2wj7N9cL2m/bC+GT2&#xD;&#xa;wig1+cJynvnCvOX4wmYa+cJqZ/vClDv8wqBW+cIih/bCBhL3wmpB9sJMDfjCbOv2wpRW9sKo3/bC&#xD;&#xa;kMX1wsV19sKOkPnC5v77wkpS+MISmPfC6lD3wur79cK+S/XChY/3wty/+MLcgvbCHX/3wnUu9sL+&#xD;&#xa;RPbC2rf3wlDs98JKavfCVtz4wlaP+MK8afrCRNb6wggH+cJyFvrCmgj6wuAw+MI0o/jCFCj5wgLs&#xD;&#xa;+cIegvrCniD5wqho+8IqDfrCFL/1wlja9MJAd/bCO+H2wkLa98IyhvrCvOf3wtQL98IjxfbCSk31&#xD;&#xa;wjoZ9cKgLPjCgNH2wlpr+cLkCPrCBrz5wmSY+sJAafnC9lr3wsoy98LofPfCctX4wg4S+MK6oPjC&#xD;&#xa;sHD5wkp1+cJKZvjCHib3wugp+cKkBfvCvF38wlqp/cJKi/3CmmH4wiOc9sKxd/XC8oz1wjq6+MKo&#xD;&#xa;vPnCtoT4whFU+MImJfvCyN/8wnh/9sKi7PfCMPn5woLI+MIkIvnCUO35wj6Z+MIPF/jC4l/1wvyf&#xD;&#xa;9sKLoPXCvLD1wjL39cKWg/jCgdX2wqw098J8rfrCUif6wn7k9sLSN/fCMmT5wkbP+MJiS/vCZIj+&#xD;&#xa;wmzB/cIgavrCHkX6woTK+MKaDPfCq972wjwk+cI8nvjCGH/3wiqT+cK6IfjCUwz1wi8B98KU1vrC&#xD;&#xa;rNz7wr4N/MKcFfvCVgwFw2EHlsIhAo3CS+Wbwt8zpcIEbZ/CYzmfwlgfrMJ0o7DCEg63wqIfucKR&#xD;&#xa;pbrCLkK7wih0u8IvTbnCDfy3wpS+tMIrirPCcou6wsoXv8Kypb7CdD2/wlFewcIsy8fCTJHGwrei&#xD;&#xa;xsLphsXCzbTDwv6lxcJCR8bCSl3HwoIOxsLk5MbCYAXIwsC1x8KGCsrCYFzKwl82ysKaqszCdP7M&#xD;&#xa;wtFhzcJIAc3CHB7Nwna8y8L8v8zCKkTOwuwAzsIS38/C98DQwsoB0cLoLNHCquPQwiA5z8JS3s/C&#xD;&#xa;z9POwiq3zMId28zC4UnOwthp0cKG29DC6UHRwt5Sz8Iapc/CqrfNwnMn0MKcDdPCnznRwuY5z8IE&#xD;&#xa;Ns/CMFLQwldR0cLaSdHCltDSwhRt08L8WNTCGXDWwnZ31cKDcdLCH8bTwpTg1MII9tPCgDzTwqsj&#xD;&#xa;0sIENNPC9QbTwsos1cI2xtXCPyDSwhqj0sKGddHCgObTwuCP0sLdPdLCFKXTwoy508LGrtLCskLS&#xD;&#xa;wmK80sKdD9LC+77SwkiW0sKeVNPCTmjVwmH91MJ7qtXCyNnVwvT808L7ZNPCap/Uwty01sKyvdfC&#xD;&#xa;+OLVwqzk1cIsztXCQLTWwvh21MLGTtXCDJPYwqZM2cL8w9XCKfrUwk7B1sIiz9bCJlfWwtUb1cIg&#xD;&#xa;pNTCpoPVwvX51cJ3RdXCYDzWwsCs1sLdftTCKYjUwvcy1MJ+o9TC7IDVwkI11MIT99PCl43Swlct&#xD;&#xa;1MKNzdLC+mLQwlJq0cKVmtPC9UTTwow41MLn8NTC8g3UwtJl1MIa1dTCelXVwrZ61cJg9dLCjAHW&#xD;&#xa;wobW18IGrdjCAEzXwjbX1sJauNTCw2TTwnRo0sIZUtLCtDXUwrrf1cJqtNPCvgbUwtVp1MJvctbC&#xD;&#xa;rw3UwuTy0MJKl9DCQqDSwjBq18JihNfCfDnWwnjb1cJUPNbCRg7Xwuru1cKLUdTCCLXTwnAG08Ic&#xD;&#xa;NdPCEAnTwt1W0sL8UtTC/pTUwkrR08Imy9XCcMTVwvzQ1cLMjtbCcDLXwkmo1MLIJdXCfNTVwneD&#xD;&#xa;1sILy9fC2F3Ywp562cL4ltjCCLbYwkO118JEHdjCWqbawuwH3MIogdvCIBfawmbu2MI7jNjCbtPZ&#xD;&#xa;wiAD2MIo8tXCxizYwp6b2MKYiNnCuJXawsTp2sJMwNrC30vZwlaJ2cIsVNzCHLDawhrS18ImydfC&#xD;&#xa;xAjbwqbS28KgW9rCGHnawtBK28KKSNrCmJLcwogy3sI1GNzCOGXcwtKd3cI4597Cprbbwurv2sKS&#xD;&#xa;7trC7MLbwjTG3cIfuN7Ct0zfwso+4cJOSd7CXzncwg+T3cKsHt7CzpvdwqCZ3cJVFN7CGG3ewrIT&#xD;&#xa;3MISfNzCVGjfwsY53sIkbN3CXBHhwj6X38JdLN7CmcLawuqn28Ksvd3C3N7gws4X4MLedN3CR6jc&#xD;&#xa;wsKP3MKSDNzCbpTcwk6G28KQ3dnCqhTbwmYd3MJl39vCoBfbwkdj3MJSyt3CooHcwpZ+3MKcVd7C&#xD;&#xa;oMfdwhnN3cLOtd/CFRXewoBg28IqPNrCRDLcwlWY4sJA/e7C6Pr3wojL9cIpN/XCk1L3whZl+cKJ&#xD;&#xa;ZPbCEH/1wjKo9sJAMffC5LD1wiA+98Jmz/nC1q/4wu309cJ3GPfCwN34wpgX98JKkvXCnnH4wj4Y&#xD;&#xa;+8LaQ/jC1on3wr4U+MImZPfCLOL4wnTY+cJvZfjChzn4wpTb+MLEWPrC3Fn5wlgV+MIkwvbC9pL3&#xD;&#xa;wgot98K2DfjCFAD4wl7c+cI+vfjCtXb3wsD098IsIPrCfo33wswn9sIKi/fCSNb2wrSf88IAO/XC&#xD;&#xa;HCT3wmzW+cLGbvvCEgX6wsyw+MIs+ffCBHX7wqpW+cK5pPXCcDL3wkI4+MLITfTC0Qz1wqB/98IA&#xD;&#xa;evfCFIr4wlQ3/MIy8vvCPAP6wqBO+sKQ7/rCrmD6woQF+MLIhPjC1CH5woz5+MKO0vrCPq78wn67&#xD;&#xa;+cIi6fbCkfP1wrPY9sL6hPjCm7L3wp2X98LITvjC0q/3wpDz98L+BPnCgBD6woB2/MIsPPjCIFL1&#xD;&#xa;whQV+cIUJvjCipT2wkz098J2KPrCLgH8wjoY+sJBtffCDRP4wtSP+sIKKfnCItL1wiyr9cJ6xPfC&#xD;&#xa;pkz4wtYO98KpEPfCdp76wljX+cKWu/nCwjz8wkYJ+8IGQffCjF32wjLL98Jp3PbC+533wgih9sJx&#xD;&#xa;FvfCeqT3whZk9sKuBffCTAn3wqB09cIEJvbCxJL4wv7o9sJYFPjC8sj5wnr498LQ3/XCji31wioX&#xD;&#xa;9sIYXvbCZhH3wjTS9sLY9vbCBjv5ws6V+cKKbPfCVgf5wihs9sKK8fjCHLX4wlKz+MJUC/jCNuT1&#xD;&#xa;wilo9sIWMvbCLX73wirA98IwoPbCAHT1wuLP+MI2avnCiBb4wjS398I8u/fC4jX6woSy+MKOePjC&#xD;&#xa;lOD4wuaB+MLuvvjCilb5wroG+MK6AfjCUGj5wvCv9sLaQfbCyNX2wqsX+MJ4MfrCzpP7woIy+sLa&#xD;&#xa;NPrC2PH5wqh7+MJACfrC2N34wp5p+MJ2NfnCwFH5woZF+cIGrfnChG75wvDV+sKYK/rCUrP6wlH5&#xD;&#xa;98LqjPnC5u75wk+g98Ioh/bComD2wjoX+ML2SPnC9WT3wp7D98J7//fCk2X2wnf09cLIIfjCkIX3&#xD;&#xa;woVj9sIZ/vfCnqz5wqSt+sIg1vnCSmX4wph7+MLog/vCGPz5wnqi+MJFY/fC8KT3wmSV98I5KvjC&#xD;&#xa;1Cj1wiVV9sJHOvjChG0D" leadInLength="0/1"  />
            </Keyframes>
           </Parameter>
           </Parameters>
           <MetaData>
            <entry key="effectIndex" val="2"/>
           </MetaData>
          </GenericEffect>
         </Effects>
         <Attributes>
          <Attribute id="2075" value="" name="ident"/>
          <Attribute id="2076" value="0" name="mixToMono"/>
         </Attributes>
         <MetaData>
          <entry key="AutoAppliedSmartFocus" val="False"/>
          <entry key="WinSubProjectDisplayName" val=""/>
         </MetaData>
         <ExtraData>
          <Entry key="ZoomPanBin">
           <ZoomPanBin id="2077"  >
            <ZoomPanKeyframes>
             <ZoomPanKeyframe id="2078" timeRangeEnd="-9999999/1" timeRangeDuration="0/1" interpolaterName=""  />
            </ZoomPanKeyframes>
           </ZoomPanBin>
          </Entry>
          <Entry key="CursorEffectBin">
           <CursorEffectBin id="2079"  >
            <CursorEffectKeyframes>
             <CursorEffectKeyframe id="2080" timeRangeEnd="-9999999/1" timeRangeDuration="0/1" interpolaterName=""  />
            </CursorEffectKeyframes>
           </CursorEffectBin>
          </Entry>
         </ExtraData>
         <GenericTrack id="2081"  >
          <Attributes>
           <Attribute id="2082" value="" name="ident"/>
           <Attribute id="2083" value="0" name="audioMuted"/>
           <Attribute id="2084" value="0" name="videoHidden"/>
          </Attributes>
          <MetaData>
           <entry key="IsLocked" val="False"/>
           <entry key="WinTrackHeight" val="0"/>
          </MetaData>
          <Medias>
           <UnifiedMedia id="2085"  >
            <AMFile id="2086" start="0" duration="414" scalar="1/1" mediaStart="0/1" mediaDuration="414/1" trackNumber="1" src="5" channelNumber="0,1" >
             <Parameters>
              <InterpolatingParam id="2087" interp="linr"  time="0/1" value="1" leadInLength="0/1"  name="volume"/>
              <Parameter id="2088"  name="captions"/>
             </Parameters>
             <Attributes>
              <Attribute id="2089" value="" name="ident"/>
              <Attribute id="2090" value="44100" name="sampleRate"/>
              <Attribute id="2091" value="16" name="bitDepth"/>
              <Attribute id="2092" value="1" name="gain"/>
              <Attribute id="2093" value="0" name="mixToMono"/>
             </Attributes>
            </AMFile>
            <ScreenVMFile id="2094" start="0" duration="414" scalar="1/1" mediaStart="0/1" mediaDuration="414/1" trackNumber="0" src="5" >
             <Transformer>
              <VectorParam id="2095"  name="translation">
               <InterpolatingParam id="2096" interp="linr"  time="-9999999/1" value="0" leadInLength="0/1"  />
               <InterpolatingParam id="2097" interp="linr"  time="-9999999/1" value="0" leadInLength="0/1"  />
               <InterpolatingParam id="2098" interp="linr"  time="-9999999/1" value="0" leadInLength="0/1"  />
              </VectorParam>
              <VectorParam id="2099"  name="rotation">
               <InterpolatingParam id="2100" interp="linr"  time="-9999999/1" value="0" leadInLength="0/1"  />
               <InterpolatingParam id="2101" interp="linr"  time="-9999999/1" value="0" leadInLength="0/1"  />
               <InterpolatingParam id="2102" interp="linr"  time="-9999999/1" value="0" leadInLength="0/1"  />
              </VectorParam>
              <VectorParam id="2103"  name="shear">
               <InterpolatingParam id="2104" interp="linr"  time="-9999999/1" value="0" leadInLength="0/1"  />
               <InterpolatingParam id="2105" interp="linr"  time="-9999999/1" value="0" leadInLength="0/1"  />
               <InterpolatingParam id="2106" interp="linr"  time="-9999999/1" value="0" leadInLength="0/1"  />
              </VectorParam>
              <VectorParam id="2107"  name="scale">
               <InterpolatingParam id="2108" interp="linr"  time="-9999999/1" value="1" leadInLength="0/1"  />
               <InterpolatingParam id="2109" interp="linr"  time="-9999999/1" value="1" leadInLength="0/1"  />
               <InterpolatingParam id="2110" interp="linr"  time="-9999999/1" value="1" leadInLength="0/1"  />
              </VectorParam>
              <VectorParam id="2111"  name="anchor">
               <InterpolatingParam id="2112" interp="linr"  time="0/1" value="0" leadInLength="0/1"  />
               <InterpolatingParam id="2113" interp="linr"  time="0/1" value="0" leadInLength="0/1"  />
               <InterpolatingParam id="2114" interp="linr"  time="0/1" value="0" leadInLength="0/1"  />
              </VectorParam>
             </Transformer>
             <Parameters>
              <VectorParam id="2115"  name="sourceCrop">
               <InterpolatingParam id="2116" interp="linr"  time="0/1" value="0" leadInLength="0/1"  />
               <InterpolatingParam id="2117" interp="linr"  time="0/1" value="0" leadInLength="0/1"  />
               <InterpolatingParam id="2118" interp="linr"  time="0/1" value="0" leadInLength="0/1"  />
               <InterpolatingParam id="2119" interp="linr"  time="0/1" value="0" leadInLength="0/1"  />
              </VectorParam>
              <VectorParam id="2120"  name="geometryCrop">
               <InterpolatingParam id="2121" interp="linr"  time="-9999999/1" value="0" leadInLength="0/1"  />
               <InterpolatingParam id="2122" interp="linr"  time="-9999999/1" value="0" leadInLength="0/1"  />
               <InterpolatingParam id="2123" interp="linr"  time="-9999999/1" value="0" leadInLength="0/1"  />
               <InterpolatingParam id="2124" interp="linr"  time="-9999999/1" value="0" leadInLength="0/1"  />
              </VectorParam>
              <InterpolatingParam id="2125" interp="linr"  time="-9999999/1" value="1" leadInLength="0/1"  name="opacity"/>
              <InterpolatingParam id="2126" interp="linr"  time="0/1" value="0" leadInLength="0/1"  name="cursorOpacity"/>
              <InterpolatingParam id="2127" interp="linr"  time="0/1" value="0" leadInLength="0/1"  name="cursorScale"/>
             </Parameters>
             <Attributes>
              <Attribute id="2128" value="" name="ident"/>
             </Attributes>
             <ExtraData>
              <Entry key="ZoomPanBin">
               <ZoomPanBin id="2129"  >
                <ZoomPanKeyframes>
                 <ZoomPanKeyframe id="2130" timeRangeEnd="-9999999/1" timeRangeDuration="0/1" interpolaterName=""  />
                </ZoomPanKeyframes>
               </ZoomPanBin>
              </Entry>
              <Entry key="CursorEffectBin">
               <CursorEffectBin id="2131"  >
                <CursorEffectKeyframes>
                </CursorEffectKeyframes>
               </CursorEffectBin>
              </Entry>
             </ExtraData>
            </ScreenVMFile>
            <MetaData>
             <entry key="AutoAppliedSmartFocus" val="False"/>
             <entry key="WinSubProjectDisplayName" val=""/>
            </MetaData>
           </UnifiedMedia>
           <UnifiedMedia id="2132"  >
            <AMFile id="2133" start="414" duration="167" scalar="1/1" mediaStart="483/1" mediaDuration="167/1" trackNumber="1" src="5" channelNumber="0,1" >
             <Parameters>
              <InterpolatingParam id="2134" interp="linr"  time="0/1" value="1" leadInLength="0/1"  name="volume"/>
              <Parameter id="2135"  name="captions"/>
             </Parameters>
             <Attributes>
              <Attribute id="2136" value="" name="ident"/>
              <Attribute id="2137" value="44100" name="sampleRate"/>
              <Attribute id="2138" value="16" name="bitDepth"/>
              <Attribute id="2139" value="1" name="gain"/>
              <Attribute id="2140" value="0" name="mixToMono"/>
             </Attributes>
            </AMFile>
            <ScreenVMFile id="2141" start="414" duration="167" scalar="1/1" mediaStart="483/1" mediaDuration="167/1" trackNumber="0" src="5" >
             <Transformer>
              <VectorParam id="2142"  name="translation">
               <InterpolatingParam id="2143" interp="linr"  time="-9999999/1" value="0" leadInLength="0/1"  />
               <InterpolatingParam id="2144" interp="linr"  time="-9999999/1" value="0" leadInLength="0/1"  />
               <InterpolatingParam id="2145" interp="linr"  time="-9999999/1" value="0" leadInLength="0/1"  />
              </VectorParam>
              <VectorParam id="2146"  name="rotation">
               <InterpolatingParam id="2147" interp="linr"  time="-9999999/1" value="0" leadInLength="0/1"  />
               <InterpolatingParam id="2148" interp="linr"  time="-9999999/1" value="0" leadInLength="0/1"  />
               <InterpolatingParam id="2149" interp="linr"  time="-9999999/1" value="0" leadInLength="0/1"  />
              </VectorParam>
              <VectorParam id="2150"  name="shear">
               <InterpolatingParam id="2151" interp="linr"  time="-9999999/1" value="0" leadInLength="0/1"  />
               <InterpolatingParam id="2152" interp="linr"  time="-9999999/1" value="0" leadInLength="0/1"  />
               <InterpolatingParam id="2153" interp="linr"  time="-9999999/1" value="0" leadInLength="0/1"  />
              </VectorParam>
              <VectorParam id="2154"  name="scale">
               <InterpolatingParam id="2155" interp="linr"  time="-9999999/1" value="1" leadInLength="0/1"  />
               <InterpolatingParam id="2156" interp="linr"  time="-9999999/1" value="1" leadInLength="0/1"  />
               <InterpolatingParam id="2157" interp="linr"  time="-9999999/1" value="1" leadInLength="0/1"  />
              </VectorParam>
              <VectorParam id="2158"  name="anchor">
               <InterpolatingParam id="2159" interp="linr"  time="0/1" value="0" leadInLength="0/1"  />
               <InterpolatingParam id="2160" interp="linr"  time="0/1" value="0" leadInLength="0/1"  />
               <InterpolatingParam id="2161" interp="linr"  time="0/1" value="0" leadInLength="0/1"  />
              </VectorParam>
             </Transformer>
             <Parameters>
              <VectorParam id="2162"  name="sourceCrop">
               <InterpolatingParam id="2163" interp="linr"  time="0/1" value="0" leadInLength="0/1"  />
               <InterpolatingParam id="2164" interp="linr"  time="0/1" value="0" leadInLength="0/1"  />
               <InterpolatingParam id="2165" interp="linr"  time="0/1" value="0" leadInLength="0/1"  />
               <InterpolatingParam id="2166" interp="linr"  time="0/1" value="0" leadInLength="0/1"  />
              </VectorParam>
              <VectorParam id="2167"  name="geometryCrop">
               <InterpolatingParam id="2168" interp="linr"  time="-9999999/1" value="0" leadInLength="0/1"  />
               <InterpolatingParam id="2169" interp="linr"  time="-9999999/1" value="0" leadInLength="0/1"  />
               <InterpolatingParam id="2170" interp="linr"  time="-9999999/1" value="0" leadInLength="0/1"  />
               <InterpolatingParam id="2171" interp="linr"  time="-9999999/1" value="0" leadInLength="0/1"  />
              </VectorParam>
              <InterpolatingParam id="2172" interp="linr"  time="-9999999/1" value="1" leadInLength="0/1"  name="opacity"/>
              <InterpolatingParam id="2173" interp="linr"  time="0/1" value="0" leadInLength="0/1"  name="cursorOpacity"/>
              <InterpolatingParam id="2174" interp="linr"  time="0/1" value="0" leadInLength="0/1"  name="cursorScale"/>
             </Parameters>
             <Attributes>
              <Attribute id="2175" value="" name="ident"/>
             </Attributes>
             <ExtraData>
              <Entry key="ZoomPanBin">
               <ZoomPanBin id="2176"  >
                <ZoomPanKeyframes>
                 <ZoomPanKeyframe id="2177" timeRangeEnd="-9999999/1" timeRangeDuration="0/1" interpolaterName=""  />
                </ZoomPanKeyframes>
               </ZoomPanBin>
              </Entry>
              <Entry key="CursorEffectBin">
               <CursorEffectBin id="2178"  >
                <CursorEffectKeyframes>
                </CursorEffectKeyframes>
               </CursorEffectBin>
              </Entry>
             </ExtraData>
            </ScreenVMFile>
            <MetaData>
             <entry key="AutoAppliedSmartFocus" val="False"/>
             <entry key="WinSubProjectDisplayName" val=""/>
            </MetaData>
           </UnifiedMedia>
           <UnifiedMedia id="2179"  >
            <AMFile id="2180" start="581" duration="424" scalar="1/1" mediaStart="1012/1" mediaDuration="424/1" trackNumber="1" src="5" channelNumber="0,1" >
             <Parameters>
              <InterpolatingParam id="2181" interp="linr"  time="0/1" value="1" leadInLength="0/1"  name="volume"/>
              <Parameter id="2182"  name="captions"/>
             </Parameters>
             <Attributes>
              <Attribute id="2183" value="" name="ident"/>
              <Attribute id="2184" value="44100" name="sampleRate"/>
              <Attribute id="2185" value="16" name="bitDepth"/>
              <Attribute id="2186" value="1" name="gain"/>
              <Attribute id="2187" value="0" name="mixToMono"/>
             </Attributes>
            </AMFile>
            <ScreenVMFile id="2188" start="581" duration="424" scalar="1/1" mediaStart="1012/1" mediaDuration="424/1" trackNumber="0" src="5" >
             <Transformer>
              <VectorParam id="2189"  name="translation">
               <InterpolatingParam id="2190" interp="linr"  time="-9999999/1" value="0" leadInLength="0/1"  />
               <InterpolatingParam id="2191" interp="linr"  time="-9999999/1" value="0" leadInLength="0/1"  />
               <InterpolatingParam id="2192" interp="linr"  time="-9999999/1" value="0" leadInLength="0/1"  />
              </VectorParam>
              <VectorParam id="2193"  name="rotation">
               <InterpolatingParam id="2194" interp="linr"  time="-9999999/1" value="0" leadInLength="0/1"  />
               <InterpolatingParam id="2195" interp="linr"  time="-9999999/1" value="0" leadInLength="0/1"  />
               <InterpolatingParam id="2196" interp="linr"  time="-9999999/1" value="0" leadInLength="0/1"  />
              </VectorParam>
              <VectorParam id="2197"  name="shear">
               <InterpolatingParam id="2198" interp="linr"  time="-9999999/1" value="0" leadInLength="0/1"  />
               <InterpolatingParam id="2199" interp="linr"  time="-9999999/1" value="0" leadInLength="0/1"  />
               <InterpolatingParam id="2200" interp="linr"  time="-9999999/1" value="0" leadInLength="0/1"  />
              </VectorParam>
              <VectorParam id="2201"  name="scale">
               <InterpolatingParam id="2202" interp="linr"  time="-9999999/1" value="1" leadInLength="0/1"  />
               <InterpolatingParam id="2203" interp="linr"  time="-9999999/1" value="1" leadInLength="0/1"  />
               <InterpolatingParam id="2204" interp="linr"  time="-9999999/1" value="1" leadInLength="0/1"  />
              </VectorParam>
              <VectorParam id="2205"  name="anchor">
               <InterpolatingParam id="2206" interp="linr"  time="0/1" value="0" leadInLength="0/1"  />
               <InterpolatingParam id="2207" interp="linr"  time="0/1" value="0" leadInLength="0/1"  />
               <InterpolatingParam id="2208" interp="linr"  time="0/1" value="0" leadInLength="0/1"  />
              </VectorParam>
             </Transformer>
             <Parameters>
              <VectorParam id="2209"  name="sourceCrop">
               <InterpolatingParam id="2210" interp="linr"  time="0/1" value="0" leadInLength="0/1"  />
               <InterpolatingParam id="2211" interp="linr"  time="0/1" value="0" leadInLength="0/1"  />
               <InterpolatingParam id="2212" interp="linr"  time="0/1" value="0" leadInLength="0/1"  />
               <InterpolatingParam id="2213" interp="linr"  time="0/1" value="0" leadInLength="0/1"  />
              </VectorParam>
              <VectorParam id="2214"  name="geometryCrop">
               <InterpolatingParam id="2215" interp="linr"  time="-9999999/1" value="0" leadInLength="0/1"  />
               <InterpolatingParam id="2216" interp="linr"  time="-9999999/1" value="0" leadInLength="0/1"  />
               <InterpolatingParam id="2217" interp="linr"  time="-9999999/1" value="0" leadInLength="0/1"  />
               <InterpolatingParam id="2218" interp="linr"  time="-9999999/1" value="0" leadInLength="0/1"  />
              </VectorParam>
              <InterpolatingParam id="2219" interp="linr"  time="-9999999/1" value="1" leadInLength="0/1"  name="opacity"/>
              <InterpolatingParam id="2220" interp="linr"  time="0/1" value="0" leadInLength="0/1"  name="cursorOpacity"/>
              <InterpolatingParam id="2221" interp="linr"  time="0/1" value="0" leadInLength="0/1"  name="cursorScale"/>
             </Parameters>
             <Attributes>
              <Attribute id="2222" value="" name="ident"/>
             </Attributes>
             <ExtraData>
              <Entry key="ZoomPanBin">
               <ZoomPanBin id="2223"  >
                <ZoomPanKeyframes>
                 <ZoomPanKeyframe id="2224" timeRangeEnd="-9999999/1" timeRangeDuration="0/1" interpolaterName=""  />
                </ZoomPanKeyframes>
               </ZoomPanBin>
              </Entry>
              <Entry key="CursorEffectBin">
               <CursorEffectBin id="2225"  >
                <CursorEffectKeyframes>
                </CursorEffectKeyframes>
               </CursorEffectBin>
              </Entry>
             </ExtraData>
            </ScreenVMFile>
            <MetaData>
             <entry key="AutoAppliedSmartFocus" val="False"/>
             <entry key="WinSubProjectDisplayName" val=""/>
            </MetaData>
           </UnifiedMedia>
           <UnifiedMedia id="2226"  >
            <AMFile id="2227" start="1005" duration="185" scalar="1/1" mediaStart="2258/1" mediaDuration="185/1" trackNumber="1" src="5" channelNumber="0,1" >
             <Parameters>
              <InterpolatingParam id="2228" interp="linr"  time="0/1" value="1" leadInLength="0/1"  name="volume"/>
              <Parameter id="2229"  name="captions"/>
             </Parameters>
             <Attributes>
              <Attribute id="2230" value="" name="ident"/>
              <Attribute id="2231" value="44100" name="sampleRate"/>
              <Attribute id="2232" value="16" name="bitDepth"/>
              <Attribute id="2233" value="1" name="gain"/>
              <Attribute id="2234" value="0" name="mixToMono"/>
             </Attributes>
            </AMFile>
            <ScreenVMFile id="2235" start="1005" duration="185" scalar="1/1" mediaStart="2258/1" mediaDuration="185/1" trackNumber="0" src="5" >
             <Transformer>
              <VectorParam id="2236"  name="translation">
               <InterpolatingParam id="2237" interp="linr"  time="-9999999/1" value="0" leadInLength="0/1"  />
               <InterpolatingParam id="2238" interp="linr"  time="-9999999/1" value="0" leadInLength="0/1"  />
               <InterpolatingParam id="2239" interp="linr"  time="-9999999/1" value="0" leadInLength="0/1"  />
              </VectorParam>
              <VectorParam id="2240"  name="rotation">
               <InterpolatingParam id="2241" interp="linr"  time="-9999999/1" value="0" leadInLength="0/1"  />
               <InterpolatingParam id="2242" interp="linr"  time="-9999999/1" value="0" leadInLength="0/1"  />
               <InterpolatingParam id="2243" interp="linr"  time="-9999999/1" value="0" leadInLength="0/1"  />
              </VectorParam>
              <VectorParam id="2244"  name="shear">
               <InterpolatingParam id="2245" interp="linr"  time="-9999999/1" value="0" leadInLength="0/1"  />
               <InterpolatingParam id="2246" interp="linr"  time="-9999999/1" value="0" leadInLength="0/1"  />
               <InterpolatingParam id="2247" interp="linr"  time="-9999999/1" value="0" leadInLength="0/1"  />
              </VectorParam>
              <VectorParam id="2248"  name="scale">
               <InterpolatingParam id="2249" interp="linr"  time="-9999999/1" value="1" leadInLength="0/1"  />
               <InterpolatingParam id="2250" interp="linr"  time="-9999999/1" value="1" leadInLength="0/1"  />
               <InterpolatingParam id="2251" interp="linr"  time="-9999999/1" value="1" leadInLength="0/1"  />
              </VectorParam>
              <VectorParam id="2252"  name="anchor">
               <InterpolatingParam id="2253" interp="linr"  time="0/1" value="0" leadInLength="0/1"  />
               <InterpolatingParam id="2254" interp="linr"  time="0/1" value="0" leadInLength="0/1"  />
               <InterpolatingParam id="2255" interp="linr"  time="0/1" value="0" leadInLength="0/1"  />
              </VectorParam>
             </Transformer>
             <Parameters>
              <VectorParam id="2256"  name="sourceCrop">
               <InterpolatingParam id="2257" interp="linr"  time="0/1" value="0" leadInLength="0/1"  />
               <InterpolatingParam id="2258" interp="linr"  time="0/1" value="0" leadInLength="0/1"  />
               <InterpolatingParam id="2259" interp="linr"  time="0/1" value="0" leadInLength="0/1"  />
               <InterpolatingParam id="2260" interp="linr"  time="0/1" value="0" leadInLength="0/1"  />
              </VectorParam>
              <VectorParam id="2261"  name="geometryCrop">
               <InterpolatingParam id="2262" interp="linr"  time="-9999999/1" value="0" leadInLength="0/1"  />
               <InterpolatingParam id="2263" interp="linr"  time="-9999999/1" value="0" leadInLength="0/1"  />
               <InterpolatingParam id="2264" interp="linr"  time="-9999999/1" value="0" leadInLength="0/1"  />
               <InterpolatingParam id="2265" interp="linr"  time="-9999999/1" value="0" leadInLength="0/1"  />
              </VectorParam>
              <InterpolatingParam id="2266" interp="linr"  time="-9999999/1" value="1" leadInLength="0/1"  name="opacity"/>
              <InterpolatingParam id="2267" interp="linr"  time="0/1" value="0" leadInLength="0/1"  name="cursorOpacity"/>
              <InterpolatingParam id="2268" interp="linr"  time="0/1" value="0" leadInLength="0/1"  name="cursorScale"/>
             </Parameters>
             <Attributes>
              <Attribute id="2269" value="" name="ident"/>
             </Attributes>
             <ExtraData>
              <Entry key="ZoomPanBin">
               <ZoomPanBin id="2270"  >
                <ZoomPanKeyframes>
                 <ZoomPanKeyframe id="2271" timeRangeEnd="-9999999/1" timeRangeDuration="0/1" interpolaterName=""  />
                </ZoomPanKeyframes>
               </ZoomPanBin>
              </Entry>
              <Entry key="CursorEffectBin">
               <CursorEffectBin id="2272"  >
                <CursorEffectKeyframes>
                </CursorEffectKeyframes>
               </CursorEffectBin>
              </Entry>
             </ExtraData>
            </ScreenVMFile>
            <MetaData>
             <entry key="AutoAppliedSmartFocus" val="False"/>
             <entry key="WinSubProjectDisplayName" val=""/>
            </MetaData>
           </UnifiedMedia>
           <UnifiedMedia id="2273"  >
            <AMFile id="2274" start="1190" duration="48" scalar="1/1" mediaStart="2450/1" mediaDuration="48/1" trackNumber="1" src="5" channelNumber="0,1" >
             <Parameters>
              <InterpolatingParam id="2275" interp="linr"  time="0/1" value="1" leadInLength="0/1"  name="volume"/>
              <Parameter id="2276"  name="captions"/>
             </Parameters>
             <Attributes>
              <Attribute id="2277" value="" name="ident"/>
              <Attribute id="2278" value="44100" name="sampleRate"/>
              <Attribute id="2279" value="16" name="bitDepth"/>
              <Attribute id="2280" value="1" name="gain"/>
              <Attribute id="2281" value="0" name="mixToMono"/>
             </Attributes>
            </AMFile>
            <ScreenVMFile id="2282" start="1190" duration="48" scalar="1/1" mediaStart="2450/1" mediaDuration="48/1" trackNumber="0" src="5" >
             <Transformer>
              <VectorParam id="2283"  name="translation">
               <InterpolatingParam id="2284" interp="linr"  time="-9999999/1" value="0" leadInLength="0/1"  />
               <InterpolatingParam id="2285" interp="linr"  time="-9999999/1" value="0" leadInLength="0/1"  />
               <InterpolatingParam id="2286" interp="linr"  time="-9999999/1" value="0" leadInLength="0/1"  />
              </VectorParam>
              <VectorParam id="2287"  name="rotation">
               <InterpolatingParam id="2288" interp="linr"  time="-9999999/1" value="0" leadInLength="0/1"  />
               <InterpolatingParam id="2289" interp="linr"  time="-9999999/1" value="0" leadInLength="0/1"  />
               <InterpolatingParam id="2290" interp="linr"  time="-9999999/1" value="0" leadInLength="0/1"  />
              </VectorParam>
              <VectorParam id="2291"  name="shear">
               <InterpolatingParam id="2292" interp="linr"  time="-9999999/1" value="0" leadInLength="0/1"  />
               <InterpolatingParam id="2293" interp="linr"  time="-9999999/1" value="0" leadInLength="0/1"  />
               <InterpolatingParam id="2294" interp="linr"  time="-9999999/1" value="0" leadInLength="0/1"  />
              </VectorParam>
              <VectorParam id="2295"  name="scale">
               <InterpolatingParam id="2296" interp="linr"  time="-9999999/1" value="1" leadInLength="0/1"  />
               <InterpolatingParam id="2297" interp="linr"  time="-9999999/1" value="1" leadInLength="0/1"  />
               <InterpolatingParam id="2298" interp="linr"  time="-9999999/1" value="1" leadInLength="0/1"  />
              </VectorParam>
              <VectorParam id="2299"  name="anchor">
               <InterpolatingParam id="2300" interp="linr"  time="0/1" value="0" leadInLength="0/1"  />
               <InterpolatingParam id="2301" interp="linr"  time="0/1" value="0" leadInLength="0/1"  />
               <InterpolatingParam id="2302" interp="linr"  time="0/1" value="0" leadInLength="0/1"  />
              </VectorParam>
             </Transformer>
             <Parameters>
              <VectorParam id="2303"  name="sourceCrop">
               <InterpolatingParam id="2304" interp="linr"  time="0/1" value="0" leadInLength="0/1"  />
               <InterpolatingParam id="2305" interp="linr"  time="0/1" value="0" leadInLength="0/1"  />
               <InterpolatingParam id="2306" interp="linr"  time="0/1" value="0" leadInLength="0/1"  />
               <InterpolatingParam id="2307" interp="linr"  time="0/1" value="0" leadInLength="0/1"  />
              </VectorParam>
              <VectorParam id="2308"  name="geometryCrop">
               <InterpolatingParam id="2309" interp="linr"  time="-9999999/1" value="0" leadInLength="0/1"  />
               <InterpolatingParam id="2310" interp="linr"  time="-9999999/1" value="0" leadInLength="0/1"  />
               <InterpolatingParam id="2311" interp="linr"  time="-9999999/1" value="0" leadInLength="0/1"  />
               <InterpolatingParam id="2312" interp="linr"  time="-9999999/1" value="0" leadInLength="0/1"  />
              </VectorParam>
              <InterpolatingParam id="2313" interp="linr"  time="-9999999/1" value="1" leadInLength="0/1"  name="opacity"/>
              <InterpolatingParam id="2314" interp="linr"  time="0/1" value="0" leadInLength="0/1"  name="cursorOpacity"/>
              <InterpolatingParam id="2315" interp="linr"  time="0/1" value="0" leadInLength="0/1"  name="cursorScale"/>
             </Parameters>
             <Attributes>
              <Attribute id="2316" value="" name="ident"/>
             </Attributes>
             <ExtraData>
              <Entry key="ZoomPanBin">
               <ZoomPanBin id="2317"  >
                <ZoomPanKeyframes>
                 <ZoomPanKeyframe id="2318" timeRangeEnd="-9999999/1" timeRangeDuration="0/1" interpolaterName=""  />
                </ZoomPanKeyframes>
               </ZoomPanBin>
              </Entry>
              <Entry key="CursorEffectBin">
               <CursorEffectBin id="2319"  >
                <CursorEffectKeyframes>
                </CursorEffectKeyframes>
               </CursorEffectBin>
              </Entry>
             </ExtraData>
            </ScreenVMFile>
            <MetaData>
             <entry key="AutoAppliedSmartFocus" val="False"/>
             <entry key="WinSubProjectDisplayName" val=""/>
            </MetaData>
           </UnifiedMedia>
           <UnifiedMedia id="2320"  >
            <AMFile id="2321" start="1238" duration="85" scalar="1/1" mediaStart="2503/1" mediaDuration="85/1" trackNumber="1" src="5" channelNumber="0,1" >
             <Parameters>
              <InterpolatingParam id="2322" interp="linr"  time="0/1" value="1" leadInLength="0/1"  name="volume"/>
              <Parameter id="2323"  name="captions"/>
             </Parameters>
             <Attributes>
              <Attribute id="2324" value="" name="ident"/>
              <Attribute id="2325" value="44100" name="sampleRate"/>
              <Attribute id="2326" value="16" name="bitDepth"/>
              <Attribute id="2327" value="1" name="gain"/>
              <Attribute id="2328" value="0" name="mixToMono"/>
             </Attributes>
            </AMFile>
            <ScreenVMFile id="2329" start="1238" duration="85" scalar="1/1" mediaStart="2503/1" mediaDuration="85/1" trackNumber="0" src="5" >
             <Transformer>
              <VectorParam id="2330"  name="translation">
               <InterpolatingParam id="2331" interp="linr"  time="-9999999/1" value="0" leadInLength="0/1"  />
               <InterpolatingParam id="2332" interp="linr"  time="-9999999/1" value="0" leadInLength="0/1"  />
               <InterpolatingParam id="2333" interp="linr"  time="-9999999/1" value="0" leadInLength="0/1"  />
              </VectorParam>
              <VectorParam id="2334"  name="rotation">
               <InterpolatingParam id="2335" interp="linr"  time="-9999999/1" value="0" leadInLength="0/1"  />
               <InterpolatingParam id="2336" interp="linr"  time="-9999999/1" value="0" leadInLength="0/1"  />
               <InterpolatingParam id="2337" interp="linr"  time="-9999999/1" value="0" leadInLength="0/1"  />
              </VectorParam>
              <VectorParam id="2338"  name="shear">
               <InterpolatingParam id="2339" interp="linr"  time="-9999999/1" value="0" leadInLength="0/1"  />
               <InterpolatingParam id="2340" interp="linr"  time="-9999999/1" value="0" leadInLength="0/1"  />
               <InterpolatingParam id="2341" interp="linr"  time="-9999999/1" value="0" leadInLength="0/1"  />
              </VectorParam>
              <VectorParam id="2342"  name="scale">
               <InterpolatingParam id="2343" interp="linr"  time="-9999999/1" value="1" leadInLength="0/1"  />
               <InterpolatingParam id="2344" interp="linr"  time="-9999999/1" value="1" leadInLength="0/1"  />
               <InterpolatingParam id="2345" interp="linr"  time="-9999999/1" value="1" leadInLength="0/1"  />
              </VectorParam>
              <VectorParam id="2346"  name="anchor">
               <InterpolatingParam id="2347" interp="linr"  time="0/1" value="0" leadInLength="0/1"  />
               <InterpolatingParam id="2348" interp="linr"  time="0/1" value="0" leadInLength="0/1"  />
               <InterpolatingParam id="2349" interp="linr"  time="0/1" value="0" leadInLength="0/1"  />
              </VectorParam>
             </Transformer>
             <Parameters>
              <VectorParam id="2350"  name="sourceCrop">
               <InterpolatingParam id="2351" interp="linr"  time="0/1" value="0" leadInLength="0/1"  />
               <InterpolatingParam id="2352" interp="linr"  time="0/1" value="0" leadInLength="0/1"  />
               <InterpolatingParam id="2353" interp="linr"  time="0/1" value="0" leadInLength="0/1"  />
               <InterpolatingParam id="2354" interp="linr"  time="0/1" value="0" leadInLength="0/1"  />
              </VectorParam>
              <VectorParam id="2355"  name="geometryCrop">
               <InterpolatingParam id="2356" interp="linr"  time="-9999999/1" value="0" leadInLength="0/1"  />
               <InterpolatingParam id="2357" interp="linr"  time="-9999999/1" value="0" leadInLength="0/1"  />
               <InterpolatingParam id="2358" interp="linr"  time="-9999999/1" value="0" leadInLength="0/1"  />
               <InterpolatingParam id="2359" interp="linr"  time="-9999999/1" value="0" leadInLength="0/1"  />
              </VectorParam>
              <InterpolatingParam id="2360" interp="linr"  time="-9999999/1" value="1" leadInLength="0/1"  name="opacity"/>
              <InterpolatingParam id="2361" interp="linr"  time="0/1" value="0" leadInLength="0/1"  name="cursorOpacity"/>
              <InterpolatingParam id="2362" interp="linr"  time="0/1" value="0" leadInLength="0/1"  name="cursorScale"/>
             </Parameters>
             <Attributes>
              <Attribute id="2363" value="" name="ident"/>
             </Attributes>
             <ExtraData>
              <Entry key="ZoomPanBin">
               <ZoomPanBin id="2364"  >
                <ZoomPanKeyframes>
                 <ZoomPanKeyframe id="2365" timeRangeEnd="-9999999/1" timeRangeDuration="0/1" interpolaterName=""  />
                </ZoomPanKeyframes>
               </ZoomPanBin>
              </Entry>
              <Entry key="CursorEffectBin">
               <CursorEffectBin id="2366"  >
                <CursorEffectKeyframes>
                </CursorEffectKeyframes>
               </CursorEffectBin>
              </Entry>
             </ExtraData>
            </ScreenVMFile>
            <MetaData>
             <entry key="AutoAppliedSmartFocus" val="False"/>
             <entry key="WinSubProjectDisplayName" val=""/>
            </MetaData>
           </UnifiedMedia>
           <UnifiedMedia id="2367"  >
            <AMFile id="2368" start="1323" duration="86" scalar="1/1" mediaStart="2599/1" mediaDuration="86/1" trackNumber="1" src="5" channelNumber="0,1" >
             <Parameters>
              <InterpolatingParam id="2369" interp="linr"  time="0/1" value="1" leadInLength="0/1"  name="volume"/>
              <Parameter id="2370"  name="captions"/>
             </Parameters>
             <Attributes>
              <Attribute id="2371" value="" name="ident"/>
              <Attribute id="2372" value="44100" name="sampleRate"/>
              <Attribute id="2373" value="16" name="bitDepth"/>
              <Attribute id="2374" value="1" name="gain"/>
              <Attribute id="2375" value="0" name="mixToMono"/>
             </Attributes>
            </AMFile>
            <ScreenVMFile id="2376" start="1323" duration="86" scalar="1/1" mediaStart="2599/1" mediaDuration="86/1" trackNumber="0" src="5" >
             <Transformer>
              <VectorParam id="2377"  name="translation">
               <InterpolatingParam id="2378" interp="linr"  time="-9999999/1" value="0" leadInLength="0/1"  />
               <InterpolatingParam id="2379" interp="linr"  time="-9999999/1" value="0" leadInLength="0/1"  />
               <InterpolatingParam id="2380" interp="linr"  time="-9999999/1" value="0" leadInLength="0/1"  />
              </VectorParam>
              <VectorParam id="2381"  name="rotation">
               <InterpolatingParam id="2382" interp="linr"  time="-9999999/1" value="0" leadInLength="0/1"  />
               <InterpolatingParam id="2383" interp="linr"  time="-9999999/1" value="0" leadInLength="0/1"  />
               <InterpolatingParam id="2384" interp="linr"  time="-9999999/1" value="0" leadInLength="0/1"  />
              </VectorParam>
              <VectorParam id="2385"  name="shear">
               <InterpolatingParam id="2386" interp="linr"  time="-9999999/1" value="0" leadInLength="0/1"  />
               <InterpolatingParam id="2387" interp="linr"  time="-9999999/1" value="0" leadInLength="0/1"  />
               <InterpolatingParam id="2388" interp="linr"  time="-9999999/1" value="0" leadInLength="0/1"  />
              </VectorParam>
              <VectorParam id="2389"  name="scale">
               <InterpolatingParam id="2390" interp="linr"  time="-9999999/1" value="1" leadInLength="0/1"  />
               <InterpolatingParam id="2391" interp="linr"  time="-9999999/1" value="1" leadInLength="0/1"  />
               <InterpolatingParam id="2392" interp="linr"  time="-9999999/1" value="1" leadInLength="0/1"  />
              </VectorParam>
              <VectorParam id="2393"  name="anchor">
               <InterpolatingParam id="2394" interp="linr"  time="0/1" value="0" leadInLength="0/1"  />
               <InterpolatingParam id="2395" interp="linr"  time="0/1" value="0" leadInLength="0/1"  />
               <InterpolatingParam id="2396" interp="linr"  time="0/1" value="0" leadInLength="0/1"  />
              </VectorParam>
             </Transformer>
             <Parameters>
              <VectorParam id="2397"  name="sourceCrop">
               <InterpolatingParam id="2398" interp="linr"  time="0/1" value="0" leadInLength="0/1"  />
               <InterpolatingParam id="2399" interp="linr"  time="0/1" value="0" leadInLength="0/1"  />
               <InterpolatingParam id="2400" interp="linr"  time="0/1" value="0" leadInLength="0/1"  />
               <InterpolatingParam id="2401" interp="linr"  time="0/1" value="0" leadInLength="0/1"  />
              </VectorParam>
              <VectorParam id="2402"  name="geometryCrop">
               <InterpolatingParam id="2403" interp="linr"  time="-9999999/1" value="0" leadInLength="0/1"  />
               <InterpolatingParam id="2404" interp="linr"  time="-9999999/1" value="0" leadInLength="0/1"  />
               <InterpolatingParam id="2405" interp="linr"  time="-9999999/1" value="0" leadInLength="0/1"  />
               <InterpolatingParam id="2406" interp="linr"  time="-9999999/1" value="0" leadInLength="0/1"  />
              </VectorParam>
              <InterpolatingParam id="2407" interp="linr"  time="-9999999/1" value="1" leadInLength="0/1"  name="opacity"/>
              <InterpolatingParam id="2408" interp="linr"  time="0/1" value="0" leadInLength="0/1"  name="cursorOpacity"/>
              <InterpolatingParam id="2409" interp="linr"  time="0/1" value="0" leadInLength="0/1"  name="cursorScale"/>
             </Parameters>
             <Attributes>
              <Attribute id="2410" value="" name="ident"/>
             </Attributes>
             <ExtraData>
              <Entry key="ZoomPanBin">
               <ZoomPanBin id="2411"  >
                <ZoomPanKeyframes>
                 <ZoomPanKeyframe id="2412" timeRangeEnd="-9999999/1" timeRangeDuration="0/1" interpolaterName=""  />
                </ZoomPanKeyframes>
               </ZoomPanBin>
              </Entry>
              <Entry key="CursorEffectBin">
               <CursorEffectBin id="2413"  >
                <CursorEffectKeyframes>
                </CursorEffectKeyframes>
               </CursorEffectBin>
              </Entry>
             </ExtraData>
            </ScreenVMFile>
            <MetaData>
             <entry key="AutoAppliedSmartFocus" val="False"/>
             <entry key="WinSubProjectDisplayName" val=""/>
            </MetaData>
           </UnifiedMedia>
           <UnifiedMedia id="2414"  >
            <AMFile id="2415" start="1409" duration="114" scalar="1/1" mediaStart="2695/1" mediaDuration="114/1" trackNumber="1" src="5" channelNumber="0,1" >
             <Parameters>
              <InterpolatingParam id="2416" interp="linr"  time="0/1" value="1" leadInLength="0/1"  name="volume"/>
              <Parameter id="2417"  name="captions"/>
             </Parameters>
             <Attributes>
              <Attribute id="2418" value="" name="ident"/>
              <Attribute id="2419" value="44100" name="sampleRate"/>
              <Attribute id="2420" value="16" name="bitDepth"/>
              <Attribute id="2421" value="1" name="gain"/>
              <Attribute id="2422" value="0" name="mixToMono"/>
             </Attributes>
            </AMFile>
            <ScreenVMFile id="2423" start="1409" duration="114" scalar="1/1" mediaStart="2695/1" mediaDuration="114/1" trackNumber="0" src="5" >
             <Transformer>
              <VectorParam id="2424"  name="translation">
               <InterpolatingParam id="2425" interp="linr"  time="-9999999/1" value="0" leadInLength="0/1"  />
               <InterpolatingParam id="2426" interp="linr"  time="-9999999/1" value="0" leadInLength="0/1"  />
               <InterpolatingParam id="2427" interp="linr"  time="-9999999/1" value="0" leadInLength="0/1"  />
              </VectorParam>
              <VectorParam id="2428"  name="rotation">
               <InterpolatingParam id="2429" interp="linr"  time="-9999999/1" value="0" leadInLength="0/1"  />
               <InterpolatingParam id="2430" interp="linr"  time="-9999999/1" value="0" leadInLength="0/1"  />
               <InterpolatingParam id="2431" interp="linr"  time="-9999999/1" value="0" leadInLength="0/1"  />
              </VectorParam>
              <VectorParam id="2432"  name="shear">
               <InterpolatingParam id="2433" interp="linr"  time="-9999999/1" value="0" leadInLength="0/1"  />
               <InterpolatingParam id="2434" interp="linr"  time="-9999999/1" value="0" leadInLength="0/1"  />
               <InterpolatingParam id="2435" interp="linr"  time="-9999999/1" value="0" leadInLength="0/1"  />
              </VectorParam>
              <VectorParam id="2436"  name="scale">
               <InterpolatingParam id="2437" interp="linr"  time="-9999999/1" value="1" leadInLength="0/1"  />
               <InterpolatingParam id="2438" interp="linr"  time="-9999999/1" value="1" leadInLength="0/1"  />
               <InterpolatingParam id="2439" interp="linr"  time="-9999999/1" value="1" leadInLength="0/1"  />
              </VectorParam>
              <VectorParam id="2440"  name="anchor">
               <InterpolatingParam id="2441" interp="linr"  time="0/1" value="0" leadInLength="0/1"  />
               <InterpolatingParam id="2442" interp="linr"  time="0/1" value="0" leadInLength="0/1"  />
               <InterpolatingParam id="2443" interp="linr"  time="0/1" value="0" leadInLength="0/1"  />
              </VectorParam>
             </Transformer>
             <Parameters>
              <VectorParam id="2444"  name="sourceCrop">
               <InterpolatingParam id="2445" interp="linr"  time="0/1" value="0" leadInLength="0/1"  />
               <InterpolatingParam id="2446" interp="linr"  time="0/1" value="0" leadInLength="0/1"  />
               <InterpolatingParam id="2447" interp="linr"  time="0/1" value="0" leadInLength="0/1"  />
               <InterpolatingParam id="2448" interp="linr"  time="0/1" value="0" leadInLength="0/1"  />
              </VectorParam>
              <VectorParam id="2449"  name="geometryCrop">
               <InterpolatingParam id="2450" interp="linr"  time="-9999999/1" value="0" leadInLength="0/1"  />
               <InterpolatingParam id="2451" interp="linr"  time="-9999999/1" value="0" leadInLength="0/1"  />
               <InterpolatingParam id="2452" interp="linr"  time="-9999999/1" value="0" leadInLength="0/1"  />
               <InterpolatingParam id="2453" interp="linr"  time="-9999999/1" value="0" leadInLength="0/1"  />
              </VectorParam>
              <InterpolatingParam id="2454" interp="linr"  time="-9999999/1" value="1" leadInLength="0/1"  name="opacity"/>
              <InterpolatingParam id="2455" interp="linr"  time="0/1" value="0" leadInLength="0/1"  name="cursorOpacity"/>
              <InterpolatingParam id="2456" interp="linr"  time="0/1" value="0" leadInLength="0/1"  name="cursorScale"/>
             </Parameters>
             <Attributes>
              <Attribute id="2457" value="" name="ident"/>
             </Attributes>
             <ExtraData>
              <Entry key="ZoomPanBin">
               <ZoomPanBin id="2458"  >
                <ZoomPanKeyframes>
                 <ZoomPanKeyframe id="2459" timeRangeEnd="-9999999/1" timeRangeDuration="0/1" interpolaterName=""  />
                </ZoomPanKeyframes>
               </ZoomPanBin>
              </Entry>
              <Entry key="CursorEffectBin">
               <CursorEffectBin id="2460"  >
                <CursorEffectKeyframes>
                </CursorEffectKeyframes>
               </CursorEffectBin>
              </Entry>
             </ExtraData>
            </ScreenVMFile>
            <MetaData>
             <entry key="AutoAppliedSmartFocus" val="False"/>
             <entry key="WinSubProjectDisplayName" val=""/>
            </MetaData>
           </UnifiedMedia>
           <UnifiedMedia id="2461"  >
            <AMFile id="2462" start="1523" duration="154" scalar="1/1" mediaStart="3669/1" mediaDuration="154/1" trackNumber="1" src="5" channelNumber="0,1" >
             <Parameters>
              <InterpolatingParam id="2463" interp="linr"  time="0/1" value="1" leadInLength="0/1"  name="volume"/>
              <Parameter id="2464"  name="captions"/>
             </Parameters>
             <Attributes>
              <Attribute id="2465" value="" name="ident"/>
              <Attribute id="2466" value="44100" name="sampleRate"/>
              <Attribute id="2467" value="16" name="bitDepth"/>
              <Attribute id="2468" value="1" name="gain"/>
              <Attribute id="2469" value="0" name="mixToMono"/>
             </Attributes>
            </AMFile>
            <ScreenVMFile id="2470" start="1523" duration="154" scalar="1/1" mediaStart="3669/1" mediaDuration="154/1" trackNumber="0" src="5" >
             <Transformer>
              <VectorParam id="2471"  name="translation">
               <InterpolatingParam id="2472" interp="linr"  time="-9999999/1" value="0" leadInLength="0/1"  />
               <InterpolatingParam id="2473" interp="linr"  time="-9999999/1" value="0" leadInLength="0/1"  />
               <InterpolatingParam id="2474" interp="linr"  time="-9999999/1" value="0" leadInLength="0/1"  />
              </VectorParam>
              <VectorParam id="2475"  name="rotation">
               <InterpolatingParam id="2476" interp="linr"  time="-9999999/1" value="0" leadInLength="0/1"  />
               <InterpolatingParam id="2477" interp="linr"  time="-9999999/1" value="0" leadInLength="0/1"  />
               <InterpolatingParam id="2478" interp="linr"  time="-9999999/1" value="0" leadInLength="0/1"  />
              </VectorParam>
              <VectorParam id="2479"  name="shear">
               <InterpolatingParam id="2480" interp="linr"  time="-9999999/1" value="0" leadInLength="0/1"  />
               <InterpolatingParam id="2481" interp="linr"  time="-9999999/1" value="0" leadInLength="0/1"  />
               <InterpolatingParam id="2482" interp="linr"  time="-9999999/1" value="0" leadInLength="0/1"  />
              </VectorParam>
              <VectorParam id="2483"  name="scale">
               <InterpolatingParam id="2484" interp="linr"  time="-9999999/1" value="1" leadInLength="0/1"  />
               <InterpolatingParam id="2485" interp="linr"  time="-9999999/1" value="1" leadInLength="0/1"  />
               <InterpolatingParam id="2486" interp="linr"  time="-9999999/1" value="1" leadInLength="0/1"  />
              </VectorParam>
              <VectorParam id="2487"  name="anchor">
               <InterpolatingParam id="2488" interp="linr"  time="0/1" value="0" leadInLength="0/1"  />
               <InterpolatingParam id="2489" interp="linr"  time="0/1" value="0" leadInLength="0/1"  />
               <InterpolatingParam id="2490" interp="linr"  time="0/1" value="0" leadInLength="0/1"  />
              </VectorParam>
             </Transformer>
             <Parameters>
              <VectorParam id="2491"  name="sourceCrop">
               <InterpolatingParam id="2492" interp="linr"  time="0/1" value="0" leadInLength="0/1"  />
               <InterpolatingParam id="2493" interp="linr"  time="0/1" value="0" leadInLength="0/1"  />
               <InterpolatingParam id="2494" interp="linr"  time="0/1" value="0" leadInLength="0/1"  />
               <InterpolatingParam id="2495" interp="linr"  time="0/1" value="0" leadInLength="0/1"  />
              </VectorParam>
              <VectorParam id="2496"  name="geometryCrop">
               <InterpolatingParam id="2497" interp="linr"  time="-9999999/1" value="0" leadInLength="0/1"  />
               <InterpolatingParam id="2498" interp="linr"  time="-9999999/1" value="0" leadInLength="0/1"  />
               <InterpolatingParam id="2499" interp="linr"  time="-9999999/1" value="0" leadInLength="0/1"  />
               <InterpolatingParam id="2500" interp="linr"  time="-9999999/1" value="0" leadInLength="0/1"  />
              </VectorParam>
              <InterpolatingParam id="2501" interp="linr"  time="-9999999/1" value="1" leadInLength="0/1"  name="opacity"/>
              <InterpolatingParam id="2502" interp="linr"  time="0/1" value="0" leadInLength="0/1"  name="cursorOpacity"/>
              <InterpolatingParam id="2503" interp="linr"  time="0/1" value="0" leadInLength="0/1"  name="cursorScale"/>
             </Parameters>
             <Attributes>
              <Attribute id="2504" value="" name="ident"/>
             </Attributes>
             <ExtraData>
              <Entry key="ZoomPanBin">
               <ZoomPanBin id="2505"  >
                <ZoomPanKeyframes>
                 <ZoomPanKeyframe id="2506" timeRangeEnd="-9999999/1" timeRangeDuration="0/1" interpolaterName=""  />
                </ZoomPanKeyframes>
               </ZoomPanBin>
              </Entry>
              <Entry key="CursorEffectBin">
               <CursorEffectBin id="2507"  >
                <CursorEffectKeyframes>
                </CursorEffectKeyframes>
               </CursorEffectBin>
              </Entry>
             </ExtraData>
            </ScreenVMFile>
            <MetaData>
             <entry key="AutoAppliedSmartFocus" val="False"/>
             <entry key="WinSubProjectDisplayName" val=""/>
            </MetaData>
           </UnifiedMedia>
           <UnifiedMedia id="2508"  >
            <AMFile id="2509" start="1677" duration="64" scalar="1/1" mediaStart="3834/1" mediaDuration="64/1" trackNumber="1" src="5" channelNumber="0,1" >
             <Parameters>
              <InterpolatingParam id="2510" interp="linr"  time="0/1" value="1" leadInLength="0/1"  name="volume"/>
              <Parameter id="2511"  name="captions"/>
             </Parameters>
             <Attributes>
              <Attribute id="2512" value="" name="ident"/>
              <Attribute id="2513" value="44100" name="sampleRate"/>
              <Attribute id="2514" value="16" name="bitDepth"/>
              <Attribute id="2515" value="1" name="gain"/>
              <Attribute id="2516" value="0" name="mixToMono"/>
             </Attributes>
            </AMFile>
            <ScreenVMFile id="2517" start="1677" duration="64" scalar="1/1" mediaStart="3834/1" mediaDuration="64/1" trackNumber="0" src="5" >
             <Transformer>
              <VectorParam id="2518"  name="translation">
               <InterpolatingParam id="2519" interp="linr"  time="-9999999/1" value="0" leadInLength="0/1"  />
               <InterpolatingParam id="2520" interp="linr"  time="-9999999/1" value="0" leadInLength="0/1"  />
               <InterpolatingParam id="2521" interp="linr"  time="-9999999/1" value="0" leadInLength="0/1"  />
              </VectorParam>
              <VectorParam id="2522"  name="rotation">
               <InterpolatingParam id="2523" interp="linr"  time="-9999999/1" value="0" leadInLength="0/1"  />
               <InterpolatingParam id="2524" interp="linr"  time="-9999999/1" value="0" leadInLength="0/1"  />
               <InterpolatingParam id="2525" interp="linr"  time="-9999999/1" value="0" leadInLength="0/1"  />
              </VectorParam>
              <VectorParam id="2526"  name="shear">
               <InterpolatingParam id="2527" interp="linr"  time="-9999999/1" value="0" leadInLength="0/1"  />
               <InterpolatingParam id="2528" interp="linr"  time="-9999999/1" value="0" leadInLength="0/1"  />
               <InterpolatingParam id="2529" interp="linr"  time="-9999999/1" value="0" leadInLength="0/1"  />
              </VectorParam>
              <VectorParam id="2530"  name="scale">
               <InterpolatingParam id="2531" interp="linr"  time="-9999999/1" value="1" leadInLength="0/1"  />
               <InterpolatingParam id="2532" interp="linr"  time="-9999999/1" value="1" leadInLength="0/1"  />
               <InterpolatingParam id="2533" interp="linr"  time="-9999999/1" value="1" leadInLength="0/1"  />
              </VectorParam>
              <VectorParam id="2534"  name="anchor">
               <InterpolatingParam id="2535" interp="linr"  time="0/1" value="0" leadInLength="0/1"  />
               <InterpolatingParam id="2536" interp="linr"  time="0/1" value="0" leadInLength="0/1"  />
               <InterpolatingParam id="2537" interp="linr"  time="0/1" value="0" leadInLength="0/1"  />
              </VectorParam>
             </Transformer>
             <Parameters>
              <VectorParam id="2538"  name="sourceCrop">
               <InterpolatingParam id="2539" interp="linr"  time="0/1" value="0" leadInLength="0/1"  />
               <InterpolatingParam id="2540" interp="linr"  time="0/1" value="0" leadInLength="0/1"  />
               <InterpolatingParam id="2541" interp="linr"  time="0/1" value="0" leadInLength="0/1"  />
               <InterpolatingParam id="2542" interp="linr"  time="0/1" value="0" leadInLength="0/1"  />
              </VectorParam>
              <VectorParam id="2543"  name="geometryCrop">
               <InterpolatingParam id="2544" interp="linr"  time="-9999999/1" value="0" leadInLength="0/1"  />
               <InterpolatingParam id="2545" interp="linr"  time="-9999999/1" value="0" leadInLength="0/1"  />
               <InterpolatingParam id="2546" interp="linr"  time="-9999999/1" value="0" leadInLength="0/1"  />
               <InterpolatingParam id="2547" interp="linr"  time="-9999999/1" value="0" leadInLength="0/1"  />
              </VectorParam>
              <InterpolatingParam id="2548" interp="linr"  time="-9999999/1" value="1" leadInLength="0/1"  name="opacity"/>
              <InterpolatingParam id="2549" interp="linr"  time="0/1" value="0" leadInLength="0/1"  name="cursorOpacity"/>
              <InterpolatingParam id="2550" interp="linr"  time="0/1" value="0" leadInLength="0/1"  name="cursorScale"/>
             </Parameters>
             <Attributes>
              <Attribute id="2551" value="" name="ident"/>
             </Attributes>
             <ExtraData>
              <Entry key="ZoomPanBin">
               <ZoomPanBin id="2552"  >
                <ZoomPanKeyframes>
                 <ZoomPanKeyframe id="2553" timeRangeEnd="-9999999/1" timeRangeDuration="0/1" interpolaterName=""  />
                </ZoomPanKeyframes>
               </ZoomPanBin>
              </Entry>
              <Entry key="CursorEffectBin">
               <CursorEffectBin id="2554"  >
                <CursorEffectKeyframes>
                </CursorEffectKeyframes>
               </CursorEffectBin>
              </Entry>
             </ExtraData>
            </ScreenVMFile>
            <MetaData>
             <entry key="AutoAppliedSmartFocus" val="False"/>
             <entry key="WinSubProjectDisplayName" val=""/>
            </MetaData>
           </UnifiedMedia>
           <UnifiedMedia id="2555"  >
            <AMFile id="2556" start="1741" duration="69" scalar="1/1" mediaStart="3905/1" mediaDuration="69/1" trackNumber="1" src="5" channelNumber="0,1" >
             <Parameters>
              <InterpolatingParam id="2557" interp="linr"  time="0/1" value="1" leadInLength="0/1"  name="volume"/>
              <Parameter id="2558"  name="captions"/>
             </Parameters>
             <Attributes>
              <Attribute id="2559" value="" name="ident"/>
              <Attribute id="2560" value="44100" name="sampleRate"/>
              <Attribute id="2561" value="16" name="bitDepth"/>
              <Attribute id="2562" value="1" name="gain"/>
              <Attribute id="2563" value="0" name="mixToMono"/>
             </Attributes>
            </AMFile>
            <ScreenVMFile id="2564" start="1741" duration="69" scalar="1/1" mediaStart="3905/1" mediaDuration="69/1" trackNumber="0" src="5" >
             <Transformer>
              <VectorParam id="2565"  name="translation">
               <InterpolatingParam id="2566" interp="linr"  time="-9999999/1" value="0" leadInLength="0/1"  />
               <InterpolatingParam id="2567" interp="linr"  time="-9999999/1" value="0" leadInLength="0/1"  />
               <InterpolatingParam id="2568" interp="linr"  time="-9999999/1" value="0" leadInLength="0/1"  />
              </VectorParam>
              <VectorParam id="2569"  name="rotation">
               <InterpolatingParam id="2570" interp="linr"  time="-9999999/1" value="0" leadInLength="0/1"  />
               <InterpolatingParam id="2571" interp="linr"  time="-9999999/1" value="0" leadInLength="0/1"  />
               <InterpolatingParam id="2572" interp="linr"  time="-9999999/1" value="0" leadInLength="0/1"  />
              </VectorParam>
              <VectorParam id="2573"  name="shear">
               <InterpolatingParam id="2574" interp="linr"  time="-9999999/1" value="0" leadInLength="0/1"  />
               <InterpolatingParam id="2575" interp="linr"  time="-9999999/1" value="0" leadInLength="0/1"  />
               <InterpolatingParam id="2576" interp="linr"  time="-9999999/1" value="0" leadInLength="0/1"  />
              </VectorParam>
              <VectorParam id="2577"  name="scale">
               <InterpolatingParam id="2578" interp="linr"  time="-9999999/1" value="1" leadInLength="0/1"  />
               <InterpolatingParam id="2579" interp="linr"  time="-9999999/1" value="1" leadInLength="0/1"  />
               <InterpolatingParam id="2580" interp="linr"  time="-9999999/1" value="1" leadInLength="0/1"  />
              </VectorParam>
              <VectorParam id="2581"  name="anchor">
               <InterpolatingParam id="2582" interp="linr"  time="0/1" value="0" leadInLength="0/1"  />
               <InterpolatingParam id="2583" interp="linr"  time="0/1" value="0" leadInLength="0/1"  />
               <InterpolatingParam id="2584" interp="linr"  time="0/1" value="0" leadInLength="0/1"  />
              </VectorParam>
             </Transformer>
             <Parameters>
              <VectorParam id="2585"  name="sourceCrop">
               <InterpolatingParam id="2586" interp="linr"  time="0/1" value="0" leadInLength="0/1"  />
               <InterpolatingParam id="2587" interp="linr"  time="0/1" value="0" leadInLength="0/1"  />
               <InterpolatingParam id="2588" interp="linr"  time="0/1" value="0" leadInLength="0/1"  />
               <InterpolatingParam id="2589" interp="linr"  time="0/1" value="0" leadInLength="0/1"  />
              </VectorParam>
              <VectorParam id="2590"  name="geometryCrop">
               <InterpolatingParam id="2591" interp="linr"  time="-9999999/1" value="0" leadInLength="0/1"  />
               <InterpolatingParam id="2592" interp="linr"  time="-9999999/1" value="0" leadInLength="0/1"  />
               <InterpolatingParam id="2593" interp="linr"  time="-9999999/1" value="0" leadInLength="0/1"  />
               <InterpolatingParam id="2594" interp="linr"  time="-9999999/1" value="0" leadInLength="0/1"  />
              </VectorParam>
              <InterpolatingParam id="2595" interp="linr"  time="-9999999/1" value="1" leadInLength="0/1"  name="opacity"/>
              <InterpolatingParam id="2596" interp="linr"  time="0/1" value="0" leadInLength="0/1"  name="cursorOpacity"/>
              <InterpolatingParam id="2597" interp="linr"  time="0/1" value="0" leadInLength="0/1"  name="cursorScale"/>
             </Parameters>
             <Attributes>
              <Attribute id="2598" value="" name="ident"/>
             </Attributes>
             <ExtraData>
              <Entry key="ZoomPanBin">
               <ZoomPanBin id="2599"  >
                <ZoomPanKeyframes>
                 <ZoomPanKeyframe id="2600" timeRangeEnd="-9999999/1" timeRangeDuration="0/1" interpolaterName=""  />
                </ZoomPanKeyframes>
               </ZoomPanBin>
              </Entry>
              <Entry key="CursorEffectBin">
               <CursorEffectBin id="2601"  >
                <CursorEffectKeyframes>
                </CursorEffectKeyframes>
               </CursorEffectBin>
              </Entry>
             </ExtraData>
            </ScreenVMFile>
            <MetaData>
             <entry key="AutoAppliedSmartFocus" val="False"/>
             <entry key="WinSubProjectDisplayName" val=""/>
            </MetaData>
           </UnifiedMedia>
           <UnifiedMedia id="2602"  >
            <AMFile id="2603" start="1810" duration="189" scalar="1/1" mediaStart="4280/1" mediaDuration="189/1" trackNumber="1" src="5" channelNumber="0,1" >
             <Parameters>
              <InterpolatingParam id="2604" interp="linr"  time="0/1" value="1" leadInLength="0/1"  name="volume"/>
              <Parameter id="2605"  name="captions"/>
             </Parameters>
             <Attributes>
              <Attribute id="2606" value="" name="ident"/>
              <Attribute id="2607" value="44100" name="sampleRate"/>
              <Attribute id="2608" value="16" name="bitDepth"/>
              <Attribute id="2609" value="1" name="gain"/>
              <Attribute id="2610" value="0" name="mixToMono"/>
             </Attributes>
            </AMFile>
            <ScreenVMFile id="2611" start="1810" duration="189" scalar="1/1" mediaStart="4280/1" mediaDuration="189/1" trackNumber="0" src="5" >
             <Transformer>
              <VectorParam id="2612"  name="translation">
               <InterpolatingParam id="2613" interp="linr"  time="-9999999/1" value="0" leadInLength="0/1"  />
               <InterpolatingParam id="2614" interp="linr"  time="-9999999/1" value="0" leadInLength="0/1"  />
               <InterpolatingParam id="2615" interp="linr"  time="-9999999/1" value="0" leadInLength="0/1"  />
              </VectorParam>
              <VectorParam id="2616"  name="rotation">
               <InterpolatingParam id="2617" interp="linr"  time="-9999999/1" value="0" leadInLength="0/1"  />
               <InterpolatingParam id="2618" interp="linr"  time="-9999999/1" value="0" leadInLength="0/1"  />
               <InterpolatingParam id="2619" interp="linr"  time="-9999999/1" value="0" leadInLength="0/1"  />
              </VectorParam>
              <VectorParam id="2620"  name="shear">
               <InterpolatingParam id="2621" interp="linr"  time="-9999999/1" value="0" leadInLength="0/1"  />
               <InterpolatingParam id="2622" interp="linr"  time="-9999999/1" value="0" leadInLength="0/1"  />
               <InterpolatingParam id="2623" interp="linr"  time="-9999999/1" value="0" leadInLength="0/1"  />
              </VectorParam>
              <VectorParam id="2624"  name="scale">
               <InterpolatingParam id="2625" interp="linr"  time="-9999999/1" value="1" leadInLength="0/1"  />
               <InterpolatingParam id="2626" interp="linr"  time="-9999999/1" value="1" leadInLength="0/1"  />
               <InterpolatingParam id="2627" interp="linr"  time="-9999999/1" value="1" leadInLength="0/1"  />
              </VectorParam>
              <VectorParam id="2628"  name="anchor">
               <InterpolatingParam id="2629" interp="linr"  time="0/1" value="0" leadInLength="0/1"  />
               <InterpolatingParam id="2630" interp="linr"  time="0/1" value="0" leadInLength="0/1"  />
               <InterpolatingParam id="2631" interp="linr"  time="0/1" value="0" leadInLength="0/1"  />
              </VectorParam>
             </Transformer>
             <Parameters>
              <VectorParam id="2632"  name="sourceCrop">
               <InterpolatingParam id="2633" interp="linr"  time="0/1" value="0" leadInLength="0/1"  />
               <InterpolatingParam id="2634" interp="linr"  time="0/1" value="0" leadInLength="0/1"  />
               <InterpolatingParam id="2635" interp="linr"  time="0/1" value="0" leadInLength="0/1"  />
               <InterpolatingParam id="2636" interp="linr"  time="0/1" value="0" leadInLength="0/1"  />
              </VectorParam>
              <VectorParam id="2637"  name="geometryCrop">
               <InterpolatingParam id="2638" interp="linr"  time="-9999999/1" value="0" leadInLength="0/1"  />
               <InterpolatingParam id="2639" interp="linr"  time="-9999999/1" value="0" leadInLength="0/1"  />
               <InterpolatingParam id="2640" interp="linr"  time="-9999999/1" value="0" leadInLength="0/1"  />
               <InterpolatingParam id="2641" interp="linr"  time="-9999999/1" value="0" leadInLength="0/1"  />
              </VectorParam>
              <InterpolatingParam id="2642" interp="linr"  time="-9999999/1" value="1" leadInLength="0/1"  name="opacity"/>
              <InterpolatingParam id="2643" interp="linr"  time="0/1" value="0" leadInLength="0/1"  name="cursorOpacity"/>
              <InterpolatingParam id="2644" interp="linr"  time="0/1" value="0" leadInLength="0/1"  name="cursorScale"/>
             </Parameters>
             <Attributes>
              <Attribute id="2645" value="" name="ident"/>
             </Attributes>
             <ExtraData>
              <Entry key="ZoomPanBin">
               <ZoomPanBin id="2646"  >
                <ZoomPanKeyframes>
                 <ZoomPanKeyframe id="2647" timeRangeEnd="-9999999/1" timeRangeDuration="0/1" interpolaterName=""  />
                </ZoomPanKeyframes>
               </ZoomPanBin>
              </Entry>
              <Entry key="CursorEffectBin">
               <CursorEffectBin id="2648"  >
                <CursorEffectKeyframes>
                </CursorEffectKeyframes>
               </CursorEffectBin>
              </Entry>
             </ExtraData>
            </ScreenVMFile>
            <MetaData>
             <entry key="AutoAppliedSmartFocus" val="False"/>
             <entry key="WinSubProjectDisplayName" val=""/>
            </MetaData>
           </UnifiedMedia>
           <UnifiedMedia id="2649"  >
            <AMFile id="2650" start="1999" duration="96" scalar="1/1" mediaStart="4475/1" mediaDuration="96/1" trackNumber="1" src="5" channelNumber="0,1" >
             <Parameters>
              <InterpolatingParam id="2651" interp="linr"  time="0/1" value="1" leadInLength="0/1"  name="volume"/>
              <Parameter id="2652"  name="captions"/>
             </Parameters>
             <Attributes>
              <Attribute id="2653" value="" name="ident"/>
              <Attribute id="2654" value="44100" name="sampleRate"/>
              <Attribute id="2655" value="16" name="bitDepth"/>
              <Attribute id="2656" value="1" name="gain"/>
              <Attribute id="2657" value="0" name="mixToMono"/>
             </Attributes>
            </AMFile>
            <ScreenVMFile id="2658" start="1999" duration="96" scalar="1/1" mediaStart="4475/1" mediaDuration="96/1" trackNumber="0" src="5" >
             <Transformer>
              <VectorParam id="2659"  name="translation">
               <InterpolatingParam id="2660" interp="linr"  time="-9999999/1" value="0" leadInLength="0/1"  />
               <InterpolatingParam id="2661" interp="linr"  time="-9999999/1" value="0" leadInLength="0/1"  />
               <InterpolatingParam id="2662" interp="linr"  time="-9999999/1" value="0" leadInLength="0/1"  />
              </VectorParam>
              <VectorParam id="2663"  name="rotation">
               <InterpolatingParam id="2664" interp="linr"  time="-9999999/1" value="0" leadInLength="0/1"  />
               <InterpolatingParam id="2665" interp="linr"  time="-9999999/1" value="0" leadInLength="0/1"  />
               <InterpolatingParam id="2666" interp="linr"  time="-9999999/1" value="0" leadInLength="0/1"  />
              </VectorParam>
              <VectorParam id="2667"  name="shear">
               <InterpolatingParam id="2668" interp="linr"  time="-9999999/1" value="0" leadInLength="0/1"  />
               <InterpolatingParam id="2669" interp="linr"  time="-9999999/1" value="0" leadInLength="0/1"  />
               <InterpolatingParam id="2670" interp="linr"  time="-9999999/1" value="0" leadInLength="0/1"  />
              </VectorParam>
              <VectorParam id="2671"  name="scale">
               <InterpolatingParam id="2672" interp="linr"  time="-9999999/1" value="1" leadInLength="0/1"  />
               <InterpolatingParam id="2673" interp="linr"  time="-9999999/1" value="1" leadInLength="0/1"  />
               <InterpolatingParam id="2674" interp="linr"  time="-9999999/1" value="1" leadInLength="0/1"  />
              </VectorParam>
              <VectorParam id="2675"  name="anchor">
               <InterpolatingParam id="2676" interp="linr"  time="0/1" value="0" leadInLength="0/1"  />
               <InterpolatingParam id="2677" interp="linr"  time="0/1" value="0" leadInLength="0/1"  />
               <InterpolatingParam id="2678" interp="linr"  time="0/1" value="0" leadInLength="0/1"  />
              </VectorParam>
             </Transformer>
             <Parameters>
              <VectorParam id="2679"  name="sourceCrop">
               <InterpolatingParam id="2680" interp="linr"  time="0/1" value="0" leadInLength="0/1"  />
               <InterpolatingParam id="2681" interp="linr"  time="0/1" value="0" leadInLength="0/1"  />
               <InterpolatingParam id="2682" interp="linr"  time="0/1" value="0" leadInLength="0/1"  />
               <InterpolatingParam id="2683" interp="linr"  time="0/1" value="0" leadInLength="0/1"  />
              </VectorParam>
              <VectorParam id="2684"  name="geometryCrop">
               <InterpolatingParam id="2685" interp="linr"  time="-9999999/1" value="0" leadInLength="0/1"  />
               <InterpolatingParam id="2686" interp="linr"  time="-9999999/1" value="0" leadInLength="0/1"  />
               <InterpolatingParam id="2687" interp="linr"  time="-9999999/1" value="0" leadInLength="0/1"  />
               <InterpolatingParam id="2688" interp="linr"  time="-9999999/1" value="0" leadInLength="0/1"  />
              </VectorParam>
              <InterpolatingParam id="2689" interp="linr"  time="-9999999/1" value="1" leadInLength="0/1"  name="opacity"/>
              <InterpolatingParam id="2690" interp="linr"  time="0/1" value="0" leadInLength="0/1"  name="cursorOpacity"/>
              <InterpolatingParam id="2691" interp="linr"  time="0/1" value="0" leadInLength="0/1"  name="cursorScale"/>
             </Parameters>
             <Attributes>
              <Attribute id="2692" value="" name="ident"/>
             </Attributes>
             <ExtraData>
              <Entry key="ZoomPanBin">
               <ZoomPanBin id="2693"  >
                <ZoomPanKeyframes>
                 <ZoomPanKeyframe id="2694" timeRangeEnd="-9999999/1" timeRangeDuration="0/1" interpolaterName=""  />
                </ZoomPanKeyframes>
               </ZoomPanBin>
              </Entry>
              <Entry key="CursorEffectBin">
               <CursorEffectBin id="2695"  >
                <CursorEffectKeyframes>
                </CursorEffectKeyframes>
               </CursorEffectBin>
              </Entry>
             </ExtraData>
            </ScreenVMFile>
            <MetaData>
             <entry key="AutoAppliedSmartFocus" val="False"/>
             <entry key="WinSubProjectDisplayName" val=""/>
            </MetaData>
           </UnifiedMedia>
           <UnifiedMedia id="2696"  >
            <AMFile id="2697" start="2095" duration="108" scalar="1/1" mediaStart="4581/1" mediaDuration="108/1" trackNumber="1" src="5" channelNumber="0,1" >
             <Parameters>
              <InterpolatingParam id="2698" interp="linr"  time="0/1" value="1" leadInLength="0/1"  name="volume"/>
              <Parameter id="2699"  name="captions"/>
             </Parameters>
             <Attributes>
              <Attribute id="2700" value="" name="ident"/>
              <Attribute id="2701" value="44100" name="sampleRate"/>
              <Attribute id="2702" value="16" name="bitDepth"/>
              <Attribute id="2703" value="1" name="gain"/>
              <Attribute id="2704" value="0" name="mixToMono"/>
             </Attributes>
            </AMFile>
            <ScreenVMFile id="2705" start="2095" duration="108" scalar="1/1" mediaStart="4581/1" mediaDuration="108/1" trackNumber="0" src="5" >
             <Transformer>
              <VectorParam id="2706"  name="translation">
               <InterpolatingParam id="2707" interp="linr"  time="-9999999/1" value="0" leadInLength="0/1"  />
               <InterpolatingParam id="2708" interp="linr"  time="-9999999/1" value="0" leadInLength="0/1"  />
               <InterpolatingParam id="2709" interp="linr"  time="-9999999/1" value="0" leadInLength="0/1"  />
              </VectorParam>
              <VectorParam id="2710"  name="rotation">
               <InterpolatingParam id="2711" interp="linr"  time="-9999999/1" value="0" leadInLength="0/1"  />
               <InterpolatingParam id="2712" interp="linr"  time="-9999999/1" value="0" leadInLength="0/1"  />
               <InterpolatingParam id="2713" interp="linr"  time="-9999999/1" value="0" leadInLength="0/1"  />
              </VectorParam>
              <VectorParam id="2714"  name="shear">
               <InterpolatingParam id="2715" interp="linr"  time="-9999999/1" value="0" leadInLength="0/1"  />
               <InterpolatingParam id="2716" interp="linr"  time="-9999999/1" value="0" leadInLength="0/1"  />
               <InterpolatingParam id="2717" interp="linr"  time="-9999999/1" value="0" leadInLength="0/1"  />
              </VectorParam>
              <VectorParam id="2718"  name="scale">
               <InterpolatingParam id="2719" interp="linr"  time="-9999999/1" value="1" leadInLength="0/1"  />
               <InterpolatingParam id="2720" interp="linr"  time="-9999999/1" value="1" leadInLength="0/1"  />
               <InterpolatingParam id="2721" interp="linr"  time="-9999999/1" value="1" leadInLength="0/1"  />
              </VectorParam>
              <VectorParam id="2722"  name="anchor">
               <InterpolatingParam id="2723" interp="linr"  time="0/1" value="0" leadInLength="0/1"  />
               <InterpolatingParam id="2724" interp="linr"  time="0/1" value="0" leadInLength="0/1"  />
               <InterpolatingParam id="2725" interp="linr"  time="0/1" value="0" leadInLength="0/1"  />
              </VectorParam>
             </Transformer>
             <Parameters>
              <VectorParam id="2726"  name="sourceCrop">
               <InterpolatingParam id="2727" interp="linr"  time="0/1" value="0" leadInLength="0/1"  />
               <InterpolatingParam id="2728" interp="linr"  time="0/1" value="0" leadInLength="0/1"  />
               <InterpolatingParam id="2729" interp="linr"  time="0/1" value="0" leadInLength="0/1"  />
               <InterpolatingParam id="2730" interp="linr"  time="0/1" value="0" leadInLength="0/1"  />
              </VectorParam>
              <VectorParam id="2731"  name="geometryCrop">
               <InterpolatingParam id="2732" interp="linr"  time="-9999999/1" value="0" leadInLength="0/1"  />
               <InterpolatingParam id="2733" interp="linr"  time="-9999999/1" value="0" leadInLength="0/1"  />
               <InterpolatingParam id="2734" interp="linr"  time="-9999999/1" value="0" leadInLength="0/1"  />
               <InterpolatingParam id="2735" interp="linr"  time="-9999999/1" value="0" leadInLength="0/1"  />
              </VectorParam>
              <InterpolatingParam id="2736" interp="linr"  time="-9999999/1" value="1" leadInLength="0/1"  name="opacity"/>
              <InterpolatingParam id="2737" interp="linr"  time="0/1" value="0" leadInLength="0/1"  name="cursorOpacity"/>
              <InterpolatingParam id="2738" interp="linr"  time="0/1" value="0" leadInLength="0/1"  name="cursorScale"/>
             </Parameters>
             <Attributes>
              <Attribute id="2739" value="" name="ident"/>
             </Attributes>
             <ExtraData>
              <Entry key="ZoomPanBin">
               <ZoomPanBin id="2740"  >
                <ZoomPanKeyframes>
                 <ZoomPanKeyframe id="2741" timeRangeEnd="-9999999/1" timeRangeDuration="0/1" interpolaterName=""  />
                </ZoomPanKeyframes>
               </ZoomPanBin>
              </Entry>
              <Entry key="CursorEffectBin">
               <CursorEffectBin id="2742"  >
                <CursorEffectKeyframes>
                </CursorEffectKeyframes>
               </CursorEffectBin>
              </Entry>
             </ExtraData>
            </ScreenVMFile>
            <MetaData>
             <entry key="AutoAppliedSmartFocus" val="False"/>
             <entry key="WinSubProjectDisplayName" val=""/>
            </MetaData>
           </UnifiedMedia>
           <UnifiedMedia id="2743"  >
            <AMFile id="2744" start="2203" duration="47" scalar="1/1" mediaStart="4698/1" mediaDuration="47/1" trackNumber="1" src="5" channelNumber="0,1" >
             <Parameters>
              <InterpolatingParam id="2745" interp="linr"  time="0/1" value="1" leadInLength="0/1"  name="volume"/>
              <Parameter id="2746"  name="captions"/>
             </Parameters>
             <Attributes>
              <Attribute id="2747" value="" name="ident"/>
              <Attribute id="2748" value="44100" name="sampleRate"/>
              <Attribute id="2749" value="16" name="bitDepth"/>
              <Attribute id="2750" value="1" name="gain"/>
              <Attribute id="2751" value="0" name="mixToMono"/>
             </Attributes>
            </AMFile>
            <ScreenVMFile id="2752" start="2203" duration="47" scalar="1/1" mediaStart="4698/1" mediaDuration="47/1" trackNumber="0" src="5" >
             <Transformer>
              <VectorParam id="2753"  name="translation">
               <InterpolatingParam id="2754" interp="linr"  time="-9999999/1" value="0" leadInLength="0/1"  />
               <InterpolatingParam id="2755" interp="linr"  time="-9999999/1" value="0" leadInLength="0/1"  />
               <InterpolatingParam id="2756" interp="linr"  time="-9999999/1" value="0" leadInLength="0/1"  />
              </VectorParam>
              <VectorParam id="2757"  name="rotation">
               <InterpolatingParam id="2758" interp="linr"  time="-9999999/1" value="0" leadInLength="0/1"  />
               <InterpolatingParam id="2759" interp="linr"  time="-9999999/1" value="0" leadInLength="0/1"  />
               <InterpolatingParam id="2760" interp="linr"  time="-9999999/1" value="0" leadInLength="0/1"  />
              </VectorParam>
              <VectorParam id="2761"  name="shear">
               <InterpolatingParam id="2762" interp="linr"  time="-9999999/1" value="0" leadInLength="0/1"  />
               <InterpolatingParam id="2763" interp="linr"  time="-9999999/1" value="0" leadInLength="0/1"  />
               <InterpolatingParam id="2764" interp="linr"  time="-9999999/1" value="0" leadInLength="0/1"  />
              </VectorParam>
              <VectorParam id="2765"  name="scale">
               <InterpolatingParam id="2766" interp="linr"  time="-9999999/1" value="1" leadInLength="0/1"  />
               <InterpolatingParam id="2767" interp="linr"  time="-9999999/1" value="1" leadInLength="0/1"  />
               <InterpolatingParam id="2768" interp="linr"  time="-9999999/1" value="1" leadInLength="0/1"  />
              </VectorParam>
              <VectorParam id="2769"  name="anchor">
               <InterpolatingParam id="2770" interp="linr"  time="0/1" value="0" leadInLength="0/1"  />
               <InterpolatingParam id="2771" interp="linr"  time="0/1" value="0" leadInLength="0/1"  />
               <InterpolatingParam id="2772" interp="linr"  time="0/1" value="0" leadInLength="0/1"  />
              </VectorParam>
             </Transformer>
             <Parameters>
              <VectorParam id="2773"  name="sourceCrop">
               <InterpolatingParam id="2774" interp="linr"  time="0/1" value="0" leadInLength="0/1"  />
               <InterpolatingParam id="2775" interp="linr"  time="0/1" value="0" leadInLength="0/1"  />
               <InterpolatingParam id="2776" interp="linr"  time="0/1" value="0" leadInLength="0/1"  />
               <InterpolatingParam id="2777" interp="linr"  time="0/1" value="0" leadInLength="0/1"  />
              </VectorParam>
              <VectorParam id="2778"  name="geometryCrop">
               <InterpolatingParam id="2779" interp="linr"  time="-9999999/1" value="0" leadInLength="0/1"  />
               <InterpolatingParam id="2780" interp="linr"  time="-9999999/1" value="0" leadInLength="0/1"  />
               <InterpolatingParam id="2781" interp="linr"  time="-9999999/1" value="0" leadInLength="0/1"  />
               <InterpolatingParam id="2782" interp="linr"  time="-9999999/1" value="0" leadInLength="0/1"  />
              </VectorParam>
              <InterpolatingParam id="2783" interp="linr"  time="-9999999/1" value="1" leadInLength="0/1"  name="opacity"/>
              <InterpolatingParam id="2784" interp="linr"  time="0/1" value="0" leadInLength="0/1"  name="cursorOpacity"/>
              <InterpolatingParam id="2785" interp="linr"  time="0/1" value="0" leadInLength="0/1"  name="cursorScale"/>
             </Parameters>
             <Attributes>
              <Attribute id="2786" value="" name="ident"/>
             </Attributes>
             <ExtraData>
              <Entry key="ZoomPanBin">
               <ZoomPanBin id="2787"  >
                <ZoomPanKeyframes>
                 <ZoomPanKeyframe id="2788" timeRangeEnd="-9999999/1" timeRangeDuration="0/1" interpolaterName=""  />
                </ZoomPanKeyframes>
               </ZoomPanBin>
              </Entry>
              <Entry key="CursorEffectBin">
               <CursorEffectBin id="2789"  >
                <CursorEffectKeyframes>
                </CursorEffectKeyframes>
               </CursorEffectBin>
              </Entry>
             </ExtraData>
            </ScreenVMFile>
            <MetaData>
             <entry key="AutoAppliedSmartFocus" val="False"/>
             <entry key="WinSubProjectDisplayName" val=""/>
            </MetaData>
           </UnifiedMedia>
           <UnifiedMedia id="2790"  >
            <AMFile id="2791" start="2250" duration="99" scalar="1/1" mediaStart="4755/1" mediaDuration="99/1" trackNumber="1" src="5" channelNumber="0,1" >
             <Parameters>
              <InterpolatingParam id="2792" interp="linr"  time="0/1" value="1" leadInLength="0/1"  name="volume"/>
              <Parameter id="2793"  name="captions"/>
             </Parameters>
             <Attributes>
              <Attribute id="2794" value="" name="ident"/>
              <Attribute id="2795" value="44100" name="sampleRate"/>
              <Attribute id="2796" value="16" name="bitDepth"/>
              <Attribute id="2797" value="1" name="gain"/>
              <Attribute id="2798" value="0" name="mixToMono"/>
             </Attributes>
            </AMFile>
            <ScreenVMFile id="2799" start="2250" duration="99" scalar="1/1" mediaStart="4755/1" mediaDuration="99/1" trackNumber="0" src="5" >
             <Transformer>
              <VectorParam id="2800"  name="translation">
               <InterpolatingParam id="2801" interp="linr"  time="-9999999/1" value="0" leadInLength="0/1"  />
               <InterpolatingParam id="2802" interp="linr"  time="-9999999/1" value="0" leadInLength="0/1"  />
               <InterpolatingParam id="2803" interp="linr"  time="-9999999/1" value="0" leadInLength="0/1"  />
              </VectorParam>
              <VectorParam id="2804"  name="rotation">
               <InterpolatingParam id="2805" interp="linr"  time="-9999999/1" value="0" leadInLength="0/1"  />
               <InterpolatingParam id="2806" interp="linr"  time="-9999999/1" value="0" leadInLength="0/1"  />
               <InterpolatingParam id="2807" interp="linr"  time="-9999999/1" value="0" leadInLength="0/1"  />
              </VectorParam>
              <VectorParam id="2808"  name="shear">
               <InterpolatingParam id="2809" interp="linr"  time="-9999999/1" value="0" leadInLength="0/1"  />
               <InterpolatingParam id="2810" interp="linr"  time="-9999999/1" value="0" leadInLength="0/1"  />
               <InterpolatingParam id="2811" interp="linr"  time="-9999999/1" value="0" leadInLength="0/1"  />
              </VectorParam>
              <VectorParam id="2812"  name="scale">
               <InterpolatingParam id="2813" interp="linr"  time="-9999999/1" value="1" leadInLength="0/1"  />
               <InterpolatingParam id="2814" interp="linr"  time="-9999999/1" value="1" leadInLength="0/1"  />
               <InterpolatingParam id="2815" interp="linr"  time="-9999999/1" value="1" leadInLength="0/1"  />
              </VectorParam>
              <VectorParam id="2816"  name="anchor">
               <InterpolatingParam id="2817" interp="linr"  time="0/1" value="0" leadInLength="0/1"  />
               <InterpolatingParam id="2818" interp="linr"  time="0/1" value="0" leadInLength="0/1"  />
               <InterpolatingParam id="2819" interp="linr"  time="0/1" value="0" leadInLength="0/1"  />
              </VectorParam>
             </Transformer>
             <Parameters>
              <VectorParam id="2820"  name="sourceCrop">
               <InterpolatingParam id="2821" interp="linr"  time="0/1" value="0" leadInLength="0/1"  />
               <InterpolatingParam id="2822" interp="linr"  time="0/1" value="0" leadInLength="0/1"  />
               <InterpolatingParam id="2823" interp="linr"  time="0/1" value="0" leadInLength="0/1"  />
               <InterpolatingParam id="2824" interp="linr"  time="0/1" value="0" leadInLength="0/1"  />
              </VectorParam>
              <VectorParam id="2825"  name="geometryCrop">
               <InterpolatingParam id="2826" interp="linr"  time="-9999999/1" value="0" leadInLength="0/1"  />
               <InterpolatingParam id="2827" interp="linr"  time="-9999999/1" value="0" leadInLength="0/1"  />
               <InterpolatingParam id="2828" interp="linr"  time="-9999999/1" value="0" leadInLength="0/1"  />
               <InterpolatingParam id="2829" interp="linr"  time="-9999999/1" value="0" leadInLength="0/1"  />
              </VectorParam>
              <InterpolatingParam id="2830" interp="linr"  time="-9999999/1" value="1" leadInLength="0/1"  name="opacity"/>
              <InterpolatingParam id="2831" interp="linr"  time="0/1" value="0" leadInLength="0/1"  name="cursorOpacity"/>
              <InterpolatingParam id="2832" interp="linr"  time="0/1" value="0" leadInLength="0/1"  name="cursorScale"/>
             </Parameters>
             <Attributes>
              <Attribute id="2833" value="" name="ident"/>
             </Attributes>
             <ExtraData>
              <Entry key="ZoomPanBin">
               <ZoomPanBin id="2834"  >
                <ZoomPanKeyframes>
                 <ZoomPanKeyframe id="2835" timeRangeEnd="-9999999/1" timeRangeDuration="0/1" interpolaterName=""  />
                </ZoomPanKeyframes>
               </ZoomPanBin>
              </Entry>
              <Entry key="CursorEffectBin">
               <CursorEffectBin id="2836"  >
                <CursorEffectKeyframes>
                </CursorEffectKeyframes>
               </CursorEffectBin>
              </Entry>
             </ExtraData>
            </ScreenVMFile>
            <MetaData>
             <entry key="AutoAppliedSmartFocus" val="False"/>
             <entry key="WinSubProjectDisplayName" val=""/>
            </MetaData>
           </UnifiedMedia>
           <UnifiedMedia id="2837"  >
            <AMFile id="2838" start="2349" duration="161" scalar="1/1" mediaStart="4864/1" mediaDuration="161/1" trackNumber="1" src="5" channelNumber="0,1" >
             <Parameters>
              <InterpolatingParam id="2839" interp="linr"  time="0/1" value="1" leadInLength="0/1"  name="volume"/>
              <Parameter id="2840"  name="captions"/>
             </Parameters>
             <Attributes>
              <Attribute id="2841" value="" name="ident"/>
              <Attribute id="2842" value="44100" name="sampleRate"/>
              <Attribute id="2843" value="16" name="bitDepth"/>
              <Attribute id="2844" value="1" name="gain"/>
              <Attribute id="2845" value="0" name="mixToMono"/>
             </Attributes>
            </AMFile>
            <ScreenVMFile id="2846" start="2349" duration="161" scalar="1/1" mediaStart="4864/1" mediaDuration="161/1" trackNumber="0" src="5" >
             <Transformer>
              <VectorParam id="2847"  name="translation">
               <InterpolatingParam id="2848" interp="linr"  time="-9999999/1" value="0" leadInLength="0/1"  />
               <InterpolatingParam id="2849" interp="linr"  time="-9999999/1" value="0" leadInLength="0/1"  />
               <InterpolatingParam id="2850" interp="linr"  time="-9999999/1" value="0" leadInLength="0/1"  />
              </VectorParam>
              <VectorParam id="2851"  name="rotation">
               <InterpolatingParam id="2852" interp="linr"  time="-9999999/1" value="0" leadInLength="0/1"  />
               <InterpolatingParam id="2853" interp="linr"  time="-9999999/1" value="0" leadInLength="0/1"  />
               <InterpolatingParam id="2854" interp="linr"  time="-9999999/1" value="0" leadInLength="0/1"  />
              </VectorParam>
              <VectorParam id="2855"  name="shear">
               <InterpolatingParam id="2856" interp="linr"  time="-9999999/1" value="0" leadInLength="0/1"  />
               <InterpolatingParam id="2857" interp="linr"  time="-9999999/1" value="0" leadInLength="0/1"  />
               <InterpolatingParam id="2858" interp="linr"  time="-9999999/1" value="0" leadInLength="0/1"  />
              </VectorParam>
              <VectorParam id="2859"  name="scale">
               <InterpolatingParam id="2860" interp="linr"  time="-9999999/1" value="1" leadInLength="0/1"  />
               <InterpolatingParam id="2861" interp="linr"  time="-9999999/1" value="1" leadInLength="0/1"  />
               <InterpolatingParam id="2862" interp="linr"  time="-9999999/1" value="1" leadInLength="0/1"  />
              </VectorParam>
              <VectorParam id="2863"  name="anchor">
               <InterpolatingParam id="2864" interp="linr"  time="0/1" value="0" leadInLength="0/1"  />
               <InterpolatingParam id="2865" interp="linr"  time="0/1" value="0" leadInLength="0/1"  />
               <InterpolatingParam id="2866" interp="linr"  time="0/1" value="0" leadInLength="0/1"  />
              </VectorParam>
             </Transformer>
             <Parameters>
              <VectorParam id="2867"  name="sourceCrop">
               <InterpolatingParam id="2868" interp="linr"  time="0/1" value="0" leadInLength="0/1"  />
               <InterpolatingParam id="2869" interp="linr"  time="0/1" value="0" leadInLength="0/1"  />
               <InterpolatingParam id="2870" interp="linr"  time="0/1" value="0" leadInLength="0/1"  />
               <InterpolatingParam id="2871" interp="linr"  time="0/1" value="0" leadInLength="0/1"  />
              </VectorParam>
              <VectorParam id="2872"  name="geometryCrop">
               <InterpolatingParam id="2873" interp="linr"  time="-9999999/1" value="0" leadInLength="0/1"  />
               <InterpolatingParam id="2874" interp="linr"  time="-9999999/1" value="0" leadInLength="0/1"  />
               <InterpolatingParam id="2875" interp="linr"  time="-9999999/1" value="0" leadInLength="0/1"  />
               <InterpolatingParam id="2876" interp="linr"  time="-9999999/1" value="0" leadInLength="0/1"  />
              </VectorParam>
              <InterpolatingParam id="2877" interp="linr"  time="-9999999/1" value="1" leadInLength="0/1"  name="opacity"/>
              <InterpolatingParam id="2878" interp="linr"  time="0/1" value="0" leadInLength="0/1"  name="cursorOpacity"/>
              <InterpolatingParam id="2879" interp="linr"  time="0/1" value="0" leadInLength="0/1"  name="cursorScale"/>
             </Parameters>
             <Attributes>
              <Attribute id="2880" value="" name="ident"/>
             </Attributes>
             <ExtraData>
              <Entry key="ZoomPanBin">
               <ZoomPanBin id="2881"  >
                <ZoomPanKeyframes>
                 <ZoomPanKeyframe id="2882" timeRangeEnd="-9999999/1" timeRangeDuration="0/1" interpolaterName=""  />
                </ZoomPanKeyframes>
               </ZoomPanBin>
              </Entry>
              <Entry key="CursorEffectBin">
               <CursorEffectBin id="2883"  >
                <CursorEffectKeyframes>
                </CursorEffectKeyframes>
               </CursorEffectBin>
              </Entry>
             </ExtraData>
            </ScreenVMFile>
            <MetaData>
             <entry key="AutoAppliedSmartFocus" val="False"/>
             <entry key="WinSubProjectDisplayName" val=""/>
            </MetaData>
           </UnifiedMedia>
           <UnifiedMedia id="2884"  >
            <AMFile id="2885" start="2510" duration="218" scalar="1/1" mediaStart="5039/1" mediaDuration="218/1" trackNumber="1" src="5" channelNumber="0,1" >
             <Parameters>
              <InterpolatingParam id="2886" interp="linr"  time="0/1" value="1" leadInLength="0/1"  name="volume"/>
              <Parameter id="2887"  name="captions"/>
             </Parameters>
             <Attributes>
              <Attribute id="2888" value="" name="ident"/>
              <Attribute id="2889" value="44100" name="sampleRate"/>
              <Attribute id="2890" value="16" name="bitDepth"/>
              <Attribute id="2891" value="1" name="gain"/>
              <Attribute id="2892" value="0" name="mixToMono"/>
             </Attributes>
            </AMFile>
            <ScreenVMFile id="2893" start="2510" duration="218" scalar="1/1" mediaStart="5039/1" mediaDuration="218/1" trackNumber="0" src="5" >
             <Transformer>
              <VectorParam id="2894"  name="translation">
               <InterpolatingParam id="2895" interp="linr"  time="-9999999/1" value="0" leadInLength="0/1"  />
               <InterpolatingParam id="2896" interp="linr"  time="-9999999/1" value="0" leadInLength="0/1"  />
               <InterpolatingParam id="2897" interp="linr"  time="-9999999/1" value="0" leadInLength="0/1"  />
              </VectorParam>
              <VectorParam id="2898"  name="rotation">
               <InterpolatingParam id="2899" interp="linr"  time="-9999999/1" value="0" leadInLength="0/1"  />
               <InterpolatingParam id="2900" interp="linr"  time="-9999999/1" value="0" leadInLength="0/1"  />
               <InterpolatingParam id="2901" interp="linr"  time="-9999999/1" value="0" leadInLength="0/1"  />
              </VectorParam>
              <VectorParam id="2902"  name="shear">
               <InterpolatingParam id="2903" interp="linr"  time="-9999999/1" value="0" leadInLength="0/1"  />
               <InterpolatingParam id="2904" interp="linr"  time="-9999999/1" value="0" leadInLength="0/1"  />
               <InterpolatingParam id="2905" interp="linr"  time="-9999999/1" value="0" leadInLength="0/1"  />
              </VectorParam>
              <VectorParam id="2906"  name="scale">
               <InterpolatingParam id="2907" interp="linr"  time="-9999999/1" value="1" leadInLength="0/1"  />
               <InterpolatingParam id="2908" interp="linr"  time="-9999999/1" value="1" leadInLength="0/1"  />
               <InterpolatingParam id="2909" interp="linr"  time="-9999999/1" value="1" leadInLength="0/1"  />
              </VectorParam>
              <VectorParam id="2910"  name="anchor">
               <InterpolatingParam id="2911" interp="linr"  time="0/1" value="0" leadInLength="0/1"  />
               <InterpolatingParam id="2912" interp="linr"  time="0/1" value="0" leadInLength="0/1"  />
               <InterpolatingParam id="2913" interp="linr"  time="0/1" value="0" leadInLength="0/1"  />
              </VectorParam>
             </Transformer>
             <Parameters>
              <VectorParam id="2914"  name="sourceCrop">
               <InterpolatingParam id="2915" interp="linr"  time="0/1" value="0" leadInLength="0/1"  />
               <InterpolatingParam id="2916" interp="linr"  time="0/1" value="0" leadInLength="0/1"  />
               <InterpolatingParam id="2917" interp="linr"  time="0/1" value="0" leadInLength="0/1"  />
               <InterpolatingParam id="2918" interp="linr"  time="0/1" value="0" leadInLength="0/1"  />
              </VectorParam>
              <VectorParam id="2919"  name="geometryCrop">
               <InterpolatingParam id="2920" interp="linr"  time="-9999999/1" value="0" leadInLength="0/1"  />
               <InterpolatingParam id="2921" interp="linr"  time="-9999999/1" value="0" leadInLength="0/1"  />
               <InterpolatingParam id="2922" interp="linr"  time="-9999999/1" value="0" leadInLength="0/1"  />
               <InterpolatingParam id="2923" interp="linr"  time="-9999999/1" value="0" leadInLength="0/1"  />
              </VectorParam>
              <InterpolatingParam id="2924" interp="linr"  time="-9999999/1" value="1" leadInLength="0/1"  name="opacity"/>
              <InterpolatingParam id="2925" interp="linr"  time="0/1" value="0" leadInLength="0/1"  name="cursorOpacity"/>
              <InterpolatingParam id="2926" interp="linr"  time="0/1" value="0" leadInLength="0/1"  name="cursorScale"/>
             </Parameters>
             <Attributes>
              <Attribute id="2927" value="" name="ident"/>
             </Attributes>
             <ExtraData>
              <Entry key="ZoomPanBin">
               <ZoomPanBin id="2928"  >
                <ZoomPanKeyframes>
                 <ZoomPanKeyframe id="2929" timeRangeEnd="-9999999/1" timeRangeDuration="0/1" interpolaterName=""  />
                </ZoomPanKeyframes>
               </ZoomPanBin>
              </Entry>
              <Entry key="CursorEffectBin">
               <CursorEffectBin id="2930"  >
                <CursorEffectKeyframes>
                </CursorEffectKeyframes>
               </CursorEffectBin>
              </Entry>
             </ExtraData>
            </ScreenVMFile>
            <MetaData>
             <entry key="AutoAppliedSmartFocus" val="False"/>
             <entry key="WinSubProjectDisplayName" val=""/>
            </MetaData>
           </UnifiedMedia>
           <UnifiedMedia id="2931"  >
            <AMFile id="2932" start="2728" duration="216" scalar="1/1" mediaStart="5643/1" mediaDuration="216/1" trackNumber="1" src="5" channelNumber="0,1" >
             <Parameters>
              <InterpolatingParam id="2933" interp="linr"  time="0/1" value="1" leadInLength="0/1"  name="volume"/>
              <Parameter id="2934"  name="captions"/>
             </Parameters>
             <Attributes>
              <Attribute id="2935" value="" name="ident"/>
              <Attribute id="2936" value="44100" name="sampleRate"/>
              <Attribute id="2937" value="16" name="bitDepth"/>
              <Attribute id="2938" value="1" name="gain"/>
              <Attribute id="2939" value="0" name="mixToMono"/>
             </Attributes>
            </AMFile>
            <ScreenVMFile id="2940" start="2728" duration="216" scalar="1/1" mediaStart="5643/1" mediaDuration="216/1" trackNumber="0" src="5" >
             <Transformer>
              <VectorParam id="2941"  name="translation">
               <InterpolatingParam id="2942" interp="linr"  time="-9999999/1" value="0" leadInLength="0/1"  />
               <InterpolatingParam id="2943" interp="linr"  time="-9999999/1" value="0" leadInLength="0/1"  />
               <InterpolatingParam id="2944" interp="linr"  time="-9999999/1" value="0" leadInLength="0/1"  />
              </VectorParam>
              <VectorParam id="2945"  name="rotation">
               <InterpolatingParam id="2946" interp="linr"  time="-9999999/1" value="0" leadInLength="0/1"  />
               <InterpolatingParam id="2947" interp="linr"  time="-9999999/1" value="0" leadInLength="0/1"  />
               <InterpolatingParam id="2948" interp="linr"  time="-9999999/1" value="0" leadInLength="0/1"  />
              </VectorParam>
              <VectorParam id="2949"  name="shear">
               <InterpolatingParam id="2950" interp="linr"  time="-9999999/1" value="0" leadInLength="0/1"  />
               <InterpolatingParam id="2951" interp="linr"  time="-9999999/1" value="0" leadInLength="0/1"  />
               <InterpolatingParam id="2952" interp="linr"  time="-9999999/1" value="0" leadInLength="0/1"  />
              </VectorParam>
              <VectorParam id="2953"  name="scale">
               <InterpolatingParam id="2954" interp="linr"  time="-9999999/1" value="1" leadInLength="0/1"  />
               <InterpolatingParam id="2955" interp="linr"  time="-9999999/1" value="1" leadInLength="0/1"  />
               <InterpolatingParam id="2956" interp="linr"  time="-9999999/1" value="1" leadInLength="0/1"  />
              </VectorParam>
              <VectorParam id="2957"  name="anchor">
               <InterpolatingParam id="2958" interp="linr"  time="0/1" value="0" leadInLength="0/1"  />
               <InterpolatingParam id="2959" interp="linr"  time="0/1" value="0" leadInLength="0/1"  />
               <InterpolatingParam id="2960" interp="linr"  time="0/1" value="0" leadInLength="0/1"  />
              </VectorParam>
             </Transformer>
             <Parameters>
              <VectorParam id="2961"  name="sourceCrop">
               <InterpolatingParam id="2962" interp="linr"  time="0/1" value="0" leadInLength="0/1"  />
               <InterpolatingParam id="2963" interp="linr"  time="0/1" value="0" leadInLength="0/1"  />
               <InterpolatingParam id="2964" interp="linr"  time="0/1" value="0" leadInLength="0/1"  />
               <InterpolatingParam id="2965" interp="linr"  time="0/1" value="0" leadInLength="0/1"  />
              </VectorParam>
              <VectorParam id="2966"  name="geometryCrop">
               <InterpolatingParam id="2967" interp="linr"  time="-9999999/1" value="0" leadInLength="0/1"  />
               <InterpolatingParam id="2968" interp="linr"  time="-9999999/1" value="0" leadInLength="0/1"  />
               <InterpolatingParam id="2969" interp="linr"  time="-9999999/1" value="0" leadInLength="0/1"  />
               <InterpolatingParam id="2970" interp="linr"  time="-9999999/1" value="0" leadInLength="0/1"  />
              </VectorParam>
              <InterpolatingParam id="2971" interp="linr"  time="-9999999/1" value="1" leadInLength="0/1"  name="opacity"/>
              <InterpolatingParam id="2972" interp="linr"  time="0/1" value="0" leadInLength="0/1"  name="cursorOpacity"/>
              <InterpolatingParam id="2973" interp="linr"  time="0/1" value="0" leadInLength="0/1"  name="cursorScale"/>
             </Parameters>
             <Attributes>
              <Attribute id="2974" value="" name="ident"/>
             </Attributes>
             <ExtraData>
              <Entry key="ZoomPanBin">
               <ZoomPanBin id="2975"  >
                <ZoomPanKeyframes>
                 <ZoomPanKeyframe id="2976" timeRangeEnd="-9999999/1" timeRangeDuration="0/1" interpolaterName=""  />
                </ZoomPanKeyframes>
               </ZoomPanBin>
              </Entry>
              <Entry key="CursorEffectBin">
               <CursorEffectBin id="2977"  >
                <CursorEffectKeyframes>
                </CursorEffectKeyframes>
               </CursorEffectBin>
              </Entry>
             </ExtraData>
            </ScreenVMFile>
            <MetaData>
             <entry key="AutoAppliedSmartFocus" val="False"/>
             <entry key="WinSubProjectDisplayName" val=""/>
            </MetaData>
           </UnifiedMedia>
           <UnifiedMedia id="2978"  >
            <AMFile id="2979" start="2944" duration="502" scalar="1/1" mediaStart="6445/1" mediaDuration="502/1" trackNumber="1" src="5" channelNumber="0,1" >
             <Parameters>
              <InterpolatingParam id="2980" interp="linr"  time="0/1" value="1" leadInLength="0/1"  name="volume"/>
              <Parameter id="2981"  name="captions"/>
             </Parameters>
             <Attributes>
              <Attribute id="2982" value="" name="ident"/>
              <Attribute id="2983" value="44100" name="sampleRate"/>
              <Attribute id="2984" value="16" name="bitDepth"/>
              <Attribute id="2985" value="1" name="gain"/>
              <Attribute id="2986" value="0" name="mixToMono"/>
             </Attributes>
            </AMFile>
            <ScreenVMFile id="2987" start="2944" duration="502" scalar="1/1" mediaStart="6445/1" mediaDuration="502/1" trackNumber="0" src="5" >
             <Transformer>
              <VectorParam id="2988"  name="translation">
               <InterpolatingParam id="2989" interp="linr"  time="-9999999/1" value="0" leadInLength="0/1"  />
               <InterpolatingParam id="2990" interp="linr"  time="-9999999/1" value="0" leadInLength="0/1"  />
               <InterpolatingParam id="2991" interp="linr"  time="-9999999/1" value="0" leadInLength="0/1"  />
              </VectorParam>
              <VectorParam id="2992"  name="rotation">
               <InterpolatingParam id="2993" interp="linr"  time="-9999999/1" value="0" leadInLength="0/1"  />
               <InterpolatingParam id="2994" interp="linr"  time="-9999999/1" value="0" leadInLength="0/1"  />
               <InterpolatingParam id="2995" interp="linr"  time="-9999999/1" value="0" leadInLength="0/1"  />
              </VectorParam>
              <VectorParam id="2996"  name="shear">
               <InterpolatingParam id="2997" interp="linr"  time="-9999999/1" value="0" leadInLength="0/1"  />
               <InterpolatingParam id="2998" interp="linr"  time="-9999999/1" value="0" leadInLength="0/1"  />
               <InterpolatingParam id="2999" interp="linr"  time="-9999999/1" value="0" leadInLength="0/1"  />
              </VectorParam>
              <VectorParam id="3000"  name="scale">
               <InterpolatingParam id="3001" interp="linr"  time="-9999999/1" value="1" leadInLength="0/1"  />
               <InterpolatingParam id="3002" interp="linr"  time="-9999999/1" value="1" leadInLength="0/1"  />
               <InterpolatingParam id="3003" interp="linr"  time="-9999999/1" value="1" leadInLength="0/1"  />
              </VectorParam>
              <VectorParam id="3004"  name="anchor">
               <InterpolatingParam id="3005" interp="linr"  time="0/1" value="0" leadInLength="0/1"  />
               <InterpolatingParam id="3006" interp="linr"  time="0/1" value="0" leadInLength="0/1"  />
               <InterpolatingParam id="3007" interp="linr"  time="0/1" value="0" leadInLength="0/1"  />
              </VectorParam>
             </Transformer>
             <Parameters>
              <VectorParam id="3008"  name="sourceCrop">
               <InterpolatingParam id="3009" interp="linr"  time="0/1" value="0" leadInLength="0/1"  />
               <InterpolatingParam id="3010" interp="linr"  time="0/1" value="0" leadInLength="0/1"  />
               <InterpolatingParam id="3011" interp="linr"  time="0/1" value="0" leadInLength="0/1"  />
               <InterpolatingParam id="3012" interp="linr"  time="0/1" value="0" leadInLength="0/1"  />
              </VectorParam>
              <VectorParam id="3013"  name="geometryCrop">
               <InterpolatingParam id="3014" interp="linr"  time="-9999999/1" value="0" leadInLength="0/1"  />
               <InterpolatingParam id="3015" interp="linr"  time="-9999999/1" value="0" leadInLength="0/1"  />
               <InterpolatingParam id="3016" interp="linr"  time="-9999999/1" value="0" leadInLength="0/1"  />
               <InterpolatingParam id="3017" interp="linr"  time="-9999999/1" value="0" leadInLength="0/1"  />
              </VectorParam>
              <InterpolatingParam id="3018" interp="linr"  time="-9999999/1" value="1" leadInLength="0/1"  name="opacity"/>
              <InterpolatingParam id="3019" interp="linr"  time="0/1" value="0" leadInLength="0/1"  name="cursorOpacity"/>
              <InterpolatingParam id="3020" interp="linr"  time="0/1" value="0" leadInLength="0/1"  name="cursorScale"/>
             </Parameters>
             <Attributes>
              <Attribute id="3021" value="" name="ident"/>
             </Attributes>
             <ExtraData>
              <Entry key="ZoomPanBin">
               <ZoomPanBin id="3022"  >
                <ZoomPanKeyframes>
                 <ZoomPanKeyframe id="3023" timeRangeEnd="-9999999/1" timeRangeDuration="0/1" interpolaterName=""  />
                </ZoomPanKeyframes>
               </ZoomPanBin>
              </Entry>
              <Entry key="CursorEffectBin">
               <CursorEffectBin id="3024"  >
                <CursorEffectKeyframes>
                </CursorEffectKeyframes>
               </CursorEffectBin>
              </Entry>
             </ExtraData>
            </ScreenVMFile>
            <MetaData>
             <entry key="AutoAppliedSmartFocus" val="False"/>
             <entry key="WinSubProjectDisplayName" val=""/>
            </MetaData>
           </UnifiedMedia>
           <UnifiedMedia id="3025"  >
            <AMFile id="3026" start="3446" duration="156" scalar="1/1" mediaStart="7155/1" mediaDuration="156/1" trackNumber="1" src="5" channelNumber="0,1" >
             <Parameters>
              <InterpolatingParam id="3027" interp="linr"  time="0/1" value="1" leadInLength="0/1"  name="volume"/>
              <Parameter id="3028"  name="captions"/>
             </Parameters>
             <Attributes>
              <Attribute id="3029" value="" name="ident"/>
              <Attribute id="3030" value="44100" name="sampleRate"/>
              <Attribute id="3031" value="16" name="bitDepth"/>
              <Attribute id="3032" value="1" name="gain"/>
              <Attribute id="3033" value="0" name="mixToMono"/>
             </Attributes>
            </AMFile>
            <ScreenVMFile id="3034" start="3446" duration="156" scalar="1/1" mediaStart="7155/1" mediaDuration="156/1" trackNumber="0" src="5" >
             <Transformer>
              <VectorParam id="3035"  name="translation">
               <InterpolatingParam id="3036" interp="linr"  time="-9999999/1" value="0" leadInLength="0/1"  />
               <InterpolatingParam id="3037" interp="linr"  time="-9999999/1" value="0" leadInLength="0/1"  />
               <InterpolatingParam id="3038" interp="linr"  time="-9999999/1" value="0" leadInLength="0/1"  />
              </VectorParam>
              <VectorParam id="3039"  name="rotation">
               <InterpolatingParam id="3040" interp="linr"  time="-9999999/1" value="0" leadInLength="0/1"  />
               <InterpolatingParam id="3041" interp="linr"  time="-9999999/1" value="0" leadInLength="0/1"  />
               <InterpolatingParam id="3042" interp="linr"  time="-9999999/1" value="0" leadInLength="0/1"  />
              </VectorParam>
              <VectorParam id="3043"  name="shear">
               <InterpolatingParam id="3044" interp="linr"  time="-9999999/1" value="0" leadInLength="0/1"  />
               <InterpolatingParam id="3045" interp="linr"  time="-9999999/1" value="0" leadInLength="0/1"  />
               <InterpolatingParam id="3046" interp="linr"  time="-9999999/1" value="0" leadInLength="0/1"  />
              </VectorParam>
              <VectorParam id="3047"  name="scale">
               <InterpolatingParam id="3048" interp="linr"  time="-9999999/1" value="1" leadInLength="0/1"  />
               <InterpolatingParam id="3049" interp="linr"  time="-9999999/1" value="1" leadInLength="0/1"  />
               <InterpolatingParam id="3050" interp="linr"  time="-9999999/1" value="1" leadInLength="0/1"  />
              </VectorParam>
              <VectorParam id="3051"  name="anchor">
               <InterpolatingParam id="3052" interp="linr"  time="0/1" value="0" leadInLength="0/1"  />
               <InterpolatingParam id="3053" interp="linr"  time="0/1" value="0" leadInLength="0/1"  />
               <InterpolatingParam id="3054" interp="linr"  time="0/1" value="0" leadInLength="0/1"  />
              </VectorParam>
             </Transformer>
             <Parameters>
              <VectorParam id="3055"  name="sourceCrop">
               <InterpolatingParam id="3056" interp="linr"  time="0/1" value="0" leadInLength="0/1"  />
               <InterpolatingParam id="3057" interp="linr"  time="0/1" value="0" leadInLength="0/1"  />
               <InterpolatingParam id="3058" interp="linr"  time="0/1" value="0" leadInLength="0/1"  />
               <InterpolatingParam id="3059" interp="linr"  time="0/1" value="0" leadInLength="0/1"  />
              </VectorParam>
              <VectorParam id="3060"  name="geometryCrop">
               <InterpolatingParam id="3061" interp="linr"  time="-9999999/1" value="0" leadInLength="0/1"  />
               <InterpolatingParam id="3062" interp="linr"  time="-9999999/1" value="0" leadInLength="0/1"  />
               <InterpolatingParam id="3063" interp="linr"  time="-9999999/1" value="0" leadInLength="0/1"  />
               <InterpolatingParam id="3064" interp="linr"  time="-9999999/1" value="0" leadInLength="0/1"  />
              </VectorParam>
              <InterpolatingParam id="3065" interp="linr"  time="-9999999/1" value="1" leadInLength="0/1"  name="opacity"/>
              <InterpolatingParam id="3066" interp="linr"  time="0/1" value="0" leadInLength="0/1"  name="cursorOpacity"/>
              <InterpolatingParam id="3067" interp="linr"  time="0/1" value="0" leadInLength="0/1"  name="cursorScale"/>
             </Parameters>
             <Attributes>
              <Attribute id="3068" value="" name="ident"/>
             </Attributes>
             <ExtraData>
              <Entry key="ZoomPanBin">
               <ZoomPanBin id="3069"  >
                <ZoomPanKeyframes>
                 <ZoomPanKeyframe id="3070" timeRangeEnd="-9999999/1" timeRangeDuration="0/1" interpolaterName=""  />
                </ZoomPanKeyframes>
               </ZoomPanBin>
              </Entry>
              <Entry key="CursorEffectBin">
               <CursorEffectBin id="3071"  >
                <CursorEffectKeyframes>
                </CursorEffectKeyframes>
               </CursorEffectBin>
              </Entry>
             </ExtraData>
            </ScreenVMFile>
            <MetaData>
             <entry key="AutoAppliedSmartFocus" val="False"/>
             <entry key="WinSubProjectDisplayName" val=""/>
            </MetaData>
           </UnifiedMedia>
           <UnifiedMedia id="3072"  >
            <AMFile id="3073" start="3602" duration="144" scalar="1/1" mediaStart="7587/1" mediaDuration="144/1" trackNumber="1" src="5" channelNumber="0,1" >
             <Parameters>
              <InterpolatingParam id="3074" interp="linr"  time="0/1" value="1" leadInLength="0/1"  name="volume"/>
              <Parameter id="3075"  name="captions"/>
             </Parameters>
             <Attributes>
              <Attribute id="3076" value="" name="ident"/>
              <Attribute id="3077" value="44100" name="sampleRate"/>
              <Attribute id="3078" value="16" name="bitDepth"/>
              <Attribute id="3079" value="1" name="gain"/>
              <Attribute id="3080" value="0" name="mixToMono"/>
             </Attributes>
            </AMFile>
            <ScreenVMFile id="3081" start="3602" duration="144" scalar="1/1" mediaStart="7587/1" mediaDuration="144/1" trackNumber="0" src="5" >
             <Transformer>
              <VectorParam id="3082"  name="translation">
               <InterpolatingParam id="3083" interp="linr"  time="-9999999/1" value="0" leadInLength="0/1"  />
               <InterpolatingParam id="3084" interp="linr"  time="-9999999/1" value="0" leadInLength="0/1"  />
               <InterpolatingParam id="3085" interp="linr"  time="-9999999/1" value="0" leadInLength="0/1"  />
              </VectorParam>
              <VectorParam id="3086"  name="rotation">
               <InterpolatingParam id="3087" interp="linr"  time="-9999999/1" value="0" leadInLength="0/1"  />
               <InterpolatingParam id="3088" interp="linr"  time="-9999999/1" value="0" leadInLength="0/1"  />
               <InterpolatingParam id="3089" interp="linr"  time="-9999999/1" value="0" leadInLength="0/1"  />
              </VectorParam>
              <VectorParam id="3090"  name="shear">
               <InterpolatingParam id="3091" interp="linr"  time="-9999999/1" value="0" leadInLength="0/1"  />
               <InterpolatingParam id="3092" interp="linr"  time="-9999999/1" value="0" leadInLength="0/1"  />
               <InterpolatingParam id="3093" interp="linr"  time="-9999999/1" value="0" leadInLength="0/1"  />
              </VectorParam>
              <VectorParam id="3094"  name="scale">
               <InterpolatingParam id="3095" interp="linr"  time="-9999999/1" value="1" leadInLength="0/1"  />
               <InterpolatingParam id="3096" interp="linr"  time="-9999999/1" value="1" leadInLength="0/1"  />
               <InterpolatingParam id="3097" interp="linr"  time="-9999999/1" value="1" leadInLength="0/1"  />
              </VectorParam>
              <VectorParam id="3098"  name="anchor">
               <InterpolatingParam id="3099" interp="linr"  time="0/1" value="0" leadInLength="0/1"  />
               <InterpolatingParam id="3100" interp="linr"  time="0/1" value="0" leadInLength="0/1"  />
               <InterpolatingParam id="3101" interp="linr"  time="0/1" value="0" leadInLength="0/1"  />
              </VectorParam>
             </Transformer>
             <Parameters>
              <VectorParam id="3102"  name="sourceCrop">
               <InterpolatingParam id="3103" interp="linr"  time="0/1" value="0" leadInLength="0/1"  />
               <InterpolatingParam id="3104" interp="linr"  time="0/1" value="0" leadInLength="0/1"  />
               <InterpolatingParam id="3105" interp="linr"  time="0/1" value="0" leadInLength="0/1"  />
               <InterpolatingParam id="3106" interp="linr"  time="0/1" value="0" leadInLength="0/1"  />
              </VectorParam>
              <VectorParam id="3107"  name="geometryCrop">
               <InterpolatingParam id="3108" interp="linr"  time="-9999999/1" value="0" leadInLength="0/1"  />
               <InterpolatingParam id="3109" interp="linr"  time="-9999999/1" value="0" leadInLength="0/1"  />
               <InterpolatingParam id="3110" interp="linr"  time="-9999999/1" value="0" leadInLength="0/1"  />
               <InterpolatingParam id="3111" interp="linr"  time="-9999999/1" value="0" leadInLength="0/1"  />
              </VectorParam>
              <InterpolatingParam id="3112" interp="linr"  time="-9999999/1" value="1" leadInLength="0/1"  name="opacity"/>
              <InterpolatingParam id="3113" interp="linr"  time="0/1" value="0" leadInLength="0/1"  name="cursorOpacity"/>
              <InterpolatingParam id="3114" interp="linr"  time="0/1" value="0" leadInLength="0/1"  name="cursorScale"/>
             </Parameters>
             <Attributes>
              <Attribute id="3115" value="" name="ident"/>
             </Attributes>
             <ExtraData>
              <Entry key="ZoomPanBin">
               <ZoomPanBin id="3116"  >
                <ZoomPanKeyframes>
                 <ZoomPanKeyframe id="3117" timeRangeEnd="-9999999/1" timeRangeDuration="0/1" interpolaterName=""  />
                </ZoomPanKeyframes>
               </ZoomPanBin>
              </Entry>
              <Entry key="CursorEffectBin">
               <CursorEffectBin id="3118"  >
                <CursorEffectKeyframes>
                </CursorEffectKeyframes>
               </CursorEffectBin>
              </Entry>
             </ExtraData>
            </ScreenVMFile>
            <MetaData>
             <entry key="AutoAppliedSmartFocus" val="False"/>
             <entry key="WinSubProjectDisplayName" val=""/>
            </MetaData>
           </UnifiedMedia>
           <UnifiedMedia id="3119"  >
            <AMFile id="3120" start="3746" duration="66" scalar="1/1" mediaStart="7742/1" mediaDuration="66/1" trackNumber="1" src="5" channelNumber="0,1" >
             <Parameters>
              <InterpolatingParam id="3121" interp="linr"  time="0/1" value="1" leadInLength="0/1"  name="volume"/>
              <Parameter id="3122"  name="captions"/>
             </Parameters>
             <Attributes>
              <Attribute id="3123" value="" name="ident"/>
              <Attribute id="3124" value="44100" name="sampleRate"/>
              <Attribute id="3125" value="16" name="bitDepth"/>
              <Attribute id="3126" value="1" name="gain"/>
              <Attribute id="3127" value="0" name="mixToMono"/>
             </Attributes>
            </AMFile>
            <ScreenVMFile id="3128" start="3746" duration="66" scalar="1/1" mediaStart="7742/1" mediaDuration="66/1" trackNumber="0" src="5" >
             <Transformer>
              <VectorParam id="3129"  name="translation">
               <InterpolatingParam id="3130" interp="linr"  time="-9999999/1" value="0" leadInLength="0/1"  />
               <InterpolatingParam id="3131" interp="linr"  time="-9999999/1" value="0" leadInLength="0/1"  />
               <InterpolatingParam id="3132" interp="linr"  time="-9999999/1" value="0" leadInLength="0/1"  />
              </VectorParam>
              <VectorParam id="3133"  name="rotation">
               <InterpolatingParam id="3134" interp="linr"  time="-9999999/1" value="0" leadInLength="0/1"  />
               <InterpolatingParam id="3135" interp="linr"  time="-9999999/1" value="0" leadInLength="0/1"  />
               <InterpolatingParam id="3136" interp="linr"  time="-9999999/1" value="0" leadInLength="0/1"  />
              </VectorParam>
              <VectorParam id="3137"  name="shear">
               <InterpolatingParam id="3138" interp="linr"  time="-9999999/1" value="0" leadInLength="0/1"  />
               <InterpolatingParam id="3139" interp="linr"  time="-9999999/1" value="0" leadInLength="0/1"  />
               <InterpolatingParam id="3140" interp="linr"  time="-9999999/1" value="0" leadInLength="0/1"  />
              </VectorParam>
              <VectorParam id="3141"  name="scale">
               <InterpolatingParam id="3142" interp="linr"  time="-9999999/1" value="1" leadInLength="0/1"  />
               <InterpolatingParam id="3143" interp="linr"  time="-9999999/1" value="1" leadInLength="0/1"  />
               <InterpolatingParam id="3144" interp="linr"  time="-9999999/1" value="1" leadInLength="0/1"  />
              </VectorParam>
              <VectorParam id="3145"  name="anchor">
               <InterpolatingParam id="3146" interp="linr"  time="0/1" value="0" leadInLength="0/1"  />
               <InterpolatingParam id="3147" interp="linr"  time="0/1" value="0" leadInLength="0/1"  />
               <InterpolatingParam id="3148" interp="linr"  time="0/1" value="0" leadInLength="0/1"  />
              </VectorParam>
             </Transformer>
             <Parameters>
              <VectorParam id="3149"  name="sourceCrop">
               <InterpolatingParam id="3150" interp="linr"  time="0/1" value="0" leadInLength="0/1"  />
               <InterpolatingParam id="3151" interp="linr"  time="0/1" value="0" leadInLength="0/1"  />
               <InterpolatingParam id="3152" interp="linr"  time="0/1" value="0" leadInLength="0/1"  />
               <InterpolatingParam id="3153" interp="linr"  time="0/1" value="0" leadInLength="0/1"  />
              </VectorParam>
              <VectorParam id="3154"  name="geometryCrop">
               <InterpolatingParam id="3155" interp="linr"  time="-9999999/1" value="0" leadInLength="0/1"  />
               <InterpolatingParam id="3156" interp="linr"  time="-9999999/1" value="0" leadInLength="0/1"  />
               <InterpolatingParam id="3157" interp="linr"  time="-9999999/1" value="0" leadInLength="0/1"  />
               <InterpolatingParam id="3158" interp="linr"  time="-9999999/1" value="0" leadInLength="0/1"  />
              </VectorParam>
              <InterpolatingParam id="3159" interp="linr"  time="-9999999/1" value="1" leadInLength="0/1"  name="opacity"/>
              <InterpolatingParam id="3160" interp="linr"  time="0/1" value="0" leadInLength="0/1"  name="cursorOpacity"/>
              <InterpolatingParam id="3161" interp="linr"  time="0/1" value="0" leadInLength="0/1"  name="cursorScale"/>
             </Parameters>
             <Attributes>
              <Attribute id="3162" value="" name="ident"/>
             </Attributes>
             <ExtraData>
              <Entry key="ZoomPanBin">
               <ZoomPanBin id="3163"  >
                <ZoomPanKeyframes>
                 <ZoomPanKeyframe id="3164" timeRangeEnd="-9999999/1" timeRangeDuration="0/1" interpolaterName=""  />
                </ZoomPanKeyframes>
               </ZoomPanBin>
              </Entry>
              <Entry key="CursorEffectBin">
               <CursorEffectBin id="3165"  >
                <CursorEffectKeyframes>
                </CursorEffectKeyframes>
               </CursorEffectBin>
              </Entry>
             </ExtraData>
            </ScreenVMFile>
            <MetaData>
             <entry key="AutoAppliedSmartFocus" val="False"/>
             <entry key="WinSubProjectDisplayName" val=""/>
            </MetaData>
           </UnifiedMedia>
           <UnifiedMedia id="3166"  >
            <AMFile id="3167" start="3812" duration="229" scalar="1/1" mediaStart="7815/1" mediaDuration="229/1" trackNumber="1" src="5" channelNumber="0,1" >
             <Parameters>
              <InterpolatingParam id="3168" interp="linr"  time="0/1" value="1" leadInLength="0/1"  name="volume"/>
              <Parameter id="3169"  name="captions"/>
             </Parameters>
             <Attributes>
              <Attribute id="3170" value="" name="ident"/>
              <Attribute id="3171" value="44100" name="sampleRate"/>
              <Attribute id="3172" value="16" name="bitDepth"/>
              <Attribute id="3173" value="1" name="gain"/>
              <Attribute id="3174" value="0" name="mixToMono"/>
             </Attributes>
            </AMFile>
            <ScreenVMFile id="3175" start="3812" duration="229" scalar="1/1" mediaStart="7815/1" mediaDuration="229/1" trackNumber="0" src="5" >
             <Transformer>
              <VectorParam id="3176"  name="translation">
               <InterpolatingParam id="3177" interp="linr"  time="-9999999/1" value="0" leadInLength="0/1"  />
               <InterpolatingParam id="3178" interp="linr"  time="-9999999/1" value="0" leadInLength="0/1"  />
               <InterpolatingParam id="3179" interp="linr"  time="-9999999/1" value="0" leadInLength="0/1"  />
              </VectorParam>
              <VectorParam id="3180"  name="rotation">
               <InterpolatingParam id="3181" interp="linr"  time="-9999999/1" value="0" leadInLength="0/1"  />
               <InterpolatingParam id="3182" interp="linr"  time="-9999999/1" value="0" leadInLength="0/1"  />
               <InterpolatingParam id="3183" interp="linr"  time="-9999999/1" value="0" leadInLength="0/1"  />
              </VectorParam>
              <VectorParam id="3184"  name="shear">
               <InterpolatingParam id="3185" interp="linr"  time="-9999999/1" value="0" leadInLength="0/1"  />
               <InterpolatingParam id="3186" interp="linr"  time="-9999999/1" value="0" leadInLength="0/1"  />
               <InterpolatingParam id="3187" interp="linr"  time="-9999999/1" value="0" leadInLength="0/1"  />
              </VectorParam>
              <VectorParam id="3188"  name="scale">
               <InterpolatingParam id="3189" interp="linr"  time="-9999999/1" value="1" leadInLength="0/1"  />
               <InterpolatingParam id="3190" interp="linr"  time="-9999999/1" value="1" leadInLength="0/1"  />
               <InterpolatingParam id="3191" interp="linr"  time="-9999999/1" value="1" leadInLength="0/1"  />
              </VectorParam>
              <VectorParam id="3192"  name="anchor">
               <InterpolatingParam id="3193" interp="linr"  time="0/1" value="0" leadInLength="0/1"  />
               <InterpolatingParam id="3194" interp="linr"  time="0/1" value="0" leadInLength="0/1"  />
               <InterpolatingParam id="3195" interp="linr"  time="0/1" value="0" leadInLength="0/1"  />
              </VectorParam>
             </Transformer>
             <Parameters>
              <VectorParam id="3196"  name="sourceCrop">
               <InterpolatingParam id="3197" interp="linr"  time="0/1" value="0" leadInLength="0/1"  />
               <InterpolatingParam id="3198" interp="linr"  time="0/1" value="0" leadInLength="0/1"  />
               <InterpolatingParam id="3199" interp="linr"  time="0/1" value="0" leadInLength="0/1"  />
               <InterpolatingParam id="3200" interp="linr"  time="0/1" value="0" leadInLength="0/1"  />
              </VectorParam>
              <VectorParam id="3201"  name="geometryCrop">
               <InterpolatingParam id="3202" interp="linr"  time="-9999999/1" value="0" leadInLength="0/1"  />
               <InterpolatingParam id="3203" interp="linr"  time="-9999999/1" value="0" leadInLength="0/1"  />
               <InterpolatingParam id="3204" interp="linr"  time="-9999999/1" value="0" leadInLength="0/1"  />
               <InterpolatingParam id="3205" interp="linr"  time="-9999999/1" value="0" leadInLength="0/1"  />
              </VectorParam>
              <InterpolatingParam id="3206" interp="linr"  time="-9999999/1" value="1" leadInLength="0/1"  name="opacity"/>
              <InterpolatingParam id="3207" interp="linr"  time="0/1" value="0" leadInLength="0/1"  name="cursorOpacity"/>
              <InterpolatingParam id="3208" interp="linr"  time="0/1" value="0" leadInLength="0/1"  name="cursorScale"/>
             </Parameters>
             <Attributes>
              <Attribute id="3209" value="" name="ident"/>
             </Attributes>
             <ExtraData>
              <Entry key="ZoomPanBin">
               <ZoomPanBin id="3210"  >
                <ZoomPanKeyframes>
                 <ZoomPanKeyframe id="3211" timeRangeEnd="-9999999/1" timeRangeDuration="0/1" interpolaterName=""  />
                </ZoomPanKeyframes>
               </ZoomPanBin>
              </Entry>
              <Entry key="CursorEffectBin">
               <CursorEffectBin id="3212"  >
                <CursorEffectKeyframes>
                </CursorEffectKeyframes>
               </CursorEffectBin>
              </Entry>
             </ExtraData>
            </ScreenVMFile>
            <MetaData>
             <entry key="AutoAppliedSmartFocus" val="False"/>
             <entry key="WinSubProjectDisplayName" val=""/>
            </MetaData>
           </UnifiedMedia>
           <UnifiedMedia id="3213"  >
            <AMFile id="3214" start="4041" duration="306" scalar="1/1" mediaStart="8359/1" mediaDuration="306/1" trackNumber="1" src="5" channelNumber="0,1" >
             <Parameters>
              <InterpolatingParam id="3215" interp="linr"  time="0/1" value="1" leadInLength="0/1"  name="volume"/>
              <Parameter id="3216"  name="captions"/>
             </Parameters>
             <Attributes>
              <Attribute id="3217" value="" name="ident"/>
              <Attribute id="3218" value="44100" name="sampleRate"/>
              <Attribute id="3219" value="16" name="bitDepth"/>
              <Attribute id="3220" value="1" name="gain"/>
              <Attribute id="3221" value="0" name="mixToMono"/>
             </Attributes>
            </AMFile>
            <ScreenVMFile id="3222" start="4041" duration="306" scalar="1/1" mediaStart="8359/1" mediaDuration="306/1" trackNumber="0" src="5" >
             <Transformer>
              <VectorParam id="3223"  name="translation">
               <InterpolatingParam id="3224" interp="linr"  time="-9999999/1" value="0" leadInLength="0/1"  />
               <InterpolatingParam id="3225" interp="linr"  time="-9999999/1" value="0" leadInLength="0/1"  />
               <InterpolatingParam id="3226" interp="linr"  time="-9999999/1" value="0" leadInLength="0/1"  />
              </VectorParam>
              <VectorParam id="3227"  name="rotation">
               <InterpolatingParam id="3228" interp="linr"  time="-9999999/1" value="0" leadInLength="0/1"  />
               <InterpolatingParam id="3229" interp="linr"  time="-9999999/1" value="0" leadInLength="0/1"  />
               <InterpolatingParam id="3230" interp="linr"  time="-9999999/1" value="0" leadInLength="0/1"  />
              </VectorParam>
              <VectorParam id="3231"  name="shear">
               <InterpolatingParam id="3232" interp="linr"  time="-9999999/1" value="0" leadInLength="0/1"  />
               <InterpolatingParam id="3233" interp="linr"  time="-9999999/1" value="0" leadInLength="0/1"  />
               <InterpolatingParam id="3234" interp="linr"  time="-9999999/1" value="0" leadInLength="0/1"  />
              </VectorParam>
              <VectorParam id="3235"  name="scale">
               <InterpolatingParam id="3236" interp="linr"  time="-9999999/1" value="1" leadInLength="0/1"  />
               <InterpolatingParam id="3237" interp="linr"  time="-9999999/1" value="1" leadInLength="0/1"  />
               <InterpolatingParam id="3238" interp="linr"  time="-9999999/1" value="1" leadInLength="0/1"  />
              </VectorParam>
              <VectorParam id="3239"  name="anchor">
               <InterpolatingParam id="3240" interp="linr"  time="0/1" value="0" leadInLength="0/1"  />
               <InterpolatingParam id="3241" interp="linr"  time="0/1" value="0" leadInLength="0/1"  />
               <InterpolatingParam id="3242" interp="linr"  time="0/1" value="0" leadInLength="0/1"  />
              </VectorParam>
             </Transformer>
             <Parameters>
              <VectorParam id="3243"  name="sourceCrop">
               <InterpolatingParam id="3244" interp="linr"  time="0/1" value="0" leadInLength="0/1"  />
               <InterpolatingParam id="3245" interp="linr"  time="0/1" value="0" leadInLength="0/1"  />
               <InterpolatingParam id="3246" interp="linr"  time="0/1" value="0" leadInLength="0/1"  />
               <InterpolatingParam id="3247" interp="linr"  time="0/1" value="0" leadInLength="0/1"  />
              </VectorParam>
              <VectorParam id="3248"  name="geometryCrop">
               <InterpolatingParam id="3249" interp="linr"  time="-9999999/1" value="0" leadInLength="0/1"  />
               <InterpolatingParam id="3250" interp="linr"  time="-9999999/1" value="0" leadInLength="0/1"  />
               <InterpolatingParam id="3251" interp="linr"  time="-9999999/1" value="0" leadInLength="0/1"  />
               <InterpolatingParam id="3252" interp="linr"  time="-9999999/1" value="0" leadInLength="0/1"  />
              </VectorParam>
              <InterpolatingParam id="3253" interp="linr"  time="-9999999/1" value="1" leadInLength="0/1"  name="opacity"/>
              <InterpolatingParam id="3254" interp="linr"  time="0/1" value="0" leadInLength="0/1"  name="cursorOpacity"/>
              <InterpolatingParam id="3255" interp="linr"  time="0/1" value="0" leadInLength="0/1"  name="cursorScale"/>
             </Parameters>
             <Attributes>
              <Attribute id="3256" value="" name="ident"/>
             </Attributes>
             <ExtraData>
              <Entry key="ZoomPanBin">
               <ZoomPanBin id="3257"  >
                <ZoomPanKeyframes>
                 <ZoomPanKeyframe id="3258" timeRangeEnd="-9999999/1" timeRangeDuration="0/1" interpolaterName=""  />
                </ZoomPanKeyframes>
               </ZoomPanBin>
              </Entry>
              <Entry key="CursorEffectBin">
               <CursorEffectBin id="3259"  >
                <CursorEffectKeyframes>
                </CursorEffectKeyframes>
               </CursorEffectBin>
              </Entry>
             </ExtraData>
            </ScreenVMFile>
            <MetaData>
             <entry key="AutoAppliedSmartFocus" val="False"/>
             <entry key="WinSubProjectDisplayName" val=""/>
            </MetaData>
           </UnifiedMedia>
           <UnifiedMedia id="3260"  >
            <AMFile id="3261" start="4347" duration="81" scalar="1/1" mediaStart="8671/1" mediaDuration="81/1" trackNumber="1" src="5" channelNumber="0,1" >
             <Parameters>
              <InterpolatingParam id="3262" interp="linr"  time="0/1" value="1" leadInLength="0/1"  name="volume"/>
              <Parameter id="3263"  name="captions"/>
             </Parameters>
             <Attributes>
              <Attribute id="3264" value="" name="ident"/>
              <Attribute id="3265" value="44100" name="sampleRate"/>
              <Attribute id="3266" value="16" name="bitDepth"/>
              <Attribute id="3267" value="1" name="gain"/>
              <Attribute id="3268" value="0" name="mixToMono"/>
             </Attributes>
            </AMFile>
            <ScreenVMFile id="3269" start="4347" duration="81" scalar="1/1" mediaStart="8671/1" mediaDuration="81/1" trackNumber="0" src="5" >
             <Transformer>
              <VectorParam id="3270"  name="translation">
               <InterpolatingParam id="3271" interp="linr"  time="-9999999/1" value="0" leadInLength="0/1"  />
               <InterpolatingParam id="3272" interp="linr"  time="-9999999/1" value="0" leadInLength="0/1"  />
               <InterpolatingParam id="3273" interp="linr"  time="-9999999/1" value="0" leadInLength="0/1"  />
              </VectorParam>
              <VectorParam id="3274"  name="rotation">
               <InterpolatingParam id="3275" interp="linr"  time="-9999999/1" value="0" leadInLength="0/1"  />
               <InterpolatingParam id="3276" interp="linr"  time="-9999999/1" value="0" leadInLength="0/1"  />
               <InterpolatingParam id="3277" interp="linr"  time="-9999999/1" value="0" leadInLength="0/1"  />
              </VectorParam>
              <VectorParam id="3278"  name="shear">
               <InterpolatingParam id="3279" interp="linr"  time="-9999999/1" value="0" leadInLength="0/1"  />
               <InterpolatingParam id="3280" interp="linr"  time="-9999999/1" value="0" leadInLength="0/1"  />
               <InterpolatingParam id="3281" interp="linr"  time="-9999999/1" value="0" leadInLength="0/1"  />
              </VectorParam>
              <VectorParam id="3282"  name="scale">
               <InterpolatingParam id="3283" interp="linr"  time="-9999999/1" value="1" leadInLength="0/1"  />
               <InterpolatingParam id="3284" interp="linr"  time="-9999999/1" value="1" leadInLength="0/1"  />
               <InterpolatingParam id="3285" interp="linr"  time="-9999999/1" value="1" leadInLength="0/1"  />
              </VectorParam>
              <VectorParam id="3286"  name="anchor">
               <InterpolatingParam id="3287" interp="linr"  time="0/1" value="0" leadInLength="0/1"  />
               <InterpolatingParam id="3288" interp="linr"  time="0/1" value="0" leadInLength="0/1"  />
               <InterpolatingParam id="3289" interp="linr"  time="0/1" value="0" leadInLength="0/1"  />
              </VectorParam>
             </Transformer>
             <Parameters>
              <VectorParam id="3290"  name="sourceCrop">
               <InterpolatingParam id="3291" interp="linr"  time="0/1" value="0" leadInLength="0/1"  />
               <InterpolatingParam id="3292" interp="linr"  time="0/1" value="0" leadInLength="0/1"  />
               <InterpolatingParam id="3293" interp="linr"  time="0/1" value="0" leadInLength="0/1"  />
               <InterpolatingParam id="3294" interp="linr"  time="0/1" value="0" leadInLength="0/1"  />
              </VectorParam>
              <VectorParam id="3295"  name="geometryCrop">
               <InterpolatingParam id="3296" interp="linr"  time="-9999999/1" value="0" leadInLength="0/1"  />
               <InterpolatingParam id="3297" interp="linr"  time="-9999999/1" value="0" leadInLength="0/1"  />
               <InterpolatingParam id="3298" interp="linr"  time="-9999999/1" value="0" leadInLength="0/1"  />
               <InterpolatingParam id="3299" interp="linr"  time="-9999999/1" value="0" leadInLength="0/1"  />
              </VectorParam>
              <InterpolatingParam id="3300" interp="linr"  time="-9999999/1" value="1" leadInLength="0/1"  name="opacity"/>
              <InterpolatingParam id="3301" interp="linr"  time="0/1" value="0" leadInLength="0/1"  name="cursorOpacity"/>
              <InterpolatingParam id="3302" interp="linr"  time="0/1" value="0" leadInLength="0/1"  name="cursorScale"/>
             </Parameters>
             <Attributes>
              <Attribute id="3303" value="" name="ident"/>
             </Attributes>
             <ExtraData>
              <Entry key="ZoomPanBin">
               <ZoomPanBin id="3304"  >
                <ZoomPanKeyframes>
                 <ZoomPanKeyframe id="3305" timeRangeEnd="-9999999/1" timeRangeDuration="0/1" interpolaterName=""  />
                </ZoomPanKeyframes>
               </ZoomPanBin>
              </Entry>
              <Entry key="CursorEffectBin">
               <CursorEffectBin id="3306"  >
                <CursorEffectKeyframes>
                </CursorEffectKeyframes>
               </CursorEffectBin>
              </Entry>
             </ExtraData>
            </ScreenVMFile>
            <MetaData>
             <entry key="AutoAppliedSmartFocus" val="False"/>
             <entry key="WinSubProjectDisplayName" val=""/>
            </MetaData>
           </UnifiedMedia>
           <UnifiedMedia id="3307"  >
            <AMFile id="3308" start="4428" duration="106" scalar="1/1" mediaStart="9024/1" mediaDuration="106/1" trackNumber="1" src="5" channelNumber="0,1" >
             <Parameters>
              <InterpolatingParam id="3309" interp="linr"  time="0/1" value="1" leadInLength="0/1"  name="volume"/>
              <Parameter id="3310"  name="captions"/>
             </Parameters>
             <Attributes>
              <Attribute id="3311" value="" name="ident"/>
              <Attribute id="3312" value="44100" name="sampleRate"/>
              <Attribute id="3313" value="16" name="bitDepth"/>
              <Attribute id="3314" value="1" name="gain"/>
              <Attribute id="3315" value="0" name="mixToMono"/>
             </Attributes>
            </AMFile>
            <ScreenVMFile id="3316" start="4428" duration="106" scalar="1/1" mediaStart="9024/1" mediaDuration="106/1" trackNumber="0" src="5" >
             <Transformer>
              <VectorParam id="3317"  name="translation">
               <InterpolatingParam id="3318" interp="linr"  time="-9999999/1" value="0" leadInLength="0/1"  />
               <InterpolatingParam id="3319" interp="linr"  time="-9999999/1" value="0" leadInLength="0/1"  />
               <InterpolatingParam id="3320" interp="linr"  time="-9999999/1" value="0" leadInLength="0/1"  />
              </VectorParam>
              <VectorParam id="3321"  name="rotation">
               <InterpolatingParam id="3322" interp="linr"  time="-9999999/1" value="0" leadInLength="0/1"  />
               <InterpolatingParam id="3323" interp="linr"  time="-9999999/1" value="0" leadInLength="0/1"  />
               <InterpolatingParam id="3324" interp="linr"  time="-9999999/1" value="0" leadInLength="0/1"  />
              </VectorParam>
              <VectorParam id="3325"  name="shear">
               <InterpolatingParam id="3326" interp="linr"  time="-9999999/1" value="0" leadInLength="0/1"  />
               <InterpolatingParam id="3327" interp="linr"  time="-9999999/1" value="0" leadInLength="0/1"  />
               <InterpolatingParam id="3328" interp="linr"  time="-9999999/1" value="0" leadInLength="0/1"  />
              </VectorParam>
              <VectorParam id="3329"  name="scale">
               <InterpolatingParam id="3330" interp="linr"  time="-9999999/1" value="1" leadInLength="0/1"  />
               <InterpolatingParam id="3331" interp="linr"  time="-9999999/1" value="1" leadInLength="0/1"  />
               <InterpolatingParam id="3332" interp="linr"  time="-9999999/1" value="1" leadInLength="0/1"  />
              </VectorParam>
              <VectorParam id="3333"  name="anchor">
               <InterpolatingParam id="3334" interp="linr"  time="0/1" value="0" leadInLength="0/1"  />
               <InterpolatingParam id="3335" interp="linr"  time="0/1" value="0" leadInLength="0/1"  />
               <InterpolatingParam id="3336" interp="linr"  time="0/1" value="0" leadInLength="0/1"  />
              </VectorParam>
             </Transformer>
             <Parameters>
              <VectorParam id="3337"  name="sourceCrop">
               <InterpolatingParam id="3338" interp="linr"  time="0/1" value="0" leadInLength="0/1"  />
               <InterpolatingParam id="3339" interp="linr"  time="0/1" value="0" leadInLength="0/1"  />
               <InterpolatingParam id="3340" interp="linr"  time="0/1" value="0" leadInLength="0/1"  />
               <InterpolatingParam id="3341" interp="linr"  time="0/1" value="0" leadInLength="0/1"  />
              </VectorParam>
              <VectorParam id="3342"  name="geometryCrop">
               <InterpolatingParam id="3343" interp="linr"  time="-9999999/1" value="0" leadInLength="0/1"  />
               <InterpolatingParam id="3344" interp="linr"  time="-9999999/1" value="0" leadInLength="0/1"  />
               <InterpolatingParam id="3345" interp="linr"  time="-9999999/1" value="0" leadInLength="0/1"  />
               <InterpolatingParam id="3346" interp="linr"  time="-9999999/1" value="0" leadInLength="0/1"  />
              </VectorParam>
              <InterpolatingParam id="3347" interp="linr"  time="-9999999/1" value="1" leadInLength="0/1"  name="opacity"/>
              <InterpolatingParam id="3348" interp="linr"  time="0/1" value="0" leadInLength="0/1"  name="cursorOpacity"/>
              <InterpolatingParam id="3349" interp="linr"  time="0/1" value="0" leadInLength="0/1"  name="cursorScale"/>
             </Parameters>
             <Attributes>
              <Attribute id="3350" value="" name="ident"/>
             </Attributes>
             <ExtraData>
              <Entry key="ZoomPanBin">
               <ZoomPanBin id="3351"  >
                <ZoomPanKeyframes>
                 <ZoomPanKeyframe id="3352" timeRangeEnd="-9999999/1" timeRangeDuration="0/1" interpolaterName=""  />
                </ZoomPanKeyframes>
               </ZoomPanBin>
              </Entry>
              <Entry key="CursorEffectBin">
               <CursorEffectBin id="3353"  >
                <CursorEffectKeyframes>
                </CursorEffectKeyframes>
               </CursorEffectBin>
              </Entry>
             </ExtraData>
            </ScreenVMFile>
            <MetaData>
             <entry key="AutoAppliedSmartFocus" val="False"/>
             <entry key="WinSubProjectDisplayName" val=""/>
            </MetaData>
           </UnifiedMedia>
           <UnifiedMedia id="3354"  >
            <AMFile id="3355" start="4534" duration="344" scalar="1/1" mediaStart="9142/1" mediaDuration="344/1" trackNumber="1" src="5" channelNumber="0,1" >
             <Parameters>
              <InterpolatingParam id="3356" interp="linr"  time="0/1" value="1" leadInLength="0/1"  name="volume"/>
              <Parameter id="3357"  name="captions"/>
             </Parameters>
             <Attributes>
              <Attribute id="3358" value="" name="ident"/>
              <Attribute id="3359" value="44100" name="sampleRate"/>
              <Attribute id="3360" value="16" name="bitDepth"/>
              <Attribute id="3361" value="1" name="gain"/>
              <Attribute id="3362" value="0" name="mixToMono"/>
             </Attributes>
            </AMFile>
            <ScreenVMFile id="3363" start="4534" duration="344" scalar="1/1" mediaStart="9142/1" mediaDuration="344/1" trackNumber="0" src="5" >
             <Transformer>
              <VectorParam id="3364"  name="translation">
               <InterpolatingParam id="3365" interp="linr"  time="-9999999/1" value="0" leadInLength="0/1"  />
               <InterpolatingParam id="3366" interp="linr"  time="-9999999/1" value="0" leadInLength="0/1"  />
               <InterpolatingParam id="3367" interp="linr"  time="-9999999/1" value="0" leadInLength="0/1"  />
              </VectorParam>
              <VectorParam id="3368"  name="rotation">
               <InterpolatingParam id="3369" interp="linr"  time="-9999999/1" value="0" leadInLength="0/1"  />
               <InterpolatingParam id="3370" interp="linr"  time="-9999999/1" value="0" leadInLength="0/1"  />
               <InterpolatingParam id="3371" interp="linr"  time="-9999999/1" value="0" leadInLength="0/1"  />
              </VectorParam>
              <VectorParam id="3372"  name="shear">
               <InterpolatingParam id="3373" interp="linr"  time="-9999999/1" value="0" leadInLength="0/1"  />
               <InterpolatingParam id="3374" interp="linr"  time="-9999999/1" value="0" leadInLength="0/1"  />
               <InterpolatingParam id="3375" interp="linr"  time="-9999999/1" value="0" leadInLength="0/1"  />
              </VectorParam>
              <VectorParam id="3376"  name="scale">
               <InterpolatingParam id="3377" interp="linr"  time="-9999999/1" value="1" leadInLength="0/1"  />
               <InterpolatingParam id="3378" interp="linr"  time="-9999999/1" value="1" leadInLength="0/1"  />
               <InterpolatingParam id="3379" interp="linr"  time="-9999999/1" value="1" leadInLength="0/1"  />
              </VectorParam>
              <VectorParam id="3380"  name="anchor">
               <InterpolatingParam id="3381" interp="linr"  time="0/1" value="0" leadInLength="0/1"  />
               <InterpolatingParam id="3382" interp="linr"  time="0/1" value="0" leadInLength="0/1"  />
               <InterpolatingParam id="3383" interp="linr"  time="0/1" value="0" leadInLength="0/1"  />
              </VectorParam>
             </Transformer>
             <Parameters>
              <VectorParam id="3384"  name="sourceCrop">
               <InterpolatingParam id="3385" interp="linr"  time="0/1" value="0" leadInLength="0/1"  />
               <InterpolatingParam id="3386" interp="linr"  time="0/1" value="0" leadInLength="0/1"  />
               <InterpolatingParam id="3387" interp="linr"  time="0/1" value="0" leadInLength="0/1"  />
               <InterpolatingParam id="3388" interp="linr"  time="0/1" value="0" leadInLength="0/1"  />
              </VectorParam>
              <VectorParam id="3389"  name="geometryCrop">
               <InterpolatingParam id="3390" interp="linr"  time="-9999999/1" value="0" leadInLength="0/1"  />
               <InterpolatingParam id="3391" interp="linr"  time="-9999999/1" value="0" leadInLength="0/1"  />
               <InterpolatingParam id="3392" interp="linr"  time="-9999999/1" value="0" leadInLength="0/1"  />
               <InterpolatingParam id="3393" interp="linr"  time="-9999999/1" value="0" leadInLength="0/1"  />
              </VectorParam>
              <InterpolatingParam id="3394" interp="linr"  time="-9999999/1" value="1" leadInLength="0/1"  name="opacity"/>
              <InterpolatingParam id="3395" interp="linr"  time="0/1" value="0" leadInLength="0/1"  name="cursorOpacity"/>
              <InterpolatingParam id="3396" interp="linr"  time="0/1" value="0" leadInLength="0/1"  name="cursorScale"/>
             </Parameters>
             <Attributes>
              <Attribute id="3397" value="" name="ident"/>
             </Attributes>
             <ExtraData>
              <Entry key="ZoomPanBin">
               <ZoomPanBin id="3398"  >
                <ZoomPanKeyframes>
                 <ZoomPanKeyframe id="3399" timeRangeEnd="-9999999/1" timeRangeDuration="0/1" interpolaterName=""  />
                </ZoomPanKeyframes>
               </ZoomPanBin>
              </Entry>
              <Entry key="CursorEffectBin">
               <CursorEffectBin id="3400"  >
                <CursorEffectKeyframes>
                </CursorEffectKeyframes>
               </CursorEffectBin>
              </Entry>
             </ExtraData>
            </ScreenVMFile>
            <MetaData>
             <entry key="AutoAppliedSmartFocus" val="False"/>
             <entry key="WinSubProjectDisplayName" val=""/>
            </MetaData>
           </UnifiedMedia>
           <UnifiedMedia id="3401"  >
            <AMFile id="3402" start="4878" duration="136" scalar="1/1" mediaStart="10042/1" mediaDuration="136/1" trackNumber="1" src="5" channelNumber="0,1" >
             <Parameters>
              <InterpolatingParam id="3403" interp="linr"  time="0/1" value="1" leadInLength="0/1"  name="volume"/>
              <Parameter id="3404"  name="captions"/>
             </Parameters>
             <Attributes>
              <Attribute id="3405" value="" name="ident"/>
              <Attribute id="3406" value="44100" name="sampleRate"/>
              <Attribute id="3407" value="16" name="bitDepth"/>
              <Attribute id="3408" value="1" name="gain"/>
              <Attribute id="3409" value="0" name="mixToMono"/>
             </Attributes>
            </AMFile>
            <ScreenVMFile id="3410" start="4878" duration="136" scalar="1/1" mediaStart="10042/1" mediaDuration="136/1" trackNumber="0" src="5" >
             <Transformer>
              <VectorParam id="3411"  name="translation">
               <InterpolatingParam id="3412" interp="linr"  time="-9999999/1" value="0" leadInLength="0/1"  />
               <InterpolatingParam id="3413" interp="linr"  time="-9999999/1" value="0" leadInLength="0/1"  />
               <InterpolatingParam id="3414" interp="linr"  time="-9999999/1" value="0" leadInLength="0/1"  />
              </VectorParam>
              <VectorParam id="3415"  name="rotation">
               <InterpolatingParam id="3416" interp="linr"  time="-9999999/1" value="0" leadInLength="0/1"  />
               <InterpolatingParam id="3417" interp="linr"  time="-9999999/1" value="0" leadInLength="0/1"  />
               <InterpolatingParam id="3418" interp="linr"  time="-9999999/1" value="0" leadInLength="0/1"  />
              </VectorParam>
              <VectorParam id="3419"  name="shear">
               <InterpolatingParam id="3420" interp="linr"  time="-9999999/1" value="0" leadInLength="0/1"  />
               <InterpolatingParam id="3421" interp="linr"  time="-9999999/1" value="0" leadInLength="0/1"  />
               <InterpolatingParam id="3422" interp="linr"  time="-9999999/1" value="0" leadInLength="0/1"  />
              </VectorParam>
              <VectorParam id="3423"  name="scale">
               <InterpolatingParam id="3424" interp="linr"  time="-9999999/1" value="1" leadInLength="0/1"  />
               <InterpolatingParam id="3425" interp="linr"  time="-9999999/1" value="1" leadInLength="0/1"  />
               <InterpolatingParam id="3426" interp="linr"  time="-9999999/1" value="1" leadInLength="0/1"  />
              </VectorParam>
              <VectorParam id="3427"  name="anchor">
               <InterpolatingParam id="3428" interp="linr"  time="0/1" value="0" leadInLength="0/1"  />
               <InterpolatingParam id="3429" interp="linr"  time="0/1" value="0" leadInLength="0/1"  />
               <InterpolatingParam id="3430" interp="linr"  time="0/1" value="0" leadInLength="0/1"  />
              </VectorParam>
             </Transformer>
             <Parameters>
              <VectorParam id="3431"  name="sourceCrop">
               <InterpolatingParam id="3432" interp="linr"  time="0/1" value="0" leadInLength="0/1"  />
               <InterpolatingParam id="3433" interp="linr"  time="0/1" value="0" leadInLength="0/1"  />
               <InterpolatingParam id="3434" interp="linr"  time="0/1" value="0" leadInLength="0/1"  />
               <InterpolatingParam id="3435" interp="linr"  time="0/1" value="0" leadInLength="0/1"  />
              </VectorParam>
              <VectorParam id="3436"  name="geometryCrop">
               <InterpolatingParam id="3437" interp="linr"  time="-9999999/1" value="0" leadInLength="0/1"  />
               <InterpolatingParam id="3438" interp="linr"  time="-9999999/1" value="0" leadInLength="0/1"  />
               <InterpolatingParam id="3439" interp="linr"  time="-9999999/1" value="0" leadInLength="0/1"  />
               <InterpolatingParam id="3440" interp="linr"  time="-9999999/1" value="0" leadInLength="0/1"  />
              </VectorParam>
              <InterpolatingParam id="3441" interp="linr"  time="-9999999/1" value="1" leadInLength="0/1"  name="opacity"/>
              <InterpolatingParam id="3442" interp="linr"  time="0/1" value="0" leadInLength="0/1"  name="cursorOpacity"/>
              <InterpolatingParam id="3443" interp="linr"  time="0/1" value="0" leadInLength="0/1"  name="cursorScale"/>
             </Parameters>
             <Attributes>
              <Attribute id="3444" value="" name="ident"/>
             </Attributes>
             <ExtraData>
              <Entry key="ZoomPanBin">
               <ZoomPanBin id="3445"  >
                <ZoomPanKeyframes>
                 <ZoomPanKeyframe id="3446" timeRangeEnd="-9999999/1" timeRangeDuration="0/1" interpolaterName=""  />
                </ZoomPanKeyframes>
               </ZoomPanBin>
              </Entry>
              <Entry key="CursorEffectBin">
               <CursorEffectBin id="3447"  >
                <CursorEffectKeyframes>
                </CursorEffectKeyframes>
               </CursorEffectBin>
              </Entry>
             </ExtraData>
            </ScreenVMFile>
            <MetaData>
             <entry key="AutoAppliedSmartFocus" val="False"/>
             <entry key="WinSubProjectDisplayName" val=""/>
            </MetaData>
           </UnifiedMedia>
           <UnifiedMedia id="3448"  >
            <AMFile id="3449" start="5014" duration="148" scalar="1/1" mediaStart="10187/1" mediaDuration="148/1" trackNumber="1" src="5" channelNumber="0,1" >
             <Parameters>
              <InterpolatingParam id="3450" interp="linr"  time="0/1" value="1" leadInLength="0/1"  name="volume"/>
              <Parameter id="3451"  name="captions"/>
             </Parameters>
             <Attributes>
              <Attribute id="3452" value="" name="ident"/>
              <Attribute id="3453" value="44100" name="sampleRate"/>
              <Attribute id="3454" value="16" name="bitDepth"/>
              <Attribute id="3455" value="1" name="gain"/>
              <Attribute id="3456" value="0" name="mixToMono"/>
             </Attributes>
            </AMFile>
            <ScreenVMFile id="3457" start="5014" duration="148" scalar="1/1" mediaStart="10187/1" mediaDuration="148/1" trackNumber="0" src="5" >
             <Transformer>
              <VectorParam id="3458"  name="translation">
               <InterpolatingParam id="3459" interp="linr"  time="-9999999/1" value="0" leadInLength="0/1"  />
               <InterpolatingParam id="3460" interp="linr"  time="-9999999/1" value="0" leadInLength="0/1"  />
               <InterpolatingParam id="3461" interp="linr"  time="-9999999/1" value="0" leadInLength="0/1"  />
              </VectorParam>
              <VectorParam id="3462"  name="rotation">
               <InterpolatingParam id="3463" interp="linr"  time="-9999999/1" value="0" leadInLength="0/1"  />
               <InterpolatingParam id="3464" interp="linr"  time="-9999999/1" value="0" leadInLength="0/1"  />
               <InterpolatingParam id="3465" interp="linr"  time="-9999999/1" value="0" leadInLength="0/1"  />
              </VectorParam>
              <VectorParam id="3466"  name="shear">
               <InterpolatingParam id="3467" interp="linr"  time="-9999999/1" value="0" leadInLength="0/1"  />
               <InterpolatingParam id="3468" interp="linr"  time="-9999999/1" value="0" leadInLength="0/1"  />
               <InterpolatingParam id="3469" interp="linr"  time="-9999999/1" value="0" leadInLength="0/1"  />
              </VectorParam>
              <VectorParam id="3470"  name="scale">
               <InterpolatingParam id="3471" interp="linr"  time="-9999999/1" value="1" leadInLength="0/1"  />
               <InterpolatingParam id="3472" interp="linr"  time="-9999999/1" value="1" leadInLength="0/1"  />
               <InterpolatingParam id="3473" interp="linr"  time="-9999999/1" value="1" leadInLength="0/1"  />
              </VectorParam>
              <VectorParam id="3474"  name="anchor">
               <InterpolatingParam id="3475" interp="linr"  time="0/1" value="0" leadInLength="0/1"  />
               <InterpolatingParam id="3476" interp="linr"  time="0/1" value="0" leadInLength="0/1"  />
               <InterpolatingParam id="3477" interp="linr"  time="0/1" value="0" leadInLength="0/1"  />
              </VectorParam>
             </Transformer>
             <Parameters>
              <VectorParam id="3478"  name="sourceCrop">
               <InterpolatingParam id="3479" interp="linr"  time="0/1" value="0" leadInLength="0/1"  />
               <InterpolatingParam id="3480" interp="linr"  time="0/1" value="0" leadInLength="0/1"  />
               <InterpolatingParam id="3481" interp="linr"  time="0/1" value="0" leadInLength="0/1"  />
               <InterpolatingParam id="3482" interp="linr"  time="0/1" value="0" leadInLength="0/1"  />
              </VectorParam>
              <VectorParam id="3483"  name="geometryCrop">
               <InterpolatingParam id="3484" interp="linr"  time="-9999999/1" value="0" leadInLength="0/1"  />
               <InterpolatingParam id="3485" interp="linr"  time="-9999999/1" value="0" leadInLength="0/1"  />
               <InterpolatingParam id="3486" interp="linr"  time="-9999999/1" value="0" leadInLength="0/1"  />
               <InterpolatingParam id="3487" interp="linr"  time="-9999999/1" value="0" leadInLength="0/1"  />
              </VectorParam>
              <InterpolatingParam id="3488" interp="linr"  time="-9999999/1" value="1" leadInLength="0/1"  name="opacity"/>
              <InterpolatingParam id="3489" interp="linr"  time="0/1" value="0" leadInLength="0/1"  name="cursorOpacity"/>
              <InterpolatingParam id="3490" interp="linr"  time="0/1" value="0" leadInLength="0/1"  name="cursorScale"/>
             </Parameters>
             <Attributes>
              <Attribute id="3491" value="" name="ident"/>
             </Attributes>
             <ExtraData>
              <Entry key="ZoomPanBin">
               <ZoomPanBin id="3492"  >
                <ZoomPanKeyframes>
                 <ZoomPanKeyframe id="3493" timeRangeEnd="-9999999/1" timeRangeDuration="0/1" interpolaterName=""  />
                </ZoomPanKeyframes>
               </ZoomPanBin>
              </Entry>
              <Entry key="CursorEffectBin">
               <CursorEffectBin id="3494"  >
                <CursorEffectKeyframes>
                </CursorEffectKeyframes>
               </CursorEffectBin>
              </Entry>
             </ExtraData>
            </ScreenVMFile>
            <MetaData>
             <entry key="AutoAppliedSmartFocus" val="False"/>
             <entry key="WinSubProjectDisplayName" val=""/>
            </MetaData>
           </UnifiedMedia>
           <UnifiedMedia id="3495"  >
            <AMFile id="3496" start="5162" duration="370" scalar="1/1" mediaStart="11797/1" mediaDuration="370/1" trackNumber="1" src="5" channelNumber="0,1" >
             <Parameters>
              <InterpolatingParam id="3497" interp="linr"  time="0/1" value="1" leadInLength="0/1"  name="volume"/>
              <Parameter id="3498"  name="captions"/>
             </Parameters>
             <Attributes>
              <Attribute id="3499" value="" name="ident"/>
              <Attribute id="3500" value="44100" name="sampleRate"/>
              <Attribute id="3501" value="16" name="bitDepth"/>
              <Attribute id="3502" value="1" name="gain"/>
              <Attribute id="3503" value="0" name="mixToMono"/>
             </Attributes>
            </AMFile>
            <ScreenVMFile id="3504" start="5162" duration="370" scalar="1/1" mediaStart="11797/1" mediaDuration="370/1" trackNumber="0" src="5" >
             <Transformer>
              <VectorParam id="3505"  name="translation">
               <InterpolatingParam id="3506" interp="linr"  time="-9999999/1" value="0" leadInLength="0/1"  />
               <InterpolatingParam id="3507" interp="linr"  time="-9999999/1" value="0" leadInLength="0/1"  />
               <InterpolatingParam id="3508" interp="linr"  time="-9999999/1" value="0" leadInLength="0/1"  />
              </VectorParam>
              <VectorParam id="3509"  name="rotation">
               <InterpolatingParam id="3510" interp="linr"  time="-9999999/1" value="0" leadInLength="0/1"  />
               <InterpolatingParam id="3511" interp="linr"  time="-9999999/1" value="0" leadInLength="0/1"  />
               <InterpolatingParam id="3512" interp="linr"  time="-9999999/1" value="0" leadInLength="0/1"  />
              </VectorParam>
              <VectorParam id="3513"  name="shear">
               <InterpolatingParam id="3514" interp="linr"  time="-9999999/1" value="0" leadInLength="0/1"  />
               <InterpolatingParam id="3515" interp="linr"  time="-9999999/1" value="0" leadInLength="0/1"  />
               <InterpolatingParam id="3516" interp="linr"  time="-9999999/1" value="0" leadInLength="0/1"  />
              </VectorParam>
              <VectorParam id="3517"  name="scale">
               <InterpolatingParam id="3518" interp="linr"  time="-9999999/1" value="1" leadInLength="0/1"  />
               <InterpolatingParam id="3519" interp="linr"  time="-9999999/1" value="1" leadInLength="0/1"  />
               <InterpolatingParam id="3520" interp="linr"  time="-9999999/1" value="1" leadInLength="0/1"  />
              </VectorParam>
              <VectorParam id="3521"  name="anchor">
               <InterpolatingParam id="3522" interp="linr"  time="0/1" value="0" leadInLength="0/1"  />
               <InterpolatingParam id="3523" interp="linr"  time="0/1" value="0" leadInLength="0/1"  />
               <InterpolatingParam id="3524" interp="linr"  time="0/1" value="0" leadInLength="0/1"  />
              </VectorParam>
             </Transformer>
             <Parameters>
              <VectorParam id="3525"  name="sourceCrop">
               <InterpolatingParam id="3526" interp="linr"  time="0/1" value="0" leadInLength="0/1"  />
               <InterpolatingParam id="3527" interp="linr"  time="0/1" value="0" leadInLength="0/1"  />
               <InterpolatingParam id="3528" interp="linr"  time="0/1" value="0" leadInLength="0/1"  />
               <InterpolatingParam id="3529" interp="linr"  time="0/1" value="0" leadInLength="0/1"  />
              </VectorParam>
              <VectorParam id="3530"  name="geometryCrop">
               <InterpolatingParam id="3531" interp="linr"  time="-9999999/1" value="0" leadInLength="0/1"  />
               <InterpolatingParam id="3532" interp="linr"  time="-9999999/1" value="0" leadInLength="0/1"  />
               <InterpolatingParam id="3533" interp="linr"  time="-9999999/1" value="0" leadInLength="0/1"  />
               <InterpolatingParam id="3534" interp="linr"  time="-9999999/1" value="0" leadInLength="0/1"  />
              </VectorParam>
              <InterpolatingParam id="3535" interp="linr"  time="-9999999/1" value="1" leadInLength="0/1"  name="opacity"/>
              <InterpolatingParam id="3536" interp="linr"  time="0/1" value="0" leadInLength="0/1"  name="cursorOpacity"/>
              <InterpolatingParam id="3537" interp="linr"  time="0/1" value="0" leadInLength="0/1"  name="cursorScale"/>
             </Parameters>
             <Attributes>
              <Attribute id="3538" value="" name="ident"/>
             </Attributes>
             <ExtraData>
              <Entry key="ZoomPanBin">
               <ZoomPanBin id="3539"  >
                <ZoomPanKeyframes>
                 <ZoomPanKeyframe id="3540" timeRangeEnd="-9999999/1" timeRangeDuration="0/1" interpolaterName=""  />
                </ZoomPanKeyframes>
               </ZoomPanBin>
              </Entry>
              <Entry key="CursorEffectBin">
               <CursorEffectBin id="3541"  >
                <CursorEffectKeyframes>
                </CursorEffectKeyframes>
               </CursorEffectBin>
              </Entry>
             </ExtraData>
            </ScreenVMFile>
            <MetaData>
             <entry key="AutoAppliedSmartFocus" val="False"/>
             <entry key="WinSubProjectDisplayName" val=""/>
            </MetaData>
           </UnifiedMedia>
           <UnifiedMedia id="3542"  >
            <AMFile id="3543" start="5532" duration="132" scalar="1/1" mediaStart="12288/1" mediaDuration="132/1" trackNumber="1" src="5" channelNumber="0,1" >
             <Parameters>
              <InterpolatingParam id="3544" interp="linr"  time="0/1" value="1" leadInLength="0/1"  name="volume"/>
              <Parameter id="3545"  name="captions"/>
             </Parameters>
             <Attributes>
              <Attribute id="3546" value="" name="ident"/>
              <Attribute id="3547" value="44100" name="sampleRate"/>
              <Attribute id="3548" value="16" name="bitDepth"/>
              <Attribute id="3549" value="1" name="gain"/>
              <Attribute id="3550" value="0" name="mixToMono"/>
             </Attributes>
            </AMFile>
            <ScreenVMFile id="3551" start="5532" duration="132" scalar="1/1" mediaStart="12288/1" mediaDuration="132/1" trackNumber="0" src="5" >
             <Transformer>
              <VectorParam id="3552"  name="translation">
               <InterpolatingParam id="3553" interp="linr"  time="-9999999/1" value="0" leadInLength="0/1"  />
               <InterpolatingParam id="3554" interp="linr"  time="-9999999/1" value="0" leadInLength="0/1"  />
               <InterpolatingParam id="3555" interp="linr"  time="-9999999/1" value="0" leadInLength="0/1"  />
              </VectorParam>
              <VectorParam id="3556"  name="rotation">
               <InterpolatingParam id="3557" interp="linr"  time="-9999999/1" value="0" leadInLength="0/1"  />
               <InterpolatingParam id="3558" interp="linr"  time="-9999999/1" value="0" leadInLength="0/1"  />
               <InterpolatingParam id="3559" interp="linr"  time="-9999999/1" value="0" leadInLength="0/1"  />
              </VectorParam>
              <VectorParam id="3560"  name="shear">
               <InterpolatingParam id="3561" interp="linr"  time="-9999999/1" value="0" leadInLength="0/1"  />
               <InterpolatingParam id="3562" interp="linr"  time="-9999999/1" value="0" leadInLength="0/1"  />
               <InterpolatingParam id="3563" interp="linr"  time="-9999999/1" value="0" leadInLength="0/1"  />
              </VectorParam>
              <VectorParam id="3564"  name="scale">
               <InterpolatingParam id="3565" interp="linr"  time="-9999999/1" value="1" leadInLength="0/1"  />
               <InterpolatingParam id="3566" interp="linr"  time="-9999999/1" value="1" leadInLength="0/1"  />
               <InterpolatingParam id="3567" interp="linr"  time="-9999999/1" value="1" leadInLength="0/1"  />
              </VectorParam>
              <VectorParam id="3568"  name="anchor">
               <InterpolatingParam id="3569" interp="linr"  time="0/1" value="0" leadInLength="0/1"  />
               <InterpolatingParam id="3570" interp="linr"  time="0/1" value="0" leadInLength="0/1"  />
               <InterpolatingParam id="3571" interp="linr"  time="0/1" value="0" leadInLength="0/1"  />
              </VectorParam>
             </Transformer>
             <Parameters>
              <VectorParam id="3572"  name="sourceCrop">
               <InterpolatingParam id="3573" interp="linr"  time="0/1" value="0" leadInLength="0/1"  />
               <InterpolatingParam id="3574" interp="linr"  time="0/1" value="0" leadInLength="0/1"  />
               <InterpolatingParam id="3575" interp="linr"  time="0/1" value="0" leadInLength="0/1"  />
               <InterpolatingParam id="3576" interp="linr"  time="0/1" value="0" leadInLength="0/1"  />
              </VectorParam>
              <VectorParam id="3577"  name="geometryCrop">
               <InterpolatingParam id="3578" interp="linr"  time="-9999999/1" value="0" leadInLength="0/1"  />
               <InterpolatingParam id="3579" interp="linr"  time="-9999999/1" value="0" leadInLength="0/1"  />
               <InterpolatingParam id="3580" interp="linr"  time="-9999999/1" value="0" leadInLength="0/1"  />
               <InterpolatingParam id="3581" interp="linr"  time="-9999999/1" value="0" leadInLength="0/1"  />
              </VectorParam>
              <InterpolatingParam id="3582" interp="linr"  time="-9999999/1" value="1" leadInLength="0/1"  name="opacity"/>
              <InterpolatingParam id="3583" interp="linr"  time="0/1" value="0" leadInLength="0/1"  name="cursorOpacity"/>
              <InterpolatingParam id="3584" interp="linr"  time="0/1" value="0" leadInLength="0/1"  name="cursorScale"/>
             </Parameters>
             <Attributes>
              <Attribute id="3585" value="" name="ident"/>
             </Attributes>
             <ExtraData>
              <Entry key="ZoomPanBin">
               <ZoomPanBin id="3586"  >
                <ZoomPanKeyframes>
                 <ZoomPanKeyframe id="3587" timeRangeEnd="-9999999/1" timeRangeDuration="0/1" interpolaterName=""  />
                </ZoomPanKeyframes>
               </ZoomPanBin>
              </Entry>
              <Entry key="CursorEffectBin">
               <CursorEffectBin id="3588"  >
                <CursorEffectKeyframes>
                </CursorEffectKeyframes>
               </CursorEffectBin>
              </Entry>
             </ExtraData>
            </ScreenVMFile>
            <MetaData>
             <entry key="AutoAppliedSmartFocus" val="False"/>
             <entry key="WinSubProjectDisplayName" val=""/>
            </MetaData>
           </UnifiedMedia>
          </Medias>
         </GenericTrack>
        </StitchedMedia>
       </Medias>
      </GenericTrack>
      <GenericTrack id="3589"  >
       <Attributes>
        <Attribute id="3590" value="" name="ident"/>
        <Attribute id="3591" value="0" name="audioMuted"/>
        <Attribute id="3592" value="0" name="videoHidden"/>
       </Attributes>
       <MetaData>
        <entry key="IsLocked" val="False"/>
        <entry key="WinTrackHeight" val="62"/>
       </MetaData>
       <Medias>
       </Medias>
      </GenericTrack>
     </Tracks>
    </GenericMixer>
   <CaptionAttributes id="3593"  >
    <Attribute id="3594" value="1" name="captionsEnabled"/>
    <Attribute id="3595" value="Arial" name="captionsFontName"/>
    <Attribute id="3596" value="36" name="captionsFontSize"/>
    <Attribute id="3597" value="(0,0,0,255)" name="captionsBackgroundColor"/>
    <Attribute id="3598" value="(255,255,255,255)" name="captionsForegroundColor"/>
    <Attribute id="3599" value="en" name="lang"/>
    <Attribute id="3600" value="0" name="captionsAlignment"/>
    <Attribute id="3601" value="1" name="captionsDefaultFontSize"/>
    <Attribute id="3602" value="0.5" name="captionsOpacity"/>
    <Attribute id="3603" value="1" name="captionsBackgroundEnabled"/>
    <Attribute id="3604" value="1" name="captionsBackgroundOnlyAroundText"/>
   </CaptionAttributes>
   <Parameters>
    <VectorParam id="3605"  name="eyePosition">
     <InterpolatingParam id="3606" interp="linr"  time="0/1" value="0" leadInLength="0/1"  />
     <InterpolatingParam id="3607" interp="linr"  time="0/1" value="0" leadInLength="0/1"  />
     <InterpolatingParam id="3608" interp="linr"  time="0/1" value="3000" leadInLength="0/1"  />
    </VectorParam>
    <VectorParam id="3609"  name="eyeLookAtPosition">
     <InterpolatingParam id="3610" interp="linr"  time="0/1" value="0" leadInLength="0/1"  />
     <InterpolatingParam id="3611" interp="linr"  time="0/1" value="0" leadInLength="0/1"  />
     <InterpolatingParam id="3612" interp="linr"  time="0/1" value="0" leadInLength="0/1"  />
    </VectorParam>
    <VectorParam id="3613"  name="eyeUpVector">
     <InterpolatingParam id="3614" interp="linr"  time="0/1" value="0" leadInLength="0/1"  />
     <InterpolatingParam id="3615" interp="linr"  time="0/1" value="1" leadInLength="0/1"  />
     <InterpolatingParam id="3616" interp="linr"  time="0/1" value="0" leadInLength="0/1"  />
    </VectorParam>
    <InterpolatingParam id="3617" interp="linr"  time="0/1" value="0.356185883" leadInLength="0/1"  name="fov"/>
    <InterpolatingParam id="3618" interp="linr"  time="0/1" value="1.5" leadInLength="0/1"  name="nearClipDistance"/>
    <InterpolatingParam id="3619" interp="linr"  time="0/1" value="6000" leadInLength="0/1"  name="farClipDistance"/>
   </Parameters>
  </Timeline>
 </Project>
</GoProject>
</CSMLData>

</Project_Data>
