<?xml version="1.0"?>
<Project_Data Version="8.00">
<Project_Settings>
<ProfileName>MP4 only (up to 1080p)</ProfileName>
<ProjectWidth>1920</ProjectWidth>
<ProjectHeight>1080</ProjectHeight>
<IsCustomProject>1</IsCustomProject>
<SavedProjectSettings>1</SavedProjectSettings>
<LastFlashTemplate>-1</LastFlashTemplate>
</Project_Settings>


<AutoSaveFile>C:\Users\Administrator\AppData\Local\TechSmith\Camtasia Studio\8.0\Auto-Saves\Why Flexbox164febf.autosave.camproj</AutoSaveFile>

<ProjectID>E67B7E2B-0112-480E-82E0-DA7011A76CEC</ProjectID>

<PowerPointProject>0</PowerPointProject>

<PowerPointFilename></PowerPointFilename>


<Project_Notes>
</Project_Notes>

<Project_MetaData>
<Project_MetaData_Object>
<FieldArrayKey>8</FieldArrayKey>
<Value>Why Flexbox</Value>
</Project_MetaData_Object>
<Project_MetaData_Object>
<FieldArrayKey>13</FieldArrayKey>
<Value>2017-01-29 07:00:32 PM</Value>
</Project_MetaData_Object>
<Project_MetaData_Object>
<FieldArrayKey>16</FieldArrayKey>
<Value>ENU</Value>
</Project_MetaData_Object>
</Project_MetaData>

<CSMLData>
<GoProject id="1" version="3.0" >
 <Project id="2" editRate="30/1" version="3.0" >
  <Author></Author>
  <Comment></Comment>
  <System></System>
  <SourceBin id="3"  >
    <Source id="4" src="D:\Peter\Source Files\01.why-flexbox.trec" lastMod="20170128T141152" rect="(0,0,1920,1080)" >
      <SourceTrack range="(0,21331)" type="0" editRate="30/1" trackRect="(0,0,1920,1080)" sampleRate="0/1" bitDepth="0" numChannels="0" filename="01.why-flexbox.trec!Strack0.tsc2" metaData="01.why-flexbox.trec;" />
      <SourceTrack range="(0,31378432)" type="2" editRate="44100/1" trackRect="(0,0,0,0)" sampleRate="44100/1" bitDepth="16" numChannels="2" filename="01.why-flexbox.trec!Maudio1.mp4" metaData="" />
    </Source>
  </SourceBin>
  <Timeline id="5"  >
   <Attributes>
    <Attribute id="6" value="1920" name="width"/>
    <Attribute id="7" value="1080" name="height"/>
    <Attribute id="8" value="(0,0,0,255)" name="backgroundColor"/>
   </Attributes>
    <GenericMixer id="9"  name="Unified Mixer">
     <MetaData>
      <entry key="MixerType" val="TimelineMixer"/>
     </MetaData>
     <Tracks>
      <GenericTrack id="10"  >
       <Attributes>
        <Attribute id="11" value="" name="ident"/>
        <Attribute id="12" value="0" name="audioMuted"/>
        <Attribute id="13" value="0" name="videoHidden"/>
       </Attributes>
       <MetaData>
        <entry key="IsLocked" val="False"/>
        <entry key="WinTrackHeight" val="121"/>
       </MetaData>
       <Medias>
        <UnifiedMedia id="14"  >
         <AudioTransition id="15" start="0" duration="23" >
          <Parameters>
           <InterpolatingParam id="16" interp="linr"  time="0/1" value="1" leadInLength="0/1"  name="volume"/>
           <Parameter id="17"  name="captions"/>
          </Parameters>
          <Effects>
           <GenericEffect id="18" name = "AudioTransition" >
            <Parameters>
            <Parameter id="19"   name="audioEdgeModType">
             <Keyframes>
             <Keyframe id="20"  time="0/1" value="0" leadInLength="0/1"  />
             </Keyframes>
            </Parameter>
            <Parameter id="21"   name="audioTransitionType">
             <Keyframes>
             <Keyframe id="22"  time="0/1" value="" leadInLength="0/1"  />
             </Keyframes>
            </Parameter>
            </Parameters>
            <MetaData>
            </MetaData>
           </GenericEffect>
          </Effects>
          <Attributes>
           <Attribute id="23" value="" name="ident"/>
           <Attribute id="24" value="0" name="sampleRate"/>
           <Attribute id="25" value="0" name="bitDepth"/>
           <Attribute id="26" value="1" name="gain"/>
           <Attribute id="27" value="0" name="mixToMono"/>
          </Attributes>
         </AudioTransition>
         <ImageTransition id="28" start="0" duration="23" >
          <Transformer>
           <VectorParam id="29"  name="translation">
            <InterpolatingParam id="30" interp="linr"  time="0/1" value="0" leadInLength="0/1"  />
            <InterpolatingParam id="31" interp="linr"  time="0/1" value="0" leadInLength="0/1"  />
            <InterpolatingParam id="32" interp="linr"  time="0/1" value="0" leadInLength="0/1"  />
           </VectorParam>
           <VectorParam id="33"  name="rotation">
            <InterpolatingParam id="34" interp="linr"  time="0/1" value="0" leadInLength="0/1"  />
            <InterpolatingParam id="35" interp="linr"  time="0/1" value="0" leadInLength="0/1"  />
            <InterpolatingParam id="36" interp="linr"  time="0/1" value="0" leadInLength="0/1"  />
           </VectorParam>
           <VectorParam id="37"  name="shear">
            <InterpolatingParam id="38" interp="linr"  time="0/1" value="0" leadInLength="0/1"  />
            <InterpolatingParam id="39" interp="linr"  time="0/1" value="0" leadInLength="0/1"  />
            <InterpolatingParam id="40" interp="linr"  time="0/1" value="0" leadInLength="0/1"  />
           </VectorParam>
           <VectorParam id="41"  name="scale">
            <InterpolatingParam id="42" interp="linr"  time="0/1" value="1" leadInLength="0/1"  />
            <InterpolatingParam id="43" interp="linr"  time="0/1" value="1" leadInLength="0/1"  />
            <InterpolatingParam id="44" interp="linr"  time="0/1" value="1" leadInLength="0/1"  />
           </VectorParam>
           <VectorParam id="45"  name="anchor">
            <InterpolatingParam id="46" interp="linr"  time="0/1" value="0" leadInLength="0/1"  />
            <InterpolatingParam id="47" interp="linr"  time="0/1" value="0" leadInLength="0/1"  />
            <InterpolatingParam id="48" interp="linr"  time="0/1" value="0" leadInLength="0/1"  />
           </VectorParam>
          </Transformer>
          <Parameters>
           <VectorParam id="49"  name="sourceCrop">
            <InterpolatingParam id="50" interp="linr"  time="0/1" value="0" leadInLength="0/1"  />
            <InterpolatingParam id="51" interp="linr"  time="0/1" value="0" leadInLength="0/1"  />
            <InterpolatingParam id="52" interp="linr"  time="0/1" value="0" leadInLength="0/1"  />
            <InterpolatingParam id="53" interp="linr"  time="0/1" value="0" leadInLength="0/1"  />
           </VectorParam>
           <VectorParam id="54"  name="geometryCrop">
            <InterpolatingParam id="55" interp="linr"  time="0/1" value="0" leadInLength="0/1"  />
            <InterpolatingParam id="56" interp="linr"  time="0/1" value="0" leadInLength="0/1"  />
            <InterpolatingParam id="57" interp="linr"  time="0/1" value="0" leadInLength="0/1"  />
            <InterpolatingParam id="58" interp="linr"  time="0/1" value="0" leadInLength="0/1"  />
           </VectorParam>
           <InterpolatingParam id="59" interp="linr"  time="0/1" value="1" leadInLength="0/1"  name="opacity"/>
          </Parameters>
          <Effects>
           <GenericEffect id="60" name = "VisualTransition" >
            <Parameters>
            <InterpolatingParam id="61" interp="linr"  time="0/1" value="0.5" leadInLength="0/1"   name="leftFramePercentage"/>
            <InterpolatingParam id="62" interp="linr"  time="0/1" value="0.5" leadInLength="0/1"   name="rightFramePercentage"/>
            <Parameter id="63"   name="visualEdgeModType">
             <Keyframes>
             <Keyframe id="64"  time="0/1" value="1" leadInLength="0/1"  />
             </Keyframes>
            </Parameter>
            <Parameter id="65"   name="visualTransitionType">
             <Keyframes>
             <Keyframe id="66"  time="0/1" value="Glow" leadInLength="0/1"  />
             </Keyframes>
            </Parameter>
            </Parameters>
            <MetaData>
            </MetaData>
           </GenericEffect>
          </Effects>
          <Attributes>
           <Attribute id="67" value="" name="ident"/>
          </Attributes>
          <ExtraData>
           <Entry key="ZoomPanBin">
            <ZoomPanBin id="68"  >
             <ZoomPanKeyframes>
             </ZoomPanKeyframes>
            </ZoomPanBin>
           </Entry>
          </ExtraData>
         </ImageTransition>
         <MetaData>
          <entry key="WinSubProjectDisplayName" val=""/>
         </MetaData>
        </UnifiedMedia>
        <StitchedMedia id="69" start="23" duration="4761" scalar="1/1" mediaStart="481/1" mediaDuration="4761/1" minMediaStart="0/1" >
         <Transformer>
          <VectorParam id="70"  name="translation">
           <InterpolatingParam id="71" interp="linr"  time="-9999999/1" value="-3.637978807091713e-010" leadInLength="0/1"  />
           <InterpolatingParam id="72" interp="linr"  time="-9999999/1" value="9.2313712229952216e-011" leadInLength="0/1"  />
           <InterpolatingParam id="73" interp="linr"  time="-9999999/1" value="0" leadInLength="0/1"  />
          </VectorParam>
          <VectorParam id="74"  name="rotation">
           <InterpolatingParam id="75" interp="linr"  time="-9999999/1" value="0" leadInLength="0/1"  />
           <InterpolatingParam id="76" interp="linr"  time="-9999999/1" value="0" leadInLength="0/1"  />
           <InterpolatingParam id="77" interp="linr"  time="-9999999/1" value="0" leadInLength="0/1"  />
          </VectorParam>
          <VectorParam id="78"  name="shear">
           <InterpolatingParam id="79" interp="linr"  time="-9999999/1" value="0" leadInLength="0/1"  />
           <InterpolatingParam id="80" interp="linr"  time="-9999999/1" value="0" leadInLength="0/1"  />
           <InterpolatingParam id="81" interp="linr"  time="-9999999/1" value="0" leadInLength="0/1"  />
          </VectorParam>
          <VectorParam id="82"  name="scale">
           <InterpolatingParam id="83" interp="linr"  time="-9999999/1" value="1" leadInLength="0/1"  />
           <InterpolatingParam id="84" interp="linr"  time="-9999999/1" value="1" leadInLength="0/1"  />
           <InterpolatingParam id="85" interp="linr"  time="-9999999/1" value="1" leadInLength="0/1"  />
          </VectorParam>
          <VectorParam id="86"  name="anchor">
           <InterpolatingParam id="87" interp="linr"  time="0/1" value="0" leadInLength="0/1"  />
           <InterpolatingParam id="88" interp="linr"  time="0/1" value="0" leadInLength="0/1"  />
           <InterpolatingParam id="89" interp="linr"  time="0/1" value="0" leadInLength="0/1"  />
          </VectorParam>
         </Transformer>
         <Parameters>
          <VectorParam id="90"  name="sourceCrop">
           <InterpolatingParam id="91" interp="linr"  time="0/1" value="0" leadInLength="0/1"  />
           <InterpolatingParam id="92" interp="linr"  time="0/1" value="0" leadInLength="0/1"  />
           <InterpolatingParam id="93" interp="linr"  time="0/1" value="0" leadInLength="0/1"  />
           <InterpolatingParam id="94" interp="linr"  time="0/1" value="0" leadInLength="0/1"  />
          </VectorParam>
          <VectorParam id="95"  name="geometryCrop">
           <InterpolatingParam id="96" interp="linr"  time="-9999999/1" value="0" leadInLength="0/1"  />
           <InterpolatingParam id="97" interp="linr"  time="-9999999/1" value="0" leadInLength="0/1"  />
           <InterpolatingParam id="98" interp="linr"  time="-9999999/1" value="0" leadInLength="0/1"  />
           <InterpolatingParam id="99" interp="linr"  time="-9999999/1" value="0" leadInLength="0/1"  />
          </VectorParam>
          <InterpolatingParam id="100" interp="linr"  time="-9999999/1" value="1" leadInLength="0/1"  name="opacity"/>
          <InterpolatingParam id="101" interp="linr"  time="0/1" value="1" leadInLength="0/1"  name="cursorOpacity"/>
          <InterpolatingParam id="102" interp="linr"  time="0/1" value="1" leadInLength="0/1"  name="cursorScale"/>
          <InterpolatingParam id="103" interp="linr"  name="volume">
           <Keyframes>
           <Keyframe id="104"  time="0/1" value="1" leadInLength="0/1"  />
           <Keyframe id="105"  time="457/1" value="1" leadInLength="0/1"  />
           <Keyframe id="106"  time="458/1" value="1.5625" leadInLength="0/1"  />
           <Keyframe id="107"  time="18067/1" value="1.5625" leadInLength="0/1"  />
           <Keyframe id="108"  time="18068/1" value="1" leadInLength="0/1"  />
           </Keyframes>
          </InterpolatingParam>
          <Parameter id="109"  name="captions"/>
         </Parameters>
         <Effects>
          <GenericEffect id="110" name = "CursorBaseEffectName" >
           <Parameters>
           <InterpolatingParam id="111" interp="linr"  time="-9999999/1" value="1" leadInLength="0/1"   name="cursorSize"/>
           <InterpolatingParam id="112" interp="linr"  time="-9999999/1" value="0" leadInLength="0/1"   name="highlightBlurRadius"/>
           <InterpolatingParam id="113" interp="linr"  time="-9999999/1" value="0" leadInLength="0/1"   name="highlightColorBlue"/>
           <InterpolatingParam id="114" interp="linr"  time="-9999999/1" value="255" leadInLength="0/1"   name="highlightColorGreen"/>
           <InterpolatingParam id="115" interp="linr"  time="-9999999/1" value="255" leadInLength="0/1"   name="highlightColorRed"/>
           <InterpolatingParam id="116" interp="linr"  time="-9999999/1" value="5" leadInLength="0/1"   name="highlightFeatherSize"/>
           <InterpolatingParam id="117" interp="linr"  time="-9999999/1" value="2" leadInLength="0/1"   name="highlightMagnification"/>
           <InterpolatingParam id="118" interp="linr"  time="-9999999/1" value="1" leadInLength="0/1"   name="highlightOpacity"/>
           <InterpolatingParam id="119" interp="linr"  time="-9999999/1" value="45" leadInLength="0/1"   name="highlightSize"/>
           <Parameter id="120"   name="highlightType">
            <Keyframes>
            <Keyframe id="121"  time="-9999999/1" value="0" leadInLength="0/1"  />
            </Keyframes>
           </Parameter>
           <InterpolatingParam id="122" interp="linr"  time="-9999999/1" value="0" leadInLength="0/1"   name="leftClickColorBlue"/>
           <InterpolatingParam id="123" interp="linr"  time="-9999999/1" value="0" leadInLength="0/1"   name="leftClickColorGreen"/>
           <InterpolatingParam id="124" interp="linr"  time="-9999999/1" value="255" leadInLength="0/1"   name="leftClickColorRed"/>
           <InterpolatingParam id="125" interp="linr"  time="-9999999/1" value="0.80000000000000004" leadInLength="0/1"   name="leftClickDuration"/>
           <InterpolatingParam id="126" interp="linr"  time="-9999999/1" value="20" leadInLength="0/1"   name="leftClickSize"/>
           <Parameter id="127"   name="leftClickSoundFilename">
            <Keyframes>
            <Keyframe id="128"  time="-9999999/1" value="" leadInLength="0/1"  />
            </Keyframes>
           </Parameter>
           <InterpolatingParam id="129" interp="linr"  time="-9999999/1" value="1" leadInLength="0/1"   name="leftClickSoundVolume"/>
           <Parameter id="130"   name="leftClickType">
            <Keyframes>
            <Keyframe id="131"  time="-9999999/1" value="0" leadInLength="0/1"  />
            </Keyframes>
           </Parameter>
           <InterpolatingParam id="132" interp="linr"  time="-9999999/1" value="1" leadInLength="0/1"   name="opacity"/>
           <InterpolatingParam id="133" interp="linr"  time="-9999999/1" value="255" leadInLength="0/1"   name="rightClickColorBlue"/>
           <InterpolatingParam id="134" interp="linr"  time="-9999999/1" value="0" leadInLength="0/1"   name="rightClickColorGreen"/>
           <InterpolatingParam id="135" interp="linr"  time="-9999999/1" value="0" leadInLength="0/1"   name="rightClickColorRed"/>
           <InterpolatingParam id="136" interp="linr"  time="-9999999/1" value="0.80000000000000004" leadInLength="0/1"   name="rightClickDuration"/>
           <InterpolatingParam id="137" interp="linr"  time="-9999999/1" value="20" leadInLength="0/1"   name="rightClickSize"/>
           <Parameter id="138"   name="rightClickSoundFilename">
            <Keyframes>
            <Keyframe id="139"  time="-9999999/1" value="" leadInLength="0/1"  />
            </Keyframes>
           </Parameter>
           <InterpolatingParam id="140" interp="linr"  time="-9999999/1" value="1" leadInLength="0/1"   name="rightClickSoundVolume"/>
           <Parameter id="141"   name="rightClickType">
            <Keyframes>
            <Keyframe id="142"  time="-9999999/1" value="0" leadInLength="0/1"  />
            </Keyframes>
           </Parameter>
           </Parameters>
           <MetaData>
            <entry key="effectIndex" val="0"/>
           </MetaData>
          </GenericEffect>
          <GenericEffect id="143" name = "WinCompression" >
           <Parameters>
           <InterpolatingParam id="144" interp="linr"  time="0/1" value="0" leadInLength="0/1"   name="attack"/>
           <InterpolatingParam id="145" interp="linr"  time="0/1" value="9" leadInLength="0/1"   name="gain"/>
           <Parameter id="146"   name="preset">
            <Keyframes>
            <Keyframe id="147"  time="0/1" value="1" leadInLength="0/1"  />
            </Keyframes>
           </Parameter>
           <InterpolatingParam id="148" interp="linr"  time="0/1" value="10" leadInLength="0/1"   name="ratio"/>
           <InterpolatingParam id="149" interp="linr"  time="0/1" value="3500" leadInLength="0/1"   name="release"/>
           <InterpolatingParam id="150" interp="linr"  time="0/1" value="-20" leadInLength="0/1"   name="threshold"/>
           </Parameters>
           <MetaData>
            <entry key="effectIndex" val="1"/>
           </MetaData>
          </GenericEffect>
          <GenericEffect id="151" name = "NoiseReduction" >
           <Parameters>
           <InterpolatingParam id="152" interp="linr"  time="0/1" value="20" leadInLength="0/1"   name="denoiserAmount"/>
           <InterpolatingParam id="153" interp="linr"  time="0/1" value="0" leadInLength="0/1"   name="denoiserThreshold"/>
           <Parameter id="154"   name="noiseProfile">
            <Keyframes>
            <Keyframe id="155"  time="0/1" value="FBAAAAIAAABErAAAAQIAADGZn8Lrc5XC/46fwmiBpMJZPZ3ChlWcwn0DqcIalKvCAiOpwmFNpcIm&#xD;&#xa;maLC9Qykwn41qsLFK67CwDavwjgzsMLfgK7CROmtwkxBscLwm7jC2ri/wq0dw8JfEMfCfk7GwiSf&#xD;&#xa;x8LC9cTCd5bIwlRmy8KgiMXCrEXCwgjkwMJmlb3CeOW9wlWHv8L3N7/C5hW5wj+3ucJMA8HCt7vD&#xD;&#xa;wmYGxcJQ2MrCJGfLwrLIx8IOa87CLHDYwhK018LYXNLCpeXRwvlb0sKYQdPC4ADVwmPF2MIR/NrC&#xD;&#xa;hFnbwh4Z3MKpItrCmmPZwrVP2sIvkNnCX27YwiOc1sKS7dbCIgzSwooMzsKomc7C73DQwrt+08LB&#xD;&#xa;+9bCVjbZwrj11cJaotXC15vZwsZh3MJv39jC7zrbwsJS28J1HNzCKSXbwmyS28KKat3COKvcwvaS&#xD;&#xa;28L31dbCVZnTwsx608KUgNDC5qbNwjQVzsJbic/CJB/OwiP+zcIgXNLCb/DTwhAX0sLy+NTCAUjZ&#xD;&#xa;wvD22MIRPN3CwBrgwldX38JaGuDC7VPhwi6338Lpn97CrJPewi0k4MLund3C4M3ewhy/3sLhP9/C&#xD;&#xa;8MrewsEU3sLnBt3C/nbcwtN64MIU6t7CKNbewsU84MIEXt7Cxg7gwoC638I/suDCGm/fwtqZ38KY&#xD;&#xa;BuHCo2/ewkQ+28KOmNjChHfZwirb3cJ23d3C9Qrcwiyh2sJ4UNvCFDHewoz43MKuydvCQHzawuLv&#xD;&#xa;3MK2b97CTubdwmAn3sKi+dzCAs3bwk4Z3cKuPt7CSoHewmhH4cLuH+DCrTbfwkSj4cI0+OHCcMbe&#xD;&#xa;wj1C38JxTuLC+sfhwuz75MJfGOXCRH7kwiwY4cLm59/Cfsvgwj3V4MILbt/CKNHewlpo3sKRSN7C&#xD;&#xa;xMvdwsoN3sK+3N7CXXbewkoP38I+3NvC7PLbwtgF3sJ2ld7CiJ3dwvKA3MLEld/CyD3hwqcy3sJy&#xD;&#xa;utzCKpThwgUz5MJm29/CgEXcwkrt3cLMmOHCNGHiwk424MIyHuLCK6vgwufe4MLyIOLCWPfhwrLJ&#xD;&#xa;4cJ2r+LCZHbjwlSQ4cLadODCQNDhwlru48LWJ+HCOBjgwtIR4cIIOOPCMVHiwgOf4sIoyuPCvLPl&#xD;&#xa;worq5sI+9uTCpmTjwggi48Jg0eLCGQzmwhDO48LhMuTCwNXlwnZC48Jjo+DCZJPhwnsK48LA7OXC&#xD;&#xa;B8rnwhAU48IKwOLCDgDiwo8X5MLAE+jCkuvkwiBv4sKO4ODC1Nfiwl4Q48KK7+LCIezjwoPf48J6&#xD;&#xa;Y+LCZuDfwoLD4sKO1uTCoJ7mwrdd5sJLkebCK5zmwqpe6sI23urCvcnswrZ17sJ4YurCgvnpwpCr&#xD;&#xa;6sLEOOnCHe3pwsLz6MIekenCLsLxwkYU8cLU7+7C8jvywkR58MI4uu7CeEPxwjhP88Ki7vHCTTP0&#xD;&#xa;wn7v8cItevLCUuz3wqnF98L8ifDC/ZnowsLY58Lxs+rCFrzrwhZs6cIWCOjCekPqwo7258IodufC&#xD;&#xa;uqzpwsZ06sIWjejCKd3mwt+O6MJk/evCFqLvwv4D9cKlKfjCMdf3wgA/+MKkC/nC1AP5ws9W+MLH&#xD;&#xa;bfbCT7/3wmpv98I4xvjC8N/5wuyV+MKoGvfCDm33wlS0+MKOxvnCIsP6wnIG+sJjp/fCku/3wvj/&#xD;&#xa;+cI+D/jCbNP3wvYF98L4BPnCuHL4wphw9sIlF/bCDM/1wlqf9sILBffCtH74wso5+cKkOvbC18D0&#xD;&#xa;wujK98KSRPvCJuP4wjQG+sKiBPrCG/H3wmSC+MIoDvrCzyv4wttP98Kk6vnC8Kb8wlJ1/cLqIfnC&#xD;&#xa;KUD2wich9sJcQ/fCgI34wjDF+MJ66vTCJvL1wsqu+sJCM/rC6MH5wkKd+8L+EfjC7P/2wlYo+sLc&#xD;&#xa;/fvC+LH6whbQ+sK8wvbCnrv1wmJB+sK8MPvCUsL3whhS+cKaHv3CuqP8wnrs+cLq7ffCrtv5wljC&#xD;&#xa;+MKw8PfCsmn5wjit+cKqdPbCMpj2wpir+MII5/XCPlP0wicU9sJ6RffCfMX4wu5O+MJ+YPbC6lf4&#xD;&#xa;ws54+cLE4PjCxr72wo6q+MKsOvjCmHb3wjIM+cLgyPjCFt33wlI5+cK0XPrCWLv3wlTy+MJ8CPjC&#xD;&#xa;sRz3woho9cKygPbCzKX3wszF98IQTvfCmYn1wmaC9sJu3PnCtnj5wpDg9sLAQ/bCIIn5wlrH+8Lm&#xD;&#xa;RfnCfJH5wsLE+cKId/rCTW/3wso298KMsPbC0Fb2wn029sK4G/rC4Nr7wuxE+sKAY/fCZDn4wh5q&#xD;&#xa;+cL4ifjCRqL1wl5G9sJCivfCbrX2wuZe9cKw4fXC2tz4wihd+8L8n/nCeo/6woJY+cKVnPXCmEv1&#xD;&#xa;wi+B98LIdvnCVAr8wvjH+8KsR/nCimz6wpBP+sIYCfrCIoT4wsp098ID1/bC4BP4wq6++MLqR/bC&#xD;&#xa;iA/2wkzX+MIubPvCQMD7wmjs+sJCX/fC0O/1wvb098IyiPnCxBP5woCi+MLvd/fC6jX4wrY/+sLu&#xD;&#xa;efnCACL4wpgG9cJa0fjCpHz5wh4T+sJsFPrCfm74wird+MJdSvfCY3n1wgYT9sKy8PjCZgX5wqQV&#xD;&#xa;+MIgAvfCYiz3whLv9cIQ7fXCCDz5wkzj+MIkYfnCUon3wlzU9cJge/fCW1P4wj9/9sJqVfXCAH31&#xD;&#xa;wiry9sJkfvjCXDD7wohq+sKeZvnCAVD3wpC69sJ7ZfjCWrb4wuIQ+MKEe/fCwAv5wjZE+cLucPjC&#xD;&#xa;Ssb5wjbt+sIKVvvCBDwFw3aVn8LLbpXCPImfwiSIpMIKRp3CDV2cwngPqcLOpKvC0SepwmRPpcKx&#xD;&#xa;nKLCWhqkwmU7qsK7GK7CPhKvwgU7sMKapK7CnPmtwv5IscI6q7jCXNS/wmXEw8IKYcfCcsfGwnS8&#xD;&#xa;yMJma8bCI1XJwpTvysIAzMTCNgXCwiy8wMJPd73CjrC9wkpov8JK477CJA25wpGcucLKLcDC7GbD&#xD;&#xa;wjK0xcISqcvCgs3KwlaRx8Lg4M3CPBvXwgDy1sK25tLCSO3SwgAw0sLQEdTCCrDXwrSI2cJHiNnC&#xD;&#xa;+vzZwg5t28IZv9jCJqvXwsew2cK+EdrCkgvawuIH2ML4PdfCOg/SwiKBzsIyws7CawjRwvAn1cLm&#xD;&#xa;5djC4lHXwlFF1sKMxdbCqRHbwgRB3cI9AdvCANnbwtL528LrFdzCT1nbwnbX28ICINvCbyPbwhCU&#xD;&#xa;2sJybtXC2KbVwpad1cJCtNHCaDDOwuJBzcLrs87CnM3OwkigzsIEwdHC7GbTwgqu0sL/ZNbCXsHY&#xD;&#xa;wtQ428Lc8dzCNITfwo+W4MLyYd7CyKHdwlY03cJW4N3C7MPcwiQ238Jiht/C2DTewq1N3sLGTt7C&#xD;&#xa;Cg7ewrTa3MJ+dN3C7kfdwmxX38Iiy97CD2rewl0848JWYOPClHDiwtKQ4cJR2ODC6JPdwj4w3sJB&#xD;&#xa;H9/C1UjfwqTY3cKM4trCG5HZwh8n3MKuZt/CC47fwhAt3MIWFd7Ci3newkyM38LKm+DCGlLewriz&#xD;&#xa;38IWwODC8jfewg6538I9gN3C+rzcwnp83sLBAeDCzsrewocf4cIIz9/CxczewhJ64cLYr+PCQPHg&#xD;&#xa;wjlj4cL0tOTC02ziwh1c38L2nt7CMn/fwsLc4cLuz+PCbsLjwlzo4MJ0Bt7C2A7cwvo+3MLcA97C&#xD;&#xa;VBvcwiJt3MJrh+DCooTewtt33cLaYNvCxuzbwhix2sKiddzCKpngwgac38LMD+HCG2Hewv3U3cLv&#xD;&#xa;yNzCgRXfwo404cIwi+DCDh3fwqUH38I6m9/CRcfhwvzs4sLCJeTCFBXiwvsM4cL2x+HCckPhwlC+&#xD;&#xa;4MJcWuLCLhTjwh5K4sJWhuHCdWjjwl515MK2j+PCar3gwmwM4MLS0+HC+aDhwgzg4MKLmODCIHbj&#xD;&#xa;wrwr5sKLAeXChqzjwugc4cLMTODCAZDjwkQA48KsveLCKv7iwuAZ4sLK7ODC2hPiwmS25MI8mOXC&#xD;&#xa;YPPlwnLc5MKpkeTCdHziwry84sL6RubC0IPlwlCp4MIuG+HCgGrjwsie4cL48uHCiLPjwu4548J8&#xD;&#xa;4eTCN6Hhws/K48IRx+jCPjznwtJD5MKQOubCwlznwj476sKNo+vCanfvwhNn7cI2QenChtnpwj9w&#xD;&#xa;7MI8dOnCDvnowuRV6MIWMejC5kvwwmgM8cL+ve/Ckpvywn4788KESe/CWCXvwk7m8MLa6fHCXkn0&#xD;&#xa;wiS48sKqvvTCIjL1wt0W9cIWBfPCJorswubo6cLlWunCorvrwtZK7cIC8evC5JXrwpAS6sKzEOnC&#xD;&#xa;qtLowrB66cIEG+nC8pDnwkqd6MJ+V+nCd7DrwgB68sJyGPjCVh/4wjwh+MIsZ/nCpCP6wrCs+MIG&#xD;&#xa;H/jCkKH5wgLL98KwiPjCdEv3wvPo9sLx7PTCevr2wpv798LQH/fCS/L1wgO198Iy3/rCvIb6woao&#xD;&#xa;+cJiVfvC/LL7wrwn+cJSCvbCXJ72wuRg+MIAhvjCINb2wgC7+MLObvjChLL3wvbN+MKcsPfCM0z3&#xD;&#xa;wg7x+MK0jfrC4gL6wn5n98Kne/XCVxP3wgYD9sIezPbCsJP6whB7+8KtgvfC3oL2wpZS98LmdfjC&#xD;&#xa;7mv4wqzC98I6JfbCra/2wv7D9cKCEfbCNhr6wnym+sLwkvjCyID3wlC7+MIGhPnCqm/5wg7z+cIq&#xD;&#xa;GfrC8vz3wnJC9sJ+1PfCcMX3wq5e+MKY0ffCUpL4wrsS+MJomffCspr4wqwD98JgIvnCRpj5wrhr&#xD;&#xa;+MKOEPrC3DT5wjLN98KA6fjCwHj3wp5f9MKeBvXCEUL2wlwn+cIKVPnCwOP4wqgg9sIQXfXCh3T3&#xD;&#xa;wuSz+MIUsvXCyvHzwvYY98IioPjCXIf4wkBN+sJclPrCEML0wtfm9sI2hPvCdmv7wmgq+8LuqffC&#xD;&#xa;pmn1wr1X9cKQEPTCxUXzwpjz9cJUyfXC25/1wtjM+MJKG/vCElv4wigp98Ku+vbCuID3wgCp9sLg&#xD;&#xa;fPbCVnv5wt5S/MKW5/vCSM/6wqp/+8K03f3C0tr7wsiD+cJwuPfCttn2wng79sK4EfjCIBX7wqhS&#xD;&#xa;+MInsffCMu32wiM19cJDg/TCxH33wgqa+MJwPvvC0MT4wrBx98KoXPfCilH0wkBG9cKMtfjCzWn1&#xD;&#xa;wo6898Je3/nCeFr6wlK/98Jj6PfCevX6wqqL+MJBIfjCiHz5wqqU+MICR/fC9u74wgbu+ML6p/fC&#xD;&#xa;n1X4wlkG+MKYZfrC0MT6whwi98LwPPXCJN/4wgy098Le9PfCMgj3whpG9sISDvXCwFf2ws/898Ka&#xD;&#xa;LPnCvST4wk8+9sIsKfXCdun2wiOn9cKmYPfCJED6wh4z+sLBDvjC1fD2wgQm9sL+qPbC4E70wtB3&#xD;&#xa;9sLIOvvCRkr6wmsp98J4wvfCzEj4wuTd9sIkMvnCoiP5wmm19sKPdvfCYtL3wpRy9cJGCPbC/5D2&#xD;&#xa;wsjX9sJiDPjC2sj5wl8v+MIqTPfCsqz0wjRX9MIv//fC7nf6wvpO+sKIhvnC4oP4wqb898K0wPbC&#xD;&#xa;3n72wsEL9cKk+vTCpJgC" leadInLength="0/1"  />
            </Keyframes>
           </Parameter>
           </Parameters>
           <MetaData>
            <entry key="effectIndex" val="2"/>
           </MetaData>
          </GenericEffect>
         </Effects>
         <Attributes>
          <Attribute id="156" value="" name="ident"/>
          <Attribute id="157" value="0" name="mixToMono"/>
         </Attributes>
         <MetaData>
          <entry key="AutoAppliedSmartFocus" val="False"/>
          <entry key="WinSubProjectDisplayName" val=""/>
         </MetaData>
         <ExtraData>
          <Entry key="ZoomPanBin">
           <ZoomPanBin id="158"  >
            <ZoomPanKeyframes>
             <ZoomPanKeyframe id="159" timeRangeEnd="-9999999/1" timeRangeDuration="0/1" interpolaterName=""  />
            </ZoomPanKeyframes>
           </ZoomPanBin>
          </Entry>
          <Entry key="CursorEffectBin">
           <CursorEffectBin id="160"  >
            <CursorEffectKeyframes>
             <CursorEffectKeyframe id="161" timeRangeEnd="-9999999/1" timeRangeDuration="0/1" interpolaterName=""  />
            </CursorEffectKeyframes>
           </CursorEffectBin>
          </Entry>
         </ExtraData>
         <GenericTrack id="162"  >
          <Attributes>
           <Attribute id="163" value="" name="ident"/>
           <Attribute id="164" value="0" name="audioMuted"/>
           <Attribute id="165" value="0" name="videoHidden"/>
          </Attributes>
          <MetaData>
           <entry key="IsLocked" val="False"/>
           <entry key="WinTrackHeight" val="0"/>
          </MetaData>
          <Medias>
           <UnifiedMedia id="166"  >
            <AMFile id="167" start="0" duration="802" scalar="1/1" mediaStart="0/1" mediaDuration="802/1" trackNumber="1" src="4" channelNumber="0,1" >
             <Parameters>
              <InterpolatingParam id="168" interp="linr"  time="0/1" value="1" leadInLength="0/1"  name="volume"/>
              <Parameter id="169"  name="captions"/>
             </Parameters>
             <Attributes>
              <Attribute id="170" value="" name="ident"/>
              <Attribute id="171" value="44100" name="sampleRate"/>
              <Attribute id="172" value="16" name="bitDepth"/>
              <Attribute id="173" value="1" name="gain"/>
              <Attribute id="174" value="0" name="mixToMono"/>
             </Attributes>
            </AMFile>
            <ScreenVMFile id="175" start="0" duration="802" scalar="1/1" mediaStart="0/1" mediaDuration="802/1" trackNumber="0" src="4" >
             <Transformer>
              <VectorParam id="176"  name="translation">
               <InterpolatingParam id="177" interp="linr"  time="-9999999/1" value="0" leadInLength="0/1"  />
               <InterpolatingParam id="178" interp="linr"  time="-9999999/1" value="0" leadInLength="0/1"  />
               <InterpolatingParam id="179" interp="linr"  time="-9999999/1" value="0" leadInLength="0/1"  />
              </VectorParam>
              <VectorParam id="180"  name="rotation">
               <InterpolatingParam id="181" interp="linr"  time="-9999999/1" value="0" leadInLength="0/1"  />
               <InterpolatingParam id="182" interp="linr"  time="-9999999/1" value="0" leadInLength="0/1"  />
               <InterpolatingParam id="183" interp="linr"  time="-9999999/1" value="0" leadInLength="0/1"  />
              </VectorParam>
              <VectorParam id="184"  name="shear">
               <InterpolatingParam id="185" interp="linr"  time="-9999999/1" value="0" leadInLength="0/1"  />
               <InterpolatingParam id="186" interp="linr"  time="-9999999/1" value="0" leadInLength="0/1"  />
               <InterpolatingParam id="187" interp="linr"  time="-9999999/1" value="0" leadInLength="0/1"  />
              </VectorParam>
              <VectorParam id="188"  name="scale">
               <InterpolatingParam id="189" interp="linr"  time="-9999999/1" value="1" leadInLength="0/1"  />
               <InterpolatingParam id="190" interp="linr"  time="-9999999/1" value="1" leadInLength="0/1"  />
               <InterpolatingParam id="191" interp="linr"  time="-9999999/1" value="1" leadInLength="0/1"  />
              </VectorParam>
              <VectorParam id="192"  name="anchor">
               <InterpolatingParam id="193" interp="linr"  time="0/1" value="0" leadInLength="0/1"  />
               <InterpolatingParam id="194" interp="linr"  time="0/1" value="0" leadInLength="0/1"  />
               <InterpolatingParam id="195" interp="linr"  time="0/1" value="0" leadInLength="0/1"  />
              </VectorParam>
             </Transformer>
             <Parameters>
              <VectorParam id="196"  name="sourceCrop">
               <InterpolatingParam id="197" interp="linr"  time="0/1" value="0" leadInLength="0/1"  />
               <InterpolatingParam id="198" interp="linr"  time="0/1" value="0" leadInLength="0/1"  />
               <InterpolatingParam id="199" interp="linr"  time="0/1" value="0" leadInLength="0/1"  />
               <InterpolatingParam id="200" interp="linr"  time="0/1" value="0" leadInLength="0/1"  />
              </VectorParam>
              <VectorParam id="201"  name="geometryCrop">
               <InterpolatingParam id="202" interp="linr"  time="-9999999/1" value="0" leadInLength="0/1"  />
               <InterpolatingParam id="203" interp="linr"  time="-9999999/1" value="0" leadInLength="0/1"  />
               <InterpolatingParam id="204" interp="linr"  time="-9999999/1" value="0" leadInLength="0/1"  />
               <InterpolatingParam id="205" interp="linr"  time="-9999999/1" value="0" leadInLength="0/1"  />
              </VectorParam>
              <InterpolatingParam id="206" interp="linr"  time="-9999999/1" value="1" leadInLength="0/1"  name="opacity"/>
              <InterpolatingParam id="207" interp="linr"  time="0/1" value="0" leadInLength="0/1"  name="cursorOpacity"/>
              <InterpolatingParam id="208" interp="linr"  time="0/1" value="0" leadInLength="0/1"  name="cursorScale"/>
             </Parameters>
             <Attributes>
              <Attribute id="209" value="" name="ident"/>
             </Attributes>
             <ExtraData>
              <Entry key="ZoomPanBin">
               <ZoomPanBin id="210"  >
                <ZoomPanKeyframes>
                 <ZoomPanKeyframe id="211" timeRangeEnd="-9999999/1" timeRangeDuration="0/1" interpolaterName=""  />
                </ZoomPanKeyframes>
               </ZoomPanBin>
              </Entry>
              <Entry key="CursorEffectBin">
               <CursorEffectBin id="212"  >
                <CursorEffectKeyframes>
                </CursorEffectKeyframes>
               </CursorEffectBin>
              </Entry>
             </ExtraData>
            </ScreenVMFile>
            <MetaData>
             <entry key="AutoAppliedSmartFocus" val="False"/>
             <entry key="WinSubProjectDisplayName" val=""/>
            </MetaData>
           </UnifiedMedia>
           <UnifiedMedia id="213"  >
            <AMFile id="214" start="802" duration="158" scalar="1/1" mediaStart="892/1" mediaDuration="158/1" trackNumber="1" src="4" channelNumber="0,1" >
             <Parameters>
              <InterpolatingParam id="215" interp="linr"  time="0/1" value="1" leadInLength="0/1"  name="volume"/>
              <Parameter id="216"  name="captions"/>
             </Parameters>
             <Attributes>
              <Attribute id="217" value="" name="ident"/>
              <Attribute id="218" value="44100" name="sampleRate"/>
              <Attribute id="219" value="16" name="bitDepth"/>
              <Attribute id="220" value="1" name="gain"/>
              <Attribute id="221" value="0" name="mixToMono"/>
             </Attributes>
            </AMFile>
            <ScreenVMFile id="222" start="802" duration="158" scalar="1/1" mediaStart="892/1" mediaDuration="158/1" trackNumber="0" src="4" >
             <Transformer>
              <VectorParam id="223"  name="translation">
               <InterpolatingParam id="224" interp="linr"  time="-9999999/1" value="0" leadInLength="0/1"  />
               <InterpolatingParam id="225" interp="linr"  time="-9999999/1" value="0" leadInLength="0/1"  />
               <InterpolatingParam id="226" interp="linr"  time="-9999999/1" value="0" leadInLength="0/1"  />
              </VectorParam>
              <VectorParam id="227"  name="rotation">
               <InterpolatingParam id="228" interp="linr"  time="-9999999/1" value="0" leadInLength="0/1"  />
               <InterpolatingParam id="229" interp="linr"  time="-9999999/1" value="0" leadInLength="0/1"  />
               <InterpolatingParam id="230" interp="linr"  time="-9999999/1" value="0" leadInLength="0/1"  />
              </VectorParam>
              <VectorParam id="231"  name="shear">
               <InterpolatingParam id="232" interp="linr"  time="-9999999/1" value="0" leadInLength="0/1"  />
               <InterpolatingParam id="233" interp="linr"  time="-9999999/1" value="0" leadInLength="0/1"  />
               <InterpolatingParam id="234" interp="linr"  time="-9999999/1" value="0" leadInLength="0/1"  />
              </VectorParam>
              <VectorParam id="235"  name="scale">
               <InterpolatingParam id="236" interp="linr"  time="-9999999/1" value="1" leadInLength="0/1"  />
               <InterpolatingParam id="237" interp="linr"  time="-9999999/1" value="1" leadInLength="0/1"  />
               <InterpolatingParam id="238" interp="linr"  time="-9999999/1" value="1" leadInLength="0/1"  />
              </VectorParam>
              <VectorParam id="239"  name="anchor">
               <InterpolatingParam id="240" interp="linr"  time="0/1" value="0" leadInLength="0/1"  />
               <InterpolatingParam id="241" interp="linr"  time="0/1" value="0" leadInLength="0/1"  />
               <InterpolatingParam id="242" interp="linr"  time="0/1" value="0" leadInLength="0/1"  />
              </VectorParam>
             </Transformer>
             <Parameters>
              <VectorParam id="243"  name="sourceCrop">
               <InterpolatingParam id="244" interp="linr"  time="0/1" value="0" leadInLength="0/1"  />
               <InterpolatingParam id="245" interp="linr"  time="0/1" value="0" leadInLength="0/1"  />
               <InterpolatingParam id="246" interp="linr"  time="0/1" value="0" leadInLength="0/1"  />
               <InterpolatingParam id="247" interp="linr"  time="0/1" value="0" leadInLength="0/1"  />
              </VectorParam>
              <VectorParam id="248"  name="geometryCrop">
               <InterpolatingParam id="249" interp="linr"  time="-9999999/1" value="0" leadInLength="0/1"  />
               <InterpolatingParam id="250" interp="linr"  time="-9999999/1" value="0" leadInLength="0/1"  />
               <InterpolatingParam id="251" interp="linr"  time="-9999999/1" value="0" leadInLength="0/1"  />
               <InterpolatingParam id="252" interp="linr"  time="-9999999/1" value="0" leadInLength="0/1"  />
              </VectorParam>
              <InterpolatingParam id="253" interp="linr"  time="-9999999/1" value="1" leadInLength="0/1"  name="opacity"/>
              <InterpolatingParam id="254" interp="linr"  time="0/1" value="0" leadInLength="0/1"  name="cursorOpacity"/>
              <InterpolatingParam id="255" interp="linr"  time="0/1" value="0" leadInLength="0/1"  name="cursorScale"/>
             </Parameters>
             <Attributes>
              <Attribute id="256" value="" name="ident"/>
             </Attributes>
             <ExtraData>
              <Entry key="ZoomPanBin">
               <ZoomPanBin id="257"  >
                <ZoomPanKeyframes>
                 <ZoomPanKeyframe id="258" timeRangeEnd="-9999999/1" timeRangeDuration="0/1" interpolaterName=""  />
                </ZoomPanKeyframes>
               </ZoomPanBin>
              </Entry>
              <Entry key="CursorEffectBin">
               <CursorEffectBin id="259"  >
                <CursorEffectKeyframes>
                </CursorEffectKeyframes>
               </CursorEffectBin>
              </Entry>
             </ExtraData>
            </ScreenVMFile>
            <MetaData>
             <entry key="AutoAppliedSmartFocus" val="False"/>
             <entry key="WinSubProjectDisplayName" val=""/>
            </MetaData>
           </UnifiedMedia>
           <UnifiedMedia id="260"  >
            <AMFile id="261" start="960" duration="202" scalar="1/1" mediaStart="1118/1" mediaDuration="202/1" trackNumber="1" src="4" channelNumber="0,1" >
             <Parameters>
              <InterpolatingParam id="262" interp="linr"  time="0/1" value="1" leadInLength="0/1"  name="volume"/>
              <Parameter id="263"  name="captions"/>
             </Parameters>
             <Attributes>
              <Attribute id="264" value="" name="ident"/>
              <Attribute id="265" value="44100" name="sampleRate"/>
              <Attribute id="266" value="16" name="bitDepth"/>
              <Attribute id="267" value="1" name="gain"/>
              <Attribute id="268" value="0" name="mixToMono"/>
             </Attributes>
            </AMFile>
            <ScreenVMFile id="269" start="960" duration="202" scalar="1/1" mediaStart="1118/1" mediaDuration="202/1" trackNumber="0" src="4" >
             <Transformer>
              <VectorParam id="270"  name="translation">
               <InterpolatingParam id="271" interp="linr"  time="-9999999/1" value="0" leadInLength="0/1"  />
               <InterpolatingParam id="272" interp="linr"  time="-9999999/1" value="0" leadInLength="0/1"  />
               <InterpolatingParam id="273" interp="linr"  time="-9999999/1" value="0" leadInLength="0/1"  />
              </VectorParam>
              <VectorParam id="274"  name="rotation">
               <InterpolatingParam id="275" interp="linr"  time="-9999999/1" value="0" leadInLength="0/1"  />
               <InterpolatingParam id="276" interp="linr"  time="-9999999/1" value="0" leadInLength="0/1"  />
               <InterpolatingParam id="277" interp="linr"  time="-9999999/1" value="0" leadInLength="0/1"  />
              </VectorParam>
              <VectorParam id="278"  name="shear">
               <InterpolatingParam id="279" interp="linr"  time="-9999999/1" value="0" leadInLength="0/1"  />
               <InterpolatingParam id="280" interp="linr"  time="-9999999/1" value="0" leadInLength="0/1"  />
               <InterpolatingParam id="281" interp="linr"  time="-9999999/1" value="0" leadInLength="0/1"  />
              </VectorParam>
              <VectorParam id="282"  name="scale">
               <InterpolatingParam id="283" interp="linr"  time="-9999999/1" value="1" leadInLength="0/1"  />
               <InterpolatingParam id="284" interp="linr"  time="-9999999/1" value="1" leadInLength="0/1"  />
               <InterpolatingParam id="285" interp="linr"  time="-9999999/1" value="1" leadInLength="0/1"  />
              </VectorParam>
              <VectorParam id="286"  name="anchor">
               <InterpolatingParam id="287" interp="linr"  time="0/1" value="0" leadInLength="0/1"  />
               <InterpolatingParam id="288" interp="linr"  time="0/1" value="0" leadInLength="0/1"  />
               <InterpolatingParam id="289" interp="linr"  time="0/1" value="0" leadInLength="0/1"  />
              </VectorParam>
             </Transformer>
             <Parameters>
              <VectorParam id="290"  name="sourceCrop">
               <InterpolatingParam id="291" interp="linr"  time="0/1" value="0" leadInLength="0/1"  />
               <InterpolatingParam id="292" interp="linr"  time="0/1" value="0" leadInLength="0/1"  />
               <InterpolatingParam id="293" interp="linr"  time="0/1" value="0" leadInLength="0/1"  />
               <InterpolatingParam id="294" interp="linr"  time="0/1" value="0" leadInLength="0/1"  />
              </VectorParam>
              <VectorParam id="295"  name="geometryCrop">
               <InterpolatingParam id="296" interp="linr"  time="-9999999/1" value="0" leadInLength="0/1"  />
               <InterpolatingParam id="297" interp="linr"  time="-9999999/1" value="0" leadInLength="0/1"  />
               <InterpolatingParam id="298" interp="linr"  time="-9999999/1" value="0" leadInLength="0/1"  />
               <InterpolatingParam id="299" interp="linr"  time="-9999999/1" value="0" leadInLength="0/1"  />
              </VectorParam>
              <InterpolatingParam id="300" interp="linr"  time="-9999999/1" value="1" leadInLength="0/1"  name="opacity"/>
              <InterpolatingParam id="301" interp="linr"  time="0/1" value="0" leadInLength="0/1"  name="cursorOpacity"/>
              <InterpolatingParam id="302" interp="linr"  time="0/1" value="0" leadInLength="0/1"  name="cursorScale"/>
             </Parameters>
             <Attributes>
              <Attribute id="303" value="" name="ident"/>
             </Attributes>
             <ExtraData>
              <Entry key="ZoomPanBin">
               <ZoomPanBin id="304"  >
                <ZoomPanKeyframes>
                 <ZoomPanKeyframe id="305" timeRangeEnd="-9999999/1" timeRangeDuration="0/1" interpolaterName=""  />
                </ZoomPanKeyframes>
               </ZoomPanBin>
              </Entry>
              <Entry key="CursorEffectBin">
               <CursorEffectBin id="306"  >
                <CursorEffectKeyframes>
                </CursorEffectKeyframes>
               </CursorEffectBin>
              </Entry>
             </ExtraData>
            </ScreenVMFile>
            <MetaData>
             <entry key="AutoAppliedSmartFocus" val="False"/>
             <entry key="WinSubProjectDisplayName" val=""/>
            </MetaData>
           </UnifiedMedia>
           <UnifiedMedia id="307"  >
            <AMFile id="308" start="1162" duration="51" scalar="1/1" mediaStart="1334/1" mediaDuration="51/1" trackNumber="1" src="4" channelNumber="0,1" >
             <Parameters>
              <InterpolatingParam id="309" interp="linr"  time="0/1" value="1" leadInLength="0/1"  name="volume"/>
              <Parameter id="310"  name="captions"/>
             </Parameters>
             <Attributes>
              <Attribute id="311" value="" name="ident"/>
              <Attribute id="312" value="44100" name="sampleRate"/>
              <Attribute id="313" value="16" name="bitDepth"/>
              <Attribute id="314" value="1" name="gain"/>
              <Attribute id="315" value="0" name="mixToMono"/>
             </Attributes>
            </AMFile>
            <ScreenVMFile id="316" start="1162" duration="51" scalar="1/1" mediaStart="1334/1" mediaDuration="51/1" trackNumber="0" src="4" >
             <Transformer>
              <VectorParam id="317"  name="translation">
               <InterpolatingParam id="318" interp="linr"  time="-9999999/1" value="0" leadInLength="0/1"  />
               <InterpolatingParam id="319" interp="linr"  time="-9999999/1" value="0" leadInLength="0/1"  />
               <InterpolatingParam id="320" interp="linr"  time="-9999999/1" value="0" leadInLength="0/1"  />
              </VectorParam>
              <VectorParam id="321"  name="rotation">
               <InterpolatingParam id="322" interp="linr"  time="-9999999/1" value="0" leadInLength="0/1"  />
               <InterpolatingParam id="323" interp="linr"  time="-9999999/1" value="0" leadInLength="0/1"  />
               <InterpolatingParam id="324" interp="linr"  time="-9999999/1" value="0" leadInLength="0/1"  />
              </VectorParam>
              <VectorParam id="325"  name="shear">
               <InterpolatingParam id="326" interp="linr"  time="-9999999/1" value="0" leadInLength="0/1"  />
               <InterpolatingParam id="327" interp="linr"  time="-9999999/1" value="0" leadInLength="0/1"  />
               <InterpolatingParam id="328" interp="linr"  time="-9999999/1" value="0" leadInLength="0/1"  />
              </VectorParam>
              <VectorParam id="329"  name="scale">
               <InterpolatingParam id="330" interp="linr"  time="-9999999/1" value="1" leadInLength="0/1"  />
               <InterpolatingParam id="331" interp="linr"  time="-9999999/1" value="1" leadInLength="0/1"  />
               <InterpolatingParam id="332" interp="linr"  time="-9999999/1" value="1" leadInLength="0/1"  />
              </VectorParam>
              <VectorParam id="333"  name="anchor">
               <InterpolatingParam id="334" interp="linr"  time="0/1" value="0" leadInLength="0/1"  />
               <InterpolatingParam id="335" interp="linr"  time="0/1" value="0" leadInLength="0/1"  />
               <InterpolatingParam id="336" interp="linr"  time="0/1" value="0" leadInLength="0/1"  />
              </VectorParam>
             </Transformer>
             <Parameters>
              <VectorParam id="337"  name="sourceCrop">
               <InterpolatingParam id="338" interp="linr"  time="0/1" value="0" leadInLength="0/1"  />
               <InterpolatingParam id="339" interp="linr"  time="0/1" value="0" leadInLength="0/1"  />
               <InterpolatingParam id="340" interp="linr"  time="0/1" value="0" leadInLength="0/1"  />
               <InterpolatingParam id="341" interp="linr"  time="0/1" value="0" leadInLength="0/1"  />
              </VectorParam>
              <VectorParam id="342"  name="geometryCrop">
               <InterpolatingParam id="343" interp="linr"  time="-9999999/1" value="0" leadInLength="0/1"  />
               <InterpolatingParam id="344" interp="linr"  time="-9999999/1" value="0" leadInLength="0/1"  />
               <InterpolatingParam id="345" interp="linr"  time="-9999999/1" value="0" leadInLength="0/1"  />
               <InterpolatingParam id="346" interp="linr"  time="-9999999/1" value="0" leadInLength="0/1"  />
              </VectorParam>
              <InterpolatingParam id="347" interp="linr"  time="-9999999/1" value="1" leadInLength="0/1"  name="opacity"/>
              <InterpolatingParam id="348" interp="linr"  time="0/1" value="0" leadInLength="0/1"  name="cursorOpacity"/>
              <InterpolatingParam id="349" interp="linr"  time="0/1" value="0" leadInLength="0/1"  name="cursorScale"/>
             </Parameters>
             <Attributes>
              <Attribute id="350" value="" name="ident"/>
             </Attributes>
             <ExtraData>
              <Entry key="ZoomPanBin">
               <ZoomPanBin id="351"  >
                <ZoomPanKeyframes>
                 <ZoomPanKeyframe id="352" timeRangeEnd="-9999999/1" timeRangeDuration="0/1" interpolaterName=""  />
                </ZoomPanKeyframes>
               </ZoomPanBin>
              </Entry>
              <Entry key="CursorEffectBin">
               <CursorEffectBin id="353"  >
                <CursorEffectKeyframes>
                </CursorEffectKeyframes>
               </CursorEffectBin>
              </Entry>
             </ExtraData>
            </ScreenVMFile>
            <MetaData>
             <entry key="AutoAppliedSmartFocus" val="False"/>
             <entry key="WinSubProjectDisplayName" val=""/>
            </MetaData>
           </UnifiedMedia>
           <UnifiedMedia id="354"  >
            <AMFile id="355" start="1213" duration="159" scalar="1/1" mediaStart="1396/1" mediaDuration="159/1" trackNumber="1" src="4" channelNumber="0,1" >
             <Parameters>
              <InterpolatingParam id="356" interp="linr"  time="0/1" value="1" leadInLength="0/1"  name="volume"/>
              <Parameter id="357"  name="captions"/>
             </Parameters>
             <Attributes>
              <Attribute id="358" value="" name="ident"/>
              <Attribute id="359" value="44100" name="sampleRate"/>
              <Attribute id="360" value="16" name="bitDepth"/>
              <Attribute id="361" value="1" name="gain"/>
              <Attribute id="362" value="0" name="mixToMono"/>
             </Attributes>
            </AMFile>
            <ScreenVMFile id="363" start="1213" duration="159" scalar="1/1" mediaStart="1396/1" mediaDuration="159/1" trackNumber="0" src="4" >
             <Transformer>
              <VectorParam id="364"  name="translation">
               <InterpolatingParam id="365" interp="linr"  time="-9999999/1" value="0" leadInLength="0/1"  />
               <InterpolatingParam id="366" interp="linr"  time="-9999999/1" value="0" leadInLength="0/1"  />
               <InterpolatingParam id="367" interp="linr"  time="-9999999/1" value="0" leadInLength="0/1"  />
              </VectorParam>
              <VectorParam id="368"  name="rotation">
               <InterpolatingParam id="369" interp="linr"  time="-9999999/1" value="0" leadInLength="0/1"  />
               <InterpolatingParam id="370" interp="linr"  time="-9999999/1" value="0" leadInLength="0/1"  />
               <InterpolatingParam id="371" interp="linr"  time="-9999999/1" value="0" leadInLength="0/1"  />
              </VectorParam>
              <VectorParam id="372"  name="shear">
               <InterpolatingParam id="373" interp="linr"  time="-9999999/1" value="0" leadInLength="0/1"  />
               <InterpolatingParam id="374" interp="linr"  time="-9999999/1" value="0" leadInLength="0/1"  />
               <InterpolatingParam id="375" interp="linr"  time="-9999999/1" value="0" leadInLength="0/1"  />
              </VectorParam>
              <VectorParam id="376"  name="scale">
               <InterpolatingParam id="377" interp="linr"  time="-9999999/1" value="1" leadInLength="0/1"  />
               <InterpolatingParam id="378" interp="linr"  time="-9999999/1" value="1" leadInLength="0/1"  />
               <InterpolatingParam id="379" interp="linr"  time="-9999999/1" value="1" leadInLength="0/1"  />
              </VectorParam>
              <VectorParam id="380"  name="anchor">
               <InterpolatingParam id="381" interp="linr"  time="0/1" value="0" leadInLength="0/1"  />
               <InterpolatingParam id="382" interp="linr"  time="0/1" value="0" leadInLength="0/1"  />
               <InterpolatingParam id="383" interp="linr"  time="0/1" value="0" leadInLength="0/1"  />
              </VectorParam>
             </Transformer>
             <Parameters>
              <VectorParam id="384"  name="sourceCrop">
               <InterpolatingParam id="385" interp="linr"  time="0/1" value="0" leadInLength="0/1"  />
               <InterpolatingParam id="386" interp="linr"  time="0/1" value="0" leadInLength="0/1"  />
               <InterpolatingParam id="387" interp="linr"  time="0/1" value="0" leadInLength="0/1"  />
               <InterpolatingParam id="388" interp="linr"  time="0/1" value="0" leadInLength="0/1"  />
              </VectorParam>
              <VectorParam id="389"  name="geometryCrop">
               <InterpolatingParam id="390" interp="linr"  time="-9999999/1" value="0" leadInLength="0/1"  />
               <InterpolatingParam id="391" interp="linr"  time="-9999999/1" value="0" leadInLength="0/1"  />
               <InterpolatingParam id="392" interp="linr"  time="-9999999/1" value="0" leadInLength="0/1"  />
               <InterpolatingParam id="393" interp="linr"  time="-9999999/1" value="0" leadInLength="0/1"  />
              </VectorParam>
              <InterpolatingParam id="394" interp="linr"  time="-9999999/1" value="1" leadInLength="0/1"  name="opacity"/>
              <InterpolatingParam id="395" interp="linr"  time="0/1" value="0" leadInLength="0/1"  name="cursorOpacity"/>
              <InterpolatingParam id="396" interp="linr"  time="0/1" value="0" leadInLength="0/1"  name="cursorScale"/>
             </Parameters>
             <Attributes>
              <Attribute id="397" value="" name="ident"/>
             </Attributes>
             <ExtraData>
              <Entry key="ZoomPanBin">
               <ZoomPanBin id="398"  >
                <ZoomPanKeyframes>
                 <ZoomPanKeyframe id="399" timeRangeEnd="-9999999/1" timeRangeDuration="0/1" interpolaterName=""  />
                </ZoomPanKeyframes>
               </ZoomPanBin>
              </Entry>
              <Entry key="CursorEffectBin">
               <CursorEffectBin id="400"  >
                <CursorEffectKeyframes>
                </CursorEffectKeyframes>
               </CursorEffectBin>
              </Entry>
             </ExtraData>
            </ScreenVMFile>
            <MetaData>
             <entry key="AutoAppliedSmartFocus" val="False"/>
             <entry key="WinSubProjectDisplayName" val=""/>
            </MetaData>
           </UnifiedMedia>
           <UnifiedMedia id="401"  >
            <AMFile id="402" start="1372" duration="37" scalar="1/1" mediaStart="1563/1" mediaDuration="37/1" trackNumber="1" src="4" channelNumber="0,1" >
             <Parameters>
              <InterpolatingParam id="403" interp="linr"  time="0/1" value="1" leadInLength="0/1"  name="volume"/>
              <Parameter id="404"  name="captions"/>
             </Parameters>
             <Attributes>
              <Attribute id="405" value="" name="ident"/>
              <Attribute id="406" value="44100" name="sampleRate"/>
              <Attribute id="407" value="16" name="bitDepth"/>
              <Attribute id="408" value="1" name="gain"/>
              <Attribute id="409" value="0" name="mixToMono"/>
             </Attributes>
            </AMFile>
            <ScreenVMFile id="410" start="1372" duration="37" scalar="1/1" mediaStart="1563/1" mediaDuration="37/1" trackNumber="0" src="4" >
             <Transformer>
              <VectorParam id="411"  name="translation">
               <InterpolatingParam id="412" interp="linr"  time="-9999999/1" value="0" leadInLength="0/1"  />
               <InterpolatingParam id="413" interp="linr"  time="-9999999/1" value="0" leadInLength="0/1"  />
               <InterpolatingParam id="414" interp="linr"  time="-9999999/1" value="0" leadInLength="0/1"  />
              </VectorParam>
              <VectorParam id="415"  name="rotation">
               <InterpolatingParam id="416" interp="linr"  time="-9999999/1" value="0" leadInLength="0/1"  />
               <InterpolatingParam id="417" interp="linr"  time="-9999999/1" value="0" leadInLength="0/1"  />
               <InterpolatingParam id="418" interp="linr"  time="-9999999/1" value="0" leadInLength="0/1"  />
              </VectorParam>
              <VectorParam id="419"  name="shear">
               <InterpolatingParam id="420" interp="linr"  time="-9999999/1" value="0" leadInLength="0/1"  />
               <InterpolatingParam id="421" interp="linr"  time="-9999999/1" value="0" leadInLength="0/1"  />
               <InterpolatingParam id="422" interp="linr"  time="-9999999/1" value="0" leadInLength="0/1"  />
              </VectorParam>
              <VectorParam id="423"  name="scale">
               <InterpolatingParam id="424" interp="linr"  time="-9999999/1" value="1" leadInLength="0/1"  />
               <InterpolatingParam id="425" interp="linr"  time="-9999999/1" value="1" leadInLength="0/1"  />
               <InterpolatingParam id="426" interp="linr"  time="-9999999/1" value="1" leadInLength="0/1"  />
              </VectorParam>
              <VectorParam id="427"  name="anchor">
               <InterpolatingParam id="428" interp="linr"  time="0/1" value="0" leadInLength="0/1"  />
               <InterpolatingParam id="429" interp="linr"  time="0/1" value="0" leadInLength="0/1"  />
               <InterpolatingParam id="430" interp="linr"  time="0/1" value="0" leadInLength="0/1"  />
              </VectorParam>
             </Transformer>
             <Parameters>
              <VectorParam id="431"  name="sourceCrop">
               <InterpolatingParam id="432" interp="linr"  time="0/1" value="0" leadInLength="0/1"  />
               <InterpolatingParam id="433" interp="linr"  time="0/1" value="0" leadInLength="0/1"  />
               <InterpolatingParam id="434" interp="linr"  time="0/1" value="0" leadInLength="0/1"  />
               <InterpolatingParam id="435" interp="linr"  time="0/1" value="0" leadInLength="0/1"  />
              </VectorParam>
              <VectorParam id="436"  name="geometryCrop">
               <InterpolatingParam id="437" interp="linr"  time="-9999999/1" value="0" leadInLength="0/1"  />
               <InterpolatingParam id="438" interp="linr"  time="-9999999/1" value="0" leadInLength="0/1"  />
               <InterpolatingParam id="439" interp="linr"  time="-9999999/1" value="0" leadInLength="0/1"  />
               <InterpolatingParam id="440" interp="linr"  time="-9999999/1" value="0" leadInLength="0/1"  />
              </VectorParam>
              <InterpolatingParam id="441" interp="linr"  time="-9999999/1" value="1" leadInLength="0/1"  name="opacity"/>
              <InterpolatingParam id="442" interp="linr"  time="0/1" value="0" leadInLength="0/1"  name="cursorOpacity"/>
              <InterpolatingParam id="443" interp="linr"  time="0/1" value="0" leadInLength="0/1"  name="cursorScale"/>
             </Parameters>
             <Attributes>
              <Attribute id="444" value="" name="ident"/>
             </Attributes>
             <ExtraData>
              <Entry key="ZoomPanBin">
               <ZoomPanBin id="445"  >
                <ZoomPanKeyframes>
                 <ZoomPanKeyframe id="446" timeRangeEnd="-9999999/1" timeRangeDuration="0/1" interpolaterName=""  />
                </ZoomPanKeyframes>
               </ZoomPanBin>
              </Entry>
              <Entry key="CursorEffectBin">
               <CursorEffectBin id="447"  >
                <CursorEffectKeyframes>
                </CursorEffectKeyframes>
               </CursorEffectBin>
              </Entry>
             </ExtraData>
            </ScreenVMFile>
            <MetaData>
             <entry key="AutoAppliedSmartFocus" val="False"/>
             <entry key="WinSubProjectDisplayName" val=""/>
            </MetaData>
           </UnifiedMedia>
           <UnifiedMedia id="448"  >
            <AMFile id="449" start="1409" duration="85" scalar="1/1" mediaStart="1610/1" mediaDuration="85/1" trackNumber="1" src="4" channelNumber="0,1" >
             <Parameters>
              <InterpolatingParam id="450" interp="linr"  time="0/1" value="1" leadInLength="0/1"  name="volume"/>
              <Parameter id="451"  name="captions"/>
             </Parameters>
             <Attributes>
              <Attribute id="452" value="" name="ident"/>
              <Attribute id="453" value="44100" name="sampleRate"/>
              <Attribute id="454" value="16" name="bitDepth"/>
              <Attribute id="455" value="1" name="gain"/>
              <Attribute id="456" value="0" name="mixToMono"/>
             </Attributes>
            </AMFile>
            <ScreenVMFile id="457" start="1409" duration="85" scalar="1/1" mediaStart="1610/1" mediaDuration="85/1" trackNumber="0" src="4" >
             <Transformer>
              <VectorParam id="458"  name="translation">
               <InterpolatingParam id="459" interp="linr"  time="-9999999/1" value="0" leadInLength="0/1"  />
               <InterpolatingParam id="460" interp="linr"  time="-9999999/1" value="0" leadInLength="0/1"  />
               <InterpolatingParam id="461" interp="linr"  time="-9999999/1" value="0" leadInLength="0/1"  />
              </VectorParam>
              <VectorParam id="462"  name="rotation">
               <InterpolatingParam id="463" interp="linr"  time="-9999999/1" value="0" leadInLength="0/1"  />
               <InterpolatingParam id="464" interp="linr"  time="-9999999/1" value="0" leadInLength="0/1"  />
               <InterpolatingParam id="465" interp="linr"  time="-9999999/1" value="0" leadInLength="0/1"  />
              </VectorParam>
              <VectorParam id="466"  name="shear">
               <InterpolatingParam id="467" interp="linr"  time="-9999999/1" value="0" leadInLength="0/1"  />
               <InterpolatingParam id="468" interp="linr"  time="-9999999/1" value="0" leadInLength="0/1"  />
               <InterpolatingParam id="469" interp="linr"  time="-9999999/1" value="0" leadInLength="0/1"  />
              </VectorParam>
              <VectorParam id="470"  name="scale">
               <InterpolatingParam id="471" interp="linr"  time="-9999999/1" value="1" leadInLength="0/1"  />
               <InterpolatingParam id="472" interp="linr"  time="-9999999/1" value="1" leadInLength="0/1"  />
               <InterpolatingParam id="473" interp="linr"  time="-9999999/1" value="1" leadInLength="0/1"  />
              </VectorParam>
              <VectorParam id="474"  name="anchor">
               <InterpolatingParam id="475" interp="linr"  time="0/1" value="0" leadInLength="0/1"  />
               <InterpolatingParam id="476" interp="linr"  time="0/1" value="0" leadInLength="0/1"  />
               <InterpolatingParam id="477" interp="linr"  time="0/1" value="0" leadInLength="0/1"  />
              </VectorParam>
             </Transformer>
             <Parameters>
              <VectorParam id="478"  name="sourceCrop">
               <InterpolatingParam id="479" interp="linr"  time="0/1" value="0" leadInLength="0/1"  />
               <InterpolatingParam id="480" interp="linr"  time="0/1" value="0" leadInLength="0/1"  />
               <InterpolatingParam id="481" interp="linr"  time="0/1" value="0" leadInLength="0/1"  />
               <InterpolatingParam id="482" interp="linr"  time="0/1" value="0" leadInLength="0/1"  />
              </VectorParam>
              <VectorParam id="483"  name="geometryCrop">
               <InterpolatingParam id="484" interp="linr"  time="-9999999/1" value="0" leadInLength="0/1"  />
               <InterpolatingParam id="485" interp="linr"  time="-9999999/1" value="0" leadInLength="0/1"  />
               <InterpolatingParam id="486" interp="linr"  time="-9999999/1" value="0" leadInLength="0/1"  />
               <InterpolatingParam id="487" interp="linr"  time="-9999999/1" value="0" leadInLength="0/1"  />
              </VectorParam>
              <InterpolatingParam id="488" interp="linr"  time="-9999999/1" value="1" leadInLength="0/1"  name="opacity"/>
              <InterpolatingParam id="489" interp="linr"  time="0/1" value="0" leadInLength="0/1"  name="cursorOpacity"/>
              <InterpolatingParam id="490" interp="linr"  time="0/1" value="0" leadInLength="0/1"  name="cursorScale"/>
             </Parameters>
             <Attributes>
              <Attribute id="491" value="" name="ident"/>
             </Attributes>
             <ExtraData>
              <Entry key="ZoomPanBin">
               <ZoomPanBin id="492"  >
                <ZoomPanKeyframes>
                 <ZoomPanKeyframe id="493" timeRangeEnd="-9999999/1" timeRangeDuration="0/1" interpolaterName=""  />
                </ZoomPanKeyframes>
               </ZoomPanBin>
              </Entry>
              <Entry key="CursorEffectBin">
               <CursorEffectBin id="494"  >
                <CursorEffectKeyframes>
                </CursorEffectKeyframes>
               </CursorEffectBin>
              </Entry>
             </ExtraData>
            </ScreenVMFile>
            <MetaData>
             <entry key="AutoAppliedSmartFocus" val="False"/>
             <entry key="WinSubProjectDisplayName" val=""/>
            </MetaData>
           </UnifiedMedia>
           <UnifiedMedia id="495"  >
            <AMFile id="496" start="1494" duration="93" scalar="1/1" mediaStart="1708/1" mediaDuration="93/1" trackNumber="1" src="4" channelNumber="0,1" >
             <Parameters>
              <InterpolatingParam id="497" interp="linr"  time="0/1" value="1" leadInLength="0/1"  name="volume"/>
              <Parameter id="498"  name="captions"/>
             </Parameters>
             <Attributes>
              <Attribute id="499" value="" name="ident"/>
              <Attribute id="500" value="44100" name="sampleRate"/>
              <Attribute id="501" value="16" name="bitDepth"/>
              <Attribute id="502" value="1" name="gain"/>
              <Attribute id="503" value="0" name="mixToMono"/>
             </Attributes>
            </AMFile>
            <ScreenVMFile id="504" start="1494" duration="93" scalar="1/1" mediaStart="1708/1" mediaDuration="93/1" trackNumber="0" src="4" >
             <Transformer>
              <VectorParam id="505"  name="translation">
               <InterpolatingParam id="506" interp="linr"  time="-9999999/1" value="0" leadInLength="0/1"  />
               <InterpolatingParam id="507" interp="linr"  time="-9999999/1" value="0" leadInLength="0/1"  />
               <InterpolatingParam id="508" interp="linr"  time="-9999999/1" value="0" leadInLength="0/1"  />
              </VectorParam>
              <VectorParam id="509"  name="rotation">
               <InterpolatingParam id="510" interp="linr"  time="-9999999/1" value="0" leadInLength="0/1"  />
               <InterpolatingParam id="511" interp="linr"  time="-9999999/1" value="0" leadInLength="0/1"  />
               <InterpolatingParam id="512" interp="linr"  time="-9999999/1" value="0" leadInLength="0/1"  />
              </VectorParam>
              <VectorParam id="513"  name="shear">
               <InterpolatingParam id="514" interp="linr"  time="-9999999/1" value="0" leadInLength="0/1"  />
               <InterpolatingParam id="515" interp="linr"  time="-9999999/1" value="0" leadInLength="0/1"  />
               <InterpolatingParam id="516" interp="linr"  time="-9999999/1" value="0" leadInLength="0/1"  />
              </VectorParam>
              <VectorParam id="517"  name="scale">
               <InterpolatingParam id="518" interp="linr"  time="-9999999/1" value="1" leadInLength="0/1"  />
               <InterpolatingParam id="519" interp="linr"  time="-9999999/1" value="1" leadInLength="0/1"  />
               <InterpolatingParam id="520" interp="linr"  time="-9999999/1" value="1" leadInLength="0/1"  />
              </VectorParam>
              <VectorParam id="521"  name="anchor">
               <InterpolatingParam id="522" interp="linr"  time="0/1" value="0" leadInLength="0/1"  />
               <InterpolatingParam id="523" interp="linr"  time="0/1" value="0" leadInLength="0/1"  />
               <InterpolatingParam id="524" interp="linr"  time="0/1" value="0" leadInLength="0/1"  />
              </VectorParam>
             </Transformer>
             <Parameters>
              <VectorParam id="525"  name="sourceCrop">
               <InterpolatingParam id="526" interp="linr"  time="0/1" value="0" leadInLength="0/1"  />
               <InterpolatingParam id="527" interp="linr"  time="0/1" value="0" leadInLength="0/1"  />
               <InterpolatingParam id="528" interp="linr"  time="0/1" value="0" leadInLength="0/1"  />
               <InterpolatingParam id="529" interp="linr"  time="0/1" value="0" leadInLength="0/1"  />
              </VectorParam>
              <VectorParam id="530"  name="geometryCrop">
               <InterpolatingParam id="531" interp="linr"  time="-9999999/1" value="0" leadInLength="0/1"  />
               <InterpolatingParam id="532" interp="linr"  time="-9999999/1" value="0" leadInLength="0/1"  />
               <InterpolatingParam id="533" interp="linr"  time="-9999999/1" value="0" leadInLength="0/1"  />
               <InterpolatingParam id="534" interp="linr"  time="-9999999/1" value="0" leadInLength="0/1"  />
              </VectorParam>
              <InterpolatingParam id="535" interp="linr"  time="-9999999/1" value="1" leadInLength="0/1"  name="opacity"/>
              <InterpolatingParam id="536" interp="linr"  time="0/1" value="0" leadInLength="0/1"  name="cursorOpacity"/>
              <InterpolatingParam id="537" interp="linr"  time="0/1" value="0" leadInLength="0/1"  name="cursorScale"/>
             </Parameters>
             <Attributes>
              <Attribute id="538" value="" name="ident"/>
             </Attributes>
             <ExtraData>
              <Entry key="ZoomPanBin">
               <ZoomPanBin id="539"  >
                <ZoomPanKeyframes>
                 <ZoomPanKeyframe id="540" timeRangeEnd="-9999999/1" timeRangeDuration="0/1" interpolaterName=""  />
                </ZoomPanKeyframes>
               </ZoomPanBin>
              </Entry>
              <Entry key="CursorEffectBin">
               <CursorEffectBin id="541"  >
                <CursorEffectKeyframes>
                </CursorEffectKeyframes>
               </CursorEffectBin>
              </Entry>
             </ExtraData>
            </ScreenVMFile>
            <MetaData>
             <entry key="AutoAppliedSmartFocus" val="False"/>
             <entry key="WinSubProjectDisplayName" val=""/>
            </MetaData>
           </UnifiedMedia>
           <UnifiedMedia id="542"  >
            <AMFile id="543" start="1587" duration="42" scalar="1/1" mediaStart="1914/1" mediaDuration="42/1" trackNumber="1" src="4" channelNumber="0,1" >
             <Parameters>
              <InterpolatingParam id="544" interp="linr"  time="0/1" value="1" leadInLength="0/1"  name="volume"/>
              <Parameter id="545"  name="captions"/>
             </Parameters>
             <Attributes>
              <Attribute id="546" value="" name="ident"/>
              <Attribute id="547" value="44100" name="sampleRate"/>
              <Attribute id="548" value="16" name="bitDepth"/>
              <Attribute id="549" value="1" name="gain"/>
              <Attribute id="550" value="0" name="mixToMono"/>
             </Attributes>
            </AMFile>
            <ScreenVMFile id="551" start="1587" duration="42" scalar="1/1" mediaStart="1914/1" mediaDuration="42/1" trackNumber="0" src="4" >
             <Transformer>
              <VectorParam id="552"  name="translation">
               <InterpolatingParam id="553" interp="linr"  time="-9999999/1" value="0" leadInLength="0/1"  />
               <InterpolatingParam id="554" interp="linr"  time="-9999999/1" value="0" leadInLength="0/1"  />
               <InterpolatingParam id="555" interp="linr"  time="-9999999/1" value="0" leadInLength="0/1"  />
              </VectorParam>
              <VectorParam id="556"  name="rotation">
               <InterpolatingParam id="557" interp="linr"  time="-9999999/1" value="0" leadInLength="0/1"  />
               <InterpolatingParam id="558" interp="linr"  time="-9999999/1" value="0" leadInLength="0/1"  />
               <InterpolatingParam id="559" interp="linr"  time="-9999999/1" value="0" leadInLength="0/1"  />
              </VectorParam>
              <VectorParam id="560"  name="shear">
               <InterpolatingParam id="561" interp="linr"  time="-9999999/1" value="0" leadInLength="0/1"  />
               <InterpolatingParam id="562" interp="linr"  time="-9999999/1" value="0" leadInLength="0/1"  />
               <InterpolatingParam id="563" interp="linr"  time="-9999999/1" value="0" leadInLength="0/1"  />
              </VectorParam>
              <VectorParam id="564"  name="scale">
               <InterpolatingParam id="565" interp="linr"  time="-9999999/1" value="1" leadInLength="0/1"  />
               <InterpolatingParam id="566" interp="linr"  time="-9999999/1" value="1" leadInLength="0/1"  />
               <InterpolatingParam id="567" interp="linr"  time="-9999999/1" value="1" leadInLength="0/1"  />
              </VectorParam>
              <VectorParam id="568"  name="anchor">
               <InterpolatingParam id="569" interp="linr"  time="0/1" value="0" leadInLength="0/1"  />
               <InterpolatingParam id="570" interp="linr"  time="0/1" value="0" leadInLength="0/1"  />
               <InterpolatingParam id="571" interp="linr"  time="0/1" value="0" leadInLength="0/1"  />
              </VectorParam>
             </Transformer>
             <Parameters>
              <VectorParam id="572"  name="sourceCrop">
               <InterpolatingParam id="573" interp="linr"  time="0/1" value="0" leadInLength="0/1"  />
               <InterpolatingParam id="574" interp="linr"  time="0/1" value="0" leadInLength="0/1"  />
               <InterpolatingParam id="575" interp="linr"  time="0/1" value="0" leadInLength="0/1"  />
               <InterpolatingParam id="576" interp="linr"  time="0/1" value="0" leadInLength="0/1"  />
              </VectorParam>
              <VectorParam id="577"  name="geometryCrop">
               <InterpolatingParam id="578" interp="linr"  time="-9999999/1" value="0" leadInLength="0/1"  />
               <InterpolatingParam id="579" interp="linr"  time="-9999999/1" value="0" leadInLength="0/1"  />
               <InterpolatingParam id="580" interp="linr"  time="-9999999/1" value="0" leadInLength="0/1"  />
               <InterpolatingParam id="581" interp="linr"  time="-9999999/1" value="0" leadInLength="0/1"  />
              </VectorParam>
              <InterpolatingParam id="582" interp="linr"  time="-9999999/1" value="1" leadInLength="0/1"  name="opacity"/>
              <InterpolatingParam id="583" interp="linr"  time="0/1" value="0" leadInLength="0/1"  name="cursorOpacity"/>
              <InterpolatingParam id="584" interp="linr"  time="0/1" value="0" leadInLength="0/1"  name="cursorScale"/>
             </Parameters>
             <Attributes>
              <Attribute id="585" value="" name="ident"/>
             </Attributes>
             <ExtraData>
              <Entry key="ZoomPanBin">
               <ZoomPanBin id="586"  >
                <ZoomPanKeyframes>
                 <ZoomPanKeyframe id="587" timeRangeEnd="-9999999/1" timeRangeDuration="0/1" interpolaterName=""  />
                </ZoomPanKeyframes>
               </ZoomPanBin>
              </Entry>
              <Entry key="CursorEffectBin">
               <CursorEffectBin id="588"  >
                <CursorEffectKeyframes>
                </CursorEffectKeyframes>
               </CursorEffectBin>
              </Entry>
             </ExtraData>
            </ScreenVMFile>
            <MetaData>
             <entry key="AutoAppliedSmartFocus" val="False"/>
             <entry key="WinSubProjectDisplayName" val=""/>
            </MetaData>
           </UnifiedMedia>
           <UnifiedMedia id="589"  >
            <AMFile id="590" start="1629" duration="45" scalar="1/1" mediaStart="1964/1" mediaDuration="45/1" trackNumber="1" src="4" channelNumber="0,1" >
             <Parameters>
              <InterpolatingParam id="591" interp="linr"  time="0/1" value="1" leadInLength="0/1"  name="volume"/>
              <Parameter id="592"  name="captions"/>
             </Parameters>
             <Attributes>
              <Attribute id="593" value="" name="ident"/>
              <Attribute id="594" value="44100" name="sampleRate"/>
              <Attribute id="595" value="16" name="bitDepth"/>
              <Attribute id="596" value="1" name="gain"/>
              <Attribute id="597" value="0" name="mixToMono"/>
             </Attributes>
            </AMFile>
            <ScreenVMFile id="598" start="1629" duration="45" scalar="1/1" mediaStart="1964/1" mediaDuration="45/1" trackNumber="0" src="4" >
             <Transformer>
              <VectorParam id="599"  name="translation">
               <InterpolatingParam id="600" interp="linr"  time="-9999999/1" value="0" leadInLength="0/1"  />
               <InterpolatingParam id="601" interp="linr"  time="-9999999/1" value="0" leadInLength="0/1"  />
               <InterpolatingParam id="602" interp="linr"  time="-9999999/1" value="0" leadInLength="0/1"  />
              </VectorParam>
              <VectorParam id="603"  name="rotation">
               <InterpolatingParam id="604" interp="linr"  time="-9999999/1" value="0" leadInLength="0/1"  />
               <InterpolatingParam id="605" interp="linr"  time="-9999999/1" value="0" leadInLength="0/1"  />
               <InterpolatingParam id="606" interp="linr"  time="-9999999/1" value="0" leadInLength="0/1"  />
              </VectorParam>
              <VectorParam id="607"  name="shear">
               <InterpolatingParam id="608" interp="linr"  time="-9999999/1" value="0" leadInLength="0/1"  />
               <InterpolatingParam id="609" interp="linr"  time="-9999999/1" value="0" leadInLength="0/1"  />
               <InterpolatingParam id="610" interp="linr"  time="-9999999/1" value="0" leadInLength="0/1"  />
              </VectorParam>
              <VectorParam id="611"  name="scale">
               <InterpolatingParam id="612" interp="linr"  time="-9999999/1" value="1" leadInLength="0/1"  />
               <InterpolatingParam id="613" interp="linr"  time="-9999999/1" value="1" leadInLength="0/1"  />
               <InterpolatingParam id="614" interp="linr"  time="-9999999/1" value="1" leadInLength="0/1"  />
              </VectorParam>
              <VectorParam id="615"  name="anchor">
               <InterpolatingParam id="616" interp="linr"  time="0/1" value="0" leadInLength="0/1"  />
               <InterpolatingParam id="617" interp="linr"  time="0/1" value="0" leadInLength="0/1"  />
               <InterpolatingParam id="618" interp="linr"  time="0/1" value="0" leadInLength="0/1"  />
              </VectorParam>
             </Transformer>
             <Parameters>
              <VectorParam id="619"  name="sourceCrop">
               <InterpolatingParam id="620" interp="linr"  time="0/1" value="0" leadInLength="0/1"  />
               <InterpolatingParam id="621" interp="linr"  time="0/1" value="0" leadInLength="0/1"  />
               <InterpolatingParam id="622" interp="linr"  time="0/1" value="0" leadInLength="0/1"  />
               <InterpolatingParam id="623" interp="linr"  time="0/1" value="0" leadInLength="0/1"  />
              </VectorParam>
              <VectorParam id="624"  name="geometryCrop">
               <InterpolatingParam id="625" interp="linr"  time="-9999999/1" value="0" leadInLength="0/1"  />
               <InterpolatingParam id="626" interp="linr"  time="-9999999/1" value="0" leadInLength="0/1"  />
               <InterpolatingParam id="627" interp="linr"  time="-9999999/1" value="0" leadInLength="0/1"  />
               <InterpolatingParam id="628" interp="linr"  time="-9999999/1" value="0" leadInLength="0/1"  />
              </VectorParam>
              <InterpolatingParam id="629" interp="linr"  time="-9999999/1" value="1" leadInLength="0/1"  name="opacity"/>
              <InterpolatingParam id="630" interp="linr"  time="0/1" value="0" leadInLength="0/1"  name="cursorOpacity"/>
              <InterpolatingParam id="631" interp="linr"  time="0/1" value="0" leadInLength="0/1"  name="cursorScale"/>
             </Parameters>
             <Attributes>
              <Attribute id="632" value="" name="ident"/>
             </Attributes>
             <ExtraData>
              <Entry key="ZoomPanBin">
               <ZoomPanBin id="633"  >
                <ZoomPanKeyframes>
                 <ZoomPanKeyframe id="634" timeRangeEnd="-9999999/1" timeRangeDuration="0/1" interpolaterName=""  />
                </ZoomPanKeyframes>
               </ZoomPanBin>
              </Entry>
              <Entry key="CursorEffectBin">
               <CursorEffectBin id="635"  >
                <CursorEffectKeyframes>
                </CursorEffectKeyframes>
               </CursorEffectBin>
              </Entry>
             </ExtraData>
            </ScreenVMFile>
            <MetaData>
             <entry key="AutoAppliedSmartFocus" val="False"/>
             <entry key="WinSubProjectDisplayName" val=""/>
            </MetaData>
           </UnifiedMedia>
           <UnifiedMedia id="636"  >
            <AMFile id="637" start="1674" duration="66" scalar="1/1" mediaStart="2021/1" mediaDuration="66/1" trackNumber="1" src="4" channelNumber="0,1" >
             <Parameters>
              <InterpolatingParam id="638" interp="linr"  time="0/1" value="1" leadInLength="0/1"  name="volume"/>
              <Parameter id="639"  name="captions"/>
             </Parameters>
             <Attributes>
              <Attribute id="640" value="" name="ident"/>
              <Attribute id="641" value="44100" name="sampleRate"/>
              <Attribute id="642" value="16" name="bitDepth"/>
              <Attribute id="643" value="1" name="gain"/>
              <Attribute id="644" value="0" name="mixToMono"/>
             </Attributes>
            </AMFile>
            <ScreenVMFile id="645" start="1674" duration="66" scalar="1/1" mediaStart="2021/1" mediaDuration="66/1" trackNumber="0" src="4" >
             <Transformer>
              <VectorParam id="646"  name="translation">
               <InterpolatingParam id="647" interp="linr"  time="-9999999/1" value="0" leadInLength="0/1"  />
               <InterpolatingParam id="648" interp="linr"  time="-9999999/1" value="0" leadInLength="0/1"  />
               <InterpolatingParam id="649" interp="linr"  time="-9999999/1" value="0" leadInLength="0/1"  />
              </VectorParam>
              <VectorParam id="650"  name="rotation">
               <InterpolatingParam id="651" interp="linr"  time="-9999999/1" value="0" leadInLength="0/1"  />
               <InterpolatingParam id="652" interp="linr"  time="-9999999/1" value="0" leadInLength="0/1"  />
               <InterpolatingParam id="653" interp="linr"  time="-9999999/1" value="0" leadInLength="0/1"  />
              </VectorParam>
              <VectorParam id="654"  name="shear">
               <InterpolatingParam id="655" interp="linr"  time="-9999999/1" value="0" leadInLength="0/1"  />
               <InterpolatingParam id="656" interp="linr"  time="-9999999/1" value="0" leadInLength="0/1"  />
               <InterpolatingParam id="657" interp="linr"  time="-9999999/1" value="0" leadInLength="0/1"  />
              </VectorParam>
              <VectorParam id="658"  name="scale">
               <InterpolatingParam id="659" interp="linr"  time="-9999999/1" value="1" leadInLength="0/1"  />
               <InterpolatingParam id="660" interp="linr"  time="-9999999/1" value="1" leadInLength="0/1"  />
               <InterpolatingParam id="661" interp="linr"  time="-9999999/1" value="1" leadInLength="0/1"  />
              </VectorParam>
              <VectorParam id="662"  name="anchor">
               <InterpolatingParam id="663" interp="linr"  time="0/1" value="0" leadInLength="0/1"  />
               <InterpolatingParam id="664" interp="linr"  time="0/1" value="0" leadInLength="0/1"  />
               <InterpolatingParam id="665" interp="linr"  time="0/1" value="0" leadInLength="0/1"  />
              </VectorParam>
             </Transformer>
             <Parameters>
              <VectorParam id="666"  name="sourceCrop">
               <InterpolatingParam id="667" interp="linr"  time="0/1" value="0" leadInLength="0/1"  />
               <InterpolatingParam id="668" interp="linr"  time="0/1" value="0" leadInLength="0/1"  />
               <InterpolatingParam id="669" interp="linr"  time="0/1" value="0" leadInLength="0/1"  />
               <InterpolatingParam id="670" interp="linr"  time="0/1" value="0" leadInLength="0/1"  />
              </VectorParam>
              <VectorParam id="671"  name="geometryCrop">
               <InterpolatingParam id="672" interp="linr"  time="-9999999/1" value="0" leadInLength="0/1"  />
               <InterpolatingParam id="673" interp="linr"  time="-9999999/1" value="0" leadInLength="0/1"  />
               <InterpolatingParam id="674" interp="linr"  time="-9999999/1" value="0" leadInLength="0/1"  />
               <InterpolatingParam id="675" interp="linr"  time="-9999999/1" value="0" leadInLength="0/1"  />
              </VectorParam>
              <InterpolatingParam id="676" interp="linr"  time="-9999999/1" value="1" leadInLength="0/1"  name="opacity"/>
              <InterpolatingParam id="677" interp="linr"  time="0/1" value="0" leadInLength="0/1"  name="cursorOpacity"/>
              <InterpolatingParam id="678" interp="linr"  time="0/1" value="0" leadInLength="0/1"  name="cursorScale"/>
             </Parameters>
             <Attributes>
              <Attribute id="679" value="" name="ident"/>
             </Attributes>
             <ExtraData>
              <Entry key="ZoomPanBin">
               <ZoomPanBin id="680"  >
                <ZoomPanKeyframes>
                 <ZoomPanKeyframe id="681" timeRangeEnd="-9999999/1" timeRangeDuration="0/1" interpolaterName=""  />
                </ZoomPanKeyframes>
               </ZoomPanBin>
              </Entry>
              <Entry key="CursorEffectBin">
               <CursorEffectBin id="682"  >
                <CursorEffectKeyframes>
                </CursorEffectKeyframes>
               </CursorEffectBin>
              </Entry>
             </ExtraData>
            </ScreenVMFile>
            <MetaData>
             <entry key="AutoAppliedSmartFocus" val="False"/>
             <entry key="WinSubProjectDisplayName" val=""/>
            </MetaData>
           </UnifiedMedia>
           <UnifiedMedia id="683"  >
            <AMFile id="684" start="1740" duration="60" scalar="1/1" mediaStart="2327/1" mediaDuration="60/1" trackNumber="1" src="4" channelNumber="0,1" >
             <Parameters>
              <InterpolatingParam id="685" interp="linr"  time="0/1" value="1" leadInLength="0/1"  name="volume"/>
              <Parameter id="686"  name="captions"/>
             </Parameters>
             <Attributes>
              <Attribute id="687" value="" name="ident"/>
              <Attribute id="688" value="44100" name="sampleRate"/>
              <Attribute id="689" value="16" name="bitDepth"/>
              <Attribute id="690" value="1" name="gain"/>
              <Attribute id="691" value="0" name="mixToMono"/>
             </Attributes>
            </AMFile>
            <ScreenVMFile id="692" start="1740" duration="60" scalar="1/1" mediaStart="2327/1" mediaDuration="60/1" trackNumber="0" src="4" >
             <Transformer>
              <VectorParam id="693"  name="translation">
               <InterpolatingParam id="694" interp="linr"  time="-9999999/1" value="0" leadInLength="0/1"  />
               <InterpolatingParam id="695" interp="linr"  time="-9999999/1" value="0" leadInLength="0/1"  />
               <InterpolatingParam id="696" interp="linr"  time="-9999999/1" value="0" leadInLength="0/1"  />
              </VectorParam>
              <VectorParam id="697"  name="rotation">
               <InterpolatingParam id="698" interp="linr"  time="-9999999/1" value="0" leadInLength="0/1"  />
               <InterpolatingParam id="699" interp="linr"  time="-9999999/1" value="0" leadInLength="0/1"  />
               <InterpolatingParam id="700" interp="linr"  time="-9999999/1" value="0" leadInLength="0/1"  />
              </VectorParam>
              <VectorParam id="701"  name="shear">
               <InterpolatingParam id="702" interp="linr"  time="-9999999/1" value="0" leadInLength="0/1"  />
               <InterpolatingParam id="703" interp="linr"  time="-9999999/1" value="0" leadInLength="0/1"  />
               <InterpolatingParam id="704" interp="linr"  time="-9999999/1" value="0" leadInLength="0/1"  />
              </VectorParam>
              <VectorParam id="705"  name="scale">
               <InterpolatingParam id="706" interp="linr"  time="-9999999/1" value="1" leadInLength="0/1"  />
               <InterpolatingParam id="707" interp="linr"  time="-9999999/1" value="1" leadInLength="0/1"  />
               <InterpolatingParam id="708" interp="linr"  time="-9999999/1" value="1" leadInLength="0/1"  />
              </VectorParam>
              <VectorParam id="709"  name="anchor">
               <InterpolatingParam id="710" interp="linr"  time="0/1" value="0" leadInLength="0/1"  />
               <InterpolatingParam id="711" interp="linr"  time="0/1" value="0" leadInLength="0/1"  />
               <InterpolatingParam id="712" interp="linr"  time="0/1" value="0" leadInLength="0/1"  />
              </VectorParam>
             </Transformer>
             <Parameters>
              <VectorParam id="713"  name="sourceCrop">
               <InterpolatingParam id="714" interp="linr"  time="0/1" value="0" leadInLength="0/1"  />
               <InterpolatingParam id="715" interp="linr"  time="0/1" value="0" leadInLength="0/1"  />
               <InterpolatingParam id="716" interp="linr"  time="0/1" value="0" leadInLength="0/1"  />
               <InterpolatingParam id="717" interp="linr"  time="0/1" value="0" leadInLength="0/1"  />
              </VectorParam>
              <VectorParam id="718"  name="geometryCrop">
               <InterpolatingParam id="719" interp="linr"  time="-9999999/1" value="0" leadInLength="0/1"  />
               <InterpolatingParam id="720" interp="linr"  time="-9999999/1" value="0" leadInLength="0/1"  />
               <InterpolatingParam id="721" interp="linr"  time="-9999999/1" value="0" leadInLength="0/1"  />
               <InterpolatingParam id="722" interp="linr"  time="-9999999/1" value="0" leadInLength="0/1"  />
              </VectorParam>
              <InterpolatingParam id="723" interp="linr"  time="-9999999/1" value="1" leadInLength="0/1"  name="opacity"/>
              <InterpolatingParam id="724" interp="linr"  time="0/1" value="0" leadInLength="0/1"  name="cursorOpacity"/>
              <InterpolatingParam id="725" interp="linr"  time="0/1" value="0" leadInLength="0/1"  name="cursorScale"/>
             </Parameters>
             <Attributes>
              <Attribute id="726" value="" name="ident"/>
             </Attributes>
             <ExtraData>
              <Entry key="ZoomPanBin">
               <ZoomPanBin id="727"  >
                <ZoomPanKeyframes>
                 <ZoomPanKeyframe id="728" timeRangeEnd="-9999999/1" timeRangeDuration="0/1" interpolaterName=""  />
                </ZoomPanKeyframes>
               </ZoomPanBin>
              </Entry>
              <Entry key="CursorEffectBin">
               <CursorEffectBin id="729"  >
                <CursorEffectKeyframes>
                </CursorEffectKeyframes>
               </CursorEffectBin>
              </Entry>
             </ExtraData>
            </ScreenVMFile>
            <MetaData>
             <entry key="AutoAppliedSmartFocus" val="False"/>
             <entry key="WinSubProjectDisplayName" val=""/>
            </MetaData>
           </UnifiedMedia>
           <UnifiedMedia id="730"  >
            <AMFile id="731" start="1800" duration="49" scalar="1/1" mediaStart="2393/1" mediaDuration="49/1" trackNumber="1" src="4" channelNumber="0,1" >
             <Parameters>
              <InterpolatingParam id="732" interp="linr"  time="0/1" value="1" leadInLength="0/1"  name="volume"/>
              <Parameter id="733"  name="captions"/>
             </Parameters>
             <Attributes>
              <Attribute id="734" value="" name="ident"/>
              <Attribute id="735" value="44100" name="sampleRate"/>
              <Attribute id="736" value="16" name="bitDepth"/>
              <Attribute id="737" value="1" name="gain"/>
              <Attribute id="738" value="0" name="mixToMono"/>
             </Attributes>
            </AMFile>
            <ScreenVMFile id="739" start="1800" duration="49" scalar="1/1" mediaStart="2393/1" mediaDuration="49/1" trackNumber="0" src="4" >
             <Transformer>
              <VectorParam id="740"  name="translation">
               <InterpolatingParam id="741" interp="linr"  time="-9999999/1" value="0" leadInLength="0/1"  />
               <InterpolatingParam id="742" interp="linr"  time="-9999999/1" value="0" leadInLength="0/1"  />
               <InterpolatingParam id="743" interp="linr"  time="-9999999/1" value="0" leadInLength="0/1"  />
              </VectorParam>
              <VectorParam id="744"  name="rotation">
               <InterpolatingParam id="745" interp="linr"  time="-9999999/1" value="0" leadInLength="0/1"  />
               <InterpolatingParam id="746" interp="linr"  time="-9999999/1" value="0" leadInLength="0/1"  />
               <InterpolatingParam id="747" interp="linr"  time="-9999999/1" value="0" leadInLength="0/1"  />
              </VectorParam>
              <VectorParam id="748"  name="shear">
               <InterpolatingParam id="749" interp="linr"  time="-9999999/1" value="0" leadInLength="0/1"  />
               <InterpolatingParam id="750" interp="linr"  time="-9999999/1" value="0" leadInLength="0/1"  />
               <InterpolatingParam id="751" interp="linr"  time="-9999999/1" value="0" leadInLength="0/1"  />
              </VectorParam>
              <VectorParam id="752"  name="scale">
               <InterpolatingParam id="753" interp="linr"  time="-9999999/1" value="1" leadInLength="0/1"  />
               <InterpolatingParam id="754" interp="linr"  time="-9999999/1" value="1" leadInLength="0/1"  />
               <InterpolatingParam id="755" interp="linr"  time="-9999999/1" value="1" leadInLength="0/1"  />
              </VectorParam>
              <VectorParam id="756"  name="anchor">
               <InterpolatingParam id="757" interp="linr"  time="0/1" value="0" leadInLength="0/1"  />
               <InterpolatingParam id="758" interp="linr"  time="0/1" value="0" leadInLength="0/1"  />
               <InterpolatingParam id="759" interp="linr"  time="0/1" value="0" leadInLength="0/1"  />
              </VectorParam>
             </Transformer>
             <Parameters>
              <VectorParam id="760"  name="sourceCrop">
               <InterpolatingParam id="761" interp="linr"  time="0/1" value="0" leadInLength="0/1"  />
               <InterpolatingParam id="762" interp="linr"  time="0/1" value="0" leadInLength="0/1"  />
               <InterpolatingParam id="763" interp="linr"  time="0/1" value="0" leadInLength="0/1"  />
               <InterpolatingParam id="764" interp="linr"  time="0/1" value="0" leadInLength="0/1"  />
              </VectorParam>
              <VectorParam id="765"  name="geometryCrop">
               <InterpolatingParam id="766" interp="linr"  time="-9999999/1" value="0" leadInLength="0/1"  />
               <InterpolatingParam id="767" interp="linr"  time="-9999999/1" value="0" leadInLength="0/1"  />
               <InterpolatingParam id="768" interp="linr"  time="-9999999/1" value="0" leadInLength="0/1"  />
               <InterpolatingParam id="769" interp="linr"  time="-9999999/1" value="0" leadInLength="0/1"  />
              </VectorParam>
              <InterpolatingParam id="770" interp="linr"  time="-9999999/1" value="1" leadInLength="0/1"  name="opacity"/>
              <InterpolatingParam id="771" interp="linr"  time="0/1" value="0" leadInLength="0/1"  name="cursorOpacity"/>
              <InterpolatingParam id="772" interp="linr"  time="0/1" value="0" leadInLength="0/1"  name="cursorScale"/>
             </Parameters>
             <Attributes>
              <Attribute id="773" value="" name="ident"/>
             </Attributes>
             <ExtraData>
              <Entry key="ZoomPanBin">
               <ZoomPanBin id="774"  >
                <ZoomPanKeyframes>
                 <ZoomPanKeyframe id="775" timeRangeEnd="-9999999/1" timeRangeDuration="0/1" interpolaterName=""  />
                </ZoomPanKeyframes>
               </ZoomPanBin>
              </Entry>
              <Entry key="CursorEffectBin">
               <CursorEffectBin id="776"  >
                <CursorEffectKeyframes>
                </CursorEffectKeyframes>
               </CursorEffectBin>
              </Entry>
             </ExtraData>
            </ScreenVMFile>
            <MetaData>
             <entry key="AutoAppliedSmartFocus" val="False"/>
             <entry key="WinSubProjectDisplayName" val=""/>
            </MetaData>
           </UnifiedMedia>
           <UnifiedMedia id="777"  >
            <AMFile id="778" start="1849" duration="130" scalar="1/1" mediaStart="2450/1" mediaDuration="130/1" trackNumber="1" src="4" channelNumber="0,1" >
             <Parameters>
              <InterpolatingParam id="779" interp="linr"  time="0/1" value="1" leadInLength="0/1"  name="volume"/>
              <Parameter id="780"  name="captions"/>
             </Parameters>
             <Attributes>
              <Attribute id="781" value="" name="ident"/>
              <Attribute id="782" value="44100" name="sampleRate"/>
              <Attribute id="783" value="16" name="bitDepth"/>
              <Attribute id="784" value="1" name="gain"/>
              <Attribute id="785" value="0" name="mixToMono"/>
             </Attributes>
            </AMFile>
            <ScreenVMFile id="786" start="1849" duration="130" scalar="1/1" mediaStart="2450/1" mediaDuration="130/1" trackNumber="0" src="4" >
             <Transformer>
              <VectorParam id="787"  name="translation">
               <InterpolatingParam id="788" interp="linr"  time="-9999999/1" value="0" leadInLength="0/1"  />
               <InterpolatingParam id="789" interp="linr"  time="-9999999/1" value="0" leadInLength="0/1"  />
               <InterpolatingParam id="790" interp="linr"  time="-9999999/1" value="0" leadInLength="0/1"  />
              </VectorParam>
              <VectorParam id="791"  name="rotation">
               <InterpolatingParam id="792" interp="linr"  time="-9999999/1" value="0" leadInLength="0/1"  />
               <InterpolatingParam id="793" interp="linr"  time="-9999999/1" value="0" leadInLength="0/1"  />
               <InterpolatingParam id="794" interp="linr"  time="-9999999/1" value="0" leadInLength="0/1"  />
              </VectorParam>
              <VectorParam id="795"  name="shear">
               <InterpolatingParam id="796" interp="linr"  time="-9999999/1" value="0" leadInLength="0/1"  />
               <InterpolatingParam id="797" interp="linr"  time="-9999999/1" value="0" leadInLength="0/1"  />
               <InterpolatingParam id="798" interp="linr"  time="-9999999/1" value="0" leadInLength="0/1"  />
              </VectorParam>
              <VectorParam id="799"  name="scale">
               <InterpolatingParam id="800" interp="linr"  time="-9999999/1" value="1" leadInLength="0/1"  />
               <InterpolatingParam id="801" interp="linr"  time="-9999999/1" value="1" leadInLength="0/1"  />
               <InterpolatingParam id="802" interp="linr"  time="-9999999/1" value="1" leadInLength="0/1"  />
              </VectorParam>
              <VectorParam id="803"  name="anchor">
               <InterpolatingParam id="804" interp="linr"  time="0/1" value="0" leadInLength="0/1"  />
               <InterpolatingParam id="805" interp="linr"  time="0/1" value="0" leadInLength="0/1"  />
               <InterpolatingParam id="806" interp="linr"  time="0/1" value="0" leadInLength="0/1"  />
              </VectorParam>
             </Transformer>
             <Parameters>
              <VectorParam id="807"  name="sourceCrop">
               <InterpolatingParam id="808" interp="linr"  time="0/1" value="0" leadInLength="0/1"  />
               <InterpolatingParam id="809" interp="linr"  time="0/1" value="0" leadInLength="0/1"  />
               <InterpolatingParam id="810" interp="linr"  time="0/1" value="0" leadInLength="0/1"  />
               <InterpolatingParam id="811" interp="linr"  time="0/1" value="0" leadInLength="0/1"  />
              </VectorParam>
              <VectorParam id="812"  name="geometryCrop">
               <InterpolatingParam id="813" interp="linr"  time="-9999999/1" value="0" leadInLength="0/1"  />
               <InterpolatingParam id="814" interp="linr"  time="-9999999/1" value="0" leadInLength="0/1"  />
               <InterpolatingParam id="815" interp="linr"  time="-9999999/1" value="0" leadInLength="0/1"  />
               <InterpolatingParam id="816" interp="linr"  time="-9999999/1" value="0" leadInLength="0/1"  />
              </VectorParam>
              <InterpolatingParam id="817" interp="linr"  time="-9999999/1" value="1" leadInLength="0/1"  name="opacity"/>
              <InterpolatingParam id="818" interp="linr"  time="0/1" value="0" leadInLength="0/1"  name="cursorOpacity"/>
              <InterpolatingParam id="819" interp="linr"  time="0/1" value="0" leadInLength="0/1"  name="cursorScale"/>
             </Parameters>
             <Attributes>
              <Attribute id="820" value="" name="ident"/>
             </Attributes>
             <ExtraData>
              <Entry key="ZoomPanBin">
               <ZoomPanBin id="821"  >
                <ZoomPanKeyframes>
                 <ZoomPanKeyframe id="822" timeRangeEnd="-9999999/1" timeRangeDuration="0/1" interpolaterName=""  />
                </ZoomPanKeyframes>
               </ZoomPanBin>
              </Entry>
              <Entry key="CursorEffectBin">
               <CursorEffectBin id="823"  >
                <CursorEffectKeyframes>
                </CursorEffectKeyframes>
               </CursorEffectBin>
              </Entry>
             </ExtraData>
            </ScreenVMFile>
            <MetaData>
             <entry key="AutoAppliedSmartFocus" val="False"/>
             <entry key="WinSubProjectDisplayName" val=""/>
            </MetaData>
           </UnifiedMedia>
           <UnifiedMedia id="824"  >
            <AMFile id="825" start="1979" duration="94" scalar="1/1" mediaStart="2778/1" mediaDuration="94/1" trackNumber="1" src="4" channelNumber="0,1" >
             <Parameters>
              <InterpolatingParam id="826" interp="linr"  time="0/1" value="1" leadInLength="0/1"  name="volume"/>
              <Parameter id="827"  name="captions"/>
             </Parameters>
             <Attributes>
              <Attribute id="828" value="" name="ident"/>
              <Attribute id="829" value="44100" name="sampleRate"/>
              <Attribute id="830" value="16" name="bitDepth"/>
              <Attribute id="831" value="1" name="gain"/>
              <Attribute id="832" value="0" name="mixToMono"/>
             </Attributes>
            </AMFile>
            <ScreenVMFile id="833" start="1979" duration="94" scalar="1/1" mediaStart="2778/1" mediaDuration="94/1" trackNumber="0" src="4" >
             <Transformer>
              <VectorParam id="834"  name="translation">
               <InterpolatingParam id="835" interp="linr"  time="-9999999/1" value="0" leadInLength="0/1"  />
               <InterpolatingParam id="836" interp="linr"  time="-9999999/1" value="0" leadInLength="0/1"  />
               <InterpolatingParam id="837" interp="linr"  time="-9999999/1" value="0" leadInLength="0/1"  />
              </VectorParam>
              <VectorParam id="838"  name="rotation">
               <InterpolatingParam id="839" interp="linr"  time="-9999999/1" value="0" leadInLength="0/1"  />
               <InterpolatingParam id="840" interp="linr"  time="-9999999/1" value="0" leadInLength="0/1"  />
               <InterpolatingParam id="841" interp="linr"  time="-9999999/1" value="0" leadInLength="0/1"  />
              </VectorParam>
              <VectorParam id="842"  name="shear">
               <InterpolatingParam id="843" interp="linr"  time="-9999999/1" value="0" leadInLength="0/1"  />
               <InterpolatingParam id="844" interp="linr"  time="-9999999/1" value="0" leadInLength="0/1"  />
               <InterpolatingParam id="845" interp="linr"  time="-9999999/1" value="0" leadInLength="0/1"  />
              </VectorParam>
              <VectorParam id="846"  name="scale">
               <InterpolatingParam id="847" interp="linr"  time="-9999999/1" value="1" leadInLength="0/1"  />
               <InterpolatingParam id="848" interp="linr"  time="-9999999/1" value="1" leadInLength="0/1"  />
               <InterpolatingParam id="849" interp="linr"  time="-9999999/1" value="1" leadInLength="0/1"  />
              </VectorParam>
              <VectorParam id="850"  name="anchor">
               <InterpolatingParam id="851" interp="linr"  time="0/1" value="0" leadInLength="0/1"  />
               <InterpolatingParam id="852" interp="linr"  time="0/1" value="0" leadInLength="0/1"  />
               <InterpolatingParam id="853" interp="linr"  time="0/1" value="0" leadInLength="0/1"  />
              </VectorParam>
             </Transformer>
             <Parameters>
              <VectorParam id="854"  name="sourceCrop">
               <InterpolatingParam id="855" interp="linr"  time="0/1" value="0" leadInLength="0/1"  />
               <InterpolatingParam id="856" interp="linr"  time="0/1" value="0" leadInLength="0/1"  />
               <InterpolatingParam id="857" interp="linr"  time="0/1" value="0" leadInLength="0/1"  />
               <InterpolatingParam id="858" interp="linr"  time="0/1" value="0" leadInLength="0/1"  />
              </VectorParam>
              <VectorParam id="859"  name="geometryCrop">
               <InterpolatingParam id="860" interp="linr"  time="-9999999/1" value="0" leadInLength="0/1"  />
               <InterpolatingParam id="861" interp="linr"  time="-9999999/1" value="0" leadInLength="0/1"  />
               <InterpolatingParam id="862" interp="linr"  time="-9999999/1" value="0" leadInLength="0/1"  />
               <InterpolatingParam id="863" interp="linr"  time="-9999999/1" value="0" leadInLength="0/1"  />
              </VectorParam>
              <InterpolatingParam id="864" interp="linr"  time="-9999999/1" value="1" leadInLength="0/1"  name="opacity"/>
              <InterpolatingParam id="865" interp="linr"  time="0/1" value="0" leadInLength="0/1"  name="cursorOpacity"/>
              <InterpolatingParam id="866" interp="linr"  time="0/1" value="0" leadInLength="0/1"  name="cursorScale"/>
             </Parameters>
             <Attributes>
              <Attribute id="867" value="" name="ident"/>
             </Attributes>
             <ExtraData>
              <Entry key="ZoomPanBin">
               <ZoomPanBin id="868"  >
                <ZoomPanKeyframes>
                 <ZoomPanKeyframe id="869" timeRangeEnd="-9999999/1" timeRangeDuration="0/1" interpolaterName=""  />
                </ZoomPanKeyframes>
               </ZoomPanBin>
              </Entry>
              <Entry key="CursorEffectBin">
               <CursorEffectBin id="870"  >
                <CursorEffectKeyframes>
                </CursorEffectKeyframes>
               </CursorEffectBin>
              </Entry>
             </ExtraData>
            </ScreenVMFile>
            <MetaData>
             <entry key="AutoAppliedSmartFocus" val="False"/>
             <entry key="WinSubProjectDisplayName" val=""/>
            </MetaData>
           </UnifiedMedia>
           <UnifiedMedia id="871"  >
            <AMFile id="872" start="2073" duration="80" scalar="1/1" mediaStart="2879/1" mediaDuration="80/1" trackNumber="1" src="4" channelNumber="0,1" >
             <Parameters>
              <InterpolatingParam id="873" interp="linr"  time="0/1" value="1" leadInLength="0/1"  name="volume"/>
              <Parameter id="874"  name="captions"/>
             </Parameters>
             <Attributes>
              <Attribute id="875" value="" name="ident"/>
              <Attribute id="876" value="44100" name="sampleRate"/>
              <Attribute id="877" value="16" name="bitDepth"/>
              <Attribute id="878" value="1" name="gain"/>
              <Attribute id="879" value="0" name="mixToMono"/>
             </Attributes>
            </AMFile>
            <ScreenVMFile id="880" start="2073" duration="80" scalar="1/1" mediaStart="2879/1" mediaDuration="80/1" trackNumber="0" src="4" >
             <Transformer>
              <VectorParam id="881"  name="translation">
               <InterpolatingParam id="882" interp="linr"  time="-9999999/1" value="0" leadInLength="0/1"  />
               <InterpolatingParam id="883" interp="linr"  time="-9999999/1" value="0" leadInLength="0/1"  />
               <InterpolatingParam id="884" interp="linr"  time="-9999999/1" value="0" leadInLength="0/1"  />
              </VectorParam>
              <VectorParam id="885"  name="rotation">
               <InterpolatingParam id="886" interp="linr"  time="-9999999/1" value="0" leadInLength="0/1"  />
               <InterpolatingParam id="887" interp="linr"  time="-9999999/1" value="0" leadInLength="0/1"  />
               <InterpolatingParam id="888" interp="linr"  time="-9999999/1" value="0" leadInLength="0/1"  />
              </VectorParam>
              <VectorParam id="889"  name="shear">
               <InterpolatingParam id="890" interp="linr"  time="-9999999/1" value="0" leadInLength="0/1"  />
               <InterpolatingParam id="891" interp="linr"  time="-9999999/1" value="0" leadInLength="0/1"  />
               <InterpolatingParam id="892" interp="linr"  time="-9999999/1" value="0" leadInLength="0/1"  />
              </VectorParam>
              <VectorParam id="893"  name="scale">
               <InterpolatingParam id="894" interp="linr"  time="-9999999/1" value="1" leadInLength="0/1"  />
               <InterpolatingParam id="895" interp="linr"  time="-9999999/1" value="1" leadInLength="0/1"  />
               <InterpolatingParam id="896" interp="linr"  time="-9999999/1" value="1" leadInLength="0/1"  />
              </VectorParam>
              <VectorParam id="897"  name="anchor">
               <InterpolatingParam id="898" interp="linr"  time="0/1" value="0" leadInLength="0/1"  />
               <InterpolatingParam id="899" interp="linr"  time="0/1" value="0" leadInLength="0/1"  />
               <InterpolatingParam id="900" interp="linr"  time="0/1" value="0" leadInLength="0/1"  />
              </VectorParam>
             </Transformer>
             <Parameters>
              <VectorParam id="901"  name="sourceCrop">
               <InterpolatingParam id="902" interp="linr"  time="0/1" value="0" leadInLength="0/1"  />
               <InterpolatingParam id="903" interp="linr"  time="0/1" value="0" leadInLength="0/1"  />
               <InterpolatingParam id="904" interp="linr"  time="0/1" value="0" leadInLength="0/1"  />
               <InterpolatingParam id="905" interp="linr"  time="0/1" value="0" leadInLength="0/1"  />
              </VectorParam>
              <VectorParam id="906"  name="geometryCrop">
               <InterpolatingParam id="907" interp="linr"  time="-9999999/1" value="0" leadInLength="0/1"  />
               <InterpolatingParam id="908" interp="linr"  time="-9999999/1" value="0" leadInLength="0/1"  />
               <InterpolatingParam id="909" interp="linr"  time="-9999999/1" value="0" leadInLength="0/1"  />
               <InterpolatingParam id="910" interp="linr"  time="-9999999/1" value="0" leadInLength="0/1"  />
              </VectorParam>
              <InterpolatingParam id="911" interp="linr"  time="-9999999/1" value="1" leadInLength="0/1"  name="opacity"/>
              <InterpolatingParam id="912" interp="linr"  time="0/1" value="0" leadInLength="0/1"  name="cursorOpacity"/>
              <InterpolatingParam id="913" interp="linr"  time="0/1" value="0" leadInLength="0/1"  name="cursorScale"/>
             </Parameters>
             <Attributes>
              <Attribute id="914" value="" name="ident"/>
             </Attributes>
             <ExtraData>
              <Entry key="ZoomPanBin">
               <ZoomPanBin id="915"  >
                <ZoomPanKeyframes>
                 <ZoomPanKeyframe id="916" timeRangeEnd="-9999999/1" timeRangeDuration="0/1" interpolaterName=""  />
                </ZoomPanKeyframes>
               </ZoomPanBin>
              </Entry>
              <Entry key="CursorEffectBin">
               <CursorEffectBin id="917"  >
                <CursorEffectKeyframes>
                </CursorEffectKeyframes>
               </CursorEffectBin>
              </Entry>
             </ExtraData>
            </ScreenVMFile>
            <MetaData>
             <entry key="AutoAppliedSmartFocus" val="False"/>
             <entry key="WinSubProjectDisplayName" val=""/>
            </MetaData>
           </UnifiedMedia>
           <UnifiedMedia id="918"  >
            <AMFile id="919" start="2153" duration="154" scalar="1/1" mediaStart="3431/1" mediaDuration="154/1" trackNumber="1" src="4" channelNumber="0,1" >
             <Parameters>
              <InterpolatingParam id="920" interp="linr"  time="0/1" value="1" leadInLength="0/1"  name="volume"/>
              <Parameter id="921"  name="captions"/>
             </Parameters>
             <Attributes>
              <Attribute id="922" value="" name="ident"/>
              <Attribute id="923" value="44100" name="sampleRate"/>
              <Attribute id="924" value="16" name="bitDepth"/>
              <Attribute id="925" value="1" name="gain"/>
              <Attribute id="926" value="0" name="mixToMono"/>
             </Attributes>
            </AMFile>
            <ScreenVMFile id="927" start="2153" duration="154" scalar="1/1" mediaStart="3431/1" mediaDuration="154/1" trackNumber="0" src="4" >
             <Transformer>
              <VectorParam id="928"  name="translation">
               <InterpolatingParam id="929" interp="linr"  time="-9999999/1" value="0" leadInLength="0/1"  />
               <InterpolatingParam id="930" interp="linr"  time="-9999999/1" value="0" leadInLength="0/1"  />
               <InterpolatingParam id="931" interp="linr"  time="-9999999/1" value="0" leadInLength="0/1"  />
              </VectorParam>
              <VectorParam id="932"  name="rotation">
               <InterpolatingParam id="933" interp="linr"  time="-9999999/1" value="0" leadInLength="0/1"  />
               <InterpolatingParam id="934" interp="linr"  time="-9999999/1" value="0" leadInLength="0/1"  />
               <InterpolatingParam id="935" interp="linr"  time="-9999999/1" value="0" leadInLength="0/1"  />
              </VectorParam>
              <VectorParam id="936"  name="shear">
               <InterpolatingParam id="937" interp="linr"  time="-9999999/1" value="0" leadInLength="0/1"  />
               <InterpolatingParam id="938" interp="linr"  time="-9999999/1" value="0" leadInLength="0/1"  />
               <InterpolatingParam id="939" interp="linr"  time="-9999999/1" value="0" leadInLength="0/1"  />
              </VectorParam>
              <VectorParam id="940"  name="scale">
               <InterpolatingParam id="941" interp="linr"  time="-9999999/1" value="1" leadInLength="0/1"  />
               <InterpolatingParam id="942" interp="linr"  time="-9999999/1" value="1" leadInLength="0/1"  />
               <InterpolatingParam id="943" interp="linr"  time="-9999999/1" value="1" leadInLength="0/1"  />
              </VectorParam>
              <VectorParam id="944"  name="anchor">
               <InterpolatingParam id="945" interp="linr"  time="0/1" value="0" leadInLength="0/1"  />
               <InterpolatingParam id="946" interp="linr"  time="0/1" value="0" leadInLength="0/1"  />
               <InterpolatingParam id="947" interp="linr"  time="0/1" value="0" leadInLength="0/1"  />
              </VectorParam>
             </Transformer>
             <Parameters>
              <VectorParam id="948"  name="sourceCrop">
               <InterpolatingParam id="949" interp="linr"  time="0/1" value="0" leadInLength="0/1"  />
               <InterpolatingParam id="950" interp="linr"  time="0/1" value="0" leadInLength="0/1"  />
               <InterpolatingParam id="951" interp="linr"  time="0/1" value="0" leadInLength="0/1"  />
               <InterpolatingParam id="952" interp="linr"  time="0/1" value="0" leadInLength="0/1"  />
              </VectorParam>
              <VectorParam id="953"  name="geometryCrop">
               <InterpolatingParam id="954" interp="linr"  time="-9999999/1" value="0" leadInLength="0/1"  />
               <InterpolatingParam id="955" interp="linr"  time="-9999999/1" value="0" leadInLength="0/1"  />
               <InterpolatingParam id="956" interp="linr"  time="-9999999/1" value="0" leadInLength="0/1"  />
               <InterpolatingParam id="957" interp="linr"  time="-9999999/1" value="0" leadInLength="0/1"  />
              </VectorParam>
              <InterpolatingParam id="958" interp="linr"  time="-9999999/1" value="1" leadInLength="0/1"  name="opacity"/>
              <InterpolatingParam id="959" interp="linr"  time="0/1" value="0" leadInLength="0/1"  name="cursorOpacity"/>
              <InterpolatingParam id="960" interp="linr"  time="0/1" value="0" leadInLength="0/1"  name="cursorScale"/>
             </Parameters>
             <Attributes>
              <Attribute id="961" value="" name="ident"/>
             </Attributes>
             <ExtraData>
              <Entry key="ZoomPanBin">
               <ZoomPanBin id="962"  >
                <ZoomPanKeyframes>
                 <ZoomPanKeyframe id="963" timeRangeEnd="-9999999/1" timeRangeDuration="0/1" interpolaterName=""  />
                </ZoomPanKeyframes>
               </ZoomPanBin>
              </Entry>
              <Entry key="CursorEffectBin">
               <CursorEffectBin id="964"  >
                <CursorEffectKeyframes>
                </CursorEffectKeyframes>
               </CursorEffectBin>
              </Entry>
             </ExtraData>
            </ScreenVMFile>
            <MetaData>
             <entry key="AutoAppliedSmartFocus" val="False"/>
             <entry key="WinSubProjectDisplayName" val=""/>
            </MetaData>
           </UnifiedMedia>
           <UnifiedMedia id="965"  >
            <AMFile id="966" start="2307" duration="166" scalar="1/1" mediaStart="3593/1" mediaDuration="166/1" trackNumber="1" src="4" channelNumber="0,1" >
             <Parameters>
              <InterpolatingParam id="967" interp="linr"  time="0/1" value="1" leadInLength="0/1"  name="volume"/>
              <Parameter id="968"  name="captions"/>
             </Parameters>
             <Attributes>
              <Attribute id="969" value="" name="ident"/>
              <Attribute id="970" value="44100" name="sampleRate"/>
              <Attribute id="971" value="16" name="bitDepth"/>
              <Attribute id="972" value="1" name="gain"/>
              <Attribute id="973" value="0" name="mixToMono"/>
             </Attributes>
            </AMFile>
            <ScreenVMFile id="974" start="2307" duration="166" scalar="1/1" mediaStart="3593/1" mediaDuration="166/1" trackNumber="0" src="4" >
             <Transformer>
              <VectorParam id="975"  name="translation">
               <InterpolatingParam id="976" interp="linr"  time="-9999999/1" value="0" leadInLength="0/1"  />
               <InterpolatingParam id="977" interp="linr"  time="-9999999/1" value="0" leadInLength="0/1"  />
               <InterpolatingParam id="978" interp="linr"  time="-9999999/1" value="0" leadInLength="0/1"  />
              </VectorParam>
              <VectorParam id="979"  name="rotation">
               <InterpolatingParam id="980" interp="linr"  time="-9999999/1" value="0" leadInLength="0/1"  />
               <InterpolatingParam id="981" interp="linr"  time="-9999999/1" value="0" leadInLength="0/1"  />
               <InterpolatingParam id="982" interp="linr"  time="-9999999/1" value="0" leadInLength="0/1"  />
              </VectorParam>
              <VectorParam id="983"  name="shear">
               <InterpolatingParam id="984" interp="linr"  time="-9999999/1" value="0" leadInLength="0/1"  />
               <InterpolatingParam id="985" interp="linr"  time="-9999999/1" value="0" leadInLength="0/1"  />
               <InterpolatingParam id="986" interp="linr"  time="-9999999/1" value="0" leadInLength="0/1"  />
              </VectorParam>
              <VectorParam id="987"  name="scale">
               <InterpolatingParam id="988" interp="linr"  time="-9999999/1" value="1" leadInLength="0/1"  />
               <InterpolatingParam id="989" interp="linr"  time="-9999999/1" value="1" leadInLength="0/1"  />
               <InterpolatingParam id="990" interp="linr"  time="-9999999/1" value="1" leadInLength="0/1"  />
              </VectorParam>
              <VectorParam id="991"  name="anchor">
               <InterpolatingParam id="992" interp="linr"  time="0/1" value="0" leadInLength="0/1"  />
               <InterpolatingParam id="993" interp="linr"  time="0/1" value="0" leadInLength="0/1"  />
               <InterpolatingParam id="994" interp="linr"  time="0/1" value="0" leadInLength="0/1"  />
              </VectorParam>
             </Transformer>
             <Parameters>
              <VectorParam id="995"  name="sourceCrop">
               <InterpolatingParam id="996" interp="linr"  time="0/1" value="0" leadInLength="0/1"  />
               <InterpolatingParam id="997" interp="linr"  time="0/1" value="0" leadInLength="0/1"  />
               <InterpolatingParam id="998" interp="linr"  time="0/1" value="0" leadInLength="0/1"  />
               <InterpolatingParam id="999" interp="linr"  time="0/1" value="0" leadInLength="0/1"  />
              </VectorParam>
              <VectorParam id="1000"  name="geometryCrop">
               <InterpolatingParam id="1001" interp="linr"  time="-9999999/1" value="0" leadInLength="0/1"  />
               <InterpolatingParam id="1002" interp="linr"  time="-9999999/1" value="0" leadInLength="0/1"  />
               <InterpolatingParam id="1003" interp="linr"  time="-9999999/1" value="0" leadInLength="0/1"  />
               <InterpolatingParam id="1004" interp="linr"  time="-9999999/1" value="0" leadInLength="0/1"  />
              </VectorParam>
              <InterpolatingParam id="1005" interp="linr"  time="-9999999/1" value="1" leadInLength="0/1"  name="opacity"/>
              <InterpolatingParam id="1006" interp="linr"  time="0/1" value="0" leadInLength="0/1"  name="cursorOpacity"/>
              <InterpolatingParam id="1007" interp="linr"  time="0/1" value="0" leadInLength="0/1"  name="cursorScale"/>
             </Parameters>
             <Attributes>
              <Attribute id="1008" value="" name="ident"/>
             </Attributes>
             <ExtraData>
              <Entry key="ZoomPanBin">
               <ZoomPanBin id="1009"  >
                <ZoomPanKeyframes>
                 <ZoomPanKeyframe id="1010" timeRangeEnd="-9999999/1" timeRangeDuration="0/1" interpolaterName=""  />
                </ZoomPanKeyframes>
               </ZoomPanBin>
              </Entry>
              <Entry key="CursorEffectBin">
               <CursorEffectBin id="1011"  >
                <CursorEffectKeyframes>
                </CursorEffectKeyframes>
               </CursorEffectBin>
              </Entry>
             </ExtraData>
            </ScreenVMFile>
            <MetaData>
             <entry key="AutoAppliedSmartFocus" val="False"/>
             <entry key="WinSubProjectDisplayName" val=""/>
            </MetaData>
           </UnifiedMedia>
           <UnifiedMedia id="1012"  >
            <AMFile id="1013" start="2473" duration="76" scalar="1/1" mediaStart="3771/1" mediaDuration="76/1" trackNumber="1" src="4" channelNumber="0,1" >
             <Parameters>
              <InterpolatingParam id="1014" interp="linr"  time="0/1" value="1" leadInLength="0/1"  name="volume"/>
              <Parameter id="1015"  name="captions"/>
             </Parameters>
             <Attributes>
              <Attribute id="1016" value="" name="ident"/>
              <Attribute id="1017" value="44100" name="sampleRate"/>
              <Attribute id="1018" value="16" name="bitDepth"/>
              <Attribute id="1019" value="1" name="gain"/>
              <Attribute id="1020" value="0" name="mixToMono"/>
             </Attributes>
            </AMFile>
            <ScreenVMFile id="1021" start="2473" duration="76" scalar="1/1" mediaStart="3771/1" mediaDuration="76/1" trackNumber="0" src="4" >
             <Transformer>
              <VectorParam id="1022"  name="translation">
               <InterpolatingParam id="1023" interp="linr"  time="-9999999/1" value="0" leadInLength="0/1"  />
               <InterpolatingParam id="1024" interp="linr"  time="-9999999/1" value="0" leadInLength="0/1"  />
               <InterpolatingParam id="1025" interp="linr"  time="-9999999/1" value="0" leadInLength="0/1"  />
              </VectorParam>
              <VectorParam id="1026"  name="rotation">
               <InterpolatingParam id="1027" interp="linr"  time="-9999999/1" value="0" leadInLength="0/1"  />
               <InterpolatingParam id="1028" interp="linr"  time="-9999999/1" value="0" leadInLength="0/1"  />
               <InterpolatingParam id="1029" interp="linr"  time="-9999999/1" value="0" leadInLength="0/1"  />
              </VectorParam>
              <VectorParam id="1030"  name="shear">
               <InterpolatingParam id="1031" interp="linr"  time="-9999999/1" value="0" leadInLength="0/1"  />
               <InterpolatingParam id="1032" interp="linr"  time="-9999999/1" value="0" leadInLength="0/1"  />
               <InterpolatingParam id="1033" interp="linr"  time="-9999999/1" value="0" leadInLength="0/1"  />
              </VectorParam>
              <VectorParam id="1034"  name="scale">
               <InterpolatingParam id="1035" interp="linr"  time="-9999999/1" value="1" leadInLength="0/1"  />
               <InterpolatingParam id="1036" interp="linr"  time="-9999999/1" value="1" leadInLength="0/1"  />
               <InterpolatingParam id="1037" interp="linr"  time="-9999999/1" value="1" leadInLength="0/1"  />
              </VectorParam>
              <VectorParam id="1038"  name="anchor">
               <InterpolatingParam id="1039" interp="linr"  time="0/1" value="0" leadInLength="0/1"  />
               <InterpolatingParam id="1040" interp="linr"  time="0/1" value="0" leadInLength="0/1"  />
               <InterpolatingParam id="1041" interp="linr"  time="0/1" value="0" leadInLength="0/1"  />
              </VectorParam>
             </Transformer>
             <Parameters>
              <VectorParam id="1042"  name="sourceCrop">
               <InterpolatingParam id="1043" interp="linr"  time="0/1" value="0" leadInLength="0/1"  />
               <InterpolatingParam id="1044" interp="linr"  time="0/1" value="0" leadInLength="0/1"  />
               <InterpolatingParam id="1045" interp="linr"  time="0/1" value="0" leadInLength="0/1"  />
               <InterpolatingParam id="1046" interp="linr"  time="0/1" value="0" leadInLength="0/1"  />
              </VectorParam>
              <VectorParam id="1047"  name="geometryCrop">
               <InterpolatingParam id="1048" interp="linr"  time="-9999999/1" value="0" leadInLength="0/1"  />
               <InterpolatingParam id="1049" interp="linr"  time="-9999999/1" value="0" leadInLength="0/1"  />
               <InterpolatingParam id="1050" interp="linr"  time="-9999999/1" value="0" leadInLength="0/1"  />
               <InterpolatingParam id="1051" interp="linr"  time="-9999999/1" value="0" leadInLength="0/1"  />
              </VectorParam>
              <InterpolatingParam id="1052" interp="linr"  time="-9999999/1" value="1" leadInLength="0/1"  name="opacity"/>
              <InterpolatingParam id="1053" interp="linr"  time="0/1" value="0" leadInLength="0/1"  name="cursorOpacity"/>
              <InterpolatingParam id="1054" interp="linr"  time="0/1" value="0" leadInLength="0/1"  name="cursorScale"/>
             </Parameters>
             <Attributes>
              <Attribute id="1055" value="" name="ident"/>
             </Attributes>
             <ExtraData>
              <Entry key="ZoomPanBin">
               <ZoomPanBin id="1056"  >
                <ZoomPanKeyframes>
                 <ZoomPanKeyframe id="1057" timeRangeEnd="-9999999/1" timeRangeDuration="0/1" interpolaterName=""  />
                </ZoomPanKeyframes>
               </ZoomPanBin>
              </Entry>
              <Entry key="CursorEffectBin">
               <CursorEffectBin id="1058"  >
                <CursorEffectKeyframes>
                </CursorEffectKeyframes>
               </CursorEffectBin>
              </Entry>
             </ExtraData>
            </ScreenVMFile>
            <MetaData>
             <entry key="AutoAppliedSmartFocus" val="False"/>
             <entry key="WinSubProjectDisplayName" val=""/>
            </MetaData>
           </UnifiedMedia>
           <UnifiedMedia id="1059"  >
            <AMFile id="1060" start="2549" duration="116" scalar="1/1" mediaStart="4178/1" mediaDuration="116/1" trackNumber="1" src="4" channelNumber="0,1" >
             <Parameters>
              <InterpolatingParam id="1061" interp="linr"  time="0/1" value="1" leadInLength="0/1"  name="volume"/>
              <Parameter id="1062"  name="captions"/>
             </Parameters>
             <Attributes>
              <Attribute id="1063" value="" name="ident"/>
              <Attribute id="1064" value="44100" name="sampleRate"/>
              <Attribute id="1065" value="16" name="bitDepth"/>
              <Attribute id="1066" value="1" name="gain"/>
              <Attribute id="1067" value="0" name="mixToMono"/>
             </Attributes>
            </AMFile>
            <ScreenVMFile id="1068" start="2549" duration="116" scalar="1/1" mediaStart="4178/1" mediaDuration="116/1" trackNumber="0" src="4" >
             <Transformer>
              <VectorParam id="1069"  name="translation">
               <InterpolatingParam id="1070" interp="linr"  time="-9999999/1" value="0" leadInLength="0/1"  />
               <InterpolatingParam id="1071" interp="linr"  time="-9999999/1" value="0" leadInLength="0/1"  />
               <InterpolatingParam id="1072" interp="linr"  time="-9999999/1" value="0" leadInLength="0/1"  />
              </VectorParam>
              <VectorParam id="1073"  name="rotation">
               <InterpolatingParam id="1074" interp="linr"  time="-9999999/1" value="0" leadInLength="0/1"  />
               <InterpolatingParam id="1075" interp="linr"  time="-9999999/1" value="0" leadInLength="0/1"  />
               <InterpolatingParam id="1076" interp="linr"  time="-9999999/1" value="0" leadInLength="0/1"  />
              </VectorParam>
              <VectorParam id="1077"  name="shear">
               <InterpolatingParam id="1078" interp="linr"  time="-9999999/1" value="0" leadInLength="0/1"  />
               <InterpolatingParam id="1079" interp="linr"  time="-9999999/1" value="0" leadInLength="0/1"  />
               <InterpolatingParam id="1080" interp="linr"  time="-9999999/1" value="0" leadInLength="0/1"  />
              </VectorParam>
              <VectorParam id="1081"  name="scale">
               <InterpolatingParam id="1082" interp="linr"  time="-9999999/1" value="1" leadInLength="0/1"  />
               <InterpolatingParam id="1083" interp="linr"  time="-9999999/1" value="1" leadInLength="0/1"  />
               <InterpolatingParam id="1084" interp="linr"  time="-9999999/1" value="1" leadInLength="0/1"  />
              </VectorParam>
              <VectorParam id="1085"  name="anchor">
               <InterpolatingParam id="1086" interp="linr"  time="0/1" value="0" leadInLength="0/1"  />
               <InterpolatingParam id="1087" interp="linr"  time="0/1" value="0" leadInLength="0/1"  />
               <InterpolatingParam id="1088" interp="linr"  time="0/1" value="0" leadInLength="0/1"  />
              </VectorParam>
             </Transformer>
             <Parameters>
              <VectorParam id="1089"  name="sourceCrop">
               <InterpolatingParam id="1090" interp="linr"  time="0/1" value="0" leadInLength="0/1"  />
               <InterpolatingParam id="1091" interp="linr"  time="0/1" value="0" leadInLength="0/1"  />
               <InterpolatingParam id="1092" interp="linr"  time="0/1" value="0" leadInLength="0/1"  />
               <InterpolatingParam id="1093" interp="linr"  time="0/1" value="0" leadInLength="0/1"  />
              </VectorParam>
              <VectorParam id="1094"  name="geometryCrop">
               <InterpolatingParam id="1095" interp="linr"  time="-9999999/1" value="0" leadInLength="0/1"  />
               <InterpolatingParam id="1096" interp="linr"  time="-9999999/1" value="0" leadInLength="0/1"  />
               <InterpolatingParam id="1097" interp="linr"  time="-9999999/1" value="0" leadInLength="0/1"  />
               <InterpolatingParam id="1098" interp="linr"  time="-9999999/1" value="0" leadInLength="0/1"  />
              </VectorParam>
              <InterpolatingParam id="1099" interp="linr"  time="-9999999/1" value="1" leadInLength="0/1"  name="opacity"/>
              <InterpolatingParam id="1100" interp="linr"  time="0/1" value="0" leadInLength="0/1"  name="cursorOpacity"/>
              <InterpolatingParam id="1101" interp="linr"  time="0/1" value="0" leadInLength="0/1"  name="cursorScale"/>
             </Parameters>
             <Attributes>
              <Attribute id="1102" value="" name="ident"/>
             </Attributes>
             <ExtraData>
              <Entry key="ZoomPanBin">
               <ZoomPanBin id="1103"  >
                <ZoomPanKeyframes>
                 <ZoomPanKeyframe id="1104" timeRangeEnd="-9999999/1" timeRangeDuration="0/1" interpolaterName=""  />
                </ZoomPanKeyframes>
               </ZoomPanBin>
              </Entry>
              <Entry key="CursorEffectBin">
               <CursorEffectBin id="1105"  >
                <CursorEffectKeyframes>
                </CursorEffectKeyframes>
               </CursorEffectBin>
              </Entry>
             </ExtraData>
            </ScreenVMFile>
            <MetaData>
             <entry key="AutoAppliedSmartFocus" val="False"/>
             <entry key="WinSubProjectDisplayName" val=""/>
            </MetaData>
           </UnifiedMedia>
           <UnifiedMedia id="1106"  >
            <AMFile id="1107" start="2665" duration="203" scalar="1/1" mediaStart="4303/1" mediaDuration="203/1" trackNumber="1" src="4" channelNumber="0,1" >
             <Parameters>
              <InterpolatingParam id="1108" interp="linr"  time="0/1" value="1" leadInLength="0/1"  name="volume"/>
              <Parameter id="1109"  name="captions"/>
             </Parameters>
             <Attributes>
              <Attribute id="1110" value="" name="ident"/>
              <Attribute id="1111" value="44100" name="sampleRate"/>
              <Attribute id="1112" value="16" name="bitDepth"/>
              <Attribute id="1113" value="1" name="gain"/>
              <Attribute id="1114" value="0" name="mixToMono"/>
             </Attributes>
            </AMFile>
            <ScreenVMFile id="1115" start="2665" duration="203" scalar="1/1" mediaStart="4303/1" mediaDuration="203/1" trackNumber="0" src="4" >
             <Transformer>
              <VectorParam id="1116"  name="translation">
               <InterpolatingParam id="1117" interp="linr"  time="-9999999/1" value="0" leadInLength="0/1"  />
               <InterpolatingParam id="1118" interp="linr"  time="-9999999/1" value="0" leadInLength="0/1"  />
               <InterpolatingParam id="1119" interp="linr"  time="-9999999/1" value="0" leadInLength="0/1"  />
              </VectorParam>
              <VectorParam id="1120"  name="rotation">
               <InterpolatingParam id="1121" interp="linr"  time="-9999999/1" value="0" leadInLength="0/1"  />
               <InterpolatingParam id="1122" interp="linr"  time="-9999999/1" value="0" leadInLength="0/1"  />
               <InterpolatingParam id="1123" interp="linr"  time="-9999999/1" value="0" leadInLength="0/1"  />
              </VectorParam>
              <VectorParam id="1124"  name="shear">
               <InterpolatingParam id="1125" interp="linr"  time="-9999999/1" value="0" leadInLength="0/1"  />
               <InterpolatingParam id="1126" interp="linr"  time="-9999999/1" value="0" leadInLength="0/1"  />
               <InterpolatingParam id="1127" interp="linr"  time="-9999999/1" value="0" leadInLength="0/1"  />
              </VectorParam>
              <VectorParam id="1128"  name="scale">
               <InterpolatingParam id="1129" interp="linr"  time="-9999999/1" value="1" leadInLength="0/1"  />
               <InterpolatingParam id="1130" interp="linr"  time="-9999999/1" value="1" leadInLength="0/1"  />
               <InterpolatingParam id="1131" interp="linr"  time="-9999999/1" value="1" leadInLength="0/1"  />
              </VectorParam>
              <VectorParam id="1132"  name="anchor">
               <InterpolatingParam id="1133" interp="linr"  time="0/1" value="0" leadInLength="0/1"  />
               <InterpolatingParam id="1134" interp="linr"  time="0/1" value="0" leadInLength="0/1"  />
               <InterpolatingParam id="1135" interp="linr"  time="0/1" value="0" leadInLength="0/1"  />
              </VectorParam>
             </Transformer>
             <Parameters>
              <VectorParam id="1136"  name="sourceCrop">
               <InterpolatingParam id="1137" interp="linr"  time="0/1" value="0" leadInLength="0/1"  />
               <InterpolatingParam id="1138" interp="linr"  time="0/1" value="0" leadInLength="0/1"  />
               <InterpolatingParam id="1139" interp="linr"  time="0/1" value="0" leadInLength="0/1"  />
               <InterpolatingParam id="1140" interp="linr"  time="0/1" value="0" leadInLength="0/1"  />
              </VectorParam>
              <VectorParam id="1141"  name="geometryCrop">
               <InterpolatingParam id="1142" interp="linr"  time="-9999999/1" value="0" leadInLength="0/1"  />
               <InterpolatingParam id="1143" interp="linr"  time="-9999999/1" value="0" leadInLength="0/1"  />
               <InterpolatingParam id="1144" interp="linr"  time="-9999999/1" value="0" leadInLength="0/1"  />
               <InterpolatingParam id="1145" interp="linr"  time="-9999999/1" value="0" leadInLength="0/1"  />
              </VectorParam>
              <InterpolatingParam id="1146" interp="linr"  time="-9999999/1" value="1" leadInLength="0/1"  name="opacity"/>
              <InterpolatingParam id="1147" interp="linr"  time="0/1" value="0" leadInLength="0/1"  name="cursorOpacity"/>
              <InterpolatingParam id="1148" interp="linr"  time="0/1" value="0" leadInLength="0/1"  name="cursorScale"/>
             </Parameters>
             <Attributes>
              <Attribute id="1149" value="" name="ident"/>
             </Attributes>
             <ExtraData>
              <Entry key="ZoomPanBin">
               <ZoomPanBin id="1150"  >
                <ZoomPanKeyframes>
                 <ZoomPanKeyframe id="1151" timeRangeEnd="-9999999/1" timeRangeDuration="0/1" interpolaterName=""  />
                </ZoomPanKeyframes>
               </ZoomPanBin>
              </Entry>
              <Entry key="CursorEffectBin">
               <CursorEffectBin id="1152"  >
                <CursorEffectKeyframes>
                </CursorEffectKeyframes>
               </CursorEffectBin>
              </Entry>
             </ExtraData>
            </ScreenVMFile>
            <MetaData>
             <entry key="AutoAppliedSmartFocus" val="False"/>
             <entry key="WinSubProjectDisplayName" val=""/>
            </MetaData>
           </UnifiedMedia>
           <UnifiedMedia id="1153"  >
            <AMFile id="1154" start="2868" duration="97" scalar="1/1" mediaStart="4515/1" mediaDuration="97/1" trackNumber="1" src="4" channelNumber="0,1" >
             <Parameters>
              <InterpolatingParam id="1155" interp="linr"  time="0/1" value="1" leadInLength="0/1"  name="volume"/>
              <Parameter id="1156"  name="captions"/>
             </Parameters>
             <Attributes>
              <Attribute id="1157" value="" name="ident"/>
              <Attribute id="1158" value="44100" name="sampleRate"/>
              <Attribute id="1159" value="16" name="bitDepth"/>
              <Attribute id="1160" value="1" name="gain"/>
              <Attribute id="1161" value="0" name="mixToMono"/>
             </Attributes>
            </AMFile>
            <ScreenVMFile id="1162" start="2868" duration="97" scalar="1/1" mediaStart="4515/1" mediaDuration="97/1" trackNumber="0" src="4" >
             <Transformer>
              <VectorParam id="1163"  name="translation">
               <InterpolatingParam id="1164" interp="linr"  time="-9999999/1" value="0" leadInLength="0/1"  />
               <InterpolatingParam id="1165" interp="linr"  time="-9999999/1" value="0" leadInLength="0/1"  />
               <InterpolatingParam id="1166" interp="linr"  time="-9999999/1" value="0" leadInLength="0/1"  />
              </VectorParam>
              <VectorParam id="1167"  name="rotation">
               <InterpolatingParam id="1168" interp="linr"  time="-9999999/1" value="0" leadInLength="0/1"  />
               <InterpolatingParam id="1169" interp="linr"  time="-9999999/1" value="0" leadInLength="0/1"  />
               <InterpolatingParam id="1170" interp="linr"  time="-9999999/1" value="0" leadInLength="0/1"  />
              </VectorParam>
              <VectorParam id="1171"  name="shear">
               <InterpolatingParam id="1172" interp="linr"  time="-9999999/1" value="0" leadInLength="0/1"  />
               <InterpolatingParam id="1173" interp="linr"  time="-9999999/1" value="0" leadInLength="0/1"  />
               <InterpolatingParam id="1174" interp="linr"  time="-9999999/1" value="0" leadInLength="0/1"  />
              </VectorParam>
              <VectorParam id="1175"  name="scale">
               <InterpolatingParam id="1176" interp="linr"  time="-9999999/1" value="1" leadInLength="0/1"  />
               <InterpolatingParam id="1177" interp="linr"  time="-9999999/1" value="1" leadInLength="0/1"  />
               <InterpolatingParam id="1178" interp="linr"  time="-9999999/1" value="1" leadInLength="0/1"  />
              </VectorParam>
              <VectorParam id="1179"  name="anchor">
               <InterpolatingParam id="1180" interp="linr"  time="0/1" value="0" leadInLength="0/1"  />
               <InterpolatingParam id="1181" interp="linr"  time="0/1" value="0" leadInLength="0/1"  />
               <InterpolatingParam id="1182" interp="linr"  time="0/1" value="0" leadInLength="0/1"  />
              </VectorParam>
             </Transformer>
             <Parameters>
              <VectorParam id="1183"  name="sourceCrop">
               <InterpolatingParam id="1184" interp="linr"  time="0/1" value="0" leadInLength="0/1"  />
               <InterpolatingParam id="1185" interp="linr"  time="0/1" value="0" leadInLength="0/1"  />
               <InterpolatingParam id="1186" interp="linr"  time="0/1" value="0" leadInLength="0/1"  />
               <InterpolatingParam id="1187" interp="linr"  time="0/1" value="0" leadInLength="0/1"  />
              </VectorParam>
              <VectorParam id="1188"  name="geometryCrop">
               <InterpolatingParam id="1189" interp="linr"  time="-9999999/1" value="0" leadInLength="0/1"  />
               <InterpolatingParam id="1190" interp="linr"  time="-9999999/1" value="0" leadInLength="0/1"  />
               <InterpolatingParam id="1191" interp="linr"  time="-9999999/1" value="0" leadInLength="0/1"  />
               <InterpolatingParam id="1192" interp="linr"  time="-9999999/1" value="0" leadInLength="0/1"  />
              </VectorParam>
              <InterpolatingParam id="1193" interp="linr"  time="-9999999/1" value="1" leadInLength="0/1"  name="opacity"/>
              <InterpolatingParam id="1194" interp="linr"  time="0/1" value="0" leadInLength="0/1"  name="cursorOpacity"/>
              <InterpolatingParam id="1195" interp="linr"  time="0/1" value="0" leadInLength="0/1"  name="cursorScale"/>
             </Parameters>
             <Attributes>
              <Attribute id="1196" value="" name="ident"/>
             </Attributes>
             <ExtraData>
              <Entry key="ZoomPanBin">
               <ZoomPanBin id="1197"  >
                <ZoomPanKeyframes>
                 <ZoomPanKeyframe id="1198" timeRangeEnd="-9999999/1" timeRangeDuration="0/1" interpolaterName=""  />
                </ZoomPanKeyframes>
               </ZoomPanBin>
              </Entry>
              <Entry key="CursorEffectBin">
               <CursorEffectBin id="1199"  >
                <CursorEffectKeyframes>
                </CursorEffectKeyframes>
               </CursorEffectBin>
              </Entry>
             </ExtraData>
            </ScreenVMFile>
            <MetaData>
             <entry key="AutoAppliedSmartFocus" val="False"/>
             <entry key="WinSubProjectDisplayName" val=""/>
            </MetaData>
           </UnifiedMedia>
           <UnifiedMedia id="1200"  >
            <AMFile id="1201" start="2965" duration="87" scalar="1/1" mediaStart="4860/1" mediaDuration="87/1" trackNumber="1" src="4" channelNumber="0,1" >
             <Parameters>
              <InterpolatingParam id="1202" interp="linr"  time="0/1" value="1" leadInLength="0/1"  name="volume"/>
              <Parameter id="1203"  name="captions"/>
             </Parameters>
             <Attributes>
              <Attribute id="1204" value="" name="ident"/>
              <Attribute id="1205" value="44100" name="sampleRate"/>
              <Attribute id="1206" value="16" name="bitDepth"/>
              <Attribute id="1207" value="1" name="gain"/>
              <Attribute id="1208" value="0" name="mixToMono"/>
             </Attributes>
            </AMFile>
            <ScreenVMFile id="1209" start="2965" duration="87" scalar="1/1" mediaStart="4860/1" mediaDuration="87/1" trackNumber="0" src="4" >
             <Transformer>
              <VectorParam id="1210"  name="translation">
               <InterpolatingParam id="1211" interp="linr"  time="-9999999/1" value="0" leadInLength="0/1"  />
               <InterpolatingParam id="1212" interp="linr"  time="-9999999/1" value="0" leadInLength="0/1"  />
               <InterpolatingParam id="1213" interp="linr"  time="-9999999/1" value="0" leadInLength="0/1"  />
              </VectorParam>
              <VectorParam id="1214"  name="rotation">
               <InterpolatingParam id="1215" interp="linr"  time="-9999999/1" value="0" leadInLength="0/1"  />
               <InterpolatingParam id="1216" interp="linr"  time="-9999999/1" value="0" leadInLength="0/1"  />
               <InterpolatingParam id="1217" interp="linr"  time="-9999999/1" value="0" leadInLength="0/1"  />
              </VectorParam>
              <VectorParam id="1218"  name="shear">
               <InterpolatingParam id="1219" interp="linr"  time="-9999999/1" value="0" leadInLength="0/1"  />
               <InterpolatingParam id="1220" interp="linr"  time="-9999999/1" value="0" leadInLength="0/1"  />
               <InterpolatingParam id="1221" interp="linr"  time="-9999999/1" value="0" leadInLength="0/1"  />
              </VectorParam>
              <VectorParam id="1222"  name="scale">
               <InterpolatingParam id="1223" interp="linr"  time="-9999999/1" value="1" leadInLength="0/1"  />
               <InterpolatingParam id="1224" interp="linr"  time="-9999999/1" value="1" leadInLength="0/1"  />
               <InterpolatingParam id="1225" interp="linr"  time="-9999999/1" value="1" leadInLength="0/1"  />
              </VectorParam>
              <VectorParam id="1226"  name="anchor">
               <InterpolatingParam id="1227" interp="linr"  time="0/1" value="0" leadInLength="0/1"  />
               <InterpolatingParam id="1228" interp="linr"  time="0/1" value="0" leadInLength="0/1"  />
               <InterpolatingParam id="1229" interp="linr"  time="0/1" value="0" leadInLength="0/1"  />
              </VectorParam>
             </Transformer>
             <Parameters>
              <VectorParam id="1230"  name="sourceCrop">
               <InterpolatingParam id="1231" interp="linr"  time="0/1" value="0" leadInLength="0/1"  />
               <InterpolatingParam id="1232" interp="linr"  time="0/1" value="0" leadInLength="0/1"  />
               <InterpolatingParam id="1233" interp="linr"  time="0/1" value="0" leadInLength="0/1"  />
               <InterpolatingParam id="1234" interp="linr"  time="0/1" value="0" leadInLength="0/1"  />
              </VectorParam>
              <VectorParam id="1235"  name="geometryCrop">
               <InterpolatingParam id="1236" interp="linr"  time="-9999999/1" value="0" leadInLength="0/1"  />
               <InterpolatingParam id="1237" interp="linr"  time="-9999999/1" value="0" leadInLength="0/1"  />
               <InterpolatingParam id="1238" interp="linr"  time="-9999999/1" value="0" leadInLength="0/1"  />
               <InterpolatingParam id="1239" interp="linr"  time="-9999999/1" value="0" leadInLength="0/1"  />
              </VectorParam>
              <InterpolatingParam id="1240" interp="linr"  time="-9999999/1" value="1" leadInLength="0/1"  name="opacity"/>
              <InterpolatingParam id="1241" interp="linr"  time="0/1" value="0" leadInLength="0/1"  name="cursorOpacity"/>
              <InterpolatingParam id="1242" interp="linr"  time="0/1" value="0" leadInLength="0/1"  name="cursorScale"/>
             </Parameters>
             <Attributes>
              <Attribute id="1243" value="" name="ident"/>
             </Attributes>
             <ExtraData>
              <Entry key="ZoomPanBin">
               <ZoomPanBin id="1244"  >
                <ZoomPanKeyframes>
                 <ZoomPanKeyframe id="1245" timeRangeEnd="-9999999/1" timeRangeDuration="0/1" interpolaterName=""  />
                </ZoomPanKeyframes>
               </ZoomPanBin>
              </Entry>
              <Entry key="CursorEffectBin">
               <CursorEffectBin id="1246"  >
                <CursorEffectKeyframes>
                </CursorEffectKeyframes>
               </CursorEffectBin>
              </Entry>
             </ExtraData>
            </ScreenVMFile>
            <MetaData>
             <entry key="AutoAppliedSmartFocus" val="False"/>
             <entry key="WinSubProjectDisplayName" val=""/>
            </MetaData>
           </UnifiedMedia>
           <UnifiedMedia id="1247"  >
            <AMFile id="1248" start="3052" duration="73" scalar="1/1" mediaStart="4957/1" mediaDuration="73/1" trackNumber="1" src="4" channelNumber="0,1" >
             <Parameters>
              <InterpolatingParam id="1249" interp="linr"  time="0/1" value="1" leadInLength="0/1"  name="volume"/>
              <Parameter id="1250"  name="captions"/>
             </Parameters>
             <Attributes>
              <Attribute id="1251" value="" name="ident"/>
              <Attribute id="1252" value="44100" name="sampleRate"/>
              <Attribute id="1253" value="16" name="bitDepth"/>
              <Attribute id="1254" value="1" name="gain"/>
              <Attribute id="1255" value="0" name="mixToMono"/>
             </Attributes>
            </AMFile>
            <ScreenVMFile id="1256" start="3052" duration="73" scalar="1/1" mediaStart="4957/1" mediaDuration="73/1" trackNumber="0" src="4" >
             <Transformer>
              <VectorParam id="1257"  name="translation">
               <InterpolatingParam id="1258" interp="linr"  time="-9999999/1" value="0" leadInLength="0/1"  />
               <InterpolatingParam id="1259" interp="linr"  time="-9999999/1" value="0" leadInLength="0/1"  />
               <InterpolatingParam id="1260" interp="linr"  time="-9999999/1" value="0" leadInLength="0/1"  />
              </VectorParam>
              <VectorParam id="1261"  name="rotation">
               <InterpolatingParam id="1262" interp="linr"  time="-9999999/1" value="0" leadInLength="0/1"  />
               <InterpolatingParam id="1263" interp="linr"  time="-9999999/1" value="0" leadInLength="0/1"  />
               <InterpolatingParam id="1264" interp="linr"  time="-9999999/1" value="0" leadInLength="0/1"  />
              </VectorParam>
              <VectorParam id="1265"  name="shear">
               <InterpolatingParam id="1266" interp="linr"  time="-9999999/1" value="0" leadInLength="0/1"  />
               <InterpolatingParam id="1267" interp="linr"  time="-9999999/1" value="0" leadInLength="0/1"  />
               <InterpolatingParam id="1268" interp="linr"  time="-9999999/1" value="0" leadInLength="0/1"  />
              </VectorParam>
              <VectorParam id="1269"  name="scale">
               <InterpolatingParam id="1270" interp="linr"  time="-9999999/1" value="1" leadInLength="0/1"  />
               <InterpolatingParam id="1271" interp="linr"  time="-9999999/1" value="1" leadInLength="0/1"  />
               <InterpolatingParam id="1272" interp="linr"  time="-9999999/1" value="1" leadInLength="0/1"  />
              </VectorParam>
              <VectorParam id="1273"  name="anchor">
               <InterpolatingParam id="1274" interp="linr"  time="0/1" value="0" leadInLength="0/1"  />
               <InterpolatingParam id="1275" interp="linr"  time="0/1" value="0" leadInLength="0/1"  />
               <InterpolatingParam id="1276" interp="linr"  time="0/1" value="0" leadInLength="0/1"  />
              </VectorParam>
             </Transformer>
             <Parameters>
              <VectorParam id="1277"  name="sourceCrop">
               <InterpolatingParam id="1278" interp="linr"  time="0/1" value="0" leadInLength="0/1"  />
               <InterpolatingParam id="1279" interp="linr"  time="0/1" value="0" leadInLength="0/1"  />
               <InterpolatingParam id="1280" interp="linr"  time="0/1" value="0" leadInLength="0/1"  />
               <InterpolatingParam id="1281" interp="linr"  time="0/1" value="0" leadInLength="0/1"  />
              </VectorParam>
              <VectorParam id="1282"  name="geometryCrop">
               <InterpolatingParam id="1283" interp="linr"  time="-9999999/1" value="0" leadInLength="0/1"  />
               <InterpolatingParam id="1284" interp="linr"  time="-9999999/1" value="0" leadInLength="0/1"  />
               <InterpolatingParam id="1285" interp="linr"  time="-9999999/1" value="0" leadInLength="0/1"  />
               <InterpolatingParam id="1286" interp="linr"  time="-9999999/1" value="0" leadInLength="0/1"  />
              </VectorParam>
              <InterpolatingParam id="1287" interp="linr"  time="-9999999/1" value="1" leadInLength="0/1"  name="opacity"/>
              <InterpolatingParam id="1288" interp="linr"  time="0/1" value="0" leadInLength="0/1"  name="cursorOpacity"/>
              <InterpolatingParam id="1289" interp="linr"  time="0/1" value="0" leadInLength="0/1"  name="cursorScale"/>
             </Parameters>
             <Attributes>
              <Attribute id="1290" value="" name="ident"/>
             </Attributes>
             <ExtraData>
              <Entry key="ZoomPanBin">
               <ZoomPanBin id="1291"  >
                <ZoomPanKeyframes>
                 <ZoomPanKeyframe id="1292" timeRangeEnd="-9999999/1" timeRangeDuration="0/1" interpolaterName=""  />
                </ZoomPanKeyframes>
               </ZoomPanBin>
              </Entry>
              <Entry key="CursorEffectBin">
               <CursorEffectBin id="1293"  >
                <CursorEffectKeyframes>
                </CursorEffectKeyframes>
               </CursorEffectBin>
              </Entry>
             </ExtraData>
            </ScreenVMFile>
            <MetaData>
             <entry key="AutoAppliedSmartFocus" val="False"/>
             <entry key="WinSubProjectDisplayName" val=""/>
            </MetaData>
           </UnifiedMedia>
           <UnifiedMedia id="1294"  >
            <AMFile id="1295" start="3125" duration="197" scalar="1/1" mediaStart="5334/1" mediaDuration="197/1" trackNumber="1" src="4" channelNumber="0,1" >
             <Parameters>
              <InterpolatingParam id="1296" interp="linr"  time="0/1" value="1" leadInLength="0/1"  name="volume"/>
              <Parameter id="1297"  name="captions"/>
             </Parameters>
             <Attributes>
              <Attribute id="1298" value="" name="ident"/>
              <Attribute id="1299" value="44100" name="sampleRate"/>
              <Attribute id="1300" value="16" name="bitDepth"/>
              <Attribute id="1301" value="1" name="gain"/>
              <Attribute id="1302" value="0" name="mixToMono"/>
             </Attributes>
            </AMFile>
            <ScreenVMFile id="1303" start="3125" duration="197" scalar="1/1" mediaStart="5334/1" mediaDuration="197/1" trackNumber="0" src="4" >
             <Transformer>
              <VectorParam id="1304"  name="translation">
               <InterpolatingParam id="1305" interp="linr"  time="-9999999/1" value="0" leadInLength="0/1"  />
               <InterpolatingParam id="1306" interp="linr"  time="-9999999/1" value="0" leadInLength="0/1"  />
               <InterpolatingParam id="1307" interp="linr"  time="-9999999/1" value="0" leadInLength="0/1"  />
              </VectorParam>
              <VectorParam id="1308"  name="rotation">
               <InterpolatingParam id="1309" interp="linr"  time="-9999999/1" value="0" leadInLength="0/1"  />
               <InterpolatingParam id="1310" interp="linr"  time="-9999999/1" value="0" leadInLength="0/1"  />
               <InterpolatingParam id="1311" interp="linr"  time="-9999999/1" value="0" leadInLength="0/1"  />
              </VectorParam>
              <VectorParam id="1312"  name="shear">
               <InterpolatingParam id="1313" interp="linr"  time="-9999999/1" value="0" leadInLength="0/1"  />
               <InterpolatingParam id="1314" interp="linr"  time="-9999999/1" value="0" leadInLength="0/1"  />
               <InterpolatingParam id="1315" interp="linr"  time="-9999999/1" value="0" leadInLength="0/1"  />
              </VectorParam>
              <VectorParam id="1316"  name="scale">
               <InterpolatingParam id="1317" interp="linr"  time="-9999999/1" value="1" leadInLength="0/1"  />
               <InterpolatingParam id="1318" interp="linr"  time="-9999999/1" value="1" leadInLength="0/1"  />
               <InterpolatingParam id="1319" interp="linr"  time="-9999999/1" value="1" leadInLength="0/1"  />
              </VectorParam>
              <VectorParam id="1320"  name="anchor">
               <InterpolatingParam id="1321" interp="linr"  time="0/1" value="0" leadInLength="0/1"  />
               <InterpolatingParam id="1322" interp="linr"  time="0/1" value="0" leadInLength="0/1"  />
               <InterpolatingParam id="1323" interp="linr"  time="0/1" value="0" leadInLength="0/1"  />
              </VectorParam>
             </Transformer>
             <Parameters>
              <VectorParam id="1324"  name="sourceCrop">
               <InterpolatingParam id="1325" interp="linr"  time="0/1" value="0" leadInLength="0/1"  />
               <InterpolatingParam id="1326" interp="linr"  time="0/1" value="0" leadInLength="0/1"  />
               <InterpolatingParam id="1327" interp="linr"  time="0/1" value="0" leadInLength="0/1"  />
               <InterpolatingParam id="1328" interp="linr"  time="0/1" value="0" leadInLength="0/1"  />
              </VectorParam>
              <VectorParam id="1329"  name="geometryCrop">
               <InterpolatingParam id="1330" interp="linr"  time="-9999999/1" value="0" leadInLength="0/1"  />
               <InterpolatingParam id="1331" interp="linr"  time="-9999999/1" value="0" leadInLength="0/1"  />
               <InterpolatingParam id="1332" interp="linr"  time="-9999999/1" value="0" leadInLength="0/1"  />
               <InterpolatingParam id="1333" interp="linr"  time="-9999999/1" value="0" leadInLength="0/1"  />
              </VectorParam>
              <InterpolatingParam id="1334" interp="linr"  time="-9999999/1" value="1" leadInLength="0/1"  name="opacity"/>
              <InterpolatingParam id="1335" interp="linr"  time="0/1" value="0" leadInLength="0/1"  name="cursorOpacity"/>
              <InterpolatingParam id="1336" interp="linr"  time="0/1" value="0" leadInLength="0/1"  name="cursorScale"/>
             </Parameters>
             <Attributes>
              <Attribute id="1337" value="" name="ident"/>
             </Attributes>
             <ExtraData>
              <Entry key="ZoomPanBin">
               <ZoomPanBin id="1338"  >
                <ZoomPanKeyframes>
                 <ZoomPanKeyframe id="1339" timeRangeEnd="-9999999/1" timeRangeDuration="0/1" interpolaterName=""  />
                </ZoomPanKeyframes>
               </ZoomPanBin>
              </Entry>
              <Entry key="CursorEffectBin">
               <CursorEffectBin id="1340"  >
                <CursorEffectKeyframes>
                </CursorEffectKeyframes>
               </CursorEffectBin>
              </Entry>
             </ExtraData>
            </ScreenVMFile>
            <MetaData>
             <entry key="AutoAppliedSmartFocus" val="False"/>
             <entry key="WinSubProjectDisplayName" val=""/>
            </MetaData>
           </UnifiedMedia>
           <UnifiedMedia id="1341"  >
            <AMFile id="1342" start="3322" duration="154" scalar="1/1" mediaStart="5537/1" mediaDuration="154/1" trackNumber="1" src="4" channelNumber="0,1" >
             <Parameters>
              <InterpolatingParam id="1343" interp="linr"  time="0/1" value="1" leadInLength="0/1"  name="volume"/>
              <Parameter id="1344"  name="captions"/>
             </Parameters>
             <Attributes>
              <Attribute id="1345" value="" name="ident"/>
              <Attribute id="1346" value="44100" name="sampleRate"/>
              <Attribute id="1347" value="16" name="bitDepth"/>
              <Attribute id="1348" value="1" name="gain"/>
              <Attribute id="1349" value="0" name="mixToMono"/>
             </Attributes>
            </AMFile>
            <ScreenVMFile id="1350" start="3322" duration="154" scalar="1/1" mediaStart="5537/1" mediaDuration="154/1" trackNumber="0" src="4" >
             <Transformer>
              <VectorParam id="1351"  name="translation">
               <InterpolatingParam id="1352" interp="linr"  time="-9999999/1" value="0" leadInLength="0/1"  />
               <InterpolatingParam id="1353" interp="linr"  time="-9999999/1" value="0" leadInLength="0/1"  />
               <InterpolatingParam id="1354" interp="linr"  time="-9999999/1" value="0" leadInLength="0/1"  />
              </VectorParam>
              <VectorParam id="1355"  name="rotation">
               <InterpolatingParam id="1356" interp="linr"  time="-9999999/1" value="0" leadInLength="0/1"  />
               <InterpolatingParam id="1357" interp="linr"  time="-9999999/1" value="0" leadInLength="0/1"  />
               <InterpolatingParam id="1358" interp="linr"  time="-9999999/1" value="0" leadInLength="0/1"  />
              </VectorParam>
              <VectorParam id="1359"  name="shear">
               <InterpolatingParam id="1360" interp="linr"  time="-9999999/1" value="0" leadInLength="0/1"  />
               <InterpolatingParam id="1361" interp="linr"  time="-9999999/1" value="0" leadInLength="0/1"  />
               <InterpolatingParam id="1362" interp="linr"  time="-9999999/1" value="0" leadInLength="0/1"  />
              </VectorParam>
              <VectorParam id="1363"  name="scale">
               <InterpolatingParam id="1364" interp="linr"  time="-9999999/1" value="1" leadInLength="0/1"  />
               <InterpolatingParam id="1365" interp="linr"  time="-9999999/1" value="1" leadInLength="0/1"  />
               <InterpolatingParam id="1366" interp="linr"  time="-9999999/1" value="1" leadInLength="0/1"  />
              </VectorParam>
              <VectorParam id="1367"  name="anchor">
               <InterpolatingParam id="1368" interp="linr"  time="0/1" value="0" leadInLength="0/1"  />
               <InterpolatingParam id="1369" interp="linr"  time="0/1" value="0" leadInLength="0/1"  />
               <InterpolatingParam id="1370" interp="linr"  time="0/1" value="0" leadInLength="0/1"  />
              </VectorParam>
             </Transformer>
             <Parameters>
              <VectorParam id="1371"  name="sourceCrop">
               <InterpolatingParam id="1372" interp="linr"  time="0/1" value="0" leadInLength="0/1"  />
               <InterpolatingParam id="1373" interp="linr"  time="0/1" value="0" leadInLength="0/1"  />
               <InterpolatingParam id="1374" interp="linr"  time="0/1" value="0" leadInLength="0/1"  />
               <InterpolatingParam id="1375" interp="linr"  time="0/1" value="0" leadInLength="0/1"  />
              </VectorParam>
              <VectorParam id="1376"  name="geometryCrop">
               <InterpolatingParam id="1377" interp="linr"  time="-9999999/1" value="0" leadInLength="0/1"  />
               <InterpolatingParam id="1378" interp="linr"  time="-9999999/1" value="0" leadInLength="0/1"  />
               <InterpolatingParam id="1379" interp="linr"  time="-9999999/1" value="0" leadInLength="0/1"  />
               <InterpolatingParam id="1380" interp="linr"  time="-9999999/1" value="0" leadInLength="0/1"  />
              </VectorParam>
              <InterpolatingParam id="1381" interp="linr"  time="-9999999/1" value="1" leadInLength="0/1"  name="opacity"/>
              <InterpolatingParam id="1382" interp="linr"  time="0/1" value="0" leadInLength="0/1"  name="cursorOpacity"/>
              <InterpolatingParam id="1383" interp="linr"  time="0/1" value="0" leadInLength="0/1"  name="cursorScale"/>
             </Parameters>
             <Attributes>
              <Attribute id="1384" value="" name="ident"/>
             </Attributes>
             <ExtraData>
              <Entry key="ZoomPanBin">
               <ZoomPanBin id="1385"  >
                <ZoomPanKeyframes>
                 <ZoomPanKeyframe id="1386" timeRangeEnd="-9999999/1" timeRangeDuration="0/1" interpolaterName=""  />
                </ZoomPanKeyframes>
               </ZoomPanBin>
              </Entry>
              <Entry key="CursorEffectBin">
               <CursorEffectBin id="1387"  >
                <CursorEffectKeyframes>
                </CursorEffectKeyframes>
               </CursorEffectBin>
              </Entry>
             </ExtraData>
            </ScreenVMFile>
            <MetaData>
             <entry key="AutoAppliedSmartFocus" val="False"/>
             <entry key="WinSubProjectDisplayName" val=""/>
            </MetaData>
           </UnifiedMedia>
           <UnifiedMedia id="1388"  >
            <AMFile id="1389" start="3476" duration="128" scalar="1/1" mediaStart="5706/1" mediaDuration="128/1" trackNumber="1" src="4" channelNumber="0,1" >
             <Parameters>
              <InterpolatingParam id="1390" interp="linr"  time="0/1" value="1" leadInLength="0/1"  name="volume"/>
              <Parameter id="1391"  name="captions"/>
             </Parameters>
             <Attributes>
              <Attribute id="1392" value="" name="ident"/>
              <Attribute id="1393" value="44100" name="sampleRate"/>
              <Attribute id="1394" value="16" name="bitDepth"/>
              <Attribute id="1395" value="1" name="gain"/>
              <Attribute id="1396" value="0" name="mixToMono"/>
             </Attributes>
            </AMFile>
            <ScreenVMFile id="1397" start="3476" duration="128" scalar="1/1" mediaStart="5706/1" mediaDuration="128/1" trackNumber="0" src="4" >
             <Transformer>
              <VectorParam id="1398"  name="translation">
               <InterpolatingParam id="1399" interp="linr"  time="-9999999/1" value="0" leadInLength="0/1"  />
               <InterpolatingParam id="1400" interp="linr"  time="-9999999/1" value="0" leadInLength="0/1"  />
               <InterpolatingParam id="1401" interp="linr"  time="-9999999/1" value="0" leadInLength="0/1"  />
              </VectorParam>
              <VectorParam id="1402"  name="rotation">
               <InterpolatingParam id="1403" interp="linr"  time="-9999999/1" value="0" leadInLength="0/1"  />
               <InterpolatingParam id="1404" interp="linr"  time="-9999999/1" value="0" leadInLength="0/1"  />
               <InterpolatingParam id="1405" interp="linr"  time="-9999999/1" value="0" leadInLength="0/1"  />
              </VectorParam>
              <VectorParam id="1406"  name="shear">
               <InterpolatingParam id="1407" interp="linr"  time="-9999999/1" value="0" leadInLength="0/1"  />
               <InterpolatingParam id="1408" interp="linr"  time="-9999999/1" value="0" leadInLength="0/1"  />
               <InterpolatingParam id="1409" interp="linr"  time="-9999999/1" value="0" leadInLength="0/1"  />
              </VectorParam>
              <VectorParam id="1410"  name="scale">
               <InterpolatingParam id="1411" interp="linr"  time="-9999999/1" value="1" leadInLength="0/1"  />
               <InterpolatingParam id="1412" interp="linr"  time="-9999999/1" value="1" leadInLength="0/1"  />
               <InterpolatingParam id="1413" interp="linr"  time="-9999999/1" value="1" leadInLength="0/1"  />
              </VectorParam>
              <VectorParam id="1414"  name="anchor">
               <InterpolatingParam id="1415" interp="linr"  time="0/1" value="0" leadInLength="0/1"  />
               <InterpolatingParam id="1416" interp="linr"  time="0/1" value="0" leadInLength="0/1"  />
               <InterpolatingParam id="1417" interp="linr"  time="0/1" value="0" leadInLength="0/1"  />
              </VectorParam>
             </Transformer>
             <Parameters>
              <VectorParam id="1418"  name="sourceCrop">
               <InterpolatingParam id="1419" interp="linr"  time="0/1" value="0" leadInLength="0/1"  />
               <InterpolatingParam id="1420" interp="linr"  time="0/1" value="0" leadInLength="0/1"  />
               <InterpolatingParam id="1421" interp="linr"  time="0/1" value="0" leadInLength="0/1"  />
               <InterpolatingParam id="1422" interp="linr"  time="0/1" value="0" leadInLength="0/1"  />
              </VectorParam>
              <VectorParam id="1423"  name="geometryCrop">
               <InterpolatingParam id="1424" interp="linr"  time="-9999999/1" value="0" leadInLength="0/1"  />
               <InterpolatingParam id="1425" interp="linr"  time="-9999999/1" value="0" leadInLength="0/1"  />
               <InterpolatingParam id="1426" interp="linr"  time="-9999999/1" value="0" leadInLength="0/1"  />
               <InterpolatingParam id="1427" interp="linr"  time="-9999999/1" value="0" leadInLength="0/1"  />
              </VectorParam>
              <InterpolatingParam id="1428" interp="linr"  time="-9999999/1" value="1" leadInLength="0/1"  name="opacity"/>
              <InterpolatingParam id="1429" interp="linr"  time="0/1" value="0" leadInLength="0/1"  name="cursorOpacity"/>
              <InterpolatingParam id="1430" interp="linr"  time="0/1" value="0" leadInLength="0/1"  name="cursorScale"/>
             </Parameters>
             <Attributes>
              <Attribute id="1431" value="" name="ident"/>
             </Attributes>
             <ExtraData>
              <Entry key="ZoomPanBin">
               <ZoomPanBin id="1432"  >
                <ZoomPanKeyframes>
                 <ZoomPanKeyframe id="1433" timeRangeEnd="-9999999/1" timeRangeDuration="0/1" interpolaterName=""  />
                </ZoomPanKeyframes>
               </ZoomPanBin>
              </Entry>
              <Entry key="CursorEffectBin">
               <CursorEffectBin id="1434"  >
                <CursorEffectKeyframes>
                </CursorEffectKeyframes>
               </CursorEffectBin>
              </Entry>
             </ExtraData>
            </ScreenVMFile>
            <MetaData>
             <entry key="AutoAppliedSmartFocus" val="False"/>
             <entry key="WinSubProjectDisplayName" val=""/>
            </MetaData>
           </UnifiedMedia>
           <UnifiedMedia id="1435"  >
            <AMFile id="1436" start="3604" duration="256" scalar="1/1" mediaStart="6003/1" mediaDuration="256/1" trackNumber="1" src="4" channelNumber="0,1" >
             <Parameters>
              <InterpolatingParam id="1437" interp="linr"  time="0/1" value="1" leadInLength="0/1"  name="volume"/>
              <Parameter id="1438"  name="captions"/>
             </Parameters>
             <Attributes>
              <Attribute id="1439" value="" name="ident"/>
              <Attribute id="1440" value="44100" name="sampleRate"/>
              <Attribute id="1441" value="16" name="bitDepth"/>
              <Attribute id="1442" value="1" name="gain"/>
              <Attribute id="1443" value="0" name="mixToMono"/>
             </Attributes>
            </AMFile>
            <ScreenVMFile id="1444" start="3604" duration="256" scalar="1/1" mediaStart="6003/1" mediaDuration="256/1" trackNumber="0" src="4" >
             <Transformer>
              <VectorParam id="1445"  name="translation">
               <InterpolatingParam id="1446" interp="linr"  time="-9999999/1" value="0" leadInLength="0/1"  />
               <InterpolatingParam id="1447" interp="linr"  time="-9999999/1" value="0" leadInLength="0/1"  />
               <InterpolatingParam id="1448" interp="linr"  time="-9999999/1" value="0" leadInLength="0/1"  />
              </VectorParam>
              <VectorParam id="1449"  name="rotation">
               <InterpolatingParam id="1450" interp="linr"  time="-9999999/1" value="0" leadInLength="0/1"  />
               <InterpolatingParam id="1451" interp="linr"  time="-9999999/1" value="0" leadInLength="0/1"  />
               <InterpolatingParam id="1452" interp="linr"  time="-9999999/1" value="0" leadInLength="0/1"  />
              </VectorParam>
              <VectorParam id="1453"  name="shear">
               <InterpolatingParam id="1454" interp="linr"  time="-9999999/1" value="0" leadInLength="0/1"  />
               <InterpolatingParam id="1455" interp="linr"  time="-9999999/1" value="0" leadInLength="0/1"  />
               <InterpolatingParam id="1456" interp="linr"  time="-9999999/1" value="0" leadInLength="0/1"  />
              </VectorParam>
              <VectorParam id="1457"  name="scale">
               <InterpolatingParam id="1458" interp="linr"  time="-9999999/1" value="1" leadInLength="0/1"  />
               <InterpolatingParam id="1459" interp="linr"  time="-9999999/1" value="1" leadInLength="0/1"  />
               <InterpolatingParam id="1460" interp="linr"  time="-9999999/1" value="1" leadInLength="0/1"  />
              </VectorParam>
              <VectorParam id="1461"  name="anchor">
               <InterpolatingParam id="1462" interp="linr"  time="0/1" value="0" leadInLength="0/1"  />
               <InterpolatingParam id="1463" interp="linr"  time="0/1" value="0" leadInLength="0/1"  />
               <InterpolatingParam id="1464" interp="linr"  time="0/1" value="0" leadInLength="0/1"  />
              </VectorParam>
             </Transformer>
             <Parameters>
              <VectorParam id="1465"  name="sourceCrop">
               <InterpolatingParam id="1466" interp="linr"  time="0/1" value="0" leadInLength="0/1"  />
               <InterpolatingParam id="1467" interp="linr"  time="0/1" value="0" leadInLength="0/1"  />
               <InterpolatingParam id="1468" interp="linr"  time="0/1" value="0" leadInLength="0/1"  />
               <InterpolatingParam id="1469" interp="linr"  time="0/1" value="0" leadInLength="0/1"  />
              </VectorParam>
              <VectorParam id="1470"  name="geometryCrop">
               <InterpolatingParam id="1471" interp="linr"  time="-9999999/1" value="0" leadInLength="0/1"  />
               <InterpolatingParam id="1472" interp="linr"  time="-9999999/1" value="0" leadInLength="0/1"  />
               <InterpolatingParam id="1473" interp="linr"  time="-9999999/1" value="0" leadInLength="0/1"  />
               <InterpolatingParam id="1474" interp="linr"  time="-9999999/1" value="0" leadInLength="0/1"  />
              </VectorParam>
              <InterpolatingParam id="1475" interp="linr"  time="-9999999/1" value="1" leadInLength="0/1"  name="opacity"/>
              <InterpolatingParam id="1476" interp="linr"  time="0/1" value="0" leadInLength="0/1"  name="cursorOpacity"/>
              <InterpolatingParam id="1477" interp="linr"  time="0/1" value="0" leadInLength="0/1"  name="cursorScale"/>
             </Parameters>
             <Attributes>
              <Attribute id="1478" value="" name="ident"/>
             </Attributes>
             <ExtraData>
              <Entry key="ZoomPanBin">
               <ZoomPanBin id="1479"  >
                <ZoomPanKeyframes>
                 <ZoomPanKeyframe id="1480" timeRangeEnd="-9999999/1" timeRangeDuration="0/1" interpolaterName=""  />
                </ZoomPanKeyframes>
               </ZoomPanBin>
              </Entry>
              <Entry key="CursorEffectBin">
               <CursorEffectBin id="1481"  >
                <CursorEffectKeyframes>
                </CursorEffectKeyframes>
               </CursorEffectBin>
              </Entry>
             </ExtraData>
            </ScreenVMFile>
            <MetaData>
             <entry key="AutoAppliedSmartFocus" val="False"/>
             <entry key="WinSubProjectDisplayName" val=""/>
            </MetaData>
           </UnifiedMedia>
           <UnifiedMedia id="1482"  >
            <AMFile id="1483" start="3860" duration="365" scalar="1/1" mediaStart="6373/1" mediaDuration="365/1" trackNumber="1" src="4" channelNumber="0,1" >
             <Parameters>
              <InterpolatingParam id="1484" interp="linr"  time="0/1" value="1" leadInLength="0/1"  name="volume"/>
              <Parameter id="1485"  name="captions"/>
             </Parameters>
             <Attributes>
              <Attribute id="1486" value="" name="ident"/>
              <Attribute id="1487" value="44100" name="sampleRate"/>
              <Attribute id="1488" value="16" name="bitDepth"/>
              <Attribute id="1489" value="1" name="gain"/>
              <Attribute id="1490" value="0" name="mixToMono"/>
             </Attributes>
            </AMFile>
            <ScreenVMFile id="1491" start="3860" duration="365" scalar="1/1" mediaStart="6373/1" mediaDuration="365/1" trackNumber="0" src="4" >
             <Transformer>
              <VectorParam id="1492"  name="translation">
               <InterpolatingParam id="1493" interp="linr"  time="-9999999/1" value="0" leadInLength="0/1"  />
               <InterpolatingParam id="1494" interp="linr"  time="-9999999/1" value="0" leadInLength="0/1"  />
               <InterpolatingParam id="1495" interp="linr"  time="-9999999/1" value="0" leadInLength="0/1"  />
              </VectorParam>
              <VectorParam id="1496"  name="rotation">
               <InterpolatingParam id="1497" interp="linr"  time="-9999999/1" value="0" leadInLength="0/1"  />
               <InterpolatingParam id="1498" interp="linr"  time="-9999999/1" value="0" leadInLength="0/1"  />
               <InterpolatingParam id="1499" interp="linr"  time="-9999999/1" value="0" leadInLength="0/1"  />
              </VectorParam>
              <VectorParam id="1500"  name="shear">
               <InterpolatingParam id="1501" interp="linr"  time="-9999999/1" value="0" leadInLength="0/1"  />
               <InterpolatingParam id="1502" interp="linr"  time="-9999999/1" value="0" leadInLength="0/1"  />
               <InterpolatingParam id="1503" interp="linr"  time="-9999999/1" value="0" leadInLength="0/1"  />
              </VectorParam>
              <VectorParam id="1504"  name="scale">
               <InterpolatingParam id="1505" interp="linr"  time="-9999999/1" value="1" leadInLength="0/1"  />
               <InterpolatingParam id="1506" interp="linr"  time="-9999999/1" value="1" leadInLength="0/1"  />
               <InterpolatingParam id="1507" interp="linr"  time="-9999999/1" value="1" leadInLength="0/1"  />
              </VectorParam>
              <VectorParam id="1508"  name="anchor">
               <InterpolatingParam id="1509" interp="linr"  time="0/1" value="0" leadInLength="0/1"  />
               <InterpolatingParam id="1510" interp="linr"  time="0/1" value="0" leadInLength="0/1"  />
               <InterpolatingParam id="1511" interp="linr"  time="0/1" value="0" leadInLength="0/1"  />
              </VectorParam>
             </Transformer>
             <Parameters>
              <VectorParam id="1512"  name="sourceCrop">
               <InterpolatingParam id="1513" interp="linr"  time="0/1" value="0" leadInLength="0/1"  />
               <InterpolatingParam id="1514" interp="linr"  time="0/1" value="0" leadInLength="0/1"  />
               <InterpolatingParam id="1515" interp="linr"  time="0/1" value="0" leadInLength="0/1"  />
               <InterpolatingParam id="1516" interp="linr"  time="0/1" value="0" leadInLength="0/1"  />
              </VectorParam>
              <VectorParam id="1517"  name="geometryCrop">
               <InterpolatingParam id="1518" interp="linr"  time="-9999999/1" value="0" leadInLength="0/1"  />
               <InterpolatingParam id="1519" interp="linr"  time="-9999999/1" value="0" leadInLength="0/1"  />
               <InterpolatingParam id="1520" interp="linr"  time="-9999999/1" value="0" leadInLength="0/1"  />
               <InterpolatingParam id="1521" interp="linr"  time="-9999999/1" value="0" leadInLength="0/1"  />
              </VectorParam>
              <InterpolatingParam id="1522" interp="linr"  time="-9999999/1" value="1" leadInLength="0/1"  name="opacity"/>
              <InterpolatingParam id="1523" interp="linr"  time="0/1" value="0" leadInLength="0/1"  name="cursorOpacity"/>
              <InterpolatingParam id="1524" interp="linr"  time="0/1" value="0" leadInLength="0/1"  name="cursorScale"/>
             </Parameters>
             <Attributes>
              <Attribute id="1525" value="" name="ident"/>
             </Attributes>
             <ExtraData>
              <Entry key="ZoomPanBin">
               <ZoomPanBin id="1526"  >
                <ZoomPanKeyframes>
                 <ZoomPanKeyframe id="1527" timeRangeEnd="-9999999/1" timeRangeDuration="0/1" interpolaterName=""  />
                </ZoomPanKeyframes>
               </ZoomPanBin>
              </Entry>
              <Entry key="CursorEffectBin">
               <CursorEffectBin id="1528"  >
                <CursorEffectKeyframes>
                </CursorEffectKeyframes>
               </CursorEffectBin>
              </Entry>
             </ExtraData>
            </ScreenVMFile>
            <MetaData>
             <entry key="AutoAppliedSmartFocus" val="False"/>
             <entry key="WinSubProjectDisplayName" val=""/>
            </MetaData>
           </UnifiedMedia>
           <UnifiedMedia id="1529"  >
            <AMFile id="1530" start="4225" duration="96" scalar="1/1" mediaStart="7003/1" mediaDuration="96/1" trackNumber="1" src="4" channelNumber="0,1" >
             <Parameters>
              <InterpolatingParam id="1531" interp="linr"  time="0/1" value="1" leadInLength="0/1"  name="volume"/>
              <Parameter id="1532"  name="captions"/>
             </Parameters>
             <Attributes>
              <Attribute id="1533" value="" name="ident"/>
              <Attribute id="1534" value="44100" name="sampleRate"/>
              <Attribute id="1535" value="16" name="bitDepth"/>
              <Attribute id="1536" value="1" name="gain"/>
              <Attribute id="1537" value="0" name="mixToMono"/>
             </Attributes>
            </AMFile>
            <ScreenVMFile id="1538" start="4225" duration="96" scalar="1/1" mediaStart="7003/1" mediaDuration="96/1" trackNumber="0" src="4" >
             <Transformer>
              <VectorParam id="1539"  name="translation">
               <InterpolatingParam id="1540" interp="linr"  time="-9999999/1" value="0" leadInLength="0/1"  />
               <InterpolatingParam id="1541" interp="linr"  time="-9999999/1" value="0" leadInLength="0/1"  />
               <InterpolatingParam id="1542" interp="linr"  time="-9999999/1" value="0" leadInLength="0/1"  />
              </VectorParam>
              <VectorParam id="1543"  name="rotation">
               <InterpolatingParam id="1544" interp="linr"  time="-9999999/1" value="0" leadInLength="0/1"  />
               <InterpolatingParam id="1545" interp="linr"  time="-9999999/1" value="0" leadInLength="0/1"  />
               <InterpolatingParam id="1546" interp="linr"  time="-9999999/1" value="0" leadInLength="0/1"  />
              </VectorParam>
              <VectorParam id="1547"  name="shear">
               <InterpolatingParam id="1548" interp="linr"  time="-9999999/1" value="0" leadInLength="0/1"  />
               <InterpolatingParam id="1549" interp="linr"  time="-9999999/1" value="0" leadInLength="0/1"  />
               <InterpolatingParam id="1550" interp="linr"  time="-9999999/1" value="0" leadInLength="0/1"  />
              </VectorParam>
              <VectorParam id="1551"  name="scale">
               <InterpolatingParam id="1552" interp="linr"  time="-9999999/1" value="1" leadInLength="0/1"  />
               <InterpolatingParam id="1553" interp="linr"  time="-9999999/1" value="1" leadInLength="0/1"  />
               <InterpolatingParam id="1554" interp="linr"  time="-9999999/1" value="1" leadInLength="0/1"  />
              </VectorParam>
              <VectorParam id="1555"  name="anchor">
               <InterpolatingParam id="1556" interp="linr"  time="0/1" value="0" leadInLength="0/1"  />
               <InterpolatingParam id="1557" interp="linr"  time="0/1" value="0" leadInLength="0/1"  />
               <InterpolatingParam id="1558" interp="linr"  time="0/1" value="0" leadInLength="0/1"  />
              </VectorParam>
             </Transformer>
             <Parameters>
              <VectorParam id="1559"  name="sourceCrop">
               <InterpolatingParam id="1560" interp="linr"  time="0/1" value="0" leadInLength="0/1"  />
               <InterpolatingParam id="1561" interp="linr"  time="0/1" value="0" leadInLength="0/1"  />
               <InterpolatingParam id="1562" interp="linr"  time="0/1" value="0" leadInLength="0/1"  />
               <InterpolatingParam id="1563" interp="linr"  time="0/1" value="0" leadInLength="0/1"  />
              </VectorParam>
              <VectorParam id="1564"  name="geometryCrop">
               <InterpolatingParam id="1565" interp="linr"  time="-9999999/1" value="0" leadInLength="0/1"  />
               <InterpolatingParam id="1566" interp="linr"  time="-9999999/1" value="0" leadInLength="0/1"  />
               <InterpolatingParam id="1567" interp="linr"  time="-9999999/1" value="0" leadInLength="0/1"  />
               <InterpolatingParam id="1568" interp="linr"  time="-9999999/1" value="0" leadInLength="0/1"  />
              </VectorParam>
              <InterpolatingParam id="1569" interp="linr"  time="-9999999/1" value="1" leadInLength="0/1"  name="opacity"/>
              <InterpolatingParam id="1570" interp="linr"  time="0/1" value="0" leadInLength="0/1"  name="cursorOpacity"/>
              <InterpolatingParam id="1571" interp="linr"  time="0/1" value="0" leadInLength="0/1"  name="cursorScale"/>
             </Parameters>
             <Attributes>
              <Attribute id="1572" value="" name="ident"/>
             </Attributes>
             <ExtraData>
              <Entry key="ZoomPanBin">
               <ZoomPanBin id="1573"  >
                <ZoomPanKeyframes>
                 <ZoomPanKeyframe id="1574" timeRangeEnd="-9999999/1" timeRangeDuration="0/1" interpolaterName=""  />
                </ZoomPanKeyframes>
               </ZoomPanBin>
              </Entry>
              <Entry key="CursorEffectBin">
               <CursorEffectBin id="1575"  >
                <CursorEffectKeyframes>
                </CursorEffectKeyframes>
               </CursorEffectBin>
              </Entry>
             </ExtraData>
            </ScreenVMFile>
            <MetaData>
             <entry key="AutoAppliedSmartFocus" val="False"/>
             <entry key="WinSubProjectDisplayName" val=""/>
            </MetaData>
           </UnifiedMedia>
           <UnifiedMedia id="1576"  >
            <AMFile id="1577" start="4321" duration="100" scalar="1/1" mediaStart="7107/1" mediaDuration="100/1" trackNumber="1" src="4" channelNumber="0,1" >
             <Parameters>
              <InterpolatingParam id="1578" interp="linr"  time="0/1" value="1" leadInLength="0/1"  name="volume"/>
              <Parameter id="1579"  name="captions"/>
             </Parameters>
             <Attributes>
              <Attribute id="1580" value="" name="ident"/>
              <Attribute id="1581" value="44100" name="sampleRate"/>
              <Attribute id="1582" value="16" name="bitDepth"/>
              <Attribute id="1583" value="1" name="gain"/>
              <Attribute id="1584" value="0" name="mixToMono"/>
             </Attributes>
            </AMFile>
            <ScreenVMFile id="1585" start="4321" duration="100" scalar="1/1" mediaStart="7107/1" mediaDuration="100/1" trackNumber="0" src="4" >
             <Transformer>
              <VectorParam id="1586"  name="translation">
               <InterpolatingParam id="1587" interp="linr"  time="-9999999/1" value="0" leadInLength="0/1"  />
               <InterpolatingParam id="1588" interp="linr"  time="-9999999/1" value="0" leadInLength="0/1"  />
               <InterpolatingParam id="1589" interp="linr"  time="-9999999/1" value="0" leadInLength="0/1"  />
              </VectorParam>
              <VectorParam id="1590"  name="rotation">
               <InterpolatingParam id="1591" interp="linr"  time="-9999999/1" value="0" leadInLength="0/1"  />
               <InterpolatingParam id="1592" interp="linr"  time="-9999999/1" value="0" leadInLength="0/1"  />
               <InterpolatingParam id="1593" interp="linr"  time="-9999999/1" value="0" leadInLength="0/1"  />
              </VectorParam>
              <VectorParam id="1594"  name="shear">
               <InterpolatingParam id="1595" interp="linr"  time="-9999999/1" value="0" leadInLength="0/1"  />
               <InterpolatingParam id="1596" interp="linr"  time="-9999999/1" value="0" leadInLength="0/1"  />
               <InterpolatingParam id="1597" interp="linr"  time="-9999999/1" value="0" leadInLength="0/1"  />
              </VectorParam>
              <VectorParam id="1598"  name="scale">
               <InterpolatingParam id="1599" interp="linr"  time="-9999999/1" value="1" leadInLength="0/1"  />
               <InterpolatingParam id="1600" interp="linr"  time="-9999999/1" value="1" leadInLength="0/1"  />
               <InterpolatingParam id="1601" interp="linr"  time="-9999999/1" value="1" leadInLength="0/1"  />
              </VectorParam>
              <VectorParam id="1602"  name="anchor">
               <InterpolatingParam id="1603" interp="linr"  time="0/1" value="0" leadInLength="0/1"  />
               <InterpolatingParam id="1604" interp="linr"  time="0/1" value="0" leadInLength="0/1"  />
               <InterpolatingParam id="1605" interp="linr"  time="0/1" value="0" leadInLength="0/1"  />
              </VectorParam>
             </Transformer>
             <Parameters>
              <VectorParam id="1606"  name="sourceCrop">
               <InterpolatingParam id="1607" interp="linr"  time="0/1" value="0" leadInLength="0/1"  />
               <InterpolatingParam id="1608" interp="linr"  time="0/1" value="0" leadInLength="0/1"  />
               <InterpolatingParam id="1609" interp="linr"  time="0/1" value="0" leadInLength="0/1"  />
               <InterpolatingParam id="1610" interp="linr"  time="0/1" value="0" leadInLength="0/1"  />
              </VectorParam>
              <VectorParam id="1611"  name="geometryCrop">
               <InterpolatingParam id="1612" interp="linr"  time="-9999999/1" value="0" leadInLength="0/1"  />
               <InterpolatingParam id="1613" interp="linr"  time="-9999999/1" value="0" leadInLength="0/1"  />
               <InterpolatingParam id="1614" interp="linr"  time="-9999999/1" value="0" leadInLength="0/1"  />
               <InterpolatingParam id="1615" interp="linr"  time="-9999999/1" value="0" leadInLength="0/1"  />
              </VectorParam>
              <InterpolatingParam id="1616" interp="linr"  time="-9999999/1" value="1" leadInLength="0/1"  name="opacity"/>
              <InterpolatingParam id="1617" interp="linr"  time="0/1" value="0" leadInLength="0/1"  name="cursorOpacity"/>
              <InterpolatingParam id="1618" interp="linr"  time="0/1" value="0" leadInLength="0/1"  name="cursorScale"/>
             </Parameters>
             <Attributes>
              <Attribute id="1619" value="" name="ident"/>
             </Attributes>
             <ExtraData>
              <Entry key="ZoomPanBin">
               <ZoomPanBin id="1620"  >
                <ZoomPanKeyframes>
                 <ZoomPanKeyframe id="1621" timeRangeEnd="-9999999/1" timeRangeDuration="0/1" interpolaterName=""  />
                </ZoomPanKeyframes>
               </ZoomPanBin>
              </Entry>
              <Entry key="CursorEffectBin">
               <CursorEffectBin id="1622"  >
                <CursorEffectKeyframes>
                </CursorEffectKeyframes>
               </CursorEffectBin>
              </Entry>
             </ExtraData>
            </ScreenVMFile>
            <MetaData>
             <entry key="AutoAppliedSmartFocus" val="False"/>
             <entry key="WinSubProjectDisplayName" val=""/>
            </MetaData>
           </UnifiedMedia>
           <UnifiedMedia id="1623"  >
            <AMFile id="1624" start="4421" duration="68" scalar="1/1" mediaStart="7298/1" mediaDuration="68/1" trackNumber="1" src="4" channelNumber="0,1" >
             <Parameters>
              <InterpolatingParam id="1625" interp="linr"  time="0/1" value="1" leadInLength="0/1"  name="volume"/>
              <Parameter id="1626"  name="captions"/>
             </Parameters>
             <Attributes>
              <Attribute id="1627" value="" name="ident"/>
              <Attribute id="1628" value="44100" name="sampleRate"/>
              <Attribute id="1629" value="16" name="bitDepth"/>
              <Attribute id="1630" value="1" name="gain"/>
              <Attribute id="1631" value="0" name="mixToMono"/>
             </Attributes>
            </AMFile>
            <ScreenVMFile id="1632" start="4421" duration="68" scalar="1/1" mediaStart="7298/1" mediaDuration="68/1" trackNumber="0" src="4" >
             <Transformer>
              <VectorParam id="1633"  name="translation">
               <InterpolatingParam id="1634" interp="linr"  time="-9999999/1" value="0" leadInLength="0/1"  />
               <InterpolatingParam id="1635" interp="linr"  time="-9999999/1" value="0" leadInLength="0/1"  />
               <InterpolatingParam id="1636" interp="linr"  time="-9999999/1" value="0" leadInLength="0/1"  />
              </VectorParam>
              <VectorParam id="1637"  name="rotation">
               <InterpolatingParam id="1638" interp="linr"  time="-9999999/1" value="0" leadInLength="0/1"  />
               <InterpolatingParam id="1639" interp="linr"  time="-9999999/1" value="0" leadInLength="0/1"  />
               <InterpolatingParam id="1640" interp="linr"  time="-9999999/1" value="0" leadInLength="0/1"  />
              </VectorParam>
              <VectorParam id="1641"  name="shear">
               <InterpolatingParam id="1642" interp="linr"  time="-9999999/1" value="0" leadInLength="0/1"  />
               <InterpolatingParam id="1643" interp="linr"  time="-9999999/1" value="0" leadInLength="0/1"  />
               <InterpolatingParam id="1644" interp="linr"  time="-9999999/1" value="0" leadInLength="0/1"  />
              </VectorParam>
              <VectorParam id="1645"  name="scale">
               <InterpolatingParam id="1646" interp="linr"  time="-9999999/1" value="1" leadInLength="0/1"  />
               <InterpolatingParam id="1647" interp="linr"  time="-9999999/1" value="1" leadInLength="0/1"  />
               <InterpolatingParam id="1648" interp="linr"  time="-9999999/1" value="1" leadInLength="0/1"  />
              </VectorParam>
              <VectorParam id="1649"  name="anchor">
               <InterpolatingParam id="1650" interp="linr"  time="0/1" value="0" leadInLength="0/1"  />
               <InterpolatingParam id="1651" interp="linr"  time="0/1" value="0" leadInLength="0/1"  />
               <InterpolatingParam id="1652" interp="linr"  time="0/1" value="0" leadInLength="0/1"  />
              </VectorParam>
             </Transformer>
             <Parameters>
              <VectorParam id="1653"  name="sourceCrop">
               <InterpolatingParam id="1654" interp="linr"  time="0/1" value="0" leadInLength="0/1"  />
               <InterpolatingParam id="1655" interp="linr"  time="0/1" value="0" leadInLength="0/1"  />
               <InterpolatingParam id="1656" interp="linr"  time="0/1" value="0" leadInLength="0/1"  />
               <InterpolatingParam id="1657" interp="linr"  time="0/1" value="0" leadInLength="0/1"  />
              </VectorParam>
              <VectorParam id="1658"  name="geometryCrop">
               <InterpolatingParam id="1659" interp="linr"  time="-9999999/1" value="0" leadInLength="0/1"  />
               <InterpolatingParam id="1660" interp="linr"  time="-9999999/1" value="0" leadInLength="0/1"  />
               <InterpolatingParam id="1661" interp="linr"  time="-9999999/1" value="0" leadInLength="0/1"  />
               <InterpolatingParam id="1662" interp="linr"  time="-9999999/1" value="0" leadInLength="0/1"  />
              </VectorParam>
              <InterpolatingParam id="1663" interp="linr"  time="-9999999/1" value="1" leadInLength="0/1"  name="opacity"/>
              <InterpolatingParam id="1664" interp="linr"  time="0/1" value="0" leadInLength="0/1"  name="cursorOpacity"/>
              <InterpolatingParam id="1665" interp="linr"  time="0/1" value="0" leadInLength="0/1"  name="cursorScale"/>
             </Parameters>
             <Attributes>
              <Attribute id="1666" value="" name="ident"/>
             </Attributes>
             <ExtraData>
              <Entry key="ZoomPanBin">
               <ZoomPanBin id="1667"  >
                <ZoomPanKeyframes>
                 <ZoomPanKeyframe id="1668" timeRangeEnd="-9999999/1" timeRangeDuration="0/1" interpolaterName=""  />
                </ZoomPanKeyframes>
               </ZoomPanBin>
              </Entry>
              <Entry key="CursorEffectBin">
               <CursorEffectBin id="1669"  >
                <CursorEffectKeyframes>
                </CursorEffectKeyframes>
               </CursorEffectBin>
              </Entry>
             </ExtraData>
            </ScreenVMFile>
            <MetaData>
             <entry key="AutoAppliedSmartFocus" val="False"/>
             <entry key="WinSubProjectDisplayName" val=""/>
            </MetaData>
           </UnifiedMedia>
           <UnifiedMedia id="1670"  >
            <AMFile id="1671" start="4489" duration="438" scalar="1/1" mediaStart="7373/1" mediaDuration="438/1" trackNumber="1" src="4" channelNumber="0,1" >
             <Parameters>
              <InterpolatingParam id="1672" interp="linr"  time="0/1" value="1" leadInLength="0/1"  name="volume"/>
              <Parameter id="1673"  name="captions"/>
             </Parameters>
             <Attributes>
              <Attribute id="1674" value="" name="ident"/>
              <Attribute id="1675" value="44100" name="sampleRate"/>
              <Attribute id="1676" value="16" name="bitDepth"/>
              <Attribute id="1677" value="1" name="gain"/>
              <Attribute id="1678" value="0" name="mixToMono"/>
             </Attributes>
            </AMFile>
            <ScreenVMFile id="1679" start="4489" duration="438" scalar="1/1" mediaStart="7373/1" mediaDuration="438/1" trackNumber="0" src="4" >
             <Transformer>
              <VectorParam id="1680"  name="translation">
               <InterpolatingParam id="1681" interp="linr"  time="-9999999/1" value="0" leadInLength="0/1"  />
               <InterpolatingParam id="1682" interp="linr"  time="-9999999/1" value="0" leadInLength="0/1"  />
               <InterpolatingParam id="1683" interp="linr"  time="-9999999/1" value="0" leadInLength="0/1"  />
              </VectorParam>
              <VectorParam id="1684"  name="rotation">
               <InterpolatingParam id="1685" interp="linr"  time="-9999999/1" value="0" leadInLength="0/1"  />
               <InterpolatingParam id="1686" interp="linr"  time="-9999999/1" value="0" leadInLength="0/1"  />
               <InterpolatingParam id="1687" interp="linr"  time="-9999999/1" value="0" leadInLength="0/1"  />
              </VectorParam>
              <VectorParam id="1688"  name="shear">
               <InterpolatingParam id="1689" interp="linr"  time="-9999999/1" value="0" leadInLength="0/1"  />
               <InterpolatingParam id="1690" interp="linr"  time="-9999999/1" value="0" leadInLength="0/1"  />
               <InterpolatingParam id="1691" interp="linr"  time="-9999999/1" value="0" leadInLength="0/1"  />
              </VectorParam>
              <VectorParam id="1692"  name="scale">
               <InterpolatingParam id="1693" interp="linr"  time="-9999999/1" value="1" leadInLength="0/1"  />
               <InterpolatingParam id="1694" interp="linr"  time="-9999999/1" value="1" leadInLength="0/1"  />
               <InterpolatingParam id="1695" interp="linr"  time="-9999999/1" value="1" leadInLength="0/1"  />
              </VectorParam>
              <VectorParam id="1696"  name="anchor">
               <InterpolatingParam id="1697" interp="linr"  time="0/1" value="0" leadInLength="0/1"  />
               <InterpolatingParam id="1698" interp="linr"  time="0/1" value="0" leadInLength="0/1"  />
               <InterpolatingParam id="1699" interp="linr"  time="0/1" value="0" leadInLength="0/1"  />
              </VectorParam>
             </Transformer>
             <Parameters>
              <VectorParam id="1700"  name="sourceCrop">
               <InterpolatingParam id="1701" interp="linr"  time="0/1" value="0" leadInLength="0/1"  />
               <InterpolatingParam id="1702" interp="linr"  time="0/1" value="0" leadInLength="0/1"  />
               <InterpolatingParam id="1703" interp="linr"  time="0/1" value="0" leadInLength="0/1"  />
               <InterpolatingParam id="1704" interp="linr"  time="0/1" value="0" leadInLength="0/1"  />
              </VectorParam>
              <VectorParam id="1705"  name="geometryCrop">
               <InterpolatingParam id="1706" interp="linr"  time="-9999999/1" value="0" leadInLength="0/1"  />
               <InterpolatingParam id="1707" interp="linr"  time="-9999999/1" value="0" leadInLength="0/1"  />
               <InterpolatingParam id="1708" interp="linr"  time="-9999999/1" value="0" leadInLength="0/1"  />
               <InterpolatingParam id="1709" interp="linr"  time="-9999999/1" value="0" leadInLength="0/1"  />
              </VectorParam>
              <InterpolatingParam id="1710" interp="linr"  time="-9999999/1" value="1" leadInLength="0/1"  name="opacity"/>
              <InterpolatingParam id="1711" interp="linr"  time="0/1" value="0" leadInLength="0/1"  name="cursorOpacity"/>
              <InterpolatingParam id="1712" interp="linr"  time="0/1" value="0" leadInLength="0/1"  name="cursorScale"/>
             </Parameters>
             <Attributes>
              <Attribute id="1713" value="" name="ident"/>
             </Attributes>
             <ExtraData>
              <Entry key="ZoomPanBin">
               <ZoomPanBin id="1714"  >
                <ZoomPanKeyframes>
                 <ZoomPanKeyframe id="1715" timeRangeEnd="-9999999/1" timeRangeDuration="0/1" interpolaterName=""  />
                </ZoomPanKeyframes>
               </ZoomPanBin>
              </Entry>
              <Entry key="CursorEffectBin">
               <CursorEffectBin id="1716"  >
                <CursorEffectKeyframes>
                </CursorEffectKeyframes>
               </CursorEffectBin>
              </Entry>
             </ExtraData>
            </ScreenVMFile>
            <MetaData>
             <entry key="AutoAppliedSmartFocus" val="False"/>
             <entry key="WinSubProjectDisplayName" val=""/>
            </MetaData>
           </UnifiedMedia>
           <UnifiedMedia id="1717"  >
            <AMFile id="1718" start="4927" duration="94" scalar="1/1" mediaStart="8166/1" mediaDuration="94/1" trackNumber="1" src="4" channelNumber="0,1" >
             <Parameters>
              <InterpolatingParam id="1719" interp="linr"  time="0/1" value="1" leadInLength="0/1"  name="volume"/>
              <Parameter id="1720"  name="captions"/>
             </Parameters>
             <Attributes>
              <Attribute id="1721" value="" name="ident"/>
              <Attribute id="1722" value="44100" name="sampleRate"/>
              <Attribute id="1723" value="16" name="bitDepth"/>
              <Attribute id="1724" value="1" name="gain"/>
              <Attribute id="1725" value="0" name="mixToMono"/>
             </Attributes>
            </AMFile>
            <ScreenVMFile id="1726" start="4927" duration="94" scalar="1/1" mediaStart="8166/1" mediaDuration="94/1" trackNumber="0" src="4" >
             <Transformer>
              <VectorParam id="1727"  name="translation">
               <InterpolatingParam id="1728" interp="linr"  time="-9999999/1" value="0" leadInLength="0/1"  />
               <InterpolatingParam id="1729" interp="linr"  time="-9999999/1" value="0" leadInLength="0/1"  />
               <InterpolatingParam id="1730" interp="linr"  time="-9999999/1" value="0" leadInLength="0/1"  />
              </VectorParam>
              <VectorParam id="1731"  name="rotation">
               <InterpolatingParam id="1732" interp="linr"  time="-9999999/1" value="0" leadInLength="0/1"  />
               <InterpolatingParam id="1733" interp="linr"  time="-9999999/1" value="0" leadInLength="0/1"  />
               <InterpolatingParam id="1734" interp="linr"  time="-9999999/1" value="0" leadInLength="0/1"  />
              </VectorParam>
              <VectorParam id="1735"  name="shear">
               <InterpolatingParam id="1736" interp="linr"  time="-9999999/1" value="0" leadInLength="0/1"  />
               <InterpolatingParam id="1737" interp="linr"  time="-9999999/1" value="0" leadInLength="0/1"  />
               <InterpolatingParam id="1738" interp="linr"  time="-9999999/1" value="0" leadInLength="0/1"  />
              </VectorParam>
              <VectorParam id="1739"  name="scale">
               <InterpolatingParam id="1740" interp="linr"  time="-9999999/1" value="1" leadInLength="0/1"  />
               <InterpolatingParam id="1741" interp="linr"  time="-9999999/1" value="1" leadInLength="0/1"  />
               <InterpolatingParam id="1742" interp="linr"  time="-9999999/1" value="1" leadInLength="0/1"  />
              </VectorParam>
              <VectorParam id="1743"  name="anchor">
               <InterpolatingParam id="1744" interp="linr"  time="0/1" value="0" leadInLength="0/1"  />
               <InterpolatingParam id="1745" interp="linr"  time="0/1" value="0" leadInLength="0/1"  />
               <InterpolatingParam id="1746" interp="linr"  time="0/1" value="0" leadInLength="0/1"  />
              </VectorParam>
             </Transformer>
             <Parameters>
              <VectorParam id="1747"  name="sourceCrop">
               <InterpolatingParam id="1748" interp="linr"  time="0/1" value="0" leadInLength="0/1"  />
               <InterpolatingParam id="1749" interp="linr"  time="0/1" value="0" leadInLength="0/1"  />
               <InterpolatingParam id="1750" interp="linr"  time="0/1" value="0" leadInLength="0/1"  />
               <InterpolatingParam id="1751" interp="linr"  time="0/1" value="0" leadInLength="0/1"  />
              </VectorParam>
              <VectorParam id="1752"  name="geometryCrop">
               <InterpolatingParam id="1753" interp="linr"  time="-9999999/1" value="0" leadInLength="0/1"  />
               <InterpolatingParam id="1754" interp="linr"  time="-9999999/1" value="0" leadInLength="0/1"  />
               <InterpolatingParam id="1755" interp="linr"  time="-9999999/1" value="0" leadInLength="0/1"  />
               <InterpolatingParam id="1756" interp="linr"  time="-9999999/1" value="0" leadInLength="0/1"  />
              </VectorParam>
              <InterpolatingParam id="1757" interp="linr"  time="-9999999/1" value="1" leadInLength="0/1"  name="opacity"/>
              <InterpolatingParam id="1758" interp="linr"  time="0/1" value="0" leadInLength="0/1"  name="cursorOpacity"/>
              <InterpolatingParam id="1759" interp="linr"  time="0/1" value="0" leadInLength="0/1"  name="cursorScale"/>
             </Parameters>
             <Attributes>
              <Attribute id="1760" value="" name="ident"/>
             </Attributes>
             <ExtraData>
              <Entry key="ZoomPanBin">
               <ZoomPanBin id="1761"  >
                <ZoomPanKeyframes>
                 <ZoomPanKeyframe id="1762" timeRangeEnd="-9999999/1" timeRangeDuration="0/1" interpolaterName=""  />
                </ZoomPanKeyframes>
               </ZoomPanBin>
              </Entry>
              <Entry key="CursorEffectBin">
               <CursorEffectBin id="1763"  >
                <CursorEffectKeyframes>
                </CursorEffectKeyframes>
               </CursorEffectBin>
              </Entry>
             </ExtraData>
            </ScreenVMFile>
            <MetaData>
             <entry key="AutoAppliedSmartFocus" val="False"/>
             <entry key="WinSubProjectDisplayName" val=""/>
            </MetaData>
           </UnifiedMedia>
           <UnifiedMedia id="1764"  >
            <AMFile id="1765" start="5021" duration="94" scalar="1/1" mediaStart="8272/1" mediaDuration="94/1" trackNumber="1" src="4" channelNumber="0,1" >
             <Parameters>
              <InterpolatingParam id="1766" interp="linr"  time="0/1" value="1" leadInLength="0/1"  name="volume"/>
              <Parameter id="1767"  name="captions"/>
             </Parameters>
             <Attributes>
              <Attribute id="1768" value="" name="ident"/>
              <Attribute id="1769" value="44100" name="sampleRate"/>
              <Attribute id="1770" value="16" name="bitDepth"/>
              <Attribute id="1771" value="1" name="gain"/>
              <Attribute id="1772" value="0" name="mixToMono"/>
             </Attributes>
            </AMFile>
            <ScreenVMFile id="1773" start="5021" duration="94" scalar="1/1" mediaStart="8272/1" mediaDuration="94/1" trackNumber="0" src="4" >
             <Transformer>
              <VectorParam id="1774"  name="translation">
               <InterpolatingParam id="1775" interp="linr"  time="-9999999/1" value="0" leadInLength="0/1"  />
               <InterpolatingParam id="1776" interp="linr"  time="-9999999/1" value="0" leadInLength="0/1"  />
               <InterpolatingParam id="1777" interp="linr"  time="-9999999/1" value="0" leadInLength="0/1"  />
              </VectorParam>
              <VectorParam id="1778"  name="rotation">
               <InterpolatingParam id="1779" interp="linr"  time="-9999999/1" value="0" leadInLength="0/1"  />
               <InterpolatingParam id="1780" interp="linr"  time="-9999999/1" value="0" leadInLength="0/1"  />
               <InterpolatingParam id="1781" interp="linr"  time="-9999999/1" value="0" leadInLength="0/1"  />
              </VectorParam>
              <VectorParam id="1782"  name="shear">
               <InterpolatingParam id="1783" interp="linr"  time="-9999999/1" value="0" leadInLength="0/1"  />
               <InterpolatingParam id="1784" interp="linr"  time="-9999999/1" value="0" leadInLength="0/1"  />
               <InterpolatingParam id="1785" interp="linr"  time="-9999999/1" value="0" leadInLength="0/1"  />
              </VectorParam>
              <VectorParam id="1786"  name="scale">
               <InterpolatingParam id="1787" interp="linr"  time="-9999999/1" value="1" leadInLength="0/1"  />
               <InterpolatingParam id="1788" interp="linr"  time="-9999999/1" value="1" leadInLength="0/1"  />
               <InterpolatingParam id="1789" interp="linr"  time="-9999999/1" value="1" leadInLength="0/1"  />
              </VectorParam>
              <VectorParam id="1790"  name="anchor">
               <InterpolatingParam id="1791" interp="linr"  time="0/1" value="0" leadInLength="0/1"  />
               <InterpolatingParam id="1792" interp="linr"  time="0/1" value="0" leadInLength="0/1"  />
               <InterpolatingParam id="1793" interp="linr"  time="0/1" value="0" leadInLength="0/1"  />
              </VectorParam>
             </Transformer>
             <Parameters>
              <VectorParam id="1794"  name="sourceCrop">
               <InterpolatingParam id="1795" interp="linr"  time="0/1" value="0" leadInLength="0/1"  />
               <InterpolatingParam id="1796" interp="linr"  time="0/1" value="0" leadInLength="0/1"  />
               <InterpolatingParam id="1797" interp="linr"  time="0/1" value="0" leadInLength="0/1"  />
               <InterpolatingParam id="1798" interp="linr"  time="0/1" value="0" leadInLength="0/1"  />
              </VectorParam>
              <VectorParam id="1799"  name="geometryCrop">
               <InterpolatingParam id="1800" interp="linr"  time="-9999999/1" value="0" leadInLength="0/1"  />
               <InterpolatingParam id="1801" interp="linr"  time="-9999999/1" value="0" leadInLength="0/1"  />
               <InterpolatingParam id="1802" interp="linr"  time="-9999999/1" value="0" leadInLength="0/1"  />
               <InterpolatingParam id="1803" interp="linr"  time="-9999999/1" value="0" leadInLength="0/1"  />
              </VectorParam>
              <InterpolatingParam id="1804" interp="linr"  time="-9999999/1" value="1" leadInLength="0/1"  name="opacity"/>
              <InterpolatingParam id="1805" interp="linr"  time="0/1" value="0" leadInLength="0/1"  name="cursorOpacity"/>
              <InterpolatingParam id="1806" interp="linr"  time="0/1" value="0" leadInLength="0/1"  name="cursorScale"/>
             </Parameters>
             <Attributes>
              <Attribute id="1807" value="" name="ident"/>
             </Attributes>
             <ExtraData>
              <Entry key="ZoomPanBin">
               <ZoomPanBin id="1808"  >
                <ZoomPanKeyframes>
                 <ZoomPanKeyframe id="1809" timeRangeEnd="-9999999/1" timeRangeDuration="0/1" interpolaterName=""  />
                </ZoomPanKeyframes>
               </ZoomPanBin>
              </Entry>
              <Entry key="CursorEffectBin">
               <CursorEffectBin id="1810"  >
                <CursorEffectKeyframes>
                </CursorEffectKeyframes>
               </CursorEffectBin>
              </Entry>
             </ExtraData>
            </ScreenVMFile>
            <MetaData>
             <entry key="AutoAppliedSmartFocus" val="False"/>
             <entry key="WinSubProjectDisplayName" val=""/>
            </MetaData>
           </UnifiedMedia>
           <UnifiedMedia id="1811"  >
            <AMFile id="1812" start="5115" duration="12952" scalar="1/1" mediaStart="8379/1" mediaDuration="12952/1" trackNumber="1" src="4" channelNumber="0,1" >
             <Parameters>
              <InterpolatingParam id="1813" interp="linr"  time="0/1" value="1" leadInLength="0/1"  name="volume"/>
              <Parameter id="1814"  name="captions"/>
             </Parameters>
             <Attributes>
              <Attribute id="1815" value="" name="ident"/>
              <Attribute id="1816" value="44100" name="sampleRate"/>
              <Attribute id="1817" value="16" name="bitDepth"/>
              <Attribute id="1818" value="1" name="gain"/>
              <Attribute id="1819" value="0" name="mixToMono"/>
             </Attributes>
            </AMFile>
            <ScreenVMFile id="1820" start="5115" duration="12952" scalar="1/1" mediaStart="8379/1" mediaDuration="12952/1" trackNumber="0" src="4" >
             <Transformer>
              <VectorParam id="1821"  name="translation">
               <InterpolatingParam id="1822" interp="linr"  time="-9999999/1" value="0" leadInLength="0/1"  />
               <InterpolatingParam id="1823" interp="linr"  time="-9999999/1" value="0" leadInLength="0/1"  />
               <InterpolatingParam id="1824" interp="linr"  time="-9999999/1" value="0" leadInLength="0/1"  />
              </VectorParam>
              <VectorParam id="1825"  name="rotation">
               <InterpolatingParam id="1826" interp="linr"  time="-9999999/1" value="0" leadInLength="0/1"  />
               <InterpolatingParam id="1827" interp="linr"  time="-9999999/1" value="0" leadInLength="0/1"  />
               <InterpolatingParam id="1828" interp="linr"  time="-9999999/1" value="0" leadInLength="0/1"  />
              </VectorParam>
              <VectorParam id="1829"  name="shear">
               <InterpolatingParam id="1830" interp="linr"  time="-9999999/1" value="0" leadInLength="0/1"  />
               <InterpolatingParam id="1831" interp="linr"  time="-9999999/1" value="0" leadInLength="0/1"  />
               <InterpolatingParam id="1832" interp="linr"  time="-9999999/1" value="0" leadInLength="0/1"  />
              </VectorParam>
              <VectorParam id="1833"  name="scale">
               <InterpolatingParam id="1834" interp="linr"  time="-9999999/1" value="1" leadInLength="0/1"  />
               <InterpolatingParam id="1835" interp="linr"  time="-9999999/1" value="1" leadInLength="0/1"  />
               <InterpolatingParam id="1836" interp="linr"  time="-9999999/1" value="1" leadInLength="0/1"  />
              </VectorParam>
              <VectorParam id="1837"  name="anchor">
               <InterpolatingParam id="1838" interp="linr"  time="0/1" value="0" leadInLength="0/1"  />
               <InterpolatingParam id="1839" interp="linr"  time="0/1" value="0" leadInLength="0/1"  />
               <InterpolatingParam id="1840" interp="linr"  time="0/1" value="0" leadInLength="0/1"  />
              </VectorParam>
             </Transformer>
             <Parameters>
              <VectorParam id="1841"  name="sourceCrop">
               <InterpolatingParam id="1842" interp="linr"  time="0/1" value="0" leadInLength="0/1"  />
               <InterpolatingParam id="1843" interp="linr"  time="0/1" value="0" leadInLength="0/1"  />
               <InterpolatingParam id="1844" interp="linr"  time="0/1" value="0" leadInLength="0/1"  />
               <InterpolatingParam id="1845" interp="linr"  time="0/1" value="0" leadInLength="0/1"  />
              </VectorParam>
              <VectorParam id="1846"  name="geometryCrop">
               <InterpolatingParam id="1847" interp="linr"  time="-9999999/1" value="0" leadInLength="0/1"  />
               <InterpolatingParam id="1848" interp="linr"  time="-9999999/1" value="0" leadInLength="0/1"  />
               <InterpolatingParam id="1849" interp="linr"  time="-9999999/1" value="0" leadInLength="0/1"  />
               <InterpolatingParam id="1850" interp="linr"  time="-9999999/1" value="0" leadInLength="0/1"  />
              </VectorParam>
              <InterpolatingParam id="1851" interp="linr"  time="-9999999/1" value="1" leadInLength="0/1"  name="opacity"/>
              <InterpolatingParam id="1852" interp="linr"  time="0/1" value="0" leadInLength="0/1"  name="cursorOpacity"/>
              <InterpolatingParam id="1853" interp="linr"  time="0/1" value="0" leadInLength="0/1"  name="cursorScale"/>
             </Parameters>
             <Attributes>
              <Attribute id="1854" value="" name="ident"/>
             </Attributes>
             <ExtraData>
              <Entry key="ZoomPanBin">
               <ZoomPanBin id="1855"  >
                <ZoomPanKeyframes>
                 <ZoomPanKeyframe id="1856" timeRangeEnd="-9999999/1" timeRangeDuration="0/1" interpolaterName=""  />
                </ZoomPanKeyframes>
               </ZoomPanBin>
              </Entry>
              <Entry key="CursorEffectBin">
               <CursorEffectBin id="1857"  >
                <CursorEffectKeyframes>
                </CursorEffectKeyframes>
               </CursorEffectBin>
              </Entry>
             </ExtraData>
            </ScreenVMFile>
            <MetaData>
             <entry key="AutoAppliedSmartFocus" val="False"/>
             <entry key="WinSubProjectDisplayName" val=""/>
            </MetaData>
           </UnifiedMedia>
          </Medias>
         </GenericTrack>
        </StitchedMedia>
        <StitchedMedia id="1858" start="4784" duration="4615" scalar="1/1" mediaStart="5249/1" mediaDuration="4615/1" minMediaStart="0/1" >
         <Transformer>
          <VectorParam id="1859"  name="translation">
           <InterpolatingParam id="1860" interp="linr"  time="-9999999/1" value="-3.637978807091713e-010" leadInLength="0/1"  />
           <InterpolatingParam id="1861" interp="linr"  time="-9999999/1" value="9.2313712229952216e-011" leadInLength="0/1"  />
           <InterpolatingParam id="1862" interp="linr"  time="-9999999/1" value="0" leadInLength="0/1"  />
          </VectorParam>
          <VectorParam id="1863"  name="rotation">
           <InterpolatingParam id="1864" interp="linr"  time="-9999999/1" value="0" leadInLength="0/1"  />
           <InterpolatingParam id="1865" interp="linr"  time="-9999999/1" value="0" leadInLength="0/1"  />
           <InterpolatingParam id="1866" interp="linr"  time="-9999999/1" value="0" leadInLength="0/1"  />
          </VectorParam>
          <VectorParam id="1867"  name="shear">
           <InterpolatingParam id="1868" interp="linr"  time="-9999999/1" value="0" leadInLength="0/1"  />
           <InterpolatingParam id="1869" interp="linr"  time="-9999999/1" value="0" leadInLength="0/1"  />
           <InterpolatingParam id="1870" interp="linr"  time="-9999999/1" value="0" leadInLength="0/1"  />
          </VectorParam>
          <VectorParam id="1871"  name="scale">
           <InterpolatingParam id="1872" interp="linr"  time="-9999999/1" value="1" leadInLength="0/1"  />
           <InterpolatingParam id="1873" interp="linr"  time="-9999999/1" value="1" leadInLength="0/1"  />
           <InterpolatingParam id="1874" interp="linr"  time="-9999999/1" value="1" leadInLength="0/1"  />
          </VectorParam>
          <VectorParam id="1875"  name="anchor">
           <InterpolatingParam id="1876" interp="linr"  time="0/1" value="0" leadInLength="0/1"  />
           <InterpolatingParam id="1877" interp="linr"  time="0/1" value="0" leadInLength="0/1"  />
           <InterpolatingParam id="1878" interp="linr"  time="0/1" value="0" leadInLength="0/1"  />
          </VectorParam>
         </Transformer>
         <Parameters>
          <VectorParam id="1879"  name="sourceCrop">
           <InterpolatingParam id="1880" interp="linr"  time="0/1" value="0" leadInLength="0/1"  />
           <InterpolatingParam id="1881" interp="linr"  time="0/1" value="0" leadInLength="0/1"  />
           <InterpolatingParam id="1882" interp="linr"  time="0/1" value="0" leadInLength="0/1"  />
           <InterpolatingParam id="1883" interp="linr"  time="0/1" value="0" leadInLength="0/1"  />
          </VectorParam>
          <VectorParam id="1884"  name="geometryCrop">
           <InterpolatingParam id="1885" interp="linr"  time="-9999999/1" value="0" leadInLength="0/1"  />
           <InterpolatingParam id="1886" interp="linr"  time="-9999999/1" value="0" leadInLength="0/1"  />
           <InterpolatingParam id="1887" interp="linr"  time="-9999999/1" value="0" leadInLength="0/1"  />
           <InterpolatingParam id="1888" interp="linr"  time="-9999999/1" value="0" leadInLength="0/1"  />
          </VectorParam>
          <InterpolatingParam id="1889" interp="linr"  time="-9999999/1" value="1" leadInLength="0/1"  name="opacity"/>
          <InterpolatingParam id="1890" interp="linr"  time="0/1" value="1" leadInLength="0/1"  name="cursorOpacity"/>
          <InterpolatingParam id="1891" interp="linr"  time="0/1" value="1" leadInLength="0/1"  name="cursorScale"/>
          <InterpolatingParam id="1892" interp="linr"  name="volume">
           <Keyframes>
           <Keyframe id="1893"  time="0/1" value="1" leadInLength="0/1"  />
           <Keyframe id="1894"  time="457/1" value="1" leadInLength="0/1"  />
           <Keyframe id="1895"  time="458/1" value="1.5625" leadInLength="0/1"  />
           <Keyframe id="1896"  time="13056/1" value="1.5625" leadInLength="0/1"  />
           <Keyframe id="1897"  time="13057/1" value="1" leadInLength="0/1"  />
           </Keyframes>
          </InterpolatingParam>
          <Parameter id="1898"  name="captions"/>
         </Parameters>
         <Effects>
          <GenericEffect id="1899" name = "CursorBaseEffectName" >
           <Parameters>
           <InterpolatingParam id="1900" interp="linr"  time="-9999999/1" value="1" leadInLength="0/1"   name="cursorSize"/>
           <InterpolatingParam id="1901" interp="linr"  time="-9999999/1" value="0" leadInLength="0/1"   name="highlightBlurRadius"/>
           <InterpolatingParam id="1902" interp="linr"  time="-9999999/1" value="0" leadInLength="0/1"   name="highlightColorBlue"/>
           <InterpolatingParam id="1903" interp="linr"  time="-9999999/1" value="255" leadInLength="0/1"   name="highlightColorGreen"/>
           <InterpolatingParam id="1904" interp="linr"  time="-9999999/1" value="255" leadInLength="0/1"   name="highlightColorRed"/>
           <InterpolatingParam id="1905" interp="linr"  time="-9999999/1" value="5" leadInLength="0/1"   name="highlightFeatherSize"/>
           <InterpolatingParam id="1906" interp="linr"  time="-9999999/1" value="2" leadInLength="0/1"   name="highlightMagnification"/>
           <InterpolatingParam id="1907" interp="linr"  time="-9999999/1" value="1" leadInLength="0/1"   name="highlightOpacity"/>
           <InterpolatingParam id="1908" interp="linr"  time="-9999999/1" value="45" leadInLength="0/1"   name="highlightSize"/>
           <Parameter id="1909"   name="highlightType">
            <Keyframes>
            <Keyframe id="1910"  time="-9999999/1" value="0" leadInLength="0/1"  />
            </Keyframes>
           </Parameter>
           <InterpolatingParam id="1911" interp="linr"  time="-9999999/1" value="0" leadInLength="0/1"   name="leftClickColorBlue"/>
           <InterpolatingParam id="1912" interp="linr"  time="-9999999/1" value="0" leadInLength="0/1"   name="leftClickColorGreen"/>
           <InterpolatingParam id="1913" interp="linr"  time="-9999999/1" value="255" leadInLength="0/1"   name="leftClickColorRed"/>
           <InterpolatingParam id="1914" interp="linr"  time="-9999999/1" value="0.80000000000000004" leadInLength="0/1"   name="leftClickDuration"/>
           <InterpolatingParam id="1915" interp="linr"  time="-9999999/1" value="20" leadInLength="0/1"   name="leftClickSize"/>
           <Parameter id="1916"   name="leftClickSoundFilename">
            <Keyframes>
            <Keyframe id="1917"  time="-9999999/1" value="" leadInLength="0/1"  />
            </Keyframes>
           </Parameter>
           <InterpolatingParam id="1918" interp="linr"  time="-9999999/1" value="1" leadInLength="0/1"   name="leftClickSoundVolume"/>
           <Parameter id="1919"   name="leftClickType">
            <Keyframes>
            <Keyframe id="1920"  time="-9999999/1" value="0" leadInLength="0/1"  />
            </Keyframes>
           </Parameter>
           <InterpolatingParam id="1921" interp="linr"  time="-9999999/1" value="1" leadInLength="0/1"   name="opacity"/>
           <InterpolatingParam id="1922" interp="linr"  time="-9999999/1" value="255" leadInLength="0/1"   name="rightClickColorBlue"/>
           <InterpolatingParam id="1923" interp="linr"  time="-9999999/1" value="0" leadInLength="0/1"   name="rightClickColorGreen"/>
           <InterpolatingParam id="1924" interp="linr"  time="-9999999/1" value="0" leadInLength="0/1"   name="rightClickColorRed"/>
           <InterpolatingParam id="1925" interp="linr"  time="-9999999/1" value="0.80000000000000004" leadInLength="0/1"   name="rightClickDuration"/>
           <InterpolatingParam id="1926" interp="linr"  time="-9999999/1" value="20" leadInLength="0/1"   name="rightClickSize"/>
           <Parameter id="1927"   name="rightClickSoundFilename">
            <Keyframes>
            <Keyframe id="1928"  time="-9999999/1" value="" leadInLength="0/1"  />
            </Keyframes>
           </Parameter>
           <InterpolatingParam id="1929" interp="linr"  time="-9999999/1" value="1" leadInLength="0/1"   name="rightClickSoundVolume"/>
           <Parameter id="1930"   name="rightClickType">
            <Keyframes>
            <Keyframe id="1931"  time="-9999999/1" value="0" leadInLength="0/1"  />
            </Keyframes>
           </Parameter>
           </Parameters>
           <MetaData>
            <entry key="effectIndex" val="0"/>
           </MetaData>
          </GenericEffect>
          <GenericEffect id="1932" name = "WinCompression" >
           <Parameters>
           <InterpolatingParam id="1933" interp="linr"  time="0/1" value="0" leadInLength="0/1"   name="attack"/>
           <InterpolatingParam id="1934" interp="linr"  time="0/1" value="9" leadInLength="0/1"   name="gain"/>
           <Parameter id="1935"   name="preset">
            <Keyframes>
            <Keyframe id="1936"  time="0/1" value="1" leadInLength="0/1"  />
            </Keyframes>
           </Parameter>
           <InterpolatingParam id="1937" interp="linr"  time="0/1" value="10" leadInLength="0/1"   name="ratio"/>
           <InterpolatingParam id="1938" interp="linr"  time="0/1" value="3500" leadInLength="0/1"   name="release"/>
           <InterpolatingParam id="1939" interp="linr"  time="0/1" value="-20" leadInLength="0/1"   name="threshold"/>
           </Parameters>
           <MetaData>
            <entry key="effectIndex" val="1"/>
           </MetaData>
          </GenericEffect>
          <GenericEffect id="1940" name = "NoiseReduction" >
           <Parameters>
           <InterpolatingParam id="1941" interp="linr"  time="0/1" value="20" leadInLength="0/1"   name="denoiserAmount"/>
           <InterpolatingParam id="1942" interp="linr"  time="0/1" value="0" leadInLength="0/1"   name="denoiserThreshold"/>
           <Parameter id="1943"   name="noiseProfile">
            <Keyframes>
            <Keyframe id="1944"  time="0/1" value="FBAAAAIAAABErAAAAQIAADGZn8Lrc5XC/46fwmiBpMJZPZ3ChlWcwn0DqcIalKvCAiOpwmFNpcIm&#xD;&#xa;maLC9Qykwn41qsLFK67CwDavwjgzsMLfgK7CROmtwkxBscLwm7jC2ri/wq0dw8JfEMfCfk7GwiSf&#xD;&#xa;x8LC9cTCd5bIwlRmy8KgiMXCrEXCwgjkwMJmlb3CeOW9wlWHv8L3N7/C5hW5wj+3ucJMA8HCt7vD&#xD;&#xa;wmYGxcJQ2MrCJGfLwrLIx8IOa87CLHDYwhK018LYXNLCpeXRwvlb0sKYQdPC4ADVwmPF2MIR/NrC&#xD;&#xa;hFnbwh4Z3MKpItrCmmPZwrVP2sIvkNnCX27YwiOc1sKS7dbCIgzSwooMzsKomc7C73DQwrt+08LB&#xD;&#xa;+9bCVjbZwrj11cJaotXC15vZwsZh3MJv39jC7zrbwsJS28J1HNzCKSXbwmyS28KKat3COKvcwvaS&#xD;&#xa;28L31dbCVZnTwsx608KUgNDC5qbNwjQVzsJbic/CJB/OwiP+zcIgXNLCb/DTwhAX0sLy+NTCAUjZ&#xD;&#xa;wvD22MIRPN3CwBrgwldX38JaGuDC7VPhwi6338Lpn97CrJPewi0k4MLund3C4M3ewhy/3sLhP9/C&#xD;&#xa;8MrewsEU3sLnBt3C/nbcwtN64MIU6t7CKNbewsU84MIEXt7Cxg7gwoC638I/suDCGm/fwtqZ38KY&#xD;&#xa;BuHCo2/ewkQ+28KOmNjChHfZwirb3cJ23d3C9Qrcwiyh2sJ4UNvCFDHewoz43MKuydvCQHzawuLv&#xD;&#xa;3MK2b97CTubdwmAn3sKi+dzCAs3bwk4Z3cKuPt7CSoHewmhH4cLuH+DCrTbfwkSj4cI0+OHCcMbe&#xD;&#xa;wj1C38JxTuLC+sfhwuz75MJfGOXCRH7kwiwY4cLm59/Cfsvgwj3V4MILbt/CKNHewlpo3sKRSN7C&#xD;&#xa;xMvdwsoN3sK+3N7CXXbewkoP38I+3NvC7PLbwtgF3sJ2ld7CiJ3dwvKA3MLEld/CyD3hwqcy3sJy&#xD;&#xa;utzCKpThwgUz5MJm29/CgEXcwkrt3cLMmOHCNGHiwk424MIyHuLCK6vgwufe4MLyIOLCWPfhwrLJ&#xD;&#xa;4cJ2r+LCZHbjwlSQ4cLadODCQNDhwlru48LWJ+HCOBjgwtIR4cIIOOPCMVHiwgOf4sIoyuPCvLPl&#xD;&#xa;worq5sI+9uTCpmTjwggi48Jg0eLCGQzmwhDO48LhMuTCwNXlwnZC48Jjo+DCZJPhwnsK48LA7OXC&#xD;&#xa;B8rnwhAU48IKwOLCDgDiwo8X5MLAE+jCkuvkwiBv4sKO4ODC1Nfiwl4Q48KK7+LCIezjwoPf48J6&#xD;&#xa;Y+LCZuDfwoLD4sKO1uTCoJ7mwrdd5sJLkebCK5zmwqpe6sI23urCvcnswrZ17sJ4YurCgvnpwpCr&#xD;&#xa;6sLEOOnCHe3pwsLz6MIekenCLsLxwkYU8cLU7+7C8jvywkR58MI4uu7CeEPxwjhP88Ki7vHCTTP0&#xD;&#xa;wn7v8cItevLCUuz3wqnF98L8ifDC/ZnowsLY58Lxs+rCFrzrwhZs6cIWCOjCekPqwo7258IodufC&#xD;&#xa;uqzpwsZ06sIWjejCKd3mwt+O6MJk/evCFqLvwv4D9cKlKfjCMdf3wgA/+MKkC/nC1AP5ws9W+MLH&#xD;&#xa;bfbCT7/3wmpv98I4xvjC8N/5wuyV+MKoGvfCDm33wlS0+MKOxvnCIsP6wnIG+sJjp/fCku/3wvj/&#xD;&#xa;+cI+D/jCbNP3wvYF98L4BPnCuHL4wphw9sIlF/bCDM/1wlqf9sILBffCtH74wso5+cKkOvbC18D0&#xD;&#xa;wujK98KSRPvCJuP4wjQG+sKiBPrCG/H3wmSC+MIoDvrCzyv4wttP98Kk6vnC8Kb8wlJ1/cLqIfnC&#xD;&#xa;KUD2wich9sJcQ/fCgI34wjDF+MJ66vTCJvL1wsqu+sJCM/rC6MH5wkKd+8L+EfjC7P/2wlYo+sLc&#xD;&#xa;/fvC+LH6whbQ+sK8wvbCnrv1wmJB+sK8MPvCUsL3whhS+cKaHv3CuqP8wnrs+cLq7ffCrtv5wljC&#xD;&#xa;+MKw8PfCsmn5wjit+cKqdPbCMpj2wpir+MII5/XCPlP0wicU9sJ6RffCfMX4wu5O+MJ+YPbC6lf4&#xD;&#xa;ws54+cLE4PjCxr72wo6q+MKsOvjCmHb3wjIM+cLgyPjCFt33wlI5+cK0XPrCWLv3wlTy+MJ8CPjC&#xD;&#xa;sRz3woho9cKygPbCzKX3wszF98IQTvfCmYn1wmaC9sJu3PnCtnj5wpDg9sLAQ/bCIIn5wlrH+8Lm&#xD;&#xa;RfnCfJH5wsLE+cKId/rCTW/3wso298KMsPbC0Fb2wn029sK4G/rC4Nr7wuxE+sKAY/fCZDn4wh5q&#xD;&#xa;+cL4ifjCRqL1wl5G9sJCivfCbrX2wuZe9cKw4fXC2tz4wihd+8L8n/nCeo/6woJY+cKVnPXCmEv1&#xD;&#xa;wi+B98LIdvnCVAr8wvjH+8KsR/nCimz6wpBP+sIYCfrCIoT4wsp098ID1/bC4BP4wq6++MLqR/bC&#xD;&#xa;iA/2wkzX+MIubPvCQMD7wmjs+sJCX/fC0O/1wvb098IyiPnCxBP5woCi+MLvd/fC6jX4wrY/+sLu&#xD;&#xa;efnCACL4wpgG9cJa0fjCpHz5wh4T+sJsFPrCfm74wird+MJdSvfCY3n1wgYT9sKy8PjCZgX5wqQV&#xD;&#xa;+MIgAvfCYiz3whLv9cIQ7fXCCDz5wkzj+MIkYfnCUon3wlzU9cJge/fCW1P4wj9/9sJqVfXCAH31&#xD;&#xa;wiry9sJkfvjCXDD7wohq+sKeZvnCAVD3wpC69sJ7ZfjCWrb4wuIQ+MKEe/fCwAv5wjZE+cLucPjC&#xD;&#xa;Ssb5wjbt+sIKVvvCBDwFw3aVn8LLbpXCPImfwiSIpMIKRp3CDV2cwngPqcLOpKvC0SepwmRPpcKx&#xD;&#xa;nKLCWhqkwmU7qsK7GK7CPhKvwgU7sMKapK7CnPmtwv5IscI6q7jCXNS/wmXEw8IKYcfCcsfGwnS8&#xD;&#xa;yMJma8bCI1XJwpTvysIAzMTCNgXCwiy8wMJPd73CjrC9wkpov8JK477CJA25wpGcucLKLcDC7GbD&#xD;&#xa;wjK0xcISqcvCgs3KwlaRx8Lg4M3CPBvXwgDy1sK25tLCSO3SwgAw0sLQEdTCCrDXwrSI2cJHiNnC&#xD;&#xa;+vzZwg5t28IZv9jCJqvXwsew2cK+EdrCkgvawuIH2ML4PdfCOg/SwiKBzsIyws7CawjRwvAn1cLm&#xD;&#xa;5djC4lHXwlFF1sKMxdbCqRHbwgRB3cI9AdvCANnbwtL528LrFdzCT1nbwnbX28ICINvCbyPbwhCU&#xD;&#xa;2sJybtXC2KbVwpad1cJCtNHCaDDOwuJBzcLrs87CnM3OwkigzsIEwdHC7GbTwgqu0sL/ZNbCXsHY&#xD;&#xa;wtQ428Lc8dzCNITfwo+W4MLyYd7CyKHdwlY03cJW4N3C7MPcwiQ238Jiht/C2DTewq1N3sLGTt7C&#xD;&#xa;Cg7ewrTa3MJ+dN3C7kfdwmxX38Iiy97CD2rewl0848JWYOPClHDiwtKQ4cJR2ODC6JPdwj4w3sJB&#xD;&#xa;H9/C1UjfwqTY3cKM4trCG5HZwh8n3MKuZt/CC47fwhAt3MIWFd7Ci3newkyM38LKm+DCGlLewriz&#xD;&#xa;38IWwODC8jfewg6538I9gN3C+rzcwnp83sLBAeDCzsrewocf4cIIz9/CxczewhJ64cLYr+PCQPHg&#xD;&#xa;wjlj4cL0tOTC02ziwh1c38L2nt7CMn/fwsLc4cLuz+PCbsLjwlzo4MJ0Bt7C2A7cwvo+3MLcA97C&#xD;&#xa;VBvcwiJt3MJrh+DCooTewtt33cLaYNvCxuzbwhix2sKiddzCKpngwgac38LMD+HCG2Hewv3U3cLv&#xD;&#xa;yNzCgRXfwo404cIwi+DCDh3fwqUH38I6m9/CRcfhwvzs4sLCJeTCFBXiwvsM4cL2x+HCckPhwlC+&#xD;&#xa;4MJcWuLCLhTjwh5K4sJWhuHCdWjjwl515MK2j+PCar3gwmwM4MLS0+HC+aDhwgzg4MKLmODCIHbj&#xD;&#xa;wrwr5sKLAeXChqzjwugc4cLMTODCAZDjwkQA48KsveLCKv7iwuAZ4sLK7ODC2hPiwmS25MI8mOXC&#xD;&#xa;YPPlwnLc5MKpkeTCdHziwry84sL6RubC0IPlwlCp4MIuG+HCgGrjwsie4cL48uHCiLPjwu4548J8&#xD;&#xa;4eTCN6Hhws/K48IRx+jCPjznwtJD5MKQOubCwlznwj476sKNo+vCanfvwhNn7cI2QenChtnpwj9w&#xD;&#xa;7MI8dOnCDvnowuRV6MIWMejC5kvwwmgM8cL+ve/Ckpvywn4788KESe/CWCXvwk7m8MLa6fHCXkn0&#xD;&#xa;wiS48sKqvvTCIjL1wt0W9cIWBfPCJorswubo6cLlWunCorvrwtZK7cIC8evC5JXrwpAS6sKzEOnC&#xD;&#xa;qtLowrB66cIEG+nC8pDnwkqd6MJ+V+nCd7DrwgB68sJyGPjCVh/4wjwh+MIsZ/nCpCP6wrCs+MIG&#xD;&#xa;H/jCkKH5wgLL98KwiPjCdEv3wvPo9sLx7PTCevr2wpv798LQH/fCS/L1wgO198Iy3/rCvIb6woao&#xD;&#xa;+cJiVfvC/LL7wrwn+cJSCvbCXJ72wuRg+MIAhvjCINb2wgC7+MLObvjChLL3wvbN+MKcsPfCM0z3&#xD;&#xa;wg7x+MK0jfrC4gL6wn5n98Kne/XCVxP3wgYD9sIezPbCsJP6whB7+8KtgvfC3oL2wpZS98LmdfjC&#xD;&#xa;7mv4wqzC98I6JfbCra/2wv7D9cKCEfbCNhr6wnym+sLwkvjCyID3wlC7+MIGhPnCqm/5wg7z+cIq&#xD;&#xa;GfrC8vz3wnJC9sJ+1PfCcMX3wq5e+MKY0ffCUpL4wrsS+MJomffCspr4wqwD98JgIvnCRpj5wrhr&#xD;&#xa;+MKOEPrC3DT5wjLN98KA6fjCwHj3wp5f9MKeBvXCEUL2wlwn+cIKVPnCwOP4wqgg9sIQXfXCh3T3&#xD;&#xa;wuSz+MIUsvXCyvHzwvYY98IioPjCXIf4wkBN+sJclPrCEML0wtfm9sI2hPvCdmv7wmgq+8LuqffC&#xD;&#xa;pmn1wr1X9cKQEPTCxUXzwpjz9cJUyfXC25/1wtjM+MJKG/vCElv4wigp98Ku+vbCuID3wgCp9sLg&#xD;&#xa;fPbCVnv5wt5S/MKW5/vCSM/6wqp/+8K03f3C0tr7wsiD+cJwuPfCttn2wng79sK4EfjCIBX7wqhS&#xD;&#xa;+MInsffCMu32wiM19cJDg/TCxH33wgqa+MJwPvvC0MT4wrBx98KoXPfCilH0wkBG9cKMtfjCzWn1&#xD;&#xa;wo6898Je3/nCeFr6wlK/98Jj6PfCevX6wqqL+MJBIfjCiHz5wqqU+MICR/fC9u74wgbu+ML6p/fC&#xD;&#xa;n1X4wlkG+MKYZfrC0MT6whwi98LwPPXCJN/4wgy098Le9PfCMgj3whpG9sISDvXCwFf2ws/898Ka&#xD;&#xa;LPnCvST4wk8+9sIsKfXCdun2wiOn9cKmYPfCJED6wh4z+sLBDvjC1fD2wgQm9sL+qPbC4E70wtB3&#xD;&#xa;9sLIOvvCRkr6wmsp98J4wvfCzEj4wuTd9sIkMvnCoiP5wmm19sKPdvfCYtL3wpRy9cJGCPbC/5D2&#xD;&#xa;wsjX9sJiDPjC2sj5wl8v+MIqTPfCsqz0wjRX9MIv//fC7nf6wvpO+sKIhvnC4oP4wqb898K0wPbC&#xD;&#xa;3n72wsEL9cKk+vTCpJgC" leadInLength="0/1"  />
            </Keyframes>
           </Parameter>
           </Parameters>
           <MetaData>
            <entry key="effectIndex" val="2"/>
           </MetaData>
          </GenericEffect>
         </Effects>
         <Attributes>
          <Attribute id="1945" value="" name="ident"/>
          <Attribute id="1946" value="0" name="mixToMono"/>
         </Attributes>
         <MetaData>
          <entry key="AutoAppliedSmartFocus" val="False"/>
          <entry key="WinSubProjectDisplayName" val=""/>
         </MetaData>
         <ExtraData>
          <Entry key="ZoomPanBin">
           <ZoomPanBin id="1947"  >
            <ZoomPanKeyframes>
             <ZoomPanKeyframe id="1948" timeRangeEnd="-9999999/1" timeRangeDuration="0/1" interpolaterName=""  />
            </ZoomPanKeyframes>
           </ZoomPanBin>
          </Entry>
          <Entry key="CursorEffectBin">
           <CursorEffectBin id="1949"  >
            <CursorEffectKeyframes>
             <CursorEffectKeyframe id="1950" timeRangeEnd="-9999999/1" timeRangeDuration="0/1" interpolaterName=""  />
            </CursorEffectKeyframes>
           </CursorEffectBin>
          </Entry>
         </ExtraData>
         <GenericTrack id="1951"  >
          <Attributes>
           <Attribute id="1952" value="" name="ident"/>
           <Attribute id="1953" value="0" name="audioMuted"/>
           <Attribute id="1954" value="0" name="videoHidden"/>
          </Attributes>
          <MetaData>
           <entry key="IsLocked" val="False"/>
           <entry key="WinTrackHeight" val="0"/>
          </MetaData>
          <Medias>
           <UnifiedMedia id="1955"  >
            <AMFile id="1956" start="0" duration="802" scalar="1/1" mediaStart="0/1" mediaDuration="802/1" trackNumber="1" src="4" channelNumber="0,1" >
             <Parameters>
              <InterpolatingParam id="1957" interp="linr"  time="0/1" value="1" leadInLength="0/1"  name="volume"/>
              <Parameter id="1958"  name="captions"/>
             </Parameters>
             <Attributes>
              <Attribute id="1959" value="" name="ident"/>
              <Attribute id="1960" value="44100" name="sampleRate"/>
              <Attribute id="1961" value="16" name="bitDepth"/>
              <Attribute id="1962" value="1" name="gain"/>
              <Attribute id="1963" value="0" name="mixToMono"/>
             </Attributes>
            </AMFile>
            <ScreenVMFile id="1964" start="0" duration="802" scalar="1/1" mediaStart="0/1" mediaDuration="802/1" trackNumber="0" src="4" >
             <Transformer>
              <VectorParam id="1965"  name="translation">
               <InterpolatingParam id="1966" interp="linr"  time="-9999999/1" value="0" leadInLength="0/1"  />
               <InterpolatingParam id="1967" interp="linr"  time="-9999999/1" value="0" leadInLength="0/1"  />
               <InterpolatingParam id="1968" interp="linr"  time="-9999999/1" value="0" leadInLength="0/1"  />
              </VectorParam>
              <VectorParam id="1969"  name="rotation">
               <InterpolatingParam id="1970" interp="linr"  time="-9999999/1" value="0" leadInLength="0/1"  />
               <InterpolatingParam id="1971" interp="linr"  time="-9999999/1" value="0" leadInLength="0/1"  />
               <InterpolatingParam id="1972" interp="linr"  time="-9999999/1" value="0" leadInLength="0/1"  />
              </VectorParam>
              <VectorParam id="1973"  name="shear">
               <InterpolatingParam id="1974" interp="linr"  time="-9999999/1" value="0" leadInLength="0/1"  />
               <InterpolatingParam id="1975" interp="linr"  time="-9999999/1" value="0" leadInLength="0/1"  />
               <InterpolatingParam id="1976" interp="linr"  time="-9999999/1" value="0" leadInLength="0/1"  />
              </VectorParam>
              <VectorParam id="1977"  name="scale">
               <InterpolatingParam id="1978" interp="linr"  time="-9999999/1" value="1" leadInLength="0/1"  />
               <InterpolatingParam id="1979" interp="linr"  time="-9999999/1" value="1" leadInLength="0/1"  />
               <InterpolatingParam id="1980" interp="linr"  time="-9999999/1" value="1" leadInLength="0/1"  />
              </VectorParam>
              <VectorParam id="1981"  name="anchor">
               <InterpolatingParam id="1982" interp="linr"  time="0/1" value="0" leadInLength="0/1"  />
               <InterpolatingParam id="1983" interp="linr"  time="0/1" value="0" leadInLength="0/1"  />
               <InterpolatingParam id="1984" interp="linr"  time="0/1" value="0" leadInLength="0/1"  />
              </VectorParam>
             </Transformer>
             <Parameters>
              <VectorParam id="1985"  name="sourceCrop">
               <InterpolatingParam id="1986" interp="linr"  time="0/1" value="0" leadInLength="0/1"  />
               <InterpolatingParam id="1987" interp="linr"  time="0/1" value="0" leadInLength="0/1"  />
               <InterpolatingParam id="1988" interp="linr"  time="0/1" value="0" leadInLength="0/1"  />
               <InterpolatingParam id="1989" interp="linr"  time="0/1" value="0" leadInLength="0/1"  />
              </VectorParam>
              <VectorParam id="1990"  name="geometryCrop">
               <InterpolatingParam id="1991" interp="linr"  time="-9999999/1" value="0" leadInLength="0/1"  />
               <InterpolatingParam id="1992" interp="linr"  time="-9999999/1" value="0" leadInLength="0/1"  />
               <InterpolatingParam id="1993" interp="linr"  time="-9999999/1" value="0" leadInLength="0/1"  />
               <InterpolatingParam id="1994" interp="linr"  time="-9999999/1" value="0" leadInLength="0/1"  />
              </VectorParam>
              <InterpolatingParam id="1995" interp="linr"  time="-9999999/1" value="1" leadInLength="0/1"  name="opacity"/>
              <InterpolatingParam id="1996" interp="linr"  time="0/1" value="0" leadInLength="0/1"  name="cursorOpacity"/>
              <InterpolatingParam id="1997" interp="linr"  time="0/1" value="0" leadInLength="0/1"  name="cursorScale"/>
             </Parameters>
             <Attributes>
              <Attribute id="1998" value="" name="ident"/>
             </Attributes>
             <ExtraData>
              <Entry key="ZoomPanBin">
               <ZoomPanBin id="1999"  >
                <ZoomPanKeyframes>
                 <ZoomPanKeyframe id="2000" timeRangeEnd="-9999999/1" timeRangeDuration="0/1" interpolaterName=""  />
                </ZoomPanKeyframes>
               </ZoomPanBin>
              </Entry>
              <Entry key="CursorEffectBin">
               <CursorEffectBin id="2001"  >
                <CursorEffectKeyframes>
                </CursorEffectKeyframes>
               </CursorEffectBin>
              </Entry>
             </ExtraData>
            </ScreenVMFile>
            <MetaData>
             <entry key="AutoAppliedSmartFocus" val="False"/>
             <entry key="WinSubProjectDisplayName" val=""/>
            </MetaData>
           </UnifiedMedia>
           <UnifiedMedia id="2002"  >
            <AMFile id="2003" start="802" duration="158" scalar="1/1" mediaStart="892/1" mediaDuration="158/1" trackNumber="1" src="4" channelNumber="0,1" >
             <Parameters>
              <InterpolatingParam id="2004" interp="linr"  time="0/1" value="1" leadInLength="0/1"  name="volume"/>
              <Parameter id="2005"  name="captions"/>
             </Parameters>
             <Attributes>
              <Attribute id="2006" value="" name="ident"/>
              <Attribute id="2007" value="44100" name="sampleRate"/>
              <Attribute id="2008" value="16" name="bitDepth"/>
              <Attribute id="2009" value="1" name="gain"/>
              <Attribute id="2010" value="0" name="mixToMono"/>
             </Attributes>
            </AMFile>
            <ScreenVMFile id="2011" start="802" duration="158" scalar="1/1" mediaStart="892/1" mediaDuration="158/1" trackNumber="0" src="4" >
             <Transformer>
              <VectorParam id="2012"  name="translation">
               <InterpolatingParam id="2013" interp="linr"  time="-9999999/1" value="0" leadInLength="0/1"  />
               <InterpolatingParam id="2014" interp="linr"  time="-9999999/1" value="0" leadInLength="0/1"  />
               <InterpolatingParam id="2015" interp="linr"  time="-9999999/1" value="0" leadInLength="0/1"  />
              </VectorParam>
              <VectorParam id="2016"  name="rotation">
               <InterpolatingParam id="2017" interp="linr"  time="-9999999/1" value="0" leadInLength="0/1"  />
               <InterpolatingParam id="2018" interp="linr"  time="-9999999/1" value="0" leadInLength="0/1"  />
               <InterpolatingParam id="2019" interp="linr"  time="-9999999/1" value="0" leadInLength="0/1"  />
              </VectorParam>
              <VectorParam id="2020"  name="shear">
               <InterpolatingParam id="2021" interp="linr"  time="-9999999/1" value="0" leadInLength="0/1"  />
               <InterpolatingParam id="2022" interp="linr"  time="-9999999/1" value="0" leadInLength="0/1"  />
               <InterpolatingParam id="2023" interp="linr"  time="-9999999/1" value="0" leadInLength="0/1"  />
              </VectorParam>
              <VectorParam id="2024"  name="scale">
               <InterpolatingParam id="2025" interp="linr"  time="-9999999/1" value="1" leadInLength="0/1"  />
               <InterpolatingParam id="2026" interp="linr"  time="-9999999/1" value="1" leadInLength="0/1"  />
               <InterpolatingParam id="2027" interp="linr"  time="-9999999/1" value="1" leadInLength="0/1"  />
              </VectorParam>
              <VectorParam id="2028"  name="anchor">
               <InterpolatingParam id="2029" interp="linr"  time="0/1" value="0" leadInLength="0/1"  />
               <InterpolatingParam id="2030" interp="linr"  time="0/1" value="0" leadInLength="0/1"  />
               <InterpolatingParam id="2031" interp="linr"  time="0/1" value="0" leadInLength="0/1"  />
              </VectorParam>
             </Transformer>
             <Parameters>
              <VectorParam id="2032"  name="sourceCrop">
               <InterpolatingParam id="2033" interp="linr"  time="0/1" value="0" leadInLength="0/1"  />
               <InterpolatingParam id="2034" interp="linr"  time="0/1" value="0" leadInLength="0/1"  />
               <InterpolatingParam id="2035" interp="linr"  time="0/1" value="0" leadInLength="0/1"  />
               <InterpolatingParam id="2036" interp="linr"  time="0/1" value="0" leadInLength="0/1"  />
              </VectorParam>
              <VectorParam id="2037"  name="geometryCrop">
               <InterpolatingParam id="2038" interp="linr"  time="-9999999/1" value="0" leadInLength="0/1"  />
               <InterpolatingParam id="2039" interp="linr"  time="-9999999/1" value="0" leadInLength="0/1"  />
               <InterpolatingParam id="2040" interp="linr"  time="-9999999/1" value="0" leadInLength="0/1"  />
               <InterpolatingParam id="2041" interp="linr"  time="-9999999/1" value="0" leadInLength="0/1"  />
              </VectorParam>
              <InterpolatingParam id="2042" interp="linr"  time="-9999999/1" value="1" leadInLength="0/1"  name="opacity"/>
              <InterpolatingParam id="2043" interp="linr"  time="0/1" value="0" leadInLength="0/1"  name="cursorOpacity"/>
              <InterpolatingParam id="2044" interp="linr"  time="0/1" value="0" leadInLength="0/1"  name="cursorScale"/>
             </Parameters>
             <Attributes>
              <Attribute id="2045" value="" name="ident"/>
             </Attributes>
             <ExtraData>
              <Entry key="ZoomPanBin">
               <ZoomPanBin id="2046"  >
                <ZoomPanKeyframes>
                 <ZoomPanKeyframe id="2047" timeRangeEnd="-9999999/1" timeRangeDuration="0/1" interpolaterName=""  />
                </ZoomPanKeyframes>
               </ZoomPanBin>
              </Entry>
              <Entry key="CursorEffectBin">
               <CursorEffectBin id="2048"  >
                <CursorEffectKeyframes>
                </CursorEffectKeyframes>
               </CursorEffectBin>
              </Entry>
             </ExtraData>
            </ScreenVMFile>
            <MetaData>
             <entry key="AutoAppliedSmartFocus" val="False"/>
             <entry key="WinSubProjectDisplayName" val=""/>
            </MetaData>
           </UnifiedMedia>
           <UnifiedMedia id="2049"  >
            <AMFile id="2050" start="960" duration="202" scalar="1/1" mediaStart="1118/1" mediaDuration="202/1" trackNumber="1" src="4" channelNumber="0,1" >
             <Parameters>
              <InterpolatingParam id="2051" interp="linr"  time="0/1" value="1" leadInLength="0/1"  name="volume"/>
              <Parameter id="2052"  name="captions"/>
             </Parameters>
             <Attributes>
              <Attribute id="2053" value="" name="ident"/>
              <Attribute id="2054" value="44100" name="sampleRate"/>
              <Attribute id="2055" value="16" name="bitDepth"/>
              <Attribute id="2056" value="1" name="gain"/>
              <Attribute id="2057" value="0" name="mixToMono"/>
             </Attributes>
            </AMFile>
            <ScreenVMFile id="2058" start="960" duration="202" scalar="1/1" mediaStart="1118/1" mediaDuration="202/1" trackNumber="0" src="4" >
             <Transformer>
              <VectorParam id="2059"  name="translation">
               <InterpolatingParam id="2060" interp="linr"  time="-9999999/1" value="0" leadInLength="0/1"  />
               <InterpolatingParam id="2061" interp="linr"  time="-9999999/1" value="0" leadInLength="0/1"  />
               <InterpolatingParam id="2062" interp="linr"  time="-9999999/1" value="0" leadInLength="0/1"  />
              </VectorParam>
              <VectorParam id="2063"  name="rotation">
               <InterpolatingParam id="2064" interp="linr"  time="-9999999/1" value="0" leadInLength="0/1"  />
               <InterpolatingParam id="2065" interp="linr"  time="-9999999/1" value="0" leadInLength="0/1"  />
               <InterpolatingParam id="2066" interp="linr"  time="-9999999/1" value="0" leadInLength="0/1"  />
              </VectorParam>
              <VectorParam id="2067"  name="shear">
               <InterpolatingParam id="2068" interp="linr"  time="-9999999/1" value="0" leadInLength="0/1"  />
               <InterpolatingParam id="2069" interp="linr"  time="-9999999/1" value="0" leadInLength="0/1"  />
               <InterpolatingParam id="2070" interp="linr"  time="-9999999/1" value="0" leadInLength="0/1"  />
              </VectorParam>
              <VectorParam id="2071"  name="scale">
               <InterpolatingParam id="2072" interp="linr"  time="-9999999/1" value="1" leadInLength="0/1"  />
               <InterpolatingParam id="2073" interp="linr"  time="-9999999/1" value="1" leadInLength="0/1"  />
               <InterpolatingParam id="2074" interp="linr"  time="-9999999/1" value="1" leadInLength="0/1"  />
              </VectorParam>
              <VectorParam id="2075"  name="anchor">
               <InterpolatingParam id="2076" interp="linr"  time="0/1" value="0" leadInLength="0/1"  />
               <InterpolatingParam id="2077" interp="linr"  time="0/1" value="0" leadInLength="0/1"  />
               <InterpolatingParam id="2078" interp="linr"  time="0/1" value="0" leadInLength="0/1"  />
              </VectorParam>
             </Transformer>
             <Parameters>
              <VectorParam id="2079"  name="sourceCrop">
               <InterpolatingParam id="2080" interp="linr"  time="0/1" value="0" leadInLength="0/1"  />
               <InterpolatingParam id="2081" interp="linr"  time="0/1" value="0" leadInLength="0/1"  />
               <InterpolatingParam id="2082" interp="linr"  time="0/1" value="0" leadInLength="0/1"  />
               <InterpolatingParam id="2083" interp="linr"  time="0/1" value="0" leadInLength="0/1"  />
              </VectorParam>
              <VectorParam id="2084"  name="geometryCrop">
               <InterpolatingParam id="2085" interp="linr"  time="-9999999/1" value="0" leadInLength="0/1"  />
               <InterpolatingParam id="2086" interp="linr"  time="-9999999/1" value="0" leadInLength="0/1"  />
               <InterpolatingParam id="2087" interp="linr"  time="-9999999/1" value="0" leadInLength="0/1"  />
               <InterpolatingParam id="2088" interp="linr"  time="-9999999/1" value="0" leadInLength="0/1"  />
              </VectorParam>
              <InterpolatingParam id="2089" interp="linr"  time="-9999999/1" value="1" leadInLength="0/1"  name="opacity"/>
              <InterpolatingParam id="2090" interp="linr"  time="0/1" value="0" leadInLength="0/1"  name="cursorOpacity"/>
              <InterpolatingParam id="2091" interp="linr"  time="0/1" value="0" leadInLength="0/1"  name="cursorScale"/>
             </Parameters>
             <Attributes>
              <Attribute id="2092" value="" name="ident"/>
             </Attributes>
             <ExtraData>
              <Entry key="ZoomPanBin">
               <ZoomPanBin id="2093"  >
                <ZoomPanKeyframes>
                 <ZoomPanKeyframe id="2094" timeRangeEnd="-9999999/1" timeRangeDuration="0/1" interpolaterName=""  />
                </ZoomPanKeyframes>
               </ZoomPanBin>
              </Entry>
              <Entry key="CursorEffectBin">
               <CursorEffectBin id="2095"  >
                <CursorEffectKeyframes>
                </CursorEffectKeyframes>
               </CursorEffectBin>
              </Entry>
             </ExtraData>
            </ScreenVMFile>
            <MetaData>
             <entry key="AutoAppliedSmartFocus" val="False"/>
             <entry key="WinSubProjectDisplayName" val=""/>
            </MetaData>
           </UnifiedMedia>
           <UnifiedMedia id="2096"  >
            <AMFile id="2097" start="1162" duration="51" scalar="1/1" mediaStart="1334/1" mediaDuration="51/1" trackNumber="1" src="4" channelNumber="0,1" >
             <Parameters>
              <InterpolatingParam id="2098" interp="linr"  time="0/1" value="1" leadInLength="0/1"  name="volume"/>
              <Parameter id="2099"  name="captions"/>
             </Parameters>
             <Attributes>
              <Attribute id="2100" value="" name="ident"/>
              <Attribute id="2101" value="44100" name="sampleRate"/>
              <Attribute id="2102" value="16" name="bitDepth"/>
              <Attribute id="2103" value="1" name="gain"/>
              <Attribute id="2104" value="0" name="mixToMono"/>
             </Attributes>
            </AMFile>
            <ScreenVMFile id="2105" start="1162" duration="51" scalar="1/1" mediaStart="1334/1" mediaDuration="51/1" trackNumber="0" src="4" >
             <Transformer>
              <VectorParam id="2106"  name="translation">
               <InterpolatingParam id="2107" interp="linr"  time="-9999999/1" value="0" leadInLength="0/1"  />
               <InterpolatingParam id="2108" interp="linr"  time="-9999999/1" value="0" leadInLength="0/1"  />
               <InterpolatingParam id="2109" interp="linr"  time="-9999999/1" value="0" leadInLength="0/1"  />
              </VectorParam>
              <VectorParam id="2110"  name="rotation">
               <InterpolatingParam id="2111" interp="linr"  time="-9999999/1" value="0" leadInLength="0/1"  />
               <InterpolatingParam id="2112" interp="linr"  time="-9999999/1" value="0" leadInLength="0/1"  />
               <InterpolatingParam id="2113" interp="linr"  time="-9999999/1" value="0" leadInLength="0/1"  />
              </VectorParam>
              <VectorParam id="2114"  name="shear">
               <InterpolatingParam id="2115" interp="linr"  time="-9999999/1" value="0" leadInLength="0/1"  />
               <InterpolatingParam id="2116" interp="linr"  time="-9999999/1" value="0" leadInLength="0/1"  />
               <InterpolatingParam id="2117" interp="linr"  time="-9999999/1" value="0" leadInLength="0/1"  />
              </VectorParam>
              <VectorParam id="2118"  name="scale">
               <InterpolatingParam id="2119" interp="linr"  time="-9999999/1" value="1" leadInLength="0/1"  />
               <InterpolatingParam id="2120" interp="linr"  time="-9999999/1" value="1" leadInLength="0/1"  />
               <InterpolatingParam id="2121" interp="linr"  time="-9999999/1" value="1" leadInLength="0/1"  />
              </VectorParam>
              <VectorParam id="2122"  name="anchor">
               <InterpolatingParam id="2123" interp="linr"  time="0/1" value="0" leadInLength="0/1"  />
               <InterpolatingParam id="2124" interp="linr"  time="0/1" value="0" leadInLength="0/1"  />
               <InterpolatingParam id="2125" interp="linr"  time="0/1" value="0" leadInLength="0/1"  />
              </VectorParam>
             </Transformer>
             <Parameters>
              <VectorParam id="2126"  name="sourceCrop">
               <InterpolatingParam id="2127" interp="linr"  time="0/1" value="0" leadInLength="0/1"  />
               <InterpolatingParam id="2128" interp="linr"  time="0/1" value="0" leadInLength="0/1"  />
               <InterpolatingParam id="2129" interp="linr"  time="0/1" value="0" leadInLength="0/1"  />
               <InterpolatingParam id="2130" interp="linr"  time="0/1" value="0" leadInLength="0/1"  />
              </VectorParam>
              <VectorParam id="2131"  name="geometryCrop">
               <InterpolatingParam id="2132" interp="linr"  time="-9999999/1" value="0" leadInLength="0/1"  />
               <InterpolatingParam id="2133" interp="linr"  time="-9999999/1" value="0" leadInLength="0/1"  />
               <InterpolatingParam id="2134" interp="linr"  time="-9999999/1" value="0" leadInLength="0/1"  />
               <InterpolatingParam id="2135" interp="linr"  time="-9999999/1" value="0" leadInLength="0/1"  />
              </VectorParam>
              <InterpolatingParam id="2136" interp="linr"  time="-9999999/1" value="1" leadInLength="0/1"  name="opacity"/>
              <InterpolatingParam id="2137" interp="linr"  time="0/1" value="0" leadInLength="0/1"  name="cursorOpacity"/>
              <InterpolatingParam id="2138" interp="linr"  time="0/1" value="0" leadInLength="0/1"  name="cursorScale"/>
             </Parameters>
             <Attributes>
              <Attribute id="2139" value="" name="ident"/>
             </Attributes>
             <ExtraData>
              <Entry key="ZoomPanBin">
               <ZoomPanBin id="2140"  >
                <ZoomPanKeyframes>
                 <ZoomPanKeyframe id="2141" timeRangeEnd="-9999999/1" timeRangeDuration="0/1" interpolaterName=""  />
                </ZoomPanKeyframes>
               </ZoomPanBin>
              </Entry>
              <Entry key="CursorEffectBin">
               <CursorEffectBin id="2142"  >
                <CursorEffectKeyframes>
                </CursorEffectKeyframes>
               </CursorEffectBin>
              </Entry>
             </ExtraData>
            </ScreenVMFile>
            <MetaData>
             <entry key="AutoAppliedSmartFocus" val="False"/>
             <entry key="WinSubProjectDisplayName" val=""/>
            </MetaData>
           </UnifiedMedia>
           <UnifiedMedia id="2143"  >
            <AMFile id="2144" start="1213" duration="159" scalar="1/1" mediaStart="1396/1" mediaDuration="159/1" trackNumber="1" src="4" channelNumber="0,1" >
             <Parameters>
              <InterpolatingParam id="2145" interp="linr"  time="0/1" value="1" leadInLength="0/1"  name="volume"/>
              <Parameter id="2146"  name="captions"/>
             </Parameters>
             <Attributes>
              <Attribute id="2147" value="" name="ident"/>
              <Attribute id="2148" value="44100" name="sampleRate"/>
              <Attribute id="2149" value="16" name="bitDepth"/>
              <Attribute id="2150" value="1" name="gain"/>
              <Attribute id="2151" value="0" name="mixToMono"/>
             </Attributes>
            </AMFile>
            <ScreenVMFile id="2152" start="1213" duration="159" scalar="1/1" mediaStart="1396/1" mediaDuration="159/1" trackNumber="0" src="4" >
             <Transformer>
              <VectorParam id="2153"  name="translation">
               <InterpolatingParam id="2154" interp="linr"  time="-9999999/1" value="0" leadInLength="0/1"  />
               <InterpolatingParam id="2155" interp="linr"  time="-9999999/1" value="0" leadInLength="0/1"  />
               <InterpolatingParam id="2156" interp="linr"  time="-9999999/1" value="0" leadInLength="0/1"  />
              </VectorParam>
              <VectorParam id="2157"  name="rotation">
               <InterpolatingParam id="2158" interp="linr"  time="-9999999/1" value="0" leadInLength="0/1"  />
               <InterpolatingParam id="2159" interp="linr"  time="-9999999/1" value="0" leadInLength="0/1"  />
               <InterpolatingParam id="2160" interp="linr"  time="-9999999/1" value="0" leadInLength="0/1"  />
              </VectorParam>
              <VectorParam id="2161"  name="shear">
               <InterpolatingParam id="2162" interp="linr"  time="-9999999/1" value="0" leadInLength="0/1"  />
               <InterpolatingParam id="2163" interp="linr"  time="-9999999/1" value="0" leadInLength="0/1"  />
               <InterpolatingParam id="2164" interp="linr"  time="-9999999/1" value="0" leadInLength="0/1"  />
              </VectorParam>
              <VectorParam id="2165"  name="scale">
               <InterpolatingParam id="2166" interp="linr"  time="-9999999/1" value="1" leadInLength="0/1"  />
               <InterpolatingParam id="2167" interp="linr"  time="-9999999/1" value="1" leadInLength="0/1"  />
               <InterpolatingParam id="2168" interp="linr"  time="-9999999/1" value="1" leadInLength="0/1"  />
              </VectorParam>
              <VectorParam id="2169"  name="anchor">
               <InterpolatingParam id="2170" interp="linr"  time="0/1" value="0" leadInLength="0/1"  />
               <InterpolatingParam id="2171" interp="linr"  time="0/1" value="0" leadInLength="0/1"  />
               <InterpolatingParam id="2172" interp="linr"  time="0/1" value="0" leadInLength="0/1"  />
              </VectorParam>
             </Transformer>
             <Parameters>
              <VectorParam id="2173"  name="sourceCrop">
               <InterpolatingParam id="2174" interp="linr"  time="0/1" value="0" leadInLength="0/1"  />
               <InterpolatingParam id="2175" interp="linr"  time="0/1" value="0" leadInLength="0/1"  />
               <InterpolatingParam id="2176" interp="linr"  time="0/1" value="0" leadInLength="0/1"  />
               <InterpolatingParam id="2177" interp="linr"  time="0/1" value="0" leadInLength="0/1"  />
              </VectorParam>
              <VectorParam id="2178"  name="geometryCrop">
               <InterpolatingParam id="2179" interp="linr"  time="-9999999/1" value="0" leadInLength="0/1"  />
               <InterpolatingParam id="2180" interp="linr"  time="-9999999/1" value="0" leadInLength="0/1"  />
               <InterpolatingParam id="2181" interp="linr"  time="-9999999/1" value="0" leadInLength="0/1"  />
               <InterpolatingParam id="2182" interp="linr"  time="-9999999/1" value="0" leadInLength="0/1"  />
              </VectorParam>
              <InterpolatingParam id="2183" interp="linr"  time="-9999999/1" value="1" leadInLength="0/1"  name="opacity"/>
              <InterpolatingParam id="2184" interp="linr"  time="0/1" value="0" leadInLength="0/1"  name="cursorOpacity"/>
              <InterpolatingParam id="2185" interp="linr"  time="0/1" value="0" leadInLength="0/1"  name="cursorScale"/>
             </Parameters>
             <Attributes>
              <Attribute id="2186" value="" name="ident"/>
             </Attributes>
             <ExtraData>
              <Entry key="ZoomPanBin">
               <ZoomPanBin id="2187"  >
                <ZoomPanKeyframes>
                 <ZoomPanKeyframe id="2188" timeRangeEnd="-9999999/1" timeRangeDuration="0/1" interpolaterName=""  />
                </ZoomPanKeyframes>
               </ZoomPanBin>
              </Entry>
              <Entry key="CursorEffectBin">
               <CursorEffectBin id="2189"  >
                <CursorEffectKeyframes>
                </CursorEffectKeyframes>
               </CursorEffectBin>
              </Entry>
             </ExtraData>
            </ScreenVMFile>
            <MetaData>
             <entry key="AutoAppliedSmartFocus" val="False"/>
             <entry key="WinSubProjectDisplayName" val=""/>
            </MetaData>
           </UnifiedMedia>
           <UnifiedMedia id="2190"  >
            <AMFile id="2191" start="1372" duration="37" scalar="1/1" mediaStart="1563/1" mediaDuration="37/1" trackNumber="1" src="4" channelNumber="0,1" >
             <Parameters>
              <InterpolatingParam id="2192" interp="linr"  time="0/1" value="1" leadInLength="0/1"  name="volume"/>
              <Parameter id="2193"  name="captions"/>
             </Parameters>
             <Attributes>
              <Attribute id="2194" value="" name="ident"/>
              <Attribute id="2195" value="44100" name="sampleRate"/>
              <Attribute id="2196" value="16" name="bitDepth"/>
              <Attribute id="2197" value="1" name="gain"/>
              <Attribute id="2198" value="0" name="mixToMono"/>
             </Attributes>
            </AMFile>
            <ScreenVMFile id="2199" start="1372" duration="37" scalar="1/1" mediaStart="1563/1" mediaDuration="37/1" trackNumber="0" src="4" >
             <Transformer>
              <VectorParam id="2200"  name="translation">
               <InterpolatingParam id="2201" interp="linr"  time="-9999999/1" value="0" leadInLength="0/1"  />
               <InterpolatingParam id="2202" interp="linr"  time="-9999999/1" value="0" leadInLength="0/1"  />
               <InterpolatingParam id="2203" interp="linr"  time="-9999999/1" value="0" leadInLength="0/1"  />
              </VectorParam>
              <VectorParam id="2204"  name="rotation">
               <InterpolatingParam id="2205" interp="linr"  time="-9999999/1" value="0" leadInLength="0/1"  />
               <InterpolatingParam id="2206" interp="linr"  time="-9999999/1" value="0" leadInLength="0/1"  />
               <InterpolatingParam id="2207" interp="linr"  time="-9999999/1" value="0" leadInLength="0/1"  />
              </VectorParam>
              <VectorParam id="2208"  name="shear">
               <InterpolatingParam id="2209" interp="linr"  time="-9999999/1" value="0" leadInLength="0/1"  />
               <InterpolatingParam id="2210" interp="linr"  time="-9999999/1" value="0" leadInLength="0/1"  />
               <InterpolatingParam id="2211" interp="linr"  time="-9999999/1" value="0" leadInLength="0/1"  />
              </VectorParam>
              <VectorParam id="2212"  name="scale">
               <InterpolatingParam id="2213" interp="linr"  time="-9999999/1" value="1" leadInLength="0/1"  />
               <InterpolatingParam id="2214" interp="linr"  time="-9999999/1" value="1" leadInLength="0/1"  />
               <InterpolatingParam id="2215" interp="linr"  time="-9999999/1" value="1" leadInLength="0/1"  />
              </VectorParam>
              <VectorParam id="2216"  name="anchor">
               <InterpolatingParam id="2217" interp="linr"  time="0/1" value="0" leadInLength="0/1"  />
               <InterpolatingParam id="2218" interp="linr"  time="0/1" value="0" leadInLength="0/1"  />
               <InterpolatingParam id="2219" interp="linr"  time="0/1" value="0" leadInLength="0/1"  />
              </VectorParam>
             </Transformer>
             <Parameters>
              <VectorParam id="2220"  name="sourceCrop">
               <InterpolatingParam id="2221" interp="linr"  time="0/1" value="0" leadInLength="0/1"  />
               <InterpolatingParam id="2222" interp="linr"  time="0/1" value="0" leadInLength="0/1"  />
               <InterpolatingParam id="2223" interp="linr"  time="0/1" value="0" leadInLength="0/1"  />
               <InterpolatingParam id="2224" interp="linr"  time="0/1" value="0" leadInLength="0/1"  />
              </VectorParam>
              <VectorParam id="2225"  name="geometryCrop">
               <InterpolatingParam id="2226" interp="linr"  time="-9999999/1" value="0" leadInLength="0/1"  />
               <InterpolatingParam id="2227" interp="linr"  time="-9999999/1" value="0" leadInLength="0/1"  />
               <InterpolatingParam id="2228" interp="linr"  time="-9999999/1" value="0" leadInLength="0/1"  />
               <InterpolatingParam id="2229" interp="linr"  time="-9999999/1" value="0" leadInLength="0/1"  />
              </VectorParam>
              <InterpolatingParam id="2230" interp="linr"  time="-9999999/1" value="1" leadInLength="0/1"  name="opacity"/>
              <InterpolatingParam id="2231" interp="linr"  time="0/1" value="0" leadInLength="0/1"  name="cursorOpacity"/>
              <InterpolatingParam id="2232" interp="linr"  time="0/1" value="0" leadInLength="0/1"  name="cursorScale"/>
             </Parameters>
             <Attributes>
              <Attribute id="2233" value="" name="ident"/>
             </Attributes>
             <ExtraData>
              <Entry key="ZoomPanBin">
               <ZoomPanBin id="2234"  >
                <ZoomPanKeyframes>
                 <ZoomPanKeyframe id="2235" timeRangeEnd="-9999999/1" timeRangeDuration="0/1" interpolaterName=""  />
                </ZoomPanKeyframes>
               </ZoomPanBin>
              </Entry>
              <Entry key="CursorEffectBin">
               <CursorEffectBin id="2236"  >
                <CursorEffectKeyframes>
                </CursorEffectKeyframes>
               </CursorEffectBin>
              </Entry>
             </ExtraData>
            </ScreenVMFile>
            <MetaData>
             <entry key="AutoAppliedSmartFocus" val="False"/>
             <entry key="WinSubProjectDisplayName" val=""/>
            </MetaData>
           </UnifiedMedia>
           <UnifiedMedia id="2237"  >
            <AMFile id="2238" start="1409" duration="85" scalar="1/1" mediaStart="1610/1" mediaDuration="85/1" trackNumber="1" src="4" channelNumber="0,1" >
             <Parameters>
              <InterpolatingParam id="2239" interp="linr"  time="0/1" value="1" leadInLength="0/1"  name="volume"/>
              <Parameter id="2240"  name="captions"/>
             </Parameters>
             <Attributes>
              <Attribute id="2241" value="" name="ident"/>
              <Attribute id="2242" value="44100" name="sampleRate"/>
              <Attribute id="2243" value="16" name="bitDepth"/>
              <Attribute id="2244" value="1" name="gain"/>
              <Attribute id="2245" value="0" name="mixToMono"/>
             </Attributes>
            </AMFile>
            <ScreenVMFile id="2246" start="1409" duration="85" scalar="1/1" mediaStart="1610/1" mediaDuration="85/1" trackNumber="0" src="4" >
             <Transformer>
              <VectorParam id="2247"  name="translation">
               <InterpolatingParam id="2248" interp="linr"  time="-9999999/1" value="0" leadInLength="0/1"  />
               <InterpolatingParam id="2249" interp="linr"  time="-9999999/1" value="0" leadInLength="0/1"  />
               <InterpolatingParam id="2250" interp="linr"  time="-9999999/1" value="0" leadInLength="0/1"  />
              </VectorParam>
              <VectorParam id="2251"  name="rotation">
               <InterpolatingParam id="2252" interp="linr"  time="-9999999/1" value="0" leadInLength="0/1"  />
               <InterpolatingParam id="2253" interp="linr"  time="-9999999/1" value="0" leadInLength="0/1"  />
               <InterpolatingParam id="2254" interp="linr"  time="-9999999/1" value="0" leadInLength="0/1"  />
              </VectorParam>
              <VectorParam id="2255"  name="shear">
               <InterpolatingParam id="2256" interp="linr"  time="-9999999/1" value="0" leadInLength="0/1"  />
               <InterpolatingParam id="2257" interp="linr"  time="-9999999/1" value="0" leadInLength="0/1"  />
               <InterpolatingParam id="2258" interp="linr"  time="-9999999/1" value="0" leadInLength="0/1"  />
              </VectorParam>
              <VectorParam id="2259"  name="scale">
               <InterpolatingParam id="2260" interp="linr"  time="-9999999/1" value="1" leadInLength="0/1"  />
               <InterpolatingParam id="2261" interp="linr"  time="-9999999/1" value="1" leadInLength="0/1"  />
               <InterpolatingParam id="2262" interp="linr"  time="-9999999/1" value="1" leadInLength="0/1"  />
              </VectorParam>
              <VectorParam id="2263"  name="anchor">
               <InterpolatingParam id="2264" interp="linr"  time="0/1" value="0" leadInLength="0/1"  />
               <InterpolatingParam id="2265" interp="linr"  time="0/1" value="0" leadInLength="0/1"  />
               <InterpolatingParam id="2266" interp="linr"  time="0/1" value="0" leadInLength="0/1"  />
              </VectorParam>
             </Transformer>
             <Parameters>
              <VectorParam id="2267"  name="sourceCrop">
               <InterpolatingParam id="2268" interp="linr"  time="0/1" value="0" leadInLength="0/1"  />
               <InterpolatingParam id="2269" interp="linr"  time="0/1" value="0" leadInLength="0/1"  />
               <InterpolatingParam id="2270" interp="linr"  time="0/1" value="0" leadInLength="0/1"  />
               <InterpolatingParam id="2271" interp="linr"  time="0/1" value="0" leadInLength="0/1"  />
              </VectorParam>
              <VectorParam id="2272"  name="geometryCrop">
               <InterpolatingParam id="2273" interp="linr"  time="-9999999/1" value="0" leadInLength="0/1"  />
               <InterpolatingParam id="2274" interp="linr"  time="-9999999/1" value="0" leadInLength="0/1"  />
               <InterpolatingParam id="2275" interp="linr"  time="-9999999/1" value="0" leadInLength="0/1"  />
               <InterpolatingParam id="2276" interp="linr"  time="-9999999/1" value="0" leadInLength="0/1"  />
              </VectorParam>
              <InterpolatingParam id="2277" interp="linr"  time="-9999999/1" value="1" leadInLength="0/1"  name="opacity"/>
              <InterpolatingParam id="2278" interp="linr"  time="0/1" value="0" leadInLength="0/1"  name="cursorOpacity"/>
              <InterpolatingParam id="2279" interp="linr"  time="0/1" value="0" leadInLength="0/1"  name="cursorScale"/>
             </Parameters>
             <Attributes>
              <Attribute id="2280" value="" name="ident"/>
             </Attributes>
             <ExtraData>
              <Entry key="ZoomPanBin">
               <ZoomPanBin id="2281"  >
                <ZoomPanKeyframes>
                 <ZoomPanKeyframe id="2282" timeRangeEnd="-9999999/1" timeRangeDuration="0/1" interpolaterName=""  />
                </ZoomPanKeyframes>
               </ZoomPanBin>
              </Entry>
              <Entry key="CursorEffectBin">
               <CursorEffectBin id="2283"  >
                <CursorEffectKeyframes>
                </CursorEffectKeyframes>
               </CursorEffectBin>
              </Entry>
             </ExtraData>
            </ScreenVMFile>
            <MetaData>
             <entry key="AutoAppliedSmartFocus" val="False"/>
             <entry key="WinSubProjectDisplayName" val=""/>
            </MetaData>
           </UnifiedMedia>
           <UnifiedMedia id="2284"  >
            <AMFile id="2285" start="1494" duration="93" scalar="1/1" mediaStart="1708/1" mediaDuration="93/1" trackNumber="1" src="4" channelNumber="0,1" >
             <Parameters>
              <InterpolatingParam id="2286" interp="linr"  time="0/1" value="1" leadInLength="0/1"  name="volume"/>
              <Parameter id="2287"  name="captions"/>
             </Parameters>
             <Attributes>
              <Attribute id="2288" value="" name="ident"/>
              <Attribute id="2289" value="44100" name="sampleRate"/>
              <Attribute id="2290" value="16" name="bitDepth"/>
              <Attribute id="2291" value="1" name="gain"/>
              <Attribute id="2292" value="0" name="mixToMono"/>
             </Attributes>
            </AMFile>
            <ScreenVMFile id="2293" start="1494" duration="93" scalar="1/1" mediaStart="1708/1" mediaDuration="93/1" trackNumber="0" src="4" >
             <Transformer>
              <VectorParam id="2294"  name="translation">
               <InterpolatingParam id="2295" interp="linr"  time="-9999999/1" value="0" leadInLength="0/1"  />
               <InterpolatingParam id="2296" interp="linr"  time="-9999999/1" value="0" leadInLength="0/1"  />
               <InterpolatingParam id="2297" interp="linr"  time="-9999999/1" value="0" leadInLength="0/1"  />
              </VectorParam>
              <VectorParam id="2298"  name="rotation">
               <InterpolatingParam id="2299" interp="linr"  time="-9999999/1" value="0" leadInLength="0/1"  />
               <InterpolatingParam id="2300" interp="linr"  time="-9999999/1" value="0" leadInLength="0/1"  />
               <InterpolatingParam id="2301" interp="linr"  time="-9999999/1" value="0" leadInLength="0/1"  />
              </VectorParam>
              <VectorParam id="2302"  name="shear">
               <InterpolatingParam id="2303" interp="linr"  time="-9999999/1" value="0" leadInLength="0/1"  />
               <InterpolatingParam id="2304" interp="linr"  time="-9999999/1" value="0" leadInLength="0/1"  />
               <InterpolatingParam id="2305" interp="linr"  time="-9999999/1" value="0" leadInLength="0/1"  />
              </VectorParam>
              <VectorParam id="2306"  name="scale">
               <InterpolatingParam id="2307" interp="linr"  time="-9999999/1" value="1" leadInLength="0/1"  />
               <InterpolatingParam id="2308" interp="linr"  time="-9999999/1" value="1" leadInLength="0/1"  />
               <InterpolatingParam id="2309" interp="linr"  time="-9999999/1" value="1" leadInLength="0/1"  />
              </VectorParam>
              <VectorParam id="2310"  name="anchor">
               <InterpolatingParam id="2311" interp="linr"  time="0/1" value="0" leadInLength="0/1"  />
               <InterpolatingParam id="2312" interp="linr"  time="0/1" value="0" leadInLength="0/1"  />
               <InterpolatingParam id="2313" interp="linr"  time="0/1" value="0" leadInLength="0/1"  />
              </VectorParam>
             </Transformer>
             <Parameters>
              <VectorParam id="2314"  name="sourceCrop">
               <InterpolatingParam id="2315" interp="linr"  time="0/1" value="0" leadInLength="0/1"  />
               <InterpolatingParam id="2316" interp="linr"  time="0/1" value="0" leadInLength="0/1"  />
               <InterpolatingParam id="2317" interp="linr"  time="0/1" value="0" leadInLength="0/1"  />
               <InterpolatingParam id="2318" interp="linr"  time="0/1" value="0" leadInLength="0/1"  />
              </VectorParam>
              <VectorParam id="2319"  name="geometryCrop">
               <InterpolatingParam id="2320" interp="linr"  time="-9999999/1" value="0" leadInLength="0/1"  />
               <InterpolatingParam id="2321" interp="linr"  time="-9999999/1" value="0" leadInLength="0/1"  />
               <InterpolatingParam id="2322" interp="linr"  time="-9999999/1" value="0" leadInLength="0/1"  />
               <InterpolatingParam id="2323" interp="linr"  time="-9999999/1" value="0" leadInLength="0/1"  />
              </VectorParam>
              <InterpolatingParam id="2324" interp="linr"  time="-9999999/1" value="1" leadInLength="0/1"  name="opacity"/>
              <InterpolatingParam id="2325" interp="linr"  time="0/1" value="0" leadInLength="0/1"  name="cursorOpacity"/>
              <InterpolatingParam id="2326" interp="linr"  time="0/1" value="0" leadInLength="0/1"  name="cursorScale"/>
             </Parameters>
             <Attributes>
              <Attribute id="2327" value="" name="ident"/>
             </Attributes>
             <ExtraData>
              <Entry key="ZoomPanBin">
               <ZoomPanBin id="2328"  >
                <ZoomPanKeyframes>
                 <ZoomPanKeyframe id="2329" timeRangeEnd="-9999999/1" timeRangeDuration="0/1" interpolaterName=""  />
                </ZoomPanKeyframes>
               </ZoomPanBin>
              </Entry>
              <Entry key="CursorEffectBin">
               <CursorEffectBin id="2330"  >
                <CursorEffectKeyframes>
                </CursorEffectKeyframes>
               </CursorEffectBin>
              </Entry>
             </ExtraData>
            </ScreenVMFile>
            <MetaData>
             <entry key="AutoAppliedSmartFocus" val="False"/>
             <entry key="WinSubProjectDisplayName" val=""/>
            </MetaData>
           </UnifiedMedia>
           <UnifiedMedia id="2331"  >
            <AMFile id="2332" start="1587" duration="42" scalar="1/1" mediaStart="1914/1" mediaDuration="42/1" trackNumber="1" src="4" channelNumber="0,1" >
             <Parameters>
              <InterpolatingParam id="2333" interp="linr"  time="0/1" value="1" leadInLength="0/1"  name="volume"/>
              <Parameter id="2334"  name="captions"/>
             </Parameters>
             <Attributes>
              <Attribute id="2335" value="" name="ident"/>
              <Attribute id="2336" value="44100" name="sampleRate"/>
              <Attribute id="2337" value="16" name="bitDepth"/>
              <Attribute id="2338" value="1" name="gain"/>
              <Attribute id="2339" value="0" name="mixToMono"/>
             </Attributes>
            </AMFile>
            <ScreenVMFile id="2340" start="1587" duration="42" scalar="1/1" mediaStart="1914/1" mediaDuration="42/1" trackNumber="0" src="4" >
             <Transformer>
              <VectorParam id="2341"  name="translation">
               <InterpolatingParam id="2342" interp="linr"  time="-9999999/1" value="0" leadInLength="0/1"  />
               <InterpolatingParam id="2343" interp="linr"  time="-9999999/1" value="0" leadInLength="0/1"  />
               <InterpolatingParam id="2344" interp="linr"  time="-9999999/1" value="0" leadInLength="0/1"  />
              </VectorParam>
              <VectorParam id="2345"  name="rotation">
               <InterpolatingParam id="2346" interp="linr"  time="-9999999/1" value="0" leadInLength="0/1"  />
               <InterpolatingParam id="2347" interp="linr"  time="-9999999/1" value="0" leadInLength="0/1"  />
               <InterpolatingParam id="2348" interp="linr"  time="-9999999/1" value="0" leadInLength="0/1"  />
              </VectorParam>
              <VectorParam id="2349"  name="shear">
               <InterpolatingParam id="2350" interp="linr"  time="-9999999/1" value="0" leadInLength="0/1"  />
               <InterpolatingParam id="2351" interp="linr"  time="-9999999/1" value="0" leadInLength="0/1"  />
               <InterpolatingParam id="2352" interp="linr"  time="-9999999/1" value="0" leadInLength="0/1"  />
              </VectorParam>
              <VectorParam id="2353"  name="scale">
               <InterpolatingParam id="2354" interp="linr"  time="-9999999/1" value="1" leadInLength="0/1"  />
               <InterpolatingParam id="2355" interp="linr"  time="-9999999/1" value="1" leadInLength="0/1"  />
               <InterpolatingParam id="2356" interp="linr"  time="-9999999/1" value="1" leadInLength="0/1"  />
              </VectorParam>
              <VectorParam id="2357"  name="anchor">
               <InterpolatingParam id="2358" interp="linr"  time="0/1" value="0" leadInLength="0/1"  />
               <InterpolatingParam id="2359" interp="linr"  time="0/1" value="0" leadInLength="0/1"  />
               <InterpolatingParam id="2360" interp="linr"  time="0/1" value="0" leadInLength="0/1"  />
              </VectorParam>
             </Transformer>
             <Parameters>
              <VectorParam id="2361"  name="sourceCrop">
               <InterpolatingParam id="2362" interp="linr"  time="0/1" value="0" leadInLength="0/1"  />
               <InterpolatingParam id="2363" interp="linr"  time="0/1" value="0" leadInLength="0/1"  />
               <InterpolatingParam id="2364" interp="linr"  time="0/1" value="0" leadInLength="0/1"  />
               <InterpolatingParam id="2365" interp="linr"  time="0/1" value="0" leadInLength="0/1"  />
              </VectorParam>
              <VectorParam id="2366"  name="geometryCrop">
               <InterpolatingParam id="2367" interp="linr"  time="-9999999/1" value="0" leadInLength="0/1"  />
               <InterpolatingParam id="2368" interp="linr"  time="-9999999/1" value="0" leadInLength="0/1"  />
               <InterpolatingParam id="2369" interp="linr"  time="-9999999/1" value="0" leadInLength="0/1"  />
               <InterpolatingParam id="2370" interp="linr"  time="-9999999/1" value="0" leadInLength="0/1"  />
              </VectorParam>
              <InterpolatingParam id="2371" interp="linr"  time="-9999999/1" value="1" leadInLength="0/1"  name="opacity"/>
              <InterpolatingParam id="2372" interp="linr"  time="0/1" value="0" leadInLength="0/1"  name="cursorOpacity"/>
              <InterpolatingParam id="2373" interp="linr"  time="0/1" value="0" leadInLength="0/1"  name="cursorScale"/>
             </Parameters>
             <Attributes>
              <Attribute id="2374" value="" name="ident"/>
             </Attributes>
             <ExtraData>
              <Entry key="ZoomPanBin">
               <ZoomPanBin id="2375"  >
                <ZoomPanKeyframes>
                 <ZoomPanKeyframe id="2376" timeRangeEnd="-9999999/1" timeRangeDuration="0/1" interpolaterName=""  />
                </ZoomPanKeyframes>
               </ZoomPanBin>
              </Entry>
              <Entry key="CursorEffectBin">
               <CursorEffectBin id="2377"  >
                <CursorEffectKeyframes>
                </CursorEffectKeyframes>
               </CursorEffectBin>
              </Entry>
             </ExtraData>
            </ScreenVMFile>
            <MetaData>
             <entry key="AutoAppliedSmartFocus" val="False"/>
             <entry key="WinSubProjectDisplayName" val=""/>
            </MetaData>
           </UnifiedMedia>
           <UnifiedMedia id="2378"  >
            <AMFile id="2379" start="1629" duration="45" scalar="1/1" mediaStart="1964/1" mediaDuration="45/1" trackNumber="1" src="4" channelNumber="0,1" >
             <Parameters>
              <InterpolatingParam id="2380" interp="linr"  time="0/1" value="1" leadInLength="0/1"  name="volume"/>
              <Parameter id="2381"  name="captions"/>
             </Parameters>
             <Attributes>
              <Attribute id="2382" value="" name="ident"/>
              <Attribute id="2383" value="44100" name="sampleRate"/>
              <Attribute id="2384" value="16" name="bitDepth"/>
              <Attribute id="2385" value="1" name="gain"/>
              <Attribute id="2386" value="0" name="mixToMono"/>
             </Attributes>
            </AMFile>
            <ScreenVMFile id="2387" start="1629" duration="45" scalar="1/1" mediaStart="1964/1" mediaDuration="45/1" trackNumber="0" src="4" >
             <Transformer>
              <VectorParam id="2388"  name="translation">
               <InterpolatingParam id="2389" interp="linr"  time="-9999999/1" value="0" leadInLength="0/1"  />
               <InterpolatingParam id="2390" interp="linr"  time="-9999999/1" value="0" leadInLength="0/1"  />
               <InterpolatingParam id="2391" interp="linr"  time="-9999999/1" value="0" leadInLength="0/1"  />
              </VectorParam>
              <VectorParam id="2392"  name="rotation">
               <InterpolatingParam id="2393" interp="linr"  time="-9999999/1" value="0" leadInLength="0/1"  />
               <InterpolatingParam id="2394" interp="linr"  time="-9999999/1" value="0" leadInLength="0/1"  />
               <InterpolatingParam id="2395" interp="linr"  time="-9999999/1" value="0" leadInLength="0/1"  />
              </VectorParam>
              <VectorParam id="2396"  name="shear">
               <InterpolatingParam id="2397" interp="linr"  time="-9999999/1" value="0" leadInLength="0/1"  />
               <InterpolatingParam id="2398" interp="linr"  time="-9999999/1" value="0" leadInLength="0/1"  />
               <InterpolatingParam id="2399" interp="linr"  time="-9999999/1" value="0" leadInLength="0/1"  />
              </VectorParam>
              <VectorParam id="2400"  name="scale">
               <InterpolatingParam id="2401" interp="linr"  time="-9999999/1" value="1" leadInLength="0/1"  />
               <InterpolatingParam id="2402" interp="linr"  time="-9999999/1" value="1" leadInLength="0/1"  />
               <InterpolatingParam id="2403" interp="linr"  time="-9999999/1" value="1" leadInLength="0/1"  />
              </VectorParam>
              <VectorParam id="2404"  name="anchor">
               <InterpolatingParam id="2405" interp="linr"  time="0/1" value="0" leadInLength="0/1"  />
               <InterpolatingParam id="2406" interp="linr"  time="0/1" value="0" leadInLength="0/1"  />
               <InterpolatingParam id="2407" interp="linr"  time="0/1" value="0" leadInLength="0/1"  />
              </VectorParam>
             </Transformer>
             <Parameters>
              <VectorParam id="2408"  name="sourceCrop">
               <InterpolatingParam id="2409" interp="linr"  time="0/1" value="0" leadInLength="0/1"  />
               <InterpolatingParam id="2410" interp="linr"  time="0/1" value="0" leadInLength="0/1"  />
               <InterpolatingParam id="2411" interp="linr"  time="0/1" value="0" leadInLength="0/1"  />
               <InterpolatingParam id="2412" interp="linr"  time="0/1" value="0" leadInLength="0/1"  />
              </VectorParam>
              <VectorParam id="2413"  name="geometryCrop">
               <InterpolatingParam id="2414" interp="linr"  time="-9999999/1" value="0" leadInLength="0/1"  />
               <InterpolatingParam id="2415" interp="linr"  time="-9999999/1" value="0" leadInLength="0/1"  />
               <InterpolatingParam id="2416" interp="linr"  time="-9999999/1" value="0" leadInLength="0/1"  />
               <InterpolatingParam id="2417" interp="linr"  time="-9999999/1" value="0" leadInLength="0/1"  />
              </VectorParam>
              <InterpolatingParam id="2418" interp="linr"  time="-9999999/1" value="1" leadInLength="0/1"  name="opacity"/>
              <InterpolatingParam id="2419" interp="linr"  time="0/1" value="0" leadInLength="0/1"  name="cursorOpacity"/>
              <InterpolatingParam id="2420" interp="linr"  time="0/1" value="0" leadInLength="0/1"  name="cursorScale"/>
             </Parameters>
             <Attributes>
              <Attribute id="2421" value="" name="ident"/>
             </Attributes>
             <ExtraData>
              <Entry key="ZoomPanBin">
               <ZoomPanBin id="2422"  >
                <ZoomPanKeyframes>
                 <ZoomPanKeyframe id="2423" timeRangeEnd="-9999999/1" timeRangeDuration="0/1" interpolaterName=""  />
                </ZoomPanKeyframes>
               </ZoomPanBin>
              </Entry>
              <Entry key="CursorEffectBin">
               <CursorEffectBin id="2424"  >
                <CursorEffectKeyframes>
                </CursorEffectKeyframes>
               </CursorEffectBin>
              </Entry>
             </ExtraData>
            </ScreenVMFile>
            <MetaData>
             <entry key="AutoAppliedSmartFocus" val="False"/>
             <entry key="WinSubProjectDisplayName" val=""/>
            </MetaData>
           </UnifiedMedia>
           <UnifiedMedia id="2425"  >
            <AMFile id="2426" start="1674" duration="66" scalar="1/1" mediaStart="2021/1" mediaDuration="66/1" trackNumber="1" src="4" channelNumber="0,1" >
             <Parameters>
              <InterpolatingParam id="2427" interp="linr"  time="0/1" value="1" leadInLength="0/1"  name="volume"/>
              <Parameter id="2428"  name="captions"/>
             </Parameters>
             <Attributes>
              <Attribute id="2429" value="" name="ident"/>
              <Attribute id="2430" value="44100" name="sampleRate"/>
              <Attribute id="2431" value="16" name="bitDepth"/>
              <Attribute id="2432" value="1" name="gain"/>
              <Attribute id="2433" value="0" name="mixToMono"/>
             </Attributes>
            </AMFile>
            <ScreenVMFile id="2434" start="1674" duration="66" scalar="1/1" mediaStart="2021/1" mediaDuration="66/1" trackNumber="0" src="4" >
             <Transformer>
              <VectorParam id="2435"  name="translation">
               <InterpolatingParam id="2436" interp="linr"  time="-9999999/1" value="0" leadInLength="0/1"  />
               <InterpolatingParam id="2437" interp="linr"  time="-9999999/1" value="0" leadInLength="0/1"  />
               <InterpolatingParam id="2438" interp="linr"  time="-9999999/1" value="0" leadInLength="0/1"  />
              </VectorParam>
              <VectorParam id="2439"  name="rotation">
               <InterpolatingParam id="2440" interp="linr"  time="-9999999/1" value="0" leadInLength="0/1"  />
               <InterpolatingParam id="2441" interp="linr"  time="-9999999/1" value="0" leadInLength="0/1"  />
               <InterpolatingParam id="2442" interp="linr"  time="-9999999/1" value="0" leadInLength="0/1"  />
              </VectorParam>
              <VectorParam id="2443"  name="shear">
               <InterpolatingParam id="2444" interp="linr"  time="-9999999/1" value="0" leadInLength="0/1"  />
               <InterpolatingParam id="2445" interp="linr"  time="-9999999/1" value="0" leadInLength="0/1"  />
               <InterpolatingParam id="2446" interp="linr"  time="-9999999/1" value="0" leadInLength="0/1"  />
              </VectorParam>
              <VectorParam id="2447"  name="scale">
               <InterpolatingParam id="2448" interp="linr"  time="-9999999/1" value="1" leadInLength="0/1"  />
               <InterpolatingParam id="2449" interp="linr"  time="-9999999/1" value="1" leadInLength="0/1"  />
               <InterpolatingParam id="2450" interp="linr"  time="-9999999/1" value="1" leadInLength="0/1"  />
              </VectorParam>
              <VectorParam id="2451"  name="anchor">
               <InterpolatingParam id="2452" interp="linr"  time="0/1" value="0" leadInLength="0/1"  />
               <InterpolatingParam id="2453" interp="linr"  time="0/1" value="0" leadInLength="0/1"  />
               <InterpolatingParam id="2454" interp="linr"  time="0/1" value="0" leadInLength="0/1"  />
              </VectorParam>
             </Transformer>
             <Parameters>
              <VectorParam id="2455"  name="sourceCrop">
               <InterpolatingParam id="2456" interp="linr"  time="0/1" value="0" leadInLength="0/1"  />
               <InterpolatingParam id="2457" interp="linr"  time="0/1" value="0" leadInLength="0/1"  />
               <InterpolatingParam id="2458" interp="linr"  time="0/1" value="0" leadInLength="0/1"  />
               <InterpolatingParam id="2459" interp="linr"  time="0/1" value="0" leadInLength="0/1"  />
              </VectorParam>
              <VectorParam id="2460"  name="geometryCrop">
               <InterpolatingParam id="2461" interp="linr"  time="-9999999/1" value="0" leadInLength="0/1"  />
               <InterpolatingParam id="2462" interp="linr"  time="-9999999/1" value="0" leadInLength="0/1"  />
               <InterpolatingParam id="2463" interp="linr"  time="-9999999/1" value="0" leadInLength="0/1"  />
               <InterpolatingParam id="2464" interp="linr"  time="-9999999/1" value="0" leadInLength="0/1"  />
              </VectorParam>
              <InterpolatingParam id="2465" interp="linr"  time="-9999999/1" value="1" leadInLength="0/1"  name="opacity"/>
              <InterpolatingParam id="2466" interp="linr"  time="0/1" value="0" leadInLength="0/1"  name="cursorOpacity"/>
              <InterpolatingParam id="2467" interp="linr"  time="0/1" value="0" leadInLength="0/1"  name="cursorScale"/>
             </Parameters>
             <Attributes>
              <Attribute id="2468" value="" name="ident"/>
             </Attributes>
             <ExtraData>
              <Entry key="ZoomPanBin">
               <ZoomPanBin id="2469"  >
                <ZoomPanKeyframes>
                 <ZoomPanKeyframe id="2470" timeRangeEnd="-9999999/1" timeRangeDuration="0/1" interpolaterName=""  />
                </ZoomPanKeyframes>
               </ZoomPanBin>
              </Entry>
              <Entry key="CursorEffectBin">
               <CursorEffectBin id="2471"  >
                <CursorEffectKeyframes>
                </CursorEffectKeyframes>
               </CursorEffectBin>
              </Entry>
             </ExtraData>
            </ScreenVMFile>
            <MetaData>
             <entry key="AutoAppliedSmartFocus" val="False"/>
             <entry key="WinSubProjectDisplayName" val=""/>
            </MetaData>
           </UnifiedMedia>
           <UnifiedMedia id="2472"  >
            <AMFile id="2473" start="1740" duration="60" scalar="1/1" mediaStart="2327/1" mediaDuration="60/1" trackNumber="1" src="4" channelNumber="0,1" >
             <Parameters>
              <InterpolatingParam id="2474" interp="linr"  time="0/1" value="1" leadInLength="0/1"  name="volume"/>
              <Parameter id="2475"  name="captions"/>
             </Parameters>
             <Attributes>
              <Attribute id="2476" value="" name="ident"/>
              <Attribute id="2477" value="44100" name="sampleRate"/>
              <Attribute id="2478" value="16" name="bitDepth"/>
              <Attribute id="2479" value="1" name="gain"/>
              <Attribute id="2480" value="0" name="mixToMono"/>
             </Attributes>
            </AMFile>
            <ScreenVMFile id="2481" start="1740" duration="60" scalar="1/1" mediaStart="2327/1" mediaDuration="60/1" trackNumber="0" src="4" >
             <Transformer>
              <VectorParam id="2482"  name="translation">
               <InterpolatingParam id="2483" interp="linr"  time="-9999999/1" value="0" leadInLength="0/1"  />
               <InterpolatingParam id="2484" interp="linr"  time="-9999999/1" value="0" leadInLength="0/1"  />
               <InterpolatingParam id="2485" interp="linr"  time="-9999999/1" value="0" leadInLength="0/1"  />
              </VectorParam>
              <VectorParam id="2486"  name="rotation">
               <InterpolatingParam id="2487" interp="linr"  time="-9999999/1" value="0" leadInLength="0/1"  />
               <InterpolatingParam id="2488" interp="linr"  time="-9999999/1" value="0" leadInLength="0/1"  />
               <InterpolatingParam id="2489" interp="linr"  time="-9999999/1" value="0" leadInLength="0/1"  />
              </VectorParam>
              <VectorParam id="2490"  name="shear">
               <InterpolatingParam id="2491" interp="linr"  time="-9999999/1" value="0" leadInLength="0/1"  />
               <InterpolatingParam id="2492" interp="linr"  time="-9999999/1" value="0" leadInLength="0/1"  />
               <InterpolatingParam id="2493" interp="linr"  time="-9999999/1" value="0" leadInLength="0/1"  />
              </VectorParam>
              <VectorParam id="2494"  name="scale">
               <InterpolatingParam id="2495" interp="linr"  time="-9999999/1" value="1" leadInLength="0/1"  />
               <InterpolatingParam id="2496" interp="linr"  time="-9999999/1" value="1" leadInLength="0/1"  />
               <InterpolatingParam id="2497" interp="linr"  time="-9999999/1" value="1" leadInLength="0/1"  />
              </VectorParam>
              <VectorParam id="2498"  name="anchor">
               <InterpolatingParam id="2499" interp="linr"  time="0/1" value="0" leadInLength="0/1"  />
               <InterpolatingParam id="2500" interp="linr"  time="0/1" value="0" leadInLength="0/1"  />
               <InterpolatingParam id="2501" interp="linr"  time="0/1" value="0" leadInLength="0/1"  />
              </VectorParam>
             </Transformer>
             <Parameters>
              <VectorParam id="2502"  name="sourceCrop">
               <InterpolatingParam id="2503" interp="linr"  time="0/1" value="0" leadInLength="0/1"  />
               <InterpolatingParam id="2504" interp="linr"  time="0/1" value="0" leadInLength="0/1"  />
               <InterpolatingParam id="2505" interp="linr"  time="0/1" value="0" leadInLength="0/1"  />
               <InterpolatingParam id="2506" interp="linr"  time="0/1" value="0" leadInLength="0/1"  />
              </VectorParam>
              <VectorParam id="2507"  name="geometryCrop">
               <InterpolatingParam id="2508" interp="linr"  time="-9999999/1" value="0" leadInLength="0/1"  />
               <InterpolatingParam id="2509" interp="linr"  time="-9999999/1" value="0" leadInLength="0/1"  />
               <InterpolatingParam id="2510" interp="linr"  time="-9999999/1" value="0" leadInLength="0/1"  />
               <InterpolatingParam id="2511" interp="linr"  time="-9999999/1" value="0" leadInLength="0/1"  />
              </VectorParam>
              <InterpolatingParam id="2512" interp="linr"  time="-9999999/1" value="1" leadInLength="0/1"  name="opacity"/>
              <InterpolatingParam id="2513" interp="linr"  time="0/1" value="0" leadInLength="0/1"  name="cursorOpacity"/>
              <InterpolatingParam id="2514" interp="linr"  time="0/1" value="0" leadInLength="0/1"  name="cursorScale"/>
             </Parameters>
             <Attributes>
              <Attribute id="2515" value="" name="ident"/>
             </Attributes>
             <ExtraData>
              <Entry key="ZoomPanBin">
               <ZoomPanBin id="2516"  >
                <ZoomPanKeyframes>
                 <ZoomPanKeyframe id="2517" timeRangeEnd="-9999999/1" timeRangeDuration="0/1" interpolaterName=""  />
                </ZoomPanKeyframes>
               </ZoomPanBin>
              </Entry>
              <Entry key="CursorEffectBin">
               <CursorEffectBin id="2518"  >
                <CursorEffectKeyframes>
                </CursorEffectKeyframes>
               </CursorEffectBin>
              </Entry>
             </ExtraData>
            </ScreenVMFile>
            <MetaData>
             <entry key="AutoAppliedSmartFocus" val="False"/>
             <entry key="WinSubProjectDisplayName" val=""/>
            </MetaData>
           </UnifiedMedia>
           <UnifiedMedia id="2519"  >
            <AMFile id="2520" start="1800" duration="49" scalar="1/1" mediaStart="2393/1" mediaDuration="49/1" trackNumber="1" src="4" channelNumber="0,1" >
             <Parameters>
              <InterpolatingParam id="2521" interp="linr"  time="0/1" value="1" leadInLength="0/1"  name="volume"/>
              <Parameter id="2522"  name="captions"/>
             </Parameters>
             <Attributes>
              <Attribute id="2523" value="" name="ident"/>
              <Attribute id="2524" value="44100" name="sampleRate"/>
              <Attribute id="2525" value="16" name="bitDepth"/>
              <Attribute id="2526" value="1" name="gain"/>
              <Attribute id="2527" value="0" name="mixToMono"/>
             </Attributes>
            </AMFile>
            <ScreenVMFile id="2528" start="1800" duration="49" scalar="1/1" mediaStart="2393/1" mediaDuration="49/1" trackNumber="0" src="4" >
             <Transformer>
              <VectorParam id="2529"  name="translation">
               <InterpolatingParam id="2530" interp="linr"  time="-9999999/1" value="0" leadInLength="0/1"  />
               <InterpolatingParam id="2531" interp="linr"  time="-9999999/1" value="0" leadInLength="0/1"  />
               <InterpolatingParam id="2532" interp="linr"  time="-9999999/1" value="0" leadInLength="0/1"  />
              </VectorParam>
              <VectorParam id="2533"  name="rotation">
               <InterpolatingParam id="2534" interp="linr"  time="-9999999/1" value="0" leadInLength="0/1"  />
               <InterpolatingParam id="2535" interp="linr"  time="-9999999/1" value="0" leadInLength="0/1"  />
               <InterpolatingParam id="2536" interp="linr"  time="-9999999/1" value="0" leadInLength="0/1"  />
              </VectorParam>
              <VectorParam id="2537"  name="shear">
               <InterpolatingParam id="2538" interp="linr"  time="-9999999/1" value="0" leadInLength="0/1"  />
               <InterpolatingParam id="2539" interp="linr"  time="-9999999/1" value="0" leadInLength="0/1"  />
               <InterpolatingParam id="2540" interp="linr"  time="-9999999/1" value="0" leadInLength="0/1"  />
              </VectorParam>
              <VectorParam id="2541"  name="scale">
               <InterpolatingParam id="2542" interp="linr"  time="-9999999/1" value="1" leadInLength="0/1"  />
               <InterpolatingParam id="2543" interp="linr"  time="-9999999/1" value="1" leadInLength="0/1"  />
               <InterpolatingParam id="2544" interp="linr"  time="-9999999/1" value="1" leadInLength="0/1"  />
              </VectorParam>
              <VectorParam id="2545"  name="anchor">
               <InterpolatingParam id="2546" interp="linr"  time="0/1" value="0" leadInLength="0/1"  />
               <InterpolatingParam id="2547" interp="linr"  time="0/1" value="0" leadInLength="0/1"  />
               <InterpolatingParam id="2548" interp="linr"  time="0/1" value="0" leadInLength="0/1"  />
              </VectorParam>
             </Transformer>
             <Parameters>
              <VectorParam id="2549"  name="sourceCrop">
               <InterpolatingParam id="2550" interp="linr"  time="0/1" value="0" leadInLength="0/1"  />
               <InterpolatingParam id="2551" interp="linr"  time="0/1" value="0" leadInLength="0/1"  />
               <InterpolatingParam id="2552" interp="linr"  time="0/1" value="0" leadInLength="0/1"  />
               <InterpolatingParam id="2553" interp="linr"  time="0/1" value="0" leadInLength="0/1"  />
              </VectorParam>
              <VectorParam id="2554"  name="geometryCrop">
               <InterpolatingParam id="2555" interp="linr"  time="-9999999/1" value="0" leadInLength="0/1"  />
               <InterpolatingParam id="2556" interp="linr"  time="-9999999/1" value="0" leadInLength="0/1"  />
               <InterpolatingParam id="2557" interp="linr"  time="-9999999/1" value="0" leadInLength="0/1"  />
               <InterpolatingParam id="2558" interp="linr"  time="-9999999/1" value="0" leadInLength="0/1"  />
              </VectorParam>
              <InterpolatingParam id="2559" interp="linr"  time="-9999999/1" value="1" leadInLength="0/1"  name="opacity"/>
              <InterpolatingParam id="2560" interp="linr"  time="0/1" value="0" leadInLength="0/1"  name="cursorOpacity"/>
              <InterpolatingParam id="2561" interp="linr"  time="0/1" value="0" leadInLength="0/1"  name="cursorScale"/>
             </Parameters>
             <Attributes>
              <Attribute id="2562" value="" name="ident"/>
             </Attributes>
             <ExtraData>
              <Entry key="ZoomPanBin">
               <ZoomPanBin id="2563"  >
                <ZoomPanKeyframes>
                 <ZoomPanKeyframe id="2564" timeRangeEnd="-9999999/1" timeRangeDuration="0/1" interpolaterName=""  />
                </ZoomPanKeyframes>
               </ZoomPanBin>
              </Entry>
              <Entry key="CursorEffectBin">
               <CursorEffectBin id="2565"  >
                <CursorEffectKeyframes>
                </CursorEffectKeyframes>
               </CursorEffectBin>
              </Entry>
             </ExtraData>
            </ScreenVMFile>
            <MetaData>
             <entry key="AutoAppliedSmartFocus" val="False"/>
             <entry key="WinSubProjectDisplayName" val=""/>
            </MetaData>
           </UnifiedMedia>
           <UnifiedMedia id="2566"  >
            <AMFile id="2567" start="1849" duration="130" scalar="1/1" mediaStart="2450/1" mediaDuration="130/1" trackNumber="1" src="4" channelNumber="0,1" >
             <Parameters>
              <InterpolatingParam id="2568" interp="linr"  time="0/1" value="1" leadInLength="0/1"  name="volume"/>
              <Parameter id="2569"  name="captions"/>
             </Parameters>
             <Attributes>
              <Attribute id="2570" value="" name="ident"/>
              <Attribute id="2571" value="44100" name="sampleRate"/>
              <Attribute id="2572" value="16" name="bitDepth"/>
              <Attribute id="2573" value="1" name="gain"/>
              <Attribute id="2574" value="0" name="mixToMono"/>
             </Attributes>
            </AMFile>
            <ScreenVMFile id="2575" start="1849" duration="130" scalar="1/1" mediaStart="2450/1" mediaDuration="130/1" trackNumber="0" src="4" >
             <Transformer>
              <VectorParam id="2576"  name="translation">
               <InterpolatingParam id="2577" interp="linr"  time="-9999999/1" value="0" leadInLength="0/1"  />
               <InterpolatingParam id="2578" interp="linr"  time="-9999999/1" value="0" leadInLength="0/1"  />
               <InterpolatingParam id="2579" interp="linr"  time="-9999999/1" value="0" leadInLength="0/1"  />
              </VectorParam>
              <VectorParam id="2580"  name="rotation">
               <InterpolatingParam id="2581" interp="linr"  time="-9999999/1" value="0" leadInLength="0/1"  />
               <InterpolatingParam id="2582" interp="linr"  time="-9999999/1" value="0" leadInLength="0/1"  />
               <InterpolatingParam id="2583" interp="linr"  time="-9999999/1" value="0" leadInLength="0/1"  />
              </VectorParam>
              <VectorParam id="2584"  name="shear">
               <InterpolatingParam id="2585" interp="linr"  time="-9999999/1" value="0" leadInLength="0/1"  />
               <InterpolatingParam id="2586" interp="linr"  time="-9999999/1" value="0" leadInLength="0/1"  />
               <InterpolatingParam id="2587" interp="linr"  time="-9999999/1" value="0" leadInLength="0/1"  />
              </VectorParam>
              <VectorParam id="2588"  name="scale">
               <InterpolatingParam id="2589" interp="linr"  time="-9999999/1" value="1" leadInLength="0/1"  />
               <InterpolatingParam id="2590" interp="linr"  time="-9999999/1" value="1" leadInLength="0/1"  />
               <InterpolatingParam id="2591" interp="linr"  time="-9999999/1" value="1" leadInLength="0/1"  />
              </VectorParam>
              <VectorParam id="2592"  name="anchor">
               <InterpolatingParam id="2593" interp="linr"  time="0/1" value="0" leadInLength="0/1"  />
               <InterpolatingParam id="2594" interp="linr"  time="0/1" value="0" leadInLength="0/1"  />
               <InterpolatingParam id="2595" interp="linr"  time="0/1" value="0" leadInLength="0/1"  />
              </VectorParam>
             </Transformer>
             <Parameters>
              <VectorParam id="2596"  name="sourceCrop">
               <InterpolatingParam id="2597" interp="linr"  time="0/1" value="0" leadInLength="0/1"  />
               <InterpolatingParam id="2598" interp="linr"  time="0/1" value="0" leadInLength="0/1"  />
               <InterpolatingParam id="2599" interp="linr"  time="0/1" value="0" leadInLength="0/1"  />
               <InterpolatingParam id="2600" interp="linr"  time="0/1" value="0" leadInLength="0/1"  />
              </VectorParam>
              <VectorParam id="2601"  name="geometryCrop">
               <InterpolatingParam id="2602" interp="linr"  time="-9999999/1" value="0" leadInLength="0/1"  />
               <InterpolatingParam id="2603" interp="linr"  time="-9999999/1" value="0" leadInLength="0/1"  />
               <InterpolatingParam id="2604" interp="linr"  time="-9999999/1" value="0" leadInLength="0/1"  />
               <InterpolatingParam id="2605" interp="linr"  time="-9999999/1" value="0" leadInLength="0/1"  />
              </VectorParam>
              <InterpolatingParam id="2606" interp="linr"  time="-9999999/1" value="1" leadInLength="0/1"  name="opacity"/>
              <InterpolatingParam id="2607" interp="linr"  time="0/1" value="0" leadInLength="0/1"  name="cursorOpacity"/>
              <InterpolatingParam id="2608" interp="linr"  time="0/1" value="0" leadInLength="0/1"  name="cursorScale"/>
             </Parameters>
             <Attributes>
              <Attribute id="2609" value="" name="ident"/>
             </Attributes>
             <ExtraData>
              <Entry key="ZoomPanBin">
               <ZoomPanBin id="2610"  >
                <ZoomPanKeyframes>
                 <ZoomPanKeyframe id="2611" timeRangeEnd="-9999999/1" timeRangeDuration="0/1" interpolaterName=""  />
                </ZoomPanKeyframes>
               </ZoomPanBin>
              </Entry>
              <Entry key="CursorEffectBin">
               <CursorEffectBin id="2612"  >
                <CursorEffectKeyframes>
                </CursorEffectKeyframes>
               </CursorEffectBin>
              </Entry>
             </ExtraData>
            </ScreenVMFile>
            <MetaData>
             <entry key="AutoAppliedSmartFocus" val="False"/>
             <entry key="WinSubProjectDisplayName" val=""/>
            </MetaData>
           </UnifiedMedia>
           <UnifiedMedia id="2613"  >
            <AMFile id="2614" start="1979" duration="94" scalar="1/1" mediaStart="2778/1" mediaDuration="94/1" trackNumber="1" src="4" channelNumber="0,1" >
             <Parameters>
              <InterpolatingParam id="2615" interp="linr"  time="0/1" value="1" leadInLength="0/1"  name="volume"/>
              <Parameter id="2616"  name="captions"/>
             </Parameters>
             <Attributes>
              <Attribute id="2617" value="" name="ident"/>
              <Attribute id="2618" value="44100" name="sampleRate"/>
              <Attribute id="2619" value="16" name="bitDepth"/>
              <Attribute id="2620" value="1" name="gain"/>
              <Attribute id="2621" value="0" name="mixToMono"/>
             </Attributes>
            </AMFile>
            <ScreenVMFile id="2622" start="1979" duration="94" scalar="1/1" mediaStart="2778/1" mediaDuration="94/1" trackNumber="0" src="4" >
             <Transformer>
              <VectorParam id="2623"  name="translation">
               <InterpolatingParam id="2624" interp="linr"  time="-9999999/1" value="0" leadInLength="0/1"  />
               <InterpolatingParam id="2625" interp="linr"  time="-9999999/1" value="0" leadInLength="0/1"  />
               <InterpolatingParam id="2626" interp="linr"  time="-9999999/1" value="0" leadInLength="0/1"  />
              </VectorParam>
              <VectorParam id="2627"  name="rotation">
               <InterpolatingParam id="2628" interp="linr"  time="-9999999/1" value="0" leadInLength="0/1"  />
               <InterpolatingParam id="2629" interp="linr"  time="-9999999/1" value="0" leadInLength="0/1"  />
               <InterpolatingParam id="2630" interp="linr"  time="-9999999/1" value="0" leadInLength="0/1"  />
              </VectorParam>
              <VectorParam id="2631"  name="shear">
               <InterpolatingParam id="2632" interp="linr"  time="-9999999/1" value="0" leadInLength="0/1"  />
               <InterpolatingParam id="2633" interp="linr"  time="-9999999/1" value="0" leadInLength="0/1"  />
               <InterpolatingParam id="2634" interp="linr"  time="-9999999/1" value="0" leadInLength="0/1"  />
              </VectorParam>
              <VectorParam id="2635"  name="scale">
               <InterpolatingParam id="2636" interp="linr"  time="-9999999/1" value="1" leadInLength="0/1"  />
               <InterpolatingParam id="2637" interp="linr"  time="-9999999/1" value="1" leadInLength="0/1"  />
               <InterpolatingParam id="2638" interp="linr"  time="-9999999/1" value="1" leadInLength="0/1"  />
              </VectorParam>
              <VectorParam id="2639"  name="anchor">
               <InterpolatingParam id="2640" interp="linr"  time="0/1" value="0" leadInLength="0/1"  />
               <InterpolatingParam id="2641" interp="linr"  time="0/1" value="0" leadInLength="0/1"  />
               <InterpolatingParam id="2642" interp="linr"  time="0/1" value="0" leadInLength="0/1"  />
              </VectorParam>
             </Transformer>
             <Parameters>
              <VectorParam id="2643"  name="sourceCrop">
               <InterpolatingParam id="2644" interp="linr"  time="0/1" value="0" leadInLength="0/1"  />
               <InterpolatingParam id="2645" interp="linr"  time="0/1" value="0" leadInLength="0/1"  />
               <InterpolatingParam id="2646" interp="linr"  time="0/1" value="0" leadInLength="0/1"  />
               <InterpolatingParam id="2647" interp="linr"  time="0/1" value="0" leadInLength="0/1"  />
              </VectorParam>
              <VectorParam id="2648"  name="geometryCrop">
               <InterpolatingParam id="2649" interp="linr"  time="-9999999/1" value="0" leadInLength="0/1"  />
               <InterpolatingParam id="2650" interp="linr"  time="-9999999/1" value="0" leadInLength="0/1"  />
               <InterpolatingParam id="2651" interp="linr"  time="-9999999/1" value="0" leadInLength="0/1"  />
               <InterpolatingParam id="2652" interp="linr"  time="-9999999/1" value="0" leadInLength="0/1"  />
              </VectorParam>
              <InterpolatingParam id="2653" interp="linr"  time="-9999999/1" value="1" leadInLength="0/1"  name="opacity"/>
              <InterpolatingParam id="2654" interp="linr"  time="0/1" value="0" leadInLength="0/1"  name="cursorOpacity"/>
              <InterpolatingParam id="2655" interp="linr"  time="0/1" value="0" leadInLength="0/1"  name="cursorScale"/>
             </Parameters>
             <Attributes>
              <Attribute id="2656" value="" name="ident"/>
             </Attributes>
             <ExtraData>
              <Entry key="ZoomPanBin">
               <ZoomPanBin id="2657"  >
                <ZoomPanKeyframes>
                 <ZoomPanKeyframe id="2658" timeRangeEnd="-9999999/1" timeRangeDuration="0/1" interpolaterName=""  />
                </ZoomPanKeyframes>
               </ZoomPanBin>
              </Entry>
              <Entry key="CursorEffectBin">
               <CursorEffectBin id="2659"  >
                <CursorEffectKeyframes>
                </CursorEffectKeyframes>
               </CursorEffectBin>
              </Entry>
             </ExtraData>
            </ScreenVMFile>
            <MetaData>
             <entry key="AutoAppliedSmartFocus" val="False"/>
             <entry key="WinSubProjectDisplayName" val=""/>
            </MetaData>
           </UnifiedMedia>
           <UnifiedMedia id="2660"  >
            <AMFile id="2661" start="2073" duration="80" scalar="1/1" mediaStart="2879/1" mediaDuration="80/1" trackNumber="1" src="4" channelNumber="0,1" >
             <Parameters>
              <InterpolatingParam id="2662" interp="linr"  time="0/1" value="1" leadInLength="0/1"  name="volume"/>
              <Parameter id="2663"  name="captions"/>
             </Parameters>
             <Attributes>
              <Attribute id="2664" value="" name="ident"/>
              <Attribute id="2665" value="44100" name="sampleRate"/>
              <Attribute id="2666" value="16" name="bitDepth"/>
              <Attribute id="2667" value="1" name="gain"/>
              <Attribute id="2668" value="0" name="mixToMono"/>
             </Attributes>
            </AMFile>
            <ScreenVMFile id="2669" start="2073" duration="80" scalar="1/1" mediaStart="2879/1" mediaDuration="80/1" trackNumber="0" src="4" >
             <Transformer>
              <VectorParam id="2670"  name="translation">
               <InterpolatingParam id="2671" interp="linr"  time="-9999999/1" value="0" leadInLength="0/1"  />
               <InterpolatingParam id="2672" interp="linr"  time="-9999999/1" value="0" leadInLength="0/1"  />
               <InterpolatingParam id="2673" interp="linr"  time="-9999999/1" value="0" leadInLength="0/1"  />
              </VectorParam>
              <VectorParam id="2674"  name="rotation">
               <InterpolatingParam id="2675" interp="linr"  time="-9999999/1" value="0" leadInLength="0/1"  />
               <InterpolatingParam id="2676" interp="linr"  time="-9999999/1" value="0" leadInLength="0/1"  />
               <InterpolatingParam id="2677" interp="linr"  time="-9999999/1" value="0" leadInLength="0/1"  />
              </VectorParam>
              <VectorParam id="2678"  name="shear">
               <InterpolatingParam id="2679" interp="linr"  time="-9999999/1" value="0" leadInLength="0/1"  />
               <InterpolatingParam id="2680" interp="linr"  time="-9999999/1" value="0" leadInLength="0/1"  />
               <InterpolatingParam id="2681" interp="linr"  time="-9999999/1" value="0" leadInLength="0/1"  />
              </VectorParam>
              <VectorParam id="2682"  name="scale">
               <InterpolatingParam id="2683" interp="linr"  time="-9999999/1" value="1" leadInLength="0/1"  />
               <InterpolatingParam id="2684" interp="linr"  time="-9999999/1" value="1" leadInLength="0/1"  />
               <InterpolatingParam id="2685" interp="linr"  time="-9999999/1" value="1" leadInLength="0/1"  />
              </VectorParam>
              <VectorParam id="2686"  name="anchor">
               <InterpolatingParam id="2687" interp="linr"  time="0/1" value="0" leadInLength="0/1"  />
               <InterpolatingParam id="2688" interp="linr"  time="0/1" value="0" leadInLength="0/1"  />
               <InterpolatingParam id="2689" interp="linr"  time="0/1" value="0" leadInLength="0/1"  />
              </VectorParam>
             </Transformer>
             <Parameters>
              <VectorParam id="2690"  name="sourceCrop">
               <InterpolatingParam id="2691" interp="linr"  time="0/1" value="0" leadInLength="0/1"  />
               <InterpolatingParam id="2692" interp="linr"  time="0/1" value="0" leadInLength="0/1"  />
               <InterpolatingParam id="2693" interp="linr"  time="0/1" value="0" leadInLength="0/1"  />
               <InterpolatingParam id="2694" interp="linr"  time="0/1" value="0" leadInLength="0/1"  />
              </VectorParam>
              <VectorParam id="2695"  name="geometryCrop">
               <InterpolatingParam id="2696" interp="linr"  time="-9999999/1" value="0" leadInLength="0/1"  />
               <InterpolatingParam id="2697" interp="linr"  time="-9999999/1" value="0" leadInLength="0/1"  />
               <InterpolatingParam id="2698" interp="linr"  time="-9999999/1" value="0" leadInLength="0/1"  />
               <InterpolatingParam id="2699" interp="linr"  time="-9999999/1" value="0" leadInLength="0/1"  />
              </VectorParam>
              <InterpolatingParam id="2700" interp="linr"  time="-9999999/1" value="1" leadInLength="0/1"  name="opacity"/>
              <InterpolatingParam id="2701" interp="linr"  time="0/1" value="0" leadInLength="0/1"  name="cursorOpacity"/>
              <InterpolatingParam id="2702" interp="linr"  time="0/1" value="0" leadInLength="0/1"  name="cursorScale"/>
             </Parameters>
             <Attributes>
              <Attribute id="2703" value="" name="ident"/>
             </Attributes>
             <ExtraData>
              <Entry key="ZoomPanBin">
               <ZoomPanBin id="2704"  >
                <ZoomPanKeyframes>
                 <ZoomPanKeyframe id="2705" timeRangeEnd="-9999999/1" timeRangeDuration="0/1" interpolaterName=""  />
                </ZoomPanKeyframes>
               </ZoomPanBin>
              </Entry>
              <Entry key="CursorEffectBin">
               <CursorEffectBin id="2706"  >
                <CursorEffectKeyframes>
                </CursorEffectKeyframes>
               </CursorEffectBin>
              </Entry>
             </ExtraData>
            </ScreenVMFile>
            <MetaData>
             <entry key="AutoAppliedSmartFocus" val="False"/>
             <entry key="WinSubProjectDisplayName" val=""/>
            </MetaData>
           </UnifiedMedia>
           <UnifiedMedia id="2707"  >
            <AMFile id="2708" start="2153" duration="154" scalar="1/1" mediaStart="3431/1" mediaDuration="154/1" trackNumber="1" src="4" channelNumber="0,1" >
             <Parameters>
              <InterpolatingParam id="2709" interp="linr"  time="0/1" value="1" leadInLength="0/1"  name="volume"/>
              <Parameter id="2710"  name="captions"/>
             </Parameters>
             <Attributes>
              <Attribute id="2711" value="" name="ident"/>
              <Attribute id="2712" value="44100" name="sampleRate"/>
              <Attribute id="2713" value="16" name="bitDepth"/>
              <Attribute id="2714" value="1" name="gain"/>
              <Attribute id="2715" value="0" name="mixToMono"/>
             </Attributes>
            </AMFile>
            <ScreenVMFile id="2716" start="2153" duration="154" scalar="1/1" mediaStart="3431/1" mediaDuration="154/1" trackNumber="0" src="4" >
             <Transformer>
              <VectorParam id="2717"  name="translation">
               <InterpolatingParam id="2718" interp="linr"  time="-9999999/1" value="0" leadInLength="0/1"  />
               <InterpolatingParam id="2719" interp="linr"  time="-9999999/1" value="0" leadInLength="0/1"  />
               <InterpolatingParam id="2720" interp="linr"  time="-9999999/1" value="0" leadInLength="0/1"  />
              </VectorParam>
              <VectorParam id="2721"  name="rotation">
               <InterpolatingParam id="2722" interp="linr"  time="-9999999/1" value="0" leadInLength="0/1"  />
               <InterpolatingParam id="2723" interp="linr"  time="-9999999/1" value="0" leadInLength="0/1"  />
               <InterpolatingParam id="2724" interp="linr"  time="-9999999/1" value="0" leadInLength="0/1"  />
              </VectorParam>
              <VectorParam id="2725"  name="shear">
               <InterpolatingParam id="2726" interp="linr"  time="-9999999/1" value="0" leadInLength="0/1"  />
               <InterpolatingParam id="2727" interp="linr"  time="-9999999/1" value="0" leadInLength="0/1"  />
               <InterpolatingParam id="2728" interp="linr"  time="-9999999/1" value="0" leadInLength="0/1"  />
              </VectorParam>
              <VectorParam id="2729"  name="scale">
               <InterpolatingParam id="2730" interp="linr"  time="-9999999/1" value="1" leadInLength="0/1"  />
               <InterpolatingParam id="2731" interp="linr"  time="-9999999/1" value="1" leadInLength="0/1"  />
               <InterpolatingParam id="2732" interp="linr"  time="-9999999/1" value="1" leadInLength="0/1"  />
              </VectorParam>
              <VectorParam id="2733"  name="anchor">
               <InterpolatingParam id="2734" interp="linr"  time="0/1" value="0" leadInLength="0/1"  />
               <InterpolatingParam id="2735" interp="linr"  time="0/1" value="0" leadInLength="0/1"  />
               <InterpolatingParam id="2736" interp="linr"  time="0/1" value="0" leadInLength="0/1"  />
              </VectorParam>
             </Transformer>
             <Parameters>
              <VectorParam id="2737"  name="sourceCrop">
               <InterpolatingParam id="2738" interp="linr"  time="0/1" value="0" leadInLength="0/1"  />
               <InterpolatingParam id="2739" interp="linr"  time="0/1" value="0" leadInLength="0/1"  />
               <InterpolatingParam id="2740" interp="linr"  time="0/1" value="0" leadInLength="0/1"  />
               <InterpolatingParam id="2741" interp="linr"  time="0/1" value="0" leadInLength="0/1"  />
              </VectorParam>
              <VectorParam id="2742"  name="geometryCrop">
               <InterpolatingParam id="2743" interp="linr"  time="-9999999/1" value="0" leadInLength="0/1"  />
               <InterpolatingParam id="2744" interp="linr"  time="-9999999/1" value="0" leadInLength="0/1"  />
               <InterpolatingParam id="2745" interp="linr"  time="-9999999/1" value="0" leadInLength="0/1"  />
               <InterpolatingParam id="2746" interp="linr"  time="-9999999/1" value="0" leadInLength="0/1"  />
              </VectorParam>
              <InterpolatingParam id="2747" interp="linr"  time="-9999999/1" value="1" leadInLength="0/1"  name="opacity"/>
              <InterpolatingParam id="2748" interp="linr"  time="0/1" value="0" leadInLength="0/1"  name="cursorOpacity"/>
              <InterpolatingParam id="2749" interp="linr"  time="0/1" value="0" leadInLength="0/1"  name="cursorScale"/>
             </Parameters>
             <Attributes>
              <Attribute id="2750" value="" name="ident"/>
             </Attributes>
             <ExtraData>
              <Entry key="ZoomPanBin">
               <ZoomPanBin id="2751"  >
                <ZoomPanKeyframes>
                 <ZoomPanKeyframe id="2752" timeRangeEnd="-9999999/1" timeRangeDuration="0/1" interpolaterName=""  />
                </ZoomPanKeyframes>
               </ZoomPanBin>
              </Entry>
              <Entry key="CursorEffectBin">
               <CursorEffectBin id="2753"  >
                <CursorEffectKeyframes>
                </CursorEffectKeyframes>
               </CursorEffectBin>
              </Entry>
             </ExtraData>
            </ScreenVMFile>
            <MetaData>
             <entry key="AutoAppliedSmartFocus" val="False"/>
             <entry key="WinSubProjectDisplayName" val=""/>
            </MetaData>
           </UnifiedMedia>
           <UnifiedMedia id="2754"  >
            <AMFile id="2755" start="2307" duration="166" scalar="1/1" mediaStart="3593/1" mediaDuration="166/1" trackNumber="1" src="4" channelNumber="0,1" >
             <Parameters>
              <InterpolatingParam id="2756" interp="linr"  time="0/1" value="1" leadInLength="0/1"  name="volume"/>
              <Parameter id="2757"  name="captions"/>
             </Parameters>
             <Attributes>
              <Attribute id="2758" value="" name="ident"/>
              <Attribute id="2759" value="44100" name="sampleRate"/>
              <Attribute id="2760" value="16" name="bitDepth"/>
              <Attribute id="2761" value="1" name="gain"/>
              <Attribute id="2762" value="0" name="mixToMono"/>
             </Attributes>
            </AMFile>
            <ScreenVMFile id="2763" start="2307" duration="166" scalar="1/1" mediaStart="3593/1" mediaDuration="166/1" trackNumber="0" src="4" >
             <Transformer>
              <VectorParam id="2764"  name="translation">
               <InterpolatingParam id="2765" interp="linr"  time="-9999999/1" value="0" leadInLength="0/1"  />
               <InterpolatingParam id="2766" interp="linr"  time="-9999999/1" value="0" leadInLength="0/1"  />
               <InterpolatingParam id="2767" interp="linr"  time="-9999999/1" value="0" leadInLength="0/1"  />
              </VectorParam>
              <VectorParam id="2768"  name="rotation">
               <InterpolatingParam id="2769" interp="linr"  time="-9999999/1" value="0" leadInLength="0/1"  />
               <InterpolatingParam id="2770" interp="linr"  time="-9999999/1" value="0" leadInLength="0/1"  />
               <InterpolatingParam id="2771" interp="linr"  time="-9999999/1" value="0" leadInLength="0/1"  />
              </VectorParam>
              <VectorParam id="2772"  name="shear">
               <InterpolatingParam id="2773" interp="linr"  time="-9999999/1" value="0" leadInLength="0/1"  />
               <InterpolatingParam id="2774" interp="linr"  time="-9999999/1" value="0" leadInLength="0/1"  />
               <InterpolatingParam id="2775" interp="linr"  time="-9999999/1" value="0" leadInLength="0/1"  />
              </VectorParam>
              <VectorParam id="2776"  name="scale">
               <InterpolatingParam id="2777" interp="linr"  time="-9999999/1" value="1" leadInLength="0/1"  />
               <InterpolatingParam id="2778" interp="linr"  time="-9999999/1" value="1" leadInLength="0/1"  />
               <InterpolatingParam id="2779" interp="linr"  time="-9999999/1" value="1" leadInLength="0/1"  />
              </VectorParam>
              <VectorParam id="2780"  name="anchor">
               <InterpolatingParam id="2781" interp="linr"  time="0/1" value="0" leadInLength="0/1"  />
               <InterpolatingParam id="2782" interp="linr"  time="0/1" value="0" leadInLength="0/1"  />
               <InterpolatingParam id="2783" interp="linr"  time="0/1" value="0" leadInLength="0/1"  />
              </VectorParam>
             </Transformer>
             <Parameters>
              <VectorParam id="2784"  name="sourceCrop">
               <InterpolatingParam id="2785" interp="linr"  time="0/1" value="0" leadInLength="0/1"  />
               <InterpolatingParam id="2786" interp="linr"  time="0/1" value="0" leadInLength="0/1"  />
               <InterpolatingParam id="2787" interp="linr"  time="0/1" value="0" leadInLength="0/1"  />
               <InterpolatingParam id="2788" interp="linr"  time="0/1" value="0" leadInLength="0/1"  />
              </VectorParam>
              <VectorParam id="2789"  name="geometryCrop">
               <InterpolatingParam id="2790" interp="linr"  time="-9999999/1" value="0" leadInLength="0/1"  />
               <InterpolatingParam id="2791" interp="linr"  time="-9999999/1" value="0" leadInLength="0/1"  />
               <InterpolatingParam id="2792" interp="linr"  time="-9999999/1" value="0" leadInLength="0/1"  />
               <InterpolatingParam id="2793" interp="linr"  time="-9999999/1" value="0" leadInLength="0/1"  />
              </VectorParam>
              <InterpolatingParam id="2794" interp="linr"  time="-9999999/1" value="1" leadInLength="0/1"  name="opacity"/>
              <InterpolatingParam id="2795" interp="linr"  time="0/1" value="0" leadInLength="0/1"  name="cursorOpacity"/>
              <InterpolatingParam id="2796" interp="linr"  time="0/1" value="0" leadInLength="0/1"  name="cursorScale"/>
             </Parameters>
             <Attributes>
              <Attribute id="2797" value="" name="ident"/>
             </Attributes>
             <ExtraData>
              <Entry key="ZoomPanBin">
               <ZoomPanBin id="2798"  >
                <ZoomPanKeyframes>
                 <ZoomPanKeyframe id="2799" timeRangeEnd="-9999999/1" timeRangeDuration="0/1" interpolaterName=""  />
                </ZoomPanKeyframes>
               </ZoomPanBin>
              </Entry>
              <Entry key="CursorEffectBin">
               <CursorEffectBin id="2800"  >
                <CursorEffectKeyframes>
                </CursorEffectKeyframes>
               </CursorEffectBin>
              </Entry>
             </ExtraData>
            </ScreenVMFile>
            <MetaData>
             <entry key="AutoAppliedSmartFocus" val="False"/>
             <entry key="WinSubProjectDisplayName" val=""/>
            </MetaData>
           </UnifiedMedia>
           <UnifiedMedia id="2801"  >
            <AMFile id="2802" start="2473" duration="76" scalar="1/1" mediaStart="3771/1" mediaDuration="76/1" trackNumber="1" src="4" channelNumber="0,1" >
             <Parameters>
              <InterpolatingParam id="2803" interp="linr"  time="0/1" value="1" leadInLength="0/1"  name="volume"/>
              <Parameter id="2804"  name="captions"/>
             </Parameters>
             <Attributes>
              <Attribute id="2805" value="" name="ident"/>
              <Attribute id="2806" value="44100" name="sampleRate"/>
              <Attribute id="2807" value="16" name="bitDepth"/>
              <Attribute id="2808" value="1" name="gain"/>
              <Attribute id="2809" value="0" name="mixToMono"/>
             </Attributes>
            </AMFile>
            <ScreenVMFile id="2810" start="2473" duration="76" scalar="1/1" mediaStart="3771/1" mediaDuration="76/1" trackNumber="0" src="4" >
             <Transformer>
              <VectorParam id="2811"  name="translation">
               <InterpolatingParam id="2812" interp="linr"  time="-9999999/1" value="0" leadInLength="0/1"  />
               <InterpolatingParam id="2813" interp="linr"  time="-9999999/1" value="0" leadInLength="0/1"  />
               <InterpolatingParam id="2814" interp="linr"  time="-9999999/1" value="0" leadInLength="0/1"  />
              </VectorParam>
              <VectorParam id="2815"  name="rotation">
               <InterpolatingParam id="2816" interp="linr"  time="-9999999/1" value="0" leadInLength="0/1"  />
               <InterpolatingParam id="2817" interp="linr"  time="-9999999/1" value="0" leadInLength="0/1"  />
               <InterpolatingParam id="2818" interp="linr"  time="-9999999/1" value="0" leadInLength="0/1"  />
              </VectorParam>
              <VectorParam id="2819"  name="shear">
               <InterpolatingParam id="2820" interp="linr"  time="-9999999/1" value="0" leadInLength="0/1"  />
               <InterpolatingParam id="2821" interp="linr"  time="-9999999/1" value="0" leadInLength="0/1"  />
               <InterpolatingParam id="2822" interp="linr"  time="-9999999/1" value="0" leadInLength="0/1"  />
              </VectorParam>
              <VectorParam id="2823"  name="scale">
               <InterpolatingParam id="2824" interp="linr"  time="-9999999/1" value="1" leadInLength="0/1"  />
               <InterpolatingParam id="2825" interp="linr"  time="-9999999/1" value="1" leadInLength="0/1"  />
               <InterpolatingParam id="2826" interp="linr"  time="-9999999/1" value="1" leadInLength="0/1"  />
              </VectorParam>
              <VectorParam id="2827"  name="anchor">
               <InterpolatingParam id="2828" interp="linr"  time="0/1" value="0" leadInLength="0/1"  />
               <InterpolatingParam id="2829" interp="linr"  time="0/1" value="0" leadInLength="0/1"  />
               <InterpolatingParam id="2830" interp="linr"  time="0/1" value="0" leadInLength="0/1"  />
              </VectorParam>
             </Transformer>
             <Parameters>
              <VectorParam id="2831"  name="sourceCrop">
               <InterpolatingParam id="2832" interp="linr"  time="0/1" value="0" leadInLength="0/1"  />
               <InterpolatingParam id="2833" interp="linr"  time="0/1" value="0" leadInLength="0/1"  />
               <InterpolatingParam id="2834" interp="linr"  time="0/1" value="0" leadInLength="0/1"  />
               <InterpolatingParam id="2835" interp="linr"  time="0/1" value="0" leadInLength="0/1"  />
              </VectorParam>
              <VectorParam id="2836"  name="geometryCrop">
               <InterpolatingParam id="2837" interp="linr"  time="-9999999/1" value="0" leadInLength="0/1"  />
               <InterpolatingParam id="2838" interp="linr"  time="-9999999/1" value="0" leadInLength="0/1"  />
               <InterpolatingParam id="2839" interp="linr"  time="-9999999/1" value="0" leadInLength="0/1"  />
               <InterpolatingParam id="2840" interp="linr"  time="-9999999/1" value="0" leadInLength="0/1"  />
              </VectorParam>
              <InterpolatingParam id="2841" interp="linr"  time="-9999999/1" value="1" leadInLength="0/1"  name="opacity"/>
              <InterpolatingParam id="2842" interp="linr"  time="0/1" value="0" leadInLength="0/1"  name="cursorOpacity"/>
              <InterpolatingParam id="2843" interp="linr"  time="0/1" value="0" leadInLength="0/1"  name="cursorScale"/>
             </Parameters>
             <Attributes>
              <Attribute id="2844" value="" name="ident"/>
             </Attributes>
             <ExtraData>
              <Entry key="ZoomPanBin">
               <ZoomPanBin id="2845"  >
                <ZoomPanKeyframes>
                 <ZoomPanKeyframe id="2846" timeRangeEnd="-9999999/1" timeRangeDuration="0/1" interpolaterName=""  />
                </ZoomPanKeyframes>
               </ZoomPanBin>
              </Entry>
              <Entry key="CursorEffectBin">
               <CursorEffectBin id="2847"  >
                <CursorEffectKeyframes>
                </CursorEffectKeyframes>
               </CursorEffectBin>
              </Entry>
             </ExtraData>
            </ScreenVMFile>
            <MetaData>
             <entry key="AutoAppliedSmartFocus" val="False"/>
             <entry key="WinSubProjectDisplayName" val=""/>
            </MetaData>
           </UnifiedMedia>
           <UnifiedMedia id="2848"  >
            <AMFile id="2849" start="2549" duration="116" scalar="1/1" mediaStart="4178/1" mediaDuration="116/1" trackNumber="1" src="4" channelNumber="0,1" >
             <Parameters>
              <InterpolatingParam id="2850" interp="linr"  time="0/1" value="1" leadInLength="0/1"  name="volume"/>
              <Parameter id="2851"  name="captions"/>
             </Parameters>
             <Attributes>
              <Attribute id="2852" value="" name="ident"/>
              <Attribute id="2853" value="44100" name="sampleRate"/>
              <Attribute id="2854" value="16" name="bitDepth"/>
              <Attribute id="2855" value="1" name="gain"/>
              <Attribute id="2856" value="0" name="mixToMono"/>
             </Attributes>
            </AMFile>
            <ScreenVMFile id="2857" start="2549" duration="116" scalar="1/1" mediaStart="4178/1" mediaDuration="116/1" trackNumber="0" src="4" >
             <Transformer>
              <VectorParam id="2858"  name="translation">
               <InterpolatingParam id="2859" interp="linr"  time="-9999999/1" value="0" leadInLength="0/1"  />
               <InterpolatingParam id="2860" interp="linr"  time="-9999999/1" value="0" leadInLength="0/1"  />
               <InterpolatingParam id="2861" interp="linr"  time="-9999999/1" value="0" leadInLength="0/1"  />
              </VectorParam>
              <VectorParam id="2862"  name="rotation">
               <InterpolatingParam id="2863" interp="linr"  time="-9999999/1" value="0" leadInLength="0/1"  />
               <InterpolatingParam id="2864" interp="linr"  time="-9999999/1" value="0" leadInLength="0/1"  />
               <InterpolatingParam id="2865" interp="linr"  time="-9999999/1" value="0" leadInLength="0/1"  />
              </VectorParam>
              <VectorParam id="2866"  name="shear">
               <InterpolatingParam id="2867" interp="linr"  time="-9999999/1" value="0" leadInLength="0/1"  />
               <InterpolatingParam id="2868" interp="linr"  time="-9999999/1" value="0" leadInLength="0/1"  />
               <InterpolatingParam id="2869" interp="linr"  time="-9999999/1" value="0" leadInLength="0/1"  />
              </VectorParam>
              <VectorParam id="2870"  name="scale">
               <InterpolatingParam id="2871" interp="linr"  time="-9999999/1" value="1" leadInLength="0/1"  />
               <InterpolatingParam id="2872" interp="linr"  time="-9999999/1" value="1" leadInLength="0/1"  />
               <InterpolatingParam id="2873" interp="linr"  time="-9999999/1" value="1" leadInLength="0/1"  />
              </VectorParam>
              <VectorParam id="2874"  name="anchor">
               <InterpolatingParam id="2875" interp="linr"  time="0/1" value="0" leadInLength="0/1"  />
               <InterpolatingParam id="2876" interp="linr"  time="0/1" value="0" leadInLength="0/1"  />
               <InterpolatingParam id="2877" interp="linr"  time="0/1" value="0" leadInLength="0/1"  />
              </VectorParam>
             </Transformer>
             <Parameters>
              <VectorParam id="2878"  name="sourceCrop">
               <InterpolatingParam id="2879" interp="linr"  time="0/1" value="0" leadInLength="0/1"  />
               <InterpolatingParam id="2880" interp="linr"  time="0/1" value="0" leadInLength="0/1"  />
               <InterpolatingParam id="2881" interp="linr"  time="0/1" value="0" leadInLength="0/1"  />
               <InterpolatingParam id="2882" interp="linr"  time="0/1" value="0" leadInLength="0/1"  />
              </VectorParam>
              <VectorParam id="2883"  name="geometryCrop">
               <InterpolatingParam id="2884" interp="linr"  time="-9999999/1" value="0" leadInLength="0/1"  />
               <InterpolatingParam id="2885" interp="linr"  time="-9999999/1" value="0" leadInLength="0/1"  />
               <InterpolatingParam id="2886" interp="linr"  time="-9999999/1" value="0" leadInLength="0/1"  />
               <InterpolatingParam id="2887" interp="linr"  time="-9999999/1" value="0" leadInLength="0/1"  />
              </VectorParam>
              <InterpolatingParam id="2888" interp="linr"  time="-9999999/1" value="1" leadInLength="0/1"  name="opacity"/>
              <InterpolatingParam id="2889" interp="linr"  time="0/1" value="0" leadInLength="0/1"  name="cursorOpacity"/>
              <InterpolatingParam id="2890" interp="linr"  time="0/1" value="0" leadInLength="0/1"  name="cursorScale"/>
             </Parameters>
             <Attributes>
              <Attribute id="2891" value="" name="ident"/>
             </Attributes>
             <ExtraData>
              <Entry key="ZoomPanBin">
               <ZoomPanBin id="2892"  >
                <ZoomPanKeyframes>
                 <ZoomPanKeyframe id="2893" timeRangeEnd="-9999999/1" timeRangeDuration="0/1" interpolaterName=""  />
                </ZoomPanKeyframes>
               </ZoomPanBin>
              </Entry>
              <Entry key="CursorEffectBin">
               <CursorEffectBin id="2894"  >
                <CursorEffectKeyframes>
                </CursorEffectKeyframes>
               </CursorEffectBin>
              </Entry>
             </ExtraData>
            </ScreenVMFile>
            <MetaData>
             <entry key="AutoAppliedSmartFocus" val="False"/>
             <entry key="WinSubProjectDisplayName" val=""/>
            </MetaData>
           </UnifiedMedia>
           <UnifiedMedia id="2895"  >
            <AMFile id="2896" start="2665" duration="203" scalar="1/1" mediaStart="4303/1" mediaDuration="203/1" trackNumber="1" src="4" channelNumber="0,1" >
             <Parameters>
              <InterpolatingParam id="2897" interp="linr"  time="0/1" value="1" leadInLength="0/1"  name="volume"/>
              <Parameter id="2898"  name="captions"/>
             </Parameters>
             <Attributes>
              <Attribute id="2899" value="" name="ident"/>
              <Attribute id="2900" value="44100" name="sampleRate"/>
              <Attribute id="2901" value="16" name="bitDepth"/>
              <Attribute id="2902" value="1" name="gain"/>
              <Attribute id="2903" value="0" name="mixToMono"/>
             </Attributes>
            </AMFile>
            <ScreenVMFile id="2904" start="2665" duration="203" scalar="1/1" mediaStart="4303/1" mediaDuration="203/1" trackNumber="0" src="4" >
             <Transformer>
              <VectorParam id="2905"  name="translation">
               <InterpolatingParam id="2906" interp="linr"  time="-9999999/1" value="0" leadInLength="0/1"  />
               <InterpolatingParam id="2907" interp="linr"  time="-9999999/1" value="0" leadInLength="0/1"  />
               <InterpolatingParam id="2908" interp="linr"  time="-9999999/1" value="0" leadInLength="0/1"  />
              </VectorParam>
              <VectorParam id="2909"  name="rotation">
               <InterpolatingParam id="2910" interp="linr"  time="-9999999/1" value="0" leadInLength="0/1"  />
               <InterpolatingParam id="2911" interp="linr"  time="-9999999/1" value="0" leadInLength="0/1"  />
               <InterpolatingParam id="2912" interp="linr"  time="-9999999/1" value="0" leadInLength="0/1"  />
              </VectorParam>
              <VectorParam id="2913"  name="shear">
               <InterpolatingParam id="2914" interp="linr"  time="-9999999/1" value="0" leadInLength="0/1"  />
               <InterpolatingParam id="2915" interp="linr"  time="-9999999/1" value="0" leadInLength="0/1"  />
               <InterpolatingParam id="2916" interp="linr"  time="-9999999/1" value="0" leadInLength="0/1"  />
              </VectorParam>
              <VectorParam id="2917"  name="scale">
               <InterpolatingParam id="2918" interp="linr"  time="-9999999/1" value="1" leadInLength="0/1"  />
               <InterpolatingParam id="2919" interp="linr"  time="-9999999/1" value="1" leadInLength="0/1"  />
               <InterpolatingParam id="2920" interp="linr"  time="-9999999/1" value="1" leadInLength="0/1"  />
              </VectorParam>
              <VectorParam id="2921"  name="anchor">
               <InterpolatingParam id="2922" interp="linr"  time="0/1" value="0" leadInLength="0/1"  />
               <InterpolatingParam id="2923" interp="linr"  time="0/1" value="0" leadInLength="0/1"  />
               <InterpolatingParam id="2924" interp="linr"  time="0/1" value="0" leadInLength="0/1"  />
              </VectorParam>
             </Transformer>
             <Parameters>
              <VectorParam id="2925"  name="sourceCrop">
               <InterpolatingParam id="2926" interp="linr"  time="0/1" value="0" leadInLength="0/1"  />
               <InterpolatingParam id="2927" interp="linr"  time="0/1" value="0" leadInLength="0/1"  />
               <InterpolatingParam id="2928" interp="linr"  time="0/1" value="0" leadInLength="0/1"  />
               <InterpolatingParam id="2929" interp="linr"  time="0/1" value="0" leadInLength="0/1"  />
              </VectorParam>
              <VectorParam id="2930"  name="geometryCrop">
               <InterpolatingParam id="2931" interp="linr"  time="-9999999/1" value="0" leadInLength="0/1"  />
               <InterpolatingParam id="2932" interp="linr"  time="-9999999/1" value="0" leadInLength="0/1"  />
               <InterpolatingParam id="2933" interp="linr"  time="-9999999/1" value="0" leadInLength="0/1"  />
               <InterpolatingParam id="2934" interp="linr"  time="-9999999/1" value="0" leadInLength="0/1"  />
              </VectorParam>
              <InterpolatingParam id="2935" interp="linr"  time="-9999999/1" value="1" leadInLength="0/1"  name="opacity"/>
              <InterpolatingParam id="2936" interp="linr"  time="0/1" value="0" leadInLength="0/1"  name="cursorOpacity"/>
              <InterpolatingParam id="2937" interp="linr"  time="0/1" value="0" leadInLength="0/1"  name="cursorScale"/>
             </Parameters>
             <Attributes>
              <Attribute id="2938" value="" name="ident"/>
             </Attributes>
             <ExtraData>
              <Entry key="ZoomPanBin">
               <ZoomPanBin id="2939"  >
                <ZoomPanKeyframes>
                 <ZoomPanKeyframe id="2940" timeRangeEnd="-9999999/1" timeRangeDuration="0/1" interpolaterName=""  />
                </ZoomPanKeyframes>
               </ZoomPanBin>
              </Entry>
              <Entry key="CursorEffectBin">
               <CursorEffectBin id="2941"  >
                <CursorEffectKeyframes>
                </CursorEffectKeyframes>
               </CursorEffectBin>
              </Entry>
             </ExtraData>
            </ScreenVMFile>
            <MetaData>
             <entry key="AutoAppliedSmartFocus" val="False"/>
             <entry key="WinSubProjectDisplayName" val=""/>
            </MetaData>
           </UnifiedMedia>
           <UnifiedMedia id="2942"  >
            <AMFile id="2943" start="2868" duration="97" scalar="1/1" mediaStart="4515/1" mediaDuration="97/1" trackNumber="1" src="4" channelNumber="0,1" >
             <Parameters>
              <InterpolatingParam id="2944" interp="linr"  time="0/1" value="1" leadInLength="0/1"  name="volume"/>
              <Parameter id="2945"  name="captions"/>
             </Parameters>
             <Attributes>
              <Attribute id="2946" value="" name="ident"/>
              <Attribute id="2947" value="44100" name="sampleRate"/>
              <Attribute id="2948" value="16" name="bitDepth"/>
              <Attribute id="2949" value="1" name="gain"/>
              <Attribute id="2950" value="0" name="mixToMono"/>
             </Attributes>
            </AMFile>
            <ScreenVMFile id="2951" start="2868" duration="97" scalar="1/1" mediaStart="4515/1" mediaDuration="97/1" trackNumber="0" src="4" >
             <Transformer>
              <VectorParam id="2952"  name="translation">
               <InterpolatingParam id="2953" interp="linr"  time="-9999999/1" value="0" leadInLength="0/1"  />
               <InterpolatingParam id="2954" interp="linr"  time="-9999999/1" value="0" leadInLength="0/1"  />
               <InterpolatingParam id="2955" interp="linr"  time="-9999999/1" value="0" leadInLength="0/1"  />
              </VectorParam>
              <VectorParam id="2956"  name="rotation">
               <InterpolatingParam id="2957" interp="linr"  time="-9999999/1" value="0" leadInLength="0/1"  />
               <InterpolatingParam id="2958" interp="linr"  time="-9999999/1" value="0" leadInLength="0/1"  />
               <InterpolatingParam id="2959" interp="linr"  time="-9999999/1" value="0" leadInLength="0/1"  />
              </VectorParam>
              <VectorParam id="2960"  name="shear">
               <InterpolatingParam id="2961" interp="linr"  time="-9999999/1" value="0" leadInLength="0/1"  />
               <InterpolatingParam id="2962" interp="linr"  time="-9999999/1" value="0" leadInLength="0/1"  />
               <InterpolatingParam id="2963" interp="linr"  time="-9999999/1" value="0" leadInLength="0/1"  />
              </VectorParam>
              <VectorParam id="2964"  name="scale">
               <InterpolatingParam id="2965" interp="linr"  time="-9999999/1" value="1" leadInLength="0/1"  />
               <InterpolatingParam id="2966" interp="linr"  time="-9999999/1" value="1" leadInLength="0/1"  />
               <InterpolatingParam id="2967" interp="linr"  time="-9999999/1" value="1" leadInLength="0/1"  />
              </VectorParam>
              <VectorParam id="2968"  name="anchor">
               <InterpolatingParam id="2969" interp="linr"  time="0/1" value="0" leadInLength="0/1"  />
               <InterpolatingParam id="2970" interp="linr"  time="0/1" value="0" leadInLength="0/1"  />
               <InterpolatingParam id="2971" interp="linr"  time="0/1" value="0" leadInLength="0/1"  />
              </VectorParam>
             </Transformer>
             <Parameters>
              <VectorParam id="2972"  name="sourceCrop">
               <InterpolatingParam id="2973" interp="linr"  time="0/1" value="0" leadInLength="0/1"  />
               <InterpolatingParam id="2974" interp="linr"  time="0/1" value="0" leadInLength="0/1"  />
               <InterpolatingParam id="2975" interp="linr"  time="0/1" value="0" leadInLength="0/1"  />
               <InterpolatingParam id="2976" interp="linr"  time="0/1" value="0" leadInLength="0/1"  />
              </VectorParam>
              <VectorParam id="2977"  name="geometryCrop">
               <InterpolatingParam id="2978" interp="linr"  time="-9999999/1" value="0" leadInLength="0/1"  />
               <InterpolatingParam id="2979" interp="linr"  time="-9999999/1" value="0" leadInLength="0/1"  />
               <InterpolatingParam id="2980" interp="linr"  time="-9999999/1" value="0" leadInLength="0/1"  />
               <InterpolatingParam id="2981" interp="linr"  time="-9999999/1" value="0" leadInLength="0/1"  />
              </VectorParam>
              <InterpolatingParam id="2982" interp="linr"  time="-9999999/1" value="1" leadInLength="0/1"  name="opacity"/>
              <InterpolatingParam id="2983" interp="linr"  time="0/1" value="0" leadInLength="0/1"  name="cursorOpacity"/>
              <InterpolatingParam id="2984" interp="linr"  time="0/1" value="0" leadInLength="0/1"  name="cursorScale"/>
             </Parameters>
             <Attributes>
              <Attribute id="2985" value="" name="ident"/>
             </Attributes>
             <ExtraData>
              <Entry key="ZoomPanBin">
               <ZoomPanBin id="2986"  >
                <ZoomPanKeyframes>
                 <ZoomPanKeyframe id="2987" timeRangeEnd="-9999999/1" timeRangeDuration="0/1" interpolaterName=""  />
                </ZoomPanKeyframes>
               </ZoomPanBin>
              </Entry>
              <Entry key="CursorEffectBin">
               <CursorEffectBin id="2988"  >
                <CursorEffectKeyframes>
                </CursorEffectKeyframes>
               </CursorEffectBin>
              </Entry>
             </ExtraData>
            </ScreenVMFile>
            <MetaData>
             <entry key="AutoAppliedSmartFocus" val="False"/>
             <entry key="WinSubProjectDisplayName" val=""/>
            </MetaData>
           </UnifiedMedia>
           <UnifiedMedia id="2989"  >
            <AMFile id="2990" start="2965" duration="87" scalar="1/1" mediaStart="4860/1" mediaDuration="87/1" trackNumber="1" src="4" channelNumber="0,1" >
             <Parameters>
              <InterpolatingParam id="2991" interp="linr"  time="0/1" value="1" leadInLength="0/1"  name="volume"/>
              <Parameter id="2992"  name="captions"/>
             </Parameters>
             <Attributes>
              <Attribute id="2993" value="" name="ident"/>
              <Attribute id="2994" value="44100" name="sampleRate"/>
              <Attribute id="2995" value="16" name="bitDepth"/>
              <Attribute id="2996" value="1" name="gain"/>
              <Attribute id="2997" value="0" name="mixToMono"/>
             </Attributes>
            </AMFile>
            <ScreenVMFile id="2998" start="2965" duration="87" scalar="1/1" mediaStart="4860/1" mediaDuration="87/1" trackNumber="0" src="4" >
             <Transformer>
              <VectorParam id="2999"  name="translation">
               <InterpolatingParam id="3000" interp="linr"  time="-9999999/1" value="0" leadInLength="0/1"  />
               <InterpolatingParam id="3001" interp="linr"  time="-9999999/1" value="0" leadInLength="0/1"  />
               <InterpolatingParam id="3002" interp="linr"  time="-9999999/1" value="0" leadInLength="0/1"  />
              </VectorParam>
              <VectorParam id="3003"  name="rotation">
               <InterpolatingParam id="3004" interp="linr"  time="-9999999/1" value="0" leadInLength="0/1"  />
               <InterpolatingParam id="3005" interp="linr"  time="-9999999/1" value="0" leadInLength="0/1"  />
               <InterpolatingParam id="3006" interp="linr"  time="-9999999/1" value="0" leadInLength="0/1"  />
              </VectorParam>
              <VectorParam id="3007"  name="shear">
               <InterpolatingParam id="3008" interp="linr"  time="-9999999/1" value="0" leadInLength="0/1"  />
               <InterpolatingParam id="3009" interp="linr"  time="-9999999/1" value="0" leadInLength="0/1"  />
               <InterpolatingParam id="3010" interp="linr"  time="-9999999/1" value="0" leadInLength="0/1"  />
              </VectorParam>
              <VectorParam id="3011"  name="scale">
               <InterpolatingParam id="3012" interp="linr"  time="-9999999/1" value="1" leadInLength="0/1"  />
               <InterpolatingParam id="3013" interp="linr"  time="-9999999/1" value="1" leadInLength="0/1"  />
               <InterpolatingParam id="3014" interp="linr"  time="-9999999/1" value="1" leadInLength="0/1"  />
              </VectorParam>
              <VectorParam id="3015"  name="anchor">
               <InterpolatingParam id="3016" interp="linr"  time="0/1" value="0" leadInLength="0/1"  />
               <InterpolatingParam id="3017" interp="linr"  time="0/1" value="0" leadInLength="0/1"  />
               <InterpolatingParam id="3018" interp="linr"  time="0/1" value="0" leadInLength="0/1"  />
              </VectorParam>
             </Transformer>
             <Parameters>
              <VectorParam id="3019"  name="sourceCrop">
               <InterpolatingParam id="3020" interp="linr"  time="0/1" value="0" leadInLength="0/1"  />
               <InterpolatingParam id="3021" interp="linr"  time="0/1" value="0" leadInLength="0/1"  />
               <InterpolatingParam id="3022" interp="linr"  time="0/1" value="0" leadInLength="0/1"  />
               <InterpolatingParam id="3023" interp="linr"  time="0/1" value="0" leadInLength="0/1"  />
              </VectorParam>
              <VectorParam id="3024"  name="geometryCrop">
               <InterpolatingParam id="3025" interp="linr"  time="-9999999/1" value="0" leadInLength="0/1"  />
               <InterpolatingParam id="3026" interp="linr"  time="-9999999/1" value="0" leadInLength="0/1"  />
               <InterpolatingParam id="3027" interp="linr"  time="-9999999/1" value="0" leadInLength="0/1"  />
               <InterpolatingParam id="3028" interp="linr"  time="-9999999/1" value="0" leadInLength="0/1"  />
              </VectorParam>
              <InterpolatingParam id="3029" interp="linr"  time="-9999999/1" value="1" leadInLength="0/1"  name="opacity"/>
              <InterpolatingParam id="3030" interp="linr"  time="0/1" value="0" leadInLength="0/1"  name="cursorOpacity"/>
              <InterpolatingParam id="3031" interp="linr"  time="0/1" value="0" leadInLength="0/1"  name="cursorScale"/>
             </Parameters>
             <Attributes>
              <Attribute id="3032" value="" name="ident"/>
             </Attributes>
             <ExtraData>
              <Entry key="ZoomPanBin">
               <ZoomPanBin id="3033"  >
                <ZoomPanKeyframes>
                 <ZoomPanKeyframe id="3034" timeRangeEnd="-9999999/1" timeRangeDuration="0/1" interpolaterName=""  />
                </ZoomPanKeyframes>
               </ZoomPanBin>
              </Entry>
              <Entry key="CursorEffectBin">
               <CursorEffectBin id="3035"  >
                <CursorEffectKeyframes>
                </CursorEffectKeyframes>
               </CursorEffectBin>
              </Entry>
             </ExtraData>
            </ScreenVMFile>
            <MetaData>
             <entry key="AutoAppliedSmartFocus" val="False"/>
             <entry key="WinSubProjectDisplayName" val=""/>
            </MetaData>
           </UnifiedMedia>
           <UnifiedMedia id="3036"  >
            <AMFile id="3037" start="3052" duration="73" scalar="1/1" mediaStart="4957/1" mediaDuration="73/1" trackNumber="1" src="4" channelNumber="0,1" >
             <Parameters>
              <InterpolatingParam id="3038" interp="linr"  time="0/1" value="1" leadInLength="0/1"  name="volume"/>
              <Parameter id="3039"  name="captions"/>
             </Parameters>
             <Attributes>
              <Attribute id="3040" value="" name="ident"/>
              <Attribute id="3041" value="44100" name="sampleRate"/>
              <Attribute id="3042" value="16" name="bitDepth"/>
              <Attribute id="3043" value="1" name="gain"/>
              <Attribute id="3044" value="0" name="mixToMono"/>
             </Attributes>
            </AMFile>
            <ScreenVMFile id="3045" start="3052" duration="73" scalar="1/1" mediaStart="4957/1" mediaDuration="73/1" trackNumber="0" src="4" >
             <Transformer>
              <VectorParam id="3046"  name="translation">
               <InterpolatingParam id="3047" interp="linr"  time="-9999999/1" value="0" leadInLength="0/1"  />
               <InterpolatingParam id="3048" interp="linr"  time="-9999999/1" value="0" leadInLength="0/1"  />
               <InterpolatingParam id="3049" interp="linr"  time="-9999999/1" value="0" leadInLength="0/1"  />
              </VectorParam>
              <VectorParam id="3050"  name="rotation">
               <InterpolatingParam id="3051" interp="linr"  time="-9999999/1" value="0" leadInLength="0/1"  />
               <InterpolatingParam id="3052" interp="linr"  time="-9999999/1" value="0" leadInLength="0/1"  />
               <InterpolatingParam id="3053" interp="linr"  time="-9999999/1" value="0" leadInLength="0/1"  />
              </VectorParam>
              <VectorParam id="3054"  name="shear">
               <InterpolatingParam id="3055" interp="linr"  time="-9999999/1" value="0" leadInLength="0/1"  />
               <InterpolatingParam id="3056" interp="linr"  time="-9999999/1" value="0" leadInLength="0/1"  />
               <InterpolatingParam id="3057" interp="linr"  time="-9999999/1" value="0" leadInLength="0/1"  />
              </VectorParam>
              <VectorParam id="3058"  name="scale">
               <InterpolatingParam id="3059" interp="linr"  time="-9999999/1" value="1" leadInLength="0/1"  />
               <InterpolatingParam id="3060" interp="linr"  time="-9999999/1" value="1" leadInLength="0/1"  />
               <InterpolatingParam id="3061" interp="linr"  time="-9999999/1" value="1" leadInLength="0/1"  />
              </VectorParam>
              <VectorParam id="3062"  name="anchor">
               <InterpolatingParam id="3063" interp="linr"  time="0/1" value="0" leadInLength="0/1"  />
               <InterpolatingParam id="3064" interp="linr"  time="0/1" value="0" leadInLength="0/1"  />
               <InterpolatingParam id="3065" interp="linr"  time="0/1" value="0" leadInLength="0/1"  />
              </VectorParam>
             </Transformer>
             <Parameters>
              <VectorParam id="3066"  name="sourceCrop">
               <InterpolatingParam id="3067" interp="linr"  time="0/1" value="0" leadInLength="0/1"  />
               <InterpolatingParam id="3068" interp="linr"  time="0/1" value="0" leadInLength="0/1"  />
               <InterpolatingParam id="3069" interp="linr"  time="0/1" value="0" leadInLength="0/1"  />
               <InterpolatingParam id="3070" interp="linr"  time="0/1" value="0" leadInLength="0/1"  />
              </VectorParam>
              <VectorParam id="3071"  name="geometryCrop">
               <InterpolatingParam id="3072" interp="linr"  time="-9999999/1" value="0" leadInLength="0/1"  />
               <InterpolatingParam id="3073" interp="linr"  time="-9999999/1" value="0" leadInLength="0/1"  />
               <InterpolatingParam id="3074" interp="linr"  time="-9999999/1" value="0" leadInLength="0/1"  />
               <InterpolatingParam id="3075" interp="linr"  time="-9999999/1" value="0" leadInLength="0/1"  />
              </VectorParam>
              <InterpolatingParam id="3076" interp="linr"  time="-9999999/1" value="1" leadInLength="0/1"  name="opacity"/>
              <InterpolatingParam id="3077" interp="linr"  time="0/1" value="0" leadInLength="0/1"  name="cursorOpacity"/>
              <InterpolatingParam id="3078" interp="linr"  time="0/1" value="0" leadInLength="0/1"  name="cursorScale"/>
             </Parameters>
             <Attributes>
              <Attribute id="3079" value="" name="ident"/>
             </Attributes>
             <ExtraData>
              <Entry key="ZoomPanBin">
               <ZoomPanBin id="3080"  >
                <ZoomPanKeyframes>
                 <ZoomPanKeyframe id="3081" timeRangeEnd="-9999999/1" timeRangeDuration="0/1" interpolaterName=""  />
                </ZoomPanKeyframes>
               </ZoomPanBin>
              </Entry>
              <Entry key="CursorEffectBin">
               <CursorEffectBin id="3082"  >
                <CursorEffectKeyframes>
                </CursorEffectKeyframes>
               </CursorEffectBin>
              </Entry>
             </ExtraData>
            </ScreenVMFile>
            <MetaData>
             <entry key="AutoAppliedSmartFocus" val="False"/>
             <entry key="WinSubProjectDisplayName" val=""/>
            </MetaData>
           </UnifiedMedia>
           <UnifiedMedia id="3083"  >
            <AMFile id="3084" start="3125" duration="197" scalar="1/1" mediaStart="5334/1" mediaDuration="197/1" trackNumber="1" src="4" channelNumber="0,1" >
             <Parameters>
              <InterpolatingParam id="3085" interp="linr"  time="0/1" value="1" leadInLength="0/1"  name="volume"/>
              <Parameter id="3086"  name="captions"/>
             </Parameters>
             <Attributes>
              <Attribute id="3087" value="" name="ident"/>
              <Attribute id="3088" value="44100" name="sampleRate"/>
              <Attribute id="3089" value="16" name="bitDepth"/>
              <Attribute id="3090" value="1" name="gain"/>
              <Attribute id="3091" value="0" name="mixToMono"/>
             </Attributes>
            </AMFile>
            <ScreenVMFile id="3092" start="3125" duration="197" scalar="1/1" mediaStart="5334/1" mediaDuration="197/1" trackNumber="0" src="4" >
             <Transformer>
              <VectorParam id="3093"  name="translation">
               <InterpolatingParam id="3094" interp="linr"  time="-9999999/1" value="0" leadInLength="0/1"  />
               <InterpolatingParam id="3095" interp="linr"  time="-9999999/1" value="0" leadInLength="0/1"  />
               <InterpolatingParam id="3096" interp="linr"  time="-9999999/1" value="0" leadInLength="0/1"  />
              </VectorParam>
              <VectorParam id="3097"  name="rotation">
               <InterpolatingParam id="3098" interp="linr"  time="-9999999/1" value="0" leadInLength="0/1"  />
               <InterpolatingParam id="3099" interp="linr"  time="-9999999/1" value="0" leadInLength="0/1"  />
               <InterpolatingParam id="3100" interp="linr"  time="-9999999/1" value="0" leadInLength="0/1"  />
              </VectorParam>
              <VectorParam id="3101"  name="shear">
               <InterpolatingParam id="3102" interp="linr"  time="-9999999/1" value="0" leadInLength="0/1"  />
               <InterpolatingParam id="3103" interp="linr"  time="-9999999/1" value="0" leadInLength="0/1"  />
               <InterpolatingParam id="3104" interp="linr"  time="-9999999/1" value="0" leadInLength="0/1"  />
              </VectorParam>
              <VectorParam id="3105"  name="scale">
               <InterpolatingParam id="3106" interp="linr"  time="-9999999/1" value="1" leadInLength="0/1"  />
               <InterpolatingParam id="3107" interp="linr"  time="-9999999/1" value="1" leadInLength="0/1"  />
               <InterpolatingParam id="3108" interp="linr"  time="-9999999/1" value="1" leadInLength="0/1"  />
              </VectorParam>
              <VectorParam id="3109"  name="anchor">
               <InterpolatingParam id="3110" interp="linr"  time="0/1" value="0" leadInLength="0/1"  />
               <InterpolatingParam id="3111" interp="linr"  time="0/1" value="0" leadInLength="0/1"  />
               <InterpolatingParam id="3112" interp="linr"  time="0/1" value="0" leadInLength="0/1"  />
              </VectorParam>
             </Transformer>
             <Parameters>
              <VectorParam id="3113"  name="sourceCrop">
               <InterpolatingParam id="3114" interp="linr"  time="0/1" value="0" leadInLength="0/1"  />
               <InterpolatingParam id="3115" interp="linr"  time="0/1" value="0" leadInLength="0/1"  />
               <InterpolatingParam id="3116" interp="linr"  time="0/1" value="0" leadInLength="0/1"  />
               <InterpolatingParam id="3117" interp="linr"  time="0/1" value="0" leadInLength="0/1"  />
              </VectorParam>
              <VectorParam id="3118"  name="geometryCrop">
               <InterpolatingParam id="3119" interp="linr"  time="-9999999/1" value="0" leadInLength="0/1"  />
               <InterpolatingParam id="3120" interp="linr"  time="-9999999/1" value="0" leadInLength="0/1"  />
               <InterpolatingParam id="3121" interp="linr"  time="-9999999/1" value="0" leadInLength="0/1"  />
               <InterpolatingParam id="3122" interp="linr"  time="-9999999/1" value="0" leadInLength="0/1"  />
              </VectorParam>
              <InterpolatingParam id="3123" interp="linr"  time="-9999999/1" value="1" leadInLength="0/1"  name="opacity"/>
              <InterpolatingParam id="3124" interp="linr"  time="0/1" value="0" leadInLength="0/1"  name="cursorOpacity"/>
              <InterpolatingParam id="3125" interp="linr"  time="0/1" value="0" leadInLength="0/1"  name="cursorScale"/>
             </Parameters>
             <Attributes>
              <Attribute id="3126" value="" name="ident"/>
             </Attributes>
             <ExtraData>
              <Entry key="ZoomPanBin">
               <ZoomPanBin id="3127"  >
                <ZoomPanKeyframes>
                 <ZoomPanKeyframe id="3128" timeRangeEnd="-9999999/1" timeRangeDuration="0/1" interpolaterName=""  />
                </ZoomPanKeyframes>
               </ZoomPanBin>
              </Entry>
              <Entry key="CursorEffectBin">
               <CursorEffectBin id="3129"  >
                <CursorEffectKeyframes>
                </CursorEffectKeyframes>
               </CursorEffectBin>
              </Entry>
             </ExtraData>
            </ScreenVMFile>
            <MetaData>
             <entry key="AutoAppliedSmartFocus" val="False"/>
             <entry key="WinSubProjectDisplayName" val=""/>
            </MetaData>
           </UnifiedMedia>
           <UnifiedMedia id="3130"  >
            <AMFile id="3131" start="3322" duration="154" scalar="1/1" mediaStart="5537/1" mediaDuration="154/1" trackNumber="1" src="4" channelNumber="0,1" >
             <Parameters>
              <InterpolatingParam id="3132" interp="linr"  time="0/1" value="1" leadInLength="0/1"  name="volume"/>
              <Parameter id="3133"  name="captions"/>
             </Parameters>
             <Attributes>
              <Attribute id="3134" value="" name="ident"/>
              <Attribute id="3135" value="44100" name="sampleRate"/>
              <Attribute id="3136" value="16" name="bitDepth"/>
              <Attribute id="3137" value="1" name="gain"/>
              <Attribute id="3138" value="0" name="mixToMono"/>
             </Attributes>
            </AMFile>
            <ScreenVMFile id="3139" start="3322" duration="154" scalar="1/1" mediaStart="5537/1" mediaDuration="154/1" trackNumber="0" src="4" >
             <Transformer>
              <VectorParam id="3140"  name="translation">
               <InterpolatingParam id="3141" interp="linr"  time="-9999999/1" value="0" leadInLength="0/1"  />
               <InterpolatingParam id="3142" interp="linr"  time="-9999999/1" value="0" leadInLength="0/1"  />
               <InterpolatingParam id="3143" interp="linr"  time="-9999999/1" value="0" leadInLength="0/1"  />
              </VectorParam>
              <VectorParam id="3144"  name="rotation">
               <InterpolatingParam id="3145" interp="linr"  time="-9999999/1" value="0" leadInLength="0/1"  />
               <InterpolatingParam id="3146" interp="linr"  time="-9999999/1" value="0" leadInLength="0/1"  />
               <InterpolatingParam id="3147" interp="linr"  time="-9999999/1" value="0" leadInLength="0/1"  />
              </VectorParam>
              <VectorParam id="3148"  name="shear">
               <InterpolatingParam id="3149" interp="linr"  time="-9999999/1" value="0" leadInLength="0/1"  />
               <InterpolatingParam id="3150" interp="linr"  time="-9999999/1" value="0" leadInLength="0/1"  />
               <InterpolatingParam id="3151" interp="linr"  time="-9999999/1" value="0" leadInLength="0/1"  />
              </VectorParam>
              <VectorParam id="3152"  name="scale">
               <InterpolatingParam id="3153" interp="linr"  time="-9999999/1" value="1" leadInLength="0/1"  />
               <InterpolatingParam id="3154" interp="linr"  time="-9999999/1" value="1" leadInLength="0/1"  />
               <InterpolatingParam id="3155" interp="linr"  time="-9999999/1" value="1" leadInLength="0/1"  />
              </VectorParam>
              <VectorParam id="3156"  name="anchor">
               <InterpolatingParam id="3157" interp="linr"  time="0/1" value="0" leadInLength="0/1"  />
               <InterpolatingParam id="3158" interp="linr"  time="0/1" value="0" leadInLength="0/1"  />
               <InterpolatingParam id="3159" interp="linr"  time="0/1" value="0" leadInLength="0/1"  />
              </VectorParam>
             </Transformer>
             <Parameters>
              <VectorParam id="3160"  name="sourceCrop">
               <InterpolatingParam id="3161" interp="linr"  time="0/1" value="0" leadInLength="0/1"  />
               <InterpolatingParam id="3162" interp="linr"  time="0/1" value="0" leadInLength="0/1"  />
               <InterpolatingParam id="3163" interp="linr"  time="0/1" value="0" leadInLength="0/1"  />
               <InterpolatingParam id="3164" interp="linr"  time="0/1" value="0" leadInLength="0/1"  />
              </VectorParam>
              <VectorParam id="3165"  name="geometryCrop">
               <InterpolatingParam id="3166" interp="linr"  time="-9999999/1" value="0" leadInLength="0/1"  />
               <InterpolatingParam id="3167" interp="linr"  time="-9999999/1" value="0" leadInLength="0/1"  />
               <InterpolatingParam id="3168" interp="linr"  time="-9999999/1" value="0" leadInLength="0/1"  />
               <InterpolatingParam id="3169" interp="linr"  time="-9999999/1" value="0" leadInLength="0/1"  />
              </VectorParam>
              <InterpolatingParam id="3170" interp="linr"  time="-9999999/1" value="1" leadInLength="0/1"  name="opacity"/>
              <InterpolatingParam id="3171" interp="linr"  time="0/1" value="0" leadInLength="0/1"  name="cursorOpacity"/>
              <InterpolatingParam id="3172" interp="linr"  time="0/1" value="0" leadInLength="0/1"  name="cursorScale"/>
             </Parameters>
             <Attributes>
              <Attribute id="3173" value="" name="ident"/>
             </Attributes>
             <ExtraData>
              <Entry key="ZoomPanBin">
               <ZoomPanBin id="3174"  >
                <ZoomPanKeyframes>
                 <ZoomPanKeyframe id="3175" timeRangeEnd="-9999999/1" timeRangeDuration="0/1" interpolaterName=""  />
                </ZoomPanKeyframes>
               </ZoomPanBin>
              </Entry>
              <Entry key="CursorEffectBin">
               <CursorEffectBin id="3176"  >
                <CursorEffectKeyframes>
                </CursorEffectKeyframes>
               </CursorEffectBin>
              </Entry>
             </ExtraData>
            </ScreenVMFile>
            <MetaData>
             <entry key="AutoAppliedSmartFocus" val="False"/>
             <entry key="WinSubProjectDisplayName" val=""/>
            </MetaData>
           </UnifiedMedia>
           <UnifiedMedia id="3177"  >
            <AMFile id="3178" start="3476" duration="128" scalar="1/1" mediaStart="5706/1" mediaDuration="128/1" trackNumber="1" src="4" channelNumber="0,1" >
             <Parameters>
              <InterpolatingParam id="3179" interp="linr"  time="0/1" value="1" leadInLength="0/1"  name="volume"/>
              <Parameter id="3180"  name="captions"/>
             </Parameters>
             <Attributes>
              <Attribute id="3181" value="" name="ident"/>
              <Attribute id="3182" value="44100" name="sampleRate"/>
              <Attribute id="3183" value="16" name="bitDepth"/>
              <Attribute id="3184" value="1" name="gain"/>
              <Attribute id="3185" value="0" name="mixToMono"/>
             </Attributes>
            </AMFile>
            <ScreenVMFile id="3186" start="3476" duration="128" scalar="1/1" mediaStart="5706/1" mediaDuration="128/1" trackNumber="0" src="4" >
             <Transformer>
              <VectorParam id="3187"  name="translation">
               <InterpolatingParam id="3188" interp="linr"  time="-9999999/1" value="0" leadInLength="0/1"  />
               <InterpolatingParam id="3189" interp="linr"  time="-9999999/1" value="0" leadInLength="0/1"  />
               <InterpolatingParam id="3190" interp="linr"  time="-9999999/1" value="0" leadInLength="0/1"  />
              </VectorParam>
              <VectorParam id="3191"  name="rotation">
               <InterpolatingParam id="3192" interp="linr"  time="-9999999/1" value="0" leadInLength="0/1"  />
               <InterpolatingParam id="3193" interp="linr"  time="-9999999/1" value="0" leadInLength="0/1"  />
               <InterpolatingParam id="3194" interp="linr"  time="-9999999/1" value="0" leadInLength="0/1"  />
              </VectorParam>
              <VectorParam id="3195"  name="shear">
               <InterpolatingParam id="3196" interp="linr"  time="-9999999/1" value="0" leadInLength="0/1"  />
               <InterpolatingParam id="3197" interp="linr"  time="-9999999/1" value="0" leadInLength="0/1"  />
               <InterpolatingParam id="3198" interp="linr"  time="-9999999/1" value="0" leadInLength="0/1"  />
              </VectorParam>
              <VectorParam id="3199"  name="scale">
               <InterpolatingParam id="3200" interp="linr"  time="-9999999/1" value="1" leadInLength="0/1"  />
               <InterpolatingParam id="3201" interp="linr"  time="-9999999/1" value="1" leadInLength="0/1"  />
               <InterpolatingParam id="3202" interp="linr"  time="-9999999/1" value="1" leadInLength="0/1"  />
              </VectorParam>
              <VectorParam id="3203"  name="anchor">
               <InterpolatingParam id="3204" interp="linr"  time="0/1" value="0" leadInLength="0/1"  />
               <InterpolatingParam id="3205" interp="linr"  time="0/1" value="0" leadInLength="0/1"  />
               <InterpolatingParam id="3206" interp="linr"  time="0/1" value="0" leadInLength="0/1"  />
              </VectorParam>
             </Transformer>
             <Parameters>
              <VectorParam id="3207"  name="sourceCrop">
               <InterpolatingParam id="3208" interp="linr"  time="0/1" value="0" leadInLength="0/1"  />
               <InterpolatingParam id="3209" interp="linr"  time="0/1" value="0" leadInLength="0/1"  />
               <InterpolatingParam id="3210" interp="linr"  time="0/1" value="0" leadInLength="0/1"  />
               <InterpolatingParam id="3211" interp="linr"  time="0/1" value="0" leadInLength="0/1"  />
              </VectorParam>
              <VectorParam id="3212"  name="geometryCrop">
               <InterpolatingParam id="3213" interp="linr"  time="-9999999/1" value="0" leadInLength="0/1"  />
               <InterpolatingParam id="3214" interp="linr"  time="-9999999/1" value="0" leadInLength="0/1"  />
               <InterpolatingParam id="3215" interp="linr"  time="-9999999/1" value="0" leadInLength="0/1"  />
               <InterpolatingParam id="3216" interp="linr"  time="-9999999/1" value="0" leadInLength="0/1"  />
              </VectorParam>
              <InterpolatingParam id="3217" interp="linr"  time="-9999999/1" value="1" leadInLength="0/1"  name="opacity"/>
              <InterpolatingParam id="3218" interp="linr"  time="0/1" value="0" leadInLength="0/1"  name="cursorOpacity"/>
              <InterpolatingParam id="3219" interp="linr"  time="0/1" value="0" leadInLength="0/1"  name="cursorScale"/>
             </Parameters>
             <Attributes>
              <Attribute id="3220" value="" name="ident"/>
             </Attributes>
             <ExtraData>
              <Entry key="ZoomPanBin">
               <ZoomPanBin id="3221"  >
                <ZoomPanKeyframes>
                 <ZoomPanKeyframe id="3222" timeRangeEnd="-9999999/1" timeRangeDuration="0/1" interpolaterName=""  />
                </ZoomPanKeyframes>
               </ZoomPanBin>
              </Entry>
              <Entry key="CursorEffectBin">
               <CursorEffectBin id="3223"  >
                <CursorEffectKeyframes>
                </CursorEffectKeyframes>
               </CursorEffectBin>
              </Entry>
             </ExtraData>
            </ScreenVMFile>
            <MetaData>
             <entry key="AutoAppliedSmartFocus" val="False"/>
             <entry key="WinSubProjectDisplayName" val=""/>
            </MetaData>
           </UnifiedMedia>
           <UnifiedMedia id="3224"  >
            <AMFile id="3225" start="3604" duration="256" scalar="1/1" mediaStart="6003/1" mediaDuration="256/1" trackNumber="1" src="4" channelNumber="0,1" >
             <Parameters>
              <InterpolatingParam id="3226" interp="linr"  time="0/1" value="1" leadInLength="0/1"  name="volume"/>
              <Parameter id="3227"  name="captions"/>
             </Parameters>
             <Attributes>
              <Attribute id="3228" value="" name="ident"/>
              <Attribute id="3229" value="44100" name="sampleRate"/>
              <Attribute id="3230" value="16" name="bitDepth"/>
              <Attribute id="3231" value="1" name="gain"/>
              <Attribute id="3232" value="0" name="mixToMono"/>
             </Attributes>
            </AMFile>
            <ScreenVMFile id="3233" start="3604" duration="256" scalar="1/1" mediaStart="6003/1" mediaDuration="256/1" trackNumber="0" src="4" >
             <Transformer>
              <VectorParam id="3234"  name="translation">
               <InterpolatingParam id="3235" interp="linr"  time="-9999999/1" value="0" leadInLength="0/1"  />
               <InterpolatingParam id="3236" interp="linr"  time="-9999999/1" value="0" leadInLength="0/1"  />
               <InterpolatingParam id="3237" interp="linr"  time="-9999999/1" value="0" leadInLength="0/1"  />
              </VectorParam>
              <VectorParam id="3238"  name="rotation">
               <InterpolatingParam id="3239" interp="linr"  time="-9999999/1" value="0" leadInLength="0/1"  />
               <InterpolatingParam id="3240" interp="linr"  time="-9999999/1" value="0" leadInLength="0/1"  />
               <InterpolatingParam id="3241" interp="linr"  time="-9999999/1" value="0" leadInLength="0/1"  />
              </VectorParam>
              <VectorParam id="3242"  name="shear">
               <InterpolatingParam id="3243" interp="linr"  time="-9999999/1" value="0" leadInLength="0/1"  />
               <InterpolatingParam id="3244" interp="linr"  time="-9999999/1" value="0" leadInLength="0/1"  />
               <InterpolatingParam id="3245" interp="linr"  time="-9999999/1" value="0" leadInLength="0/1"  />
              </VectorParam>
              <VectorParam id="3246"  name="scale">
               <InterpolatingParam id="3247" interp="linr"  time="-9999999/1" value="1" leadInLength="0/1"  />
               <InterpolatingParam id="3248" interp="linr"  time="-9999999/1" value="1" leadInLength="0/1"  />
               <InterpolatingParam id="3249" interp="linr"  time="-9999999/1" value="1" leadInLength="0/1"  />
              </VectorParam>
              <VectorParam id="3250"  name="anchor">
               <InterpolatingParam id="3251" interp="linr"  time="0/1" value="0" leadInLength="0/1"  />
               <InterpolatingParam id="3252" interp="linr"  time="0/1" value="0" leadInLength="0/1"  />
               <InterpolatingParam id="3253" interp="linr"  time="0/1" value="0" leadInLength="0/1"  />
              </VectorParam>
             </Transformer>
             <Parameters>
              <VectorParam id="3254"  name="sourceCrop">
               <InterpolatingParam id="3255" interp="linr"  time="0/1" value="0" leadInLength="0/1"  />
               <InterpolatingParam id="3256" interp="linr"  time="0/1" value="0" leadInLength="0/1"  />
               <InterpolatingParam id="3257" interp="linr"  time="0/1" value="0" leadInLength="0/1"  />
               <InterpolatingParam id="3258" interp="linr"  time="0/1" value="0" leadInLength="0/1"  />
              </VectorParam>
              <VectorParam id="3259"  name="geometryCrop">
               <InterpolatingParam id="3260" interp="linr"  time="-9999999/1" value="0" leadInLength="0/1"  />
               <InterpolatingParam id="3261" interp="linr"  time="-9999999/1" value="0" leadInLength="0/1"  />
               <InterpolatingParam id="3262" interp="linr"  time="-9999999/1" value="0" leadInLength="0/1"  />
               <InterpolatingParam id="3263" interp="linr"  time="-9999999/1" value="0" leadInLength="0/1"  />
              </VectorParam>
              <InterpolatingParam id="3264" interp="linr"  time="-9999999/1" value="1" leadInLength="0/1"  name="opacity"/>
              <InterpolatingParam id="3265" interp="linr"  time="0/1" value="0" leadInLength="0/1"  name="cursorOpacity"/>
              <InterpolatingParam id="3266" interp="linr"  time="0/1" value="0" leadInLength="0/1"  name="cursorScale"/>
             </Parameters>
             <Attributes>
              <Attribute id="3267" value="" name="ident"/>
             </Attributes>
             <ExtraData>
              <Entry key="ZoomPanBin">
               <ZoomPanBin id="3268"  >
                <ZoomPanKeyframes>
                 <ZoomPanKeyframe id="3269" timeRangeEnd="-9999999/1" timeRangeDuration="0/1" interpolaterName=""  />
                </ZoomPanKeyframes>
               </ZoomPanBin>
              </Entry>
              <Entry key="CursorEffectBin">
               <CursorEffectBin id="3270"  >
                <CursorEffectKeyframes>
                </CursorEffectKeyframes>
               </CursorEffectBin>
              </Entry>
             </ExtraData>
            </ScreenVMFile>
            <MetaData>
             <entry key="AutoAppliedSmartFocus" val="False"/>
             <entry key="WinSubProjectDisplayName" val=""/>
            </MetaData>
           </UnifiedMedia>
           <UnifiedMedia id="3271"  >
            <AMFile id="3272" start="3860" duration="365" scalar="1/1" mediaStart="6373/1" mediaDuration="365/1" trackNumber="1" src="4" channelNumber="0,1" >
             <Parameters>
              <InterpolatingParam id="3273" interp="linr"  time="0/1" value="1" leadInLength="0/1"  name="volume"/>
              <Parameter id="3274"  name="captions"/>
             </Parameters>
             <Attributes>
              <Attribute id="3275" value="" name="ident"/>
              <Attribute id="3276" value="44100" name="sampleRate"/>
              <Attribute id="3277" value="16" name="bitDepth"/>
              <Attribute id="3278" value="1" name="gain"/>
              <Attribute id="3279" value="0" name="mixToMono"/>
             </Attributes>
            </AMFile>
            <ScreenVMFile id="3280" start="3860" duration="365" scalar="1/1" mediaStart="6373/1" mediaDuration="365/1" trackNumber="0" src="4" >
             <Transformer>
              <VectorParam id="3281"  name="translation">
               <InterpolatingParam id="3282" interp="linr"  time="-9999999/1" value="0" leadInLength="0/1"  />
               <InterpolatingParam id="3283" interp="linr"  time="-9999999/1" value="0" leadInLength="0/1"  />
               <InterpolatingParam id="3284" interp="linr"  time="-9999999/1" value="0" leadInLength="0/1"  />
              </VectorParam>
              <VectorParam id="3285"  name="rotation">
               <InterpolatingParam id="3286" interp="linr"  time="-9999999/1" value="0" leadInLength="0/1"  />
               <InterpolatingParam id="3287" interp="linr"  time="-9999999/1" value="0" leadInLength="0/1"  />
               <InterpolatingParam id="3288" interp="linr"  time="-9999999/1" value="0" leadInLength="0/1"  />
              </VectorParam>
              <VectorParam id="3289"  name="shear">
               <InterpolatingParam id="3290" interp="linr"  time="-9999999/1" value="0" leadInLength="0/1"  />
               <InterpolatingParam id="3291" interp="linr"  time="-9999999/1" value="0" leadInLength="0/1"  />
               <InterpolatingParam id="3292" interp="linr"  time="-9999999/1" value="0" leadInLength="0/1"  />
              </VectorParam>
              <VectorParam id="3293"  name="scale">
               <InterpolatingParam id="3294" interp="linr"  time="-9999999/1" value="1" leadInLength="0/1"  />
               <InterpolatingParam id="3295" interp="linr"  time="-9999999/1" value="1" leadInLength="0/1"  />
               <InterpolatingParam id="3296" interp="linr"  time="-9999999/1" value="1" leadInLength="0/1"  />
              </VectorParam>
              <VectorParam id="3297"  name="anchor">
               <InterpolatingParam id="3298" interp="linr"  time="0/1" value="0" leadInLength="0/1"  />
               <InterpolatingParam id="3299" interp="linr"  time="0/1" value="0" leadInLength="0/1"  />
               <InterpolatingParam id="3300" interp="linr"  time="0/1" value="0" leadInLength="0/1"  />
              </VectorParam>
             </Transformer>
             <Parameters>
              <VectorParam id="3301"  name="sourceCrop">
               <InterpolatingParam id="3302" interp="linr"  time="0/1" value="0" leadInLength="0/1"  />
               <InterpolatingParam id="3303" interp="linr"  time="0/1" value="0" leadInLength="0/1"  />
               <InterpolatingParam id="3304" interp="linr"  time="0/1" value="0" leadInLength="0/1"  />
               <InterpolatingParam id="3305" interp="linr"  time="0/1" value="0" leadInLength="0/1"  />
              </VectorParam>
              <VectorParam id="3306"  name="geometryCrop">
               <InterpolatingParam id="3307" interp="linr"  time="-9999999/1" value="0" leadInLength="0/1"  />
               <InterpolatingParam id="3308" interp="linr"  time="-9999999/1" value="0" leadInLength="0/1"  />
               <InterpolatingParam id="3309" interp="linr"  time="-9999999/1" value="0" leadInLength="0/1"  />
               <InterpolatingParam id="3310" interp="linr"  time="-9999999/1" value="0" leadInLength="0/1"  />
              </VectorParam>
              <InterpolatingParam id="3311" interp="linr"  time="-9999999/1" value="1" leadInLength="0/1"  name="opacity"/>
              <InterpolatingParam id="3312" interp="linr"  time="0/1" value="0" leadInLength="0/1"  name="cursorOpacity"/>
              <InterpolatingParam id="3313" interp="linr"  time="0/1" value="0" leadInLength="0/1"  name="cursorScale"/>
             </Parameters>
             <Attributes>
              <Attribute id="3314" value="" name="ident"/>
             </Attributes>
             <ExtraData>
              <Entry key="ZoomPanBin">
               <ZoomPanBin id="3315"  >
                <ZoomPanKeyframes>
                 <ZoomPanKeyframe id="3316" timeRangeEnd="-9999999/1" timeRangeDuration="0/1" interpolaterName=""  />
                </ZoomPanKeyframes>
               </ZoomPanBin>
              </Entry>
              <Entry key="CursorEffectBin">
               <CursorEffectBin id="3317"  >
                <CursorEffectKeyframes>
                </CursorEffectKeyframes>
               </CursorEffectBin>
              </Entry>
             </ExtraData>
            </ScreenVMFile>
            <MetaData>
             <entry key="AutoAppliedSmartFocus" val="False"/>
             <entry key="WinSubProjectDisplayName" val=""/>
            </MetaData>
           </UnifiedMedia>
           <UnifiedMedia id="3318"  >
            <AMFile id="3319" start="4225" duration="96" scalar="1/1" mediaStart="7003/1" mediaDuration="96/1" trackNumber="1" src="4" channelNumber="0,1" >
             <Parameters>
              <InterpolatingParam id="3320" interp="linr"  time="0/1" value="1" leadInLength="0/1"  name="volume"/>
              <Parameter id="3321"  name="captions"/>
             </Parameters>
             <Attributes>
              <Attribute id="3322" value="" name="ident"/>
              <Attribute id="3323" value="44100" name="sampleRate"/>
              <Attribute id="3324" value="16" name="bitDepth"/>
              <Attribute id="3325" value="1" name="gain"/>
              <Attribute id="3326" value="0" name="mixToMono"/>
             </Attributes>
            </AMFile>
            <ScreenVMFile id="3327" start="4225" duration="96" scalar="1/1" mediaStart="7003/1" mediaDuration="96/1" trackNumber="0" src="4" >
             <Transformer>
              <VectorParam id="3328"  name="translation">
               <InterpolatingParam id="3329" interp="linr"  time="-9999999/1" value="0" leadInLength="0/1"  />
               <InterpolatingParam id="3330" interp="linr"  time="-9999999/1" value="0" leadInLength="0/1"  />
               <InterpolatingParam id="3331" interp="linr"  time="-9999999/1" value="0" leadInLength="0/1"  />
              </VectorParam>
              <VectorParam id="3332"  name="rotation">
               <InterpolatingParam id="3333" interp="linr"  time="-9999999/1" value="0" leadInLength="0/1"  />
               <InterpolatingParam id="3334" interp="linr"  time="-9999999/1" value="0" leadInLength="0/1"  />
               <InterpolatingParam id="3335" interp="linr"  time="-9999999/1" value="0" leadInLength="0/1"  />
              </VectorParam>
              <VectorParam id="3336"  name="shear">
               <InterpolatingParam id="3337" interp="linr"  time="-9999999/1" value="0" leadInLength="0/1"  />
               <InterpolatingParam id="3338" interp="linr"  time="-9999999/1" value="0" leadInLength="0/1"  />
               <InterpolatingParam id="3339" interp="linr"  time="-9999999/1" value="0" leadInLength="0/1"  />
              </VectorParam>
              <VectorParam id="3340"  name="scale">
               <InterpolatingParam id="3341" interp="linr"  time="-9999999/1" value="1" leadInLength="0/1"  />
               <InterpolatingParam id="3342" interp="linr"  time="-9999999/1" value="1" leadInLength="0/1"  />
               <InterpolatingParam id="3343" interp="linr"  time="-9999999/1" value="1" leadInLength="0/1"  />
              </VectorParam>
              <VectorParam id="3344"  name="anchor">
               <InterpolatingParam id="3345" interp="linr"  time="0/1" value="0" leadInLength="0/1"  />
               <InterpolatingParam id="3346" interp="linr"  time="0/1" value="0" leadInLength="0/1"  />
               <InterpolatingParam id="3347" interp="linr"  time="0/1" value="0" leadInLength="0/1"  />
              </VectorParam>
             </Transformer>
             <Parameters>
              <VectorParam id="3348"  name="sourceCrop">
               <InterpolatingParam id="3349" interp="linr"  time="0/1" value="0" leadInLength="0/1"  />
               <InterpolatingParam id="3350" interp="linr"  time="0/1" value="0" leadInLength="0/1"  />
               <InterpolatingParam id="3351" interp="linr"  time="0/1" value="0" leadInLength="0/1"  />
               <InterpolatingParam id="3352" interp="linr"  time="0/1" value="0" leadInLength="0/1"  />
              </VectorParam>
              <VectorParam id="3353"  name="geometryCrop">
               <InterpolatingParam id="3354" interp="linr"  time="-9999999/1" value="0" leadInLength="0/1"  />
               <InterpolatingParam id="3355" interp="linr"  time="-9999999/1" value="0" leadInLength="0/1"  />
               <InterpolatingParam id="3356" interp="linr"  time="-9999999/1" value="0" leadInLength="0/1"  />
               <InterpolatingParam id="3357" interp="linr"  time="-9999999/1" value="0" leadInLength="0/1"  />
              </VectorParam>
              <InterpolatingParam id="3358" interp="linr"  time="-9999999/1" value="1" leadInLength="0/1"  name="opacity"/>
              <InterpolatingParam id="3359" interp="linr"  time="0/1" value="0" leadInLength="0/1"  name="cursorOpacity"/>
              <InterpolatingParam id="3360" interp="linr"  time="0/1" value="0" leadInLength="0/1"  name="cursorScale"/>
             </Parameters>
             <Attributes>
              <Attribute id="3361" value="" name="ident"/>
             </Attributes>
             <ExtraData>
              <Entry key="ZoomPanBin">
               <ZoomPanBin id="3362"  >
                <ZoomPanKeyframes>
                 <ZoomPanKeyframe id="3363" timeRangeEnd="-9999999/1" timeRangeDuration="0/1" interpolaterName=""  />
                </ZoomPanKeyframes>
               </ZoomPanBin>
              </Entry>
              <Entry key="CursorEffectBin">
               <CursorEffectBin id="3364"  >
                <CursorEffectKeyframes>
                </CursorEffectKeyframes>
               </CursorEffectBin>
              </Entry>
             </ExtraData>
            </ScreenVMFile>
            <MetaData>
             <entry key="AutoAppliedSmartFocus" val="False"/>
             <entry key="WinSubProjectDisplayName" val=""/>
            </MetaData>
           </UnifiedMedia>
           <UnifiedMedia id="3365"  >
            <AMFile id="3366" start="4321" duration="100" scalar="1/1" mediaStart="7107/1" mediaDuration="100/1" trackNumber="1" src="4" channelNumber="0,1" >
             <Parameters>
              <InterpolatingParam id="3367" interp="linr"  time="0/1" value="1" leadInLength="0/1"  name="volume"/>
              <Parameter id="3368"  name="captions"/>
             </Parameters>
             <Attributes>
              <Attribute id="3369" value="" name="ident"/>
              <Attribute id="3370" value="44100" name="sampleRate"/>
              <Attribute id="3371" value="16" name="bitDepth"/>
              <Attribute id="3372" value="1" name="gain"/>
              <Attribute id="3373" value="0" name="mixToMono"/>
             </Attributes>
            </AMFile>
            <ScreenVMFile id="3374" start="4321" duration="100" scalar="1/1" mediaStart="7107/1" mediaDuration="100/1" trackNumber="0" src="4" >
             <Transformer>
              <VectorParam id="3375"  name="translation">
               <InterpolatingParam id="3376" interp="linr"  time="-9999999/1" value="0" leadInLength="0/1"  />
               <InterpolatingParam id="3377" interp="linr"  time="-9999999/1" value="0" leadInLength="0/1"  />
               <InterpolatingParam id="3378" interp="linr"  time="-9999999/1" value="0" leadInLength="0/1"  />
              </VectorParam>
              <VectorParam id="3379"  name="rotation">
               <InterpolatingParam id="3380" interp="linr"  time="-9999999/1" value="0" leadInLength="0/1"  />
               <InterpolatingParam id="3381" interp="linr"  time="-9999999/1" value="0" leadInLength="0/1"  />
               <InterpolatingParam id="3382" interp="linr"  time="-9999999/1" value="0" leadInLength="0/1"  />
              </VectorParam>
              <VectorParam id="3383"  name="shear">
               <InterpolatingParam id="3384" interp="linr"  time="-9999999/1" value="0" leadInLength="0/1"  />
               <InterpolatingParam id="3385" interp="linr"  time="-9999999/1" value="0" leadInLength="0/1"  />
               <InterpolatingParam id="3386" interp="linr"  time="-9999999/1" value="0" leadInLength="0/1"  />
              </VectorParam>
              <VectorParam id="3387"  name="scale">
               <InterpolatingParam id="3388" interp="linr"  time="-9999999/1" value="1" leadInLength="0/1"  />
               <InterpolatingParam id="3389" interp="linr"  time="-9999999/1" value="1" leadInLength="0/1"  />
               <InterpolatingParam id="3390" interp="linr"  time="-9999999/1" value="1" leadInLength="0/1"  />
              </VectorParam>
              <VectorParam id="3391"  name="anchor">
               <InterpolatingParam id="3392" interp="linr"  time="0/1" value="0" leadInLength="0/1"  />
               <InterpolatingParam id="3393" interp="linr"  time="0/1" value="0" leadInLength="0/1"  />
               <InterpolatingParam id="3394" interp="linr"  time="0/1" value="0" leadInLength="0/1"  />
              </VectorParam>
             </Transformer>
             <Parameters>
              <VectorParam id="3395"  name="sourceCrop">
               <InterpolatingParam id="3396" interp="linr"  time="0/1" value="0" leadInLength="0/1"  />
               <InterpolatingParam id="3397" interp="linr"  time="0/1" value="0" leadInLength="0/1"  />
               <InterpolatingParam id="3398" interp="linr"  time="0/1" value="0" leadInLength="0/1"  />
               <InterpolatingParam id="3399" interp="linr"  time="0/1" value="0" leadInLength="0/1"  />
              </VectorParam>
              <VectorParam id="3400"  name="geometryCrop">
               <InterpolatingParam id="3401" interp="linr"  time="-9999999/1" value="0" leadInLength="0/1"  />
               <InterpolatingParam id="3402" interp="linr"  time="-9999999/1" value="0" leadInLength="0/1"  />
               <InterpolatingParam id="3403" interp="linr"  time="-9999999/1" value="0" leadInLength="0/1"  />
               <InterpolatingParam id="3404" interp="linr"  time="-9999999/1" value="0" leadInLength="0/1"  />
              </VectorParam>
              <InterpolatingParam id="3405" interp="linr"  time="-9999999/1" value="1" leadInLength="0/1"  name="opacity"/>
              <InterpolatingParam id="3406" interp="linr"  time="0/1" value="0" leadInLength="0/1"  name="cursorOpacity"/>
              <InterpolatingParam id="3407" interp="linr"  time="0/1" value="0" leadInLength="0/1"  name="cursorScale"/>
             </Parameters>
             <Attributes>
              <Attribute id="3408" value="" name="ident"/>
             </Attributes>
             <ExtraData>
              <Entry key="ZoomPanBin">
               <ZoomPanBin id="3409"  >
                <ZoomPanKeyframes>
                 <ZoomPanKeyframe id="3410" timeRangeEnd="-9999999/1" timeRangeDuration="0/1" interpolaterName=""  />
                </ZoomPanKeyframes>
               </ZoomPanBin>
              </Entry>
              <Entry key="CursorEffectBin">
               <CursorEffectBin id="3411"  >
                <CursorEffectKeyframes>
                </CursorEffectKeyframes>
               </CursorEffectBin>
              </Entry>
             </ExtraData>
            </ScreenVMFile>
            <MetaData>
             <entry key="AutoAppliedSmartFocus" val="False"/>
             <entry key="WinSubProjectDisplayName" val=""/>
            </MetaData>
           </UnifiedMedia>
           <UnifiedMedia id="3412"  >
            <AMFile id="3413" start="4421" duration="68" scalar="1/1" mediaStart="7298/1" mediaDuration="68/1" trackNumber="1" src="4" channelNumber="0,1" >
             <Parameters>
              <InterpolatingParam id="3414" interp="linr"  time="0/1" value="1" leadInLength="0/1"  name="volume"/>
              <Parameter id="3415"  name="captions"/>
             </Parameters>
             <Attributes>
              <Attribute id="3416" value="" name="ident"/>
              <Attribute id="3417" value="44100" name="sampleRate"/>
              <Attribute id="3418" value="16" name="bitDepth"/>
              <Attribute id="3419" value="1" name="gain"/>
              <Attribute id="3420" value="0" name="mixToMono"/>
             </Attributes>
            </AMFile>
            <ScreenVMFile id="3421" start="4421" duration="68" scalar="1/1" mediaStart="7298/1" mediaDuration="68/1" trackNumber="0" src="4" >
             <Transformer>
              <VectorParam id="3422"  name="translation">
               <InterpolatingParam id="3423" interp="linr"  time="-9999999/1" value="0" leadInLength="0/1"  />
               <InterpolatingParam id="3424" interp="linr"  time="-9999999/1" value="0" leadInLength="0/1"  />
               <InterpolatingParam id="3425" interp="linr"  time="-9999999/1" value="0" leadInLength="0/1"  />
              </VectorParam>
              <VectorParam id="3426"  name="rotation">
               <InterpolatingParam id="3427" interp="linr"  time="-9999999/1" value="0" leadInLength="0/1"  />
               <InterpolatingParam id="3428" interp="linr"  time="-9999999/1" value="0" leadInLength="0/1"  />
               <InterpolatingParam id="3429" interp="linr"  time="-9999999/1" value="0" leadInLength="0/1"  />
              </VectorParam>
              <VectorParam id="3430"  name="shear">
               <InterpolatingParam id="3431" interp="linr"  time="-9999999/1" value="0" leadInLength="0/1"  />
               <InterpolatingParam id="3432" interp="linr"  time="-9999999/1" value="0" leadInLength="0/1"  />
               <InterpolatingParam id="3433" interp="linr"  time="-9999999/1" value="0" leadInLength="0/1"  />
              </VectorParam>
              <VectorParam id="3434"  name="scale">
               <InterpolatingParam id="3435" interp="linr"  time="-9999999/1" value="1" leadInLength="0/1"  />
               <InterpolatingParam id="3436" interp="linr"  time="-9999999/1" value="1" leadInLength="0/1"  />
               <InterpolatingParam id="3437" interp="linr"  time="-9999999/1" value="1" leadInLength="0/1"  />
              </VectorParam>
              <VectorParam id="3438"  name="anchor">
               <InterpolatingParam id="3439" interp="linr"  time="0/1" value="0" leadInLength="0/1"  />
               <InterpolatingParam id="3440" interp="linr"  time="0/1" value="0" leadInLength="0/1"  />
               <InterpolatingParam id="3441" interp="linr"  time="0/1" value="0" leadInLength="0/1"  />
              </VectorParam>
             </Transformer>
             <Parameters>
              <VectorParam id="3442"  name="sourceCrop">
               <InterpolatingParam id="3443" interp="linr"  time="0/1" value="0" leadInLength="0/1"  />
               <InterpolatingParam id="3444" interp="linr"  time="0/1" value="0" leadInLength="0/1"  />
               <InterpolatingParam id="3445" interp="linr"  time="0/1" value="0" leadInLength="0/1"  />
               <InterpolatingParam id="3446" interp="linr"  time="0/1" value="0" leadInLength="0/1"  />
              </VectorParam>
              <VectorParam id="3447"  name="geometryCrop">
               <InterpolatingParam id="3448" interp="linr"  time="-9999999/1" value="0" leadInLength="0/1"  />
               <InterpolatingParam id="3449" interp="linr"  time="-9999999/1" value="0" leadInLength="0/1"  />
               <InterpolatingParam id="3450" interp="linr"  time="-9999999/1" value="0" leadInLength="0/1"  />
               <InterpolatingParam id="3451" interp="linr"  time="-9999999/1" value="0" leadInLength="0/1"  />
              </VectorParam>
              <InterpolatingParam id="3452" interp="linr"  time="-9999999/1" value="1" leadInLength="0/1"  name="opacity"/>
              <InterpolatingParam id="3453" interp="linr"  time="0/1" value="0" leadInLength="0/1"  name="cursorOpacity"/>
              <InterpolatingParam id="3454" interp="linr"  time="0/1" value="0" leadInLength="0/1"  name="cursorScale"/>
             </Parameters>
             <Attributes>
              <Attribute id="3455" value="" name="ident"/>
             </Attributes>
             <ExtraData>
              <Entry key="ZoomPanBin">
               <ZoomPanBin id="3456"  >
                <ZoomPanKeyframes>
                 <ZoomPanKeyframe id="3457" timeRangeEnd="-9999999/1" timeRangeDuration="0/1" interpolaterName=""  />
                </ZoomPanKeyframes>
               </ZoomPanBin>
              </Entry>
              <Entry key="CursorEffectBin">
               <CursorEffectBin id="3458"  >
                <CursorEffectKeyframes>
                </CursorEffectKeyframes>
               </CursorEffectBin>
              </Entry>
             </ExtraData>
            </ScreenVMFile>
            <MetaData>
             <entry key="AutoAppliedSmartFocus" val="False"/>
             <entry key="WinSubProjectDisplayName" val=""/>
            </MetaData>
           </UnifiedMedia>
           <UnifiedMedia id="3459"  >
            <AMFile id="3460" start="4489" duration="438" scalar="1/1" mediaStart="7373/1" mediaDuration="438/1" trackNumber="1" src="4" channelNumber="0,1" >
             <Parameters>
              <InterpolatingParam id="3461" interp="linr"  time="0/1" value="1" leadInLength="0/1"  name="volume"/>
              <Parameter id="3462"  name="captions"/>
             </Parameters>
             <Attributes>
              <Attribute id="3463" value="" name="ident"/>
              <Attribute id="3464" value="44100" name="sampleRate"/>
              <Attribute id="3465" value="16" name="bitDepth"/>
              <Attribute id="3466" value="1" name="gain"/>
              <Attribute id="3467" value="0" name="mixToMono"/>
             </Attributes>
            </AMFile>
            <ScreenVMFile id="3468" start="4489" duration="438" scalar="1/1" mediaStart="7373/1" mediaDuration="438/1" trackNumber="0" src="4" >
             <Transformer>
              <VectorParam id="3469"  name="translation">
               <InterpolatingParam id="3470" interp="linr"  time="-9999999/1" value="0" leadInLength="0/1"  />
               <InterpolatingParam id="3471" interp="linr"  time="-9999999/1" value="0" leadInLength="0/1"  />
               <InterpolatingParam id="3472" interp="linr"  time="-9999999/1" value="0" leadInLength="0/1"  />
              </VectorParam>
              <VectorParam id="3473"  name="rotation">
               <InterpolatingParam id="3474" interp="linr"  time="-9999999/1" value="0" leadInLength="0/1"  />
               <InterpolatingParam id="3475" interp="linr"  time="-9999999/1" value="0" leadInLength="0/1"  />
               <InterpolatingParam id="3476" interp="linr"  time="-9999999/1" value="0" leadInLength="0/1"  />
              </VectorParam>
              <VectorParam id="3477"  name="shear">
               <InterpolatingParam id="3478" interp="linr"  time="-9999999/1" value="0" leadInLength="0/1"  />
               <InterpolatingParam id="3479" interp="linr"  time="-9999999/1" value="0" leadInLength="0/1"  />
               <InterpolatingParam id="3480" interp="linr"  time="-9999999/1" value="0" leadInLength="0/1"  />
              </VectorParam>
              <VectorParam id="3481"  name="scale">
               <InterpolatingParam id="3482" interp="linr"  time="-9999999/1" value="1" leadInLength="0/1"  />
               <InterpolatingParam id="3483" interp="linr"  time="-9999999/1" value="1" leadInLength="0/1"  />
               <InterpolatingParam id="3484" interp="linr"  time="-9999999/1" value="1" leadInLength="0/1"  />
              </VectorParam>
              <VectorParam id="3485"  name="anchor">
               <InterpolatingParam id="3486" interp="linr"  time="0/1" value="0" leadInLength="0/1"  />
               <InterpolatingParam id="3487" interp="linr"  time="0/1" value="0" leadInLength="0/1"  />
               <InterpolatingParam id="3488" interp="linr"  time="0/1" value="0" leadInLength="0/1"  />
              </VectorParam>
             </Transformer>
             <Parameters>
              <VectorParam id="3489"  name="sourceCrop">
               <InterpolatingParam id="3490" interp="linr"  time="0/1" value="0" leadInLength="0/1"  />
               <InterpolatingParam id="3491" interp="linr"  time="0/1" value="0" leadInLength="0/1"  />
               <InterpolatingParam id="3492" interp="linr"  time="0/1" value="0" leadInLength="0/1"  />
               <InterpolatingParam id="3493" interp="linr"  time="0/1" value="0" leadInLength="0/1"  />
              </VectorParam>
              <VectorParam id="3494"  name="geometryCrop">
               <InterpolatingParam id="3495" interp="linr"  time="-9999999/1" value="0" leadInLength="0/1"  />
               <InterpolatingParam id="3496" interp="linr"  time="-9999999/1" value="0" leadInLength="0/1"  />
               <InterpolatingParam id="3497" interp="linr"  time="-9999999/1" value="0" leadInLength="0/1"  />
               <InterpolatingParam id="3498" interp="linr"  time="-9999999/1" value="0" leadInLength="0/1"  />
              </VectorParam>
              <InterpolatingParam id="3499" interp="linr"  time="-9999999/1" value="1" leadInLength="0/1"  name="opacity"/>
              <InterpolatingParam id="3500" interp="linr"  time="0/1" value="0" leadInLength="0/1"  name="cursorOpacity"/>
              <InterpolatingParam id="3501" interp="linr"  time="0/1" value="0" leadInLength="0/1"  name="cursorScale"/>
             </Parameters>
             <Attributes>
              <Attribute id="3502" value="" name="ident"/>
             </Attributes>
             <ExtraData>
              <Entry key="ZoomPanBin">
               <ZoomPanBin id="3503"  >
                <ZoomPanKeyframes>
                 <ZoomPanKeyframe id="3504" timeRangeEnd="-9999999/1" timeRangeDuration="0/1" interpolaterName=""  />
                </ZoomPanKeyframes>
               </ZoomPanBin>
              </Entry>
              <Entry key="CursorEffectBin">
               <CursorEffectBin id="3505"  >
                <CursorEffectKeyframes>
                </CursorEffectKeyframes>
               </CursorEffectBin>
              </Entry>
             </ExtraData>
            </ScreenVMFile>
            <MetaData>
             <entry key="AutoAppliedSmartFocus" val="False"/>
             <entry key="WinSubProjectDisplayName" val=""/>
            </MetaData>
           </UnifiedMedia>
           <UnifiedMedia id="3506"  >
            <AMFile id="3507" start="4927" duration="94" scalar="1/1" mediaStart="8166/1" mediaDuration="94/1" trackNumber="1" src="4" channelNumber="0,1" >
             <Parameters>
              <InterpolatingParam id="3508" interp="linr"  time="0/1" value="1" leadInLength="0/1"  name="volume"/>
              <Parameter id="3509"  name="captions"/>
             </Parameters>
             <Attributes>
              <Attribute id="3510" value="" name="ident"/>
              <Attribute id="3511" value="44100" name="sampleRate"/>
              <Attribute id="3512" value="16" name="bitDepth"/>
              <Attribute id="3513" value="1" name="gain"/>
              <Attribute id="3514" value="0" name="mixToMono"/>
             </Attributes>
            </AMFile>
            <ScreenVMFile id="3515" start="4927" duration="94" scalar="1/1" mediaStart="8166/1" mediaDuration="94/1" trackNumber="0" src="4" >
             <Transformer>
              <VectorParam id="3516"  name="translation">
               <InterpolatingParam id="3517" interp="linr"  time="-9999999/1" value="0" leadInLength="0/1"  />
               <InterpolatingParam id="3518" interp="linr"  time="-9999999/1" value="0" leadInLength="0/1"  />
               <InterpolatingParam id="3519" interp="linr"  time="-9999999/1" value="0" leadInLength="0/1"  />
              </VectorParam>
              <VectorParam id="3520"  name="rotation">
               <InterpolatingParam id="3521" interp="linr"  time="-9999999/1" value="0" leadInLength="0/1"  />
               <InterpolatingParam id="3522" interp="linr"  time="-9999999/1" value="0" leadInLength="0/1"  />
               <InterpolatingParam id="3523" interp="linr"  time="-9999999/1" value="0" leadInLength="0/1"  />
              </VectorParam>
              <VectorParam id="3524"  name="shear">
               <InterpolatingParam id="3525" interp="linr"  time="-9999999/1" value="0" leadInLength="0/1"  />
               <InterpolatingParam id="3526" interp="linr"  time="-9999999/1" value="0" leadInLength="0/1"  />
               <InterpolatingParam id="3527" interp="linr"  time="-9999999/1" value="0" leadInLength="0/1"  />
              </VectorParam>
              <VectorParam id="3528"  name="scale">
               <InterpolatingParam id="3529" interp="linr"  time="-9999999/1" value="1" leadInLength="0/1"  />
               <InterpolatingParam id="3530" interp="linr"  time="-9999999/1" value="1" leadInLength="0/1"  />
               <InterpolatingParam id="3531" interp="linr"  time="-9999999/1" value="1" leadInLength="0/1"  />
              </VectorParam>
              <VectorParam id="3532"  name="anchor">
               <InterpolatingParam id="3533" interp="linr"  time="0/1" value="0" leadInLength="0/1"  />
               <InterpolatingParam id="3534" interp="linr"  time="0/1" value="0" leadInLength="0/1"  />
               <InterpolatingParam id="3535" interp="linr"  time="0/1" value="0" leadInLength="0/1"  />
              </VectorParam>
             </Transformer>
             <Parameters>
              <VectorParam id="3536"  name="sourceCrop">
               <InterpolatingParam id="3537" interp="linr"  time="0/1" value="0" leadInLength="0/1"  />
               <InterpolatingParam id="3538" interp="linr"  time="0/1" value="0" leadInLength="0/1"  />
               <InterpolatingParam id="3539" interp="linr"  time="0/1" value="0" leadInLength="0/1"  />
               <InterpolatingParam id="3540" interp="linr"  time="0/1" value="0" leadInLength="0/1"  />
              </VectorParam>
              <VectorParam id="3541"  name="geometryCrop">
               <InterpolatingParam id="3542" interp="linr"  time="-9999999/1" value="0" leadInLength="0/1"  />
               <InterpolatingParam id="3543" interp="linr"  time="-9999999/1" value="0" leadInLength="0/1"  />
               <InterpolatingParam id="3544" interp="linr"  time="-9999999/1" value="0" leadInLength="0/1"  />
               <InterpolatingParam id="3545" interp="linr"  time="-9999999/1" value="0" leadInLength="0/1"  />
              </VectorParam>
              <InterpolatingParam id="3546" interp="linr"  time="-9999999/1" value="1" leadInLength="0/1"  name="opacity"/>
              <InterpolatingParam id="3547" interp="linr"  time="0/1" value="0" leadInLength="0/1"  name="cursorOpacity"/>
              <InterpolatingParam id="3548" interp="linr"  time="0/1" value="0" leadInLength="0/1"  name="cursorScale"/>
             </Parameters>
             <Attributes>
              <Attribute id="3549" value="" name="ident"/>
             </Attributes>
             <ExtraData>
              <Entry key="ZoomPanBin">
               <ZoomPanBin id="3550"  >
                <ZoomPanKeyframes>
                 <ZoomPanKeyframe id="3551" timeRangeEnd="-9999999/1" timeRangeDuration="0/1" interpolaterName=""  />
                </ZoomPanKeyframes>
               </ZoomPanBin>
              </Entry>
              <Entry key="CursorEffectBin">
               <CursorEffectBin id="3552"  >
                <CursorEffectKeyframes>
                </CursorEffectKeyframes>
               </CursorEffectBin>
              </Entry>
             </ExtraData>
            </ScreenVMFile>
            <MetaData>
             <entry key="AutoAppliedSmartFocus" val="False"/>
             <entry key="WinSubProjectDisplayName" val=""/>
            </MetaData>
           </UnifiedMedia>
           <UnifiedMedia id="3553"  >
            <AMFile id="3554" start="5021" duration="94" scalar="1/1" mediaStart="8272/1" mediaDuration="94/1" trackNumber="1" src="4" channelNumber="0,1" >
             <Parameters>
              <InterpolatingParam id="3555" interp="linr"  time="0/1" value="1" leadInLength="0/1"  name="volume"/>
              <Parameter id="3556"  name="captions"/>
             </Parameters>
             <Attributes>
              <Attribute id="3557" value="" name="ident"/>
              <Attribute id="3558" value="44100" name="sampleRate"/>
              <Attribute id="3559" value="16" name="bitDepth"/>
              <Attribute id="3560" value="1" name="gain"/>
              <Attribute id="3561" value="0" name="mixToMono"/>
             </Attributes>
            </AMFile>
            <ScreenVMFile id="3562" start="5021" duration="94" scalar="1/1" mediaStart="8272/1" mediaDuration="94/1" trackNumber="0" src="4" >
             <Transformer>
              <VectorParam id="3563"  name="translation">
               <InterpolatingParam id="3564" interp="linr"  time="-9999999/1" value="0" leadInLength="0/1"  />
               <InterpolatingParam id="3565" interp="linr"  time="-9999999/1" value="0" leadInLength="0/1"  />
               <InterpolatingParam id="3566" interp="linr"  time="-9999999/1" value="0" leadInLength="0/1"  />
              </VectorParam>
              <VectorParam id="3567"  name="rotation">
               <InterpolatingParam id="3568" interp="linr"  time="-9999999/1" value="0" leadInLength="0/1"  />
               <InterpolatingParam id="3569" interp="linr"  time="-9999999/1" value="0" leadInLength="0/1"  />
               <InterpolatingParam id="3570" interp="linr"  time="-9999999/1" value="0" leadInLength="0/1"  />
              </VectorParam>
              <VectorParam id="3571"  name="shear">
               <InterpolatingParam id="3572" interp="linr"  time="-9999999/1" value="0" leadInLength="0/1"  />
               <InterpolatingParam id="3573" interp="linr"  time="-9999999/1" value="0" leadInLength="0/1"  />
               <InterpolatingParam id="3574" interp="linr"  time="-9999999/1" value="0" leadInLength="0/1"  />
              </VectorParam>
              <VectorParam id="3575"  name="scale">
               <InterpolatingParam id="3576" interp="linr"  time="-9999999/1" value="1" leadInLength="0/1"  />
               <InterpolatingParam id="3577" interp="linr"  time="-9999999/1" value="1" leadInLength="0/1"  />
               <InterpolatingParam id="3578" interp="linr"  time="-9999999/1" value="1" leadInLength="0/1"  />
              </VectorParam>
              <VectorParam id="3579"  name="anchor">
               <InterpolatingParam id="3580" interp="linr"  time="0/1" value="0" leadInLength="0/1"  />
               <InterpolatingParam id="3581" interp="linr"  time="0/1" value="0" leadInLength="0/1"  />
               <InterpolatingParam id="3582" interp="linr"  time="0/1" value="0" leadInLength="0/1"  />
              </VectorParam>
             </Transformer>
             <Parameters>
              <VectorParam id="3583"  name="sourceCrop">
               <InterpolatingParam id="3584" interp="linr"  time="0/1" value="0" leadInLength="0/1"  />
               <InterpolatingParam id="3585" interp="linr"  time="0/1" value="0" leadInLength="0/1"  />
               <InterpolatingParam id="3586" interp="linr"  time="0/1" value="0" leadInLength="0/1"  />
               <InterpolatingParam id="3587" interp="linr"  time="0/1" value="0" leadInLength="0/1"  />
              </VectorParam>
              <VectorParam id="3588"  name="geometryCrop">
               <InterpolatingParam id="3589" interp="linr"  time="-9999999/1" value="0" leadInLength="0/1"  />
               <InterpolatingParam id="3590" interp="linr"  time="-9999999/1" value="0" leadInLength="0/1"  />
               <InterpolatingParam id="3591" interp="linr"  time="-9999999/1" value="0" leadInLength="0/1"  />
               <InterpolatingParam id="3592" interp="linr"  time="-9999999/1" value="0" leadInLength="0/1"  />
              </VectorParam>
              <InterpolatingParam id="3593" interp="linr"  time="-9999999/1" value="1" leadInLength="0/1"  name="opacity"/>
              <InterpolatingParam id="3594" interp="linr"  time="0/1" value="0" leadInLength="0/1"  name="cursorOpacity"/>
              <InterpolatingParam id="3595" interp="linr"  time="0/1" value="0" leadInLength="0/1"  name="cursorScale"/>
             </Parameters>
             <Attributes>
              <Attribute id="3596" value="" name="ident"/>
             </Attributes>
             <ExtraData>
              <Entry key="ZoomPanBin">
               <ZoomPanBin id="3597"  >
                <ZoomPanKeyframes>
                 <ZoomPanKeyframe id="3598" timeRangeEnd="-9999999/1" timeRangeDuration="0/1" interpolaterName=""  />
                </ZoomPanKeyframes>
               </ZoomPanBin>
              </Entry>
              <Entry key="CursorEffectBin">
               <CursorEffectBin id="3599"  >
                <CursorEffectKeyframes>
                </CursorEffectKeyframes>
               </CursorEffectBin>
              </Entry>
             </ExtraData>
            </ScreenVMFile>
            <MetaData>
             <entry key="AutoAppliedSmartFocus" val="False"/>
             <entry key="WinSubProjectDisplayName" val=""/>
            </MetaData>
           </UnifiedMedia>
           <UnifiedMedia id="3600"  >
            <AMFile id="3601" start="5115" duration="186" scalar="1/1" mediaStart="8379/1" mediaDuration="186/1" trackNumber="1" src="4" channelNumber="0,1" >
             <Parameters>
              <InterpolatingParam id="3602" interp="linr"  time="0/1" value="1" leadInLength="0/1"  name="volume"/>
              <Parameter id="3603"  name="captions"/>
             </Parameters>
             <Attributes>
              <Attribute id="3604" value="" name="ident"/>
              <Attribute id="3605" value="44100" name="sampleRate"/>
              <Attribute id="3606" value="16" name="bitDepth"/>
              <Attribute id="3607" value="1" name="gain"/>
              <Attribute id="3608" value="0" name="mixToMono"/>
             </Attributes>
            </AMFile>
            <ScreenVMFile id="3609" start="5115" duration="186" scalar="1/1" mediaStart="8379/1" mediaDuration="186/1" trackNumber="0" src="4" >
             <Transformer>
              <VectorParam id="3610"  name="translation">
               <InterpolatingParam id="3611" interp="linr"  time="-9999999/1" value="0" leadInLength="0/1"  />
               <InterpolatingParam id="3612" interp="linr"  time="-9999999/1" value="0" leadInLength="0/1"  />
               <InterpolatingParam id="3613" interp="linr"  time="-9999999/1" value="0" leadInLength="0/1"  />
              </VectorParam>
              <VectorParam id="3614"  name="rotation">
               <InterpolatingParam id="3615" interp="linr"  time="-9999999/1" value="0" leadInLength="0/1"  />
               <InterpolatingParam id="3616" interp="linr"  time="-9999999/1" value="0" leadInLength="0/1"  />
               <InterpolatingParam id="3617" interp="linr"  time="-9999999/1" value="0" leadInLength="0/1"  />
              </VectorParam>
              <VectorParam id="3618"  name="shear">
               <InterpolatingParam id="3619" interp="linr"  time="-9999999/1" value="0" leadInLength="0/1"  />
               <InterpolatingParam id="3620" interp="linr"  time="-9999999/1" value="0" leadInLength="0/1"  />
               <InterpolatingParam id="3621" interp="linr"  time="-9999999/1" value="0" leadInLength="0/1"  />
              </VectorParam>
              <VectorParam id="3622"  name="scale">
               <InterpolatingParam id="3623" interp="linr"  time="-9999999/1" value="1" leadInLength="0/1"  />
               <InterpolatingParam id="3624" interp="linr"  time="-9999999/1" value="1" leadInLength="0/1"  />
               <InterpolatingParam id="3625" interp="linr"  time="-9999999/1" value="1" leadInLength="0/1"  />
              </VectorParam>
              <VectorParam id="3626"  name="anchor">
               <InterpolatingParam id="3627" interp="linr"  time="0/1" value="0" leadInLength="0/1"  />
               <InterpolatingParam id="3628" interp="linr"  time="0/1" value="0" leadInLength="0/1"  />
               <InterpolatingParam id="3629" interp="linr"  time="0/1" value="0" leadInLength="0/1"  />
              </VectorParam>
             </Transformer>
             <Parameters>
              <VectorParam id="3630"  name="sourceCrop">
               <InterpolatingParam id="3631" interp="linr"  time="0/1" value="0" leadInLength="0/1"  />
               <InterpolatingParam id="3632" interp="linr"  time="0/1" value="0" leadInLength="0/1"  />
               <InterpolatingParam id="3633" interp="linr"  time="0/1" value="0" leadInLength="0/1"  />
               <InterpolatingParam id="3634" interp="linr"  time="0/1" value="0" leadInLength="0/1"  />
              </VectorParam>
              <VectorParam id="3635"  name="geometryCrop">
               <InterpolatingParam id="3636" interp="linr"  time="-9999999/1" value="0" leadInLength="0/1"  />
               <InterpolatingParam id="3637" interp="linr"  time="-9999999/1" value="0" leadInLength="0/1"  />
               <InterpolatingParam id="3638" interp="linr"  time="-9999999/1" value="0" leadInLength="0/1"  />
               <InterpolatingParam id="3639" interp="linr"  time="-9999999/1" value="0" leadInLength="0/1"  />
              </VectorParam>
              <InterpolatingParam id="3640" interp="linr"  time="-9999999/1" value="1" leadInLength="0/1"  name="opacity"/>
              <InterpolatingParam id="3641" interp="linr"  time="0/1" value="0" leadInLength="0/1"  name="cursorOpacity"/>
              <InterpolatingParam id="3642" interp="linr"  time="0/1" value="0" leadInLength="0/1"  name="cursorScale"/>
             </Parameters>
             <Attributes>
              <Attribute id="3643" value="" name="ident"/>
             </Attributes>
             <ExtraData>
              <Entry key="ZoomPanBin">
               <ZoomPanBin id="3644"  >
                <ZoomPanKeyframes>
                 <ZoomPanKeyframe id="3645" timeRangeEnd="-9999999/1" timeRangeDuration="0/1" interpolaterName=""  />
                </ZoomPanKeyframes>
               </ZoomPanBin>
              </Entry>
              <Entry key="CursorEffectBin">
               <CursorEffectBin id="3646"  >
                <CursorEffectKeyframes>
                </CursorEffectKeyframes>
               </CursorEffectBin>
              </Entry>
             </ExtraData>
            </ScreenVMFile>
            <MetaData>
             <entry key="AutoAppliedSmartFocus" val="False"/>
             <entry key="WinSubProjectDisplayName" val=""/>
            </MetaData>
           </UnifiedMedia>
           <UnifiedMedia id="3647"  >
            <AMFile id="3648" start="5301" duration="63" scalar="1/1" mediaStart="8583/1" mediaDuration="63/1" trackNumber="1" src="4" channelNumber="0,1" >
             <Parameters>
              <InterpolatingParam id="3649" interp="linr"  time="0/1" value="1" leadInLength="0/1"  name="volume"/>
              <Parameter id="3650"  name="captions"/>
             </Parameters>
             <Attributes>
              <Attribute id="3651" value="" name="ident"/>
              <Attribute id="3652" value="44100" name="sampleRate"/>
              <Attribute id="3653" value="16" name="bitDepth"/>
              <Attribute id="3654" value="1" name="gain"/>
              <Attribute id="3655" value="0" name="mixToMono"/>
             </Attributes>
            </AMFile>
            <ScreenVMFile id="3656" start="5301" duration="63" scalar="1/1" mediaStart="8583/1" mediaDuration="63/1" trackNumber="0" src="4" >
             <Transformer>
              <VectorParam id="3657"  name="translation">
               <InterpolatingParam id="3658" interp="linr"  time="-9999999/1" value="0" leadInLength="0/1"  />
               <InterpolatingParam id="3659" interp="linr"  time="-9999999/1" value="0" leadInLength="0/1"  />
               <InterpolatingParam id="3660" interp="linr"  time="-9999999/1" value="0" leadInLength="0/1"  />
              </VectorParam>
              <VectorParam id="3661"  name="rotation">
               <InterpolatingParam id="3662" interp="linr"  time="-9999999/1" value="0" leadInLength="0/1"  />
               <InterpolatingParam id="3663" interp="linr"  time="-9999999/1" value="0" leadInLength="0/1"  />
               <InterpolatingParam id="3664" interp="linr"  time="-9999999/1" value="0" leadInLength="0/1"  />
              </VectorParam>
              <VectorParam id="3665"  name="shear">
               <InterpolatingParam id="3666" interp="linr"  time="-9999999/1" value="0" leadInLength="0/1"  />
               <InterpolatingParam id="3667" interp="linr"  time="-9999999/1" value="0" leadInLength="0/1"  />
               <InterpolatingParam id="3668" interp="linr"  time="-9999999/1" value="0" leadInLength="0/1"  />
              </VectorParam>
              <VectorParam id="3669"  name="scale">
               <InterpolatingParam id="3670" interp="linr"  time="-9999999/1" value="1" leadInLength="0/1"  />
               <InterpolatingParam id="3671" interp="linr"  time="-9999999/1" value="1" leadInLength="0/1"  />
               <InterpolatingParam id="3672" interp="linr"  time="-9999999/1" value="1" leadInLength="0/1"  />
              </VectorParam>
              <VectorParam id="3673"  name="anchor">
               <InterpolatingParam id="3674" interp="linr"  time="0/1" value="0" leadInLength="0/1"  />
               <InterpolatingParam id="3675" interp="linr"  time="0/1" value="0" leadInLength="0/1"  />
               <InterpolatingParam id="3676" interp="linr"  time="0/1" value="0" leadInLength="0/1"  />
              </VectorParam>
             </Transformer>
             <Parameters>
              <VectorParam id="3677"  name="sourceCrop">
               <InterpolatingParam id="3678" interp="linr"  time="0/1" value="0" leadInLength="0/1"  />
               <InterpolatingParam id="3679" interp="linr"  time="0/1" value="0" leadInLength="0/1"  />
               <InterpolatingParam id="3680" interp="linr"  time="0/1" value="0" leadInLength="0/1"  />
               <InterpolatingParam id="3681" interp="linr"  time="0/1" value="0" leadInLength="0/1"  />
              </VectorParam>
              <VectorParam id="3682"  name="geometryCrop">
               <InterpolatingParam id="3683" interp="linr"  time="-9999999/1" value="0" leadInLength="0/1"  />
               <InterpolatingParam id="3684" interp="linr"  time="-9999999/1" value="0" leadInLength="0/1"  />
               <InterpolatingParam id="3685" interp="linr"  time="-9999999/1" value="0" leadInLength="0/1"  />
               <InterpolatingParam id="3686" interp="linr"  time="-9999999/1" value="0" leadInLength="0/1"  />
              </VectorParam>
              <InterpolatingParam id="3687" interp="linr"  time="-9999999/1" value="1" leadInLength="0/1"  name="opacity"/>
              <InterpolatingParam id="3688" interp="linr"  time="0/1" value="0" leadInLength="0/1"  name="cursorOpacity"/>
              <InterpolatingParam id="3689" interp="linr"  time="0/1" value="0" leadInLength="0/1"  name="cursorScale"/>
             </Parameters>
             <Attributes>
              <Attribute id="3690" value="" name="ident"/>
             </Attributes>
             <ExtraData>
              <Entry key="ZoomPanBin">
               <ZoomPanBin id="3691"  >
                <ZoomPanKeyframes>
                 <ZoomPanKeyframe id="3692" timeRangeEnd="-9999999/1" timeRangeDuration="0/1" interpolaterName=""  />
                </ZoomPanKeyframes>
               </ZoomPanBin>
              </Entry>
              <Entry key="CursorEffectBin">
               <CursorEffectBin id="3693"  >
                <CursorEffectKeyframes>
                </CursorEffectKeyframes>
               </CursorEffectBin>
              </Entry>
             </ExtraData>
            </ScreenVMFile>
            <MetaData>
             <entry key="AutoAppliedSmartFocus" val="False"/>
             <entry key="WinSubProjectDisplayName" val=""/>
            </MetaData>
           </UnifiedMedia>
           <UnifiedMedia id="3694"  >
            <AMFile id="3695" start="5364" duration="253" scalar="1/1" mediaStart="8812/1" mediaDuration="253/1" trackNumber="1" src="4" channelNumber="0,1" >
             <Parameters>
              <InterpolatingParam id="3696" interp="linr"  time="0/1" value="1" leadInLength="0/1"  name="volume"/>
              <Parameter id="3697"  name="captions"/>
             </Parameters>
             <Attributes>
              <Attribute id="3698" value="" name="ident"/>
              <Attribute id="3699" value="44100" name="sampleRate"/>
              <Attribute id="3700" value="16" name="bitDepth"/>
              <Attribute id="3701" value="1" name="gain"/>
              <Attribute id="3702" value="0" name="mixToMono"/>
             </Attributes>
            </AMFile>
            <ScreenVMFile id="3703" start="5364" duration="253" scalar="1/1" mediaStart="8812/1" mediaDuration="253/1" trackNumber="0" src="4" >
             <Transformer>
              <VectorParam id="3704"  name="translation">
               <InterpolatingParam id="3705" interp="linr"  time="-9999999/1" value="0" leadInLength="0/1"  />
               <InterpolatingParam id="3706" interp="linr"  time="-9999999/1" value="0" leadInLength="0/1"  />
               <InterpolatingParam id="3707" interp="linr"  time="-9999999/1" value="0" leadInLength="0/1"  />
              </VectorParam>
              <VectorParam id="3708"  name="rotation">
               <InterpolatingParam id="3709" interp="linr"  time="-9999999/1" value="0" leadInLength="0/1"  />
               <InterpolatingParam id="3710" interp="linr"  time="-9999999/1" value="0" leadInLength="0/1"  />
               <InterpolatingParam id="3711" interp="linr"  time="-9999999/1" value="0" leadInLength="0/1"  />
              </VectorParam>
              <VectorParam id="3712"  name="shear">
               <InterpolatingParam id="3713" interp="linr"  time="-9999999/1" value="0" leadInLength="0/1"  />
               <InterpolatingParam id="3714" interp="linr"  time="-9999999/1" value="0" leadInLength="0/1"  />
               <InterpolatingParam id="3715" interp="linr"  time="-9999999/1" value="0" leadInLength="0/1"  />
              </VectorParam>
              <VectorParam id="3716"  name="scale">
               <InterpolatingParam id="3717" interp="linr"  time="-9999999/1" value="1" leadInLength="0/1"  />
               <InterpolatingParam id="3718" interp="linr"  time="-9999999/1" value="1" leadInLength="0/1"  />
               <InterpolatingParam id="3719" interp="linr"  time="-9999999/1" value="1" leadInLength="0/1"  />
              </VectorParam>
              <VectorParam id="3720"  name="anchor">
               <InterpolatingParam id="3721" interp="linr"  time="0/1" value="0" leadInLength="0/1"  />
               <InterpolatingParam id="3722" interp="linr"  time="0/1" value="0" leadInLength="0/1"  />
               <InterpolatingParam id="3723" interp="linr"  time="0/1" value="0" leadInLength="0/1"  />
              </VectorParam>
             </Transformer>
             <Parameters>
              <VectorParam id="3724"  name="sourceCrop">
               <InterpolatingParam id="3725" interp="linr"  time="0/1" value="0" leadInLength="0/1"  />
               <InterpolatingParam id="3726" interp="linr"  time="0/1" value="0" leadInLength="0/1"  />
               <InterpolatingParam id="3727" interp="linr"  time="0/1" value="0" leadInLength="0/1"  />
               <InterpolatingParam id="3728" interp="linr"  time="0/1" value="0" leadInLength="0/1"  />
              </VectorParam>
              <VectorParam id="3729"  name="geometryCrop">
               <InterpolatingParam id="3730" interp="linr"  time="-9999999/1" value="0" leadInLength="0/1"  />
               <InterpolatingParam id="3731" interp="linr"  time="-9999999/1" value="0" leadInLength="0/1"  />
               <InterpolatingParam id="3732" interp="linr"  time="-9999999/1" value="0" leadInLength="0/1"  />
               <InterpolatingParam id="3733" interp="linr"  time="-9999999/1" value="0" leadInLength="0/1"  />
              </VectorParam>
              <InterpolatingParam id="3734" interp="linr"  time="-9999999/1" value="1" leadInLength="0/1"  name="opacity"/>
              <InterpolatingParam id="3735" interp="linr"  time="0/1" value="0" leadInLength="0/1"  name="cursorOpacity"/>
              <InterpolatingParam id="3736" interp="linr"  time="0/1" value="0" leadInLength="0/1"  name="cursorScale"/>
             </Parameters>
             <Attributes>
              <Attribute id="3737" value="" name="ident"/>
             </Attributes>
             <ExtraData>
              <Entry key="ZoomPanBin">
               <ZoomPanBin id="3738"  >
                <ZoomPanKeyframes>
                 <ZoomPanKeyframe id="3739" timeRangeEnd="-9999999/1" timeRangeDuration="0/1" interpolaterName=""  />
                </ZoomPanKeyframes>
               </ZoomPanBin>
              </Entry>
              <Entry key="CursorEffectBin">
               <CursorEffectBin id="3740"  >
                <CursorEffectKeyframes>
                </CursorEffectKeyframes>
               </CursorEffectBin>
              </Entry>
             </ExtraData>
            </ScreenVMFile>
            <MetaData>
             <entry key="AutoAppliedSmartFocus" val="False"/>
             <entry key="WinSubProjectDisplayName" val=""/>
            </MetaData>
           </UnifiedMedia>
           <UnifiedMedia id="3741"  >
            <AMFile id="3742" start="5617" duration="479" scalar="1/1" mediaStart="9075/1" mediaDuration="479/1" trackNumber="1" src="4" channelNumber="0,1" >
             <Parameters>
              <InterpolatingParam id="3743" interp="linr"  time="0/1" value="1" leadInLength="0/1"  name="volume"/>
              <Parameter id="3744"  name="captions"/>
             </Parameters>
             <Attributes>
              <Attribute id="3745" value="" name="ident"/>
              <Attribute id="3746" value="44100" name="sampleRate"/>
              <Attribute id="3747" value="16" name="bitDepth"/>
              <Attribute id="3748" value="1" name="gain"/>
              <Attribute id="3749" value="0" name="mixToMono"/>
             </Attributes>
            </AMFile>
            <ScreenVMFile id="3750" start="5617" duration="479" scalar="1/1" mediaStart="9075/1" mediaDuration="479/1" trackNumber="0" src="4" >
             <Transformer>
              <VectorParam id="3751"  name="translation">
               <InterpolatingParam id="3752" interp="linr"  time="-9999999/1" value="0" leadInLength="0/1"  />
               <InterpolatingParam id="3753" interp="linr"  time="-9999999/1" value="0" leadInLength="0/1"  />
               <InterpolatingParam id="3754" interp="linr"  time="-9999999/1" value="0" leadInLength="0/1"  />
              </VectorParam>
              <VectorParam id="3755"  name="rotation">
               <InterpolatingParam id="3756" interp="linr"  time="-9999999/1" value="0" leadInLength="0/1"  />
               <InterpolatingParam id="3757" interp="linr"  time="-9999999/1" value="0" leadInLength="0/1"  />
               <InterpolatingParam id="3758" interp="linr"  time="-9999999/1" value="0" leadInLength="0/1"  />
              </VectorParam>
              <VectorParam id="3759"  name="shear">
               <InterpolatingParam id="3760" interp="linr"  time="-9999999/1" value="0" leadInLength="0/1"  />
               <InterpolatingParam id="3761" interp="linr"  time="-9999999/1" value="0" leadInLength="0/1"  />
               <InterpolatingParam id="3762" interp="linr"  time="-9999999/1" value="0" leadInLength="0/1"  />
              </VectorParam>
              <VectorParam id="3763"  name="scale">
               <InterpolatingParam id="3764" interp="linr"  time="-9999999/1" value="1" leadInLength="0/1"  />
               <InterpolatingParam id="3765" interp="linr"  time="-9999999/1" value="1" leadInLength="0/1"  />
               <InterpolatingParam id="3766" interp="linr"  time="-9999999/1" value="1" leadInLength="0/1"  />
              </VectorParam>
              <VectorParam id="3767"  name="anchor">
               <InterpolatingParam id="3768" interp="linr"  time="0/1" value="0" leadInLength="0/1"  />
               <InterpolatingParam id="3769" interp="linr"  time="0/1" value="0" leadInLength="0/1"  />
               <InterpolatingParam id="3770" interp="linr"  time="0/1" value="0" leadInLength="0/1"  />
              </VectorParam>
             </Transformer>
             <Parameters>
              <VectorParam id="3771"  name="sourceCrop">
               <InterpolatingParam id="3772" interp="linr"  time="0/1" value="0" leadInLength="0/1"  />
               <InterpolatingParam id="3773" interp="linr"  time="0/1" value="0" leadInLength="0/1"  />
               <InterpolatingParam id="3774" interp="linr"  time="0/1" value="0" leadInLength="0/1"  />
               <InterpolatingParam id="3775" interp="linr"  time="0/1" value="0" leadInLength="0/1"  />
              </VectorParam>
              <VectorParam id="3776"  name="geometryCrop">
               <InterpolatingParam id="3777" interp="linr"  time="-9999999/1" value="0" leadInLength="0/1"  />
               <InterpolatingParam id="3778" interp="linr"  time="-9999999/1" value="0" leadInLength="0/1"  />
               <InterpolatingParam id="3779" interp="linr"  time="-9999999/1" value="0" leadInLength="0/1"  />
               <InterpolatingParam id="3780" interp="linr"  time="-9999999/1" value="0" leadInLength="0/1"  />
              </VectorParam>
              <InterpolatingParam id="3781" interp="linr"  time="-9999999/1" value="1" leadInLength="0/1"  name="opacity"/>
              <InterpolatingParam id="3782" interp="linr"  time="0/1" value="0" leadInLength="0/1"  name="cursorOpacity"/>
              <InterpolatingParam id="3783" interp="linr"  time="0/1" value="0" leadInLength="0/1"  name="cursorScale"/>
             </Parameters>
             <Attributes>
              <Attribute id="3784" value="" name="ident"/>
             </Attributes>
             <ExtraData>
              <Entry key="ZoomPanBin">
               <ZoomPanBin id="3785"  >
                <ZoomPanKeyframes>
                 <ZoomPanKeyframe id="3786" timeRangeEnd="-9999999/1" timeRangeDuration="0/1" interpolaterName=""  />
                </ZoomPanKeyframes>
               </ZoomPanBin>
              </Entry>
              <Entry key="CursorEffectBin">
               <CursorEffectBin id="3787"  >
                <CursorEffectKeyframes>
                </CursorEffectKeyframes>
               </CursorEffectBin>
              </Entry>
             </ExtraData>
            </ScreenVMFile>
            <MetaData>
             <entry key="AutoAppliedSmartFocus" val="False"/>
             <entry key="WinSubProjectDisplayName" val=""/>
            </MetaData>
           </UnifiedMedia>
           <UnifiedMedia id="3788"  >
            <AMFile id="3789" start="6096" duration="269" scalar="1/1" mediaStart="9641/1" mediaDuration="269/1" trackNumber="1" src="4" channelNumber="0,1" >
             <Parameters>
              <InterpolatingParam id="3790" interp="linr"  time="0/1" value="1" leadInLength="0/1"  name="volume"/>
              <Parameter id="3791"  name="captions"/>
             </Parameters>
             <Attributes>
              <Attribute id="3792" value="" name="ident"/>
              <Attribute id="3793" value="44100" name="sampleRate"/>
              <Attribute id="3794" value="16" name="bitDepth"/>
              <Attribute id="3795" value="1" name="gain"/>
              <Attribute id="3796" value="0" name="mixToMono"/>
             </Attributes>
            </AMFile>
            <ScreenVMFile id="3797" start="6096" duration="269" scalar="1/1" mediaStart="9641/1" mediaDuration="269/1" trackNumber="0" src="4" >
             <Transformer>
              <VectorParam id="3798"  name="translation">
               <InterpolatingParam id="3799" interp="linr"  time="-9999999/1" value="0" leadInLength="0/1"  />
               <InterpolatingParam id="3800" interp="linr"  time="-9999999/1" value="0" leadInLength="0/1"  />
               <InterpolatingParam id="3801" interp="linr"  time="-9999999/1" value="0" leadInLength="0/1"  />
              </VectorParam>
              <VectorParam id="3802"  name="rotation">
               <InterpolatingParam id="3803" interp="linr"  time="-9999999/1" value="0" leadInLength="0/1"  />
               <InterpolatingParam id="3804" interp="linr"  time="-9999999/1" value="0" leadInLength="0/1"  />
               <InterpolatingParam id="3805" interp="linr"  time="-9999999/1" value="0" leadInLength="0/1"  />
              </VectorParam>
              <VectorParam id="3806"  name="shear">
               <InterpolatingParam id="3807" interp="linr"  time="-9999999/1" value="0" leadInLength="0/1"  />
               <InterpolatingParam id="3808" interp="linr"  time="-9999999/1" value="0" leadInLength="0/1"  />
               <InterpolatingParam id="3809" interp="linr"  time="-9999999/1" value="0" leadInLength="0/1"  />
              </VectorParam>
              <VectorParam id="3810"  name="scale">
               <InterpolatingParam id="3811" interp="linr"  time="-9999999/1" value="1" leadInLength="0/1"  />
               <InterpolatingParam id="3812" interp="linr"  time="-9999999/1" value="1" leadInLength="0/1"  />
               <InterpolatingParam id="3813" interp="linr"  time="-9999999/1" value="1" leadInLength="0/1"  />
              </VectorParam>
              <VectorParam id="3814"  name="anchor">
               <InterpolatingParam id="3815" interp="linr"  time="0/1" value="0" leadInLength="0/1"  />
               <InterpolatingParam id="3816" interp="linr"  time="0/1" value="0" leadInLength="0/1"  />
               <InterpolatingParam id="3817" interp="linr"  time="0/1" value="0" leadInLength="0/1"  />
              </VectorParam>
             </Transformer>
             <Parameters>
              <VectorParam id="3818"  name="sourceCrop">
               <InterpolatingParam id="3819" interp="linr"  time="0/1" value="0" leadInLength="0/1"  />
               <InterpolatingParam id="3820" interp="linr"  time="0/1" value="0" leadInLength="0/1"  />
               <InterpolatingParam id="3821" interp="linr"  time="0/1" value="0" leadInLength="0/1"  />
               <InterpolatingParam id="3822" interp="linr"  time="0/1" value="0" leadInLength="0/1"  />
              </VectorParam>
              <VectorParam id="3823"  name="geometryCrop">
               <InterpolatingParam id="3824" interp="linr"  time="-9999999/1" value="0" leadInLength="0/1"  />
               <InterpolatingParam id="3825" interp="linr"  time="-9999999/1" value="0" leadInLength="0/1"  />
               <InterpolatingParam id="3826" interp="linr"  time="-9999999/1" value="0" leadInLength="0/1"  />
               <InterpolatingParam id="3827" interp="linr"  time="-9999999/1" value="0" leadInLength="0/1"  />
              </VectorParam>
              <InterpolatingParam id="3828" interp="linr"  time="-9999999/1" value="1" leadInLength="0/1"  name="opacity"/>
              <InterpolatingParam id="3829" interp="linr"  time="0/1" value="0" leadInLength="0/1"  name="cursorOpacity"/>
              <InterpolatingParam id="3830" interp="linr"  time="0/1" value="0" leadInLength="0/1"  name="cursorScale"/>
             </Parameters>
             <Attributes>
              <Attribute id="3831" value="" name="ident"/>
             </Attributes>
             <ExtraData>
              <Entry key="ZoomPanBin">
               <ZoomPanBin id="3832"  >
                <ZoomPanKeyframes>
                 <ZoomPanKeyframe id="3833" timeRangeEnd="-9999999/1" timeRangeDuration="0/1" interpolaterName=""  />
                </ZoomPanKeyframes>
               </ZoomPanBin>
              </Entry>
              <Entry key="CursorEffectBin">
               <CursorEffectBin id="3834"  >
                <CursorEffectKeyframes>
                </CursorEffectKeyframes>
               </CursorEffectBin>
              </Entry>
             </ExtraData>
            </ScreenVMFile>
            <MetaData>
             <entry key="AutoAppliedSmartFocus" val="False"/>
             <entry key="WinSubProjectDisplayName" val=""/>
            </MetaData>
           </UnifiedMedia>
           <UnifiedMedia id="3835"  >
            <AMFile id="3836" start="6365" duration="90" scalar="1/1" mediaStart="10079/1" mediaDuration="90/1" trackNumber="1" src="4" channelNumber="0,1" >
             <Parameters>
              <InterpolatingParam id="3837" interp="linr"  time="0/1" value="1" leadInLength="0/1"  name="volume"/>
              <Parameter id="3838"  name="captions"/>
             </Parameters>
             <Attributes>
              <Attribute id="3839" value="" name="ident"/>
              <Attribute id="3840" value="44100" name="sampleRate"/>
              <Attribute id="3841" value="16" name="bitDepth"/>
              <Attribute id="3842" value="1" name="gain"/>
              <Attribute id="3843" value="0" name="mixToMono"/>
             </Attributes>
            </AMFile>
            <ScreenVMFile id="3844" start="6365" duration="90" scalar="1/1" mediaStart="10079/1" mediaDuration="90/1" trackNumber="0" src="4" >
             <Transformer>
              <VectorParam id="3845"  name="translation">
               <InterpolatingParam id="3846" interp="linr"  time="-9999999/1" value="0" leadInLength="0/1"  />
               <InterpolatingParam id="3847" interp="linr"  time="-9999999/1" value="0" leadInLength="0/1"  />
               <InterpolatingParam id="3848" interp="linr"  time="-9999999/1" value="0" leadInLength="0/1"  />
              </VectorParam>
              <VectorParam id="3849"  name="rotation">
               <InterpolatingParam id="3850" interp="linr"  time="-9999999/1" value="0" leadInLength="0/1"  />
               <InterpolatingParam id="3851" interp="linr"  time="-9999999/1" value="0" leadInLength="0/1"  />
               <InterpolatingParam id="3852" interp="linr"  time="-9999999/1" value="0" leadInLength="0/1"  />
              </VectorParam>
              <VectorParam id="3853"  name="shear">
               <InterpolatingParam id="3854" interp="linr"  time="-9999999/1" value="0" leadInLength="0/1"  />
               <InterpolatingParam id="3855" interp="linr"  time="-9999999/1" value="0" leadInLength="0/1"  />
               <InterpolatingParam id="3856" interp="linr"  time="-9999999/1" value="0" leadInLength="0/1"  />
              </VectorParam>
              <VectorParam id="3857"  name="scale">
               <InterpolatingParam id="3858" interp="linr"  time="-9999999/1" value="1" leadInLength="0/1"  />
               <InterpolatingParam id="3859" interp="linr"  time="-9999999/1" value="1" leadInLength="0/1"  />
               <InterpolatingParam id="3860" interp="linr"  time="-9999999/1" value="1" leadInLength="0/1"  />
              </VectorParam>
              <VectorParam id="3861"  name="anchor">
               <InterpolatingParam id="3862" interp="linr"  time="0/1" value="0" leadInLength="0/1"  />
               <InterpolatingParam id="3863" interp="linr"  time="0/1" value="0" leadInLength="0/1"  />
               <InterpolatingParam id="3864" interp="linr"  time="0/1" value="0" leadInLength="0/1"  />
              </VectorParam>
             </Transformer>
             <Parameters>
              <VectorParam id="3865"  name="sourceCrop">
               <InterpolatingParam id="3866" interp="linr"  time="0/1" value="0" leadInLength="0/1"  />
               <InterpolatingParam id="3867" interp="linr"  time="0/1" value="0" leadInLength="0/1"  />
               <InterpolatingParam id="3868" interp="linr"  time="0/1" value="0" leadInLength="0/1"  />
               <InterpolatingParam id="3869" interp="linr"  time="0/1" value="0" leadInLength="0/1"  />
              </VectorParam>
              <VectorParam id="3870"  name="geometryCrop">
               <InterpolatingParam id="3871" interp="linr"  time="-9999999/1" value="0" leadInLength="0/1"  />
               <InterpolatingParam id="3872" interp="linr"  time="-9999999/1" value="0" leadInLength="0/1"  />
               <InterpolatingParam id="3873" interp="linr"  time="-9999999/1" value="0" leadInLength="0/1"  />
               <InterpolatingParam id="3874" interp="linr"  time="-9999999/1" value="0" leadInLength="0/1"  />
              </VectorParam>
              <InterpolatingParam id="3875" interp="linr"  time="-9999999/1" value="1" leadInLength="0/1"  name="opacity"/>
              <InterpolatingParam id="3876" interp="linr"  time="0/1" value="0" leadInLength="0/1"  name="cursorOpacity"/>
              <InterpolatingParam id="3877" interp="linr"  time="0/1" value="0" leadInLength="0/1"  name="cursorScale"/>
             </Parameters>
             <Attributes>
              <Attribute id="3878" value="" name="ident"/>
             </Attributes>
             <ExtraData>
              <Entry key="ZoomPanBin">
               <ZoomPanBin id="3879"  >
                <ZoomPanKeyframes>
                 <ZoomPanKeyframe id="3880" timeRangeEnd="-9999999/1" timeRangeDuration="0/1" interpolaterName=""  />
                </ZoomPanKeyframes>
               </ZoomPanBin>
              </Entry>
              <Entry key="CursorEffectBin">
               <CursorEffectBin id="3881"  >
                <CursorEffectKeyframes>
                </CursorEffectKeyframes>
               </CursorEffectBin>
              </Entry>
             </ExtraData>
            </ScreenVMFile>
            <MetaData>
             <entry key="AutoAppliedSmartFocus" val="False"/>
             <entry key="WinSubProjectDisplayName" val=""/>
            </MetaData>
           </UnifiedMedia>
           <UnifiedMedia id="3882"  >
            <AMFile id="3883" start="6455" duration="55" scalar="1/1" mediaStart="10176/1" mediaDuration="55/1" trackNumber="1" src="4" channelNumber="0,1" >
             <Parameters>
              <InterpolatingParam id="3884" interp="linr"  time="0/1" value="1" leadInLength="0/1"  name="volume"/>
              <Parameter id="3885"  name="captions"/>
             </Parameters>
             <Attributes>
              <Attribute id="3886" value="" name="ident"/>
              <Attribute id="3887" value="44100" name="sampleRate"/>
              <Attribute id="3888" value="16" name="bitDepth"/>
              <Attribute id="3889" value="1" name="gain"/>
              <Attribute id="3890" value="0" name="mixToMono"/>
             </Attributes>
            </AMFile>
            <ScreenVMFile id="3891" start="6455" duration="55" scalar="1/1" mediaStart="10176/1" mediaDuration="55/1" trackNumber="0" src="4" >
             <Transformer>
              <VectorParam id="3892"  name="translation">
               <InterpolatingParam id="3893" interp="linr"  time="-9999999/1" value="0" leadInLength="0/1"  />
               <InterpolatingParam id="3894" interp="linr"  time="-9999999/1" value="0" leadInLength="0/1"  />
               <InterpolatingParam id="3895" interp="linr"  time="-9999999/1" value="0" leadInLength="0/1"  />
              </VectorParam>
              <VectorParam id="3896"  name="rotation">
               <InterpolatingParam id="3897" interp="linr"  time="-9999999/1" value="0" leadInLength="0/1"  />
               <InterpolatingParam id="3898" interp="linr"  time="-9999999/1" value="0" leadInLength="0/1"  />
               <InterpolatingParam id="3899" interp="linr"  time="-9999999/1" value="0" leadInLength="0/1"  />
              </VectorParam>
              <VectorParam id="3900"  name="shear">
               <InterpolatingParam id="3901" interp="linr"  time="-9999999/1" value="0" leadInLength="0/1"  />
               <InterpolatingParam id="3902" interp="linr"  time="-9999999/1" value="0" leadInLength="0/1"  />
               <InterpolatingParam id="3903" interp="linr"  time="-9999999/1" value="0" leadInLength="0/1"  />
              </VectorParam>
              <VectorParam id="3904"  name="scale">
               <InterpolatingParam id="3905" interp="linr"  time="-9999999/1" value="1" leadInLength="0/1"  />
               <InterpolatingParam id="3906" interp="linr"  time="-9999999/1" value="1" leadInLength="0/1"  />
               <InterpolatingParam id="3907" interp="linr"  time="-9999999/1" value="1" leadInLength="0/1"  />
              </VectorParam>
              <VectorParam id="3908"  name="anchor">
               <InterpolatingParam id="3909" interp="linr"  time="0/1" value="0" leadInLength="0/1"  />
               <InterpolatingParam id="3910" interp="linr"  time="0/1" value="0" leadInLength="0/1"  />
               <InterpolatingParam id="3911" interp="linr"  time="0/1" value="0" leadInLength="0/1"  />
              </VectorParam>
             </Transformer>
             <Parameters>
              <VectorParam id="3912"  name="sourceCrop">
               <InterpolatingParam id="3913" interp="linr"  time="0/1" value="0" leadInLength="0/1"  />
               <InterpolatingParam id="3914" interp="linr"  time="0/1" value="0" leadInLength="0/1"  />
               <InterpolatingParam id="3915" interp="linr"  time="0/1" value="0" leadInLength="0/1"  />
               <InterpolatingParam id="3916" interp="linr"  time="0/1" value="0" leadInLength="0/1"  />
              </VectorParam>
              <VectorParam id="3917"  name="geometryCrop">
               <InterpolatingParam id="3918" interp="linr"  time="-9999999/1" value="0" leadInLength="0/1"  />
               <InterpolatingParam id="3919" interp="linr"  time="-9999999/1" value="0" leadInLength="0/1"  />
               <InterpolatingParam id="3920" interp="linr"  time="-9999999/1" value="0" leadInLength="0/1"  />
               <InterpolatingParam id="3921" interp="linr"  time="-9999999/1" value="0" leadInLength="0/1"  />
              </VectorParam>
              <InterpolatingParam id="3922" interp="linr"  time="-9999999/1" value="1" leadInLength="0/1"  name="opacity"/>
              <InterpolatingParam id="3923" interp="linr"  time="0/1" value="0" leadInLength="0/1"  name="cursorOpacity"/>
              <InterpolatingParam id="3924" interp="linr"  time="0/1" value="0" leadInLength="0/1"  name="cursorScale"/>
             </Parameters>
             <Attributes>
              <Attribute id="3925" value="" name="ident"/>
             </Attributes>
             <ExtraData>
              <Entry key="ZoomPanBin">
               <ZoomPanBin id="3926"  >
                <ZoomPanKeyframes>
                 <ZoomPanKeyframe id="3927" timeRangeEnd="-9999999/1" timeRangeDuration="0/1" interpolaterName=""  />
                </ZoomPanKeyframes>
               </ZoomPanBin>
              </Entry>
              <Entry key="CursorEffectBin">
               <CursorEffectBin id="3928"  >
                <CursorEffectKeyframes>
                </CursorEffectKeyframes>
               </CursorEffectBin>
              </Entry>
             </ExtraData>
            </ScreenVMFile>
            <MetaData>
             <entry key="AutoAppliedSmartFocus" val="False"/>
             <entry key="WinSubProjectDisplayName" val=""/>
            </MetaData>
           </UnifiedMedia>
           <UnifiedMedia id="3929"  >
            <AMFile id="3930" start="6510" duration="65" scalar="1/1" mediaStart="10241/1" mediaDuration="65/1" trackNumber="1" src="4" channelNumber="0,1" >
             <Parameters>
              <InterpolatingParam id="3931" interp="linr"  time="0/1" value="1" leadInLength="0/1"  name="volume"/>
              <Parameter id="3932"  name="captions"/>
             </Parameters>
             <Attributes>
              <Attribute id="3933" value="" name="ident"/>
              <Attribute id="3934" value="44100" name="sampleRate"/>
              <Attribute id="3935" value="16" name="bitDepth"/>
              <Attribute id="3936" value="1" name="gain"/>
              <Attribute id="3937" value="0" name="mixToMono"/>
             </Attributes>
            </AMFile>
            <ScreenVMFile id="3938" start="6510" duration="65" scalar="1/1" mediaStart="10241/1" mediaDuration="65/1" trackNumber="0" src="4" >
             <Transformer>
              <VectorParam id="3939"  name="translation">
               <InterpolatingParam id="3940" interp="linr"  time="-9999999/1" value="0" leadInLength="0/1"  />
               <InterpolatingParam id="3941" interp="linr"  time="-9999999/1" value="0" leadInLength="0/1"  />
               <InterpolatingParam id="3942" interp="linr"  time="-9999999/1" value="0" leadInLength="0/1"  />
              </VectorParam>
              <VectorParam id="3943"  name="rotation">
               <InterpolatingParam id="3944" interp="linr"  time="-9999999/1" value="0" leadInLength="0/1"  />
               <InterpolatingParam id="3945" interp="linr"  time="-9999999/1" value="0" leadInLength="0/1"  />
               <InterpolatingParam id="3946" interp="linr"  time="-9999999/1" value="0" leadInLength="0/1"  />
              </VectorParam>
              <VectorParam id="3947"  name="shear">
               <InterpolatingParam id="3948" interp="linr"  time="-9999999/1" value="0" leadInLength="0/1"  />
               <InterpolatingParam id="3949" interp="linr"  time="-9999999/1" value="0" leadInLength="0/1"  />
               <InterpolatingParam id="3950" interp="linr"  time="-9999999/1" value="0" leadInLength="0/1"  />
              </VectorParam>
              <VectorParam id="3951"  name="scale">
               <InterpolatingParam id="3952" interp="linr"  time="-9999999/1" value="1" leadInLength="0/1"  />
               <InterpolatingParam id="3953" interp="linr"  time="-9999999/1" value="1" leadInLength="0/1"  />
               <InterpolatingParam id="3954" interp="linr"  time="-9999999/1" value="1" leadInLength="0/1"  />
              </VectorParam>
              <VectorParam id="3955"  name="anchor">
               <InterpolatingParam id="3956" interp="linr"  time="0/1" value="0" leadInLength="0/1"  />
               <InterpolatingParam id="3957" interp="linr"  time="0/1" value="0" leadInLength="0/1"  />
               <InterpolatingParam id="3958" interp="linr"  time="0/1" value="0" leadInLength="0/1"  />
              </VectorParam>
             </Transformer>
             <Parameters>
              <VectorParam id="3959"  name="sourceCrop">
               <InterpolatingParam id="3960" interp="linr"  time="0/1" value="0" leadInLength="0/1"  />
               <InterpolatingParam id="3961" interp="linr"  time="0/1" value="0" leadInLength="0/1"  />
               <InterpolatingParam id="3962" interp="linr"  time="0/1" value="0" leadInLength="0/1"  />
               <InterpolatingParam id="3963" interp="linr"  time="0/1" value="0" leadInLength="0/1"  />
              </VectorParam>
              <VectorParam id="3964"  name="geometryCrop">
               <InterpolatingParam id="3965" interp="linr"  time="-9999999/1" value="0" leadInLength="0/1"  />
               <InterpolatingParam id="3966" interp="linr"  time="-9999999/1" value="0" leadInLength="0/1"  />
               <InterpolatingParam id="3967" interp="linr"  time="-9999999/1" value="0" leadInLength="0/1"  />
               <InterpolatingParam id="3968" interp="linr"  time="-9999999/1" value="0" leadInLength="0/1"  />
              </VectorParam>
              <InterpolatingParam id="3969" interp="linr"  time="-9999999/1" value="1" leadInLength="0/1"  name="opacity"/>
              <InterpolatingParam id="3970" interp="linr"  time="0/1" value="0" leadInLength="0/1"  name="cursorOpacity"/>
              <InterpolatingParam id="3971" interp="linr"  time="0/1" value="0" leadInLength="0/1"  name="cursorScale"/>
             </Parameters>
             <Attributes>
              <Attribute id="3972" value="" name="ident"/>
             </Attributes>
             <ExtraData>
              <Entry key="ZoomPanBin">
               <ZoomPanBin id="3973"  >
                <ZoomPanKeyframes>
                 <ZoomPanKeyframe id="3974" timeRangeEnd="-9999999/1" timeRangeDuration="0/1" interpolaterName=""  />
                </ZoomPanKeyframes>
               </ZoomPanBin>
              </Entry>
              <Entry key="CursorEffectBin">
               <CursorEffectBin id="3975"  >
                <CursorEffectKeyframes>
                </CursorEffectKeyframes>
               </CursorEffectBin>
              </Entry>
             </ExtraData>
            </ScreenVMFile>
            <MetaData>
             <entry key="AutoAppliedSmartFocus" val="False"/>
             <entry key="WinSubProjectDisplayName" val=""/>
            </MetaData>
           </UnifiedMedia>
           <UnifiedMedia id="3976"  >
            <AMFile id="3977" start="6575" duration="500" scalar="1/1" mediaStart="10620/1" mediaDuration="500/1" trackNumber="1" src="4" channelNumber="0,1" >
             <Parameters>
              <InterpolatingParam id="3978" interp="linr"  time="0/1" value="1" leadInLength="0/1"  name="volume"/>
              <Parameter id="3979"  name="captions"/>
             </Parameters>
             <Attributes>
              <Attribute id="3980" value="" name="ident"/>
              <Attribute id="3981" value="44100" name="sampleRate"/>
              <Attribute id="3982" value="16" name="bitDepth"/>
              <Attribute id="3983" value="1" name="gain"/>
              <Attribute id="3984" value="0" name="mixToMono"/>
             </Attributes>
            </AMFile>
            <ScreenVMFile id="3985" start="6575" duration="500" scalar="1/1" mediaStart="10620/1" mediaDuration="500/1" trackNumber="0" src="4" >
             <Transformer>
              <VectorParam id="3986"  name="translation">
               <InterpolatingParam id="3987" interp="linr"  time="-9999999/1" value="0" leadInLength="0/1"  />
               <InterpolatingParam id="3988" interp="linr"  time="-9999999/1" value="0" leadInLength="0/1"  />
               <InterpolatingParam id="3989" interp="linr"  time="-9999999/1" value="0" leadInLength="0/1"  />
              </VectorParam>
              <VectorParam id="3990"  name="rotation">
               <InterpolatingParam id="3991" interp="linr"  time="-9999999/1" value="0" leadInLength="0/1"  />
               <InterpolatingParam id="3992" interp="linr"  time="-9999999/1" value="0" leadInLength="0/1"  />
               <InterpolatingParam id="3993" interp="linr"  time="-9999999/1" value="0" leadInLength="0/1"  />
              </VectorParam>
              <VectorParam id="3994"  name="shear">
               <InterpolatingParam id="3995" interp="linr"  time="-9999999/1" value="0" leadInLength="0/1"  />
               <InterpolatingParam id="3996" interp="linr"  time="-9999999/1" value="0" leadInLength="0/1"  />
               <InterpolatingParam id="3997" interp="linr"  time="-9999999/1" value="0" leadInLength="0/1"  />
              </VectorParam>
              <VectorParam id="3998"  name="scale">
               <InterpolatingParam id="3999" interp="linr"  time="-9999999/1" value="1" leadInLength="0/1"  />
               <InterpolatingParam id="4000" interp="linr"  time="-9999999/1" value="1" leadInLength="0/1"  />
               <InterpolatingParam id="4001" interp="linr"  time="-9999999/1" value="1" leadInLength="0/1"  />
              </VectorParam>
              <VectorParam id="4002"  name="anchor">
               <InterpolatingParam id="4003" interp="linr"  time="0/1" value="0" leadInLength="0/1"  />
               <InterpolatingParam id="4004" interp="linr"  time="0/1" value="0" leadInLength="0/1"  />
               <InterpolatingParam id="4005" interp="linr"  time="0/1" value="0" leadInLength="0/1"  />
              </VectorParam>
             </Transformer>
             <Parameters>
              <VectorParam id="4006"  name="sourceCrop">
               <InterpolatingParam id="4007" interp="linr"  time="0/1" value="0" leadInLength="0/1"  />
               <InterpolatingParam id="4008" interp="linr"  time="0/1" value="0" leadInLength="0/1"  />
               <InterpolatingParam id="4009" interp="linr"  time="0/1" value="0" leadInLength="0/1"  />
               <InterpolatingParam id="4010" interp="linr"  time="0/1" value="0" leadInLength="0/1"  />
              </VectorParam>
              <VectorParam id="4011"  name="geometryCrop">
               <InterpolatingParam id="4012" interp="linr"  time="-9999999/1" value="0" leadInLength="0/1"  />
               <InterpolatingParam id="4013" interp="linr"  time="-9999999/1" value="0" leadInLength="0/1"  />
               <InterpolatingParam id="4014" interp="linr"  time="-9999999/1" value="0" leadInLength="0/1"  />
               <InterpolatingParam id="4015" interp="linr"  time="-9999999/1" value="0" leadInLength="0/1"  />
              </VectorParam>
              <InterpolatingParam id="4016" interp="linr"  time="-9999999/1" value="1" leadInLength="0/1"  name="opacity"/>
              <InterpolatingParam id="4017" interp="linr"  time="0/1" value="0" leadInLength="0/1"  name="cursorOpacity"/>
              <InterpolatingParam id="4018" interp="linr"  time="0/1" value="0" leadInLength="0/1"  name="cursorScale"/>
             </Parameters>
             <Attributes>
              <Attribute id="4019" value="" name="ident"/>
             </Attributes>
             <ExtraData>
              <Entry key="ZoomPanBin">
               <ZoomPanBin id="4020"  >
                <ZoomPanKeyframes>
                 <ZoomPanKeyframe id="4021" timeRangeEnd="-9999999/1" timeRangeDuration="0/1" interpolaterName=""  />
                </ZoomPanKeyframes>
               </ZoomPanBin>
              </Entry>
              <Entry key="CursorEffectBin">
               <CursorEffectBin id="4022"  >
                <CursorEffectKeyframes>
                </CursorEffectKeyframes>
               </CursorEffectBin>
              </Entry>
             </ExtraData>
            </ScreenVMFile>
            <MetaData>
             <entry key="AutoAppliedSmartFocus" val="False"/>
             <entry key="WinSubProjectDisplayName" val=""/>
            </MetaData>
           </UnifiedMedia>
           <UnifiedMedia id="4023"  >
            <AMFile id="4024" start="7075" duration="37" scalar="1/1" mediaStart="11500/1" mediaDuration="37/1" trackNumber="1" src="4" channelNumber="0,1" >
             <Parameters>
              <InterpolatingParam id="4025" interp="linr"  time="0/1" value="1" leadInLength="0/1"  name="volume"/>
              <Parameter id="4026"  name="captions"/>
             </Parameters>
             <Attributes>
              <Attribute id="4027" value="" name="ident"/>
              <Attribute id="4028" value="44100" name="sampleRate"/>
              <Attribute id="4029" value="16" name="bitDepth"/>
              <Attribute id="4030" value="1" name="gain"/>
              <Attribute id="4031" value="0" name="mixToMono"/>
             </Attributes>
            </AMFile>
            <ScreenVMFile id="4032" start="7075" duration="37" scalar="1/1" mediaStart="11500/1" mediaDuration="37/1" trackNumber="0" src="4" >
             <Transformer>
              <VectorParam id="4033"  name="translation">
               <InterpolatingParam id="4034" interp="linr"  time="-9999999/1" value="0" leadInLength="0/1"  />
               <InterpolatingParam id="4035" interp="linr"  time="-9999999/1" value="0" leadInLength="0/1"  />
               <InterpolatingParam id="4036" interp="linr"  time="-9999999/1" value="0" leadInLength="0/1"  />
              </VectorParam>
              <VectorParam id="4037"  name="rotation">
               <InterpolatingParam id="4038" interp="linr"  time="-9999999/1" value="0" leadInLength="0/1"  />
               <InterpolatingParam id="4039" interp="linr"  time="-9999999/1" value="0" leadInLength="0/1"  />
               <InterpolatingParam id="4040" interp="linr"  time="-9999999/1" value="0" leadInLength="0/1"  />
              </VectorParam>
              <VectorParam id="4041"  name="shear">
               <InterpolatingParam id="4042" interp="linr"  time="-9999999/1" value="0" leadInLength="0/1"  />
               <InterpolatingParam id="4043" interp="linr"  time="-9999999/1" value="0" leadInLength="0/1"  />
               <InterpolatingParam id="4044" interp="linr"  time="-9999999/1" value="0" leadInLength="0/1"  />
              </VectorParam>
              <VectorParam id="4045"  name="scale">
               <InterpolatingParam id="4046" interp="linr"  time="-9999999/1" value="1" leadInLength="0/1"  />
               <InterpolatingParam id="4047" interp="linr"  time="-9999999/1" value="1" leadInLength="0/1"  />
               <InterpolatingParam id="4048" interp="linr"  time="-9999999/1" value="1" leadInLength="0/1"  />
              </VectorParam>
              <VectorParam id="4049"  name="anchor">
               <InterpolatingParam id="4050" interp="linr"  time="0/1" value="0" leadInLength="0/1"  />
               <InterpolatingParam id="4051" interp="linr"  time="0/1" value="0" leadInLength="0/1"  />
               <InterpolatingParam id="4052" interp="linr"  time="0/1" value="0" leadInLength="0/1"  />
              </VectorParam>
             </Transformer>
             <Parameters>
              <VectorParam id="4053"  name="sourceCrop">
               <InterpolatingParam id="4054" interp="linr"  time="0/1" value="0" leadInLength="0/1"  />
               <InterpolatingParam id="4055" interp="linr"  time="0/1" value="0" leadInLength="0/1"  />
               <InterpolatingParam id="4056" interp="linr"  time="0/1" value="0" leadInLength="0/1"  />
               <InterpolatingParam id="4057" interp="linr"  time="0/1" value="0" leadInLength="0/1"  />
              </VectorParam>
              <VectorParam id="4058"  name="geometryCrop">
               <InterpolatingParam id="4059" interp="linr"  time="-9999999/1" value="0" leadInLength="0/1"  />
               <InterpolatingParam id="4060" interp="linr"  time="-9999999/1" value="0" leadInLength="0/1"  />
               <InterpolatingParam id="4061" interp="linr"  time="-9999999/1" value="0" leadInLength="0/1"  />
               <InterpolatingParam id="4062" interp="linr"  time="-9999999/1" value="0" leadInLength="0/1"  />
              </VectorParam>
              <InterpolatingParam id="4063" interp="linr"  time="-9999999/1" value="1" leadInLength="0/1"  name="opacity"/>
              <InterpolatingParam id="4064" interp="linr"  time="0/1" value="0" leadInLength="0/1"  name="cursorOpacity"/>
              <InterpolatingParam id="4065" interp="linr"  time="0/1" value="0" leadInLength="0/1"  name="cursorScale"/>
             </Parameters>
             <Attributes>
              <Attribute id="4066" value="" name="ident"/>
             </Attributes>
             <ExtraData>
              <Entry key="ZoomPanBin">
               <ZoomPanBin id="4067"  >
                <ZoomPanKeyframes>
                 <ZoomPanKeyframe id="4068" timeRangeEnd="-9999999/1" timeRangeDuration="0/1" interpolaterName=""  />
                </ZoomPanKeyframes>
               </ZoomPanBin>
              </Entry>
              <Entry key="CursorEffectBin">
               <CursorEffectBin id="4069"  >
                <CursorEffectKeyframes>
                </CursorEffectKeyframes>
               </CursorEffectBin>
              </Entry>
             </ExtraData>
            </ScreenVMFile>
            <MetaData>
             <entry key="AutoAppliedSmartFocus" val="False"/>
             <entry key="WinSubProjectDisplayName" val=""/>
            </MetaData>
           </UnifiedMedia>
           <UnifiedMedia id="4070"  >
            <AMFile id="4071" start="7112" duration="203" scalar="1/1" mediaStart="11678/1" mediaDuration="203/1" trackNumber="1" src="4" channelNumber="0,1" >
             <Parameters>
              <InterpolatingParam id="4072" interp="linr"  time="0/1" value="1" leadInLength="0/1"  name="volume"/>
              <Parameter id="4073"  name="captions"/>
             </Parameters>
             <Attributes>
              <Attribute id="4074" value="" name="ident"/>
              <Attribute id="4075" value="44100" name="sampleRate"/>
              <Attribute id="4076" value="16" name="bitDepth"/>
              <Attribute id="4077" value="1" name="gain"/>
              <Attribute id="4078" value="0" name="mixToMono"/>
             </Attributes>
            </AMFile>
            <ScreenVMFile id="4079" start="7112" duration="203" scalar="1/1" mediaStart="11678/1" mediaDuration="203/1" trackNumber="0" src="4" >
             <Transformer>
              <VectorParam id="4080"  name="translation">
               <InterpolatingParam id="4081" interp="linr"  time="-9999999/1" value="0" leadInLength="0/1"  />
               <InterpolatingParam id="4082" interp="linr"  time="-9999999/1" value="0" leadInLength="0/1"  />
               <InterpolatingParam id="4083" interp="linr"  time="-9999999/1" value="0" leadInLength="0/1"  />
              </VectorParam>
              <VectorParam id="4084"  name="rotation">
               <InterpolatingParam id="4085" interp="linr"  time="-9999999/1" value="0" leadInLength="0/1"  />
               <InterpolatingParam id="4086" interp="linr"  time="-9999999/1" value="0" leadInLength="0/1"  />
               <InterpolatingParam id="4087" interp="linr"  time="-9999999/1" value="0" leadInLength="0/1"  />
              </VectorParam>
              <VectorParam id="4088"  name="shear">
               <InterpolatingParam id="4089" interp="linr"  time="-9999999/1" value="0" leadInLength="0/1"  />
               <InterpolatingParam id="4090" interp="linr"  time="-9999999/1" value="0" leadInLength="0/1"  />
               <InterpolatingParam id="4091" interp="linr"  time="-9999999/1" value="0" leadInLength="0/1"  />
              </VectorParam>
              <VectorParam id="4092"  name="scale">
               <InterpolatingParam id="4093" interp="linr"  time="-9999999/1" value="1" leadInLength="0/1"  />
               <InterpolatingParam id="4094" interp="linr"  time="-9999999/1" value="1" leadInLength="0/1"  />
               <InterpolatingParam id="4095" interp="linr"  time="-9999999/1" value="1" leadInLength="0/1"  />
              </VectorParam>
              <VectorParam id="4096"  name="anchor">
               <InterpolatingParam id="4097" interp="linr"  time="0/1" value="0" leadInLength="0/1"  />
               <InterpolatingParam id="4098" interp="linr"  time="0/1" value="0" leadInLength="0/1"  />
               <InterpolatingParam id="4099" interp="linr"  time="0/1" value="0" leadInLength="0/1"  />
              </VectorParam>
             </Transformer>
             <Parameters>
              <VectorParam id="4100"  name="sourceCrop">
               <InterpolatingParam id="4101" interp="linr"  time="0/1" value="0" leadInLength="0/1"  />
               <InterpolatingParam id="4102" interp="linr"  time="0/1" value="0" leadInLength="0/1"  />
               <InterpolatingParam id="4103" interp="linr"  time="0/1" value="0" leadInLength="0/1"  />
               <InterpolatingParam id="4104" interp="linr"  time="0/1" value="0" leadInLength="0/1"  />
              </VectorParam>
              <VectorParam id="4105"  name="geometryCrop">
               <InterpolatingParam id="4106" interp="linr"  time="-9999999/1" value="0" leadInLength="0/1"  />
               <InterpolatingParam id="4107" interp="linr"  time="-9999999/1" value="0" leadInLength="0/1"  />
               <InterpolatingParam id="4108" interp="linr"  time="-9999999/1" value="0" leadInLength="0/1"  />
               <InterpolatingParam id="4109" interp="linr"  time="-9999999/1" value="0" leadInLength="0/1"  />
              </VectorParam>
              <InterpolatingParam id="4110" interp="linr"  time="-9999999/1" value="1" leadInLength="0/1"  name="opacity"/>
              <InterpolatingParam id="4111" interp="linr"  time="0/1" value="0" leadInLength="0/1"  name="cursorOpacity"/>
              <InterpolatingParam id="4112" interp="linr"  time="0/1" value="0" leadInLength="0/1"  name="cursorScale"/>
             </Parameters>
             <Attributes>
              <Attribute id="4113" value="" name="ident"/>
             </Attributes>
             <ExtraData>
              <Entry key="ZoomPanBin">
               <ZoomPanBin id="4114"  >
                <ZoomPanKeyframes>
                 <ZoomPanKeyframe id="4115" timeRangeEnd="-9999999/1" timeRangeDuration="0/1" interpolaterName=""  />
                </ZoomPanKeyframes>
               </ZoomPanBin>
              </Entry>
              <Entry key="CursorEffectBin">
               <CursorEffectBin id="4116"  >
                <CursorEffectKeyframes>
                </CursorEffectKeyframes>
               </CursorEffectBin>
              </Entry>
             </ExtraData>
            </ScreenVMFile>
            <MetaData>
             <entry key="AutoAppliedSmartFocus" val="False"/>
             <entry key="WinSubProjectDisplayName" val=""/>
            </MetaData>
           </UnifiedMedia>
           <UnifiedMedia id="4117"  >
            <AMFile id="4118" start="7315" duration="391" scalar="1/1" mediaStart="11890/1" mediaDuration="391/1" trackNumber="1" src="4" channelNumber="0,1" >
             <Parameters>
              <InterpolatingParam id="4119" interp="linr"  time="0/1" value="1" leadInLength="0/1"  name="volume"/>
              <Parameter id="4120"  name="captions"/>
             </Parameters>
             <Attributes>
              <Attribute id="4121" value="" name="ident"/>
              <Attribute id="4122" value="44100" name="sampleRate"/>
              <Attribute id="4123" value="16" name="bitDepth"/>
              <Attribute id="4124" value="1" name="gain"/>
              <Attribute id="4125" value="0" name="mixToMono"/>
             </Attributes>
            </AMFile>
            <ScreenVMFile id="4126" start="7315" duration="391" scalar="1/1" mediaStart="11890/1" mediaDuration="391/1" trackNumber="0" src="4" >
             <Transformer>
              <VectorParam id="4127"  name="translation">
               <InterpolatingParam id="4128" interp="linr"  time="-9999999/1" value="0" leadInLength="0/1"  />
               <InterpolatingParam id="4129" interp="linr"  time="-9999999/1" value="0" leadInLength="0/1"  />
               <InterpolatingParam id="4130" interp="linr"  time="-9999999/1" value="0" leadInLength="0/1"  />
              </VectorParam>
              <VectorParam id="4131"  name="rotation">
               <InterpolatingParam id="4132" interp="linr"  time="-9999999/1" value="0" leadInLength="0/1"  />
               <InterpolatingParam id="4133" interp="linr"  time="-9999999/1" value="0" leadInLength="0/1"  />
               <InterpolatingParam id="4134" interp="linr"  time="-9999999/1" value="0" leadInLength="0/1"  />
              </VectorParam>
              <VectorParam id="4135"  name="shear">
               <InterpolatingParam id="4136" interp="linr"  time="-9999999/1" value="0" leadInLength="0/1"  />
               <InterpolatingParam id="4137" interp="linr"  time="-9999999/1" value="0" leadInLength="0/1"  />
               <InterpolatingParam id="4138" interp="linr"  time="-9999999/1" value="0" leadInLength="0/1"  />
              </VectorParam>
              <VectorParam id="4139"  name="scale">
               <InterpolatingParam id="4140" interp="linr"  time="-9999999/1" value="1" leadInLength="0/1"  />
               <InterpolatingParam id="4141" interp="linr"  time="-9999999/1" value="1" leadInLength="0/1"  />
               <InterpolatingParam id="4142" interp="linr"  time="-9999999/1" value="1" leadInLength="0/1"  />
              </VectorParam>
              <VectorParam id="4143"  name="anchor">
               <InterpolatingParam id="4144" interp="linr"  time="0/1" value="0" leadInLength="0/1"  />
               <InterpolatingParam id="4145" interp="linr"  time="0/1" value="0" leadInLength="0/1"  />
               <InterpolatingParam id="4146" interp="linr"  time="0/1" value="0" leadInLength="0/1"  />
              </VectorParam>
             </Transformer>
             <Parameters>
              <VectorParam id="4147"  name="sourceCrop">
               <InterpolatingParam id="4148" interp="linr"  time="0/1" value="0" leadInLength="0/1"  />
               <InterpolatingParam id="4149" interp="linr"  time="0/1" value="0" leadInLength="0/1"  />
               <InterpolatingParam id="4150" interp="linr"  time="0/1" value="0" leadInLength="0/1"  />
               <InterpolatingParam id="4151" interp="linr"  time="0/1" value="0" leadInLength="0/1"  />
              </VectorParam>
              <VectorParam id="4152"  name="geometryCrop">
               <InterpolatingParam id="4153" interp="linr"  time="-9999999/1" value="0" leadInLength="0/1"  />
               <InterpolatingParam id="4154" interp="linr"  time="-9999999/1" value="0" leadInLength="0/1"  />
               <InterpolatingParam id="4155" interp="linr"  time="-9999999/1" value="0" leadInLength="0/1"  />
               <InterpolatingParam id="4156" interp="linr"  time="-9999999/1" value="0" leadInLength="0/1"  />
              </VectorParam>
              <InterpolatingParam id="4157" interp="linr"  time="-9999999/1" value="1" leadInLength="0/1"  name="opacity"/>
              <InterpolatingParam id="4158" interp="linr"  time="0/1" value="0" leadInLength="0/1"  name="cursorOpacity"/>
              <InterpolatingParam id="4159" interp="linr"  time="0/1" value="0" leadInLength="0/1"  name="cursorScale"/>
             </Parameters>
             <Attributes>
              <Attribute id="4160" value="" name="ident"/>
             </Attributes>
             <ExtraData>
              <Entry key="ZoomPanBin">
               <ZoomPanBin id="4161"  >
                <ZoomPanKeyframes>
                 <ZoomPanKeyframe id="4162" timeRangeEnd="-9999999/1" timeRangeDuration="0/1" interpolaterName=""  />
                </ZoomPanKeyframes>
               </ZoomPanBin>
              </Entry>
              <Entry key="CursorEffectBin">
               <CursorEffectBin id="4163"  >
                <CursorEffectKeyframes>
                </CursorEffectKeyframes>
               </CursorEffectBin>
              </Entry>
             </ExtraData>
            </ScreenVMFile>
            <MetaData>
             <entry key="AutoAppliedSmartFocus" val="False"/>
             <entry key="WinSubProjectDisplayName" val=""/>
            </MetaData>
           </UnifiedMedia>
           <UnifiedMedia id="4164"  >
            <AMFile id="4165" start="7706" duration="322" scalar="1/1" mediaStart="12927/1" mediaDuration="322/1" trackNumber="1" src="4" channelNumber="0,1" >
             <Parameters>
              <InterpolatingParam id="4166" interp="linr"  time="0/1" value="1" leadInLength="0/1"  name="volume"/>
              <Parameter id="4167"  name="captions"/>
             </Parameters>
             <Attributes>
              <Attribute id="4168" value="" name="ident"/>
              <Attribute id="4169" value="44100" name="sampleRate"/>
              <Attribute id="4170" value="16" name="bitDepth"/>
              <Attribute id="4171" value="1" name="gain"/>
              <Attribute id="4172" value="0" name="mixToMono"/>
             </Attributes>
            </AMFile>
            <ScreenVMFile id="4173" start="7706" duration="322" scalar="1/1" mediaStart="12927/1" mediaDuration="322/1" trackNumber="0" src="4" >
             <Transformer>
              <VectorParam id="4174"  name="translation">
               <InterpolatingParam id="4175" interp="linr"  time="-9999999/1" value="0" leadInLength="0/1"  />
               <InterpolatingParam id="4176" interp="linr"  time="-9999999/1" value="0" leadInLength="0/1"  />
               <InterpolatingParam id="4177" interp="linr"  time="-9999999/1" value="0" leadInLength="0/1"  />
              </VectorParam>
              <VectorParam id="4178"  name="rotation">
               <InterpolatingParam id="4179" interp="linr"  time="-9999999/1" value="0" leadInLength="0/1"  />
               <InterpolatingParam id="4180" interp="linr"  time="-9999999/1" value="0" leadInLength="0/1"  />
               <InterpolatingParam id="4181" interp="linr"  time="-9999999/1" value="0" leadInLength="0/1"  />
              </VectorParam>
              <VectorParam id="4182"  name="shear">
               <InterpolatingParam id="4183" interp="linr"  time="-9999999/1" value="0" leadInLength="0/1"  />
               <InterpolatingParam id="4184" interp="linr"  time="-9999999/1" value="0" leadInLength="0/1"  />
               <InterpolatingParam id="4185" interp="linr"  time="-9999999/1" value="0" leadInLength="0/1"  />
              </VectorParam>
              <VectorParam id="4186"  name="scale">
               <InterpolatingParam id="4187" interp="linr"  time="-9999999/1" value="1" leadInLength="0/1"  />
               <InterpolatingParam id="4188" interp="linr"  time="-9999999/1" value="1" leadInLength="0/1"  />
               <InterpolatingParam id="4189" interp="linr"  time="-9999999/1" value="1" leadInLength="0/1"  />
              </VectorParam>
              <VectorParam id="4190"  name="anchor">
               <InterpolatingParam id="4191" interp="linr"  time="0/1" value="0" leadInLength="0/1"  />
               <InterpolatingParam id="4192" interp="linr"  time="0/1" value="0" leadInLength="0/1"  />
               <InterpolatingParam id="4193" interp="linr"  time="0/1" value="0" leadInLength="0/1"  />
              </VectorParam>
             </Transformer>
             <Parameters>
              <VectorParam id="4194"  name="sourceCrop">
               <InterpolatingParam id="4195" interp="linr"  time="0/1" value="0" leadInLength="0/1"  />
               <InterpolatingParam id="4196" interp="linr"  time="0/1" value="0" leadInLength="0/1"  />
               <InterpolatingParam id="4197" interp="linr"  time="0/1" value="0" leadInLength="0/1"  />
               <InterpolatingParam id="4198" interp="linr"  time="0/1" value="0" leadInLength="0/1"  />
              </VectorParam>
              <VectorParam id="4199"  name="geometryCrop">
               <InterpolatingParam id="4200" interp="linr"  time="-9999999/1" value="0" leadInLength="0/1"  />
               <InterpolatingParam id="4201" interp="linr"  time="-9999999/1" value="0" leadInLength="0/1"  />
               <InterpolatingParam id="4202" interp="linr"  time="-9999999/1" value="0" leadInLength="0/1"  />
               <InterpolatingParam id="4203" interp="linr"  time="-9999999/1" value="0" leadInLength="0/1"  />
              </VectorParam>
              <InterpolatingParam id="4204" interp="linr"  time="-9999999/1" value="1" leadInLength="0/1"  name="opacity"/>
              <InterpolatingParam id="4205" interp="linr"  time="0/1" value="0" leadInLength="0/1"  name="cursorOpacity"/>
              <InterpolatingParam id="4206" interp="linr"  time="0/1" value="0" leadInLength="0/1"  name="cursorScale"/>
             </Parameters>
             <Attributes>
              <Attribute id="4207" value="" name="ident"/>
             </Attributes>
             <ExtraData>
              <Entry key="ZoomPanBin">
               <ZoomPanBin id="4208"  >
                <ZoomPanKeyframes>
                 <ZoomPanKeyframe id="4209" timeRangeEnd="-9999999/1" timeRangeDuration="0/1" interpolaterName=""  />
                </ZoomPanKeyframes>
               </ZoomPanBin>
              </Entry>
              <Entry key="CursorEffectBin">
               <CursorEffectBin id="4210"  >
                <CursorEffectKeyframes>
                </CursorEffectKeyframes>
               </CursorEffectBin>
              </Entry>
             </ExtraData>
            </ScreenVMFile>
            <MetaData>
             <entry key="AutoAppliedSmartFocus" val="False"/>
             <entry key="WinSubProjectDisplayName" val=""/>
            </MetaData>
           </UnifiedMedia>
           <UnifiedMedia id="4211"  >
            <AMFile id="4212" start="8028" duration="163" scalar="1/1" mediaStart="13328/1" mediaDuration="163/1" trackNumber="1" src="4" channelNumber="0,1" >
             <Parameters>
              <InterpolatingParam id="4213" interp="linr"  time="0/1" value="1" leadInLength="0/1"  name="volume"/>
              <Parameter id="4214"  name="captions"/>
             </Parameters>
             <Attributes>
              <Attribute id="4215" value="" name="ident"/>
              <Attribute id="4216" value="44100" name="sampleRate"/>
              <Attribute id="4217" value="16" name="bitDepth"/>
              <Attribute id="4218" value="1" name="gain"/>
              <Attribute id="4219" value="0" name="mixToMono"/>
             </Attributes>
            </AMFile>
            <ScreenVMFile id="4220" start="8028" duration="163" scalar="1/1" mediaStart="13328/1" mediaDuration="163/1" trackNumber="0" src="4" >
             <Transformer>
              <VectorParam id="4221"  name="translation">
               <InterpolatingParam id="4222" interp="linr"  time="-9999999/1" value="0" leadInLength="0/1"  />
               <InterpolatingParam id="4223" interp="linr"  time="-9999999/1" value="0" leadInLength="0/1"  />
               <InterpolatingParam id="4224" interp="linr"  time="-9999999/1" value="0" leadInLength="0/1"  />
              </VectorParam>
              <VectorParam id="4225"  name="rotation">
               <InterpolatingParam id="4226" interp="linr"  time="-9999999/1" value="0" leadInLength="0/1"  />
               <InterpolatingParam id="4227" interp="linr"  time="-9999999/1" value="0" leadInLength="0/1"  />
               <InterpolatingParam id="4228" interp="linr"  time="-9999999/1" value="0" leadInLength="0/1"  />
              </VectorParam>
              <VectorParam id="4229"  name="shear">
               <InterpolatingParam id="4230" interp="linr"  time="-9999999/1" value="0" leadInLength="0/1"  />
               <InterpolatingParam id="4231" interp="linr"  time="-9999999/1" value="0" leadInLength="0/1"  />
               <InterpolatingParam id="4232" interp="linr"  time="-9999999/1" value="0" leadInLength="0/1"  />
              </VectorParam>
              <VectorParam id="4233"  name="scale">
               <InterpolatingParam id="4234" interp="linr"  time="-9999999/1" value="1" leadInLength="0/1"  />
               <InterpolatingParam id="4235" interp="linr"  time="-9999999/1" value="1" leadInLength="0/1"  />
               <InterpolatingParam id="4236" interp="linr"  time="-9999999/1" value="1" leadInLength="0/1"  />
              </VectorParam>
              <VectorParam id="4237"  name="anchor">
               <InterpolatingParam id="4238" interp="linr"  time="0/1" value="0" leadInLength="0/1"  />
               <InterpolatingParam id="4239" interp="linr"  time="0/1" value="0" leadInLength="0/1"  />
               <InterpolatingParam id="4240" interp="linr"  time="0/1" value="0" leadInLength="0/1"  />
              </VectorParam>
             </Transformer>
             <Parameters>
              <VectorParam id="4241"  name="sourceCrop">
               <InterpolatingParam id="4242" interp="linr"  time="0/1" value="0" leadInLength="0/1"  />
               <InterpolatingParam id="4243" interp="linr"  time="0/1" value="0" leadInLength="0/1"  />
               <InterpolatingParam id="4244" interp="linr"  time="0/1" value="0" leadInLength="0/1"  />
               <InterpolatingParam id="4245" interp="linr"  time="0/1" value="0" leadInLength="0/1"  />
              </VectorParam>
              <VectorParam id="4246"  name="geometryCrop">
               <InterpolatingParam id="4247" interp="linr"  time="-9999999/1" value="0" leadInLength="0/1"  />
               <InterpolatingParam id="4248" interp="linr"  time="-9999999/1" value="0" leadInLength="0/1"  />
               <InterpolatingParam id="4249" interp="linr"  time="-9999999/1" value="0" leadInLength="0/1"  />
               <InterpolatingParam id="4250" interp="linr"  time="-9999999/1" value="0" leadInLength="0/1"  />
              </VectorParam>
              <InterpolatingParam id="4251" interp="linr"  time="-9999999/1" value="1" leadInLength="0/1"  name="opacity"/>
              <InterpolatingParam id="4252" interp="linr"  time="0/1" value="0" leadInLength="0/1"  name="cursorOpacity"/>
              <InterpolatingParam id="4253" interp="linr"  time="0/1" value="0" leadInLength="0/1"  name="cursorScale"/>
             </Parameters>
             <Attributes>
              <Attribute id="4254" value="" name="ident"/>
             </Attributes>
             <ExtraData>
              <Entry key="ZoomPanBin">
               <ZoomPanBin id="4255"  >
                <ZoomPanKeyframes>
                 <ZoomPanKeyframe id="4256" timeRangeEnd="-9999999/1" timeRangeDuration="0/1" interpolaterName=""  />
                </ZoomPanKeyframes>
               </ZoomPanBin>
              </Entry>
              <Entry key="CursorEffectBin">
               <CursorEffectBin id="4257"  >
                <CursorEffectKeyframes>
                </CursorEffectKeyframes>
               </CursorEffectBin>
              </Entry>
             </ExtraData>
            </ScreenVMFile>
            <MetaData>
             <entry key="AutoAppliedSmartFocus" val="False"/>
             <entry key="WinSubProjectDisplayName" val=""/>
            </MetaData>
           </UnifiedMedia>
           <UnifiedMedia id="4258"  >
            <AMFile id="4259" start="8191" duration="82" scalar="1/1" mediaStart="13803/1" mediaDuration="82/1" trackNumber="1" src="4" channelNumber="0,1" >
             <Parameters>
              <InterpolatingParam id="4260" interp="linr"  time="0/1" value="1" leadInLength="0/1"  name="volume"/>
              <Parameter id="4261"  name="captions"/>
             </Parameters>
             <Attributes>
              <Attribute id="4262" value="" name="ident"/>
              <Attribute id="4263" value="44100" name="sampleRate"/>
              <Attribute id="4264" value="16" name="bitDepth"/>
              <Attribute id="4265" value="1" name="gain"/>
              <Attribute id="4266" value="0" name="mixToMono"/>
             </Attributes>
            </AMFile>
            <ScreenVMFile id="4267" start="8191" duration="82" scalar="1/1" mediaStart="13803/1" mediaDuration="82/1" trackNumber="0" src="4" >
             <Transformer>
              <VectorParam id="4268"  name="translation">
               <InterpolatingParam id="4269" interp="linr"  time="-9999999/1" value="0" leadInLength="0/1"  />
               <InterpolatingParam id="4270" interp="linr"  time="-9999999/1" value="0" leadInLength="0/1"  />
               <InterpolatingParam id="4271" interp="linr"  time="-9999999/1" value="0" leadInLength="0/1"  />
              </VectorParam>
              <VectorParam id="4272"  name="rotation">
               <InterpolatingParam id="4273" interp="linr"  time="-9999999/1" value="0" leadInLength="0/1"  />
               <InterpolatingParam id="4274" interp="linr"  time="-9999999/1" value="0" leadInLength="0/1"  />
               <InterpolatingParam id="4275" interp="linr"  time="-9999999/1" value="0" leadInLength="0/1"  />
              </VectorParam>
              <VectorParam id="4276"  name="shear">
               <InterpolatingParam id="4277" interp="linr"  time="-9999999/1" value="0" leadInLength="0/1"  />
               <InterpolatingParam id="4278" interp="linr"  time="-9999999/1" value="0" leadInLength="0/1"  />
               <InterpolatingParam id="4279" interp="linr"  time="-9999999/1" value="0" leadInLength="0/1"  />
              </VectorParam>
              <VectorParam id="4280"  name="scale">
               <InterpolatingParam id="4281" interp="linr"  time="-9999999/1" value="1" leadInLength="0/1"  />
               <InterpolatingParam id="4282" interp="linr"  time="-9999999/1" value="1" leadInLength="0/1"  />
               <InterpolatingParam id="4283" interp="linr"  time="-9999999/1" value="1" leadInLength="0/1"  />
              </VectorParam>
              <VectorParam id="4284"  name="anchor">
               <InterpolatingParam id="4285" interp="linr"  time="0/1" value="0" leadInLength="0/1"  />
               <InterpolatingParam id="4286" interp="linr"  time="0/1" value="0" leadInLength="0/1"  />
               <InterpolatingParam id="4287" interp="linr"  time="0/1" value="0" leadInLength="0/1"  />
              </VectorParam>
             </Transformer>
             <Parameters>
              <VectorParam id="4288"  name="sourceCrop">
               <InterpolatingParam id="4289" interp="linr"  time="0/1" value="0" leadInLength="0/1"  />
               <InterpolatingParam id="4290" interp="linr"  time="0/1" value="0" leadInLength="0/1"  />
               <InterpolatingParam id="4291" interp="linr"  time="0/1" value="0" leadInLength="0/1"  />
               <InterpolatingParam id="4292" interp="linr"  time="0/1" value="0" leadInLength="0/1"  />
              </VectorParam>
              <VectorParam id="4293"  name="geometryCrop">
               <InterpolatingParam id="4294" interp="linr"  time="-9999999/1" value="0" leadInLength="0/1"  />
               <InterpolatingParam id="4295" interp="linr"  time="-9999999/1" value="0" leadInLength="0/1"  />
               <InterpolatingParam id="4296" interp="linr"  time="-9999999/1" value="0" leadInLength="0/1"  />
               <InterpolatingParam id="4297" interp="linr"  time="-9999999/1" value="0" leadInLength="0/1"  />
              </VectorParam>
              <InterpolatingParam id="4298" interp="linr"  time="-9999999/1" value="1" leadInLength="0/1"  name="opacity"/>
              <InterpolatingParam id="4299" interp="linr"  time="0/1" value="0" leadInLength="0/1"  name="cursorOpacity"/>
              <InterpolatingParam id="4300" interp="linr"  time="0/1" value="0" leadInLength="0/1"  name="cursorScale"/>
             </Parameters>
             <Attributes>
              <Attribute id="4301" value="" name="ident"/>
             </Attributes>
             <ExtraData>
              <Entry key="ZoomPanBin">
               <ZoomPanBin id="4302"  >
                <ZoomPanKeyframes>
                 <ZoomPanKeyframe id="4303" timeRangeEnd="-9999999/1" timeRangeDuration="0/1" interpolaterName=""  />
                </ZoomPanKeyframes>
               </ZoomPanBin>
              </Entry>
              <Entry key="CursorEffectBin">
               <CursorEffectBin id="4304"  >
                <CursorEffectKeyframes>
                </CursorEffectKeyframes>
               </CursorEffectBin>
              </Entry>
             </ExtraData>
            </ScreenVMFile>
            <MetaData>
             <entry key="AutoAppliedSmartFocus" val="False"/>
             <entry key="WinSubProjectDisplayName" val=""/>
            </MetaData>
           </UnifiedMedia>
           <UnifiedMedia id="4305"  >
            <AMFile id="4306" start="8273" duration="38" scalar="1/1" mediaStart="13891/1" mediaDuration="38/1" trackNumber="1" src="4" channelNumber="0,1" >
             <Parameters>
              <InterpolatingParam id="4307" interp="linr"  time="0/1" value="1" leadInLength="0/1"  name="volume"/>
              <Parameter id="4308"  name="captions"/>
             </Parameters>
             <Attributes>
              <Attribute id="4309" value="" name="ident"/>
              <Attribute id="4310" value="44100" name="sampleRate"/>
              <Attribute id="4311" value="16" name="bitDepth"/>
              <Attribute id="4312" value="1" name="gain"/>
              <Attribute id="4313" value="0" name="mixToMono"/>
             </Attributes>
            </AMFile>
            <ScreenVMFile id="4314" start="8273" duration="38" scalar="1/1" mediaStart="13891/1" mediaDuration="38/1" trackNumber="0" src="4" >
             <Transformer>
              <VectorParam id="4315"  name="translation">
               <InterpolatingParam id="4316" interp="linr"  time="-9999999/1" value="0" leadInLength="0/1"  />
               <InterpolatingParam id="4317" interp="linr"  time="-9999999/1" value="0" leadInLength="0/1"  />
               <InterpolatingParam id="4318" interp="linr"  time="-9999999/1" value="0" leadInLength="0/1"  />
              </VectorParam>
              <VectorParam id="4319"  name="rotation">
               <InterpolatingParam id="4320" interp="linr"  time="-9999999/1" value="0" leadInLength="0/1"  />
               <InterpolatingParam id="4321" interp="linr"  time="-9999999/1" value="0" leadInLength="0/1"  />
               <InterpolatingParam id="4322" interp="linr"  time="-9999999/1" value="0" leadInLength="0/1"  />
              </VectorParam>
              <VectorParam id="4323"  name="shear">
               <InterpolatingParam id="4324" interp="linr"  time="-9999999/1" value="0" leadInLength="0/1"  />
               <InterpolatingParam id="4325" interp="linr"  time="-9999999/1" value="0" leadInLength="0/1"  />
               <InterpolatingParam id="4326" interp="linr"  time="-9999999/1" value="0" leadInLength="0/1"  />
              </VectorParam>
              <VectorParam id="4327"  name="scale">
               <InterpolatingParam id="4328" interp="linr"  time="-9999999/1" value="1" leadInLength="0/1"  />
               <InterpolatingParam id="4329" interp="linr"  time="-9999999/1" value="1" leadInLength="0/1"  />
               <InterpolatingParam id="4330" interp="linr"  time="-9999999/1" value="1" leadInLength="0/1"  />
              </VectorParam>
              <VectorParam id="4331"  name="anchor">
               <InterpolatingParam id="4332" interp="linr"  time="0/1" value="0" leadInLength="0/1"  />
               <InterpolatingParam id="4333" interp="linr"  time="0/1" value="0" leadInLength="0/1"  />
               <InterpolatingParam id="4334" interp="linr"  time="0/1" value="0" leadInLength="0/1"  />
              </VectorParam>
             </Transformer>
             <Parameters>
              <VectorParam id="4335"  name="sourceCrop">
               <InterpolatingParam id="4336" interp="linr"  time="0/1" value="0" leadInLength="0/1"  />
               <InterpolatingParam id="4337" interp="linr"  time="0/1" value="0" leadInLength="0/1"  />
               <InterpolatingParam id="4338" interp="linr"  time="0/1" value="0" leadInLength="0/1"  />
               <InterpolatingParam id="4339" interp="linr"  time="0/1" value="0" leadInLength="0/1"  />
              </VectorParam>
              <VectorParam id="4340"  name="geometryCrop">
               <InterpolatingParam id="4341" interp="linr"  time="-9999999/1" value="0" leadInLength="0/1"  />
               <InterpolatingParam id="4342" interp="linr"  time="-9999999/1" value="0" leadInLength="0/1"  />
               <InterpolatingParam id="4343" interp="linr"  time="-9999999/1" value="0" leadInLength="0/1"  />
               <InterpolatingParam id="4344" interp="linr"  time="-9999999/1" value="0" leadInLength="0/1"  />
              </VectorParam>
              <InterpolatingParam id="4345" interp="linr"  time="-9999999/1" value="1" leadInLength="0/1"  name="opacity"/>
              <InterpolatingParam id="4346" interp="linr"  time="0/1" value="0" leadInLength="0/1"  name="cursorOpacity"/>
              <InterpolatingParam id="4347" interp="linr"  time="0/1" value="0" leadInLength="0/1"  name="cursorScale"/>
             </Parameters>
             <Attributes>
              <Attribute id="4348" value="" name="ident"/>
             </Attributes>
             <ExtraData>
              <Entry key="ZoomPanBin">
               <ZoomPanBin id="4349"  >
                <ZoomPanKeyframes>
                 <ZoomPanKeyframe id="4350" timeRangeEnd="-9999999/1" timeRangeDuration="0/1" interpolaterName=""  />
                </ZoomPanKeyframes>
               </ZoomPanBin>
              </Entry>
              <Entry key="CursorEffectBin">
               <CursorEffectBin id="4351"  >
                <CursorEffectKeyframes>
                </CursorEffectKeyframes>
               </CursorEffectBin>
              </Entry>
             </ExtraData>
            </ScreenVMFile>
            <MetaData>
             <entry key="AutoAppliedSmartFocus" val="False"/>
             <entry key="WinSubProjectDisplayName" val=""/>
            </MetaData>
           </UnifiedMedia>
           <UnifiedMedia id="4352"  >
            <AMFile id="4353" start="8311" duration="274" scalar="1/1" mediaStart="13943/1" mediaDuration="274/1" trackNumber="1" src="4" channelNumber="0,1" >
             <Parameters>
              <InterpolatingParam id="4354" interp="linr"  time="0/1" value="1" leadInLength="0/1"  name="volume"/>
              <Parameter id="4355"  name="captions"/>
             </Parameters>
             <Attributes>
              <Attribute id="4356" value="" name="ident"/>
              <Attribute id="4357" value="44100" name="sampleRate"/>
              <Attribute id="4358" value="16" name="bitDepth"/>
              <Attribute id="4359" value="1" name="gain"/>
              <Attribute id="4360" value="0" name="mixToMono"/>
             </Attributes>
            </AMFile>
            <ScreenVMFile id="4361" start="8311" duration="274" scalar="1/1" mediaStart="13943/1" mediaDuration="274/1" trackNumber="0" src="4" >
             <Transformer>
              <VectorParam id="4362"  name="translation">
               <InterpolatingParam id="4363" interp="linr"  time="-9999999/1" value="0" leadInLength="0/1"  />
               <InterpolatingParam id="4364" interp="linr"  time="-9999999/1" value="0" leadInLength="0/1"  />
               <InterpolatingParam id="4365" interp="linr"  time="-9999999/1" value="0" leadInLength="0/1"  />
              </VectorParam>
              <VectorParam id="4366"  name="rotation">
               <InterpolatingParam id="4367" interp="linr"  time="-9999999/1" value="0" leadInLength="0/1"  />
               <InterpolatingParam id="4368" interp="linr"  time="-9999999/1" value="0" leadInLength="0/1"  />
               <InterpolatingParam id="4369" interp="linr"  time="-9999999/1" value="0" leadInLength="0/1"  />
              </VectorParam>
              <VectorParam id="4370"  name="shear">
               <InterpolatingParam id="4371" interp="linr"  time="-9999999/1" value="0" leadInLength="0/1"  />
               <InterpolatingParam id="4372" interp="linr"  time="-9999999/1" value="0" leadInLength="0/1"  />
               <InterpolatingParam id="4373" interp="linr"  time="-9999999/1" value="0" leadInLength="0/1"  />
              </VectorParam>
              <VectorParam id="4374"  name="scale">
               <InterpolatingParam id="4375" interp="linr"  time="-9999999/1" value="1" leadInLength="0/1"  />
               <InterpolatingParam id="4376" interp="linr"  time="-9999999/1" value="1" leadInLength="0/1"  />
               <InterpolatingParam id="4377" interp="linr"  time="-9999999/1" value="1" leadInLength="0/1"  />
              </VectorParam>
              <VectorParam id="4378"  name="anchor">
               <InterpolatingParam id="4379" interp="linr"  time="0/1" value="0" leadInLength="0/1"  />
               <InterpolatingParam id="4380" interp="linr"  time="0/1" value="0" leadInLength="0/1"  />
               <InterpolatingParam id="4381" interp="linr"  time="0/1" value="0" leadInLength="0/1"  />
              </VectorParam>
             </Transformer>
             <Parameters>
              <VectorParam id="4382"  name="sourceCrop">
               <InterpolatingParam id="4383" interp="linr"  time="0/1" value="0" leadInLength="0/1"  />
               <InterpolatingParam id="4384" interp="linr"  time="0/1" value="0" leadInLength="0/1"  />
               <InterpolatingParam id="4385" interp="linr"  time="0/1" value="0" leadInLength="0/1"  />
               <InterpolatingParam id="4386" interp="linr"  time="0/1" value="0" leadInLength="0/1"  />
              </VectorParam>
              <VectorParam id="4387"  name="geometryCrop">
               <InterpolatingParam id="4388" interp="linr"  time="-9999999/1" value="0" leadInLength="0/1"  />
               <InterpolatingParam id="4389" interp="linr"  time="-9999999/1" value="0" leadInLength="0/1"  />
               <InterpolatingParam id="4390" interp="linr"  time="-9999999/1" value="0" leadInLength="0/1"  />
               <InterpolatingParam id="4391" interp="linr"  time="-9999999/1" value="0" leadInLength="0/1"  />
              </VectorParam>
              <InterpolatingParam id="4392" interp="linr"  time="-9999999/1" value="1" leadInLength="0/1"  name="opacity"/>
              <InterpolatingParam id="4393" interp="linr"  time="0/1" value="0" leadInLength="0/1"  name="cursorOpacity"/>
              <InterpolatingParam id="4394" interp="linr"  time="0/1" value="0" leadInLength="0/1"  name="cursorScale"/>
             </Parameters>
             <Attributes>
              <Attribute id="4395" value="" name="ident"/>
             </Attributes>
             <ExtraData>
              <Entry key="ZoomPanBin">
               <ZoomPanBin id="4396"  >
                <ZoomPanKeyframes>
                 <ZoomPanKeyframe id="4397" timeRangeEnd="-9999999/1" timeRangeDuration="0/1" interpolaterName=""  />
                </ZoomPanKeyframes>
               </ZoomPanBin>
              </Entry>
              <Entry key="CursorEffectBin">
               <CursorEffectBin id="4398"  >
                <CursorEffectKeyframes>
                </CursorEffectKeyframes>
               </CursorEffectBin>
              </Entry>
             </ExtraData>
            </ScreenVMFile>
            <MetaData>
             <entry key="AutoAppliedSmartFocus" val="False"/>
             <entry key="WinSubProjectDisplayName" val=""/>
            </MetaData>
           </UnifiedMedia>
           <UnifiedMedia id="4399"  >
            <AMFile id="4400" start="8585" duration="79" scalar="1/1" mediaStart="14230/1" mediaDuration="79/1" trackNumber="1" src="4" channelNumber="0,1" >
             <Parameters>
              <InterpolatingParam id="4401" interp="linr"  time="0/1" value="1" leadInLength="0/1"  name="volume"/>
              <Parameter id="4402"  name="captions"/>
             </Parameters>
             <Attributes>
              <Attribute id="4403" value="" name="ident"/>
              <Attribute id="4404" value="44100" name="sampleRate"/>
              <Attribute id="4405" value="16" name="bitDepth"/>
              <Attribute id="4406" value="1" name="gain"/>
              <Attribute id="4407" value="0" name="mixToMono"/>
             </Attributes>
            </AMFile>
            <ScreenVMFile id="4408" start="8585" duration="79" scalar="1/1" mediaStart="14230/1" mediaDuration="79/1" trackNumber="0" src="4" >
             <Transformer>
              <VectorParam id="4409"  name="translation">
               <InterpolatingParam id="4410" interp="linr"  time="-9999999/1" value="0" leadInLength="0/1"  />
               <InterpolatingParam id="4411" interp="linr"  time="-9999999/1" value="0" leadInLength="0/1"  />
               <InterpolatingParam id="4412" interp="linr"  time="-9999999/1" value="0" leadInLength="0/1"  />
              </VectorParam>
              <VectorParam id="4413"  name="rotation">
               <InterpolatingParam id="4414" interp="linr"  time="-9999999/1" value="0" leadInLength="0/1"  />
               <InterpolatingParam id="4415" interp="linr"  time="-9999999/1" value="0" leadInLength="0/1"  />
               <InterpolatingParam id="4416" interp="linr"  time="-9999999/1" value="0" leadInLength="0/1"  />
              </VectorParam>
              <VectorParam id="4417"  name="shear">
               <InterpolatingParam id="4418" interp="linr"  time="-9999999/1" value="0" leadInLength="0/1"  />
               <InterpolatingParam id="4419" interp="linr"  time="-9999999/1" value="0" leadInLength="0/1"  />
               <InterpolatingParam id="4420" interp="linr"  time="-9999999/1" value="0" leadInLength="0/1"  />
              </VectorParam>
              <VectorParam id="4421"  name="scale">
               <InterpolatingParam id="4422" interp="linr"  time="-9999999/1" value="1" leadInLength="0/1"  />
               <InterpolatingParam id="4423" interp="linr"  time="-9999999/1" value="1" leadInLength="0/1"  />
               <InterpolatingParam id="4424" interp="linr"  time="-9999999/1" value="1" leadInLength="0/1"  />
              </VectorParam>
              <VectorParam id="4425"  name="anchor">
               <InterpolatingParam id="4426" interp="linr"  time="0/1" value="0" leadInLength="0/1"  />
               <InterpolatingParam id="4427" interp="linr"  time="0/1" value="0" leadInLength="0/1"  />
               <InterpolatingParam id="4428" interp="linr"  time="0/1" value="0" leadInLength="0/1"  />
              </VectorParam>
             </Transformer>
             <Parameters>
              <VectorParam id="4429"  name="sourceCrop">
               <InterpolatingParam id="4430" interp="linr"  time="0/1" value="0" leadInLength="0/1"  />
               <InterpolatingParam id="4431" interp="linr"  time="0/1" value="0" leadInLength="0/1"  />
               <InterpolatingParam id="4432" interp="linr"  time="0/1" value="0" leadInLength="0/1"  />
               <InterpolatingParam id="4433" interp="linr"  time="0/1" value="0" leadInLength="0/1"  />
              </VectorParam>
              <VectorParam id="4434"  name="geometryCrop">
               <InterpolatingParam id="4435" interp="linr"  time="-9999999/1" value="0" leadInLength="0/1"  />
               <InterpolatingParam id="4436" interp="linr"  time="-9999999/1" value="0" leadInLength="0/1"  />
               <InterpolatingParam id="4437" interp="linr"  time="-9999999/1" value="0" leadInLength="0/1"  />
               <InterpolatingParam id="4438" interp="linr"  time="-9999999/1" value="0" leadInLength="0/1"  />
              </VectorParam>
              <InterpolatingParam id="4439" interp="linr"  time="-9999999/1" value="1" leadInLength="0/1"  name="opacity"/>
              <InterpolatingParam id="4440" interp="linr"  time="0/1" value="0" leadInLength="0/1"  name="cursorOpacity"/>
              <InterpolatingParam id="4441" interp="linr"  time="0/1" value="0" leadInLength="0/1"  name="cursorScale"/>
             </Parameters>
             <Attributes>
              <Attribute id="4442" value="" name="ident"/>
             </Attributes>
             <ExtraData>
              <Entry key="ZoomPanBin">
               <ZoomPanBin id="4443"  >
                <ZoomPanKeyframes>
                 <ZoomPanKeyframe id="4444" timeRangeEnd="-9999999/1" timeRangeDuration="0/1" interpolaterName=""  />
                </ZoomPanKeyframes>
               </ZoomPanBin>
              </Entry>
              <Entry key="CursorEffectBin">
               <CursorEffectBin id="4445"  >
                <CursorEffectKeyframes>
                </CursorEffectKeyframes>
               </CursorEffectBin>
              </Entry>
             </ExtraData>
            </ScreenVMFile>
            <MetaData>
             <entry key="AutoAppliedSmartFocus" val="False"/>
             <entry key="WinSubProjectDisplayName" val=""/>
            </MetaData>
           </UnifiedMedia>
           <UnifiedMedia id="4446"  >
            <AMFile id="4447" start="8664" duration="304" scalar="1/1" mediaStart="15647/1" mediaDuration="304/1" trackNumber="1" src="4" channelNumber="0,1" >
             <Parameters>
              <InterpolatingParam id="4448" interp="linr"  time="0/1" value="1" leadInLength="0/1"  name="volume"/>
              <Parameter id="4449"  name="captions"/>
             </Parameters>
             <Attributes>
              <Attribute id="4450" value="" name="ident"/>
              <Attribute id="4451" value="44100" name="sampleRate"/>
              <Attribute id="4452" value="16" name="bitDepth"/>
              <Attribute id="4453" value="1" name="gain"/>
              <Attribute id="4454" value="0" name="mixToMono"/>
             </Attributes>
            </AMFile>
            <ScreenVMFile id="4455" start="8664" duration="304" scalar="1/1" mediaStart="15647/1" mediaDuration="304/1" trackNumber="0" src="4" >
             <Transformer>
              <VectorParam id="4456"  name="translation">
               <InterpolatingParam id="4457" interp="linr"  time="-9999999/1" value="0" leadInLength="0/1"  />
               <InterpolatingParam id="4458" interp="linr"  time="-9999999/1" value="0" leadInLength="0/1"  />
               <InterpolatingParam id="4459" interp="linr"  time="-9999999/1" value="0" leadInLength="0/1"  />
              </VectorParam>
              <VectorParam id="4460"  name="rotation">
               <InterpolatingParam id="4461" interp="linr"  time="-9999999/1" value="0" leadInLength="0/1"  />
               <InterpolatingParam id="4462" interp="linr"  time="-9999999/1" value="0" leadInLength="0/1"  />
               <InterpolatingParam id="4463" interp="linr"  time="-9999999/1" value="0" leadInLength="0/1"  />
              </VectorParam>
              <VectorParam id="4464"  name="shear">
               <InterpolatingParam id="4465" interp="linr"  time="-9999999/1" value="0" leadInLength="0/1"  />
               <InterpolatingParam id="4466" interp="linr"  time="-9999999/1" value="0" leadInLength="0/1"  />
               <InterpolatingParam id="4467" interp="linr"  time="-9999999/1" value="0" leadInLength="0/1"  />
              </VectorParam>
              <VectorParam id="4468"  name="scale">
               <InterpolatingParam id="4469" interp="linr"  time="-9999999/1" value="1" leadInLength="0/1"  />
               <InterpolatingParam id="4470" interp="linr"  time="-9999999/1" value="1" leadInLength="0/1"  />
               <InterpolatingParam id="4471" interp="linr"  time="-9999999/1" value="1" leadInLength="0/1"  />
              </VectorParam>
              <VectorParam id="4472"  name="anchor">
               <InterpolatingParam id="4473" interp="linr"  time="0/1" value="0" leadInLength="0/1"  />
               <InterpolatingParam id="4474" interp="linr"  time="0/1" value="0" leadInLength="0/1"  />
               <InterpolatingParam id="4475" interp="linr"  time="0/1" value="0" leadInLength="0/1"  />
              </VectorParam>
             </Transformer>
             <Parameters>
              <VectorParam id="4476"  name="sourceCrop">
               <InterpolatingParam id="4477" interp="linr"  time="0/1" value="0" leadInLength="0/1"  />
               <InterpolatingParam id="4478" interp="linr"  time="0/1" value="0" leadInLength="0/1"  />
               <InterpolatingParam id="4479" interp="linr"  time="0/1" value="0" leadInLength="0/1"  />
               <InterpolatingParam id="4480" interp="linr"  time="0/1" value="0" leadInLength="0/1"  />
              </VectorParam>
              <VectorParam id="4481"  name="geometryCrop">
               <InterpolatingParam id="4482" interp="linr"  time="-9999999/1" value="0" leadInLength="0/1"  />
               <InterpolatingParam id="4483" interp="linr"  time="-9999999/1" value="0" leadInLength="0/1"  />
               <InterpolatingParam id="4484" interp="linr"  time="-9999999/1" value="0" leadInLength="0/1"  />
               <InterpolatingParam id="4485" interp="linr"  time="-9999999/1" value="0" leadInLength="0/1"  />
              </VectorParam>
              <InterpolatingParam id="4486" interp="linr"  time="-9999999/1" value="1" leadInLength="0/1"  name="opacity"/>
              <InterpolatingParam id="4487" interp="linr"  time="0/1" value="0" leadInLength="0/1"  name="cursorOpacity"/>
              <InterpolatingParam id="4488" interp="linr"  time="0/1" value="0" leadInLength="0/1"  name="cursorScale"/>
             </Parameters>
             <Attributes>
              <Attribute id="4489" value="" name="ident"/>
             </Attributes>
             <ExtraData>
              <Entry key="ZoomPanBin">
               <ZoomPanBin id="4490"  >
                <ZoomPanKeyframes>
                 <ZoomPanKeyframe id="4491" timeRangeEnd="-9999999/1" timeRangeDuration="0/1" interpolaterName=""  />
                </ZoomPanKeyframes>
               </ZoomPanBin>
              </Entry>
              <Entry key="CursorEffectBin">
               <CursorEffectBin id="4492"  >
                <CursorEffectKeyframes>
                </CursorEffectKeyframes>
               </CursorEffectBin>
              </Entry>
             </ExtraData>
            </ScreenVMFile>
            <MetaData>
             <entry key="AutoAppliedSmartFocus" val="False"/>
             <entry key="WinSubProjectDisplayName" val=""/>
            </MetaData>
           </UnifiedMedia>
           <UnifiedMedia id="4493"  >
            <AMFile id="4494" start="8968" duration="48" scalar="1/1" mediaStart="15965/1" mediaDuration="48/1" trackNumber="1" src="4" channelNumber="0,1" >
             <Parameters>
              <InterpolatingParam id="4495" interp="linr"  time="0/1" value="1" leadInLength="0/1"  name="volume"/>
              <Parameter id="4496"  name="captions"/>
             </Parameters>
             <Attributes>
              <Attribute id="4497" value="" name="ident"/>
              <Attribute id="4498" value="44100" name="sampleRate"/>
              <Attribute id="4499" value="16" name="bitDepth"/>
              <Attribute id="4500" value="1" name="gain"/>
              <Attribute id="4501" value="0" name="mixToMono"/>
             </Attributes>
            </AMFile>
            <ScreenVMFile id="4502" start="8968" duration="48" scalar="1/1" mediaStart="15965/1" mediaDuration="48/1" trackNumber="0" src="4" >
             <Transformer>
              <VectorParam id="4503"  name="translation">
               <InterpolatingParam id="4504" interp="linr"  time="-9999999/1" value="0" leadInLength="0/1"  />
               <InterpolatingParam id="4505" interp="linr"  time="-9999999/1" value="0" leadInLength="0/1"  />
               <InterpolatingParam id="4506" interp="linr"  time="-9999999/1" value="0" leadInLength="0/1"  />
              </VectorParam>
              <VectorParam id="4507"  name="rotation">
               <InterpolatingParam id="4508" interp="linr"  time="-9999999/1" value="0" leadInLength="0/1"  />
               <InterpolatingParam id="4509" interp="linr"  time="-9999999/1" value="0" leadInLength="0/1"  />
               <InterpolatingParam id="4510" interp="linr"  time="-9999999/1" value="0" leadInLength="0/1"  />
              </VectorParam>
              <VectorParam id="4511"  name="shear">
               <InterpolatingParam id="4512" interp="linr"  time="-9999999/1" value="0" leadInLength="0/1"  />
               <InterpolatingParam id="4513" interp="linr"  time="-9999999/1" value="0" leadInLength="0/1"  />
               <InterpolatingParam id="4514" interp="linr"  time="-9999999/1" value="0" leadInLength="0/1"  />
              </VectorParam>
              <VectorParam id="4515"  name="scale">
               <InterpolatingParam id="4516" interp="linr"  time="-9999999/1" value="1" leadInLength="0/1"  />
               <InterpolatingParam id="4517" interp="linr"  time="-9999999/1" value="1" leadInLength="0/1"  />
               <InterpolatingParam id="4518" interp="linr"  time="-9999999/1" value="1" leadInLength="0/1"  />
              </VectorParam>
              <VectorParam id="4519"  name="anchor">
               <InterpolatingParam id="4520" interp="linr"  time="0/1" value="0" leadInLength="0/1"  />
               <InterpolatingParam id="4521" interp="linr"  time="0/1" value="0" leadInLength="0/1"  />
               <InterpolatingParam id="4522" interp="linr"  time="0/1" value="0" leadInLength="0/1"  />
              </VectorParam>
             </Transformer>
             <Parameters>
              <VectorParam id="4523"  name="sourceCrop">
               <InterpolatingParam id="4524" interp="linr"  time="0/1" value="0" leadInLength="0/1"  />
               <InterpolatingParam id="4525" interp="linr"  time="0/1" value="0" leadInLength="0/1"  />
               <InterpolatingParam id="4526" interp="linr"  time="0/1" value="0" leadInLength="0/1"  />
               <InterpolatingParam id="4527" interp="linr"  time="0/1" value="0" leadInLength="0/1"  />
              </VectorParam>
              <VectorParam id="4528"  name="geometryCrop">
               <InterpolatingParam id="4529" interp="linr"  time="-9999999/1" value="0" leadInLength="0/1"  />
               <InterpolatingParam id="4530" interp="linr"  time="-9999999/1" value="0" leadInLength="0/1"  />
               <InterpolatingParam id="4531" interp="linr"  time="-9999999/1" value="0" leadInLength="0/1"  />
               <InterpolatingParam id="4532" interp="linr"  time="-9999999/1" value="0" leadInLength="0/1"  />
              </VectorParam>
              <InterpolatingParam id="4533" interp="linr"  time="-9999999/1" value="1" leadInLength="0/1"  name="opacity"/>
              <InterpolatingParam id="4534" interp="linr"  time="0/1" value="0" leadInLength="0/1"  name="cursorOpacity"/>
              <InterpolatingParam id="4535" interp="linr"  time="0/1" value="0" leadInLength="0/1"  name="cursorScale"/>
             </Parameters>
             <Attributes>
              <Attribute id="4536" value="" name="ident"/>
             </Attributes>
             <ExtraData>
              <Entry key="ZoomPanBin">
               <ZoomPanBin id="4537"  >
                <ZoomPanKeyframes>
                 <ZoomPanKeyframe id="4538" timeRangeEnd="-9999999/1" timeRangeDuration="0/1" interpolaterName=""  />
                </ZoomPanKeyframes>
               </ZoomPanBin>
              </Entry>
              <Entry key="CursorEffectBin">
               <CursorEffectBin id="4539"  >
                <CursorEffectKeyframes>
                </CursorEffectKeyframes>
               </CursorEffectBin>
              </Entry>
             </ExtraData>
            </ScreenVMFile>
            <MetaData>
             <entry key="AutoAppliedSmartFocus" val="False"/>
             <entry key="WinSubProjectDisplayName" val=""/>
            </MetaData>
           </UnifiedMedia>
           <UnifiedMedia id="4540"  >
            <AMFile id="4541" start="9016" duration="70" scalar="1/1" mediaStart="16022/1" mediaDuration="70/1" trackNumber="1" src="4" channelNumber="0,1" >
             <Parameters>
              <InterpolatingParam id="4542" interp="linr"  time="0/1" value="1" leadInLength="0/1"  name="volume"/>
              <Parameter id="4543"  name="captions"/>
             </Parameters>
             <Attributes>
              <Attribute id="4544" value="" name="ident"/>
              <Attribute id="4545" value="44100" name="sampleRate"/>
              <Attribute id="4546" value="16" name="bitDepth"/>
              <Attribute id="4547" value="1" name="gain"/>
              <Attribute id="4548" value="0" name="mixToMono"/>
             </Attributes>
            </AMFile>
            <ScreenVMFile id="4549" start="9016" duration="70" scalar="1/1" mediaStart="16022/1" mediaDuration="70/1" trackNumber="0" src="4" >
             <Transformer>
              <VectorParam id="4550"  name="translation">
               <InterpolatingParam id="4551" interp="linr"  time="-9999999/1" value="0" leadInLength="0/1"  />
               <InterpolatingParam id="4552" interp="linr"  time="-9999999/1" value="0" leadInLength="0/1"  />
               <InterpolatingParam id="4553" interp="linr"  time="-9999999/1" value="0" leadInLength="0/1"  />
              </VectorParam>
              <VectorParam id="4554"  name="rotation">
               <InterpolatingParam id="4555" interp="linr"  time="-9999999/1" value="0" leadInLength="0/1"  />
               <InterpolatingParam id="4556" interp="linr"  time="-9999999/1" value="0" leadInLength="0/1"  />
               <InterpolatingParam id="4557" interp="linr"  time="-9999999/1" value="0" leadInLength="0/1"  />
              </VectorParam>
              <VectorParam id="4558"  name="shear">
               <InterpolatingParam id="4559" interp="linr"  time="-9999999/1" value="0" leadInLength="0/1"  />
               <InterpolatingParam id="4560" interp="linr"  time="-9999999/1" value="0" leadInLength="0/1"  />
               <InterpolatingParam id="4561" interp="linr"  time="-9999999/1" value="0" leadInLength="0/1"  />
              </VectorParam>
              <VectorParam id="4562"  name="scale">
               <InterpolatingParam id="4563" interp="linr"  time="-9999999/1" value="1" leadInLength="0/1"  />
               <InterpolatingParam id="4564" interp="linr"  time="-9999999/1" value="1" leadInLength="0/1"  />
               <InterpolatingParam id="4565" interp="linr"  time="-9999999/1" value="1" leadInLength="0/1"  />
              </VectorParam>
              <VectorParam id="4566"  name="anchor">
               <InterpolatingParam id="4567" interp="linr"  time="0/1" value="0" leadInLength="0/1"  />
               <InterpolatingParam id="4568" interp="linr"  time="0/1" value="0" leadInLength="0/1"  />
               <InterpolatingParam id="4569" interp="linr"  time="0/1" value="0" leadInLength="0/1"  />
              </VectorParam>
             </Transformer>
             <Parameters>
              <VectorParam id="4570"  name="sourceCrop">
               <InterpolatingParam id="4571" interp="linr"  time="0/1" value="0" leadInLength="0/1"  />
               <InterpolatingParam id="4572" interp="linr"  time="0/1" value="0" leadInLength="0/1"  />
               <InterpolatingParam id="4573" interp="linr"  time="0/1" value="0" leadInLength="0/1"  />
               <InterpolatingParam id="4574" interp="linr"  time="0/1" value="0" leadInLength="0/1"  />
              </VectorParam>
              <VectorParam id="4575"  name="geometryCrop">
               <InterpolatingParam id="4576" interp="linr"  time="-9999999/1" value="0" leadInLength="0/1"  />
               <InterpolatingParam id="4577" interp="linr"  time="-9999999/1" value="0" leadInLength="0/1"  />
               <InterpolatingParam id="4578" interp="linr"  time="-9999999/1" value="0" leadInLength="0/1"  />
               <InterpolatingParam id="4579" interp="linr"  time="-9999999/1" value="0" leadInLength="0/1"  />
              </VectorParam>
              <InterpolatingParam id="4580" interp="linr"  time="-9999999/1" value="1" leadInLength="0/1"  name="opacity"/>
              <InterpolatingParam id="4581" interp="linr"  time="0/1" value="0" leadInLength="0/1"  name="cursorOpacity"/>
              <InterpolatingParam id="4582" interp="linr"  time="0/1" value="0" leadInLength="0/1"  name="cursorScale"/>
             </Parameters>
             <Attributes>
              <Attribute id="4583" value="" name="ident"/>
             </Attributes>
             <ExtraData>
              <Entry key="ZoomPanBin">
               <ZoomPanBin id="4584"  >
                <ZoomPanKeyframes>
                 <ZoomPanKeyframe id="4585" timeRangeEnd="-9999999/1" timeRangeDuration="0/1" interpolaterName=""  />
                </ZoomPanKeyframes>
               </ZoomPanBin>
              </Entry>
              <Entry key="CursorEffectBin">
               <CursorEffectBin id="4586"  >
                <CursorEffectKeyframes>
                </CursorEffectKeyframes>
               </CursorEffectBin>
              </Entry>
             </ExtraData>
            </ScreenVMFile>
            <MetaData>
             <entry key="AutoAppliedSmartFocus" val="False"/>
             <entry key="WinSubProjectDisplayName" val=""/>
            </MetaData>
           </UnifiedMedia>
           <UnifiedMedia id="4587"  >
            <AMFile id="4588" start="9086" duration="72" scalar="1/1" mediaStart="16103/1" mediaDuration="72/1" trackNumber="1" src="4" channelNumber="0,1" >
             <Parameters>
              <InterpolatingParam id="4589" interp="linr"  time="0/1" value="1" leadInLength="0/1"  name="volume"/>
              <Parameter id="4590"  name="captions"/>
             </Parameters>
             <Attributes>
              <Attribute id="4591" value="" name="ident"/>
              <Attribute id="4592" value="44100" name="sampleRate"/>
              <Attribute id="4593" value="16" name="bitDepth"/>
              <Attribute id="4594" value="1" name="gain"/>
              <Attribute id="4595" value="0" name="mixToMono"/>
             </Attributes>
            </AMFile>
            <ScreenVMFile id="4596" start="9086" duration="72" scalar="1/1" mediaStart="16103/1" mediaDuration="72/1" trackNumber="0" src="4" >
             <Transformer>
              <VectorParam id="4597"  name="translation">
               <InterpolatingParam id="4598" interp="linr"  time="-9999999/1" value="0" leadInLength="0/1"  />
               <InterpolatingParam id="4599" interp="linr"  time="-9999999/1" value="0" leadInLength="0/1"  />
               <InterpolatingParam id="4600" interp="linr"  time="-9999999/1" value="0" leadInLength="0/1"  />
              </VectorParam>
              <VectorParam id="4601"  name="rotation">
               <InterpolatingParam id="4602" interp="linr"  time="-9999999/1" value="0" leadInLength="0/1"  />
               <InterpolatingParam id="4603" interp="linr"  time="-9999999/1" value="0" leadInLength="0/1"  />
               <InterpolatingParam id="4604" interp="linr"  time="-9999999/1" value="0" leadInLength="0/1"  />
              </VectorParam>
              <VectorParam id="4605"  name="shear">
               <InterpolatingParam id="4606" interp="linr"  time="-9999999/1" value="0" leadInLength="0/1"  />
               <InterpolatingParam id="4607" interp="linr"  time="-9999999/1" value="0" leadInLength="0/1"  />
               <InterpolatingParam id="4608" interp="linr"  time="-9999999/1" value="0" leadInLength="0/1"  />
              </VectorParam>
              <VectorParam id="4609"  name="scale">
               <InterpolatingParam id="4610" interp="linr"  time="-9999999/1" value="1" leadInLength="0/1"  />
               <InterpolatingParam id="4611" interp="linr"  time="-9999999/1" value="1" leadInLength="0/1"  />
               <InterpolatingParam id="4612" interp="linr"  time="-9999999/1" value="1" leadInLength="0/1"  />
              </VectorParam>
              <VectorParam id="4613"  name="anchor">
               <InterpolatingParam id="4614" interp="linr"  time="0/1" value="0" leadInLength="0/1"  />
               <InterpolatingParam id="4615" interp="linr"  time="0/1" value="0" leadInLength="0/1"  />
               <InterpolatingParam id="4616" interp="linr"  time="0/1" value="0" leadInLength="0/1"  />
              </VectorParam>
             </Transformer>
             <Parameters>
              <VectorParam id="4617"  name="sourceCrop">
               <InterpolatingParam id="4618" interp="linr"  time="0/1" value="0" leadInLength="0/1"  />
               <InterpolatingParam id="4619" interp="linr"  time="0/1" value="0" leadInLength="0/1"  />
               <InterpolatingParam id="4620" interp="linr"  time="0/1" value="0" leadInLength="0/1"  />
               <InterpolatingParam id="4621" interp="linr"  time="0/1" value="0" leadInLength="0/1"  />
              </VectorParam>
              <VectorParam id="4622"  name="geometryCrop">
               <InterpolatingParam id="4623" interp="linr"  time="-9999999/1" value="0" leadInLength="0/1"  />
               <InterpolatingParam id="4624" interp="linr"  time="-9999999/1" value="0" leadInLength="0/1"  />
               <InterpolatingParam id="4625" interp="linr"  time="-9999999/1" value="0" leadInLength="0/1"  />
               <InterpolatingParam id="4626" interp="linr"  time="-9999999/1" value="0" leadInLength="0/1"  />
              </VectorParam>
              <InterpolatingParam id="4627" interp="linr"  time="-9999999/1" value="1" leadInLength="0/1"  name="opacity"/>
              <InterpolatingParam id="4628" interp="linr"  time="0/1" value="0" leadInLength="0/1"  name="cursorOpacity"/>
              <InterpolatingParam id="4629" interp="linr"  time="0/1" value="0" leadInLength="0/1"  name="cursorScale"/>
             </Parameters>
             <Attributes>
              <Attribute id="4630" value="" name="ident"/>
             </Attributes>
             <ExtraData>
              <Entry key="ZoomPanBin">
               <ZoomPanBin id="4631"  >
                <ZoomPanKeyframes>
                 <ZoomPanKeyframe id="4632" timeRangeEnd="-9999999/1" timeRangeDuration="0/1" interpolaterName=""  />
                </ZoomPanKeyframes>
               </ZoomPanBin>
              </Entry>
              <Entry key="CursorEffectBin">
               <CursorEffectBin id="4633"  >
                <CursorEffectKeyframes>
                </CursorEffectKeyframes>
               </CursorEffectBin>
              </Entry>
             </ExtraData>
            </ScreenVMFile>
            <MetaData>
             <entry key="AutoAppliedSmartFocus" val="False"/>
             <entry key="WinSubProjectDisplayName" val=""/>
            </MetaData>
           </UnifiedMedia>
           <UnifiedMedia id="4634"  >
            <AMFile id="4635" start="9158" duration="330" scalar="1/1" mediaStart="16184/1" mediaDuration="330/1" trackNumber="1" src="4" channelNumber="0,1" >
             <Parameters>
              <InterpolatingParam id="4636" interp="linr"  time="0/1" value="1" leadInLength="0/1"  name="volume"/>
              <Parameter id="4637"  name="captions"/>
             </Parameters>
             <Attributes>
              <Attribute id="4638" value="" name="ident"/>
              <Attribute id="4639" value="44100" name="sampleRate"/>
              <Attribute id="4640" value="16" name="bitDepth"/>
              <Attribute id="4641" value="1" name="gain"/>
              <Attribute id="4642" value="0" name="mixToMono"/>
             </Attributes>
            </AMFile>
            <ScreenVMFile id="4643" start="9158" duration="330" scalar="1/1" mediaStart="16184/1" mediaDuration="330/1" trackNumber="0" src="4" >
             <Transformer>
              <VectorParam id="4644"  name="translation">
               <InterpolatingParam id="4645" interp="linr"  time="-9999999/1" value="0" leadInLength="0/1"  />
               <InterpolatingParam id="4646" interp="linr"  time="-9999999/1" value="0" leadInLength="0/1"  />
               <InterpolatingParam id="4647" interp="linr"  time="-9999999/1" value="0" leadInLength="0/1"  />
              </VectorParam>
              <VectorParam id="4648"  name="rotation">
               <InterpolatingParam id="4649" interp="linr"  time="-9999999/1" value="0" leadInLength="0/1"  />
               <InterpolatingParam id="4650" interp="linr"  time="-9999999/1" value="0" leadInLength="0/1"  />
               <InterpolatingParam id="4651" interp="linr"  time="-9999999/1" value="0" leadInLength="0/1"  />
              </VectorParam>
              <VectorParam id="4652"  name="shear">
               <InterpolatingParam id="4653" interp="linr"  time="-9999999/1" value="0" leadInLength="0/1"  />
               <InterpolatingParam id="4654" interp="linr"  time="-9999999/1" value="0" leadInLength="0/1"  />
               <InterpolatingParam id="4655" interp="linr"  time="-9999999/1" value="0" leadInLength="0/1"  />
              </VectorParam>
              <VectorParam id="4656"  name="scale">
               <InterpolatingParam id="4657" interp="linr"  time="-9999999/1" value="1" leadInLength="0/1"  />
               <InterpolatingParam id="4658" interp="linr"  time="-9999999/1" value="1" leadInLength="0/1"  />
               <InterpolatingParam id="4659" interp="linr"  time="-9999999/1" value="1" leadInLength="0/1"  />
              </VectorParam>
              <VectorParam id="4660"  name="anchor">
               <InterpolatingParam id="4661" interp="linr"  time="0/1" value="0" leadInLength="0/1"  />
               <InterpolatingParam id="4662" interp="linr"  time="0/1" value="0" leadInLength="0/1"  />
               <InterpolatingParam id="4663" interp="linr"  time="0/1" value="0" leadInLength="0/1"  />
              </VectorParam>
             </Transformer>
             <Parameters>
              <VectorParam id="4664"  name="sourceCrop">
               <InterpolatingParam id="4665" interp="linr"  time="0/1" value="0" leadInLength="0/1"  />
               <InterpolatingParam id="4666" interp="linr"  time="0/1" value="0" leadInLength="0/1"  />
               <InterpolatingParam id="4667" interp="linr"  time="0/1" value="0" leadInLength="0/1"  />
               <InterpolatingParam id="4668" interp="linr"  time="0/1" value="0" leadInLength="0/1"  />
              </VectorParam>
              <VectorParam id="4669"  name="geometryCrop">
               <InterpolatingParam id="4670" interp="linr"  time="-9999999/1" value="0" leadInLength="0/1"  />
               <InterpolatingParam id="4671" interp="linr"  time="-9999999/1" value="0" leadInLength="0/1"  />
               <InterpolatingParam id="4672" interp="linr"  time="-9999999/1" value="0" leadInLength="0/1"  />
               <InterpolatingParam id="4673" interp="linr"  time="-9999999/1" value="0" leadInLength="0/1"  />
              </VectorParam>
              <InterpolatingParam id="4674" interp="linr"  time="-9999999/1" value="1" leadInLength="0/1"  name="opacity"/>
              <InterpolatingParam id="4675" interp="linr"  time="0/1" value="0" leadInLength="0/1"  name="cursorOpacity"/>
              <InterpolatingParam id="4676" interp="linr"  time="0/1" value="0" leadInLength="0/1"  name="cursorScale"/>
             </Parameters>
             <Attributes>
              <Attribute id="4677" value="" name="ident"/>
             </Attributes>
             <ExtraData>
              <Entry key="ZoomPanBin">
               <ZoomPanBin id="4678"  >
                <ZoomPanKeyframes>
                 <ZoomPanKeyframe id="4679" timeRangeEnd="-9999999/1" timeRangeDuration="0/1" interpolaterName=""  />
                </ZoomPanKeyframes>
               </ZoomPanBin>
              </Entry>
              <Entry key="CursorEffectBin">
               <CursorEffectBin id="4680"  >
                <CursorEffectKeyframes>
                </CursorEffectKeyframes>
               </CursorEffectBin>
              </Entry>
             </ExtraData>
            </ScreenVMFile>
            <MetaData>
             <entry key="AutoAppliedSmartFocus" val="False"/>
             <entry key="WinSubProjectDisplayName" val=""/>
            </MetaData>
           </UnifiedMedia>
           <UnifiedMedia id="4681"  >
            <AMFile id="4682" start="9488" duration="83" scalar="1/1" mediaStart="16525/1" mediaDuration="83/1" trackNumber="1" src="4" channelNumber="0,1" >
             <Parameters>
              <InterpolatingParam id="4683" interp="linr"  time="0/1" value="1" leadInLength="0/1"  name="volume"/>
              <Parameter id="4684"  name="captions"/>
             </Parameters>
             <Attributes>
              <Attribute id="4685" value="" name="ident"/>
              <Attribute id="4686" value="44100" name="sampleRate"/>
              <Attribute id="4687" value="16" name="bitDepth"/>
              <Attribute id="4688" value="1" name="gain"/>
              <Attribute id="4689" value="0" name="mixToMono"/>
             </Attributes>
            </AMFile>
            <ScreenVMFile id="4690" start="9488" duration="83" scalar="1/1" mediaStart="16525/1" mediaDuration="83/1" trackNumber="0" src="4" >
             <Transformer>
              <VectorParam id="4691"  name="translation">
               <InterpolatingParam id="4692" interp="linr"  time="-9999999/1" value="0" leadInLength="0/1"  />
               <InterpolatingParam id="4693" interp="linr"  time="-9999999/1" value="0" leadInLength="0/1"  />
               <InterpolatingParam id="4694" interp="linr"  time="-9999999/1" value="0" leadInLength="0/1"  />
              </VectorParam>
              <VectorParam id="4695"  name="rotation">
               <InterpolatingParam id="4696" interp="linr"  time="-9999999/1" value="0" leadInLength="0/1"  />
               <InterpolatingParam id="4697" interp="linr"  time="-9999999/1" value="0" leadInLength="0/1"  />
               <InterpolatingParam id="4698" interp="linr"  time="-9999999/1" value="0" leadInLength="0/1"  />
              </VectorParam>
              <VectorParam id="4699"  name="shear">
               <InterpolatingParam id="4700" interp="linr"  time="-9999999/1" value="0" leadInLength="0/1"  />
               <InterpolatingParam id="4701" interp="linr"  time="-9999999/1" value="0" leadInLength="0/1"  />
               <InterpolatingParam id="4702" interp="linr"  time="-9999999/1" value="0" leadInLength="0/1"  />
              </VectorParam>
              <VectorParam id="4703"  name="scale">
               <InterpolatingParam id="4704" interp="linr"  time="-9999999/1" value="1" leadInLength="0/1"  />
               <InterpolatingParam id="4705" interp="linr"  time="-9999999/1" value="1" leadInLength="0/1"  />
               <InterpolatingParam id="4706" interp="linr"  time="-9999999/1" value="1" leadInLength="0/1"  />
              </VectorParam>
              <VectorParam id="4707"  name="anchor">
               <InterpolatingParam id="4708" interp="linr"  time="0/1" value="0" leadInLength="0/1"  />
               <InterpolatingParam id="4709" interp="linr"  time="0/1" value="0" leadInLength="0/1"  />
               <InterpolatingParam id="4710" interp="linr"  time="0/1" value="0" leadInLength="0/1"  />
              </VectorParam>
             </Transformer>
             <Parameters>
              <VectorParam id="4711"  name="sourceCrop">
               <InterpolatingParam id="4712" interp="linr"  time="0/1" value="0" leadInLength="0/1"  />
               <InterpolatingParam id="4713" interp="linr"  time="0/1" value="0" leadInLength="0/1"  />
               <InterpolatingParam id="4714" interp="linr"  time="0/1" value="0" leadInLength="0/1"  />
               <InterpolatingParam id="4715" interp="linr"  time="0/1" value="0" leadInLength="0/1"  />
              </VectorParam>
              <VectorParam id="4716"  name="geometryCrop">
               <InterpolatingParam id="4717" interp="linr"  time="-9999999/1" value="0" leadInLength="0/1"  />
               <InterpolatingParam id="4718" interp="linr"  time="-9999999/1" value="0" leadInLength="0/1"  />
               <InterpolatingParam id="4719" interp="linr"  time="-9999999/1" value="0" leadInLength="0/1"  />
               <InterpolatingParam id="4720" interp="linr"  time="-9999999/1" value="0" leadInLength="0/1"  />
              </VectorParam>
              <InterpolatingParam id="4721" interp="linr"  time="-9999999/1" value="1" leadInLength="0/1"  name="opacity"/>
              <InterpolatingParam id="4722" interp="linr"  time="0/1" value="0" leadInLength="0/1"  name="cursorOpacity"/>
              <InterpolatingParam id="4723" interp="linr"  time="0/1" value="0" leadInLength="0/1"  name="cursorScale"/>
             </Parameters>
             <Attributes>
              <Attribute id="4724" value="" name="ident"/>
             </Attributes>
             <ExtraData>
              <Entry key="ZoomPanBin">
               <ZoomPanBin id="4725"  >
                <ZoomPanKeyframes>
                 <ZoomPanKeyframe id="4726" timeRangeEnd="-9999999/1" timeRangeDuration="0/1" interpolaterName=""  />
                </ZoomPanKeyframes>
               </ZoomPanBin>
              </Entry>
              <Entry key="CursorEffectBin">
               <CursorEffectBin id="4727"  >
                <CursorEffectKeyframes>
                </CursorEffectKeyframes>
               </CursorEffectBin>
              </Entry>
             </ExtraData>
            </ScreenVMFile>
            <MetaData>
             <entry key="AutoAppliedSmartFocus" val="False"/>
             <entry key="WinSubProjectDisplayName" val=""/>
            </MetaData>
           </UnifiedMedia>
           <UnifiedMedia id="4728"  >
            <AMFile id="4729" start="9571" duration="72" scalar="1/1" mediaStart="16622/1" mediaDuration="72/1" trackNumber="1" src="4" channelNumber="0,1" >
             <Parameters>
              <InterpolatingParam id="4730" interp="linr"  time="0/1" value="1" leadInLength="0/1"  name="volume"/>
              <Parameter id="4731"  name="captions"/>
             </Parameters>
             <Attributes>
              <Attribute id="4732" value="" name="ident"/>
              <Attribute id="4733" value="44100" name="sampleRate"/>
              <Attribute id="4734" value="16" name="bitDepth"/>
              <Attribute id="4735" value="1" name="gain"/>
              <Attribute id="4736" value="0" name="mixToMono"/>
             </Attributes>
            </AMFile>
            <ScreenVMFile id="4737" start="9571" duration="72" scalar="1/1" mediaStart="16622/1" mediaDuration="72/1" trackNumber="0" src="4" >
             <Transformer>
              <VectorParam id="4738"  name="translation">
               <InterpolatingParam id="4739" interp="linr"  time="-9999999/1" value="0" leadInLength="0/1"  />
               <InterpolatingParam id="4740" interp="linr"  time="-9999999/1" value="0" leadInLength="0/1"  />
               <InterpolatingParam id="4741" interp="linr"  time="-9999999/1" value="0" leadInLength="0/1"  />
              </VectorParam>
              <VectorParam id="4742"  name="rotation">
               <InterpolatingParam id="4743" interp="linr"  time="-9999999/1" value="0" leadInLength="0/1"  />
               <InterpolatingParam id="4744" interp="linr"  time="-9999999/1" value="0" leadInLength="0/1"  />
               <InterpolatingParam id="4745" interp="linr"  time="-9999999/1" value="0" leadInLength="0/1"  />
              </VectorParam>
              <VectorParam id="4746"  name="shear">
               <InterpolatingParam id="4747" interp="linr"  time="-9999999/1" value="0" leadInLength="0/1"  />
               <InterpolatingParam id="4748" interp="linr"  time="-9999999/1" value="0" leadInLength="0/1"  />
               <InterpolatingParam id="4749" interp="linr"  time="-9999999/1" value="0" leadInLength="0/1"  />
              </VectorParam>
              <VectorParam id="4750"  name="scale">
               <InterpolatingParam id="4751" interp="linr"  time="-9999999/1" value="1" leadInLength="0/1"  />
               <InterpolatingParam id="4752" interp="linr"  time="-9999999/1" value="1" leadInLength="0/1"  />
               <InterpolatingParam id="4753" interp="linr"  time="-9999999/1" value="1" leadInLength="0/1"  />
              </VectorParam>
              <VectorParam id="4754"  name="anchor">
               <InterpolatingParam id="4755" interp="linr"  time="0/1" value="0" leadInLength="0/1"  />
               <InterpolatingParam id="4756" interp="linr"  time="0/1" value="0" leadInLength="0/1"  />
               <InterpolatingParam id="4757" interp="linr"  time="0/1" value="0" leadInLength="0/1"  />
              </VectorParam>
             </Transformer>
             <Parameters>
              <VectorParam id="4758"  name="sourceCrop">
               <InterpolatingParam id="4759" interp="linr"  time="0/1" value="0" leadInLength="0/1"  />
               <InterpolatingParam id="4760" interp="linr"  time="0/1" value="0" leadInLength="0/1"  />
               <InterpolatingParam id="4761" interp="linr"  time="0/1" value="0" leadInLength="0/1"  />
               <InterpolatingParam id="4762" interp="linr"  time="0/1" value="0" leadInLength="0/1"  />
              </VectorParam>
              <VectorParam id="4763"  name="geometryCrop">
               <InterpolatingParam id="4764" interp="linr"  time="-9999999/1" value="0" leadInLength="0/1"  />
               <InterpolatingParam id="4765" interp="linr"  time="-9999999/1" value="0" leadInLength="0/1"  />
               <InterpolatingParam id="4766" interp="linr"  time="-9999999/1" value="0" leadInLength="0/1"  />
               <InterpolatingParam id="4767" interp="linr"  time="-9999999/1" value="0" leadInLength="0/1"  />
              </VectorParam>
              <InterpolatingParam id="4768" interp="linr"  time="-9999999/1" value="1" leadInLength="0/1"  name="opacity"/>
              <InterpolatingParam id="4769" interp="linr"  time="0/1" value="0" leadInLength="0/1"  name="cursorOpacity"/>
              <InterpolatingParam id="4770" interp="linr"  time="0/1" value="0" leadInLength="0/1"  name="cursorScale"/>
             </Parameters>
             <Attributes>
              <Attribute id="4771" value="" name="ident"/>
             </Attributes>
             <ExtraData>
              <Entry key="ZoomPanBin">
               <ZoomPanBin id="4772"  >
                <ZoomPanKeyframes>
                 <ZoomPanKeyframe id="4773" timeRangeEnd="-9999999/1" timeRangeDuration="0/1" interpolaterName=""  />
                </ZoomPanKeyframes>
               </ZoomPanBin>
              </Entry>
              <Entry key="CursorEffectBin">
               <CursorEffectBin id="4774"  >
                <CursorEffectKeyframes>
                </CursorEffectKeyframes>
               </CursorEffectBin>
              </Entry>
             </ExtraData>
            </ScreenVMFile>
            <MetaData>
             <entry key="AutoAppliedSmartFocus" val="False"/>
             <entry key="WinSubProjectDisplayName" val=""/>
            </MetaData>
           </UnifiedMedia>
           <UnifiedMedia id="4775"  >
            <AMFile id="4776" start="9643" duration="41" scalar="1/1" mediaStart="16702/1" mediaDuration="41/1" trackNumber="1" src="4" channelNumber="0,1" >
             <Parameters>
              <InterpolatingParam id="4777" interp="linr"  time="0/1" value="1" leadInLength="0/1"  name="volume"/>
              <Parameter id="4778"  name="captions"/>
             </Parameters>
             <Attributes>
              <Attribute id="4779" value="" name="ident"/>
              <Attribute id="4780" value="44100" name="sampleRate"/>
              <Attribute id="4781" value="16" name="bitDepth"/>
              <Attribute id="4782" value="1" name="gain"/>
              <Attribute id="4783" value="0" name="mixToMono"/>
             </Attributes>
            </AMFile>
            <ScreenVMFile id="4784" start="9643" duration="41" scalar="1/1" mediaStart="16702/1" mediaDuration="41/1" trackNumber="0" src="4" >
             <Transformer>
              <VectorParam id="4785"  name="translation">
               <InterpolatingParam id="4786" interp="linr"  time="-9999999/1" value="0" leadInLength="0/1"  />
               <InterpolatingParam id="4787" interp="linr"  time="-9999999/1" value="0" leadInLength="0/1"  />
               <InterpolatingParam id="4788" interp="linr"  time="-9999999/1" value="0" leadInLength="0/1"  />
              </VectorParam>
              <VectorParam id="4789"  name="rotation">
               <InterpolatingParam id="4790" interp="linr"  time="-9999999/1" value="0" leadInLength="0/1"  />
               <InterpolatingParam id="4791" interp="linr"  time="-9999999/1" value="0" leadInLength="0/1"  />
               <InterpolatingParam id="4792" interp="linr"  time="-9999999/1" value="0" leadInLength="0/1"  />
              </VectorParam>
              <VectorParam id="4793"  name="shear">
               <InterpolatingParam id="4794" interp="linr"  time="-9999999/1" value="0" leadInLength="0/1"  />
               <InterpolatingParam id="4795" interp="linr"  time="-9999999/1" value="0" leadInLength="0/1"  />
               <InterpolatingParam id="4796" interp="linr"  time="-9999999/1" value="0" leadInLength="0/1"  />
              </VectorParam>
              <VectorParam id="4797"  name="scale">
               <InterpolatingParam id="4798" interp="linr"  time="-9999999/1" value="1" leadInLength="0/1"  />
               <InterpolatingParam id="4799" interp="linr"  time="-9999999/1" value="1" leadInLength="0/1"  />
               <InterpolatingParam id="4800" interp="linr"  time="-9999999/1" value="1" leadInLength="0/1"  />
              </VectorParam>
              <VectorParam id="4801"  name="anchor">
               <InterpolatingParam id="4802" interp="linr"  time="0/1" value="0" leadInLength="0/1"  />
               <InterpolatingParam id="4803" interp="linr"  time="0/1" value="0" leadInLength="0/1"  />
               <InterpolatingParam id="4804" interp="linr"  time="0/1" value="0" leadInLength="0/1"  />
              </VectorParam>
             </Transformer>
             <Parameters>
              <VectorParam id="4805"  name="sourceCrop">
               <InterpolatingParam id="4806" interp="linr"  time="0/1" value="0" leadInLength="0/1"  />
               <InterpolatingParam id="4807" interp="linr"  time="0/1" value="0" leadInLength="0/1"  />
               <InterpolatingParam id="4808" interp="linr"  time="0/1" value="0" leadInLength="0/1"  />
               <InterpolatingParam id="4809" interp="linr"  time="0/1" value="0" leadInLength="0/1"  />
              </VectorParam>
              <VectorParam id="4810"  name="geometryCrop">
               <InterpolatingParam id="4811" interp="linr"  time="-9999999/1" value="0" leadInLength="0/1"  />
               <InterpolatingParam id="4812" interp="linr"  time="-9999999/1" value="0" leadInLength="0/1"  />
               <InterpolatingParam id="4813" interp="linr"  time="-9999999/1" value="0" leadInLength="0/1"  />
               <InterpolatingParam id="4814" interp="linr"  time="-9999999/1" value="0" leadInLength="0/1"  />
              </VectorParam>
              <InterpolatingParam id="4815" interp="linr"  time="-9999999/1" value="1" leadInLength="0/1"  name="opacity"/>
              <InterpolatingParam id="4816" interp="linr"  time="0/1" value="0" leadInLength="0/1"  name="cursorOpacity"/>
              <InterpolatingParam id="4817" interp="linr"  time="0/1" value="0" leadInLength="0/1"  name="cursorScale"/>
             </Parameters>
             <Attributes>
              <Attribute id="4818" value="" name="ident"/>
             </Attributes>
             <ExtraData>
              <Entry key="ZoomPanBin">
               <ZoomPanBin id="4819"  >
                <ZoomPanKeyframes>
                 <ZoomPanKeyframe id="4820" timeRangeEnd="-9999999/1" timeRangeDuration="0/1" interpolaterName=""  />
                </ZoomPanKeyframes>
               </ZoomPanBin>
              </Entry>
              <Entry key="CursorEffectBin">
               <CursorEffectBin id="4821"  >
                <CursorEffectKeyframes>
                </CursorEffectKeyframes>
               </CursorEffectBin>
              </Entry>
             </ExtraData>
            </ScreenVMFile>
            <MetaData>
             <entry key="AutoAppliedSmartFocus" val="False"/>
             <entry key="WinSubProjectDisplayName" val=""/>
            </MetaData>
           </UnifiedMedia>
           <UnifiedMedia id="4822"  >
            <AMFile id="4823" start="9684" duration="65" scalar="1/1" mediaStart="16750/1" mediaDuration="65/1" trackNumber="1" src="4" channelNumber="0,1" >
             <Parameters>
              <InterpolatingParam id="4824" interp="linr"  time="0/1" value="1" leadInLength="0/1"  name="volume"/>
              <Parameter id="4825"  name="captions"/>
             </Parameters>
             <Attributes>
              <Attribute id="4826" value="" name="ident"/>
              <Attribute id="4827" value="44100" name="sampleRate"/>
              <Attribute id="4828" value="16" name="bitDepth"/>
              <Attribute id="4829" value="1" name="gain"/>
              <Attribute id="4830" value="0" name="mixToMono"/>
             </Attributes>
            </AMFile>
            <ScreenVMFile id="4831" start="9684" duration="65" scalar="1/1" mediaStart="16750/1" mediaDuration="65/1" trackNumber="0" src="4" >
             <Transformer>
              <VectorParam id="4832"  name="translation">
               <InterpolatingParam id="4833" interp="linr"  time="-9999999/1" value="0" leadInLength="0/1"  />
               <InterpolatingParam id="4834" interp="linr"  time="-9999999/1" value="0" leadInLength="0/1"  />
               <InterpolatingParam id="4835" interp="linr"  time="-9999999/1" value="0" leadInLength="0/1"  />
              </VectorParam>
              <VectorParam id="4836"  name="rotation">
               <InterpolatingParam id="4837" interp="linr"  time="-9999999/1" value="0" leadInLength="0/1"  />
               <InterpolatingParam id="4838" interp="linr"  time="-9999999/1" value="0" leadInLength="0/1"  />
               <InterpolatingParam id="4839" interp="linr"  time="-9999999/1" value="0" leadInLength="0/1"  />
              </VectorParam>
              <VectorParam id="4840"  name="shear">
               <InterpolatingParam id="4841" interp="linr"  time="-9999999/1" value="0" leadInLength="0/1"  />
               <InterpolatingParam id="4842" interp="linr"  time="-9999999/1" value="0" leadInLength="0/1"  />
               <InterpolatingParam id="4843" interp="linr"  time="-9999999/1" value="0" leadInLength="0/1"  />
              </VectorParam>
              <VectorParam id="4844"  name="scale">
               <InterpolatingParam id="4845" interp="linr"  time="-9999999/1" value="1" leadInLength="0/1"  />
               <InterpolatingParam id="4846" interp="linr"  time="-9999999/1" value="1" leadInLength="0/1"  />
               <InterpolatingParam id="4847" interp="linr"  time="-9999999/1" value="1" leadInLength="0/1"  />
              </VectorParam>
              <VectorParam id="4848"  name="anchor">
               <InterpolatingParam id="4849" interp="linr"  time="0/1" value="0" leadInLength="0/1"  />
               <InterpolatingParam id="4850" interp="linr"  time="0/1" value="0" leadInLength="0/1"  />
               <InterpolatingParam id="4851" interp="linr"  time="0/1" value="0" leadInLength="0/1"  />
              </VectorParam>
             </Transformer>
             <Parameters>
              <VectorParam id="4852"  name="sourceCrop">
               <InterpolatingParam id="4853" interp="linr"  time="0/1" value="0" leadInLength="0/1"  />
               <InterpolatingParam id="4854" interp="linr"  time="0/1" value="0" leadInLength="0/1"  />
               <InterpolatingParam id="4855" interp="linr"  time="0/1" value="0" leadInLength="0/1"  />
               <InterpolatingParam id="4856" interp="linr"  time="0/1" value="0" leadInLength="0/1"  />
              </VectorParam>
              <VectorParam id="4857"  name="geometryCrop">
               <InterpolatingParam id="4858" interp="linr"  time="-9999999/1" value="0" leadInLength="0/1"  />
               <InterpolatingParam id="4859" interp="linr"  time="-9999999/1" value="0" leadInLength="0/1"  />
               <InterpolatingParam id="4860" interp="linr"  time="-9999999/1" value="0" leadInLength="0/1"  />
               <InterpolatingParam id="4861" interp="linr"  time="-9999999/1" value="0" leadInLength="0/1"  />
              </VectorParam>
              <InterpolatingParam id="4862" interp="linr"  time="-9999999/1" value="1" leadInLength="0/1"  name="opacity"/>
              <InterpolatingParam id="4863" interp="linr"  time="0/1" value="0" leadInLength="0/1"  name="cursorOpacity"/>
              <InterpolatingParam id="4864" interp="linr"  time="0/1" value="0" leadInLength="0/1"  name="cursorScale"/>
             </Parameters>
             <Attributes>
              <Attribute id="4865" value="" name="ident"/>
             </Attributes>
             <ExtraData>
              <Entry key="ZoomPanBin">
               <ZoomPanBin id="4866"  >
                <ZoomPanKeyframes>
                 <ZoomPanKeyframe id="4867" timeRangeEnd="-9999999/1" timeRangeDuration="0/1" interpolaterName=""  />
                </ZoomPanKeyframes>
               </ZoomPanBin>
              </Entry>
              <Entry key="CursorEffectBin">
               <CursorEffectBin id="4868"  >
                <CursorEffectKeyframes>
                </CursorEffectKeyframes>
               </CursorEffectBin>
              </Entry>
             </ExtraData>
            </ScreenVMFile>
            <MetaData>
             <entry key="AutoAppliedSmartFocus" val="False"/>
             <entry key="WinSubProjectDisplayName" val=""/>
            </MetaData>
           </UnifiedMedia>
           <UnifiedMedia id="4869"  >
            <AMFile id="4870" start="9749" duration="56" scalar="1/1" mediaStart="16853/1" mediaDuration="56/1" trackNumber="1" src="4" channelNumber="0,1" >
             <Parameters>
              <InterpolatingParam id="4871" interp="linr"  time="0/1" value="1" leadInLength="0/1"  name="volume"/>
              <Parameter id="4872"  name="captions"/>
             </Parameters>
             <Attributes>
              <Attribute id="4873" value="" name="ident"/>
              <Attribute id="4874" value="44100" name="sampleRate"/>
              <Attribute id="4875" value="16" name="bitDepth"/>
              <Attribute id="4876" value="1" name="gain"/>
              <Attribute id="4877" value="0" name="mixToMono"/>
             </Attributes>
            </AMFile>
            <ScreenVMFile id="4878" start="9749" duration="56" scalar="1/1" mediaStart="16853/1" mediaDuration="56/1" trackNumber="0" src="4" >
             <Transformer>
              <VectorParam id="4879"  name="translation">
               <InterpolatingParam id="4880" interp="linr"  time="-9999999/1" value="0" leadInLength="0/1"  />
               <InterpolatingParam id="4881" interp="linr"  time="-9999999/1" value="0" leadInLength="0/1"  />
               <InterpolatingParam id="4882" interp="linr"  time="-9999999/1" value="0" leadInLength="0/1"  />
              </VectorParam>
              <VectorParam id="4883"  name="rotation">
               <InterpolatingParam id="4884" interp="linr"  time="-9999999/1" value="0" leadInLength="0/1"  />
               <InterpolatingParam id="4885" interp="linr"  time="-9999999/1" value="0" leadInLength="0/1"  />
               <InterpolatingParam id="4886" interp="linr"  time="-9999999/1" value="0" leadInLength="0/1"  />
              </VectorParam>
              <VectorParam id="4887"  name="shear">
               <InterpolatingParam id="4888" interp="linr"  time="-9999999/1" value="0" leadInLength="0/1"  />
               <InterpolatingParam id="4889" interp="linr"  time="-9999999/1" value="0" leadInLength="0/1"  />
               <InterpolatingParam id="4890" interp="linr"  time="-9999999/1" value="0" leadInLength="0/1"  />
              </VectorParam>
              <VectorParam id="4891"  name="scale">
               <InterpolatingParam id="4892" interp="linr"  time="-9999999/1" value="1" leadInLength="0/1"  />
               <InterpolatingParam id="4893" interp="linr"  time="-9999999/1" value="1" leadInLength="0/1"  />
               <InterpolatingParam id="4894" interp="linr"  time="-9999999/1" value="1" leadInLength="0/1"  />
              </VectorParam>
              <VectorParam id="4895"  name="anchor">
               <InterpolatingParam id="4896" interp="linr"  time="0/1" value="0" leadInLength="0/1"  />
               <InterpolatingParam id="4897" interp="linr"  time="0/1" value="0" leadInLength="0/1"  />
               <InterpolatingParam id="4898" interp="linr"  time="0/1" value="0" leadInLength="0/1"  />
              </VectorParam>
             </Transformer>
             <Parameters>
              <VectorParam id="4899"  name="sourceCrop">
               <InterpolatingParam id="4900" interp="linr"  time="0/1" value="0" leadInLength="0/1"  />
               <InterpolatingParam id="4901" interp="linr"  time="0/1" value="0" leadInLength="0/1"  />
               <InterpolatingParam id="4902" interp="linr"  time="0/1" value="0" leadInLength="0/1"  />
               <InterpolatingParam id="4903" interp="linr"  time="0/1" value="0" leadInLength="0/1"  />
              </VectorParam>
              <VectorParam id="4904"  name="geometryCrop">
               <InterpolatingParam id="4905" interp="linr"  time="-9999999/1" value="0" leadInLength="0/1"  />
               <InterpolatingParam id="4906" interp="linr"  time="-9999999/1" value="0" leadInLength="0/1"  />
               <InterpolatingParam id="4907" interp="linr"  time="-9999999/1" value="0" leadInLength="0/1"  />
               <InterpolatingParam id="4908" interp="linr"  time="-9999999/1" value="0" leadInLength="0/1"  />
              </VectorParam>
              <InterpolatingParam id="4909" interp="linr"  time="-9999999/1" value="1" leadInLength="0/1"  name="opacity"/>
              <InterpolatingParam id="4910" interp="linr"  time="0/1" value="0" leadInLength="0/1"  name="cursorOpacity"/>
              <InterpolatingParam id="4911" interp="linr"  time="0/1" value="0" leadInLength="0/1"  name="cursorScale"/>
             </Parameters>
             <Attributes>
              <Attribute id="4912" value="" name="ident"/>
             </Attributes>
             <ExtraData>
              <Entry key="ZoomPanBin">
               <ZoomPanBin id="4913"  >
                <ZoomPanKeyframes>
                 <ZoomPanKeyframe id="4914" timeRangeEnd="-9999999/1" timeRangeDuration="0/1" interpolaterName=""  />
                </ZoomPanKeyframes>
               </ZoomPanBin>
              </Entry>
              <Entry key="CursorEffectBin">
               <CursorEffectBin id="4915"  >
                <CursorEffectKeyframes>
                </CursorEffectKeyframes>
               </CursorEffectBin>
              </Entry>
             </ExtraData>
            </ScreenVMFile>
            <MetaData>
             <entry key="AutoAppliedSmartFocus" val="False"/>
             <entry key="WinSubProjectDisplayName" val=""/>
            </MetaData>
           </UnifiedMedia>
           <UnifiedMedia id="4916"  >
            <AMFile id="4917" start="9805" duration="289" scalar="1/1" mediaStart="17061/1" mediaDuration="289/1" trackNumber="1" src="4" channelNumber="0,1" >
             <Parameters>
              <InterpolatingParam id="4918" interp="linr"  time="0/1" value="1" leadInLength="0/1"  name="volume"/>
              <Parameter id="4919"  name="captions"/>
             </Parameters>
             <Attributes>
              <Attribute id="4920" value="" name="ident"/>
              <Attribute id="4921" value="44100" name="sampleRate"/>
              <Attribute id="4922" value="16" name="bitDepth"/>
              <Attribute id="4923" value="1" name="gain"/>
              <Attribute id="4924" value="0" name="mixToMono"/>
             </Attributes>
            </AMFile>
            <ScreenVMFile id="4925" start="9805" duration="289" scalar="1/1" mediaStart="17061/1" mediaDuration="289/1" trackNumber="0" src="4" >
             <Transformer>
              <VectorParam id="4926"  name="translation">
               <InterpolatingParam id="4927" interp="linr"  time="-9999999/1" value="0" leadInLength="0/1"  />
               <InterpolatingParam id="4928" interp="linr"  time="-9999999/1" value="0" leadInLength="0/1"  />
               <InterpolatingParam id="4929" interp="linr"  time="-9999999/1" value="0" leadInLength="0/1"  />
              </VectorParam>
              <VectorParam id="4930"  name="rotation">
               <InterpolatingParam id="4931" interp="linr"  time="-9999999/1" value="0" leadInLength="0/1"  />
               <InterpolatingParam id="4932" interp="linr"  time="-9999999/1" value="0" leadInLength="0/1"  />
               <InterpolatingParam id="4933" interp="linr"  time="-9999999/1" value="0" leadInLength="0/1"  />
              </VectorParam>
              <VectorParam id="4934"  name="shear">
               <InterpolatingParam id="4935" interp="linr"  time="-9999999/1" value="0" leadInLength="0/1"  />
               <InterpolatingParam id="4936" interp="linr"  time="-9999999/1" value="0" leadInLength="0/1"  />
               <InterpolatingParam id="4937" interp="linr"  time="-9999999/1" value="0" leadInLength="0/1"  />
              </VectorParam>
              <VectorParam id="4938"  name="scale">
               <InterpolatingParam id="4939" interp="linr"  time="-9999999/1" value="1" leadInLength="0/1"  />
               <InterpolatingParam id="4940" interp="linr"  time="-9999999/1" value="1" leadInLength="0/1"  />
               <InterpolatingParam id="4941" interp="linr"  time="-9999999/1" value="1" leadInLength="0/1"  />
              </VectorParam>
              <VectorParam id="4942"  name="anchor">
               <InterpolatingParam id="4943" interp="linr"  time="0/1" value="0" leadInLength="0/1"  />
               <InterpolatingParam id="4944" interp="linr"  time="0/1" value="0" leadInLength="0/1"  />
               <InterpolatingParam id="4945" interp="linr"  time="0/1" value="0" leadInLength="0/1"  />
              </VectorParam>
             </Transformer>
             <Parameters>
              <VectorParam id="4946"  name="sourceCrop">
               <InterpolatingParam id="4947" interp="linr"  time="0/1" value="0" leadInLength="0/1"  />
               <InterpolatingParam id="4948" interp="linr"  time="0/1" value="0" leadInLength="0/1"  />
               <InterpolatingParam id="4949" interp="linr"  time="0/1" value="0" leadInLength="0/1"  />
               <InterpolatingParam id="4950" interp="linr"  time="0/1" value="0" leadInLength="0/1"  />
              </VectorParam>
              <VectorParam id="4951"  name="geometryCrop">
               <InterpolatingParam id="4952" interp="linr"  time="-9999999/1" value="0" leadInLength="0/1"  />
               <InterpolatingParam id="4953" interp="linr"  time="-9999999/1" value="0" leadInLength="0/1"  />
               <InterpolatingParam id="4954" interp="linr"  time="-9999999/1" value="0" leadInLength="0/1"  />
               <InterpolatingParam id="4955" interp="linr"  time="-9999999/1" value="0" leadInLength="0/1"  />
              </VectorParam>
              <InterpolatingParam id="4956" interp="linr"  time="-9999999/1" value="1" leadInLength="0/1"  name="opacity"/>
              <InterpolatingParam id="4957" interp="linr"  time="0/1" value="0" leadInLength="0/1"  name="cursorOpacity"/>
              <InterpolatingParam id="4958" interp="linr"  time="0/1" value="0" leadInLength="0/1"  name="cursorScale"/>
             </Parameters>
             <Attributes>
              <Attribute id="4959" value="" name="ident"/>
             </Attributes>
             <ExtraData>
              <Entry key="ZoomPanBin">
               <ZoomPanBin id="4960"  >
                <ZoomPanKeyframes>
                 <ZoomPanKeyframe id="4961" timeRangeEnd="-9999999/1" timeRangeDuration="0/1" interpolaterName=""  />
                </ZoomPanKeyframes>
               </ZoomPanBin>
              </Entry>
              <Entry key="CursorEffectBin">
               <CursorEffectBin id="4962"  >
                <CursorEffectKeyframes>
                </CursorEffectKeyframes>
               </CursorEffectBin>
              </Entry>
             </ExtraData>
            </ScreenVMFile>
            <MetaData>
             <entry key="AutoAppliedSmartFocus" val="False"/>
             <entry key="WinSubProjectDisplayName" val=""/>
            </MetaData>
           </UnifiedMedia>
           <UnifiedMedia id="4963"  >
            <AMFile id="4964" start="10094" duration="211" scalar="1/1" mediaStart="17638/1" mediaDuration="211/1" trackNumber="1" src="4" channelNumber="0,1" >
             <Parameters>
              <InterpolatingParam id="4965" interp="linr"  time="0/1" value="1" leadInLength="0/1"  name="volume"/>
              <Parameter id="4966"  name="captions"/>
             </Parameters>
             <Attributes>
              <Attribute id="4967" value="" name="ident"/>
              <Attribute id="4968" value="44100" name="sampleRate"/>
              <Attribute id="4969" value="16" name="bitDepth"/>
              <Attribute id="4970" value="1" name="gain"/>
              <Attribute id="4971" value="0" name="mixToMono"/>
             </Attributes>
            </AMFile>
            <ScreenVMFile id="4972" start="10094" duration="211" scalar="1/1" mediaStart="17638/1" mediaDuration="211/1" trackNumber="0" src="4" >
             <Transformer>
              <VectorParam id="4973"  name="translation">
               <InterpolatingParam id="4974" interp="linr"  time="-9999999/1" value="0" leadInLength="0/1"  />
               <InterpolatingParam id="4975" interp="linr"  time="-9999999/1" value="0" leadInLength="0/1"  />
               <InterpolatingParam id="4976" interp="linr"  time="-9999999/1" value="0" leadInLength="0/1"  />
              </VectorParam>
              <VectorParam id="4977"  name="rotation">
               <InterpolatingParam id="4978" interp="linr"  time="-9999999/1" value="0" leadInLength="0/1"  />
               <InterpolatingParam id="4979" interp="linr"  time="-9999999/1" value="0" leadInLength="0/1"  />
               <InterpolatingParam id="4980" interp="linr"  time="-9999999/1" value="0" leadInLength="0/1"  />
              </VectorParam>
              <VectorParam id="4981"  name="shear">
               <InterpolatingParam id="4982" interp="linr"  time="-9999999/1" value="0" leadInLength="0/1"  />
               <InterpolatingParam id="4983" interp="linr"  time="-9999999/1" value="0" leadInLength="0/1"  />
               <InterpolatingParam id="4984" interp="linr"  time="-9999999/1" value="0" leadInLength="0/1"  />
              </VectorParam>
              <VectorParam id="4985"  name="scale">
               <InterpolatingParam id="4986" interp="linr"  time="-9999999/1" value="1" leadInLength="0/1"  />
               <InterpolatingParam id="4987" interp="linr"  time="-9999999/1" value="1" leadInLength="0/1"  />
               <InterpolatingParam id="4988" interp="linr"  time="-9999999/1" value="1" leadInLength="0/1"  />
              </VectorParam>
              <VectorParam id="4989"  name="anchor">
               <InterpolatingParam id="4990" interp="linr"  time="0/1" value="0" leadInLength="0/1"  />
               <InterpolatingParam id="4991" interp="linr"  time="0/1" value="0" leadInLength="0/1"  />
               <InterpolatingParam id="4992" interp="linr"  time="0/1" value="0" leadInLength="0/1"  />
              </VectorParam>
             </Transformer>
             <Parameters>
              <VectorParam id="4993"  name="sourceCrop">
               <InterpolatingParam id="4994" interp="linr"  time="0/1" value="0" leadInLength="0/1"  />
               <InterpolatingParam id="4995" interp="linr"  time="0/1" value="0" leadInLength="0/1"  />
               <InterpolatingParam id="4996" interp="linr"  time="0/1" value="0" leadInLength="0/1"  />
               <InterpolatingParam id="4997" interp="linr"  time="0/1" value="0" leadInLength="0/1"  />
              </VectorParam>
              <VectorParam id="4998"  name="geometryCrop">
               <InterpolatingParam id="4999" interp="linr"  time="-9999999/1" value="0" leadInLength="0/1"  />
               <InterpolatingParam id="5000" interp="linr"  time="-9999999/1" value="0" leadInLength="0/1"  />
               <InterpolatingParam id="5001" interp="linr"  time="-9999999/1" value="0" leadInLength="0/1"  />
               <InterpolatingParam id="5002" interp="linr"  time="-9999999/1" value="0" leadInLength="0/1"  />
              </VectorParam>
              <InterpolatingParam id="5003" interp="linr"  time="-9999999/1" value="1" leadInLength="0/1"  name="opacity"/>
              <InterpolatingParam id="5004" interp="linr"  time="0/1" value="0" leadInLength="0/1"  name="cursorOpacity"/>
              <InterpolatingParam id="5005" interp="linr"  time="0/1" value="0" leadInLength="0/1"  name="cursorScale"/>
             </Parameters>
             <Attributes>
              <Attribute id="5006" value="" name="ident"/>
             </Attributes>
             <ExtraData>
              <Entry key="ZoomPanBin">
               <ZoomPanBin id="5007"  >
                <ZoomPanKeyframes>
                 <ZoomPanKeyframe id="5008" timeRangeEnd="-9999999/1" timeRangeDuration="0/1" interpolaterName=""  />
                </ZoomPanKeyframes>
               </ZoomPanBin>
              </Entry>
              <Entry key="CursorEffectBin">
               <CursorEffectBin id="5009"  >
                <CursorEffectKeyframes>
                </CursorEffectKeyframes>
               </CursorEffectBin>
              </Entry>
             </ExtraData>
            </ScreenVMFile>
            <MetaData>
             <entry key="AutoAppliedSmartFocus" val="False"/>
             <entry key="WinSubProjectDisplayName" val=""/>
            </MetaData>
           </UnifiedMedia>
           <UnifiedMedia id="5010"  >
            <AMFile id="5011" start="10305" duration="2751" scalar="1/1" mediaStart="18580/1" mediaDuration="2751/1" trackNumber="1" src="4" channelNumber="0,1" >
             <Parameters>
              <InterpolatingParam id="5012" interp="linr"  time="0/1" value="1" leadInLength="0/1"  name="volume"/>
              <Parameter id="5013"  name="captions"/>
             </Parameters>
             <Attributes>
              <Attribute id="5014" value="" name="ident"/>
              <Attribute id="5015" value="44100" name="sampleRate"/>
              <Attribute id="5016" value="16" name="bitDepth"/>
              <Attribute id="5017" value="1" name="gain"/>
              <Attribute id="5018" value="0" name="mixToMono"/>
             </Attributes>
            </AMFile>
            <ScreenVMFile id="5019" start="10305" duration="2751" scalar="1/1" mediaStart="18580/1" mediaDuration="2751/1" trackNumber="0" src="4" >
             <Transformer>
              <VectorParam id="5020"  name="translation">
               <InterpolatingParam id="5021" interp="linr"  time="-9999999/1" value="0" leadInLength="0/1"  />
               <InterpolatingParam id="5022" interp="linr"  time="-9999999/1" value="0" leadInLength="0/1"  />
               <InterpolatingParam id="5023" interp="linr"  time="-9999999/1" value="0" leadInLength="0/1"  />
              </VectorParam>
              <VectorParam id="5024"  name="rotation">
               <InterpolatingParam id="5025" interp="linr"  time="-9999999/1" value="0" leadInLength="0/1"  />
               <InterpolatingParam id="5026" interp="linr"  time="-9999999/1" value="0" leadInLength="0/1"  />
               <InterpolatingParam id="5027" interp="linr"  time="-9999999/1" value="0" leadInLength="0/1"  />
              </VectorParam>
              <VectorParam id="5028"  name="shear">
               <InterpolatingParam id="5029" interp="linr"  time="-9999999/1" value="0" leadInLength="0/1"  />
               <InterpolatingParam id="5030" interp="linr"  time="-9999999/1" value="0" leadInLength="0/1"  />
               <InterpolatingParam id="5031" interp="linr"  time="-9999999/1" value="0" leadInLength="0/1"  />
              </VectorParam>
              <VectorParam id="5032"  name="scale">
               <InterpolatingParam id="5033" interp="linr"  time="-9999999/1" value="1" leadInLength="0/1"  />
               <InterpolatingParam id="5034" interp="linr"  time="-9999999/1" value="1" leadInLength="0/1"  />
               <InterpolatingParam id="5035" interp="linr"  time="-9999999/1" value="1" leadInLength="0/1"  />
              </VectorParam>
              <VectorParam id="5036"  name="anchor">
               <InterpolatingParam id="5037" interp="linr"  time="0/1" value="0" leadInLength="0/1"  />
               <InterpolatingParam id="5038" interp="linr"  time="0/1" value="0" leadInLength="0/1"  />
               <InterpolatingParam id="5039" interp="linr"  time="0/1" value="0" leadInLength="0/1"  />
              </VectorParam>
             </Transformer>
             <Parameters>
              <VectorParam id="5040"  name="sourceCrop">
               <InterpolatingParam id="5041" interp="linr"  time="0/1" value="0" leadInLength="0/1"  />
               <InterpolatingParam id="5042" interp="linr"  time="0/1" value="0" leadInLength="0/1"  />
               <InterpolatingParam id="5043" interp="linr"  time="0/1" value="0" leadInLength="0/1"  />
               <InterpolatingParam id="5044" interp="linr"  time="0/1" value="0" leadInLength="0/1"  />
              </VectorParam>
              <VectorParam id="5045"  name="geometryCrop">
               <InterpolatingParam id="5046" interp="linr"  time="-9999999/1" value="0" leadInLength="0/1"  />
               <InterpolatingParam id="5047" interp="linr"  time="-9999999/1" value="0" leadInLength="0/1"  />
               <InterpolatingParam id="5048" interp="linr"  time="-9999999/1" value="0" leadInLength="0/1"  />
               <InterpolatingParam id="5049" interp="linr"  time="-9999999/1" value="0" leadInLength="0/1"  />
              </VectorParam>
              <InterpolatingParam id="5050" interp="linr"  time="-9999999/1" value="1" leadInLength="0/1"  name="opacity"/>
              <InterpolatingParam id="5051" interp="linr"  time="0/1" value="0" leadInLength="0/1"  name="cursorOpacity"/>
              <InterpolatingParam id="5052" interp="linr"  time="0/1" value="0" leadInLength="0/1"  name="cursorScale"/>
             </Parameters>
             <Attributes>
              <Attribute id="5053" value="" name="ident"/>
             </Attributes>
             <ExtraData>
              <Entry key="ZoomPanBin">
               <ZoomPanBin id="5054"  >
                <ZoomPanKeyframes>
                 <ZoomPanKeyframe id="5055" timeRangeEnd="-9999999/1" timeRangeDuration="0/1" interpolaterName=""  />
                </ZoomPanKeyframes>
               </ZoomPanBin>
              </Entry>
              <Entry key="CursorEffectBin">
               <CursorEffectBin id="5056"  >
                <CursorEffectKeyframes>
                </CursorEffectKeyframes>
               </CursorEffectBin>
              </Entry>
             </ExtraData>
            </ScreenVMFile>
            <MetaData>
             <entry key="AutoAppliedSmartFocus" val="False"/>
             <entry key="WinSubProjectDisplayName" val=""/>
            </MetaData>
           </UnifiedMedia>
          </Medias>
         </GenericTrack>
        </StitchedMedia>
        <StitchedMedia id="5057" start="9399" duration="1205" scalar="1/1" mediaStart="9872/1" mediaDuration="1205/1" minMediaStart="0/1" >
         <Transformer>
          <VectorParam id="5058"  name="translation">
           <InterpolatingParam id="5059" interp="linr"  time="-9999999/1" value="-3.637978807091713e-010" leadInLength="0/1"  />
           <InterpolatingParam id="5060" interp="linr"  time="-9999999/1" value="9.2313712229952216e-011" leadInLength="0/1"  />
           <InterpolatingParam id="5061" interp="linr"  time="-9999999/1" value="0" leadInLength="0/1"  />
          </VectorParam>
          <VectorParam id="5062"  name="rotation">
           <InterpolatingParam id="5063" interp="linr"  time="-9999999/1" value="0" leadInLength="0/1"  />
           <InterpolatingParam id="5064" interp="linr"  time="-9999999/1" value="0" leadInLength="0/1"  />
           <InterpolatingParam id="5065" interp="linr"  time="-9999999/1" value="0" leadInLength="0/1"  />
          </VectorParam>
          <VectorParam id="5066"  name="shear">
           <InterpolatingParam id="5067" interp="linr"  time="-9999999/1" value="0" leadInLength="0/1"  />
           <InterpolatingParam id="5068" interp="linr"  time="-9999999/1" value="0" leadInLength="0/1"  />
           <InterpolatingParam id="5069" interp="linr"  time="-9999999/1" value="0" leadInLength="0/1"  />
          </VectorParam>
          <VectorParam id="5070"  name="scale">
           <InterpolatingParam id="5071" interp="linr"  time="-9999999/1" value="1" leadInLength="0/1"  />
           <InterpolatingParam id="5072" interp="linr"  time="-9999999/1" value="1" leadInLength="0/1"  />
           <InterpolatingParam id="5073" interp="linr"  time="-9999999/1" value="1" leadInLength="0/1"  />
          </VectorParam>
          <VectorParam id="5074"  name="anchor">
           <InterpolatingParam id="5075" interp="linr"  time="0/1" value="0" leadInLength="0/1"  />
           <InterpolatingParam id="5076" interp="linr"  time="0/1" value="0" leadInLength="0/1"  />
           <InterpolatingParam id="5077" interp="linr"  time="0/1" value="0" leadInLength="0/1"  />
          </VectorParam>
         </Transformer>
         <Parameters>
          <VectorParam id="5078"  name="sourceCrop">
           <InterpolatingParam id="5079" interp="linr"  time="0/1" value="0" leadInLength="0/1"  />
           <InterpolatingParam id="5080" interp="linr"  time="0/1" value="0" leadInLength="0/1"  />
           <InterpolatingParam id="5081" interp="linr"  time="0/1" value="0" leadInLength="0/1"  />
           <InterpolatingParam id="5082" interp="linr"  time="0/1" value="0" leadInLength="0/1"  />
          </VectorParam>
          <VectorParam id="5083"  name="geometryCrop">
           <InterpolatingParam id="5084" interp="linr"  time="-9999999/1" value="0" leadInLength="0/1"  />
           <InterpolatingParam id="5085" interp="linr"  time="-9999999/1" value="0" leadInLength="0/1"  />
           <InterpolatingParam id="5086" interp="linr"  time="-9999999/1" value="0" leadInLength="0/1"  />
           <InterpolatingParam id="5087" interp="linr"  time="-9999999/1" value="0" leadInLength="0/1"  />
          </VectorParam>
          <InterpolatingParam id="5088" interp="linr"  time="-9999999/1" value="1" leadInLength="0/1"  name="opacity"/>
          <InterpolatingParam id="5089" interp="linr"  time="0/1" value="1" leadInLength="0/1"  name="cursorOpacity"/>
          <InterpolatingParam id="5090" interp="linr"  time="0/1" value="1" leadInLength="0/1"  name="cursorScale"/>
          <InterpolatingParam id="5091" interp="linr"  name="volume">
           <Keyframes>
           <Keyframe id="5092"  time="0/1" value="1" leadInLength="0/1"  />
           <Keyframe id="5093"  time="457/1" value="1" leadInLength="0/1"  />
           <Keyframe id="5094"  time="458/1" value="1.5625" leadInLength="0/1"  />
           <Keyframe id="5095"  time="11433/1" value="1.5625" leadInLength="0/1"  />
           <Keyframe id="5096"  time="11434/1" value="1" leadInLength="0/1"  />
           </Keyframes>
          </InterpolatingParam>
          <Parameter id="5097"  name="captions"/>
         </Parameters>
         <Effects>
          <GenericEffect id="5098" name = "CursorBaseEffectName" >
           <Parameters>
           <InterpolatingParam id="5099" interp="linr"  time="-9999999/1" value="1" leadInLength="0/1"   name="cursorSize"/>
           <InterpolatingParam id="5100" interp="linr"  time="-9999999/1" value="0" leadInLength="0/1"   name="highlightBlurRadius"/>
           <InterpolatingParam id="5101" interp="linr"  time="-9999999/1" value="0" leadInLength="0/1"   name="highlightColorBlue"/>
           <InterpolatingParam id="5102" interp="linr"  time="-9999999/1" value="255" leadInLength="0/1"   name="highlightColorGreen"/>
           <InterpolatingParam id="5103" interp="linr"  time="-9999999/1" value="255" leadInLength="0/1"   name="highlightColorRed"/>
           <InterpolatingParam id="5104" interp="linr"  time="-9999999/1" value="5" leadInLength="0/1"   name="highlightFeatherSize"/>
           <InterpolatingParam id="5105" interp="linr"  time="-9999999/1" value="2" leadInLength="0/1"   name="highlightMagnification"/>
           <InterpolatingParam id="5106" interp="linr"  time="-9999999/1" value="1" leadInLength="0/1"   name="highlightOpacity"/>
           <InterpolatingParam id="5107" interp="linr"  time="-9999999/1" value="45" leadInLength="0/1"   name="highlightSize"/>
           <Parameter id="5108"   name="highlightType">
            <Keyframes>
            <Keyframe id="5109"  time="-9999999/1" value="0" leadInLength="0/1"  />
            </Keyframes>
           </Parameter>
           <InterpolatingParam id="5110" interp="linr"  time="-9999999/1" value="0" leadInLength="0/1"   name="leftClickColorBlue"/>
           <InterpolatingParam id="5111" interp="linr"  time="-9999999/1" value="0" leadInLength="0/1"   name="leftClickColorGreen"/>
           <InterpolatingParam id="5112" interp="linr"  time="-9999999/1" value="255" leadInLength="0/1"   name="leftClickColorRed"/>
           <InterpolatingParam id="5113" interp="linr"  time="-9999999/1" value="0.80000000000000004" leadInLength="0/1"   name="leftClickDuration"/>
           <InterpolatingParam id="5114" interp="linr"  time="-9999999/1" value="20" leadInLength="0/1"   name="leftClickSize"/>
           <Parameter id="5115"   name="leftClickSoundFilename">
            <Keyframes>
            <Keyframe id="5116"  time="-9999999/1" value="" leadInLength="0/1"  />
            </Keyframes>
           </Parameter>
           <InterpolatingParam id="5117" interp="linr"  time="-9999999/1" value="1" leadInLength="0/1"   name="leftClickSoundVolume"/>
           <Parameter id="5118"   name="leftClickType">
            <Keyframes>
            <Keyframe id="5119"  time="-9999999/1" value="0" leadInLength="0/1"  />
            </Keyframes>
           </Parameter>
           <InterpolatingParam id="5120" interp="linr"  time="-9999999/1" value="1" leadInLength="0/1"   name="opacity"/>
           <InterpolatingParam id="5121" interp="linr"  time="-9999999/1" value="255" leadInLength="0/1"   name="rightClickColorBlue"/>
           <InterpolatingParam id="5122" interp="linr"  time="-9999999/1" value="0" leadInLength="0/1"   name="rightClickColorGreen"/>
           <InterpolatingParam id="5123" interp="linr"  time="-9999999/1" value="0" leadInLength="0/1"   name="rightClickColorRed"/>
           <InterpolatingParam id="5124" interp="linr"  time="-9999999/1" value="0.80000000000000004" leadInLength="0/1"   name="rightClickDuration"/>
           <InterpolatingParam id="5125" interp="linr"  time="-9999999/1" value="20" leadInLength="0/1"   name="rightClickSize"/>
           <Parameter id="5126"   name="rightClickSoundFilename">
            <Keyframes>
            <Keyframe id="5127"  time="-9999999/1" value="" leadInLength="0/1"  />
            </Keyframes>
           </Parameter>
           <InterpolatingParam id="5128" interp="linr"  time="-9999999/1" value="1" leadInLength="0/1"   name="rightClickSoundVolume"/>
           <Parameter id="5129"   name="rightClickType">
            <Keyframes>
            <Keyframe id="5130"  time="-9999999/1" value="0" leadInLength="0/1"  />
            </Keyframes>
           </Parameter>
           </Parameters>
           <MetaData>
            <entry key="effectIndex" val="0"/>
           </MetaData>
          </GenericEffect>
          <GenericEffect id="5131" name = "WinCompression" >
           <Parameters>
           <InterpolatingParam id="5132" interp="linr"  time="0/1" value="0" leadInLength="0/1"   name="attack"/>
           <InterpolatingParam id="5133" interp="linr"  time="0/1" value="9" leadInLength="0/1"   name="gain"/>
           <Parameter id="5134"   name="preset">
            <Keyframes>
            <Keyframe id="5135"  time="0/1" value="1" leadInLength="0/1"  />
            </Keyframes>
           </Parameter>
           <InterpolatingParam id="5136" interp="linr"  time="0/1" value="10" leadInLength="0/1"   name="ratio"/>
           <InterpolatingParam id="5137" interp="linr"  time="0/1" value="3500" leadInLength="0/1"   name="release"/>
           <InterpolatingParam id="5138" interp="linr"  time="0/1" value="-20" leadInLength="0/1"   name="threshold"/>
           </Parameters>
           <MetaData>
            <entry key="effectIndex" val="1"/>
           </MetaData>
          </GenericEffect>
          <GenericEffect id="5139" name = "NoiseReduction" >
           <Parameters>
           <InterpolatingParam id="5140" interp="linr"  time="0/1" value="20" leadInLength="0/1"   name="denoiserAmount"/>
           <InterpolatingParam id="5141" interp="linr"  time="0/1" value="0" leadInLength="0/1"   name="denoiserThreshold"/>
           <Parameter id="5142"   name="noiseProfile">
            <Keyframes>
            <Keyframe id="5143"  time="0/1" value="FBAAAAIAAABErAAAAQIAADGZn8Lrc5XC/46fwmiBpMJZPZ3ChlWcwn0DqcIalKvCAiOpwmFNpcIm&#xD;&#xa;maLC9Qykwn41qsLFK67CwDavwjgzsMLfgK7CROmtwkxBscLwm7jC2ri/wq0dw8JfEMfCfk7GwiSf&#xD;&#xa;x8LC9cTCd5bIwlRmy8KgiMXCrEXCwgjkwMJmlb3CeOW9wlWHv8L3N7/C5hW5wj+3ucJMA8HCt7vD&#xD;&#xa;wmYGxcJQ2MrCJGfLwrLIx8IOa87CLHDYwhK018LYXNLCpeXRwvlb0sKYQdPC4ADVwmPF2MIR/NrC&#xD;&#xa;hFnbwh4Z3MKpItrCmmPZwrVP2sIvkNnCX27YwiOc1sKS7dbCIgzSwooMzsKomc7C73DQwrt+08LB&#xD;&#xa;+9bCVjbZwrj11cJaotXC15vZwsZh3MJv39jC7zrbwsJS28J1HNzCKSXbwmyS28KKat3COKvcwvaS&#xD;&#xa;28L31dbCVZnTwsx608KUgNDC5qbNwjQVzsJbic/CJB/OwiP+zcIgXNLCb/DTwhAX0sLy+NTCAUjZ&#xD;&#xa;wvD22MIRPN3CwBrgwldX38JaGuDC7VPhwi6338Lpn97CrJPewi0k4MLund3C4M3ewhy/3sLhP9/C&#xD;&#xa;8MrewsEU3sLnBt3C/nbcwtN64MIU6t7CKNbewsU84MIEXt7Cxg7gwoC638I/suDCGm/fwtqZ38KY&#xD;&#xa;BuHCo2/ewkQ+28KOmNjChHfZwirb3cJ23d3C9Qrcwiyh2sJ4UNvCFDHewoz43MKuydvCQHzawuLv&#xD;&#xa;3MK2b97CTubdwmAn3sKi+dzCAs3bwk4Z3cKuPt7CSoHewmhH4cLuH+DCrTbfwkSj4cI0+OHCcMbe&#xD;&#xa;wj1C38JxTuLC+sfhwuz75MJfGOXCRH7kwiwY4cLm59/Cfsvgwj3V4MILbt/CKNHewlpo3sKRSN7C&#xD;&#xa;xMvdwsoN3sK+3N7CXXbewkoP38I+3NvC7PLbwtgF3sJ2ld7CiJ3dwvKA3MLEld/CyD3hwqcy3sJy&#xD;&#xa;utzCKpThwgUz5MJm29/CgEXcwkrt3cLMmOHCNGHiwk424MIyHuLCK6vgwufe4MLyIOLCWPfhwrLJ&#xD;&#xa;4cJ2r+LCZHbjwlSQ4cLadODCQNDhwlru48LWJ+HCOBjgwtIR4cIIOOPCMVHiwgOf4sIoyuPCvLPl&#xD;&#xa;worq5sI+9uTCpmTjwggi48Jg0eLCGQzmwhDO48LhMuTCwNXlwnZC48Jjo+DCZJPhwnsK48LA7OXC&#xD;&#xa;B8rnwhAU48IKwOLCDgDiwo8X5MLAE+jCkuvkwiBv4sKO4ODC1Nfiwl4Q48KK7+LCIezjwoPf48J6&#xD;&#xa;Y+LCZuDfwoLD4sKO1uTCoJ7mwrdd5sJLkebCK5zmwqpe6sI23urCvcnswrZ17sJ4YurCgvnpwpCr&#xD;&#xa;6sLEOOnCHe3pwsLz6MIekenCLsLxwkYU8cLU7+7C8jvywkR58MI4uu7CeEPxwjhP88Ki7vHCTTP0&#xD;&#xa;wn7v8cItevLCUuz3wqnF98L8ifDC/ZnowsLY58Lxs+rCFrzrwhZs6cIWCOjCekPqwo7258IodufC&#xD;&#xa;uqzpwsZ06sIWjejCKd3mwt+O6MJk/evCFqLvwv4D9cKlKfjCMdf3wgA/+MKkC/nC1AP5ws9W+MLH&#xD;&#xa;bfbCT7/3wmpv98I4xvjC8N/5wuyV+MKoGvfCDm33wlS0+MKOxvnCIsP6wnIG+sJjp/fCku/3wvj/&#xD;&#xa;+cI+D/jCbNP3wvYF98L4BPnCuHL4wphw9sIlF/bCDM/1wlqf9sILBffCtH74wso5+cKkOvbC18D0&#xD;&#xa;wujK98KSRPvCJuP4wjQG+sKiBPrCG/H3wmSC+MIoDvrCzyv4wttP98Kk6vnC8Kb8wlJ1/cLqIfnC&#xD;&#xa;KUD2wich9sJcQ/fCgI34wjDF+MJ66vTCJvL1wsqu+sJCM/rC6MH5wkKd+8L+EfjC7P/2wlYo+sLc&#xD;&#xa;/fvC+LH6whbQ+sK8wvbCnrv1wmJB+sK8MPvCUsL3whhS+cKaHv3CuqP8wnrs+cLq7ffCrtv5wljC&#xD;&#xa;+MKw8PfCsmn5wjit+cKqdPbCMpj2wpir+MII5/XCPlP0wicU9sJ6RffCfMX4wu5O+MJ+YPbC6lf4&#xD;&#xa;ws54+cLE4PjCxr72wo6q+MKsOvjCmHb3wjIM+cLgyPjCFt33wlI5+cK0XPrCWLv3wlTy+MJ8CPjC&#xD;&#xa;sRz3woho9cKygPbCzKX3wszF98IQTvfCmYn1wmaC9sJu3PnCtnj5wpDg9sLAQ/bCIIn5wlrH+8Lm&#xD;&#xa;RfnCfJH5wsLE+cKId/rCTW/3wso298KMsPbC0Fb2wn029sK4G/rC4Nr7wuxE+sKAY/fCZDn4wh5q&#xD;&#xa;+cL4ifjCRqL1wl5G9sJCivfCbrX2wuZe9cKw4fXC2tz4wihd+8L8n/nCeo/6woJY+cKVnPXCmEv1&#xD;&#xa;wi+B98LIdvnCVAr8wvjH+8KsR/nCimz6wpBP+sIYCfrCIoT4wsp098ID1/bC4BP4wq6++MLqR/bC&#xD;&#xa;iA/2wkzX+MIubPvCQMD7wmjs+sJCX/fC0O/1wvb098IyiPnCxBP5woCi+MLvd/fC6jX4wrY/+sLu&#xD;&#xa;efnCACL4wpgG9cJa0fjCpHz5wh4T+sJsFPrCfm74wird+MJdSvfCY3n1wgYT9sKy8PjCZgX5wqQV&#xD;&#xa;+MIgAvfCYiz3whLv9cIQ7fXCCDz5wkzj+MIkYfnCUon3wlzU9cJge/fCW1P4wj9/9sJqVfXCAH31&#xD;&#xa;wiry9sJkfvjCXDD7wohq+sKeZvnCAVD3wpC69sJ7ZfjCWrb4wuIQ+MKEe/fCwAv5wjZE+cLucPjC&#xD;&#xa;Ssb5wjbt+sIKVvvCBDwFw3aVn8LLbpXCPImfwiSIpMIKRp3CDV2cwngPqcLOpKvC0SepwmRPpcKx&#xD;&#xa;nKLCWhqkwmU7qsK7GK7CPhKvwgU7sMKapK7CnPmtwv5IscI6q7jCXNS/wmXEw8IKYcfCcsfGwnS8&#xD;&#xa;yMJma8bCI1XJwpTvysIAzMTCNgXCwiy8wMJPd73CjrC9wkpov8JK477CJA25wpGcucLKLcDC7GbD&#xD;&#xa;wjK0xcISqcvCgs3KwlaRx8Lg4M3CPBvXwgDy1sK25tLCSO3SwgAw0sLQEdTCCrDXwrSI2cJHiNnC&#xD;&#xa;+vzZwg5t28IZv9jCJqvXwsew2cK+EdrCkgvawuIH2ML4PdfCOg/SwiKBzsIyws7CawjRwvAn1cLm&#xD;&#xa;5djC4lHXwlFF1sKMxdbCqRHbwgRB3cI9AdvCANnbwtL528LrFdzCT1nbwnbX28ICINvCbyPbwhCU&#xD;&#xa;2sJybtXC2KbVwpad1cJCtNHCaDDOwuJBzcLrs87CnM3OwkigzsIEwdHC7GbTwgqu0sL/ZNbCXsHY&#xD;&#xa;wtQ428Lc8dzCNITfwo+W4MLyYd7CyKHdwlY03cJW4N3C7MPcwiQ238Jiht/C2DTewq1N3sLGTt7C&#xD;&#xa;Cg7ewrTa3MJ+dN3C7kfdwmxX38Iiy97CD2rewl0848JWYOPClHDiwtKQ4cJR2ODC6JPdwj4w3sJB&#xD;&#xa;H9/C1UjfwqTY3cKM4trCG5HZwh8n3MKuZt/CC47fwhAt3MIWFd7Ci3newkyM38LKm+DCGlLewriz&#xD;&#xa;38IWwODC8jfewg6538I9gN3C+rzcwnp83sLBAeDCzsrewocf4cIIz9/CxczewhJ64cLYr+PCQPHg&#xD;&#xa;wjlj4cL0tOTC02ziwh1c38L2nt7CMn/fwsLc4cLuz+PCbsLjwlzo4MJ0Bt7C2A7cwvo+3MLcA97C&#xD;&#xa;VBvcwiJt3MJrh+DCooTewtt33cLaYNvCxuzbwhix2sKiddzCKpngwgac38LMD+HCG2Hewv3U3cLv&#xD;&#xa;yNzCgRXfwo404cIwi+DCDh3fwqUH38I6m9/CRcfhwvzs4sLCJeTCFBXiwvsM4cL2x+HCckPhwlC+&#xD;&#xa;4MJcWuLCLhTjwh5K4sJWhuHCdWjjwl515MK2j+PCar3gwmwM4MLS0+HC+aDhwgzg4MKLmODCIHbj&#xD;&#xa;wrwr5sKLAeXChqzjwugc4cLMTODCAZDjwkQA48KsveLCKv7iwuAZ4sLK7ODC2hPiwmS25MI8mOXC&#xD;&#xa;YPPlwnLc5MKpkeTCdHziwry84sL6RubC0IPlwlCp4MIuG+HCgGrjwsie4cL48uHCiLPjwu4548J8&#xD;&#xa;4eTCN6Hhws/K48IRx+jCPjznwtJD5MKQOubCwlznwj476sKNo+vCanfvwhNn7cI2QenChtnpwj9w&#xD;&#xa;7MI8dOnCDvnowuRV6MIWMejC5kvwwmgM8cL+ve/Ckpvywn4788KESe/CWCXvwk7m8MLa6fHCXkn0&#xD;&#xa;wiS48sKqvvTCIjL1wt0W9cIWBfPCJorswubo6cLlWunCorvrwtZK7cIC8evC5JXrwpAS6sKzEOnC&#xD;&#xa;qtLowrB66cIEG+nC8pDnwkqd6MJ+V+nCd7DrwgB68sJyGPjCVh/4wjwh+MIsZ/nCpCP6wrCs+MIG&#xD;&#xa;H/jCkKH5wgLL98KwiPjCdEv3wvPo9sLx7PTCevr2wpv798LQH/fCS/L1wgO198Iy3/rCvIb6woao&#xD;&#xa;+cJiVfvC/LL7wrwn+cJSCvbCXJ72wuRg+MIAhvjCINb2wgC7+MLObvjChLL3wvbN+MKcsPfCM0z3&#xD;&#xa;wg7x+MK0jfrC4gL6wn5n98Kne/XCVxP3wgYD9sIezPbCsJP6whB7+8KtgvfC3oL2wpZS98LmdfjC&#xD;&#xa;7mv4wqzC98I6JfbCra/2wv7D9cKCEfbCNhr6wnym+sLwkvjCyID3wlC7+MIGhPnCqm/5wg7z+cIq&#xD;&#xa;GfrC8vz3wnJC9sJ+1PfCcMX3wq5e+MKY0ffCUpL4wrsS+MJomffCspr4wqwD98JgIvnCRpj5wrhr&#xD;&#xa;+MKOEPrC3DT5wjLN98KA6fjCwHj3wp5f9MKeBvXCEUL2wlwn+cIKVPnCwOP4wqgg9sIQXfXCh3T3&#xD;&#xa;wuSz+MIUsvXCyvHzwvYY98IioPjCXIf4wkBN+sJclPrCEML0wtfm9sI2hPvCdmv7wmgq+8LuqffC&#xD;&#xa;pmn1wr1X9cKQEPTCxUXzwpjz9cJUyfXC25/1wtjM+MJKG/vCElv4wigp98Ku+vbCuID3wgCp9sLg&#xD;&#xa;fPbCVnv5wt5S/MKW5/vCSM/6wqp/+8K03f3C0tr7wsiD+cJwuPfCttn2wng79sK4EfjCIBX7wqhS&#xD;&#xa;+MInsffCMu32wiM19cJDg/TCxH33wgqa+MJwPvvC0MT4wrBx98KoXPfCilH0wkBG9cKMtfjCzWn1&#xD;&#xa;wo6898Je3/nCeFr6wlK/98Jj6PfCevX6wqqL+MJBIfjCiHz5wqqU+MICR/fC9u74wgbu+ML6p/fC&#xD;&#xa;n1X4wlkG+MKYZfrC0MT6whwi98LwPPXCJN/4wgy098Le9PfCMgj3whpG9sISDvXCwFf2ws/898Ka&#xD;&#xa;LPnCvST4wk8+9sIsKfXCdun2wiOn9cKmYPfCJED6wh4z+sLBDvjC1fD2wgQm9sL+qPbC4E70wtB3&#xD;&#xa;9sLIOvvCRkr6wmsp98J4wvfCzEj4wuTd9sIkMvnCoiP5wmm19sKPdvfCYtL3wpRy9cJGCPbC/5D2&#xD;&#xa;wsjX9sJiDPjC2sj5wl8v+MIqTPfCsqz0wjRX9MIv//fC7nf6wvpO+sKIhvnC4oP4wqb898K0wPbC&#xD;&#xa;3n72wsEL9cKk+vTCpJgC" leadInLength="0/1"  />
            </Keyframes>
           </Parameter>
           </Parameters>
           <MetaData>
            <entry key="effectIndex" val="2"/>
           </MetaData>
          </GenericEffect>
         </Effects>
         <Attributes>
          <Attribute id="5144" value="" name="ident"/>
          <Attribute id="5145" value="0" name="mixToMono"/>
         </Attributes>
         <MetaData>
          <entry key="AutoAppliedSmartFocus" val="False"/>
          <entry key="WinSubProjectDisplayName" val=""/>
         </MetaData>
         <ExtraData>
          <Entry key="ZoomPanBin">
           <ZoomPanBin id="5146"  >
            <ZoomPanKeyframes>
             <ZoomPanKeyframe id="5147" timeRangeEnd="-9999999/1" timeRangeDuration="0/1" interpolaterName=""  />
            </ZoomPanKeyframes>
           </ZoomPanBin>
          </Entry>
          <Entry key="CursorEffectBin">
           <CursorEffectBin id="5148"  >
            <CursorEffectKeyframes>
             <CursorEffectKeyframe id="5149" timeRangeEnd="-9999999/1" timeRangeDuration="0/1" interpolaterName=""  />
            </CursorEffectKeyframes>
           </CursorEffectBin>
          </Entry>
         </ExtraData>
         <GenericTrack id="5150"  >
          <Attributes>
           <Attribute id="5151" value="" name="ident"/>
           <Attribute id="5152" value="0" name="audioMuted"/>
           <Attribute id="5153" value="0" name="videoHidden"/>
          </Attributes>
          <MetaData>
           <entry key="IsLocked" val="False"/>
           <entry key="WinTrackHeight" val="0"/>
          </MetaData>
          <Medias>
           <UnifiedMedia id="5154"  >
            <AMFile id="5155" start="0" duration="802" scalar="1/1" mediaStart="0/1" mediaDuration="802/1" trackNumber="1" src="4" channelNumber="0,1" >
             <Parameters>
              <InterpolatingParam id="5156" interp="linr"  time="0/1" value="1" leadInLength="0/1"  name="volume"/>
              <Parameter id="5157"  name="captions"/>
             </Parameters>
             <Attributes>
              <Attribute id="5158" value="" name="ident"/>
              <Attribute id="5159" value="44100" name="sampleRate"/>
              <Attribute id="5160" value="16" name="bitDepth"/>
              <Attribute id="5161" value="1" name="gain"/>
              <Attribute id="5162" value="0" name="mixToMono"/>
             </Attributes>
            </AMFile>
            <ScreenVMFile id="5163" start="0" duration="802" scalar="1/1" mediaStart="0/1" mediaDuration="802/1" trackNumber="0" src="4" >
             <Transformer>
              <VectorParam id="5164"  name="translation">
               <InterpolatingParam id="5165" interp="linr"  time="-9999999/1" value="0" leadInLength="0/1"  />
               <InterpolatingParam id="5166" interp="linr"  time="-9999999/1" value="0" leadInLength="0/1"  />
               <InterpolatingParam id="5167" interp="linr"  time="-9999999/1" value="0" leadInLength="0/1"  />
              </VectorParam>
              <VectorParam id="5168"  name="rotation">
               <InterpolatingParam id="5169" interp="linr"  time="-9999999/1" value="0" leadInLength="0/1"  />
               <InterpolatingParam id="5170" interp="linr"  time="-9999999/1" value="0" leadInLength="0/1"  />
               <InterpolatingParam id="5171" interp="linr"  time="-9999999/1" value="0" leadInLength="0/1"  />
              </VectorParam>
              <VectorParam id="5172"  name="shear">
               <InterpolatingParam id="5173" interp="linr"  time="-9999999/1" value="0" leadInLength="0/1"  />
               <InterpolatingParam id="5174" interp="linr"  time="-9999999/1" value="0" leadInLength="0/1"  />
               <InterpolatingParam id="5175" interp="linr"  time="-9999999/1" value="0" leadInLength="0/1"  />
              </VectorParam>
              <VectorParam id="5176"  name="scale">
               <InterpolatingParam id="5177" interp="linr"  time="-9999999/1" value="1" leadInLength="0/1"  />
               <InterpolatingParam id="5178" interp="linr"  time="-9999999/1" value="1" leadInLength="0/1"  />
               <InterpolatingParam id="5179" interp="linr"  time="-9999999/1" value="1" leadInLength="0/1"  />
              </VectorParam>
              <VectorParam id="5180"  name="anchor">
               <InterpolatingParam id="5181" interp="linr"  time="0/1" value="0" leadInLength="0/1"  />
               <InterpolatingParam id="5182" interp="linr"  time="0/1" value="0" leadInLength="0/1"  />
               <InterpolatingParam id="5183" interp="linr"  time="0/1" value="0" leadInLength="0/1"  />
              </VectorParam>
             </Transformer>
             <Parameters>
              <VectorParam id="5184"  name="sourceCrop">
               <InterpolatingParam id="5185" interp="linr"  time="0/1" value="0" leadInLength="0/1"  />
               <InterpolatingParam id="5186" interp="linr"  time="0/1" value="0" leadInLength="0/1"  />
               <InterpolatingParam id="5187" interp="linr"  time="0/1" value="0" leadInLength="0/1"  />
               <InterpolatingParam id="5188" interp="linr"  time="0/1" value="0" leadInLength="0/1"  />
              </VectorParam>
              <VectorParam id="5189"  name="geometryCrop">
               <InterpolatingParam id="5190" interp="linr"  time="-9999999/1" value="0" leadInLength="0/1"  />
               <InterpolatingParam id="5191" interp="linr"  time="-9999999/1" value="0" leadInLength="0/1"  />
               <InterpolatingParam id="5192" interp="linr"  time="-9999999/1" value="0" leadInLength="0/1"  />
               <InterpolatingParam id="5193" interp="linr"  time="-9999999/1" value="0" leadInLength="0/1"  />
              </VectorParam>
              <InterpolatingParam id="5194" interp="linr"  time="-9999999/1" value="1" leadInLength="0/1"  name="opacity"/>
              <InterpolatingParam id="5195" interp="linr"  time="0/1" value="0" leadInLength="0/1"  name="cursorOpacity"/>
              <InterpolatingParam id="5196" interp="linr"  time="0/1" value="0" leadInLength="0/1"  name="cursorScale"/>
             </Parameters>
             <Attributes>
              <Attribute id="5197" value="" name="ident"/>
             </Attributes>
             <ExtraData>
              <Entry key="ZoomPanBin">
               <ZoomPanBin id="5198"  >
                <ZoomPanKeyframes>
                 <ZoomPanKeyframe id="5199" timeRangeEnd="-9999999/1" timeRangeDuration="0/1" interpolaterName=""  />
                </ZoomPanKeyframes>
               </ZoomPanBin>
              </Entry>
              <Entry key="CursorEffectBin">
               <CursorEffectBin id="5200"  >
                <CursorEffectKeyframes>
                </CursorEffectKeyframes>
               </CursorEffectBin>
              </Entry>
             </ExtraData>
            </ScreenVMFile>
            <MetaData>
             <entry key="AutoAppliedSmartFocus" val="False"/>
             <entry key="WinSubProjectDisplayName" val=""/>
            </MetaData>
           </UnifiedMedia>
           <UnifiedMedia id="5201"  >
            <AMFile id="5202" start="802" duration="158" scalar="1/1" mediaStart="892/1" mediaDuration="158/1" trackNumber="1" src="4" channelNumber="0,1" >
             <Parameters>
              <InterpolatingParam id="5203" interp="linr"  time="0/1" value="1" leadInLength="0/1"  name="volume"/>
              <Parameter id="5204"  name="captions"/>
             </Parameters>
             <Attributes>
              <Attribute id="5205" value="" name="ident"/>
              <Attribute id="5206" value="44100" name="sampleRate"/>
              <Attribute id="5207" value="16" name="bitDepth"/>
              <Attribute id="5208" value="1" name="gain"/>
              <Attribute id="5209" value="0" name="mixToMono"/>
             </Attributes>
            </AMFile>
            <ScreenVMFile id="5210" start="802" duration="158" scalar="1/1" mediaStart="892/1" mediaDuration="158/1" trackNumber="0" src="4" >
             <Transformer>
              <VectorParam id="5211"  name="translation">
               <InterpolatingParam id="5212" interp="linr"  time="-9999999/1" value="0" leadInLength="0/1"  />
               <InterpolatingParam id="5213" interp="linr"  time="-9999999/1" value="0" leadInLength="0/1"  />
               <InterpolatingParam id="5214" interp="linr"  time="-9999999/1" value="0" leadInLength="0/1"  />
              </VectorParam>
              <VectorParam id="5215"  name="rotation">
               <InterpolatingParam id="5216" interp="linr"  time="-9999999/1" value="0" leadInLength="0/1"  />
               <InterpolatingParam id="5217" interp="linr"  time="-9999999/1" value="0" leadInLength="0/1"  />
               <InterpolatingParam id="5218" interp="linr"  time="-9999999/1" value="0" leadInLength="0/1"  />
              </VectorParam>
              <VectorParam id="5219"  name="shear">
               <InterpolatingParam id="5220" interp="linr"  time="-9999999/1" value="0" leadInLength="0/1"  />
               <InterpolatingParam id="5221" interp="linr"  time="-9999999/1" value="0" leadInLength="0/1"  />
               <InterpolatingParam id="5222" interp="linr"  time="-9999999/1" value="0" leadInLength="0/1"  />
              </VectorParam>
              <VectorParam id="5223"  name="scale">
               <InterpolatingParam id="5224" interp="linr"  time="-9999999/1" value="1" leadInLength="0/1"  />
               <InterpolatingParam id="5225" interp="linr"  time="-9999999/1" value="1" leadInLength="0/1"  />
               <InterpolatingParam id="5226" interp="linr"  time="-9999999/1" value="1" leadInLength="0/1"  />
              </VectorParam>
              <VectorParam id="5227"  name="anchor">
               <InterpolatingParam id="5228" interp="linr"  time="0/1" value="0" leadInLength="0/1"  />
               <InterpolatingParam id="5229" interp="linr"  time="0/1" value="0" leadInLength="0/1"  />
               <InterpolatingParam id="5230" interp="linr"  time="0/1" value="0" leadInLength="0/1"  />
              </VectorParam>
             </Transformer>
             <Parameters>
              <VectorParam id="5231"  name="sourceCrop">
               <InterpolatingParam id="5232" interp="linr"  time="0/1" value="0" leadInLength="0/1"  />
               <InterpolatingParam id="5233" interp="linr"  time="0/1" value="0" leadInLength="0/1"  />
               <InterpolatingParam id="5234" interp="linr"  time="0/1" value="0" leadInLength="0/1"  />
               <InterpolatingParam id="5235" interp="linr"  time="0/1" value="0" leadInLength="0/1"  />
              </VectorParam>
              <VectorParam id="5236"  name="geometryCrop">
               <InterpolatingParam id="5237" interp="linr"  time="-9999999/1" value="0" leadInLength="0/1"  />
               <InterpolatingParam id="5238" interp="linr"  time="-9999999/1" value="0" leadInLength="0/1"  />
               <InterpolatingParam id="5239" interp="linr"  time="-9999999/1" value="0" leadInLength="0/1"  />
               <InterpolatingParam id="5240" interp="linr"  time="-9999999/1" value="0" leadInLength="0/1"  />
              </VectorParam>
              <InterpolatingParam id="5241" interp="linr"  time="-9999999/1" value="1" leadInLength="0/1"  name="opacity"/>
              <InterpolatingParam id="5242" interp="linr"  time="0/1" value="0" leadInLength="0/1"  name="cursorOpacity"/>
              <InterpolatingParam id="5243" interp="linr"  time="0/1" value="0" leadInLength="0/1"  name="cursorScale"/>
             </Parameters>
             <Attributes>
              <Attribute id="5244" value="" name="ident"/>
             </Attributes>
             <ExtraData>
              <Entry key="ZoomPanBin">
               <ZoomPanBin id="5245"  >
                <ZoomPanKeyframes>
                 <ZoomPanKeyframe id="5246" timeRangeEnd="-9999999/1" timeRangeDuration="0/1" interpolaterName=""  />
                </ZoomPanKeyframes>
               </ZoomPanBin>
              </Entry>
              <Entry key="CursorEffectBin">
               <CursorEffectBin id="5247"  >
                <CursorEffectKeyframes>
                </CursorEffectKeyframes>
               </CursorEffectBin>
              </Entry>
             </ExtraData>
            </ScreenVMFile>
            <MetaData>
             <entry key="AutoAppliedSmartFocus" val="False"/>
             <entry key="WinSubProjectDisplayName" val=""/>
            </MetaData>
           </UnifiedMedia>
           <UnifiedMedia id="5248"  >
            <AMFile id="5249" start="960" duration="202" scalar="1/1" mediaStart="1118/1" mediaDuration="202/1" trackNumber="1" src="4" channelNumber="0,1" >
             <Parameters>
              <InterpolatingParam id="5250" interp="linr"  time="0/1" value="1" leadInLength="0/1"  name="volume"/>
              <Parameter id="5251"  name="captions"/>
             </Parameters>
             <Attributes>
              <Attribute id="5252" value="" name="ident"/>
              <Attribute id="5253" value="44100" name="sampleRate"/>
              <Attribute id="5254" value="16" name="bitDepth"/>
              <Attribute id="5255" value="1" name="gain"/>
              <Attribute id="5256" value="0" name="mixToMono"/>
             </Attributes>
            </AMFile>
            <ScreenVMFile id="5257" start="960" duration="202" scalar="1/1" mediaStart="1118/1" mediaDuration="202/1" trackNumber="0" src="4" >
             <Transformer>
              <VectorParam id="5258"  name="translation">
               <InterpolatingParam id="5259" interp="linr"  time="-9999999/1" value="0" leadInLength="0/1"  />
               <InterpolatingParam id="5260" interp="linr"  time="-9999999/1" value="0" leadInLength="0/1"  />
               <InterpolatingParam id="5261" interp="linr"  time="-9999999/1" value="0" leadInLength="0/1"  />
              </VectorParam>
              <VectorParam id="5262"  name="rotation">
               <InterpolatingParam id="5263" interp="linr"  time="-9999999/1" value="0" leadInLength="0/1"  />
               <InterpolatingParam id="5264" interp="linr"  time="-9999999/1" value="0" leadInLength="0/1"  />
               <InterpolatingParam id="5265" interp="linr"  time="-9999999/1" value="0" leadInLength="0/1"  />
              </VectorParam>
              <VectorParam id="5266"  name="shear">
               <InterpolatingParam id="5267" interp="linr"  time="-9999999/1" value="0" leadInLength="0/1"  />
               <InterpolatingParam id="5268" interp="linr"  time="-9999999/1" value="0" leadInLength="0/1"  />
               <InterpolatingParam id="5269" interp="linr"  time="-9999999/1" value="0" leadInLength="0/1"  />
              </VectorParam>
              <VectorParam id="5270"  name="scale">
               <InterpolatingParam id="5271" interp="linr"  time="-9999999/1" value="1" leadInLength="0/1"  />
               <InterpolatingParam id="5272" interp="linr"  time="-9999999/1" value="1" leadInLength="0/1"  />
               <InterpolatingParam id="5273" interp="linr"  time="-9999999/1" value="1" leadInLength="0/1"  />
              </VectorParam>
              <VectorParam id="5274"  name="anchor">
               <InterpolatingParam id="5275" interp="linr"  time="0/1" value="0" leadInLength="0/1"  />
               <InterpolatingParam id="5276" interp="linr"  time="0/1" value="0" leadInLength="0/1"  />
               <InterpolatingParam id="5277" interp="linr"  time="0/1" value="0" leadInLength="0/1"  />
              </VectorParam>
             </Transformer>
             <Parameters>
              <VectorParam id="5278"  name="sourceCrop">
               <InterpolatingParam id="5279" interp="linr"  time="0/1" value="0" leadInLength="0/1"  />
               <InterpolatingParam id="5280" interp="linr"  time="0/1" value="0" leadInLength="0/1"  />
               <InterpolatingParam id="5281" interp="linr"  time="0/1" value="0" leadInLength="0/1"  />
               <InterpolatingParam id="5282" interp="linr"  time="0/1" value="0" leadInLength="0/1"  />
              </VectorParam>
              <VectorParam id="5283"  name="geometryCrop">
               <InterpolatingParam id="5284" interp="linr"  time="-9999999/1" value="0" leadInLength="0/1"  />
               <InterpolatingParam id="5285" interp="linr"  time="-9999999/1" value="0" leadInLength="0/1"  />
               <InterpolatingParam id="5286" interp="linr"  time="-9999999/1" value="0" leadInLength="0/1"  />
               <InterpolatingParam id="5287" interp="linr"  time="-9999999/1" value="0" leadInLength="0/1"  />
              </VectorParam>
              <InterpolatingParam id="5288" interp="linr"  time="-9999999/1" value="1" leadInLength="0/1"  name="opacity"/>
              <InterpolatingParam id="5289" interp="linr"  time="0/1" value="0" leadInLength="0/1"  name="cursorOpacity"/>
              <InterpolatingParam id="5290" interp="linr"  time="0/1" value="0" leadInLength="0/1"  name="cursorScale"/>
             </Parameters>
             <Attributes>
              <Attribute id="5291" value="" name="ident"/>
             </Attributes>
             <ExtraData>
              <Entry key="ZoomPanBin">
               <ZoomPanBin id="5292"  >
                <ZoomPanKeyframes>
                 <ZoomPanKeyframe id="5293" timeRangeEnd="-9999999/1" timeRangeDuration="0/1" interpolaterName=""  />
                </ZoomPanKeyframes>
               </ZoomPanBin>
              </Entry>
              <Entry key="CursorEffectBin">
               <CursorEffectBin id="5294"  >
                <CursorEffectKeyframes>
                </CursorEffectKeyframes>
               </CursorEffectBin>
              </Entry>
             </ExtraData>
            </ScreenVMFile>
            <MetaData>
             <entry key="AutoAppliedSmartFocus" val="False"/>
             <entry key="WinSubProjectDisplayName" val=""/>
            </MetaData>
           </UnifiedMedia>
           <UnifiedMedia id="5295"  >
            <AMFile id="5296" start="1162" duration="51" scalar="1/1" mediaStart="1334/1" mediaDuration="51/1" trackNumber="1" src="4" channelNumber="0,1" >
             <Parameters>
              <InterpolatingParam id="5297" interp="linr"  time="0/1" value="1" leadInLength="0/1"  name="volume"/>
              <Parameter id="5298"  name="captions"/>
             </Parameters>
             <Attributes>
              <Attribute id="5299" value="" name="ident"/>
              <Attribute id="5300" value="44100" name="sampleRate"/>
              <Attribute id="5301" value="16" name="bitDepth"/>
              <Attribute id="5302" value="1" name="gain"/>
              <Attribute id="5303" value="0" name="mixToMono"/>
             </Attributes>
            </AMFile>
            <ScreenVMFile id="5304" start="1162" duration="51" scalar="1/1" mediaStart="1334/1" mediaDuration="51/1" trackNumber="0" src="4" >
             <Transformer>
              <VectorParam id="5305"  name="translation">
               <InterpolatingParam id="5306" interp="linr"  time="-9999999/1" value="0" leadInLength="0/1"  />
               <InterpolatingParam id="5307" interp="linr"  time="-9999999/1" value="0" leadInLength="0/1"  />
               <InterpolatingParam id="5308" interp="linr"  time="-9999999/1" value="0" leadInLength="0/1"  />
              </VectorParam>
              <VectorParam id="5309"  name="rotation">
               <InterpolatingParam id="5310" interp="linr"  time="-9999999/1" value="0" leadInLength="0/1"  />
               <InterpolatingParam id="5311" interp="linr"  time="-9999999/1" value="0" leadInLength="0/1"  />
               <InterpolatingParam id="5312" interp="linr"  time="-9999999/1" value="0" leadInLength="0/1"  />
              </VectorParam>
              <VectorParam id="5313"  name="shear">
               <InterpolatingParam id="5314" interp="linr"  time="-9999999/1" value="0" leadInLength="0/1"  />
               <InterpolatingParam id="5315" interp="linr"  time="-9999999/1" value="0" leadInLength="0/1"  />
               <InterpolatingParam id="5316" interp="linr"  time="-9999999/1" value="0" leadInLength="0/1"  />
              </VectorParam>
              <VectorParam id="5317"  name="scale">
               <InterpolatingParam id="5318" interp="linr"  time="-9999999/1" value="1" leadInLength="0/1"  />
               <InterpolatingParam id="5319" interp="linr"  time="-9999999/1" value="1" leadInLength="0/1"  />
               <InterpolatingParam id="5320" interp="linr"  time="-9999999/1" value="1" leadInLength="0/1"  />
              </VectorParam>
              <VectorParam id="5321"  name="anchor">
               <InterpolatingParam id="5322" interp="linr"  time="0/1" value="0" leadInLength="0/1"  />
               <InterpolatingParam id="5323" interp="linr"  time="0/1" value="0" leadInLength="0/1"  />
               <InterpolatingParam id="5324" interp="linr"  time="0/1" value="0" leadInLength="0/1"  />
              </VectorParam>
             </Transformer>
             <Parameters>
              <VectorParam id="5325"  name="sourceCrop">
               <InterpolatingParam id="5326" interp="linr"  time="0/1" value="0" leadInLength="0/1"  />
               <InterpolatingParam id="5327" interp="linr"  time="0/1" value="0" leadInLength="0/1"  />
               <InterpolatingParam id="5328" interp="linr"  time="0/1" value="0" leadInLength="0/1"  />
               <InterpolatingParam id="5329" interp="linr"  time="0/1" value="0" leadInLength="0/1"  />
              </VectorParam>
              <VectorParam id="5330"  name="geometryCrop">
               <InterpolatingParam id="5331" interp="linr"  time="-9999999/1" value="0" leadInLength="0/1"  />
               <InterpolatingParam id="5332" interp="linr"  time="-9999999/1" value="0" leadInLength="0/1"  />
               <InterpolatingParam id="5333" interp="linr"  time="-9999999/1" value="0" leadInLength="0/1"  />
               <InterpolatingParam id="5334" interp="linr"  time="-9999999/1" value="0" leadInLength="0/1"  />
              </VectorParam>
              <InterpolatingParam id="5335" interp="linr"  time="-9999999/1" value="1" leadInLength="0/1"  name="opacity"/>
              <InterpolatingParam id="5336" interp="linr"  time="0/1" value="0" leadInLength="0/1"  name="cursorOpacity"/>
              <InterpolatingParam id="5337" interp="linr"  time="0/1" value="0" leadInLength="0/1"  name="cursorScale"/>
             </Parameters>
             <Attributes>
              <Attribute id="5338" value="" name="ident"/>
             </Attributes>
             <ExtraData>
              <Entry key="ZoomPanBin">
               <ZoomPanBin id="5339"  >
                <ZoomPanKeyframes>
                 <ZoomPanKeyframe id="5340" timeRangeEnd="-9999999/1" timeRangeDuration="0/1" interpolaterName=""  />
                </ZoomPanKeyframes>
               </ZoomPanBin>
              </Entry>
              <Entry key="CursorEffectBin">
               <CursorEffectBin id="5341"  >
                <CursorEffectKeyframes>
                </CursorEffectKeyframes>
               </CursorEffectBin>
              </Entry>
             </ExtraData>
            </ScreenVMFile>
            <MetaData>
             <entry key="AutoAppliedSmartFocus" val="False"/>
             <entry key="WinSubProjectDisplayName" val=""/>
            </MetaData>
           </UnifiedMedia>
           <UnifiedMedia id="5342"  >
            <AMFile id="5343" start="1213" duration="159" scalar="1/1" mediaStart="1396/1" mediaDuration="159/1" trackNumber="1" src="4" channelNumber="0,1" >
             <Parameters>
              <InterpolatingParam id="5344" interp="linr"  time="0/1" value="1" leadInLength="0/1"  name="volume"/>
              <Parameter id="5345"  name="captions"/>
             </Parameters>
             <Attributes>
              <Attribute id="5346" value="" name="ident"/>
              <Attribute id="5347" value="44100" name="sampleRate"/>
              <Attribute id="5348" value="16" name="bitDepth"/>
              <Attribute id="5349" value="1" name="gain"/>
              <Attribute id="5350" value="0" name="mixToMono"/>
             </Attributes>
            </AMFile>
            <ScreenVMFile id="5351" start="1213" duration="159" scalar="1/1" mediaStart="1396/1" mediaDuration="159/1" trackNumber="0" src="4" >
             <Transformer>
              <VectorParam id="5352"  name="translation">
               <InterpolatingParam id="5353" interp="linr"  time="-9999999/1" value="0" leadInLength="0/1"  />
               <InterpolatingParam id="5354" interp="linr"  time="-9999999/1" value="0" leadInLength="0/1"  />
               <InterpolatingParam id="5355" interp="linr"  time="-9999999/1" value="0" leadInLength="0/1"  />
              </VectorParam>
              <VectorParam id="5356"  name="rotation">
               <InterpolatingParam id="5357" interp="linr"  time="-9999999/1" value="0" leadInLength="0/1"  />
               <InterpolatingParam id="5358" interp="linr"  time="-9999999/1" value="0" leadInLength="0/1"  />
               <InterpolatingParam id="5359" interp="linr"  time="-9999999/1" value="0" leadInLength="0/1"  />
              </VectorParam>
              <VectorParam id="5360"  name="shear">
               <InterpolatingParam id="5361" interp="linr"  time="-9999999/1" value="0" leadInLength="0/1"  />
               <InterpolatingParam id="5362" interp="linr"  time="-9999999/1" value="0" leadInLength="0/1"  />
               <InterpolatingParam id="5363" interp="linr"  time="-9999999/1" value="0" leadInLength="0/1"  />
              </VectorParam>
              <VectorParam id="5364"  name="scale">
               <InterpolatingParam id="5365" interp="linr"  time="-9999999/1" value="1" leadInLength="0/1"  />
               <InterpolatingParam id="5366" interp="linr"  time="-9999999/1" value="1" leadInLength="0/1"  />
               <InterpolatingParam id="5367" interp="linr"  time="-9999999/1" value="1" leadInLength="0/1"  />
              </VectorParam>
              <VectorParam id="5368"  name="anchor">
               <InterpolatingParam id="5369" interp="linr"  time="0/1" value="0" leadInLength="0/1"  />
               <InterpolatingParam id="5370" interp="linr"  time="0/1" value="0" leadInLength="0/1"  />
               <InterpolatingParam id="5371" interp="linr"  time="0/1" value="0" leadInLength="0/1"  />
              </VectorParam>
             </Transformer>
             <Parameters>
              <VectorParam id="5372"  name="sourceCrop">
               <InterpolatingParam id="5373" interp="linr"  time="0/1" value="0" leadInLength="0/1"  />
               <InterpolatingParam id="5374" interp="linr"  time="0/1" value="0" leadInLength="0/1"  />
               <InterpolatingParam id="5375" interp="linr"  time="0/1" value="0" leadInLength="0/1"  />
               <InterpolatingParam id="5376" interp="linr"  time="0/1" value="0" leadInLength="0/1"  />
              </VectorParam>
              <VectorParam id="5377"  name="geometryCrop">
               <InterpolatingParam id="5378" interp="linr"  time="-9999999/1" value="0" leadInLength="0/1"  />
               <InterpolatingParam id="5379" interp="linr"  time="-9999999/1" value="0" leadInLength="0/1"  />
               <InterpolatingParam id="5380" interp="linr"  time="-9999999/1" value="0" leadInLength="0/1"  />
               <InterpolatingParam id="5381" interp="linr"  time="-9999999/1" value="0" leadInLength="0/1"  />
              </VectorParam>
              <InterpolatingParam id="5382" interp="linr"  time="-9999999/1" value="1" leadInLength="0/1"  name="opacity"/>
              <InterpolatingParam id="5383" interp="linr"  time="0/1" value="0" leadInLength="0/1"  name="cursorOpacity"/>
              <InterpolatingParam id="5384" interp="linr"  time="0/1" value="0" leadInLength="0/1"  name="cursorScale"/>
             </Parameters>
             <Attributes>
              <Attribute id="5385" value="" name="ident"/>
             </Attributes>
             <ExtraData>
              <Entry key="ZoomPanBin">
               <ZoomPanBin id="5386"  >
                <ZoomPanKeyframes>
                 <ZoomPanKeyframe id="5387" timeRangeEnd="-9999999/1" timeRangeDuration="0/1" interpolaterName=""  />
                </ZoomPanKeyframes>
               </ZoomPanBin>
              </Entry>
              <Entry key="CursorEffectBin">
               <CursorEffectBin id="5388"  >
                <CursorEffectKeyframes>
                </CursorEffectKeyframes>
               </CursorEffectBin>
              </Entry>
             </ExtraData>
            </ScreenVMFile>
            <MetaData>
             <entry key="AutoAppliedSmartFocus" val="False"/>
             <entry key="WinSubProjectDisplayName" val=""/>
            </MetaData>
           </UnifiedMedia>
           <UnifiedMedia id="5389"  >
            <AMFile id="5390" start="1372" duration="37" scalar="1/1" mediaStart="1563/1" mediaDuration="37/1" trackNumber="1" src="4" channelNumber="0,1" >
             <Parameters>
              <InterpolatingParam id="5391" interp="linr"  time="0/1" value="1" leadInLength="0/1"  name="volume"/>
              <Parameter id="5392"  name="captions"/>
             </Parameters>
             <Attributes>
              <Attribute id="5393" value="" name="ident"/>
              <Attribute id="5394" value="44100" name="sampleRate"/>
              <Attribute id="5395" value="16" name="bitDepth"/>
              <Attribute id="5396" value="1" name="gain"/>
              <Attribute id="5397" value="0" name="mixToMono"/>
             </Attributes>
            </AMFile>
            <ScreenVMFile id="5398" start="1372" duration="37" scalar="1/1" mediaStart="1563/1" mediaDuration="37/1" trackNumber="0" src="4" >
             <Transformer>
              <VectorParam id="5399"  name="translation">
               <InterpolatingParam id="5400" interp="linr"  time="-9999999/1" value="0" leadInLength="0/1"  />
               <InterpolatingParam id="5401" interp="linr"  time="-9999999/1" value="0" leadInLength="0/1"  />
               <InterpolatingParam id="5402" interp="linr"  time="-9999999/1" value="0" leadInLength="0/1"  />
              </VectorParam>
              <VectorParam id="5403"  name="rotation">
               <InterpolatingParam id="5404" interp="linr"  time="-9999999/1" value="0" leadInLength="0/1"  />
               <InterpolatingParam id="5405" interp="linr"  time="-9999999/1" value="0" leadInLength="0/1"  />
               <InterpolatingParam id="5406" interp="linr"  time="-9999999/1" value="0" leadInLength="0/1"  />
              </VectorParam>
              <VectorParam id="5407"  name="shear">
               <InterpolatingParam id="5408" interp="linr"  time="-9999999/1" value="0" leadInLength="0/1"  />
               <InterpolatingParam id="5409" interp="linr"  time="-9999999/1" value="0" leadInLength="0/1"  />
               <InterpolatingParam id="5410" interp="linr"  time="-9999999/1" value="0" leadInLength="0/1"  />
              </VectorParam>
              <VectorParam id="5411"  name="scale">
               <InterpolatingParam id="5412" interp="linr"  time="-9999999/1" value="1" leadInLength="0/1"  />
               <InterpolatingParam id="5413" interp="linr"  time="-9999999/1" value="1" leadInLength="0/1"  />
               <InterpolatingParam id="5414" interp="linr"  time="-9999999/1" value="1" leadInLength="0/1"  />
              </VectorParam>
              <VectorParam id="5415"  name="anchor">
               <InterpolatingParam id="5416" interp="linr"  time="0/1" value="0" leadInLength="0/1"  />
               <InterpolatingParam id="5417" interp="linr"  time="0/1" value="0" leadInLength="0/1"  />
               <InterpolatingParam id="5418" interp="linr"  time="0/1" value="0" leadInLength="0/1"  />
              </VectorParam>
             </Transformer>
             <Parameters>
              <VectorParam id="5419"  name="sourceCrop">
               <InterpolatingParam id="5420" interp="linr"  time="0/1" value="0" leadInLength="0/1"  />
               <InterpolatingParam id="5421" interp="linr"  time="0/1" value="0" leadInLength="0/1"  />
               <InterpolatingParam id="5422" interp="linr"  time="0/1" value="0" leadInLength="0/1"  />
               <InterpolatingParam id="5423" interp="linr"  time="0/1" value="0" leadInLength="0/1"  />
              </VectorParam>
              <VectorParam id="5424"  name="geometryCrop">
               <InterpolatingParam id="5425" interp="linr"  time="-9999999/1" value="0" leadInLength="0/1"  />
               <InterpolatingParam id="5426" interp="linr"  time="-9999999/1" value="0" leadInLength="0/1"  />
               <InterpolatingParam id="5427" interp="linr"  time="-9999999/1" value="0" leadInLength="0/1"  />
               <InterpolatingParam id="5428" interp="linr"  time="-9999999/1" value="0" leadInLength="0/1"  />
              </VectorParam>
              <InterpolatingParam id="5429" interp="linr"  time="-9999999/1" value="1" leadInLength="0/1"  name="opacity"/>
              <InterpolatingParam id="5430" interp="linr"  time="0/1" value="0" leadInLength="0/1"  name="cursorOpacity"/>
              <InterpolatingParam id="5431" interp="linr"  time="0/1" value="0" leadInLength="0/1"  name="cursorScale"/>
             </Parameters>
             <Attributes>
              <Attribute id="5432" value="" name="ident"/>
             </Attributes>
             <ExtraData>
              <Entry key="ZoomPanBin">
               <ZoomPanBin id="5433"  >
                <ZoomPanKeyframes>
                 <ZoomPanKeyframe id="5434" timeRangeEnd="-9999999/1" timeRangeDuration="0/1" interpolaterName=""  />
                </ZoomPanKeyframes>
               </ZoomPanBin>
              </Entry>
              <Entry key="CursorEffectBin">
               <CursorEffectBin id="5435"  >
                <CursorEffectKeyframes>
                </CursorEffectKeyframes>
               </CursorEffectBin>
              </Entry>
             </ExtraData>
            </ScreenVMFile>
            <MetaData>
             <entry key="AutoAppliedSmartFocus" val="False"/>
             <entry key="WinSubProjectDisplayName" val=""/>
            </MetaData>
           </UnifiedMedia>
           <UnifiedMedia id="5436"  >
            <AMFile id="5437" start="1409" duration="85" scalar="1/1" mediaStart="1610/1" mediaDuration="85/1" trackNumber="1" src="4" channelNumber="0,1" >
             <Parameters>
              <InterpolatingParam id="5438" interp="linr"  time="0/1" value="1" leadInLength="0/1"  name="volume"/>
              <Parameter id="5439"  name="captions"/>
             </Parameters>
             <Attributes>
              <Attribute id="5440" value="" name="ident"/>
              <Attribute id="5441" value="44100" name="sampleRate"/>
              <Attribute id="5442" value="16" name="bitDepth"/>
              <Attribute id="5443" value="1" name="gain"/>
              <Attribute id="5444" value="0" name="mixToMono"/>
             </Attributes>
            </AMFile>
            <ScreenVMFile id="5445" start="1409" duration="85" scalar="1/1" mediaStart="1610/1" mediaDuration="85/1" trackNumber="0" src="4" >
             <Transformer>
              <VectorParam id="5446"  name="translation">
               <InterpolatingParam id="5447" interp="linr"  time="-9999999/1" value="0" leadInLength="0/1"  />
               <InterpolatingParam id="5448" interp="linr"  time="-9999999/1" value="0" leadInLength="0/1"  />
               <InterpolatingParam id="5449" interp="linr"  time="-9999999/1" value="0" leadInLength="0/1"  />
              </VectorParam>
              <VectorParam id="5450"  name="rotation">
               <InterpolatingParam id="5451" interp="linr"  time="-9999999/1" value="0" leadInLength="0/1"  />
               <InterpolatingParam id="5452" interp="linr"  time="-9999999/1" value="0" leadInLength="0/1"  />
               <InterpolatingParam id="5453" interp="linr"  time="-9999999/1" value="0" leadInLength="0/1"  />
              </VectorParam>
              <VectorParam id="5454"  name="shear">
               <InterpolatingParam id="5455" interp="linr"  time="-9999999/1" value="0" leadInLength="0/1"  />
               <InterpolatingParam id="5456" interp="linr"  time="-9999999/1" value="0" leadInLength="0/1"  />
               <InterpolatingParam id="5457" interp="linr"  time="-9999999/1" value="0" leadInLength="0/1"  />
              </VectorParam>
              <VectorParam id="5458"  name="scale">
               <InterpolatingParam id="5459" interp="linr"  time="-9999999/1" value="1" leadInLength="0/1"  />
               <InterpolatingParam id="5460" interp="linr"  time="-9999999/1" value="1" leadInLength="0/1"  />
               <InterpolatingParam id="5461" interp="linr"  time="-9999999/1" value="1" leadInLength="0/1"  />
              </VectorParam>
              <VectorParam id="5462"  name="anchor">
               <InterpolatingParam id="5463" interp="linr"  time="0/1" value="0" leadInLength="0/1"  />
               <InterpolatingParam id="5464" interp="linr"  time="0/1" value="0" leadInLength="0/1"  />
               <InterpolatingParam id="5465" interp="linr"  time="0/1" value="0" leadInLength="0/1"  />
              </VectorParam>
             </Transformer>
             <Parameters>
              <VectorParam id="5466"  name="sourceCrop">
               <InterpolatingParam id="5467" interp="linr"  time="0/1" value="0" leadInLength="0/1"  />
               <InterpolatingParam id="5468" interp="linr"  time="0/1" value="0" leadInLength="0/1"  />
               <InterpolatingParam id="5469" interp="linr"  time="0/1" value="0" leadInLength="0/1"  />
               <InterpolatingParam id="5470" interp="linr"  time="0/1" value="0" leadInLength="0/1"  />
              </VectorParam>
              <VectorParam id="5471"  name="geometryCrop">
               <InterpolatingParam id="5472" interp="linr"  time="-9999999/1" value="0" leadInLength="0/1"  />
               <InterpolatingParam id="5473" interp="linr"  time="-9999999/1" value="0" leadInLength="0/1"  />
               <InterpolatingParam id="5474" interp="linr"  time="-9999999/1" value="0" leadInLength="0/1"  />
               <InterpolatingParam id="5475" interp="linr"  time="-9999999/1" value="0" leadInLength="0/1"  />
              </VectorParam>
              <InterpolatingParam id="5476" interp="linr"  time="-9999999/1" value="1" leadInLength="0/1"  name="opacity"/>
              <InterpolatingParam id="5477" interp="linr"  time="0/1" value="0" leadInLength="0/1"  name="cursorOpacity"/>
              <InterpolatingParam id="5478" interp="linr"  time="0/1" value="0" leadInLength="0/1"  name="cursorScale"/>
             </Parameters>
             <Attributes>
              <Attribute id="5479" value="" name="ident"/>
             </Attributes>
             <ExtraData>
              <Entry key="ZoomPanBin">
               <ZoomPanBin id="5480"  >
                <ZoomPanKeyframes>
                 <ZoomPanKeyframe id="5481" timeRangeEnd="-9999999/1" timeRangeDuration="0/1" interpolaterName=""  />
                </ZoomPanKeyframes>
               </ZoomPanBin>
              </Entry>
              <Entry key="CursorEffectBin">
               <CursorEffectBin id="5482"  >
                <CursorEffectKeyframes>
                </CursorEffectKeyframes>
               </CursorEffectBin>
              </Entry>
             </ExtraData>
            </ScreenVMFile>
            <MetaData>
             <entry key="AutoAppliedSmartFocus" val="False"/>
             <entry key="WinSubProjectDisplayName" val=""/>
            </MetaData>
           </UnifiedMedia>
           <UnifiedMedia id="5483"  >
            <AMFile id="5484" start="1494" duration="93" scalar="1/1" mediaStart="1708/1" mediaDuration="93/1" trackNumber="1" src="4" channelNumber="0,1" >
             <Parameters>
              <InterpolatingParam id="5485" interp="linr"  time="0/1" value="1" leadInLength="0/1"  name="volume"/>
              <Parameter id="5486"  name="captions"/>
             </Parameters>
             <Attributes>
              <Attribute id="5487" value="" name="ident"/>
              <Attribute id="5488" value="44100" name="sampleRate"/>
              <Attribute id="5489" value="16" name="bitDepth"/>
              <Attribute id="5490" value="1" name="gain"/>
              <Attribute id="5491" value="0" name="mixToMono"/>
             </Attributes>
            </AMFile>
            <ScreenVMFile id="5492" start="1494" duration="93" scalar="1/1" mediaStart="1708/1" mediaDuration="93/1" trackNumber="0" src="4" >
             <Transformer>
              <VectorParam id="5493"  name="translation">
               <InterpolatingParam id="5494" interp="linr"  time="-9999999/1" value="0" leadInLength="0/1"  />
               <InterpolatingParam id="5495" interp="linr"  time="-9999999/1" value="0" leadInLength="0/1"  />
               <InterpolatingParam id="5496" interp="linr"  time="-9999999/1" value="0" leadInLength="0/1"  />
              </VectorParam>
              <VectorParam id="5497"  name="rotation">
               <InterpolatingParam id="5498" interp="linr"  time="-9999999/1" value="0" leadInLength="0/1"  />
               <InterpolatingParam id="5499" interp="linr"  time="-9999999/1" value="0" leadInLength="0/1"  />
               <InterpolatingParam id="5500" interp="linr"  time="-9999999/1" value="0" leadInLength="0/1"  />
              </VectorParam>
              <VectorParam id="5501"  name="shear">
               <InterpolatingParam id="5502" interp="linr"  time="-9999999/1" value="0" leadInLength="0/1"  />
               <InterpolatingParam id="5503" interp="linr"  time="-9999999/1" value="0" leadInLength="0/1"  />
               <InterpolatingParam id="5504" interp="linr"  time="-9999999/1" value="0" leadInLength="0/1"  />
              </VectorParam>
              <VectorParam id="5505"  name="scale">
               <InterpolatingParam id="5506" interp="linr"  time="-9999999/1" value="1" leadInLength="0/1"  />
               <InterpolatingParam id="5507" interp="linr"  time="-9999999/1" value="1" leadInLength="0/1"  />
               <InterpolatingParam id="5508" interp="linr"  time="-9999999/1" value="1" leadInLength="0/1"  />
              </VectorParam>
              <VectorParam id="5509"  name="anchor">
               <InterpolatingParam id="5510" interp="linr"  time="0/1" value="0" leadInLength="0/1"  />
               <InterpolatingParam id="5511" interp="linr"  time="0/1" value="0" leadInLength="0/1"  />
               <InterpolatingParam id="5512" interp="linr"  time="0/1" value="0" leadInLength="0/1"  />
              </VectorParam>
             </Transformer>
             <Parameters>
              <VectorParam id="5513"  name="sourceCrop">
               <InterpolatingParam id="5514" interp="linr"  time="0/1" value="0" leadInLength="0/1"  />
               <InterpolatingParam id="5515" interp="linr"  time="0/1" value="0" leadInLength="0/1"  />
               <InterpolatingParam id="5516" interp="linr"  time="0/1" value="0" leadInLength="0/1"  />
               <InterpolatingParam id="5517" interp="linr"  time="0/1" value="0" leadInLength="0/1"  />
              </VectorParam>
              <VectorParam id="5518"  name="geometryCrop">
               <InterpolatingParam id="5519" interp="linr"  time="-9999999/1" value="0" leadInLength="0/1"  />
               <InterpolatingParam id="5520" interp="linr"  time="-9999999/1" value="0" leadInLength="0/1"  />
               <InterpolatingParam id="5521" interp="linr"  time="-9999999/1" value="0" leadInLength="0/1"  />
               <InterpolatingParam id="5522" interp="linr"  time="-9999999/1" value="0" leadInLength="0/1"  />
              </VectorParam>
              <InterpolatingParam id="5523" interp="linr"  time="-9999999/1" value="1" leadInLength="0/1"  name="opacity"/>
              <InterpolatingParam id="5524" interp="linr"  time="0/1" value="0" leadInLength="0/1"  name="cursorOpacity"/>
              <InterpolatingParam id="5525" interp="linr"  time="0/1" value="0" leadInLength="0/1"  name="cursorScale"/>
             </Parameters>
             <Attributes>
              <Attribute id="5526" value="" name="ident"/>
             </Attributes>
             <ExtraData>
              <Entry key="ZoomPanBin">
               <ZoomPanBin id="5527"  >
                <ZoomPanKeyframes>
                 <ZoomPanKeyframe id="5528" timeRangeEnd="-9999999/1" timeRangeDuration="0/1" interpolaterName=""  />
                </ZoomPanKeyframes>
               </ZoomPanBin>
              </Entry>
              <Entry key="CursorEffectBin">
               <CursorEffectBin id="5529"  >
                <CursorEffectKeyframes>
                </CursorEffectKeyframes>
               </CursorEffectBin>
              </Entry>
             </ExtraData>
            </ScreenVMFile>
            <MetaData>
             <entry key="AutoAppliedSmartFocus" val="False"/>
             <entry key="WinSubProjectDisplayName" val=""/>
            </MetaData>
           </UnifiedMedia>
           <UnifiedMedia id="5530"  >
            <AMFile id="5531" start="1587" duration="42" scalar="1/1" mediaStart="1914/1" mediaDuration="42/1" trackNumber="1" src="4" channelNumber="0,1" >
             <Parameters>
              <InterpolatingParam id="5532" interp="linr"  time="0/1" value="1" leadInLength="0/1"  name="volume"/>
              <Parameter id="5533"  name="captions"/>
             </Parameters>
             <Attributes>
              <Attribute id="5534" value="" name="ident"/>
              <Attribute id="5535" value="44100" name="sampleRate"/>
              <Attribute id="5536" value="16" name="bitDepth"/>
              <Attribute id="5537" value="1" name="gain"/>
              <Attribute id="5538" value="0" name="mixToMono"/>
             </Attributes>
            </AMFile>
            <ScreenVMFile id="5539" start="1587" duration="42" scalar="1/1" mediaStart="1914/1" mediaDuration="42/1" trackNumber="0" src="4" >
             <Transformer>
              <VectorParam id="5540"  name="translation">
               <InterpolatingParam id="5541" interp="linr"  time="-9999999/1" value="0" leadInLength="0/1"  />
               <InterpolatingParam id="5542" interp="linr"  time="-9999999/1" value="0" leadInLength="0/1"  />
               <InterpolatingParam id="5543" interp="linr"  time="-9999999/1" value="0" leadInLength="0/1"  />
              </VectorParam>
              <VectorParam id="5544"  name="rotation">
               <InterpolatingParam id="5545" interp="linr"  time="-9999999/1" value="0" leadInLength="0/1"  />
               <InterpolatingParam id="5546" interp="linr"  time="-9999999/1" value="0" leadInLength="0/1"  />
               <InterpolatingParam id="5547" interp="linr"  time="-9999999/1" value="0" leadInLength="0/1"  />
              </VectorParam>
              <VectorParam id="5548"  name="shear">
               <InterpolatingParam id="5549" interp="linr"  time="-9999999/1" value="0" leadInLength="0/1"  />
               <InterpolatingParam id="5550" interp="linr"  time="-9999999/1" value="0" leadInLength="0/1"  />
               <InterpolatingParam id="5551" interp="linr"  time="-9999999/1" value="0" leadInLength="0/1"  />
              </VectorParam>
              <VectorParam id="5552"  name="scale">
               <InterpolatingParam id="5553" interp="linr"  time="-9999999/1" value="1" leadInLength="0/1"  />
               <InterpolatingParam id="5554" interp="linr"  time="-9999999/1" value="1" leadInLength="0/1"  />
               <InterpolatingParam id="5555" interp="linr"  time="-9999999/1" value="1" leadInLength="0/1"  />
              </VectorParam>
              <VectorParam id="5556"  name="anchor">
               <InterpolatingParam id="5557" interp="linr"  time="0/1" value="0" leadInLength="0/1"  />
               <InterpolatingParam id="5558" interp="linr"  time="0/1" value="0" leadInLength="0/1"  />
               <InterpolatingParam id="5559" interp="linr"  time="0/1" value="0" leadInLength="0/1"  />
              </VectorParam>
             </Transformer>
             <Parameters>
              <VectorParam id="5560"  name="sourceCrop">
               <InterpolatingParam id="5561" interp="linr"  time="0/1" value="0" leadInLength="0/1"  />
               <InterpolatingParam id="5562" interp="linr"  time="0/1" value="0" leadInLength="0/1"  />
               <InterpolatingParam id="5563" interp="linr"  time="0/1" value="0" leadInLength="0/1"  />
               <InterpolatingParam id="5564" interp="linr"  time="0/1" value="0" leadInLength="0/1"  />
              </VectorParam>
              <VectorParam id="5565"  name="geometryCrop">
               <InterpolatingParam id="5566" interp="linr"  time="-9999999/1" value="0" leadInLength="0/1"  />
               <InterpolatingParam id="5567" interp="linr"  time="-9999999/1" value="0" leadInLength="0/1"  />
               <InterpolatingParam id="5568" interp="linr"  time="-9999999/1" value="0" leadInLength="0/1"  />
               <InterpolatingParam id="5569" interp="linr"  time="-9999999/1" value="0" leadInLength="0/1"  />
              </VectorParam>
              <InterpolatingParam id="5570" interp="linr"  time="-9999999/1" value="1" leadInLength="0/1"  name="opacity"/>
              <InterpolatingParam id="5571" interp="linr"  time="0/1" value="0" leadInLength="0/1"  name="cursorOpacity"/>
              <InterpolatingParam id="5572" interp="linr"  time="0/1" value="0" leadInLength="0/1"  name="cursorScale"/>
             </Parameters>
             <Attributes>
              <Attribute id="5573" value="" name="ident"/>
             </Attributes>
             <ExtraData>
              <Entry key="ZoomPanBin">
               <ZoomPanBin id="5574"  >
                <ZoomPanKeyframes>
                 <ZoomPanKeyframe id="5575" timeRangeEnd="-9999999/1" timeRangeDuration="0/1" interpolaterName=""  />
                </ZoomPanKeyframes>
               </ZoomPanBin>
              </Entry>
              <Entry key="CursorEffectBin">
               <CursorEffectBin id="5576"  >
                <CursorEffectKeyframes>
                </CursorEffectKeyframes>
               </CursorEffectBin>
              </Entry>
             </ExtraData>
            </ScreenVMFile>
            <MetaData>
             <entry key="AutoAppliedSmartFocus" val="False"/>
             <entry key="WinSubProjectDisplayName" val=""/>
            </MetaData>
           </UnifiedMedia>
           <UnifiedMedia id="5577"  >
            <AMFile id="5578" start="1629" duration="45" scalar="1/1" mediaStart="1964/1" mediaDuration="45/1" trackNumber="1" src="4" channelNumber="0,1" >
             <Parameters>
              <InterpolatingParam id="5579" interp="linr"  time="0/1" value="1" leadInLength="0/1"  name="volume"/>
              <Parameter id="5580"  name="captions"/>
             </Parameters>
             <Attributes>
              <Attribute id="5581" value="" name="ident"/>
              <Attribute id="5582" value="44100" name="sampleRate"/>
              <Attribute id="5583" value="16" name="bitDepth"/>
              <Attribute id="5584" value="1" name="gain"/>
              <Attribute id="5585" value="0" name="mixToMono"/>
             </Attributes>
            </AMFile>
            <ScreenVMFile id="5586" start="1629" duration="45" scalar="1/1" mediaStart="1964/1" mediaDuration="45/1" trackNumber="0" src="4" >
             <Transformer>
              <VectorParam id="5587"  name="translation">
               <InterpolatingParam id="5588" interp="linr"  time="-9999999/1" value="0" leadInLength="0/1"  />
               <InterpolatingParam id="5589" interp="linr"  time="-9999999/1" value="0" leadInLength="0/1"  />
               <InterpolatingParam id="5590" interp="linr"  time="-9999999/1" value="0" leadInLength="0/1"  />
              </VectorParam>
              <VectorParam id="5591"  name="rotation">
               <InterpolatingParam id="5592" interp="linr"  time="-9999999/1" value="0" leadInLength="0/1"  />
               <InterpolatingParam id="5593" interp="linr"  time="-9999999/1" value="0" leadInLength="0/1"  />
               <InterpolatingParam id="5594" interp="linr"  time="-9999999/1" value="0" leadInLength="0/1"  />
              </VectorParam>
              <VectorParam id="5595"  name="shear">
               <InterpolatingParam id="5596" interp="linr"  time="-9999999/1" value="0" leadInLength="0/1"  />
               <InterpolatingParam id="5597" interp="linr"  time="-9999999/1" value="0" leadInLength="0/1"  />
               <InterpolatingParam id="5598" interp="linr"  time="-9999999/1" value="0" leadInLength="0/1"  />
              </VectorParam>
              <VectorParam id="5599"  name="scale">
               <InterpolatingParam id="5600" interp="linr"  time="-9999999/1" value="1" leadInLength="0/1"  />
               <InterpolatingParam id="5601" interp="linr"  time="-9999999/1" value="1" leadInLength="0/1"  />
               <InterpolatingParam id="5602" interp="linr"  time="-9999999/1" value="1" leadInLength="0/1"  />
              </VectorParam>
              <VectorParam id="5603"  name="anchor">
               <InterpolatingParam id="5604" interp="linr"  time="0/1" value="0" leadInLength="0/1"  />
               <InterpolatingParam id="5605" interp="linr"  time="0/1" value="0" leadInLength="0/1"  />
               <InterpolatingParam id="5606" interp="linr"  time="0/1" value="0" leadInLength="0/1"  />
              </VectorParam>
             </Transformer>
             <Parameters>
              <VectorParam id="5607"  name="sourceCrop">
               <InterpolatingParam id="5608" interp="linr"  time="0/1" value="0" leadInLength="0/1"  />
               <InterpolatingParam id="5609" interp="linr"  time="0/1" value="0" leadInLength="0/1"  />
               <InterpolatingParam id="5610" interp="linr"  time="0/1" value="0" leadInLength="0/1"  />
               <InterpolatingParam id="5611" interp="linr"  time="0/1" value="0" leadInLength="0/1"  />
              </VectorParam>
              <VectorParam id="5612"  name="geometryCrop">
               <InterpolatingParam id="5613" interp="linr"  time="-9999999/1" value="0" leadInLength="0/1"  />
               <InterpolatingParam id="5614" interp="linr"  time="-9999999/1" value="0" leadInLength="0/1"  />
               <InterpolatingParam id="5615" interp="linr"  time="-9999999/1" value="0" leadInLength="0/1"  />
               <InterpolatingParam id="5616" interp="linr"  time="-9999999/1" value="0" leadInLength="0/1"  />
              </VectorParam>
              <InterpolatingParam id="5617" interp="linr"  time="-9999999/1" value="1" leadInLength="0/1"  name="opacity"/>
              <InterpolatingParam id="5618" interp="linr"  time="0/1" value="0" leadInLength="0/1"  name="cursorOpacity"/>
              <InterpolatingParam id="5619" interp="linr"  time="0/1" value="0" leadInLength="0/1"  name="cursorScale"/>
             </Parameters>
             <Attributes>
              <Attribute id="5620" value="" name="ident"/>
             </Attributes>
             <ExtraData>
              <Entry key="ZoomPanBin">
               <ZoomPanBin id="5621"  >
                <ZoomPanKeyframes>
                 <ZoomPanKeyframe id="5622" timeRangeEnd="-9999999/1" timeRangeDuration="0/1" interpolaterName=""  />
                </ZoomPanKeyframes>
               </ZoomPanBin>
              </Entry>
              <Entry key="CursorEffectBin">
               <CursorEffectBin id="5623"  >
                <CursorEffectKeyframes>
                </CursorEffectKeyframes>
               </CursorEffectBin>
              </Entry>
             </ExtraData>
            </ScreenVMFile>
            <MetaData>
             <entry key="AutoAppliedSmartFocus" val="False"/>
             <entry key="WinSubProjectDisplayName" val=""/>
            </MetaData>
           </UnifiedMedia>
           <UnifiedMedia id="5624"  >
            <AMFile id="5625" start="1674" duration="66" scalar="1/1" mediaStart="2021/1" mediaDuration="66/1" trackNumber="1" src="4" channelNumber="0,1" >
             <Parameters>
              <InterpolatingParam id="5626" interp="linr"  time="0/1" value="1" leadInLength="0/1"  name="volume"/>
              <Parameter id="5627"  name="captions"/>
             </Parameters>
             <Attributes>
              <Attribute id="5628" value="" name="ident"/>
              <Attribute id="5629" value="44100" name="sampleRate"/>
              <Attribute id="5630" value="16" name="bitDepth"/>
              <Attribute id="5631" value="1" name="gain"/>
              <Attribute id="5632" value="0" name="mixToMono"/>
             </Attributes>
            </AMFile>
            <ScreenVMFile id="5633" start="1674" duration="66" scalar="1/1" mediaStart="2021/1" mediaDuration="66/1" trackNumber="0" src="4" >
             <Transformer>
              <VectorParam id="5634"  name="translation">
               <InterpolatingParam id="5635" interp="linr"  time="-9999999/1" value="0" leadInLength="0/1"  />
               <InterpolatingParam id="5636" interp="linr"  time="-9999999/1" value="0" leadInLength="0/1"  />
               <InterpolatingParam id="5637" interp="linr"  time="-9999999/1" value="0" leadInLength="0/1"  />
              </VectorParam>
              <VectorParam id="5638"  name="rotation">
               <InterpolatingParam id="5639" interp="linr"  time="-9999999/1" value="0" leadInLength="0/1"  />
               <InterpolatingParam id="5640" interp="linr"  time="-9999999/1" value="0" leadInLength="0/1"  />
               <InterpolatingParam id="5641" interp="linr"  time="-9999999/1" value="0" leadInLength="0/1"  />
              </VectorParam>
              <VectorParam id="5642"  name="shear">
               <InterpolatingParam id="5643" interp="linr"  time="-9999999/1" value="0" leadInLength="0/1"  />
               <InterpolatingParam id="5644" interp="linr"  time="-9999999/1" value="0" leadInLength="0/1"  />
               <InterpolatingParam id="5645" interp="linr"  time="-9999999/1" value="0" leadInLength="0/1"  />
              </VectorParam>
              <VectorParam id="5646"  name="scale">
               <InterpolatingParam id="5647" interp="linr"  time="-9999999/1" value="1" leadInLength="0/1"  />
               <InterpolatingParam id="5648" interp="linr"  time="-9999999/1" value="1" leadInLength="0/1"  />
               <InterpolatingParam id="5649" interp="linr"  time="-9999999/1" value="1" leadInLength="0/1"  />
              </VectorParam>
              <VectorParam id="5650"  name="anchor">
               <InterpolatingParam id="5651" interp="linr"  time="0/1" value="0" leadInLength="0/1"  />
               <InterpolatingParam id="5652" interp="linr"  time="0/1" value="0" leadInLength="0/1"  />
               <InterpolatingParam id="5653" interp="linr"  time="0/1" value="0" leadInLength="0/1"  />
              </VectorParam>
             </Transformer>
             <Parameters>
              <VectorParam id="5654"  name="sourceCrop">
               <InterpolatingParam id="5655" interp="linr"  time="0/1" value="0" leadInLength="0/1"  />
               <InterpolatingParam id="5656" interp="linr"  time="0/1" value="0" leadInLength="0/1"  />
               <InterpolatingParam id="5657" interp="linr"  time="0/1" value="0" leadInLength="0/1"  />
               <InterpolatingParam id="5658" interp="linr"  time="0/1" value="0" leadInLength="0/1"  />
              </VectorParam>
              <VectorParam id="5659"  name="geometryCrop">
               <InterpolatingParam id="5660" interp="linr"  time="-9999999/1" value="0" leadInLength="0/1"  />
               <InterpolatingParam id="5661" interp="linr"  time="-9999999/1" value="0" leadInLength="0/1"  />
               <InterpolatingParam id="5662" interp="linr"  time="-9999999/1" value="0" leadInLength="0/1"  />
               <InterpolatingParam id="5663" interp="linr"  time="-9999999/1" value="0" leadInLength="0/1"  />
              </VectorParam>
              <InterpolatingParam id="5664" interp="linr"  time="-9999999/1" value="1" leadInLength="0/1"  name="opacity"/>
              <InterpolatingParam id="5665" interp="linr"  time="0/1" value="0" leadInLength="0/1"  name="cursorOpacity"/>
              <InterpolatingParam id="5666" interp="linr"  time="0/1" value="0" leadInLength="0/1"  name="cursorScale"/>
             </Parameters>
             <Attributes>
              <Attribute id="5667" value="" name="ident"/>
             </Attributes>
             <ExtraData>
              <Entry key="ZoomPanBin">
               <ZoomPanBin id="5668"  >
                <ZoomPanKeyframes>
                 <ZoomPanKeyframe id="5669" timeRangeEnd="-9999999/1" timeRangeDuration="0/1" interpolaterName=""  />
                </ZoomPanKeyframes>
               </ZoomPanBin>
              </Entry>
              <Entry key="CursorEffectBin">
               <CursorEffectBin id="5670"  >
                <CursorEffectKeyframes>
                </CursorEffectKeyframes>
               </CursorEffectBin>
              </Entry>
             </ExtraData>
            </ScreenVMFile>
            <MetaData>
             <entry key="AutoAppliedSmartFocus" val="False"/>
             <entry key="WinSubProjectDisplayName" val=""/>
            </MetaData>
           </UnifiedMedia>
           <UnifiedMedia id="5671"  >
            <AMFile id="5672" start="1740" duration="60" scalar="1/1" mediaStart="2327/1" mediaDuration="60/1" trackNumber="1" src="4" channelNumber="0,1" >
             <Parameters>
              <InterpolatingParam id="5673" interp="linr"  time="0/1" value="1" leadInLength="0/1"  name="volume"/>
              <Parameter id="5674"  name="captions"/>
             </Parameters>
             <Attributes>
              <Attribute id="5675" value="" name="ident"/>
              <Attribute id="5676" value="44100" name="sampleRate"/>
              <Attribute id="5677" value="16" name="bitDepth"/>
              <Attribute id="5678" value="1" name="gain"/>
              <Attribute id="5679" value="0" name="mixToMono"/>
             </Attributes>
            </AMFile>
            <ScreenVMFile id="5680" start="1740" duration="60" scalar="1/1" mediaStart="2327/1" mediaDuration="60/1" trackNumber="0" src="4" >
             <Transformer>
              <VectorParam id="5681"  name="translation">
               <InterpolatingParam id="5682" interp="linr"  time="-9999999/1" value="0" leadInLength="0/1"  />
               <InterpolatingParam id="5683" interp="linr"  time="-9999999/1" value="0" leadInLength="0/1"  />
               <InterpolatingParam id="5684" interp="linr"  time="-9999999/1" value="0" leadInLength="0/1"  />
              </VectorParam>
              <VectorParam id="5685"  name="rotation">
               <InterpolatingParam id="5686" interp="linr"  time="-9999999/1" value="0" leadInLength="0/1"  />
               <InterpolatingParam id="5687" interp="linr"  time="-9999999/1" value="0" leadInLength="0/1"  />
               <InterpolatingParam id="5688" interp="linr"  time="-9999999/1" value="0" leadInLength="0/1"  />
              </VectorParam>
              <VectorParam id="5689"  name="shear">
               <InterpolatingParam id="5690" interp="linr"  time="-9999999/1" value="0" leadInLength="0/1"  />
               <InterpolatingParam id="5691" interp="linr"  time="-9999999/1" value="0" leadInLength="0/1"  />
               <InterpolatingParam id="5692" interp="linr"  time="-9999999/1" value="0" leadInLength="0/1"  />
              </VectorParam>
              <VectorParam id="5693"  name="scale">
               <InterpolatingParam id="5694" interp="linr"  time="-9999999/1" value="1" leadInLength="0/1"  />
               <InterpolatingParam id="5695" interp="linr"  time="-9999999/1" value="1" leadInLength="0/1"  />
               <InterpolatingParam id="5696" interp="linr"  time="-9999999/1" value="1" leadInLength="0/1"  />
              </VectorParam>
              <VectorParam id="5697"  name="anchor">
               <InterpolatingParam id="5698" interp="linr"  time="0/1" value="0" leadInLength="0/1"  />
               <InterpolatingParam id="5699" interp="linr"  time="0/1" value="0" leadInLength="0/1"  />
               <InterpolatingParam id="5700" interp="linr"  time="0/1" value="0" leadInLength="0/1"  />
              </VectorParam>
             </Transformer>
             <Parameters>
              <VectorParam id="5701"  name="sourceCrop">
               <InterpolatingParam id="5702" interp="linr"  time="0/1" value="0" leadInLength="0/1"  />
               <InterpolatingParam id="5703" interp="linr"  time="0/1" value="0" leadInLength="0/1"  />
               <InterpolatingParam id="5704" interp="linr"  time="0/1" value="0" leadInLength="0/1"  />
               <InterpolatingParam id="5705" interp="linr"  time="0/1" value="0" leadInLength="0/1"  />
              </VectorParam>
              <VectorParam id="5706"  name="geometryCrop">
               <InterpolatingParam id="5707" interp="linr"  time="-9999999/1" value="0" leadInLength="0/1"  />
               <InterpolatingParam id="5708" interp="linr"  time="-9999999/1" value="0" leadInLength="0/1"  />
               <InterpolatingParam id="5709" interp="linr"  time="-9999999/1" value="0" leadInLength="0/1"  />
               <InterpolatingParam id="5710" interp="linr"  time="-9999999/1" value="0" leadInLength="0/1"  />
              </VectorParam>
              <InterpolatingParam id="5711" interp="linr"  time="-9999999/1" value="1" leadInLength="0/1"  name="opacity"/>
              <InterpolatingParam id="5712" interp="linr"  time="0/1" value="0" leadInLength="0/1"  name="cursorOpacity"/>
              <InterpolatingParam id="5713" interp="linr"  time="0/1" value="0" leadInLength="0/1"  name="cursorScale"/>
             </Parameters>
             <Attributes>
              <Attribute id="5714" value="" name="ident"/>
             </Attributes>
             <ExtraData>
              <Entry key="ZoomPanBin">
               <ZoomPanBin id="5715"  >
                <ZoomPanKeyframes>
                 <ZoomPanKeyframe id="5716" timeRangeEnd="-9999999/1" timeRangeDuration="0/1" interpolaterName=""  />
                </ZoomPanKeyframes>
               </ZoomPanBin>
              </Entry>
              <Entry key="CursorEffectBin">
               <CursorEffectBin id="5717"  >
                <CursorEffectKeyframes>
                </CursorEffectKeyframes>
               </CursorEffectBin>
              </Entry>
             </ExtraData>
            </ScreenVMFile>
            <MetaData>
             <entry key="AutoAppliedSmartFocus" val="False"/>
             <entry key="WinSubProjectDisplayName" val=""/>
            </MetaData>
           </UnifiedMedia>
           <UnifiedMedia id="5718"  >
            <AMFile id="5719" start="1800" duration="49" scalar="1/1" mediaStart="2393/1" mediaDuration="49/1" trackNumber="1" src="4" channelNumber="0,1" >
             <Parameters>
              <InterpolatingParam id="5720" interp="linr"  time="0/1" value="1" leadInLength="0/1"  name="volume"/>
              <Parameter id="5721"  name="captions"/>
             </Parameters>
             <Attributes>
              <Attribute id="5722" value="" name="ident"/>
              <Attribute id="5723" value="44100" name="sampleRate"/>
              <Attribute id="5724" value="16" name="bitDepth"/>
              <Attribute id="5725" value="1" name="gain"/>
              <Attribute id="5726" value="0" name="mixToMono"/>
             </Attributes>
            </AMFile>
            <ScreenVMFile id="5727" start="1800" duration="49" scalar="1/1" mediaStart="2393/1" mediaDuration="49/1" trackNumber="0" src="4" >
             <Transformer>
              <VectorParam id="5728"  name="translation">
               <InterpolatingParam id="5729" interp="linr"  time="-9999999/1" value="0" leadInLength="0/1"  />
               <InterpolatingParam id="5730" interp="linr"  time="-9999999/1" value="0" leadInLength="0/1"  />
               <InterpolatingParam id="5731" interp="linr"  time="-9999999/1" value="0" leadInLength="0/1"  />
              </VectorParam>
              <VectorParam id="5732"  name="rotation">
               <InterpolatingParam id="5733" interp="linr"  time="-9999999/1" value="0" leadInLength="0/1"  />
               <InterpolatingParam id="5734" interp="linr"  time="-9999999/1" value="0" leadInLength="0/1"  />
               <InterpolatingParam id="5735" interp="linr"  time="-9999999/1" value="0" leadInLength="0/1"  />
              </VectorParam>
              <VectorParam id="5736"  name="shear">
               <InterpolatingParam id="5737" interp="linr"  time="-9999999/1" value="0" leadInLength="0/1"  />
               <InterpolatingParam id="5738" interp="linr"  time="-9999999/1" value="0" leadInLength="0/1"  />
               <InterpolatingParam id="5739" interp="linr"  time="-9999999/1" value="0" leadInLength="0/1"  />
              </VectorParam>
              <VectorParam id="5740"  name="scale">
               <InterpolatingParam id="5741" interp="linr"  time="-9999999/1" value="1" leadInLength="0/1"  />
               <InterpolatingParam id="5742" interp="linr"  time="-9999999/1" value="1" leadInLength="0/1"  />
               <InterpolatingParam id="5743" interp="linr"  time="-9999999/1" value="1" leadInLength="0/1"  />
              </VectorParam>
              <VectorParam id="5744"  name="anchor">
               <InterpolatingParam id="5745" interp="linr"  time="0/1" value="0" leadInLength="0/1"  />
               <InterpolatingParam id="5746" interp="linr"  time="0/1" value="0" leadInLength="0/1"  />
               <InterpolatingParam id="5747" interp="linr"  time="0/1" value="0" leadInLength="0/1"  />
              </VectorParam>
             </Transformer>
             <Parameters>
              <VectorParam id="5748"  name="sourceCrop">
               <InterpolatingParam id="5749" interp="linr"  time="0/1" value="0" leadInLength="0/1"  />
               <InterpolatingParam id="5750" interp="linr"  time="0/1" value="0" leadInLength="0/1"  />
               <InterpolatingParam id="5751" interp="linr"  time="0/1" value="0" leadInLength="0/1"  />
               <InterpolatingParam id="5752" interp="linr"  time="0/1" value="0" leadInLength="0/1"  />
              </VectorParam>
              <VectorParam id="5753"  name="geometryCrop">
               <InterpolatingParam id="5754" interp="linr"  time="-9999999/1" value="0" leadInLength="0/1"  />
               <InterpolatingParam id="5755" interp="linr"  time="-9999999/1" value="0" leadInLength="0/1"  />
               <InterpolatingParam id="5756" interp="linr"  time="-9999999/1" value="0" leadInLength="0/1"  />
               <InterpolatingParam id="5757" interp="linr"  time="-9999999/1" value="0" leadInLength="0/1"  />
              </VectorParam>
              <InterpolatingParam id="5758" interp="linr"  time="-9999999/1" value="1" leadInLength="0/1"  name="opacity"/>
              <InterpolatingParam id="5759" interp="linr"  time="0/1" value="0" leadInLength="0/1"  name="cursorOpacity"/>
              <InterpolatingParam id="5760" interp="linr"  time="0/1" value="0" leadInLength="0/1"  name="cursorScale"/>
             </Parameters>
             <Attributes>
              <Attribute id="5761" value="" name="ident"/>
             </Attributes>
             <ExtraData>
              <Entry key="ZoomPanBin">
               <ZoomPanBin id="5762"  >
                <ZoomPanKeyframes>
                 <ZoomPanKeyframe id="5763" timeRangeEnd="-9999999/1" timeRangeDuration="0/1" interpolaterName=""  />
                </ZoomPanKeyframes>
               </ZoomPanBin>
              </Entry>
              <Entry key="CursorEffectBin">
               <CursorEffectBin id="5764"  >
                <CursorEffectKeyframes>
                </CursorEffectKeyframes>
               </CursorEffectBin>
              </Entry>
             </ExtraData>
            </ScreenVMFile>
            <MetaData>
             <entry key="AutoAppliedSmartFocus" val="False"/>
             <entry key="WinSubProjectDisplayName" val=""/>
            </MetaData>
           </UnifiedMedia>
           <UnifiedMedia id="5765"  >
            <AMFile id="5766" start="1849" duration="130" scalar="1/1" mediaStart="2450/1" mediaDuration="130/1" trackNumber="1" src="4" channelNumber="0,1" >
             <Parameters>
              <InterpolatingParam id="5767" interp="linr"  time="0/1" value="1" leadInLength="0/1"  name="volume"/>
              <Parameter id="5768"  name="captions"/>
             </Parameters>
             <Attributes>
              <Attribute id="5769" value="" name="ident"/>
              <Attribute id="5770" value="44100" name="sampleRate"/>
              <Attribute id="5771" value="16" name="bitDepth"/>
              <Attribute id="5772" value="1" name="gain"/>
              <Attribute id="5773" value="0" name="mixToMono"/>
             </Attributes>
            </AMFile>
            <ScreenVMFile id="5774" start="1849" duration="130" scalar="1/1" mediaStart="2450/1" mediaDuration="130/1" trackNumber="0" src="4" >
             <Transformer>
              <VectorParam id="5775"  name="translation">
               <InterpolatingParam id="5776" interp="linr"  time="-9999999/1" value="0" leadInLength="0/1"  />
               <InterpolatingParam id="5777" interp="linr"  time="-9999999/1" value="0" leadInLength="0/1"  />
               <InterpolatingParam id="5778" interp="linr"  time="-9999999/1" value="0" leadInLength="0/1"  />
              </VectorParam>
              <VectorParam id="5779"  name="rotation">
               <InterpolatingParam id="5780" interp="linr"  time="-9999999/1" value="0" leadInLength="0/1"  />
               <InterpolatingParam id="5781" interp="linr"  time="-9999999/1" value="0" leadInLength="0/1"  />
               <InterpolatingParam id="5782" interp="linr"  time="-9999999/1" value="0" leadInLength="0/1"  />
              </VectorParam>
              <VectorParam id="5783"  name="shear">
               <InterpolatingParam id="5784" interp="linr"  time="-9999999/1" value="0" leadInLength="0/1"  />
               <InterpolatingParam id="5785" interp="linr"  time="-9999999/1" value="0" leadInLength="0/1"  />
               <InterpolatingParam id="5786" interp="linr"  time="-9999999/1" value="0" leadInLength="0/1"  />
              </VectorParam>
              <VectorParam id="5787"  name="scale">
               <InterpolatingParam id="5788" interp="linr"  time="-9999999/1" value="1" leadInLength="0/1"  />
               <InterpolatingParam id="5789" interp="linr"  time="-9999999/1" value="1" leadInLength="0/1"  />
               <InterpolatingParam id="5790" interp="linr"  time="-9999999/1" value="1" leadInLength="0/1"  />
              </VectorParam>
              <VectorParam id="5791"  name="anchor">
               <InterpolatingParam id="5792" interp="linr"  time="0/1" value="0" leadInLength="0/1"  />
               <InterpolatingParam id="5793" interp="linr"  time="0/1" value="0" leadInLength="0/1"  />
               <InterpolatingParam id="5794" interp="linr"  time="0/1" value="0" leadInLength="0/1"  />
              </VectorParam>
             </Transformer>
             <Parameters>
              <VectorParam id="5795"  name="sourceCrop">
               <InterpolatingParam id="5796" interp="linr"  time="0/1" value="0" leadInLength="0/1"  />
               <InterpolatingParam id="5797" interp="linr"  time="0/1" value="0" leadInLength="0/1"  />
               <InterpolatingParam id="5798" interp="linr"  time="0/1" value="0" leadInLength="0/1"  />
               <InterpolatingParam id="5799" interp="linr"  time="0/1" value="0" leadInLength="0/1"  />
              </VectorParam>
              <VectorParam id="5800"  name="geometryCrop">
               <InterpolatingParam id="5801" interp="linr"  time="-9999999/1" value="0" leadInLength="0/1"  />
               <InterpolatingParam id="5802" interp="linr"  time="-9999999/1" value="0" leadInLength="0/1"  />
               <InterpolatingParam id="5803" interp="linr"  time="-9999999/1" value="0" leadInLength="0/1"  />
               <InterpolatingParam id="5804" interp="linr"  time="-9999999/1" value="0" leadInLength="0/1"  />
              </VectorParam>
              <InterpolatingParam id="5805" interp="linr"  time="-9999999/1" value="1" leadInLength="0/1"  name="opacity"/>
              <InterpolatingParam id="5806" interp="linr"  time="0/1" value="0" leadInLength="0/1"  name="cursorOpacity"/>
              <InterpolatingParam id="5807" interp="linr"  time="0/1" value="0" leadInLength="0/1"  name="cursorScale"/>
             </Parameters>
             <Attributes>
              <Attribute id="5808" value="" name="ident"/>
             </Attributes>
             <ExtraData>
              <Entry key="ZoomPanBin">
               <ZoomPanBin id="5809"  >
                <ZoomPanKeyframes>
                 <ZoomPanKeyframe id="5810" timeRangeEnd="-9999999/1" timeRangeDuration="0/1" interpolaterName=""  />
                </ZoomPanKeyframes>
               </ZoomPanBin>
              </Entry>
              <Entry key="CursorEffectBin">
               <CursorEffectBin id="5811"  >
                <CursorEffectKeyframes>
                </CursorEffectKeyframes>
               </CursorEffectBin>
              </Entry>
             </ExtraData>
            </ScreenVMFile>
            <MetaData>
             <entry key="AutoAppliedSmartFocus" val="False"/>
             <entry key="WinSubProjectDisplayName" val=""/>
            </MetaData>
           </UnifiedMedia>
           <UnifiedMedia id="5812"  >
            <AMFile id="5813" start="1979" duration="94" scalar="1/1" mediaStart="2778/1" mediaDuration="94/1" trackNumber="1" src="4" channelNumber="0,1" >
             <Parameters>
              <InterpolatingParam id="5814" interp="linr"  time="0/1" value="1" leadInLength="0/1"  name="volume"/>
              <Parameter id="5815"  name="captions"/>
             </Parameters>
             <Attributes>
              <Attribute id="5816" value="" name="ident"/>
              <Attribute id="5817" value="44100" name="sampleRate"/>
              <Attribute id="5818" value="16" name="bitDepth"/>
              <Attribute id="5819" value="1" name="gain"/>
              <Attribute id="5820" value="0" name="mixToMono"/>
             </Attributes>
            </AMFile>
            <ScreenVMFile id="5821" start="1979" duration="94" scalar="1/1" mediaStart="2778/1" mediaDuration="94/1" trackNumber="0" src="4" >
             <Transformer>
              <VectorParam id="5822"  name="translation">
               <InterpolatingParam id="5823" interp="linr"  time="-9999999/1" value="0" leadInLength="0/1"  />
               <InterpolatingParam id="5824" interp="linr"  time="-9999999/1" value="0" leadInLength="0/1"  />
               <InterpolatingParam id="5825" interp="linr"  time="-9999999/1" value="0" leadInLength="0/1"  />
              </VectorParam>
              <VectorParam id="5826"  name="rotation">
               <InterpolatingParam id="5827" interp="linr"  time="-9999999/1" value="0" leadInLength="0/1"  />
               <InterpolatingParam id="5828" interp="linr"  time="-9999999/1" value="0" leadInLength="0/1"  />
               <InterpolatingParam id="5829" interp="linr"  time="-9999999/1" value="0" leadInLength="0/1"  />
              </VectorParam>
              <VectorParam id="5830"  name="shear">
               <InterpolatingParam id="5831" interp="linr"  time="-9999999/1" value="0" leadInLength="0/1"  />
               <InterpolatingParam id="5832" interp="linr"  time="-9999999/1" value="0" leadInLength="0/1"  />
               <InterpolatingParam id="5833" interp="linr"  time="-9999999/1" value="0" leadInLength="0/1"  />
              </VectorParam>
              <VectorParam id="5834"  name="scale">
               <InterpolatingParam id="5835" interp="linr"  time="-9999999/1" value="1" leadInLength="0/1"  />
               <InterpolatingParam id="5836" interp="linr"  time="-9999999/1" value="1" leadInLength="0/1"  />
               <InterpolatingParam id="5837" interp="linr"  time="-9999999/1" value="1" leadInLength="0/1"  />
              </VectorParam>
              <VectorParam id="5838"  name="anchor">
               <InterpolatingParam id="5839" interp="linr"  time="0/1" value="0" leadInLength="0/1"  />
               <InterpolatingParam id="5840" interp="linr"  time="0/1" value="0" leadInLength="0/1"  />
               <InterpolatingParam id="5841" interp="linr"  time="0/1" value="0" leadInLength="0/1"  />
              </VectorParam>
             </Transformer>
             <Parameters>
              <VectorParam id="5842"  name="sourceCrop">
               <InterpolatingParam id="5843" interp="linr"  time="0/1" value="0" leadInLength="0/1"  />
               <InterpolatingParam id="5844" interp="linr"  time="0/1" value="0" leadInLength="0/1"  />
               <InterpolatingParam id="5845" interp="linr"  time="0/1" value="0" leadInLength="0/1"  />
               <InterpolatingParam id="5846" interp="linr"  time="0/1" value="0" leadInLength="0/1"  />
              </VectorParam>
              <VectorParam id="5847"  name="geometryCrop">
               <InterpolatingParam id="5848" interp="linr"  time="-9999999/1" value="0" leadInLength="0/1"  />
               <InterpolatingParam id="5849" interp="linr"  time="-9999999/1" value="0" leadInLength="0/1"  />
               <InterpolatingParam id="5850" interp="linr"  time="-9999999/1" value="0" leadInLength="0/1"  />
               <InterpolatingParam id="5851" interp="linr"  time="-9999999/1" value="0" leadInLength="0/1"  />
              </VectorParam>
              <InterpolatingParam id="5852" interp="linr"  time="-9999999/1" value="1" leadInLength="0/1"  name="opacity"/>
              <InterpolatingParam id="5853" interp="linr"  time="0/1" value="0" leadInLength="0/1"  name="cursorOpacity"/>
              <InterpolatingParam id="5854" interp="linr"  time="0/1" value="0" leadInLength="0/1"  name="cursorScale"/>
             </Parameters>
             <Attributes>
              <Attribute id="5855" value="" name="ident"/>
             </Attributes>
             <ExtraData>
              <Entry key="ZoomPanBin">
               <ZoomPanBin id="5856"  >
                <ZoomPanKeyframes>
                 <ZoomPanKeyframe id="5857" timeRangeEnd="-9999999/1" timeRangeDuration="0/1" interpolaterName=""  />
                </ZoomPanKeyframes>
               </ZoomPanBin>
              </Entry>
              <Entry key="CursorEffectBin">
               <CursorEffectBin id="5858"  >
                <CursorEffectKeyframes>
                </CursorEffectKeyframes>
               </CursorEffectBin>
              </Entry>
             </ExtraData>
            </ScreenVMFile>
            <MetaData>
             <entry key="AutoAppliedSmartFocus" val="False"/>
             <entry key="WinSubProjectDisplayName" val=""/>
            </MetaData>
           </UnifiedMedia>
           <UnifiedMedia id="5859"  >
            <AMFile id="5860" start="2073" duration="80" scalar="1/1" mediaStart="2879/1" mediaDuration="80/1" trackNumber="1" src="4" channelNumber="0,1" >
             <Parameters>
              <InterpolatingParam id="5861" interp="linr"  time="0/1" value="1" leadInLength="0/1"  name="volume"/>
              <Parameter id="5862"  name="captions"/>
             </Parameters>
             <Attributes>
              <Attribute id="5863" value="" name="ident"/>
              <Attribute id="5864" value="44100" name="sampleRate"/>
              <Attribute id="5865" value="16" name="bitDepth"/>
              <Attribute id="5866" value="1" name="gain"/>
              <Attribute id="5867" value="0" name="mixToMono"/>
             </Attributes>
            </AMFile>
            <ScreenVMFile id="5868" start="2073" duration="80" scalar="1/1" mediaStart="2879/1" mediaDuration="80/1" trackNumber="0" src="4" >
             <Transformer>
              <VectorParam id="5869"  name="translation">
               <InterpolatingParam id="5870" interp="linr"  time="-9999999/1" value="0" leadInLength="0/1"  />
               <InterpolatingParam id="5871" interp="linr"  time="-9999999/1" value="0" leadInLength="0/1"  />
               <InterpolatingParam id="5872" interp="linr"  time="-9999999/1" value="0" leadInLength="0/1"  />
              </VectorParam>
              <VectorParam id="5873"  name="rotation">
               <InterpolatingParam id="5874" interp="linr"  time="-9999999/1" value="0" leadInLength="0/1"  />
               <InterpolatingParam id="5875" interp="linr"  time="-9999999/1" value="0" leadInLength="0/1"  />
               <InterpolatingParam id="5876" interp="linr"  time="-9999999/1" value="0" leadInLength="0/1"  />
              </VectorParam>
              <VectorParam id="5877"  name="shear">
               <InterpolatingParam id="5878" interp="linr"  time="-9999999/1" value="0" leadInLength="0/1"  />
               <InterpolatingParam id="5879" interp="linr"  time="-9999999/1" value="0" leadInLength="0/1"  />
               <InterpolatingParam id="5880" interp="linr"  time="-9999999/1" value="0" leadInLength="0/1"  />
              </VectorParam>
              <VectorParam id="5881"  name="scale">
               <InterpolatingParam id="5882" interp="linr"  time="-9999999/1" value="1" leadInLength="0/1"  />
               <InterpolatingParam id="5883" interp="linr"  time="-9999999/1" value="1" leadInLength="0/1"  />
               <InterpolatingParam id="5884" interp="linr"  time="-9999999/1" value="1" leadInLength="0/1"  />
              </VectorParam>
              <VectorParam id="5885"  name="anchor">
               <InterpolatingParam id="5886" interp="linr"  time="0/1" value="0" leadInLength="0/1"  />
               <InterpolatingParam id="5887" interp="linr"  time="0/1" value="0" leadInLength="0/1"  />
               <InterpolatingParam id="5888" interp="linr"  time="0/1" value="0" leadInLength="0/1"  />
              </VectorParam>
             </Transformer>
             <Parameters>
              <VectorParam id="5889"  name="sourceCrop">
               <InterpolatingParam id="5890" interp="linr"  time="0/1" value="0" leadInLength="0/1"  />
               <InterpolatingParam id="5891" interp="linr"  time="0/1" value="0" leadInLength="0/1"  />
               <InterpolatingParam id="5892" interp="linr"  time="0/1" value="0" leadInLength="0/1"  />
               <InterpolatingParam id="5893" interp="linr"  time="0/1" value="0" leadInLength="0/1"  />
              </VectorParam>
              <VectorParam id="5894"  name="geometryCrop">
               <InterpolatingParam id="5895" interp="linr"  time="-9999999/1" value="0" leadInLength="0/1"  />
               <InterpolatingParam id="5896" interp="linr"  time="-9999999/1" value="0" leadInLength="0/1"  />
               <InterpolatingParam id="5897" interp="linr"  time="-9999999/1" value="0" leadInLength="0/1"  />
               <InterpolatingParam id="5898" interp="linr"  time="-9999999/1" value="0" leadInLength="0/1"  />
              </VectorParam>
              <InterpolatingParam id="5899" interp="linr"  time="-9999999/1" value="1" leadInLength="0/1"  name="opacity"/>
              <InterpolatingParam id="5900" interp="linr"  time="0/1" value="0" leadInLength="0/1"  name="cursorOpacity"/>
              <InterpolatingParam id="5901" interp="linr"  time="0/1" value="0" leadInLength="0/1"  name="cursorScale"/>
             </Parameters>
             <Attributes>
              <Attribute id="5902" value="" name="ident"/>
             </Attributes>
             <ExtraData>
              <Entry key="ZoomPanBin">
               <ZoomPanBin id="5903"  >
                <ZoomPanKeyframes>
                 <ZoomPanKeyframe id="5904" timeRangeEnd="-9999999/1" timeRangeDuration="0/1" interpolaterName=""  />
                </ZoomPanKeyframes>
               </ZoomPanBin>
              </Entry>
              <Entry key="CursorEffectBin">
               <CursorEffectBin id="5905"  >
                <CursorEffectKeyframes>
                </CursorEffectKeyframes>
               </CursorEffectBin>
              </Entry>
             </ExtraData>
            </ScreenVMFile>
            <MetaData>
             <entry key="AutoAppliedSmartFocus" val="False"/>
             <entry key="WinSubProjectDisplayName" val=""/>
            </MetaData>
           </UnifiedMedia>
           <UnifiedMedia id="5906"  >
            <AMFile id="5907" start="2153" duration="154" scalar="1/1" mediaStart="3431/1" mediaDuration="154/1" trackNumber="1" src="4" channelNumber="0,1" >
             <Parameters>
              <InterpolatingParam id="5908" interp="linr"  time="0/1" value="1" leadInLength="0/1"  name="volume"/>
              <Parameter id="5909"  name="captions"/>
             </Parameters>
             <Attributes>
              <Attribute id="5910" value="" name="ident"/>
              <Attribute id="5911" value="44100" name="sampleRate"/>
              <Attribute id="5912" value="16" name="bitDepth"/>
              <Attribute id="5913" value="1" name="gain"/>
              <Attribute id="5914" value="0" name="mixToMono"/>
             </Attributes>
            </AMFile>
            <ScreenVMFile id="5915" start="2153" duration="154" scalar="1/1" mediaStart="3431/1" mediaDuration="154/1" trackNumber="0" src="4" >
             <Transformer>
              <VectorParam id="5916"  name="translation">
               <InterpolatingParam id="5917" interp="linr"  time="-9999999/1" value="0" leadInLength="0/1"  />
               <InterpolatingParam id="5918" interp="linr"  time="-9999999/1" value="0" leadInLength="0/1"  />
               <InterpolatingParam id="5919" interp="linr"  time="-9999999/1" value="0" leadInLength="0/1"  />
              </VectorParam>
              <VectorParam id="5920"  name="rotation">
               <InterpolatingParam id="5921" interp="linr"  time="-9999999/1" value="0" leadInLength="0/1"  />
               <InterpolatingParam id="5922" interp="linr"  time="-9999999/1" value="0" leadInLength="0/1"  />
               <InterpolatingParam id="5923" interp="linr"  time="-9999999/1" value="0" leadInLength="0/1"  />
              </VectorParam>
              <VectorParam id="5924"  name="shear">
               <InterpolatingParam id="5925" interp="linr"  time="-9999999/1" value="0" leadInLength="0/1"  />
               <InterpolatingParam id="5926" interp="linr"  time="-9999999/1" value="0" leadInLength="0/1"  />
               <InterpolatingParam id="5927" interp="linr"  time="-9999999/1" value="0" leadInLength="0/1"  />
              </VectorParam>
              <VectorParam id="5928"  name="scale">
               <InterpolatingParam id="5929" interp="linr"  time="-9999999/1" value="1" leadInLength="0/1"  />
               <InterpolatingParam id="5930" interp="linr"  time="-9999999/1" value="1" leadInLength="0/1"  />
               <InterpolatingParam id="5931" interp="linr"  time="-9999999/1" value="1" leadInLength="0/1"  />
              </VectorParam>
              <VectorParam id="5932"  name="anchor">
               <InterpolatingParam id="5933" interp="linr"  time="0/1" value="0" leadInLength="0/1"  />
               <InterpolatingParam id="5934" interp="linr"  time="0/1" value="0" leadInLength="0/1"  />
               <InterpolatingParam id="5935" interp="linr"  time="0/1" value="0" leadInLength="0/1"  />
              </VectorParam>
             </Transformer>
             <Parameters>
              <VectorParam id="5936"  name="sourceCrop">
               <InterpolatingParam id="5937" interp="linr"  time="0/1" value="0" leadInLength="0/1"  />
               <InterpolatingParam id="5938" interp="linr"  time="0/1" value="0" leadInLength="0/1"  />
               <InterpolatingParam id="5939" interp="linr"  time="0/1" value="0" leadInLength="0/1"  />
               <InterpolatingParam id="5940" interp="linr"  time="0/1" value="0" leadInLength="0/1"  />
              </VectorParam>
              <VectorParam id="5941"  name="geometryCrop">
               <InterpolatingParam id="5942" interp="linr"  time="-9999999/1" value="0" leadInLength="0/1"  />
               <InterpolatingParam id="5943" interp="linr"  time="-9999999/1" value="0" leadInLength="0/1"  />
               <InterpolatingParam id="5944" interp="linr"  time="-9999999/1" value="0" leadInLength="0/1"  />
               <InterpolatingParam id="5945" interp="linr"  time="-9999999/1" value="0" leadInLength="0/1"  />
              </VectorParam>
              <InterpolatingParam id="5946" interp="linr"  time="-9999999/1" value="1" leadInLength="0/1"  name="opacity"/>
              <InterpolatingParam id="5947" interp="linr"  time="0/1" value="0" leadInLength="0/1"  name="cursorOpacity"/>
              <InterpolatingParam id="5948" interp="linr"  time="0/1" value="0" leadInLength="0/1"  name="cursorScale"/>
             </Parameters>
             <Attributes>
              <Attribute id="5949" value="" name="ident"/>
             </Attributes>
             <ExtraData>
              <Entry key="ZoomPanBin">
               <ZoomPanBin id="5950"  >
                <ZoomPanKeyframes>
                 <ZoomPanKeyframe id="5951" timeRangeEnd="-9999999/1" timeRangeDuration="0/1" interpolaterName=""  />
                </ZoomPanKeyframes>
               </ZoomPanBin>
              </Entry>
              <Entry key="CursorEffectBin">
               <CursorEffectBin id="5952"  >
                <CursorEffectKeyframes>
                </CursorEffectKeyframes>
               </CursorEffectBin>
              </Entry>
             </ExtraData>
            </ScreenVMFile>
            <MetaData>
             <entry key="AutoAppliedSmartFocus" val="False"/>
             <entry key="WinSubProjectDisplayName" val=""/>
            </MetaData>
           </UnifiedMedia>
           <UnifiedMedia id="5953"  >
            <AMFile id="5954" start="2307" duration="166" scalar="1/1" mediaStart="3593/1" mediaDuration="166/1" trackNumber="1" src="4" channelNumber="0,1" >
             <Parameters>
              <InterpolatingParam id="5955" interp="linr"  time="0/1" value="1" leadInLength="0/1"  name="volume"/>
              <Parameter id="5956"  name="captions"/>
             </Parameters>
             <Attributes>
              <Attribute id="5957" value="" name="ident"/>
              <Attribute id="5958" value="44100" name="sampleRate"/>
              <Attribute id="5959" value="16" name="bitDepth"/>
              <Attribute id="5960" value="1" name="gain"/>
              <Attribute id="5961" value="0" name="mixToMono"/>
             </Attributes>
            </AMFile>
            <ScreenVMFile id="5962" start="2307" duration="166" scalar="1/1" mediaStart="3593/1" mediaDuration="166/1" trackNumber="0" src="4" >
             <Transformer>
              <VectorParam id="5963"  name="translation">
               <InterpolatingParam id="5964" interp="linr"  time="-9999999/1" value="0" leadInLength="0/1"  />
               <InterpolatingParam id="5965" interp="linr"  time="-9999999/1" value="0" leadInLength="0/1"  />
               <InterpolatingParam id="5966" interp="linr"  time="-9999999/1" value="0" leadInLength="0/1"  />
              </VectorParam>
              <VectorParam id="5967"  name="rotation">
               <InterpolatingParam id="5968" interp="linr"  time="-9999999/1" value="0" leadInLength="0/1"  />
               <InterpolatingParam id="5969" interp="linr"  time="-9999999/1" value="0" leadInLength="0/1"  />
               <InterpolatingParam id="5970" interp="linr"  time="-9999999/1" value="0" leadInLength="0/1"  />
              </VectorParam>
              <VectorParam id="5971"  name="shear">
               <InterpolatingParam id="5972" interp="linr"  time="-9999999/1" value="0" leadInLength="0/1"  />
               <InterpolatingParam id="5973" interp="linr"  time="-9999999/1" value="0" leadInLength="0/1"  />
               <InterpolatingParam id="5974" interp="linr"  time="-9999999/1" value="0" leadInLength="0/1"  />
              </VectorParam>
              <VectorParam id="5975"  name="scale">
               <InterpolatingParam id="5976" interp="linr"  time="-9999999/1" value="1" leadInLength="0/1"  />
               <InterpolatingParam id="5977" interp="linr"  time="-9999999/1" value="1" leadInLength="0/1"  />
               <InterpolatingParam id="5978" interp="linr"  time="-9999999/1" value="1" leadInLength="0/1"  />
              </VectorParam>
              <VectorParam id="5979"  name="anchor">
               <InterpolatingParam id="5980" interp="linr"  time="0/1" value="0" leadInLength="0/1"  />
               <InterpolatingParam id="5981" interp="linr"  time="0/1" value="0" leadInLength="0/1"  />
               <InterpolatingParam id="5982" interp="linr"  time="0/1" value="0" leadInLength="0/1"  />
              </VectorParam>
             </Transformer>
             <Parameters>
              <VectorParam id="5983"  name="sourceCrop">
               <InterpolatingParam id="5984" interp="linr"  time="0/1" value="0" leadInLength="0/1"  />
               <InterpolatingParam id="5985" interp="linr"  time="0/1" value="0" leadInLength="0/1"  />
               <InterpolatingParam id="5986" interp="linr"  time="0/1" value="0" leadInLength="0/1"  />
               <InterpolatingParam id="5987" interp="linr"  time="0/1" value="0" leadInLength="0/1"  />
              </VectorParam>
              <VectorParam id="5988"  name="geometryCrop">
               <InterpolatingParam id="5989" interp="linr"  time="-9999999/1" value="0" leadInLength="0/1"  />
               <InterpolatingParam id="5990" interp="linr"  time="-9999999/1" value="0" leadInLength="0/1"  />
               <InterpolatingParam id="5991" interp="linr"  time="-9999999/1" value="0" leadInLength="0/1"  />
               <InterpolatingParam id="5992" interp="linr"  time="-9999999/1" value="0" leadInLength="0/1"  />
              </VectorParam>
              <InterpolatingParam id="5993" interp="linr"  time="-9999999/1" value="1" leadInLength="0/1"  name="opacity"/>
              <InterpolatingParam id="5994" interp="linr"  time="0/1" value="0" leadInLength="0/1"  name="cursorOpacity"/>
              <InterpolatingParam id="5995" interp="linr"  time="0/1" value="0" leadInLength="0/1"  name="cursorScale"/>
             </Parameters>
             <Attributes>
              <Attribute id="5996" value="" name="ident"/>
             </Attributes>
             <ExtraData>
              <Entry key="ZoomPanBin">
               <ZoomPanBin id="5997"  >
                <ZoomPanKeyframes>
                 <ZoomPanKeyframe id="5998" timeRangeEnd="-9999999/1" timeRangeDuration="0/1" interpolaterName=""  />
                </ZoomPanKeyframes>
               </ZoomPanBin>
              </Entry>
              <Entry key="CursorEffectBin">
               <CursorEffectBin id="5999"  >
                <CursorEffectKeyframes>
                </CursorEffectKeyframes>
               </CursorEffectBin>
              </Entry>
             </ExtraData>
            </ScreenVMFile>
            <MetaData>
             <entry key="AutoAppliedSmartFocus" val="False"/>
             <entry key="WinSubProjectDisplayName" val=""/>
            </MetaData>
           </UnifiedMedia>
           <UnifiedMedia id="6000"  >
            <AMFile id="6001" start="2473" duration="76" scalar="1/1" mediaStart="3771/1" mediaDuration="76/1" trackNumber="1" src="4" channelNumber="0,1" >
             <Parameters>
              <InterpolatingParam id="6002" interp="linr"  time="0/1" value="1" leadInLength="0/1"  name="volume"/>
              <Parameter id="6003"  name="captions"/>
             </Parameters>
             <Attributes>
              <Attribute id="6004" value="" name="ident"/>
              <Attribute id="6005" value="44100" name="sampleRate"/>
              <Attribute id="6006" value="16" name="bitDepth"/>
              <Attribute id="6007" value="1" name="gain"/>
              <Attribute id="6008" value="0" name="mixToMono"/>
             </Attributes>
            </AMFile>
            <ScreenVMFile id="6009" start="2473" duration="76" scalar="1/1" mediaStart="3771/1" mediaDuration="76/1" trackNumber="0" src="4" >
             <Transformer>
              <VectorParam id="6010"  name="translation">
               <InterpolatingParam id="6011" interp="linr"  time="-9999999/1" value="0" leadInLength="0/1"  />
               <InterpolatingParam id="6012" interp="linr"  time="-9999999/1" value="0" leadInLength="0/1"  />
               <InterpolatingParam id="6013" interp="linr"  time="-9999999/1" value="0" leadInLength="0/1"  />
              </VectorParam>
              <VectorParam id="6014"  name="rotation">
               <InterpolatingParam id="6015" interp="linr"  time="-9999999/1" value="0" leadInLength="0/1"  />
               <InterpolatingParam id="6016" interp="linr"  time="-9999999/1" value="0" leadInLength="0/1"  />
               <InterpolatingParam id="6017" interp="linr"  time="-9999999/1" value="0" leadInLength="0/1"  />
              </VectorParam>
              <VectorParam id="6018"  name="shear">
               <InterpolatingParam id="6019" interp="linr"  time="-9999999/1" value="0" leadInLength="0/1"  />
               <InterpolatingParam id="6020" interp="linr"  time="-9999999/1" value="0" leadInLength="0/1"  />
               <InterpolatingParam id="6021" interp="linr"  time="-9999999/1" value="0" leadInLength="0/1"  />
              </VectorParam>
              <VectorParam id="6022"  name="scale">
               <InterpolatingParam id="6023" interp="linr"  time="-9999999/1" value="1" leadInLength="0/1"  />
               <InterpolatingParam id="6024" interp="linr"  time="-9999999/1" value="1" leadInLength="0/1"  />
               <InterpolatingParam id="6025" interp="linr"  time="-9999999/1" value="1" leadInLength="0/1"  />
              </VectorParam>
              <VectorParam id="6026"  name="anchor">
               <InterpolatingParam id="6027" interp="linr"  time="0/1" value="0" leadInLength="0/1"  />
               <InterpolatingParam id="6028" interp="linr"  time="0/1" value="0" leadInLength="0/1"  />
               <InterpolatingParam id="6029" interp="linr"  time="0/1" value="0" leadInLength="0/1"  />
              </VectorParam>
             </Transformer>
             <Parameters>
              <VectorParam id="6030"  name="sourceCrop">
               <InterpolatingParam id="6031" interp="linr"  time="0/1" value="0" leadInLength="0/1"  />
               <InterpolatingParam id="6032" interp="linr"  time="0/1" value="0" leadInLength="0/1"  />
               <InterpolatingParam id="6033" interp="linr"  time="0/1" value="0" leadInLength="0/1"  />
               <InterpolatingParam id="6034" interp="linr"  time="0/1" value="0" leadInLength="0/1"  />
              </VectorParam>
              <VectorParam id="6035"  name="geometryCrop">
               <InterpolatingParam id="6036" interp="linr"  time="-9999999/1" value="0" leadInLength="0/1"  />
               <InterpolatingParam id="6037" interp="linr"  time="-9999999/1" value="0" leadInLength="0/1"  />
               <InterpolatingParam id="6038" interp="linr"  time="-9999999/1" value="0" leadInLength="0/1"  />
               <InterpolatingParam id="6039" interp="linr"  time="-9999999/1" value="0" leadInLength="0/1"  />
              </VectorParam>
              <InterpolatingParam id="6040" interp="linr"  time="-9999999/1" value="1" leadInLength="0/1"  name="opacity"/>
              <InterpolatingParam id="6041" interp="linr"  time="0/1" value="0" leadInLength="0/1"  name="cursorOpacity"/>
              <InterpolatingParam id="6042" interp="linr"  time="0/1" value="0" leadInLength="0/1"  name="cursorScale"/>
             </Parameters>
             <Attributes>
              <Attribute id="6043" value="" name="ident"/>
             </Attributes>
             <ExtraData>
              <Entry key="ZoomPanBin">
               <ZoomPanBin id="6044"  >
                <ZoomPanKeyframes>
                 <ZoomPanKeyframe id="6045" timeRangeEnd="-9999999/1" timeRangeDuration="0/1" interpolaterName=""  />
                </ZoomPanKeyframes>
               </ZoomPanBin>
              </Entry>
              <Entry key="CursorEffectBin">
               <CursorEffectBin id="6046"  >
                <CursorEffectKeyframes>
                </CursorEffectKeyframes>
               </CursorEffectBin>
              </Entry>
             </ExtraData>
            </ScreenVMFile>
            <MetaData>
             <entry key="AutoAppliedSmartFocus" val="False"/>
             <entry key="WinSubProjectDisplayName" val=""/>
            </MetaData>
           </UnifiedMedia>
           <UnifiedMedia id="6047"  >
            <AMFile id="6048" start="2549" duration="116" scalar="1/1" mediaStart="4178/1" mediaDuration="116/1" trackNumber="1" src="4" channelNumber="0,1" >
             <Parameters>
              <InterpolatingParam id="6049" interp="linr"  time="0/1" value="1" leadInLength="0/1"  name="volume"/>
              <Parameter id="6050"  name="captions"/>
             </Parameters>
             <Attributes>
              <Attribute id="6051" value="" name="ident"/>
              <Attribute id="6052" value="44100" name="sampleRate"/>
              <Attribute id="6053" value="16" name="bitDepth"/>
              <Attribute id="6054" value="1" name="gain"/>
              <Attribute id="6055" value="0" name="mixToMono"/>
             </Attributes>
            </AMFile>
            <ScreenVMFile id="6056" start="2549" duration="116" scalar="1/1" mediaStart="4178/1" mediaDuration="116/1" trackNumber="0" src="4" >
             <Transformer>
              <VectorParam id="6057"  name="translation">
               <InterpolatingParam id="6058" interp="linr"  time="-9999999/1" value="0" leadInLength="0/1"  />
               <InterpolatingParam id="6059" interp="linr"  time="-9999999/1" value="0" leadInLength="0/1"  />
               <InterpolatingParam id="6060" interp="linr"  time="-9999999/1" value="0" leadInLength="0/1"  />
              </VectorParam>
              <VectorParam id="6061"  name="rotation">
               <InterpolatingParam id="6062" interp="linr"  time="-9999999/1" value="0" leadInLength="0/1"  />
               <InterpolatingParam id="6063" interp="linr"  time="-9999999/1" value="0" leadInLength="0/1"  />
               <InterpolatingParam id="6064" interp="linr"  time="-9999999/1" value="0" leadInLength="0/1"  />
              </VectorParam>
              <VectorParam id="6065"  name="shear">
               <InterpolatingParam id="6066" interp="linr"  time="-9999999/1" value="0" leadInLength="0/1"  />
               <InterpolatingParam id="6067" interp="linr"  time="-9999999/1" value="0" leadInLength="0/1"  />
               <InterpolatingParam id="6068" interp="linr"  time="-9999999/1" value="0" leadInLength="0/1"  />
              </VectorParam>
              <VectorParam id="6069"  name="scale">
               <InterpolatingParam id="6070" interp="linr"  time="-9999999/1" value="1" leadInLength="0/1"  />
               <InterpolatingParam id="6071" interp="linr"  time="-9999999/1" value="1" leadInLength="0/1"  />
               <InterpolatingParam id="6072" interp="linr"  time="-9999999/1" value="1" leadInLength="0/1"  />
              </VectorParam>
              <VectorParam id="6073"  name="anchor">
               <InterpolatingParam id="6074" interp="linr"  time="0/1" value="0" leadInLength="0/1"  />
               <InterpolatingParam id="6075" interp="linr"  time="0/1" value="0" leadInLength="0/1"  />
               <InterpolatingParam id="6076" interp="linr"  time="0/1" value="0" leadInLength="0/1"  />
              </VectorParam>
             </Transformer>
             <Parameters>
              <VectorParam id="6077"  name="sourceCrop">
               <InterpolatingParam id="6078" interp="linr"  time="0/1" value="0" leadInLength="0/1"  />
               <InterpolatingParam id="6079" interp="linr"  time="0/1" value="0" leadInLength="0/1"  />
               <InterpolatingParam id="6080" interp="linr"  time="0/1" value="0" leadInLength="0/1"  />
               <InterpolatingParam id="6081" interp="linr"  time="0/1" value="0" leadInLength="0/1"  />
              </VectorParam>
              <VectorParam id="6082"  name="geometryCrop">
               <InterpolatingParam id="6083" interp="linr"  time="-9999999/1" value="0" leadInLength="0/1"  />
               <InterpolatingParam id="6084" interp="linr"  time="-9999999/1" value="0" leadInLength="0/1"  />
               <InterpolatingParam id="6085" interp="linr"  time="-9999999/1" value="0" leadInLength="0/1"  />
               <InterpolatingParam id="6086" interp="linr"  time="-9999999/1" value="0" leadInLength="0/1"  />
              </VectorParam>
              <InterpolatingParam id="6087" interp="linr"  time="-9999999/1" value="1" leadInLength="0/1"  name="opacity"/>
              <InterpolatingParam id="6088" interp="linr"  time="0/1" value="0" leadInLength="0/1"  name="cursorOpacity"/>
              <InterpolatingParam id="6089" interp="linr"  time="0/1" value="0" leadInLength="0/1"  name="cursorScale"/>
             </Parameters>
             <Attributes>
              <Attribute id="6090" value="" name="ident"/>
             </Attributes>
             <ExtraData>
              <Entry key="ZoomPanBin">
               <ZoomPanBin id="6091"  >
                <ZoomPanKeyframes>
                 <ZoomPanKeyframe id="6092" timeRangeEnd="-9999999/1" timeRangeDuration="0/1" interpolaterName=""  />
                </ZoomPanKeyframes>
               </ZoomPanBin>
              </Entry>
              <Entry key="CursorEffectBin">
               <CursorEffectBin id="6093"  >
                <CursorEffectKeyframes>
                </CursorEffectKeyframes>
               </CursorEffectBin>
              </Entry>
             </ExtraData>
            </ScreenVMFile>
            <MetaData>
             <entry key="AutoAppliedSmartFocus" val="False"/>
             <entry key="WinSubProjectDisplayName" val=""/>
            </MetaData>
           </UnifiedMedia>
           <UnifiedMedia id="6094"  >
            <AMFile id="6095" start="2665" duration="203" scalar="1/1" mediaStart="4303/1" mediaDuration="203/1" trackNumber="1" src="4" channelNumber="0,1" >
             <Parameters>
              <InterpolatingParam id="6096" interp="linr"  time="0/1" value="1" leadInLength="0/1"  name="volume"/>
              <Parameter id="6097"  name="captions"/>
             </Parameters>
             <Attributes>
              <Attribute id="6098" value="" name="ident"/>
              <Attribute id="6099" value="44100" name="sampleRate"/>
              <Attribute id="6100" value="16" name="bitDepth"/>
              <Attribute id="6101" value="1" name="gain"/>
              <Attribute id="6102" value="0" name="mixToMono"/>
             </Attributes>
            </AMFile>
            <ScreenVMFile id="6103" start="2665" duration="203" scalar="1/1" mediaStart="4303/1" mediaDuration="203/1" trackNumber="0" src="4" >
             <Transformer>
              <VectorParam id="6104"  name="translation">
               <InterpolatingParam id="6105" interp="linr"  time="-9999999/1" value="0" leadInLength="0/1"  />
               <InterpolatingParam id="6106" interp="linr"  time="-9999999/1" value="0" leadInLength="0/1"  />
               <InterpolatingParam id="6107" interp="linr"  time="-9999999/1" value="0" leadInLength="0/1"  />
              </VectorParam>
              <VectorParam id="6108"  name="rotation">
               <InterpolatingParam id="6109" interp="linr"  time="-9999999/1" value="0" leadInLength="0/1"  />
               <InterpolatingParam id="6110" interp="linr"  time="-9999999/1" value="0" leadInLength="0/1"  />
               <InterpolatingParam id="6111" interp="linr"  time="-9999999/1" value="0" leadInLength="0/1"  />
              </VectorParam>
              <VectorParam id="6112"  name="shear">
               <InterpolatingParam id="6113" interp="linr"  time="-9999999/1" value="0" leadInLength="0/1"  />
               <InterpolatingParam id="6114" interp="linr"  time="-9999999/1" value="0" leadInLength="0/1"  />
               <InterpolatingParam id="6115" interp="linr"  time="-9999999/1" value="0" leadInLength="0/1"  />
              </VectorParam>
              <VectorParam id="6116"  name="scale">
               <InterpolatingParam id="6117" interp="linr"  time="-9999999/1" value="1" leadInLength="0/1"  />
               <InterpolatingParam id="6118" interp="linr"  time="-9999999/1" value="1" leadInLength="0/1"  />
               <InterpolatingParam id="6119" interp="linr"  time="-9999999/1" value="1" leadInLength="0/1"  />
              </VectorParam>
              <VectorParam id="6120"  name="anchor">
               <InterpolatingParam id="6121" interp="linr"  time="0/1" value="0" leadInLength="0/1"  />
               <InterpolatingParam id="6122" interp="linr"  time="0/1" value="0" leadInLength="0/1"  />
               <InterpolatingParam id="6123" interp="linr"  time="0/1" value="0" leadInLength="0/1"  />
              </VectorParam>
             </Transformer>
             <Parameters>
              <VectorParam id="6124"  name="sourceCrop">
               <InterpolatingParam id="6125" interp="linr"  time="0/1" value="0" leadInLength="0/1"  />
               <InterpolatingParam id="6126" interp="linr"  time="0/1" value="0" leadInLength="0/1"  />
               <InterpolatingParam id="6127" interp="linr"  time="0/1" value="0" leadInLength="0/1"  />
               <InterpolatingParam id="6128" interp="linr"  time="0/1" value="0" leadInLength="0/1"  />
              </VectorParam>
              <VectorParam id="6129"  name="geometryCrop">
               <InterpolatingParam id="6130" interp="linr"  time="-9999999/1" value="0" leadInLength="0/1"  />
               <InterpolatingParam id="6131" interp="linr"  time="-9999999/1" value="0" leadInLength="0/1"  />
               <InterpolatingParam id="6132" interp="linr"  time="-9999999/1" value="0" leadInLength="0/1"  />
               <InterpolatingParam id="6133" interp="linr"  time="-9999999/1" value="0" leadInLength="0/1"  />
              </VectorParam>
              <InterpolatingParam id="6134" interp="linr"  time="-9999999/1" value="1" leadInLength="0/1"  name="opacity"/>
              <InterpolatingParam id="6135" interp="linr"  time="0/1" value="0" leadInLength="0/1"  name="cursorOpacity"/>
              <InterpolatingParam id="6136" interp="linr"  time="0/1" value="0" leadInLength="0/1"  name="cursorScale"/>
             </Parameters>
             <Attributes>
              <Attribute id="6137" value="" name="ident"/>
             </Attributes>
             <ExtraData>
              <Entry key="ZoomPanBin">
               <ZoomPanBin id="6138"  >
                <ZoomPanKeyframes>
                 <ZoomPanKeyframe id="6139" timeRangeEnd="-9999999/1" timeRangeDuration="0/1" interpolaterName=""  />
                </ZoomPanKeyframes>
               </ZoomPanBin>
              </Entry>
              <Entry key="CursorEffectBin">
               <CursorEffectBin id="6140"  >
                <CursorEffectKeyframes>
                </CursorEffectKeyframes>
               </CursorEffectBin>
              </Entry>
             </ExtraData>
            </ScreenVMFile>
            <MetaData>
             <entry key="AutoAppliedSmartFocus" val="False"/>
             <entry key="WinSubProjectDisplayName" val=""/>
            </MetaData>
           </UnifiedMedia>
           <UnifiedMedia id="6141"  >
            <AMFile id="6142" start="2868" duration="97" scalar="1/1" mediaStart="4515/1" mediaDuration="97/1" trackNumber="1" src="4" channelNumber="0,1" >
             <Parameters>
              <InterpolatingParam id="6143" interp="linr"  time="0/1" value="1" leadInLength="0/1"  name="volume"/>
              <Parameter id="6144"  name="captions"/>
             </Parameters>
             <Attributes>
              <Attribute id="6145" value="" name="ident"/>
              <Attribute id="6146" value="44100" name="sampleRate"/>
              <Attribute id="6147" value="16" name="bitDepth"/>
              <Attribute id="6148" value="1" name="gain"/>
              <Attribute id="6149" value="0" name="mixToMono"/>
             </Attributes>
            </AMFile>
            <ScreenVMFile id="6150" start="2868" duration="97" scalar="1/1" mediaStart="4515/1" mediaDuration="97/1" trackNumber="0" src="4" >
             <Transformer>
              <VectorParam id="6151"  name="translation">
               <InterpolatingParam id="6152" interp="linr"  time="-9999999/1" value="0" leadInLength="0/1"  />
               <InterpolatingParam id="6153" interp="linr"  time="-9999999/1" value="0" leadInLength="0/1"  />
               <InterpolatingParam id="6154" interp="linr"  time="-9999999/1" value="0" leadInLength="0/1"  />
              </VectorParam>
              <VectorParam id="6155"  name="rotation">
               <InterpolatingParam id="6156" interp="linr"  time="-9999999/1" value="0" leadInLength="0/1"  />
               <InterpolatingParam id="6157" interp="linr"  time="-9999999/1" value="0" leadInLength="0/1"  />
               <InterpolatingParam id="6158" interp="linr"  time="-9999999/1" value="0" leadInLength="0/1"  />
              </VectorParam>
              <VectorParam id="6159"  name="shear">
               <InterpolatingParam id="6160" interp="linr"  time="-9999999/1" value="0" leadInLength="0/1"  />
               <InterpolatingParam id="6161" interp="linr"  time="-9999999/1" value="0" leadInLength="0/1"  />
               <InterpolatingParam id="6162" interp="linr"  time="-9999999/1" value="0" leadInLength="0/1"  />
              </VectorParam>
              <VectorParam id="6163"  name="scale">
               <InterpolatingParam id="6164" interp="linr"  time="-9999999/1" value="1" leadInLength="0/1"  />
               <InterpolatingParam id="6165" interp="linr"  time="-9999999/1" value="1" leadInLength="0/1"  />
               <InterpolatingParam id="6166" interp="linr"  time="-9999999/1" value="1" leadInLength="0/1"  />
              </VectorParam>
              <VectorParam id="6167"  name="anchor">
               <InterpolatingParam id="6168" interp="linr"  time="0/1" value="0" leadInLength="0/1"  />
               <InterpolatingParam id="6169" interp="linr"  time="0/1" value="0" leadInLength="0/1"  />
               <InterpolatingParam id="6170" interp="linr"  time="0/1" value="0" leadInLength="0/1"  />
              </VectorParam>
             </Transformer>
             <Parameters>
              <VectorParam id="6171"  name="sourceCrop">
               <InterpolatingParam id="6172" interp="linr"  time="0/1" value="0" leadInLength="0/1"  />
               <InterpolatingParam id="6173" interp="linr"  time="0/1" value="0" leadInLength="0/1"  />
               <InterpolatingParam id="6174" interp="linr"  time="0/1" value="0" leadInLength="0/1"  />
               <InterpolatingParam id="6175" interp="linr"  time="0/1" value="0" leadInLength="0/1"  />
              </VectorParam>
              <VectorParam id="6176"  name="geometryCrop">
               <InterpolatingParam id="6177" interp="linr"  time="-9999999/1" value="0" leadInLength="0/1"  />
               <InterpolatingParam id="6178" interp="linr"  time="-9999999/1" value="0" leadInLength="0/1"  />
               <InterpolatingParam id="6179" interp="linr"  time="-9999999/1" value="0" leadInLength="0/1"  />
               <InterpolatingParam id="6180" interp="linr"  time="-9999999/1" value="0" leadInLength="0/1"  />
              </VectorParam>
              <InterpolatingParam id="6181" interp="linr"  time="-9999999/1" value="1" leadInLength="0/1"  name="opacity"/>
              <InterpolatingParam id="6182" interp="linr"  time="0/1" value="0" leadInLength="0/1"  name="cursorOpacity"/>
              <InterpolatingParam id="6183" interp="linr"  time="0/1" value="0" leadInLength="0/1"  name="cursorScale"/>
             </Parameters>
             <Attributes>
              <Attribute id="6184" value="" name="ident"/>
             </Attributes>
             <ExtraData>
              <Entry key="ZoomPanBin">
               <ZoomPanBin id="6185"  >
                <ZoomPanKeyframes>
                 <ZoomPanKeyframe id="6186" timeRangeEnd="-9999999/1" timeRangeDuration="0/1" interpolaterName=""  />
                </ZoomPanKeyframes>
               </ZoomPanBin>
              </Entry>
              <Entry key="CursorEffectBin">
               <CursorEffectBin id="6187"  >
                <CursorEffectKeyframes>
                </CursorEffectKeyframes>
               </CursorEffectBin>
              </Entry>
             </ExtraData>
            </ScreenVMFile>
            <MetaData>
             <entry key="AutoAppliedSmartFocus" val="False"/>
             <entry key="WinSubProjectDisplayName" val=""/>
            </MetaData>
           </UnifiedMedia>
           <UnifiedMedia id="6188"  >
            <AMFile id="6189" start="2965" duration="87" scalar="1/1" mediaStart="4860/1" mediaDuration="87/1" trackNumber="1" src="4" channelNumber="0,1" >
             <Parameters>
              <InterpolatingParam id="6190" interp="linr"  time="0/1" value="1" leadInLength="0/1"  name="volume"/>
              <Parameter id="6191"  name="captions"/>
             </Parameters>
             <Attributes>
              <Attribute id="6192" value="" name="ident"/>
              <Attribute id="6193" value="44100" name="sampleRate"/>
              <Attribute id="6194" value="16" name="bitDepth"/>
              <Attribute id="6195" value="1" name="gain"/>
              <Attribute id="6196" value="0" name="mixToMono"/>
             </Attributes>
            </AMFile>
            <ScreenVMFile id="6197" start="2965" duration="87" scalar="1/1" mediaStart="4860/1" mediaDuration="87/1" trackNumber="0" src="4" >
             <Transformer>
              <VectorParam id="6198"  name="translation">
               <InterpolatingParam id="6199" interp="linr"  time="-9999999/1" value="0" leadInLength="0/1"  />
               <InterpolatingParam id="6200" interp="linr"  time="-9999999/1" value="0" leadInLength="0/1"  />
               <InterpolatingParam id="6201" interp="linr"  time="-9999999/1" value="0" leadInLength="0/1"  />
              </VectorParam>
              <VectorParam id="6202"  name="rotation">
               <InterpolatingParam id="6203" interp="linr"  time="-9999999/1" value="0" leadInLength="0/1"  />
               <InterpolatingParam id="6204" interp="linr"  time="-9999999/1" value="0" leadInLength="0/1"  />
               <InterpolatingParam id="6205" interp="linr"  time="-9999999/1" value="0" leadInLength="0/1"  />
              </VectorParam>
              <VectorParam id="6206"  name="shear">
               <InterpolatingParam id="6207" interp="linr"  time="-9999999/1" value="0" leadInLength="0/1"  />
               <InterpolatingParam id="6208" interp="linr"  time="-9999999/1" value="0" leadInLength="0/1"  />
               <InterpolatingParam id="6209" interp="linr"  time="-9999999/1" value="0" leadInLength="0/1"  />
              </VectorParam>
              <VectorParam id="6210"  name="scale">
               <InterpolatingParam id="6211" interp="linr"  time="-9999999/1" value="1" leadInLength="0/1"  />
               <InterpolatingParam id="6212" interp="linr"  time="-9999999/1" value="1" leadInLength="0/1"  />
               <InterpolatingParam id="6213" interp="linr"  time="-9999999/1" value="1" leadInLength="0/1"  />
              </VectorParam>
              <VectorParam id="6214"  name="anchor">
               <InterpolatingParam id="6215" interp="linr"  time="0/1" value="0" leadInLength="0/1"  />
               <InterpolatingParam id="6216" interp="linr"  time="0/1" value="0" leadInLength="0/1"  />
               <InterpolatingParam id="6217" interp="linr"  time="0/1" value="0" leadInLength="0/1"  />
              </VectorParam>
             </Transformer>
             <Parameters>
              <VectorParam id="6218"  name="sourceCrop">
               <InterpolatingParam id="6219" interp="linr"  time="0/1" value="0" leadInLength="0/1"  />
               <InterpolatingParam id="6220" interp="linr"  time="0/1" value="0" leadInLength="0/1"  />
               <InterpolatingParam id="6221" interp="linr"  time="0/1" value="0" leadInLength="0/1"  />
               <InterpolatingParam id="6222" interp="linr"  time="0/1" value="0" leadInLength="0/1"  />
              </VectorParam>
              <VectorParam id="6223"  name="geometryCrop">
               <InterpolatingParam id="6224" interp="linr"  time="-9999999/1" value="0" leadInLength="0/1"  />
               <InterpolatingParam id="6225" interp="linr"  time="-9999999/1" value="0" leadInLength="0/1"  />
               <InterpolatingParam id="6226" interp="linr"  time="-9999999/1" value="0" leadInLength="0/1"  />
               <InterpolatingParam id="6227" interp="linr"  time="-9999999/1" value="0" leadInLength="0/1"  />
              </VectorParam>
              <InterpolatingParam id="6228" interp="linr"  time="-9999999/1" value="1" leadInLength="0/1"  name="opacity"/>
              <InterpolatingParam id="6229" interp="linr"  time="0/1" value="0" leadInLength="0/1"  name="cursorOpacity"/>
              <InterpolatingParam id="6230" interp="linr"  time="0/1" value="0" leadInLength="0/1"  name="cursorScale"/>
             </Parameters>
             <Attributes>
              <Attribute id="6231" value="" name="ident"/>
             </Attributes>
             <ExtraData>
              <Entry key="ZoomPanBin">
               <ZoomPanBin id="6232"  >
                <ZoomPanKeyframes>
                 <ZoomPanKeyframe id="6233" timeRangeEnd="-9999999/1" timeRangeDuration="0/1" interpolaterName=""  />
                </ZoomPanKeyframes>
               </ZoomPanBin>
              </Entry>
              <Entry key="CursorEffectBin">
               <CursorEffectBin id="6234"  >
                <CursorEffectKeyframes>
                </CursorEffectKeyframes>
               </CursorEffectBin>
              </Entry>
             </ExtraData>
            </ScreenVMFile>
            <MetaData>
             <entry key="AutoAppliedSmartFocus" val="False"/>
             <entry key="WinSubProjectDisplayName" val=""/>
            </MetaData>
           </UnifiedMedia>
           <UnifiedMedia id="6235"  >
            <AMFile id="6236" start="3052" duration="73" scalar="1/1" mediaStart="4957/1" mediaDuration="73/1" trackNumber="1" src="4" channelNumber="0,1" >
             <Parameters>
              <InterpolatingParam id="6237" interp="linr"  time="0/1" value="1" leadInLength="0/1"  name="volume"/>
              <Parameter id="6238"  name="captions"/>
             </Parameters>
             <Attributes>
              <Attribute id="6239" value="" name="ident"/>
              <Attribute id="6240" value="44100" name="sampleRate"/>
              <Attribute id="6241" value="16" name="bitDepth"/>
              <Attribute id="6242" value="1" name="gain"/>
              <Attribute id="6243" value="0" name="mixToMono"/>
             </Attributes>
            </AMFile>
            <ScreenVMFile id="6244" start="3052" duration="73" scalar="1/1" mediaStart="4957/1" mediaDuration="73/1" trackNumber="0" src="4" >
             <Transformer>
              <VectorParam id="6245"  name="translation">
               <InterpolatingParam id="6246" interp="linr"  time="-9999999/1" value="0" leadInLength="0/1"  />
               <InterpolatingParam id="6247" interp="linr"  time="-9999999/1" value="0" leadInLength="0/1"  />
               <InterpolatingParam id="6248" interp="linr"  time="-9999999/1" value="0" leadInLength="0/1"  />
              </VectorParam>
              <VectorParam id="6249"  name="rotation">
               <InterpolatingParam id="6250" interp="linr"  time="-9999999/1" value="0" leadInLength="0/1"  />
               <InterpolatingParam id="6251" interp="linr"  time="-9999999/1" value="0" leadInLength="0/1"  />
               <InterpolatingParam id="6252" interp="linr"  time="-9999999/1" value="0" leadInLength="0/1"  />
              </VectorParam>
              <VectorParam id="6253"  name="shear">
               <InterpolatingParam id="6254" interp="linr"  time="-9999999/1" value="0" leadInLength="0/1"  />
               <InterpolatingParam id="6255" interp="linr"  time="-9999999/1" value="0" leadInLength="0/1"  />
               <InterpolatingParam id="6256" interp="linr"  time="-9999999/1" value="0" leadInLength="0/1"  />
              </VectorParam>
              <VectorParam id="6257"  name="scale">
               <InterpolatingParam id="6258" interp="linr"  time="-9999999/1" value="1" leadInLength="0/1"  />
               <InterpolatingParam id="6259" interp="linr"  time="-9999999/1" value="1" leadInLength="0/1"  />
               <InterpolatingParam id="6260" interp="linr"  time="-9999999/1" value="1" leadInLength="0/1"  />
              </VectorParam>
              <VectorParam id="6261"  name="anchor">
               <InterpolatingParam id="6262" interp="linr"  time="0/1" value="0" leadInLength="0/1"  />
               <InterpolatingParam id="6263" interp="linr"  time="0/1" value="0" leadInLength="0/1"  />
               <InterpolatingParam id="6264" interp="linr"  time="0/1" value="0" leadInLength="0/1"  />
              </VectorParam>
             </Transformer>
             <Parameters>
              <VectorParam id="6265"  name="sourceCrop">
               <InterpolatingParam id="6266" interp="linr"  time="0/1" value="0" leadInLength="0/1"  />
               <InterpolatingParam id="6267" interp="linr"  time="0/1" value="0" leadInLength="0/1"  />
               <InterpolatingParam id="6268" interp="linr"  time="0/1" value="0" leadInLength="0/1"  />
               <InterpolatingParam id="6269" interp="linr"  time="0/1" value="0" leadInLength="0/1"  />
              </VectorParam>
              <VectorParam id="6270"  name="geometryCrop">
               <InterpolatingParam id="6271" interp="linr"  time="-9999999/1" value="0" leadInLength="0/1"  />
               <InterpolatingParam id="6272" interp="linr"  time="-9999999/1" value="0" leadInLength="0/1"  />
               <InterpolatingParam id="6273" interp="linr"  time="-9999999/1" value="0" leadInLength="0/1"  />
               <InterpolatingParam id="6274" interp="linr"  time="-9999999/1" value="0" leadInLength="0/1"  />
              </VectorParam>
              <InterpolatingParam id="6275" interp="linr"  time="-9999999/1" value="1" leadInLength="0/1"  name="opacity"/>
              <InterpolatingParam id="6276" interp="linr"  time="0/1" value="0" leadInLength="0/1"  name="cursorOpacity"/>
              <InterpolatingParam id="6277" interp="linr"  time="0/1" value="0" leadInLength="0/1"  name="cursorScale"/>
             </Parameters>
             <Attributes>
              <Attribute id="6278" value="" name="ident"/>
             </Attributes>
             <ExtraData>
              <Entry key="ZoomPanBin">
               <ZoomPanBin id="6279"  >
                <ZoomPanKeyframes>
                 <ZoomPanKeyframe id="6280" timeRangeEnd="-9999999/1" timeRangeDuration="0/1" interpolaterName=""  />
                </ZoomPanKeyframes>
               </ZoomPanBin>
              </Entry>
              <Entry key="CursorEffectBin">
               <CursorEffectBin id="6281"  >
                <CursorEffectKeyframes>
                </CursorEffectKeyframes>
               </CursorEffectBin>
              </Entry>
             </ExtraData>
            </ScreenVMFile>
            <MetaData>
             <entry key="AutoAppliedSmartFocus" val="False"/>
             <entry key="WinSubProjectDisplayName" val=""/>
            </MetaData>
           </UnifiedMedia>
           <UnifiedMedia id="6282"  >
            <AMFile id="6283" start="3125" duration="197" scalar="1/1" mediaStart="5334/1" mediaDuration="197/1" trackNumber="1" src="4" channelNumber="0,1" >
             <Parameters>
              <InterpolatingParam id="6284" interp="linr"  time="0/1" value="1" leadInLength="0/1"  name="volume"/>
              <Parameter id="6285"  name="captions"/>
             </Parameters>
             <Attributes>
              <Attribute id="6286" value="" name="ident"/>
              <Attribute id="6287" value="44100" name="sampleRate"/>
              <Attribute id="6288" value="16" name="bitDepth"/>
              <Attribute id="6289" value="1" name="gain"/>
              <Attribute id="6290" value="0" name="mixToMono"/>
             </Attributes>
            </AMFile>
            <ScreenVMFile id="6291" start="3125" duration="197" scalar="1/1" mediaStart="5334/1" mediaDuration="197/1" trackNumber="0" src="4" >
             <Transformer>
              <VectorParam id="6292"  name="translation">
               <InterpolatingParam id="6293" interp="linr"  time="-9999999/1" value="0" leadInLength="0/1"  />
               <InterpolatingParam id="6294" interp="linr"  time="-9999999/1" value="0" leadInLength="0/1"  />
               <InterpolatingParam id="6295" interp="linr"  time="-9999999/1" value="0" leadInLength="0/1"  />
              </VectorParam>
              <VectorParam id="6296"  name="rotation">
               <InterpolatingParam id="6297" interp="linr"  time="-9999999/1" value="0" leadInLength="0/1"  />
               <InterpolatingParam id="6298" interp="linr"  time="-9999999/1" value="0" leadInLength="0/1"  />
               <InterpolatingParam id="6299" interp="linr"  time="-9999999/1" value="0" leadInLength="0/1"  />
              </VectorParam>
              <VectorParam id="6300"  name="shear">
               <InterpolatingParam id="6301" interp="linr"  time="-9999999/1" value="0" leadInLength="0/1"  />
               <InterpolatingParam id="6302" interp="linr"  time="-9999999/1" value="0" leadInLength="0/1"  />
               <InterpolatingParam id="6303" interp="linr"  time="-9999999/1" value="0" leadInLength="0/1"  />
              </VectorParam>
              <VectorParam id="6304"  name="scale">
               <InterpolatingParam id="6305" interp="linr"  time="-9999999/1" value="1" leadInLength="0/1"  />
               <InterpolatingParam id="6306" interp="linr"  time="-9999999/1" value="1" leadInLength="0/1"  />
               <InterpolatingParam id="6307" interp="linr"  time="-9999999/1" value="1" leadInLength="0/1"  />
              </VectorParam>
              <VectorParam id="6308"  name="anchor">
               <InterpolatingParam id="6309" interp="linr"  time="0/1" value="0" leadInLength="0/1"  />
               <InterpolatingParam id="6310" interp="linr"  time="0/1" value="0" leadInLength="0/1"  />
               <InterpolatingParam id="6311" interp="linr"  time="0/1" value="0" leadInLength="0/1"  />
              </VectorParam>
             </Transformer>
             <Parameters>
              <VectorParam id="6312"  name="sourceCrop">
               <InterpolatingParam id="6313" interp="linr"  time="0/1" value="0" leadInLength="0/1"  />
               <InterpolatingParam id="6314" interp="linr"  time="0/1" value="0" leadInLength="0/1"  />
               <InterpolatingParam id="6315" interp="linr"  time="0/1" value="0" leadInLength="0/1"  />
               <InterpolatingParam id="6316" interp="linr"  time="0/1" value="0" leadInLength="0/1"  />
              </VectorParam>
              <VectorParam id="6317"  name="geometryCrop">
               <InterpolatingParam id="6318" interp="linr"  time="-9999999/1" value="0" leadInLength="0/1"  />
               <InterpolatingParam id="6319" interp="linr"  time="-9999999/1" value="0" leadInLength="0/1"  />
               <InterpolatingParam id="6320" interp="linr"  time="-9999999/1" value="0" leadInLength="0/1"  />
               <InterpolatingParam id="6321" interp="linr"  time="-9999999/1" value="0" leadInLength="0/1"  />
              </VectorParam>
              <InterpolatingParam id="6322" interp="linr"  time="-9999999/1" value="1" leadInLength="0/1"  name="opacity"/>
              <InterpolatingParam id="6323" interp="linr"  time="0/1" value="0" leadInLength="0/1"  name="cursorOpacity"/>
              <InterpolatingParam id="6324" interp="linr"  time="0/1" value="0" leadInLength="0/1"  name="cursorScale"/>
             </Parameters>
             <Attributes>
              <Attribute id="6325" value="" name="ident"/>
             </Attributes>
             <ExtraData>
              <Entry key="ZoomPanBin">
               <ZoomPanBin id="6326"  >
                <ZoomPanKeyframes>
                 <ZoomPanKeyframe id="6327" timeRangeEnd="-9999999/1" timeRangeDuration="0/1" interpolaterName=""  />
                </ZoomPanKeyframes>
               </ZoomPanBin>
              </Entry>
              <Entry key="CursorEffectBin">
               <CursorEffectBin id="6328"  >
                <CursorEffectKeyframes>
                </CursorEffectKeyframes>
               </CursorEffectBin>
              </Entry>
             </ExtraData>
            </ScreenVMFile>
            <MetaData>
             <entry key="AutoAppliedSmartFocus" val="False"/>
             <entry key="WinSubProjectDisplayName" val=""/>
            </MetaData>
           </UnifiedMedia>
           <UnifiedMedia id="6329"  >
            <AMFile id="6330" start="3322" duration="154" scalar="1/1" mediaStart="5537/1" mediaDuration="154/1" trackNumber="1" src="4" channelNumber="0,1" >
             <Parameters>
              <InterpolatingParam id="6331" interp="linr"  time="0/1" value="1" leadInLength="0/1"  name="volume"/>
              <Parameter id="6332"  name="captions"/>
             </Parameters>
             <Attributes>
              <Attribute id="6333" value="" name="ident"/>
              <Attribute id="6334" value="44100" name="sampleRate"/>
              <Attribute id="6335" value="16" name="bitDepth"/>
              <Attribute id="6336" value="1" name="gain"/>
              <Attribute id="6337" value="0" name="mixToMono"/>
             </Attributes>
            </AMFile>
            <ScreenVMFile id="6338" start="3322" duration="154" scalar="1/1" mediaStart="5537/1" mediaDuration="154/1" trackNumber="0" src="4" >
             <Transformer>
              <VectorParam id="6339"  name="translation">
               <InterpolatingParam id="6340" interp="linr"  time="-9999999/1" value="0" leadInLength="0/1"  />
               <InterpolatingParam id="6341" interp="linr"  time="-9999999/1" value="0" leadInLength="0/1"  />
               <InterpolatingParam id="6342" interp="linr"  time="-9999999/1" value="0" leadInLength="0/1"  />
              </VectorParam>
              <VectorParam id="6343"  name="rotation">
               <InterpolatingParam id="6344" interp="linr"  time="-9999999/1" value="0" leadInLength="0/1"  />
               <InterpolatingParam id="6345" interp="linr"  time="-9999999/1" value="0" leadInLength="0/1"  />
               <InterpolatingParam id="6346" interp="linr"  time="-9999999/1" value="0" leadInLength="0/1"  />
              </VectorParam>
              <VectorParam id="6347"  name="shear">
               <InterpolatingParam id="6348" interp="linr"  time="-9999999/1" value="0" leadInLength="0/1"  />
               <InterpolatingParam id="6349" interp="linr"  time="-9999999/1" value="0" leadInLength="0/1"  />
               <InterpolatingParam id="6350" interp="linr"  time="-9999999/1" value="0" leadInLength="0/1"  />
              </VectorParam>
              <VectorParam id="6351"  name="scale">
               <InterpolatingParam id="6352" interp="linr"  time="-9999999/1" value="1" leadInLength="0/1"  />
               <InterpolatingParam id="6353" interp="linr"  time="-9999999/1" value="1" leadInLength="0/1"  />
               <InterpolatingParam id="6354" interp="linr"  time="-9999999/1" value="1" leadInLength="0/1"  />
              </VectorParam>
              <VectorParam id="6355"  name="anchor">
               <InterpolatingParam id="6356" interp="linr"  time="0/1" value="0" leadInLength="0/1"  />
               <InterpolatingParam id="6357" interp="linr"  time="0/1" value="0" leadInLength="0/1"  />
               <InterpolatingParam id="6358" interp="linr"  time="0/1" value="0" leadInLength="0/1"  />
              </VectorParam>
             </Transformer>
             <Parameters>
              <VectorParam id="6359"  name="sourceCrop">
               <InterpolatingParam id="6360" interp="linr"  time="0/1" value="0" leadInLength="0/1"  />
               <InterpolatingParam id="6361" interp="linr"  time="0/1" value="0" leadInLength="0/1"  />
               <InterpolatingParam id="6362" interp="linr"  time="0/1" value="0" leadInLength="0/1"  />
               <InterpolatingParam id="6363" interp="linr"  time="0/1" value="0" leadInLength="0/1"  />
              </VectorParam>
              <VectorParam id="6364"  name="geometryCrop">
               <InterpolatingParam id="6365" interp="linr"  time="-9999999/1" value="0" leadInLength="0/1"  />
               <InterpolatingParam id="6366" interp="linr"  time="-9999999/1" value="0" leadInLength="0/1"  />
               <InterpolatingParam id="6367" interp="linr"  time="-9999999/1" value="0" leadInLength="0/1"  />
               <InterpolatingParam id="6368" interp="linr"  time="-9999999/1" value="0" leadInLength="0/1"  />
              </VectorParam>
              <InterpolatingParam id="6369" interp="linr"  time="-9999999/1" value="1" leadInLength="0/1"  name="opacity"/>
              <InterpolatingParam id="6370" interp="linr"  time="0/1" value="0" leadInLength="0/1"  name="cursorOpacity"/>
              <InterpolatingParam id="6371" interp="linr"  time="0/1" value="0" leadInLength="0/1"  name="cursorScale"/>
             </Parameters>
             <Attributes>
              <Attribute id="6372" value="" name="ident"/>
             </Attributes>
             <ExtraData>
              <Entry key="ZoomPanBin">
               <ZoomPanBin id="6373"  >
                <ZoomPanKeyframes>
                 <ZoomPanKeyframe id="6374" timeRangeEnd="-9999999/1" timeRangeDuration="0/1" interpolaterName=""  />
                </ZoomPanKeyframes>
               </ZoomPanBin>
              </Entry>
              <Entry key="CursorEffectBin">
               <CursorEffectBin id="6375"  >
                <CursorEffectKeyframes>
                </CursorEffectKeyframes>
               </CursorEffectBin>
              </Entry>
             </ExtraData>
            </ScreenVMFile>
            <MetaData>
             <entry key="AutoAppliedSmartFocus" val="False"/>
             <entry key="WinSubProjectDisplayName" val=""/>
            </MetaData>
           </UnifiedMedia>
           <UnifiedMedia id="6376"  >
            <AMFile id="6377" start="3476" duration="128" scalar="1/1" mediaStart="5706/1" mediaDuration="128/1" trackNumber="1" src="4" channelNumber="0,1" >
             <Parameters>
              <InterpolatingParam id="6378" interp="linr"  time="0/1" value="1" leadInLength="0/1"  name="volume"/>
              <Parameter id="6379"  name="captions"/>
             </Parameters>
             <Attributes>
              <Attribute id="6380" value="" name="ident"/>
              <Attribute id="6381" value="44100" name="sampleRate"/>
              <Attribute id="6382" value="16" name="bitDepth"/>
              <Attribute id="6383" value="1" name="gain"/>
              <Attribute id="6384" value="0" name="mixToMono"/>
             </Attributes>
            </AMFile>
            <ScreenVMFile id="6385" start="3476" duration="128" scalar="1/1" mediaStart="5706/1" mediaDuration="128/1" trackNumber="0" src="4" >
             <Transformer>
              <VectorParam id="6386"  name="translation">
               <InterpolatingParam id="6387" interp="linr"  time="-9999999/1" value="0" leadInLength="0/1"  />
               <InterpolatingParam id="6388" interp="linr"  time="-9999999/1" value="0" leadInLength="0/1"  />
               <InterpolatingParam id="6389" interp="linr"  time="-9999999/1" value="0" leadInLength="0/1"  />
              </VectorParam>
              <VectorParam id="6390"  name="rotation">
               <InterpolatingParam id="6391" interp="linr"  time="-9999999/1" value="0" leadInLength="0/1"  />
               <InterpolatingParam id="6392" interp="linr"  time="-9999999/1" value="0" leadInLength="0/1"  />
               <InterpolatingParam id="6393" interp="linr"  time="-9999999/1" value="0" leadInLength="0/1"  />
              </VectorParam>
              <VectorParam id="6394"  name="shear">
               <InterpolatingParam id="6395" interp="linr"  time="-9999999/1" value="0" leadInLength="0/1"  />
               <InterpolatingParam id="6396" interp="linr"  time="-9999999/1" value="0" leadInLength="0/1"  />
               <InterpolatingParam id="6397" interp="linr"  time="-9999999/1" value="0" leadInLength="0/1"  />
              </VectorParam>
              <VectorParam id="6398"  name="scale">
               <InterpolatingParam id="6399" interp="linr"  time="-9999999/1" value="1" leadInLength="0/1"  />
               <InterpolatingParam id="6400" interp="linr"  time="-9999999/1" value="1" leadInLength="0/1"  />
               <InterpolatingParam id="6401" interp="linr"  time="-9999999/1" value="1" leadInLength="0/1"  />
              </VectorParam>
              <VectorParam id="6402"  name="anchor">
               <InterpolatingParam id="6403" interp="linr"  time="0/1" value="0" leadInLength="0/1"  />
               <InterpolatingParam id="6404" interp="linr"  time="0/1" value="0" leadInLength="0/1"  />
               <InterpolatingParam id="6405" interp="linr"  time="0/1" value="0" leadInLength="0/1"  />
              </VectorParam>
             </Transformer>
             <Parameters>
              <VectorParam id="6406"  name="sourceCrop">
               <InterpolatingParam id="6407" interp="linr"  time="0/1" value="0" leadInLength="0/1"  />
               <InterpolatingParam id="6408" interp="linr"  time="0/1" value="0" leadInLength="0/1"  />
               <InterpolatingParam id="6409" interp="linr"  time="0/1" value="0" leadInLength="0/1"  />
               <InterpolatingParam id="6410" interp="linr"  time="0/1" value="0" leadInLength="0/1"  />
              </VectorParam>
              <VectorParam id="6411"  name="geometryCrop">
               <InterpolatingParam id="6412" interp="linr"  time="-9999999/1" value="0" leadInLength="0/1"  />
               <InterpolatingParam id="6413" interp="linr"  time="-9999999/1" value="0" leadInLength="0/1"  />
               <InterpolatingParam id="6414" interp="linr"  time="-9999999/1" value="0" leadInLength="0/1"  />
               <InterpolatingParam id="6415" interp="linr"  time="-9999999/1" value="0" leadInLength="0/1"  />
              </VectorParam>
              <InterpolatingParam id="6416" interp="linr"  time="-9999999/1" value="1" leadInLength="0/1"  name="opacity"/>
              <InterpolatingParam id="6417" interp="linr"  time="0/1" value="0" leadInLength="0/1"  name="cursorOpacity"/>
              <InterpolatingParam id="6418" interp="linr"  time="0/1" value="0" leadInLength="0/1"  name="cursorScale"/>
             </Parameters>
             <Attributes>
              <Attribute id="6419" value="" name="ident"/>
             </Attributes>
             <ExtraData>
              <Entry key="ZoomPanBin">
               <ZoomPanBin id="6420"  >
                <ZoomPanKeyframes>
                 <ZoomPanKeyframe id="6421" timeRangeEnd="-9999999/1" timeRangeDuration="0/1" interpolaterName=""  />
                </ZoomPanKeyframes>
               </ZoomPanBin>
              </Entry>
              <Entry key="CursorEffectBin">
               <CursorEffectBin id="6422"  >
                <CursorEffectKeyframes>
                </CursorEffectKeyframes>
               </CursorEffectBin>
              </Entry>
             </ExtraData>
            </ScreenVMFile>
            <MetaData>
             <entry key="AutoAppliedSmartFocus" val="False"/>
             <entry key="WinSubProjectDisplayName" val=""/>
            </MetaData>
           </UnifiedMedia>
           <UnifiedMedia id="6423"  >
            <AMFile id="6424" start="3604" duration="256" scalar="1/1" mediaStart="6003/1" mediaDuration="256/1" trackNumber="1" src="4" channelNumber="0,1" >
             <Parameters>
              <InterpolatingParam id="6425" interp="linr"  time="0/1" value="1" leadInLength="0/1"  name="volume"/>
              <Parameter id="6426"  name="captions"/>
             </Parameters>
             <Attributes>
              <Attribute id="6427" value="" name="ident"/>
              <Attribute id="6428" value="44100" name="sampleRate"/>
              <Attribute id="6429" value="16" name="bitDepth"/>
              <Attribute id="6430" value="1" name="gain"/>
              <Attribute id="6431" value="0" name="mixToMono"/>
             </Attributes>
            </AMFile>
            <ScreenVMFile id="6432" start="3604" duration="256" scalar="1/1" mediaStart="6003/1" mediaDuration="256/1" trackNumber="0" src="4" >
             <Transformer>
              <VectorParam id="6433"  name="translation">
               <InterpolatingParam id="6434" interp="linr"  time="-9999999/1" value="0" leadInLength="0/1"  />
               <InterpolatingParam id="6435" interp="linr"  time="-9999999/1" value="0" leadInLength="0/1"  />
               <InterpolatingParam id="6436" interp="linr"  time="-9999999/1" value="0" leadInLength="0/1"  />
              </VectorParam>
              <VectorParam id="6437"  name="rotation">
               <InterpolatingParam id="6438" interp="linr"  time="-9999999/1" value="0" leadInLength="0/1"  />
               <InterpolatingParam id="6439" interp="linr"  time="-9999999/1" value="0" leadInLength="0/1"  />
               <InterpolatingParam id="6440" interp="linr"  time="-9999999/1" value="0" leadInLength="0/1"  />
              </VectorParam>
              <VectorParam id="6441"  name="shear">
               <InterpolatingParam id="6442" interp="linr"  time="-9999999/1" value="0" leadInLength="0/1"  />
               <InterpolatingParam id="6443" interp="linr"  time="-9999999/1" value="0" leadInLength="0/1"  />
               <InterpolatingParam id="6444" interp="linr"  time="-9999999/1" value="0" leadInLength="0/1"  />
              </VectorParam>
              <VectorParam id="6445"  name="scale">
               <InterpolatingParam id="6446" interp="linr"  time="-9999999/1" value="1" leadInLength="0/1"  />
               <InterpolatingParam id="6447" interp="linr"  time="-9999999/1" value="1" leadInLength="0/1"  />
               <InterpolatingParam id="6448" interp="linr"  time="-9999999/1" value="1" leadInLength="0/1"  />
              </VectorParam>
              <VectorParam id="6449"  name="anchor">
               <InterpolatingParam id="6450" interp="linr"  time="0/1" value="0" leadInLength="0/1"  />
               <InterpolatingParam id="6451" interp="linr"  time="0/1" value="0" leadInLength="0/1"  />
               <InterpolatingParam id="6452" interp="linr"  time="0/1" value="0" leadInLength="0/1"  />
              </VectorParam>
             </Transformer>
             <Parameters>
              <VectorParam id="6453"  name="sourceCrop">
               <InterpolatingParam id="6454" interp="linr"  time="0/1" value="0" leadInLength="0/1"  />
               <InterpolatingParam id="6455" interp="linr"  time="0/1" value="0" leadInLength="0/1"  />
               <InterpolatingParam id="6456" interp="linr"  time="0/1" value="0" leadInLength="0/1"  />
               <InterpolatingParam id="6457" interp="linr"  time="0/1" value="0" leadInLength="0/1"  />
              </VectorParam>
              <VectorParam id="6458"  name="geometryCrop">
               <InterpolatingParam id="6459" interp="linr"  time="-9999999/1" value="0" leadInLength="0/1"  />
               <InterpolatingParam id="6460" interp="linr"  time="-9999999/1" value="0" leadInLength="0/1"  />
               <InterpolatingParam id="6461" interp="linr"  time="-9999999/1" value="0" leadInLength="0/1"  />
               <InterpolatingParam id="6462" interp="linr"  time="-9999999/1" value="0" leadInLength="0/1"  />
              </VectorParam>
              <InterpolatingParam id="6463" interp="linr"  time="-9999999/1" value="1" leadInLength="0/1"  name="opacity"/>
              <InterpolatingParam id="6464" interp="linr"  time="0/1" value="0" leadInLength="0/1"  name="cursorOpacity"/>
              <InterpolatingParam id="6465" interp="linr"  time="0/1" value="0" leadInLength="0/1"  name="cursorScale"/>
             </Parameters>
             <Attributes>
              <Attribute id="6466" value="" name="ident"/>
             </Attributes>
             <ExtraData>
              <Entry key="ZoomPanBin">
               <ZoomPanBin id="6467"  >
                <ZoomPanKeyframes>
                 <ZoomPanKeyframe id="6468" timeRangeEnd="-9999999/1" timeRangeDuration="0/1" interpolaterName=""  />
                </ZoomPanKeyframes>
               </ZoomPanBin>
              </Entry>
              <Entry key="CursorEffectBin">
               <CursorEffectBin id="6469"  >
                <CursorEffectKeyframes>
                </CursorEffectKeyframes>
               </CursorEffectBin>
              </Entry>
             </ExtraData>
            </ScreenVMFile>
            <MetaData>
             <entry key="AutoAppliedSmartFocus" val="False"/>
             <entry key="WinSubProjectDisplayName" val=""/>
            </MetaData>
           </UnifiedMedia>
           <UnifiedMedia id="6470"  >
            <AMFile id="6471" start="3860" duration="365" scalar="1/1" mediaStart="6373/1" mediaDuration="365/1" trackNumber="1" src="4" channelNumber="0,1" >
             <Parameters>
              <InterpolatingParam id="6472" interp="linr"  time="0/1" value="1" leadInLength="0/1"  name="volume"/>
              <Parameter id="6473"  name="captions"/>
             </Parameters>
             <Attributes>
              <Attribute id="6474" value="" name="ident"/>
              <Attribute id="6475" value="44100" name="sampleRate"/>
              <Attribute id="6476" value="16" name="bitDepth"/>
              <Attribute id="6477" value="1" name="gain"/>
              <Attribute id="6478" value="0" name="mixToMono"/>
             </Attributes>
            </AMFile>
            <ScreenVMFile id="6479" start="3860" duration="365" scalar="1/1" mediaStart="6373/1" mediaDuration="365/1" trackNumber="0" src="4" >
             <Transformer>
              <VectorParam id="6480"  name="translation">
               <InterpolatingParam id="6481" interp="linr"  time="-9999999/1" value="0" leadInLength="0/1"  />
               <InterpolatingParam id="6482" interp="linr"  time="-9999999/1" value="0" leadInLength="0/1"  />
               <InterpolatingParam id="6483" interp="linr"  time="-9999999/1" value="0" leadInLength="0/1"  />
              </VectorParam>
              <VectorParam id="6484"  name="rotation">
               <InterpolatingParam id="6485" interp="linr"  time="-9999999/1" value="0" leadInLength="0/1"  />
               <InterpolatingParam id="6486" interp="linr"  time="-9999999/1" value="0" leadInLength="0/1"  />
               <InterpolatingParam id="6487" interp="linr"  time="-9999999/1" value="0" leadInLength="0/1"  />
              </VectorParam>
              <VectorParam id="6488"  name="shear">
               <InterpolatingParam id="6489" interp="linr"  time="-9999999/1" value="0" leadInLength="0/1"  />
               <InterpolatingParam id="6490" interp="linr"  time="-9999999/1" value="0" leadInLength="0/1"  />
               <InterpolatingParam id="6491" interp="linr"  time="-9999999/1" value="0" leadInLength="0/1"  />
              </VectorParam>
              <VectorParam id="6492"  name="scale">
               <InterpolatingParam id="6493" interp="linr"  time="-9999999/1" value="1" leadInLength="0/1"  />
               <InterpolatingParam id="6494" interp="linr"  time="-9999999/1" value="1" leadInLength="0/1"  />
               <InterpolatingParam id="6495" interp="linr"  time="-9999999/1" value="1" leadInLength="0/1"  />
              </VectorParam>
              <VectorParam id="6496"  name="anchor">
               <InterpolatingParam id="6497" interp="linr"  time="0/1" value="0" leadInLength="0/1"  />
               <InterpolatingParam id="6498" interp="linr"  time="0/1" value="0" leadInLength="0/1"  />
               <InterpolatingParam id="6499" interp="linr"  time="0/1" value="0" leadInLength="0/1"  />
              </VectorParam>
             </Transformer>
             <Parameters>
              <VectorParam id="6500"  name="sourceCrop">
               <InterpolatingParam id="6501" interp="linr"  time="0/1" value="0" leadInLength="0/1"  />
               <InterpolatingParam id="6502" interp="linr"  time="0/1" value="0" leadInLength="0/1"  />
               <InterpolatingParam id="6503" interp="linr"  time="0/1" value="0" leadInLength="0/1"  />
               <InterpolatingParam id="6504" interp="linr"  time="0/1" value="0" leadInLength="0/1"  />
              </VectorParam>
              <VectorParam id="6505"  name="geometryCrop">
               <InterpolatingParam id="6506" interp="linr"  time="-9999999/1" value="0" leadInLength="0/1"  />
               <InterpolatingParam id="6507" interp="linr"  time="-9999999/1" value="0" leadInLength="0/1"  />
               <InterpolatingParam id="6508" interp="linr"  time="-9999999/1" value="0" leadInLength="0/1"  />
               <InterpolatingParam id="6509" interp="linr"  time="-9999999/1" value="0" leadInLength="0/1"  />
              </VectorParam>
              <InterpolatingParam id="6510" interp="linr"  time="-9999999/1" value="1" leadInLength="0/1"  name="opacity"/>
              <InterpolatingParam id="6511" interp="linr"  time="0/1" value="0" leadInLength="0/1"  name="cursorOpacity"/>
              <InterpolatingParam id="6512" interp="linr"  time="0/1" value="0" leadInLength="0/1"  name="cursorScale"/>
             </Parameters>
             <Attributes>
              <Attribute id="6513" value="" name="ident"/>
             </Attributes>
             <ExtraData>
              <Entry key="ZoomPanBin">
               <ZoomPanBin id="6514"  >
                <ZoomPanKeyframes>
                 <ZoomPanKeyframe id="6515" timeRangeEnd="-9999999/1" timeRangeDuration="0/1" interpolaterName=""  />
                </ZoomPanKeyframes>
               </ZoomPanBin>
              </Entry>
              <Entry key="CursorEffectBin">
               <CursorEffectBin id="6516"  >
                <CursorEffectKeyframes>
                </CursorEffectKeyframes>
               </CursorEffectBin>
              </Entry>
             </ExtraData>
            </ScreenVMFile>
            <MetaData>
             <entry key="AutoAppliedSmartFocus" val="False"/>
             <entry key="WinSubProjectDisplayName" val=""/>
            </MetaData>
           </UnifiedMedia>
           <UnifiedMedia id="6517"  >
            <AMFile id="6518" start="4225" duration="96" scalar="1/1" mediaStart="7003/1" mediaDuration="96/1" trackNumber="1" src="4" channelNumber="0,1" >
             <Parameters>
              <InterpolatingParam id="6519" interp="linr"  time="0/1" value="1" leadInLength="0/1"  name="volume"/>
              <Parameter id="6520"  name="captions"/>
             </Parameters>
             <Attributes>
              <Attribute id="6521" value="" name="ident"/>
              <Attribute id="6522" value="44100" name="sampleRate"/>
              <Attribute id="6523" value="16" name="bitDepth"/>
              <Attribute id="6524" value="1" name="gain"/>
              <Attribute id="6525" value="0" name="mixToMono"/>
             </Attributes>
            </AMFile>
            <ScreenVMFile id="6526" start="4225" duration="96" scalar="1/1" mediaStart="7003/1" mediaDuration="96/1" trackNumber="0" src="4" >
             <Transformer>
              <VectorParam id="6527"  name="translation">
               <InterpolatingParam id="6528" interp="linr"  time="-9999999/1" value="0" leadInLength="0/1"  />
               <InterpolatingParam id="6529" interp="linr"  time="-9999999/1" value="0" leadInLength="0/1"  />
               <InterpolatingParam id="6530" interp="linr"  time="-9999999/1" value="0" leadInLength="0/1"  />
              </VectorParam>
              <VectorParam id="6531"  name="rotation">
               <InterpolatingParam id="6532" interp="linr"  time="-9999999/1" value="0" leadInLength="0/1"  />
               <InterpolatingParam id="6533" interp="linr"  time="-9999999/1" value="0" leadInLength="0/1"  />
               <InterpolatingParam id="6534" interp="linr"  time="-9999999/1" value="0" leadInLength="0/1"  />
              </VectorParam>
              <VectorParam id="6535"  name="shear">
               <InterpolatingParam id="6536" interp="linr"  time="-9999999/1" value="0" leadInLength="0/1"  />
               <InterpolatingParam id="6537" interp="linr"  time="-9999999/1" value="0" leadInLength="0/1"  />
               <InterpolatingParam id="6538" interp="linr"  time="-9999999/1" value="0" leadInLength="0/1"  />
              </VectorParam>
              <VectorParam id="6539"  name="scale">
               <InterpolatingParam id="6540" interp="linr"  time="-9999999/1" value="1" leadInLength="0/1"  />
               <InterpolatingParam id="6541" interp="linr"  time="-9999999/1" value="1" leadInLength="0/1"  />
               <InterpolatingParam id="6542" interp="linr"  time="-9999999/1" value="1" leadInLength="0/1"  />
              </VectorParam>
              <VectorParam id="6543"  name="anchor">
               <InterpolatingParam id="6544" interp="linr"  time="0/1" value="0" leadInLength="0/1"  />
               <InterpolatingParam id="6545" interp="linr"  time="0/1" value="0" leadInLength="0/1"  />
               <InterpolatingParam id="6546" interp="linr"  time="0/1" value="0" leadInLength="0/1"  />
              </VectorParam>
             </Transformer>
             <Parameters>
              <VectorParam id="6547"  name="sourceCrop">
               <InterpolatingParam id="6548" interp="linr"  time="0/1" value="0" leadInLength="0/1"  />
               <InterpolatingParam id="6549" interp="linr"  time="0/1" value="0" leadInLength="0/1"  />
               <InterpolatingParam id="6550" interp="linr"  time="0/1" value="0" leadInLength="0/1"  />
               <InterpolatingParam id="6551" interp="linr"  time="0/1" value="0" leadInLength="0/1"  />
              </VectorParam>
              <VectorParam id="6552"  name="geometryCrop">
               <InterpolatingParam id="6553" interp="linr"  time="-9999999/1" value="0" leadInLength="0/1"  />
               <InterpolatingParam id="6554" interp="linr"  time="-9999999/1" value="0" leadInLength="0/1"  />
               <InterpolatingParam id="6555" interp="linr"  time="-9999999/1" value="0" leadInLength="0/1"  />
               <InterpolatingParam id="6556" interp="linr"  time="-9999999/1" value="0" leadInLength="0/1"  />
              </VectorParam>
              <InterpolatingParam id="6557" interp="linr"  time="-9999999/1" value="1" leadInLength="0/1"  name="opacity"/>
              <InterpolatingParam id="6558" interp="linr"  time="0/1" value="0" leadInLength="0/1"  name="cursorOpacity"/>
              <InterpolatingParam id="6559" interp="linr"  time="0/1" value="0" leadInLength="0/1"  name="cursorScale"/>
             </Parameters>
             <Attributes>
              <Attribute id="6560" value="" name="ident"/>
             </Attributes>
             <ExtraData>
              <Entry key="ZoomPanBin">
               <ZoomPanBin id="6561"  >
                <ZoomPanKeyframes>
                 <ZoomPanKeyframe id="6562" timeRangeEnd="-9999999/1" timeRangeDuration="0/1" interpolaterName=""  />
                </ZoomPanKeyframes>
               </ZoomPanBin>
              </Entry>
              <Entry key="CursorEffectBin">
               <CursorEffectBin id="6563"  >
                <CursorEffectKeyframes>
                </CursorEffectKeyframes>
               </CursorEffectBin>
              </Entry>
             </ExtraData>
            </ScreenVMFile>
            <MetaData>
             <entry key="AutoAppliedSmartFocus" val="False"/>
             <entry key="WinSubProjectDisplayName" val=""/>
            </MetaData>
           </UnifiedMedia>
           <UnifiedMedia id="6564"  >
            <AMFile id="6565" start="4321" duration="100" scalar="1/1" mediaStart="7107/1" mediaDuration="100/1" trackNumber="1" src="4" channelNumber="0,1" >
             <Parameters>
              <InterpolatingParam id="6566" interp="linr"  time="0/1" value="1" leadInLength="0/1"  name="volume"/>
              <Parameter id="6567"  name="captions"/>
             </Parameters>
             <Attributes>
              <Attribute id="6568" value="" name="ident"/>
              <Attribute id="6569" value="44100" name="sampleRate"/>
              <Attribute id="6570" value="16" name="bitDepth"/>
              <Attribute id="6571" value="1" name="gain"/>
              <Attribute id="6572" value="0" name="mixToMono"/>
             </Attributes>
            </AMFile>
            <ScreenVMFile id="6573" start="4321" duration="100" scalar="1/1" mediaStart="7107/1" mediaDuration="100/1" trackNumber="0" src="4" >
             <Transformer>
              <VectorParam id="6574"  name="translation">
               <InterpolatingParam id="6575" interp="linr"  time="-9999999/1" value="0" leadInLength="0/1"  />
               <InterpolatingParam id="6576" interp="linr"  time="-9999999/1" value="0" leadInLength="0/1"  />
               <InterpolatingParam id="6577" interp="linr"  time="-9999999/1" value="0" leadInLength="0/1"  />
              </VectorParam>
              <VectorParam id="6578"  name="rotation">
               <InterpolatingParam id="6579" interp="linr"  time="-9999999/1" value="0" leadInLength="0/1"  />
               <InterpolatingParam id="6580" interp="linr"  time="-9999999/1" value="0" leadInLength="0/1"  />
               <InterpolatingParam id="6581" interp="linr"  time="-9999999/1" value="0" leadInLength="0/1"  />
              </VectorParam>
              <VectorParam id="6582"  name="shear">
               <InterpolatingParam id="6583" interp="linr"  time="-9999999/1" value="0" leadInLength="0/1"  />
               <InterpolatingParam id="6584" interp="linr"  time="-9999999/1" value="0" leadInLength="0/1"  />
               <InterpolatingParam id="6585" interp="linr"  time="-9999999/1" value="0" leadInLength="0/1"  />
              </VectorParam>
              <VectorParam id="6586"  name="scale">
               <InterpolatingParam id="6587" interp="linr"  time="-9999999/1" value="1" leadInLength="0/1"  />
               <InterpolatingParam id="6588" interp="linr"  time="-9999999/1" value="1" leadInLength="0/1"  />
               <InterpolatingParam id="6589" interp="linr"  time="-9999999/1" value="1" leadInLength="0/1"  />
              </VectorParam>
              <VectorParam id="6590"  name="anchor">
               <InterpolatingParam id="6591" interp="linr"  time="0/1" value="0" leadInLength="0/1"  />
               <InterpolatingParam id="6592" interp="linr"  time="0/1" value="0" leadInLength="0/1"  />
               <InterpolatingParam id="6593" interp="linr"  time="0/1" value="0" leadInLength="0/1"  />
              </VectorParam>
             </Transformer>
             <Parameters>
              <VectorParam id="6594"  name="sourceCrop">
               <InterpolatingParam id="6595" interp="linr"  time="0/1" value="0" leadInLength="0/1"  />
               <InterpolatingParam id="6596" interp="linr"  time="0/1" value="0" leadInLength="0/1"  />
               <InterpolatingParam id="6597" interp="linr"  time="0/1" value="0" leadInLength="0/1"  />
               <InterpolatingParam id="6598" interp="linr"  time="0/1" value="0" leadInLength="0/1"  />
              </VectorParam>
              <VectorParam id="6599"  name="geometryCrop">
               <InterpolatingParam id="6600" interp="linr"  time="-9999999/1" value="0" leadInLength="0/1"  />
               <InterpolatingParam id="6601" interp="linr"  time="-9999999/1" value="0" leadInLength="0/1"  />
               <InterpolatingParam id="6602" interp="linr"  time="-9999999/1" value="0" leadInLength="0/1"  />
               <InterpolatingParam id="6603" interp="linr"  time="-9999999/1" value="0" leadInLength="0/1"  />
              </VectorParam>
              <InterpolatingParam id="6604" interp="linr"  time="-9999999/1" value="1" leadInLength="0/1"  name="opacity"/>
              <InterpolatingParam id="6605" interp="linr"  time="0/1" value="0" leadInLength="0/1"  name="cursorOpacity"/>
              <InterpolatingParam id="6606" interp="linr"  time="0/1" value="0" leadInLength="0/1"  name="cursorScale"/>
             </Parameters>
             <Attributes>
              <Attribute id="6607" value="" name="ident"/>
             </Attributes>
             <ExtraData>
              <Entry key="ZoomPanBin">
               <ZoomPanBin id="6608"  >
                <ZoomPanKeyframes>
                 <ZoomPanKeyframe id="6609" timeRangeEnd="-9999999/1" timeRangeDuration="0/1" interpolaterName=""  />
                </ZoomPanKeyframes>
               </ZoomPanBin>
              </Entry>
              <Entry key="CursorEffectBin">
               <CursorEffectBin id="6610"  >
                <CursorEffectKeyframes>
                </CursorEffectKeyframes>
               </CursorEffectBin>
              </Entry>
             </ExtraData>
            </ScreenVMFile>
            <MetaData>
             <entry key="AutoAppliedSmartFocus" val="False"/>
             <entry key="WinSubProjectDisplayName" val=""/>
            </MetaData>
           </UnifiedMedia>
           <UnifiedMedia id="6611"  >
            <AMFile id="6612" start="4421" duration="68" scalar="1/1" mediaStart="7298/1" mediaDuration="68/1" trackNumber="1" src="4" channelNumber="0,1" >
             <Parameters>
              <InterpolatingParam id="6613" interp="linr"  time="0/1" value="1" leadInLength="0/1"  name="volume"/>
              <Parameter id="6614"  name="captions"/>
             </Parameters>
             <Attributes>
              <Attribute id="6615" value="" name="ident"/>
              <Attribute id="6616" value="44100" name="sampleRate"/>
              <Attribute id="6617" value="16" name="bitDepth"/>
              <Attribute id="6618" value="1" name="gain"/>
              <Attribute id="6619" value="0" name="mixToMono"/>
             </Attributes>
            </AMFile>
            <ScreenVMFile id="6620" start="4421" duration="68" scalar="1/1" mediaStart="7298/1" mediaDuration="68/1" trackNumber="0" src="4" >
             <Transformer>
              <VectorParam id="6621"  name="translation">
               <InterpolatingParam id="6622" interp="linr"  time="-9999999/1" value="0" leadInLength="0/1"  />
               <InterpolatingParam id="6623" interp="linr"  time="-9999999/1" value="0" leadInLength="0/1"  />
               <InterpolatingParam id="6624" interp="linr"  time="-9999999/1" value="0" leadInLength="0/1"  />
              </VectorParam>
              <VectorParam id="6625"  name="rotation">
               <InterpolatingParam id="6626" interp="linr"  time="-9999999/1" value="0" leadInLength="0/1"  />
               <InterpolatingParam id="6627" interp="linr"  time="-9999999/1" value="0" leadInLength="0/1"  />
               <InterpolatingParam id="6628" interp="linr"  time="-9999999/1" value="0" leadInLength="0/1"  />
              </VectorParam>
              <VectorParam id="6629"  name="shear">
               <InterpolatingParam id="6630" interp="linr"  time="-9999999/1" value="0" leadInLength="0/1"  />
               <InterpolatingParam id="6631" interp="linr"  time="-9999999/1" value="0" leadInLength="0/1"  />
               <InterpolatingParam id="6632" interp="linr"  time="-9999999/1" value="0" leadInLength="0/1"  />
              </VectorParam>
              <VectorParam id="6633"  name="scale">
               <InterpolatingParam id="6634" interp="linr"  time="-9999999/1" value="1" leadInLength="0/1"  />
               <InterpolatingParam id="6635" interp="linr"  time="-9999999/1" value="1" leadInLength="0/1"  />
               <InterpolatingParam id="6636" interp="linr"  time="-9999999/1" value="1" leadInLength="0/1"  />
              </VectorParam>
              <VectorParam id="6637"  name="anchor">
               <InterpolatingParam id="6638" interp="linr"  time="0/1" value="0" leadInLength="0/1"  />
               <InterpolatingParam id="6639" interp="linr"  time="0/1" value="0" leadInLength="0/1"  />
               <InterpolatingParam id="6640" interp="linr"  time="0/1" value="0" leadInLength="0/1"  />
              </VectorParam>
             </Transformer>
             <Parameters>
              <VectorParam id="6641"  name="sourceCrop">
               <InterpolatingParam id="6642" interp="linr"  time="0/1" value="0" leadInLength="0/1"  />
               <InterpolatingParam id="6643" interp="linr"  time="0/1" value="0" leadInLength="0/1"  />
               <InterpolatingParam id="6644" interp="linr"  time="0/1" value="0" leadInLength="0/1"  />
               <InterpolatingParam id="6645" interp="linr"  time="0/1" value="0" leadInLength="0/1"  />
              </VectorParam>
              <VectorParam id="6646"  name="geometryCrop">
               <InterpolatingParam id="6647" interp="linr"  time="-9999999/1" value="0" leadInLength="0/1"  />
               <InterpolatingParam id="6648" interp="linr"  time="-9999999/1" value="0" leadInLength="0/1"  />
               <InterpolatingParam id="6649" interp="linr"  time="-9999999/1" value="0" leadInLength="0/1"  />
               <InterpolatingParam id="6650" interp="linr"  time="-9999999/1" value="0" leadInLength="0/1"  />
              </VectorParam>
              <InterpolatingParam id="6651" interp="linr"  time="-9999999/1" value="1" leadInLength="0/1"  name="opacity"/>
              <InterpolatingParam id="6652" interp="linr"  time="0/1" value="0" leadInLength="0/1"  name="cursorOpacity"/>
              <InterpolatingParam id="6653" interp="linr"  time="0/1" value="0" leadInLength="0/1"  name="cursorScale"/>
             </Parameters>
             <Attributes>
              <Attribute id="6654" value="" name="ident"/>
             </Attributes>
             <ExtraData>
              <Entry key="ZoomPanBin">
               <ZoomPanBin id="6655"  >
                <ZoomPanKeyframes>
                 <ZoomPanKeyframe id="6656" timeRangeEnd="-9999999/1" timeRangeDuration="0/1" interpolaterName=""  />
                </ZoomPanKeyframes>
               </ZoomPanBin>
              </Entry>
              <Entry key="CursorEffectBin">
               <CursorEffectBin id="6657"  >
                <CursorEffectKeyframes>
                </CursorEffectKeyframes>
               </CursorEffectBin>
              </Entry>
             </ExtraData>
            </ScreenVMFile>
            <MetaData>
             <entry key="AutoAppliedSmartFocus" val="False"/>
             <entry key="WinSubProjectDisplayName" val=""/>
            </MetaData>
           </UnifiedMedia>
           <UnifiedMedia id="6658"  >
            <AMFile id="6659" start="4489" duration="438" scalar="1/1" mediaStart="7373/1" mediaDuration="438/1" trackNumber="1" src="4" channelNumber="0,1" >
             <Parameters>
              <InterpolatingParam id="6660" interp="linr"  time="0/1" value="1" leadInLength="0/1"  name="volume"/>
              <Parameter id="6661"  name="captions"/>
             </Parameters>
             <Attributes>
              <Attribute id="6662" value="" name="ident"/>
              <Attribute id="6663" value="44100" name="sampleRate"/>
              <Attribute id="6664" value="16" name="bitDepth"/>
              <Attribute id="6665" value="1" name="gain"/>
              <Attribute id="6666" value="0" name="mixToMono"/>
             </Attributes>
            </AMFile>
            <ScreenVMFile id="6667" start="4489" duration="438" scalar="1/1" mediaStart="7373/1" mediaDuration="438/1" trackNumber="0" src="4" >
             <Transformer>
              <VectorParam id="6668"  name="translation">
               <InterpolatingParam id="6669" interp="linr"  time="-9999999/1" value="0" leadInLength="0/1"  />
               <InterpolatingParam id="6670" interp="linr"  time="-9999999/1" value="0" leadInLength="0/1"  />
               <InterpolatingParam id="6671" interp="linr"  time="-9999999/1" value="0" leadInLength="0/1"  />
              </VectorParam>
              <VectorParam id="6672"  name="rotation">
               <InterpolatingParam id="6673" interp="linr"  time="-9999999/1" value="0" leadInLength="0/1"  />
               <InterpolatingParam id="6674" interp="linr"  time="-9999999/1" value="0" leadInLength="0/1"  />
               <InterpolatingParam id="6675" interp="linr"  time="-9999999/1" value="0" leadInLength="0/1"  />
              </VectorParam>
              <VectorParam id="6676"  name="shear">
               <InterpolatingParam id="6677" interp="linr"  time="-9999999/1" value="0" leadInLength="0/1"  />
               <InterpolatingParam id="6678" interp="linr"  time="-9999999/1" value="0" leadInLength="0/1"  />
               <InterpolatingParam id="6679" interp="linr"  time="-9999999/1" value="0" leadInLength="0/1"  />
              </VectorParam>
              <VectorParam id="6680"  name="scale">
               <InterpolatingParam id="6681" interp="linr"  time="-9999999/1" value="1" leadInLength="0/1"  />
               <InterpolatingParam id="6682" interp="linr"  time="-9999999/1" value="1" leadInLength="0/1"  />
               <InterpolatingParam id="6683" interp="linr"  time="-9999999/1" value="1" leadInLength="0/1"  />
              </VectorParam>
              <VectorParam id="6684"  name="anchor">
               <InterpolatingParam id="6685" interp="linr"  time="0/1" value="0" leadInLength="0/1"  />
               <InterpolatingParam id="6686" interp="linr"  time="0/1" value="0" leadInLength="0/1"  />
               <InterpolatingParam id="6687" interp="linr"  time="0/1" value="0" leadInLength="0/1"  />
              </VectorParam>
             </Transformer>
             <Parameters>
              <VectorParam id="6688"  name="sourceCrop">
               <InterpolatingParam id="6689" interp="linr"  time="0/1" value="0" leadInLength="0/1"  />
               <InterpolatingParam id="6690" interp="linr"  time="0/1" value="0" leadInLength="0/1"  />
               <InterpolatingParam id="6691" interp="linr"  time="0/1" value="0" leadInLength="0/1"  />
               <InterpolatingParam id="6692" interp="linr"  time="0/1" value="0" leadInLength="0/1"  />
              </VectorParam>
              <VectorParam id="6693"  name="geometryCrop">
               <InterpolatingParam id="6694" interp="linr"  time="-9999999/1" value="0" leadInLength="0/1"  />
               <InterpolatingParam id="6695" interp="linr"  time="-9999999/1" value="0" leadInLength="0/1"  />
               <InterpolatingParam id="6696" interp="linr"  time="-9999999/1" value="0" leadInLength="0/1"  />
               <InterpolatingParam id="6697" interp="linr"  time="-9999999/1" value="0" leadInLength="0/1"  />
              </VectorParam>
              <InterpolatingParam id="6698" interp="linr"  time="-9999999/1" value="1" leadInLength="0/1"  name="opacity"/>
              <InterpolatingParam id="6699" interp="linr"  time="0/1" value="0" leadInLength="0/1"  name="cursorOpacity"/>
              <InterpolatingParam id="6700" interp="linr"  time="0/1" value="0" leadInLength="0/1"  name="cursorScale"/>
             </Parameters>
             <Attributes>
              <Attribute id="6701" value="" name="ident"/>
             </Attributes>
             <ExtraData>
              <Entry key="ZoomPanBin">
               <ZoomPanBin id="6702"  >
                <ZoomPanKeyframes>
                 <ZoomPanKeyframe id="6703" timeRangeEnd="-9999999/1" timeRangeDuration="0/1" interpolaterName=""  />
                </ZoomPanKeyframes>
               </ZoomPanBin>
              </Entry>
              <Entry key="CursorEffectBin">
               <CursorEffectBin id="6704"  >
                <CursorEffectKeyframes>
                </CursorEffectKeyframes>
               </CursorEffectBin>
              </Entry>
             </ExtraData>
            </ScreenVMFile>
            <MetaData>
             <entry key="AutoAppliedSmartFocus" val="False"/>
             <entry key="WinSubProjectDisplayName" val=""/>
            </MetaData>
           </UnifiedMedia>
           <UnifiedMedia id="6705"  >
            <AMFile id="6706" start="4927" duration="94" scalar="1/1" mediaStart="8166/1" mediaDuration="94/1" trackNumber="1" src="4" channelNumber="0,1" >
             <Parameters>
              <InterpolatingParam id="6707" interp="linr"  time="0/1" value="1" leadInLength="0/1"  name="volume"/>
              <Parameter id="6708"  name="captions"/>
             </Parameters>
             <Attributes>
              <Attribute id="6709" value="" name="ident"/>
              <Attribute id="6710" value="44100" name="sampleRate"/>
              <Attribute id="6711" value="16" name="bitDepth"/>
              <Attribute id="6712" value="1" name="gain"/>
              <Attribute id="6713" value="0" name="mixToMono"/>
             </Attributes>
            </AMFile>
            <ScreenVMFile id="6714" start="4927" duration="94" scalar="1/1" mediaStart="8166/1" mediaDuration="94/1" trackNumber="0" src="4" >
             <Transformer>
              <VectorParam id="6715"  name="translation">
               <InterpolatingParam id="6716" interp="linr"  time="-9999999/1" value="0" leadInLength="0/1"  />
               <InterpolatingParam id="6717" interp="linr"  time="-9999999/1" value="0" leadInLength="0/1"  />
               <InterpolatingParam id="6718" interp="linr"  time="-9999999/1" value="0" leadInLength="0/1"  />
              </VectorParam>
              <VectorParam id="6719"  name="rotation">
               <InterpolatingParam id="6720" interp="linr"  time="-9999999/1" value="0" leadInLength="0/1"  />
               <InterpolatingParam id="6721" interp="linr"  time="-9999999/1" value="0" leadInLength="0/1"  />
               <InterpolatingParam id="6722" interp="linr"  time="-9999999/1" value="0" leadInLength="0/1"  />
              </VectorParam>
              <VectorParam id="6723"  name="shear">
               <InterpolatingParam id="6724" interp="linr"  time="-9999999/1" value="0" leadInLength="0/1"  />
               <InterpolatingParam id="6725" interp="linr"  time="-9999999/1" value="0" leadInLength="0/1"  />
               <InterpolatingParam id="6726" interp="linr"  time="-9999999/1" value="0" leadInLength="0/1"  />
              </VectorParam>
              <VectorParam id="6727"  name="scale">
               <InterpolatingParam id="6728" interp="linr"  time="-9999999/1" value="1" leadInLength="0/1"  />
               <InterpolatingParam id="6729" interp="linr"  time="-9999999/1" value="1" leadInLength="0/1"  />
               <InterpolatingParam id="6730" interp="linr"  time="-9999999/1" value="1" leadInLength="0/1"  />
              </VectorParam>
              <VectorParam id="6731"  name="anchor">
               <InterpolatingParam id="6732" interp="linr"  time="0/1" value="0" leadInLength="0/1"  />
               <InterpolatingParam id="6733" interp="linr"  time="0/1" value="0" leadInLength="0/1"  />
               <InterpolatingParam id="6734" interp="linr"  time="0/1" value="0" leadInLength="0/1"  />
              </VectorParam>
             </Transformer>
             <Parameters>
              <VectorParam id="6735"  name="sourceCrop">
               <InterpolatingParam id="6736" interp="linr"  time="0/1" value="0" leadInLength="0/1"  />
               <InterpolatingParam id="6737" interp="linr"  time="0/1" value="0" leadInLength="0/1"  />
               <InterpolatingParam id="6738" interp="linr"  time="0/1" value="0" leadInLength="0/1"  />
               <InterpolatingParam id="6739" interp="linr"  time="0/1" value="0" leadInLength="0/1"  />
              </VectorParam>
              <VectorParam id="6740"  name="geometryCrop">
               <InterpolatingParam id="6741" interp="linr"  time="-9999999/1" value="0" leadInLength="0/1"  />
               <InterpolatingParam id="6742" interp="linr"  time="-9999999/1" value="0" leadInLength="0/1"  />
               <InterpolatingParam id="6743" interp="linr"  time="-9999999/1" value="0" leadInLength="0/1"  />
               <InterpolatingParam id="6744" interp="linr"  time="-9999999/1" value="0" leadInLength="0/1"  />
              </VectorParam>
              <InterpolatingParam id="6745" interp="linr"  time="-9999999/1" value="1" leadInLength="0/1"  name="opacity"/>
              <InterpolatingParam id="6746" interp="linr"  time="0/1" value="0" leadInLength="0/1"  name="cursorOpacity"/>
              <InterpolatingParam id="6747" interp="linr"  time="0/1" value="0" leadInLength="0/1"  name="cursorScale"/>
             </Parameters>
             <Attributes>
              <Attribute id="6748" value="" name="ident"/>
             </Attributes>
             <ExtraData>
              <Entry key="ZoomPanBin">
               <ZoomPanBin id="6749"  >
                <ZoomPanKeyframes>
                 <ZoomPanKeyframe id="6750" timeRangeEnd="-9999999/1" timeRangeDuration="0/1" interpolaterName=""  />
                </ZoomPanKeyframes>
               </ZoomPanBin>
              </Entry>
              <Entry key="CursorEffectBin">
               <CursorEffectBin id="6751"  >
                <CursorEffectKeyframes>
                </CursorEffectKeyframes>
               </CursorEffectBin>
              </Entry>
             </ExtraData>
            </ScreenVMFile>
            <MetaData>
             <entry key="AutoAppliedSmartFocus" val="False"/>
             <entry key="WinSubProjectDisplayName" val=""/>
            </MetaData>
           </UnifiedMedia>
           <UnifiedMedia id="6752"  >
            <AMFile id="6753" start="5021" duration="94" scalar="1/1" mediaStart="8272/1" mediaDuration="94/1" trackNumber="1" src="4" channelNumber="0,1" >
             <Parameters>
              <InterpolatingParam id="6754" interp="linr"  time="0/1" value="1" leadInLength="0/1"  name="volume"/>
              <Parameter id="6755"  name="captions"/>
             </Parameters>
             <Attributes>
              <Attribute id="6756" value="" name="ident"/>
              <Attribute id="6757" value="44100" name="sampleRate"/>
              <Attribute id="6758" value="16" name="bitDepth"/>
              <Attribute id="6759" value="1" name="gain"/>
              <Attribute id="6760" value="0" name="mixToMono"/>
             </Attributes>
            </AMFile>
            <ScreenVMFile id="6761" start="5021" duration="94" scalar="1/1" mediaStart="8272/1" mediaDuration="94/1" trackNumber="0" src="4" >
             <Transformer>
              <VectorParam id="6762"  name="translation">
               <InterpolatingParam id="6763" interp="linr"  time="-9999999/1" value="0" leadInLength="0/1"  />
               <InterpolatingParam id="6764" interp="linr"  time="-9999999/1" value="0" leadInLength="0/1"  />
               <InterpolatingParam id="6765" interp="linr"  time="-9999999/1" value="0" leadInLength="0/1"  />
              </VectorParam>
              <VectorParam id="6766"  name="rotation">
               <InterpolatingParam id="6767" interp="linr"  time="-9999999/1" value="0" leadInLength="0/1"  />
               <InterpolatingParam id="6768" interp="linr"  time="-9999999/1" value="0" leadInLength="0/1"  />
               <InterpolatingParam id="6769" interp="linr"  time="-9999999/1" value="0" leadInLength="0/1"  />
              </VectorParam>
              <VectorParam id="6770"  name="shear">
               <InterpolatingParam id="6771" interp="linr"  time="-9999999/1" value="0" leadInLength="0/1"  />
               <InterpolatingParam id="6772" interp="linr"  time="-9999999/1" value="0" leadInLength="0/1"  />
               <InterpolatingParam id="6773" interp="linr"  time="-9999999/1" value="0" leadInLength="0/1"  />
              </VectorParam>
              <VectorParam id="6774"  name="scale">
               <InterpolatingParam id="6775" interp="linr"  time="-9999999/1" value="1" leadInLength="0/1"  />
               <InterpolatingParam id="6776" interp="linr"  time="-9999999/1" value="1" leadInLength="0/1"  />
               <InterpolatingParam id="6777" interp="linr"  time="-9999999/1" value="1" leadInLength="0/1"  />
              </VectorParam>
              <VectorParam id="6778"  name="anchor">
               <InterpolatingParam id="6779" interp="linr"  time="0/1" value="0" leadInLength="0/1"  />
               <InterpolatingParam id="6780" interp="linr"  time="0/1" value="0" leadInLength="0/1"  />
               <InterpolatingParam id="6781" interp="linr"  time="0/1" value="0" leadInLength="0/1"  />
              </VectorParam>
             </Transformer>
             <Parameters>
              <VectorParam id="6782"  name="sourceCrop">
               <InterpolatingParam id="6783" interp="linr"  time="0/1" value="0" leadInLength="0/1"  />
               <InterpolatingParam id="6784" interp="linr"  time="0/1" value="0" leadInLength="0/1"  />
               <InterpolatingParam id="6785" interp="linr"  time="0/1" value="0" leadInLength="0/1"  />
               <InterpolatingParam id="6786" interp="linr"  time="0/1" value="0" leadInLength="0/1"  />
              </VectorParam>
              <VectorParam id="6787"  name="geometryCrop">
               <InterpolatingParam id="6788" interp="linr"  time="-9999999/1" value="0" leadInLength="0/1"  />
               <InterpolatingParam id="6789" interp="linr"  time="-9999999/1" value="0" leadInLength="0/1"  />
               <InterpolatingParam id="6790" interp="linr"  time="-9999999/1" value="0" leadInLength="0/1"  />
               <InterpolatingParam id="6791" interp="linr"  time="-9999999/1" value="0" leadInLength="0/1"  />
              </VectorParam>
              <InterpolatingParam id="6792" interp="linr"  time="-9999999/1" value="1" leadInLength="0/1"  name="opacity"/>
              <InterpolatingParam id="6793" interp="linr"  time="0/1" value="0" leadInLength="0/1"  name="cursorOpacity"/>
              <InterpolatingParam id="6794" interp="linr"  time="0/1" value="0" leadInLength="0/1"  name="cursorScale"/>
             </Parameters>
             <Attributes>
              <Attribute id="6795" value="" name="ident"/>
             </Attributes>
             <ExtraData>
              <Entry key="ZoomPanBin">
               <ZoomPanBin id="6796"  >
                <ZoomPanKeyframes>
                 <ZoomPanKeyframe id="6797" timeRangeEnd="-9999999/1" timeRangeDuration="0/1" interpolaterName=""  />
                </ZoomPanKeyframes>
               </ZoomPanBin>
              </Entry>
              <Entry key="CursorEffectBin">
               <CursorEffectBin id="6798"  >
                <CursorEffectKeyframes>
                </CursorEffectKeyframes>
               </CursorEffectBin>
              </Entry>
             </ExtraData>
            </ScreenVMFile>
            <MetaData>
             <entry key="AutoAppliedSmartFocus" val="False"/>
             <entry key="WinSubProjectDisplayName" val=""/>
            </MetaData>
           </UnifiedMedia>
           <UnifiedMedia id="6799"  >
            <AMFile id="6800" start="5115" duration="186" scalar="1/1" mediaStart="8379/1" mediaDuration="186/1" trackNumber="1" src="4" channelNumber="0,1" >
             <Parameters>
              <InterpolatingParam id="6801" interp="linr"  time="0/1" value="1" leadInLength="0/1"  name="volume"/>
              <Parameter id="6802"  name="captions"/>
             </Parameters>
             <Attributes>
              <Attribute id="6803" value="" name="ident"/>
              <Attribute id="6804" value="44100" name="sampleRate"/>
              <Attribute id="6805" value="16" name="bitDepth"/>
              <Attribute id="6806" value="1" name="gain"/>
              <Attribute id="6807" value="0" name="mixToMono"/>
             </Attributes>
            </AMFile>
            <ScreenVMFile id="6808" start="5115" duration="186" scalar="1/1" mediaStart="8379/1" mediaDuration="186/1" trackNumber="0" src="4" >
             <Transformer>
              <VectorParam id="6809"  name="translation">
               <InterpolatingParam id="6810" interp="linr"  time="-9999999/1" value="0" leadInLength="0/1"  />
               <InterpolatingParam id="6811" interp="linr"  time="-9999999/1" value="0" leadInLength="0/1"  />
               <InterpolatingParam id="6812" interp="linr"  time="-9999999/1" value="0" leadInLength="0/1"  />
              </VectorParam>
              <VectorParam id="6813"  name="rotation">
               <InterpolatingParam id="6814" interp="linr"  time="-9999999/1" value="0" leadInLength="0/1"  />
               <InterpolatingParam id="6815" interp="linr"  time="-9999999/1" value="0" leadInLength="0/1"  />
               <InterpolatingParam id="6816" interp="linr"  time="-9999999/1" value="0" leadInLength="0/1"  />
              </VectorParam>
              <VectorParam id="6817"  name="shear">
               <InterpolatingParam id="6818" interp="linr"  time="-9999999/1" value="0" leadInLength="0/1"  />
               <InterpolatingParam id="6819" interp="linr"  time="-9999999/1" value="0" leadInLength="0/1"  />
               <InterpolatingParam id="6820" interp="linr"  time="-9999999/1" value="0" leadInLength="0/1"  />
              </VectorParam>
              <VectorParam id="6821"  name="scale">
               <InterpolatingParam id="6822" interp="linr"  time="-9999999/1" value="1" leadInLength="0/1"  />
               <InterpolatingParam id="6823" interp="linr"  time="-9999999/1" value="1" leadInLength="0/1"  />
               <InterpolatingParam id="6824" interp="linr"  time="-9999999/1" value="1" leadInLength="0/1"  />
              </VectorParam>
              <VectorParam id="6825"  name="anchor">
               <InterpolatingParam id="6826" interp="linr"  time="0/1" value="0" leadInLength="0/1"  />
               <InterpolatingParam id="6827" interp="linr"  time="0/1" value="0" leadInLength="0/1"  />
               <InterpolatingParam id="6828" interp="linr"  time="0/1" value="0" leadInLength="0/1"  />
              </VectorParam>
             </Transformer>
             <Parameters>
              <VectorParam id="6829"  name="sourceCrop">
               <InterpolatingParam id="6830" interp="linr"  time="0/1" value="0" leadInLength="0/1"  />
               <InterpolatingParam id="6831" interp="linr"  time="0/1" value="0" leadInLength="0/1"  />
               <InterpolatingParam id="6832" interp="linr"  time="0/1" value="0" leadInLength="0/1"  />
               <InterpolatingParam id="6833" interp="linr"  time="0/1" value="0" leadInLength="0/1"  />
              </VectorParam>
              <VectorParam id="6834"  name="geometryCrop">
               <InterpolatingParam id="6835" interp="linr"  time="-9999999/1" value="0" leadInLength="0/1"  />
               <InterpolatingParam id="6836" interp="linr"  time="-9999999/1" value="0" leadInLength="0/1"  />
               <InterpolatingParam id="6837" interp="linr"  time="-9999999/1" value="0" leadInLength="0/1"  />
               <InterpolatingParam id="6838" interp="linr"  time="-9999999/1" value="0" leadInLength="0/1"  />
              </VectorParam>
              <InterpolatingParam id="6839" interp="linr"  time="-9999999/1" value="1" leadInLength="0/1"  name="opacity"/>
              <InterpolatingParam id="6840" interp="linr"  time="0/1" value="0" leadInLength="0/1"  name="cursorOpacity"/>
              <InterpolatingParam id="6841" interp="linr"  time="0/1" value="0" leadInLength="0/1"  name="cursorScale"/>
             </Parameters>
             <Attributes>
              <Attribute id="6842" value="" name="ident"/>
             </Attributes>
             <ExtraData>
              <Entry key="ZoomPanBin">
               <ZoomPanBin id="6843"  >
                <ZoomPanKeyframes>
                 <ZoomPanKeyframe id="6844" timeRangeEnd="-9999999/1" timeRangeDuration="0/1" interpolaterName=""  />
                </ZoomPanKeyframes>
               </ZoomPanBin>
              </Entry>
              <Entry key="CursorEffectBin">
               <CursorEffectBin id="6845"  >
                <CursorEffectKeyframes>
                </CursorEffectKeyframes>
               </CursorEffectBin>
              </Entry>
             </ExtraData>
            </ScreenVMFile>
            <MetaData>
             <entry key="AutoAppliedSmartFocus" val="False"/>
             <entry key="WinSubProjectDisplayName" val=""/>
            </MetaData>
           </UnifiedMedia>
           <UnifiedMedia id="6846"  >
            <AMFile id="6847" start="5301" duration="63" scalar="1/1" mediaStart="8583/1" mediaDuration="63/1" trackNumber="1" src="4" channelNumber="0,1" >
             <Parameters>
              <InterpolatingParam id="6848" interp="linr"  time="0/1" value="1" leadInLength="0/1"  name="volume"/>
              <Parameter id="6849"  name="captions"/>
             </Parameters>
             <Attributes>
              <Attribute id="6850" value="" name="ident"/>
              <Attribute id="6851" value="44100" name="sampleRate"/>
              <Attribute id="6852" value="16" name="bitDepth"/>
              <Attribute id="6853" value="1" name="gain"/>
              <Attribute id="6854" value="0" name="mixToMono"/>
             </Attributes>
            </AMFile>
            <ScreenVMFile id="6855" start="5301" duration="63" scalar="1/1" mediaStart="8583/1" mediaDuration="63/1" trackNumber="0" src="4" >
             <Transformer>
              <VectorParam id="6856"  name="translation">
               <InterpolatingParam id="6857" interp="linr"  time="-9999999/1" value="0" leadInLength="0/1"  />
               <InterpolatingParam id="6858" interp="linr"  time="-9999999/1" value="0" leadInLength="0/1"  />
               <InterpolatingParam id="6859" interp="linr"  time="-9999999/1" value="0" leadInLength="0/1"  />
              </VectorParam>
              <VectorParam id="6860"  name="rotation">
               <InterpolatingParam id="6861" interp="linr"  time="-9999999/1" value="0" leadInLength="0/1"  />
               <InterpolatingParam id="6862" interp="linr"  time="-9999999/1" value="0" leadInLength="0/1"  />
               <InterpolatingParam id="6863" interp="linr"  time="-9999999/1" value="0" leadInLength="0/1"  />
              </VectorParam>
              <VectorParam id="6864"  name="shear">
               <InterpolatingParam id="6865" interp="linr"  time="-9999999/1" value="0" leadInLength="0/1"  />
               <InterpolatingParam id="6866" interp="linr"  time="-9999999/1" value="0" leadInLength="0/1"  />
               <InterpolatingParam id="6867" interp="linr"  time="-9999999/1" value="0" leadInLength="0/1"  />
              </VectorParam>
              <VectorParam id="6868"  name="scale">
               <InterpolatingParam id="6869" interp="linr"  time="-9999999/1" value="1" leadInLength="0/1"  />
               <InterpolatingParam id="6870" interp="linr"  time="-9999999/1" value="1" leadInLength="0/1"  />
               <InterpolatingParam id="6871" interp="linr"  time="-9999999/1" value="1" leadInLength="0/1"  />
              </VectorParam>
              <VectorParam id="6872"  name="anchor">
               <InterpolatingParam id="6873" interp="linr"  time="0/1" value="0" leadInLength="0/1"  />
               <InterpolatingParam id="6874" interp="linr"  time="0/1" value="0" leadInLength="0/1"  />
               <InterpolatingParam id="6875" interp="linr"  time="0/1" value="0" leadInLength="0/1"  />
              </VectorParam>
             </Transformer>
             <Parameters>
              <VectorParam id="6876"  name="sourceCrop">
               <InterpolatingParam id="6877" interp="linr"  time="0/1" value="0" leadInLength="0/1"  />
               <InterpolatingParam id="6878" interp="linr"  time="0/1" value="0" leadInLength="0/1"  />
               <InterpolatingParam id="6879" interp="linr"  time="0/1" value="0" leadInLength="0/1"  />
               <InterpolatingParam id="6880" interp="linr"  time="0/1" value="0" leadInLength="0/1"  />
              </VectorParam>
              <VectorParam id="6881"  name="geometryCrop">
               <InterpolatingParam id="6882" interp="linr"  time="-9999999/1" value="0" leadInLength="0/1"  />
               <InterpolatingParam id="6883" interp="linr"  time="-9999999/1" value="0" leadInLength="0/1"  />
               <InterpolatingParam id="6884" interp="linr"  time="-9999999/1" value="0" leadInLength="0/1"  />
               <InterpolatingParam id="6885" interp="linr"  time="-9999999/1" value="0" leadInLength="0/1"  />
              </VectorParam>
              <InterpolatingParam id="6886" interp="linr"  time="-9999999/1" value="1" leadInLength="0/1"  name="opacity"/>
              <InterpolatingParam id="6887" interp="linr"  time="0/1" value="0" leadInLength="0/1"  name="cursorOpacity"/>
              <InterpolatingParam id="6888" interp="linr"  time="0/1" value="0" leadInLength="0/1"  name="cursorScale"/>
             </Parameters>
             <Attributes>
              <Attribute id="6889" value="" name="ident"/>
             </Attributes>
             <ExtraData>
              <Entry key="ZoomPanBin">
               <ZoomPanBin id="6890"  >
                <ZoomPanKeyframes>
                 <ZoomPanKeyframe id="6891" timeRangeEnd="-9999999/1" timeRangeDuration="0/1" interpolaterName=""  />
                </ZoomPanKeyframes>
               </ZoomPanBin>
              </Entry>
              <Entry key="CursorEffectBin">
               <CursorEffectBin id="6892"  >
                <CursorEffectKeyframes>
                </CursorEffectKeyframes>
               </CursorEffectBin>
              </Entry>
             </ExtraData>
            </ScreenVMFile>
            <MetaData>
             <entry key="AutoAppliedSmartFocus" val="False"/>
             <entry key="WinSubProjectDisplayName" val=""/>
            </MetaData>
           </UnifiedMedia>
           <UnifiedMedia id="6893"  >
            <AMFile id="6894" start="5364" duration="253" scalar="1/1" mediaStart="8812/1" mediaDuration="253/1" trackNumber="1" src="4" channelNumber="0,1" >
             <Parameters>
              <InterpolatingParam id="6895" interp="linr"  time="0/1" value="1" leadInLength="0/1"  name="volume"/>
              <Parameter id="6896"  name="captions"/>
             </Parameters>
             <Attributes>
              <Attribute id="6897" value="" name="ident"/>
              <Attribute id="6898" value="44100" name="sampleRate"/>
              <Attribute id="6899" value="16" name="bitDepth"/>
              <Attribute id="6900" value="1" name="gain"/>
              <Attribute id="6901" value="0" name="mixToMono"/>
             </Attributes>
            </AMFile>
            <ScreenVMFile id="6902" start="5364" duration="253" scalar="1/1" mediaStart="8812/1" mediaDuration="253/1" trackNumber="0" src="4" >
             <Transformer>
              <VectorParam id="6903"  name="translation">
               <InterpolatingParam id="6904" interp="linr"  time="-9999999/1" value="0" leadInLength="0/1"  />
               <InterpolatingParam id="6905" interp="linr"  time="-9999999/1" value="0" leadInLength="0/1"  />
               <InterpolatingParam id="6906" interp="linr"  time="-9999999/1" value="0" leadInLength="0/1"  />
              </VectorParam>
              <VectorParam id="6907"  name="rotation">
               <InterpolatingParam id="6908" interp="linr"  time="-9999999/1" value="0" leadInLength="0/1"  />
               <InterpolatingParam id="6909" interp="linr"  time="-9999999/1" value="0" leadInLength="0/1"  />
               <InterpolatingParam id="6910" interp="linr"  time="-9999999/1" value="0" leadInLength="0/1"  />
              </VectorParam>
              <VectorParam id="6911"  name="shear">
               <InterpolatingParam id="6912" interp="linr"  time="-9999999/1" value="0" leadInLength="0/1"  />
               <InterpolatingParam id="6913" interp="linr"  time="-9999999/1" value="0" leadInLength="0/1"  />
               <InterpolatingParam id="6914" interp="linr"  time="-9999999/1" value="0" leadInLength="0/1"  />
              </VectorParam>
              <VectorParam id="6915"  name="scale">
               <InterpolatingParam id="6916" interp="linr"  time="-9999999/1" value="1" leadInLength="0/1"  />
               <InterpolatingParam id="6917" interp="linr"  time="-9999999/1" value="1" leadInLength="0/1"  />
               <InterpolatingParam id="6918" interp="linr"  time="-9999999/1" value="1" leadInLength="0/1"  />
              </VectorParam>
              <VectorParam id="6919"  name="anchor">
               <InterpolatingParam id="6920" interp="linr"  time="0/1" value="0" leadInLength="0/1"  />
               <InterpolatingParam id="6921" interp="linr"  time="0/1" value="0" leadInLength="0/1"  />
               <InterpolatingParam id="6922" interp="linr"  time="0/1" value="0" leadInLength="0/1"  />
              </VectorParam>
             </Transformer>
             <Parameters>
              <VectorParam id="6923"  name="sourceCrop">
               <InterpolatingParam id="6924" interp="linr"  time="0/1" value="0" leadInLength="0/1"  />
               <InterpolatingParam id="6925" interp="linr"  time="0/1" value="0" leadInLength="0/1"  />
               <InterpolatingParam id="6926" interp="linr"  time="0/1" value="0" leadInLength="0/1"  />
               <InterpolatingParam id="6927" interp="linr"  time="0/1" value="0" leadInLength="0/1"  />
              </VectorParam>
              <VectorParam id="6928"  name="geometryCrop">
               <InterpolatingParam id="6929" interp="linr"  time="-9999999/1" value="0" leadInLength="0/1"  />
               <InterpolatingParam id="6930" interp="linr"  time="-9999999/1" value="0" leadInLength="0/1"  />
               <InterpolatingParam id="6931" interp="linr"  time="-9999999/1" value="0" leadInLength="0/1"  />
               <InterpolatingParam id="6932" interp="linr"  time="-9999999/1" value="0" leadInLength="0/1"  />
              </VectorParam>
              <InterpolatingParam id="6933" interp="linr"  time="-9999999/1" value="1" leadInLength="0/1"  name="opacity"/>
              <InterpolatingParam id="6934" interp="linr"  time="0/1" value="0" leadInLength="0/1"  name="cursorOpacity"/>
              <InterpolatingParam id="6935" interp="linr"  time="0/1" value="0" leadInLength="0/1"  name="cursorScale"/>
             </Parameters>
             <Attributes>
              <Attribute id="6936" value="" name="ident"/>
             </Attributes>
             <ExtraData>
              <Entry key="ZoomPanBin">
               <ZoomPanBin id="6937"  >
                <ZoomPanKeyframes>
                 <ZoomPanKeyframe id="6938" timeRangeEnd="-9999999/1" timeRangeDuration="0/1" interpolaterName=""  />
                </ZoomPanKeyframes>
               </ZoomPanBin>
              </Entry>
              <Entry key="CursorEffectBin">
               <CursorEffectBin id="6939"  >
                <CursorEffectKeyframes>
                </CursorEffectKeyframes>
               </CursorEffectBin>
              </Entry>
             </ExtraData>
            </ScreenVMFile>
            <MetaData>
             <entry key="AutoAppliedSmartFocus" val="False"/>
             <entry key="WinSubProjectDisplayName" val=""/>
            </MetaData>
           </UnifiedMedia>
           <UnifiedMedia id="6940"  >
            <AMFile id="6941" start="5617" duration="479" scalar="1/1" mediaStart="9075/1" mediaDuration="479/1" trackNumber="1" src="4" channelNumber="0,1" >
             <Parameters>
              <InterpolatingParam id="6942" interp="linr"  time="0/1" value="1" leadInLength="0/1"  name="volume"/>
              <Parameter id="6943"  name="captions"/>
             </Parameters>
             <Attributes>
              <Attribute id="6944" value="" name="ident"/>
              <Attribute id="6945" value="44100" name="sampleRate"/>
              <Attribute id="6946" value="16" name="bitDepth"/>
              <Attribute id="6947" value="1" name="gain"/>
              <Attribute id="6948" value="0" name="mixToMono"/>
             </Attributes>
            </AMFile>
            <ScreenVMFile id="6949" start="5617" duration="479" scalar="1/1" mediaStart="9075/1" mediaDuration="479/1" trackNumber="0" src="4" >
             <Transformer>
              <VectorParam id="6950"  name="translation">
               <InterpolatingParam id="6951" interp="linr"  time="-9999999/1" value="0" leadInLength="0/1"  />
               <InterpolatingParam id="6952" interp="linr"  time="-9999999/1" value="0" leadInLength="0/1"  />
               <InterpolatingParam id="6953" interp="linr"  time="-9999999/1" value="0" leadInLength="0/1"  />
              </VectorParam>
              <VectorParam id="6954"  name="rotation">
               <InterpolatingParam id="6955" interp="linr"  time="-9999999/1" value="0" leadInLength="0/1"  />
               <InterpolatingParam id="6956" interp="linr"  time="-9999999/1" value="0" leadInLength="0/1"  />
               <InterpolatingParam id="6957" interp="linr"  time="-9999999/1" value="0" leadInLength="0/1"  />
              </VectorParam>
              <VectorParam id="6958"  name="shear">
               <InterpolatingParam id="6959" interp="linr"  time="-9999999/1" value="0" leadInLength="0/1"  />
               <InterpolatingParam id="6960" interp="linr"  time="-9999999/1" value="0" leadInLength="0/1"  />
               <InterpolatingParam id="6961" interp="linr"  time="-9999999/1" value="0" leadInLength="0/1"  />
              </VectorParam>
              <VectorParam id="6962"  name="scale">
               <InterpolatingParam id="6963" interp="linr"  time="-9999999/1" value="1" leadInLength="0/1"  />
               <InterpolatingParam id="6964" interp="linr"  time="-9999999/1" value="1" leadInLength="0/1"  />
               <InterpolatingParam id="6965" interp="linr"  time="-9999999/1" value="1" leadInLength="0/1"  />
              </VectorParam>
              <VectorParam id="6966"  name="anchor">
               <InterpolatingParam id="6967" interp="linr"  time="0/1" value="0" leadInLength="0/1"  />
               <InterpolatingParam id="6968" interp="linr"  time="0/1" value="0" leadInLength="0/1"  />
               <InterpolatingParam id="6969" interp="linr"  time="0/1" value="0" leadInLength="0/1"  />
              </VectorParam>
             </Transformer>
             <Parameters>
              <VectorParam id="6970"  name="sourceCrop">
               <InterpolatingParam id="6971" interp="linr"  time="0/1" value="0" leadInLength="0/1"  />
               <InterpolatingParam id="6972" interp="linr"  time="0/1" value="0" leadInLength="0/1"  />
               <InterpolatingParam id="6973" interp="linr"  time="0/1" value="0" leadInLength="0/1"  />
               <InterpolatingParam id="6974" interp="linr"  time="0/1" value="0" leadInLength="0/1"  />
              </VectorParam>
              <VectorParam id="6975"  name="geometryCrop">
               <InterpolatingParam id="6976" interp="linr"  time="-9999999/1" value="0" leadInLength="0/1"  />
               <InterpolatingParam id="6977" interp="linr"  time="-9999999/1" value="0" leadInLength="0/1"  />
               <InterpolatingParam id="6978" interp="linr"  time="-9999999/1" value="0" leadInLength="0/1"  />
               <InterpolatingParam id="6979" interp="linr"  time="-9999999/1" value="0" leadInLength="0/1"  />
              </VectorParam>
              <InterpolatingParam id="6980" interp="linr"  time="-9999999/1" value="1" leadInLength="0/1"  name="opacity"/>
              <InterpolatingParam id="6981" interp="linr"  time="0/1" value="0" leadInLength="0/1"  name="cursorOpacity"/>
              <InterpolatingParam id="6982" interp="linr"  time="0/1" value="0" leadInLength="0/1"  name="cursorScale"/>
             </Parameters>
             <Attributes>
              <Attribute id="6983" value="" name="ident"/>
             </Attributes>
             <ExtraData>
              <Entry key="ZoomPanBin">
               <ZoomPanBin id="6984"  >
                <ZoomPanKeyframes>
                 <ZoomPanKeyframe id="6985" timeRangeEnd="-9999999/1" timeRangeDuration="0/1" interpolaterName=""  />
                </ZoomPanKeyframes>
               </ZoomPanBin>
              </Entry>
              <Entry key="CursorEffectBin">
               <CursorEffectBin id="6986"  >
                <CursorEffectKeyframes>
                </CursorEffectKeyframes>
               </CursorEffectBin>
              </Entry>
             </ExtraData>
            </ScreenVMFile>
            <MetaData>
             <entry key="AutoAppliedSmartFocus" val="False"/>
             <entry key="WinSubProjectDisplayName" val=""/>
            </MetaData>
           </UnifiedMedia>
           <UnifiedMedia id="6987"  >
            <AMFile id="6988" start="6096" duration="269" scalar="1/1" mediaStart="9641/1" mediaDuration="269/1" trackNumber="1" src="4" channelNumber="0,1" >
             <Parameters>
              <InterpolatingParam id="6989" interp="linr"  time="0/1" value="1" leadInLength="0/1"  name="volume"/>
              <Parameter id="6990"  name="captions"/>
             </Parameters>
             <Attributes>
              <Attribute id="6991" value="" name="ident"/>
              <Attribute id="6992" value="44100" name="sampleRate"/>
              <Attribute id="6993" value="16" name="bitDepth"/>
              <Attribute id="6994" value="1" name="gain"/>
              <Attribute id="6995" value="0" name="mixToMono"/>
             </Attributes>
            </AMFile>
            <ScreenVMFile id="6996" start="6096" duration="269" scalar="1/1" mediaStart="9641/1" mediaDuration="269/1" trackNumber="0" src="4" >
             <Transformer>
              <VectorParam id="6997"  name="translation">
               <InterpolatingParam id="6998" interp="linr"  time="-9999999/1" value="0" leadInLength="0/1"  />
               <InterpolatingParam id="6999" interp="linr"  time="-9999999/1" value="0" leadInLength="0/1"  />
               <InterpolatingParam id="7000" interp="linr"  time="-9999999/1" value="0" leadInLength="0/1"  />
              </VectorParam>
              <VectorParam id="7001"  name="rotation">
               <InterpolatingParam id="7002" interp="linr"  time="-9999999/1" value="0" leadInLength="0/1"  />
               <InterpolatingParam id="7003" interp="linr"  time="-9999999/1" value="0" leadInLength="0/1"  />
               <InterpolatingParam id="7004" interp="linr"  time="-9999999/1" value="0" leadInLength="0/1"  />
              </VectorParam>
              <VectorParam id="7005"  name="shear">
               <InterpolatingParam id="7006" interp="linr"  time="-9999999/1" value="0" leadInLength="0/1"  />
               <InterpolatingParam id="7007" interp="linr"  time="-9999999/1" value="0" leadInLength="0/1"  />
               <InterpolatingParam id="7008" interp="linr"  time="-9999999/1" value="0" leadInLength="0/1"  />
              </VectorParam>
              <VectorParam id="7009"  name="scale">
               <InterpolatingParam id="7010" interp="linr"  time="-9999999/1" value="1" leadInLength="0/1"  />
               <InterpolatingParam id="7011" interp="linr"  time="-9999999/1" value="1" leadInLength="0/1"  />
               <InterpolatingParam id="7012" interp="linr"  time="-9999999/1" value="1" leadInLength="0/1"  />
              </VectorParam>
              <VectorParam id="7013"  name="anchor">
               <InterpolatingParam id="7014" interp="linr"  time="0/1" value="0" leadInLength="0/1"  />
               <InterpolatingParam id="7015" interp="linr"  time="0/1" value="0" leadInLength="0/1"  />
               <InterpolatingParam id="7016" interp="linr"  time="0/1" value="0" leadInLength="0/1"  />
              </VectorParam>
             </Transformer>
             <Parameters>
              <VectorParam id="7017"  name="sourceCrop">
               <InterpolatingParam id="7018" interp="linr"  time="0/1" value="0" leadInLength="0/1"  />
               <InterpolatingParam id="7019" interp="linr"  time="0/1" value="0" leadInLength="0/1"  />
               <InterpolatingParam id="7020" interp="linr"  time="0/1" value="0" leadInLength="0/1"  />
               <InterpolatingParam id="7021" interp="linr"  time="0/1" value="0" leadInLength="0/1"  />
              </VectorParam>
              <VectorParam id="7022"  name="geometryCrop">
               <InterpolatingParam id="7023" interp="linr"  time="-9999999/1" value="0" leadInLength="0/1"  />
               <InterpolatingParam id="7024" interp="linr"  time="-9999999/1" value="0" leadInLength="0/1"  />
               <InterpolatingParam id="7025" interp="linr"  time="-9999999/1" value="0" leadInLength="0/1"  />
               <InterpolatingParam id="7026" interp="linr"  time="-9999999/1" value="0" leadInLength="0/1"  />
              </VectorParam>
              <InterpolatingParam id="7027" interp="linr"  time="-9999999/1" value="1" leadInLength="0/1"  name="opacity"/>
              <InterpolatingParam id="7028" interp="linr"  time="0/1" value="0" leadInLength="0/1"  name="cursorOpacity"/>
              <InterpolatingParam id="7029" interp="linr"  time="0/1" value="0" leadInLength="0/1"  name="cursorScale"/>
             </Parameters>
             <Attributes>
              <Attribute id="7030" value="" name="ident"/>
             </Attributes>
             <ExtraData>
              <Entry key="ZoomPanBin">
               <ZoomPanBin id="7031"  >
                <ZoomPanKeyframes>
                 <ZoomPanKeyframe id="7032" timeRangeEnd="-9999999/1" timeRangeDuration="0/1" interpolaterName=""  />
                </ZoomPanKeyframes>
               </ZoomPanBin>
              </Entry>
              <Entry key="CursorEffectBin">
               <CursorEffectBin id="7033"  >
                <CursorEffectKeyframes>
                </CursorEffectKeyframes>
               </CursorEffectBin>
              </Entry>
             </ExtraData>
            </ScreenVMFile>
            <MetaData>
             <entry key="AutoAppliedSmartFocus" val="False"/>
             <entry key="WinSubProjectDisplayName" val=""/>
            </MetaData>
           </UnifiedMedia>
           <UnifiedMedia id="7034"  >
            <AMFile id="7035" start="6365" duration="90" scalar="1/1" mediaStart="10079/1" mediaDuration="90/1" trackNumber="1" src="4" channelNumber="0,1" >
             <Parameters>
              <InterpolatingParam id="7036" interp="linr"  time="0/1" value="1" leadInLength="0/1"  name="volume"/>
              <Parameter id="7037"  name="captions"/>
             </Parameters>
             <Attributes>
              <Attribute id="7038" value="" name="ident"/>
              <Attribute id="7039" value="44100" name="sampleRate"/>
              <Attribute id="7040" value="16" name="bitDepth"/>
              <Attribute id="7041" value="1" name="gain"/>
              <Attribute id="7042" value="0" name="mixToMono"/>
             </Attributes>
            </AMFile>
            <ScreenVMFile id="7043" start="6365" duration="90" scalar="1/1" mediaStart="10079/1" mediaDuration="90/1" trackNumber="0" src="4" >
             <Transformer>
              <VectorParam id="7044"  name="translation">
               <InterpolatingParam id="7045" interp="linr"  time="-9999999/1" value="0" leadInLength="0/1"  />
               <InterpolatingParam id="7046" interp="linr"  time="-9999999/1" value="0" leadInLength="0/1"  />
               <InterpolatingParam id="7047" interp="linr"  time="-9999999/1" value="0" leadInLength="0/1"  />
              </VectorParam>
              <VectorParam id="7048"  name="rotation">
               <InterpolatingParam id="7049" interp="linr"  time="-9999999/1" value="0" leadInLength="0/1"  />
               <InterpolatingParam id="7050" interp="linr"  time="-9999999/1" value="0" leadInLength="0/1"  />
               <InterpolatingParam id="7051" interp="linr"  time="-9999999/1" value="0" leadInLength="0/1"  />
              </VectorParam>
              <VectorParam id="7052"  name="shear">
               <InterpolatingParam id="7053" interp="linr"  time="-9999999/1" value="0" leadInLength="0/1"  />
               <InterpolatingParam id="7054" interp="linr"  time="-9999999/1" value="0" leadInLength="0/1"  />
               <InterpolatingParam id="7055" interp="linr"  time="-9999999/1" value="0" leadInLength="0/1"  />
              </VectorParam>
              <VectorParam id="7056"  name="scale">
               <InterpolatingParam id="7057" interp="linr"  time="-9999999/1" value="1" leadInLength="0/1"  />
               <InterpolatingParam id="7058" interp="linr"  time="-9999999/1" value="1" leadInLength="0/1"  />
               <InterpolatingParam id="7059" interp="linr"  time="-9999999/1" value="1" leadInLength="0/1"  />
              </VectorParam>
              <VectorParam id="7060"  name="anchor">
               <InterpolatingParam id="7061" interp="linr"  time="0/1" value="0" leadInLength="0/1"  />
               <InterpolatingParam id="7062" interp="linr"  time="0/1" value="0" leadInLength="0/1"  />
               <InterpolatingParam id="7063" interp="linr"  time="0/1" value="0" leadInLength="0/1"  />
              </VectorParam>
             </Transformer>
             <Parameters>
              <VectorParam id="7064"  name="sourceCrop">
               <InterpolatingParam id="7065" interp="linr"  time="0/1" value="0" leadInLength="0/1"  />
               <InterpolatingParam id="7066" interp="linr"  time="0/1" value="0" leadInLength="0/1"  />
               <InterpolatingParam id="7067" interp="linr"  time="0/1" value="0" leadInLength="0/1"  />
               <InterpolatingParam id="7068" interp="linr"  time="0/1" value="0" leadInLength="0/1"  />
              </VectorParam>
              <VectorParam id="7069"  name="geometryCrop">
               <InterpolatingParam id="7070" interp="linr"  time="-9999999/1" value="0" leadInLength="0/1"  />
               <InterpolatingParam id="7071" interp="linr"  time="-9999999/1" value="0" leadInLength="0/1"  />
               <InterpolatingParam id="7072" interp="linr"  time="-9999999/1" value="0" leadInLength="0/1"  />
               <InterpolatingParam id="7073" interp="linr"  time="-9999999/1" value="0" leadInLength="0/1"  />
              </VectorParam>
              <InterpolatingParam id="7074" interp="linr"  time="-9999999/1" value="1" leadInLength="0/1"  name="opacity"/>
              <InterpolatingParam id="7075" interp="linr"  time="0/1" value="0" leadInLength="0/1"  name="cursorOpacity"/>
              <InterpolatingParam id="7076" interp="linr"  time="0/1" value="0" leadInLength="0/1"  name="cursorScale"/>
             </Parameters>
             <Attributes>
              <Attribute id="7077" value="" name="ident"/>
             </Attributes>
             <ExtraData>
              <Entry key="ZoomPanBin">
               <ZoomPanBin id="7078"  >
                <ZoomPanKeyframes>
                 <ZoomPanKeyframe id="7079" timeRangeEnd="-9999999/1" timeRangeDuration="0/1" interpolaterName=""  />
                </ZoomPanKeyframes>
               </ZoomPanBin>
              </Entry>
              <Entry key="CursorEffectBin">
               <CursorEffectBin id="7080"  >
                <CursorEffectKeyframes>
                </CursorEffectKeyframes>
               </CursorEffectBin>
              </Entry>
             </ExtraData>
            </ScreenVMFile>
            <MetaData>
             <entry key="AutoAppliedSmartFocus" val="False"/>
             <entry key="WinSubProjectDisplayName" val=""/>
            </MetaData>
           </UnifiedMedia>
           <UnifiedMedia id="7081"  >
            <AMFile id="7082" start="6455" duration="55" scalar="1/1" mediaStart="10176/1" mediaDuration="55/1" trackNumber="1" src="4" channelNumber="0,1" >
             <Parameters>
              <InterpolatingParam id="7083" interp="linr"  time="0/1" value="1" leadInLength="0/1"  name="volume"/>
              <Parameter id="7084"  name="captions"/>
             </Parameters>
             <Attributes>
              <Attribute id="7085" value="" name="ident"/>
              <Attribute id="7086" value="44100" name="sampleRate"/>
              <Attribute id="7087" value="16" name="bitDepth"/>
              <Attribute id="7088" value="1" name="gain"/>
              <Attribute id="7089" value="0" name="mixToMono"/>
             </Attributes>
            </AMFile>
            <ScreenVMFile id="7090" start="6455" duration="55" scalar="1/1" mediaStart="10176/1" mediaDuration="55/1" trackNumber="0" src="4" >
             <Transformer>
              <VectorParam id="7091"  name="translation">
               <InterpolatingParam id="7092" interp="linr"  time="-9999999/1" value="0" leadInLength="0/1"  />
               <InterpolatingParam id="7093" interp="linr"  time="-9999999/1" value="0" leadInLength="0/1"  />
               <InterpolatingParam id="7094" interp="linr"  time="-9999999/1" value="0" leadInLength="0/1"  />
              </VectorParam>
              <VectorParam id="7095"  name="rotation">
               <InterpolatingParam id="7096" interp="linr"  time="-9999999/1" value="0" leadInLength="0/1"  />
               <InterpolatingParam id="7097" interp="linr"  time="-9999999/1" value="0" leadInLength="0/1"  />
               <InterpolatingParam id="7098" interp="linr"  time="-9999999/1" value="0" leadInLength="0/1"  />
              </VectorParam>
              <VectorParam id="7099"  name="shear">
               <InterpolatingParam id="7100" interp="linr"  time="-9999999/1" value="0" leadInLength="0/1"  />
               <InterpolatingParam id="7101" interp="linr"  time="-9999999/1" value="0" leadInLength="0/1"  />
               <InterpolatingParam id="7102" interp="linr"  time="-9999999/1" value="0" leadInLength="0/1"  />
              </VectorParam>
              <VectorParam id="7103"  name="scale">
               <InterpolatingParam id="7104" interp="linr"  time="-9999999/1" value="1" leadInLength="0/1"  />
               <InterpolatingParam id="7105" interp="linr"  time="-9999999/1" value="1" leadInLength="0/1"  />
               <InterpolatingParam id="7106" interp="linr"  time="-9999999/1" value="1" leadInLength="0/1"  />
              </VectorParam>
              <VectorParam id="7107"  name="anchor">
               <InterpolatingParam id="7108" interp="linr"  time="0/1" value="0" leadInLength="0/1"  />
               <InterpolatingParam id="7109" interp="linr"  time="0/1" value="0" leadInLength="0/1"  />
               <InterpolatingParam id="7110" interp="linr"  time="0/1" value="0" leadInLength="0/1"  />
              </VectorParam>
             </Transformer>
             <Parameters>
              <VectorParam id="7111"  name="sourceCrop">
               <InterpolatingParam id="7112" interp="linr"  time="0/1" value="0" leadInLength="0/1"  />
               <InterpolatingParam id="7113" interp="linr"  time="0/1" value="0" leadInLength="0/1"  />
               <InterpolatingParam id="7114" interp="linr"  time="0/1" value="0" leadInLength="0/1"  />
               <InterpolatingParam id="7115" interp="linr"  time="0/1" value="0" leadInLength="0/1"  />
              </VectorParam>
              <VectorParam id="7116"  name="geometryCrop">
               <InterpolatingParam id="7117" interp="linr"  time="-9999999/1" value="0" leadInLength="0/1"  />
               <InterpolatingParam id="7118" interp="linr"  time="-9999999/1" value="0" leadInLength="0/1"  />
               <InterpolatingParam id="7119" interp="linr"  time="-9999999/1" value="0" leadInLength="0/1"  />
               <InterpolatingParam id="7120" interp="linr"  time="-9999999/1" value="0" leadInLength="0/1"  />
              </VectorParam>
              <InterpolatingParam id="7121" interp="linr"  time="-9999999/1" value="1" leadInLength="0/1"  name="opacity"/>
              <InterpolatingParam id="7122" interp="linr"  time="0/1" value="0" leadInLength="0/1"  name="cursorOpacity"/>
              <InterpolatingParam id="7123" interp="linr"  time="0/1" value="0" leadInLength="0/1"  name="cursorScale"/>
             </Parameters>
             <Attributes>
              <Attribute id="7124" value="" name="ident"/>
             </Attributes>
             <ExtraData>
              <Entry key="ZoomPanBin">
               <ZoomPanBin id="7125"  >
                <ZoomPanKeyframes>
                 <ZoomPanKeyframe id="7126" timeRangeEnd="-9999999/1" timeRangeDuration="0/1" interpolaterName=""  />
                </ZoomPanKeyframes>
               </ZoomPanBin>
              </Entry>
              <Entry key="CursorEffectBin">
               <CursorEffectBin id="7127"  >
                <CursorEffectKeyframes>
                </CursorEffectKeyframes>
               </CursorEffectBin>
              </Entry>
             </ExtraData>
            </ScreenVMFile>
            <MetaData>
             <entry key="AutoAppliedSmartFocus" val="False"/>
             <entry key="WinSubProjectDisplayName" val=""/>
            </MetaData>
           </UnifiedMedia>
           <UnifiedMedia id="7128"  >
            <AMFile id="7129" start="6510" duration="65" scalar="1/1" mediaStart="10241/1" mediaDuration="65/1" trackNumber="1" src="4" channelNumber="0,1" >
             <Parameters>
              <InterpolatingParam id="7130" interp="linr"  time="0/1" value="1" leadInLength="0/1"  name="volume"/>
              <Parameter id="7131"  name="captions"/>
             </Parameters>
             <Attributes>
              <Attribute id="7132" value="" name="ident"/>
              <Attribute id="7133" value="44100" name="sampleRate"/>
              <Attribute id="7134" value="16" name="bitDepth"/>
              <Attribute id="7135" value="1" name="gain"/>
              <Attribute id="7136" value="0" name="mixToMono"/>
             </Attributes>
            </AMFile>
            <ScreenVMFile id="7137" start="6510" duration="65" scalar="1/1" mediaStart="10241/1" mediaDuration="65/1" trackNumber="0" src="4" >
             <Transformer>
              <VectorParam id="7138"  name="translation">
               <InterpolatingParam id="7139" interp="linr"  time="-9999999/1" value="0" leadInLength="0/1"  />
               <InterpolatingParam id="7140" interp="linr"  time="-9999999/1" value="0" leadInLength="0/1"  />
               <InterpolatingParam id="7141" interp="linr"  time="-9999999/1" value="0" leadInLength="0/1"  />
              </VectorParam>
              <VectorParam id="7142"  name="rotation">
               <InterpolatingParam id="7143" interp="linr"  time="-9999999/1" value="0" leadInLength="0/1"  />
               <InterpolatingParam id="7144" interp="linr"  time="-9999999/1" value="0" leadInLength="0/1"  />
               <InterpolatingParam id="7145" interp="linr"  time="-9999999/1" value="0" leadInLength="0/1"  />
              </VectorParam>
              <VectorParam id="7146"  name="shear">
               <InterpolatingParam id="7147" interp="linr"  time="-9999999/1" value="0" leadInLength="0/1"  />
               <InterpolatingParam id="7148" interp="linr"  time="-9999999/1" value="0" leadInLength="0/1"  />
               <InterpolatingParam id="7149" interp="linr"  time="-9999999/1" value="0" leadInLength="0/1"  />
              </VectorParam>
              <VectorParam id="7150"  name="scale">
               <InterpolatingParam id="7151" interp="linr"  time="-9999999/1" value="1" leadInLength="0/1"  />
               <InterpolatingParam id="7152" interp="linr"  time="-9999999/1" value="1" leadInLength="0/1"  />
               <InterpolatingParam id="7153" interp="linr"  time="-9999999/1" value="1" leadInLength="0/1"  />
              </VectorParam>
              <VectorParam id="7154"  name="anchor">
               <InterpolatingParam id="7155" interp="linr"  time="0/1" value="0" leadInLength="0/1"  />
               <InterpolatingParam id="7156" interp="linr"  time="0/1" value="0" leadInLength="0/1"  />
               <InterpolatingParam id="7157" interp="linr"  time="0/1" value="0" leadInLength="0/1"  />
              </VectorParam>
             </Transformer>
             <Parameters>
              <VectorParam id="7158"  name="sourceCrop">
               <InterpolatingParam id="7159" interp="linr"  time="0/1" value="0" leadInLength="0/1"  />
               <InterpolatingParam id="7160" interp="linr"  time="0/1" value="0" leadInLength="0/1"  />
               <InterpolatingParam id="7161" interp="linr"  time="0/1" value="0" leadInLength="0/1"  />
               <InterpolatingParam id="7162" interp="linr"  time="0/1" value="0" leadInLength="0/1"  />
              </VectorParam>
              <VectorParam id="7163"  name="geometryCrop">
               <InterpolatingParam id="7164" interp="linr"  time="-9999999/1" value="0" leadInLength="0/1"  />
               <InterpolatingParam id="7165" interp="linr"  time="-9999999/1" value="0" leadInLength="0/1"  />
               <InterpolatingParam id="7166" interp="linr"  time="-9999999/1" value="0" leadInLength="0/1"  />
               <InterpolatingParam id="7167" interp="linr"  time="-9999999/1" value="0" leadInLength="0/1"  />
              </VectorParam>
              <InterpolatingParam id="7168" interp="linr"  time="-9999999/1" value="1" leadInLength="0/1"  name="opacity"/>
              <InterpolatingParam id="7169" interp="linr"  time="0/1" value="0" leadInLength="0/1"  name="cursorOpacity"/>
              <InterpolatingParam id="7170" interp="linr"  time="0/1" value="0" leadInLength="0/1"  name="cursorScale"/>
             </Parameters>
             <Attributes>
              <Attribute id="7171" value="" name="ident"/>
             </Attributes>
             <ExtraData>
              <Entry key="ZoomPanBin">
               <ZoomPanBin id="7172"  >
                <ZoomPanKeyframes>
                 <ZoomPanKeyframe id="7173" timeRangeEnd="-9999999/1" timeRangeDuration="0/1" interpolaterName=""  />
                </ZoomPanKeyframes>
               </ZoomPanBin>
              </Entry>
              <Entry key="CursorEffectBin">
               <CursorEffectBin id="7174"  >
                <CursorEffectKeyframes>
                </CursorEffectKeyframes>
               </CursorEffectBin>
              </Entry>
             </ExtraData>
            </ScreenVMFile>
            <MetaData>
             <entry key="AutoAppliedSmartFocus" val="False"/>
             <entry key="WinSubProjectDisplayName" val=""/>
            </MetaData>
           </UnifiedMedia>
           <UnifiedMedia id="7175"  >
            <AMFile id="7176" start="6575" duration="500" scalar="1/1" mediaStart="10620/1" mediaDuration="500/1" trackNumber="1" src="4" channelNumber="0,1" >
             <Parameters>
              <InterpolatingParam id="7177" interp="linr"  time="0/1" value="1" leadInLength="0/1"  name="volume"/>
              <Parameter id="7178"  name="captions"/>
             </Parameters>
             <Attributes>
              <Attribute id="7179" value="" name="ident"/>
              <Attribute id="7180" value="44100" name="sampleRate"/>
              <Attribute id="7181" value="16" name="bitDepth"/>
              <Attribute id="7182" value="1" name="gain"/>
              <Attribute id="7183" value="0" name="mixToMono"/>
             </Attributes>
            </AMFile>
            <ScreenVMFile id="7184" start="6575" duration="500" scalar="1/1" mediaStart="10620/1" mediaDuration="500/1" trackNumber="0" src="4" >
             <Transformer>
              <VectorParam id="7185"  name="translation">
               <InterpolatingParam id="7186" interp="linr"  time="-9999999/1" value="0" leadInLength="0/1"  />
               <InterpolatingParam id="7187" interp="linr"  time="-9999999/1" value="0" leadInLength="0/1"  />
               <InterpolatingParam id="7188" interp="linr"  time="-9999999/1" value="0" leadInLength="0/1"  />
              </VectorParam>
              <VectorParam id="7189"  name="rotation">
               <InterpolatingParam id="7190" interp="linr"  time="-9999999/1" value="0" leadInLength="0/1"  />
               <InterpolatingParam id="7191" interp="linr"  time="-9999999/1" value="0" leadInLength="0/1"  />
               <InterpolatingParam id="7192" interp="linr"  time="-9999999/1" value="0" leadInLength="0/1"  />
              </VectorParam>
              <VectorParam id="7193"  name="shear">
               <InterpolatingParam id="7194" interp="linr"  time="-9999999/1" value="0" leadInLength="0/1"  />
               <InterpolatingParam id="7195" interp="linr"  time="-9999999/1" value="0" leadInLength="0/1"  />
               <InterpolatingParam id="7196" interp="linr"  time="-9999999/1" value="0" leadInLength="0/1"  />
              </VectorParam>
              <VectorParam id="7197"  name="scale">
               <InterpolatingParam id="7198" interp="linr"  time="-9999999/1" value="1" leadInLength="0/1"  />
               <InterpolatingParam id="7199" interp="linr"  time="-9999999/1" value="1" leadInLength="0/1"  />
               <InterpolatingParam id="7200" interp="linr"  time="-9999999/1" value="1" leadInLength="0/1"  />
              </VectorParam>
              <VectorParam id="7201"  name="anchor">
               <InterpolatingParam id="7202" interp="linr"  time="0/1" value="0" leadInLength="0/1"  />
               <InterpolatingParam id="7203" interp="linr"  time="0/1" value="0" leadInLength="0/1"  />
               <InterpolatingParam id="7204" interp="linr"  time="0/1" value="0" leadInLength="0/1"  />
              </VectorParam>
             </Transformer>
             <Parameters>
              <VectorParam id="7205"  name="sourceCrop">
               <InterpolatingParam id="7206" interp="linr"  time="0/1" value="0" leadInLength="0/1"  />
               <InterpolatingParam id="7207" interp="linr"  time="0/1" value="0" leadInLength="0/1"  />
               <InterpolatingParam id="7208" interp="linr"  time="0/1" value="0" leadInLength="0/1"  />
               <InterpolatingParam id="7209" interp="linr"  time="0/1" value="0" leadInLength="0/1"  />
              </VectorParam>
              <VectorParam id="7210"  name="geometryCrop">
               <InterpolatingParam id="7211" interp="linr"  time="-9999999/1" value="0" leadInLength="0/1"  />
               <InterpolatingParam id="7212" interp="linr"  time="-9999999/1" value="0" leadInLength="0/1"  />
               <InterpolatingParam id="7213" interp="linr"  time="-9999999/1" value="0" leadInLength="0/1"  />
               <InterpolatingParam id="7214" interp="linr"  time="-9999999/1" value="0" leadInLength="0/1"  />
              </VectorParam>
              <InterpolatingParam id="7215" interp="linr"  time="-9999999/1" value="1" leadInLength="0/1"  name="opacity"/>
              <InterpolatingParam id="7216" interp="linr"  time="0/1" value="0" leadInLength="0/1"  name="cursorOpacity"/>
              <InterpolatingParam id="7217" interp="linr"  time="0/1" value="0" leadInLength="0/1"  name="cursorScale"/>
             </Parameters>
             <Attributes>
              <Attribute id="7218" value="" name="ident"/>
             </Attributes>
             <ExtraData>
              <Entry key="ZoomPanBin">
               <ZoomPanBin id="7219"  >
                <ZoomPanKeyframes>
                 <ZoomPanKeyframe id="7220" timeRangeEnd="-9999999/1" timeRangeDuration="0/1" interpolaterName=""  />
                </ZoomPanKeyframes>
               </ZoomPanBin>
              </Entry>
              <Entry key="CursorEffectBin">
               <CursorEffectBin id="7221"  >
                <CursorEffectKeyframes>
                </CursorEffectKeyframes>
               </CursorEffectBin>
              </Entry>
             </ExtraData>
            </ScreenVMFile>
            <MetaData>
             <entry key="AutoAppliedSmartFocus" val="False"/>
             <entry key="WinSubProjectDisplayName" val=""/>
            </MetaData>
           </UnifiedMedia>
           <UnifiedMedia id="7222"  >
            <AMFile id="7223" start="7075" duration="37" scalar="1/1" mediaStart="11500/1" mediaDuration="37/1" trackNumber="1" src="4" channelNumber="0,1" >
             <Parameters>
              <InterpolatingParam id="7224" interp="linr"  time="0/1" value="1" leadInLength="0/1"  name="volume"/>
              <Parameter id="7225"  name="captions"/>
             </Parameters>
             <Attributes>
              <Attribute id="7226" value="" name="ident"/>
              <Attribute id="7227" value="44100" name="sampleRate"/>
              <Attribute id="7228" value="16" name="bitDepth"/>
              <Attribute id="7229" value="1" name="gain"/>
              <Attribute id="7230" value="0" name="mixToMono"/>
             </Attributes>
            </AMFile>
            <ScreenVMFile id="7231" start="7075" duration="37" scalar="1/1" mediaStart="11500/1" mediaDuration="37/1" trackNumber="0" src="4" >
             <Transformer>
              <VectorParam id="7232"  name="translation">
               <InterpolatingParam id="7233" interp="linr"  time="-9999999/1" value="0" leadInLength="0/1"  />
               <InterpolatingParam id="7234" interp="linr"  time="-9999999/1" value="0" leadInLength="0/1"  />
               <InterpolatingParam id="7235" interp="linr"  time="-9999999/1" value="0" leadInLength="0/1"  />
              </VectorParam>
              <VectorParam id="7236"  name="rotation">
               <InterpolatingParam id="7237" interp="linr"  time="-9999999/1" value="0" leadInLength="0/1"  />
               <InterpolatingParam id="7238" interp="linr"  time="-9999999/1" value="0" leadInLength="0/1"  />
               <InterpolatingParam id="7239" interp="linr"  time="-9999999/1" value="0" leadInLength="0/1"  />
              </VectorParam>
              <VectorParam id="7240"  name="shear">
               <InterpolatingParam id="7241" interp="linr"  time="-9999999/1" value="0" leadInLength="0/1"  />
               <InterpolatingParam id="7242" interp="linr"  time="-9999999/1" value="0" leadInLength="0/1"  />
               <InterpolatingParam id="7243" interp="linr"  time="-9999999/1" value="0" leadInLength="0/1"  />
              </VectorParam>
              <VectorParam id="7244"  name="scale">
               <InterpolatingParam id="7245" interp="linr"  time="-9999999/1" value="1" leadInLength="0/1"  />
               <InterpolatingParam id="7246" interp="linr"  time="-9999999/1" value="1" leadInLength="0/1"  />
               <InterpolatingParam id="7247" interp="linr"  time="-9999999/1" value="1" leadInLength="0/1"  />
              </VectorParam>
              <VectorParam id="7248"  name="anchor">
               <InterpolatingParam id="7249" interp="linr"  time="0/1" value="0" leadInLength="0/1"  />
               <InterpolatingParam id="7250" interp="linr"  time="0/1" value="0" leadInLength="0/1"  />
               <InterpolatingParam id="7251" interp="linr"  time="0/1" value="0" leadInLength="0/1"  />
              </VectorParam>
             </Transformer>
             <Parameters>
              <VectorParam id="7252"  name="sourceCrop">
               <InterpolatingParam id="7253" interp="linr"  time="0/1" value="0" leadInLength="0/1"  />
               <InterpolatingParam id="7254" interp="linr"  time="0/1" value="0" leadInLength="0/1"  />
               <InterpolatingParam id="7255" interp="linr"  time="0/1" value="0" leadInLength="0/1"  />
               <InterpolatingParam id="7256" interp="linr"  time="0/1" value="0" leadInLength="0/1"  />
              </VectorParam>
              <VectorParam id="7257"  name="geometryCrop">
               <InterpolatingParam id="7258" interp="linr"  time="-9999999/1" value="0" leadInLength="0/1"  />
               <InterpolatingParam id="7259" interp="linr"  time="-9999999/1" value="0" leadInLength="0/1"  />
               <InterpolatingParam id="7260" interp="linr"  time="-9999999/1" value="0" leadInLength="0/1"  />
               <InterpolatingParam id="7261" interp="linr"  time="-9999999/1" value="0" leadInLength="0/1"  />
              </VectorParam>
              <InterpolatingParam id="7262" interp="linr"  time="-9999999/1" value="1" leadInLength="0/1"  name="opacity"/>
              <InterpolatingParam id="7263" interp="linr"  time="0/1" value="0" leadInLength="0/1"  name="cursorOpacity"/>
              <InterpolatingParam id="7264" interp="linr"  time="0/1" value="0" leadInLength="0/1"  name="cursorScale"/>
             </Parameters>
             <Attributes>
              <Attribute id="7265" value="" name="ident"/>
             </Attributes>
             <ExtraData>
              <Entry key="ZoomPanBin">
               <ZoomPanBin id="7266"  >
                <ZoomPanKeyframes>
                 <ZoomPanKeyframe id="7267" timeRangeEnd="-9999999/1" timeRangeDuration="0/1" interpolaterName=""  />
                </ZoomPanKeyframes>
               </ZoomPanBin>
              </Entry>
              <Entry key="CursorEffectBin">
               <CursorEffectBin id="7268"  >
                <CursorEffectKeyframes>
                </CursorEffectKeyframes>
               </CursorEffectBin>
              </Entry>
             </ExtraData>
            </ScreenVMFile>
            <MetaData>
             <entry key="AutoAppliedSmartFocus" val="False"/>
             <entry key="WinSubProjectDisplayName" val=""/>
            </MetaData>
           </UnifiedMedia>
           <UnifiedMedia id="7269"  >
            <AMFile id="7270" start="7112" duration="203" scalar="1/1" mediaStart="11678/1" mediaDuration="203/1" trackNumber="1" src="4" channelNumber="0,1" >
             <Parameters>
              <InterpolatingParam id="7271" interp="linr"  time="0/1" value="1" leadInLength="0/1"  name="volume"/>
              <Parameter id="7272"  name="captions"/>
             </Parameters>
             <Attributes>
              <Attribute id="7273" value="" name="ident"/>
              <Attribute id="7274" value="44100" name="sampleRate"/>
              <Attribute id="7275" value="16" name="bitDepth"/>
              <Attribute id="7276" value="1" name="gain"/>
              <Attribute id="7277" value="0" name="mixToMono"/>
             </Attributes>
            </AMFile>
            <ScreenVMFile id="7278" start="7112" duration="203" scalar="1/1" mediaStart="11678/1" mediaDuration="203/1" trackNumber="0" src="4" >
             <Transformer>
              <VectorParam id="7279"  name="translation">
               <InterpolatingParam id="7280" interp="linr"  time="-9999999/1" value="0" leadInLength="0/1"  />
               <InterpolatingParam id="7281" interp="linr"  time="-9999999/1" value="0" leadInLength="0/1"  />
               <InterpolatingParam id="7282" interp="linr"  time="-9999999/1" value="0" leadInLength="0/1"  />
              </VectorParam>
              <VectorParam id="7283"  name="rotation">
               <InterpolatingParam id="7284" interp="linr"  time="-9999999/1" value="0" leadInLength="0/1"  />
               <InterpolatingParam id="7285" interp="linr"  time="-9999999/1" value="0" leadInLength="0/1"  />
               <InterpolatingParam id="7286" interp="linr"  time="-9999999/1" value="0" leadInLength="0/1"  />
              </VectorParam>
              <VectorParam id="7287"  name="shear">
               <InterpolatingParam id="7288" interp="linr"  time="-9999999/1" value="0" leadInLength="0/1"  />
               <InterpolatingParam id="7289" interp="linr"  time="-9999999/1" value="0" leadInLength="0/1"  />
               <InterpolatingParam id="7290" interp="linr"  time="-9999999/1" value="0" leadInLength="0/1"  />
              </VectorParam>
              <VectorParam id="7291"  name="scale">
               <InterpolatingParam id="7292" interp="linr"  time="-9999999/1" value="1" leadInLength="0/1"  />
               <InterpolatingParam id="7293" interp="linr"  time="-9999999/1" value="1" leadInLength="0/1"  />
               <InterpolatingParam id="7294" interp="linr"  time="-9999999/1" value="1" leadInLength="0/1"  />
              </VectorParam>
              <VectorParam id="7295"  name="anchor">
               <InterpolatingParam id="7296" interp="linr"  time="0/1" value="0" leadInLength="0/1"  />
               <InterpolatingParam id="7297" interp="linr"  time="0/1" value="0" leadInLength="0/1"  />
               <InterpolatingParam id="7298" interp="linr"  time="0/1" value="0" leadInLength="0/1"  />
              </VectorParam>
             </Transformer>
             <Parameters>
              <VectorParam id="7299"  name="sourceCrop">
               <InterpolatingParam id="7300" interp="linr"  time="0/1" value="0" leadInLength="0/1"  />
               <InterpolatingParam id="7301" interp="linr"  time="0/1" value="0" leadInLength="0/1"  />
               <InterpolatingParam id="7302" interp="linr"  time="0/1" value="0" leadInLength="0/1"  />
               <InterpolatingParam id="7303" interp="linr"  time="0/1" value="0" leadInLength="0/1"  />
              </VectorParam>
              <VectorParam id="7304"  name="geometryCrop">
               <InterpolatingParam id="7305" interp="linr"  time="-9999999/1" value="0" leadInLength="0/1"  />
               <InterpolatingParam id="7306" interp="linr"  time="-9999999/1" value="0" leadInLength="0/1"  />
               <InterpolatingParam id="7307" interp="linr"  time="-9999999/1" value="0" leadInLength="0/1"  />
               <InterpolatingParam id="7308" interp="linr"  time="-9999999/1" value="0" leadInLength="0/1"  />
              </VectorParam>
              <InterpolatingParam id="7309" interp="linr"  time="-9999999/1" value="1" leadInLength="0/1"  name="opacity"/>
              <InterpolatingParam id="7310" interp="linr"  time="0/1" value="0" leadInLength="0/1"  name="cursorOpacity"/>
              <InterpolatingParam id="7311" interp="linr"  time="0/1" value="0" leadInLength="0/1"  name="cursorScale"/>
             </Parameters>
             <Attributes>
              <Attribute id="7312" value="" name="ident"/>
             </Attributes>
             <ExtraData>
              <Entry key="ZoomPanBin">
               <ZoomPanBin id="7313"  >
                <ZoomPanKeyframes>
                 <ZoomPanKeyframe id="7314" timeRangeEnd="-9999999/1" timeRangeDuration="0/1" interpolaterName=""  />
                </ZoomPanKeyframes>
               </ZoomPanBin>
              </Entry>
              <Entry key="CursorEffectBin">
               <CursorEffectBin id="7315"  >
                <CursorEffectKeyframes>
                </CursorEffectKeyframes>
               </CursorEffectBin>
              </Entry>
             </ExtraData>
            </ScreenVMFile>
            <MetaData>
             <entry key="AutoAppliedSmartFocus" val="False"/>
             <entry key="WinSubProjectDisplayName" val=""/>
            </MetaData>
           </UnifiedMedia>
           <UnifiedMedia id="7316"  >
            <AMFile id="7317" start="7315" duration="391" scalar="1/1" mediaStart="11890/1" mediaDuration="391/1" trackNumber="1" src="4" channelNumber="0,1" >
             <Parameters>
              <InterpolatingParam id="7318" interp="linr"  time="0/1" value="1" leadInLength="0/1"  name="volume"/>
              <Parameter id="7319"  name="captions"/>
             </Parameters>
             <Attributes>
              <Attribute id="7320" value="" name="ident"/>
              <Attribute id="7321" value="44100" name="sampleRate"/>
              <Attribute id="7322" value="16" name="bitDepth"/>
              <Attribute id="7323" value="1" name="gain"/>
              <Attribute id="7324" value="0" name="mixToMono"/>
             </Attributes>
            </AMFile>
            <ScreenVMFile id="7325" start="7315" duration="391" scalar="1/1" mediaStart="11890/1" mediaDuration="391/1" trackNumber="0" src="4" >
             <Transformer>
              <VectorParam id="7326"  name="translation">
               <InterpolatingParam id="7327" interp="linr"  time="-9999999/1" value="0" leadInLength="0/1"  />
               <InterpolatingParam id="7328" interp="linr"  time="-9999999/1" value="0" leadInLength="0/1"  />
               <InterpolatingParam id="7329" interp="linr"  time="-9999999/1" value="0" leadInLength="0/1"  />
              </VectorParam>
              <VectorParam id="7330"  name="rotation">
               <InterpolatingParam id="7331" interp="linr"  time="-9999999/1" value="0" leadInLength="0/1"  />
               <InterpolatingParam id="7332" interp="linr"  time="-9999999/1" value="0" leadInLength="0/1"  />
               <InterpolatingParam id="7333" interp="linr"  time="-9999999/1" value="0" leadInLength="0/1"  />
              </VectorParam>
              <VectorParam id="7334"  name="shear">
               <InterpolatingParam id="7335" interp="linr"  time="-9999999/1" value="0" leadInLength="0/1"  />
               <InterpolatingParam id="7336" interp="linr"  time="-9999999/1" value="0" leadInLength="0/1"  />
               <InterpolatingParam id="7337" interp="linr"  time="-9999999/1" value="0" leadInLength="0/1"  />
              </VectorParam>
              <VectorParam id="7338"  name="scale">
               <InterpolatingParam id="7339" interp="linr"  time="-9999999/1" value="1" leadInLength="0/1"  />
               <InterpolatingParam id="7340" interp="linr"  time="-9999999/1" value="1" leadInLength="0/1"  />
               <InterpolatingParam id="7341" interp="linr"  time="-9999999/1" value="1" leadInLength="0/1"  />
              </VectorParam>
              <VectorParam id="7342"  name="anchor">
               <InterpolatingParam id="7343" interp="linr"  time="0/1" value="0" leadInLength="0/1"  />
               <InterpolatingParam id="7344" interp="linr"  time="0/1" value="0" leadInLength="0/1"  />
               <InterpolatingParam id="7345" interp="linr"  time="0/1" value="0" leadInLength="0/1"  />
              </VectorParam>
             </Transformer>
             <Parameters>
              <VectorParam id="7346"  name="sourceCrop">
               <InterpolatingParam id="7347" interp="linr"  time="0/1" value="0" leadInLength="0/1"  />
               <InterpolatingParam id="7348" interp="linr"  time="0/1" value="0" leadInLength="0/1"  />
               <InterpolatingParam id="7349" interp="linr"  time="0/1" value="0" leadInLength="0/1"  />
               <InterpolatingParam id="7350" interp="linr"  time="0/1" value="0" leadInLength="0/1"  />
              </VectorParam>
              <VectorParam id="7351"  name="geometryCrop">
               <InterpolatingParam id="7352" interp="linr"  time="-9999999/1" value="0" leadInLength="0/1"  />
               <InterpolatingParam id="7353" interp="linr"  time="-9999999/1" value="0" leadInLength="0/1"  />
               <InterpolatingParam id="7354" interp="linr"  time="-9999999/1" value="0" leadInLength="0/1"  />
               <InterpolatingParam id="7355" interp="linr"  time="-9999999/1" value="0" leadInLength="0/1"  />
              </VectorParam>
              <InterpolatingParam id="7356" interp="linr"  time="-9999999/1" value="1" leadInLength="0/1"  name="opacity"/>
              <InterpolatingParam id="7357" interp="linr"  time="0/1" value="0" leadInLength="0/1"  name="cursorOpacity"/>
              <InterpolatingParam id="7358" interp="linr"  time="0/1" value="0" leadInLength="0/1"  name="cursorScale"/>
             </Parameters>
             <Attributes>
              <Attribute id="7359" value="" name="ident"/>
             </Attributes>
             <ExtraData>
              <Entry key="ZoomPanBin">
               <ZoomPanBin id="7360"  >
                <ZoomPanKeyframes>
                 <ZoomPanKeyframe id="7361" timeRangeEnd="-9999999/1" timeRangeDuration="0/1" interpolaterName=""  />
                </ZoomPanKeyframes>
               </ZoomPanBin>
              </Entry>
              <Entry key="CursorEffectBin">
               <CursorEffectBin id="7362"  >
                <CursorEffectKeyframes>
                </CursorEffectKeyframes>
               </CursorEffectBin>
              </Entry>
             </ExtraData>
            </ScreenVMFile>
            <MetaData>
             <entry key="AutoAppliedSmartFocus" val="False"/>
             <entry key="WinSubProjectDisplayName" val=""/>
            </MetaData>
           </UnifiedMedia>
           <UnifiedMedia id="7363"  >
            <AMFile id="7364" start="7706" duration="322" scalar="1/1" mediaStart="12927/1" mediaDuration="322/1" trackNumber="1" src="4" channelNumber="0,1" >
             <Parameters>
              <InterpolatingParam id="7365" interp="linr"  time="0/1" value="1" leadInLength="0/1"  name="volume"/>
              <Parameter id="7366"  name="captions"/>
             </Parameters>
             <Attributes>
              <Attribute id="7367" value="" name="ident"/>
              <Attribute id="7368" value="44100" name="sampleRate"/>
              <Attribute id="7369" value="16" name="bitDepth"/>
              <Attribute id="7370" value="1" name="gain"/>
              <Attribute id="7371" value="0" name="mixToMono"/>
             </Attributes>
            </AMFile>
            <ScreenVMFile id="7372" start="7706" duration="322" scalar="1/1" mediaStart="12927/1" mediaDuration="322/1" trackNumber="0" src="4" >
             <Transformer>
              <VectorParam id="7373"  name="translation">
               <InterpolatingParam id="7374" interp="linr"  time="-9999999/1" value="0" leadInLength="0/1"  />
               <InterpolatingParam id="7375" interp="linr"  time="-9999999/1" value="0" leadInLength="0/1"  />
               <InterpolatingParam id="7376" interp="linr"  time="-9999999/1" value="0" leadInLength="0/1"  />
              </VectorParam>
              <VectorParam id="7377"  name="rotation">
               <InterpolatingParam id="7378" interp="linr"  time="-9999999/1" value="0" leadInLength="0/1"  />
               <InterpolatingParam id="7379" interp="linr"  time="-9999999/1" value="0" leadInLength="0/1"  />
               <InterpolatingParam id="7380" interp="linr"  time="-9999999/1" value="0" leadInLength="0/1"  />
              </VectorParam>
              <VectorParam id="7381"  name="shear">
               <InterpolatingParam id="7382" interp="linr"  time="-9999999/1" value="0" leadInLength="0/1"  />
               <InterpolatingParam id="7383" interp="linr"  time="-9999999/1" value="0" leadInLength="0/1"  />
               <InterpolatingParam id="7384" interp="linr"  time="-9999999/1" value="0" leadInLength="0/1"  />
              </VectorParam>
              <VectorParam id="7385"  name="scale">
               <InterpolatingParam id="7386" interp="linr"  time="-9999999/1" value="1" leadInLength="0/1"  />
               <InterpolatingParam id="7387" interp="linr"  time="-9999999/1" value="1" leadInLength="0/1"  />
               <InterpolatingParam id="7388" interp="linr"  time="-9999999/1" value="1" leadInLength="0/1"  />
              </VectorParam>
              <VectorParam id="7389"  name="anchor">
               <InterpolatingParam id="7390" interp="linr"  time="0/1" value="0" leadInLength="0/1"  />
               <InterpolatingParam id="7391" interp="linr"  time="0/1" value="0" leadInLength="0/1"  />
               <InterpolatingParam id="7392" interp="linr"  time="0/1" value="0" leadInLength="0/1"  />
              </VectorParam>
             </Transformer>
             <Parameters>
              <VectorParam id="7393"  name="sourceCrop">
               <InterpolatingParam id="7394" interp="linr"  time="0/1" value="0" leadInLength="0/1"  />
               <InterpolatingParam id="7395" interp="linr"  time="0/1" value="0" leadInLength="0/1"  />
               <InterpolatingParam id="7396" interp="linr"  time="0/1" value="0" leadInLength="0/1"  />
               <InterpolatingParam id="7397" interp="linr"  time="0/1" value="0" leadInLength="0/1"  />
              </VectorParam>
              <VectorParam id="7398"  name="geometryCrop">
               <InterpolatingParam id="7399" interp="linr"  time="-9999999/1" value="0" leadInLength="0/1"  />
               <InterpolatingParam id="7400" interp="linr"  time="-9999999/1" value="0" leadInLength="0/1"  />
               <InterpolatingParam id="7401" interp="linr"  time="-9999999/1" value="0" leadInLength="0/1"  />
               <InterpolatingParam id="7402" interp="linr"  time="-9999999/1" value="0" leadInLength="0/1"  />
              </VectorParam>
              <InterpolatingParam id="7403" interp="linr"  time="-9999999/1" value="1" leadInLength="0/1"  name="opacity"/>
              <InterpolatingParam id="7404" interp="linr"  time="0/1" value="0" leadInLength="0/1"  name="cursorOpacity"/>
              <InterpolatingParam id="7405" interp="linr"  time="0/1" value="0" leadInLength="0/1"  name="cursorScale"/>
             </Parameters>
             <Attributes>
              <Attribute id="7406" value="" name="ident"/>
             </Attributes>
             <ExtraData>
              <Entry key="ZoomPanBin">
               <ZoomPanBin id="7407"  >
                <ZoomPanKeyframes>
                 <ZoomPanKeyframe id="7408" timeRangeEnd="-9999999/1" timeRangeDuration="0/1" interpolaterName=""  />
                </ZoomPanKeyframes>
               </ZoomPanBin>
              </Entry>
              <Entry key="CursorEffectBin">
               <CursorEffectBin id="7409"  >
                <CursorEffectKeyframes>
                </CursorEffectKeyframes>
               </CursorEffectBin>
              </Entry>
             </ExtraData>
            </ScreenVMFile>
            <MetaData>
             <entry key="AutoAppliedSmartFocus" val="False"/>
             <entry key="WinSubProjectDisplayName" val=""/>
            </MetaData>
           </UnifiedMedia>
           <UnifiedMedia id="7410"  >
            <AMFile id="7411" start="8028" duration="163" scalar="1/1" mediaStart="13328/1" mediaDuration="163/1" trackNumber="1" src="4" channelNumber="0,1" >
             <Parameters>
              <InterpolatingParam id="7412" interp="linr"  time="0/1" value="1" leadInLength="0/1"  name="volume"/>
              <Parameter id="7413"  name="captions"/>
             </Parameters>
             <Attributes>
              <Attribute id="7414" value="" name="ident"/>
              <Attribute id="7415" value="44100" name="sampleRate"/>
              <Attribute id="7416" value="16" name="bitDepth"/>
              <Attribute id="7417" value="1" name="gain"/>
              <Attribute id="7418" value="0" name="mixToMono"/>
             </Attributes>
            </AMFile>
            <ScreenVMFile id="7419" start="8028" duration="163" scalar="1/1" mediaStart="13328/1" mediaDuration="163/1" trackNumber="0" src="4" >
             <Transformer>
              <VectorParam id="7420"  name="translation">
               <InterpolatingParam id="7421" interp="linr"  time="-9999999/1" value="0" leadInLength="0/1"  />
               <InterpolatingParam id="7422" interp="linr"  time="-9999999/1" value="0" leadInLength="0/1"  />
               <InterpolatingParam id="7423" interp="linr"  time="-9999999/1" value="0" leadInLength="0/1"  />
              </VectorParam>
              <VectorParam id="7424"  name="rotation">
               <InterpolatingParam id="7425" interp="linr"  time="-9999999/1" value="0" leadInLength="0/1"  />
               <InterpolatingParam id="7426" interp="linr"  time="-9999999/1" value="0" leadInLength="0/1"  />
               <InterpolatingParam id="7427" interp="linr"  time="-9999999/1" value="0" leadInLength="0/1"  />
              </VectorParam>
              <VectorParam id="7428"  name="shear">
               <InterpolatingParam id="7429" interp="linr"  time="-9999999/1" value="0" leadInLength="0/1"  />
               <InterpolatingParam id="7430" interp="linr"  time="-9999999/1" value="0" leadInLength="0/1"  />
               <InterpolatingParam id="7431" interp="linr"  time="-9999999/1" value="0" leadInLength="0/1"  />
              </VectorParam>
              <VectorParam id="7432"  name="scale">
               <InterpolatingParam id="7433" interp="linr"  time="-9999999/1" value="1" leadInLength="0/1"  />
               <InterpolatingParam id="7434" interp="linr"  time="-9999999/1" value="1" leadInLength="0/1"  />
               <InterpolatingParam id="7435" interp="linr"  time="-9999999/1" value="1" leadInLength="0/1"  />
              </VectorParam>
              <VectorParam id="7436"  name="anchor">
               <InterpolatingParam id="7437" interp="linr"  time="0/1" value="0" leadInLength="0/1"  />
               <InterpolatingParam id="7438" interp="linr"  time="0/1" value="0" leadInLength="0/1"  />
               <InterpolatingParam id="7439" interp="linr"  time="0/1" value="0" leadInLength="0/1"  />
              </VectorParam>
             </Transformer>
             <Parameters>
              <VectorParam id="7440"  name="sourceCrop">
               <InterpolatingParam id="7441" interp="linr"  time="0/1" value="0" leadInLength="0/1"  />
               <InterpolatingParam id="7442" interp="linr"  time="0/1" value="0" leadInLength="0/1"  />
               <InterpolatingParam id="7443" interp="linr"  time="0/1" value="0" leadInLength="0/1"  />
               <InterpolatingParam id="7444" interp="linr"  time="0/1" value="0" leadInLength="0/1"  />
              </VectorParam>
              <VectorParam id="7445"  name="geometryCrop">
               <InterpolatingParam id="7446" interp="linr"  time="-9999999/1" value="0" leadInLength="0/1"  />
               <InterpolatingParam id="7447" interp="linr"  time="-9999999/1" value="0" leadInLength="0/1"  />
               <InterpolatingParam id="7448" interp="linr"  time="-9999999/1" value="0" leadInLength="0/1"  />
               <InterpolatingParam id="7449" interp="linr"  time="-9999999/1" value="0" leadInLength="0/1"  />
              </VectorParam>
              <InterpolatingParam id="7450" interp="linr"  time="-9999999/1" value="1" leadInLength="0/1"  name="opacity"/>
              <InterpolatingParam id="7451" interp="linr"  time="0/1" value="0" leadInLength="0/1"  name="cursorOpacity"/>
              <InterpolatingParam id="7452" interp="linr"  time="0/1" value="0" leadInLength="0/1"  name="cursorScale"/>
             </Parameters>
             <Attributes>
              <Attribute id="7453" value="" name="ident"/>
             </Attributes>
             <ExtraData>
              <Entry key="ZoomPanBin">
               <ZoomPanBin id="7454"  >
                <ZoomPanKeyframes>
                 <ZoomPanKeyframe id="7455" timeRangeEnd="-9999999/1" timeRangeDuration="0/1" interpolaterName=""  />
                </ZoomPanKeyframes>
               </ZoomPanBin>
              </Entry>
              <Entry key="CursorEffectBin">
               <CursorEffectBin id="7456"  >
                <CursorEffectKeyframes>
                </CursorEffectKeyframes>
               </CursorEffectBin>
              </Entry>
             </ExtraData>
            </ScreenVMFile>
            <MetaData>
             <entry key="AutoAppliedSmartFocus" val="False"/>
             <entry key="WinSubProjectDisplayName" val=""/>
            </MetaData>
           </UnifiedMedia>
           <UnifiedMedia id="7457"  >
            <AMFile id="7458" start="8191" duration="82" scalar="1/1" mediaStart="13803/1" mediaDuration="82/1" trackNumber="1" src="4" channelNumber="0,1" >
             <Parameters>
              <InterpolatingParam id="7459" interp="linr"  time="0/1" value="1" leadInLength="0/1"  name="volume"/>
              <Parameter id="7460"  name="captions"/>
             </Parameters>
             <Attributes>
              <Attribute id="7461" value="" name="ident"/>
              <Attribute id="7462" value="44100" name="sampleRate"/>
              <Attribute id="7463" value="16" name="bitDepth"/>
              <Attribute id="7464" value="1" name="gain"/>
              <Attribute id="7465" value="0" name="mixToMono"/>
             </Attributes>
            </AMFile>
            <ScreenVMFile id="7466" start="8191" duration="82" scalar="1/1" mediaStart="13803/1" mediaDuration="82/1" trackNumber="0" src="4" >
             <Transformer>
              <VectorParam id="7467"  name="translation">
               <InterpolatingParam id="7468" interp="linr"  time="-9999999/1" value="0" leadInLength="0/1"  />
               <InterpolatingParam id="7469" interp="linr"  time="-9999999/1" value="0" leadInLength="0/1"  />
               <InterpolatingParam id="7470" interp="linr"  time="-9999999/1" value="0" leadInLength="0/1"  />
              </VectorParam>
              <VectorParam id="7471"  name="rotation">
               <InterpolatingParam id="7472" interp="linr"  time="-9999999/1" value="0" leadInLength="0/1"  />
               <InterpolatingParam id="7473" interp="linr"  time="-9999999/1" value="0" leadInLength="0/1"  />
               <InterpolatingParam id="7474" interp="linr"  time="-9999999/1" value="0" leadInLength="0/1"  />
              </VectorParam>
              <VectorParam id="7475"  name="shear">
               <InterpolatingParam id="7476" interp="linr"  time="-9999999/1" value="0" leadInLength="0/1"  />
               <InterpolatingParam id="7477" interp="linr"  time="-9999999/1" value="0" leadInLength="0/1"  />
               <InterpolatingParam id="7478" interp="linr"  time="-9999999/1" value="0" leadInLength="0/1"  />
              </VectorParam>
              <VectorParam id="7479"  name="scale">
               <InterpolatingParam id="7480" interp="linr"  time="-9999999/1" value="1" leadInLength="0/1"  />
               <InterpolatingParam id="7481" interp="linr"  time="-9999999/1" value="1" leadInLength="0/1"  />
               <InterpolatingParam id="7482" interp="linr"  time="-9999999/1" value="1" leadInLength="0/1"  />
              </VectorParam>
              <VectorParam id="7483"  name="anchor">
               <InterpolatingParam id="7484" interp="linr"  time="0/1" value="0" leadInLength="0/1"  />
               <InterpolatingParam id="7485" interp="linr"  time="0/1" value="0" leadInLength="0/1"  />
               <InterpolatingParam id="7486" interp="linr"  time="0/1" value="0" leadInLength="0/1"  />
              </VectorParam>
             </Transformer>
             <Parameters>
              <VectorParam id="7487"  name="sourceCrop">
               <InterpolatingParam id="7488" interp="linr"  time="0/1" value="0" leadInLength="0/1"  />
               <InterpolatingParam id="7489" interp="linr"  time="0/1" value="0" leadInLength="0/1"  />
               <InterpolatingParam id="7490" interp="linr"  time="0/1" value="0" leadInLength="0/1"  />
               <InterpolatingParam id="7491" interp="linr"  time="0/1" value="0" leadInLength="0/1"  />
              </VectorParam>
              <VectorParam id="7492"  name="geometryCrop">
               <InterpolatingParam id="7493" interp="linr"  time="-9999999/1" value="0" leadInLength="0/1"  />
               <InterpolatingParam id="7494" interp="linr"  time="-9999999/1" value="0" leadInLength="0/1"  />
               <InterpolatingParam id="7495" interp="linr"  time="-9999999/1" value="0" leadInLength="0/1"  />
               <InterpolatingParam id="7496" interp="linr"  time="-9999999/1" value="0" leadInLength="0/1"  />
              </VectorParam>
              <InterpolatingParam id="7497" interp="linr"  time="-9999999/1" value="1" leadInLength="0/1"  name="opacity"/>
              <InterpolatingParam id="7498" interp="linr"  time="0/1" value="0" leadInLength="0/1"  name="cursorOpacity"/>
              <InterpolatingParam id="7499" interp="linr"  time="0/1" value="0" leadInLength="0/1"  name="cursorScale"/>
             </Parameters>
             <Attributes>
              <Attribute id="7500" value="" name="ident"/>
             </Attributes>
             <ExtraData>
              <Entry key="ZoomPanBin">
               <ZoomPanBin id="7501"  >
                <ZoomPanKeyframes>
                 <ZoomPanKeyframe id="7502" timeRangeEnd="-9999999/1" timeRangeDuration="0/1" interpolaterName=""  />
                </ZoomPanKeyframes>
               </ZoomPanBin>
              </Entry>
              <Entry key="CursorEffectBin">
               <CursorEffectBin id="7503"  >
                <CursorEffectKeyframes>
                </CursorEffectKeyframes>
               </CursorEffectBin>
              </Entry>
             </ExtraData>
            </ScreenVMFile>
            <MetaData>
             <entry key="AutoAppliedSmartFocus" val="False"/>
             <entry key="WinSubProjectDisplayName" val=""/>
            </MetaData>
           </UnifiedMedia>
           <UnifiedMedia id="7504"  >
            <AMFile id="7505" start="8273" duration="38" scalar="1/1" mediaStart="13891/1" mediaDuration="38/1" trackNumber="1" src="4" channelNumber="0,1" >
             <Parameters>
              <InterpolatingParam id="7506" interp="linr"  time="0/1" value="1" leadInLength="0/1"  name="volume"/>
              <Parameter id="7507"  name="captions"/>
             </Parameters>
             <Attributes>
              <Attribute id="7508" value="" name="ident"/>
              <Attribute id="7509" value="44100" name="sampleRate"/>
              <Attribute id="7510" value="16" name="bitDepth"/>
              <Attribute id="7511" value="1" name="gain"/>
              <Attribute id="7512" value="0" name="mixToMono"/>
             </Attributes>
            </AMFile>
            <ScreenVMFile id="7513" start="8273" duration="38" scalar="1/1" mediaStart="13891/1" mediaDuration="38/1" trackNumber="0" src="4" >
             <Transformer>
              <VectorParam id="7514"  name="translation">
               <InterpolatingParam id="7515" interp="linr"  time="-9999999/1" value="0" leadInLength="0/1"  />
               <InterpolatingParam id="7516" interp="linr"  time="-9999999/1" value="0" leadInLength="0/1"  />
               <InterpolatingParam id="7517" interp="linr"  time="-9999999/1" value="0" leadInLength="0/1"  />
              </VectorParam>
              <VectorParam id="7518"  name="rotation">
               <InterpolatingParam id="7519" interp="linr"  time="-9999999/1" value="0" leadInLength="0/1"  />
               <InterpolatingParam id="7520" interp="linr"  time="-9999999/1" value="0" leadInLength="0/1"  />
               <InterpolatingParam id="7521" interp="linr"  time="-9999999/1" value="0" leadInLength="0/1"  />
              </VectorParam>
              <VectorParam id="7522"  name="shear">
               <InterpolatingParam id="7523" interp="linr"  time="-9999999/1" value="0" leadInLength="0/1"  />
               <InterpolatingParam id="7524" interp="linr"  time="-9999999/1" value="0" leadInLength="0/1"  />
               <InterpolatingParam id="7525" interp="linr"  time="-9999999/1" value="0" leadInLength="0/1"  />
              </VectorParam>
              <VectorParam id="7526"  name="scale">
               <InterpolatingParam id="7527" interp="linr"  time="-9999999/1" value="1" leadInLength="0/1"  />
               <InterpolatingParam id="7528" interp="linr"  time="-9999999/1" value="1" leadInLength="0/1"  />
               <InterpolatingParam id="7529" interp="linr"  time="-9999999/1" value="1" leadInLength="0/1"  />
              </VectorParam>
              <VectorParam id="7530"  name="anchor">
               <InterpolatingParam id="7531" interp="linr"  time="0/1" value="0" leadInLength="0/1"  />
               <InterpolatingParam id="7532" interp="linr"  time="0/1" value="0" leadInLength="0/1"  />
               <InterpolatingParam id="7533" interp="linr"  time="0/1" value="0" leadInLength="0/1"  />
              </VectorParam>
             </Transformer>
             <Parameters>
              <VectorParam id="7534"  name="sourceCrop">
               <InterpolatingParam id="7535" interp="linr"  time="0/1" value="0" leadInLength="0/1"  />
               <InterpolatingParam id="7536" interp="linr"  time="0/1" value="0" leadInLength="0/1"  />
               <InterpolatingParam id="7537" interp="linr"  time="0/1" value="0" leadInLength="0/1"  />
               <InterpolatingParam id="7538" interp="linr"  time="0/1" value="0" leadInLength="0/1"  />
              </VectorParam>
              <VectorParam id="7539"  name="geometryCrop">
               <InterpolatingParam id="7540" interp="linr"  time="-9999999/1" value="0" leadInLength="0/1"  />
               <InterpolatingParam id="7541" interp="linr"  time="-9999999/1" value="0" leadInLength="0/1"  />
               <InterpolatingParam id="7542" interp="linr"  time="-9999999/1" value="0" leadInLength="0/1"  />
               <InterpolatingParam id="7543" interp="linr"  time="-9999999/1" value="0" leadInLength="0/1"  />
              </VectorParam>
              <InterpolatingParam id="7544" interp="linr"  time="-9999999/1" value="1" leadInLength="0/1"  name="opacity"/>
              <InterpolatingParam id="7545" interp="linr"  time="0/1" value="0" leadInLength="0/1"  name="cursorOpacity"/>
              <InterpolatingParam id="7546" interp="linr"  time="0/1" value="0" leadInLength="0/1"  name="cursorScale"/>
             </Parameters>
             <Attributes>
              <Attribute id="7547" value="" name="ident"/>
             </Attributes>
             <ExtraData>
              <Entry key="ZoomPanBin">
               <ZoomPanBin id="7548"  >
                <ZoomPanKeyframes>
                 <ZoomPanKeyframe id="7549" timeRangeEnd="-9999999/1" timeRangeDuration="0/1" interpolaterName=""  />
                </ZoomPanKeyframes>
               </ZoomPanBin>
              </Entry>
              <Entry key="CursorEffectBin">
               <CursorEffectBin id="7550"  >
                <CursorEffectKeyframes>
                </CursorEffectKeyframes>
               </CursorEffectBin>
              </Entry>
             </ExtraData>
            </ScreenVMFile>
            <MetaData>
             <entry key="AutoAppliedSmartFocus" val="False"/>
             <entry key="WinSubProjectDisplayName" val=""/>
            </MetaData>
           </UnifiedMedia>
           <UnifiedMedia id="7551"  >
            <AMFile id="7552" start="8311" duration="274" scalar="1/1" mediaStart="13943/1" mediaDuration="274/1" trackNumber="1" src="4" channelNumber="0,1" >
             <Parameters>
              <InterpolatingParam id="7553" interp="linr"  time="0/1" value="1" leadInLength="0/1"  name="volume"/>
              <Parameter id="7554"  name="captions"/>
             </Parameters>
             <Attributes>
              <Attribute id="7555" value="" name="ident"/>
              <Attribute id="7556" value="44100" name="sampleRate"/>
              <Attribute id="7557" value="16" name="bitDepth"/>
              <Attribute id="7558" value="1" name="gain"/>
              <Attribute id="7559" value="0" name="mixToMono"/>
             </Attributes>
            </AMFile>
            <ScreenVMFile id="7560" start="8311" duration="274" scalar="1/1" mediaStart="13943/1" mediaDuration="274/1" trackNumber="0" src="4" >
             <Transformer>
              <VectorParam id="7561"  name="translation">
               <InterpolatingParam id="7562" interp="linr"  time="-9999999/1" value="0" leadInLength="0/1"  />
               <InterpolatingParam id="7563" interp="linr"  time="-9999999/1" value="0" leadInLength="0/1"  />
               <InterpolatingParam id="7564" interp="linr"  time="-9999999/1" value="0" leadInLength="0/1"  />
              </VectorParam>
              <VectorParam id="7565"  name="rotation">
               <InterpolatingParam id="7566" interp="linr"  time="-9999999/1" value="0" leadInLength="0/1"  />
               <InterpolatingParam id="7567" interp="linr"  time="-9999999/1" value="0" leadInLength="0/1"  />
               <InterpolatingParam id="7568" interp="linr"  time="-9999999/1" value="0" leadInLength="0/1"  />
              </VectorParam>
              <VectorParam id="7569"  name="shear">
               <InterpolatingParam id="7570" interp="linr"  time="-9999999/1" value="0" leadInLength="0/1"  />
               <InterpolatingParam id="7571" interp="linr"  time="-9999999/1" value="0" leadInLength="0/1"  />
               <InterpolatingParam id="7572" interp="linr"  time="-9999999/1" value="0" leadInLength="0/1"  />
              </VectorParam>
              <VectorParam id="7573"  name="scale">
               <InterpolatingParam id="7574" interp="linr"  time="-9999999/1" value="1" leadInLength="0/1"  />
               <InterpolatingParam id="7575" interp="linr"  time="-9999999/1" value="1" leadInLength="0/1"  />
               <InterpolatingParam id="7576" interp="linr"  time="-9999999/1" value="1" leadInLength="0/1"  />
              </VectorParam>
              <VectorParam id="7577"  name="anchor">
               <InterpolatingParam id="7578" interp="linr"  time="0/1" value="0" leadInLength="0/1"  />
               <InterpolatingParam id="7579" interp="linr"  time="0/1" value="0" leadInLength="0/1"  />
               <InterpolatingParam id="7580" interp="linr"  time="0/1" value="0" leadInLength="0/1"  />
              </VectorParam>
             </Transformer>
             <Parameters>
              <VectorParam id="7581"  name="sourceCrop">
               <InterpolatingParam id="7582" interp="linr"  time="0/1" value="0" leadInLength="0/1"  />
               <InterpolatingParam id="7583" interp="linr"  time="0/1" value="0" leadInLength="0/1"  />
               <InterpolatingParam id="7584" interp="linr"  time="0/1" value="0" leadInLength="0/1"  />
               <InterpolatingParam id="7585" interp="linr"  time="0/1" value="0" leadInLength="0/1"  />
              </VectorParam>
              <VectorParam id="7586"  name="geometryCrop">
               <InterpolatingParam id="7587" interp="linr"  time="-9999999/1" value="0" leadInLength="0/1"  />
               <InterpolatingParam id="7588" interp="linr"  time="-9999999/1" value="0" leadInLength="0/1"  />
               <InterpolatingParam id="7589" interp="linr"  time="-9999999/1" value="0" leadInLength="0/1"  />
               <InterpolatingParam id="7590" interp="linr"  time="-9999999/1" value="0" leadInLength="0/1"  />
              </VectorParam>
              <InterpolatingParam id="7591" interp="linr"  time="-9999999/1" value="1" leadInLength="0/1"  name="opacity"/>
              <InterpolatingParam id="7592" interp="linr"  time="0/1" value="0" leadInLength="0/1"  name="cursorOpacity"/>
              <InterpolatingParam id="7593" interp="linr"  time="0/1" value="0" leadInLength="0/1"  name="cursorScale"/>
             </Parameters>
             <Attributes>
              <Attribute id="7594" value="" name="ident"/>
             </Attributes>
             <ExtraData>
              <Entry key="ZoomPanBin">
               <ZoomPanBin id="7595"  >
                <ZoomPanKeyframes>
                 <ZoomPanKeyframe id="7596" timeRangeEnd="-9999999/1" timeRangeDuration="0/1" interpolaterName=""  />
                </ZoomPanKeyframes>
               </ZoomPanBin>
              </Entry>
              <Entry key="CursorEffectBin">
               <CursorEffectBin id="7597"  >
                <CursorEffectKeyframes>
                </CursorEffectKeyframes>
               </CursorEffectBin>
              </Entry>
             </ExtraData>
            </ScreenVMFile>
            <MetaData>
             <entry key="AutoAppliedSmartFocus" val="False"/>
             <entry key="WinSubProjectDisplayName" val=""/>
            </MetaData>
           </UnifiedMedia>
           <UnifiedMedia id="7598"  >
            <AMFile id="7599" start="8585" duration="79" scalar="1/1" mediaStart="14230/1" mediaDuration="79/1" trackNumber="1" src="4" channelNumber="0,1" >
             <Parameters>
              <InterpolatingParam id="7600" interp="linr"  time="0/1" value="1" leadInLength="0/1"  name="volume"/>
              <Parameter id="7601"  name="captions"/>
             </Parameters>
             <Attributes>
              <Attribute id="7602" value="" name="ident"/>
              <Attribute id="7603" value="44100" name="sampleRate"/>
              <Attribute id="7604" value="16" name="bitDepth"/>
              <Attribute id="7605" value="1" name="gain"/>
              <Attribute id="7606" value="0" name="mixToMono"/>
             </Attributes>
            </AMFile>
            <ScreenVMFile id="7607" start="8585" duration="79" scalar="1/1" mediaStart="14230/1" mediaDuration="79/1" trackNumber="0" src="4" >
             <Transformer>
              <VectorParam id="7608"  name="translation">
               <InterpolatingParam id="7609" interp="linr"  time="-9999999/1" value="0" leadInLength="0/1"  />
               <InterpolatingParam id="7610" interp="linr"  time="-9999999/1" value="0" leadInLength="0/1"  />
               <InterpolatingParam id="7611" interp="linr"  time="-9999999/1" value="0" leadInLength="0/1"  />
              </VectorParam>
              <VectorParam id="7612"  name="rotation">
               <InterpolatingParam id="7613" interp="linr"  time="-9999999/1" value="0" leadInLength="0/1"  />
               <InterpolatingParam id="7614" interp="linr"  time="-9999999/1" value="0" leadInLength="0/1"  />
               <InterpolatingParam id="7615" interp="linr"  time="-9999999/1" value="0" leadInLength="0/1"  />
              </VectorParam>
              <VectorParam id="7616"  name="shear">
               <InterpolatingParam id="7617" interp="linr"  time="-9999999/1" value="0" leadInLength="0/1"  />
               <InterpolatingParam id="7618" interp="linr"  time="-9999999/1" value="0" leadInLength="0/1"  />
               <InterpolatingParam id="7619" interp="linr"  time="-9999999/1" value="0" leadInLength="0/1"  />
              </VectorParam>
              <VectorParam id="7620"  name="scale">
               <InterpolatingParam id="7621" interp="linr"  time="-9999999/1" value="1" leadInLength="0/1"  />
               <InterpolatingParam id="7622" interp="linr"  time="-9999999/1" value="1" leadInLength="0/1"  />
               <InterpolatingParam id="7623" interp="linr"  time="-9999999/1" value="1" leadInLength="0/1"  />
              </VectorParam>
              <VectorParam id="7624"  name="anchor">
               <InterpolatingParam id="7625" interp="linr"  time="0/1" value="0" leadInLength="0/1"  />
               <InterpolatingParam id="7626" interp="linr"  time="0/1" value="0" leadInLength="0/1"  />
               <InterpolatingParam id="7627" interp="linr"  time="0/1" value="0" leadInLength="0/1"  />
              </VectorParam>
             </Transformer>
             <Parameters>
              <VectorParam id="7628"  name="sourceCrop">
               <InterpolatingParam id="7629" interp="linr"  time="0/1" value="0" leadInLength="0/1"  />
               <InterpolatingParam id="7630" interp="linr"  time="0/1" value="0" leadInLength="0/1"  />
               <InterpolatingParam id="7631" interp="linr"  time="0/1" value="0" leadInLength="0/1"  />
               <InterpolatingParam id="7632" interp="linr"  time="0/1" value="0" leadInLength="0/1"  />
              </VectorParam>
              <VectorParam id="7633"  name="geometryCrop">
               <InterpolatingParam id="7634" interp="linr"  time="-9999999/1" value="0" leadInLength="0/1"  />
               <InterpolatingParam id="7635" interp="linr"  time="-9999999/1" value="0" leadInLength="0/1"  />
               <InterpolatingParam id="7636" interp="linr"  time="-9999999/1" value="0" leadInLength="0/1"  />
               <InterpolatingParam id="7637" interp="linr"  time="-9999999/1" value="0" leadInLength="0/1"  />
              </VectorParam>
              <InterpolatingParam id="7638" interp="linr"  time="-9999999/1" value="1" leadInLength="0/1"  name="opacity"/>
              <InterpolatingParam id="7639" interp="linr"  time="0/1" value="0" leadInLength="0/1"  name="cursorOpacity"/>
              <InterpolatingParam id="7640" interp="linr"  time="0/1" value="0" leadInLength="0/1"  name="cursorScale"/>
             </Parameters>
             <Attributes>
              <Attribute id="7641" value="" name="ident"/>
             </Attributes>
             <ExtraData>
              <Entry key="ZoomPanBin">
               <ZoomPanBin id="7642"  >
                <ZoomPanKeyframes>
                 <ZoomPanKeyframe id="7643" timeRangeEnd="-9999999/1" timeRangeDuration="0/1" interpolaterName=""  />
                </ZoomPanKeyframes>
               </ZoomPanBin>
              </Entry>
              <Entry key="CursorEffectBin">
               <CursorEffectBin id="7644"  >
                <CursorEffectKeyframes>
                </CursorEffectKeyframes>
               </CursorEffectBin>
              </Entry>
             </ExtraData>
            </ScreenVMFile>
            <MetaData>
             <entry key="AutoAppliedSmartFocus" val="False"/>
             <entry key="WinSubProjectDisplayName" val=""/>
            </MetaData>
           </UnifiedMedia>
           <UnifiedMedia id="7645"  >
            <AMFile id="7646" start="8664" duration="304" scalar="1/1" mediaStart="15647/1" mediaDuration="304/1" trackNumber="1" src="4" channelNumber="0,1" >
             <Parameters>
              <InterpolatingParam id="7647" interp="linr"  time="0/1" value="1" leadInLength="0/1"  name="volume"/>
              <Parameter id="7648"  name="captions"/>
             </Parameters>
             <Attributes>
              <Attribute id="7649" value="" name="ident"/>
              <Attribute id="7650" value="44100" name="sampleRate"/>
              <Attribute id="7651" value="16" name="bitDepth"/>
              <Attribute id="7652" value="1" name="gain"/>
              <Attribute id="7653" value="0" name="mixToMono"/>
             </Attributes>
            </AMFile>
            <ScreenVMFile id="7654" start="8664" duration="304" scalar="1/1" mediaStart="15647/1" mediaDuration="304/1" trackNumber="0" src="4" >
             <Transformer>
              <VectorParam id="7655"  name="translation">
               <InterpolatingParam id="7656" interp="linr"  time="-9999999/1" value="0" leadInLength="0/1"  />
               <InterpolatingParam id="7657" interp="linr"  time="-9999999/1" value="0" leadInLength="0/1"  />
               <InterpolatingParam id="7658" interp="linr"  time="-9999999/1" value="0" leadInLength="0/1"  />
              </VectorParam>
              <VectorParam id="7659"  name="rotation">
               <InterpolatingParam id="7660" interp="linr"  time="-9999999/1" value="0" leadInLength="0/1"  />
               <InterpolatingParam id="7661" interp="linr"  time="-9999999/1" value="0" leadInLength="0/1"  />
               <InterpolatingParam id="7662" interp="linr"  time="-9999999/1" value="0" leadInLength="0/1"  />
              </VectorParam>
              <VectorParam id="7663"  name="shear">
               <InterpolatingParam id="7664" interp="linr"  time="-9999999/1" value="0" leadInLength="0/1"  />
               <InterpolatingParam id="7665" interp="linr"  time="-9999999/1" value="0" leadInLength="0/1"  />
               <InterpolatingParam id="7666" interp="linr"  time="-9999999/1" value="0" leadInLength="0/1"  />
              </VectorParam>
              <VectorParam id="7667"  name="scale">
               <InterpolatingParam id="7668" interp="linr"  time="-9999999/1" value="1" leadInLength="0/1"  />
               <InterpolatingParam id="7669" interp="linr"  time="-9999999/1" value="1" leadInLength="0/1"  />
               <InterpolatingParam id="7670" interp="linr"  time="-9999999/1" value="1" leadInLength="0/1"  />
              </VectorParam>
              <VectorParam id="7671"  name="anchor">
               <InterpolatingParam id="7672" interp="linr"  time="0/1" value="0" leadInLength="0/1"  />
               <InterpolatingParam id="7673" interp="linr"  time="0/1" value="0" leadInLength="0/1"  />
               <InterpolatingParam id="7674" interp="linr"  time="0/1" value="0" leadInLength="0/1"  />
              </VectorParam>
             </Transformer>
             <Parameters>
              <VectorParam id="7675"  name="sourceCrop">
               <InterpolatingParam id="7676" interp="linr"  time="0/1" value="0" leadInLength="0/1"  />
               <InterpolatingParam id="7677" interp="linr"  time="0/1" value="0" leadInLength="0/1"  />
               <InterpolatingParam id="7678" interp="linr"  time="0/1" value="0" leadInLength="0/1"  />
               <InterpolatingParam id="7679" interp="linr"  time="0/1" value="0" leadInLength="0/1"  />
              </VectorParam>
              <VectorParam id="7680"  name="geometryCrop">
               <InterpolatingParam id="7681" interp="linr"  time="-9999999/1" value="0" leadInLength="0/1"  />
               <InterpolatingParam id="7682" interp="linr"  time="-9999999/1" value="0" leadInLength="0/1"  />
               <InterpolatingParam id="7683" interp="linr"  time="-9999999/1" value="0" leadInLength="0/1"  />
               <InterpolatingParam id="7684" interp="linr"  time="-9999999/1" value="0" leadInLength="0/1"  />
              </VectorParam>
              <InterpolatingParam id="7685" interp="linr"  time="-9999999/1" value="1" leadInLength="0/1"  name="opacity"/>
              <InterpolatingParam id="7686" interp="linr"  time="0/1" value="0" leadInLength="0/1"  name="cursorOpacity"/>
              <InterpolatingParam id="7687" interp="linr"  time="0/1" value="0" leadInLength="0/1"  name="cursorScale"/>
             </Parameters>
             <Attributes>
              <Attribute id="7688" value="" name="ident"/>
             </Attributes>
             <ExtraData>
              <Entry key="ZoomPanBin">
               <ZoomPanBin id="7689"  >
                <ZoomPanKeyframes>
                 <ZoomPanKeyframe id="7690" timeRangeEnd="-9999999/1" timeRangeDuration="0/1" interpolaterName=""  />
                </ZoomPanKeyframes>
               </ZoomPanBin>
              </Entry>
              <Entry key="CursorEffectBin">
               <CursorEffectBin id="7691"  >
                <CursorEffectKeyframes>
                </CursorEffectKeyframes>
               </CursorEffectBin>
              </Entry>
             </ExtraData>
            </ScreenVMFile>
            <MetaData>
             <entry key="AutoAppliedSmartFocus" val="False"/>
             <entry key="WinSubProjectDisplayName" val=""/>
            </MetaData>
           </UnifiedMedia>
           <UnifiedMedia id="7692"  >
            <AMFile id="7693" start="8968" duration="48" scalar="1/1" mediaStart="15965/1" mediaDuration="48/1" trackNumber="1" src="4" channelNumber="0,1" >
             <Parameters>
              <InterpolatingParam id="7694" interp="linr"  time="0/1" value="1" leadInLength="0/1"  name="volume"/>
              <Parameter id="7695"  name="captions"/>
             </Parameters>
             <Attributes>
              <Attribute id="7696" value="" name="ident"/>
              <Attribute id="7697" value="44100" name="sampleRate"/>
              <Attribute id="7698" value="16" name="bitDepth"/>
              <Attribute id="7699" value="1" name="gain"/>
              <Attribute id="7700" value="0" name="mixToMono"/>
             </Attributes>
            </AMFile>
            <ScreenVMFile id="7701" start="8968" duration="48" scalar="1/1" mediaStart="15965/1" mediaDuration="48/1" trackNumber="0" src="4" >
             <Transformer>
              <VectorParam id="7702"  name="translation">
               <InterpolatingParam id="7703" interp="linr"  time="-9999999/1" value="0" leadInLength="0/1"  />
               <InterpolatingParam id="7704" interp="linr"  time="-9999999/1" value="0" leadInLength="0/1"  />
               <InterpolatingParam id="7705" interp="linr"  time="-9999999/1" value="0" leadInLength="0/1"  />
              </VectorParam>
              <VectorParam id="7706"  name="rotation">
               <InterpolatingParam id="7707" interp="linr"  time="-9999999/1" value="0" leadInLength="0/1"  />
               <InterpolatingParam id="7708" interp="linr"  time="-9999999/1" value="0" leadInLength="0/1"  />
               <InterpolatingParam id="7709" interp="linr"  time="-9999999/1" value="0" leadInLength="0/1"  />
              </VectorParam>
              <VectorParam id="7710"  name="shear">
               <InterpolatingParam id="7711" interp="linr"  time="-9999999/1" value="0" leadInLength="0/1"  />
               <InterpolatingParam id="7712" interp="linr"  time="-9999999/1" value="0" leadInLength="0/1"  />
               <InterpolatingParam id="7713" interp="linr"  time="-9999999/1" value="0" leadInLength="0/1"  />
              </VectorParam>
              <VectorParam id="7714"  name="scale">
               <InterpolatingParam id="7715" interp="linr"  time="-9999999/1" value="1" leadInLength="0/1"  />
               <InterpolatingParam id="7716" interp="linr"  time="-9999999/1" value="1" leadInLength="0/1"  />
               <InterpolatingParam id="7717" interp="linr"  time="-9999999/1" value="1" leadInLength="0/1"  />
              </VectorParam>
              <VectorParam id="7718"  name="anchor">
               <InterpolatingParam id="7719" interp="linr"  time="0/1" value="0" leadInLength="0/1"  />
               <InterpolatingParam id="7720" interp="linr"  time="0/1" value="0" leadInLength="0/1"  />
               <InterpolatingParam id="7721" interp="linr"  time="0/1" value="0" leadInLength="0/1"  />
              </VectorParam>
             </Transformer>
             <Parameters>
              <VectorParam id="7722"  name="sourceCrop">
               <InterpolatingParam id="7723" interp="linr"  time="0/1" value="0" leadInLength="0/1"  />
               <InterpolatingParam id="7724" interp="linr"  time="0/1" value="0" leadInLength="0/1"  />
               <InterpolatingParam id="7725" interp="linr"  time="0/1" value="0" leadInLength="0/1"  />
               <InterpolatingParam id="7726" interp="linr"  time="0/1" value="0" leadInLength="0/1"  />
              </VectorParam>
              <VectorParam id="7727"  name="geometryCrop">
               <InterpolatingParam id="7728" interp="linr"  time="-9999999/1" value="0" leadInLength="0/1"  />
               <InterpolatingParam id="7729" interp="linr"  time="-9999999/1" value="0" leadInLength="0/1"  />
               <InterpolatingParam id="7730" interp="linr"  time="-9999999/1" value="0" leadInLength="0/1"  />
               <InterpolatingParam id="7731" interp="linr"  time="-9999999/1" value="0" leadInLength="0/1"  />
              </VectorParam>
              <InterpolatingParam id="7732" interp="linr"  time="-9999999/1" value="1" leadInLength="0/1"  name="opacity"/>
              <InterpolatingParam id="7733" interp="linr"  time="0/1" value="0" leadInLength="0/1"  name="cursorOpacity"/>
              <InterpolatingParam id="7734" interp="linr"  time="0/1" value="0" leadInLength="0/1"  name="cursorScale"/>
             </Parameters>
             <Attributes>
              <Attribute id="7735" value="" name="ident"/>
             </Attributes>
             <ExtraData>
              <Entry key="ZoomPanBin">
               <ZoomPanBin id="7736"  >
                <ZoomPanKeyframes>
                 <ZoomPanKeyframe id="7737" timeRangeEnd="-9999999/1" timeRangeDuration="0/1" interpolaterName=""  />
                </ZoomPanKeyframes>
               </ZoomPanBin>
              </Entry>
              <Entry key="CursorEffectBin">
               <CursorEffectBin id="7738"  >
                <CursorEffectKeyframes>
                </CursorEffectKeyframes>
               </CursorEffectBin>
              </Entry>
             </ExtraData>
            </ScreenVMFile>
            <MetaData>
             <entry key="AutoAppliedSmartFocus" val="False"/>
             <entry key="WinSubProjectDisplayName" val=""/>
            </MetaData>
           </UnifiedMedia>
           <UnifiedMedia id="7739"  >
            <AMFile id="7740" start="9016" duration="70" scalar="1/1" mediaStart="16022/1" mediaDuration="70/1" trackNumber="1" src="4" channelNumber="0,1" >
             <Parameters>
              <InterpolatingParam id="7741" interp="linr"  time="0/1" value="1" leadInLength="0/1"  name="volume"/>
              <Parameter id="7742"  name="captions"/>
             </Parameters>
             <Attributes>
              <Attribute id="7743" value="" name="ident"/>
              <Attribute id="7744" value="44100" name="sampleRate"/>
              <Attribute id="7745" value="16" name="bitDepth"/>
              <Attribute id="7746" value="1" name="gain"/>
              <Attribute id="7747" value="0" name="mixToMono"/>
             </Attributes>
            </AMFile>
            <ScreenVMFile id="7748" start="9016" duration="70" scalar="1/1" mediaStart="16022/1" mediaDuration="70/1" trackNumber="0" src="4" >
             <Transformer>
              <VectorParam id="7749"  name="translation">
               <InterpolatingParam id="7750" interp="linr"  time="-9999999/1" value="0" leadInLength="0/1"  />
               <InterpolatingParam id="7751" interp="linr"  time="-9999999/1" value="0" leadInLength="0/1"  />
               <InterpolatingParam id="7752" interp="linr"  time="-9999999/1" value="0" leadInLength="0/1"  />
              </VectorParam>
              <VectorParam id="7753"  name="rotation">
               <InterpolatingParam id="7754" interp="linr"  time="-9999999/1" value="0" leadInLength="0/1"  />
               <InterpolatingParam id="7755" interp="linr"  time="-9999999/1" value="0" leadInLength="0/1"  />
               <InterpolatingParam id="7756" interp="linr"  time="-9999999/1" value="0" leadInLength="0/1"  />
              </VectorParam>
              <VectorParam id="7757"  name="shear">
               <InterpolatingParam id="7758" interp="linr"  time="-9999999/1" value="0" leadInLength="0/1"  />
               <InterpolatingParam id="7759" interp="linr"  time="-9999999/1" value="0" leadInLength="0/1"  />
               <InterpolatingParam id="7760" interp="linr"  time="-9999999/1" value="0" leadInLength="0/1"  />
              </VectorParam>
              <VectorParam id="7761"  name="scale">
               <InterpolatingParam id="7762" interp="linr"  time="-9999999/1" value="1" leadInLength="0/1"  />
               <InterpolatingParam id="7763" interp="linr"  time="-9999999/1" value="1" leadInLength="0/1"  />
               <InterpolatingParam id="7764" interp="linr"  time="-9999999/1" value="1" leadInLength="0/1"  />
              </VectorParam>
              <VectorParam id="7765"  name="anchor">
               <InterpolatingParam id="7766" interp="linr"  time="0/1" value="0" leadInLength="0/1"  />
               <InterpolatingParam id="7767" interp="linr"  time="0/1" value="0" leadInLength="0/1"  />
               <InterpolatingParam id="7768" interp="linr"  time="0/1" value="0" leadInLength="0/1"  />
              </VectorParam>
             </Transformer>
             <Parameters>
              <VectorParam id="7769"  name="sourceCrop">
               <InterpolatingParam id="7770" interp="linr"  time="0/1" value="0" leadInLength="0/1"  />
               <InterpolatingParam id="7771" interp="linr"  time="0/1" value="0" leadInLength="0/1"  />
               <InterpolatingParam id="7772" interp="linr"  time="0/1" value="0" leadInLength="0/1"  />
               <InterpolatingParam id="7773" interp="linr"  time="0/1" value="0" leadInLength="0/1"  />
              </VectorParam>
              <VectorParam id="7774"  name="geometryCrop">
               <InterpolatingParam id="7775" interp="linr"  time="-9999999/1" value="0" leadInLength="0/1"  />
               <InterpolatingParam id="7776" interp="linr"  time="-9999999/1" value="0" leadInLength="0/1"  />
               <InterpolatingParam id="7777" interp="linr"  time="-9999999/1" value="0" leadInLength="0/1"  />
               <InterpolatingParam id="7778" interp="linr"  time="-9999999/1" value="0" leadInLength="0/1"  />
              </VectorParam>
              <InterpolatingParam id="7779" interp="linr"  time="-9999999/1" value="1" leadInLength="0/1"  name="opacity"/>
              <InterpolatingParam id="7780" interp="linr"  time="0/1" value="0" leadInLength="0/1"  name="cursorOpacity"/>
              <InterpolatingParam id="7781" interp="linr"  time="0/1" value="0" leadInLength="0/1"  name="cursorScale"/>
             </Parameters>
             <Attributes>
              <Attribute id="7782" value="" name="ident"/>
             </Attributes>
             <ExtraData>
              <Entry key="ZoomPanBin">
               <ZoomPanBin id="7783"  >
                <ZoomPanKeyframes>
                 <ZoomPanKeyframe id="7784" timeRangeEnd="-9999999/1" timeRangeDuration="0/1" interpolaterName=""  />
                </ZoomPanKeyframes>
               </ZoomPanBin>
              </Entry>
              <Entry key="CursorEffectBin">
               <CursorEffectBin id="7785"  >
                <CursorEffectKeyframes>
                </CursorEffectKeyframes>
               </CursorEffectBin>
              </Entry>
             </ExtraData>
            </ScreenVMFile>
            <MetaData>
             <entry key="AutoAppliedSmartFocus" val="False"/>
             <entry key="WinSubProjectDisplayName" val=""/>
            </MetaData>
           </UnifiedMedia>
           <UnifiedMedia id="7786"  >
            <AMFile id="7787" start="9086" duration="72" scalar="1/1" mediaStart="16103/1" mediaDuration="72/1" trackNumber="1" src="4" channelNumber="0,1" >
             <Parameters>
              <InterpolatingParam id="7788" interp="linr"  time="0/1" value="1" leadInLength="0/1"  name="volume"/>
              <Parameter id="7789"  name="captions"/>
             </Parameters>
             <Attributes>
              <Attribute id="7790" value="" name="ident"/>
              <Attribute id="7791" value="44100" name="sampleRate"/>
              <Attribute id="7792" value="16" name="bitDepth"/>
              <Attribute id="7793" value="1" name="gain"/>
              <Attribute id="7794" value="0" name="mixToMono"/>
             </Attributes>
            </AMFile>
            <ScreenVMFile id="7795" start="9086" duration="72" scalar="1/1" mediaStart="16103/1" mediaDuration="72/1" trackNumber="0" src="4" >
             <Transformer>
              <VectorParam id="7796"  name="translation">
               <InterpolatingParam id="7797" interp="linr"  time="-9999999/1" value="0" leadInLength="0/1"  />
               <InterpolatingParam id="7798" interp="linr"  time="-9999999/1" value="0" leadInLength="0/1"  />
               <InterpolatingParam id="7799" interp="linr"  time="-9999999/1" value="0" leadInLength="0/1"  />
              </VectorParam>
              <VectorParam id="7800"  name="rotation">
               <InterpolatingParam id="7801" interp="linr"  time="-9999999/1" value="0" leadInLength="0/1"  />
               <InterpolatingParam id="7802" interp="linr"  time="-9999999/1" value="0" leadInLength="0/1"  />
               <InterpolatingParam id="7803" interp="linr"  time="-9999999/1" value="0" leadInLength="0/1"  />
              </VectorParam>
              <VectorParam id="7804"  name="shear">
               <InterpolatingParam id="7805" interp="linr"  time="-9999999/1" value="0" leadInLength="0/1"  />
               <InterpolatingParam id="7806" interp="linr"  time="-9999999/1" value="0" leadInLength="0/1"  />
               <InterpolatingParam id="7807" interp="linr"  time="-9999999/1" value="0" leadInLength="0/1"  />
              </VectorParam>
              <VectorParam id="7808"  name="scale">
               <InterpolatingParam id="7809" interp="linr"  time="-9999999/1" value="1" leadInLength="0/1"  />
               <InterpolatingParam id="7810" interp="linr"  time="-9999999/1" value="1" leadInLength="0/1"  />
               <InterpolatingParam id="7811" interp="linr"  time="-9999999/1" value="1" leadInLength="0/1"  />
              </VectorParam>
              <VectorParam id="7812"  name="anchor">
               <InterpolatingParam id="7813" interp="linr"  time="0/1" value="0" leadInLength="0/1"  />
               <InterpolatingParam id="7814" interp="linr"  time="0/1" value="0" leadInLength="0/1"  />
               <InterpolatingParam id="7815" interp="linr"  time="0/1" value="0" leadInLength="0/1"  />
              </VectorParam>
             </Transformer>
             <Parameters>
              <VectorParam id="7816"  name="sourceCrop">
               <InterpolatingParam id="7817" interp="linr"  time="0/1" value="0" leadInLength="0/1"  />
               <InterpolatingParam id="7818" interp="linr"  time="0/1" value="0" leadInLength="0/1"  />
               <InterpolatingParam id="7819" interp="linr"  time="0/1" value="0" leadInLength="0/1"  />
               <InterpolatingParam id="7820" interp="linr"  time="0/1" value="0" leadInLength="0/1"  />
              </VectorParam>
              <VectorParam id="7821"  name="geometryCrop">
               <InterpolatingParam id="7822" interp="linr"  time="-9999999/1" value="0" leadInLength="0/1"  />
               <InterpolatingParam id="7823" interp="linr"  time="-9999999/1" value="0" leadInLength="0/1"  />
               <InterpolatingParam id="7824" interp="linr"  time="-9999999/1" value="0" leadInLength="0/1"  />
               <InterpolatingParam id="7825" interp="linr"  time="-9999999/1" value="0" leadInLength="0/1"  />
              </VectorParam>
              <InterpolatingParam id="7826" interp="linr"  time="-9999999/1" value="1" leadInLength="0/1"  name="opacity"/>
              <InterpolatingParam id="7827" interp="linr"  time="0/1" value="0" leadInLength="0/1"  name="cursorOpacity"/>
              <InterpolatingParam id="7828" interp="linr"  time="0/1" value="0" leadInLength="0/1"  name="cursorScale"/>
             </Parameters>
             <Attributes>
              <Attribute id="7829" value="" name="ident"/>
             </Attributes>
             <ExtraData>
              <Entry key="ZoomPanBin">
               <ZoomPanBin id="7830"  >
                <ZoomPanKeyframes>
                 <ZoomPanKeyframe id="7831" timeRangeEnd="-9999999/1" timeRangeDuration="0/1" interpolaterName=""  />
                </ZoomPanKeyframes>
               </ZoomPanBin>
              </Entry>
              <Entry key="CursorEffectBin">
               <CursorEffectBin id="7832"  >
                <CursorEffectKeyframes>
                </CursorEffectKeyframes>
               </CursorEffectBin>
              </Entry>
             </ExtraData>
            </ScreenVMFile>
            <MetaData>
             <entry key="AutoAppliedSmartFocus" val="False"/>
             <entry key="WinSubProjectDisplayName" val=""/>
            </MetaData>
           </UnifiedMedia>
           <UnifiedMedia id="7833"  >
            <AMFile id="7834" start="9158" duration="330" scalar="1/1" mediaStart="16184/1" mediaDuration="330/1" trackNumber="1" src="4" channelNumber="0,1" >
             <Parameters>
              <InterpolatingParam id="7835" interp="linr"  time="0/1" value="1" leadInLength="0/1"  name="volume"/>
              <Parameter id="7836"  name="captions"/>
             </Parameters>
             <Attributes>
              <Attribute id="7837" value="" name="ident"/>
              <Attribute id="7838" value="44100" name="sampleRate"/>
              <Attribute id="7839" value="16" name="bitDepth"/>
              <Attribute id="7840" value="1" name="gain"/>
              <Attribute id="7841" value="0" name="mixToMono"/>
             </Attributes>
            </AMFile>
            <ScreenVMFile id="7842" start="9158" duration="330" scalar="1/1" mediaStart="16184/1" mediaDuration="330/1" trackNumber="0" src="4" >
             <Transformer>
              <VectorParam id="7843"  name="translation">
               <InterpolatingParam id="7844" interp="linr"  time="-9999999/1" value="0" leadInLength="0/1"  />
               <InterpolatingParam id="7845" interp="linr"  time="-9999999/1" value="0" leadInLength="0/1"  />
               <InterpolatingParam id="7846" interp="linr"  time="-9999999/1" value="0" leadInLength="0/1"  />
              </VectorParam>
              <VectorParam id="7847"  name="rotation">
               <InterpolatingParam id="7848" interp="linr"  time="-9999999/1" value="0" leadInLength="0/1"  />
               <InterpolatingParam id="7849" interp="linr"  time="-9999999/1" value="0" leadInLength="0/1"  />
               <InterpolatingParam id="7850" interp="linr"  time="-9999999/1" value="0" leadInLength="0/1"  />
              </VectorParam>
              <VectorParam id="7851"  name="shear">
               <InterpolatingParam id="7852" interp="linr"  time="-9999999/1" value="0" leadInLength="0/1"  />
               <InterpolatingParam id="7853" interp="linr"  time="-9999999/1" value="0" leadInLength="0/1"  />
               <InterpolatingParam id="7854" interp="linr"  time="-9999999/1" value="0" leadInLength="0/1"  />
              </VectorParam>
              <VectorParam id="7855"  name="scale">
               <InterpolatingParam id="7856" interp="linr"  time="-9999999/1" value="1" leadInLength="0/1"  />
               <InterpolatingParam id="7857" interp="linr"  time="-9999999/1" value="1" leadInLength="0/1"  />
               <InterpolatingParam id="7858" interp="linr"  time="-9999999/1" value="1" leadInLength="0/1"  />
              </VectorParam>
              <VectorParam id="7859"  name="anchor">
               <InterpolatingParam id="7860" interp="linr"  time="0/1" value="0" leadInLength="0/1"  />
               <InterpolatingParam id="7861" interp="linr"  time="0/1" value="0" leadInLength="0/1"  />
               <InterpolatingParam id="7862" interp="linr"  time="0/1" value="0" leadInLength="0/1"  />
              </VectorParam>
             </Transformer>
             <Parameters>
              <VectorParam id="7863"  name="sourceCrop">
               <InterpolatingParam id="7864" interp="linr"  time="0/1" value="0" leadInLength="0/1"  />
               <InterpolatingParam id="7865" interp="linr"  time="0/1" value="0" leadInLength="0/1"  />
               <InterpolatingParam id="7866" interp="linr"  time="0/1" value="0" leadInLength="0/1"  />
               <InterpolatingParam id="7867" interp="linr"  time="0/1" value="0" leadInLength="0/1"  />
              </VectorParam>
              <VectorParam id="7868"  name="geometryCrop">
               <InterpolatingParam id="7869" interp="linr"  time="-9999999/1" value="0" leadInLength="0/1"  />
               <InterpolatingParam id="7870" interp="linr"  time="-9999999/1" value="0" leadInLength="0/1"  />
               <InterpolatingParam id="7871" interp="linr"  time="-9999999/1" value="0" leadInLength="0/1"  />
               <InterpolatingParam id="7872" interp="linr"  time="-9999999/1" value="0" leadInLength="0/1"  />
              </VectorParam>
              <InterpolatingParam id="7873" interp="linr"  time="-9999999/1" value="1" leadInLength="0/1"  name="opacity"/>
              <InterpolatingParam id="7874" interp="linr"  time="0/1" value="0" leadInLength="0/1"  name="cursorOpacity"/>
              <InterpolatingParam id="7875" interp="linr"  time="0/1" value="0" leadInLength="0/1"  name="cursorScale"/>
             </Parameters>
             <Attributes>
              <Attribute id="7876" value="" name="ident"/>
             </Attributes>
             <ExtraData>
              <Entry key="ZoomPanBin">
               <ZoomPanBin id="7877"  >
                <ZoomPanKeyframes>
                 <ZoomPanKeyframe id="7878" timeRangeEnd="-9999999/1" timeRangeDuration="0/1" interpolaterName=""  />
                </ZoomPanKeyframes>
               </ZoomPanBin>
              </Entry>
              <Entry key="CursorEffectBin">
               <CursorEffectBin id="7879"  >
                <CursorEffectKeyframes>
                </CursorEffectKeyframes>
               </CursorEffectBin>
              </Entry>
             </ExtraData>
            </ScreenVMFile>
            <MetaData>
             <entry key="AutoAppliedSmartFocus" val="False"/>
             <entry key="WinSubProjectDisplayName" val=""/>
            </MetaData>
           </UnifiedMedia>
           <UnifiedMedia id="7880"  >
            <AMFile id="7881" start="9488" duration="83" scalar="1/1" mediaStart="16525/1" mediaDuration="83/1" trackNumber="1" src="4" channelNumber="0,1" >
             <Parameters>
              <InterpolatingParam id="7882" interp="linr"  time="0/1" value="1" leadInLength="0/1"  name="volume"/>
              <Parameter id="7883"  name="captions"/>
             </Parameters>
             <Attributes>
              <Attribute id="7884" value="" name="ident"/>
              <Attribute id="7885" value="44100" name="sampleRate"/>
              <Attribute id="7886" value="16" name="bitDepth"/>
              <Attribute id="7887" value="1" name="gain"/>
              <Attribute id="7888" value="0" name="mixToMono"/>
             </Attributes>
            </AMFile>
            <ScreenVMFile id="7889" start="9488" duration="83" scalar="1/1" mediaStart="16525/1" mediaDuration="83/1" trackNumber="0" src="4" >
             <Transformer>
              <VectorParam id="7890"  name="translation">
               <InterpolatingParam id="7891" interp="linr"  time="-9999999/1" value="0" leadInLength="0/1"  />
               <InterpolatingParam id="7892" interp="linr"  time="-9999999/1" value="0" leadInLength="0/1"  />
               <InterpolatingParam id="7893" interp="linr"  time="-9999999/1" value="0" leadInLength="0/1"  />
              </VectorParam>
              <VectorParam id="7894"  name="rotation">
               <InterpolatingParam id="7895" interp="linr"  time="-9999999/1" value="0" leadInLength="0/1"  />
               <InterpolatingParam id="7896" interp="linr"  time="-9999999/1" value="0" leadInLength="0/1"  />
               <InterpolatingParam id="7897" interp="linr"  time="-9999999/1" value="0" leadInLength="0/1"  />
              </VectorParam>
              <VectorParam id="7898"  name="shear">
               <InterpolatingParam id="7899" interp="linr"  time="-9999999/1" value="0" leadInLength="0/1"  />
               <InterpolatingParam id="7900" interp="linr"  time="-9999999/1" value="0" leadInLength="0/1"  />
               <InterpolatingParam id="7901" interp="linr"  time="-9999999/1" value="0" leadInLength="0/1"  />
              </VectorParam>
              <VectorParam id="7902"  name="scale">
               <InterpolatingParam id="7903" interp="linr"  time="-9999999/1" value="1" leadInLength="0/1"  />
               <InterpolatingParam id="7904" interp="linr"  time="-9999999/1" value="1" leadInLength="0/1"  />
               <InterpolatingParam id="7905" interp="linr"  time="-9999999/1" value="1" leadInLength="0/1"  />
              </VectorParam>
              <VectorParam id="7906"  name="anchor">
               <InterpolatingParam id="7907" interp="linr"  time="0/1" value="0" leadInLength="0/1"  />
               <InterpolatingParam id="7908" interp="linr"  time="0/1" value="0" leadInLength="0/1"  />
               <InterpolatingParam id="7909" interp="linr"  time="0/1" value="0" leadInLength="0/1"  />
              </VectorParam>
             </Transformer>
             <Parameters>
              <VectorParam id="7910"  name="sourceCrop">
               <InterpolatingParam id="7911" interp="linr"  time="0/1" value="0" leadInLength="0/1"  />
               <InterpolatingParam id="7912" interp="linr"  time="0/1" value="0" leadInLength="0/1"  />
               <InterpolatingParam id="7913" interp="linr"  time="0/1" value="0" leadInLength="0/1"  />
               <InterpolatingParam id="7914" interp="linr"  time="0/1" value="0" leadInLength="0/1"  />
              </VectorParam>
              <VectorParam id="7915"  name="geometryCrop">
               <InterpolatingParam id="7916" interp="linr"  time="-9999999/1" value="0" leadInLength="0/1"  />
               <InterpolatingParam id="7917" interp="linr"  time="-9999999/1" value="0" leadInLength="0/1"  />
               <InterpolatingParam id="7918" interp="linr"  time="-9999999/1" value="0" leadInLength="0/1"  />
               <InterpolatingParam id="7919" interp="linr"  time="-9999999/1" value="0" leadInLength="0/1"  />
              </VectorParam>
              <InterpolatingParam id="7920" interp="linr"  time="-9999999/1" value="1" leadInLength="0/1"  name="opacity"/>
              <InterpolatingParam id="7921" interp="linr"  time="0/1" value="0" leadInLength="0/1"  name="cursorOpacity"/>
              <InterpolatingParam id="7922" interp="linr"  time="0/1" value="0" leadInLength="0/1"  name="cursorScale"/>
             </Parameters>
             <Attributes>
              <Attribute id="7923" value="" name="ident"/>
             </Attributes>
             <ExtraData>
              <Entry key="ZoomPanBin">
               <ZoomPanBin id="7924"  >
                <ZoomPanKeyframes>
                 <ZoomPanKeyframe id="7925" timeRangeEnd="-9999999/1" timeRangeDuration="0/1" interpolaterName=""  />
                </ZoomPanKeyframes>
               </ZoomPanBin>
              </Entry>
              <Entry key="CursorEffectBin">
               <CursorEffectBin id="7926"  >
                <CursorEffectKeyframes>
                </CursorEffectKeyframes>
               </CursorEffectBin>
              </Entry>
             </ExtraData>
            </ScreenVMFile>
            <MetaData>
             <entry key="AutoAppliedSmartFocus" val="False"/>
             <entry key="WinSubProjectDisplayName" val=""/>
            </MetaData>
           </UnifiedMedia>
           <UnifiedMedia id="7927"  >
            <AMFile id="7928" start="9571" duration="72" scalar="1/1" mediaStart="16622/1" mediaDuration="72/1" trackNumber="1" src="4" channelNumber="0,1" >
             <Parameters>
              <InterpolatingParam id="7929" interp="linr"  time="0/1" value="1" leadInLength="0/1"  name="volume"/>
              <Parameter id="7930"  name="captions"/>
             </Parameters>
             <Attributes>
              <Attribute id="7931" value="" name="ident"/>
              <Attribute id="7932" value="44100" name="sampleRate"/>
              <Attribute id="7933" value="16" name="bitDepth"/>
              <Attribute id="7934" value="1" name="gain"/>
              <Attribute id="7935" value="0" name="mixToMono"/>
             </Attributes>
            </AMFile>
            <ScreenVMFile id="7936" start="9571" duration="72" scalar="1/1" mediaStart="16622/1" mediaDuration="72/1" trackNumber="0" src="4" >
             <Transformer>
              <VectorParam id="7937"  name="translation">
               <InterpolatingParam id="7938" interp="linr"  time="-9999999/1" value="0" leadInLength="0/1"  />
               <InterpolatingParam id="7939" interp="linr"  time="-9999999/1" value="0" leadInLength="0/1"  />
               <InterpolatingParam id="7940" interp="linr"  time="-9999999/1" value="0" leadInLength="0/1"  />
              </VectorParam>
              <VectorParam id="7941"  name="rotation">
               <InterpolatingParam id="7942" interp="linr"  time="-9999999/1" value="0" leadInLength="0/1"  />
               <InterpolatingParam id="7943" interp="linr"  time="-9999999/1" value="0" leadInLength="0/1"  />
               <InterpolatingParam id="7944" interp="linr"  time="-9999999/1" value="0" leadInLength="0/1"  />
              </VectorParam>
              <VectorParam id="7945"  name="shear">
               <InterpolatingParam id="7946" interp="linr"  time="-9999999/1" value="0" leadInLength="0/1"  />
               <InterpolatingParam id="7947" interp="linr"  time="-9999999/1" value="0" leadInLength="0/1"  />
               <InterpolatingParam id="7948" interp="linr"  time="-9999999/1" value="0" leadInLength="0/1"  />
              </VectorParam>
              <VectorParam id="7949"  name="scale">
               <InterpolatingParam id="7950" interp="linr"  time="-9999999/1" value="1" leadInLength="0/1"  />
               <InterpolatingParam id="7951" interp="linr"  time="-9999999/1" value="1" leadInLength="0/1"  />
               <InterpolatingParam id="7952" interp="linr"  time="-9999999/1" value="1" leadInLength="0/1"  />
              </VectorParam>
              <VectorParam id="7953"  name="anchor">
               <InterpolatingParam id="7954" interp="linr"  time="0/1" value="0" leadInLength="0/1"  />
               <InterpolatingParam id="7955" interp="linr"  time="0/1" value="0" leadInLength="0/1"  />
               <InterpolatingParam id="7956" interp="linr"  time="0/1" value="0" leadInLength="0/1"  />
              </VectorParam>
             </Transformer>
             <Parameters>
              <VectorParam id="7957"  name="sourceCrop">
               <InterpolatingParam id="7958" interp="linr"  time="0/1" value="0" leadInLength="0/1"  />
               <InterpolatingParam id="7959" interp="linr"  time="0/1" value="0" leadInLength="0/1"  />
               <InterpolatingParam id="7960" interp="linr"  time="0/1" value="0" leadInLength="0/1"  />
               <InterpolatingParam id="7961" interp="linr"  time="0/1" value="0" leadInLength="0/1"  />
              </VectorParam>
              <VectorParam id="7962"  name="geometryCrop">
               <InterpolatingParam id="7963" interp="linr"  time="-9999999/1" value="0" leadInLength="0/1"  />
               <InterpolatingParam id="7964" interp="linr"  time="-9999999/1" value="0" leadInLength="0/1"  />
               <InterpolatingParam id="7965" interp="linr"  time="-9999999/1" value="0" leadInLength="0/1"  />
               <InterpolatingParam id="7966" interp="linr"  time="-9999999/1" value="0" leadInLength="0/1"  />
              </VectorParam>
              <InterpolatingParam id="7967" interp="linr"  time="-9999999/1" value="1" leadInLength="0/1"  name="opacity"/>
              <InterpolatingParam id="7968" interp="linr"  time="0/1" value="0" leadInLength="0/1"  name="cursorOpacity"/>
              <InterpolatingParam id="7969" interp="linr"  time="0/1" value="0" leadInLength="0/1"  name="cursorScale"/>
             </Parameters>
             <Attributes>
              <Attribute id="7970" value="" name="ident"/>
             </Attributes>
             <ExtraData>
              <Entry key="ZoomPanBin">
               <ZoomPanBin id="7971"  >
                <ZoomPanKeyframes>
                 <ZoomPanKeyframe id="7972" timeRangeEnd="-9999999/1" timeRangeDuration="0/1" interpolaterName=""  />
                </ZoomPanKeyframes>
               </ZoomPanBin>
              </Entry>
              <Entry key="CursorEffectBin">
               <CursorEffectBin id="7973"  >
                <CursorEffectKeyframes>
                </CursorEffectKeyframes>
               </CursorEffectBin>
              </Entry>
             </ExtraData>
            </ScreenVMFile>
            <MetaData>
             <entry key="AutoAppliedSmartFocus" val="False"/>
             <entry key="WinSubProjectDisplayName" val=""/>
            </MetaData>
           </UnifiedMedia>
           <UnifiedMedia id="7974"  >
            <AMFile id="7975" start="9643" duration="41" scalar="1/1" mediaStart="16702/1" mediaDuration="41/1" trackNumber="1" src="4" channelNumber="0,1" >
             <Parameters>
              <InterpolatingParam id="7976" interp="linr"  time="0/1" value="1" leadInLength="0/1"  name="volume"/>
              <Parameter id="7977"  name="captions"/>
             </Parameters>
             <Attributes>
              <Attribute id="7978" value="" name="ident"/>
              <Attribute id="7979" value="44100" name="sampleRate"/>
              <Attribute id="7980" value="16" name="bitDepth"/>
              <Attribute id="7981" value="1" name="gain"/>
              <Attribute id="7982" value="0" name="mixToMono"/>
             </Attributes>
            </AMFile>
            <ScreenVMFile id="7983" start="9643" duration="41" scalar="1/1" mediaStart="16702/1" mediaDuration="41/1" trackNumber="0" src="4" >
             <Transformer>
              <VectorParam id="7984"  name="translation">
               <InterpolatingParam id="7985" interp="linr"  time="-9999999/1" value="0" leadInLength="0/1"  />
               <InterpolatingParam id="7986" interp="linr"  time="-9999999/1" value="0" leadInLength="0/1"  />
               <InterpolatingParam id="7987" interp="linr"  time="-9999999/1" value="0" leadInLength="0/1"  />
              </VectorParam>
              <VectorParam id="7988"  name="rotation">
               <InterpolatingParam id="7989" interp="linr"  time="-9999999/1" value="0" leadInLength="0/1"  />
               <InterpolatingParam id="7990" interp="linr"  time="-9999999/1" value="0" leadInLength="0/1"  />
               <InterpolatingParam id="7991" interp="linr"  time="-9999999/1" value="0" leadInLength="0/1"  />
              </VectorParam>
              <VectorParam id="7992"  name="shear">
               <InterpolatingParam id="7993" interp="linr"  time="-9999999/1" value="0" leadInLength="0/1"  />
               <InterpolatingParam id="7994" interp="linr"  time="-9999999/1" value="0" leadInLength="0/1"  />
               <InterpolatingParam id="7995" interp="linr"  time="-9999999/1" value="0" leadInLength="0/1"  />
              </VectorParam>
              <VectorParam id="7996"  name="scale">
               <InterpolatingParam id="7997" interp="linr"  time="-9999999/1" value="1" leadInLength="0/1"  />
               <InterpolatingParam id="7998" interp="linr"  time="-9999999/1" value="1" leadInLength="0/1"  />
               <InterpolatingParam id="7999" interp="linr"  time="-9999999/1" value="1" leadInLength="0/1"  />
              </VectorParam>
              <VectorParam id="8000"  name="anchor">
               <InterpolatingParam id="8001" interp="linr"  time="0/1" value="0" leadInLength="0/1"  />
               <InterpolatingParam id="8002" interp="linr"  time="0/1" value="0" leadInLength="0/1"  />
               <InterpolatingParam id="8003" interp="linr"  time="0/1" value="0" leadInLength="0/1"  />
              </VectorParam>
             </Transformer>
             <Parameters>
              <VectorParam id="8004"  name="sourceCrop">
               <InterpolatingParam id="8005" interp="linr"  time="0/1" value="0" leadInLength="0/1"  />
               <InterpolatingParam id="8006" interp="linr"  time="0/1" value="0" leadInLength="0/1"  />
               <InterpolatingParam id="8007" interp="linr"  time="0/1" value="0" leadInLength="0/1"  />
               <InterpolatingParam id="8008" interp="linr"  time="0/1" value="0" leadInLength="0/1"  />
              </VectorParam>
              <VectorParam id="8009"  name="geometryCrop">
               <InterpolatingParam id="8010" interp="linr"  time="-9999999/1" value="0" leadInLength="0/1"  />
               <InterpolatingParam id="8011" interp="linr"  time="-9999999/1" value="0" leadInLength="0/1"  />
               <InterpolatingParam id="8012" interp="linr"  time="-9999999/1" value="0" leadInLength="0/1"  />
               <InterpolatingParam id="8013" interp="linr"  time="-9999999/1" value="0" leadInLength="0/1"  />
              </VectorParam>
              <InterpolatingParam id="8014" interp="linr"  time="-9999999/1" value="1" leadInLength="0/1"  name="opacity"/>
              <InterpolatingParam id="8015" interp="linr"  time="0/1" value="0" leadInLength="0/1"  name="cursorOpacity"/>
              <InterpolatingParam id="8016" interp="linr"  time="0/1" value="0" leadInLength="0/1"  name="cursorScale"/>
             </Parameters>
             <Attributes>
              <Attribute id="8017" value="" name="ident"/>
             </Attributes>
             <ExtraData>
              <Entry key="ZoomPanBin">
               <ZoomPanBin id="8018"  >
                <ZoomPanKeyframes>
                 <ZoomPanKeyframe id="8019" timeRangeEnd="-9999999/1" timeRangeDuration="0/1" interpolaterName=""  />
                </ZoomPanKeyframes>
               </ZoomPanBin>
              </Entry>
              <Entry key="CursorEffectBin">
               <CursorEffectBin id="8020"  >
                <CursorEffectKeyframes>
                </CursorEffectKeyframes>
               </CursorEffectBin>
              </Entry>
             </ExtraData>
            </ScreenVMFile>
            <MetaData>
             <entry key="AutoAppliedSmartFocus" val="False"/>
             <entry key="WinSubProjectDisplayName" val=""/>
            </MetaData>
           </UnifiedMedia>
           <UnifiedMedia id="8021"  >
            <AMFile id="8022" start="9684" duration="65" scalar="1/1" mediaStart="16750/1" mediaDuration="65/1" trackNumber="1" src="4" channelNumber="0,1" >
             <Parameters>
              <InterpolatingParam id="8023" interp="linr"  time="0/1" value="1" leadInLength="0/1"  name="volume"/>
              <Parameter id="8024"  name="captions"/>
             </Parameters>
             <Attributes>
              <Attribute id="8025" value="" name="ident"/>
              <Attribute id="8026" value="44100" name="sampleRate"/>
              <Attribute id="8027" value="16" name="bitDepth"/>
              <Attribute id="8028" value="1" name="gain"/>
              <Attribute id="8029" value="0" name="mixToMono"/>
             </Attributes>
            </AMFile>
            <ScreenVMFile id="8030" start="9684" duration="65" scalar="1/1" mediaStart="16750/1" mediaDuration="65/1" trackNumber="0" src="4" >
             <Transformer>
              <VectorParam id="8031"  name="translation">
               <InterpolatingParam id="8032" interp="linr"  time="-9999999/1" value="0" leadInLength="0/1"  />
               <InterpolatingParam id="8033" interp="linr"  time="-9999999/1" value="0" leadInLength="0/1"  />
               <InterpolatingParam id="8034" interp="linr"  time="-9999999/1" value="0" leadInLength="0/1"  />
              </VectorParam>
              <VectorParam id="8035"  name="rotation">
               <InterpolatingParam id="8036" interp="linr"  time="-9999999/1" value="0" leadInLength="0/1"  />
               <InterpolatingParam id="8037" interp="linr"  time="-9999999/1" value="0" leadInLength="0/1"  />
               <InterpolatingParam id="8038" interp="linr"  time="-9999999/1" value="0" leadInLength="0/1"  />
              </VectorParam>
              <VectorParam id="8039"  name="shear">
               <InterpolatingParam id="8040" interp="linr"  time="-9999999/1" value="0" leadInLength="0/1"  />
               <InterpolatingParam id="8041" interp="linr"  time="-9999999/1" value="0" leadInLength="0/1"  />
               <InterpolatingParam id="8042" interp="linr"  time="-9999999/1" value="0" leadInLength="0/1"  />
              </VectorParam>
              <VectorParam id="8043"  name="scale">
               <InterpolatingParam id="8044" interp="linr"  time="-9999999/1" value="1" leadInLength="0/1"  />
               <InterpolatingParam id="8045" interp="linr"  time="-9999999/1" value="1" leadInLength="0/1"  />
               <InterpolatingParam id="8046" interp="linr"  time="-9999999/1" value="1" leadInLength="0/1"  />
              </VectorParam>
              <VectorParam id="8047"  name="anchor">
               <InterpolatingParam id="8048" interp="linr"  time="0/1" value="0" leadInLength="0/1"  />
               <InterpolatingParam id="8049" interp="linr"  time="0/1" value="0" leadInLength="0/1"  />
               <InterpolatingParam id="8050" interp="linr"  time="0/1" value="0" leadInLength="0/1"  />
              </VectorParam>
             </Transformer>
             <Parameters>
              <VectorParam id="8051"  name="sourceCrop">
               <InterpolatingParam id="8052" interp="linr"  time="0/1" value="0" leadInLength="0/1"  />
               <InterpolatingParam id="8053" interp="linr"  time="0/1" value="0" leadInLength="0/1"  />
               <InterpolatingParam id="8054" interp="linr"  time="0/1" value="0" leadInLength="0/1"  />
               <InterpolatingParam id="8055" interp="linr"  time="0/1" value="0" leadInLength="0/1"  />
              </VectorParam>
              <VectorParam id="8056"  name="geometryCrop">
               <InterpolatingParam id="8057" interp="linr"  time="-9999999/1" value="0" leadInLength="0/1"  />
               <InterpolatingParam id="8058" interp="linr"  time="-9999999/1" value="0" leadInLength="0/1"  />
               <InterpolatingParam id="8059" interp="linr"  time="-9999999/1" value="0" leadInLength="0/1"  />
               <InterpolatingParam id="8060" interp="linr"  time="-9999999/1" value="0" leadInLength="0/1"  />
              </VectorParam>
              <InterpolatingParam id="8061" interp="linr"  time="-9999999/1" value="1" leadInLength="0/1"  name="opacity"/>
              <InterpolatingParam id="8062" interp="linr"  time="0/1" value="0" leadInLength="0/1"  name="cursorOpacity"/>
              <InterpolatingParam id="8063" interp="linr"  time="0/1" value="0" leadInLength="0/1"  name="cursorScale"/>
             </Parameters>
             <Attributes>
              <Attribute id="8064" value="" name="ident"/>
             </Attributes>
             <ExtraData>
              <Entry key="ZoomPanBin">
               <ZoomPanBin id="8065"  >
                <ZoomPanKeyframes>
                 <ZoomPanKeyframe id="8066" timeRangeEnd="-9999999/1" timeRangeDuration="0/1" interpolaterName=""  />
                </ZoomPanKeyframes>
               </ZoomPanBin>
              </Entry>
              <Entry key="CursorEffectBin">
               <CursorEffectBin id="8067"  >
                <CursorEffectKeyframes>
                </CursorEffectKeyframes>
               </CursorEffectBin>
              </Entry>
             </ExtraData>
            </ScreenVMFile>
            <MetaData>
             <entry key="AutoAppliedSmartFocus" val="False"/>
             <entry key="WinSubProjectDisplayName" val=""/>
            </MetaData>
           </UnifiedMedia>
           <UnifiedMedia id="8068"  >
            <AMFile id="8069" start="9749" duration="56" scalar="1/1" mediaStart="16853/1" mediaDuration="56/1" trackNumber="1" src="4" channelNumber="0,1" >
             <Parameters>
              <InterpolatingParam id="8070" interp="linr"  time="0/1" value="1" leadInLength="0/1"  name="volume"/>
              <Parameter id="8071"  name="captions"/>
             </Parameters>
             <Attributes>
              <Attribute id="8072" value="" name="ident"/>
              <Attribute id="8073" value="44100" name="sampleRate"/>
              <Attribute id="8074" value="16" name="bitDepth"/>
              <Attribute id="8075" value="1" name="gain"/>
              <Attribute id="8076" value="0" name="mixToMono"/>
             </Attributes>
            </AMFile>
            <ScreenVMFile id="8077" start="9749" duration="56" scalar="1/1" mediaStart="16853/1" mediaDuration="56/1" trackNumber="0" src="4" >
             <Transformer>
              <VectorParam id="8078"  name="translation">
               <InterpolatingParam id="8079" interp="linr"  time="-9999999/1" value="0" leadInLength="0/1"  />
               <InterpolatingParam id="8080" interp="linr"  time="-9999999/1" value="0" leadInLength="0/1"  />
               <InterpolatingParam id="8081" interp="linr"  time="-9999999/1" value="0" leadInLength="0/1"  />
              </VectorParam>
              <VectorParam id="8082"  name="rotation">
               <InterpolatingParam id="8083" interp="linr"  time="-9999999/1" value="0" leadInLength="0/1"  />
               <InterpolatingParam id="8084" interp="linr"  time="-9999999/1" value="0" leadInLength="0/1"  />
               <InterpolatingParam id="8085" interp="linr"  time="-9999999/1" value="0" leadInLength="0/1"  />
              </VectorParam>
              <VectorParam id="8086"  name="shear">
               <InterpolatingParam id="8087" interp="linr"  time="-9999999/1" value="0" leadInLength="0/1"  />
               <InterpolatingParam id="8088" interp="linr"  time="-9999999/1" value="0" leadInLength="0/1"  />
               <InterpolatingParam id="8089" interp="linr"  time="-9999999/1" value="0" leadInLength="0/1"  />
              </VectorParam>
              <VectorParam id="8090"  name="scale">
               <InterpolatingParam id="8091" interp="linr"  time="-9999999/1" value="1" leadInLength="0/1"  />
               <InterpolatingParam id="8092" interp="linr"  time="-9999999/1" value="1" leadInLength="0/1"  />
               <InterpolatingParam id="8093" interp="linr"  time="-9999999/1" value="1" leadInLength="0/1"  />
              </VectorParam>
              <VectorParam id="8094"  name="anchor">
               <InterpolatingParam id="8095" interp="linr"  time="0/1" value="0" leadInLength="0/1"  />
               <InterpolatingParam id="8096" interp="linr"  time="0/1" value="0" leadInLength="0/1"  />
               <InterpolatingParam id="8097" interp="linr"  time="0/1" value="0" leadInLength="0/1"  />
              </VectorParam>
             </Transformer>
             <Parameters>
              <VectorParam id="8098"  name="sourceCrop">
               <InterpolatingParam id="8099" interp="linr"  time="0/1" value="0" leadInLength="0/1"  />
               <InterpolatingParam id="8100" interp="linr"  time="0/1" value="0" leadInLength="0/1"  />
               <InterpolatingParam id="8101" interp="linr"  time="0/1" value="0" leadInLength="0/1"  />
               <InterpolatingParam id="8102" interp="linr"  time="0/1" value="0" leadInLength="0/1"  />
              </VectorParam>
              <VectorParam id="8103"  name="geometryCrop">
               <InterpolatingParam id="8104" interp="linr"  time="-9999999/1" value="0" leadInLength="0/1"  />
               <InterpolatingParam id="8105" interp="linr"  time="-9999999/1" value="0" leadInLength="0/1"  />
               <InterpolatingParam id="8106" interp="linr"  time="-9999999/1" value="0" leadInLength="0/1"  />
               <InterpolatingParam id="8107" interp="linr"  time="-9999999/1" value="0" leadInLength="0/1"  />
              </VectorParam>
              <InterpolatingParam id="8108" interp="linr"  time="-9999999/1" value="1" leadInLength="0/1"  name="opacity"/>
              <InterpolatingParam id="8109" interp="linr"  time="0/1" value="0" leadInLength="0/1"  name="cursorOpacity"/>
              <InterpolatingParam id="8110" interp="linr"  time="0/1" value="0" leadInLength="0/1"  name="cursorScale"/>
             </Parameters>
             <Attributes>
              <Attribute id="8111" value="" name="ident"/>
             </Attributes>
             <ExtraData>
              <Entry key="ZoomPanBin">
               <ZoomPanBin id="8112"  >
                <ZoomPanKeyframes>
                 <ZoomPanKeyframe id="8113" timeRangeEnd="-9999999/1" timeRangeDuration="0/1" interpolaterName=""  />
                </ZoomPanKeyframes>
               </ZoomPanBin>
              </Entry>
              <Entry key="CursorEffectBin">
               <CursorEffectBin id="8114"  >
                <CursorEffectKeyframes>
                </CursorEffectKeyframes>
               </CursorEffectBin>
              </Entry>
             </ExtraData>
            </ScreenVMFile>
            <MetaData>
             <entry key="AutoAppliedSmartFocus" val="False"/>
             <entry key="WinSubProjectDisplayName" val=""/>
            </MetaData>
           </UnifiedMedia>
           <UnifiedMedia id="8115"  >
            <AMFile id="8116" start="9805" duration="289" scalar="1/1" mediaStart="17061/1" mediaDuration="289/1" trackNumber="1" src="4" channelNumber="0,1" >
             <Parameters>
              <InterpolatingParam id="8117" interp="linr"  time="0/1" value="1" leadInLength="0/1"  name="volume"/>
              <Parameter id="8118"  name="captions"/>
             </Parameters>
             <Attributes>
              <Attribute id="8119" value="" name="ident"/>
              <Attribute id="8120" value="44100" name="sampleRate"/>
              <Attribute id="8121" value="16" name="bitDepth"/>
              <Attribute id="8122" value="1" name="gain"/>
              <Attribute id="8123" value="0" name="mixToMono"/>
             </Attributes>
            </AMFile>
            <ScreenVMFile id="8124" start="9805" duration="289" scalar="1/1" mediaStart="17061/1" mediaDuration="289/1" trackNumber="0" src="4" >
             <Transformer>
              <VectorParam id="8125"  name="translation">
               <InterpolatingParam id="8126" interp="linr"  time="-9999999/1" value="0" leadInLength="0/1"  />
               <InterpolatingParam id="8127" interp="linr"  time="-9999999/1" value="0" leadInLength="0/1"  />
               <InterpolatingParam id="8128" interp="linr"  time="-9999999/1" value="0" leadInLength="0/1"  />
              </VectorParam>
              <VectorParam id="8129"  name="rotation">
               <InterpolatingParam id="8130" interp="linr"  time="-9999999/1" value="0" leadInLength="0/1"  />
               <InterpolatingParam id="8131" interp="linr"  time="-9999999/1" value="0" leadInLength="0/1"  />
               <InterpolatingParam id="8132" interp="linr"  time="-9999999/1" value="0" leadInLength="0/1"  />
              </VectorParam>
              <VectorParam id="8133"  name="shear">
               <InterpolatingParam id="8134" interp="linr"  time="-9999999/1" value="0" leadInLength="0/1"  />
               <InterpolatingParam id="8135" interp="linr"  time="-9999999/1" value="0" leadInLength="0/1"  />
               <InterpolatingParam id="8136" interp="linr"  time="-9999999/1" value="0" leadInLength="0/1"  />
              </VectorParam>
              <VectorParam id="8137"  name="scale">
               <InterpolatingParam id="8138" interp="linr"  time="-9999999/1" value="1" leadInLength="0/1"  />
               <InterpolatingParam id="8139" interp="linr"  time="-9999999/1" value="1" leadInLength="0/1"  />
               <InterpolatingParam id="8140" interp="linr"  time="-9999999/1" value="1" leadInLength="0/1"  />
              </VectorParam>
              <VectorParam id="8141"  name="anchor">
               <InterpolatingParam id="8142" interp="linr"  time="0/1" value="0" leadInLength="0/1"  />
               <InterpolatingParam id="8143" interp="linr"  time="0/1" value="0" leadInLength="0/1"  />
               <InterpolatingParam id="8144" interp="linr"  time="0/1" value="0" leadInLength="0/1"  />
              </VectorParam>
             </Transformer>
             <Parameters>
              <VectorParam id="8145"  name="sourceCrop">
               <InterpolatingParam id="8146" interp="linr"  time="0/1" value="0" leadInLength="0/1"  />
               <InterpolatingParam id="8147" interp="linr"  time="0/1" value="0" leadInLength="0/1"  />
               <InterpolatingParam id="8148" interp="linr"  time="0/1" value="0" leadInLength="0/1"  />
               <InterpolatingParam id="8149" interp="linr"  time="0/1" value="0" leadInLength="0/1"  />
              </VectorParam>
              <VectorParam id="8150"  name="geometryCrop">
               <InterpolatingParam id="8151" interp="linr"  time="-9999999/1" value="0" leadInLength="0/1"  />
               <InterpolatingParam id="8152" interp="linr"  time="-9999999/1" value="0" leadInLength="0/1"  />
               <InterpolatingParam id="8153" interp="linr"  time="-9999999/1" value="0" leadInLength="0/1"  />
               <InterpolatingParam id="8154" interp="linr"  time="-9999999/1" value="0" leadInLength="0/1"  />
              </VectorParam>
              <InterpolatingParam id="8155" interp="linr"  time="-9999999/1" value="1" leadInLength="0/1"  name="opacity"/>
              <InterpolatingParam id="8156" interp="linr"  time="0/1" value="0" leadInLength="0/1"  name="cursorOpacity"/>
              <InterpolatingParam id="8157" interp="linr"  time="0/1" value="0" leadInLength="0/1"  name="cursorScale"/>
             </Parameters>
             <Attributes>
              <Attribute id="8158" value="" name="ident"/>
             </Attributes>
             <ExtraData>
              <Entry key="ZoomPanBin">
               <ZoomPanBin id="8159"  >
                <ZoomPanKeyframes>
                 <ZoomPanKeyframe id="8160" timeRangeEnd="-9999999/1" timeRangeDuration="0/1" interpolaterName=""  />
                </ZoomPanKeyframes>
               </ZoomPanBin>
              </Entry>
              <Entry key="CursorEffectBin">
               <CursorEffectBin id="8161"  >
                <CursorEffectKeyframes>
                </CursorEffectKeyframes>
               </CursorEffectBin>
              </Entry>
             </ExtraData>
            </ScreenVMFile>
            <MetaData>
             <entry key="AutoAppliedSmartFocus" val="False"/>
             <entry key="WinSubProjectDisplayName" val=""/>
            </MetaData>
           </UnifiedMedia>
           <UnifiedMedia id="8162"  >
            <AMFile id="8163" start="10094" duration="121" scalar="1/1" mediaStart="17728/1" mediaDuration="121/1" trackNumber="1" src="4" channelNumber="0,1" >
             <Parameters>
              <InterpolatingParam id="8164" interp="linr"  time="0/1" value="1" leadInLength="0/1"  name="volume"/>
              <Parameter id="8165"  name="captions"/>
             </Parameters>
             <Attributes>
              <Attribute id="8166" value="" name="ident"/>
              <Attribute id="8167" value="44100" name="sampleRate"/>
              <Attribute id="8168" value="16" name="bitDepth"/>
              <Attribute id="8169" value="1" name="gain"/>
              <Attribute id="8170" value="0" name="mixToMono"/>
             </Attributes>
            </AMFile>
            <ScreenVMFile id="8171" start="10094" duration="121" scalar="1/1" mediaStart="17728/1" mediaDuration="121/1" trackNumber="0" src="4" >
             <Transformer>
              <VectorParam id="8172"  name="translation">
               <InterpolatingParam id="8173" interp="linr"  time="-9999999/1" value="0" leadInLength="0/1"  />
               <InterpolatingParam id="8174" interp="linr"  time="-9999999/1" value="0" leadInLength="0/1"  />
               <InterpolatingParam id="8175" interp="linr"  time="-9999999/1" value="0" leadInLength="0/1"  />
              </VectorParam>
              <VectorParam id="8176"  name="rotation">
               <InterpolatingParam id="8177" interp="linr"  time="-9999999/1" value="0" leadInLength="0/1"  />
               <InterpolatingParam id="8178" interp="linr"  time="-9999999/1" value="0" leadInLength="0/1"  />
               <InterpolatingParam id="8179" interp="linr"  time="-9999999/1" value="0" leadInLength="0/1"  />
              </VectorParam>
              <VectorParam id="8180"  name="shear">
               <InterpolatingParam id="8181" interp="linr"  time="-9999999/1" value="0" leadInLength="0/1"  />
               <InterpolatingParam id="8182" interp="linr"  time="-9999999/1" value="0" leadInLength="0/1"  />
               <InterpolatingParam id="8183" interp="linr"  time="-9999999/1" value="0" leadInLength="0/1"  />
              </VectorParam>
              <VectorParam id="8184"  name="scale">
               <InterpolatingParam id="8185" interp="linr"  time="-9999999/1" value="1" leadInLength="0/1"  />
               <InterpolatingParam id="8186" interp="linr"  time="-9999999/1" value="1" leadInLength="0/1"  />
               <InterpolatingParam id="8187" interp="linr"  time="-9999999/1" value="1" leadInLength="0/1"  />
              </VectorParam>
              <VectorParam id="8188"  name="anchor">
               <InterpolatingParam id="8189" interp="linr"  time="0/1" value="0" leadInLength="0/1"  />
               <InterpolatingParam id="8190" interp="linr"  time="0/1" value="0" leadInLength="0/1"  />
               <InterpolatingParam id="8191" interp="linr"  time="0/1" value="0" leadInLength="0/1"  />
              </VectorParam>
             </Transformer>
             <Parameters>
              <VectorParam id="8192"  name="sourceCrop">
               <InterpolatingParam id="8193" interp="linr"  time="0/1" value="0" leadInLength="0/1"  />
               <InterpolatingParam id="8194" interp="linr"  time="0/1" value="0" leadInLength="0/1"  />
               <InterpolatingParam id="8195" interp="linr"  time="0/1" value="0" leadInLength="0/1"  />
               <InterpolatingParam id="8196" interp="linr"  time="0/1" value="0" leadInLength="0/1"  />
              </VectorParam>
              <VectorParam id="8197"  name="geometryCrop">
               <InterpolatingParam id="8198" interp="linr"  time="-9999999/1" value="0" leadInLength="0/1"  />
               <InterpolatingParam id="8199" interp="linr"  time="-9999999/1" value="0" leadInLength="0/1"  />
               <InterpolatingParam id="8200" interp="linr"  time="-9999999/1" value="0" leadInLength="0/1"  />
               <InterpolatingParam id="8201" interp="linr"  time="-9999999/1" value="0" leadInLength="0/1"  />
              </VectorParam>
              <InterpolatingParam id="8202" interp="linr"  time="-9999999/1" value="1" leadInLength="0/1"  name="opacity"/>
              <InterpolatingParam id="8203" interp="linr"  time="0/1" value="0" leadInLength="0/1"  name="cursorOpacity"/>
              <InterpolatingParam id="8204" interp="linr"  time="0/1" value="0" leadInLength="0/1"  name="cursorScale"/>
             </Parameters>
             <Attributes>
              <Attribute id="8205" value="" name="ident"/>
             </Attributes>
             <ExtraData>
              <Entry key="ZoomPanBin">
               <ZoomPanBin id="8206"  >
                <ZoomPanKeyframes>
                 <ZoomPanKeyframe id="8207" timeRangeEnd="-9999999/1" timeRangeDuration="0/1" interpolaterName=""  />
                </ZoomPanKeyframes>
               </ZoomPanBin>
              </Entry>
              <Entry key="CursorEffectBin">
               <CursorEffectBin id="8208"  >
                <CursorEffectKeyframes>
                </CursorEffectKeyframes>
               </CursorEffectBin>
              </Entry>
             </ExtraData>
            </ScreenVMFile>
            <MetaData>
             <entry key="AutoAppliedSmartFocus" val="False"/>
             <entry key="WinSubProjectDisplayName" val=""/>
            </MetaData>
           </UnifiedMedia>
           <UnifiedMedia id="8209"  >
            <AMFile id="8210" start="10215" duration="96" scalar="1/1" mediaStart="18580/1" mediaDuration="96/1" trackNumber="1" src="4" channelNumber="0,1" >
             <Parameters>
              <InterpolatingParam id="8211" interp="linr"  time="0/1" value="1" leadInLength="0/1"  name="volume"/>
              <Parameter id="8212"  name="captions"/>
             </Parameters>
             <Attributes>
              <Attribute id="8213" value="" name="ident"/>
              <Attribute id="8214" value="44100" name="sampleRate"/>
              <Attribute id="8215" value="16" name="bitDepth"/>
              <Attribute id="8216" value="1" name="gain"/>
              <Attribute id="8217" value="0" name="mixToMono"/>
             </Attributes>
            </AMFile>
            <ScreenVMFile id="8218" start="10215" duration="96" scalar="1/1" mediaStart="18580/1" mediaDuration="96/1" trackNumber="0" src="4" >
             <Transformer>
              <VectorParam id="8219"  name="translation">
               <InterpolatingParam id="8220" interp="linr"  time="-9999999/1" value="0" leadInLength="0/1"  />
               <InterpolatingParam id="8221" interp="linr"  time="-9999999/1" value="0" leadInLength="0/1"  />
               <InterpolatingParam id="8222" interp="linr"  time="-9999999/1" value="0" leadInLength="0/1"  />
              </VectorParam>
              <VectorParam id="8223"  name="rotation">
               <InterpolatingParam id="8224" interp="linr"  time="-9999999/1" value="0" leadInLength="0/1"  />
               <InterpolatingParam id="8225" interp="linr"  time="-9999999/1" value="0" leadInLength="0/1"  />
               <InterpolatingParam id="8226" interp="linr"  time="-9999999/1" value="0" leadInLength="0/1"  />
              </VectorParam>
              <VectorParam id="8227"  name="shear">
               <InterpolatingParam id="8228" interp="linr"  time="-9999999/1" value="0" leadInLength="0/1"  />
               <InterpolatingParam id="8229" interp="linr"  time="-9999999/1" value="0" leadInLength="0/1"  />
               <InterpolatingParam id="8230" interp="linr"  time="-9999999/1" value="0" leadInLength="0/1"  />
              </VectorParam>
              <VectorParam id="8231"  name="scale">
               <InterpolatingParam id="8232" interp="linr"  time="-9999999/1" value="1" leadInLength="0/1"  />
               <InterpolatingParam id="8233" interp="linr"  time="-9999999/1" value="1" leadInLength="0/1"  />
               <InterpolatingParam id="8234" interp="linr"  time="-9999999/1" value="1" leadInLength="0/1"  />
              </VectorParam>
              <VectorParam id="8235"  name="anchor">
               <InterpolatingParam id="8236" interp="linr"  time="0/1" value="0" leadInLength="0/1"  />
               <InterpolatingParam id="8237" interp="linr"  time="0/1" value="0" leadInLength="0/1"  />
               <InterpolatingParam id="8238" interp="linr"  time="0/1" value="0" leadInLength="0/1"  />
              </VectorParam>
             </Transformer>
             <Parameters>
              <VectorParam id="8239"  name="sourceCrop">
               <InterpolatingParam id="8240" interp="linr"  time="0/1" value="0" leadInLength="0/1"  />
               <InterpolatingParam id="8241" interp="linr"  time="0/1" value="0" leadInLength="0/1"  />
               <InterpolatingParam id="8242" interp="linr"  time="0/1" value="0" leadInLength="0/1"  />
               <InterpolatingParam id="8243" interp="linr"  time="0/1" value="0" leadInLength="0/1"  />
              </VectorParam>
              <VectorParam id="8244"  name="geometryCrop">
               <InterpolatingParam id="8245" interp="linr"  time="-9999999/1" value="0" leadInLength="0/1"  />
               <InterpolatingParam id="8246" interp="linr"  time="-9999999/1" value="0" leadInLength="0/1"  />
               <InterpolatingParam id="8247" interp="linr"  time="-9999999/1" value="0" leadInLength="0/1"  />
               <InterpolatingParam id="8248" interp="linr"  time="-9999999/1" value="0" leadInLength="0/1"  />
              </VectorParam>
              <InterpolatingParam id="8249" interp="linr"  time="-9999999/1" value="1" leadInLength="0/1"  name="opacity"/>
              <InterpolatingParam id="8250" interp="linr"  time="0/1" value="0" leadInLength="0/1"  name="cursorOpacity"/>
              <InterpolatingParam id="8251" interp="linr"  time="0/1" value="0" leadInLength="0/1"  name="cursorScale"/>
             </Parameters>
             <Attributes>
              <Attribute id="8252" value="" name="ident"/>
             </Attributes>
             <ExtraData>
              <Entry key="ZoomPanBin">
               <ZoomPanBin id="8253"  >
                <ZoomPanKeyframes>
                 <ZoomPanKeyframe id="8254" timeRangeEnd="-9999999/1" timeRangeDuration="0/1" interpolaterName=""  />
                </ZoomPanKeyframes>
               </ZoomPanBin>
              </Entry>
              <Entry key="CursorEffectBin">
               <CursorEffectBin id="8255"  >
                <CursorEffectKeyframes>
                </CursorEffectKeyframes>
               </CursorEffectBin>
              </Entry>
             </ExtraData>
            </ScreenVMFile>
            <MetaData>
             <entry key="AutoAppliedSmartFocus" val="False"/>
             <entry key="WinSubProjectDisplayName" val=""/>
            </MetaData>
           </UnifiedMedia>
           <UnifiedMedia id="8256"  >
            <AMFile id="8257" start="10311" duration="186" scalar="1/1" mediaStart="18776/1" mediaDuration="186/1" trackNumber="1" src="4" channelNumber="0,1" >
             <Parameters>
              <InterpolatingParam id="8258" interp="linr"  time="0/1" value="1" leadInLength="0/1"  name="volume"/>
              <Parameter id="8259"  name="captions"/>
             </Parameters>
             <Attributes>
              <Attribute id="8260" value="" name="ident"/>
              <Attribute id="8261" value="44100" name="sampleRate"/>
              <Attribute id="8262" value="16" name="bitDepth"/>
              <Attribute id="8263" value="1" name="gain"/>
              <Attribute id="8264" value="0" name="mixToMono"/>
             </Attributes>
            </AMFile>
            <ScreenVMFile id="8265" start="10311" duration="186" scalar="1/1" mediaStart="18776/1" mediaDuration="186/1" trackNumber="0" src="4" >
             <Transformer>
              <VectorParam id="8266"  name="translation">
               <InterpolatingParam id="8267" interp="linr"  time="-9999999/1" value="0" leadInLength="0/1"  />
               <InterpolatingParam id="8268" interp="linr"  time="-9999999/1" value="0" leadInLength="0/1"  />
               <InterpolatingParam id="8269" interp="linr"  time="-9999999/1" value="0" leadInLength="0/1"  />
              </VectorParam>
              <VectorParam id="8270"  name="rotation">
               <InterpolatingParam id="8271" interp="linr"  time="-9999999/1" value="0" leadInLength="0/1"  />
               <InterpolatingParam id="8272" interp="linr"  time="-9999999/1" value="0" leadInLength="0/1"  />
               <InterpolatingParam id="8273" interp="linr"  time="-9999999/1" value="0" leadInLength="0/1"  />
              </VectorParam>
              <VectorParam id="8274"  name="shear">
               <InterpolatingParam id="8275" interp="linr"  time="-9999999/1" value="0" leadInLength="0/1"  />
               <InterpolatingParam id="8276" interp="linr"  time="-9999999/1" value="0" leadInLength="0/1"  />
               <InterpolatingParam id="8277" interp="linr"  time="-9999999/1" value="0" leadInLength="0/1"  />
              </VectorParam>
              <VectorParam id="8278"  name="scale">
               <InterpolatingParam id="8279" interp="linr"  time="-9999999/1" value="1" leadInLength="0/1"  />
               <InterpolatingParam id="8280" interp="linr"  time="-9999999/1" value="1" leadInLength="0/1"  />
               <InterpolatingParam id="8281" interp="linr"  time="-9999999/1" value="1" leadInLength="0/1"  />
              </VectorParam>
              <VectorParam id="8282"  name="anchor">
               <InterpolatingParam id="8283" interp="linr"  time="0/1" value="0" leadInLength="0/1"  />
               <InterpolatingParam id="8284" interp="linr"  time="0/1" value="0" leadInLength="0/1"  />
               <InterpolatingParam id="8285" interp="linr"  time="0/1" value="0" leadInLength="0/1"  />
              </VectorParam>
             </Transformer>
             <Parameters>
              <VectorParam id="8286"  name="sourceCrop">
               <InterpolatingParam id="8287" interp="linr"  time="0/1" value="0" leadInLength="0/1"  />
               <InterpolatingParam id="8288" interp="linr"  time="0/1" value="0" leadInLength="0/1"  />
               <InterpolatingParam id="8289" interp="linr"  time="0/1" value="0" leadInLength="0/1"  />
               <InterpolatingParam id="8290" interp="linr"  time="0/1" value="0" leadInLength="0/1"  />
              </VectorParam>
              <VectorParam id="8291"  name="geometryCrop">
               <InterpolatingParam id="8292" interp="linr"  time="-9999999/1" value="0" leadInLength="0/1"  />
               <InterpolatingParam id="8293" interp="linr"  time="-9999999/1" value="0" leadInLength="0/1"  />
               <InterpolatingParam id="8294" interp="linr"  time="-9999999/1" value="0" leadInLength="0/1"  />
               <InterpolatingParam id="8295" interp="linr"  time="-9999999/1" value="0" leadInLength="0/1"  />
              </VectorParam>
              <InterpolatingParam id="8296" interp="linr"  time="-9999999/1" value="1" leadInLength="0/1"  name="opacity"/>
              <InterpolatingParam id="8297" interp="linr"  time="0/1" value="0" leadInLength="0/1"  name="cursorOpacity"/>
              <InterpolatingParam id="8298" interp="linr"  time="0/1" value="0" leadInLength="0/1"  name="cursorScale"/>
             </Parameters>
             <Attributes>
              <Attribute id="8299" value="" name="ident"/>
             </Attributes>
             <ExtraData>
              <Entry key="ZoomPanBin">
               <ZoomPanBin id="8300"  >
                <ZoomPanKeyframes>
                 <ZoomPanKeyframe id="8301" timeRangeEnd="-9999999/1" timeRangeDuration="0/1" interpolaterName=""  />
                </ZoomPanKeyframes>
               </ZoomPanBin>
              </Entry>
              <Entry key="CursorEffectBin">
               <CursorEffectBin id="8302"  >
                <CursorEffectKeyframes>
                </CursorEffectKeyframes>
               </CursorEffectBin>
              </Entry>
             </ExtraData>
            </ScreenVMFile>
            <MetaData>
             <entry key="AutoAppliedSmartFocus" val="False"/>
             <entry key="WinSubProjectDisplayName" val=""/>
            </MetaData>
           </UnifiedMedia>
           <UnifiedMedia id="8303"  >
            <AMFile id="8304" start="10497" duration="71" scalar="1/1" mediaStart="18973/1" mediaDuration="71/1" trackNumber="1" src="4" channelNumber="0,1" >
             <Parameters>
              <InterpolatingParam id="8305" interp="linr"  time="0/1" value="1" leadInLength="0/1"  name="volume"/>
              <Parameter id="8306"  name="captions"/>
             </Parameters>
             <Attributes>
              <Attribute id="8307" value="" name="ident"/>
              <Attribute id="8308" value="44100" name="sampleRate"/>
              <Attribute id="8309" value="16" name="bitDepth"/>
              <Attribute id="8310" value="1" name="gain"/>
              <Attribute id="8311" value="0" name="mixToMono"/>
             </Attributes>
            </AMFile>
            <ScreenVMFile id="8312" start="10497" duration="71" scalar="1/1" mediaStart="18973/1" mediaDuration="71/1" trackNumber="0" src="4" >
             <Transformer>
              <VectorParam id="8313"  name="translation">
               <InterpolatingParam id="8314" interp="linr"  time="-9999999/1" value="0" leadInLength="0/1"  />
               <InterpolatingParam id="8315" interp="linr"  time="-9999999/1" value="0" leadInLength="0/1"  />
               <InterpolatingParam id="8316" interp="linr"  time="-9999999/1" value="0" leadInLength="0/1"  />
              </VectorParam>
              <VectorParam id="8317"  name="rotation">
               <InterpolatingParam id="8318" interp="linr"  time="-9999999/1" value="0" leadInLength="0/1"  />
               <InterpolatingParam id="8319" interp="linr"  time="-9999999/1" value="0" leadInLength="0/1"  />
               <InterpolatingParam id="8320" interp="linr"  time="-9999999/1" value="0" leadInLength="0/1"  />
              </VectorParam>
              <VectorParam id="8321"  name="shear">
               <InterpolatingParam id="8322" interp="linr"  time="-9999999/1" value="0" leadInLength="0/1"  />
               <InterpolatingParam id="8323" interp="linr"  time="-9999999/1" value="0" leadInLength="0/1"  />
               <InterpolatingParam id="8324" interp="linr"  time="-9999999/1" value="0" leadInLength="0/1"  />
              </VectorParam>
              <VectorParam id="8325"  name="scale">
               <InterpolatingParam id="8326" interp="linr"  time="-9999999/1" value="1" leadInLength="0/1"  />
               <InterpolatingParam id="8327" interp="linr"  time="-9999999/1" value="1" leadInLength="0/1"  />
               <InterpolatingParam id="8328" interp="linr"  time="-9999999/1" value="1" leadInLength="0/1"  />
              </VectorParam>
              <VectorParam id="8329"  name="anchor">
               <InterpolatingParam id="8330" interp="linr"  time="0/1" value="0" leadInLength="0/1"  />
               <InterpolatingParam id="8331" interp="linr"  time="0/1" value="0" leadInLength="0/1"  />
               <InterpolatingParam id="8332" interp="linr"  time="0/1" value="0" leadInLength="0/1"  />
              </VectorParam>
             </Transformer>
             <Parameters>
              <VectorParam id="8333"  name="sourceCrop">
               <InterpolatingParam id="8334" interp="linr"  time="0/1" value="0" leadInLength="0/1"  />
               <InterpolatingParam id="8335" interp="linr"  time="0/1" value="0" leadInLength="0/1"  />
               <InterpolatingParam id="8336" interp="linr"  time="0/1" value="0" leadInLength="0/1"  />
               <InterpolatingParam id="8337" interp="linr"  time="0/1" value="0" leadInLength="0/1"  />
              </VectorParam>
              <VectorParam id="8338"  name="geometryCrop">
               <InterpolatingParam id="8339" interp="linr"  time="-9999999/1" value="0" leadInLength="0/1"  />
               <InterpolatingParam id="8340" interp="linr"  time="-9999999/1" value="0" leadInLength="0/1"  />
               <InterpolatingParam id="8341" interp="linr"  time="-9999999/1" value="0" leadInLength="0/1"  />
               <InterpolatingParam id="8342" interp="linr"  time="-9999999/1" value="0" leadInLength="0/1"  />
              </VectorParam>
              <InterpolatingParam id="8343" interp="linr"  time="-9999999/1" value="1" leadInLength="0/1"  name="opacity"/>
              <InterpolatingParam id="8344" interp="linr"  time="0/1" value="0" leadInLength="0/1"  name="cursorOpacity"/>
              <InterpolatingParam id="8345" interp="linr"  time="0/1" value="0" leadInLength="0/1"  name="cursorScale"/>
             </Parameters>
             <Attributes>
              <Attribute id="8346" value="" name="ident"/>
             </Attributes>
             <ExtraData>
              <Entry key="ZoomPanBin">
               <ZoomPanBin id="8347"  >
                <ZoomPanKeyframes>
                 <ZoomPanKeyframe id="8348" timeRangeEnd="-9999999/1" timeRangeDuration="0/1" interpolaterName=""  />
                </ZoomPanKeyframes>
               </ZoomPanBin>
              </Entry>
              <Entry key="CursorEffectBin">
               <CursorEffectBin id="8349"  >
                <CursorEffectKeyframes>
                </CursorEffectKeyframes>
               </CursorEffectBin>
              </Entry>
             </ExtraData>
            </ScreenVMFile>
            <MetaData>
             <entry key="AutoAppliedSmartFocus" val="False"/>
             <entry key="WinSubProjectDisplayName" val=""/>
            </MetaData>
           </UnifiedMedia>
           <UnifiedMedia id="8350"  >
            <AMFile id="8351" start="10568" duration="50" scalar="1/1" mediaStart="19053/1" mediaDuration="50/1" trackNumber="1" src="4" channelNumber="0,1" >
             <Parameters>
              <InterpolatingParam id="8352" interp="linr"  time="0/1" value="1" leadInLength="0/1"  name="volume"/>
              <Parameter id="8353"  name="captions"/>
             </Parameters>
             <Attributes>
              <Attribute id="8354" value="" name="ident"/>
              <Attribute id="8355" value="44100" name="sampleRate"/>
              <Attribute id="8356" value="16" name="bitDepth"/>
              <Attribute id="8357" value="1" name="gain"/>
              <Attribute id="8358" value="0" name="mixToMono"/>
             </Attributes>
            </AMFile>
            <ScreenVMFile id="8359" start="10568" duration="50" scalar="1/1" mediaStart="19053/1" mediaDuration="50/1" trackNumber="0" src="4" >
             <Transformer>
              <VectorParam id="8360"  name="translation">
               <InterpolatingParam id="8361" interp="linr"  time="-9999999/1" value="0" leadInLength="0/1"  />
               <InterpolatingParam id="8362" interp="linr"  time="-9999999/1" value="0" leadInLength="0/1"  />
               <InterpolatingParam id="8363" interp="linr"  time="-9999999/1" value="0" leadInLength="0/1"  />
              </VectorParam>
              <VectorParam id="8364"  name="rotation">
               <InterpolatingParam id="8365" interp="linr"  time="-9999999/1" value="0" leadInLength="0/1"  />
               <InterpolatingParam id="8366" interp="linr"  time="-9999999/1" value="0" leadInLength="0/1"  />
               <InterpolatingParam id="8367" interp="linr"  time="-9999999/1" value="0" leadInLength="0/1"  />
              </VectorParam>
              <VectorParam id="8368"  name="shear">
               <InterpolatingParam id="8369" interp="linr"  time="-9999999/1" value="0" leadInLength="0/1"  />
               <InterpolatingParam id="8370" interp="linr"  time="-9999999/1" value="0" leadInLength="0/1"  />
               <InterpolatingParam id="8371" interp="linr"  time="-9999999/1" value="0" leadInLength="0/1"  />
              </VectorParam>
              <VectorParam id="8372"  name="scale">
               <InterpolatingParam id="8373" interp="linr"  time="-9999999/1" value="1" leadInLength="0/1"  />
               <InterpolatingParam id="8374" interp="linr"  time="-9999999/1" value="1" leadInLength="0/1"  />
               <InterpolatingParam id="8375" interp="linr"  time="-9999999/1" value="1" leadInLength="0/1"  />
              </VectorParam>
              <VectorParam id="8376"  name="anchor">
               <InterpolatingParam id="8377" interp="linr"  time="0/1" value="0" leadInLength="0/1"  />
               <InterpolatingParam id="8378" interp="linr"  time="0/1" value="0" leadInLength="0/1"  />
               <InterpolatingParam id="8379" interp="linr"  time="0/1" value="0" leadInLength="0/1"  />
              </VectorParam>
             </Transformer>
             <Parameters>
              <VectorParam id="8380"  name="sourceCrop">
               <InterpolatingParam id="8381" interp="linr"  time="0/1" value="0" leadInLength="0/1"  />
               <InterpolatingParam id="8382" interp="linr"  time="0/1" value="0" leadInLength="0/1"  />
               <InterpolatingParam id="8383" interp="linr"  time="0/1" value="0" leadInLength="0/1"  />
               <InterpolatingParam id="8384" interp="linr"  time="0/1" value="0" leadInLength="0/1"  />
              </VectorParam>
              <VectorParam id="8385"  name="geometryCrop">
               <InterpolatingParam id="8386" interp="linr"  time="-9999999/1" value="0" leadInLength="0/1"  />
               <InterpolatingParam id="8387" interp="linr"  time="-9999999/1" value="0" leadInLength="0/1"  />
               <InterpolatingParam id="8388" interp="linr"  time="-9999999/1" value="0" leadInLength="0/1"  />
               <InterpolatingParam id="8389" interp="linr"  time="-9999999/1" value="0" leadInLength="0/1"  />
              </VectorParam>
              <InterpolatingParam id="8390" interp="linr"  time="-9999999/1" value="1" leadInLength="0/1"  name="opacity"/>
              <InterpolatingParam id="8391" interp="linr"  time="0/1" value="0" leadInLength="0/1"  name="cursorOpacity"/>
              <InterpolatingParam id="8392" interp="linr"  time="0/1" value="0" leadInLength="0/1"  name="cursorScale"/>
             </Parameters>
             <Attributes>
              <Attribute id="8393" value="" name="ident"/>
             </Attributes>
             <ExtraData>
              <Entry key="ZoomPanBin">
               <ZoomPanBin id="8394"  >
                <ZoomPanKeyframes>
                 <ZoomPanKeyframe id="8395" timeRangeEnd="-9999999/1" timeRangeDuration="0/1" interpolaterName=""  />
                </ZoomPanKeyframes>
               </ZoomPanBin>
              </Entry>
              <Entry key="CursorEffectBin">
               <CursorEffectBin id="8396"  >
                <CursorEffectKeyframes>
                </CursorEffectKeyframes>
               </CursorEffectBin>
              </Entry>
             </ExtraData>
            </ScreenVMFile>
            <MetaData>
             <entry key="AutoAppliedSmartFocus" val="False"/>
             <entry key="WinSubProjectDisplayName" val=""/>
            </MetaData>
           </UnifiedMedia>
           <UnifiedMedia id="8397"  >
            <AMFile id="8398" start="10618" duration="77" scalar="1/1" mediaStart="19110/1" mediaDuration="77/1" trackNumber="1" src="4" channelNumber="0,1" >
             <Parameters>
              <InterpolatingParam id="8399" interp="linr"  time="0/1" value="1" leadInLength="0/1"  name="volume"/>
              <Parameter id="8400"  name="captions"/>
             </Parameters>
             <Attributes>
              <Attribute id="8401" value="" name="ident"/>
              <Attribute id="8402" value="44100" name="sampleRate"/>
              <Attribute id="8403" value="16" name="bitDepth"/>
              <Attribute id="8404" value="1" name="gain"/>
              <Attribute id="8405" value="0" name="mixToMono"/>
             </Attributes>
            </AMFile>
            <ScreenVMFile id="8406" start="10618" duration="77" scalar="1/1" mediaStart="19110/1" mediaDuration="77/1" trackNumber="0" src="4" >
             <Transformer>
              <VectorParam id="8407"  name="translation">
               <InterpolatingParam id="8408" interp="linr"  time="-9999999/1" value="0" leadInLength="0/1"  />
               <InterpolatingParam id="8409" interp="linr"  time="-9999999/1" value="0" leadInLength="0/1"  />
               <InterpolatingParam id="8410" interp="linr"  time="-9999999/1" value="0" leadInLength="0/1"  />
              </VectorParam>
              <VectorParam id="8411"  name="rotation">
               <InterpolatingParam id="8412" interp="linr"  time="-9999999/1" value="0" leadInLength="0/1"  />
               <InterpolatingParam id="8413" interp="linr"  time="-9999999/1" value="0" leadInLength="0/1"  />
               <InterpolatingParam id="8414" interp="linr"  time="-9999999/1" value="0" leadInLength="0/1"  />
              </VectorParam>
              <VectorParam id="8415"  name="shear">
               <InterpolatingParam id="8416" interp="linr"  time="-9999999/1" value="0" leadInLength="0/1"  />
               <InterpolatingParam id="8417" interp="linr"  time="-9999999/1" value="0" leadInLength="0/1"  />
               <InterpolatingParam id="8418" interp="linr"  time="-9999999/1" value="0" leadInLength="0/1"  />
              </VectorParam>
              <VectorParam id="8419"  name="scale">
               <InterpolatingParam id="8420" interp="linr"  time="-9999999/1" value="1" leadInLength="0/1"  />
               <InterpolatingParam id="8421" interp="linr"  time="-9999999/1" value="1" leadInLength="0/1"  />
               <InterpolatingParam id="8422" interp="linr"  time="-9999999/1" value="1" leadInLength="0/1"  />
              </VectorParam>
              <VectorParam id="8423"  name="anchor">
               <InterpolatingParam id="8424" interp="linr"  time="0/1" value="0" leadInLength="0/1"  />
               <InterpolatingParam id="8425" interp="linr"  time="0/1" value="0" leadInLength="0/1"  />
               <InterpolatingParam id="8426" interp="linr"  time="0/1" value="0" leadInLength="0/1"  />
              </VectorParam>
             </Transformer>
             <Parameters>
              <VectorParam id="8427"  name="sourceCrop">
               <InterpolatingParam id="8428" interp="linr"  time="0/1" value="0" leadInLength="0/1"  />
               <InterpolatingParam id="8429" interp="linr"  time="0/1" value="0" leadInLength="0/1"  />
               <InterpolatingParam id="8430" interp="linr"  time="0/1" value="0" leadInLength="0/1"  />
               <InterpolatingParam id="8431" interp="linr"  time="0/1" value="0" leadInLength="0/1"  />
              </VectorParam>
              <VectorParam id="8432"  name="geometryCrop">
               <InterpolatingParam id="8433" interp="linr"  time="-9999999/1" value="0" leadInLength="0/1"  />
               <InterpolatingParam id="8434" interp="linr"  time="-9999999/1" value="0" leadInLength="0/1"  />
               <InterpolatingParam id="8435" interp="linr"  time="-9999999/1" value="0" leadInLength="0/1"  />
               <InterpolatingParam id="8436" interp="linr"  time="-9999999/1" value="0" leadInLength="0/1"  />
              </VectorParam>
              <InterpolatingParam id="8437" interp="linr"  time="-9999999/1" value="1" leadInLength="0/1"  name="opacity"/>
              <InterpolatingParam id="8438" interp="linr"  time="0/1" value="0" leadInLength="0/1"  name="cursorOpacity"/>
              <InterpolatingParam id="8439" interp="linr"  time="0/1" value="0" leadInLength="0/1"  name="cursorScale"/>
             </Parameters>
             <Attributes>
              <Attribute id="8440" value="" name="ident"/>
             </Attributes>
             <ExtraData>
              <Entry key="ZoomPanBin">
               <ZoomPanBin id="8441"  >
                <ZoomPanKeyframes>
                 <ZoomPanKeyframe id="8442" timeRangeEnd="-9999999/1" timeRangeDuration="0/1" interpolaterName=""  />
                </ZoomPanKeyframes>
               </ZoomPanBin>
              </Entry>
              <Entry key="CursorEffectBin">
               <CursorEffectBin id="8443"  >
                <CursorEffectKeyframes>
                </CursorEffectKeyframes>
               </CursorEffectBin>
              </Entry>
             </ExtraData>
            </ScreenVMFile>
            <MetaData>
             <entry key="AutoAppliedSmartFocus" val="False"/>
             <entry key="WinSubProjectDisplayName" val=""/>
            </MetaData>
           </UnifiedMedia>
           <UnifiedMedia id="8444"  >
            <AMFile id="8445" start="10695" duration="83" scalar="1/1" mediaStart="19197/1" mediaDuration="83/1" trackNumber="1" src="4" channelNumber="0,1" >
             <Parameters>
              <InterpolatingParam id="8446" interp="linr"  time="0/1" value="1" leadInLength="0/1"  name="volume"/>
              <Parameter id="8447"  name="captions"/>
             </Parameters>
             <Attributes>
              <Attribute id="8448" value="" name="ident"/>
              <Attribute id="8449" value="44100" name="sampleRate"/>
              <Attribute id="8450" value="16" name="bitDepth"/>
              <Attribute id="8451" value="1" name="gain"/>
              <Attribute id="8452" value="0" name="mixToMono"/>
             </Attributes>
            </AMFile>
            <ScreenVMFile id="8453" start="10695" duration="83" scalar="1/1" mediaStart="19197/1" mediaDuration="83/1" trackNumber="0" src="4" >
             <Transformer>
              <VectorParam id="8454"  name="translation">
               <InterpolatingParam id="8455" interp="linr"  time="-9999999/1" value="0" leadInLength="0/1"  />
               <InterpolatingParam id="8456" interp="linr"  time="-9999999/1" value="0" leadInLength="0/1"  />
               <InterpolatingParam id="8457" interp="linr"  time="-9999999/1" value="0" leadInLength="0/1"  />
              </VectorParam>
              <VectorParam id="8458"  name="rotation">
               <InterpolatingParam id="8459" interp="linr"  time="-9999999/1" value="0" leadInLength="0/1"  />
               <InterpolatingParam id="8460" interp="linr"  time="-9999999/1" value="0" leadInLength="0/1"  />
               <InterpolatingParam id="8461" interp="linr"  time="-9999999/1" value="0" leadInLength="0/1"  />
              </VectorParam>
              <VectorParam id="8462"  name="shear">
               <InterpolatingParam id="8463" interp="linr"  time="-9999999/1" value="0" leadInLength="0/1"  />
               <InterpolatingParam id="8464" interp="linr"  time="-9999999/1" value="0" leadInLength="0/1"  />
               <InterpolatingParam id="8465" interp="linr"  time="-9999999/1" value="0" leadInLength="0/1"  />
              </VectorParam>
              <VectorParam id="8466"  name="scale">
               <InterpolatingParam id="8467" interp="linr"  time="-9999999/1" value="1" leadInLength="0/1"  />
               <InterpolatingParam id="8468" interp="linr"  time="-9999999/1" value="1" leadInLength="0/1"  />
               <InterpolatingParam id="8469" interp="linr"  time="-9999999/1" value="1" leadInLength="0/1"  />
              </VectorParam>
              <VectorParam id="8470"  name="anchor">
               <InterpolatingParam id="8471" interp="linr"  time="0/1" value="0" leadInLength="0/1"  />
               <InterpolatingParam id="8472" interp="linr"  time="0/1" value="0" leadInLength="0/1"  />
               <InterpolatingParam id="8473" interp="linr"  time="0/1" value="0" leadInLength="0/1"  />
              </VectorParam>
             </Transformer>
             <Parameters>
              <VectorParam id="8474"  name="sourceCrop">
               <InterpolatingParam id="8475" interp="linr"  time="0/1" value="0" leadInLength="0/1"  />
               <InterpolatingParam id="8476" interp="linr"  time="0/1" value="0" leadInLength="0/1"  />
               <InterpolatingParam id="8477" interp="linr"  time="0/1" value="0" leadInLength="0/1"  />
               <InterpolatingParam id="8478" interp="linr"  time="0/1" value="0" leadInLength="0/1"  />
              </VectorParam>
              <VectorParam id="8479"  name="geometryCrop">
               <InterpolatingParam id="8480" interp="linr"  time="-9999999/1" value="0" leadInLength="0/1"  />
               <InterpolatingParam id="8481" interp="linr"  time="-9999999/1" value="0" leadInLength="0/1"  />
               <InterpolatingParam id="8482" interp="linr"  time="-9999999/1" value="0" leadInLength="0/1"  />
               <InterpolatingParam id="8483" interp="linr"  time="-9999999/1" value="0" leadInLength="0/1"  />
              </VectorParam>
              <InterpolatingParam id="8484" interp="linr"  time="-9999999/1" value="1" leadInLength="0/1"  name="opacity"/>
              <InterpolatingParam id="8485" interp="linr"  time="0/1" value="0" leadInLength="0/1"  name="cursorOpacity"/>
              <InterpolatingParam id="8486" interp="linr"  time="0/1" value="0" leadInLength="0/1"  name="cursorScale"/>
             </Parameters>
             <Attributes>
              <Attribute id="8487" value="" name="ident"/>
             </Attributes>
             <ExtraData>
              <Entry key="ZoomPanBin">
               <ZoomPanBin id="8488"  >
                <ZoomPanKeyframes>
                 <ZoomPanKeyframe id="8489" timeRangeEnd="-9999999/1" timeRangeDuration="0/1" interpolaterName=""  />
                </ZoomPanKeyframes>
               </ZoomPanBin>
              </Entry>
              <Entry key="CursorEffectBin">
               <CursorEffectBin id="8490"  >
                <CursorEffectKeyframes>
                </CursorEffectKeyframes>
               </CursorEffectBin>
              </Entry>
             </ExtraData>
            </ScreenVMFile>
            <MetaData>
             <entry key="AutoAppliedSmartFocus" val="False"/>
             <entry key="WinSubProjectDisplayName" val=""/>
            </MetaData>
           </UnifiedMedia>
           <UnifiedMedia id="8491"  >
            <AMFile id="8492" start="10778" duration="144" scalar="1/1" mediaStart="19888/1" mediaDuration="144/1" trackNumber="1" src="4" channelNumber="0,1" >
             <Parameters>
              <InterpolatingParam id="8493" interp="linr"  time="0/1" value="1" leadInLength="0/1"  name="volume"/>
              <Parameter id="8494"  name="captions"/>
             </Parameters>
             <Attributes>
              <Attribute id="8495" value="" name="ident"/>
              <Attribute id="8496" value="44100" name="sampleRate"/>
              <Attribute id="8497" value="16" name="bitDepth"/>
              <Attribute id="8498" value="1" name="gain"/>
              <Attribute id="8499" value="0" name="mixToMono"/>
             </Attributes>
            </AMFile>
            <ScreenVMFile id="8500" start="10778" duration="144" scalar="1/1" mediaStart="19888/1" mediaDuration="144/1" trackNumber="0" src="4" >
             <Transformer>
              <VectorParam id="8501"  name="translation">
               <InterpolatingParam id="8502" interp="linr"  time="-9999999/1" value="0" leadInLength="0/1"  />
               <InterpolatingParam id="8503" interp="linr"  time="-9999999/1" value="0" leadInLength="0/1"  />
               <InterpolatingParam id="8504" interp="linr"  time="-9999999/1" value="0" leadInLength="0/1"  />
              </VectorParam>
              <VectorParam id="8505"  name="rotation">
               <InterpolatingParam id="8506" interp="linr"  time="-9999999/1" value="0" leadInLength="0/1"  />
               <InterpolatingParam id="8507" interp="linr"  time="-9999999/1" value="0" leadInLength="0/1"  />
               <InterpolatingParam id="8508" interp="linr"  time="-9999999/1" value="0" leadInLength="0/1"  />
              </VectorParam>
              <VectorParam id="8509"  name="shear">
               <InterpolatingParam id="8510" interp="linr"  time="-9999999/1" value="0" leadInLength="0/1"  />
               <InterpolatingParam id="8511" interp="linr"  time="-9999999/1" value="0" leadInLength="0/1"  />
               <InterpolatingParam id="8512" interp="linr"  time="-9999999/1" value="0" leadInLength="0/1"  />
              </VectorParam>
              <VectorParam id="8513"  name="scale">
               <InterpolatingParam id="8514" interp="linr"  time="-9999999/1" value="1" leadInLength="0/1"  />
               <InterpolatingParam id="8515" interp="linr"  time="-9999999/1" value="1" leadInLength="0/1"  />
               <InterpolatingParam id="8516" interp="linr"  time="-9999999/1" value="1" leadInLength="0/1"  />
              </VectorParam>
              <VectorParam id="8517"  name="anchor">
               <InterpolatingParam id="8518" interp="linr"  time="0/1" value="0" leadInLength="0/1"  />
               <InterpolatingParam id="8519" interp="linr"  time="0/1" value="0" leadInLength="0/1"  />
               <InterpolatingParam id="8520" interp="linr"  time="0/1" value="0" leadInLength="0/1"  />
              </VectorParam>
             </Transformer>
             <Parameters>
              <VectorParam id="8521"  name="sourceCrop">
               <InterpolatingParam id="8522" interp="linr"  time="0/1" value="0" leadInLength="0/1"  />
               <InterpolatingParam id="8523" interp="linr"  time="0/1" value="0" leadInLength="0/1"  />
               <InterpolatingParam id="8524" interp="linr"  time="0/1" value="0" leadInLength="0/1"  />
               <InterpolatingParam id="8525" interp="linr"  time="0/1" value="0" leadInLength="0/1"  />
              </VectorParam>
              <VectorParam id="8526"  name="geometryCrop">
               <InterpolatingParam id="8527" interp="linr"  time="-9999999/1" value="0" leadInLength="0/1"  />
               <InterpolatingParam id="8528" interp="linr"  time="-9999999/1" value="0" leadInLength="0/1"  />
               <InterpolatingParam id="8529" interp="linr"  time="-9999999/1" value="0" leadInLength="0/1"  />
               <InterpolatingParam id="8530" interp="linr"  time="-9999999/1" value="0" leadInLength="0/1"  />
              </VectorParam>
              <InterpolatingParam id="8531" interp="linr"  time="-9999999/1" value="1" leadInLength="0/1"  name="opacity"/>
              <InterpolatingParam id="8532" interp="linr"  time="0/1" value="0" leadInLength="0/1"  name="cursorOpacity"/>
              <InterpolatingParam id="8533" interp="linr"  time="0/1" value="0" leadInLength="0/1"  name="cursorScale"/>
             </Parameters>
             <Attributes>
              <Attribute id="8534" value="" name="ident"/>
             </Attributes>
             <ExtraData>
              <Entry key="ZoomPanBin">
               <ZoomPanBin id="8535"  >
                <ZoomPanKeyframes>
                 <ZoomPanKeyframe id="8536" timeRangeEnd="-9999999/1" timeRangeDuration="0/1" interpolaterName=""  />
                </ZoomPanKeyframes>
               </ZoomPanBin>
              </Entry>
              <Entry key="CursorEffectBin">
               <CursorEffectBin id="8537"  >
                <CursorEffectKeyframes>
                </CursorEffectKeyframes>
               </CursorEffectBin>
              </Entry>
             </ExtraData>
            </ScreenVMFile>
            <MetaData>
             <entry key="AutoAppliedSmartFocus" val="False"/>
             <entry key="WinSubProjectDisplayName" val=""/>
            </MetaData>
           </UnifiedMedia>
           <UnifiedMedia id="8538"  >
            <AMFile id="8539" start="10922" duration="48" scalar="1/1" mediaStart="20041/1" mediaDuration="48/1" trackNumber="1" src="4" channelNumber="0,1" >
             <Parameters>
              <InterpolatingParam id="8540" interp="linr"  time="0/1" value="1" leadInLength="0/1"  name="volume"/>
              <Parameter id="8541"  name="captions"/>
             </Parameters>
             <Attributes>
              <Attribute id="8542" value="" name="ident"/>
              <Attribute id="8543" value="44100" name="sampleRate"/>
              <Attribute id="8544" value="16" name="bitDepth"/>
              <Attribute id="8545" value="1" name="gain"/>
              <Attribute id="8546" value="0" name="mixToMono"/>
             </Attributes>
            </AMFile>
            <ScreenVMFile id="8547" start="10922" duration="48" scalar="1/1" mediaStart="20041/1" mediaDuration="48/1" trackNumber="0" src="4" >
             <Transformer>
              <VectorParam id="8548"  name="translation">
               <InterpolatingParam id="8549" interp="linr"  time="-9999999/1" value="0" leadInLength="0/1"  />
               <InterpolatingParam id="8550" interp="linr"  time="-9999999/1" value="0" leadInLength="0/1"  />
               <InterpolatingParam id="8551" interp="linr"  time="-9999999/1" value="0" leadInLength="0/1"  />
              </VectorParam>
              <VectorParam id="8552"  name="rotation">
               <InterpolatingParam id="8553" interp="linr"  time="-9999999/1" value="0" leadInLength="0/1"  />
               <InterpolatingParam id="8554" interp="linr"  time="-9999999/1" value="0" leadInLength="0/1"  />
               <InterpolatingParam id="8555" interp="linr"  time="-9999999/1" value="0" leadInLength="0/1"  />
              </VectorParam>
              <VectorParam id="8556"  name="shear">
               <InterpolatingParam id="8557" interp="linr"  time="-9999999/1" value="0" leadInLength="0/1"  />
               <InterpolatingParam id="8558" interp="linr"  time="-9999999/1" value="0" leadInLength="0/1"  />
               <InterpolatingParam id="8559" interp="linr"  time="-9999999/1" value="0" leadInLength="0/1"  />
              </VectorParam>
              <VectorParam id="8560"  name="scale">
               <InterpolatingParam id="8561" interp="linr"  time="-9999999/1" value="1" leadInLength="0/1"  />
               <InterpolatingParam id="8562" interp="linr"  time="-9999999/1" value="1" leadInLength="0/1"  />
               <InterpolatingParam id="8563" interp="linr"  time="-9999999/1" value="1" leadInLength="0/1"  />
              </VectorParam>
              <VectorParam id="8564"  name="anchor">
               <InterpolatingParam id="8565" interp="linr"  time="0/1" value="0" leadInLength="0/1"  />
               <InterpolatingParam id="8566" interp="linr"  time="0/1" value="0" leadInLength="0/1"  />
               <InterpolatingParam id="8567" interp="linr"  time="0/1" value="0" leadInLength="0/1"  />
              </VectorParam>
             </Transformer>
             <Parameters>
              <VectorParam id="8568"  name="sourceCrop">
               <InterpolatingParam id="8569" interp="linr"  time="0/1" value="0" leadInLength="0/1"  />
               <InterpolatingParam id="8570" interp="linr"  time="0/1" value="0" leadInLength="0/1"  />
               <InterpolatingParam id="8571" interp="linr"  time="0/1" value="0" leadInLength="0/1"  />
               <InterpolatingParam id="8572" interp="linr"  time="0/1" value="0" leadInLength="0/1"  />
              </VectorParam>
              <VectorParam id="8573"  name="geometryCrop">
               <InterpolatingParam id="8574" interp="linr"  time="-9999999/1" value="0" leadInLength="0/1"  />
               <InterpolatingParam id="8575" interp="linr"  time="-9999999/1" value="0" leadInLength="0/1"  />
               <InterpolatingParam id="8576" interp="linr"  time="-9999999/1" value="0" leadInLength="0/1"  />
               <InterpolatingParam id="8577" interp="linr"  time="-9999999/1" value="0" leadInLength="0/1"  />
              </VectorParam>
              <InterpolatingParam id="8578" interp="linr"  time="-9999999/1" value="1" leadInLength="0/1"  name="opacity"/>
              <InterpolatingParam id="8579" interp="linr"  time="0/1" value="0" leadInLength="0/1"  name="cursorOpacity"/>
              <InterpolatingParam id="8580" interp="linr"  time="0/1" value="0" leadInLength="0/1"  name="cursorScale"/>
             </Parameters>
             <Attributes>
              <Attribute id="8581" value="" name="ident"/>
             </Attributes>
             <ExtraData>
              <Entry key="ZoomPanBin">
               <ZoomPanBin id="8582"  >
                <ZoomPanKeyframes>
                 <ZoomPanKeyframe id="8583" timeRangeEnd="-9999999/1" timeRangeDuration="0/1" interpolaterName=""  />
                </ZoomPanKeyframes>
               </ZoomPanBin>
              </Entry>
              <Entry key="CursorEffectBin">
               <CursorEffectBin id="8584"  >
                <CursorEffectKeyframes>
                </CursorEffectKeyframes>
               </CursorEffectBin>
              </Entry>
             </ExtraData>
            </ScreenVMFile>
            <MetaData>
             <entry key="AutoAppliedSmartFocus" val="False"/>
             <entry key="WinSubProjectDisplayName" val=""/>
            </MetaData>
           </UnifiedMedia>
           <UnifiedMedia id="8585"  >
            <AMFile id="8586" start="10970" duration="463" scalar="1/1" mediaStart="20868/1" mediaDuration="463/1" trackNumber="1" src="4" channelNumber="0,1" >
             <Parameters>
              <InterpolatingParam id="8587" interp="linr"  time="0/1" value="1" leadInLength="0/1"  name="volume"/>
              <Parameter id="8588"  name="captions"/>
             </Parameters>
             <Attributes>
              <Attribute id="8589" value="" name="ident"/>
              <Attribute id="8590" value="44100" name="sampleRate"/>
              <Attribute id="8591" value="16" name="bitDepth"/>
              <Attribute id="8592" value="1" name="gain"/>
              <Attribute id="8593" value="0" name="mixToMono"/>
             </Attributes>
            </AMFile>
            <ScreenVMFile id="8594" start="10970" duration="463" scalar="1/1" mediaStart="20868/1" mediaDuration="463/1" trackNumber="0" src="4" >
             <Transformer>
              <VectorParam id="8595"  name="translation">
               <InterpolatingParam id="8596" interp="linr"  time="-9999999/1" value="0" leadInLength="0/1"  />
               <InterpolatingParam id="8597" interp="linr"  time="-9999999/1" value="0" leadInLength="0/1"  />
               <InterpolatingParam id="8598" interp="linr"  time="-9999999/1" value="0" leadInLength="0/1"  />
              </VectorParam>
              <VectorParam id="8599"  name="rotation">
               <InterpolatingParam id="8600" interp="linr"  time="-9999999/1" value="0" leadInLength="0/1"  />
               <InterpolatingParam id="8601" interp="linr"  time="-9999999/1" value="0" leadInLength="0/1"  />
               <InterpolatingParam id="8602" interp="linr"  time="-9999999/1" value="0" leadInLength="0/1"  />
              </VectorParam>
              <VectorParam id="8603"  name="shear">
               <InterpolatingParam id="8604" interp="linr"  time="-9999999/1" value="0" leadInLength="0/1"  />
               <InterpolatingParam id="8605" interp="linr"  time="-9999999/1" value="0" leadInLength="0/1"  />
               <InterpolatingParam id="8606" interp="linr"  time="-9999999/1" value="0" leadInLength="0/1"  />
              </VectorParam>
              <VectorParam id="8607"  name="scale">
               <InterpolatingParam id="8608" interp="linr"  time="-9999999/1" value="1" leadInLength="0/1"  />
               <InterpolatingParam id="8609" interp="linr"  time="-9999999/1" value="1" leadInLength="0/1"  />
               <InterpolatingParam id="8610" interp="linr"  time="-9999999/1" value="1" leadInLength="0/1"  />
              </VectorParam>
              <VectorParam id="8611"  name="anchor">
               <InterpolatingParam id="8612" interp="linr"  time="0/1" value="0" leadInLength="0/1"  />
               <InterpolatingParam id="8613" interp="linr"  time="0/1" value="0" leadInLength="0/1"  />
               <InterpolatingParam id="8614" interp="linr"  time="0/1" value="0" leadInLength="0/1"  />
              </VectorParam>
             </Transformer>
             <Parameters>
              <VectorParam id="8615"  name="sourceCrop">
               <InterpolatingParam id="8616" interp="linr"  time="0/1" value="0" leadInLength="0/1"  />
               <InterpolatingParam id="8617" interp="linr"  time="0/1" value="0" leadInLength="0/1"  />
               <InterpolatingParam id="8618" interp="linr"  time="0/1" value="0" leadInLength="0/1"  />
               <InterpolatingParam id="8619" interp="linr"  time="0/1" value="0" leadInLength="0/1"  />
              </VectorParam>
              <VectorParam id="8620"  name="geometryCrop">
               <InterpolatingParam id="8621" interp="linr"  time="-9999999/1" value="0" leadInLength="0/1"  />
               <InterpolatingParam id="8622" interp="linr"  time="-9999999/1" value="0" leadInLength="0/1"  />
               <InterpolatingParam id="8623" interp="linr"  time="-9999999/1" value="0" leadInLength="0/1"  />
               <InterpolatingParam id="8624" interp="linr"  time="-9999999/1" value="0" leadInLength="0/1"  />
              </VectorParam>
              <InterpolatingParam id="8625" interp="linr"  time="-9999999/1" value="1" leadInLength="0/1"  name="opacity"/>
              <InterpolatingParam id="8626" interp="linr"  time="0/1" value="0" leadInLength="0/1"  name="cursorOpacity"/>
              <InterpolatingParam id="8627" interp="linr"  time="0/1" value="0" leadInLength="0/1"  name="cursorScale"/>
             </Parameters>
             <Attributes>
              <Attribute id="8628" value="" name="ident"/>
             </Attributes>
             <ExtraData>
              <Entry key="ZoomPanBin">
               <ZoomPanBin id="8629"  >
                <ZoomPanKeyframes>
                 <ZoomPanKeyframe id="8630" timeRangeEnd="-9999999/1" timeRangeDuration="0/1" interpolaterName=""  />
                </ZoomPanKeyframes>
               </ZoomPanBin>
              </Entry>
              <Entry key="CursorEffectBin">
               <CursorEffectBin id="8631"  >
                <CursorEffectKeyframes>
                </CursorEffectKeyframes>
               </CursorEffectBin>
              </Entry>
             </ExtraData>
            </ScreenVMFile>
            <MetaData>
             <entry key="AutoAppliedSmartFocus" val="False"/>
             <entry key="WinSubProjectDisplayName" val=""/>
            </MetaData>
           </UnifiedMedia>
          </Medias>
         </GenericTrack>
        </StitchedMedia>
        <StitchedMedia id="8632" start="10604" duration="13" scalar="1/1" mediaStart="11360/1" mediaDuration="13/1" minMediaStart="0/1" >
         <Transformer>
          <VectorParam id="8633"  name="translation">
           <InterpolatingParam id="8634" interp="linr"  time="-9999999/1" value="-3.637978807091713e-010" leadInLength="0/1"  />
           <InterpolatingParam id="8635" interp="linr"  time="-9999999/1" value="9.2313712229952216e-011" leadInLength="0/1"  />
           <InterpolatingParam id="8636" interp="linr"  time="-9999999/1" value="0" leadInLength="0/1"  />
          </VectorParam>
          <VectorParam id="8637"  name="rotation">
           <InterpolatingParam id="8638" interp="linr"  time="-9999999/1" value="0" leadInLength="0/1"  />
           <InterpolatingParam id="8639" interp="linr"  time="-9999999/1" value="0" leadInLength="0/1"  />
           <InterpolatingParam id="8640" interp="linr"  time="-9999999/1" value="0" leadInLength="0/1"  />
          </VectorParam>
          <VectorParam id="8641"  name="shear">
           <InterpolatingParam id="8642" interp="linr"  time="-9999999/1" value="0" leadInLength="0/1"  />
           <InterpolatingParam id="8643" interp="linr"  time="-9999999/1" value="0" leadInLength="0/1"  />
           <InterpolatingParam id="8644" interp="linr"  time="-9999999/1" value="0" leadInLength="0/1"  />
          </VectorParam>
          <VectorParam id="8645"  name="scale">
           <InterpolatingParam id="8646" interp="linr"  time="-9999999/1" value="1" leadInLength="0/1"  />
           <InterpolatingParam id="8647" interp="linr"  time="-9999999/1" value="1" leadInLength="0/1"  />
           <InterpolatingParam id="8648" interp="linr"  time="-9999999/1" value="1" leadInLength="0/1"  />
          </VectorParam>
          <VectorParam id="8649"  name="anchor">
           <InterpolatingParam id="8650" interp="linr"  time="0/1" value="0" leadInLength="0/1"  />
           <InterpolatingParam id="8651" interp="linr"  time="0/1" value="0" leadInLength="0/1"  />
           <InterpolatingParam id="8652" interp="linr"  time="0/1" value="0" leadInLength="0/1"  />
          </VectorParam>
         </Transformer>
         <Parameters>
          <VectorParam id="8653"  name="sourceCrop">
           <InterpolatingParam id="8654" interp="linr"  time="0/1" value="0" leadInLength="0/1"  />
           <InterpolatingParam id="8655" interp="linr"  time="0/1" value="0" leadInLength="0/1"  />
           <InterpolatingParam id="8656" interp="linr"  time="0/1" value="0" leadInLength="0/1"  />
           <InterpolatingParam id="8657" interp="linr"  time="0/1" value="0" leadInLength="0/1"  />
          </VectorParam>
          <VectorParam id="8658"  name="geometryCrop">
           <InterpolatingParam id="8659" interp="linr"  time="-9999999/1" value="0" leadInLength="0/1"  />
           <InterpolatingParam id="8660" interp="linr"  time="-9999999/1" value="0" leadInLength="0/1"  />
           <InterpolatingParam id="8661" interp="linr"  time="-9999999/1" value="0" leadInLength="0/1"  />
           <InterpolatingParam id="8662" interp="linr"  time="-9999999/1" value="0" leadInLength="0/1"  />
          </VectorParam>
          <InterpolatingParam id="8663" interp="linr"  time="-9999999/1" value="1" leadInLength="0/1"  name="opacity"/>
          <InterpolatingParam id="8664" interp="linr"  time="0/1" value="1" leadInLength="0/1"  name="cursorOpacity"/>
          <InterpolatingParam id="8665" interp="linr"  time="0/1" value="1" leadInLength="0/1"  name="cursorScale"/>
          <InterpolatingParam id="8666" interp="linr"  name="volume">
           <Keyframes>
           <Keyframe id="8667"  time="0/1" value="1" leadInLength="0/1"  />
           <Keyframe id="8668"  time="457/1" value="1" leadInLength="0/1"  />
           <Keyframe id="8669"  time="458/1" value="1.5625" leadInLength="0/1"  />
           <Keyframe id="8670"  time="11876/1" value="1.5625" leadInLength="0/1"  />
           <Keyframe id="8671"  time="11877/1" value="1" leadInLength="0/1"  />
           </Keyframes>
          </InterpolatingParam>
          <Parameter id="8672"  name="captions"/>
         </Parameters>
         <Effects>
          <GenericEffect id="8673" name = "CursorBaseEffectName" >
           <Parameters>
           <InterpolatingParam id="8674" interp="linr"  time="-9999999/1" value="1" leadInLength="0/1"   name="cursorSize"/>
           <InterpolatingParam id="8675" interp="linr"  time="-9999999/1" value="0" leadInLength="0/1"   name="highlightBlurRadius"/>
           <InterpolatingParam id="8676" interp="linr"  time="-9999999/1" value="0" leadInLength="0/1"   name="highlightColorBlue"/>
           <InterpolatingParam id="8677" interp="linr"  time="-9999999/1" value="255" leadInLength="0/1"   name="highlightColorGreen"/>
           <InterpolatingParam id="8678" interp="linr"  time="-9999999/1" value="255" leadInLength="0/1"   name="highlightColorRed"/>
           <InterpolatingParam id="8679" interp="linr"  time="-9999999/1" value="5" leadInLength="0/1"   name="highlightFeatherSize"/>
           <InterpolatingParam id="8680" interp="linr"  time="-9999999/1" value="2" leadInLength="0/1"   name="highlightMagnification"/>
           <InterpolatingParam id="8681" interp="linr"  time="-9999999/1" value="1" leadInLength="0/1"   name="highlightOpacity"/>
           <InterpolatingParam id="8682" interp="linr"  time="-9999999/1" value="45" leadInLength="0/1"   name="highlightSize"/>
           <Parameter id="8683"   name="highlightType">
            <Keyframes>
            <Keyframe id="8684"  time="-9999999/1" value="0" leadInLength="0/1"  />
            </Keyframes>
           </Parameter>
           <InterpolatingParam id="8685" interp="linr"  time="-9999999/1" value="0" leadInLength="0/1"   name="leftClickColorBlue"/>
           <InterpolatingParam id="8686" interp="linr"  time="-9999999/1" value="0" leadInLength="0/1"   name="leftClickColorGreen"/>
           <InterpolatingParam id="8687" interp="linr"  time="-9999999/1" value="255" leadInLength="0/1"   name="leftClickColorRed"/>
           <InterpolatingParam id="8688" interp="linr"  time="-9999999/1" value="0.80000000000000004" leadInLength="0/1"   name="leftClickDuration"/>
           <InterpolatingParam id="8689" interp="linr"  time="-9999999/1" value="20" leadInLength="0/1"   name="leftClickSize"/>
           <Parameter id="8690"   name="leftClickSoundFilename">
            <Keyframes>
            <Keyframe id="8691"  time="-9999999/1" value="" leadInLength="0/1"  />
            </Keyframes>
           </Parameter>
           <InterpolatingParam id="8692" interp="linr"  time="-9999999/1" value="1" leadInLength="0/1"   name="leftClickSoundVolume"/>
           <Parameter id="8693"   name="leftClickType">
            <Keyframes>
            <Keyframe id="8694"  time="-9999999/1" value="0" leadInLength="0/1"  />
            </Keyframes>
           </Parameter>
           <InterpolatingParam id="8695" interp="linr"  time="-9999999/1" value="1" leadInLength="0/1"   name="opacity"/>
           <InterpolatingParam id="8696" interp="linr"  time="-9999999/1" value="255" leadInLength="0/1"   name="rightClickColorBlue"/>
           <InterpolatingParam id="8697" interp="linr"  time="-9999999/1" value="0" leadInLength="0/1"   name="rightClickColorGreen"/>
           <InterpolatingParam id="8698" interp="linr"  time="-9999999/1" value="0" leadInLength="0/1"   name="rightClickColorRed"/>
           <InterpolatingParam id="8699" interp="linr"  time="-9999999/1" value="0.80000000000000004" leadInLength="0/1"   name="rightClickDuration"/>
           <InterpolatingParam id="8700" interp="linr"  time="-9999999/1" value="20" leadInLength="0/1"   name="rightClickSize"/>
           <Parameter id="8701"   name="rightClickSoundFilename">
            <Keyframes>
            <Keyframe id="8702"  time="-9999999/1" value="" leadInLength="0/1"  />
            </Keyframes>
           </Parameter>
           <InterpolatingParam id="8703" interp="linr"  time="-9999999/1" value="1" leadInLength="0/1"   name="rightClickSoundVolume"/>
           <Parameter id="8704"   name="rightClickType">
            <Keyframes>
            <Keyframe id="8705"  time="-9999999/1" value="0" leadInLength="0/1"  />
            </Keyframes>
           </Parameter>
           </Parameters>
           <MetaData>
            <entry key="effectIndex" val="0"/>
           </MetaData>
          </GenericEffect>
          <GenericEffect id="8706" name = "WinCompression" >
           <Parameters>
           <InterpolatingParam id="8707" interp="linr"  time="0/1" value="0" leadInLength="0/1"   name="attack"/>
           <InterpolatingParam id="8708" interp="linr"  time="0/1" value="9" leadInLength="0/1"   name="gain"/>
           <Parameter id="8709"   name="preset">
            <Keyframes>
            <Keyframe id="8710"  time="0/1" value="1" leadInLength="0/1"  />
            </Keyframes>
           </Parameter>
           <InterpolatingParam id="8711" interp="linr"  time="0/1" value="10" leadInLength="0/1"   name="ratio"/>
           <InterpolatingParam id="8712" interp="linr"  time="0/1" value="3500" leadInLength="0/1"   name="release"/>
           <InterpolatingParam id="8713" interp="linr"  time="0/1" value="-20" leadInLength="0/1"   name="threshold"/>
           </Parameters>
           <MetaData>
            <entry key="effectIndex" val="1"/>
           </MetaData>
          </GenericEffect>
          <GenericEffect id="8714" name = "NoiseReduction" >
           <Parameters>
           <InterpolatingParam id="8715" interp="linr"  time="0/1" value="20" leadInLength="0/1"   name="denoiserAmount"/>
           <InterpolatingParam id="8716" interp="linr"  time="0/1" value="0" leadInLength="0/1"   name="denoiserThreshold"/>
           <Parameter id="8717"   name="noiseProfile">
            <Keyframes>
            <Keyframe id="8718"  time="0/1" value="FBAAAAIAAABErAAAAQIAADGZn8Lrc5XC/46fwmiBpMJZPZ3ChlWcwn0DqcIalKvCAiOpwmFNpcIm&#xD;&#xa;maLC9Qykwn41qsLFK67CwDavwjgzsMLfgK7CROmtwkxBscLwm7jC2ri/wq0dw8JfEMfCfk7GwiSf&#xD;&#xa;x8LC9cTCd5bIwlRmy8KgiMXCrEXCwgjkwMJmlb3CeOW9wlWHv8L3N7/C5hW5wj+3ucJMA8HCt7vD&#xD;&#xa;wmYGxcJQ2MrCJGfLwrLIx8IOa87CLHDYwhK018LYXNLCpeXRwvlb0sKYQdPC4ADVwmPF2MIR/NrC&#xD;&#xa;hFnbwh4Z3MKpItrCmmPZwrVP2sIvkNnCX27YwiOc1sKS7dbCIgzSwooMzsKomc7C73DQwrt+08LB&#xD;&#xa;+9bCVjbZwrj11cJaotXC15vZwsZh3MJv39jC7zrbwsJS28J1HNzCKSXbwmyS28KKat3COKvcwvaS&#xD;&#xa;28L31dbCVZnTwsx608KUgNDC5qbNwjQVzsJbic/CJB/OwiP+zcIgXNLCb/DTwhAX0sLy+NTCAUjZ&#xD;&#xa;wvD22MIRPN3CwBrgwldX38JaGuDC7VPhwi6338Lpn97CrJPewi0k4MLund3C4M3ewhy/3sLhP9/C&#xD;&#xa;8MrewsEU3sLnBt3C/nbcwtN64MIU6t7CKNbewsU84MIEXt7Cxg7gwoC638I/suDCGm/fwtqZ38KY&#xD;&#xa;BuHCo2/ewkQ+28KOmNjChHfZwirb3cJ23d3C9Qrcwiyh2sJ4UNvCFDHewoz43MKuydvCQHzawuLv&#xD;&#xa;3MK2b97CTubdwmAn3sKi+dzCAs3bwk4Z3cKuPt7CSoHewmhH4cLuH+DCrTbfwkSj4cI0+OHCcMbe&#xD;&#xa;wj1C38JxTuLC+sfhwuz75MJfGOXCRH7kwiwY4cLm59/Cfsvgwj3V4MILbt/CKNHewlpo3sKRSN7C&#xD;&#xa;xMvdwsoN3sK+3N7CXXbewkoP38I+3NvC7PLbwtgF3sJ2ld7CiJ3dwvKA3MLEld/CyD3hwqcy3sJy&#xD;&#xa;utzCKpThwgUz5MJm29/CgEXcwkrt3cLMmOHCNGHiwk424MIyHuLCK6vgwufe4MLyIOLCWPfhwrLJ&#xD;&#xa;4cJ2r+LCZHbjwlSQ4cLadODCQNDhwlru48LWJ+HCOBjgwtIR4cIIOOPCMVHiwgOf4sIoyuPCvLPl&#xD;&#xa;worq5sI+9uTCpmTjwggi48Jg0eLCGQzmwhDO48LhMuTCwNXlwnZC48Jjo+DCZJPhwnsK48LA7OXC&#xD;&#xa;B8rnwhAU48IKwOLCDgDiwo8X5MLAE+jCkuvkwiBv4sKO4ODC1Nfiwl4Q48KK7+LCIezjwoPf48J6&#xD;&#xa;Y+LCZuDfwoLD4sKO1uTCoJ7mwrdd5sJLkebCK5zmwqpe6sI23urCvcnswrZ17sJ4YurCgvnpwpCr&#xD;&#xa;6sLEOOnCHe3pwsLz6MIekenCLsLxwkYU8cLU7+7C8jvywkR58MI4uu7CeEPxwjhP88Ki7vHCTTP0&#xD;&#xa;wn7v8cItevLCUuz3wqnF98L8ifDC/ZnowsLY58Lxs+rCFrzrwhZs6cIWCOjCekPqwo7258IodufC&#xD;&#xa;uqzpwsZ06sIWjejCKd3mwt+O6MJk/evCFqLvwv4D9cKlKfjCMdf3wgA/+MKkC/nC1AP5ws9W+MLH&#xD;&#xa;bfbCT7/3wmpv98I4xvjC8N/5wuyV+MKoGvfCDm33wlS0+MKOxvnCIsP6wnIG+sJjp/fCku/3wvj/&#xD;&#xa;+cI+D/jCbNP3wvYF98L4BPnCuHL4wphw9sIlF/bCDM/1wlqf9sILBffCtH74wso5+cKkOvbC18D0&#xD;&#xa;wujK98KSRPvCJuP4wjQG+sKiBPrCG/H3wmSC+MIoDvrCzyv4wttP98Kk6vnC8Kb8wlJ1/cLqIfnC&#xD;&#xa;KUD2wich9sJcQ/fCgI34wjDF+MJ66vTCJvL1wsqu+sJCM/rC6MH5wkKd+8L+EfjC7P/2wlYo+sLc&#xD;&#xa;/fvC+LH6whbQ+sK8wvbCnrv1wmJB+sK8MPvCUsL3whhS+cKaHv3CuqP8wnrs+cLq7ffCrtv5wljC&#xD;&#xa;+MKw8PfCsmn5wjit+cKqdPbCMpj2wpir+MII5/XCPlP0wicU9sJ6RffCfMX4wu5O+MJ+YPbC6lf4&#xD;&#xa;ws54+cLE4PjCxr72wo6q+MKsOvjCmHb3wjIM+cLgyPjCFt33wlI5+cK0XPrCWLv3wlTy+MJ8CPjC&#xD;&#xa;sRz3woho9cKygPbCzKX3wszF98IQTvfCmYn1wmaC9sJu3PnCtnj5wpDg9sLAQ/bCIIn5wlrH+8Lm&#xD;&#xa;RfnCfJH5wsLE+cKId/rCTW/3wso298KMsPbC0Fb2wn029sK4G/rC4Nr7wuxE+sKAY/fCZDn4wh5q&#xD;&#xa;+cL4ifjCRqL1wl5G9sJCivfCbrX2wuZe9cKw4fXC2tz4wihd+8L8n/nCeo/6woJY+cKVnPXCmEv1&#xD;&#xa;wi+B98LIdvnCVAr8wvjH+8KsR/nCimz6wpBP+sIYCfrCIoT4wsp098ID1/bC4BP4wq6++MLqR/bC&#xD;&#xa;iA/2wkzX+MIubPvCQMD7wmjs+sJCX/fC0O/1wvb098IyiPnCxBP5woCi+MLvd/fC6jX4wrY/+sLu&#xD;&#xa;efnCACL4wpgG9cJa0fjCpHz5wh4T+sJsFPrCfm74wird+MJdSvfCY3n1wgYT9sKy8PjCZgX5wqQV&#xD;&#xa;+MIgAvfCYiz3whLv9cIQ7fXCCDz5wkzj+MIkYfnCUon3wlzU9cJge/fCW1P4wj9/9sJqVfXCAH31&#xD;&#xa;wiry9sJkfvjCXDD7wohq+sKeZvnCAVD3wpC69sJ7ZfjCWrb4wuIQ+MKEe/fCwAv5wjZE+cLucPjC&#xD;&#xa;Ssb5wjbt+sIKVvvCBDwFw3aVn8LLbpXCPImfwiSIpMIKRp3CDV2cwngPqcLOpKvC0SepwmRPpcKx&#xD;&#xa;nKLCWhqkwmU7qsK7GK7CPhKvwgU7sMKapK7CnPmtwv5IscI6q7jCXNS/wmXEw8IKYcfCcsfGwnS8&#xD;&#xa;yMJma8bCI1XJwpTvysIAzMTCNgXCwiy8wMJPd73CjrC9wkpov8JK477CJA25wpGcucLKLcDC7GbD&#xD;&#xa;wjK0xcISqcvCgs3KwlaRx8Lg4M3CPBvXwgDy1sK25tLCSO3SwgAw0sLQEdTCCrDXwrSI2cJHiNnC&#xD;&#xa;+vzZwg5t28IZv9jCJqvXwsew2cK+EdrCkgvawuIH2ML4PdfCOg/SwiKBzsIyws7CawjRwvAn1cLm&#xD;&#xa;5djC4lHXwlFF1sKMxdbCqRHbwgRB3cI9AdvCANnbwtL528LrFdzCT1nbwnbX28ICINvCbyPbwhCU&#xD;&#xa;2sJybtXC2KbVwpad1cJCtNHCaDDOwuJBzcLrs87CnM3OwkigzsIEwdHC7GbTwgqu0sL/ZNbCXsHY&#xD;&#xa;wtQ428Lc8dzCNITfwo+W4MLyYd7CyKHdwlY03cJW4N3C7MPcwiQ238Jiht/C2DTewq1N3sLGTt7C&#xD;&#xa;Cg7ewrTa3MJ+dN3C7kfdwmxX38Iiy97CD2rewl0848JWYOPClHDiwtKQ4cJR2ODC6JPdwj4w3sJB&#xD;&#xa;H9/C1UjfwqTY3cKM4trCG5HZwh8n3MKuZt/CC47fwhAt3MIWFd7Ci3newkyM38LKm+DCGlLewriz&#xD;&#xa;38IWwODC8jfewg6538I9gN3C+rzcwnp83sLBAeDCzsrewocf4cIIz9/CxczewhJ64cLYr+PCQPHg&#xD;&#xa;wjlj4cL0tOTC02ziwh1c38L2nt7CMn/fwsLc4cLuz+PCbsLjwlzo4MJ0Bt7C2A7cwvo+3MLcA97C&#xD;&#xa;VBvcwiJt3MJrh+DCooTewtt33cLaYNvCxuzbwhix2sKiddzCKpngwgac38LMD+HCG2Hewv3U3cLv&#xD;&#xa;yNzCgRXfwo404cIwi+DCDh3fwqUH38I6m9/CRcfhwvzs4sLCJeTCFBXiwvsM4cL2x+HCckPhwlC+&#xD;&#xa;4MJcWuLCLhTjwh5K4sJWhuHCdWjjwl515MK2j+PCar3gwmwM4MLS0+HC+aDhwgzg4MKLmODCIHbj&#xD;&#xa;wrwr5sKLAeXChqzjwugc4cLMTODCAZDjwkQA48KsveLCKv7iwuAZ4sLK7ODC2hPiwmS25MI8mOXC&#xD;&#xa;YPPlwnLc5MKpkeTCdHziwry84sL6RubC0IPlwlCp4MIuG+HCgGrjwsie4cL48uHCiLPjwu4548J8&#xD;&#xa;4eTCN6Hhws/K48IRx+jCPjznwtJD5MKQOubCwlznwj476sKNo+vCanfvwhNn7cI2QenChtnpwj9w&#xD;&#xa;7MI8dOnCDvnowuRV6MIWMejC5kvwwmgM8cL+ve/Ckpvywn4788KESe/CWCXvwk7m8MLa6fHCXkn0&#xD;&#xa;wiS48sKqvvTCIjL1wt0W9cIWBfPCJorswubo6cLlWunCorvrwtZK7cIC8evC5JXrwpAS6sKzEOnC&#xD;&#xa;qtLowrB66cIEG+nC8pDnwkqd6MJ+V+nCd7DrwgB68sJyGPjCVh/4wjwh+MIsZ/nCpCP6wrCs+MIG&#xD;&#xa;H/jCkKH5wgLL98KwiPjCdEv3wvPo9sLx7PTCevr2wpv798LQH/fCS/L1wgO198Iy3/rCvIb6woao&#xD;&#xa;+cJiVfvC/LL7wrwn+cJSCvbCXJ72wuRg+MIAhvjCINb2wgC7+MLObvjChLL3wvbN+MKcsPfCM0z3&#xD;&#xa;wg7x+MK0jfrC4gL6wn5n98Kne/XCVxP3wgYD9sIezPbCsJP6whB7+8KtgvfC3oL2wpZS98LmdfjC&#xD;&#xa;7mv4wqzC98I6JfbCra/2wv7D9cKCEfbCNhr6wnym+sLwkvjCyID3wlC7+MIGhPnCqm/5wg7z+cIq&#xD;&#xa;GfrC8vz3wnJC9sJ+1PfCcMX3wq5e+MKY0ffCUpL4wrsS+MJomffCspr4wqwD98JgIvnCRpj5wrhr&#xD;&#xa;+MKOEPrC3DT5wjLN98KA6fjCwHj3wp5f9MKeBvXCEUL2wlwn+cIKVPnCwOP4wqgg9sIQXfXCh3T3&#xD;&#xa;wuSz+MIUsvXCyvHzwvYY98IioPjCXIf4wkBN+sJclPrCEML0wtfm9sI2hPvCdmv7wmgq+8LuqffC&#xD;&#xa;pmn1wr1X9cKQEPTCxUXzwpjz9cJUyfXC25/1wtjM+MJKG/vCElv4wigp98Ku+vbCuID3wgCp9sLg&#xD;&#xa;fPbCVnv5wt5S/MKW5/vCSM/6wqp/+8K03f3C0tr7wsiD+cJwuPfCttn2wng79sK4EfjCIBX7wqhS&#xD;&#xa;+MInsffCMu32wiM19cJDg/TCxH33wgqa+MJwPvvC0MT4wrBx98KoXPfCilH0wkBG9cKMtfjCzWn1&#xD;&#xa;wo6898Je3/nCeFr6wlK/98Jj6PfCevX6wqqL+MJBIfjCiHz5wqqU+MICR/fC9u74wgbu+ML6p/fC&#xD;&#xa;n1X4wlkG+MKYZfrC0MT6whwi98LwPPXCJN/4wgy098Le9PfCMgj3whpG9sISDvXCwFf2ws/898Ka&#xD;&#xa;LPnCvST4wk8+9sIsKfXCdun2wiOn9cKmYPfCJED6wh4z+sLBDvjC1fD2wgQm9sL+qPbC4E70wtB3&#xD;&#xa;9sLIOvvCRkr6wmsp98J4wvfCzEj4wuTd9sIkMvnCoiP5wmm19sKPdvfCYtL3wpRy9cJGCPbC/5D2&#xD;&#xa;wsjX9sJiDPjC2sj5wl8v+MIqTPfCsqz0wjRX9MIv//fC7nf6wvpO+sKIhvnC4oP4wqb898K0wPbC&#xD;&#xa;3n72wsEL9cKk+vTCpJgC" leadInLength="0/1"  />
            </Keyframes>
           </Parameter>
           </Parameters>
           <MetaData>
            <entry key="effectIndex" val="2"/>
           </MetaData>
          </GenericEffect>
         </Effects>
         <Attributes>
          <Attribute id="8719" value="" name="ident"/>
          <Attribute id="8720" value="0" name="mixToMono"/>
         </Attributes>
         <MetaData>
          <entry key="AutoAppliedSmartFocus" val="False"/>
          <entry key="WinSubProjectDisplayName" val=""/>
         </MetaData>
         <ExtraData>
          <Entry key="ZoomPanBin">
           <ZoomPanBin id="8721"  >
            <ZoomPanKeyframes>
             <ZoomPanKeyframe id="8722" timeRangeEnd="-9999999/1" timeRangeDuration="0/1" interpolaterName=""  />
            </ZoomPanKeyframes>
           </ZoomPanBin>
          </Entry>
          <Entry key="CursorEffectBin">
           <CursorEffectBin id="8723"  >
            <CursorEffectKeyframes>
             <CursorEffectKeyframe id="8724" timeRangeEnd="-9999999/1" timeRangeDuration="0/1" interpolaterName=""  />
            </CursorEffectKeyframes>
           </CursorEffectBin>
          </Entry>
         </ExtraData>
         <GenericTrack id="8725"  >
          <Attributes>
           <Attribute id="8726" value="" name="ident"/>
           <Attribute id="8727" value="0" name="audioMuted"/>
           <Attribute id="8728" value="0" name="videoHidden"/>
          </Attributes>
          <MetaData>
           <entry key="IsLocked" val="False"/>
           <entry key="WinTrackHeight" val="0"/>
          </MetaData>
          <Medias>
           <UnifiedMedia id="8729"  >
            <AMFile id="8730" start="0" duration="802" scalar="1/1" mediaStart="0/1" mediaDuration="802/1" trackNumber="1" src="4" channelNumber="0,1" >
             <Parameters>
              <InterpolatingParam id="8731" interp="linr"  time="0/1" value="1" leadInLength="0/1"  name="volume"/>
              <Parameter id="8732"  name="captions"/>
             </Parameters>
             <Attributes>
              <Attribute id="8733" value="" name="ident"/>
              <Attribute id="8734" value="44100" name="sampleRate"/>
              <Attribute id="8735" value="16" name="bitDepth"/>
              <Attribute id="8736" value="1" name="gain"/>
              <Attribute id="8737" value="0" name="mixToMono"/>
             </Attributes>
            </AMFile>
            <ScreenVMFile id="8738" start="0" duration="802" scalar="1/1" mediaStart="0/1" mediaDuration="802/1" trackNumber="0" src="4" >
             <Transformer>
              <VectorParam id="8739"  name="translation">
               <InterpolatingParam id="8740" interp="linr"  time="-9999999/1" value="0" leadInLength="0/1"  />
               <InterpolatingParam id="8741" interp="linr"  time="-9999999/1" value="0" leadInLength="0/1"  />
               <InterpolatingParam id="8742" interp="linr"  time="-9999999/1" value="0" leadInLength="0/1"  />
              </VectorParam>
              <VectorParam id="8743"  name="rotation">
               <InterpolatingParam id="8744" interp="linr"  time="-9999999/1" value="0" leadInLength="0/1"  />
               <InterpolatingParam id="8745" interp="linr"  time="-9999999/1" value="0" leadInLength="0/1"  />
               <InterpolatingParam id="8746" interp="linr"  time="-9999999/1" value="0" leadInLength="0/1"  />
              </VectorParam>
              <VectorParam id="8747"  name="shear">
               <InterpolatingParam id="8748" interp="linr"  time="-9999999/1" value="0" leadInLength="0/1"  />
               <InterpolatingParam id="8749" interp="linr"  time="-9999999/1" value="0" leadInLength="0/1"  />
               <InterpolatingParam id="8750" interp="linr"  time="-9999999/1" value="0" leadInLength="0/1"  />
              </VectorParam>
              <VectorParam id="8751"  name="scale">
               <InterpolatingParam id="8752" interp="linr"  time="-9999999/1" value="1" leadInLength="0/1"  />
               <InterpolatingParam id="8753" interp="linr"  time="-9999999/1" value="1" leadInLength="0/1"  />
               <InterpolatingParam id="8754" interp="linr"  time="-9999999/1" value="1" leadInLength="0/1"  />
              </VectorParam>
              <VectorParam id="8755"  name="anchor">
               <InterpolatingParam id="8756" interp="linr"  time="0/1" value="0" leadInLength="0/1"  />
               <InterpolatingParam id="8757" interp="linr"  time="0/1" value="0" leadInLength="0/1"  />
               <InterpolatingParam id="8758" interp="linr"  time="0/1" value="0" leadInLength="0/1"  />
              </VectorParam>
             </Transformer>
             <Parameters>
              <VectorParam id="8759"  name="sourceCrop">
               <InterpolatingParam id="8760" interp="linr"  time="0/1" value="0" leadInLength="0/1"  />
               <InterpolatingParam id="8761" interp="linr"  time="0/1" value="0" leadInLength="0/1"  />
               <InterpolatingParam id="8762" interp="linr"  time="0/1" value="0" leadInLength="0/1"  />
               <InterpolatingParam id="8763" interp="linr"  time="0/1" value="0" leadInLength="0/1"  />
              </VectorParam>
              <VectorParam id="8764"  name="geometryCrop">
               <InterpolatingParam id="8765" interp="linr"  time="-9999999/1" value="0" leadInLength="0/1"  />
               <InterpolatingParam id="8766" interp="linr"  time="-9999999/1" value="0" leadInLength="0/1"  />
               <InterpolatingParam id="8767" interp="linr"  time="-9999999/1" value="0" leadInLength="0/1"  />
               <InterpolatingParam id="8768" interp="linr"  time="-9999999/1" value="0" leadInLength="0/1"  />
              </VectorParam>
              <InterpolatingParam id="8769" interp="linr"  time="-9999999/1" value="1" leadInLength="0/1"  name="opacity"/>
              <InterpolatingParam id="8770" interp="linr"  time="0/1" value="0" leadInLength="0/1"  name="cursorOpacity"/>
              <InterpolatingParam id="8771" interp="linr"  time="0/1" value="0" leadInLength="0/1"  name="cursorScale"/>
             </Parameters>
             <Attributes>
              <Attribute id="8772" value="" name="ident"/>
             </Attributes>
             <ExtraData>
              <Entry key="ZoomPanBin">
               <ZoomPanBin id="8773"  >
                <ZoomPanKeyframes>
                 <ZoomPanKeyframe id="8774" timeRangeEnd="-9999999/1" timeRangeDuration="0/1" interpolaterName=""  />
                </ZoomPanKeyframes>
               </ZoomPanBin>
              </Entry>
              <Entry key="CursorEffectBin">
               <CursorEffectBin id="8775"  >
                <CursorEffectKeyframes>
                </CursorEffectKeyframes>
               </CursorEffectBin>
              </Entry>
             </ExtraData>
            </ScreenVMFile>
            <MetaData>
             <entry key="AutoAppliedSmartFocus" val="False"/>
             <entry key="WinSubProjectDisplayName" val=""/>
            </MetaData>
           </UnifiedMedia>
           <UnifiedMedia id="8776"  >
            <AMFile id="8777" start="802" duration="158" scalar="1/1" mediaStart="892/1" mediaDuration="158/1" trackNumber="1" src="4" channelNumber="0,1" >
             <Parameters>
              <InterpolatingParam id="8778" interp="linr"  time="0/1" value="1" leadInLength="0/1"  name="volume"/>
              <Parameter id="8779"  name="captions"/>
             </Parameters>
             <Attributes>
              <Attribute id="8780" value="" name="ident"/>
              <Attribute id="8781" value="44100" name="sampleRate"/>
              <Attribute id="8782" value="16" name="bitDepth"/>
              <Attribute id="8783" value="1" name="gain"/>
              <Attribute id="8784" value="0" name="mixToMono"/>
             </Attributes>
            </AMFile>
            <ScreenVMFile id="8785" start="802" duration="158" scalar="1/1" mediaStart="892/1" mediaDuration="158/1" trackNumber="0" src="4" >
             <Transformer>
              <VectorParam id="8786"  name="translation">
               <InterpolatingParam id="8787" interp="linr"  time="-9999999/1" value="0" leadInLength="0/1"  />
               <InterpolatingParam id="8788" interp="linr"  time="-9999999/1" value="0" leadInLength="0/1"  />
               <InterpolatingParam id="8789" interp="linr"  time="-9999999/1" value="0" leadInLength="0/1"  />
              </VectorParam>
              <VectorParam id="8790"  name="rotation">
               <InterpolatingParam id="8791" interp="linr"  time="-9999999/1" value="0" leadInLength="0/1"  />
               <InterpolatingParam id="8792" interp="linr"  time="-9999999/1" value="0" leadInLength="0/1"  />
               <InterpolatingParam id="8793" interp="linr"  time="-9999999/1" value="0" leadInLength="0/1"  />
              </VectorParam>
              <VectorParam id="8794"  name="shear">
               <InterpolatingParam id="8795" interp="linr"  time="-9999999/1" value="0" leadInLength="0/1"  />
               <InterpolatingParam id="8796" interp="linr"  time="-9999999/1" value="0" leadInLength="0/1"  />
               <InterpolatingParam id="8797" interp="linr"  time="-9999999/1" value="0" leadInLength="0/1"  />
              </VectorParam>
              <VectorParam id="8798"  name="scale">
               <InterpolatingParam id="8799" interp="linr"  time="-9999999/1" value="1" leadInLength="0/1"  />
               <InterpolatingParam id="8800" interp="linr"  time="-9999999/1" value="1" leadInLength="0/1"  />
               <InterpolatingParam id="8801" interp="linr"  time="-9999999/1" value="1" leadInLength="0/1"  />
              </VectorParam>
              <VectorParam id="8802"  name="anchor">
               <InterpolatingParam id="8803" interp="linr"  time="0/1" value="0" leadInLength="0/1"  />
               <InterpolatingParam id="8804" interp="linr"  time="0/1" value="0" leadInLength="0/1"  />
               <InterpolatingParam id="8805" interp="linr"  time="0/1" value="0" leadInLength="0/1"  />
              </VectorParam>
             </Transformer>
             <Parameters>
              <VectorParam id="8806"  name="sourceCrop">
               <InterpolatingParam id="8807" interp="linr"  time="0/1" value="0" leadInLength="0/1"  />
               <InterpolatingParam id="8808" interp="linr"  time="0/1" value="0" leadInLength="0/1"  />
               <InterpolatingParam id="8809" interp="linr"  time="0/1" value="0" leadInLength="0/1"  />
               <InterpolatingParam id="8810" interp="linr"  time="0/1" value="0" leadInLength="0/1"  />
              </VectorParam>
              <VectorParam id="8811"  name="geometryCrop">
               <InterpolatingParam id="8812" interp="linr"  time="-9999999/1" value="0" leadInLength="0/1"  />
               <InterpolatingParam id="8813" interp="linr"  time="-9999999/1" value="0" leadInLength="0/1"  />
               <InterpolatingParam id="8814" interp="linr"  time="-9999999/1" value="0" leadInLength="0/1"  />
               <InterpolatingParam id="8815" interp="linr"  time="-9999999/1" value="0" leadInLength="0/1"  />
              </VectorParam>
              <InterpolatingParam id="8816" interp="linr"  time="-9999999/1" value="1" leadInLength="0/1"  name="opacity"/>
              <InterpolatingParam id="8817" interp="linr"  time="0/1" value="0" leadInLength="0/1"  name="cursorOpacity"/>
              <InterpolatingParam id="8818" interp="linr"  time="0/1" value="0" leadInLength="0/1"  name="cursorScale"/>
             </Parameters>
             <Attributes>
              <Attribute id="8819" value="" name="ident"/>
             </Attributes>
             <ExtraData>
              <Entry key="ZoomPanBin">
               <ZoomPanBin id="8820"  >
                <ZoomPanKeyframes>
                 <ZoomPanKeyframe id="8821" timeRangeEnd="-9999999/1" timeRangeDuration="0/1" interpolaterName=""  />
                </ZoomPanKeyframes>
               </ZoomPanBin>
              </Entry>
              <Entry key="CursorEffectBin">
               <CursorEffectBin id="8822"  >
                <CursorEffectKeyframes>
                </CursorEffectKeyframes>
               </CursorEffectBin>
              </Entry>
             </ExtraData>
            </ScreenVMFile>
            <MetaData>
             <entry key="AutoAppliedSmartFocus" val="False"/>
             <entry key="WinSubProjectDisplayName" val=""/>
            </MetaData>
           </UnifiedMedia>
           <UnifiedMedia id="8823"  >
            <AMFile id="8824" start="960" duration="202" scalar="1/1" mediaStart="1118/1" mediaDuration="202/1" trackNumber="1" src="4" channelNumber="0,1" >
             <Parameters>
              <InterpolatingParam id="8825" interp="linr"  time="0/1" value="1" leadInLength="0/1"  name="volume"/>
              <Parameter id="8826"  name="captions"/>
             </Parameters>
             <Attributes>
              <Attribute id="8827" value="" name="ident"/>
              <Attribute id="8828" value="44100" name="sampleRate"/>
              <Attribute id="8829" value="16" name="bitDepth"/>
              <Attribute id="8830" value="1" name="gain"/>
              <Attribute id="8831" value="0" name="mixToMono"/>
             </Attributes>
            </AMFile>
            <ScreenVMFile id="8832" start="960" duration="202" scalar="1/1" mediaStart="1118/1" mediaDuration="202/1" trackNumber="0" src="4" >
             <Transformer>
              <VectorParam id="8833"  name="translation">
               <InterpolatingParam id="8834" interp="linr"  time="-9999999/1" value="0" leadInLength="0/1"  />
               <InterpolatingParam id="8835" interp="linr"  time="-9999999/1" value="0" leadInLength="0/1"  />
               <InterpolatingParam id="8836" interp="linr"  time="-9999999/1" value="0" leadInLength="0/1"  />
              </VectorParam>
              <VectorParam id="8837"  name="rotation">
               <InterpolatingParam id="8838" interp="linr"  time="-9999999/1" value="0" leadInLength="0/1"  />
               <InterpolatingParam id="8839" interp="linr"  time="-9999999/1" value="0" leadInLength="0/1"  />
               <InterpolatingParam id="8840" interp="linr"  time="-9999999/1" value="0" leadInLength="0/1"  />
              </VectorParam>
              <VectorParam id="8841"  name="shear">
               <InterpolatingParam id="8842" interp="linr"  time="-9999999/1" value="0" leadInLength="0/1"  />
               <InterpolatingParam id="8843" interp="linr"  time="-9999999/1" value="0" leadInLength="0/1"  />
               <InterpolatingParam id="8844" interp="linr"  time="-9999999/1" value="0" leadInLength="0/1"  />
              </VectorParam>
              <VectorParam id="8845"  name="scale">
               <InterpolatingParam id="8846" interp="linr"  time="-9999999/1" value="1" leadInLength="0/1"  />
               <InterpolatingParam id="8847" interp="linr"  time="-9999999/1" value="1" leadInLength="0/1"  />
               <InterpolatingParam id="8848" interp="linr"  time="-9999999/1" value="1" leadInLength="0/1"  />
              </VectorParam>
              <VectorParam id="8849"  name="anchor">
               <InterpolatingParam id="8850" interp="linr"  time="0/1" value="0" leadInLength="0/1"  />
               <InterpolatingParam id="8851" interp="linr"  time="0/1" value="0" leadInLength="0/1"  />
               <InterpolatingParam id="8852" interp="linr"  time="0/1" value="0" leadInLength="0/1"  />
              </VectorParam>
             </Transformer>
             <Parameters>
              <VectorParam id="8853"  name="sourceCrop">
               <InterpolatingParam id="8854" interp="linr"  time="0/1" value="0" leadInLength="0/1"  />
               <InterpolatingParam id="8855" interp="linr"  time="0/1" value="0" leadInLength="0/1"  />
               <InterpolatingParam id="8856" interp="linr"  time="0/1" value="0" leadInLength="0/1"  />
               <InterpolatingParam id="8857" interp="linr"  time="0/1" value="0" leadInLength="0/1"  />
              </VectorParam>
              <VectorParam id="8858"  name="geometryCrop">
               <InterpolatingParam id="8859" interp="linr"  time="-9999999/1" value="0" leadInLength="0/1"  />
               <InterpolatingParam id="8860" interp="linr"  time="-9999999/1" value="0" leadInLength="0/1"  />
               <InterpolatingParam id="8861" interp="linr"  time="-9999999/1" value="0" leadInLength="0/1"  />
               <InterpolatingParam id="8862" interp="linr"  time="-9999999/1" value="0" leadInLength="0/1"  />
              </VectorParam>
              <InterpolatingParam id="8863" interp="linr"  time="-9999999/1" value="1" leadInLength="0/1"  name="opacity"/>
              <InterpolatingParam id="8864" interp="linr"  time="0/1" value="0" leadInLength="0/1"  name="cursorOpacity"/>
              <InterpolatingParam id="8865" interp="linr"  time="0/1" value="0" leadInLength="0/1"  name="cursorScale"/>
             </Parameters>
             <Attributes>
              <Attribute id="8866" value="" name="ident"/>
             </Attributes>
             <ExtraData>
              <Entry key="ZoomPanBin">
               <ZoomPanBin id="8867"  >
                <ZoomPanKeyframes>
                 <ZoomPanKeyframe id="8868" timeRangeEnd="-9999999/1" timeRangeDuration="0/1" interpolaterName=""  />
                </ZoomPanKeyframes>
               </ZoomPanBin>
              </Entry>
              <Entry key="CursorEffectBin">
               <CursorEffectBin id="8869"  >
                <CursorEffectKeyframes>
                </CursorEffectKeyframes>
               </CursorEffectBin>
              </Entry>
             </ExtraData>
            </ScreenVMFile>
            <MetaData>
             <entry key="AutoAppliedSmartFocus" val="False"/>
             <entry key="WinSubProjectDisplayName" val=""/>
            </MetaData>
           </UnifiedMedia>
           <UnifiedMedia id="8870"  >
            <AMFile id="8871" start="1162" duration="51" scalar="1/1" mediaStart="1334/1" mediaDuration="51/1" trackNumber="1" src="4" channelNumber="0,1" >
             <Parameters>
              <InterpolatingParam id="8872" interp="linr"  time="0/1" value="1" leadInLength="0/1"  name="volume"/>
              <Parameter id="8873"  name="captions"/>
             </Parameters>
             <Attributes>
              <Attribute id="8874" value="" name="ident"/>
              <Attribute id="8875" value="44100" name="sampleRate"/>
              <Attribute id="8876" value="16" name="bitDepth"/>
              <Attribute id="8877" value="1" name="gain"/>
              <Attribute id="8878" value="0" name="mixToMono"/>
             </Attributes>
            </AMFile>
            <ScreenVMFile id="8879" start="1162" duration="51" scalar="1/1" mediaStart="1334/1" mediaDuration="51/1" trackNumber="0" src="4" >
             <Transformer>
              <VectorParam id="8880"  name="translation">
               <InterpolatingParam id="8881" interp="linr"  time="-9999999/1" value="0" leadInLength="0/1"  />
               <InterpolatingParam id="8882" interp="linr"  time="-9999999/1" value="0" leadInLength="0/1"  />
               <InterpolatingParam id="8883" interp="linr"  time="-9999999/1" value="0" leadInLength="0/1"  />
              </VectorParam>
              <VectorParam id="8884"  name="rotation">
               <InterpolatingParam id="8885" interp="linr"  time="-9999999/1" value="0" leadInLength="0/1"  />
               <InterpolatingParam id="8886" interp="linr"  time="-9999999/1" value="0" leadInLength="0/1"  />
               <InterpolatingParam id="8887" interp="linr"  time="-9999999/1" value="0" leadInLength="0/1"  />
              </VectorParam>
              <VectorParam id="8888"  name="shear">
               <InterpolatingParam id="8889" interp="linr"  time="-9999999/1" value="0" leadInLength="0/1"  />
               <InterpolatingParam id="8890" interp="linr"  time="-9999999/1" value="0" leadInLength="0/1"  />
               <InterpolatingParam id="8891" interp="linr"  time="-9999999/1" value="0" leadInLength="0/1"  />
              </VectorParam>
              <VectorParam id="8892"  name="scale">
               <InterpolatingParam id="8893" interp="linr"  time="-9999999/1" value="1" leadInLength="0/1"  />
               <InterpolatingParam id="8894" interp="linr"  time="-9999999/1" value="1" leadInLength="0/1"  />
               <InterpolatingParam id="8895" interp="linr"  time="-9999999/1" value="1" leadInLength="0/1"  />
              </VectorParam>
              <VectorParam id="8896"  name="anchor">
               <InterpolatingParam id="8897" interp="linr"  time="0/1" value="0" leadInLength="0/1"  />
               <InterpolatingParam id="8898" interp="linr"  time="0/1" value="0" leadInLength="0/1"  />
               <InterpolatingParam id="8899" interp="linr"  time="0/1" value="0" leadInLength="0/1"  />
              </VectorParam>
             </Transformer>
             <Parameters>
              <VectorParam id="8900"  name="sourceCrop">
               <InterpolatingParam id="8901" interp="linr"  time="0/1" value="0" leadInLength="0/1"  />
               <InterpolatingParam id="8902" interp="linr"  time="0/1" value="0" leadInLength="0/1"  />
               <InterpolatingParam id="8903" interp="linr"  time="0/1" value="0" leadInLength="0/1"  />
               <InterpolatingParam id="8904" interp="linr"  time="0/1" value="0" leadInLength="0/1"  />
              </VectorParam>
              <VectorParam id="8905"  name="geometryCrop">
               <InterpolatingParam id="8906" interp="linr"  time="-9999999/1" value="0" leadInLength="0/1"  />
               <InterpolatingParam id="8907" interp="linr"  time="-9999999/1" value="0" leadInLength="0/1"  />
               <InterpolatingParam id="8908" interp="linr"  time="-9999999/1" value="0" leadInLength="0/1"  />
               <InterpolatingParam id="8909" interp="linr"  time="-9999999/1" value="0" leadInLength="0/1"  />
              </VectorParam>
              <InterpolatingParam id="8910" interp="linr"  time="-9999999/1" value="1" leadInLength="0/1"  name="opacity"/>
              <InterpolatingParam id="8911" interp="linr"  time="0/1" value="0" leadInLength="0/1"  name="cursorOpacity"/>
              <InterpolatingParam id="8912" interp="linr"  time="0/1" value="0" leadInLength="0/1"  name="cursorScale"/>
             </Parameters>
             <Attributes>
              <Attribute id="8913" value="" name="ident"/>
             </Attributes>
             <ExtraData>
              <Entry key="ZoomPanBin">
               <ZoomPanBin id="8914"  >
                <ZoomPanKeyframes>
                 <ZoomPanKeyframe id="8915" timeRangeEnd="-9999999/1" timeRangeDuration="0/1" interpolaterName=""  />
                </ZoomPanKeyframes>
               </ZoomPanBin>
              </Entry>
              <Entry key="CursorEffectBin">
               <CursorEffectBin id="8916"  >
                <CursorEffectKeyframes>
                </CursorEffectKeyframes>
               </CursorEffectBin>
              </Entry>
             </ExtraData>
            </ScreenVMFile>
            <MetaData>
             <entry key="AutoAppliedSmartFocus" val="False"/>
             <entry key="WinSubProjectDisplayName" val=""/>
            </MetaData>
           </UnifiedMedia>
           <UnifiedMedia id="8917"  >
            <AMFile id="8918" start="1213" duration="159" scalar="1/1" mediaStart="1396/1" mediaDuration="159/1" trackNumber="1" src="4" channelNumber="0,1" >
             <Parameters>
              <InterpolatingParam id="8919" interp="linr"  time="0/1" value="1" leadInLength="0/1"  name="volume"/>
              <Parameter id="8920"  name="captions"/>
             </Parameters>
             <Attributes>
              <Attribute id="8921" value="" name="ident"/>
              <Attribute id="8922" value="44100" name="sampleRate"/>
              <Attribute id="8923" value="16" name="bitDepth"/>
              <Attribute id="8924" value="1" name="gain"/>
              <Attribute id="8925" value="0" name="mixToMono"/>
             </Attributes>
            </AMFile>
            <ScreenVMFile id="8926" start="1213" duration="159" scalar="1/1" mediaStart="1396/1" mediaDuration="159/1" trackNumber="0" src="4" >
             <Transformer>
              <VectorParam id="8927"  name="translation">
               <InterpolatingParam id="8928" interp="linr"  time="-9999999/1" value="0" leadInLength="0/1"  />
               <InterpolatingParam id="8929" interp="linr"  time="-9999999/1" value="0" leadInLength="0/1"  />
               <InterpolatingParam id="8930" interp="linr"  time="-9999999/1" value="0" leadInLength="0/1"  />
              </VectorParam>
              <VectorParam id="8931"  name="rotation">
               <InterpolatingParam id="8932" interp="linr"  time="-9999999/1" value="0" leadInLength="0/1"  />
               <InterpolatingParam id="8933" interp="linr"  time="-9999999/1" value="0" leadInLength="0/1"  />
               <InterpolatingParam id="8934" interp="linr"  time="-9999999/1" value="0" leadInLength="0/1"  />
              </VectorParam>
              <VectorParam id="8935"  name="shear">
               <InterpolatingParam id="8936" interp="linr"  time="-9999999/1" value="0" leadInLength="0/1"  />
               <InterpolatingParam id="8937" interp="linr"  time="-9999999/1" value="0" leadInLength="0/1"  />
               <InterpolatingParam id="8938" interp="linr"  time="-9999999/1" value="0" leadInLength="0/1"  />
              </VectorParam>
              <VectorParam id="8939"  name="scale">
               <InterpolatingParam id="8940" interp="linr"  time="-9999999/1" value="1" leadInLength="0/1"  />
               <InterpolatingParam id="8941" interp="linr"  time="-9999999/1" value="1" leadInLength="0/1"  />
               <InterpolatingParam id="8942" interp="linr"  time="-9999999/1" value="1" leadInLength="0/1"  />
              </VectorParam>
              <VectorParam id="8943"  name="anchor">
               <InterpolatingParam id="8944" interp="linr"  time="0/1" value="0" leadInLength="0/1"  />
               <InterpolatingParam id="8945" interp="linr"  time="0/1" value="0" leadInLength="0/1"  />
               <InterpolatingParam id="8946" interp="linr"  time="0/1" value="0" leadInLength="0/1"  />
              </VectorParam>
             </Transformer>
             <Parameters>
              <VectorParam id="8947"  name="sourceCrop">
               <InterpolatingParam id="8948" interp="linr"  time="0/1" value="0" leadInLength="0/1"  />
               <InterpolatingParam id="8949" interp="linr"  time="0/1" value="0" leadInLength="0/1"  />
               <InterpolatingParam id="8950" interp="linr"  time="0/1" value="0" leadInLength="0/1"  />
               <InterpolatingParam id="8951" interp="linr"  time="0/1" value="0" leadInLength="0/1"  />
              </VectorParam>
              <VectorParam id="8952"  name="geometryCrop">
               <InterpolatingParam id="8953" interp="linr"  time="-9999999/1" value="0" leadInLength="0/1"  />
               <InterpolatingParam id="8954" interp="linr"  time="-9999999/1" value="0" leadInLength="0/1"  />
               <InterpolatingParam id="8955" interp="linr"  time="-9999999/1" value="0" leadInLength="0/1"  />
               <InterpolatingParam id="8956" interp="linr"  time="-9999999/1" value="0" leadInLength="0/1"  />
              </VectorParam>
              <InterpolatingParam id="8957" interp="linr"  time="-9999999/1" value="1" leadInLength="0/1"  name="opacity"/>
              <InterpolatingParam id="8958" interp="linr"  time="0/1" value="0" leadInLength="0/1"  name="cursorOpacity"/>
              <InterpolatingParam id="8959" interp="linr"  time="0/1" value="0" leadInLength="0/1"  name="cursorScale"/>
             </Parameters>
             <Attributes>
              <Attribute id="8960" value="" name="ident"/>
             </Attributes>
             <ExtraData>
              <Entry key="ZoomPanBin">
               <ZoomPanBin id="8961"  >
                <ZoomPanKeyframes>
                 <ZoomPanKeyframe id="8962" timeRangeEnd="-9999999/1" timeRangeDuration="0/1" interpolaterName=""  />
                </ZoomPanKeyframes>
               </ZoomPanBin>
              </Entry>
              <Entry key="CursorEffectBin">
               <CursorEffectBin id="8963"  >
                <CursorEffectKeyframes>
                </CursorEffectKeyframes>
               </CursorEffectBin>
              </Entry>
             </ExtraData>
            </ScreenVMFile>
            <MetaData>
             <entry key="AutoAppliedSmartFocus" val="False"/>
             <entry key="WinSubProjectDisplayName" val=""/>
            </MetaData>
           </UnifiedMedia>
           <UnifiedMedia id="8964"  >
            <AMFile id="8965" start="1372" duration="37" scalar="1/1" mediaStart="1563/1" mediaDuration="37/1" trackNumber="1" src="4" channelNumber="0,1" >
             <Parameters>
              <InterpolatingParam id="8966" interp="linr"  time="0/1" value="1" leadInLength="0/1"  name="volume"/>
              <Parameter id="8967"  name="captions"/>
             </Parameters>
             <Attributes>
              <Attribute id="8968" value="" name="ident"/>
              <Attribute id="8969" value="44100" name="sampleRate"/>
              <Attribute id="8970" value="16" name="bitDepth"/>
              <Attribute id="8971" value="1" name="gain"/>
              <Attribute id="8972" value="0" name="mixToMono"/>
             </Attributes>
            </AMFile>
            <ScreenVMFile id="8973" start="1372" duration="37" scalar="1/1" mediaStart="1563/1" mediaDuration="37/1" trackNumber="0" src="4" >
             <Transformer>
              <VectorParam id="8974"  name="translation">
               <InterpolatingParam id="8975" interp="linr"  time="-9999999/1" value="0" leadInLength="0/1"  />
               <InterpolatingParam id="8976" interp="linr"  time="-9999999/1" value="0" leadInLength="0/1"  />
               <InterpolatingParam id="8977" interp="linr"  time="-9999999/1" value="0" leadInLength="0/1"  />
              </VectorParam>
              <VectorParam id="8978"  name="rotation">
               <InterpolatingParam id="8979" interp="linr"  time="-9999999/1" value="0" leadInLength="0/1"  />
               <InterpolatingParam id="8980" interp="linr"  time="-9999999/1" value="0" leadInLength="0/1"  />
               <InterpolatingParam id="8981" interp="linr"  time="-9999999/1" value="0" leadInLength="0/1"  />
              </VectorParam>
              <VectorParam id="8982"  name="shear">
               <InterpolatingParam id="8983" interp="linr"  time="-9999999/1" value="0" leadInLength="0/1"  />
               <InterpolatingParam id="8984" interp="linr"  time="-9999999/1" value="0" leadInLength="0/1"  />
               <InterpolatingParam id="8985" interp="linr"  time="-9999999/1" value="0" leadInLength="0/1"  />
              </VectorParam>
              <VectorParam id="8986"  name="scale">
               <InterpolatingParam id="8987" interp="linr"  time="-9999999/1" value="1" leadInLength="0/1"  />
               <InterpolatingParam id="8988" interp="linr"  time="-9999999/1" value="1" leadInLength="0/1"  />
               <InterpolatingParam id="8989" interp="linr"  time="-9999999/1" value="1" leadInLength="0/1"  />
              </VectorParam>
              <VectorParam id="8990"  name="anchor">
               <InterpolatingParam id="8991" interp="linr"  time="0/1" value="0" leadInLength="0/1"  />
               <InterpolatingParam id="8992" interp="linr"  time="0/1" value="0" leadInLength="0/1"  />
               <InterpolatingParam id="8993" interp="linr"  time="0/1" value="0" leadInLength="0/1"  />
              </VectorParam>
             </Transformer>
             <Parameters>
              <VectorParam id="8994"  name="sourceCrop">
               <InterpolatingParam id="8995" interp="linr"  time="0/1" value="0" leadInLength="0/1"  />
               <InterpolatingParam id="8996" interp="linr"  time="0/1" value="0" leadInLength="0/1"  />
               <InterpolatingParam id="8997" interp="linr"  time="0/1" value="0" leadInLength="0/1"  />
               <InterpolatingParam id="8998" interp="linr"  time="0/1" value="0" leadInLength="0/1"  />
              </VectorParam>
              <VectorParam id="8999"  name="geometryCrop">
               <InterpolatingParam id="9000" interp="linr"  time="-9999999/1" value="0" leadInLength="0/1"  />
               <InterpolatingParam id="9001" interp="linr"  time="-9999999/1" value="0" leadInLength="0/1"  />
               <InterpolatingParam id="9002" interp="linr"  time="-9999999/1" value="0" leadInLength="0/1"  />
               <InterpolatingParam id="9003" interp="linr"  time="-9999999/1" value="0" leadInLength="0/1"  />
              </VectorParam>
              <InterpolatingParam id="9004" interp="linr"  time="-9999999/1" value="1" leadInLength="0/1"  name="opacity"/>
              <InterpolatingParam id="9005" interp="linr"  time="0/1" value="0" leadInLength="0/1"  name="cursorOpacity"/>
              <InterpolatingParam id="9006" interp="linr"  time="0/1" value="0" leadInLength="0/1"  name="cursorScale"/>
             </Parameters>
             <Attributes>
              <Attribute id="9007" value="" name="ident"/>
             </Attributes>
             <ExtraData>
              <Entry key="ZoomPanBin">
               <ZoomPanBin id="9008"  >
                <ZoomPanKeyframes>
                 <ZoomPanKeyframe id="9009" timeRangeEnd="-9999999/1" timeRangeDuration="0/1" interpolaterName=""  />
                </ZoomPanKeyframes>
               </ZoomPanBin>
              </Entry>
              <Entry key="CursorEffectBin">
               <CursorEffectBin id="9010"  >
                <CursorEffectKeyframes>
                </CursorEffectKeyframes>
               </CursorEffectBin>
              </Entry>
             </ExtraData>
            </ScreenVMFile>
            <MetaData>
             <entry key="AutoAppliedSmartFocus" val="False"/>
             <entry key="WinSubProjectDisplayName" val=""/>
            </MetaData>
           </UnifiedMedia>
           <UnifiedMedia id="9011"  >
            <AMFile id="9012" start="1409" duration="85" scalar="1/1" mediaStart="1610/1" mediaDuration="85/1" trackNumber="1" src="4" channelNumber="0,1" >
             <Parameters>
              <InterpolatingParam id="9013" interp="linr"  time="0/1" value="1" leadInLength="0/1"  name="volume"/>
              <Parameter id="9014"  name="captions"/>
             </Parameters>
             <Attributes>
              <Attribute id="9015" value="" name="ident"/>
              <Attribute id="9016" value="44100" name="sampleRate"/>
              <Attribute id="9017" value="16" name="bitDepth"/>
              <Attribute id="9018" value="1" name="gain"/>
              <Attribute id="9019" value="0" name="mixToMono"/>
             </Attributes>
            </AMFile>
            <ScreenVMFile id="9020" start="1409" duration="85" scalar="1/1" mediaStart="1610/1" mediaDuration="85/1" trackNumber="0" src="4" >
             <Transformer>
              <VectorParam id="9021"  name="translation">
               <InterpolatingParam id="9022" interp="linr"  time="-9999999/1" value="0" leadInLength="0/1"  />
               <InterpolatingParam id="9023" interp="linr"  time="-9999999/1" value="0" leadInLength="0/1"  />
               <InterpolatingParam id="9024" interp="linr"  time="-9999999/1" value="0" leadInLength="0/1"  />
              </VectorParam>
              <VectorParam id="9025"  name="rotation">
               <InterpolatingParam id="9026" interp="linr"  time="-9999999/1" value="0" leadInLength="0/1"  />
               <InterpolatingParam id="9027" interp="linr"  time="-9999999/1" value="0" leadInLength="0/1"  />
               <InterpolatingParam id="9028" interp="linr"  time="-9999999/1" value="0" leadInLength="0/1"  />
              </VectorParam>
              <VectorParam id="9029"  name="shear">
               <InterpolatingParam id="9030" interp="linr"  time="-9999999/1" value="0" leadInLength="0/1"  />
               <InterpolatingParam id="9031" interp="linr"  time="-9999999/1" value="0" leadInLength="0/1"  />
               <InterpolatingParam id="9032" interp="linr"  time="-9999999/1" value="0" leadInLength="0/1"  />
              </VectorParam>
              <VectorParam id="9033"  name="scale">
               <InterpolatingParam id="9034" interp="linr"  time="-9999999/1" value="1" leadInLength="0/1"  />
               <InterpolatingParam id="9035" interp="linr"  time="-9999999/1" value="1" leadInLength="0/1"  />
               <InterpolatingParam id="9036" interp="linr"  time="-9999999/1" value="1" leadInLength="0/1"  />
              </VectorParam>
              <VectorParam id="9037"  name="anchor">
               <InterpolatingParam id="9038" interp="linr"  time="0/1" value="0" leadInLength="0/1"  />
               <InterpolatingParam id="9039" interp="linr"  time="0/1" value="0" leadInLength="0/1"  />
               <InterpolatingParam id="9040" interp="linr"  time="0/1" value="0" leadInLength="0/1"  />
              </VectorParam>
             </Transformer>
             <Parameters>
              <VectorParam id="9041"  name="sourceCrop">
               <InterpolatingParam id="9042" interp="linr"  time="0/1" value="0" leadInLength="0/1"  />
               <InterpolatingParam id="9043" interp="linr"  time="0/1" value="0" leadInLength="0/1"  />
               <InterpolatingParam id="9044" interp="linr"  time="0/1" value="0" leadInLength="0/1"  />
               <InterpolatingParam id="9045" interp="linr"  time="0/1" value="0" leadInLength="0/1"  />
              </VectorParam>
              <VectorParam id="9046"  name="geometryCrop">
               <InterpolatingParam id="9047" interp="linr"  time="-9999999/1" value="0" leadInLength="0/1"  />
               <InterpolatingParam id="9048" interp="linr"  time="-9999999/1" value="0" leadInLength="0/1"  />
               <InterpolatingParam id="9049" interp="linr"  time="-9999999/1" value="0" leadInLength="0/1"  />
               <InterpolatingParam id="9050" interp="linr"  time="-9999999/1" value="0" leadInLength="0/1"  />
              </VectorParam>
              <InterpolatingParam id="9051" interp="linr"  time="-9999999/1" value="1" leadInLength="0/1"  name="opacity"/>
              <InterpolatingParam id="9052" interp="linr"  time="0/1" value="0" leadInLength="0/1"  name="cursorOpacity"/>
              <InterpolatingParam id="9053" interp="linr"  time="0/1" value="0" leadInLength="0/1"  name="cursorScale"/>
             </Parameters>
             <Attributes>
              <Attribute id="9054" value="" name="ident"/>
             </Attributes>
             <ExtraData>
              <Entry key="ZoomPanBin">
               <ZoomPanBin id="9055"  >
                <ZoomPanKeyframes>
                 <ZoomPanKeyframe id="9056" timeRangeEnd="-9999999/1" timeRangeDuration="0/1" interpolaterName=""  />
                </ZoomPanKeyframes>
               </ZoomPanBin>
              </Entry>
              <Entry key="CursorEffectBin">
               <CursorEffectBin id="9057"  >
                <CursorEffectKeyframes>
                </CursorEffectKeyframes>
               </CursorEffectBin>
              </Entry>
             </ExtraData>
            </ScreenVMFile>
            <MetaData>
             <entry key="AutoAppliedSmartFocus" val="False"/>
             <entry key="WinSubProjectDisplayName" val=""/>
            </MetaData>
           </UnifiedMedia>
           <UnifiedMedia id="9058"  >
            <AMFile id="9059" start="1494" duration="93" scalar="1/1" mediaStart="1708/1" mediaDuration="93/1" trackNumber="1" src="4" channelNumber="0,1" >
             <Parameters>
              <InterpolatingParam id="9060" interp="linr"  time="0/1" value="1" leadInLength="0/1"  name="volume"/>
              <Parameter id="9061"  name="captions"/>
             </Parameters>
             <Attributes>
              <Attribute id="9062" value="" name="ident"/>
              <Attribute id="9063" value="44100" name="sampleRate"/>
              <Attribute id="9064" value="16" name="bitDepth"/>
              <Attribute id="9065" value="1" name="gain"/>
              <Attribute id="9066" value="0" name="mixToMono"/>
             </Attributes>
            </AMFile>
            <ScreenVMFile id="9067" start="1494" duration="93" scalar="1/1" mediaStart="1708/1" mediaDuration="93/1" trackNumber="0" src="4" >
             <Transformer>
              <VectorParam id="9068"  name="translation">
               <InterpolatingParam id="9069" interp="linr"  time="-9999999/1" value="0" leadInLength="0/1"  />
               <InterpolatingParam id="9070" interp="linr"  time="-9999999/1" value="0" leadInLength="0/1"  />
               <InterpolatingParam id="9071" interp="linr"  time="-9999999/1" value="0" leadInLength="0/1"  />
              </VectorParam>
              <VectorParam id="9072"  name="rotation">
               <InterpolatingParam id="9073" interp="linr"  time="-9999999/1" value="0" leadInLength="0/1"  />
               <InterpolatingParam id="9074" interp="linr"  time="-9999999/1" value="0" leadInLength="0/1"  />
               <InterpolatingParam id="9075" interp="linr"  time="-9999999/1" value="0" leadInLength="0/1"  />
              </VectorParam>
              <VectorParam id="9076"  name="shear">
               <InterpolatingParam id="9077" interp="linr"  time="-9999999/1" value="0" leadInLength="0/1"  />
               <InterpolatingParam id="9078" interp="linr"  time="-9999999/1" value="0" leadInLength="0/1"  />
               <InterpolatingParam id="9079" interp="linr"  time="-9999999/1" value="0" leadInLength="0/1"  />
              </VectorParam>
              <VectorParam id="9080"  name="scale">
               <InterpolatingParam id="9081" interp="linr"  time="-9999999/1" value="1" leadInLength="0/1"  />
               <InterpolatingParam id="9082" interp="linr"  time="-9999999/1" value="1" leadInLength="0/1"  />
               <InterpolatingParam id="9083" interp="linr"  time="-9999999/1" value="1" leadInLength="0/1"  />
              </VectorParam>
              <VectorParam id="9084"  name="anchor">
               <InterpolatingParam id="9085" interp="linr"  time="0/1" value="0" leadInLength="0/1"  />
               <InterpolatingParam id="9086" interp="linr"  time="0/1" value="0" leadInLength="0/1"  />
               <InterpolatingParam id="9087" interp="linr"  time="0/1" value="0" leadInLength="0/1"  />
              </VectorParam>
             </Transformer>
             <Parameters>
              <VectorParam id="9088"  name="sourceCrop">
               <InterpolatingParam id="9089" interp="linr"  time="0/1" value="0" leadInLength="0/1"  />
               <InterpolatingParam id="9090" interp="linr"  time="0/1" value="0" leadInLength="0/1"  />
               <InterpolatingParam id="9091" interp="linr"  time="0/1" value="0" leadInLength="0/1"  />
               <InterpolatingParam id="9092" interp="linr"  time="0/1" value="0" leadInLength="0/1"  />
              </VectorParam>
              <VectorParam id="9093"  name="geometryCrop">
               <InterpolatingParam id="9094" interp="linr"  time="-9999999/1" value="0" leadInLength="0/1"  />
               <InterpolatingParam id="9095" interp="linr"  time="-9999999/1" value="0" leadInLength="0/1"  />
               <InterpolatingParam id="9096" interp="linr"  time="-9999999/1" value="0" leadInLength="0/1"  />
               <InterpolatingParam id="9097" interp="linr"  time="-9999999/1" value="0" leadInLength="0/1"  />
              </VectorParam>
              <InterpolatingParam id="9098" interp="linr"  time="-9999999/1" value="1" leadInLength="0/1"  name="opacity"/>
              <InterpolatingParam id="9099" interp="linr"  time="0/1" value="0" leadInLength="0/1"  name="cursorOpacity"/>
              <InterpolatingParam id="9100" interp="linr"  time="0/1" value="0" leadInLength="0/1"  name="cursorScale"/>
             </Parameters>
             <Attributes>
              <Attribute id="9101" value="" name="ident"/>
             </Attributes>
             <ExtraData>
              <Entry key="ZoomPanBin">
               <ZoomPanBin id="9102"  >
                <ZoomPanKeyframes>
                 <ZoomPanKeyframe id="9103" timeRangeEnd="-9999999/1" timeRangeDuration="0/1" interpolaterName=""  />
                </ZoomPanKeyframes>
               </ZoomPanBin>
              </Entry>
              <Entry key="CursorEffectBin">
               <CursorEffectBin id="9104"  >
                <CursorEffectKeyframes>
                </CursorEffectKeyframes>
               </CursorEffectBin>
              </Entry>
             </ExtraData>
            </ScreenVMFile>
            <MetaData>
             <entry key="AutoAppliedSmartFocus" val="False"/>
             <entry key="WinSubProjectDisplayName" val=""/>
            </MetaData>
           </UnifiedMedia>
           <UnifiedMedia id="9105"  >
            <AMFile id="9106" start="1587" duration="42" scalar="1/1" mediaStart="1914/1" mediaDuration="42/1" trackNumber="1" src="4" channelNumber="0,1" >
             <Parameters>
              <InterpolatingParam id="9107" interp="linr"  time="0/1" value="1" leadInLength="0/1"  name="volume"/>
              <Parameter id="9108"  name="captions"/>
             </Parameters>
             <Attributes>
              <Attribute id="9109" value="" name="ident"/>
              <Attribute id="9110" value="44100" name="sampleRate"/>
              <Attribute id="9111" value="16" name="bitDepth"/>
              <Attribute id="9112" value="1" name="gain"/>
              <Attribute id="9113" value="0" name="mixToMono"/>
             </Attributes>
            </AMFile>
            <ScreenVMFile id="9114" start="1587" duration="42" scalar="1/1" mediaStart="1914/1" mediaDuration="42/1" trackNumber="0" src="4" >
             <Transformer>
              <VectorParam id="9115"  name="translation">
               <InterpolatingParam id="9116" interp="linr"  time="-9999999/1" value="0" leadInLength="0/1"  />
               <InterpolatingParam id="9117" interp="linr"  time="-9999999/1" value="0" leadInLength="0/1"  />
               <InterpolatingParam id="9118" interp="linr"  time="-9999999/1" value="0" leadInLength="0/1"  />
              </VectorParam>
              <VectorParam id="9119"  name="rotation">
               <InterpolatingParam id="9120" interp="linr"  time="-9999999/1" value="0" leadInLength="0/1"  />
               <InterpolatingParam id="9121" interp="linr"  time="-9999999/1" value="0" leadInLength="0/1"  />
               <InterpolatingParam id="9122" interp="linr"  time="-9999999/1" value="0" leadInLength="0/1"  />
              </VectorParam>
              <VectorParam id="9123"  name="shear">
               <InterpolatingParam id="9124" interp="linr"  time="-9999999/1" value="0" leadInLength="0/1"  />
               <InterpolatingParam id="9125" interp="linr"  time="-9999999/1" value="0" leadInLength="0/1"  />
               <InterpolatingParam id="9126" interp="linr"  time="-9999999/1" value="0" leadInLength="0/1"  />
              </VectorParam>
              <VectorParam id="9127"  name="scale">
               <InterpolatingParam id="9128" interp="linr"  time="-9999999/1" value="1" leadInLength="0/1"  />
               <InterpolatingParam id="9129" interp="linr"  time="-9999999/1" value="1" leadInLength="0/1"  />
               <InterpolatingParam id="9130" interp="linr"  time="-9999999/1" value="1" leadInLength="0/1"  />
              </VectorParam>
              <VectorParam id="9131"  name="anchor">
               <InterpolatingParam id="9132" interp="linr"  time="0/1" value="0" leadInLength="0/1"  />
               <InterpolatingParam id="9133" interp="linr"  time="0/1" value="0" leadInLength="0/1"  />
               <InterpolatingParam id="9134" interp="linr"  time="0/1" value="0" leadInLength="0/1"  />
              </VectorParam>
             </Transformer>
             <Parameters>
              <VectorParam id="9135"  name="sourceCrop">
               <InterpolatingParam id="9136" interp="linr"  time="0/1" value="0" leadInLength="0/1"  />
               <InterpolatingParam id="9137" interp="linr"  time="0/1" value="0" leadInLength="0/1"  />
               <InterpolatingParam id="9138" interp="linr"  time="0/1" value="0" leadInLength="0/1"  />
               <InterpolatingParam id="9139" interp="linr"  time="0/1" value="0" leadInLength="0/1"  />
              </VectorParam>
              <VectorParam id="9140"  name="geometryCrop">
               <InterpolatingParam id="9141" interp="linr"  time="-9999999/1" value="0" leadInLength="0/1"  />
               <InterpolatingParam id="9142" interp="linr"  time="-9999999/1" value="0" leadInLength="0/1"  />
               <InterpolatingParam id="9143" interp="linr"  time="-9999999/1" value="0" leadInLength="0/1"  />
               <InterpolatingParam id="9144" interp="linr"  time="-9999999/1" value="0" leadInLength="0/1"  />
              </VectorParam>
              <InterpolatingParam id="9145" interp="linr"  time="-9999999/1" value="1" leadInLength="0/1"  name="opacity"/>
              <InterpolatingParam id="9146" interp="linr"  time="0/1" value="0" leadInLength="0/1"  name="cursorOpacity"/>
              <InterpolatingParam id="9147" interp="linr"  time="0/1" value="0" leadInLength="0/1"  name="cursorScale"/>
             </Parameters>
             <Attributes>
              <Attribute id="9148" value="" name="ident"/>
             </Attributes>
             <ExtraData>
              <Entry key="ZoomPanBin">
               <ZoomPanBin id="9149"  >
                <ZoomPanKeyframes>
                 <ZoomPanKeyframe id="9150" timeRangeEnd="-9999999/1" timeRangeDuration="0/1" interpolaterName=""  />
                </ZoomPanKeyframes>
               </ZoomPanBin>
              </Entry>
              <Entry key="CursorEffectBin">
               <CursorEffectBin id="9151"  >
                <CursorEffectKeyframes>
                </CursorEffectKeyframes>
               </CursorEffectBin>
              </Entry>
             </ExtraData>
            </ScreenVMFile>
            <MetaData>
             <entry key="AutoAppliedSmartFocus" val="False"/>
             <entry key="WinSubProjectDisplayName" val=""/>
            </MetaData>
           </UnifiedMedia>
           <UnifiedMedia id="9152"  >
            <AMFile id="9153" start="1629" duration="45" scalar="1/1" mediaStart="1964/1" mediaDuration="45/1" trackNumber="1" src="4" channelNumber="0,1" >
             <Parameters>
              <InterpolatingParam id="9154" interp="linr"  time="0/1" value="1" leadInLength="0/1"  name="volume"/>
              <Parameter id="9155"  name="captions"/>
             </Parameters>
             <Attributes>
              <Attribute id="9156" value="" name="ident"/>
              <Attribute id="9157" value="44100" name="sampleRate"/>
              <Attribute id="9158" value="16" name="bitDepth"/>
              <Attribute id="9159" value="1" name="gain"/>
              <Attribute id="9160" value="0" name="mixToMono"/>
             </Attributes>
            </AMFile>
            <ScreenVMFile id="9161" start="1629" duration="45" scalar="1/1" mediaStart="1964/1" mediaDuration="45/1" trackNumber="0" src="4" >
             <Transformer>
              <VectorParam id="9162"  name="translation">
               <InterpolatingParam id="9163" interp="linr"  time="-9999999/1" value="0" leadInLength="0/1"  />
               <InterpolatingParam id="9164" interp="linr"  time="-9999999/1" value="0" leadInLength="0/1"  />
               <InterpolatingParam id="9165" interp="linr"  time="-9999999/1" value="0" leadInLength="0/1"  />
              </VectorParam>
              <VectorParam id="9166"  name="rotation">
               <InterpolatingParam id="9167" interp="linr"  time="-9999999/1" value="0" leadInLength="0/1"  />
               <InterpolatingParam id="9168" interp="linr"  time="-9999999/1" value="0" leadInLength="0/1"  />
               <InterpolatingParam id="9169" interp="linr"  time="-9999999/1" value="0" leadInLength="0/1"  />
              </VectorParam>
              <VectorParam id="9170"  name="shear">
               <InterpolatingParam id="9171" interp="linr"  time="-9999999/1" value="0" leadInLength="0/1"  />
               <InterpolatingParam id="9172" interp="linr"  time="-9999999/1" value="0" leadInLength="0/1"  />
               <InterpolatingParam id="9173" interp="linr"  time="-9999999/1" value="0" leadInLength="0/1"  />
              </VectorParam>
              <VectorParam id="9174"  name="scale">
               <InterpolatingParam id="9175" interp="linr"  time="-9999999/1" value="1" leadInLength="0/1"  />
               <InterpolatingParam id="9176" interp="linr"  time="-9999999/1" value="1" leadInLength="0/1"  />
               <InterpolatingParam id="9177" interp="linr"  time="-9999999/1" value="1" leadInLength="0/1"  />
              </VectorParam>
              <VectorParam id="9178"  name="anchor">
               <InterpolatingParam id="9179" interp="linr"  time="0/1" value="0" leadInLength="0/1"  />
               <InterpolatingParam id="9180" interp="linr"  time="0/1" value="0" leadInLength="0/1"  />
               <InterpolatingParam id="9181" interp="linr"  time="0/1" value="0" leadInLength="0/1"  />
              </VectorParam>
             </Transformer>
             <Parameters>
              <VectorParam id="9182"  name="sourceCrop">
               <InterpolatingParam id="9183" interp="linr"  time="0/1" value="0" leadInLength="0/1"  />
               <InterpolatingParam id="9184" interp="linr"  time="0/1" value="0" leadInLength="0/1"  />
               <InterpolatingParam id="9185" interp="linr"  time="0/1" value="0" leadInLength="0/1"  />
               <InterpolatingParam id="9186" interp="linr"  time="0/1" value="0" leadInLength="0/1"  />
              </VectorParam>
              <VectorParam id="9187"  name="geometryCrop">
               <InterpolatingParam id="9188" interp="linr"  time="-9999999/1" value="0" leadInLength="0/1"  />
               <InterpolatingParam id="9189" interp="linr"  time="-9999999/1" value="0" leadInLength="0/1"  />
               <InterpolatingParam id="9190" interp="linr"  time="-9999999/1" value="0" leadInLength="0/1"  />
               <InterpolatingParam id="9191" interp="linr"  time="-9999999/1" value="0" leadInLength="0/1"  />
              </VectorParam>
              <InterpolatingParam id="9192" interp="linr"  time="-9999999/1" value="1" leadInLength="0/1"  name="opacity"/>
              <InterpolatingParam id="9193" interp="linr"  time="0/1" value="0" leadInLength="0/1"  name="cursorOpacity"/>
              <InterpolatingParam id="9194" interp="linr"  time="0/1" value="0" leadInLength="0/1"  name="cursorScale"/>
             </Parameters>
             <Attributes>
              <Attribute id="9195" value="" name="ident"/>
             </Attributes>
             <ExtraData>
              <Entry key="ZoomPanBin">
               <ZoomPanBin id="9196"  >
                <ZoomPanKeyframes>
                 <ZoomPanKeyframe id="9197" timeRangeEnd="-9999999/1" timeRangeDuration="0/1" interpolaterName=""  />
                </ZoomPanKeyframes>
               </ZoomPanBin>
              </Entry>
              <Entry key="CursorEffectBin">
               <CursorEffectBin id="9198"  >
                <CursorEffectKeyframes>
                </CursorEffectKeyframes>
               </CursorEffectBin>
              </Entry>
             </ExtraData>
            </ScreenVMFile>
            <MetaData>
             <entry key="AutoAppliedSmartFocus" val="False"/>
             <entry key="WinSubProjectDisplayName" val=""/>
            </MetaData>
           </UnifiedMedia>
           <UnifiedMedia id="9199"  >
            <AMFile id="9200" start="1674" duration="66" scalar="1/1" mediaStart="2021/1" mediaDuration="66/1" trackNumber="1" src="4" channelNumber="0,1" >
             <Parameters>
              <InterpolatingParam id="9201" interp="linr"  time="0/1" value="1" leadInLength="0/1"  name="volume"/>
              <Parameter id="9202"  name="captions"/>
             </Parameters>
             <Attributes>
              <Attribute id="9203" value="" name="ident"/>
              <Attribute id="9204" value="44100" name="sampleRate"/>
              <Attribute id="9205" value="16" name="bitDepth"/>
              <Attribute id="9206" value="1" name="gain"/>
              <Attribute id="9207" value="0" name="mixToMono"/>
             </Attributes>
            </AMFile>
            <ScreenVMFile id="9208" start="1674" duration="66" scalar="1/1" mediaStart="2021/1" mediaDuration="66/1" trackNumber="0" src="4" >
             <Transformer>
              <VectorParam id="9209"  name="translation">
               <InterpolatingParam id="9210" interp="linr"  time="-9999999/1" value="0" leadInLength="0/1"  />
               <InterpolatingParam id="9211" interp="linr"  time="-9999999/1" value="0" leadInLength="0/1"  />
               <InterpolatingParam id="9212" interp="linr"  time="-9999999/1" value="0" leadInLength="0/1"  />
              </VectorParam>
              <VectorParam id="9213"  name="rotation">
               <InterpolatingParam id="9214" interp="linr"  time="-9999999/1" value="0" leadInLength="0/1"  />
               <InterpolatingParam id="9215" interp="linr"  time="-9999999/1" value="0" leadInLength="0/1"  />
               <InterpolatingParam id="9216" interp="linr"  time="-9999999/1" value="0" leadInLength="0/1"  />
              </VectorParam>
              <VectorParam id="9217"  name="shear">
               <InterpolatingParam id="9218" interp="linr"  time="-9999999/1" value="0" leadInLength="0/1"  />
               <InterpolatingParam id="9219" interp="linr"  time="-9999999/1" value="0" leadInLength="0/1"  />
               <InterpolatingParam id="9220" interp="linr"  time="-9999999/1" value="0" leadInLength="0/1"  />
              </VectorParam>
              <VectorParam id="9221"  name="scale">
               <InterpolatingParam id="9222" interp="linr"  time="-9999999/1" value="1" leadInLength="0/1"  />
               <InterpolatingParam id="9223" interp="linr"  time="-9999999/1" value="1" leadInLength="0/1"  />
               <InterpolatingParam id="9224" interp="linr"  time="-9999999/1" value="1" leadInLength="0/1"  />
              </VectorParam>
              <VectorParam id="9225"  name="anchor">
               <InterpolatingParam id="9226" interp="linr"  time="0/1" value="0" leadInLength="0/1"  />
               <InterpolatingParam id="9227" interp="linr"  time="0/1" value="0" leadInLength="0/1"  />
               <InterpolatingParam id="9228" interp="linr"  time="0/1" value="0" leadInLength="0/1"  />
              </VectorParam>
             </Transformer>
             <Parameters>
              <VectorParam id="9229"  name="sourceCrop">
               <InterpolatingParam id="9230" interp="linr"  time="0/1" value="0" leadInLength="0/1"  />
               <InterpolatingParam id="9231" interp="linr"  time="0/1" value="0" leadInLength="0/1"  />
               <InterpolatingParam id="9232" interp="linr"  time="0/1" value="0" leadInLength="0/1"  />
               <InterpolatingParam id="9233" interp="linr"  time="0/1" value="0" leadInLength="0/1"  />
              </VectorParam>
              <VectorParam id="9234"  name="geometryCrop">
               <InterpolatingParam id="9235" interp="linr"  time="-9999999/1" value="0" leadInLength="0/1"  />
               <InterpolatingParam id="9236" interp="linr"  time="-9999999/1" value="0" leadInLength="0/1"  />
               <InterpolatingParam id="9237" interp="linr"  time="-9999999/1" value="0" leadInLength="0/1"  />
               <InterpolatingParam id="9238" interp="linr"  time="-9999999/1" value="0" leadInLength="0/1"  />
              </VectorParam>
              <InterpolatingParam id="9239" interp="linr"  time="-9999999/1" value="1" leadInLength="0/1"  name="opacity"/>
              <InterpolatingParam id="9240" interp="linr"  time="0/1" value="0" leadInLength="0/1"  name="cursorOpacity"/>
              <InterpolatingParam id="9241" interp="linr"  time="0/1" value="0" leadInLength="0/1"  name="cursorScale"/>
             </Parameters>
             <Attributes>
              <Attribute id="9242" value="" name="ident"/>
             </Attributes>
             <ExtraData>
              <Entry key="ZoomPanBin">
               <ZoomPanBin id="9243"  >
                <ZoomPanKeyframes>
                 <ZoomPanKeyframe id="9244" timeRangeEnd="-9999999/1" timeRangeDuration="0/1" interpolaterName=""  />
                </ZoomPanKeyframes>
               </ZoomPanBin>
              </Entry>
              <Entry key="CursorEffectBin">
               <CursorEffectBin id="9245"  >
                <CursorEffectKeyframes>
                </CursorEffectKeyframes>
               </CursorEffectBin>
              </Entry>
             </ExtraData>
            </ScreenVMFile>
            <MetaData>
             <entry key="AutoAppliedSmartFocus" val="False"/>
             <entry key="WinSubProjectDisplayName" val=""/>
            </MetaData>
           </UnifiedMedia>
           <UnifiedMedia id="9246"  >
            <AMFile id="9247" start="1740" duration="60" scalar="1/1" mediaStart="2327/1" mediaDuration="60/1" trackNumber="1" src="4" channelNumber="0,1" >
             <Parameters>
              <InterpolatingParam id="9248" interp="linr"  time="0/1" value="1" leadInLength="0/1"  name="volume"/>
              <Parameter id="9249"  name="captions"/>
             </Parameters>
             <Attributes>
              <Attribute id="9250" value="" name="ident"/>
              <Attribute id="9251" value="44100" name="sampleRate"/>
              <Attribute id="9252" value="16" name="bitDepth"/>
              <Attribute id="9253" value="1" name="gain"/>
              <Attribute id="9254" value="0" name="mixToMono"/>
             </Attributes>
            </AMFile>
            <ScreenVMFile id="9255" start="1740" duration="60" scalar="1/1" mediaStart="2327/1" mediaDuration="60/1" trackNumber="0" src="4" >
             <Transformer>
              <VectorParam id="9256"  name="translation">
               <InterpolatingParam id="9257" interp="linr"  time="-9999999/1" value="0" leadInLength="0/1"  />
               <InterpolatingParam id="9258" interp="linr"  time="-9999999/1" value="0" leadInLength="0/1"  />
               <InterpolatingParam id="9259" interp="linr"  time="-9999999/1" value="0" leadInLength="0/1"  />
              </VectorParam>
              <VectorParam id="9260"  name="rotation">
               <InterpolatingParam id="9261" interp="linr"  time="-9999999/1" value="0" leadInLength="0/1"  />
               <InterpolatingParam id="9262" interp="linr"  time="-9999999/1" value="0" leadInLength="0/1"  />
               <InterpolatingParam id="9263" interp="linr"  time="-9999999/1" value="0" leadInLength="0/1"  />
              </VectorParam>
              <VectorParam id="9264"  name="shear">
               <InterpolatingParam id="9265" interp="linr"  time="-9999999/1" value="0" leadInLength="0/1"  />
               <InterpolatingParam id="9266" interp="linr"  time="-9999999/1" value="0" leadInLength="0/1"  />
               <InterpolatingParam id="9267" interp="linr"  time="-9999999/1" value="0" leadInLength="0/1"  />
              </VectorParam>
              <VectorParam id="9268"  name="scale">
               <InterpolatingParam id="9269" interp="linr"  time="-9999999/1" value="1" leadInLength="0/1"  />
               <InterpolatingParam id="9270" interp="linr"  time="-9999999/1" value="1" leadInLength="0/1"  />
               <InterpolatingParam id="9271" interp="linr"  time="-9999999/1" value="1" leadInLength="0/1"  />
              </VectorParam>
              <VectorParam id="9272"  name="anchor">
               <InterpolatingParam id="9273" interp="linr"  time="0/1" value="0" leadInLength="0/1"  />
               <InterpolatingParam id="9274" interp="linr"  time="0/1" value="0" leadInLength="0/1"  />
               <InterpolatingParam id="9275" interp="linr"  time="0/1" value="0" leadInLength="0/1"  />
              </VectorParam>
             </Transformer>
             <Parameters>
              <VectorParam id="9276"  name="sourceCrop">
               <InterpolatingParam id="9277" interp="linr"  time="0/1" value="0" leadInLength="0/1"  />
               <InterpolatingParam id="9278" interp="linr"  time="0/1" value="0" leadInLength="0/1"  />
               <InterpolatingParam id="9279" interp="linr"  time="0/1" value="0" leadInLength="0/1"  />
               <InterpolatingParam id="9280" interp="linr"  time="0/1" value="0" leadInLength="0/1"  />
              </VectorParam>
              <VectorParam id="9281"  name="geometryCrop">
               <InterpolatingParam id="9282" interp="linr"  time="-9999999/1" value="0" leadInLength="0/1"  />
               <InterpolatingParam id="9283" interp="linr"  time="-9999999/1" value="0" leadInLength="0/1"  />
               <InterpolatingParam id="9284" interp="linr"  time="-9999999/1" value="0" leadInLength="0/1"  />
               <InterpolatingParam id="9285" interp="linr"  time="-9999999/1" value="0" leadInLength="0/1"  />
              </VectorParam>
              <InterpolatingParam id="9286" interp="linr"  time="-9999999/1" value="1" leadInLength="0/1"  name="opacity"/>
              <InterpolatingParam id="9287" interp="linr"  time="0/1" value="0" leadInLength="0/1"  name="cursorOpacity"/>
              <InterpolatingParam id="9288" interp="linr"  time="0/1" value="0" leadInLength="0/1"  name="cursorScale"/>
             </Parameters>
             <Attributes>
              <Attribute id="9289" value="" name="ident"/>
             </Attributes>
             <ExtraData>
              <Entry key="ZoomPanBin">
               <ZoomPanBin id="9290"  >
                <ZoomPanKeyframes>
                 <ZoomPanKeyframe id="9291" timeRangeEnd="-9999999/1" timeRangeDuration="0/1" interpolaterName=""  />
                </ZoomPanKeyframes>
               </ZoomPanBin>
              </Entry>
              <Entry key="CursorEffectBin">
               <CursorEffectBin id="9292"  >
                <CursorEffectKeyframes>
                </CursorEffectKeyframes>
               </CursorEffectBin>
              </Entry>
             </ExtraData>
            </ScreenVMFile>
            <MetaData>
             <entry key="AutoAppliedSmartFocus" val="False"/>
             <entry key="WinSubProjectDisplayName" val=""/>
            </MetaData>
           </UnifiedMedia>
           <UnifiedMedia id="9293"  >
            <AMFile id="9294" start="1800" duration="49" scalar="1/1" mediaStart="2393/1" mediaDuration="49/1" trackNumber="1" src="4" channelNumber="0,1" >
             <Parameters>
              <InterpolatingParam id="9295" interp="linr"  time="0/1" value="1" leadInLength="0/1"  name="volume"/>
              <Parameter id="9296"  name="captions"/>
             </Parameters>
             <Attributes>
              <Attribute id="9297" value="" name="ident"/>
              <Attribute id="9298" value="44100" name="sampleRate"/>
              <Attribute id="9299" value="16" name="bitDepth"/>
              <Attribute id="9300" value="1" name="gain"/>
              <Attribute id="9301" value="0" name="mixToMono"/>
             </Attributes>
            </AMFile>
            <ScreenVMFile id="9302" start="1800" duration="49" scalar="1/1" mediaStart="2393/1" mediaDuration="49/1" trackNumber="0" src="4" >
             <Transformer>
              <VectorParam id="9303"  name="translation">
               <InterpolatingParam id="9304" interp="linr"  time="-9999999/1" value="0" leadInLength="0/1"  />
               <InterpolatingParam id="9305" interp="linr"  time="-9999999/1" value="0" leadInLength="0/1"  />
               <InterpolatingParam id="9306" interp="linr"  time="-9999999/1" value="0" leadInLength="0/1"  />
              </VectorParam>
              <VectorParam id="9307"  name="rotation">
               <InterpolatingParam id="9308" interp="linr"  time="-9999999/1" value="0" leadInLength="0/1"  />
               <InterpolatingParam id="9309" interp="linr"  time="-9999999/1" value="0" leadInLength="0/1"  />
               <InterpolatingParam id="9310" interp="linr"  time="-9999999/1" value="0" leadInLength="0/1"  />
              </VectorParam>
              <VectorParam id="9311"  name="shear">
               <InterpolatingParam id="9312" interp="linr"  time="-9999999/1" value="0" leadInLength="0/1"  />
               <InterpolatingParam id="9313" interp="linr"  time="-9999999/1" value="0" leadInLength="0/1"  />
               <InterpolatingParam id="9314" interp="linr"  time="-9999999/1" value="0" leadInLength="0/1"  />
              </VectorParam>
              <VectorParam id="9315"  name="scale">
               <InterpolatingParam id="9316" interp="linr"  time="-9999999/1" value="1" leadInLength="0/1"  />
               <InterpolatingParam id="9317" interp="linr"  time="-9999999/1" value="1" leadInLength="0/1"  />
               <InterpolatingParam id="9318" interp="linr"  time="-9999999/1" value="1" leadInLength="0/1"  />
              </VectorParam>
              <VectorParam id="9319"  name="anchor">
               <InterpolatingParam id="9320" interp="linr"  time="0/1" value="0" leadInLength="0/1"  />
               <InterpolatingParam id="9321" interp="linr"  time="0/1" value="0" leadInLength="0/1"  />
               <InterpolatingParam id="9322" interp="linr"  time="0/1" value="0" leadInLength="0/1"  />
              </VectorParam>
             </Transformer>
             <Parameters>
              <VectorParam id="9323"  name="sourceCrop">
               <InterpolatingParam id="9324" interp="linr"  time="0/1" value="0" leadInLength="0/1"  />
               <InterpolatingParam id="9325" interp="linr"  time="0/1" value="0" leadInLength="0/1"  />
               <InterpolatingParam id="9326" interp="linr"  time="0/1" value="0" leadInLength="0/1"  />
               <InterpolatingParam id="9327" interp="linr"  time="0/1" value="0" leadInLength="0/1"  />
              </VectorParam>
              <VectorParam id="9328"  name="geometryCrop">
               <InterpolatingParam id="9329" interp="linr"  time="-9999999/1" value="0" leadInLength="0/1"  />
               <InterpolatingParam id="9330" interp="linr"  time="-9999999/1" value="0" leadInLength="0/1"  />
               <InterpolatingParam id="9331" interp="linr"  time="-9999999/1" value="0" leadInLength="0/1"  />
               <InterpolatingParam id="9332" interp="linr"  time="-9999999/1" value="0" leadInLength="0/1"  />
              </VectorParam>
              <InterpolatingParam id="9333" interp="linr"  time="-9999999/1" value="1" leadInLength="0/1"  name="opacity"/>
              <InterpolatingParam id="9334" interp="linr"  time="0/1" value="0" leadInLength="0/1"  name="cursorOpacity"/>
              <InterpolatingParam id="9335" interp="linr"  time="0/1" value="0" leadInLength="0/1"  name="cursorScale"/>
             </Parameters>
             <Attributes>
              <Attribute id="9336" value="" name="ident"/>
             </Attributes>
             <ExtraData>
              <Entry key="ZoomPanBin">
               <ZoomPanBin id="9337"  >
                <ZoomPanKeyframes>
                 <ZoomPanKeyframe id="9338" timeRangeEnd="-9999999/1" timeRangeDuration="0/1" interpolaterName=""  />
                </ZoomPanKeyframes>
               </ZoomPanBin>
              </Entry>
              <Entry key="CursorEffectBin">
               <CursorEffectBin id="9339"  >
                <CursorEffectKeyframes>
                </CursorEffectKeyframes>
               </CursorEffectBin>
              </Entry>
             </ExtraData>
            </ScreenVMFile>
            <MetaData>
             <entry key="AutoAppliedSmartFocus" val="False"/>
             <entry key="WinSubProjectDisplayName" val=""/>
            </MetaData>
           </UnifiedMedia>
           <UnifiedMedia id="9340"  >
            <AMFile id="9341" start="1849" duration="130" scalar="1/1" mediaStart="2450/1" mediaDuration="130/1" trackNumber="1" src="4" channelNumber="0,1" >
             <Parameters>
              <InterpolatingParam id="9342" interp="linr"  time="0/1" value="1" leadInLength="0/1"  name="volume"/>
              <Parameter id="9343"  name="captions"/>
             </Parameters>
             <Attributes>
              <Attribute id="9344" value="" name="ident"/>
              <Attribute id="9345" value="44100" name="sampleRate"/>
              <Attribute id="9346" value="16" name="bitDepth"/>
              <Attribute id="9347" value="1" name="gain"/>
              <Attribute id="9348" value="0" name="mixToMono"/>
             </Attributes>
            </AMFile>
            <ScreenVMFile id="9349" start="1849" duration="130" scalar="1/1" mediaStart="2450/1" mediaDuration="130/1" trackNumber="0" src="4" >
             <Transformer>
              <VectorParam id="9350"  name="translation">
               <InterpolatingParam id="9351" interp="linr"  time="-9999999/1" value="0" leadInLength="0/1"  />
               <InterpolatingParam id="9352" interp="linr"  time="-9999999/1" value="0" leadInLength="0/1"  />
               <InterpolatingParam id="9353" interp="linr"  time="-9999999/1" value="0" leadInLength="0/1"  />
              </VectorParam>
              <VectorParam id="9354"  name="rotation">
               <InterpolatingParam id="9355" interp="linr"  time="-9999999/1" value="0" leadInLength="0/1"  />
               <InterpolatingParam id="9356" interp="linr"  time="-9999999/1" value="0" leadInLength="0/1"  />
               <InterpolatingParam id="9357" interp="linr"  time="-9999999/1" value="0" leadInLength="0/1"  />
              </VectorParam>
              <VectorParam id="9358"  name="shear">
               <InterpolatingParam id="9359" interp="linr"  time="-9999999/1" value="0" leadInLength="0/1"  />
               <InterpolatingParam id="9360" interp="linr"  time="-9999999/1" value="0" leadInLength="0/1"  />
               <InterpolatingParam id="9361" interp="linr"  time="-9999999/1" value="0" leadInLength="0/1"  />
              </VectorParam>
              <VectorParam id="9362"  name="scale">
               <InterpolatingParam id="9363" interp="linr"  time="-9999999/1" value="1" leadInLength="0/1"  />
               <InterpolatingParam id="9364" interp="linr"  time="-9999999/1" value="1" leadInLength="0/1"  />
               <InterpolatingParam id="9365" interp="linr"  time="-9999999/1" value="1" leadInLength="0/1"  />
              </VectorParam>
              <VectorParam id="9366"  name="anchor">
               <InterpolatingParam id="9367" interp="linr"  time="0/1" value="0" leadInLength="0/1"  />
               <InterpolatingParam id="9368" interp="linr"  time="0/1" value="0" leadInLength="0/1"  />
               <InterpolatingParam id="9369" interp="linr"  time="0/1" value="0" leadInLength="0/1"  />
              </VectorParam>
             </Transformer>
             <Parameters>
              <VectorParam id="9370"  name="sourceCrop">
               <InterpolatingParam id="9371" interp="linr"  time="0/1" value="0" leadInLength="0/1"  />
               <InterpolatingParam id="9372" interp="linr"  time="0/1" value="0" leadInLength="0/1"  />
               <InterpolatingParam id="9373" interp="linr"  time="0/1" value="0" leadInLength="0/1"  />
               <InterpolatingParam id="9374" interp="linr"  time="0/1" value="0" leadInLength="0/1"  />
              </VectorParam>
              <VectorParam id="9375"  name="geometryCrop">
               <InterpolatingParam id="9376" interp="linr"  time="-9999999/1" value="0" leadInLength="0/1"  />
               <InterpolatingParam id="9377" interp="linr"  time="-9999999/1" value="0" leadInLength="0/1"  />
               <InterpolatingParam id="9378" interp="linr"  time="-9999999/1" value="0" leadInLength="0/1"  />
               <InterpolatingParam id="9379" interp="linr"  time="-9999999/1" value="0" leadInLength="0/1"  />
              </VectorParam>
              <InterpolatingParam id="9380" interp="linr"  time="-9999999/1" value="1" leadInLength="0/1"  name="opacity"/>
              <InterpolatingParam id="9381" interp="linr"  time="0/1" value="0" leadInLength="0/1"  name="cursorOpacity"/>
              <InterpolatingParam id="9382" interp="linr"  time="0/1" value="0" leadInLength="0/1"  name="cursorScale"/>
             </Parameters>
             <Attributes>
              <Attribute id="9383" value="" name="ident"/>
             </Attributes>
             <ExtraData>
              <Entry key="ZoomPanBin">
               <ZoomPanBin id="9384"  >
                <ZoomPanKeyframes>
                 <ZoomPanKeyframe id="9385" timeRangeEnd="-9999999/1" timeRangeDuration="0/1" interpolaterName=""  />
                </ZoomPanKeyframes>
               </ZoomPanBin>
              </Entry>
              <Entry key="CursorEffectBin">
               <CursorEffectBin id="9386"  >
                <CursorEffectKeyframes>
                </CursorEffectKeyframes>
               </CursorEffectBin>
              </Entry>
             </ExtraData>
            </ScreenVMFile>
            <MetaData>
             <entry key="AutoAppliedSmartFocus" val="False"/>
             <entry key="WinSubProjectDisplayName" val=""/>
            </MetaData>
           </UnifiedMedia>
           <UnifiedMedia id="9387"  >
            <AMFile id="9388" start="1979" duration="94" scalar="1/1" mediaStart="2778/1" mediaDuration="94/1" trackNumber="1" src="4" channelNumber="0,1" >
             <Parameters>
              <InterpolatingParam id="9389" interp="linr"  time="0/1" value="1" leadInLength="0/1"  name="volume"/>
              <Parameter id="9390"  name="captions"/>
             </Parameters>
             <Attributes>
              <Attribute id="9391" value="" name="ident"/>
              <Attribute id="9392" value="44100" name="sampleRate"/>
              <Attribute id="9393" value="16" name="bitDepth"/>
              <Attribute id="9394" value="1" name="gain"/>
              <Attribute id="9395" value="0" name="mixToMono"/>
             </Attributes>
            </AMFile>
            <ScreenVMFile id="9396" start="1979" duration="94" scalar="1/1" mediaStart="2778/1" mediaDuration="94/1" trackNumber="0" src="4" >
             <Transformer>
              <VectorParam id="9397"  name="translation">
               <InterpolatingParam id="9398" interp="linr"  time="-9999999/1" value="0" leadInLength="0/1"  />
               <InterpolatingParam id="9399" interp="linr"  time="-9999999/1" value="0" leadInLength="0/1"  />
               <InterpolatingParam id="9400" interp="linr"  time="-9999999/1" value="0" leadInLength="0/1"  />
              </VectorParam>
              <VectorParam id="9401"  name="rotation">
               <InterpolatingParam id="9402" interp="linr"  time="-9999999/1" value="0" leadInLength="0/1"  />
               <InterpolatingParam id="9403" interp="linr"  time="-9999999/1" value="0" leadInLength="0/1"  />
               <InterpolatingParam id="9404" interp="linr"  time="-9999999/1" value="0" leadInLength="0/1"  />
              </VectorParam>
              <VectorParam id="9405"  name="shear">
               <InterpolatingParam id="9406" interp="linr"  time="-9999999/1" value="0" leadInLength="0/1"  />
               <InterpolatingParam id="9407" interp="linr"  time="-9999999/1" value="0" leadInLength="0/1"  />
               <InterpolatingParam id="9408" interp="linr"  time="-9999999/1" value="0" leadInLength="0/1"  />
              </VectorParam>
              <VectorParam id="9409"  name="scale">
               <InterpolatingParam id="9410" interp="linr"  time="-9999999/1" value="1" leadInLength="0/1"  />
               <InterpolatingParam id="9411" interp="linr"  time="-9999999/1" value="1" leadInLength="0/1"  />
               <InterpolatingParam id="9412" interp="linr"  time="-9999999/1" value="1" leadInLength="0/1"  />
              </VectorParam>
              <VectorParam id="9413"  name="anchor">
               <InterpolatingParam id="9414" interp="linr"  time="0/1" value="0" leadInLength="0/1"  />
               <InterpolatingParam id="9415" interp="linr"  time="0/1" value="0" leadInLength="0/1"  />
               <InterpolatingParam id="9416" interp="linr"  time="0/1" value="0" leadInLength="0/1"  />
              </VectorParam>
             </Transformer>
             <Parameters>
              <VectorParam id="9417"  name="sourceCrop">
               <InterpolatingParam id="9418" interp="linr"  time="0/1" value="0" leadInLength="0/1"  />
               <InterpolatingParam id="9419" interp="linr"  time="0/1" value="0" leadInLength="0/1"  />
               <InterpolatingParam id="9420" interp="linr"  time="0/1" value="0" leadInLength="0/1"  />
               <InterpolatingParam id="9421" interp="linr"  time="0/1" value="0" leadInLength="0/1"  />
              </VectorParam>
              <VectorParam id="9422"  name="geometryCrop">
               <InterpolatingParam id="9423" interp="linr"  time="-9999999/1" value="0" leadInLength="0/1"  />
               <InterpolatingParam id="9424" interp="linr"  time="-9999999/1" value="0" leadInLength="0/1"  />
               <InterpolatingParam id="9425" interp="linr"  time="-9999999/1" value="0" leadInLength="0/1"  />
               <InterpolatingParam id="9426" interp="linr"  time="-9999999/1" value="0" leadInLength="0/1"  />
              </VectorParam>
              <InterpolatingParam id="9427" interp="linr"  time="-9999999/1" value="1" leadInLength="0/1"  name="opacity"/>
              <InterpolatingParam id="9428" interp="linr"  time="0/1" value="0" leadInLength="0/1"  name="cursorOpacity"/>
              <InterpolatingParam id="9429" interp="linr"  time="0/1" value="0" leadInLength="0/1"  name="cursorScale"/>
             </Parameters>
             <Attributes>
              <Attribute id="9430" value="" name="ident"/>
             </Attributes>
             <ExtraData>
              <Entry key="ZoomPanBin">
               <ZoomPanBin id="9431"  >
                <ZoomPanKeyframes>
                 <ZoomPanKeyframe id="9432" timeRangeEnd="-9999999/1" timeRangeDuration="0/1" interpolaterName=""  />
                </ZoomPanKeyframes>
               </ZoomPanBin>
              </Entry>
              <Entry key="CursorEffectBin">
               <CursorEffectBin id="9433"  >
                <CursorEffectKeyframes>
                </CursorEffectKeyframes>
               </CursorEffectBin>
              </Entry>
             </ExtraData>
            </ScreenVMFile>
            <MetaData>
             <entry key="AutoAppliedSmartFocus" val="False"/>
             <entry key="WinSubProjectDisplayName" val=""/>
            </MetaData>
           </UnifiedMedia>
           <UnifiedMedia id="9434"  >
            <AMFile id="9435" start="2073" duration="80" scalar="1/1" mediaStart="2879/1" mediaDuration="80/1" trackNumber="1" src="4" channelNumber="0,1" >
             <Parameters>
              <InterpolatingParam id="9436" interp="linr"  time="0/1" value="1" leadInLength="0/1"  name="volume"/>
              <Parameter id="9437"  name="captions"/>
             </Parameters>
             <Attributes>
              <Attribute id="9438" value="" name="ident"/>
              <Attribute id="9439" value="44100" name="sampleRate"/>
              <Attribute id="9440" value="16" name="bitDepth"/>
              <Attribute id="9441" value="1" name="gain"/>
              <Attribute id="9442" value="0" name="mixToMono"/>
             </Attributes>
            </AMFile>
            <ScreenVMFile id="9443" start="2073" duration="80" scalar="1/1" mediaStart="2879/1" mediaDuration="80/1" trackNumber="0" src="4" >
             <Transformer>
              <VectorParam id="9444"  name="translation">
               <InterpolatingParam id="9445" interp="linr"  time="-9999999/1" value="0" leadInLength="0/1"  />
               <InterpolatingParam id="9446" interp="linr"  time="-9999999/1" value="0" leadInLength="0/1"  />
               <InterpolatingParam id="9447" interp="linr"  time="-9999999/1" value="0" leadInLength="0/1"  />
              </VectorParam>
              <VectorParam id="9448"  name="rotation">
               <InterpolatingParam id="9449" interp="linr"  time="-9999999/1" value="0" leadInLength="0/1"  />
               <InterpolatingParam id="9450" interp="linr"  time="-9999999/1" value="0" leadInLength="0/1"  />
               <InterpolatingParam id="9451" interp="linr"  time="-9999999/1" value="0" leadInLength="0/1"  />
              </VectorParam>
              <VectorParam id="9452"  name="shear">
               <InterpolatingParam id="9453" interp="linr"  time="-9999999/1" value="0" leadInLength="0/1"  />
               <InterpolatingParam id="9454" interp="linr"  time="-9999999/1" value="0" leadInLength="0/1"  />
               <InterpolatingParam id="9455" interp="linr"  time="-9999999/1" value="0" leadInLength="0/1"  />
              </VectorParam>
              <VectorParam id="9456"  name="scale">
               <InterpolatingParam id="9457" interp="linr"  time="-9999999/1" value="1" leadInLength="0/1"  />
               <InterpolatingParam id="9458" interp="linr"  time="-9999999/1" value="1" leadInLength="0/1"  />
               <InterpolatingParam id="9459" interp="linr"  time="-9999999/1" value="1" leadInLength="0/1"  />
              </VectorParam>
              <VectorParam id="9460"  name="anchor">
               <InterpolatingParam id="9461" interp="linr"  time="0/1" value="0" leadInLength="0/1"  />
               <InterpolatingParam id="9462" interp="linr"  time="0/1" value="0" leadInLength="0/1"  />
               <InterpolatingParam id="9463" interp="linr"  time="0/1" value="0" leadInLength="0/1"  />
              </VectorParam>
             </Transformer>
             <Parameters>
              <VectorParam id="9464"  name="sourceCrop">
               <InterpolatingParam id="9465" interp="linr"  time="0/1" value="0" leadInLength="0/1"  />
               <InterpolatingParam id="9466" interp="linr"  time="0/1" value="0" leadInLength="0/1"  />
               <InterpolatingParam id="9467" interp="linr"  time="0/1" value="0" leadInLength="0/1"  />
               <InterpolatingParam id="9468" interp="linr"  time="0/1" value="0" leadInLength="0/1"  />
              </VectorParam>
              <VectorParam id="9469"  name="geometryCrop">
               <InterpolatingParam id="9470" interp="linr"  time="-9999999/1" value="0" leadInLength="0/1"  />
               <InterpolatingParam id="9471" interp="linr"  time="-9999999/1" value="0" leadInLength="0/1"  />
               <InterpolatingParam id="9472" interp="linr"  time="-9999999/1" value="0" leadInLength="0/1"  />
               <InterpolatingParam id="9473" interp="linr"  time="-9999999/1" value="0" leadInLength="0/1"  />
              </VectorParam>
              <InterpolatingParam id="9474" interp="linr"  time="-9999999/1" value="1" leadInLength="0/1"  name="opacity"/>
              <InterpolatingParam id="9475" interp="linr"  time="0/1" value="0" leadInLength="0/1"  name="cursorOpacity"/>
              <InterpolatingParam id="9476" interp="linr"  time="0/1" value="0" leadInLength="0/1"  name="cursorScale"/>
             </Parameters>
             <Attributes>
              <Attribute id="9477" value="" name="ident"/>
             </Attributes>
             <ExtraData>
              <Entry key="ZoomPanBin">
               <ZoomPanBin id="9478"  >
                <ZoomPanKeyframes>
                 <ZoomPanKeyframe id="9479" timeRangeEnd="-9999999/1" timeRangeDuration="0/1" interpolaterName=""  />
                </ZoomPanKeyframes>
               </ZoomPanBin>
              </Entry>
              <Entry key="CursorEffectBin">
               <CursorEffectBin id="9480"  >
                <CursorEffectKeyframes>
                </CursorEffectKeyframes>
               </CursorEffectBin>
              </Entry>
             </ExtraData>
            </ScreenVMFile>
            <MetaData>
             <entry key="AutoAppliedSmartFocus" val="False"/>
             <entry key="WinSubProjectDisplayName" val=""/>
            </MetaData>
           </UnifiedMedia>
           <UnifiedMedia id="9481"  >
            <AMFile id="9482" start="2153" duration="154" scalar="1/1" mediaStart="3431/1" mediaDuration="154/1" trackNumber="1" src="4" channelNumber="0,1" >
             <Parameters>
              <InterpolatingParam id="9483" interp="linr"  time="0/1" value="1" leadInLength="0/1"  name="volume"/>
              <Parameter id="9484"  name="captions"/>
             </Parameters>
             <Attributes>
              <Attribute id="9485" value="" name="ident"/>
              <Attribute id="9486" value="44100" name="sampleRate"/>
              <Attribute id="9487" value="16" name="bitDepth"/>
              <Attribute id="9488" value="1" name="gain"/>
              <Attribute id="9489" value="0" name="mixToMono"/>
             </Attributes>
            </AMFile>
            <ScreenVMFile id="9490" start="2153" duration="154" scalar="1/1" mediaStart="3431/1" mediaDuration="154/1" trackNumber="0" src="4" >
             <Transformer>
              <VectorParam id="9491"  name="translation">
               <InterpolatingParam id="9492" interp="linr"  time="-9999999/1" value="0" leadInLength="0/1"  />
               <InterpolatingParam id="9493" interp="linr"  time="-9999999/1" value="0" leadInLength="0/1"  />
               <InterpolatingParam id="9494" interp="linr"  time="-9999999/1" value="0" leadInLength="0/1"  />
              </VectorParam>
              <VectorParam id="9495"  name="rotation">
               <InterpolatingParam id="9496" interp="linr"  time="-9999999/1" value="0" leadInLength="0/1"  />
               <InterpolatingParam id="9497" interp="linr"  time="-9999999/1" value="0" leadInLength="0/1"  />
               <InterpolatingParam id="9498" interp="linr"  time="-9999999/1" value="0" leadInLength="0/1"  />
              </VectorParam>
              <VectorParam id="9499"  name="shear">
               <InterpolatingParam id="9500" interp="linr"  time="-9999999/1" value="0" leadInLength="0/1"  />
               <InterpolatingParam id="9501" interp="linr"  time="-9999999/1" value="0" leadInLength="0/1"  />
               <InterpolatingParam id="9502" interp="linr"  time="-9999999/1" value="0" leadInLength="0/1"  />
              </VectorParam>
              <VectorParam id="9503"  name="scale">
               <InterpolatingParam id="9504" interp="linr"  time="-9999999/1" value="1" leadInLength="0/1"  />
               <InterpolatingParam id="9505" interp="linr"  time="-9999999/1" value="1" leadInLength="0/1"  />
               <InterpolatingParam id="9506" interp="linr"  time="-9999999/1" value="1" leadInLength="0/1"  />
              </VectorParam>
              <VectorParam id="9507"  name="anchor">
               <InterpolatingParam id="9508" interp="linr"  time="0/1" value="0" leadInLength="0/1"  />
               <InterpolatingParam id="9509" interp="linr"  time="0/1" value="0" leadInLength="0/1"  />
               <InterpolatingParam id="9510" interp="linr"  time="0/1" value="0" leadInLength="0/1"  />
              </VectorParam>
             </Transformer>
             <Parameters>
              <VectorParam id="9511"  name="sourceCrop">
               <InterpolatingParam id="9512" interp="linr"  time="0/1" value="0" leadInLength="0/1"  />
               <InterpolatingParam id="9513" interp="linr"  time="0/1" value="0" leadInLength="0/1"  />
               <InterpolatingParam id="9514" interp="linr"  time="0/1" value="0" leadInLength="0/1"  />
               <InterpolatingParam id="9515" interp="linr"  time="0/1" value="0" leadInLength="0/1"  />
              </VectorParam>
              <VectorParam id="9516"  name="geometryCrop">
               <InterpolatingParam id="9517" interp="linr"  time="-9999999/1" value="0" leadInLength="0/1"  />
               <InterpolatingParam id="9518" interp="linr"  time="-9999999/1" value="0" leadInLength="0/1"  />
               <InterpolatingParam id="9519" interp="linr"  time="-9999999/1" value="0" leadInLength="0/1"  />
               <InterpolatingParam id="9520" interp="linr"  time="-9999999/1" value="0" leadInLength="0/1"  />
              </VectorParam>
              <InterpolatingParam id="9521" interp="linr"  time="-9999999/1" value="1" leadInLength="0/1"  name="opacity"/>
              <InterpolatingParam id="9522" interp="linr"  time="0/1" value="0" leadInLength="0/1"  name="cursorOpacity"/>
              <InterpolatingParam id="9523" interp="linr"  time="0/1" value="0" leadInLength="0/1"  name="cursorScale"/>
             </Parameters>
             <Attributes>
              <Attribute id="9524" value="" name="ident"/>
             </Attributes>
             <ExtraData>
              <Entry key="ZoomPanBin">
               <ZoomPanBin id="9525"  >
                <ZoomPanKeyframes>
                 <ZoomPanKeyframe id="9526" timeRangeEnd="-9999999/1" timeRangeDuration="0/1" interpolaterName=""  />
                </ZoomPanKeyframes>
               </ZoomPanBin>
              </Entry>
              <Entry key="CursorEffectBin">
               <CursorEffectBin id="9527"  >
                <CursorEffectKeyframes>
                </CursorEffectKeyframes>
               </CursorEffectBin>
              </Entry>
             </ExtraData>
            </ScreenVMFile>
            <MetaData>
             <entry key="AutoAppliedSmartFocus" val="False"/>
             <entry key="WinSubProjectDisplayName" val=""/>
            </MetaData>
           </UnifiedMedia>
           <UnifiedMedia id="9528"  >
            <AMFile id="9529" start="2307" duration="166" scalar="1/1" mediaStart="3593/1" mediaDuration="166/1" trackNumber="1" src="4" channelNumber="0,1" >
             <Parameters>
              <InterpolatingParam id="9530" interp="linr"  time="0/1" value="1" leadInLength="0/1"  name="volume"/>
              <Parameter id="9531"  name="captions"/>
             </Parameters>
             <Attributes>
              <Attribute id="9532" value="" name="ident"/>
              <Attribute id="9533" value="44100" name="sampleRate"/>
              <Attribute id="9534" value="16" name="bitDepth"/>
              <Attribute id="9535" value="1" name="gain"/>
              <Attribute id="9536" value="0" name="mixToMono"/>
             </Attributes>
            </AMFile>
            <ScreenVMFile id="9537" start="2307" duration="166" scalar="1/1" mediaStart="3593/1" mediaDuration="166/1" trackNumber="0" src="4" >
             <Transformer>
              <VectorParam id="9538"  name="translation">
               <InterpolatingParam id="9539" interp="linr"  time="-9999999/1" value="0" leadInLength="0/1"  />
               <InterpolatingParam id="9540" interp="linr"  time="-9999999/1" value="0" leadInLength="0/1"  />
               <InterpolatingParam id="9541" interp="linr"  time="-9999999/1" value="0" leadInLength="0/1"  />
              </VectorParam>
              <VectorParam id="9542"  name="rotation">
               <InterpolatingParam id="9543" interp="linr"  time="-9999999/1" value="0" leadInLength="0/1"  />
               <InterpolatingParam id="9544" interp="linr"  time="-9999999/1" value="0" leadInLength="0/1"  />
               <InterpolatingParam id="9545" interp="linr"  time="-9999999/1" value="0" leadInLength="0/1"  />
              </VectorParam>
              <VectorParam id="9546"  name="shear">
               <InterpolatingParam id="9547" interp="linr"  time="-9999999/1" value="0" leadInLength="0/1"  />
               <InterpolatingParam id="9548" interp="linr"  time="-9999999/1" value="0" leadInLength="0/1"  />
               <InterpolatingParam id="9549" interp="linr"  time="-9999999/1" value="0" leadInLength="0/1"  />
              </VectorParam>
              <VectorParam id="9550"  name="scale">
               <InterpolatingParam id="9551" interp="linr"  time="-9999999/1" value="1" leadInLength="0/1"  />
               <InterpolatingParam id="9552" interp="linr"  time="-9999999/1" value="1" leadInLength="0/1"  />
               <InterpolatingParam id="9553" interp="linr"  time="-9999999/1" value="1" leadInLength="0/1"  />
              </VectorParam>
              <VectorParam id="9554"  name="anchor">
               <InterpolatingParam id="9555" interp="linr"  time="0/1" value="0" leadInLength="0/1"  />
               <InterpolatingParam id="9556" interp="linr"  time="0/1" value="0" leadInLength="0/1"  />
               <InterpolatingParam id="9557" interp="linr"  time="0/1" value="0" leadInLength="0/1"  />
              </VectorParam>
             </Transformer>
             <Parameters>
              <VectorParam id="9558"  name="sourceCrop">
               <InterpolatingParam id="9559" interp="linr"  time="0/1" value="0" leadInLength="0/1"  />
               <InterpolatingParam id="9560" interp="linr"  time="0/1" value="0" leadInLength="0/1"  />
               <InterpolatingParam id="9561" interp="linr"  time="0/1" value="0" leadInLength="0/1"  />
               <InterpolatingParam id="9562" interp="linr"  time="0/1" value="0" leadInLength="0/1"  />
              </VectorParam>
              <VectorParam id="9563"  name="geometryCrop">
               <InterpolatingParam id="9564" interp="linr"  time="-9999999/1" value="0" leadInLength="0/1"  />
               <InterpolatingParam id="9565" interp="linr"  time="-9999999/1" value="0" leadInLength="0/1"  />
               <InterpolatingParam id="9566" interp="linr"  time="-9999999/1" value="0" leadInLength="0/1"  />
               <InterpolatingParam id="9567" interp="linr"  time="-9999999/1" value="0" leadInLength="0/1"  />
              </VectorParam>
              <InterpolatingParam id="9568" interp="linr"  time="-9999999/1" value="1" leadInLength="0/1"  name="opacity"/>
              <InterpolatingParam id="9569" interp="linr"  time="0/1" value="0" leadInLength="0/1"  name="cursorOpacity"/>
              <InterpolatingParam id="9570" interp="linr"  time="0/1" value="0" leadInLength="0/1"  name="cursorScale"/>
             </Parameters>
             <Attributes>
              <Attribute id="9571" value="" name="ident"/>
             </Attributes>
             <ExtraData>
              <Entry key="ZoomPanBin">
               <ZoomPanBin id="9572"  >
                <ZoomPanKeyframes>
                 <ZoomPanKeyframe id="9573" timeRangeEnd="-9999999/1" timeRangeDuration="0/1" interpolaterName=""  />
                </ZoomPanKeyframes>
               </ZoomPanBin>
              </Entry>
              <Entry key="CursorEffectBin">
               <CursorEffectBin id="9574"  >
                <CursorEffectKeyframes>
                </CursorEffectKeyframes>
               </CursorEffectBin>
              </Entry>
             </ExtraData>
            </ScreenVMFile>
            <MetaData>
             <entry key="AutoAppliedSmartFocus" val="False"/>
             <entry key="WinSubProjectDisplayName" val=""/>
            </MetaData>
           </UnifiedMedia>
           <UnifiedMedia id="9575"  >
            <AMFile id="9576" start="2473" duration="76" scalar="1/1" mediaStart="3771/1" mediaDuration="76/1" trackNumber="1" src="4" channelNumber="0,1" >
             <Parameters>
              <InterpolatingParam id="9577" interp="linr"  time="0/1" value="1" leadInLength="0/1"  name="volume"/>
              <Parameter id="9578"  name="captions"/>
             </Parameters>
             <Attributes>
              <Attribute id="9579" value="" name="ident"/>
              <Attribute id="9580" value="44100" name="sampleRate"/>
              <Attribute id="9581" value="16" name="bitDepth"/>
              <Attribute id="9582" value="1" name="gain"/>
              <Attribute id="9583" value="0" name="mixToMono"/>
             </Attributes>
            </AMFile>
            <ScreenVMFile id="9584" start="2473" duration="76" scalar="1/1" mediaStart="3771/1" mediaDuration="76/1" trackNumber="0" src="4" >
             <Transformer>
              <VectorParam id="9585"  name="translation">
               <InterpolatingParam id="9586" interp="linr"  time="-9999999/1" value="0" leadInLength="0/1"  />
               <InterpolatingParam id="9587" interp="linr"  time="-9999999/1" value="0" leadInLength="0/1"  />
               <InterpolatingParam id="9588" interp="linr"  time="-9999999/1" value="0" leadInLength="0/1"  />
              </VectorParam>
              <VectorParam id="9589"  name="rotation">
               <InterpolatingParam id="9590" interp="linr"  time="-9999999/1" value="0" leadInLength="0/1"  />
               <InterpolatingParam id="9591" interp="linr"  time="-9999999/1" value="0" leadInLength="0/1"  />
               <InterpolatingParam id="9592" interp="linr"  time="-9999999/1" value="0" leadInLength="0/1"  />
              </VectorParam>
              <VectorParam id="9593"  name="shear">
               <InterpolatingParam id="9594" interp="linr"  time="-9999999/1" value="0" leadInLength="0/1"  />
               <InterpolatingParam id="9595" interp="linr"  time="-9999999/1" value="0" leadInLength="0/1"  />
               <InterpolatingParam id="9596" interp="linr"  time="-9999999/1" value="0" leadInLength="0/1"  />
              </VectorParam>
              <VectorParam id="9597"  name="scale">
               <InterpolatingParam id="9598" interp="linr"  time="-9999999/1" value="1" leadInLength="0/1"  />
               <InterpolatingParam id="9599" interp="linr"  time="-9999999/1" value="1" leadInLength="0/1"  />
               <InterpolatingParam id="9600" interp="linr"  time="-9999999/1" value="1" leadInLength="0/1"  />
              </VectorParam>
              <VectorParam id="9601"  name="anchor">
               <InterpolatingParam id="9602" interp="linr"  time="0/1" value="0" leadInLength="0/1"  />
               <InterpolatingParam id="9603" interp="linr"  time="0/1" value="0" leadInLength="0/1"  />
               <InterpolatingParam id="9604" interp="linr"  time="0/1" value="0" leadInLength="0/1"  />
              </VectorParam>
             </Transformer>
             <Parameters>
              <VectorParam id="9605"  name="sourceCrop">
               <InterpolatingParam id="9606" interp="linr"  time="0/1" value="0" leadInLength="0/1"  />
               <InterpolatingParam id="9607" interp="linr"  time="0/1" value="0" leadInLength="0/1"  />
               <InterpolatingParam id="9608" interp="linr"  time="0/1" value="0" leadInLength="0/1"  />
               <InterpolatingParam id="9609" interp="linr"  time="0/1" value="0" leadInLength="0/1"  />
              </VectorParam>
              <VectorParam id="9610"  name="geometryCrop">
               <InterpolatingParam id="9611" interp="linr"  time="-9999999/1" value="0" leadInLength="0/1"  />
               <InterpolatingParam id="9612" interp="linr"  time="-9999999/1" value="0" leadInLength="0/1"  />
               <InterpolatingParam id="9613" interp="linr"  time="-9999999/1" value="0" leadInLength="0/1"  />
               <InterpolatingParam id="9614" interp="linr"  time="-9999999/1" value="0" leadInLength="0/1"  />
              </VectorParam>
              <InterpolatingParam id="9615" interp="linr"  time="-9999999/1" value="1" leadInLength="0/1"  name="opacity"/>
              <InterpolatingParam id="9616" interp="linr"  time="0/1" value="0" leadInLength="0/1"  name="cursorOpacity"/>
              <InterpolatingParam id="9617" interp="linr"  time="0/1" value="0" leadInLength="0/1"  name="cursorScale"/>
             </Parameters>
             <Attributes>
              <Attribute id="9618" value="" name="ident"/>
             </Attributes>
             <ExtraData>
              <Entry key="ZoomPanBin">
               <ZoomPanBin id="9619"  >
                <ZoomPanKeyframes>
                 <ZoomPanKeyframe id="9620" timeRangeEnd="-9999999/1" timeRangeDuration="0/1" interpolaterName=""  />
                </ZoomPanKeyframes>
               </ZoomPanBin>
              </Entry>
              <Entry key="CursorEffectBin">
               <CursorEffectBin id="9621"  >
                <CursorEffectKeyframes>
                </CursorEffectKeyframes>
               </CursorEffectBin>
              </Entry>
             </ExtraData>
            </ScreenVMFile>
            <MetaData>
             <entry key="AutoAppliedSmartFocus" val="False"/>
             <entry key="WinSubProjectDisplayName" val=""/>
            </MetaData>
           </UnifiedMedia>
           <UnifiedMedia id="9622"  >
            <AMFile id="9623" start="2549" duration="116" scalar="1/1" mediaStart="4178/1" mediaDuration="116/1" trackNumber="1" src="4" channelNumber="0,1" >
             <Parameters>
              <InterpolatingParam id="9624" interp="linr"  time="0/1" value="1" leadInLength="0/1"  name="volume"/>
              <Parameter id="9625"  name="captions"/>
             </Parameters>
             <Attributes>
              <Attribute id="9626" value="" name="ident"/>
              <Attribute id="9627" value="44100" name="sampleRate"/>
              <Attribute id="9628" value="16" name="bitDepth"/>
              <Attribute id="9629" value="1" name="gain"/>
              <Attribute id="9630" value="0" name="mixToMono"/>
             </Attributes>
            </AMFile>
            <ScreenVMFile id="9631" start="2549" duration="116" scalar="1/1" mediaStart="4178/1" mediaDuration="116/1" trackNumber="0" src="4" >
             <Transformer>
              <VectorParam id="9632"  name="translation">
               <InterpolatingParam id="9633" interp="linr"  time="-9999999/1" value="0" leadInLength="0/1"  />
               <InterpolatingParam id="9634" interp="linr"  time="-9999999/1" value="0" leadInLength="0/1"  />
               <InterpolatingParam id="9635" interp="linr"  time="-9999999/1" value="0" leadInLength="0/1"  />
              </VectorParam>
              <VectorParam id="9636"  name="rotation">
               <InterpolatingParam id="9637" interp="linr"  time="-9999999/1" value="0" leadInLength="0/1"  />
               <InterpolatingParam id="9638" interp="linr"  time="-9999999/1" value="0" leadInLength="0/1"  />
               <InterpolatingParam id="9639" interp="linr"  time="-9999999/1" value="0" leadInLength="0/1"  />
              </VectorParam>
              <VectorParam id="9640"  name="shear">
               <InterpolatingParam id="9641" interp="linr"  time="-9999999/1" value="0" leadInLength="0/1"  />
               <InterpolatingParam id="9642" interp="linr"  time="-9999999/1" value="0" leadInLength="0/1"  />
               <InterpolatingParam id="9643" interp="linr"  time="-9999999/1" value="0" leadInLength="0/1"  />
              </VectorParam>
              <VectorParam id="9644"  name="scale">
               <InterpolatingParam id="9645" interp="linr"  time="-9999999/1" value="1" leadInLength="0/1"  />
               <InterpolatingParam id="9646" interp="linr"  time="-9999999/1" value="1" leadInLength="0/1"  />
               <InterpolatingParam id="9647" interp="linr"  time="-9999999/1" value="1" leadInLength="0/1"  />
              </VectorParam>
              <VectorParam id="9648"  name="anchor">
               <InterpolatingParam id="9649" interp="linr"  time="0/1" value="0" leadInLength="0/1"  />
               <InterpolatingParam id="9650" interp="linr"  time="0/1" value="0" leadInLength="0/1"  />
               <InterpolatingParam id="9651" interp="linr"  time="0/1" value="0" leadInLength="0/1"  />
              </VectorParam>
             </Transformer>
             <Parameters>
              <VectorParam id="9652"  name="sourceCrop">
               <InterpolatingParam id="9653" interp="linr"  time="0/1" value="0" leadInLength="0/1"  />
               <InterpolatingParam id="9654" interp="linr"  time="0/1" value="0" leadInLength="0/1"  />
               <InterpolatingParam id="9655" interp="linr"  time="0/1" value="0" leadInLength="0/1"  />
               <InterpolatingParam id="9656" interp="linr"  time="0/1" value="0" leadInLength="0/1"  />
              </VectorParam>
              <VectorParam id="9657"  name="geometryCrop">
               <InterpolatingParam id="9658" interp="linr"  time="-9999999/1" value="0" leadInLength="0/1"  />
               <InterpolatingParam id="9659" interp="linr"  time="-9999999/1" value="0" leadInLength="0/1"  />
               <InterpolatingParam id="9660" interp="linr"  time="-9999999/1" value="0" leadInLength="0/1"  />
               <InterpolatingParam id="9661" interp="linr"  time="-9999999/1" value="0" leadInLength="0/1"  />
              </VectorParam>
              <InterpolatingParam id="9662" interp="linr"  time="-9999999/1" value="1" leadInLength="0/1"  name="opacity"/>
              <InterpolatingParam id="9663" interp="linr"  time="0/1" value="0" leadInLength="0/1"  name="cursorOpacity"/>
              <InterpolatingParam id="9664" interp="linr"  time="0/1" value="0" leadInLength="0/1"  name="cursorScale"/>
             </Parameters>
             <Attributes>
              <Attribute id="9665" value="" name="ident"/>
             </Attributes>
             <ExtraData>
              <Entry key="ZoomPanBin">
               <ZoomPanBin id="9666"  >
                <ZoomPanKeyframes>
                 <ZoomPanKeyframe id="9667" timeRangeEnd="-9999999/1" timeRangeDuration="0/1" interpolaterName=""  />
                </ZoomPanKeyframes>
               </ZoomPanBin>
              </Entry>
              <Entry key="CursorEffectBin">
               <CursorEffectBin id="9668"  >
                <CursorEffectKeyframes>
                </CursorEffectKeyframes>
               </CursorEffectBin>
              </Entry>
             </ExtraData>
            </ScreenVMFile>
            <MetaData>
             <entry key="AutoAppliedSmartFocus" val="False"/>
             <entry key="WinSubProjectDisplayName" val=""/>
            </MetaData>
           </UnifiedMedia>
           <UnifiedMedia id="9669"  >
            <AMFile id="9670" start="2665" duration="203" scalar="1/1" mediaStart="4303/1" mediaDuration="203/1" trackNumber="1" src="4" channelNumber="0,1" >
             <Parameters>
              <InterpolatingParam id="9671" interp="linr"  time="0/1" value="1" leadInLength="0/1"  name="volume"/>
              <Parameter id="9672"  name="captions"/>
             </Parameters>
             <Attributes>
              <Attribute id="9673" value="" name="ident"/>
              <Attribute id="9674" value="44100" name="sampleRate"/>
              <Attribute id="9675" value="16" name="bitDepth"/>
              <Attribute id="9676" value="1" name="gain"/>
              <Attribute id="9677" value="0" name="mixToMono"/>
             </Attributes>
            </AMFile>
            <ScreenVMFile id="9678" start="2665" duration="203" scalar="1/1" mediaStart="4303/1" mediaDuration="203/1" trackNumber="0" src="4" >
             <Transformer>
              <VectorParam id="9679"  name="translation">
               <InterpolatingParam id="9680" interp="linr"  time="-9999999/1" value="0" leadInLength="0/1"  />
               <InterpolatingParam id="9681" interp="linr"  time="-9999999/1" value="0" leadInLength="0/1"  />
               <InterpolatingParam id="9682" interp="linr"  time="-9999999/1" value="0" leadInLength="0/1"  />
              </VectorParam>
              <VectorParam id="9683"  name="rotation">
               <InterpolatingParam id="9684" interp="linr"  time="-9999999/1" value="0" leadInLength="0/1"  />
               <InterpolatingParam id="9685" interp="linr"  time="-9999999/1" value="0" leadInLength="0/1"  />
               <InterpolatingParam id="9686" interp="linr"  time="-9999999/1" value="0" leadInLength="0/1"  />
              </VectorParam>
              <VectorParam id="9687"  name="shear">
               <InterpolatingParam id="9688" interp="linr"  time="-9999999/1" value="0" leadInLength="0/1"  />
               <InterpolatingParam id="9689" interp="linr"  time="-9999999/1" value="0" leadInLength="0/1"  />
               <InterpolatingParam id="9690" interp="linr"  time="-9999999/1" value="0" leadInLength="0/1"  />
              </VectorParam>
              <VectorParam id="9691"  name="scale">
               <InterpolatingParam id="9692" interp="linr"  time="-9999999/1" value="1" leadInLength="0/1"  />
               <InterpolatingParam id="9693" interp="linr"  time="-9999999/1" value="1" leadInLength="0/1"  />
               <InterpolatingParam id="9694" interp="linr"  time="-9999999/1" value="1" leadInLength="0/1"  />
              </VectorParam>
              <VectorParam id="9695"  name="anchor">
               <InterpolatingParam id="9696" interp="linr"  time="0/1" value="0" leadInLength="0/1"  />
               <InterpolatingParam id="9697" interp="linr"  time="0/1" value="0" leadInLength="0/1"  />
               <InterpolatingParam id="9698" interp="linr"  time="0/1" value="0" leadInLength="0/1"  />
              </VectorParam>
             </Transformer>
             <Parameters>
              <VectorParam id="9699"  name="sourceCrop">
               <InterpolatingParam id="9700" interp="linr"  time="0/1" value="0" leadInLength="0/1"  />
               <InterpolatingParam id="9701" interp="linr"  time="0/1" value="0" leadInLength="0/1"  />
               <InterpolatingParam id="9702" interp="linr"  time="0/1" value="0" leadInLength="0/1"  />
               <InterpolatingParam id="9703" interp="linr"  time="0/1" value="0" leadInLength="0/1"  />
              </VectorParam>
              <VectorParam id="9704"  name="geometryCrop">
               <InterpolatingParam id="9705" interp="linr"  time="-9999999/1" value="0" leadInLength="0/1"  />
               <InterpolatingParam id="9706" interp="linr"  time="-9999999/1" value="0" leadInLength="0/1"  />
               <InterpolatingParam id="9707" interp="linr"  time="-9999999/1" value="0" leadInLength="0/1"  />
               <InterpolatingParam id="9708" interp="linr"  time="-9999999/1" value="0" leadInLength="0/1"  />
              </VectorParam>
              <InterpolatingParam id="9709" interp="linr"  time="-9999999/1" value="1" leadInLength="0/1"  name="opacity"/>
              <InterpolatingParam id="9710" interp="linr"  time="0/1" value="0" leadInLength="0/1"  name="cursorOpacity"/>
              <InterpolatingParam id="9711" interp="linr"  time="0/1" value="0" leadInLength="0/1"  name="cursorScale"/>
             </Parameters>
             <Attributes>
              <Attribute id="9712" value="" name="ident"/>
             </Attributes>
             <ExtraData>
              <Entry key="ZoomPanBin">
               <ZoomPanBin id="9713"  >
                <ZoomPanKeyframes>
                 <ZoomPanKeyframe id="9714" timeRangeEnd="-9999999/1" timeRangeDuration="0/1" interpolaterName=""  />
                </ZoomPanKeyframes>
               </ZoomPanBin>
              </Entry>
              <Entry key="CursorEffectBin">
               <CursorEffectBin id="9715"  >
                <CursorEffectKeyframes>
                </CursorEffectKeyframes>
               </CursorEffectBin>
              </Entry>
             </ExtraData>
            </ScreenVMFile>
            <MetaData>
             <entry key="AutoAppliedSmartFocus" val="False"/>
             <entry key="WinSubProjectDisplayName" val=""/>
            </MetaData>
           </UnifiedMedia>
           <UnifiedMedia id="9716"  >
            <AMFile id="9717" start="2868" duration="97" scalar="1/1" mediaStart="4515/1" mediaDuration="97/1" trackNumber="1" src="4" channelNumber="0,1" >
             <Parameters>
              <InterpolatingParam id="9718" interp="linr"  time="0/1" value="1" leadInLength="0/1"  name="volume"/>
              <Parameter id="9719"  name="captions"/>
             </Parameters>
             <Attributes>
              <Attribute id="9720" value="" name="ident"/>
              <Attribute id="9721" value="44100" name="sampleRate"/>
              <Attribute id="9722" value="16" name="bitDepth"/>
              <Attribute id="9723" value="1" name="gain"/>
              <Attribute id="9724" value="0" name="mixToMono"/>
             </Attributes>
            </AMFile>
            <ScreenVMFile id="9725" start="2868" duration="97" scalar="1/1" mediaStart="4515/1" mediaDuration="97/1" trackNumber="0" src="4" >
             <Transformer>
              <VectorParam id="9726"  name="translation">
               <InterpolatingParam id="9727" interp="linr"  time="-9999999/1" value="0" leadInLength="0/1"  />
               <InterpolatingParam id="9728" interp="linr"  time="-9999999/1" value="0" leadInLength="0/1"  />
               <InterpolatingParam id="9729" interp="linr"  time="-9999999/1" value="0" leadInLength="0/1"  />
              </VectorParam>
              <VectorParam id="9730"  name="rotation">
               <InterpolatingParam id="9731" interp="linr"  time="-9999999/1" value="0" leadInLength="0/1"  />
               <InterpolatingParam id="9732" interp="linr"  time="-9999999/1" value="0" leadInLength="0/1"  />
               <InterpolatingParam id="9733" interp="linr"  time="-9999999/1" value="0" leadInLength="0/1"  />
              </VectorParam>
              <VectorParam id="9734"  name="shear">
               <InterpolatingParam id="9735" interp="linr"  time="-9999999/1" value="0" leadInLength="0/1"  />
               <InterpolatingParam id="9736" interp="linr"  time="-9999999/1" value="0" leadInLength="0/1"  />
               <InterpolatingParam id="9737" interp="linr"  time="-9999999/1" value="0" leadInLength="0/1"  />
              </VectorParam>
              <VectorParam id="9738"  name="scale">
               <InterpolatingParam id="9739" interp="linr"  time="-9999999/1" value="1" leadInLength="0/1"  />
               <InterpolatingParam id="9740" interp="linr"  time="-9999999/1" value="1" leadInLength="0/1"  />
               <InterpolatingParam id="9741" interp="linr"  time="-9999999/1" value="1" leadInLength="0/1"  />
              </VectorParam>
              <VectorParam id="9742"  name="anchor">
               <InterpolatingParam id="9743" interp="linr"  time="0/1" value="0" leadInLength="0/1"  />
               <InterpolatingParam id="9744" interp="linr"  time="0/1" value="0" leadInLength="0/1"  />
               <InterpolatingParam id="9745" interp="linr"  time="0/1" value="0" leadInLength="0/1"  />
              </VectorParam>
             </Transformer>
             <Parameters>
              <VectorParam id="9746"  name="sourceCrop">
               <InterpolatingParam id="9747" interp="linr"  time="0/1" value="0" leadInLength="0/1"  />
               <InterpolatingParam id="9748" interp="linr"  time="0/1" value="0" leadInLength="0/1"  />
               <InterpolatingParam id="9749" interp="linr"  time="0/1" value="0" leadInLength="0/1"  />
               <InterpolatingParam id="9750" interp="linr"  time="0/1" value="0" leadInLength="0/1"  />
              </VectorParam>
              <VectorParam id="9751"  name="geometryCrop">
               <InterpolatingParam id="9752" interp="linr"  time="-9999999/1" value="0" leadInLength="0/1"  />
               <InterpolatingParam id="9753" interp="linr"  time="-9999999/1" value="0" leadInLength="0/1"  />
               <InterpolatingParam id="9754" interp="linr"  time="-9999999/1" value="0" leadInLength="0/1"  />
               <InterpolatingParam id="9755" interp="linr"  time="-9999999/1" value="0" leadInLength="0/1"  />
              </VectorParam>
              <InterpolatingParam id="9756" interp="linr"  time="-9999999/1" value="1" leadInLength="0/1"  name="opacity"/>
              <InterpolatingParam id="9757" interp="linr"  time="0/1" value="0" leadInLength="0/1"  name="cursorOpacity"/>
              <InterpolatingParam id="9758" interp="linr"  time="0/1" value="0" leadInLength="0/1"  name="cursorScale"/>
             </Parameters>
             <Attributes>
              <Attribute id="9759" value="" name="ident"/>
             </Attributes>
             <ExtraData>
              <Entry key="ZoomPanBin">
               <ZoomPanBin id="9760"  >
                <ZoomPanKeyframes>
                 <ZoomPanKeyframe id="9761" timeRangeEnd="-9999999/1" timeRangeDuration="0/1" interpolaterName=""  />
                </ZoomPanKeyframes>
               </ZoomPanBin>
              </Entry>
              <Entry key="CursorEffectBin">
               <CursorEffectBin id="9762"  >
                <CursorEffectKeyframes>
                </CursorEffectKeyframes>
               </CursorEffectBin>
              </Entry>
             </ExtraData>
            </ScreenVMFile>
            <MetaData>
             <entry key="AutoAppliedSmartFocus" val="False"/>
             <entry key="WinSubProjectDisplayName" val=""/>
            </MetaData>
           </UnifiedMedia>
           <UnifiedMedia id="9763"  >
            <AMFile id="9764" start="2965" duration="87" scalar="1/1" mediaStart="4860/1" mediaDuration="87/1" trackNumber="1" src="4" channelNumber="0,1" >
             <Parameters>
              <InterpolatingParam id="9765" interp="linr"  time="0/1" value="1" leadInLength="0/1"  name="volume"/>
              <Parameter id="9766"  name="captions"/>
             </Parameters>
             <Attributes>
              <Attribute id="9767" value="" name="ident"/>
              <Attribute id="9768" value="44100" name="sampleRate"/>
              <Attribute id="9769" value="16" name="bitDepth"/>
              <Attribute id="9770" value="1" name="gain"/>
              <Attribute id="9771" value="0" name="mixToMono"/>
             </Attributes>
            </AMFile>
            <ScreenVMFile id="9772" start="2965" duration="87" scalar="1/1" mediaStart="4860/1" mediaDuration="87/1" trackNumber="0" src="4" >
             <Transformer>
              <VectorParam id="9773"  name="translation">
               <InterpolatingParam id="9774" interp="linr"  time="-9999999/1" value="0" leadInLength="0/1"  />
               <InterpolatingParam id="9775" interp="linr"  time="-9999999/1" value="0" leadInLength="0/1"  />
               <InterpolatingParam id="9776" interp="linr"  time="-9999999/1" value="0" leadInLength="0/1"  />
              </VectorParam>
              <VectorParam id="9777"  name="rotation">
               <InterpolatingParam id="9778" interp="linr"  time="-9999999/1" value="0" leadInLength="0/1"  />
               <InterpolatingParam id="9779" interp="linr"  time="-9999999/1" value="0" leadInLength="0/1"  />
               <InterpolatingParam id="9780" interp="linr"  time="-9999999/1" value="0" leadInLength="0/1"  />
              </VectorParam>
              <VectorParam id="9781"  name="shear">
               <InterpolatingParam id="9782" interp="linr"  time="-9999999/1" value="0" leadInLength="0/1"  />
               <InterpolatingParam id="9783" interp="linr"  time="-9999999/1" value="0" leadInLength="0/1"  />
               <InterpolatingParam id="9784" interp="linr"  time="-9999999/1" value="0" leadInLength="0/1"  />
              </VectorParam>
              <VectorParam id="9785"  name="scale">
               <InterpolatingParam id="9786" interp="linr"  time="-9999999/1" value="1" leadInLength="0/1"  />
               <InterpolatingParam id="9787" interp="linr"  time="-9999999/1" value="1" leadInLength="0/1"  />
               <InterpolatingParam id="9788" interp="linr"  time="-9999999/1" value="1" leadInLength="0/1"  />
              </VectorParam>
              <VectorParam id="9789"  name="anchor">
               <InterpolatingParam id="9790" interp="linr"  time="0/1" value="0" leadInLength="0/1"  />
               <InterpolatingParam id="9791" interp="linr"  time="0/1" value="0" leadInLength="0/1"  />
               <InterpolatingParam id="9792" interp="linr"  time="0/1" value="0" leadInLength="0/1"  />
              </VectorParam>
             </Transformer>
             <Parameters>
              <VectorParam id="9793"  name="sourceCrop">
               <InterpolatingParam id="9794" interp="linr"  time="0/1" value="0" leadInLength="0/1"  />
               <InterpolatingParam id="9795" interp="linr"  time="0/1" value="0" leadInLength="0/1"  />
               <InterpolatingParam id="9796" interp="linr"  time="0/1" value="0" leadInLength="0/1"  />
               <InterpolatingParam id="9797" interp="linr"  time="0/1" value="0" leadInLength="0/1"  />
              </VectorParam>
              <VectorParam id="9798"  name="geometryCrop">
               <InterpolatingParam id="9799" interp="linr"  time="-9999999/1" value="0" leadInLength="0/1"  />
               <InterpolatingParam id="9800" interp="linr"  time="-9999999/1" value="0" leadInLength="0/1"  />
               <InterpolatingParam id="9801" interp="linr"  time="-9999999/1" value="0" leadInLength="0/1"  />
               <InterpolatingParam id="9802" interp="linr"  time="-9999999/1" value="0" leadInLength="0/1"  />
              </VectorParam>
              <InterpolatingParam id="9803" interp="linr"  time="-9999999/1" value="1" leadInLength="0/1"  name="opacity"/>
              <InterpolatingParam id="9804" interp="linr"  time="0/1" value="0" leadInLength="0/1"  name="cursorOpacity"/>
              <InterpolatingParam id="9805" interp="linr"  time="0/1" value="0" leadInLength="0/1"  name="cursorScale"/>
             </Parameters>
             <Attributes>
              <Attribute id="9806" value="" name="ident"/>
             </Attributes>
             <ExtraData>
              <Entry key="ZoomPanBin">
               <ZoomPanBin id="9807"  >
                <ZoomPanKeyframes>
                 <ZoomPanKeyframe id="9808" timeRangeEnd="-9999999/1" timeRangeDuration="0/1" interpolaterName=""  />
                </ZoomPanKeyframes>
               </ZoomPanBin>
              </Entry>
              <Entry key="CursorEffectBin">
               <CursorEffectBin id="9809"  >
                <CursorEffectKeyframes>
                </CursorEffectKeyframes>
               </CursorEffectBin>
              </Entry>
             </ExtraData>
            </ScreenVMFile>
            <MetaData>
             <entry key="AutoAppliedSmartFocus" val="False"/>
             <entry key="WinSubProjectDisplayName" val=""/>
            </MetaData>
           </UnifiedMedia>
           <UnifiedMedia id="9810"  >
            <AMFile id="9811" start="3052" duration="73" scalar="1/1" mediaStart="4957/1" mediaDuration="73/1" trackNumber="1" src="4" channelNumber="0,1" >
             <Parameters>
              <InterpolatingParam id="9812" interp="linr"  time="0/1" value="1" leadInLength="0/1"  name="volume"/>
              <Parameter id="9813"  name="captions"/>
             </Parameters>
             <Attributes>
              <Attribute id="9814" value="" name="ident"/>
              <Attribute id="9815" value="44100" name="sampleRate"/>
              <Attribute id="9816" value="16" name="bitDepth"/>
              <Attribute id="9817" value="1" name="gain"/>
              <Attribute id="9818" value="0" name="mixToMono"/>
             </Attributes>
            </AMFile>
            <ScreenVMFile id="9819" start="3052" duration="73" scalar="1/1" mediaStart="4957/1" mediaDuration="73/1" trackNumber="0" src="4" >
             <Transformer>
              <VectorParam id="9820"  name="translation">
               <InterpolatingParam id="9821" interp="linr"  time="-9999999/1" value="0" leadInLength="0/1"  />
               <InterpolatingParam id="9822" interp="linr"  time="-9999999/1" value="0" leadInLength="0/1"  />
               <InterpolatingParam id="9823" interp="linr"  time="-9999999/1" value="0" leadInLength="0/1"  />
              </VectorParam>
              <VectorParam id="9824"  name="rotation">
               <InterpolatingParam id="9825" interp="linr"  time="-9999999/1" value="0" leadInLength="0/1"  />
               <InterpolatingParam id="9826" interp="linr"  time="-9999999/1" value="0" leadInLength="0/1"  />
               <InterpolatingParam id="9827" interp="linr"  time="-9999999/1" value="0" leadInLength="0/1"  />
              </VectorParam>
              <VectorParam id="9828"  name="shear">
               <InterpolatingParam id="9829" interp="linr"  time="-9999999/1" value="0" leadInLength="0/1"  />
               <InterpolatingParam id="9830" interp="linr"  time="-9999999/1" value="0" leadInLength="0/1"  />
               <InterpolatingParam id="9831" interp="linr"  time="-9999999/1" value="0" leadInLength="0/1"  />
              </VectorParam>
              <VectorParam id="9832"  name="scale">
               <InterpolatingParam id="9833" interp="linr"  time="-9999999/1" value="1" leadInLength="0/1"  />
               <InterpolatingParam id="9834" interp="linr"  time="-9999999/1" value="1" leadInLength="0/1"  />
               <InterpolatingParam id="9835" interp="linr"  time="-9999999/1" value="1" leadInLength="0/1"  />
              </VectorParam>
              <VectorParam id="9836"  name="anchor">
               <InterpolatingParam id="9837" interp="linr"  time="0/1" value="0" leadInLength="0/1"  />
               <InterpolatingParam id="9838" interp="linr"  time="0/1" value="0" leadInLength="0/1"  />
               <InterpolatingParam id="9839" interp="linr"  time="0/1" value="0" leadInLength="0/1"  />
              </VectorParam>
             </Transformer>
             <Parameters>
              <VectorParam id="9840"  name="sourceCrop">
               <InterpolatingParam id="9841" interp="linr"  time="0/1" value="0" leadInLength="0/1"  />
               <InterpolatingParam id="9842" interp="linr"  time="0/1" value="0" leadInLength="0/1"  />
               <InterpolatingParam id="9843" interp="linr"  time="0/1" value="0" leadInLength="0/1"  />
               <InterpolatingParam id="9844" interp="linr"  time="0/1" value="0" leadInLength="0/1"  />
              </VectorParam>
              <VectorParam id="9845"  name="geometryCrop">
               <InterpolatingParam id="9846" interp="linr"  time="-9999999/1" value="0" leadInLength="0/1"  />
               <InterpolatingParam id="9847" interp="linr"  time="-9999999/1" value="0" leadInLength="0/1"  />
               <InterpolatingParam id="9848" interp="linr"  time="-9999999/1" value="0" leadInLength="0/1"  />
               <InterpolatingParam id="9849" interp="linr"  time="-9999999/1" value="0" leadInLength="0/1"  />
              </VectorParam>
              <InterpolatingParam id="9850" interp="linr"  time="-9999999/1" value="1" leadInLength="0/1"  name="opacity"/>
              <InterpolatingParam id="9851" interp="linr"  time="0/1" value="0" leadInLength="0/1"  name="cursorOpacity"/>
              <InterpolatingParam id="9852" interp="linr"  time="0/1" value="0" leadInLength="0/1"  name="cursorScale"/>
             </Parameters>
             <Attributes>
              <Attribute id="9853" value="" name="ident"/>
             </Attributes>
             <ExtraData>
              <Entry key="ZoomPanBin">
               <ZoomPanBin id="9854"  >
                <ZoomPanKeyframes>
                 <ZoomPanKeyframe id="9855" timeRangeEnd="-9999999/1" timeRangeDuration="0/1" interpolaterName=""  />
                </ZoomPanKeyframes>
               </ZoomPanBin>
              </Entry>
              <Entry key="CursorEffectBin">
               <CursorEffectBin id="9856"  >
                <CursorEffectKeyframes>
                </CursorEffectKeyframes>
               </CursorEffectBin>
              </Entry>
             </ExtraData>
            </ScreenVMFile>
            <MetaData>
             <entry key="AutoAppliedSmartFocus" val="False"/>
             <entry key="WinSubProjectDisplayName" val=""/>
            </MetaData>
           </UnifiedMedia>
           <UnifiedMedia id="9857"  >
            <AMFile id="9858" start="3125" duration="197" scalar="1/1" mediaStart="5334/1" mediaDuration="197/1" trackNumber="1" src="4" channelNumber="0,1" >
             <Parameters>
              <InterpolatingParam id="9859" interp="linr"  time="0/1" value="1" leadInLength="0/1"  name="volume"/>
              <Parameter id="9860"  name="captions"/>
             </Parameters>
             <Attributes>
              <Attribute id="9861" value="" name="ident"/>
              <Attribute id="9862" value="44100" name="sampleRate"/>
              <Attribute id="9863" value="16" name="bitDepth"/>
              <Attribute id="9864" value="1" name="gain"/>
              <Attribute id="9865" value="0" name="mixToMono"/>
             </Attributes>
            </AMFile>
            <ScreenVMFile id="9866" start="3125" duration="197" scalar="1/1" mediaStart="5334/1" mediaDuration="197/1" trackNumber="0" src="4" >
             <Transformer>
              <VectorParam id="9867"  name="translation">
               <InterpolatingParam id="9868" interp="linr"  time="-9999999/1" value="0" leadInLength="0/1"  />
               <InterpolatingParam id="9869" interp="linr"  time="-9999999/1" value="0" leadInLength="0/1"  />
               <InterpolatingParam id="9870" interp="linr"  time="-9999999/1" value="0" leadInLength="0/1"  />
              </VectorParam>
              <VectorParam id="9871"  name="rotation">
               <InterpolatingParam id="9872" interp="linr"  time="-9999999/1" value="0" leadInLength="0/1"  />
               <InterpolatingParam id="9873" interp="linr"  time="-9999999/1" value="0" leadInLength="0/1"  />
               <InterpolatingParam id="9874" interp="linr"  time="-9999999/1" value="0" leadInLength="0/1"  />
              </VectorParam>
              <VectorParam id="9875"  name="shear">
               <InterpolatingParam id="9876" interp="linr"  time="-9999999/1" value="0" leadInLength="0/1"  />
               <InterpolatingParam id="9877" interp="linr"  time="-9999999/1" value="0" leadInLength="0/1"  />
               <InterpolatingParam id="9878" interp="linr"  time="-9999999/1" value="0" leadInLength="0/1"  />
              </VectorParam>
              <VectorParam id="9879"  name="scale">
               <InterpolatingParam id="9880" interp="linr"  time="-9999999/1" value="1" leadInLength="0/1"  />
               <InterpolatingParam id="9881" interp="linr"  time="-9999999/1" value="1" leadInLength="0/1"  />
               <InterpolatingParam id="9882" interp="linr"  time="-9999999/1" value="1" leadInLength="0/1"  />
              </VectorParam>
              <VectorParam id="9883"  name="anchor">
               <InterpolatingParam id="9884" interp="linr"  time="0/1" value="0" leadInLength="0/1"  />
               <InterpolatingParam id="9885" interp="linr"  time="0/1" value="0" leadInLength="0/1"  />
               <InterpolatingParam id="9886" interp="linr"  time="0/1" value="0" leadInLength="0/1"  />
              </VectorParam>
             </Transformer>
             <Parameters>
              <VectorParam id="9887"  name="sourceCrop">
               <InterpolatingParam id="9888" interp="linr"  time="0/1" value="0" leadInLength="0/1"  />
               <InterpolatingParam id="9889" interp="linr"  time="0/1" value="0" leadInLength="0/1"  />
               <InterpolatingParam id="9890" interp="linr"  time="0/1" value="0" leadInLength="0/1"  />
               <InterpolatingParam id="9891" interp="linr"  time="0/1" value="0" leadInLength="0/1"  />
              </VectorParam>
              <VectorParam id="9892"  name="geometryCrop">
               <InterpolatingParam id="9893" interp="linr"  time="-9999999/1" value="0" leadInLength="0/1"  />
               <InterpolatingParam id="9894" interp="linr"  time="-9999999/1" value="0" leadInLength="0/1"  />
               <InterpolatingParam id="9895" interp="linr"  time="-9999999/1" value="0" leadInLength="0/1"  />
               <InterpolatingParam id="9896" interp="linr"  time="-9999999/1" value="0" leadInLength="0/1"  />
              </VectorParam>
              <InterpolatingParam id="9897" interp="linr"  time="-9999999/1" value="1" leadInLength="0/1"  name="opacity"/>
              <InterpolatingParam id="9898" interp="linr"  time="0/1" value="0" leadInLength="0/1"  name="cursorOpacity"/>
              <InterpolatingParam id="9899" interp="linr"  time="0/1" value="0" leadInLength="0/1"  name="cursorScale"/>
             </Parameters>
             <Attributes>
              <Attribute id="9900" value="" name="ident"/>
             </Attributes>
             <ExtraData>
              <Entry key="ZoomPanBin">
               <ZoomPanBin id="9901"  >
                <ZoomPanKeyframes>
                 <ZoomPanKeyframe id="9902" timeRangeEnd="-9999999/1" timeRangeDuration="0/1" interpolaterName=""  />
                </ZoomPanKeyframes>
               </ZoomPanBin>
              </Entry>
              <Entry key="CursorEffectBin">
               <CursorEffectBin id="9903"  >
                <CursorEffectKeyframes>
                </CursorEffectKeyframes>
               </CursorEffectBin>
              </Entry>
             </ExtraData>
            </ScreenVMFile>
            <MetaData>
             <entry key="AutoAppliedSmartFocus" val="False"/>
             <entry key="WinSubProjectDisplayName" val=""/>
            </MetaData>
           </UnifiedMedia>
           <UnifiedMedia id="9904"  >
            <AMFile id="9905" start="3322" duration="154" scalar="1/1" mediaStart="5537/1" mediaDuration="154/1" trackNumber="1" src="4" channelNumber="0,1" >
             <Parameters>
              <InterpolatingParam id="9906" interp="linr"  time="0/1" value="1" leadInLength="0/1"  name="volume"/>
              <Parameter id="9907"  name="captions"/>
             </Parameters>
             <Attributes>
              <Attribute id="9908" value="" name="ident"/>
              <Attribute id="9909" value="44100" name="sampleRate"/>
              <Attribute id="9910" value="16" name="bitDepth"/>
              <Attribute id="9911" value="1" name="gain"/>
              <Attribute id="9912" value="0" name="mixToMono"/>
             </Attributes>
            </AMFile>
            <ScreenVMFile id="9913" start="3322" duration="154" scalar="1/1" mediaStart="5537/1" mediaDuration="154/1" trackNumber="0" src="4" >
             <Transformer>
              <VectorParam id="9914"  name="translation">
               <InterpolatingParam id="9915" interp="linr"  time="-9999999/1" value="0" leadInLength="0/1"  />
               <InterpolatingParam id="9916" interp="linr"  time="-9999999/1" value="0" leadInLength="0/1"  />
               <InterpolatingParam id="9917" interp="linr"  time="-9999999/1" value="0" leadInLength="0/1"  />
              </VectorParam>
              <VectorParam id="9918"  name="rotation">
               <InterpolatingParam id="9919" interp="linr"  time="-9999999/1" value="0" leadInLength="0/1"  />
               <InterpolatingParam id="9920" interp="linr"  time="-9999999/1" value="0" leadInLength="0/1"  />
               <InterpolatingParam id="9921" interp="linr"  time="-9999999/1" value="0" leadInLength="0/1"  />
              </VectorParam>
              <VectorParam id="9922"  name="shear">
               <InterpolatingParam id="9923" interp="linr"  time="-9999999/1" value="0" leadInLength="0/1"  />
               <InterpolatingParam id="9924" interp="linr"  time="-9999999/1" value="0" leadInLength="0/1"  />
               <InterpolatingParam id="9925" interp="linr"  time="-9999999/1" value="0" leadInLength="0/1"  />
              </VectorParam>
              <VectorParam id="9926"  name="scale">
               <InterpolatingParam id="9927" interp="linr"  time="-9999999/1" value="1" leadInLength="0/1"  />
               <InterpolatingParam id="9928" interp="linr"  time="-9999999/1" value="1" leadInLength="0/1"  />
               <InterpolatingParam id="9929" interp="linr"  time="-9999999/1" value="1" leadInLength="0/1"  />
              </VectorParam>
              <VectorParam id="9930"  name="anchor">
               <InterpolatingParam id="9931" interp="linr"  time="0/1" value="0" leadInLength="0/1"  />
               <InterpolatingParam id="9932" interp="linr"  time="0/1" value="0" leadInLength="0/1"  />
               <InterpolatingParam id="9933" interp="linr"  time="0/1" value="0" leadInLength="0/1"  />
              </VectorParam>
             </Transformer>
             <Parameters>
              <VectorParam id="9934"  name="sourceCrop">
               <InterpolatingParam id="9935" interp="linr"  time="0/1" value="0" leadInLength="0/1"  />
               <InterpolatingParam id="9936" interp="linr"  time="0/1" value="0" leadInLength="0/1"  />
               <InterpolatingParam id="9937" interp="linr"  time="0/1" value="0" leadInLength="0/1"  />
               <InterpolatingParam id="9938" interp="linr"  time="0/1" value="0" leadInLength="0/1"  />
              </VectorParam>
              <VectorParam id="9939"  name="geometryCrop">
               <InterpolatingParam id="9940" interp="linr"  time="-9999999/1" value="0" leadInLength="0/1"  />
               <InterpolatingParam id="9941" interp="linr"  time="-9999999/1" value="0" leadInLength="0/1"  />
               <InterpolatingParam id="9942" interp="linr"  time="-9999999/1" value="0" leadInLength="0/1"  />
               <InterpolatingParam id="9943" interp="linr"  time="-9999999/1" value="0" leadInLength="0/1"  />
              </VectorParam>
              <InterpolatingParam id="9944" interp="linr"  time="-9999999/1" value="1" leadInLength="0/1"  name="opacity"/>
              <InterpolatingParam id="9945" interp="linr"  time="0/1" value="0" leadInLength="0/1"  name="cursorOpacity"/>
              <InterpolatingParam id="9946" interp="linr"  time="0/1" value="0" leadInLength="0/1"  name="cursorScale"/>
             </Parameters>
             <Attributes>
              <Attribute id="9947" value="" name="ident"/>
             </Attributes>
             <ExtraData>
              <Entry key="ZoomPanBin">
               <ZoomPanBin id="9948"  >
                <ZoomPanKeyframes>
                 <ZoomPanKeyframe id="9949" timeRangeEnd="-9999999/1" timeRangeDuration="0/1" interpolaterName=""  />
                </ZoomPanKeyframes>
               </ZoomPanBin>
              </Entry>
              <Entry key="CursorEffectBin">
               <CursorEffectBin id="9950"  >
                <CursorEffectKeyframes>
                </CursorEffectKeyframes>
               </CursorEffectBin>
              </Entry>
             </ExtraData>
            </ScreenVMFile>
            <MetaData>
             <entry key="AutoAppliedSmartFocus" val="False"/>
             <entry key="WinSubProjectDisplayName" val=""/>
            </MetaData>
           </UnifiedMedia>
           <UnifiedMedia id="9951"  >
            <AMFile id="9952" start="3476" duration="128" scalar="1/1" mediaStart="5706/1" mediaDuration="128/1" trackNumber="1" src="4" channelNumber="0,1" >
             <Parameters>
              <InterpolatingParam id="9953" interp="linr"  time="0/1" value="1" leadInLength="0/1"  name="volume"/>
              <Parameter id="9954"  name="captions"/>
             </Parameters>
             <Attributes>
              <Attribute id="9955" value="" name="ident"/>
              <Attribute id="9956" value="44100" name="sampleRate"/>
              <Attribute id="9957" value="16" name="bitDepth"/>
              <Attribute id="9958" value="1" name="gain"/>
              <Attribute id="9959" value="0" name="mixToMono"/>
             </Attributes>
            </AMFile>
            <ScreenVMFile id="9960" start="3476" duration="128" scalar="1/1" mediaStart="5706/1" mediaDuration="128/1" trackNumber="0" src="4" >
             <Transformer>
              <VectorParam id="9961"  name="translation">
               <InterpolatingParam id="9962" interp="linr"  time="-9999999/1" value="0" leadInLength="0/1"  />
               <InterpolatingParam id="9963" interp="linr"  time="-9999999/1" value="0" leadInLength="0/1"  />
               <InterpolatingParam id="9964" interp="linr"  time="-9999999/1" value="0" leadInLength="0/1"  />
              </VectorParam>
              <VectorParam id="9965"  name="rotation">
               <InterpolatingParam id="9966" interp="linr"  time="-9999999/1" value="0" leadInLength="0/1"  />
               <InterpolatingParam id="9967" interp="linr"  time="-9999999/1" value="0" leadInLength="0/1"  />
               <InterpolatingParam id="9968" interp="linr"  time="-9999999/1" value="0" leadInLength="0/1"  />
              </VectorParam>
              <VectorParam id="9969"  name="shear">
               <InterpolatingParam id="9970" interp="linr"  time="-9999999/1" value="0" leadInLength="0/1"  />
               <InterpolatingParam id="9971" interp="linr"  time="-9999999/1" value="0" leadInLength="0/1"  />
               <InterpolatingParam id="9972" interp="linr"  time="-9999999/1" value="0" leadInLength="0/1"  />
              </VectorParam>
              <VectorParam id="9973"  name="scale">
               <InterpolatingParam id="9974" interp="linr"  time="-9999999/1" value="1" leadInLength="0/1"  />
               <InterpolatingParam id="9975" interp="linr"  time="-9999999/1" value="1" leadInLength="0/1"  />
               <InterpolatingParam id="9976" interp="linr"  time="-9999999/1" value="1" leadInLength="0/1"  />
              </VectorParam>
              <VectorParam id="9977"  name="anchor">
               <InterpolatingParam id="9978" interp="linr"  time="0/1" value="0" leadInLength="0/1"  />
               <InterpolatingParam id="9979" interp="linr"  time="0/1" value="0" leadInLength="0/1"  />
               <InterpolatingParam id="9980" interp="linr"  time="0/1" value="0" leadInLength="0/1"  />
              </VectorParam>
             </Transformer>
             <Parameters>
              <VectorParam id="9981"  name="sourceCrop">
               <InterpolatingParam id="9982" interp="linr"  time="0/1" value="0" leadInLength="0/1"  />
               <InterpolatingParam id="9983" interp="linr"  time="0/1" value="0" leadInLength="0/1"  />
               <InterpolatingParam id="9984" interp="linr"  time="0/1" value="0" leadInLength="0/1"  />
               <InterpolatingParam id="9985" interp="linr"  time="0/1" value="0" leadInLength="0/1"  />
              </VectorParam>
              <VectorParam id="9986"  name="geometryCrop">
               <InterpolatingParam id="9987" interp="linr"  time="-9999999/1" value="0" leadInLength="0/1"  />
               <InterpolatingParam id="9988" interp="linr"  time="-9999999/1" value="0" leadInLength="0/1"  />
               <InterpolatingParam id="9989" interp="linr"  time="-9999999/1" value="0" leadInLength="0/1"  />
               <InterpolatingParam id="9990" interp="linr"  time="-9999999/1" value="0" leadInLength="0/1"  />
              </VectorParam>
              <InterpolatingParam id="9991" interp="linr"  time="-9999999/1" value="1" leadInLength="0/1"  name="opacity"/>
              <InterpolatingParam id="9992" interp="linr"  time="0/1" value="0" leadInLength="0/1"  name="cursorOpacity"/>
              <InterpolatingParam id="9993" interp="linr"  time="0/1" value="0" leadInLength="0/1"  name="cursorScale"/>
             </Parameters>
             <Attributes>
              <Attribute id="9994" value="" name="ident"/>
             </Attributes>
             <ExtraData>
              <Entry key="ZoomPanBin">
               <ZoomPanBin id="9995"  >
                <ZoomPanKeyframes>
                 <ZoomPanKeyframe id="9996" timeRangeEnd="-9999999/1" timeRangeDuration="0/1" interpolaterName=""  />
                </ZoomPanKeyframes>
               </ZoomPanBin>
              </Entry>
              <Entry key="CursorEffectBin">
               <CursorEffectBin id="9997"  >
                <CursorEffectKeyframes>
                </CursorEffectKeyframes>
               </CursorEffectBin>
              </Entry>
             </ExtraData>
            </ScreenVMFile>
            <MetaData>
             <entry key="AutoAppliedSmartFocus" val="False"/>
             <entry key="WinSubProjectDisplayName" val=""/>
            </MetaData>
           </UnifiedMedia>
           <UnifiedMedia id="9998"  >
            <AMFile id="9999" start="3604" duration="256" scalar="1/1" mediaStart="6003/1" mediaDuration="256/1" trackNumber="1" src="4" channelNumber="0,1" >
             <Parameters>
              <InterpolatingParam id="10000" interp="linr"  time="0/1" value="1" leadInLength="0/1"  name="volume"/>
              <Parameter id="10001"  name="captions"/>
             </Parameters>
             <Attributes>
              <Attribute id="10002" value="" name="ident"/>
              <Attribute id="10003" value="44100" name="sampleRate"/>
              <Attribute id="10004" value="16" name="bitDepth"/>
              <Attribute id="10005" value="1" name="gain"/>
              <Attribute id="10006" value="0" name="mixToMono"/>
             </Attributes>
            </AMFile>
            <ScreenVMFile id="10007" start="3604" duration="256" scalar="1/1" mediaStart="6003/1" mediaDuration="256/1" trackNumber="0" src="4" >
             <Transformer>
              <VectorParam id="10008"  name="translation">
               <InterpolatingParam id="10009" interp="linr"  time="-9999999/1" value="0" leadInLength="0/1"  />
               <InterpolatingParam id="10010" interp="linr"  time="-9999999/1" value="0" leadInLength="0/1"  />
               <InterpolatingParam id="10011" interp="linr"  time="-9999999/1" value="0" leadInLength="0/1"  />
              </VectorParam>
              <VectorParam id="10012"  name="rotation">
               <InterpolatingParam id="10013" interp="linr"  time="-9999999/1" value="0" leadInLength="0/1"  />
               <InterpolatingParam id="10014" interp="linr"  time="-9999999/1" value="0" leadInLength="0/1"  />
               <InterpolatingParam id="10015" interp="linr"  time="-9999999/1" value="0" leadInLength="0/1"  />
              </VectorParam>
              <VectorParam id="10016"  name="shear">
               <InterpolatingParam id="10017" interp="linr"  time="-9999999/1" value="0" leadInLength="0/1"  />
               <InterpolatingParam id="10018" interp="linr"  time="-9999999/1" value="0" leadInLength="0/1"  />
               <InterpolatingParam id="10019" interp="linr"  time="-9999999/1" value="0" leadInLength="0/1"  />
              </VectorParam>
              <VectorParam id="10020"  name="scale">
               <InterpolatingParam id="10021" interp="linr"  time="-9999999/1" value="1" leadInLength="0/1"  />
               <InterpolatingParam id="10022" interp="linr"  time="-9999999/1" value="1" leadInLength="0/1"  />
               <InterpolatingParam id="10023" interp="linr"  time="-9999999/1" value="1" leadInLength="0/1"  />
              </VectorParam>
              <VectorParam id="10024"  name="anchor">
               <InterpolatingParam id="10025" interp="linr"  time="0/1" value="0" leadInLength="0/1"  />
               <InterpolatingParam id="10026" interp="linr"  time="0/1" value="0" leadInLength="0/1"  />
               <InterpolatingParam id="10027" interp="linr"  time="0/1" value="0" leadInLength="0/1"  />
              </VectorParam>
             </Transformer>
             <Parameters>
              <VectorParam id="10028"  name="sourceCrop">
               <InterpolatingParam id="10029" interp="linr"  time="0/1" value="0" leadInLength="0/1"  />
               <InterpolatingParam id="10030" interp="linr"  time="0/1" value="0" leadInLength="0/1"  />
               <InterpolatingParam id="10031" interp="linr"  time="0/1" value="0" leadInLength="0/1"  />
               <InterpolatingParam id="10032" interp="linr"  time="0/1" value="0" leadInLength="0/1"  />
              </VectorParam>
              <VectorParam id="10033"  name="geometryCrop">
               <InterpolatingParam id="10034" interp="linr"  time="-9999999/1" value="0" leadInLength="0/1"  />
               <InterpolatingParam id="10035" interp="linr"  time="-9999999/1" value="0" leadInLength="0/1"  />
               <InterpolatingParam id="10036" interp="linr"  time="-9999999/1" value="0" leadInLength="0/1"  />
               <InterpolatingParam id="10037" interp="linr"  time="-9999999/1" value="0" leadInLength="0/1"  />
              </VectorParam>
              <InterpolatingParam id="10038" interp="linr"  time="-9999999/1" value="1" leadInLength="0/1"  name="opacity"/>
              <InterpolatingParam id="10039" interp="linr"  time="0/1" value="0" leadInLength="0/1"  name="cursorOpacity"/>
              <InterpolatingParam id="10040" interp="linr"  time="0/1" value="0" leadInLength="0/1"  name="cursorScale"/>
             </Parameters>
             <Attributes>
              <Attribute id="10041" value="" name="ident"/>
             </Attributes>
             <ExtraData>
              <Entry key="ZoomPanBin">
               <ZoomPanBin id="10042"  >
                <ZoomPanKeyframes>
                 <ZoomPanKeyframe id="10043" timeRangeEnd="-9999999/1" timeRangeDuration="0/1" interpolaterName=""  />
                </ZoomPanKeyframes>
               </ZoomPanBin>
              </Entry>
              <Entry key="CursorEffectBin">
               <CursorEffectBin id="10044"  >
                <CursorEffectKeyframes>
                </CursorEffectKeyframes>
               </CursorEffectBin>
              </Entry>
             </ExtraData>
            </ScreenVMFile>
            <MetaData>
             <entry key="AutoAppliedSmartFocus" val="False"/>
             <entry key="WinSubProjectDisplayName" val=""/>
            </MetaData>
           </UnifiedMedia>
           <UnifiedMedia id="10045"  >
            <AMFile id="10046" start="3860" duration="365" scalar="1/1" mediaStart="6373/1" mediaDuration="365/1" trackNumber="1" src="4" channelNumber="0,1" >
             <Parameters>
              <InterpolatingParam id="10047" interp="linr"  time="0/1" value="1" leadInLength="0/1"  name="volume"/>
              <Parameter id="10048"  name="captions"/>
             </Parameters>
             <Attributes>
              <Attribute id="10049" value="" name="ident"/>
              <Attribute id="10050" value="44100" name="sampleRate"/>
              <Attribute id="10051" value="16" name="bitDepth"/>
              <Attribute id="10052" value="1" name="gain"/>
              <Attribute id="10053" value="0" name="mixToMono"/>
             </Attributes>
            </AMFile>
            <ScreenVMFile id="10054" start="3860" duration="365" scalar="1/1" mediaStart="6373/1" mediaDuration="365/1" trackNumber="0" src="4" >
             <Transformer>
              <VectorParam id="10055"  name="translation">
               <InterpolatingParam id="10056" interp="linr"  time="-9999999/1" value="0" leadInLength="0/1"  />
               <InterpolatingParam id="10057" interp="linr"  time="-9999999/1" value="0" leadInLength="0/1"  />
               <InterpolatingParam id="10058" interp="linr"  time="-9999999/1" value="0" leadInLength="0/1"  />
              </VectorParam>
              <VectorParam id="10059"  name="rotation">
               <InterpolatingParam id="10060" interp="linr"  time="-9999999/1" value="0" leadInLength="0/1"  />
               <InterpolatingParam id="10061" interp="linr"  time="-9999999/1" value="0" leadInLength="0/1"  />
               <InterpolatingParam id="10062" interp="linr"  time="-9999999/1" value="0" leadInLength="0/1"  />
              </VectorParam>
              <VectorParam id="10063"  name="shear">
               <InterpolatingParam id="10064" interp="linr"  time="-9999999/1" value="0" leadInLength="0/1"  />
               <InterpolatingParam id="10065" interp="linr"  time="-9999999/1" value="0" leadInLength="0/1"  />
               <InterpolatingParam id="10066" interp="linr"  time="-9999999/1" value="0" leadInLength="0/1"  />
              </VectorParam>
              <VectorParam id="10067"  name="scale">
               <InterpolatingParam id="10068" interp="linr"  time="-9999999/1" value="1" leadInLength="0/1"  />
               <InterpolatingParam id="10069" interp="linr"  time="-9999999/1" value="1" leadInLength="0/1"  />
               <InterpolatingParam id="10070" interp="linr"  time="-9999999/1" value="1" leadInLength="0/1"  />
              </VectorParam>
              <VectorParam id="10071"  name="anchor">
               <InterpolatingParam id="10072" interp="linr"  time="0/1" value="0" leadInLength="0/1"  />
               <InterpolatingParam id="10073" interp="linr"  time="0/1" value="0" leadInLength="0/1"  />
               <InterpolatingParam id="10074" interp="linr"  time="0/1" value="0" leadInLength="0/1"  />
              </VectorParam>
             </Transformer>
             <Parameters>
              <VectorParam id="10075"  name="sourceCrop">
               <InterpolatingParam id="10076" interp="linr"  time="0/1" value="0" leadInLength="0/1"  />
               <InterpolatingParam id="10077" interp="linr"  time="0/1" value="0" leadInLength="0/1"  />
               <InterpolatingParam id="10078" interp="linr"  time="0/1" value="0" leadInLength="0/1"  />
               <InterpolatingParam id="10079" interp="linr"  time="0/1" value="0" leadInLength="0/1"  />
              </VectorParam>
              <VectorParam id="10080"  name="geometryCrop">
               <InterpolatingParam id="10081" interp="linr"  time="-9999999/1" value="0" leadInLength="0/1"  />
               <InterpolatingParam id="10082" interp="linr"  time="-9999999/1" value="0" leadInLength="0/1"  />
               <InterpolatingParam id="10083" interp="linr"  time="-9999999/1" value="0" leadInLength="0/1"  />
               <InterpolatingParam id="10084" interp="linr"  time="-9999999/1" value="0" leadInLength="0/1"  />
              </VectorParam>
              <InterpolatingParam id="10085" interp="linr"  time="-9999999/1" value="1" leadInLength="0/1"  name="opacity"/>
              <InterpolatingParam id="10086" interp="linr"  time="0/1" value="0" leadInLength="0/1"  name="cursorOpacity"/>
              <InterpolatingParam id="10087" interp="linr"  time="0/1" value="0" leadInLength="0/1"  name="cursorScale"/>
             </Parameters>
             <Attributes>
              <Attribute id="10088" value="" name="ident"/>
             </Attributes>
             <ExtraData>
              <Entry key="ZoomPanBin">
               <ZoomPanBin id="10089"  >
                <ZoomPanKeyframes>
                 <ZoomPanKeyframe id="10090" timeRangeEnd="-9999999/1" timeRangeDuration="0/1" interpolaterName=""  />
                </ZoomPanKeyframes>
               </ZoomPanBin>
              </Entry>
              <Entry key="CursorEffectBin">
               <CursorEffectBin id="10091"  >
                <CursorEffectKeyframes>
                </CursorEffectKeyframes>
               </CursorEffectBin>
              </Entry>
             </ExtraData>
            </ScreenVMFile>
            <MetaData>
             <entry key="AutoAppliedSmartFocus" val="False"/>
             <entry key="WinSubProjectDisplayName" val=""/>
            </MetaData>
           </UnifiedMedia>
           <UnifiedMedia id="10092"  >
            <AMFile id="10093" start="4225" duration="96" scalar="1/1" mediaStart="7003/1" mediaDuration="96/1" trackNumber="1" src="4" channelNumber="0,1" >
             <Parameters>
              <InterpolatingParam id="10094" interp="linr"  time="0/1" value="1" leadInLength="0/1"  name="volume"/>
              <Parameter id="10095"  name="captions"/>
             </Parameters>
             <Attributes>
              <Attribute id="10096" value="" name="ident"/>
              <Attribute id="10097" value="44100" name="sampleRate"/>
              <Attribute id="10098" value="16" name="bitDepth"/>
              <Attribute id="10099" value="1" name="gain"/>
              <Attribute id="10100" value="0" name="mixToMono"/>
             </Attributes>
            </AMFile>
            <ScreenVMFile id="10101" start="4225" duration="96" scalar="1/1" mediaStart="7003/1" mediaDuration="96/1" trackNumber="0" src="4" >
             <Transformer>
              <VectorParam id="10102"  name="translation">
               <InterpolatingParam id="10103" interp="linr"  time="-9999999/1" value="0" leadInLength="0/1"  />
               <InterpolatingParam id="10104" interp="linr"  time="-9999999/1" value="0" leadInLength="0/1"  />
               <InterpolatingParam id="10105" interp="linr"  time="-9999999/1" value="0" leadInLength="0/1"  />
              </VectorParam>
              <VectorParam id="10106"  name="rotation">
               <InterpolatingParam id="10107" interp="linr"  time="-9999999/1" value="0" leadInLength="0/1"  />
               <InterpolatingParam id="10108" interp="linr"  time="-9999999/1" value="0" leadInLength="0/1"  />
               <InterpolatingParam id="10109" interp="linr"  time="-9999999/1" value="0" leadInLength="0/1"  />
              </VectorParam>
              <VectorParam id="10110"  name="shear">
               <InterpolatingParam id="10111" interp="linr"  time="-9999999/1" value="0" leadInLength="0/1"  />
               <InterpolatingParam id="10112" interp="linr"  time="-9999999/1" value="0" leadInLength="0/1"  />
               <InterpolatingParam id="10113" interp="linr"  time="-9999999/1" value="0" leadInLength="0/1"  />
              </VectorParam>
              <VectorParam id="10114"  name="scale">
               <InterpolatingParam id="10115" interp="linr"  time="-9999999/1" value="1" leadInLength="0/1"  />
               <InterpolatingParam id="10116" interp="linr"  time="-9999999/1" value="1" leadInLength="0/1"  />
               <InterpolatingParam id="10117" interp="linr"  time="-9999999/1" value="1" leadInLength="0/1"  />
              </VectorParam>
              <VectorParam id="10118"  name="anchor">
               <InterpolatingParam id="10119" interp="linr"  time="0/1" value="0" leadInLength="0/1"  />
               <InterpolatingParam id="10120" interp="linr"  time="0/1" value="0" leadInLength="0/1"  />
               <InterpolatingParam id="10121" interp="linr"  time="0/1" value="0" leadInLength="0/1"  />
              </VectorParam>
             </Transformer>
             <Parameters>
              <VectorParam id="10122"  name="sourceCrop">
               <InterpolatingParam id="10123" interp="linr"  time="0/1" value="0" leadInLength="0/1"  />
               <InterpolatingParam id="10124" interp="linr"  time="0/1" value="0" leadInLength="0/1"  />
               <InterpolatingParam id="10125" interp="linr"  time="0/1" value="0" leadInLength="0/1"  />
               <InterpolatingParam id="10126" interp="linr"  time="0/1" value="0" leadInLength="0/1"  />
              </VectorParam>
              <VectorParam id="10127"  name="geometryCrop">
               <InterpolatingParam id="10128" interp="linr"  time="-9999999/1" value="0" leadInLength="0/1"  />
               <InterpolatingParam id="10129" interp="linr"  time="-9999999/1" value="0" leadInLength="0/1"  />
               <InterpolatingParam id="10130" interp="linr"  time="-9999999/1" value="0" leadInLength="0/1"  />
               <InterpolatingParam id="10131" interp="linr"  time="-9999999/1" value="0" leadInLength="0/1"  />
              </VectorParam>
              <InterpolatingParam id="10132" interp="linr"  time="-9999999/1" value="1" leadInLength="0/1"  name="opacity"/>
              <InterpolatingParam id="10133" interp="linr"  time="0/1" value="0" leadInLength="0/1"  name="cursorOpacity"/>
              <InterpolatingParam id="10134" interp="linr"  time="0/1" value="0" leadInLength="0/1"  name="cursorScale"/>
             </Parameters>
             <Attributes>
              <Attribute id="10135" value="" name="ident"/>
             </Attributes>
             <ExtraData>
              <Entry key="ZoomPanBin">
               <ZoomPanBin id="10136"  >
                <ZoomPanKeyframes>
                 <ZoomPanKeyframe id="10137" timeRangeEnd="-9999999/1" timeRangeDuration="0/1" interpolaterName=""  />
                </ZoomPanKeyframes>
               </ZoomPanBin>
              </Entry>
              <Entry key="CursorEffectBin">
               <CursorEffectBin id="10138"  >
                <CursorEffectKeyframes>
                </CursorEffectKeyframes>
               </CursorEffectBin>
              </Entry>
             </ExtraData>
            </ScreenVMFile>
            <MetaData>
             <entry key="AutoAppliedSmartFocus" val="False"/>
             <entry key="WinSubProjectDisplayName" val=""/>
            </MetaData>
           </UnifiedMedia>
           <UnifiedMedia id="10139"  >
            <AMFile id="10140" start="4321" duration="100" scalar="1/1" mediaStart="7107/1" mediaDuration="100/1" trackNumber="1" src="4" channelNumber="0,1" >
             <Parameters>
              <InterpolatingParam id="10141" interp="linr"  time="0/1" value="1" leadInLength="0/1"  name="volume"/>
              <Parameter id="10142"  name="captions"/>
             </Parameters>
             <Attributes>
              <Attribute id="10143" value="" name="ident"/>
              <Attribute id="10144" value="44100" name="sampleRate"/>
              <Attribute id="10145" value="16" name="bitDepth"/>
              <Attribute id="10146" value="1" name="gain"/>
              <Attribute id="10147" value="0" name="mixToMono"/>
             </Attributes>
            </AMFile>
            <ScreenVMFile id="10148" start="4321" duration="100" scalar="1/1" mediaStart="7107/1" mediaDuration="100/1" trackNumber="0" src="4" >
             <Transformer>
              <VectorParam id="10149"  name="translation">
               <InterpolatingParam id="10150" interp="linr"  time="-9999999/1" value="0" leadInLength="0/1"  />
               <InterpolatingParam id="10151" interp="linr"  time="-9999999/1" value="0" leadInLength="0/1"  />
               <InterpolatingParam id="10152" interp="linr"  time="-9999999/1" value="0" leadInLength="0/1"  />
              </VectorParam>
              <VectorParam id="10153"  name="rotation">
               <InterpolatingParam id="10154" interp="linr"  time="-9999999/1" value="0" leadInLength="0/1"  />
               <InterpolatingParam id="10155" interp="linr"  time="-9999999/1" value="0" leadInLength="0/1"  />
               <InterpolatingParam id="10156" interp="linr"  time="-9999999/1" value="0" leadInLength="0/1"  />
              </VectorParam>
              <VectorParam id="10157"  name="shear">
               <InterpolatingParam id="10158" interp="linr"  time="-9999999/1" value="0" leadInLength="0/1"  />
               <InterpolatingParam id="10159" interp="linr"  time="-9999999/1" value="0" leadInLength="0/1"  />
               <InterpolatingParam id="10160" interp="linr"  time="-9999999/1" value="0" leadInLength="0/1"  />
              </VectorParam>
              <VectorParam id="10161"  name="scale">
               <InterpolatingParam id="10162" interp="linr"  time="-9999999/1" value="1" leadInLength="0/1"  />
               <InterpolatingParam id="10163" interp="linr"  time="-9999999/1" value="1" leadInLength="0/1"  />
               <InterpolatingParam id="10164" interp="linr"  time="-9999999/1" value="1" leadInLength="0/1"  />
              </VectorParam>
              <VectorParam id="10165"  name="anchor">
               <InterpolatingParam id="10166" interp="linr"  time="0/1" value="0" leadInLength="0/1"  />
               <InterpolatingParam id="10167" interp="linr"  time="0/1" value="0" leadInLength="0/1"  />
               <InterpolatingParam id="10168" interp="linr"  time="0/1" value="0" leadInLength="0/1"  />
              </VectorParam>
             </Transformer>
             <Parameters>
              <VectorParam id="10169"  name="sourceCrop">
               <InterpolatingParam id="10170" interp="linr"  time="0/1" value="0" leadInLength="0/1"  />
               <InterpolatingParam id="10171" interp="linr"  time="0/1" value="0" leadInLength="0/1"  />
               <InterpolatingParam id="10172" interp="linr"  time="0/1" value="0" leadInLength="0/1"  />
               <InterpolatingParam id="10173" interp="linr"  time="0/1" value="0" leadInLength="0/1"  />
              </VectorParam>
              <VectorParam id="10174"  name="geometryCrop">
               <InterpolatingParam id="10175" interp="linr"  time="-9999999/1" value="0" leadInLength="0/1"  />
               <InterpolatingParam id="10176" interp="linr"  time="-9999999/1" value="0" leadInLength="0/1"  />
               <InterpolatingParam id="10177" interp="linr"  time="-9999999/1" value="0" leadInLength="0/1"  />
               <InterpolatingParam id="10178" interp="linr"  time="-9999999/1" value="0" leadInLength="0/1"  />
              </VectorParam>
              <InterpolatingParam id="10179" interp="linr"  time="-9999999/1" value="1" leadInLength="0/1"  name="opacity"/>
              <InterpolatingParam id="10180" interp="linr"  time="0/1" value="0" leadInLength="0/1"  name="cursorOpacity"/>
              <InterpolatingParam id="10181" interp="linr"  time="0/1" value="0" leadInLength="0/1"  name="cursorScale"/>
             </Parameters>
             <Attributes>
              <Attribute id="10182" value="" name="ident"/>
             </Attributes>
             <ExtraData>
              <Entry key="ZoomPanBin">
               <ZoomPanBin id="10183"  >
                <ZoomPanKeyframes>
                 <ZoomPanKeyframe id="10184" timeRangeEnd="-9999999/1" timeRangeDuration="0/1" interpolaterName=""  />
                </ZoomPanKeyframes>
               </ZoomPanBin>
              </Entry>
              <Entry key="CursorEffectBin">
               <CursorEffectBin id="10185"  >
                <CursorEffectKeyframes>
                </CursorEffectKeyframes>
               </CursorEffectBin>
              </Entry>
             </ExtraData>
            </ScreenVMFile>
            <MetaData>
             <entry key="AutoAppliedSmartFocus" val="False"/>
             <entry key="WinSubProjectDisplayName" val=""/>
            </MetaData>
           </UnifiedMedia>
           <UnifiedMedia id="10186"  >
            <AMFile id="10187" start="4421" duration="68" scalar="1/1" mediaStart="7298/1" mediaDuration="68/1" trackNumber="1" src="4" channelNumber="0,1" >
             <Parameters>
              <InterpolatingParam id="10188" interp="linr"  time="0/1" value="1" leadInLength="0/1"  name="volume"/>
              <Parameter id="10189"  name="captions"/>
             </Parameters>
             <Attributes>
              <Attribute id="10190" value="" name="ident"/>
              <Attribute id="10191" value="44100" name="sampleRate"/>
              <Attribute id="10192" value="16" name="bitDepth"/>
              <Attribute id="10193" value="1" name="gain"/>
              <Attribute id="10194" value="0" name="mixToMono"/>
             </Attributes>
            </AMFile>
            <ScreenVMFile id="10195" start="4421" duration="68" scalar="1/1" mediaStart="7298/1" mediaDuration="68/1" trackNumber="0" src="4" >
             <Transformer>
              <VectorParam id="10196"  name="translation">
               <InterpolatingParam id="10197" interp="linr"  time="-9999999/1" value="0" leadInLength="0/1"  />
               <InterpolatingParam id="10198" interp="linr"  time="-9999999/1" value="0" leadInLength="0/1"  />
               <InterpolatingParam id="10199" interp="linr"  time="-9999999/1" value="0" leadInLength="0/1"  />
              </VectorParam>
              <VectorParam id="10200"  name="rotation">
               <InterpolatingParam id="10201" interp="linr"  time="-9999999/1" value="0" leadInLength="0/1"  />
               <InterpolatingParam id="10202" interp="linr"  time="-9999999/1" value="0" leadInLength="0/1"  />
               <InterpolatingParam id="10203" interp="linr"  time="-9999999/1" value="0" leadInLength="0/1"  />
              </VectorParam>
              <VectorParam id="10204"  name="shear">
               <InterpolatingParam id="10205" interp="linr"  time="-9999999/1" value="0" leadInLength="0/1"  />
               <InterpolatingParam id="10206" interp="linr"  time="-9999999/1" value="0" leadInLength="0/1"  />
               <InterpolatingParam id="10207" interp="linr"  time="-9999999/1" value="0" leadInLength="0/1"  />
              </VectorParam>
              <VectorParam id="10208"  name="scale">
               <InterpolatingParam id="10209" interp="linr"  time="-9999999/1" value="1" leadInLength="0/1"  />
               <InterpolatingParam id="10210" interp="linr"  time="-9999999/1" value="1" leadInLength="0/1"  />
               <InterpolatingParam id="10211" interp="linr"  time="-9999999/1" value="1" leadInLength="0/1"  />
              </VectorParam>
              <VectorParam id="10212"  name="anchor">
               <InterpolatingParam id="10213" interp="linr"  time="0/1" value="0" leadInLength="0/1"  />
               <InterpolatingParam id="10214" interp="linr"  time="0/1" value="0" leadInLength="0/1"  />
               <InterpolatingParam id="10215" interp="linr"  time="0/1" value="0" leadInLength="0/1"  />
              </VectorParam>
             </Transformer>
             <Parameters>
              <VectorParam id="10216"  name="sourceCrop">
               <InterpolatingParam id="10217" interp="linr"  time="0/1" value="0" leadInLength="0/1"  />
               <InterpolatingParam id="10218" interp="linr"  time="0/1" value="0" leadInLength="0/1"  />
               <InterpolatingParam id="10219" interp="linr"  time="0/1" value="0" leadInLength="0/1"  />
               <InterpolatingParam id="10220" interp="linr"  time="0/1" value="0" leadInLength="0/1"  />
              </VectorParam>
              <VectorParam id="10221"  name="geometryCrop">
               <InterpolatingParam id="10222" interp="linr"  time="-9999999/1" value="0" leadInLength="0/1"  />
               <InterpolatingParam id="10223" interp="linr"  time="-9999999/1" value="0" leadInLength="0/1"  />
               <InterpolatingParam id="10224" interp="linr"  time="-9999999/1" value="0" leadInLength="0/1"  />
               <InterpolatingParam id="10225" interp="linr"  time="-9999999/1" value="0" leadInLength="0/1"  />
              </VectorParam>
              <InterpolatingParam id="10226" interp="linr"  time="-9999999/1" value="1" leadInLength="0/1"  name="opacity"/>
              <InterpolatingParam id="10227" interp="linr"  time="0/1" value="0" leadInLength="0/1"  name="cursorOpacity"/>
              <InterpolatingParam id="10228" interp="linr"  time="0/1" value="0" leadInLength="0/1"  name="cursorScale"/>
             </Parameters>
             <Attributes>
              <Attribute id="10229" value="" name="ident"/>
             </Attributes>
             <ExtraData>
              <Entry key="ZoomPanBin">
               <ZoomPanBin id="10230"  >
                <ZoomPanKeyframes>
                 <ZoomPanKeyframe id="10231" timeRangeEnd="-9999999/1" timeRangeDuration="0/1" interpolaterName=""  />
                </ZoomPanKeyframes>
               </ZoomPanBin>
              </Entry>
              <Entry key="CursorEffectBin">
               <CursorEffectBin id="10232"  >
                <CursorEffectKeyframes>
                </CursorEffectKeyframes>
               </CursorEffectBin>
              </Entry>
             </ExtraData>
            </ScreenVMFile>
            <MetaData>
             <entry key="AutoAppliedSmartFocus" val="False"/>
             <entry key="WinSubProjectDisplayName" val=""/>
            </MetaData>
           </UnifiedMedia>
           <UnifiedMedia id="10233"  >
            <AMFile id="10234" start="4489" duration="438" scalar="1/1" mediaStart="7373/1" mediaDuration="438/1" trackNumber="1" src="4" channelNumber="0,1" >
             <Parameters>
              <InterpolatingParam id="10235" interp="linr"  time="0/1" value="1" leadInLength="0/1"  name="volume"/>
              <Parameter id="10236"  name="captions"/>
             </Parameters>
             <Attributes>
              <Attribute id="10237" value="" name="ident"/>
              <Attribute id="10238" value="44100" name="sampleRate"/>
              <Attribute id="10239" value="16" name="bitDepth"/>
              <Attribute id="10240" value="1" name="gain"/>
              <Attribute id="10241" value="0" name="mixToMono"/>
             </Attributes>
            </AMFile>
            <ScreenVMFile id="10242" start="4489" duration="438" scalar="1/1" mediaStart="7373/1" mediaDuration="438/1" trackNumber="0" src="4" >
             <Transformer>
              <VectorParam id="10243"  name="translation">
               <InterpolatingParam id="10244" interp="linr"  time="-9999999/1" value="0" leadInLength="0/1"  />
               <InterpolatingParam id="10245" interp="linr"  time="-9999999/1" value="0" leadInLength="0/1"  />
               <InterpolatingParam id="10246" interp="linr"  time="-9999999/1" value="0" leadInLength="0/1"  />
              </VectorParam>
              <VectorParam id="10247"  name="rotation">
               <InterpolatingParam id="10248" interp="linr"  time="-9999999/1" value="0" leadInLength="0/1"  />
               <InterpolatingParam id="10249" interp="linr"  time="-9999999/1" value="0" leadInLength="0/1"  />
               <InterpolatingParam id="10250" interp="linr"  time="-9999999/1" value="0" leadInLength="0/1"  />
              </VectorParam>
              <VectorParam id="10251"  name="shear">
               <InterpolatingParam id="10252" interp="linr"  time="-9999999/1" value="0" leadInLength="0/1"  />
               <InterpolatingParam id="10253" interp="linr"  time="-9999999/1" value="0" leadInLength="0/1"  />
               <InterpolatingParam id="10254" interp="linr"  time="-9999999/1" value="0" leadInLength="0/1"  />
              </VectorParam>
              <VectorParam id="10255"  name="scale">
               <InterpolatingParam id="10256" interp="linr"  time="-9999999/1" value="1" leadInLength="0/1"  />
               <InterpolatingParam id="10257" interp="linr"  time="-9999999/1" value="1" leadInLength="0/1"  />
               <InterpolatingParam id="10258" interp="linr"  time="-9999999/1" value="1" leadInLength="0/1"  />
              </VectorParam>
              <VectorParam id="10259"  name="anchor">
               <InterpolatingParam id="10260" interp="linr"  time="0/1" value="0" leadInLength="0/1"  />
               <InterpolatingParam id="10261" interp="linr"  time="0/1" value="0" leadInLength="0/1"  />
               <InterpolatingParam id="10262" interp="linr"  time="0/1" value="0" leadInLength="0/1"  />
              </VectorParam>
             </Transformer>
             <Parameters>
              <VectorParam id="10263"  name="sourceCrop">
               <InterpolatingParam id="10264" interp="linr"  time="0/1" value="0" leadInLength="0/1"  />
               <InterpolatingParam id="10265" interp="linr"  time="0/1" value="0" leadInLength="0/1"  />
               <InterpolatingParam id="10266" interp="linr"  time="0/1" value="0" leadInLength="0/1"  />
               <InterpolatingParam id="10267" interp="linr"  time="0/1" value="0" leadInLength="0/1"  />
              </VectorParam>
              <VectorParam id="10268"  name="geometryCrop">
               <InterpolatingParam id="10269" interp="linr"  time="-9999999/1" value="0" leadInLength="0/1"  />
               <InterpolatingParam id="10270" interp="linr"  time="-9999999/1" value="0" leadInLength="0/1"  />
               <InterpolatingParam id="10271" interp="linr"  time="-9999999/1" value="0" leadInLength="0/1"  />
               <InterpolatingParam id="10272" interp="linr"  time="-9999999/1" value="0" leadInLength="0/1"  />
              </VectorParam>
              <InterpolatingParam id="10273" interp="linr"  time="-9999999/1" value="1" leadInLength="0/1"  name="opacity"/>
              <InterpolatingParam id="10274" interp="linr"  time="0/1" value="0" leadInLength="0/1"  name="cursorOpacity"/>
              <InterpolatingParam id="10275" interp="linr"  time="0/1" value="0" leadInLength="0/1"  name="cursorScale"/>
             </Parameters>
             <Attributes>
              <Attribute id="10276" value="" name="ident"/>
             </Attributes>
             <ExtraData>
              <Entry key="ZoomPanBin">
               <ZoomPanBin id="10277"  >
                <ZoomPanKeyframes>
                 <ZoomPanKeyframe id="10278" timeRangeEnd="-9999999/1" timeRangeDuration="0/1" interpolaterName=""  />
                </ZoomPanKeyframes>
               </ZoomPanBin>
              </Entry>
              <Entry key="CursorEffectBin">
               <CursorEffectBin id="10279"  >
                <CursorEffectKeyframes>
                </CursorEffectKeyframes>
               </CursorEffectBin>
              </Entry>
             </ExtraData>
            </ScreenVMFile>
            <MetaData>
             <entry key="AutoAppliedSmartFocus" val="False"/>
             <entry key="WinSubProjectDisplayName" val=""/>
            </MetaData>
           </UnifiedMedia>
           <UnifiedMedia id="10280"  >
            <AMFile id="10281" start="4927" duration="94" scalar="1/1" mediaStart="8166/1" mediaDuration="94/1" trackNumber="1" src="4" channelNumber="0,1" >
             <Parameters>
              <InterpolatingParam id="10282" interp="linr"  time="0/1" value="1" leadInLength="0/1"  name="volume"/>
              <Parameter id="10283"  name="captions"/>
             </Parameters>
             <Attributes>
              <Attribute id="10284" value="" name="ident"/>
              <Attribute id="10285" value="44100" name="sampleRate"/>
              <Attribute id="10286" value="16" name="bitDepth"/>
              <Attribute id="10287" value="1" name="gain"/>
              <Attribute id="10288" value="0" name="mixToMono"/>
             </Attributes>
            </AMFile>
            <ScreenVMFile id="10289" start="4927" duration="94" scalar="1/1" mediaStart="8166/1" mediaDuration="94/1" trackNumber="0" src="4" >
             <Transformer>
              <VectorParam id="10290"  name="translation">
               <InterpolatingParam id="10291" interp="linr"  time="-9999999/1" value="0" leadInLength="0/1"  />
               <InterpolatingParam id="10292" interp="linr"  time="-9999999/1" value="0" leadInLength="0/1"  />
               <InterpolatingParam id="10293" interp="linr"  time="-9999999/1" value="0" leadInLength="0/1"  />
              </VectorParam>
              <VectorParam id="10294"  name="rotation">
               <InterpolatingParam id="10295" interp="linr"  time="-9999999/1" value="0" leadInLength="0/1"  />
               <InterpolatingParam id="10296" interp="linr"  time="-9999999/1" value="0" leadInLength="0/1"  />
               <InterpolatingParam id="10297" interp="linr"  time="-9999999/1" value="0" leadInLength="0/1"  />
              </VectorParam>
              <VectorParam id="10298"  name="shear">
               <InterpolatingParam id="10299" interp="linr"  time="-9999999/1" value="0" leadInLength="0/1"  />
               <InterpolatingParam id="10300" interp="linr"  time="-9999999/1" value="0" leadInLength="0/1"  />
               <InterpolatingParam id="10301" interp="linr"  time="-9999999/1" value="0" leadInLength="0/1"  />
              </VectorParam>
              <VectorParam id="10302"  name="scale">
               <InterpolatingParam id="10303" interp="linr"  time="-9999999/1" value="1" leadInLength="0/1"  />
               <InterpolatingParam id="10304" interp="linr"  time="-9999999/1" value="1" leadInLength="0/1"  />
               <InterpolatingParam id="10305" interp="linr"  time="-9999999/1" value="1" leadInLength="0/1"  />
              </VectorParam>
              <VectorParam id="10306"  name="anchor">
               <InterpolatingParam id="10307" interp="linr"  time="0/1" value="0" leadInLength="0/1"  />
               <InterpolatingParam id="10308" interp="linr"  time="0/1" value="0" leadInLength="0/1"  />
               <InterpolatingParam id="10309" interp="linr"  time="0/1" value="0" leadInLength="0/1"  />
              </VectorParam>
             </Transformer>
             <Parameters>
              <VectorParam id="10310"  name="sourceCrop">
               <InterpolatingParam id="10311" interp="linr"  time="0/1" value="0" leadInLength="0/1"  />
               <InterpolatingParam id="10312" interp="linr"  time="0/1" value="0" leadInLength="0/1"  />
               <InterpolatingParam id="10313" interp="linr"  time="0/1" value="0" leadInLength="0/1"  />
               <InterpolatingParam id="10314" interp="linr"  time="0/1" value="0" leadInLength="0/1"  />
              </VectorParam>
              <VectorParam id="10315"  name="geometryCrop">
               <InterpolatingParam id="10316" interp="linr"  time="-9999999/1" value="0" leadInLength="0/1"  />
               <InterpolatingParam id="10317" interp="linr"  time="-9999999/1" value="0" leadInLength="0/1"  />
               <InterpolatingParam id="10318" interp="linr"  time="-9999999/1" value="0" leadInLength="0/1"  />
               <InterpolatingParam id="10319" interp="linr"  time="-9999999/1" value="0" leadInLength="0/1"  />
              </VectorParam>
              <InterpolatingParam id="10320" interp="linr"  time="-9999999/1" value="1" leadInLength="0/1"  name="opacity"/>
              <InterpolatingParam id="10321" interp="linr"  time="0/1" value="0" leadInLength="0/1"  name="cursorOpacity"/>
              <InterpolatingParam id="10322" interp="linr"  time="0/1" value="0" leadInLength="0/1"  name="cursorScale"/>
             </Parameters>
             <Attributes>
              <Attribute id="10323" value="" name="ident"/>
             </Attributes>
             <ExtraData>
              <Entry key="ZoomPanBin">
               <ZoomPanBin id="10324"  >
                <ZoomPanKeyframes>
                 <ZoomPanKeyframe id="10325" timeRangeEnd="-9999999/1" timeRangeDuration="0/1" interpolaterName=""  />
                </ZoomPanKeyframes>
               </ZoomPanBin>
              </Entry>
              <Entry key="CursorEffectBin">
               <CursorEffectBin id="10326"  >
                <CursorEffectKeyframes>
                </CursorEffectKeyframes>
               </CursorEffectBin>
              </Entry>
             </ExtraData>
            </ScreenVMFile>
            <MetaData>
             <entry key="AutoAppliedSmartFocus" val="False"/>
             <entry key="WinSubProjectDisplayName" val=""/>
            </MetaData>
           </UnifiedMedia>
           <UnifiedMedia id="10327"  >
            <AMFile id="10328" start="5021" duration="94" scalar="1/1" mediaStart="8272/1" mediaDuration="94/1" trackNumber="1" src="4" channelNumber="0,1" >
             <Parameters>
              <InterpolatingParam id="10329" interp="linr"  time="0/1" value="1" leadInLength="0/1"  name="volume"/>
              <Parameter id="10330"  name="captions"/>
             </Parameters>
             <Attributes>
              <Attribute id="10331" value="" name="ident"/>
              <Attribute id="10332" value="44100" name="sampleRate"/>
              <Attribute id="10333" value="16" name="bitDepth"/>
              <Attribute id="10334" value="1" name="gain"/>
              <Attribute id="10335" value="0" name="mixToMono"/>
             </Attributes>
            </AMFile>
            <ScreenVMFile id="10336" start="5021" duration="94" scalar="1/1" mediaStart="8272/1" mediaDuration="94/1" trackNumber="0" src="4" >
             <Transformer>
              <VectorParam id="10337"  name="translation">
               <InterpolatingParam id="10338" interp="linr"  time="-9999999/1" value="0" leadInLength="0/1"  />
               <InterpolatingParam id="10339" interp="linr"  time="-9999999/1" value="0" leadInLength="0/1"  />
               <InterpolatingParam id="10340" interp="linr"  time="-9999999/1" value="0" leadInLength="0/1"  />
              </VectorParam>
              <VectorParam id="10341"  name="rotation">
               <InterpolatingParam id="10342" interp="linr"  time="-9999999/1" value="0" leadInLength="0/1"  />
               <InterpolatingParam id="10343" interp="linr"  time="-9999999/1" value="0" leadInLength="0/1"  />
               <InterpolatingParam id="10344" interp="linr"  time="-9999999/1" value="0" leadInLength="0/1"  />
              </VectorParam>
              <VectorParam id="10345"  name="shear">
               <InterpolatingParam id="10346" interp="linr"  time="-9999999/1" value="0" leadInLength="0/1"  />
               <InterpolatingParam id="10347" interp="linr"  time="-9999999/1" value="0" leadInLength="0/1"  />
               <InterpolatingParam id="10348" interp="linr"  time="-9999999/1" value="0" leadInLength="0/1"  />
              </VectorParam>
              <VectorParam id="10349"  name="scale">
               <InterpolatingParam id="10350" interp="linr"  time="-9999999/1" value="1" leadInLength="0/1"  />
               <InterpolatingParam id="10351" interp="linr"  time="-9999999/1" value="1" leadInLength="0/1"  />
               <InterpolatingParam id="10352" interp="linr"  time="-9999999/1" value="1" leadInLength="0/1"  />
              </VectorParam>
              <VectorParam id="10353"  name="anchor">
               <InterpolatingParam id="10354" interp="linr"  time="0/1" value="0" leadInLength="0/1"  />
               <InterpolatingParam id="10355" interp="linr"  time="0/1" value="0" leadInLength="0/1"  />
               <InterpolatingParam id="10356" interp="linr"  time="0/1" value="0" leadInLength="0/1"  />
              </VectorParam>
             </Transformer>
             <Parameters>
              <VectorParam id="10357"  name="sourceCrop">
               <InterpolatingParam id="10358" interp="linr"  time="0/1" value="0" leadInLength="0/1"  />
               <InterpolatingParam id="10359" interp="linr"  time="0/1" value="0" leadInLength="0/1"  />
               <InterpolatingParam id="10360" interp="linr"  time="0/1" value="0" leadInLength="0/1"  />
               <InterpolatingParam id="10361" interp="linr"  time="0/1" value="0" leadInLength="0/1"  />
              </VectorParam>
              <VectorParam id="10362"  name="geometryCrop">
               <InterpolatingParam id="10363" interp="linr"  time="-9999999/1" value="0" leadInLength="0/1"  />
               <InterpolatingParam id="10364" interp="linr"  time="-9999999/1" value="0" leadInLength="0/1"  />
               <InterpolatingParam id="10365" interp="linr"  time="-9999999/1" value="0" leadInLength="0/1"  />
               <InterpolatingParam id="10366" interp="linr"  time="-9999999/1" value="0" leadInLength="0/1"  />
              </VectorParam>
              <InterpolatingParam id="10367" interp="linr"  time="-9999999/1" value="1" leadInLength="0/1"  name="opacity"/>
              <InterpolatingParam id="10368" interp="linr"  time="0/1" value="0" leadInLength="0/1"  name="cursorOpacity"/>
              <InterpolatingParam id="10369" interp="linr"  time="0/1" value="0" leadInLength="0/1"  name="cursorScale"/>
             </Parameters>
             <Attributes>
              <Attribute id="10370" value="" name="ident"/>
             </Attributes>
             <ExtraData>
              <Entry key="ZoomPanBin">
               <ZoomPanBin id="10371"  >
                <ZoomPanKeyframes>
                 <ZoomPanKeyframe id="10372" timeRangeEnd="-9999999/1" timeRangeDuration="0/1" interpolaterName=""  />
                </ZoomPanKeyframes>
               </ZoomPanBin>
              </Entry>
              <Entry key="CursorEffectBin">
               <CursorEffectBin id="10373"  >
                <CursorEffectKeyframes>
                </CursorEffectKeyframes>
               </CursorEffectBin>
              </Entry>
             </ExtraData>
            </ScreenVMFile>
            <MetaData>
             <entry key="AutoAppliedSmartFocus" val="False"/>
             <entry key="WinSubProjectDisplayName" val=""/>
            </MetaData>
           </UnifiedMedia>
           <UnifiedMedia id="10374"  >
            <AMFile id="10375" start="5115" duration="186" scalar="1/1" mediaStart="8379/1" mediaDuration="186/1" trackNumber="1" src="4" channelNumber="0,1" >
             <Parameters>
              <InterpolatingParam id="10376" interp="linr"  time="0/1" value="1" leadInLength="0/1"  name="volume"/>
              <Parameter id="10377"  name="captions"/>
             </Parameters>
             <Attributes>
              <Attribute id="10378" value="" name="ident"/>
              <Attribute id="10379" value="44100" name="sampleRate"/>
              <Attribute id="10380" value="16" name="bitDepth"/>
              <Attribute id="10381" value="1" name="gain"/>
              <Attribute id="10382" value="0" name="mixToMono"/>
             </Attributes>
            </AMFile>
            <ScreenVMFile id="10383" start="5115" duration="186" scalar="1/1" mediaStart="8379/1" mediaDuration="186/1" trackNumber="0" src="4" >
             <Transformer>
              <VectorParam id="10384"  name="translation">
               <InterpolatingParam id="10385" interp="linr"  time="-9999999/1" value="0" leadInLength="0/1"  />
               <InterpolatingParam id="10386" interp="linr"  time="-9999999/1" value="0" leadInLength="0/1"  />
               <InterpolatingParam id="10387" interp="linr"  time="-9999999/1" value="0" leadInLength="0/1"  />
              </VectorParam>
              <VectorParam id="10388"  name="rotation">
               <InterpolatingParam id="10389" interp="linr"  time="-9999999/1" value="0" leadInLength="0/1"  />
               <InterpolatingParam id="10390" interp="linr"  time="-9999999/1" value="0" leadInLength="0/1"  />
               <InterpolatingParam id="10391" interp="linr"  time="-9999999/1" value="0" leadInLength="0/1"  />
              </VectorParam>
              <VectorParam id="10392"  name="shear">
               <InterpolatingParam id="10393" interp="linr"  time="-9999999/1" value="0" leadInLength="0/1"  />
               <InterpolatingParam id="10394" interp="linr"  time="-9999999/1" value="0" leadInLength="0/1"  />
               <InterpolatingParam id="10395" interp="linr"  time="-9999999/1" value="0" leadInLength="0/1"  />
              </VectorParam>
              <VectorParam id="10396"  name="scale">
               <InterpolatingParam id="10397" interp="linr"  time="-9999999/1" value="1" leadInLength="0/1"  />
               <InterpolatingParam id="10398" interp="linr"  time="-9999999/1" value="1" leadInLength="0/1"  />
               <InterpolatingParam id="10399" interp="linr"  time="-9999999/1" value="1" leadInLength="0/1"  />
              </VectorParam>
              <VectorParam id="10400"  name="anchor">
               <InterpolatingParam id="10401" interp="linr"  time="0/1" value="0" leadInLength="0/1"  />
               <InterpolatingParam id="10402" interp="linr"  time="0/1" value="0" leadInLength="0/1"  />
               <InterpolatingParam id="10403" interp="linr"  time="0/1" value="0" leadInLength="0/1"  />
              </VectorParam>
             </Transformer>
             <Parameters>
              <VectorParam id="10404"  name="sourceCrop">
               <InterpolatingParam id="10405" interp="linr"  time="0/1" value="0" leadInLength="0/1"  />
               <InterpolatingParam id="10406" interp="linr"  time="0/1" value="0" leadInLength="0/1"  />
               <InterpolatingParam id="10407" interp="linr"  time="0/1" value="0" leadInLength="0/1"  />
               <InterpolatingParam id="10408" interp="linr"  time="0/1" value="0" leadInLength="0/1"  />
              </VectorParam>
              <VectorParam id="10409"  name="geometryCrop">
               <InterpolatingParam id="10410" interp="linr"  time="-9999999/1" value="0" leadInLength="0/1"  />
               <InterpolatingParam id="10411" interp="linr"  time="-9999999/1" value="0" leadInLength="0/1"  />
               <InterpolatingParam id="10412" interp="linr"  time="-9999999/1" value="0" leadInLength="0/1"  />
               <InterpolatingParam id="10413" interp="linr"  time="-9999999/1" value="0" leadInLength="0/1"  />
              </VectorParam>
              <InterpolatingParam id="10414" interp="linr"  time="-9999999/1" value="1" leadInLength="0/1"  name="opacity"/>
              <InterpolatingParam id="10415" interp="linr"  time="0/1" value="0" leadInLength="0/1"  name="cursorOpacity"/>
              <InterpolatingParam id="10416" interp="linr"  time="0/1" value="0" leadInLength="0/1"  name="cursorScale"/>
             </Parameters>
             <Attributes>
              <Attribute id="10417" value="" name="ident"/>
             </Attributes>
             <ExtraData>
              <Entry key="ZoomPanBin">
               <ZoomPanBin id="10418"  >
                <ZoomPanKeyframes>
                 <ZoomPanKeyframe id="10419" timeRangeEnd="-9999999/1" timeRangeDuration="0/1" interpolaterName=""  />
                </ZoomPanKeyframes>
               </ZoomPanBin>
              </Entry>
              <Entry key="CursorEffectBin">
               <CursorEffectBin id="10420"  >
                <CursorEffectKeyframes>
                </CursorEffectKeyframes>
               </CursorEffectBin>
              </Entry>
             </ExtraData>
            </ScreenVMFile>
            <MetaData>
             <entry key="AutoAppliedSmartFocus" val="False"/>
             <entry key="WinSubProjectDisplayName" val=""/>
            </MetaData>
           </UnifiedMedia>
           <UnifiedMedia id="10421"  >
            <AMFile id="10422" start="5301" duration="63" scalar="1/1" mediaStart="8583/1" mediaDuration="63/1" trackNumber="1" src="4" channelNumber="0,1" >
             <Parameters>
              <InterpolatingParam id="10423" interp="linr"  time="0/1" value="1" leadInLength="0/1"  name="volume"/>
              <Parameter id="10424"  name="captions"/>
             </Parameters>
             <Attributes>
              <Attribute id="10425" value="" name="ident"/>
              <Attribute id="10426" value="44100" name="sampleRate"/>
              <Attribute id="10427" value="16" name="bitDepth"/>
              <Attribute id="10428" value="1" name="gain"/>
              <Attribute id="10429" value="0" name="mixToMono"/>
             </Attributes>
            </AMFile>
            <ScreenVMFile id="10430" start="5301" duration="63" scalar="1/1" mediaStart="8583/1" mediaDuration="63/1" trackNumber="0" src="4" >
             <Transformer>
              <VectorParam id="10431"  name="translation">
               <InterpolatingParam id="10432" interp="linr"  time="-9999999/1" value="0" leadInLength="0/1"  />
               <InterpolatingParam id="10433" interp="linr"  time="-9999999/1" value="0" leadInLength="0/1"  />
               <InterpolatingParam id="10434" interp="linr"  time="-9999999/1" value="0" leadInLength="0/1"  />
              </VectorParam>
              <VectorParam id="10435"  name="rotation">
               <InterpolatingParam id="10436" interp="linr"  time="-9999999/1" value="0" leadInLength="0/1"  />
               <InterpolatingParam id="10437" interp="linr"  time="-9999999/1" value="0" leadInLength="0/1"  />
               <InterpolatingParam id="10438" interp="linr"  time="-9999999/1" value="0" leadInLength="0/1"  />
              </VectorParam>
              <VectorParam id="10439"  name="shear">
               <InterpolatingParam id="10440" interp="linr"  time="-9999999/1" value="0" leadInLength="0/1"  />
               <InterpolatingParam id="10441" interp="linr"  time="-9999999/1" value="0" leadInLength="0/1"  />
               <InterpolatingParam id="10442" interp="linr"  time="-9999999/1" value="0" leadInLength="0/1"  />
              </VectorParam>
              <VectorParam id="10443"  name="scale">
               <InterpolatingParam id="10444" interp="linr"  time="-9999999/1" value="1" leadInLength="0/1"  />
               <InterpolatingParam id="10445" interp="linr"  time="-9999999/1" value="1" leadInLength="0/1"  />
               <InterpolatingParam id="10446" interp="linr"  time="-9999999/1" value="1" leadInLength="0/1"  />
              </VectorParam>
              <VectorParam id="10447"  name="anchor">
               <InterpolatingParam id="10448" interp="linr"  time="0/1" value="0" leadInLength="0/1"  />
               <InterpolatingParam id="10449" interp="linr"  time="0/1" value="0" leadInLength="0/1"  />
               <InterpolatingParam id="10450" interp="linr"  time="0/1" value="0" leadInLength="0/1"  />
              </VectorParam>
             </Transformer>
             <Parameters>
              <VectorParam id="10451"  name="sourceCrop">
               <InterpolatingParam id="10452" interp="linr"  time="0/1" value="0" leadInLength="0/1"  />
               <InterpolatingParam id="10453" interp="linr"  time="0/1" value="0" leadInLength="0/1"  />
               <InterpolatingParam id="10454" interp="linr"  time="0/1" value="0" leadInLength="0/1"  />
               <InterpolatingParam id="10455" interp="linr"  time="0/1" value="0" leadInLength="0/1"  />
              </VectorParam>
              <VectorParam id="10456"  name="geometryCrop">
               <InterpolatingParam id="10457" interp="linr"  time="-9999999/1" value="0" leadInLength="0/1"  />
               <InterpolatingParam id="10458" interp="linr"  time="-9999999/1" value="0" leadInLength="0/1"  />
               <InterpolatingParam id="10459" interp="linr"  time="-9999999/1" value="0" leadInLength="0/1"  />
               <InterpolatingParam id="10460" interp="linr"  time="-9999999/1" value="0" leadInLength="0/1"  />
              </VectorParam>
              <InterpolatingParam id="10461" interp="linr"  time="-9999999/1" value="1" leadInLength="0/1"  name="opacity"/>
              <InterpolatingParam id="10462" interp="linr"  time="0/1" value="0" leadInLength="0/1"  name="cursorOpacity"/>
              <InterpolatingParam id="10463" interp="linr"  time="0/1" value="0" leadInLength="0/1"  name="cursorScale"/>
             </Parameters>
             <Attributes>
              <Attribute id="10464" value="" name="ident"/>
             </Attributes>
             <ExtraData>
              <Entry key="ZoomPanBin">
               <ZoomPanBin id="10465"  >
                <ZoomPanKeyframes>
                 <ZoomPanKeyframe id="10466" timeRangeEnd="-9999999/1" timeRangeDuration="0/1" interpolaterName=""  />
                </ZoomPanKeyframes>
               </ZoomPanBin>
              </Entry>
              <Entry key="CursorEffectBin">
               <CursorEffectBin id="10467"  >
                <CursorEffectKeyframes>
                </CursorEffectKeyframes>
               </CursorEffectBin>
              </Entry>
             </ExtraData>
            </ScreenVMFile>
            <MetaData>
             <entry key="AutoAppliedSmartFocus" val="False"/>
             <entry key="WinSubProjectDisplayName" val=""/>
            </MetaData>
           </UnifiedMedia>
           <UnifiedMedia id="10468"  >
            <AMFile id="10469" start="5364" duration="253" scalar="1/1" mediaStart="8812/1" mediaDuration="253/1" trackNumber="1" src="4" channelNumber="0,1" >
             <Parameters>
              <InterpolatingParam id="10470" interp="linr"  time="0/1" value="1" leadInLength="0/1"  name="volume"/>
              <Parameter id="10471"  name="captions"/>
             </Parameters>
             <Attributes>
              <Attribute id="10472" value="" name="ident"/>
              <Attribute id="10473" value="44100" name="sampleRate"/>
              <Attribute id="10474" value="16" name="bitDepth"/>
              <Attribute id="10475" value="1" name="gain"/>
              <Attribute id="10476" value="0" name="mixToMono"/>
             </Attributes>
            </AMFile>
            <ScreenVMFile id="10477" start="5364" duration="253" scalar="1/1" mediaStart="8812/1" mediaDuration="253/1" trackNumber="0" src="4" >
             <Transformer>
              <VectorParam id="10478"  name="translation">
               <InterpolatingParam id="10479" interp="linr"  time="-9999999/1" value="0" leadInLength="0/1"  />
               <InterpolatingParam id="10480" interp="linr"  time="-9999999/1" value="0" leadInLength="0/1"  />
               <InterpolatingParam id="10481" interp="linr"  time="-9999999/1" value="0" leadInLength="0/1"  />
              </VectorParam>
              <VectorParam id="10482"  name="rotation">
               <InterpolatingParam id="10483" interp="linr"  time="-9999999/1" value="0" leadInLength="0/1"  />
               <InterpolatingParam id="10484" interp="linr"  time="-9999999/1" value="0" leadInLength="0/1"  />
               <InterpolatingParam id="10485" interp="linr"  time="-9999999/1" value="0" leadInLength="0/1"  />
              </VectorParam>
              <VectorParam id="10486"  name="shear">
               <InterpolatingParam id="10487" interp="linr"  time="-9999999/1" value="0" leadInLength="0/1"  />
               <InterpolatingParam id="10488" interp="linr"  time="-9999999/1" value="0" leadInLength="0/1"  />
               <InterpolatingParam id="10489" interp="linr"  time="-9999999/1" value="0" leadInLength="0/1"  />
              </VectorParam>
              <VectorParam id="10490"  name="scale">
               <InterpolatingParam id="10491" interp="linr"  time="-9999999/1" value="1" leadInLength="0/1"  />
               <InterpolatingParam id="10492" interp="linr"  time="-9999999/1" value="1" leadInLength="0/1"  />
               <InterpolatingParam id="10493" interp="linr"  time="-9999999/1" value="1" leadInLength="0/1"  />
              </VectorParam>
              <VectorParam id="10494"  name="anchor">
               <InterpolatingParam id="10495" interp="linr"  time="0/1" value="0" leadInLength="0/1"  />
               <InterpolatingParam id="10496" interp="linr"  time="0/1" value="0" leadInLength="0/1"  />
               <InterpolatingParam id="10497" interp="linr"  time="0/1" value="0" leadInLength="0/1"  />
              </VectorParam>
             </Transformer>
             <Parameters>
              <VectorParam id="10498"  name="sourceCrop">
               <InterpolatingParam id="10499" interp="linr"  time="0/1" value="0" leadInLength="0/1"  />
               <InterpolatingParam id="10500" interp="linr"  time="0/1" value="0" leadInLength="0/1"  />
               <InterpolatingParam id="10501" interp="linr"  time="0/1" value="0" leadInLength="0/1"  />
               <InterpolatingParam id="10502" interp="linr"  time="0/1" value="0" leadInLength="0/1"  />
              </VectorParam>
              <VectorParam id="10503"  name="geometryCrop">
               <InterpolatingParam id="10504" interp="linr"  time="-9999999/1" value="0" leadInLength="0/1"  />
               <InterpolatingParam id="10505" interp="linr"  time="-9999999/1" value="0" leadInLength="0/1"  />
               <InterpolatingParam id="10506" interp="linr"  time="-9999999/1" value="0" leadInLength="0/1"  />
               <InterpolatingParam id="10507" interp="linr"  time="-9999999/1" value="0" leadInLength="0/1"  />
              </VectorParam>
              <InterpolatingParam id="10508" interp="linr"  time="-9999999/1" value="1" leadInLength="0/1"  name="opacity"/>
              <InterpolatingParam id="10509" interp="linr"  time="0/1" value="0" leadInLength="0/1"  name="cursorOpacity"/>
              <InterpolatingParam id="10510" interp="linr"  time="0/1" value="0" leadInLength="0/1"  name="cursorScale"/>
             </Parameters>
             <Attributes>
              <Attribute id="10511" value="" name="ident"/>
             </Attributes>
             <ExtraData>
              <Entry key="ZoomPanBin">
               <ZoomPanBin id="10512"  >
                <ZoomPanKeyframes>
                 <ZoomPanKeyframe id="10513" timeRangeEnd="-9999999/1" timeRangeDuration="0/1" interpolaterName=""  />
                </ZoomPanKeyframes>
               </ZoomPanBin>
              </Entry>
              <Entry key="CursorEffectBin">
               <CursorEffectBin id="10514"  >
                <CursorEffectKeyframes>
                </CursorEffectKeyframes>
               </CursorEffectBin>
              </Entry>
             </ExtraData>
            </ScreenVMFile>
            <MetaData>
             <entry key="AutoAppliedSmartFocus" val="False"/>
             <entry key="WinSubProjectDisplayName" val=""/>
            </MetaData>
           </UnifiedMedia>
           <UnifiedMedia id="10515"  >
            <AMFile id="10516" start="5617" duration="479" scalar="1/1" mediaStart="9075/1" mediaDuration="479/1" trackNumber="1" src="4" channelNumber="0,1" >
             <Parameters>
              <InterpolatingParam id="10517" interp="linr"  time="0/1" value="1" leadInLength="0/1"  name="volume"/>
              <Parameter id="10518"  name="captions"/>
             </Parameters>
             <Attributes>
              <Attribute id="10519" value="" name="ident"/>
              <Attribute id="10520" value="44100" name="sampleRate"/>
              <Attribute id="10521" value="16" name="bitDepth"/>
              <Attribute id="10522" value="1" name="gain"/>
              <Attribute id="10523" value="0" name="mixToMono"/>
             </Attributes>
            </AMFile>
            <ScreenVMFile id="10524" start="5617" duration="479" scalar="1/1" mediaStart="9075/1" mediaDuration="479/1" trackNumber="0" src="4" >
             <Transformer>
              <VectorParam id="10525"  name="translation">
               <InterpolatingParam id="10526" interp="linr"  time="-9999999/1" value="0" leadInLength="0/1"  />
               <InterpolatingParam id="10527" interp="linr"  time="-9999999/1" value="0" leadInLength="0/1"  />
               <InterpolatingParam id="10528" interp="linr"  time="-9999999/1" value="0" leadInLength="0/1"  />
              </VectorParam>
              <VectorParam id="10529"  name="rotation">
               <InterpolatingParam id="10530" interp="linr"  time="-9999999/1" value="0" leadInLength="0/1"  />
               <InterpolatingParam id="10531" interp="linr"  time="-9999999/1" value="0" leadInLength="0/1"  />
               <InterpolatingParam id="10532" interp="linr"  time="-9999999/1" value="0" leadInLength="0/1"  />
              </VectorParam>
              <VectorParam id="10533"  name="shear">
               <InterpolatingParam id="10534" interp="linr"  time="-9999999/1" value="0" leadInLength="0/1"  />
               <InterpolatingParam id="10535" interp="linr"  time="-9999999/1" value="0" leadInLength="0/1"  />
               <InterpolatingParam id="10536" interp="linr"  time="-9999999/1" value="0" leadInLength="0/1"  />
              </VectorParam>
              <VectorParam id="10537"  name="scale">
               <InterpolatingParam id="10538" interp="linr"  time="-9999999/1" value="1" leadInLength="0/1"  />
               <InterpolatingParam id="10539" interp="linr"  time="-9999999/1" value="1" leadInLength="0/1"  />
               <InterpolatingParam id="10540" interp="linr"  time="-9999999/1" value="1" leadInLength="0/1"  />
              </VectorParam>
              <VectorParam id="10541"  name="anchor">
               <InterpolatingParam id="10542" interp="linr"  time="0/1" value="0" leadInLength="0/1"  />
               <InterpolatingParam id="10543" interp="linr"  time="0/1" value="0" leadInLength="0/1"  />
               <InterpolatingParam id="10544" interp="linr"  time="0/1" value="0" leadInLength="0/1"  />
              </VectorParam>
             </Transformer>
             <Parameters>
              <VectorParam id="10545"  name="sourceCrop">
               <InterpolatingParam id="10546" interp="linr"  time="0/1" value="0" leadInLength="0/1"  />
               <InterpolatingParam id="10547" interp="linr"  time="0/1" value="0" leadInLength="0/1"  />
               <InterpolatingParam id="10548" interp="linr"  time="0/1" value="0" leadInLength="0/1"  />
               <InterpolatingParam id="10549" interp="linr"  time="0/1" value="0" leadInLength="0/1"  />
              </VectorParam>
              <VectorParam id="10550"  name="geometryCrop">
               <InterpolatingParam id="10551" interp="linr"  time="-9999999/1" value="0" leadInLength="0/1"  />
               <InterpolatingParam id="10552" interp="linr"  time="-9999999/1" value="0" leadInLength="0/1"  />
               <InterpolatingParam id="10553" interp="linr"  time="-9999999/1" value="0" leadInLength="0/1"  />
               <InterpolatingParam id="10554" interp="linr"  time="-9999999/1" value="0" leadInLength="0/1"  />
              </VectorParam>
              <InterpolatingParam id="10555" interp="linr"  time="-9999999/1" value="1" leadInLength="0/1"  name="opacity"/>
              <InterpolatingParam id="10556" interp="linr"  time="0/1" value="0" leadInLength="0/1"  name="cursorOpacity"/>
              <InterpolatingParam id="10557" interp="linr"  time="0/1" value="0" leadInLength="0/1"  name="cursorScale"/>
             </Parameters>
             <Attributes>
              <Attribute id="10558" value="" name="ident"/>
             </Attributes>
             <ExtraData>
              <Entry key="ZoomPanBin">
               <ZoomPanBin id="10559"  >
                <ZoomPanKeyframes>
                 <ZoomPanKeyframe id="10560" timeRangeEnd="-9999999/1" timeRangeDuration="0/1" interpolaterName=""  />
                </ZoomPanKeyframes>
               </ZoomPanBin>
              </Entry>
              <Entry key="CursorEffectBin">
               <CursorEffectBin id="10561"  >
                <CursorEffectKeyframes>
                </CursorEffectKeyframes>
               </CursorEffectBin>
              </Entry>
             </ExtraData>
            </ScreenVMFile>
            <MetaData>
             <entry key="AutoAppliedSmartFocus" val="False"/>
             <entry key="WinSubProjectDisplayName" val=""/>
            </MetaData>
           </UnifiedMedia>
           <UnifiedMedia id="10562"  >
            <AMFile id="10563" start="6096" duration="269" scalar="1/1" mediaStart="9641/1" mediaDuration="269/1" trackNumber="1" src="4" channelNumber="0,1" >
             <Parameters>
              <InterpolatingParam id="10564" interp="linr"  time="0/1" value="1" leadInLength="0/1"  name="volume"/>
              <Parameter id="10565"  name="captions"/>
             </Parameters>
             <Attributes>
              <Attribute id="10566" value="" name="ident"/>
              <Attribute id="10567" value="44100" name="sampleRate"/>
              <Attribute id="10568" value="16" name="bitDepth"/>
              <Attribute id="10569" value="1" name="gain"/>
              <Attribute id="10570" value="0" name="mixToMono"/>
             </Attributes>
            </AMFile>
            <ScreenVMFile id="10571" start="6096" duration="269" scalar="1/1" mediaStart="9641/1" mediaDuration="269/1" trackNumber="0" src="4" >
             <Transformer>
              <VectorParam id="10572"  name="translation">
               <InterpolatingParam id="10573" interp="linr"  time="-9999999/1" value="0" leadInLength="0/1"  />
               <InterpolatingParam id="10574" interp="linr"  time="-9999999/1" value="0" leadInLength="0/1"  />
               <InterpolatingParam id="10575" interp="linr"  time="-9999999/1" value="0" leadInLength="0/1"  />
              </VectorParam>
              <VectorParam id="10576"  name="rotation">
               <InterpolatingParam id="10577" interp="linr"  time="-9999999/1" value="0" leadInLength="0/1"  />
               <InterpolatingParam id="10578" interp="linr"  time="-9999999/1" value="0" leadInLength="0/1"  />
               <InterpolatingParam id="10579" interp="linr"  time="-9999999/1" value="0" leadInLength="0/1"  />
              </VectorParam>
              <VectorParam id="10580"  name="shear">
               <InterpolatingParam id="10581" interp="linr"  time="-9999999/1" value="0" leadInLength="0/1"  />
               <InterpolatingParam id="10582" interp="linr"  time="-9999999/1" value="0" leadInLength="0/1"  />
               <InterpolatingParam id="10583" interp="linr"  time="-9999999/1" value="0" leadInLength="0/1"  />
              </VectorParam>
              <VectorParam id="10584"  name="scale">
               <InterpolatingParam id="10585" interp="linr"  time="-9999999/1" value="1" leadInLength="0/1"  />
               <InterpolatingParam id="10586" interp="linr"  time="-9999999/1" value="1" leadInLength="0/1"  />
               <InterpolatingParam id="10587" interp="linr"  time="-9999999/1" value="1" leadInLength="0/1"  />
              </VectorParam>
              <VectorParam id="10588"  name="anchor">
               <InterpolatingParam id="10589" interp="linr"  time="0/1" value="0" leadInLength="0/1"  />
               <InterpolatingParam id="10590" interp="linr"  time="0/1" value="0" leadInLength="0/1"  />
               <InterpolatingParam id="10591" interp="linr"  time="0/1" value="0" leadInLength="0/1"  />
              </VectorParam>
             </Transformer>
             <Parameters>
              <VectorParam id="10592"  name="sourceCrop">
               <InterpolatingParam id="10593" interp="linr"  time="0/1" value="0" leadInLength="0/1"  />
               <InterpolatingParam id="10594" interp="linr"  time="0/1" value="0" leadInLength="0/1"  />
               <InterpolatingParam id="10595" interp="linr"  time="0/1" value="0" leadInLength="0/1"  />
               <InterpolatingParam id="10596" interp="linr"  time="0/1" value="0" leadInLength="0/1"  />
              </VectorParam>
              <VectorParam id="10597"  name="geometryCrop">
               <InterpolatingParam id="10598" interp="linr"  time="-9999999/1" value="0" leadInLength="0/1"  />
               <InterpolatingParam id="10599" interp="linr"  time="-9999999/1" value="0" leadInLength="0/1"  />
               <InterpolatingParam id="10600" interp="linr"  time="-9999999/1" value="0" leadInLength="0/1"  />
               <InterpolatingParam id="10601" interp="linr"  time="-9999999/1" value="0" leadInLength="0/1"  />
              </VectorParam>
              <InterpolatingParam id="10602" interp="linr"  time="-9999999/1" value="1" leadInLength="0/1"  name="opacity"/>
              <InterpolatingParam id="10603" interp="linr"  time="0/1" value="0" leadInLength="0/1"  name="cursorOpacity"/>
              <InterpolatingParam id="10604" interp="linr"  time="0/1" value="0" leadInLength="0/1"  name="cursorScale"/>
             </Parameters>
             <Attributes>
              <Attribute id="10605" value="" name="ident"/>
             </Attributes>
             <ExtraData>
              <Entry key="ZoomPanBin">
               <ZoomPanBin id="10606"  >
                <ZoomPanKeyframes>
                 <ZoomPanKeyframe id="10607" timeRangeEnd="-9999999/1" timeRangeDuration="0/1" interpolaterName=""  />
                </ZoomPanKeyframes>
               </ZoomPanBin>
              </Entry>
              <Entry key="CursorEffectBin">
               <CursorEffectBin id="10608"  >
                <CursorEffectKeyframes>
                </CursorEffectKeyframes>
               </CursorEffectBin>
              </Entry>
             </ExtraData>
            </ScreenVMFile>
            <MetaData>
             <entry key="AutoAppliedSmartFocus" val="False"/>
             <entry key="WinSubProjectDisplayName" val=""/>
            </MetaData>
           </UnifiedMedia>
           <UnifiedMedia id="10609"  >
            <AMFile id="10610" start="6365" duration="90" scalar="1/1" mediaStart="10079/1" mediaDuration="90/1" trackNumber="1" src="4" channelNumber="0,1" >
             <Parameters>
              <InterpolatingParam id="10611" interp="linr"  time="0/1" value="1" leadInLength="0/1"  name="volume"/>
              <Parameter id="10612"  name="captions"/>
             </Parameters>
             <Attributes>
              <Attribute id="10613" value="" name="ident"/>
              <Attribute id="10614" value="44100" name="sampleRate"/>
              <Attribute id="10615" value="16" name="bitDepth"/>
              <Attribute id="10616" value="1" name="gain"/>
              <Attribute id="10617" value="0" name="mixToMono"/>
             </Attributes>
            </AMFile>
            <ScreenVMFile id="10618" start="6365" duration="90" scalar="1/1" mediaStart="10079/1" mediaDuration="90/1" trackNumber="0" src="4" >
             <Transformer>
              <VectorParam id="10619"  name="translation">
               <InterpolatingParam id="10620" interp="linr"  time="-9999999/1" value="0" leadInLength="0/1"  />
               <InterpolatingParam id="10621" interp="linr"  time="-9999999/1" value="0" leadInLength="0/1"  />
               <InterpolatingParam id="10622" interp="linr"  time="-9999999/1" value="0" leadInLength="0/1"  />
              </VectorParam>
              <VectorParam id="10623"  name="rotation">
               <InterpolatingParam id="10624" interp="linr"  time="-9999999/1" value="0" leadInLength="0/1"  />
               <InterpolatingParam id="10625" interp="linr"  time="-9999999/1" value="0" leadInLength="0/1"  />
               <InterpolatingParam id="10626" interp="linr"  time="-9999999/1" value="0" leadInLength="0/1"  />
              </VectorParam>
              <VectorParam id="10627"  name="shear">
               <InterpolatingParam id="10628" interp="linr"  time="-9999999/1" value="0" leadInLength="0/1"  />
               <InterpolatingParam id="10629" interp="linr"  time="-9999999/1" value="0" leadInLength="0/1"  />
               <InterpolatingParam id="10630" interp="linr"  time="-9999999/1" value="0" leadInLength="0/1"  />
              </VectorParam>
              <VectorParam id="10631"  name="scale">
               <InterpolatingParam id="10632" interp="linr"  time="-9999999/1" value="1" leadInLength="0/1"  />
               <InterpolatingParam id="10633" interp="linr"  time="-9999999/1" value="1" leadInLength="0/1"  />
               <InterpolatingParam id="10634" interp="linr"  time="-9999999/1" value="1" leadInLength="0/1"  />
              </VectorParam>
              <VectorParam id="10635"  name="anchor">
               <InterpolatingParam id="10636" interp="linr"  time="0/1" value="0" leadInLength="0/1"  />
               <InterpolatingParam id="10637" interp="linr"  time="0/1" value="0" leadInLength="0/1"  />
               <InterpolatingParam id="10638" interp="linr"  time="0/1" value="0" leadInLength="0/1"  />
              </VectorParam>
             </Transformer>
             <Parameters>
              <VectorParam id="10639"  name="sourceCrop">
               <InterpolatingParam id="10640" interp="linr"  time="0/1" value="0" leadInLength="0/1"  />
               <InterpolatingParam id="10641" interp="linr"  time="0/1" value="0" leadInLength="0/1"  />
               <InterpolatingParam id="10642" interp="linr"  time="0/1" value="0" leadInLength="0/1"  />
               <InterpolatingParam id="10643" interp="linr"  time="0/1" value="0" leadInLength="0/1"  />
              </VectorParam>
              <VectorParam id="10644"  name="geometryCrop">
               <InterpolatingParam id="10645" interp="linr"  time="-9999999/1" value="0" leadInLength="0/1"  />
               <InterpolatingParam id="10646" interp="linr"  time="-9999999/1" value="0" leadInLength="0/1"  />
               <InterpolatingParam id="10647" interp="linr"  time="-9999999/1" value="0" leadInLength="0/1"  />
               <InterpolatingParam id="10648" interp="linr"  time="-9999999/1" value="0" leadInLength="0/1"  />
              </VectorParam>
              <InterpolatingParam id="10649" interp="linr"  time="-9999999/1" value="1" leadInLength="0/1"  name="opacity"/>
              <InterpolatingParam id="10650" interp="linr"  time="0/1" value="0" leadInLength="0/1"  name="cursorOpacity"/>
              <InterpolatingParam id="10651" interp="linr"  time="0/1" value="0" leadInLength="0/1"  name="cursorScale"/>
             </Parameters>
             <Attributes>
              <Attribute id="10652" value="" name="ident"/>
             </Attributes>
             <ExtraData>
              <Entry key="ZoomPanBin">
               <ZoomPanBin id="10653"  >
                <ZoomPanKeyframes>
                 <ZoomPanKeyframe id="10654" timeRangeEnd="-9999999/1" timeRangeDuration="0/1" interpolaterName=""  />
                </ZoomPanKeyframes>
               </ZoomPanBin>
              </Entry>
              <Entry key="CursorEffectBin">
               <CursorEffectBin id="10655"  >
                <CursorEffectKeyframes>
                </CursorEffectKeyframes>
               </CursorEffectBin>
              </Entry>
             </ExtraData>
            </ScreenVMFile>
            <MetaData>
             <entry key="AutoAppliedSmartFocus" val="False"/>
             <entry key="WinSubProjectDisplayName" val=""/>
            </MetaData>
           </UnifiedMedia>
           <UnifiedMedia id="10656"  >
            <AMFile id="10657" start="6455" duration="55" scalar="1/1" mediaStart="10176/1" mediaDuration="55/1" trackNumber="1" src="4" channelNumber="0,1" >
             <Parameters>
              <InterpolatingParam id="10658" interp="linr"  time="0/1" value="1" leadInLength="0/1"  name="volume"/>
              <Parameter id="10659"  name="captions"/>
             </Parameters>
             <Attributes>
              <Attribute id="10660" value="" name="ident"/>
              <Attribute id="10661" value="44100" name="sampleRate"/>
              <Attribute id="10662" value="16" name="bitDepth"/>
              <Attribute id="10663" value="1" name="gain"/>
              <Attribute id="10664" value="0" name="mixToMono"/>
             </Attributes>
            </AMFile>
            <ScreenVMFile id="10665" start="6455" duration="55" scalar="1/1" mediaStart="10176/1" mediaDuration="55/1" trackNumber="0" src="4" >
             <Transformer>
              <VectorParam id="10666"  name="translation">
               <InterpolatingParam id="10667" interp="linr"  time="-9999999/1" value="0" leadInLength="0/1"  />
               <InterpolatingParam id="10668" interp="linr"  time="-9999999/1" value="0" leadInLength="0/1"  />
               <InterpolatingParam id="10669" interp="linr"  time="-9999999/1" value="0" leadInLength="0/1"  />
              </VectorParam>
              <VectorParam id="10670"  name="rotation">
               <InterpolatingParam id="10671" interp="linr"  time="-9999999/1" value="0" leadInLength="0/1"  />
               <InterpolatingParam id="10672" interp="linr"  time="-9999999/1" value="0" leadInLength="0/1"  />
               <InterpolatingParam id="10673" interp="linr"  time="-9999999/1" value="0" leadInLength="0/1"  />
              </VectorParam>
              <VectorParam id="10674"  name="shear">
               <InterpolatingParam id="10675" interp="linr"  time="-9999999/1" value="0" leadInLength="0/1"  />
               <InterpolatingParam id="10676" interp="linr"  time="-9999999/1" value="0" leadInLength="0/1"  />
               <InterpolatingParam id="10677" interp="linr"  time="-9999999/1" value="0" leadInLength="0/1"  />
              </VectorParam>
              <VectorParam id="10678"  name="scale">
               <InterpolatingParam id="10679" interp="linr"  time="-9999999/1" value="1" leadInLength="0/1"  />
               <InterpolatingParam id="10680" interp="linr"  time="-9999999/1" value="1" leadInLength="0/1"  />
               <InterpolatingParam id="10681" interp="linr"  time="-9999999/1" value="1" leadInLength="0/1"  />
              </VectorParam>
              <VectorParam id="10682"  name="anchor">
               <InterpolatingParam id="10683" interp="linr"  time="0/1" value="0" leadInLength="0/1"  />
               <InterpolatingParam id="10684" interp="linr"  time="0/1" value="0" leadInLength="0/1"  />
               <InterpolatingParam id="10685" interp="linr"  time="0/1" value="0" leadInLength="0/1"  />
              </VectorParam>
             </Transformer>
             <Parameters>
              <VectorParam id="10686"  name="sourceCrop">
               <InterpolatingParam id="10687" interp="linr"  time="0/1" value="0" leadInLength="0/1"  />
               <InterpolatingParam id="10688" interp="linr"  time="0/1" value="0" leadInLength="0/1"  />
               <InterpolatingParam id="10689" interp="linr"  time="0/1" value="0" leadInLength="0/1"  />
               <InterpolatingParam id="10690" interp="linr"  time="0/1" value="0" leadInLength="0/1"  />
              </VectorParam>
              <VectorParam id="10691"  name="geometryCrop">
               <InterpolatingParam id="10692" interp="linr"  time="-9999999/1" value="0" leadInLength="0/1"  />
               <InterpolatingParam id="10693" interp="linr"  time="-9999999/1" value="0" leadInLength="0/1"  />
               <InterpolatingParam id="10694" interp="linr"  time="-9999999/1" value="0" leadInLength="0/1"  />
               <InterpolatingParam id="10695" interp="linr"  time="-9999999/1" value="0" leadInLength="0/1"  />
              </VectorParam>
              <InterpolatingParam id="10696" interp="linr"  time="-9999999/1" value="1" leadInLength="0/1"  name="opacity"/>
              <InterpolatingParam id="10697" interp="linr"  time="0/1" value="0" leadInLength="0/1"  name="cursorOpacity"/>
              <InterpolatingParam id="10698" interp="linr"  time="0/1" value="0" leadInLength="0/1"  name="cursorScale"/>
             </Parameters>
             <Attributes>
              <Attribute id="10699" value="" name="ident"/>
             </Attributes>
             <ExtraData>
              <Entry key="ZoomPanBin">
               <ZoomPanBin id="10700"  >
                <ZoomPanKeyframes>
                 <ZoomPanKeyframe id="10701" timeRangeEnd="-9999999/1" timeRangeDuration="0/1" interpolaterName=""  />
                </ZoomPanKeyframes>
               </ZoomPanBin>
              </Entry>
              <Entry key="CursorEffectBin">
               <CursorEffectBin id="10702"  >
                <CursorEffectKeyframes>
                </CursorEffectKeyframes>
               </CursorEffectBin>
              </Entry>
             </ExtraData>
            </ScreenVMFile>
            <MetaData>
             <entry key="AutoAppliedSmartFocus" val="False"/>
             <entry key="WinSubProjectDisplayName" val=""/>
            </MetaData>
           </UnifiedMedia>
           <UnifiedMedia id="10703"  >
            <AMFile id="10704" start="6510" duration="65" scalar="1/1" mediaStart="10241/1" mediaDuration="65/1" trackNumber="1" src="4" channelNumber="0,1" >
             <Parameters>
              <InterpolatingParam id="10705" interp="linr"  time="0/1" value="1" leadInLength="0/1"  name="volume"/>
              <Parameter id="10706"  name="captions"/>
             </Parameters>
             <Attributes>
              <Attribute id="10707" value="" name="ident"/>
              <Attribute id="10708" value="44100" name="sampleRate"/>
              <Attribute id="10709" value="16" name="bitDepth"/>
              <Attribute id="10710" value="1" name="gain"/>
              <Attribute id="10711" value="0" name="mixToMono"/>
             </Attributes>
            </AMFile>
            <ScreenVMFile id="10712" start="6510" duration="65" scalar="1/1" mediaStart="10241/1" mediaDuration="65/1" trackNumber="0" src="4" >
             <Transformer>
              <VectorParam id="10713"  name="translation">
               <InterpolatingParam id="10714" interp="linr"  time="-9999999/1" value="0" leadInLength="0/1"  />
               <InterpolatingParam id="10715" interp="linr"  time="-9999999/1" value="0" leadInLength="0/1"  />
               <InterpolatingParam id="10716" interp="linr"  time="-9999999/1" value="0" leadInLength="0/1"  />
              </VectorParam>
              <VectorParam id="10717"  name="rotation">
               <InterpolatingParam id="10718" interp="linr"  time="-9999999/1" value="0" leadInLength="0/1"  />
               <InterpolatingParam id="10719" interp="linr"  time="-9999999/1" value="0" leadInLength="0/1"  />
               <InterpolatingParam id="10720" interp="linr"  time="-9999999/1" value="0" leadInLength="0/1"  />
              </VectorParam>
              <VectorParam id="10721"  name="shear">
               <InterpolatingParam id="10722" interp="linr"  time="-9999999/1" value="0" leadInLength="0/1"  />
               <InterpolatingParam id="10723" interp="linr"  time="-9999999/1" value="0" leadInLength="0/1"  />
               <InterpolatingParam id="10724" interp="linr"  time="-9999999/1" value="0" leadInLength="0/1"  />
              </VectorParam>
              <VectorParam id="10725"  name="scale">
               <InterpolatingParam id="10726" interp="linr"  time="-9999999/1" value="1" leadInLength="0/1"  />
               <InterpolatingParam id="10727" interp="linr"  time="-9999999/1" value="1" leadInLength="0/1"  />
               <InterpolatingParam id="10728" interp="linr"  time="-9999999/1" value="1" leadInLength="0/1"  />
              </VectorParam>
              <VectorParam id="10729"  name="anchor">
               <InterpolatingParam id="10730" interp="linr"  time="0/1" value="0" leadInLength="0/1"  />
               <InterpolatingParam id="10731" interp="linr"  time="0/1" value="0" leadInLength="0/1"  />
               <InterpolatingParam id="10732" interp="linr"  time="0/1" value="0" leadInLength="0/1"  />
              </VectorParam>
             </Transformer>
             <Parameters>
              <VectorParam id="10733"  name="sourceCrop">
               <InterpolatingParam id="10734" interp="linr"  time="0/1" value="0" leadInLength="0/1"  />
               <InterpolatingParam id="10735" interp="linr"  time="0/1" value="0" leadInLength="0/1"  />
               <InterpolatingParam id="10736" interp="linr"  time="0/1" value="0" leadInLength="0/1"  />
               <InterpolatingParam id="10737" interp="linr"  time="0/1" value="0" leadInLength="0/1"  />
              </VectorParam>
              <VectorParam id="10738"  name="geometryCrop">
               <InterpolatingParam id="10739" interp="linr"  time="-9999999/1" value="0" leadInLength="0/1"  />
               <InterpolatingParam id="10740" interp="linr"  time="-9999999/1" value="0" leadInLength="0/1"  />
               <InterpolatingParam id="10741" interp="linr"  time="-9999999/1" value="0" leadInLength="0/1"  />
               <InterpolatingParam id="10742" interp="linr"  time="-9999999/1" value="0" leadInLength="0/1"  />
              </VectorParam>
              <InterpolatingParam id="10743" interp="linr"  time="-9999999/1" value="1" leadInLength="0/1"  name="opacity"/>
              <InterpolatingParam id="10744" interp="linr"  time="0/1" value="0" leadInLength="0/1"  name="cursorOpacity"/>
              <InterpolatingParam id="10745" interp="linr"  time="0/1" value="0" leadInLength="0/1"  name="cursorScale"/>
             </Parameters>
             <Attributes>
              <Attribute id="10746" value="" name="ident"/>
             </Attributes>
             <ExtraData>
              <Entry key="ZoomPanBin">
               <ZoomPanBin id="10747"  >
                <ZoomPanKeyframes>
                 <ZoomPanKeyframe id="10748" timeRangeEnd="-9999999/1" timeRangeDuration="0/1" interpolaterName=""  />
                </ZoomPanKeyframes>
               </ZoomPanBin>
              </Entry>
              <Entry key="CursorEffectBin">
               <CursorEffectBin id="10749"  >
                <CursorEffectKeyframes>
                </CursorEffectKeyframes>
               </CursorEffectBin>
              </Entry>
             </ExtraData>
            </ScreenVMFile>
            <MetaData>
             <entry key="AutoAppliedSmartFocus" val="False"/>
             <entry key="WinSubProjectDisplayName" val=""/>
            </MetaData>
           </UnifiedMedia>
           <UnifiedMedia id="10750"  >
            <AMFile id="10751" start="6575" duration="500" scalar="1/1" mediaStart="10620/1" mediaDuration="500/1" trackNumber="1" src="4" channelNumber="0,1" >
             <Parameters>
              <InterpolatingParam id="10752" interp="linr"  time="0/1" value="1" leadInLength="0/1"  name="volume"/>
              <Parameter id="10753"  name="captions"/>
             </Parameters>
             <Attributes>
              <Attribute id="10754" value="" name="ident"/>
              <Attribute id="10755" value="44100" name="sampleRate"/>
              <Attribute id="10756" value="16" name="bitDepth"/>
              <Attribute id="10757" value="1" name="gain"/>
              <Attribute id="10758" value="0" name="mixToMono"/>
             </Attributes>
            </AMFile>
            <ScreenVMFile id="10759" start="6575" duration="500" scalar="1/1" mediaStart="10620/1" mediaDuration="500/1" trackNumber="0" src="4" >
             <Transformer>
              <VectorParam id="10760"  name="translation">
               <InterpolatingParam id="10761" interp="linr"  time="-9999999/1" value="0" leadInLength="0/1"  />
               <InterpolatingParam id="10762" interp="linr"  time="-9999999/1" value="0" leadInLength="0/1"  />
               <InterpolatingParam id="10763" interp="linr"  time="-9999999/1" value="0" leadInLength="0/1"  />
              </VectorParam>
              <VectorParam id="10764"  name="rotation">
               <InterpolatingParam id="10765" interp="linr"  time="-9999999/1" value="0" leadInLength="0/1"  />
               <InterpolatingParam id="10766" interp="linr"  time="-9999999/1" value="0" leadInLength="0/1"  />
               <InterpolatingParam id="10767" interp="linr"  time="-9999999/1" value="0" leadInLength="0/1"  />
              </VectorParam>
              <VectorParam id="10768"  name="shear">
               <InterpolatingParam id="10769" interp="linr"  time="-9999999/1" value="0" leadInLength="0/1"  />
               <InterpolatingParam id="10770" interp="linr"  time="-9999999/1" value="0" leadInLength="0/1"  />
               <InterpolatingParam id="10771" interp="linr"  time="-9999999/1" value="0" leadInLength="0/1"  />
              </VectorParam>
              <VectorParam id="10772"  name="scale">
               <InterpolatingParam id="10773" interp="linr"  time="-9999999/1" value="1" leadInLength="0/1"  />
               <InterpolatingParam id="10774" interp="linr"  time="-9999999/1" value="1" leadInLength="0/1"  />
               <InterpolatingParam id="10775" interp="linr"  time="-9999999/1" value="1" leadInLength="0/1"  />
              </VectorParam>
              <VectorParam id="10776"  name="anchor">
               <InterpolatingParam id="10777" interp="linr"  time="0/1" value="0" leadInLength="0/1"  />
               <InterpolatingParam id="10778" interp="linr"  time="0/1" value="0" leadInLength="0/1"  />
               <InterpolatingParam id="10779" interp="linr"  time="0/1" value="0" leadInLength="0/1"  />
              </VectorParam>
             </Transformer>
             <Parameters>
              <VectorParam id="10780"  name="sourceCrop">
               <InterpolatingParam id="10781" interp="linr"  time="0/1" value="0" leadInLength="0/1"  />
               <InterpolatingParam id="10782" interp="linr"  time="0/1" value="0" leadInLength="0/1"  />
               <InterpolatingParam id="10783" interp="linr"  time="0/1" value="0" leadInLength="0/1"  />
               <InterpolatingParam id="10784" interp="linr"  time="0/1" value="0" leadInLength="0/1"  />
              </VectorParam>
              <VectorParam id="10785"  name="geometryCrop">
               <InterpolatingParam id="10786" interp="linr"  time="-9999999/1" value="0" leadInLength="0/1"  />
               <InterpolatingParam id="10787" interp="linr"  time="-9999999/1" value="0" leadInLength="0/1"  />
               <InterpolatingParam id="10788" interp="linr"  time="-9999999/1" value="0" leadInLength="0/1"  />
               <InterpolatingParam id="10789" interp="linr"  time="-9999999/1" value="0" leadInLength="0/1"  />
              </VectorParam>
              <InterpolatingParam id="10790" interp="linr"  time="-9999999/1" value="1" leadInLength="0/1"  name="opacity"/>
              <InterpolatingParam id="10791" interp="linr"  time="0/1" value="0" leadInLength="0/1"  name="cursorOpacity"/>
              <InterpolatingParam id="10792" interp="linr"  time="0/1" value="0" leadInLength="0/1"  name="cursorScale"/>
             </Parameters>
             <Attributes>
              <Attribute id="10793" value="" name="ident"/>
             </Attributes>
             <ExtraData>
              <Entry key="ZoomPanBin">
               <ZoomPanBin id="10794"  >
                <ZoomPanKeyframes>
                 <ZoomPanKeyframe id="10795" timeRangeEnd="-9999999/1" timeRangeDuration="0/1" interpolaterName=""  />
                </ZoomPanKeyframes>
               </ZoomPanBin>
              </Entry>
              <Entry key="CursorEffectBin">
               <CursorEffectBin id="10796"  >
                <CursorEffectKeyframes>
                </CursorEffectKeyframes>
               </CursorEffectBin>
              </Entry>
             </ExtraData>
            </ScreenVMFile>
            <MetaData>
             <entry key="AutoAppliedSmartFocus" val="False"/>
             <entry key="WinSubProjectDisplayName" val=""/>
            </MetaData>
           </UnifiedMedia>
           <UnifiedMedia id="10797"  >
            <AMFile id="10798" start="7075" duration="37" scalar="1/1" mediaStart="11500/1" mediaDuration="37/1" trackNumber="1" src="4" channelNumber="0,1" >
             <Parameters>
              <InterpolatingParam id="10799" interp="linr"  time="0/1" value="1" leadInLength="0/1"  name="volume"/>
              <Parameter id="10800"  name="captions"/>
             </Parameters>
             <Attributes>
              <Attribute id="10801" value="" name="ident"/>
              <Attribute id="10802" value="44100" name="sampleRate"/>
              <Attribute id="10803" value="16" name="bitDepth"/>
              <Attribute id="10804" value="1" name="gain"/>
              <Attribute id="10805" value="0" name="mixToMono"/>
             </Attributes>
            </AMFile>
            <ScreenVMFile id="10806" start="7075" duration="37" scalar="1/1" mediaStart="11500/1" mediaDuration="37/1" trackNumber="0" src="4" >
             <Transformer>
              <VectorParam id="10807"  name="translation">
               <InterpolatingParam id="10808" interp="linr"  time="-9999999/1" value="0" leadInLength="0/1"  />
               <InterpolatingParam id="10809" interp="linr"  time="-9999999/1" value="0" leadInLength="0/1"  />
               <InterpolatingParam id="10810" interp="linr"  time="-9999999/1" value="0" leadInLength="0/1"  />
              </VectorParam>
              <VectorParam id="10811"  name="rotation">
               <InterpolatingParam id="10812" interp="linr"  time="-9999999/1" value="0" leadInLength="0/1"  />
               <InterpolatingParam id="10813" interp="linr"  time="-9999999/1" value="0" leadInLength="0/1"  />
               <InterpolatingParam id="10814" interp="linr"  time="-9999999/1" value="0" leadInLength="0/1"  />
              </VectorParam>
              <VectorParam id="10815"  name="shear">
               <InterpolatingParam id="10816" interp="linr"  time="-9999999/1" value="0" leadInLength="0/1"  />
               <InterpolatingParam id="10817" interp="linr"  time="-9999999/1" value="0" leadInLength="0/1"  />
               <InterpolatingParam id="10818" interp="linr"  time="-9999999/1" value="0" leadInLength="0/1"  />
              </VectorParam>
              <VectorParam id="10819"  name="scale">
               <InterpolatingParam id="10820" interp="linr"  time="-9999999/1" value="1" leadInLength="0/1"  />
               <InterpolatingParam id="10821" interp="linr"  time="-9999999/1" value="1" leadInLength="0/1"  />
               <InterpolatingParam id="10822" interp="linr"  time="-9999999/1" value="1" leadInLength="0/1"  />
              </VectorParam>
              <VectorParam id="10823"  name="anchor">
               <InterpolatingParam id="10824" interp="linr"  time="0/1" value="0" leadInLength="0/1"  />
               <InterpolatingParam id="10825" interp="linr"  time="0/1" value="0" leadInLength="0/1"  />
               <InterpolatingParam id="10826" interp="linr"  time="0/1" value="0" leadInLength="0/1"  />
              </VectorParam>
             </Transformer>
             <Parameters>
              <VectorParam id="10827"  name="sourceCrop">
               <InterpolatingParam id="10828" interp="linr"  time="0/1" value="0" leadInLength="0/1"  />
               <InterpolatingParam id="10829" interp="linr"  time="0/1" value="0" leadInLength="0/1"  />
               <InterpolatingParam id="10830" interp="linr"  time="0/1" value="0" leadInLength="0/1"  />
               <InterpolatingParam id="10831" interp="linr"  time="0/1" value="0" leadInLength="0/1"  />
              </VectorParam>
              <VectorParam id="10832"  name="geometryCrop">
               <InterpolatingParam id="10833" interp="linr"  time="-9999999/1" value="0" leadInLength="0/1"  />
               <InterpolatingParam id="10834" interp="linr"  time="-9999999/1" value="0" leadInLength="0/1"  />
               <InterpolatingParam id="10835" interp="linr"  time="-9999999/1" value="0" leadInLength="0/1"  />
               <InterpolatingParam id="10836" interp="linr"  time="-9999999/1" value="0" leadInLength="0/1"  />
              </VectorParam>
              <InterpolatingParam id="10837" interp="linr"  time="-9999999/1" value="1" leadInLength="0/1"  name="opacity"/>
              <InterpolatingParam id="10838" interp="linr"  time="0/1" value="0" leadInLength="0/1"  name="cursorOpacity"/>
              <InterpolatingParam id="10839" interp="linr"  time="0/1" value="0" leadInLength="0/1"  name="cursorScale"/>
             </Parameters>
             <Attributes>
              <Attribute id="10840" value="" name="ident"/>
             </Attributes>
             <ExtraData>
              <Entry key="ZoomPanBin">
               <ZoomPanBin id="10841"  >
                <ZoomPanKeyframes>
                 <ZoomPanKeyframe id="10842" timeRangeEnd="-9999999/1" timeRangeDuration="0/1" interpolaterName=""  />
                </ZoomPanKeyframes>
               </ZoomPanBin>
              </Entry>
              <Entry key="CursorEffectBin">
               <CursorEffectBin id="10843"  >
                <CursorEffectKeyframes>
                </CursorEffectKeyframes>
               </CursorEffectBin>
              </Entry>
             </ExtraData>
            </ScreenVMFile>
            <MetaData>
             <entry key="AutoAppliedSmartFocus" val="False"/>
             <entry key="WinSubProjectDisplayName" val=""/>
            </MetaData>
           </UnifiedMedia>
           <UnifiedMedia id="10844"  >
            <AMFile id="10845" start="7112" duration="203" scalar="1/1" mediaStart="11678/1" mediaDuration="203/1" trackNumber="1" src="4" channelNumber="0,1" >
             <Parameters>
              <InterpolatingParam id="10846" interp="linr"  time="0/1" value="1" leadInLength="0/1"  name="volume"/>
              <Parameter id="10847"  name="captions"/>
             </Parameters>
             <Attributes>
              <Attribute id="10848" value="" name="ident"/>
              <Attribute id="10849" value="44100" name="sampleRate"/>
              <Attribute id="10850" value="16" name="bitDepth"/>
              <Attribute id="10851" value="1" name="gain"/>
              <Attribute id="10852" value="0" name="mixToMono"/>
             </Attributes>
            </AMFile>
            <ScreenVMFile id="10853" start="7112" duration="203" scalar="1/1" mediaStart="11678/1" mediaDuration="203/1" trackNumber="0" src="4" >
             <Transformer>
              <VectorParam id="10854"  name="translation">
               <InterpolatingParam id="10855" interp="linr"  time="-9999999/1" value="0" leadInLength="0/1"  />
               <InterpolatingParam id="10856" interp="linr"  time="-9999999/1" value="0" leadInLength="0/1"  />
               <InterpolatingParam id="10857" interp="linr"  time="-9999999/1" value="0" leadInLength="0/1"  />
              </VectorParam>
              <VectorParam id="10858"  name="rotation">
               <InterpolatingParam id="10859" interp="linr"  time="-9999999/1" value="0" leadInLength="0/1"  />
               <InterpolatingParam id="10860" interp="linr"  time="-9999999/1" value="0" leadInLength="0/1"  />
               <InterpolatingParam id="10861" interp="linr"  time="-9999999/1" value="0" leadInLength="0/1"  />
              </VectorParam>
              <VectorParam id="10862"  name="shear">
               <InterpolatingParam id="10863" interp="linr"  time="-9999999/1" value="0" leadInLength="0/1"  />
               <InterpolatingParam id="10864" interp="linr"  time="-9999999/1" value="0" leadInLength="0/1"  />
               <InterpolatingParam id="10865" interp="linr"  time="-9999999/1" value="0" leadInLength="0/1"  />
              </VectorParam>
              <VectorParam id="10866"  name="scale">
               <InterpolatingParam id="10867" interp="linr"  time="-9999999/1" value="1" leadInLength="0/1"  />
               <InterpolatingParam id="10868" interp="linr"  time="-9999999/1" value="1" leadInLength="0/1"  />
               <InterpolatingParam id="10869" interp="linr"  time="-9999999/1" value="1" leadInLength="0/1"  />
              </VectorParam>
              <VectorParam id="10870"  name="anchor">
               <InterpolatingParam id="10871" interp="linr"  time="0/1" value="0" leadInLength="0/1"  />
               <InterpolatingParam id="10872" interp="linr"  time="0/1" value="0" leadInLength="0/1"  />
               <InterpolatingParam id="10873" interp="linr"  time="0/1" value="0" leadInLength="0/1"  />
              </VectorParam>
             </Transformer>
             <Parameters>
              <VectorParam id="10874"  name="sourceCrop">
               <InterpolatingParam id="10875" interp="linr"  time="0/1" value="0" leadInLength="0/1"  />
               <InterpolatingParam id="10876" interp="linr"  time="0/1" value="0" leadInLength="0/1"  />
               <InterpolatingParam id="10877" interp="linr"  time="0/1" value="0" leadInLength="0/1"  />
               <InterpolatingParam id="10878" interp="linr"  time="0/1" value="0" leadInLength="0/1"  />
              </VectorParam>
              <VectorParam id="10879"  name="geometryCrop">
               <InterpolatingParam id="10880" interp="linr"  time="-9999999/1" value="0" leadInLength="0/1"  />
               <InterpolatingParam id="10881" interp="linr"  time="-9999999/1" value="0" leadInLength="0/1"  />
               <InterpolatingParam id="10882" interp="linr"  time="-9999999/1" value="0" leadInLength="0/1"  />
               <InterpolatingParam id="10883" interp="linr"  time="-9999999/1" value="0" leadInLength="0/1"  />
              </VectorParam>
              <InterpolatingParam id="10884" interp="linr"  time="-9999999/1" value="1" leadInLength="0/1"  name="opacity"/>
              <InterpolatingParam id="10885" interp="linr"  time="0/1" value="0" leadInLength="0/1"  name="cursorOpacity"/>
              <InterpolatingParam id="10886" interp="linr"  time="0/1" value="0" leadInLength="0/1"  name="cursorScale"/>
             </Parameters>
             <Attributes>
              <Attribute id="10887" value="" name="ident"/>
             </Attributes>
             <ExtraData>
              <Entry key="ZoomPanBin">
               <ZoomPanBin id="10888"  >
                <ZoomPanKeyframes>
                 <ZoomPanKeyframe id="10889" timeRangeEnd="-9999999/1" timeRangeDuration="0/1" interpolaterName=""  />
                </ZoomPanKeyframes>
               </ZoomPanBin>
              </Entry>
              <Entry key="CursorEffectBin">
               <CursorEffectBin id="10890"  >
                <CursorEffectKeyframes>
                </CursorEffectKeyframes>
               </CursorEffectBin>
              </Entry>
             </ExtraData>
            </ScreenVMFile>
            <MetaData>
             <entry key="AutoAppliedSmartFocus" val="False"/>
             <entry key="WinSubProjectDisplayName" val=""/>
            </MetaData>
           </UnifiedMedia>
           <UnifiedMedia id="10891"  >
            <AMFile id="10892" start="7315" duration="391" scalar="1/1" mediaStart="11890/1" mediaDuration="391/1" trackNumber="1" src="4" channelNumber="0,1" >
             <Parameters>
              <InterpolatingParam id="10893" interp="linr"  time="0/1" value="1" leadInLength="0/1"  name="volume"/>
              <Parameter id="10894"  name="captions"/>
             </Parameters>
             <Attributes>
              <Attribute id="10895" value="" name="ident"/>
              <Attribute id="10896" value="44100" name="sampleRate"/>
              <Attribute id="10897" value="16" name="bitDepth"/>
              <Attribute id="10898" value="1" name="gain"/>
              <Attribute id="10899" value="0" name="mixToMono"/>
             </Attributes>
            </AMFile>
            <ScreenVMFile id="10900" start="7315" duration="391" scalar="1/1" mediaStart="11890/1" mediaDuration="391/1" trackNumber="0" src="4" >
             <Transformer>
              <VectorParam id="10901"  name="translation">
               <InterpolatingParam id="10902" interp="linr"  time="-9999999/1" value="0" leadInLength="0/1"  />
               <InterpolatingParam id="10903" interp="linr"  time="-9999999/1" value="0" leadInLength="0/1"  />
               <InterpolatingParam id="10904" interp="linr"  time="-9999999/1" value="0" leadInLength="0/1"  />
              </VectorParam>
              <VectorParam id="10905"  name="rotation">
               <InterpolatingParam id="10906" interp="linr"  time="-9999999/1" value="0" leadInLength="0/1"  />
               <InterpolatingParam id="10907" interp="linr"  time="-9999999/1" value="0" leadInLength="0/1"  />
               <InterpolatingParam id="10908" interp="linr"  time="-9999999/1" value="0" leadInLength="0/1"  />
              </VectorParam>
              <VectorParam id="10909"  name="shear">
               <InterpolatingParam id="10910" interp="linr"  time="-9999999/1" value="0" leadInLength="0/1"  />
               <InterpolatingParam id="10911" interp="linr"  time="-9999999/1" value="0" leadInLength="0/1"  />
               <InterpolatingParam id="10912" interp="linr"  time="-9999999/1" value="0" leadInLength="0/1"  />
              </VectorParam>
              <VectorParam id="10913"  name="scale">
               <InterpolatingParam id="10914" interp="linr"  time="-9999999/1" value="1" leadInLength="0/1"  />
               <InterpolatingParam id="10915" interp="linr"  time="-9999999/1" value="1" leadInLength="0/1"  />
               <InterpolatingParam id="10916" interp="linr"  time="-9999999/1" value="1" leadInLength="0/1"  />
              </VectorParam>
              <VectorParam id="10917"  name="anchor">
               <InterpolatingParam id="10918" interp="linr"  time="0/1" value="0" leadInLength="0/1"  />
               <InterpolatingParam id="10919" interp="linr"  time="0/1" value="0" leadInLength="0/1"  />
               <InterpolatingParam id="10920" interp="linr"  time="0/1" value="0" leadInLength="0/1"  />
              </VectorParam>
             </Transformer>
             <Parameters>
              <VectorParam id="10921"  name="sourceCrop">
               <InterpolatingParam id="10922" interp="linr"  time="0/1" value="0" leadInLength="0/1"  />
               <InterpolatingParam id="10923" interp="linr"  time="0/1" value="0" leadInLength="0/1"  />
               <InterpolatingParam id="10924" interp="linr"  time="0/1" value="0" leadInLength="0/1"  />
               <InterpolatingParam id="10925" interp="linr"  time="0/1" value="0" leadInLength="0/1"  />
              </VectorParam>
              <VectorParam id="10926"  name="geometryCrop">
               <InterpolatingParam id="10927" interp="linr"  time="-9999999/1" value="0" leadInLength="0/1"  />
               <InterpolatingParam id="10928" interp="linr"  time="-9999999/1" value="0" leadInLength="0/1"  />
               <InterpolatingParam id="10929" interp="linr"  time="-9999999/1" value="0" leadInLength="0/1"  />
               <InterpolatingParam id="10930" interp="linr"  time="-9999999/1" value="0" leadInLength="0/1"  />
              </VectorParam>
              <InterpolatingParam id="10931" interp="linr"  time="-9999999/1" value="1" leadInLength="0/1"  name="opacity"/>
              <InterpolatingParam id="10932" interp="linr"  time="0/1" value="0" leadInLength="0/1"  name="cursorOpacity"/>
              <InterpolatingParam id="10933" interp="linr"  time="0/1" value="0" leadInLength="0/1"  name="cursorScale"/>
             </Parameters>
             <Attributes>
              <Attribute id="10934" value="" name="ident"/>
             </Attributes>
             <ExtraData>
              <Entry key="ZoomPanBin">
               <ZoomPanBin id="10935"  >
                <ZoomPanKeyframes>
                 <ZoomPanKeyframe id="10936" timeRangeEnd="-9999999/1" timeRangeDuration="0/1" interpolaterName=""  />
                </ZoomPanKeyframes>
               </ZoomPanBin>
              </Entry>
              <Entry key="CursorEffectBin">
               <CursorEffectBin id="10937"  >
                <CursorEffectKeyframes>
                </CursorEffectKeyframes>
               </CursorEffectBin>
              </Entry>
             </ExtraData>
            </ScreenVMFile>
            <MetaData>
             <entry key="AutoAppliedSmartFocus" val="False"/>
             <entry key="WinSubProjectDisplayName" val=""/>
            </MetaData>
           </UnifiedMedia>
           <UnifiedMedia id="10938"  >
            <AMFile id="10939" start="7706" duration="322" scalar="1/1" mediaStart="12927/1" mediaDuration="322/1" trackNumber="1" src="4" channelNumber="0,1" >
             <Parameters>
              <InterpolatingParam id="10940" interp="linr"  time="0/1" value="1" leadInLength="0/1"  name="volume"/>
              <Parameter id="10941"  name="captions"/>
             </Parameters>
             <Attributes>
              <Attribute id="10942" value="" name="ident"/>
              <Attribute id="10943" value="44100" name="sampleRate"/>
              <Attribute id="10944" value="16" name="bitDepth"/>
              <Attribute id="10945" value="1" name="gain"/>
              <Attribute id="10946" value="0" name="mixToMono"/>
             </Attributes>
            </AMFile>
            <ScreenVMFile id="10947" start="7706" duration="322" scalar="1/1" mediaStart="12927/1" mediaDuration="322/1" trackNumber="0" src="4" >
             <Transformer>
              <VectorParam id="10948"  name="translation">
               <InterpolatingParam id="10949" interp="linr"  time="-9999999/1" value="0" leadInLength="0/1"  />
               <InterpolatingParam id="10950" interp="linr"  time="-9999999/1" value="0" leadInLength="0/1"  />
               <InterpolatingParam id="10951" interp="linr"  time="-9999999/1" value="0" leadInLength="0/1"  />
              </VectorParam>
              <VectorParam id="10952"  name="rotation">
               <InterpolatingParam id="10953" interp="linr"  time="-9999999/1" value="0" leadInLength="0/1"  />
               <InterpolatingParam id="10954" interp="linr"  time="-9999999/1" value="0" leadInLength="0/1"  />
               <InterpolatingParam id="10955" interp="linr"  time="-9999999/1" value="0" leadInLength="0/1"  />
              </VectorParam>
              <VectorParam id="10956"  name="shear">
               <InterpolatingParam id="10957" interp="linr"  time="-9999999/1" value="0" leadInLength="0/1"  />
               <InterpolatingParam id="10958" interp="linr"  time="-9999999/1" value="0" leadInLength="0/1"  />
               <InterpolatingParam id="10959" interp="linr"  time="-9999999/1" value="0" leadInLength="0/1"  />
              </VectorParam>
              <VectorParam id="10960"  name="scale">
               <InterpolatingParam id="10961" interp="linr"  time="-9999999/1" value="1" leadInLength="0/1"  />
               <InterpolatingParam id="10962" interp="linr"  time="-9999999/1" value="1" leadInLength="0/1"  />
               <InterpolatingParam id="10963" interp="linr"  time="-9999999/1" value="1" leadInLength="0/1"  />
              </VectorParam>
              <VectorParam id="10964"  name="anchor">
               <InterpolatingParam id="10965" interp="linr"  time="0/1" value="0" leadInLength="0/1"  />
               <InterpolatingParam id="10966" interp="linr"  time="0/1" value="0" leadInLength="0/1"  />
               <InterpolatingParam id="10967" interp="linr"  time="0/1" value="0" leadInLength="0/1"  />
              </VectorParam>
             </Transformer>
             <Parameters>
              <VectorParam id="10968"  name="sourceCrop">
               <InterpolatingParam id="10969" interp="linr"  time="0/1" value="0" leadInLength="0/1"  />
               <InterpolatingParam id="10970" interp="linr"  time="0/1" value="0" leadInLength="0/1"  />
               <InterpolatingParam id="10971" interp="linr"  time="0/1" value="0" leadInLength="0/1"  />
               <InterpolatingParam id="10972" interp="linr"  time="0/1" value="0" leadInLength="0/1"  />
              </VectorParam>
              <VectorParam id="10973"  name="geometryCrop">
               <InterpolatingParam id="10974" interp="linr"  time="-9999999/1" value="0" leadInLength="0/1"  />
               <InterpolatingParam id="10975" interp="linr"  time="-9999999/1" value="0" leadInLength="0/1"  />
               <InterpolatingParam id="10976" interp="linr"  time="-9999999/1" value="0" leadInLength="0/1"  />
               <InterpolatingParam id="10977" interp="linr"  time="-9999999/1" value="0" leadInLength="0/1"  />
              </VectorParam>
              <InterpolatingParam id="10978" interp="linr"  time="-9999999/1" value="1" leadInLength="0/1"  name="opacity"/>
              <InterpolatingParam id="10979" interp="linr"  time="0/1" value="0" leadInLength="0/1"  name="cursorOpacity"/>
              <InterpolatingParam id="10980" interp="linr"  time="0/1" value="0" leadInLength="0/1"  name="cursorScale"/>
             </Parameters>
             <Attributes>
              <Attribute id="10981" value="" name="ident"/>
             </Attributes>
             <ExtraData>
              <Entry key="ZoomPanBin">
               <ZoomPanBin id="10982"  >
                <ZoomPanKeyframes>
                 <ZoomPanKeyframe id="10983" timeRangeEnd="-9999999/1" timeRangeDuration="0/1" interpolaterName=""  />
                </ZoomPanKeyframes>
               </ZoomPanBin>
              </Entry>
              <Entry key="CursorEffectBin">
               <CursorEffectBin id="10984"  >
                <CursorEffectKeyframes>
                </CursorEffectKeyframes>
               </CursorEffectBin>
              </Entry>
             </ExtraData>
            </ScreenVMFile>
            <MetaData>
             <entry key="AutoAppliedSmartFocus" val="False"/>
             <entry key="WinSubProjectDisplayName" val=""/>
            </MetaData>
           </UnifiedMedia>
           <UnifiedMedia id="10985"  >
            <AMFile id="10986" start="8028" duration="163" scalar="1/1" mediaStart="13328/1" mediaDuration="163/1" trackNumber="1" src="4" channelNumber="0,1" >
             <Parameters>
              <InterpolatingParam id="10987" interp="linr"  time="0/1" value="1" leadInLength="0/1"  name="volume"/>
              <Parameter id="10988"  name="captions"/>
             </Parameters>
             <Attributes>
              <Attribute id="10989" value="" name="ident"/>
              <Attribute id="10990" value="44100" name="sampleRate"/>
              <Attribute id="10991" value="16" name="bitDepth"/>
              <Attribute id="10992" value="1" name="gain"/>
              <Attribute id="10993" value="0" name="mixToMono"/>
             </Attributes>
            </AMFile>
            <ScreenVMFile id="10994" start="8028" duration="163" scalar="1/1" mediaStart="13328/1" mediaDuration="163/1" trackNumber="0" src="4" >
             <Transformer>
              <VectorParam id="10995"  name="translation">
               <InterpolatingParam id="10996" interp="linr"  time="-9999999/1" value="0" leadInLength="0/1"  />
               <InterpolatingParam id="10997" interp="linr"  time="-9999999/1" value="0" leadInLength="0/1"  />
               <InterpolatingParam id="10998" interp="linr"  time="-9999999/1" value="0" leadInLength="0/1"  />
              </VectorParam>
              <VectorParam id="10999"  name="rotation">
               <InterpolatingParam id="11000" interp="linr"  time="-9999999/1" value="0" leadInLength="0/1"  />
               <InterpolatingParam id="11001" interp="linr"  time="-9999999/1" value="0" leadInLength="0/1"  />
               <InterpolatingParam id="11002" interp="linr"  time="-9999999/1" value="0" leadInLength="0/1"  />
              </VectorParam>
              <VectorParam id="11003"  name="shear">
               <InterpolatingParam id="11004" interp="linr"  time="-9999999/1" value="0" leadInLength="0/1"  />
               <InterpolatingParam id="11005" interp="linr"  time="-9999999/1" value="0" leadInLength="0/1"  />
               <InterpolatingParam id="11006" interp="linr"  time="-9999999/1" value="0" leadInLength="0/1"  />
              </VectorParam>
              <VectorParam id="11007"  name="scale">
               <InterpolatingParam id="11008" interp="linr"  time="-9999999/1" value="1" leadInLength="0/1"  />
               <InterpolatingParam id="11009" interp="linr"  time="-9999999/1" value="1" leadInLength="0/1"  />
               <InterpolatingParam id="11010" interp="linr"  time="-9999999/1" value="1" leadInLength="0/1"  />
              </VectorParam>
              <VectorParam id="11011"  name="anchor">
               <InterpolatingParam id="11012" interp="linr"  time="0/1" value="0" leadInLength="0/1"  />
               <InterpolatingParam id="11013" interp="linr"  time="0/1" value="0" leadInLength="0/1"  />
               <InterpolatingParam id="11014" interp="linr"  time="0/1" value="0" leadInLength="0/1"  />
              </VectorParam>
             </Transformer>
             <Parameters>
              <VectorParam id="11015"  name="sourceCrop">
               <InterpolatingParam id="11016" interp="linr"  time="0/1" value="0" leadInLength="0/1"  />
               <InterpolatingParam id="11017" interp="linr"  time="0/1" value="0" leadInLength="0/1"  />
               <InterpolatingParam id="11018" interp="linr"  time="0/1" value="0" leadInLength="0/1"  />
               <InterpolatingParam id="11019" interp="linr"  time="0/1" value="0" leadInLength="0/1"  />
              </VectorParam>
              <VectorParam id="11020"  name="geometryCrop">
               <InterpolatingParam id="11021" interp="linr"  time="-9999999/1" value="0" leadInLength="0/1"  />
               <InterpolatingParam id="11022" interp="linr"  time="-9999999/1" value="0" leadInLength="0/1"  />
               <InterpolatingParam id="11023" interp="linr"  time="-9999999/1" value="0" leadInLength="0/1"  />
               <InterpolatingParam id="11024" interp="linr"  time="-9999999/1" value="0" leadInLength="0/1"  />
              </VectorParam>
              <InterpolatingParam id="11025" interp="linr"  time="-9999999/1" value="1" leadInLength="0/1"  name="opacity"/>
              <InterpolatingParam id="11026" interp="linr"  time="0/1" value="0" leadInLength="0/1"  name="cursorOpacity"/>
              <InterpolatingParam id="11027" interp="linr"  time="0/1" value="0" leadInLength="0/1"  name="cursorScale"/>
             </Parameters>
             <Attributes>
              <Attribute id="11028" value="" name="ident"/>
             </Attributes>
             <ExtraData>
              <Entry key="ZoomPanBin">
               <ZoomPanBin id="11029"  >
                <ZoomPanKeyframes>
                 <ZoomPanKeyframe id="11030" timeRangeEnd="-9999999/1" timeRangeDuration="0/1" interpolaterName=""  />
                </ZoomPanKeyframes>
               </ZoomPanBin>
              </Entry>
              <Entry key="CursorEffectBin">
               <CursorEffectBin id="11031"  >
                <CursorEffectKeyframes>
                </CursorEffectKeyframes>
               </CursorEffectBin>
              </Entry>
             </ExtraData>
            </ScreenVMFile>
            <MetaData>
             <entry key="AutoAppliedSmartFocus" val="False"/>
             <entry key="WinSubProjectDisplayName" val=""/>
            </MetaData>
           </UnifiedMedia>
           <UnifiedMedia id="11032"  >
            <AMFile id="11033" start="8191" duration="82" scalar="1/1" mediaStart="13803/1" mediaDuration="82/1" trackNumber="1" src="4" channelNumber="0,1" >
             <Parameters>
              <InterpolatingParam id="11034" interp="linr"  time="0/1" value="1" leadInLength="0/1"  name="volume"/>
              <Parameter id="11035"  name="captions"/>
             </Parameters>
             <Attributes>
              <Attribute id="11036" value="" name="ident"/>
              <Attribute id="11037" value="44100" name="sampleRate"/>
              <Attribute id="11038" value="16" name="bitDepth"/>
              <Attribute id="11039" value="1" name="gain"/>
              <Attribute id="11040" value="0" name="mixToMono"/>
             </Attributes>
            </AMFile>
            <ScreenVMFile id="11041" start="8191" duration="82" scalar="1/1" mediaStart="13803/1" mediaDuration="82/1" trackNumber="0" src="4" >
             <Transformer>
              <VectorParam id="11042"  name="translation">
               <InterpolatingParam id="11043" interp="linr"  time="-9999999/1" value="0" leadInLength="0/1"  />
               <InterpolatingParam id="11044" interp="linr"  time="-9999999/1" value="0" leadInLength="0/1"  />
               <InterpolatingParam id="11045" interp="linr"  time="-9999999/1" value="0" leadInLength="0/1"  />
              </VectorParam>
              <VectorParam id="11046"  name="rotation">
               <InterpolatingParam id="11047" interp="linr"  time="-9999999/1" value="0" leadInLength="0/1"  />
               <InterpolatingParam id="11048" interp="linr"  time="-9999999/1" value="0" leadInLength="0/1"  />
               <InterpolatingParam id="11049" interp="linr"  time="-9999999/1" value="0" leadInLength="0/1"  />
              </VectorParam>
              <VectorParam id="11050"  name="shear">
               <InterpolatingParam id="11051" interp="linr"  time="-9999999/1" value="0" leadInLength="0/1"  />
               <InterpolatingParam id="11052" interp="linr"  time="-9999999/1" value="0" leadInLength="0/1"  />
               <InterpolatingParam id="11053" interp="linr"  time="-9999999/1" value="0" leadInLength="0/1"  />
              </VectorParam>
              <VectorParam id="11054"  name="scale">
               <InterpolatingParam id="11055" interp="linr"  time="-9999999/1" value="1" leadInLength="0/1"  />
               <InterpolatingParam id="11056" interp="linr"  time="-9999999/1" value="1" leadInLength="0/1"  />
               <InterpolatingParam id="11057" interp="linr"  time="-9999999/1" value="1" leadInLength="0/1"  />
              </VectorParam>
              <VectorParam id="11058"  name="anchor">
               <InterpolatingParam id="11059" interp="linr"  time="0/1" value="0" leadInLength="0/1"  />
               <InterpolatingParam id="11060" interp="linr"  time="0/1" value="0" leadInLength="0/1"  />
               <InterpolatingParam id="11061" interp="linr"  time="0/1" value="0" leadInLength="0/1"  />
              </VectorParam>
             </Transformer>
             <Parameters>
              <VectorParam id="11062"  name="sourceCrop">
               <InterpolatingParam id="11063" interp="linr"  time="0/1" value="0" leadInLength="0/1"  />
               <InterpolatingParam id="11064" interp="linr"  time="0/1" value="0" leadInLength="0/1"  />
               <InterpolatingParam id="11065" interp="linr"  time="0/1" value="0" leadInLength="0/1"  />
               <InterpolatingParam id="11066" interp="linr"  time="0/1" value="0" leadInLength="0/1"  />
              </VectorParam>
              <VectorParam id="11067"  name="geometryCrop">
               <InterpolatingParam id="11068" interp="linr"  time="-9999999/1" value="0" leadInLength="0/1"  />
               <InterpolatingParam id="11069" interp="linr"  time="-9999999/1" value="0" leadInLength="0/1"  />
               <InterpolatingParam id="11070" interp="linr"  time="-9999999/1" value="0" leadInLength="0/1"  />
               <InterpolatingParam id="11071" interp="linr"  time="-9999999/1" value="0" leadInLength="0/1"  />
              </VectorParam>
              <InterpolatingParam id="11072" interp="linr"  time="-9999999/1" value="1" leadInLength="0/1"  name="opacity"/>
              <InterpolatingParam id="11073" interp="linr"  time="0/1" value="0" leadInLength="0/1"  name="cursorOpacity"/>
              <InterpolatingParam id="11074" interp="linr"  time="0/1" value="0" leadInLength="0/1"  name="cursorScale"/>
             </Parameters>
             <Attributes>
              <Attribute id="11075" value="" name="ident"/>
             </Attributes>
             <ExtraData>
              <Entry key="ZoomPanBin">
               <ZoomPanBin id="11076"  >
                <ZoomPanKeyframes>
                 <ZoomPanKeyframe id="11077" timeRangeEnd="-9999999/1" timeRangeDuration="0/1" interpolaterName=""  />
                </ZoomPanKeyframes>
               </ZoomPanBin>
              </Entry>
              <Entry key="CursorEffectBin">
               <CursorEffectBin id="11078"  >
                <CursorEffectKeyframes>
                </CursorEffectKeyframes>
               </CursorEffectBin>
              </Entry>
             </ExtraData>
            </ScreenVMFile>
            <MetaData>
             <entry key="AutoAppliedSmartFocus" val="False"/>
             <entry key="WinSubProjectDisplayName" val=""/>
            </MetaData>
           </UnifiedMedia>
           <UnifiedMedia id="11079"  >
            <AMFile id="11080" start="8273" duration="38" scalar="1/1" mediaStart="13891/1" mediaDuration="38/1" trackNumber="1" src="4" channelNumber="0,1" >
             <Parameters>
              <InterpolatingParam id="11081" interp="linr"  time="0/1" value="1" leadInLength="0/1"  name="volume"/>
              <Parameter id="11082"  name="captions"/>
             </Parameters>
             <Attributes>
              <Attribute id="11083" value="" name="ident"/>
              <Attribute id="11084" value="44100" name="sampleRate"/>
              <Attribute id="11085" value="16" name="bitDepth"/>
              <Attribute id="11086" value="1" name="gain"/>
              <Attribute id="11087" value="0" name="mixToMono"/>
             </Attributes>
            </AMFile>
            <ScreenVMFile id="11088" start="8273" duration="38" scalar="1/1" mediaStart="13891/1" mediaDuration="38/1" trackNumber="0" src="4" >
             <Transformer>
              <VectorParam id="11089"  name="translation">
               <InterpolatingParam id="11090" interp="linr"  time="-9999999/1" value="0" leadInLength="0/1"  />
               <InterpolatingParam id="11091" interp="linr"  time="-9999999/1" value="0" leadInLength="0/1"  />
               <InterpolatingParam id="11092" interp="linr"  time="-9999999/1" value="0" leadInLength="0/1"  />
              </VectorParam>
              <VectorParam id="11093"  name="rotation">
               <InterpolatingParam id="11094" interp="linr"  time="-9999999/1" value="0" leadInLength="0/1"  />
               <InterpolatingParam id="11095" interp="linr"  time="-9999999/1" value="0" leadInLength="0/1"  />
               <InterpolatingParam id="11096" interp="linr"  time="-9999999/1" value="0" leadInLength="0/1"  />
              </VectorParam>
              <VectorParam id="11097"  name="shear">
               <InterpolatingParam id="11098" interp="linr"  time="-9999999/1" value="0" leadInLength="0/1"  />
               <InterpolatingParam id="11099" interp="linr"  time="-9999999/1" value="0" leadInLength="0/1"  />
               <InterpolatingParam id="11100" interp="linr"  time="-9999999/1" value="0" leadInLength="0/1"  />
              </VectorParam>
              <VectorParam id="11101"  name="scale">
               <InterpolatingParam id="11102" interp="linr"  time="-9999999/1" value="1" leadInLength="0/1"  />
               <InterpolatingParam id="11103" interp="linr"  time="-9999999/1" value="1" leadInLength="0/1"  />
               <InterpolatingParam id="11104" interp="linr"  time="-9999999/1" value="1" leadInLength="0/1"  />
              </VectorParam>
              <VectorParam id="11105"  name="anchor">
               <InterpolatingParam id="11106" interp="linr"  time="0/1" value="0" leadInLength="0/1"  />
               <InterpolatingParam id="11107" interp="linr"  time="0/1" value="0" leadInLength="0/1"  />
               <InterpolatingParam id="11108" interp="linr"  time="0/1" value="0" leadInLength="0/1"  />
              </VectorParam>
             </Transformer>
             <Parameters>
              <VectorParam id="11109"  name="sourceCrop">
               <InterpolatingParam id="11110" interp="linr"  time="0/1" value="0" leadInLength="0/1"  />
               <InterpolatingParam id="11111" interp="linr"  time="0/1" value="0" leadInLength="0/1"  />
               <InterpolatingParam id="11112" interp="linr"  time="0/1" value="0" leadInLength="0/1"  />
               <InterpolatingParam id="11113" interp="linr"  time="0/1" value="0" leadInLength="0/1"  />
              </VectorParam>
              <VectorParam id="11114"  name="geometryCrop">
               <InterpolatingParam id="11115" interp="linr"  time="-9999999/1" value="0" leadInLength="0/1"  />
               <InterpolatingParam id="11116" interp="linr"  time="-9999999/1" value="0" leadInLength="0/1"  />
               <InterpolatingParam id="11117" interp="linr"  time="-9999999/1" value="0" leadInLength="0/1"  />
               <InterpolatingParam id="11118" interp="linr"  time="-9999999/1" value="0" leadInLength="0/1"  />
              </VectorParam>
              <InterpolatingParam id="11119" interp="linr"  time="-9999999/1" value="1" leadInLength="0/1"  name="opacity"/>
              <InterpolatingParam id="11120" interp="linr"  time="0/1" value="0" leadInLength="0/1"  name="cursorOpacity"/>
              <InterpolatingParam id="11121" interp="linr"  time="0/1" value="0" leadInLength="0/1"  name="cursorScale"/>
             </Parameters>
             <Attributes>
              <Attribute id="11122" value="" name="ident"/>
             </Attributes>
             <ExtraData>
              <Entry key="ZoomPanBin">
               <ZoomPanBin id="11123"  >
                <ZoomPanKeyframes>
                 <ZoomPanKeyframe id="11124" timeRangeEnd="-9999999/1" timeRangeDuration="0/1" interpolaterName=""  />
                </ZoomPanKeyframes>
               </ZoomPanBin>
              </Entry>
              <Entry key="CursorEffectBin">
               <CursorEffectBin id="11125"  >
                <CursorEffectKeyframes>
                </CursorEffectKeyframes>
               </CursorEffectBin>
              </Entry>
             </ExtraData>
            </ScreenVMFile>
            <MetaData>
             <entry key="AutoAppliedSmartFocus" val="False"/>
             <entry key="WinSubProjectDisplayName" val=""/>
            </MetaData>
           </UnifiedMedia>
           <UnifiedMedia id="11126"  >
            <AMFile id="11127" start="8311" duration="274" scalar="1/1" mediaStart="13943/1" mediaDuration="274/1" trackNumber="1" src="4" channelNumber="0,1" >
             <Parameters>
              <InterpolatingParam id="11128" interp="linr"  time="0/1" value="1" leadInLength="0/1"  name="volume"/>
              <Parameter id="11129"  name="captions"/>
             </Parameters>
             <Attributes>
              <Attribute id="11130" value="" name="ident"/>
              <Attribute id="11131" value="44100" name="sampleRate"/>
              <Attribute id="11132" value="16" name="bitDepth"/>
              <Attribute id="11133" value="1" name="gain"/>
              <Attribute id="11134" value="0" name="mixToMono"/>
             </Attributes>
            </AMFile>
            <ScreenVMFile id="11135" start="8311" duration="274" scalar="1/1" mediaStart="13943/1" mediaDuration="274/1" trackNumber="0" src="4" >
             <Transformer>
              <VectorParam id="11136"  name="translation">
               <InterpolatingParam id="11137" interp="linr"  time="-9999999/1" value="0" leadInLength="0/1"  />
               <InterpolatingParam id="11138" interp="linr"  time="-9999999/1" value="0" leadInLength="0/1"  />
               <InterpolatingParam id="11139" interp="linr"  time="-9999999/1" value="0" leadInLength="0/1"  />
              </VectorParam>
              <VectorParam id="11140"  name="rotation">
               <InterpolatingParam id="11141" interp="linr"  time="-9999999/1" value="0" leadInLength="0/1"  />
               <InterpolatingParam id="11142" interp="linr"  time="-9999999/1" value="0" leadInLength="0/1"  />
               <InterpolatingParam id="11143" interp="linr"  time="-9999999/1" value="0" leadInLength="0/1"  />
              </VectorParam>
              <VectorParam id="11144"  name="shear">
               <InterpolatingParam id="11145" interp="linr"  time="-9999999/1" value="0" leadInLength="0/1"  />
               <InterpolatingParam id="11146" interp="linr"  time="-9999999/1" value="0" leadInLength="0/1"  />
               <InterpolatingParam id="11147" interp="linr"  time="-9999999/1" value="0" leadInLength="0/1"  />
              </VectorParam>
              <VectorParam id="11148"  name="scale">
               <InterpolatingParam id="11149" interp="linr"  time="-9999999/1" value="1" leadInLength="0/1"  />
               <InterpolatingParam id="11150" interp="linr"  time="-9999999/1" value="1" leadInLength="0/1"  />
               <InterpolatingParam id="11151" interp="linr"  time="-9999999/1" value="1" leadInLength="0/1"  />
              </VectorParam>
              <VectorParam id="11152"  name="anchor">
               <InterpolatingParam id="11153" interp="linr"  time="0/1" value="0" leadInLength="0/1"  />
               <InterpolatingParam id="11154" interp="linr"  time="0/1" value="0" leadInLength="0/1"  />
               <InterpolatingParam id="11155" interp="linr"  time="0/1" value="0" leadInLength="0/1"  />
              </VectorParam>
             </Transformer>
             <Parameters>
              <VectorParam id="11156"  name="sourceCrop">
               <InterpolatingParam id="11157" interp="linr"  time="0/1" value="0" leadInLength="0/1"  />
               <InterpolatingParam id="11158" interp="linr"  time="0/1" value="0" leadInLength="0/1"  />
               <InterpolatingParam id="11159" interp="linr"  time="0/1" value="0" leadInLength="0/1"  />
               <InterpolatingParam id="11160" interp="linr"  time="0/1" value="0" leadInLength="0/1"  />
              </VectorParam>
              <VectorParam id="11161"  name="geometryCrop">
               <InterpolatingParam id="11162" interp="linr"  time="-9999999/1" value="0" leadInLength="0/1"  />
               <InterpolatingParam id="11163" interp="linr"  time="-9999999/1" value="0" leadInLength="0/1"  />
               <InterpolatingParam id="11164" interp="linr"  time="-9999999/1" value="0" leadInLength="0/1"  />
               <InterpolatingParam id="11165" interp="linr"  time="-9999999/1" value="0" leadInLength="0/1"  />
              </VectorParam>
              <InterpolatingParam id="11166" interp="linr"  time="-9999999/1" value="1" leadInLength="0/1"  name="opacity"/>
              <InterpolatingParam id="11167" interp="linr"  time="0/1" value="0" leadInLength="0/1"  name="cursorOpacity"/>
              <InterpolatingParam id="11168" interp="linr"  time="0/1" value="0" leadInLength="0/1"  name="cursorScale"/>
             </Parameters>
             <Attributes>
              <Attribute id="11169" value="" name="ident"/>
             </Attributes>
             <ExtraData>
              <Entry key="ZoomPanBin">
               <ZoomPanBin id="11170"  >
                <ZoomPanKeyframes>
                 <ZoomPanKeyframe id="11171" timeRangeEnd="-9999999/1" timeRangeDuration="0/1" interpolaterName=""  />
                </ZoomPanKeyframes>
               </ZoomPanBin>
              </Entry>
              <Entry key="CursorEffectBin">
               <CursorEffectBin id="11172"  >
                <CursorEffectKeyframes>
                </CursorEffectKeyframes>
               </CursorEffectBin>
              </Entry>
             </ExtraData>
            </ScreenVMFile>
            <MetaData>
             <entry key="AutoAppliedSmartFocus" val="False"/>
             <entry key="WinSubProjectDisplayName" val=""/>
            </MetaData>
           </UnifiedMedia>
           <UnifiedMedia id="11173"  >
            <AMFile id="11174" start="8585" duration="79" scalar="1/1" mediaStart="14230/1" mediaDuration="79/1" trackNumber="1" src="4" channelNumber="0,1" >
             <Parameters>
              <InterpolatingParam id="11175" interp="linr"  time="0/1" value="1" leadInLength="0/1"  name="volume"/>
              <Parameter id="11176"  name="captions"/>
             </Parameters>
             <Attributes>
              <Attribute id="11177" value="" name="ident"/>
              <Attribute id="11178" value="44100" name="sampleRate"/>
              <Attribute id="11179" value="16" name="bitDepth"/>
              <Attribute id="11180" value="1" name="gain"/>
              <Attribute id="11181" value="0" name="mixToMono"/>
             </Attributes>
            </AMFile>
            <ScreenVMFile id="11182" start="8585" duration="79" scalar="1/1" mediaStart="14230/1" mediaDuration="79/1" trackNumber="0" src="4" >
             <Transformer>
              <VectorParam id="11183"  name="translation">
               <InterpolatingParam id="11184" interp="linr"  time="-9999999/1" value="0" leadInLength="0/1"  />
               <InterpolatingParam id="11185" interp="linr"  time="-9999999/1" value="0" leadInLength="0/1"  />
               <InterpolatingParam id="11186" interp="linr"  time="-9999999/1" value="0" leadInLength="0/1"  />
              </VectorParam>
              <VectorParam id="11187"  name="rotation">
               <InterpolatingParam id="11188" interp="linr"  time="-9999999/1" value="0" leadInLength="0/1"  />
               <InterpolatingParam id="11189" interp="linr"  time="-9999999/1" value="0" leadInLength="0/1"  />
               <InterpolatingParam id="11190" interp="linr"  time="-9999999/1" value="0" leadInLength="0/1"  />
              </VectorParam>
              <VectorParam id="11191"  name="shear">
               <InterpolatingParam id="11192" interp="linr"  time="-9999999/1" value="0" leadInLength="0/1"  />
               <InterpolatingParam id="11193" interp="linr"  time="-9999999/1" value="0" leadInLength="0/1"  />
               <InterpolatingParam id="11194" interp="linr"  time="-9999999/1" value="0" leadInLength="0/1"  />
              </VectorParam>
              <VectorParam id="11195"  name="scale">
               <InterpolatingParam id="11196" interp="linr"  time="-9999999/1" value="1" leadInLength="0/1"  />
               <InterpolatingParam id="11197" interp="linr"  time="-9999999/1" value="1" leadInLength="0/1"  />
               <InterpolatingParam id="11198" interp="linr"  time="-9999999/1" value="1" leadInLength="0/1"  />
              </VectorParam>
              <VectorParam id="11199"  name="anchor">
               <InterpolatingParam id="11200" interp="linr"  time="0/1" value="0" leadInLength="0/1"  />
               <InterpolatingParam id="11201" interp="linr"  time="0/1" value="0" leadInLength="0/1"  />
               <InterpolatingParam id="11202" interp="linr"  time="0/1" value="0" leadInLength="0/1"  />
              </VectorParam>
             </Transformer>
             <Parameters>
              <VectorParam id="11203"  name="sourceCrop">
               <InterpolatingParam id="11204" interp="linr"  time="0/1" value="0" leadInLength="0/1"  />
               <InterpolatingParam id="11205" interp="linr"  time="0/1" value="0" leadInLength="0/1"  />
               <InterpolatingParam id="11206" interp="linr"  time="0/1" value="0" leadInLength="0/1"  />
               <InterpolatingParam id="11207" interp="linr"  time="0/1" value="0" leadInLength="0/1"  />
              </VectorParam>
              <VectorParam id="11208"  name="geometryCrop">
               <InterpolatingParam id="11209" interp="linr"  time="-9999999/1" value="0" leadInLength="0/1"  />
               <InterpolatingParam id="11210" interp="linr"  time="-9999999/1" value="0" leadInLength="0/1"  />
               <InterpolatingParam id="11211" interp="linr"  time="-9999999/1" value="0" leadInLength="0/1"  />
               <InterpolatingParam id="11212" interp="linr"  time="-9999999/1" value="0" leadInLength="0/1"  />
              </VectorParam>
              <InterpolatingParam id="11213" interp="linr"  time="-9999999/1" value="1" leadInLength="0/1"  name="opacity"/>
              <InterpolatingParam id="11214" interp="linr"  time="0/1" value="0" leadInLength="0/1"  name="cursorOpacity"/>
              <InterpolatingParam id="11215" interp="linr"  time="0/1" value="0" leadInLength="0/1"  name="cursorScale"/>
             </Parameters>
             <Attributes>
              <Attribute id="11216" value="" name="ident"/>
             </Attributes>
             <ExtraData>
              <Entry key="ZoomPanBin">
               <ZoomPanBin id="11217"  >
                <ZoomPanKeyframes>
                 <ZoomPanKeyframe id="11218" timeRangeEnd="-9999999/1" timeRangeDuration="0/1" interpolaterName=""  />
                </ZoomPanKeyframes>
               </ZoomPanBin>
              </Entry>
              <Entry key="CursorEffectBin">
               <CursorEffectBin id="11219"  >
                <CursorEffectKeyframes>
                </CursorEffectKeyframes>
               </CursorEffectBin>
              </Entry>
             </ExtraData>
            </ScreenVMFile>
            <MetaData>
             <entry key="AutoAppliedSmartFocus" val="False"/>
             <entry key="WinSubProjectDisplayName" val=""/>
            </MetaData>
           </UnifiedMedia>
           <UnifiedMedia id="11220"  >
            <AMFile id="11221" start="8664" duration="304" scalar="1/1" mediaStart="15647/1" mediaDuration="304/1" trackNumber="1" src="4" channelNumber="0,1" >
             <Parameters>
              <InterpolatingParam id="11222" interp="linr"  time="0/1" value="1" leadInLength="0/1"  name="volume"/>
              <Parameter id="11223"  name="captions"/>
             </Parameters>
             <Attributes>
              <Attribute id="11224" value="" name="ident"/>
              <Attribute id="11225" value="44100" name="sampleRate"/>
              <Attribute id="11226" value="16" name="bitDepth"/>
              <Attribute id="11227" value="1" name="gain"/>
              <Attribute id="11228" value="0" name="mixToMono"/>
             </Attributes>
            </AMFile>
            <ScreenVMFile id="11229" start="8664" duration="304" scalar="1/1" mediaStart="15647/1" mediaDuration="304/1" trackNumber="0" src="4" >
             <Transformer>
              <VectorParam id="11230"  name="translation">
               <InterpolatingParam id="11231" interp="linr"  time="-9999999/1" value="0" leadInLength="0/1"  />
               <InterpolatingParam id="11232" interp="linr"  time="-9999999/1" value="0" leadInLength="0/1"  />
               <InterpolatingParam id="11233" interp="linr"  time="-9999999/1" value="0" leadInLength="0/1"  />
              </VectorParam>
              <VectorParam id="11234"  name="rotation">
               <InterpolatingParam id="11235" interp="linr"  time="-9999999/1" value="0" leadInLength="0/1"  />
               <InterpolatingParam id="11236" interp="linr"  time="-9999999/1" value="0" leadInLength="0/1"  />
               <InterpolatingParam id="11237" interp="linr"  time="-9999999/1" value="0" leadInLength="0/1"  />
              </VectorParam>
              <VectorParam id="11238"  name="shear">
               <InterpolatingParam id="11239" interp="linr"  time="-9999999/1" value="0" leadInLength="0/1"  />
               <InterpolatingParam id="11240" interp="linr"  time="-9999999/1" value="0" leadInLength="0/1"  />
               <InterpolatingParam id="11241" interp="linr"  time="-9999999/1" value="0" leadInLength="0/1"  />
              </VectorParam>
              <VectorParam id="11242"  name="scale">
               <InterpolatingParam id="11243" interp="linr"  time="-9999999/1" value="1" leadInLength="0/1"  />
               <InterpolatingParam id="11244" interp="linr"  time="-9999999/1" value="1" leadInLength="0/1"  />
               <InterpolatingParam id="11245" interp="linr"  time="-9999999/1" value="1" leadInLength="0/1"  />
              </VectorParam>
              <VectorParam id="11246"  name="anchor">
               <InterpolatingParam id="11247" interp="linr"  time="0/1" value="0" leadInLength="0/1"  />
               <InterpolatingParam id="11248" interp="linr"  time="0/1" value="0" leadInLength="0/1"  />
               <InterpolatingParam id="11249" interp="linr"  time="0/1" value="0" leadInLength="0/1"  />
              </VectorParam>
             </Transformer>
             <Parameters>
              <VectorParam id="11250"  name="sourceCrop">
               <InterpolatingParam id="11251" interp="linr"  time="0/1" value="0" leadInLength="0/1"  />
               <InterpolatingParam id="11252" interp="linr"  time="0/1" value="0" leadInLength="0/1"  />
               <InterpolatingParam id="11253" interp="linr"  time="0/1" value="0" leadInLength="0/1"  />
               <InterpolatingParam id="11254" interp="linr"  time="0/1" value="0" leadInLength="0/1"  />
              </VectorParam>
              <VectorParam id="11255"  name="geometryCrop">
               <InterpolatingParam id="11256" interp="linr"  time="-9999999/1" value="0" leadInLength="0/1"  />
               <InterpolatingParam id="11257" interp="linr"  time="-9999999/1" value="0" leadInLength="0/1"  />
               <InterpolatingParam id="11258" interp="linr"  time="-9999999/1" value="0" leadInLength="0/1"  />
               <InterpolatingParam id="11259" interp="linr"  time="-9999999/1" value="0" leadInLength="0/1"  />
              </VectorParam>
              <InterpolatingParam id="11260" interp="linr"  time="-9999999/1" value="1" leadInLength="0/1"  name="opacity"/>
              <InterpolatingParam id="11261" interp="linr"  time="0/1" value="0" leadInLength="0/1"  name="cursorOpacity"/>
              <InterpolatingParam id="11262" interp="linr"  time="0/1" value="0" leadInLength="0/1"  name="cursorScale"/>
             </Parameters>
             <Attributes>
              <Attribute id="11263" value="" name="ident"/>
             </Attributes>
             <ExtraData>
              <Entry key="ZoomPanBin">
               <ZoomPanBin id="11264"  >
                <ZoomPanKeyframes>
                 <ZoomPanKeyframe id="11265" timeRangeEnd="-9999999/1" timeRangeDuration="0/1" interpolaterName=""  />
                </ZoomPanKeyframes>
               </ZoomPanBin>
              </Entry>
              <Entry key="CursorEffectBin">
               <CursorEffectBin id="11266"  >
                <CursorEffectKeyframes>
                </CursorEffectKeyframes>
               </CursorEffectBin>
              </Entry>
             </ExtraData>
            </ScreenVMFile>
            <MetaData>
             <entry key="AutoAppliedSmartFocus" val="False"/>
             <entry key="WinSubProjectDisplayName" val=""/>
            </MetaData>
           </UnifiedMedia>
           <UnifiedMedia id="11267"  >
            <AMFile id="11268" start="8968" duration="48" scalar="1/1" mediaStart="15965/1" mediaDuration="48/1" trackNumber="1" src="4" channelNumber="0,1" >
             <Parameters>
              <InterpolatingParam id="11269" interp="linr"  time="0/1" value="1" leadInLength="0/1"  name="volume"/>
              <Parameter id="11270"  name="captions"/>
             </Parameters>
             <Attributes>
              <Attribute id="11271" value="" name="ident"/>
              <Attribute id="11272" value="44100" name="sampleRate"/>
              <Attribute id="11273" value="16" name="bitDepth"/>
              <Attribute id="11274" value="1" name="gain"/>
              <Attribute id="11275" value="0" name="mixToMono"/>
             </Attributes>
            </AMFile>
            <ScreenVMFile id="11276" start="8968" duration="48" scalar="1/1" mediaStart="15965/1" mediaDuration="48/1" trackNumber="0" src="4" >
             <Transformer>
              <VectorParam id="11277"  name="translation">
               <InterpolatingParam id="11278" interp="linr"  time="-9999999/1" value="0" leadInLength="0/1"  />
               <InterpolatingParam id="11279" interp="linr"  time="-9999999/1" value="0" leadInLength="0/1"  />
               <InterpolatingParam id="11280" interp="linr"  time="-9999999/1" value="0" leadInLength="0/1"  />
              </VectorParam>
              <VectorParam id="11281"  name="rotation">
               <InterpolatingParam id="11282" interp="linr"  time="-9999999/1" value="0" leadInLength="0/1"  />
               <InterpolatingParam id="11283" interp="linr"  time="-9999999/1" value="0" leadInLength="0/1"  />
               <InterpolatingParam id="11284" interp="linr"  time="-9999999/1" value="0" leadInLength="0/1"  />
              </VectorParam>
              <VectorParam id="11285"  name="shear">
               <InterpolatingParam id="11286" interp="linr"  time="-9999999/1" value="0" leadInLength="0/1"  />
               <InterpolatingParam id="11287" interp="linr"  time="-9999999/1" value="0" leadInLength="0/1"  />
               <InterpolatingParam id="11288" interp="linr"  time="-9999999/1" value="0" leadInLength="0/1"  />
              </VectorParam>
              <VectorParam id="11289"  name="scale">
               <InterpolatingParam id="11290" interp="linr"  time="-9999999/1" value="1" leadInLength="0/1"  />
               <InterpolatingParam id="11291" interp="linr"  time="-9999999/1" value="1" leadInLength="0/1"  />
               <InterpolatingParam id="11292" interp="linr"  time="-9999999/1" value="1" leadInLength="0/1"  />
              </VectorParam>
              <VectorParam id="11293"  name="anchor">
               <InterpolatingParam id="11294" interp="linr"  time="0/1" value="0" leadInLength="0/1"  />
               <InterpolatingParam id="11295" interp="linr"  time="0/1" value="0" leadInLength="0/1"  />
               <InterpolatingParam id="11296" interp="linr"  time="0/1" value="0" leadInLength="0/1"  />
              </VectorParam>
             </Transformer>
             <Parameters>
              <VectorParam id="11297"  name="sourceCrop">
               <InterpolatingParam id="11298" interp="linr"  time="0/1" value="0" leadInLength="0/1"  />
               <InterpolatingParam id="11299" interp="linr"  time="0/1" value="0" leadInLength="0/1"  />
               <InterpolatingParam id="11300" interp="linr"  time="0/1" value="0" leadInLength="0/1"  />
               <InterpolatingParam id="11301" interp="linr"  time="0/1" value="0" leadInLength="0/1"  />
              </VectorParam>
              <VectorParam id="11302"  name="geometryCrop">
               <InterpolatingParam id="11303" interp="linr"  time="-9999999/1" value="0" leadInLength="0/1"  />
               <InterpolatingParam id="11304" interp="linr"  time="-9999999/1" value="0" leadInLength="0/1"  />
               <InterpolatingParam id="11305" interp="linr"  time="-9999999/1" value="0" leadInLength="0/1"  />
               <InterpolatingParam id="11306" interp="linr"  time="-9999999/1" value="0" leadInLength="0/1"  />
              </VectorParam>
              <InterpolatingParam id="11307" interp="linr"  time="-9999999/1" value="1" leadInLength="0/1"  name="opacity"/>
              <InterpolatingParam id="11308" interp="linr"  time="0/1" value="0" leadInLength="0/1"  name="cursorOpacity"/>
              <InterpolatingParam id="11309" interp="linr"  time="0/1" value="0" leadInLength="0/1"  name="cursorScale"/>
             </Parameters>
             <Attributes>
              <Attribute id="11310" value="" name="ident"/>
             </Attributes>
             <ExtraData>
              <Entry key="ZoomPanBin">
               <ZoomPanBin id="11311"  >
                <ZoomPanKeyframes>
                 <ZoomPanKeyframe id="11312" timeRangeEnd="-9999999/1" timeRangeDuration="0/1" interpolaterName=""  />
                </ZoomPanKeyframes>
               </ZoomPanBin>
              </Entry>
              <Entry key="CursorEffectBin">
               <CursorEffectBin id="11313"  >
                <CursorEffectKeyframes>
                </CursorEffectKeyframes>
               </CursorEffectBin>
              </Entry>
             </ExtraData>
            </ScreenVMFile>
            <MetaData>
             <entry key="AutoAppliedSmartFocus" val="False"/>
             <entry key="WinSubProjectDisplayName" val=""/>
            </MetaData>
           </UnifiedMedia>
           <UnifiedMedia id="11314"  >
            <AMFile id="11315" start="9016" duration="70" scalar="1/1" mediaStart="16022/1" mediaDuration="70/1" trackNumber="1" src="4" channelNumber="0,1" >
             <Parameters>
              <InterpolatingParam id="11316" interp="linr"  time="0/1" value="1" leadInLength="0/1"  name="volume"/>
              <Parameter id="11317"  name="captions"/>
             </Parameters>
             <Attributes>
              <Attribute id="11318" value="" name="ident"/>
              <Attribute id="11319" value="44100" name="sampleRate"/>
              <Attribute id="11320" value="16" name="bitDepth"/>
              <Attribute id="11321" value="1" name="gain"/>
              <Attribute id="11322" value="0" name="mixToMono"/>
             </Attributes>
            </AMFile>
            <ScreenVMFile id="11323" start="9016" duration="70" scalar="1/1" mediaStart="16022/1" mediaDuration="70/1" trackNumber="0" src="4" >
             <Transformer>
              <VectorParam id="11324"  name="translation">
               <InterpolatingParam id="11325" interp="linr"  time="-9999999/1" value="0" leadInLength="0/1"  />
               <InterpolatingParam id="11326" interp="linr"  time="-9999999/1" value="0" leadInLength="0/1"  />
               <InterpolatingParam id="11327" interp="linr"  time="-9999999/1" value="0" leadInLength="0/1"  />
              </VectorParam>
              <VectorParam id="11328"  name="rotation">
               <InterpolatingParam id="11329" interp="linr"  time="-9999999/1" value="0" leadInLength="0/1"  />
               <InterpolatingParam id="11330" interp="linr"  time="-9999999/1" value="0" leadInLength="0/1"  />
               <InterpolatingParam id="11331" interp="linr"  time="-9999999/1" value="0" leadInLength="0/1"  />
              </VectorParam>
              <VectorParam id="11332"  name="shear">
               <InterpolatingParam id="11333" interp="linr"  time="-9999999/1" value="0" leadInLength="0/1"  />
               <InterpolatingParam id="11334" interp="linr"  time="-9999999/1" value="0" leadInLength="0/1"  />
               <InterpolatingParam id="11335" interp="linr"  time="-9999999/1" value="0" leadInLength="0/1"  />
              </VectorParam>
              <VectorParam id="11336"  name="scale">
               <InterpolatingParam id="11337" interp="linr"  time="-9999999/1" value="1" leadInLength="0/1"  />
               <InterpolatingParam id="11338" interp="linr"  time="-9999999/1" value="1" leadInLength="0/1"  />
               <InterpolatingParam id="11339" interp="linr"  time="-9999999/1" value="1" leadInLength="0/1"  />
              </VectorParam>
              <VectorParam id="11340"  name="anchor">
               <InterpolatingParam id="11341" interp="linr"  time="0/1" value="0" leadInLength="0/1"  />
               <InterpolatingParam id="11342" interp="linr"  time="0/1" value="0" leadInLength="0/1"  />
               <InterpolatingParam id="11343" interp="linr"  time="0/1" value="0" leadInLength="0/1"  />
              </VectorParam>
             </Transformer>
             <Parameters>
              <VectorParam id="11344"  name="sourceCrop">
               <InterpolatingParam id="11345" interp="linr"  time="0/1" value="0" leadInLength="0/1"  />
               <InterpolatingParam id="11346" interp="linr"  time="0/1" value="0" leadInLength="0/1"  />
               <InterpolatingParam id="11347" interp="linr"  time="0/1" value="0" leadInLength="0/1"  />
               <InterpolatingParam id="11348" interp="linr"  time="0/1" value="0" leadInLength="0/1"  />
              </VectorParam>
              <VectorParam id="11349"  name="geometryCrop">
               <InterpolatingParam id="11350" interp="linr"  time="-9999999/1" value="0" leadInLength="0/1"  />
               <InterpolatingParam id="11351" interp="linr"  time="-9999999/1" value="0" leadInLength="0/1"  />
               <InterpolatingParam id="11352" interp="linr"  time="-9999999/1" value="0" leadInLength="0/1"  />
               <InterpolatingParam id="11353" interp="linr"  time="-9999999/1" value="0" leadInLength="0/1"  />
              </VectorParam>
              <InterpolatingParam id="11354" interp="linr"  time="-9999999/1" value="1" leadInLength="0/1"  name="opacity"/>
              <InterpolatingParam id="11355" interp="linr"  time="0/1" value="0" leadInLength="0/1"  name="cursorOpacity"/>
              <InterpolatingParam id="11356" interp="linr"  time="0/1" value="0" leadInLength="0/1"  name="cursorScale"/>
             </Parameters>
             <Attributes>
              <Attribute id="11357" value="" name="ident"/>
             </Attributes>
             <ExtraData>
              <Entry key="ZoomPanBin">
               <ZoomPanBin id="11358"  >
                <ZoomPanKeyframes>
                 <ZoomPanKeyframe id="11359" timeRangeEnd="-9999999/1" timeRangeDuration="0/1" interpolaterName=""  />
                </ZoomPanKeyframes>
               </ZoomPanBin>
              </Entry>
              <Entry key="CursorEffectBin">
               <CursorEffectBin id="11360"  >
                <CursorEffectKeyframes>
                </CursorEffectKeyframes>
               </CursorEffectBin>
              </Entry>
             </ExtraData>
            </ScreenVMFile>
            <MetaData>
             <entry key="AutoAppliedSmartFocus" val="False"/>
             <entry key="WinSubProjectDisplayName" val=""/>
            </MetaData>
           </UnifiedMedia>
           <UnifiedMedia id="11361"  >
            <AMFile id="11362" start="9086" duration="72" scalar="1/1" mediaStart="16103/1" mediaDuration="72/1" trackNumber="1" src="4" channelNumber="0,1" >
             <Parameters>
              <InterpolatingParam id="11363" interp="linr"  time="0/1" value="1" leadInLength="0/1"  name="volume"/>
              <Parameter id="11364"  name="captions"/>
             </Parameters>
             <Attributes>
              <Attribute id="11365" value="" name="ident"/>
              <Attribute id="11366" value="44100" name="sampleRate"/>
              <Attribute id="11367" value="16" name="bitDepth"/>
              <Attribute id="11368" value="1" name="gain"/>
              <Attribute id="11369" value="0" name="mixToMono"/>
             </Attributes>
            </AMFile>
            <ScreenVMFile id="11370" start="9086" duration="72" scalar="1/1" mediaStart="16103/1" mediaDuration="72/1" trackNumber="0" src="4" >
             <Transformer>
              <VectorParam id="11371"  name="translation">
               <InterpolatingParam id="11372" interp="linr"  time="-9999999/1" value="0" leadInLength="0/1"  />
               <InterpolatingParam id="11373" interp="linr"  time="-9999999/1" value="0" leadInLength="0/1"  />
               <InterpolatingParam id="11374" interp="linr"  time="-9999999/1" value="0" leadInLength="0/1"  />
              </VectorParam>
              <VectorParam id="11375"  name="rotation">
               <InterpolatingParam id="11376" interp="linr"  time="-9999999/1" value="0" leadInLength="0/1"  />
               <InterpolatingParam id="11377" interp="linr"  time="-9999999/1" value="0" leadInLength="0/1"  />
               <InterpolatingParam id="11378" interp="linr"  time="-9999999/1" value="0" leadInLength="0/1"  />
              </VectorParam>
              <VectorParam id="11379"  name="shear">
               <InterpolatingParam id="11380" interp="linr"  time="-9999999/1" value="0" leadInLength="0/1"  />
               <InterpolatingParam id="11381" interp="linr"  time="-9999999/1" value="0" leadInLength="0/1"  />
               <InterpolatingParam id="11382" interp="linr"  time="-9999999/1" value="0" leadInLength="0/1"  />
              </VectorParam>
              <VectorParam id="11383"  name="scale">
               <InterpolatingParam id="11384" interp="linr"  time="-9999999/1" value="1" leadInLength="0/1"  />
               <InterpolatingParam id="11385" interp="linr"  time="-9999999/1" value="1" leadInLength="0/1"  />
               <InterpolatingParam id="11386" interp="linr"  time="-9999999/1" value="1" leadInLength="0/1"  />
              </VectorParam>
              <VectorParam id="11387"  name="anchor">
               <InterpolatingParam id="11388" interp="linr"  time="0/1" value="0" leadInLength="0/1"  />
               <InterpolatingParam id="11389" interp="linr"  time="0/1" value="0" leadInLength="0/1"  />
               <InterpolatingParam id="11390" interp="linr"  time="0/1" value="0" leadInLength="0/1"  />
              </VectorParam>
             </Transformer>
             <Parameters>
              <VectorParam id="11391"  name="sourceCrop">
               <InterpolatingParam id="11392" interp="linr"  time="0/1" value="0" leadInLength="0/1"  />
               <InterpolatingParam id="11393" interp="linr"  time="0/1" value="0" leadInLength="0/1"  />
               <InterpolatingParam id="11394" interp="linr"  time="0/1" value="0" leadInLength="0/1"  />
               <InterpolatingParam id="11395" interp="linr"  time="0/1" value="0" leadInLength="0/1"  />
              </VectorParam>
              <VectorParam id="11396"  name="geometryCrop">
               <InterpolatingParam id="11397" interp="linr"  time="-9999999/1" value="0" leadInLength="0/1"  />
               <InterpolatingParam id="11398" interp="linr"  time="-9999999/1" value="0" leadInLength="0/1"  />
               <InterpolatingParam id="11399" interp="linr"  time="-9999999/1" value="0" leadInLength="0/1"  />
               <InterpolatingParam id="11400" interp="linr"  time="-9999999/1" value="0" leadInLength="0/1"  />
              </VectorParam>
              <InterpolatingParam id="11401" interp="linr"  time="-9999999/1" value="1" leadInLength="0/1"  name="opacity"/>
              <InterpolatingParam id="11402" interp="linr"  time="0/1" value="0" leadInLength="0/1"  name="cursorOpacity"/>
              <InterpolatingParam id="11403" interp="linr"  time="0/1" value="0" leadInLength="0/1"  name="cursorScale"/>
             </Parameters>
             <Attributes>
              <Attribute id="11404" value="" name="ident"/>
             </Attributes>
             <ExtraData>
              <Entry key="ZoomPanBin">
               <ZoomPanBin id="11405"  >
                <ZoomPanKeyframes>
                 <ZoomPanKeyframe id="11406" timeRangeEnd="-9999999/1" timeRangeDuration="0/1" interpolaterName=""  />
                </ZoomPanKeyframes>
               </ZoomPanBin>
              </Entry>
              <Entry key="CursorEffectBin">
               <CursorEffectBin id="11407"  >
                <CursorEffectKeyframes>
                </CursorEffectKeyframes>
               </CursorEffectBin>
              </Entry>
             </ExtraData>
            </ScreenVMFile>
            <MetaData>
             <entry key="AutoAppliedSmartFocus" val="False"/>
             <entry key="WinSubProjectDisplayName" val=""/>
            </MetaData>
           </UnifiedMedia>
           <UnifiedMedia id="11408"  >
            <AMFile id="11409" start="9158" duration="330" scalar="1/1" mediaStart="16184/1" mediaDuration="330/1" trackNumber="1" src="4" channelNumber="0,1" >
             <Parameters>
              <InterpolatingParam id="11410" interp="linr"  time="0/1" value="1" leadInLength="0/1"  name="volume"/>
              <Parameter id="11411"  name="captions"/>
             </Parameters>
             <Attributes>
              <Attribute id="11412" value="" name="ident"/>
              <Attribute id="11413" value="44100" name="sampleRate"/>
              <Attribute id="11414" value="16" name="bitDepth"/>
              <Attribute id="11415" value="1" name="gain"/>
              <Attribute id="11416" value="0" name="mixToMono"/>
             </Attributes>
            </AMFile>
            <ScreenVMFile id="11417" start="9158" duration="330" scalar="1/1" mediaStart="16184/1" mediaDuration="330/1" trackNumber="0" src="4" >
             <Transformer>
              <VectorParam id="11418"  name="translation">
               <InterpolatingParam id="11419" interp="linr"  time="-9999999/1" value="0" leadInLength="0/1"  />
               <InterpolatingParam id="11420" interp="linr"  time="-9999999/1" value="0" leadInLength="0/1"  />
               <InterpolatingParam id="11421" interp="linr"  time="-9999999/1" value="0" leadInLength="0/1"  />
              </VectorParam>
              <VectorParam id="11422"  name="rotation">
               <InterpolatingParam id="11423" interp="linr"  time="-9999999/1" value="0" leadInLength="0/1"  />
               <InterpolatingParam id="11424" interp="linr"  time="-9999999/1" value="0" leadInLength="0/1"  />
               <InterpolatingParam id="11425" interp="linr"  time="-9999999/1" value="0" leadInLength="0/1"  />
              </VectorParam>
              <VectorParam id="11426"  name="shear">
               <InterpolatingParam id="11427" interp="linr"  time="-9999999/1" value="0" leadInLength="0/1"  />
               <InterpolatingParam id="11428" interp="linr"  time="-9999999/1" value="0" leadInLength="0/1"  />
               <InterpolatingParam id="11429" interp="linr"  time="-9999999/1" value="0" leadInLength="0/1"  />
              </VectorParam>
              <VectorParam id="11430"  name="scale">
               <InterpolatingParam id="11431" interp="linr"  time="-9999999/1" value="1" leadInLength="0/1"  />
               <InterpolatingParam id="11432" interp="linr"  time="-9999999/1" value="1" leadInLength="0/1"  />
               <InterpolatingParam id="11433" interp="linr"  time="-9999999/1" value="1" leadInLength="0/1"  />
              </VectorParam>
              <VectorParam id="11434"  name="anchor">
               <InterpolatingParam id="11435" interp="linr"  time="0/1" value="0" leadInLength="0/1"  />
               <InterpolatingParam id="11436" interp="linr"  time="0/1" value="0" leadInLength="0/1"  />
               <InterpolatingParam id="11437" interp="linr"  time="0/1" value="0" leadInLength="0/1"  />
              </VectorParam>
             </Transformer>
             <Parameters>
              <VectorParam id="11438"  name="sourceCrop">
               <InterpolatingParam id="11439" interp="linr"  time="0/1" value="0" leadInLength="0/1"  />
               <InterpolatingParam id="11440" interp="linr"  time="0/1" value="0" leadInLength="0/1"  />
               <InterpolatingParam id="11441" interp="linr"  time="0/1" value="0" leadInLength="0/1"  />
               <InterpolatingParam id="11442" interp="linr"  time="0/1" value="0" leadInLength="0/1"  />
              </VectorParam>
              <VectorParam id="11443"  name="geometryCrop">
               <InterpolatingParam id="11444" interp="linr"  time="-9999999/1" value="0" leadInLength="0/1"  />
               <InterpolatingParam id="11445" interp="linr"  time="-9999999/1" value="0" leadInLength="0/1"  />
               <InterpolatingParam id="11446" interp="linr"  time="-9999999/1" value="0" leadInLength="0/1"  />
               <InterpolatingParam id="11447" interp="linr"  time="-9999999/1" value="0" leadInLength="0/1"  />
              </VectorParam>
              <InterpolatingParam id="11448" interp="linr"  time="-9999999/1" value="1" leadInLength="0/1"  name="opacity"/>
              <InterpolatingParam id="11449" interp="linr"  time="0/1" value="0" leadInLength="0/1"  name="cursorOpacity"/>
              <InterpolatingParam id="11450" interp="linr"  time="0/1" value="0" leadInLength="0/1"  name="cursorScale"/>
             </Parameters>
             <Attributes>
              <Attribute id="11451" value="" name="ident"/>
             </Attributes>
             <ExtraData>
              <Entry key="ZoomPanBin">
               <ZoomPanBin id="11452"  >
                <ZoomPanKeyframes>
                 <ZoomPanKeyframe id="11453" timeRangeEnd="-9999999/1" timeRangeDuration="0/1" interpolaterName=""  />
                </ZoomPanKeyframes>
               </ZoomPanBin>
              </Entry>
              <Entry key="CursorEffectBin">
               <CursorEffectBin id="11454"  >
                <CursorEffectKeyframes>
                </CursorEffectKeyframes>
               </CursorEffectBin>
              </Entry>
             </ExtraData>
            </ScreenVMFile>
            <MetaData>
             <entry key="AutoAppliedSmartFocus" val="False"/>
             <entry key="WinSubProjectDisplayName" val=""/>
            </MetaData>
           </UnifiedMedia>
           <UnifiedMedia id="11455"  >
            <AMFile id="11456" start="9488" duration="83" scalar="1/1" mediaStart="16525/1" mediaDuration="83/1" trackNumber="1" src="4" channelNumber="0,1" >
             <Parameters>
              <InterpolatingParam id="11457" interp="linr"  time="0/1" value="1" leadInLength="0/1"  name="volume"/>
              <Parameter id="11458"  name="captions"/>
             </Parameters>
             <Attributes>
              <Attribute id="11459" value="" name="ident"/>
              <Attribute id="11460" value="44100" name="sampleRate"/>
              <Attribute id="11461" value="16" name="bitDepth"/>
              <Attribute id="11462" value="1" name="gain"/>
              <Attribute id="11463" value="0" name="mixToMono"/>
             </Attributes>
            </AMFile>
            <ScreenVMFile id="11464" start="9488" duration="83" scalar="1/1" mediaStart="16525/1" mediaDuration="83/1" trackNumber="0" src="4" >
             <Transformer>
              <VectorParam id="11465"  name="translation">
               <InterpolatingParam id="11466" interp="linr"  time="-9999999/1" value="0" leadInLength="0/1"  />
               <InterpolatingParam id="11467" interp="linr"  time="-9999999/1" value="0" leadInLength="0/1"  />
               <InterpolatingParam id="11468" interp="linr"  time="-9999999/1" value="0" leadInLength="0/1"  />
              </VectorParam>
              <VectorParam id="11469"  name="rotation">
               <InterpolatingParam id="11470" interp="linr"  time="-9999999/1" value="0" leadInLength="0/1"  />
               <InterpolatingParam id="11471" interp="linr"  time="-9999999/1" value="0" leadInLength="0/1"  />
               <InterpolatingParam id="11472" interp="linr"  time="-9999999/1" value="0" leadInLength="0/1"  />
              </VectorParam>
              <VectorParam id="11473"  name="shear">
               <InterpolatingParam id="11474" interp="linr"  time="-9999999/1" value="0" leadInLength="0/1"  />
               <InterpolatingParam id="11475" interp="linr"  time="-9999999/1" value="0" leadInLength="0/1"  />
               <InterpolatingParam id="11476" interp="linr"  time="-9999999/1" value="0" leadInLength="0/1"  />
              </VectorParam>
              <VectorParam id="11477"  name="scale">
               <InterpolatingParam id="11478" interp="linr"  time="-9999999/1" value="1" leadInLength="0/1"  />
               <InterpolatingParam id="11479" interp="linr"  time="-9999999/1" value="1" leadInLength="0/1"  />
               <InterpolatingParam id="11480" interp="linr"  time="-9999999/1" value="1" leadInLength="0/1"  />
              </VectorParam>
              <VectorParam id="11481"  name="anchor">
               <InterpolatingParam id="11482" interp="linr"  time="0/1" value="0" leadInLength="0/1"  />
               <InterpolatingParam id="11483" interp="linr"  time="0/1" value="0" leadInLength="0/1"  />
               <InterpolatingParam id="11484" interp="linr"  time="0/1" value="0" leadInLength="0/1"  />
              </VectorParam>
             </Transformer>
             <Parameters>
              <VectorParam id="11485"  name="sourceCrop">
               <InterpolatingParam id="11486" interp="linr"  time="0/1" value="0" leadInLength="0/1"  />
               <InterpolatingParam id="11487" interp="linr"  time="0/1" value="0" leadInLength="0/1"  />
               <InterpolatingParam id="11488" interp="linr"  time="0/1" value="0" leadInLength="0/1"  />
               <InterpolatingParam id="11489" interp="linr"  time="0/1" value="0" leadInLength="0/1"  />
              </VectorParam>
              <VectorParam id="11490"  name="geometryCrop">
               <InterpolatingParam id="11491" interp="linr"  time="-9999999/1" value="0" leadInLength="0/1"  />
               <InterpolatingParam id="11492" interp="linr"  time="-9999999/1" value="0" leadInLength="0/1"  />
               <InterpolatingParam id="11493" interp="linr"  time="-9999999/1" value="0" leadInLength="0/1"  />
               <InterpolatingParam id="11494" interp="linr"  time="-9999999/1" value="0" leadInLength="0/1"  />
              </VectorParam>
              <InterpolatingParam id="11495" interp="linr"  time="-9999999/1" value="1" leadInLength="0/1"  name="opacity"/>
              <InterpolatingParam id="11496" interp="linr"  time="0/1" value="0" leadInLength="0/1"  name="cursorOpacity"/>
              <InterpolatingParam id="11497" interp="linr"  time="0/1" value="0" leadInLength="0/1"  name="cursorScale"/>
             </Parameters>
             <Attributes>
              <Attribute id="11498" value="" name="ident"/>
             </Attributes>
             <ExtraData>
              <Entry key="ZoomPanBin">
               <ZoomPanBin id="11499"  >
                <ZoomPanKeyframes>
                 <ZoomPanKeyframe id="11500" timeRangeEnd="-9999999/1" timeRangeDuration="0/1" interpolaterName=""  />
                </ZoomPanKeyframes>
               </ZoomPanBin>
              </Entry>
              <Entry key="CursorEffectBin">
               <CursorEffectBin id="11501"  >
                <CursorEffectKeyframes>
                </CursorEffectKeyframes>
               </CursorEffectBin>
              </Entry>
             </ExtraData>
            </ScreenVMFile>
            <MetaData>
             <entry key="AutoAppliedSmartFocus" val="False"/>
             <entry key="WinSubProjectDisplayName" val=""/>
            </MetaData>
           </UnifiedMedia>
           <UnifiedMedia id="11502"  >
            <AMFile id="11503" start="9571" duration="72" scalar="1/1" mediaStart="16622/1" mediaDuration="72/1" trackNumber="1" src="4" channelNumber="0,1" >
             <Parameters>
              <InterpolatingParam id="11504" interp="linr"  time="0/1" value="1" leadInLength="0/1"  name="volume"/>
              <Parameter id="11505"  name="captions"/>
             </Parameters>
             <Attributes>
              <Attribute id="11506" value="" name="ident"/>
              <Attribute id="11507" value="44100" name="sampleRate"/>
              <Attribute id="11508" value="16" name="bitDepth"/>
              <Attribute id="11509" value="1" name="gain"/>
              <Attribute id="11510" value="0" name="mixToMono"/>
             </Attributes>
            </AMFile>
            <ScreenVMFile id="11511" start="9571" duration="72" scalar="1/1" mediaStart="16622/1" mediaDuration="72/1" trackNumber="0" src="4" >
             <Transformer>
              <VectorParam id="11512"  name="translation">
               <InterpolatingParam id="11513" interp="linr"  time="-9999999/1" value="0" leadInLength="0/1"  />
               <InterpolatingParam id="11514" interp="linr"  time="-9999999/1" value="0" leadInLength="0/1"  />
               <InterpolatingParam id="11515" interp="linr"  time="-9999999/1" value="0" leadInLength="0/1"  />
              </VectorParam>
              <VectorParam id="11516"  name="rotation">
               <InterpolatingParam id="11517" interp="linr"  time="-9999999/1" value="0" leadInLength="0/1"  />
               <InterpolatingParam id="11518" interp="linr"  time="-9999999/1" value="0" leadInLength="0/1"  />
               <InterpolatingParam id="11519" interp="linr"  time="-9999999/1" value="0" leadInLength="0/1"  />
              </VectorParam>
              <VectorParam id="11520"  name="shear">
               <InterpolatingParam id="11521" interp="linr"  time="-9999999/1" value="0" leadInLength="0/1"  />
               <InterpolatingParam id="11522" interp="linr"  time="-9999999/1" value="0" leadInLength="0/1"  />
               <InterpolatingParam id="11523" interp="linr"  time="-9999999/1" value="0" leadInLength="0/1"  />
              </VectorParam>
              <VectorParam id="11524"  name="scale">
               <InterpolatingParam id="11525" interp="linr"  time="-9999999/1" value="1" leadInLength="0/1"  />
               <InterpolatingParam id="11526" interp="linr"  time="-9999999/1" value="1" leadInLength="0/1"  />
               <InterpolatingParam id="11527" interp="linr"  time="-9999999/1" value="1" leadInLength="0/1"  />
              </VectorParam>
              <VectorParam id="11528"  name="anchor">
               <InterpolatingParam id="11529" interp="linr"  time="0/1" value="0" leadInLength="0/1"  />
               <InterpolatingParam id="11530" interp="linr"  time="0/1" value="0" leadInLength="0/1"  />
               <InterpolatingParam id="11531" interp="linr"  time="0/1" value="0" leadInLength="0/1"  />
              </VectorParam>
             </Transformer>
             <Parameters>
              <VectorParam id="11532"  name="sourceCrop">
               <InterpolatingParam id="11533" interp="linr"  time="0/1" value="0" leadInLength="0/1"  />
               <InterpolatingParam id="11534" interp="linr"  time="0/1" value="0" leadInLength="0/1"  />
               <InterpolatingParam id="11535" interp="linr"  time="0/1" value="0" leadInLength="0/1"  />
               <InterpolatingParam id="11536" interp="linr"  time="0/1" value="0" leadInLength="0/1"  />
              </VectorParam>
              <VectorParam id="11537"  name="geometryCrop">
               <InterpolatingParam id="11538" interp="linr"  time="-9999999/1" value="0" leadInLength="0/1"  />
               <InterpolatingParam id="11539" interp="linr"  time="-9999999/1" value="0" leadInLength="0/1"  />
               <InterpolatingParam id="11540" interp="linr"  time="-9999999/1" value="0" leadInLength="0/1"  />
               <InterpolatingParam id="11541" interp="linr"  time="-9999999/1" value="0" leadInLength="0/1"  />
              </VectorParam>
              <InterpolatingParam id="11542" interp="linr"  time="-9999999/1" value="1" leadInLength="0/1"  name="opacity"/>
              <InterpolatingParam id="11543" interp="linr"  time="0/1" value="0" leadInLength="0/1"  name="cursorOpacity"/>
              <InterpolatingParam id="11544" interp="linr"  time="0/1" value="0" leadInLength="0/1"  name="cursorScale"/>
             </Parameters>
             <Attributes>
              <Attribute id="11545" value="" name="ident"/>
             </Attributes>
             <ExtraData>
              <Entry key="ZoomPanBin">
               <ZoomPanBin id="11546"  >
                <ZoomPanKeyframes>
                 <ZoomPanKeyframe id="11547" timeRangeEnd="-9999999/1" timeRangeDuration="0/1" interpolaterName=""  />
                </ZoomPanKeyframes>
               </ZoomPanBin>
              </Entry>
              <Entry key="CursorEffectBin">
               <CursorEffectBin id="11548"  >
                <CursorEffectKeyframes>
                </CursorEffectKeyframes>
               </CursorEffectBin>
              </Entry>
             </ExtraData>
            </ScreenVMFile>
            <MetaData>
             <entry key="AutoAppliedSmartFocus" val="False"/>
             <entry key="WinSubProjectDisplayName" val=""/>
            </MetaData>
           </UnifiedMedia>
           <UnifiedMedia id="11549"  >
            <AMFile id="11550" start="9643" duration="41" scalar="1/1" mediaStart="16702/1" mediaDuration="41/1" trackNumber="1" src="4" channelNumber="0,1" >
             <Parameters>
              <InterpolatingParam id="11551" interp="linr"  time="0/1" value="1" leadInLength="0/1"  name="volume"/>
              <Parameter id="11552"  name="captions"/>
             </Parameters>
             <Attributes>
              <Attribute id="11553" value="" name="ident"/>
              <Attribute id="11554" value="44100" name="sampleRate"/>
              <Attribute id="11555" value="16" name="bitDepth"/>
              <Attribute id="11556" value="1" name="gain"/>
              <Attribute id="11557" value="0" name="mixToMono"/>
             </Attributes>
            </AMFile>
            <ScreenVMFile id="11558" start="9643" duration="41" scalar="1/1" mediaStart="16702/1" mediaDuration="41/1" trackNumber="0" src="4" >
             <Transformer>
              <VectorParam id="11559"  name="translation">
               <InterpolatingParam id="11560" interp="linr"  time="-9999999/1" value="0" leadInLength="0/1"  />
               <InterpolatingParam id="11561" interp="linr"  time="-9999999/1" value="0" leadInLength="0/1"  />
               <InterpolatingParam id="11562" interp="linr"  time="-9999999/1" value="0" leadInLength="0/1"  />
              </VectorParam>
              <VectorParam id="11563"  name="rotation">
               <InterpolatingParam id="11564" interp="linr"  time="-9999999/1" value="0" leadInLength="0/1"  />
               <InterpolatingParam id="11565" interp="linr"  time="-9999999/1" value="0" leadInLength="0/1"  />
               <InterpolatingParam id="11566" interp="linr"  time="-9999999/1" value="0" leadInLength="0/1"  />
              </VectorParam>
              <VectorParam id="11567"  name="shear">
               <InterpolatingParam id="11568" interp="linr"  time="-9999999/1" value="0" leadInLength="0/1"  />
               <InterpolatingParam id="11569" interp="linr"  time="-9999999/1" value="0" leadInLength="0/1"  />
               <InterpolatingParam id="11570" interp="linr"  time="-9999999/1" value="0" leadInLength="0/1"  />
              </VectorParam>
              <VectorParam id="11571"  name="scale">
               <InterpolatingParam id="11572" interp="linr"  time="-9999999/1" value="1" leadInLength="0/1"  />
               <InterpolatingParam id="11573" interp="linr"  time="-9999999/1" value="1" leadInLength="0/1"  />
               <InterpolatingParam id="11574" interp="linr"  time="-9999999/1" value="1" leadInLength="0/1"  />
              </VectorParam>
              <VectorParam id="11575"  name="anchor">
               <InterpolatingParam id="11576" interp="linr"  time="0/1" value="0" leadInLength="0/1"  />
               <InterpolatingParam id="11577" interp="linr"  time="0/1" value="0" leadInLength="0/1"  />
               <InterpolatingParam id="11578" interp="linr"  time="0/1" value="0" leadInLength="0/1"  />
              </VectorParam>
             </Transformer>
             <Parameters>
              <VectorParam id="11579"  name="sourceCrop">
               <InterpolatingParam id="11580" interp="linr"  time="0/1" value="0" leadInLength="0/1"  />
               <InterpolatingParam id="11581" interp="linr"  time="0/1" value="0" leadInLength="0/1"  />
               <InterpolatingParam id="11582" interp="linr"  time="0/1" value="0" leadInLength="0/1"  />
               <InterpolatingParam id="11583" interp="linr"  time="0/1" value="0" leadInLength="0/1"  />
              </VectorParam>
              <VectorParam id="11584"  name="geometryCrop">
               <InterpolatingParam id="11585" interp="linr"  time="-9999999/1" value="0" leadInLength="0/1"  />
               <InterpolatingParam id="11586" interp="linr"  time="-9999999/1" value="0" leadInLength="0/1"  />
               <InterpolatingParam id="11587" interp="linr"  time="-9999999/1" value="0" leadInLength="0/1"  />
               <InterpolatingParam id="11588" interp="linr"  time="-9999999/1" value="0" leadInLength="0/1"  />
              </VectorParam>
              <InterpolatingParam id="11589" interp="linr"  time="-9999999/1" value="1" leadInLength="0/1"  name="opacity"/>
              <InterpolatingParam id="11590" interp="linr"  time="0/1" value="0" leadInLength="0/1"  name="cursorOpacity"/>
              <InterpolatingParam id="11591" interp="linr"  time="0/1" value="0" leadInLength="0/1"  name="cursorScale"/>
             </Parameters>
             <Attributes>
              <Attribute id="11592" value="" name="ident"/>
             </Attributes>
             <ExtraData>
              <Entry key="ZoomPanBin">
               <ZoomPanBin id="11593"  >
                <ZoomPanKeyframes>
                 <ZoomPanKeyframe id="11594" timeRangeEnd="-9999999/1" timeRangeDuration="0/1" interpolaterName=""  />
                </ZoomPanKeyframes>
               </ZoomPanBin>
              </Entry>
              <Entry key="CursorEffectBin">
               <CursorEffectBin id="11595"  >
                <CursorEffectKeyframes>
                </CursorEffectKeyframes>
               </CursorEffectBin>
              </Entry>
             </ExtraData>
            </ScreenVMFile>
            <MetaData>
             <entry key="AutoAppliedSmartFocus" val="False"/>
             <entry key="WinSubProjectDisplayName" val=""/>
            </MetaData>
           </UnifiedMedia>
           <UnifiedMedia id="11596"  >
            <AMFile id="11597" start="9684" duration="65" scalar="1/1" mediaStart="16750/1" mediaDuration="65/1" trackNumber="1" src="4" channelNumber="0,1" >
             <Parameters>
              <InterpolatingParam id="11598" interp="linr"  time="0/1" value="1" leadInLength="0/1"  name="volume"/>
              <Parameter id="11599"  name="captions"/>
             </Parameters>
             <Attributes>
              <Attribute id="11600" value="" name="ident"/>
              <Attribute id="11601" value="44100" name="sampleRate"/>
              <Attribute id="11602" value="16" name="bitDepth"/>
              <Attribute id="11603" value="1" name="gain"/>
              <Attribute id="11604" value="0" name="mixToMono"/>
             </Attributes>
            </AMFile>
            <ScreenVMFile id="11605" start="9684" duration="65" scalar="1/1" mediaStart="16750/1" mediaDuration="65/1" trackNumber="0" src="4" >
             <Transformer>
              <VectorParam id="11606"  name="translation">
               <InterpolatingParam id="11607" interp="linr"  time="-9999999/1" value="0" leadInLength="0/1"  />
               <InterpolatingParam id="11608" interp="linr"  time="-9999999/1" value="0" leadInLength="0/1"  />
               <InterpolatingParam id="11609" interp="linr"  time="-9999999/1" value="0" leadInLength="0/1"  />
              </VectorParam>
              <VectorParam id="11610"  name="rotation">
               <InterpolatingParam id="11611" interp="linr"  time="-9999999/1" value="0" leadInLength="0/1"  />
               <InterpolatingParam id="11612" interp="linr"  time="-9999999/1" value="0" leadInLength="0/1"  />
               <InterpolatingParam id="11613" interp="linr"  time="-9999999/1" value="0" leadInLength="0/1"  />
              </VectorParam>
              <VectorParam id="11614"  name="shear">
               <InterpolatingParam id="11615" interp="linr"  time="-9999999/1" value="0" leadInLength="0/1"  />
               <InterpolatingParam id="11616" interp="linr"  time="-9999999/1" value="0" leadInLength="0/1"  />
               <InterpolatingParam id="11617" interp="linr"  time="-9999999/1" value="0" leadInLength="0/1"  />
              </VectorParam>
              <VectorParam id="11618"  name="scale">
               <InterpolatingParam id="11619" interp="linr"  time="-9999999/1" value="1" leadInLength="0/1"  />
               <InterpolatingParam id="11620" interp="linr"  time="-9999999/1" value="1" leadInLength="0/1"  />
               <InterpolatingParam id="11621" interp="linr"  time="-9999999/1" value="1" leadInLength="0/1"  />
              </VectorParam>
              <VectorParam id="11622"  name="anchor">
               <InterpolatingParam id="11623" interp="linr"  time="0/1" value="0" leadInLength="0/1"  />
               <InterpolatingParam id="11624" interp="linr"  time="0/1" value="0" leadInLength="0/1"  />
               <InterpolatingParam id="11625" interp="linr"  time="0/1" value="0" leadInLength="0/1"  />
              </VectorParam>
             </Transformer>
             <Parameters>
              <VectorParam id="11626"  name="sourceCrop">
               <InterpolatingParam id="11627" interp="linr"  time="0/1" value="0" leadInLength="0/1"  />
               <InterpolatingParam id="11628" interp="linr"  time="0/1" value="0" leadInLength="0/1"  />
               <InterpolatingParam id="11629" interp="linr"  time="0/1" value="0" leadInLength="0/1"  />
               <InterpolatingParam id="11630" interp="linr"  time="0/1" value="0" leadInLength="0/1"  />
              </VectorParam>
              <VectorParam id="11631"  name="geometryCrop">
               <InterpolatingParam id="11632" interp="linr"  time="-9999999/1" value="0" leadInLength="0/1"  />
               <InterpolatingParam id="11633" interp="linr"  time="-9999999/1" value="0" leadInLength="0/1"  />
               <InterpolatingParam id="11634" interp="linr"  time="-9999999/1" value="0" leadInLength="0/1"  />
               <InterpolatingParam id="11635" interp="linr"  time="-9999999/1" value="0" leadInLength="0/1"  />
              </VectorParam>
              <InterpolatingParam id="11636" interp="linr"  time="-9999999/1" value="1" leadInLength="0/1"  name="opacity"/>
              <InterpolatingParam id="11637" interp="linr"  time="0/1" value="0" leadInLength="0/1"  name="cursorOpacity"/>
              <InterpolatingParam id="11638" interp="linr"  time="0/1" value="0" leadInLength="0/1"  name="cursorScale"/>
             </Parameters>
             <Attributes>
              <Attribute id="11639" value="" name="ident"/>
             </Attributes>
             <ExtraData>
              <Entry key="ZoomPanBin">
               <ZoomPanBin id="11640"  >
                <ZoomPanKeyframes>
                 <ZoomPanKeyframe id="11641" timeRangeEnd="-9999999/1" timeRangeDuration="0/1" interpolaterName=""  />
                </ZoomPanKeyframes>
               </ZoomPanBin>
              </Entry>
              <Entry key="CursorEffectBin">
               <CursorEffectBin id="11642"  >
                <CursorEffectKeyframes>
                </CursorEffectKeyframes>
               </CursorEffectBin>
              </Entry>
             </ExtraData>
            </ScreenVMFile>
            <MetaData>
             <entry key="AutoAppliedSmartFocus" val="False"/>
             <entry key="WinSubProjectDisplayName" val=""/>
            </MetaData>
           </UnifiedMedia>
           <UnifiedMedia id="11643"  >
            <AMFile id="11644" start="9749" duration="56" scalar="1/1" mediaStart="16853/1" mediaDuration="56/1" trackNumber="1" src="4" channelNumber="0,1" >
             <Parameters>
              <InterpolatingParam id="11645" interp="linr"  time="0/1" value="1" leadInLength="0/1"  name="volume"/>
              <Parameter id="11646"  name="captions"/>
             </Parameters>
             <Attributes>
              <Attribute id="11647" value="" name="ident"/>
              <Attribute id="11648" value="44100" name="sampleRate"/>
              <Attribute id="11649" value="16" name="bitDepth"/>
              <Attribute id="11650" value="1" name="gain"/>
              <Attribute id="11651" value="0" name="mixToMono"/>
             </Attributes>
            </AMFile>
            <ScreenVMFile id="11652" start="9749" duration="56" scalar="1/1" mediaStart="16853/1" mediaDuration="56/1" trackNumber="0" src="4" >
             <Transformer>
              <VectorParam id="11653"  name="translation">
               <InterpolatingParam id="11654" interp="linr"  time="-9999999/1" value="0" leadInLength="0/1"  />
               <InterpolatingParam id="11655" interp="linr"  time="-9999999/1" value="0" leadInLength="0/1"  />
               <InterpolatingParam id="11656" interp="linr"  time="-9999999/1" value="0" leadInLength="0/1"  />
              </VectorParam>
              <VectorParam id="11657"  name="rotation">
               <InterpolatingParam id="11658" interp="linr"  time="-9999999/1" value="0" leadInLength="0/1"  />
               <InterpolatingParam id="11659" interp="linr"  time="-9999999/1" value="0" leadInLength="0/1"  />
               <InterpolatingParam id="11660" interp="linr"  time="-9999999/1" value="0" leadInLength="0/1"  />
              </VectorParam>
              <VectorParam id="11661"  name="shear">
               <InterpolatingParam id="11662" interp="linr"  time="-9999999/1" value="0" leadInLength="0/1"  />
               <InterpolatingParam id="11663" interp="linr"  time="-9999999/1" value="0" leadInLength="0/1"  />
               <InterpolatingParam id="11664" interp="linr"  time="-9999999/1" value="0" leadInLength="0/1"  />
              </VectorParam>
              <VectorParam id="11665"  name="scale">
               <InterpolatingParam id="11666" interp="linr"  time="-9999999/1" value="1" leadInLength="0/1"  />
               <InterpolatingParam id="11667" interp="linr"  time="-9999999/1" value="1" leadInLength="0/1"  />
               <InterpolatingParam id="11668" interp="linr"  time="-9999999/1" value="1" leadInLength="0/1"  />
              </VectorParam>
              <VectorParam id="11669"  name="anchor">
               <InterpolatingParam id="11670" interp="linr"  time="0/1" value="0" leadInLength="0/1"  />
               <InterpolatingParam id="11671" interp="linr"  time="0/1" value="0" leadInLength="0/1"  />
               <InterpolatingParam id="11672" interp="linr"  time="0/1" value="0" leadInLength="0/1"  />
              </VectorParam>
             </Transformer>
             <Parameters>
              <VectorParam id="11673"  name="sourceCrop">
               <InterpolatingParam id="11674" interp="linr"  time="0/1" value="0" leadInLength="0/1"  />
               <InterpolatingParam id="11675" interp="linr"  time="0/1" value="0" leadInLength="0/1"  />
               <InterpolatingParam id="11676" interp="linr"  time="0/1" value="0" leadInLength="0/1"  />
               <InterpolatingParam id="11677" interp="linr"  time="0/1" value="0" leadInLength="0/1"  />
              </VectorParam>
              <VectorParam id="11678"  name="geometryCrop">
               <InterpolatingParam id="11679" interp="linr"  time="-9999999/1" value="0" leadInLength="0/1"  />
               <InterpolatingParam id="11680" interp="linr"  time="-9999999/1" value="0" leadInLength="0/1"  />
               <InterpolatingParam id="11681" interp="linr"  time="-9999999/1" value="0" leadInLength="0/1"  />
               <InterpolatingParam id="11682" interp="linr"  time="-9999999/1" value="0" leadInLength="0/1"  />
              </VectorParam>
              <InterpolatingParam id="11683" interp="linr"  time="-9999999/1" value="1" leadInLength="0/1"  name="opacity"/>
              <InterpolatingParam id="11684" interp="linr"  time="0/1" value="0" leadInLength="0/1"  name="cursorOpacity"/>
              <InterpolatingParam id="11685" interp="linr"  time="0/1" value="0" leadInLength="0/1"  name="cursorScale"/>
             </Parameters>
             <Attributes>
              <Attribute id="11686" value="" name="ident"/>
             </Attributes>
             <ExtraData>
              <Entry key="ZoomPanBin">
               <ZoomPanBin id="11687"  >
                <ZoomPanKeyframes>
                 <ZoomPanKeyframe id="11688" timeRangeEnd="-9999999/1" timeRangeDuration="0/1" interpolaterName=""  />
                </ZoomPanKeyframes>
               </ZoomPanBin>
              </Entry>
              <Entry key="CursorEffectBin">
               <CursorEffectBin id="11689"  >
                <CursorEffectKeyframes>
                </CursorEffectKeyframes>
               </CursorEffectBin>
              </Entry>
             </ExtraData>
            </ScreenVMFile>
            <MetaData>
             <entry key="AutoAppliedSmartFocus" val="False"/>
             <entry key="WinSubProjectDisplayName" val=""/>
            </MetaData>
           </UnifiedMedia>
           <UnifiedMedia id="11690"  >
            <AMFile id="11691" start="9805" duration="289" scalar="1/1" mediaStart="17061/1" mediaDuration="289/1" trackNumber="1" src="4" channelNumber="0,1" >
             <Parameters>
              <InterpolatingParam id="11692" interp="linr"  time="0/1" value="1" leadInLength="0/1"  name="volume"/>
              <Parameter id="11693"  name="captions"/>
             </Parameters>
             <Attributes>
              <Attribute id="11694" value="" name="ident"/>
              <Attribute id="11695" value="44100" name="sampleRate"/>
              <Attribute id="11696" value="16" name="bitDepth"/>
              <Attribute id="11697" value="1" name="gain"/>
              <Attribute id="11698" value="0" name="mixToMono"/>
             </Attributes>
            </AMFile>
            <ScreenVMFile id="11699" start="9805" duration="289" scalar="1/1" mediaStart="17061/1" mediaDuration="289/1" trackNumber="0" src="4" >
             <Transformer>
              <VectorParam id="11700"  name="translation">
               <InterpolatingParam id="11701" interp="linr"  time="-9999999/1" value="0" leadInLength="0/1"  />
               <InterpolatingParam id="11702" interp="linr"  time="-9999999/1" value="0" leadInLength="0/1"  />
               <InterpolatingParam id="11703" interp="linr"  time="-9999999/1" value="0" leadInLength="0/1"  />
              </VectorParam>
              <VectorParam id="11704"  name="rotation">
               <InterpolatingParam id="11705" interp="linr"  time="-9999999/1" value="0" leadInLength="0/1"  />
               <InterpolatingParam id="11706" interp="linr"  time="-9999999/1" value="0" leadInLength="0/1"  />
               <InterpolatingParam id="11707" interp="linr"  time="-9999999/1" value="0" leadInLength="0/1"  />
              </VectorParam>
              <VectorParam id="11708"  name="shear">
               <InterpolatingParam id="11709" interp="linr"  time="-9999999/1" value="0" leadInLength="0/1"  />
               <InterpolatingParam id="11710" interp="linr"  time="-9999999/1" value="0" leadInLength="0/1"  />
               <InterpolatingParam id="11711" interp="linr"  time="-9999999/1" value="0" leadInLength="0/1"  />
              </VectorParam>
              <VectorParam id="11712"  name="scale">
               <InterpolatingParam id="11713" interp="linr"  time="-9999999/1" value="1" leadInLength="0/1"  />
               <InterpolatingParam id="11714" interp="linr"  time="-9999999/1" value="1" leadInLength="0/1"  />
               <InterpolatingParam id="11715" interp="linr"  time="-9999999/1" value="1" leadInLength="0/1"  />
              </VectorParam>
              <VectorParam id="11716"  name="anchor">
               <InterpolatingParam id="11717" interp="linr"  time="0/1" value="0" leadInLength="0/1"  />
               <InterpolatingParam id="11718" interp="linr"  time="0/1" value="0" leadInLength="0/1"  />
               <InterpolatingParam id="11719" interp="linr"  time="0/1" value="0" leadInLength="0/1"  />
              </VectorParam>
             </Transformer>
             <Parameters>
              <VectorParam id="11720"  name="sourceCrop">
               <InterpolatingParam id="11721" interp="linr"  time="0/1" value="0" leadInLength="0/1"  />
               <InterpolatingParam id="11722" interp="linr"  time="0/1" value="0" leadInLength="0/1"  />
               <InterpolatingParam id="11723" interp="linr"  time="0/1" value="0" leadInLength="0/1"  />
               <InterpolatingParam id="11724" interp="linr"  time="0/1" value="0" leadInLength="0/1"  />
              </VectorParam>
              <VectorParam id="11725"  name="geometryCrop">
               <InterpolatingParam id="11726" interp="linr"  time="-9999999/1" value="0" leadInLength="0/1"  />
               <InterpolatingParam id="11727" interp="linr"  time="-9999999/1" value="0" leadInLength="0/1"  />
               <InterpolatingParam id="11728" interp="linr"  time="-9999999/1" value="0" leadInLength="0/1"  />
               <InterpolatingParam id="11729" interp="linr"  time="-9999999/1" value="0" leadInLength="0/1"  />
              </VectorParam>
              <InterpolatingParam id="11730" interp="linr"  time="-9999999/1" value="1" leadInLength="0/1"  name="opacity"/>
              <InterpolatingParam id="11731" interp="linr"  time="0/1" value="0" leadInLength="0/1"  name="cursorOpacity"/>
              <InterpolatingParam id="11732" interp="linr"  time="0/1" value="0" leadInLength="0/1"  name="cursorScale"/>
             </Parameters>
             <Attributes>
              <Attribute id="11733" value="" name="ident"/>
             </Attributes>
             <ExtraData>
              <Entry key="ZoomPanBin">
               <ZoomPanBin id="11734"  >
                <ZoomPanKeyframes>
                 <ZoomPanKeyframe id="11735" timeRangeEnd="-9999999/1" timeRangeDuration="0/1" interpolaterName=""  />
                </ZoomPanKeyframes>
               </ZoomPanBin>
              </Entry>
              <Entry key="CursorEffectBin">
               <CursorEffectBin id="11736"  >
                <CursorEffectKeyframes>
                </CursorEffectKeyframes>
               </CursorEffectBin>
              </Entry>
             </ExtraData>
            </ScreenVMFile>
            <MetaData>
             <entry key="AutoAppliedSmartFocus" val="False"/>
             <entry key="WinSubProjectDisplayName" val=""/>
            </MetaData>
           </UnifiedMedia>
           <UnifiedMedia id="11737"  >
            <AMFile id="11738" start="10094" duration="121" scalar="1/1" mediaStart="17728/1" mediaDuration="121/1" trackNumber="1" src="4" channelNumber="0,1" >
             <Parameters>
              <InterpolatingParam id="11739" interp="linr"  time="0/1" value="1" leadInLength="0/1"  name="volume"/>
              <Parameter id="11740"  name="captions"/>
             </Parameters>
             <Attributes>
              <Attribute id="11741" value="" name="ident"/>
              <Attribute id="11742" value="44100" name="sampleRate"/>
              <Attribute id="11743" value="16" name="bitDepth"/>
              <Attribute id="11744" value="1" name="gain"/>
              <Attribute id="11745" value="0" name="mixToMono"/>
             </Attributes>
            </AMFile>
            <ScreenVMFile id="11746" start="10094" duration="121" scalar="1/1" mediaStart="17728/1" mediaDuration="121/1" trackNumber="0" src="4" >
             <Transformer>
              <VectorParam id="11747"  name="translation">
               <InterpolatingParam id="11748" interp="linr"  time="-9999999/1" value="0" leadInLength="0/1"  />
               <InterpolatingParam id="11749" interp="linr"  time="-9999999/1" value="0" leadInLength="0/1"  />
               <InterpolatingParam id="11750" interp="linr"  time="-9999999/1" value="0" leadInLength="0/1"  />
              </VectorParam>
              <VectorParam id="11751"  name="rotation">
               <InterpolatingParam id="11752" interp="linr"  time="-9999999/1" value="0" leadInLength="0/1"  />
               <InterpolatingParam id="11753" interp="linr"  time="-9999999/1" value="0" leadInLength="0/1"  />
               <InterpolatingParam id="11754" interp="linr"  time="-9999999/1" value="0" leadInLength="0/1"  />
              </VectorParam>
              <VectorParam id="11755"  name="shear">
               <InterpolatingParam id="11756" interp="linr"  time="-9999999/1" value="0" leadInLength="0/1"  />
               <InterpolatingParam id="11757" interp="linr"  time="-9999999/1" value="0" leadInLength="0/1"  />
               <InterpolatingParam id="11758" interp="linr"  time="-9999999/1" value="0" leadInLength="0/1"  />
              </VectorParam>
              <VectorParam id="11759"  name="scale">
               <InterpolatingParam id="11760" interp="linr"  time="-9999999/1" value="1" leadInLength="0/1"  />
               <InterpolatingParam id="11761" interp="linr"  time="-9999999/1" value="1" leadInLength="0/1"  />
               <InterpolatingParam id="11762" interp="linr"  time="-9999999/1" value="1" leadInLength="0/1"  />
              </VectorParam>
              <VectorParam id="11763"  name="anchor">
               <InterpolatingParam id="11764" interp="linr"  time="0/1" value="0" leadInLength="0/1"  />
               <InterpolatingParam id="11765" interp="linr"  time="0/1" value="0" leadInLength="0/1"  />
               <InterpolatingParam id="11766" interp="linr"  time="0/1" value="0" leadInLength="0/1"  />
              </VectorParam>
             </Transformer>
             <Parameters>
              <VectorParam id="11767"  name="sourceCrop">
               <InterpolatingParam id="11768" interp="linr"  time="0/1" value="0" leadInLength="0/1"  />
               <InterpolatingParam id="11769" interp="linr"  time="0/1" value="0" leadInLength="0/1"  />
               <InterpolatingParam id="11770" interp="linr"  time="0/1" value="0" leadInLength="0/1"  />
               <InterpolatingParam id="11771" interp="linr"  time="0/1" value="0" leadInLength="0/1"  />
              </VectorParam>
              <VectorParam id="11772"  name="geometryCrop">
               <InterpolatingParam id="11773" interp="linr"  time="-9999999/1" value="0" leadInLength="0/1"  />
               <InterpolatingParam id="11774" interp="linr"  time="-9999999/1" value="0" leadInLength="0/1"  />
               <InterpolatingParam id="11775" interp="linr"  time="-9999999/1" value="0" leadInLength="0/1"  />
               <InterpolatingParam id="11776" interp="linr"  time="-9999999/1" value="0" leadInLength="0/1"  />
              </VectorParam>
              <InterpolatingParam id="11777" interp="linr"  time="-9999999/1" value="1" leadInLength="0/1"  name="opacity"/>
              <InterpolatingParam id="11778" interp="linr"  time="0/1" value="0" leadInLength="0/1"  name="cursorOpacity"/>
              <InterpolatingParam id="11779" interp="linr"  time="0/1" value="0" leadInLength="0/1"  name="cursorScale"/>
             </Parameters>
             <Attributes>
              <Attribute id="11780" value="" name="ident"/>
             </Attributes>
             <ExtraData>
              <Entry key="ZoomPanBin">
               <ZoomPanBin id="11781"  >
                <ZoomPanKeyframes>
                 <ZoomPanKeyframe id="11782" timeRangeEnd="-9999999/1" timeRangeDuration="0/1" interpolaterName=""  />
                </ZoomPanKeyframes>
               </ZoomPanBin>
              </Entry>
              <Entry key="CursorEffectBin">
               <CursorEffectBin id="11783"  >
                <CursorEffectKeyframes>
                </CursorEffectKeyframes>
               </CursorEffectBin>
              </Entry>
             </ExtraData>
            </ScreenVMFile>
            <MetaData>
             <entry key="AutoAppliedSmartFocus" val="False"/>
             <entry key="WinSubProjectDisplayName" val=""/>
            </MetaData>
           </UnifiedMedia>
           <UnifiedMedia id="11784"  >
            <AMFile id="11785" start="10215" duration="96" scalar="1/1" mediaStart="18580/1" mediaDuration="96/1" trackNumber="1" src="4" channelNumber="0,1" >
             <Parameters>
              <InterpolatingParam id="11786" interp="linr"  time="0/1" value="1" leadInLength="0/1"  name="volume"/>
              <Parameter id="11787"  name="captions"/>
             </Parameters>
             <Attributes>
              <Attribute id="11788" value="" name="ident"/>
              <Attribute id="11789" value="44100" name="sampleRate"/>
              <Attribute id="11790" value="16" name="bitDepth"/>
              <Attribute id="11791" value="1" name="gain"/>
              <Attribute id="11792" value="0" name="mixToMono"/>
             </Attributes>
            </AMFile>
            <ScreenVMFile id="11793" start="10215" duration="96" scalar="1/1" mediaStart="18580/1" mediaDuration="96/1" trackNumber="0" src="4" >
             <Transformer>
              <VectorParam id="11794"  name="translation">
               <InterpolatingParam id="11795" interp="linr"  time="-9999999/1" value="0" leadInLength="0/1"  />
               <InterpolatingParam id="11796" interp="linr"  time="-9999999/1" value="0" leadInLength="0/1"  />
               <InterpolatingParam id="11797" interp="linr"  time="-9999999/1" value="0" leadInLength="0/1"  />
              </VectorParam>
              <VectorParam id="11798"  name="rotation">
               <InterpolatingParam id="11799" interp="linr"  time="-9999999/1" value="0" leadInLength="0/1"  />
               <InterpolatingParam id="11800" interp="linr"  time="-9999999/1" value="0" leadInLength="0/1"  />
               <InterpolatingParam id="11801" interp="linr"  time="-9999999/1" value="0" leadInLength="0/1"  />
              </VectorParam>
              <VectorParam id="11802"  name="shear">
               <InterpolatingParam id="11803" interp="linr"  time="-9999999/1" value="0" leadInLength="0/1"  />
               <InterpolatingParam id="11804" interp="linr"  time="-9999999/1" value="0" leadInLength="0/1"  />
               <InterpolatingParam id="11805" interp="linr"  time="-9999999/1" value="0" leadInLength="0/1"  />
              </VectorParam>
              <VectorParam id="11806"  name="scale">
               <InterpolatingParam id="11807" interp="linr"  time="-9999999/1" value="1" leadInLength="0/1"  />
               <InterpolatingParam id="11808" interp="linr"  time="-9999999/1" value="1" leadInLength="0/1"  />
               <InterpolatingParam id="11809" interp="linr"  time="-9999999/1" value="1" leadInLength="0/1"  />
              </VectorParam>
              <VectorParam id="11810"  name="anchor">
               <InterpolatingParam id="11811" interp="linr"  time="0/1" value="0" leadInLength="0/1"  />
               <InterpolatingParam id="11812" interp="linr"  time="0/1" value="0" leadInLength="0/1"  />
               <InterpolatingParam id="11813" interp="linr"  time="0/1" value="0" leadInLength="0/1"  />
              </VectorParam>
             </Transformer>
             <Parameters>
              <VectorParam id="11814"  name="sourceCrop">
               <InterpolatingParam id="11815" interp="linr"  time="0/1" value="0" leadInLength="0/1"  />
               <InterpolatingParam id="11816" interp="linr"  time="0/1" value="0" leadInLength="0/1"  />
               <InterpolatingParam id="11817" interp="linr"  time="0/1" value="0" leadInLength="0/1"  />
               <InterpolatingParam id="11818" interp="linr"  time="0/1" value="0" leadInLength="0/1"  />
              </VectorParam>
              <VectorParam id="11819"  name="geometryCrop">
               <InterpolatingParam id="11820" interp="linr"  time="-9999999/1" value="0" leadInLength="0/1"  />
               <InterpolatingParam id="11821" interp="linr"  time="-9999999/1" value="0" leadInLength="0/1"  />
               <InterpolatingParam id="11822" interp="linr"  time="-9999999/1" value="0" leadInLength="0/1"  />
               <InterpolatingParam id="11823" interp="linr"  time="-9999999/1" value="0" leadInLength="0/1"  />
              </VectorParam>
              <InterpolatingParam id="11824" interp="linr"  time="-9999999/1" value="1" leadInLength="0/1"  name="opacity"/>
              <InterpolatingParam id="11825" interp="linr"  time="0/1" value="0" leadInLength="0/1"  name="cursorOpacity"/>
              <InterpolatingParam id="11826" interp="linr"  time="0/1" value="0" leadInLength="0/1"  name="cursorScale"/>
             </Parameters>
             <Attributes>
              <Attribute id="11827" value="" name="ident"/>
             </Attributes>
             <ExtraData>
              <Entry key="ZoomPanBin">
               <ZoomPanBin id="11828"  >
                <ZoomPanKeyframes>
                 <ZoomPanKeyframe id="11829" timeRangeEnd="-9999999/1" timeRangeDuration="0/1" interpolaterName=""  />
                </ZoomPanKeyframes>
               </ZoomPanBin>
              </Entry>
              <Entry key="CursorEffectBin">
               <CursorEffectBin id="11830"  >
                <CursorEffectKeyframes>
                </CursorEffectKeyframes>
               </CursorEffectBin>
              </Entry>
             </ExtraData>
            </ScreenVMFile>
            <MetaData>
             <entry key="AutoAppliedSmartFocus" val="False"/>
             <entry key="WinSubProjectDisplayName" val=""/>
            </MetaData>
           </UnifiedMedia>
           <UnifiedMedia id="11831"  >
            <AMFile id="11832" start="10311" duration="186" scalar="1/1" mediaStart="18776/1" mediaDuration="186/1" trackNumber="1" src="4" channelNumber="0,1" >
             <Parameters>
              <InterpolatingParam id="11833" interp="linr"  time="0/1" value="1" leadInLength="0/1"  name="volume"/>
              <Parameter id="11834"  name="captions"/>
             </Parameters>
             <Attributes>
              <Attribute id="11835" value="" name="ident"/>
              <Attribute id="11836" value="44100" name="sampleRate"/>
              <Attribute id="11837" value="16" name="bitDepth"/>
              <Attribute id="11838" value="1" name="gain"/>
              <Attribute id="11839" value="0" name="mixToMono"/>
             </Attributes>
            </AMFile>
            <ScreenVMFile id="11840" start="10311" duration="186" scalar="1/1" mediaStart="18776/1" mediaDuration="186/1" trackNumber="0" src="4" >
             <Transformer>
              <VectorParam id="11841"  name="translation">
               <InterpolatingParam id="11842" interp="linr"  time="-9999999/1" value="0" leadInLength="0/1"  />
               <InterpolatingParam id="11843" interp="linr"  time="-9999999/1" value="0" leadInLength="0/1"  />
               <InterpolatingParam id="11844" interp="linr"  time="-9999999/1" value="0" leadInLength="0/1"  />
              </VectorParam>
              <VectorParam id="11845"  name="rotation">
               <InterpolatingParam id="11846" interp="linr"  time="-9999999/1" value="0" leadInLength="0/1"  />
               <InterpolatingParam id="11847" interp="linr"  time="-9999999/1" value="0" leadInLength="0/1"  />
               <InterpolatingParam id="11848" interp="linr"  time="-9999999/1" value="0" leadInLength="0/1"  />
              </VectorParam>
              <VectorParam id="11849"  name="shear">
               <InterpolatingParam id="11850" interp="linr"  time="-9999999/1" value="0" leadInLength="0/1"  />
               <InterpolatingParam id="11851" interp="linr"  time="-9999999/1" value="0" leadInLength="0/1"  />
               <InterpolatingParam id="11852" interp="linr"  time="-9999999/1" value="0" leadInLength="0/1"  />
              </VectorParam>
              <VectorParam id="11853"  name="scale">
               <InterpolatingParam id="11854" interp="linr"  time="-9999999/1" value="1" leadInLength="0/1"  />
               <InterpolatingParam id="11855" interp="linr"  time="-9999999/1" value="1" leadInLength="0/1"  />
               <InterpolatingParam id="11856" interp="linr"  time="-9999999/1" value="1" leadInLength="0/1"  />
              </VectorParam>
              <VectorParam id="11857"  name="anchor">
               <InterpolatingParam id="11858" interp="linr"  time="0/1" value="0" leadInLength="0/1"  />
               <InterpolatingParam id="11859" interp="linr"  time="0/1" value="0" leadInLength="0/1"  />
               <InterpolatingParam id="11860" interp="linr"  time="0/1" value="0" leadInLength="0/1"  />
              </VectorParam>
             </Transformer>
             <Parameters>
              <VectorParam id="11861"  name="sourceCrop">
               <InterpolatingParam id="11862" interp="linr"  time="0/1" value="0" leadInLength="0/1"  />
               <InterpolatingParam id="11863" interp="linr"  time="0/1" value="0" leadInLength="0/1"  />
               <InterpolatingParam id="11864" interp="linr"  time="0/1" value="0" leadInLength="0/1"  />
               <InterpolatingParam id="11865" interp="linr"  time="0/1" value="0" leadInLength="0/1"  />
              </VectorParam>
              <VectorParam id="11866"  name="geometryCrop">
               <InterpolatingParam id="11867" interp="linr"  time="-9999999/1" value="0" leadInLength="0/1"  />
               <InterpolatingParam id="11868" interp="linr"  time="-9999999/1" value="0" leadInLength="0/1"  />
               <InterpolatingParam id="11869" interp="linr"  time="-9999999/1" value="0" leadInLength="0/1"  />
               <InterpolatingParam id="11870" interp="linr"  time="-9999999/1" value="0" leadInLength="0/1"  />
              </VectorParam>
              <InterpolatingParam id="11871" interp="linr"  time="-9999999/1" value="1" leadInLength="0/1"  name="opacity"/>
              <InterpolatingParam id="11872" interp="linr"  time="0/1" value="0" leadInLength="0/1"  name="cursorOpacity"/>
              <InterpolatingParam id="11873" interp="linr"  time="0/1" value="0" leadInLength="0/1"  name="cursorScale"/>
             </Parameters>
             <Attributes>
              <Attribute id="11874" value="" name="ident"/>
             </Attributes>
             <ExtraData>
              <Entry key="ZoomPanBin">
               <ZoomPanBin id="11875"  >
                <ZoomPanKeyframes>
                 <ZoomPanKeyframe id="11876" timeRangeEnd="-9999999/1" timeRangeDuration="0/1" interpolaterName=""  />
                </ZoomPanKeyframes>
               </ZoomPanBin>
              </Entry>
              <Entry key="CursorEffectBin">
               <CursorEffectBin id="11877"  >
                <CursorEffectKeyframes>
                </CursorEffectKeyframes>
               </CursorEffectBin>
              </Entry>
             </ExtraData>
            </ScreenVMFile>
            <MetaData>
             <entry key="AutoAppliedSmartFocus" val="False"/>
             <entry key="WinSubProjectDisplayName" val=""/>
            </MetaData>
           </UnifiedMedia>
           <UnifiedMedia id="11878"  >
            <AMFile id="11879" start="10497" duration="71" scalar="1/1" mediaStart="18973/1" mediaDuration="71/1" trackNumber="1" src="4" channelNumber="0,1" >
             <Parameters>
              <InterpolatingParam id="11880" interp="linr"  time="0/1" value="1" leadInLength="0/1"  name="volume"/>
              <Parameter id="11881"  name="captions"/>
             </Parameters>
             <Attributes>
              <Attribute id="11882" value="" name="ident"/>
              <Attribute id="11883" value="44100" name="sampleRate"/>
              <Attribute id="11884" value="16" name="bitDepth"/>
              <Attribute id="11885" value="1" name="gain"/>
              <Attribute id="11886" value="0" name="mixToMono"/>
             </Attributes>
            </AMFile>
            <ScreenVMFile id="11887" start="10497" duration="71" scalar="1/1" mediaStart="18973/1" mediaDuration="71/1" trackNumber="0" src="4" >
             <Transformer>
              <VectorParam id="11888"  name="translation">
               <InterpolatingParam id="11889" interp="linr"  time="-9999999/1" value="0" leadInLength="0/1"  />
               <InterpolatingParam id="11890" interp="linr"  time="-9999999/1" value="0" leadInLength="0/1"  />
               <InterpolatingParam id="11891" interp="linr"  time="-9999999/1" value="0" leadInLength="0/1"  />
              </VectorParam>
              <VectorParam id="11892"  name="rotation">
               <InterpolatingParam id="11893" interp="linr"  time="-9999999/1" value="0" leadInLength="0/1"  />
               <InterpolatingParam id="11894" interp="linr"  time="-9999999/1" value="0" leadInLength="0/1"  />
               <InterpolatingParam id="11895" interp="linr"  time="-9999999/1" value="0" leadInLength="0/1"  />
              </VectorParam>
              <VectorParam id="11896"  name="shear">
               <InterpolatingParam id="11897" interp="linr"  time="-9999999/1" value="0" leadInLength="0/1"  />
               <InterpolatingParam id="11898" interp="linr"  time="-9999999/1" value="0" leadInLength="0/1"  />
               <InterpolatingParam id="11899" interp="linr"  time="-9999999/1" value="0" leadInLength="0/1"  />
              </VectorParam>
              <VectorParam id="11900"  name="scale">
               <InterpolatingParam id="11901" interp="linr"  time="-9999999/1" value="1" leadInLength="0/1"  />
               <InterpolatingParam id="11902" interp="linr"  time="-9999999/1" value="1" leadInLength="0/1"  />
               <InterpolatingParam id="11903" interp="linr"  time="-9999999/1" value="1" leadInLength="0/1"  />
              </VectorParam>
              <VectorParam id="11904"  name="anchor">
               <InterpolatingParam id="11905" interp="linr"  time="0/1" value="0" leadInLength="0/1"  />
               <InterpolatingParam id="11906" interp="linr"  time="0/1" value="0" leadInLength="0/1"  />
               <InterpolatingParam id="11907" interp="linr"  time="0/1" value="0" leadInLength="0/1"  />
              </VectorParam>
             </Transformer>
             <Parameters>
              <VectorParam id="11908"  name="sourceCrop">
               <InterpolatingParam id="11909" interp="linr"  time="0/1" value="0" leadInLength="0/1"  />
               <InterpolatingParam id="11910" interp="linr"  time="0/1" value="0" leadInLength="0/1"  />
               <InterpolatingParam id="11911" interp="linr"  time="0/1" value="0" leadInLength="0/1"  />
               <InterpolatingParam id="11912" interp="linr"  time="0/1" value="0" leadInLength="0/1"  />
              </VectorParam>
              <VectorParam id="11913"  name="geometryCrop">
               <InterpolatingParam id="11914" interp="linr"  time="-9999999/1" value="0" leadInLength="0/1"  />
               <InterpolatingParam id="11915" interp="linr"  time="-9999999/1" value="0" leadInLength="0/1"  />
               <InterpolatingParam id="11916" interp="linr"  time="-9999999/1" value="0" leadInLength="0/1"  />
               <InterpolatingParam id="11917" interp="linr"  time="-9999999/1" value="0" leadInLength="0/1"  />
              </VectorParam>
              <InterpolatingParam id="11918" interp="linr"  time="-9999999/1" value="1" leadInLength="0/1"  name="opacity"/>
              <InterpolatingParam id="11919" interp="linr"  time="0/1" value="0" leadInLength="0/1"  name="cursorOpacity"/>
              <InterpolatingParam id="11920" interp="linr"  time="0/1" value="0" leadInLength="0/1"  name="cursorScale"/>
             </Parameters>
             <Attributes>
              <Attribute id="11921" value="" name="ident"/>
             </Attributes>
             <ExtraData>
              <Entry key="ZoomPanBin">
               <ZoomPanBin id="11922"  >
                <ZoomPanKeyframes>
                 <ZoomPanKeyframe id="11923" timeRangeEnd="-9999999/1" timeRangeDuration="0/1" interpolaterName=""  />
                </ZoomPanKeyframes>
               </ZoomPanBin>
              </Entry>
              <Entry key="CursorEffectBin">
               <CursorEffectBin id="11924"  >
                <CursorEffectKeyframes>
                </CursorEffectKeyframes>
               </CursorEffectBin>
              </Entry>
             </ExtraData>
            </ScreenVMFile>
            <MetaData>
             <entry key="AutoAppliedSmartFocus" val="False"/>
             <entry key="WinSubProjectDisplayName" val=""/>
            </MetaData>
           </UnifiedMedia>
           <UnifiedMedia id="11925"  >
            <AMFile id="11926" start="10568" duration="50" scalar="1/1" mediaStart="19053/1" mediaDuration="50/1" trackNumber="1" src="4" channelNumber="0,1" >
             <Parameters>
              <InterpolatingParam id="11927" interp="linr"  time="0/1" value="1" leadInLength="0/1"  name="volume"/>
              <Parameter id="11928"  name="captions"/>
             </Parameters>
             <Attributes>
              <Attribute id="11929" value="" name="ident"/>
              <Attribute id="11930" value="44100" name="sampleRate"/>
              <Attribute id="11931" value="16" name="bitDepth"/>
              <Attribute id="11932" value="1" name="gain"/>
              <Attribute id="11933" value="0" name="mixToMono"/>
             </Attributes>
            </AMFile>
            <ScreenVMFile id="11934" start="10568" duration="50" scalar="1/1" mediaStart="19053/1" mediaDuration="50/1" trackNumber="0" src="4" >
             <Transformer>
              <VectorParam id="11935"  name="translation">
               <InterpolatingParam id="11936" interp="linr"  time="-9999999/1" value="0" leadInLength="0/1"  />
               <InterpolatingParam id="11937" interp="linr"  time="-9999999/1" value="0" leadInLength="0/1"  />
               <InterpolatingParam id="11938" interp="linr"  time="-9999999/1" value="0" leadInLength="0/1"  />
              </VectorParam>
              <VectorParam id="11939"  name="rotation">
               <InterpolatingParam id="11940" interp="linr"  time="-9999999/1" value="0" leadInLength="0/1"  />
               <InterpolatingParam id="11941" interp="linr"  time="-9999999/1" value="0" leadInLength="0/1"  />
               <InterpolatingParam id="11942" interp="linr"  time="-9999999/1" value="0" leadInLength="0/1"  />
              </VectorParam>
              <VectorParam id="11943"  name="shear">
               <InterpolatingParam id="11944" interp="linr"  time="-9999999/1" value="0" leadInLength="0/1"  />
               <InterpolatingParam id="11945" interp="linr"  time="-9999999/1" value="0" leadInLength="0/1"  />
               <InterpolatingParam id="11946" interp="linr"  time="-9999999/1" value="0" leadInLength="0/1"  />
              </VectorParam>
              <VectorParam id="11947"  name="scale">
               <InterpolatingParam id="11948" interp="linr"  time="-9999999/1" value="1" leadInLength="0/1"  />
               <InterpolatingParam id="11949" interp="linr"  time="-9999999/1" value="1" leadInLength="0/1"  />
               <InterpolatingParam id="11950" interp="linr"  time="-9999999/1" value="1" leadInLength="0/1"  />
              </VectorParam>
              <VectorParam id="11951"  name="anchor">
               <InterpolatingParam id="11952" interp="linr"  time="0/1" value="0" leadInLength="0/1"  />
               <InterpolatingParam id="11953" interp="linr"  time="0/1" value="0" leadInLength="0/1"  />
               <InterpolatingParam id="11954" interp="linr"  time="0/1" value="0" leadInLength="0/1"  />
              </VectorParam>
             </Transformer>
             <Parameters>
              <VectorParam id="11955"  name="sourceCrop">
               <InterpolatingParam id="11956" interp="linr"  time="0/1" value="0" leadInLength="0/1"  />
               <InterpolatingParam id="11957" interp="linr"  time="0/1" value="0" leadInLength="0/1"  />
               <InterpolatingParam id="11958" interp="linr"  time="0/1" value="0" leadInLength="0/1"  />
               <InterpolatingParam id="11959" interp="linr"  time="0/1" value="0" leadInLength="0/1"  />
              </VectorParam>
              <VectorParam id="11960"  name="geometryCrop">
               <InterpolatingParam id="11961" interp="linr"  time="-9999999/1" value="0" leadInLength="0/1"  />
               <InterpolatingParam id="11962" interp="linr"  time="-9999999/1" value="0" leadInLength="0/1"  />
               <InterpolatingParam id="11963" interp="linr"  time="-9999999/1" value="0" leadInLength="0/1"  />
               <InterpolatingParam id="11964" interp="linr"  time="-9999999/1" value="0" leadInLength="0/1"  />
              </VectorParam>
              <InterpolatingParam id="11965" interp="linr"  time="-9999999/1" value="1" leadInLength="0/1"  name="opacity"/>
              <InterpolatingParam id="11966" interp="linr"  time="0/1" value="0" leadInLength="0/1"  name="cursorOpacity"/>
              <InterpolatingParam id="11967" interp="linr"  time="0/1" value="0" leadInLength="0/1"  name="cursorScale"/>
             </Parameters>
             <Attributes>
              <Attribute id="11968" value="" name="ident"/>
             </Attributes>
             <ExtraData>
              <Entry key="ZoomPanBin">
               <ZoomPanBin id="11969"  >
                <ZoomPanKeyframes>
                 <ZoomPanKeyframe id="11970" timeRangeEnd="-9999999/1" timeRangeDuration="0/1" interpolaterName=""  />
                </ZoomPanKeyframes>
               </ZoomPanBin>
              </Entry>
              <Entry key="CursorEffectBin">
               <CursorEffectBin id="11971"  >
                <CursorEffectKeyframes>
                </CursorEffectKeyframes>
               </CursorEffectBin>
              </Entry>
             </ExtraData>
            </ScreenVMFile>
            <MetaData>
             <entry key="AutoAppliedSmartFocus" val="False"/>
             <entry key="WinSubProjectDisplayName" val=""/>
            </MetaData>
           </UnifiedMedia>
           <UnifiedMedia id="11972"  >
            <AMFile id="11973" start="10618" duration="77" scalar="1/1" mediaStart="19110/1" mediaDuration="77/1" trackNumber="1" src="4" channelNumber="0,1" >
             <Parameters>
              <InterpolatingParam id="11974" interp="linr"  time="0/1" value="1" leadInLength="0/1"  name="volume"/>
              <Parameter id="11975"  name="captions"/>
             </Parameters>
             <Attributes>
              <Attribute id="11976" value="" name="ident"/>
              <Attribute id="11977" value="44100" name="sampleRate"/>
              <Attribute id="11978" value="16" name="bitDepth"/>
              <Attribute id="11979" value="1" name="gain"/>
              <Attribute id="11980" value="0" name="mixToMono"/>
             </Attributes>
            </AMFile>
            <ScreenVMFile id="11981" start="10618" duration="77" scalar="1/1" mediaStart="19110/1" mediaDuration="77/1" trackNumber="0" src="4" >
             <Transformer>
              <VectorParam id="11982"  name="translation">
               <InterpolatingParam id="11983" interp="linr"  time="-9999999/1" value="0" leadInLength="0/1"  />
               <InterpolatingParam id="11984" interp="linr"  time="-9999999/1" value="0" leadInLength="0/1"  />
               <InterpolatingParam id="11985" interp="linr"  time="-9999999/1" value="0" leadInLength="0/1"  />
              </VectorParam>
              <VectorParam id="11986"  name="rotation">
               <InterpolatingParam id="11987" interp="linr"  time="-9999999/1" value="0" leadInLength="0/1"  />
               <InterpolatingParam id="11988" interp="linr"  time="-9999999/1" value="0" leadInLength="0/1"  />
               <InterpolatingParam id="11989" interp="linr"  time="-9999999/1" value="0" leadInLength="0/1"  />
              </VectorParam>
              <VectorParam id="11990"  name="shear">
               <InterpolatingParam id="11991" interp="linr"  time="-9999999/1" value="0" leadInLength="0/1"  />
               <InterpolatingParam id="11992" interp="linr"  time="-9999999/1" value="0" leadInLength="0/1"  />
               <InterpolatingParam id="11993" interp="linr"  time="-9999999/1" value="0" leadInLength="0/1"  />
              </VectorParam>
              <VectorParam id="11994"  name="scale">
               <InterpolatingParam id="11995" interp="linr"  time="-9999999/1" value="1" leadInLength="0/1"  />
               <InterpolatingParam id="11996" interp="linr"  time="-9999999/1" value="1" leadInLength="0/1"  />
               <InterpolatingParam id="11997" interp="linr"  time="-9999999/1" value="1" leadInLength="0/1"  />
              </VectorParam>
              <VectorParam id="11998"  name="anchor">
               <InterpolatingParam id="11999" interp="linr"  time="0/1" value="0" leadInLength="0/1"  />
               <InterpolatingParam id="12000" interp="linr"  time="0/1" value="0" leadInLength="0/1"  />
               <InterpolatingParam id="12001" interp="linr"  time="0/1" value="0" leadInLength="0/1"  />
              </VectorParam>
             </Transformer>
             <Parameters>
              <VectorParam id="12002"  name="sourceCrop">
               <InterpolatingParam id="12003" interp="linr"  time="0/1" value="0" leadInLength="0/1"  />
               <InterpolatingParam id="12004" interp="linr"  time="0/1" value="0" leadInLength="0/1"  />
               <InterpolatingParam id="12005" interp="linr"  time="0/1" value="0" leadInLength="0/1"  />
               <InterpolatingParam id="12006" interp="linr"  time="0/1" value="0" leadInLength="0/1"  />
              </VectorParam>
              <VectorParam id="12007"  name="geometryCrop">
               <InterpolatingParam id="12008" interp="linr"  time="-9999999/1" value="0" leadInLength="0/1"  />
               <InterpolatingParam id="12009" interp="linr"  time="-9999999/1" value="0" leadInLength="0/1"  />
               <InterpolatingParam id="12010" interp="linr"  time="-9999999/1" value="0" leadInLength="0/1"  />
               <InterpolatingParam id="12011" interp="linr"  time="-9999999/1" value="0" leadInLength="0/1"  />
              </VectorParam>
              <InterpolatingParam id="12012" interp="linr"  time="-9999999/1" value="1" leadInLength="0/1"  name="opacity"/>
              <InterpolatingParam id="12013" interp="linr"  time="0/1" value="0" leadInLength="0/1"  name="cursorOpacity"/>
              <InterpolatingParam id="12014" interp="linr"  time="0/1" value="0" leadInLength="0/1"  name="cursorScale"/>
             </Parameters>
             <Attributes>
              <Attribute id="12015" value="" name="ident"/>
             </Attributes>
             <ExtraData>
              <Entry key="ZoomPanBin">
               <ZoomPanBin id="12016"  >
                <ZoomPanKeyframes>
                 <ZoomPanKeyframe id="12017" timeRangeEnd="-9999999/1" timeRangeDuration="0/1" interpolaterName=""  />
                </ZoomPanKeyframes>
               </ZoomPanBin>
              </Entry>
              <Entry key="CursorEffectBin">
               <CursorEffectBin id="12018"  >
                <CursorEffectKeyframes>
                </CursorEffectKeyframes>
               </CursorEffectBin>
              </Entry>
             </ExtraData>
            </ScreenVMFile>
            <MetaData>
             <entry key="AutoAppliedSmartFocus" val="False"/>
             <entry key="WinSubProjectDisplayName" val=""/>
            </MetaData>
           </UnifiedMedia>
           <UnifiedMedia id="12019"  >
            <AMFile id="12020" start="10695" duration="83" scalar="1/1" mediaStart="19197/1" mediaDuration="83/1" trackNumber="1" src="4" channelNumber="0,1" >
             <Parameters>
              <InterpolatingParam id="12021" interp="linr"  time="0/1" value="1" leadInLength="0/1"  name="volume"/>
              <Parameter id="12022"  name="captions"/>
             </Parameters>
             <Attributes>
              <Attribute id="12023" value="" name="ident"/>
              <Attribute id="12024" value="44100" name="sampleRate"/>
              <Attribute id="12025" value="16" name="bitDepth"/>
              <Attribute id="12026" value="1" name="gain"/>
              <Attribute id="12027" value="0" name="mixToMono"/>
             </Attributes>
            </AMFile>
            <ScreenVMFile id="12028" start="10695" duration="83" scalar="1/1" mediaStart="19197/1" mediaDuration="83/1" trackNumber="0" src="4" >
             <Transformer>
              <VectorParam id="12029"  name="translation">
               <InterpolatingParam id="12030" interp="linr"  time="-9999999/1" value="0" leadInLength="0/1"  />
               <InterpolatingParam id="12031" interp="linr"  time="-9999999/1" value="0" leadInLength="0/1"  />
               <InterpolatingParam id="12032" interp="linr"  time="-9999999/1" value="0" leadInLength="0/1"  />
              </VectorParam>
              <VectorParam id="12033"  name="rotation">
               <InterpolatingParam id="12034" interp="linr"  time="-9999999/1" value="0" leadInLength="0/1"  />
               <InterpolatingParam id="12035" interp="linr"  time="-9999999/1" value="0" leadInLength="0/1"  />
               <InterpolatingParam id="12036" interp="linr"  time="-9999999/1" value="0" leadInLength="0/1"  />
              </VectorParam>
              <VectorParam id="12037"  name="shear">
               <InterpolatingParam id="12038" interp="linr"  time="-9999999/1" value="0" leadInLength="0/1"  />
               <InterpolatingParam id="12039" interp="linr"  time="-9999999/1" value="0" leadInLength="0/1"  />
               <InterpolatingParam id="12040" interp="linr"  time="-9999999/1" value="0" leadInLength="0/1"  />
              </VectorParam>
              <VectorParam id="12041"  name="scale">
               <InterpolatingParam id="12042" interp="linr"  time="-9999999/1" value="1" leadInLength="0/1"  />
               <InterpolatingParam id="12043" interp="linr"  time="-9999999/1" value="1" leadInLength="0/1"  />
               <InterpolatingParam id="12044" interp="linr"  time="-9999999/1" value="1" leadInLength="0/1"  />
              </VectorParam>
              <VectorParam id="12045"  name="anchor">
               <InterpolatingParam id="12046" interp="linr"  time="0/1" value="0" leadInLength="0/1"  />
               <InterpolatingParam id="12047" interp="linr"  time="0/1" value="0" leadInLength="0/1"  />
               <InterpolatingParam id="12048" interp="linr"  time="0/1" value="0" leadInLength="0/1"  />
              </VectorParam>
             </Transformer>
             <Parameters>
              <VectorParam id="12049"  name="sourceCrop">
               <InterpolatingParam id="12050" interp="linr"  time="0/1" value="0" leadInLength="0/1"  />
               <InterpolatingParam id="12051" interp="linr"  time="0/1" value="0" leadInLength="0/1"  />
               <InterpolatingParam id="12052" interp="linr"  time="0/1" value="0" leadInLength="0/1"  />
               <InterpolatingParam id="12053" interp="linr"  time="0/1" value="0" leadInLength="0/1"  />
              </VectorParam>
              <VectorParam id="12054"  name="geometryCrop">
               <InterpolatingParam id="12055" interp="linr"  time="-9999999/1" value="0" leadInLength="0/1"  />
               <InterpolatingParam id="12056" interp="linr"  time="-9999999/1" value="0" leadInLength="0/1"  />
               <InterpolatingParam id="12057" interp="linr"  time="-9999999/1" value="0" leadInLength="0/1"  />
               <InterpolatingParam id="12058" interp="linr"  time="-9999999/1" value="0" leadInLength="0/1"  />
              </VectorParam>
              <InterpolatingParam id="12059" interp="linr"  time="-9999999/1" value="1" leadInLength="0/1"  name="opacity"/>
              <InterpolatingParam id="12060" interp="linr"  time="0/1" value="0" leadInLength="0/1"  name="cursorOpacity"/>
              <InterpolatingParam id="12061" interp="linr"  time="0/1" value="0" leadInLength="0/1"  name="cursorScale"/>
             </Parameters>
             <Attributes>
              <Attribute id="12062" value="" name="ident"/>
             </Attributes>
             <ExtraData>
              <Entry key="ZoomPanBin">
               <ZoomPanBin id="12063"  >
                <ZoomPanKeyframes>
                 <ZoomPanKeyframe id="12064" timeRangeEnd="-9999999/1" timeRangeDuration="0/1" interpolaterName=""  />
                </ZoomPanKeyframes>
               </ZoomPanBin>
              </Entry>
              <Entry key="CursorEffectBin">
               <CursorEffectBin id="12065"  >
                <CursorEffectKeyframes>
                </CursorEffectKeyframes>
               </CursorEffectBin>
              </Entry>
             </ExtraData>
            </ScreenVMFile>
            <MetaData>
             <entry key="AutoAppliedSmartFocus" val="False"/>
             <entry key="WinSubProjectDisplayName" val=""/>
            </MetaData>
           </UnifiedMedia>
           <UnifiedMedia id="12066"  >
            <AMFile id="12067" start="10778" duration="144" scalar="1/1" mediaStart="19888/1" mediaDuration="144/1" trackNumber="1" src="4" channelNumber="0,1" >
             <Parameters>
              <InterpolatingParam id="12068" interp="linr"  time="0/1" value="1" leadInLength="0/1"  name="volume"/>
              <Parameter id="12069"  name="captions"/>
             </Parameters>
             <Attributes>
              <Attribute id="12070" value="" name="ident"/>
              <Attribute id="12071" value="44100" name="sampleRate"/>
              <Attribute id="12072" value="16" name="bitDepth"/>
              <Attribute id="12073" value="1" name="gain"/>
              <Attribute id="12074" value="0" name="mixToMono"/>
             </Attributes>
            </AMFile>
            <ScreenVMFile id="12075" start="10778" duration="144" scalar="1/1" mediaStart="19888/1" mediaDuration="144/1" trackNumber="0" src="4" >
             <Transformer>
              <VectorParam id="12076"  name="translation">
               <InterpolatingParam id="12077" interp="linr"  time="-9999999/1" value="0" leadInLength="0/1"  />
               <InterpolatingParam id="12078" interp="linr"  time="-9999999/1" value="0" leadInLength="0/1"  />
               <InterpolatingParam id="12079" interp="linr"  time="-9999999/1" value="0" leadInLength="0/1"  />
              </VectorParam>
              <VectorParam id="12080"  name="rotation">
               <InterpolatingParam id="12081" interp="linr"  time="-9999999/1" value="0" leadInLength="0/1"  />
               <InterpolatingParam id="12082" interp="linr"  time="-9999999/1" value="0" leadInLength="0/1"  />
               <InterpolatingParam id="12083" interp="linr"  time="-9999999/1" value="0" leadInLength="0/1"  />
              </VectorParam>
              <VectorParam id="12084"  name="shear">
               <InterpolatingParam id="12085" interp="linr"  time="-9999999/1" value="0" leadInLength="0/1"  />
               <InterpolatingParam id="12086" interp="linr"  time="-9999999/1" value="0" leadInLength="0/1"  />
               <InterpolatingParam id="12087" interp="linr"  time="-9999999/1" value="0" leadInLength="0/1"  />
              </VectorParam>
              <VectorParam id="12088"  name="scale">
               <InterpolatingParam id="12089" interp="linr"  time="-9999999/1" value="1" leadInLength="0/1"  />
               <InterpolatingParam id="12090" interp="linr"  time="-9999999/1" value="1" leadInLength="0/1"  />
               <InterpolatingParam id="12091" interp="linr"  time="-9999999/1" value="1" leadInLength="0/1"  />
              </VectorParam>
              <VectorParam id="12092"  name="anchor">
               <InterpolatingParam id="12093" interp="linr"  time="0/1" value="0" leadInLength="0/1"  />
               <InterpolatingParam id="12094" interp="linr"  time="0/1" value="0" leadInLength="0/1"  />
               <InterpolatingParam id="12095" interp="linr"  time="0/1" value="0" leadInLength="0/1"  />
              </VectorParam>
             </Transformer>
             <Parameters>
              <VectorParam id="12096"  name="sourceCrop">
               <InterpolatingParam id="12097" interp="linr"  time="0/1" value="0" leadInLength="0/1"  />
               <InterpolatingParam id="12098" interp="linr"  time="0/1" value="0" leadInLength="0/1"  />
               <InterpolatingParam id="12099" interp="linr"  time="0/1" value="0" leadInLength="0/1"  />
               <InterpolatingParam id="12100" interp="linr"  time="0/1" value="0" leadInLength="0/1"  />
              </VectorParam>
              <VectorParam id="12101"  name="geometryCrop">
               <InterpolatingParam id="12102" interp="linr"  time="-9999999/1" value="0" leadInLength="0/1"  />
               <InterpolatingParam id="12103" interp="linr"  time="-9999999/1" value="0" leadInLength="0/1"  />
               <InterpolatingParam id="12104" interp="linr"  time="-9999999/1" value="0" leadInLength="0/1"  />
               <InterpolatingParam id="12105" interp="linr"  time="-9999999/1" value="0" leadInLength="0/1"  />
              </VectorParam>
              <InterpolatingParam id="12106" interp="linr"  time="-9999999/1" value="1" leadInLength="0/1"  name="opacity"/>
              <InterpolatingParam id="12107" interp="linr"  time="0/1" value="0" leadInLength="0/1"  name="cursorOpacity"/>
              <InterpolatingParam id="12108" interp="linr"  time="0/1" value="0" leadInLength="0/1"  name="cursorScale"/>
             </Parameters>
             <Attributes>
              <Attribute id="12109" value="" name="ident"/>
             </Attributes>
             <ExtraData>
              <Entry key="ZoomPanBin">
               <ZoomPanBin id="12110"  >
                <ZoomPanKeyframes>
                 <ZoomPanKeyframe id="12111" timeRangeEnd="-9999999/1" timeRangeDuration="0/1" interpolaterName=""  />
                </ZoomPanKeyframes>
               </ZoomPanBin>
              </Entry>
              <Entry key="CursorEffectBin">
               <CursorEffectBin id="12112"  >
                <CursorEffectKeyframes>
                </CursorEffectKeyframes>
               </CursorEffectBin>
              </Entry>
             </ExtraData>
            </ScreenVMFile>
            <MetaData>
             <entry key="AutoAppliedSmartFocus" val="False"/>
             <entry key="WinSubProjectDisplayName" val=""/>
            </MetaData>
           </UnifiedMedia>
           <UnifiedMedia id="12113"  >
            <AMFile id="12114" start="10922" duration="467" scalar="1/1" mediaStart="20041/1" mediaDuration="467/1" trackNumber="1" src="4" channelNumber="0,1" >
             <Parameters>
              <InterpolatingParam id="12115" interp="linr"  time="0/1" value="1" leadInLength="0/1"  name="volume"/>
              <Parameter id="12116"  name="captions"/>
             </Parameters>
             <Attributes>
              <Attribute id="12117" value="" name="ident"/>
              <Attribute id="12118" value="44100" name="sampleRate"/>
              <Attribute id="12119" value="16" name="bitDepth"/>
              <Attribute id="12120" value="1" name="gain"/>
              <Attribute id="12121" value="0" name="mixToMono"/>
             </Attributes>
            </AMFile>
            <ScreenVMFile id="12122" start="10922" duration="467" scalar="1/1" mediaStart="20041/1" mediaDuration="467/1" trackNumber="0" src="4" >
             <Transformer>
              <VectorParam id="12123"  name="translation">
               <InterpolatingParam id="12124" interp="linr"  time="-9999999/1" value="0" leadInLength="0/1"  />
               <InterpolatingParam id="12125" interp="linr"  time="-9999999/1" value="0" leadInLength="0/1"  />
               <InterpolatingParam id="12126" interp="linr"  time="-9999999/1" value="0" leadInLength="0/1"  />
              </VectorParam>
              <VectorParam id="12127"  name="rotation">
               <InterpolatingParam id="12128" interp="linr"  time="-9999999/1" value="0" leadInLength="0/1"  />
               <InterpolatingParam id="12129" interp="linr"  time="-9999999/1" value="0" leadInLength="0/1"  />
               <InterpolatingParam id="12130" interp="linr"  time="-9999999/1" value="0" leadInLength="0/1"  />
              </VectorParam>
              <VectorParam id="12131"  name="shear">
               <InterpolatingParam id="12132" interp="linr"  time="-9999999/1" value="0" leadInLength="0/1"  />
               <InterpolatingParam id="12133" interp="linr"  time="-9999999/1" value="0" leadInLength="0/1"  />
               <InterpolatingParam id="12134" interp="linr"  time="-9999999/1" value="0" leadInLength="0/1"  />
              </VectorParam>
              <VectorParam id="12135"  name="scale">
               <InterpolatingParam id="12136" interp="linr"  time="-9999999/1" value="1" leadInLength="0/1"  />
               <InterpolatingParam id="12137" interp="linr"  time="-9999999/1" value="1" leadInLength="0/1"  />
               <InterpolatingParam id="12138" interp="linr"  time="-9999999/1" value="1" leadInLength="0/1"  />
              </VectorParam>
              <VectorParam id="12139"  name="anchor">
               <InterpolatingParam id="12140" interp="linr"  time="0/1" value="0" leadInLength="0/1"  />
               <InterpolatingParam id="12141" interp="linr"  time="0/1" value="0" leadInLength="0/1"  />
               <InterpolatingParam id="12142" interp="linr"  time="0/1" value="0" leadInLength="0/1"  />
              </VectorParam>
             </Transformer>
             <Parameters>
              <VectorParam id="12143"  name="sourceCrop">
               <InterpolatingParam id="12144" interp="linr"  time="0/1" value="0" leadInLength="0/1"  />
               <InterpolatingParam id="12145" interp="linr"  time="0/1" value="0" leadInLength="0/1"  />
               <InterpolatingParam id="12146" interp="linr"  time="0/1" value="0" leadInLength="0/1"  />
               <InterpolatingParam id="12147" interp="linr"  time="0/1" value="0" leadInLength="0/1"  />
              </VectorParam>
              <VectorParam id="12148"  name="geometryCrop">
               <InterpolatingParam id="12149" interp="linr"  time="-9999999/1" value="0" leadInLength="0/1"  />
               <InterpolatingParam id="12150" interp="linr"  time="-9999999/1" value="0" leadInLength="0/1"  />
               <InterpolatingParam id="12151" interp="linr"  time="-9999999/1" value="0" leadInLength="0/1"  />
               <InterpolatingParam id="12152" interp="linr"  time="-9999999/1" value="0" leadInLength="0/1"  />
              </VectorParam>
              <InterpolatingParam id="12153" interp="linr"  time="-9999999/1" value="1" leadInLength="0/1"  name="opacity"/>
              <InterpolatingParam id="12154" interp="linr"  time="0/1" value="0" leadInLength="0/1"  name="cursorOpacity"/>
              <InterpolatingParam id="12155" interp="linr"  time="0/1" value="0" leadInLength="0/1"  name="cursorScale"/>
             </Parameters>
             <Attributes>
              <Attribute id="12156" value="" name="ident"/>
             </Attributes>
             <ExtraData>
              <Entry key="ZoomPanBin">
               <ZoomPanBin id="12157"  >
                <ZoomPanKeyframes>
                 <ZoomPanKeyframe id="12158" timeRangeEnd="-9999999/1" timeRangeDuration="0/1" interpolaterName=""  />
                </ZoomPanKeyframes>
               </ZoomPanBin>
              </Entry>
              <Entry key="CursorEffectBin">
               <CursorEffectBin id="12159"  >
                <CursorEffectKeyframes>
                </CursorEffectKeyframes>
               </CursorEffectBin>
              </Entry>
             </ExtraData>
            </ScreenVMFile>
            <MetaData>
             <entry key="AutoAppliedSmartFocus" val="False"/>
             <entry key="WinSubProjectDisplayName" val=""/>
            </MetaData>
           </UnifiedMedia>
           <UnifiedMedia id="12160"  >
            <AMFile id="12161" start="11389" duration="487" scalar="1/1" mediaStart="20844/1" mediaDuration="487/1" trackNumber="1" src="4" channelNumber="0,1" >
             <Parameters>
              <InterpolatingParam id="12162" interp="linr"  time="0/1" value="1" leadInLength="0/1"  name="volume"/>
              <Parameter id="12163"  name="captions"/>
             </Parameters>
             <Attributes>
              <Attribute id="12164" value="" name="ident"/>
              <Attribute id="12165" value="44100" name="sampleRate"/>
              <Attribute id="12166" value="16" name="bitDepth"/>
              <Attribute id="12167" value="1" name="gain"/>
              <Attribute id="12168" value="0" name="mixToMono"/>
             </Attributes>
            </AMFile>
            <ScreenVMFile id="12169" start="11389" duration="487" scalar="1/1" mediaStart="20844/1" mediaDuration="487/1" trackNumber="0" src="4" >
             <Transformer>
              <VectorParam id="12170"  name="translation">
               <InterpolatingParam id="12171" interp="linr"  time="-9999999/1" value="0" leadInLength="0/1"  />
               <InterpolatingParam id="12172" interp="linr"  time="-9999999/1" value="0" leadInLength="0/1"  />
               <InterpolatingParam id="12173" interp="linr"  time="-9999999/1" value="0" leadInLength="0/1"  />
              </VectorParam>
              <VectorParam id="12174"  name="rotation">
               <InterpolatingParam id="12175" interp="linr"  time="-9999999/1" value="0" leadInLength="0/1"  />
               <InterpolatingParam id="12176" interp="linr"  time="-9999999/1" value="0" leadInLength="0/1"  />
               <InterpolatingParam id="12177" interp="linr"  time="-9999999/1" value="0" leadInLength="0/1"  />
              </VectorParam>
              <VectorParam id="12178"  name="shear">
               <InterpolatingParam id="12179" interp="linr"  time="-9999999/1" value="0" leadInLength="0/1"  />
               <InterpolatingParam id="12180" interp="linr"  time="-9999999/1" value="0" leadInLength="0/1"  />
               <InterpolatingParam id="12181" interp="linr"  time="-9999999/1" value="0" leadInLength="0/1"  />
              </VectorParam>
              <VectorParam id="12182"  name="scale">
               <InterpolatingParam id="12183" interp="linr"  time="-9999999/1" value="1" leadInLength="0/1"  />
               <InterpolatingParam id="12184" interp="linr"  time="-9999999/1" value="1" leadInLength="0/1"  />
               <InterpolatingParam id="12185" interp="linr"  time="-9999999/1" value="1" leadInLength="0/1"  />
              </VectorParam>
              <VectorParam id="12186"  name="anchor">
               <InterpolatingParam id="12187" interp="linr"  time="0/1" value="0" leadInLength="0/1"  />
               <InterpolatingParam id="12188" interp="linr"  time="0/1" value="0" leadInLength="0/1"  />
               <InterpolatingParam id="12189" interp="linr"  time="0/1" value="0" leadInLength="0/1"  />
              </VectorParam>
             </Transformer>
             <Parameters>
              <VectorParam id="12190"  name="sourceCrop">
               <InterpolatingParam id="12191" interp="linr"  time="0/1" value="0" leadInLength="0/1"  />
               <InterpolatingParam id="12192" interp="linr"  time="0/1" value="0" leadInLength="0/1"  />
               <InterpolatingParam id="12193" interp="linr"  time="0/1" value="0" leadInLength="0/1"  />
               <InterpolatingParam id="12194" interp="linr"  time="0/1" value="0" leadInLength="0/1"  />
              </VectorParam>
              <VectorParam id="12195"  name="geometryCrop">
               <InterpolatingParam id="12196" interp="linr"  time="-9999999/1" value="0" leadInLength="0/1"  />
               <InterpolatingParam id="12197" interp="linr"  time="-9999999/1" value="0" leadInLength="0/1"  />
               <InterpolatingParam id="12198" interp="linr"  time="-9999999/1" value="0" leadInLength="0/1"  />
               <InterpolatingParam id="12199" interp="linr"  time="-9999999/1" value="0" leadInLength="0/1"  />
              </VectorParam>
              <InterpolatingParam id="12200" interp="linr"  time="-9999999/1" value="1" leadInLength="0/1"  name="opacity"/>
              <InterpolatingParam id="12201" interp="linr"  time="0/1" value="0" leadInLength="0/1"  name="cursorOpacity"/>
              <InterpolatingParam id="12202" interp="linr"  time="0/1" value="0" leadInLength="0/1"  name="cursorScale"/>
             </Parameters>
             <Attributes>
              <Attribute id="12203" value="" name="ident"/>
             </Attributes>
             <ExtraData>
              <Entry key="ZoomPanBin">
               <ZoomPanBin id="12204"  >
                <ZoomPanKeyframes>
                 <ZoomPanKeyframe id="12205" timeRangeEnd="-9999999/1" timeRangeDuration="0/1" interpolaterName=""  />
                </ZoomPanKeyframes>
               </ZoomPanBin>
              </Entry>
              <Entry key="CursorEffectBin">
               <CursorEffectBin id="12206"  >
                <CursorEffectKeyframes>
                </CursorEffectKeyframes>
               </CursorEffectBin>
              </Entry>
             </ExtraData>
            </ScreenVMFile>
            <MetaData>
             <entry key="AutoAppliedSmartFocus" val="False"/>
             <entry key="WinSubProjectDisplayName" val=""/>
            </MetaData>
           </UnifiedMedia>
          </Medias>
         </GenericTrack>
        </StitchedMedia>
       </Medias>
      </GenericTrack>
      <GenericTrack id="12207"  >
       <Attributes>
        <Attribute id="12208" value="" name="ident"/>
        <Attribute id="12209" value="0" name="audioMuted"/>
        <Attribute id="12210" value="0" name="videoHidden"/>
       </Attributes>
       <MetaData>
        <entry key="IsLocked" val="False"/>
        <entry key="WinTrackHeight" val="62"/>
       </MetaData>
       <Medias>
       </Medias>
      </GenericTrack>
     </Tracks>
    </GenericMixer>
   <CaptionAttributes id="12211"  >
    <Attribute id="12212" value="1" name="captionsEnabled"/>
    <Attribute id="12213" value="Arial" name="captionsFontName"/>
    <Attribute id="12214" value="36" name="captionsFontSize"/>
    <Attribute id="12215" value="(0,0,0,255)" name="captionsBackgroundColor"/>
    <Attribute id="12216" value="(255,255,255,255)" name="captionsForegroundColor"/>
    <Attribute id="12217" value="en" name="lang"/>
    <Attribute id="12218" value="0" name="captionsAlignment"/>
    <Attribute id="12219" value="1" name="captionsDefaultFontSize"/>
    <Attribute id="12220" value="0.5" name="captionsOpacity"/>
    <Attribute id="12221" value="1" name="captionsBackgroundEnabled"/>
    <Attribute id="12222" value="1" name="captionsBackgroundOnlyAroundText"/>
   </CaptionAttributes>
   <Parameters>
    <VectorParam id="12223"  name="eyePosition">
     <InterpolatingParam id="12224" interp="linr"  time="0/1" value="0" leadInLength="0/1"  />
     <InterpolatingParam id="12225" interp="linr"  time="0/1" value="0" leadInLength="0/1"  />
     <InterpolatingParam id="12226" interp="linr"  time="0/1" value="3000" leadInLength="0/1"  />
    </VectorParam>
    <VectorParam id="12227"  name="eyeLookAtPosition">
     <InterpolatingParam id="12228" interp="linr"  time="0/1" value="0" leadInLength="0/1"  />
     <InterpolatingParam id="12229" interp="linr"  time="0/1" value="0" leadInLength="0/1"  />
     <InterpolatingParam id="12230" interp="linr"  time="0/1" value="0" leadInLength="0/1"  />
    </VectorParam>
    <VectorParam id="12231"  name="eyeUpVector">
     <InterpolatingParam id="12232" interp="linr"  time="0/1" value="0" leadInLength="0/1"  />
     <InterpolatingParam id="12233" interp="linr"  time="0/1" value="1" leadInLength="0/1"  />
     <InterpolatingParam id="12234" interp="linr"  time="0/1" value="0" leadInLength="0/1"  />
    </VectorParam>
    <InterpolatingParam id="12235" interp="linr"  time="0/1" value="0.356185883" leadInLength="0/1"  name="fov"/>
    <InterpolatingParam id="12236" interp="linr"  time="0/1" value="1.5" leadInLength="0/1"  name="nearClipDistance"/>
    <InterpolatingParam id="12237" interp="linr"  time="0/1" value="6000" leadInLength="0/1"  name="farClipDistance"/>
   </Parameters>
  </Timeline>
 </Project>
</GoProject>
</CSMLData>

</Project_Data>
